<?xml version="1.0" encoding="UTF-8" standalone="no"?>
<!DOCTYPE svg PUBLIC "-//W3C//DTD SVG 1.1//EN"
 "http://www.w3.org/Graphics/SVG/1.1/DTD/svg11.dtd">
<!-- Generated by graphviz version 2.49.0 (20210828.1703)
 -->
<!-- Title: C:/Users/folae/Documents/Code/Big&#45;Projects/ArkScript/Ark/lib/modules/hash/src/md5.cpp Pages: 1 -->
<svg width="176pt" height="162pt"
 viewBox="0.00 0.00 176.00 162.00" xmlns="http://www.w3.org/2000/svg" xmlns:xlink="http://www.w3.org/1999/xlink">
<g id="graph0" class="graph" transform="scale(1 1) rotate(0) translate(4 158)">
<title>C:/Users/folae/Documents/Code/Big&#45;Projects/ArkScript/Ark/lib/modules/hash/src/md5.cpp</title>
<polygon fill="white" stroke="transparent" points="-4,4 -4,-158 172,-158 172,4 -4,4"/>
<!-- Node1 -->
<g id="node1" class="node">
<title>Node1</title>
<g id="a_node1"><a xlink:title=" ">
<polygon fill="#bfbfbf" stroke="black" points="0,-112.5 0,-153.5 168,-153.5 168,-112.5 0,-112.5"/>
<text text-anchor="start" x="8" y="-141.5" font-family="Helvetica,sans-Serif" font-size="10.00">C:/Users/folae/Documents</text>
<text text-anchor="start" x="8" y="-130.5" font-family="Helvetica,sans-Serif" font-size="10.00">/Code/Big&#45;Projects/ArkScript</text>
<text text-anchor="middle" x="84" y="-119.5" font-family="Helvetica,sans-Serif" font-size="10.00">/Ark/lib/modules/hash/src/md5.cpp</text>
</a>
</g>
</g>
<!-- Node2 -->
<g id="node2" class="node">
<title>Node2</title>
<g id="a_node2"><a xlink:href="../../d4/d0f/md5_8hpp.html" target="_top" xlink:title=" ">
<polygon fill="white" stroke="black" points="57,-56.5 57,-75.5 111,-75.5 111,-56.5 57,-56.5"/>
<text text-anchor="middle" x="84" y="-63.5" font-family="Helvetica,sans-Serif" font-size="10.00">md5.hpp</text>
</a>
</g>
</g>
<!-- Node1&#45;&gt;Node2 -->
<g id="edge1" class="edge">
<title>Node1&#45;&gt;Node2</title>
<path fill="none" stroke="midnightblue" d="M84,-112.5C84,-104.07 84,-94.24 84,-85.87"/>
<polygon fill="midnightblue" stroke="midnightblue" points="87.5,-85.65 84,-75.65 80.5,-85.65 87.5,-85.65"/>
</g>
<!-- Node3 -->
<g id="node3" class="node">
<title>Node3</title>
<g id="a_node3"><a xlink:title=" ">
<polygon fill="white" stroke="#bfbfbf" points="32.5,-0.5 32.5,-19.5 73.5,-19.5 73.5,-0.5 32.5,-0.5"/>
<text text-anchor="middle" x="53" y="-7.5" font-family="Helvetica,sans-Serif" font-size="10.00">string</text>
</a>
</g>
</g>
<!-- Node2&#45;&gt;Node3 -->
<g id="edge2" class="edge">
<title>Node2&#45;&gt;Node3</title>
<path fill="none" stroke="midnightblue" d="M78.88,-56.08C74.59,-48.61 68.34,-37.72 63.06,-28.52"/>
<polygon fill="midnightblue" stroke="midnightblue" points="66.04,-26.68 58.02,-19.75 59.97,-30.17 66.04,-26.68"/>
</g>
<!-- Node4 -->
<g id="node4" class="node">
<title>Node4</title>
<g id="a_node4"><a xlink:title=" ">
<polygon fill="white" stroke="#bfbfbf" points="92,-0.5 92,-19.5 138,-19.5 138,-0.5 92,-0.5"/>
<text text-anchor="middle" x="115" y="-7.5" font-family="Helvetica,sans-Serif" font-size="10.00">cstring</text>
</a>
</g>
</g>
<!-- Node2&#45;&gt;Node4 -->
<g id="edge3" class="edge">
<title>Node2&#45;&gt;Node4</title>
<path fill="none" stroke="midnightblue" d="M89.12,-56.08C93.41,-48.61 99.66,-37.72 104.94,-28.52"/>
<polygon fill="midnightblue" stroke="midnightblue" points="108.03,-30.17 109.98,-19.75 101.96,-26.68 108.03,-30.17"/>
</g>
</g>
</svg>
