<?xml version="1.0" encoding="UTF-8" standalone="no"?>
<!DOCTYPE svg PUBLIC "-//W3C//DTD SVG 1.1//EN"
 "http://www.w3.org/Graphics/SVG/1.1/DTD/svg11.dtd">
<!-- Generated by graphviz version 12.1.1 (20240910.0053)
 -->
<!-- Title: /Users/fola/Documents/ArkScript/Ark/include/Ark/Compiler/AST/Node.hpp Pages: 1 -->
<svg width="478pt" height="160pt"
 viewBox="0.00 0.00 478.38 160.25" xmlns="http://www.w3.org/2000/svg" xmlns:xlink="http://www.w3.org/1999/xlink">

<svg id="main" version="1.1" xmlns="http://www.w3.org/2000/svg" xmlns:xlink="http://www.w3.org/1999/xlink" xml:space="preserve">

<style type="text/css"><![CDATA[
.node, .edge {opacity: 0.7;}
.node.selected, .edge.selected {opacity: 1;}
.edge:hover path { stroke: red; }
.edge:hover polygon { stroke: red; fill: red; }
]]></style>
<script type="application/ecmascript" xlink:href="../../svg.min.js"/>
<svg id="graph" class="graph">
<g id="graph0" class="graph" transform="scale(1 1) rotate(0) translate(4 156.25)">
<title>/Users/fola/Documents/ArkScript/Ark/include/Ark/Compiler/AST/Node.hpp</title>
<!-- Node1 -->
<g id="Node000001" class="node">
<title>Node1</title>
<g id="a_Node000001"><a xlink:title="AST node used by the parser, optimizer and compiler.">
<polygon fill="#999999" stroke="#666666" points="248.38,-152.25 104.88,-152.25 104.88,-110.5 248.38,-110.5 248.38,-152.25"/>
<text text-anchor="start" x="112.88" y="-138.75" font-family="Helvetica,sans-Serif" font-size="10.00">/Users/fola/Documents</text>
<text text-anchor="start" x="112.88" y="-127.5" font-family="Helvetica,sans-Serif" font-size="10.00">/ArkScript/Ark/include</text>
<text text-anchor="middle" x="176.62" y="-116.25" font-family="Helvetica,sans-Serif" font-size="10.00">/Ark/Compiler/AST/Node.hpp</text>
</a>
</g>
</g>
<!-- Node2 -->
<g id="Node000002" class="node">
<title>Node2</title>
<g id="a_Node000002"><a xlink:title=" ">
<polygon fill="#e0e0e0" stroke="#999999" points="45.25,-74.5 0,-74.5 0,-55.25 45.25,-55.25 45.25,-74.5"/>
<text text-anchor="middle" x="22.62" y="-61" font-family="Helvetica,sans-Serif" font-size="10.00">variant</text>
</a>
</g>
</g>
<!-- Node1&#45;&gt;Node2 -->
<g id="edge1_Node000001_Node000002" class="edge">
<title>Node1&#45;&gt;Node2</title>
<g id="a_edge1_Node000001_Node000002"><a xlink:title=" ">
<path fill="none" stroke="#63b8ff" d="M128.32,-110.14C104.28,-100.08 75.89,-88.19 54.59,-79.26"/>
<polygon fill="#63b8ff" stroke="#63b8ff" points="56.13,-76.11 45.56,-75.48 53.43,-82.57 56.13,-76.11"/>
</a>
</g>
</g>
<!-- Node3 -->
<g id="Node000003" class="node">
<title>Node3</title>
<g id="a_Node000003"><a xlink:title=" ">
<polygon fill="#e0e0e0" stroke="#999999" points="114.25,-74.5 63,-74.5 63,-55.25 114.25,-55.25 114.25,-74.5"/>
<text text-anchor="middle" x="88.62" y="-61" font-family="Helvetica,sans-Serif" font-size="10.00">ostream</text>
</a>
</g>
</g>
<!-- Node1&#45;&gt;Node3 -->
<g id="edge2_Node000001_Node000003" class="edge">
<title>Node1&#45;&gt;Node3</title>
<g id="a_edge2_Node000001_Node000003"><a xlink:title=" ">
<path fill="none" stroke="#63b8ff" d="M149.26,-110.32C136.65,-101.08 121.9,-90.26 110.1,-81.62"/>
<polygon fill="#63b8ff" stroke="#63b8ff" points="112.36,-78.93 102.22,-75.84 108.22,-84.57 112.36,-78.93"/>
</a>
</g>
</g>
<!-- Node4 -->
<g id="Node000004" class="node">
<title>Node4</title>
<g id="a_Node000004"><a xlink:title=" ">
<polygon fill="#e0e0e0" stroke="#999999" points="172.62,-74.5 132.62,-74.5 132.62,-55.25 172.62,-55.25 172.62,-74.5"/>
<text text-anchor="middle" x="152.62" y="-61" font-family="Helvetica,sans-Serif" font-size="10.00">string</text>
</a>
</g>
</g>
<!-- Node1&#45;&gt;Node4 -->
<g id="edge3_Node000001_Node000004" class="edge">
<title>Node1&#45;&gt;Node4</title>
<g id="a_edge3_Node000001_Node000004"><a xlink:title=" ">
<path fill="none" stroke="#63b8ff" d="M169.16,-110.32C166.24,-102.46 162.89,-93.47 159.98,-85.64"/>
<polygon fill="#63b8ff" stroke="#63b8ff" points="163.3,-84.52 156.53,-76.36 156.73,-86.96 163.3,-84.52"/>
</a>
</g>
</g>
<!-- Node5 -->
<g id="Node000005" class="node">
<title>Node5</title>
<g id="a_Node000005"><a xlink:title=" ">
<polygon fill="#e0e0e0" stroke="#999999" points="222.12,-19.25 179.12,-19.25 179.12,0 222.12,0 222.12,-19.25"/>
<text text-anchor="middle" x="200.62" y="-5.75" font-family="Helvetica,sans-Serif" font-size="10.00">vector</text>
</a>
</g>
</g>
<!-- Node1&#45;&gt;Node5 -->
<g id="edge4_Node000001_Node000005" class="edge">
<title>Node1&#45;&gt;Node5</title>
<g id="a_edge4_Node000001_Node000005"><a xlink:title=" ">
<path fill="none" stroke="#63b8ff" d="M180.7,-110.06C185.12,-87.97 192.16,-52.88 196.58,-30.83"/>
<polygon fill="#63b8ff" stroke="#63b8ff" points="200,-31.53 198.54,-21.04 193.14,-30.16 200,-31.53"/>
</a>
</g>
</g>
<!-- Node6 -->
<g id="Node000006" class="node">
<title>Node6</title>
<g id="a_Node000006"><a xlink:href="../../d8/ddd/Common_8hpp.html" target="_top" xlink:title="Common code for the compiler.">
<polygon fill="white" stroke="#666666" points="362.88,-74.5 228.38,-74.5 228.38,-55.25 362.88,-55.25 362.88,-74.5"/>
<text text-anchor="middle" x="295.62" y="-61" font-family="Helvetica,sans-Serif" font-size="10.00">Ark/Compiler/Common.hpp</text>
</a>
</g>
</g>
<!-- Node1&#45;&gt;Node6 -->
<g id="edge5_Node000001_Node000006" class="edge">
<title>Node1&#45;&gt;Node6</title>
<g id="a_edge5_Node000001_Node000006"><a xlink:title=" ">
<path fill="none" stroke="#63b8ff" d="M213.95,-110.14C231.84,-100.45 252.86,-89.06 269.09,-80.26"/>
<polygon fill="#63b8ff" stroke="#63b8ff" points="270.53,-83.46 277.65,-75.62 267.19,-77.3 270.53,-83.46"/>
</a>
</g>
</g>
<!-- Node10 -->
<g id="Node000010" class="node">
<title>Node10</title>
<g id="a_Node000010"><a xlink:href="../../d5/d40/Platform_8hpp.html" target="_top" xlink:title="ArkScript configuration macros.">
<polygon fill="white" stroke="#666666" points="470.38,-74.5 380.88,-74.5 380.88,-55.25 470.38,-55.25 470.38,-74.5"/>
<text text-anchor="middle" x="425.62" y="-61" font-family="Helvetica,sans-Serif" font-size="10.00">Ark/Platform.hpp</text>
</a>
</g>
</g>
<!-- Node1&#45;&gt;Node10 -->
<g id="edge10_Node000001_Node000010" class="edge">
<title>Node1&#45;&gt;Node10</title>
<g id="a_edge10_Node000001_Node000010"><a xlink:title=" ">
<path fill="none" stroke="#63b8ff" d="M248.65,-111.72C290.95,-100.76 343.15,-87.24 379.86,-77.73"/>
<polygon fill="#63b8ff" stroke="#63b8ff" points="380.46,-81.19 389.26,-75.29 378.7,-74.41 380.46,-81.19"/>
</a>
</g>
</g>
<!-- Node6&#45;&gt;Node5 -->
<g id="edge8_Node000006_Node000005" class="edge">
<title>Node6&#45;&gt;Node5</title>
<g id="a_edge8_Node000006_Node000005"><a xlink:title=" ">
<path fill="none" stroke="#63b8ff" d="M279.51,-54.84C265.04,-46.73 243.55,-34.68 226.64,-25.21"/>
<polygon fill="#63b8ff" stroke="#63b8ff" points="228.57,-22.28 218.14,-20.44 225.15,-28.39 228.57,-22.28"/>
</a>
</g>
</g>
<!-- Node7 -->
<g id="Node000007" class="node">
<title>Node7</title>
<g id="a_Node000007"><a xlink:title=" ">
<polygon fill="#e0e0e0" stroke="#999999" points="277.5,-19.25 239.75,-19.25 239.75,0 277.5,0 277.5,-19.25"/>
<text text-anchor="middle" x="258.62" y="-5.75" font-family="Helvetica,sans-Serif" font-size="10.00">array</text>
</a>
</g>
</g>
<!-- Node6&#45;&gt;Node7 -->
<g id="edge6_Node000006_Node000007" class="edge">
<title>Node6&#45;&gt;Node7</title>
<g id="a_edge6_Node000006_Node000007"><a xlink:title=" ">
<path fill="none" stroke="#63b8ff" d="M289.52,-55.08C284.56,-47.96 277.42,-37.68 271.25,-28.8"/>
<polygon fill="#63b8ff" stroke="#63b8ff" points="274.31,-27.07 265.73,-20.85 268.56,-31.06 274.31,-27.07"/>
</a>
</g>
</g>
<!-- Node8 -->
<g id="Node000008" class="node">
<title>Node8</title>
<g id="a_Node000008"><a xlink:title=" ">
<polygon fill="#e0e0e0" stroke="#999999" points="361.38,-19.25 295.88,-19.25 295.88,0 361.38,0 361.38,-19.25"/>
<text text-anchor="middle" x="328.62" y="-5.75" font-family="Helvetica,sans-Serif" font-size="10.00">string_view</text>
</a>
</g>
</g>
<!-- Node6&#45;&gt;Node8 -->
<g id="edge7_Node000006_Node000008" class="edge">
<title>Node6&#45;&gt;Node8</title>
<g id="a_edge7_Node000006_Node000008"><a xlink:title=" ">
<path fill="none" stroke="#63b8ff" d="M301.07,-55.08C305.4,-48.11 311.59,-38.12 317.01,-29.37"/>
<polygon fill="#63b8ff" stroke="#63b8ff" points="319.97,-31.24 322.26,-20.9 314.02,-27.55 319.97,-31.24"/>
</a>
</g>
</g>
<!-- Node9 -->
<g id="Node000009" class="node">
<title>Node9</title>
<g id="a_Node000009"><a xlink:title=" ">
<polygon fill="#e0e0e0" stroke="#999999" points="435.5,-19.25 379.75,-19.25 379.75,0 435.5,0 435.5,-19.25"/>
<text text-anchor="middle" x="407.62" y="-5.75" font-family="Helvetica,sans-Serif" font-size="10.00">cinttypes</text>
</a>
</g>
</g>
<!-- Node6&#45;&gt;Node9 -->
<g id="edge9_Node000006_Node000009" class="edge">
<title>Node6&#45;&gt;Node9</title>
<g id="a_edge9_Node000006_Node000009"><a xlink:title=" ">
<path fill="none" stroke="#63b8ff" d="M314.62,-54.84C332.08,-46.54 358.22,-34.11 378.35,-24.54"/>
<polygon fill="#63b8ff" stroke="#63b8ff" points="379.64,-27.81 387.17,-20.35 376.63,-21.49 379.64,-27.81"/>
</a>
</g>
</g>
</g>
</svg>
</svg>

<style type='text/css'>
<![CDATA[
[data-mouse-over-selected='false'] { opacity: 0.7; }
[data-mouse-over-selected='true']  { opacity: 1.0; }
]]>
</style>
<script type="application/ecmascript"><![CDATA[
document.addEventListener('DOMContentLoaded', (event) => {
  highlightEdges();
  highlightAdjacentNodes();
});
]]></script>
</svg>
