<?xml version="1.0" encoding="UTF-8" standalone="no"?>
<!DOCTYPE svg PUBLIC "-//W3C//DTD SVG 1.1//EN"
 "http://www.w3.org/Graphics/SVG/1.1/DTD/svg11.dtd">
<!-- Generated by graphviz version 2.43.0 (0)
 -->
<!-- Title: /home/fola/code/Ark/include/Ark/VM/ExecutionContext.hpp Pages: 1 -->
<svg width="859pt" height="329pt"
 viewBox="0.00 0.00 858.50 329.00" xmlns="http://www.w3.org/2000/svg" xmlns:xlink="http://www.w3.org/1999/xlink">
<g id="graph0" class="graph" transform="scale(1 1) rotate(0) translate(4 325)">
<title>/home/fola/code/Ark/include/Ark/VM/ExecutionContext.hpp</title>
<polygon fill="white" stroke="transparent" points="-4,4 -4,-325 854.5,-325 854.5,4 -4,4"/>
<!-- Node1 -->
<g id="node1" class="node">
<title>Node1</title>
<g id="a_node1"><a xlink:title="Keeping track of the internal data needed by the VM.">
<polygon fill="#bfbfbf" stroke="black" points="469,-290.5 469,-320.5 672,-320.5 672,-290.5 469,-290.5"/>
<text text-anchor="start" x="477" y="-308.5" font-family="Helvetica,sans-Serif" font-size="10.00">/home/fola/code/Ark</text>
<text text-anchor="middle" x="570.5" y="-297.5" font-family="Helvetica,sans-Serif" font-size="10.00">/include/Ark/VM/ExecutionContext.hpp</text>
</a>
</g>
</g>
<!-- Node2 -->
<g id="node2" class="node">
<title>Node2</title>
<g id="a_node2"><a xlink:href="../../d0/dda/Future_8hpp.html" target="_top" xlink:title=" ">
<polygon fill="white" stroke="black" points="547.5,-223.5 547.5,-253.5 695.5,-253.5 695.5,-223.5 547.5,-223.5"/>
<text text-anchor="start" x="555.5" y="-241.5" font-family="Helvetica,sans-Serif" font-size="10.00">/home/fola/code/Ark</text>
<text text-anchor="middle" x="621.5" y="-230.5" font-family="Helvetica,sans-Serif" font-size="10.00">/include/Ark/VM/Future.hpp</text>
</a>
</g>
</g>
<!-- Node1&#45;&gt;Node2 -->
<g id="edge1" class="edge">
<title>Node1&#45;&gt;Node2</title>
<path fill="none" stroke="midnightblue" d="M587.8,-282.45C595.29,-272.9 603.84,-262 610.46,-253.58"/>
<polygon fill="midnightblue" stroke="midnightblue" points="584.99,-280.37 581.57,-290.4 590.49,-284.69 584.99,-280.37"/>
</g>
<!-- Node3 -->
<g id="node3" class="node">
<title>Node3</title>
<g id="a_node3"><a xlink:href="../../d1/d91/VM_8hpp.html" target="_top" xlink:title="The ArkScript virtual machine.">
<polygon fill="white" stroke="black" points="453,-156.5 453,-186.5 586,-186.5 586,-156.5 453,-156.5"/>
<text text-anchor="start" x="461" y="-174.5" font-family="Helvetica,sans-Serif" font-size="10.00">/home/fola/code/Ark</text>
<text text-anchor="middle" x="519.5" y="-163.5" font-family="Helvetica,sans-Serif" font-size="10.00">/include/Ark/VM/VM.hpp</text>
</a>
</g>
</g>
<!-- Node1&#45;&gt;Node3 -->
<g id="edge13" class="edge">
<title>Node1&#45;&gt;Node3</title>
<path fill="none" stroke="midnightblue" d="M553.78,-281.73C548.26,-273.35 542.51,-263.56 538.5,-254 529.06,-231.49 523.83,-203.42 521.35,-186.79"/>
<polygon fill="midnightblue" stroke="midnightblue" points="551.05,-283.93 559.6,-290.2 556.82,-279.97 551.05,-283.93"/>
</g>
<!-- Node2&#45;&gt;Node3 -->
<g id="edge2" class="edge">
<title>Node2&#45;&gt;Node3</title>
<path fill="none" stroke="midnightblue" d="M590.92,-218.02C575.05,-207.9 556.02,-195.77 541.59,-186.58"/>
<polygon fill="midnightblue" stroke="midnightblue" points="589.05,-220.97 599.37,-223.4 592.82,-215.07 589.05,-220.97"/>
</g>
<!-- Node9 -->
<g id="node9" class="node">
<title>Node9</title>
<g id="a_node9"><a xlink:href="../../d4/dc9/Future_8cpp.html" target="_top" xlink:title=" ">
<polygon fill="white" stroke="black" points="690.5,-84 690.5,-114 850.5,-114 850.5,-84 690.5,-84"/>
<text text-anchor="start" x="698.5" y="-102" font-family="Helvetica,sans-Serif" font-size="10.00">/home/fola/code/Ark</text>
<text text-anchor="middle" x="770.5" y="-91" font-family="Helvetica,sans-Serif" font-size="10.00">/src/arkreactor/VM/Future.cpp</text>
</a>
</g>
</g>
<!-- Node2&#45;&gt;Node9 -->
<g id="edge12" class="edge">
<title>Node2&#45;&gt;Node9</title>
<path fill="none" stroke="midnightblue" d="M644.53,-216.25C675.21,-187.94 728.67,-138.6 754.98,-114.33"/>
<polygon fill="midnightblue" stroke="midnightblue" points="641.86,-213.95 636.88,-223.3 646.61,-219.09 641.86,-213.95"/>
</g>
<!-- Node4 -->
<g id="node4" class="node">
<title>Node4</title>
<g id="a_node4"><a xlink:href="../../d3/d7e/Ark_8hpp.html" target="_top" xlink:title="Includes the needed files to start using ArkScript.">
<polygon fill="white" stroke="black" points="74,-84 74,-114 189,-114 189,-84 74,-84"/>
<text text-anchor="start" x="82" y="-102" font-family="Helvetica,sans-Serif" font-size="10.00">/home/fola/code/Ark</text>
<text text-anchor="middle" x="131.5" y="-91" font-family="Helvetica,sans-Serif" font-size="10.00">/include/Ark/Ark.hpp</text>
</a>
</g>
</g>
<!-- Node3&#45;&gt;Node4 -->
<g id="edge3" class="edge">
<title>Node3&#45;&gt;Node4</title>
<path fill="none" stroke="midnightblue" d="M442.44,-161.47C376.85,-153.05 280.36,-138.96 197.5,-120 190.15,-118.32 182.42,-116.25 174.94,-114.09"/>
<polygon fill="midnightblue" stroke="midnightblue" points="442.33,-164.98 452.69,-162.77 443.21,-158.04 442.33,-164.98"/>
</g>
<!-- Node7 -->
<g id="node7" class="node">
<title>Node7</title>
<g id="a_node7"><a xlink:href="../../d5/da5/Repl_8hpp.html" target="_top" xlink:title="ArkScript REPL &#45; Read Eval Print Loop.">
<polygon fill="white" stroke="black" points="207,-84 207,-114 354,-114 354,-84 207,-84"/>
<text text-anchor="start" x="215" y="-102" font-family="Helvetica,sans-Serif" font-size="10.00">/home/fola/code/Ark</text>
<text text-anchor="middle" x="280.5" y="-91" font-family="Helvetica,sans-Serif" font-size="10.00">/include/Ark/REPL/Repl.hpp</text>
</a>
</g>
</g>
<!-- Node3&#45;&gt;Node7 -->
<g id="edge6" class="edge">
<title>Node3&#45;&gt;Node7</title>
<path fill="none" stroke="midnightblue" d="M462.17,-153.59C421.27,-141.52 366.89,-125.48 328.32,-114.11"/>
<polygon fill="midnightblue" stroke="midnightblue" points="461.41,-157.01 472,-156.49 463.39,-150.3 461.41,-157.01"/>
</g>
<!-- Node3&#45;&gt;Node9 -->
<g id="edge9" class="edge">
<title>Node3&#45;&gt;Node9</title>
<path fill="none" stroke="midnightblue" d="M579.17,-153.74C622.18,-141.66 679.6,-125.53 720.28,-114.11"/>
<polygon fill="midnightblue" stroke="midnightblue" points="578.07,-150.41 569.39,-156.49 579.96,-157.15 578.07,-150.41"/>
</g>
<!-- Node10 -->
<g id="node10" class="node">
<title>Node10</title>
<g id="a_node10"><a xlink:href="../../d1/db2/Closure_8cpp.html" target="_top" xlink:title=" ">
<polygon fill="white" stroke="black" points="372.5,-78.5 372.5,-119.5 508.5,-119.5 508.5,-78.5 372.5,-78.5"/>
<text text-anchor="start" x="380.5" y="-107.5" font-family="Helvetica,sans-Serif" font-size="10.00">/home/fola/code/Ark</text>
<text text-anchor="start" x="380.5" y="-96.5" font-family="Helvetica,sans-Serif" font-size="10.00">/src/arkreactor/VM/Value</text>
<text text-anchor="middle" x="440.5" y="-85.5" font-family="Helvetica,sans-Serif" font-size="10.00">/Closure.cpp</text>
</a>
</g>
</g>
<!-- Node3&#45;&gt;Node10 -->
<g id="edge10" class="edge">
<title>Node3&#45;&gt;Node10</title>
<path fill="none" stroke="midnightblue" d="M495.83,-149.38C485.24,-139.93 472.83,-128.85 462.45,-119.59"/>
<polygon fill="midnightblue" stroke="midnightblue" points="493.72,-152.19 503.51,-156.23 498.38,-146.96 493.72,-152.19"/>
</g>
<!-- Node11 -->
<g id="node11" class="node">
<title>Node11</title>
<g id="a_node11"><a xlink:href="../../d2/d27/VM_8cpp.html" target="_top" xlink:title=" ">
<polygon fill="white" stroke="black" points="527,-84 527,-114 672,-114 672,-84 527,-84"/>
<text text-anchor="start" x="535" y="-102" font-family="Helvetica,sans-Serif" font-size="10.00">/home/fola/code/Ark</text>
<text text-anchor="middle" x="599.5" y="-91" font-family="Helvetica,sans-Serif" font-size="10.00">/src/arkreactor/VM/VM.cpp</text>
</a>
</g>
</g>
<!-- Node3&#45;&gt;Node11 -->
<g id="edge11" class="edge">
<title>Node3&#45;&gt;Node11</title>
<path fill="none" stroke="midnightblue" d="M543.37,-149.46C556.37,-138 572.11,-124.14 583.61,-114"/>
<polygon fill="midnightblue" stroke="midnightblue" points="540.88,-147 535.69,-156.23 545.51,-152.25 540.88,-147"/>
</g>
<!-- Node5 -->
<g id="node5" class="node">
<title>Node5</title>
<g id="a_node5"><a xlink:href="../../dc/d32/Ark_8cpp.html" target="_top" xlink:title=" ">
<polygon fill="white" stroke="black" points="0,-6 0,-36 127,-36 127,-6 0,-6"/>
<text text-anchor="start" x="8" y="-24" font-family="Helvetica,sans-Serif" font-size="10.00">/home/fola/code/Ark</text>
<text text-anchor="middle" x="63.5" y="-13" font-family="Helvetica,sans-Serif" font-size="10.00">/src/arkreactor/Ark.cpp</text>
</a>
</g>
</g>
<!-- Node4&#45;&gt;Node5 -->
<g id="edge4" class="edge">
<title>Node4&#45;&gt;Node5</title>
<path fill="none" stroke="midnightblue" d="M111.97,-76.17C100.48,-63.33 86.28,-47.47 76.23,-36.23"/>
<polygon fill="midnightblue" stroke="midnightblue" points="109.43,-78.59 118.71,-83.7 114.65,-73.92 109.43,-78.59"/>
</g>
<!-- Node6 -->
<g id="node6" class="node">
<title>Node6</title>
<g id="a_node6"><a xlink:href="../../df/d0a/main_8cpp.html" target="_top" xlink:title=" ">
<polygon fill="white" stroke="black" points="145.5,-6 145.5,-36 273.5,-36 273.5,-6 145.5,-6"/>
<text text-anchor="start" x="153.5" y="-24" font-family="Helvetica,sans-Serif" font-size="10.00">/home/fola/code/Ark</text>
<text text-anchor="middle" x="209.5" y="-13" font-family="Helvetica,sans-Serif" font-size="10.00">/src/arkscript/main.cpp</text>
</a>
</g>
</g>
<!-- Node4&#45;&gt;Node6 -->
<g id="edge5" class="edge">
<title>Node4&#45;&gt;Node6</title>
<path fill="none" stroke="midnightblue" d="M153.53,-76.53C166.77,-63.63 183.26,-47.57 194.89,-36.23"/>
<polygon fill="midnightblue" stroke="midnightblue" points="150.89,-74.22 146.17,-83.7 155.78,-79.23 150.89,-74.22"/>
</g>
<!-- Node7&#45;&gt;Node6 -->
<g id="edge7" class="edge">
<title>Node7&#45;&gt;Node6</title>
<path fill="none" stroke="midnightblue" d="M260.11,-76.17C248.11,-63.33 233.29,-47.47 222.79,-36.23"/>
<polygon fill="midnightblue" stroke="midnightblue" points="257.76,-78.79 267.15,-83.7 262.88,-74.01 257.76,-78.79"/>
</g>
<!-- Node8 -->
<g id="node8" class="node">
<title>Node8</title>
<g id="a_node8"><a xlink:href="../../d7/d46/Repl_8cpp.html" target="_top" xlink:title=" ">
<polygon fill="white" stroke="black" points="292,-0.5 292,-41.5 407,-41.5 407,-0.5 292,-0.5"/>
<text text-anchor="start" x="300" y="-29.5" font-family="Helvetica,sans-Serif" font-size="10.00">/home/fola/code/Ark</text>
<text text-anchor="start" x="300" y="-18.5" font-family="Helvetica,sans-Serif" font-size="10.00">/src/arkscript/REPL</text>
<text text-anchor="middle" x="349.5" y="-7.5" font-family="Helvetica,sans-Serif" font-size="10.00">/Repl.cpp</text>
</a>
</g>
</g>
<!-- Node7&#45;&gt;Node8 -->
<g id="edge8" class="edge">
<title>Node7&#45;&gt;Node8</title>
<path fill="none" stroke="midnightblue" d="M300.26,-76.23C310.15,-65.34 322.02,-52.26 331.63,-41.68"/>
<polygon fill="midnightblue" stroke="midnightblue" points="297.61,-73.95 293.48,-83.7 302.79,-78.65 297.61,-73.95"/>
</g>
</g>
</svg>
