<?xml version="1.0" encoding="UTF-8" standalone="no"?>
<!DOCTYPE svg PUBLIC "-//W3C//DTD SVG 1.1//EN"
 "http://www.w3.org/Graphics/SVG/1.1/DTD/svg11.dtd">
<!-- Generated by graphviz version 2.49.0 (20210828.1703)
 -->
<!-- Title: C:/Users/folae/Documents/Code/Big&#45;Projects/ArkScript/Ark/include/Ark/VM/ExecutionContext.hpp Pages: 1 -->
<!--zoomable 284 -->
<svg id="main" version="1.1" xmlns="http://www.w3.org/2000/svg" xmlns:xlink="http://www.w3.org/1999/xlink" xml:space="preserve" onload="init(evt)">
<style type="text/css"><![CDATA[
.edge:hover path { stroke: red; }
.edge:hover polygon { stroke: red; fill: red; }
]]></style>
<script type="text/javascript"><![CDATA[
var edges = document.getElementsByTagName('g');
if (edges && edges.length) {
  for (var i=0;i<edges.length;i++) {
    if (edges[i].id.substr(0,4)=='edge') {
      edges[i].setAttribute('class','edge');
    }
  }
}
]]></script>
        <defs>
                <circle id="rim" cx="0" cy="0" r="7"/>
                <circle id="rim2" cx="0" cy="0" r="3.5"/>
                <g id="zoomPlus">
                        <use xlink:href="#rim" fill="#404040">
                                <set attributeName="fill" to="#808080" begin="zoomplus.mouseover" end="zoomplus.mouseout"/>
                        </use>
                        <path d="M-4,0h8M0,-4v8" fill="none" stroke="white" stroke-width="1.5" pointer-events="none"/>
                </g>
                <g id="zoomMin">
                        <use xlink:href="#rim" fill="#404040">
                                <set attributeName="fill" to="#808080" begin="zoomminus.mouseover" end="zoomminus.mouseout"/>
                        </use>
                        <path d="M-4,0h8" fill="none" stroke="white" stroke-width="1.5" pointer-events="none"/>
                </g>
                <g id="dirArrow">
                        <path fill="none" stroke="white" stroke-width="1.5" d="M0,-3.0v7 M-2.5,-0.5L0,-3.0L2.5,-0.5"/>
                </g>
               <g id="resetDef">
                       <use xlink:href="#rim2" fill="#404040">
                               <set attributeName="fill" to="#808080" begin="reset.mouseover" end="reset.mouseout"/>
                       </use>
               </g>
        </defs>

<script type="text/javascript">
var viewWidth = 574;
var viewHeight = 284;
var sectionId = 'dynsection-1';
</script>
<script xlink:href="../../svgpan.js"/>
<svg id="graph" class="graph">
<g id="viewport">
<title>C:/Users/folae/Documents/Code/Big&#45;Projects/ArkScript/Ark/include/Ark/VM/ExecutionContext.hpp</title>
<polygon fill="white" stroke="transparent" points="-4,4 -4,-280 570,-280 570,4 -4,4"/>
<!-- Node1 -->
<g id="node1" class="node">
<title>Node1</title>
<g id="a_node1"><a xlink:title="Keeping track of the internal data needed by the VM.">
<polygon fill="#bfbfbf" stroke="black" points="216.5,-234.5 216.5,-275.5 419.5,-275.5 419.5,-234.5 216.5,-234.5"/>
<text text-anchor="start" x="224.5" y="-263.5" font-family="Helvetica,sans-Serif" font-size="10.00">C:/Users/folae/Documents</text>
<text text-anchor="start" x="224.5" y="-252.5" font-family="Helvetica,sans-Serif" font-size="10.00">/Code/Big&#45;Projects/ArkScript</text>
<text text-anchor="middle" x="318" y="-241.5" font-family="Helvetica,sans-Serif" font-size="10.00">/Ark/include/Ark/VM/ExecutionContext.hpp</text>
</a>
</g>
</g>
<!-- Node2 -->
<g id="node2" class="node">
<title>Node2</title>
<g id="a_node2"><a xlink:href="../../d1/d91/VM_8hpp.html" target="_top" xlink:title="The ArkScript virtual machine.">
<polygon fill="white" stroke="black" points="247,-156.5 247,-197.5 389,-197.5 389,-156.5 247,-156.5"/>
<text text-anchor="start" x="255" y="-185.5" font-family="Helvetica,sans-Serif" font-size="10.00">C:/Users/folae/Documents</text>
<text text-anchor="start" x="255" y="-174.5" font-family="Helvetica,sans-Serif" font-size="10.00">/Code/Big&#45;Projects/ArkScript</text>
<text text-anchor="middle" x="318" y="-163.5" font-family="Helvetica,sans-Serif" font-size="10.00">/Ark/include/Ark/VM/VM.hpp</text>
</a>
</g>
</g>
<!-- Node1&#45;&gt;Node2 -->
<g id="edge1" class="edge">
<title>Node1&#45;&gt;Node2</title>
<path fill="none" stroke="midnightblue" d="M318,-224.3C318,-215.3 318,-205.65 318,-197.51"/>
<polygon fill="midnightblue" stroke="midnightblue" points="314.5,-224.43 318,-234.43 321.5,-224.43 314.5,-224.43"/>
</g>
<!-- Node3 -->
<g id="node3" class="node">
<title>Node3</title>
<g id="a_node3"><a xlink:href="../../d3/d7e/Ark_8hpp.html" target="_top" xlink:title="Includes the needed files to start using ArkScript.">
<polygon fill="white" stroke="black" points="80,-78.5 80,-119.5 222,-119.5 222,-78.5 80,-78.5"/>
<text text-anchor="start" x="88" y="-107.5" font-family="Helvetica,sans-Serif" font-size="10.00">C:/Users/folae/Documents</text>
<text text-anchor="start" x="88" y="-96.5" font-family="Helvetica,sans-Serif" font-size="10.00">/Code/Big&#45;Projects/ArkScript</text>
<text text-anchor="middle" x="151" y="-85.5" font-family="Helvetica,sans-Serif" font-size="10.00">/Ark/include/Ark/Ark.hpp</text>
</a>
</g>
</g>
<!-- Node2&#45;&gt;Node3 -->
<g id="edge2" class="edge">
<title>Node2&#45;&gt;Node3</title>
<path fill="none" stroke="midnightblue" d="M265.68,-152.19C242.58,-141.67 215.75,-129.47 193.86,-119.51"/>
<polygon fill="midnightblue" stroke="midnightblue" points="264.44,-155.47 274.99,-156.43 267.34,-149.1 264.44,-155.47"/>
</g>
<!-- Node6 -->
<g id="node6" class="node">
<title>Node6</title>
<g id="a_node6"><a xlink:href="../../d5/da5/Repl_8hpp.html" target="_top" xlink:title="ArkScript REPL &#45; Read Eval Print Loop.">
<polygon fill="white" stroke="black" points="240,-78.5 240,-119.5 396,-119.5 396,-78.5 240,-78.5"/>
<text text-anchor="start" x="248" y="-107.5" font-family="Helvetica,sans-Serif" font-size="10.00">C:/Users/folae/Documents</text>
<text text-anchor="start" x="248" y="-96.5" font-family="Helvetica,sans-Serif" font-size="10.00">/Code/Big&#45;Projects/ArkScript</text>
<text text-anchor="middle" x="318" y="-85.5" font-family="Helvetica,sans-Serif" font-size="10.00">/Ark/include/Ark/REPL/Repl.hpp</text>
</a>
</g>
</g>
<!-- Node2&#45;&gt;Node6 -->
<g id="edge5" class="edge">
<title>Node2&#45;&gt;Node6</title>
<path fill="none" stroke="midnightblue" d="M318,-146.3C318,-137.3 318,-127.65 318,-119.51"/>
<polygon fill="midnightblue" stroke="midnightblue" points="314.5,-146.43 318,-156.43 321.5,-146.43 314.5,-146.43"/>
</g>
<!-- Node8 -->
<g id="node8" class="node">
<title>Node8</title>
<g id="a_node8"><a xlink:href="../../d2/d27/VM_8cpp.html" target="_top" xlink:title=" ">
<polygon fill="white" stroke="black" points="414,-78.5 414,-119.5 566,-119.5 566,-78.5 414,-78.5"/>
<text text-anchor="start" x="422" y="-107.5" font-family="Helvetica,sans-Serif" font-size="10.00">C:/Users/folae/Documents</text>
<text text-anchor="start" x="422" y="-96.5" font-family="Helvetica,sans-Serif" font-size="10.00">/Code/Big&#45;Projects/ArkScript</text>
<text text-anchor="middle" x="490" y="-85.5" font-family="Helvetica,sans-Serif" font-size="10.00">/Ark/src/arkreactor/VM/VM.cpp</text>
</a>
</g>
</g>
<!-- Node2&#45;&gt;Node8 -->
<g id="edge8" class="edge">
<title>Node2&#45;&gt;Node8</title>
<path fill="none" stroke="midnightblue" d="M371.57,-152.33C395.44,-141.78 423.21,-129.51 445.86,-119.51"/>
<polygon fill="midnightblue" stroke="midnightblue" points="370.03,-149.19 362.29,-156.43 372.86,-155.59 370.03,-149.19"/>
</g>
<!-- Node4 -->
<g id="node4" class="node">
<title>Node4</title>
<g id="a_node4"><a xlink:href="../../dc/d32/Ark_8cpp.html" target="_top" xlink:title=" ">
<polygon fill="white" stroke="black" points="0,-0.5 0,-41.5 142,-41.5 142,-0.5 0,-0.5"/>
<text text-anchor="start" x="8" y="-29.5" font-family="Helvetica,sans-Serif" font-size="10.00">C:/Users/folae/Documents</text>
<text text-anchor="start" x="8" y="-18.5" font-family="Helvetica,sans-Serif" font-size="10.00">/Code/Big&#45;Projects/ArkScript</text>
<text text-anchor="middle" x="71" y="-7.5" font-family="Helvetica,sans-Serif" font-size="10.00">/Ark/src/arkreactor/Ark.cpp</text>
</a>
</g>
</g>
<!-- Node3&#45;&gt;Node4 -->
<g id="edge3" class="edge">
<title>Node3&#45;&gt;Node4</title>
<path fill="none" stroke="midnightblue" d="M123.1,-71.49C112.72,-61.63 101.13,-50.63 91.53,-41.51"/>
<polygon fill="midnightblue" stroke="midnightblue" points="120.74,-74.08 130.4,-78.43 125.56,-69 120.74,-74.08"/>
</g>
<!-- Node5 -->
<g id="node5" class="node">
<title>Node5</title>
<g id="a_node5"><a xlink:href="../../df/d0a/main_8cpp.html" target="_top" xlink:title=" ">
<polygon fill="white" stroke="black" points="160,-0.5 160,-41.5 302,-41.5 302,-0.5 160,-0.5"/>
<text text-anchor="start" x="168" y="-29.5" font-family="Helvetica,sans-Serif" font-size="10.00">C:/Users/folae/Documents</text>
<text text-anchor="start" x="168" y="-18.5" font-family="Helvetica,sans-Serif" font-size="10.00">/Code/Big&#45;Projects/ArkScript</text>
<text text-anchor="middle" x="231" y="-7.5" font-family="Helvetica,sans-Serif" font-size="10.00">/Ark/src/arkscript/main.cpp</text>
</a>
</g>
</g>
<!-- Node3&#45;&gt;Node5 -->
<g id="edge4" class="edge">
<title>Node3&#45;&gt;Node5</title>
<path fill="none" stroke="midnightblue" d="M178.9,-71.49C189.28,-61.63 200.87,-50.63 210.47,-41.51"/>
<polygon fill="midnightblue" stroke="midnightblue" points="176.44,-69 171.6,-78.43 181.26,-74.08 176.44,-69"/>
</g>
<!-- Node6&#45;&gt;Node5 -->
<g id="edge7" class="edge">
<title>Node6&#45;&gt;Node5</title>
<path fill="none" stroke="midnightblue" d="M287.98,-71.78C276.61,-61.84 263.87,-50.72 253.33,-41.51"/>
<polygon fill="midnightblue" stroke="midnightblue" points="285.76,-74.49 295.6,-78.43 290.37,-69.21 285.76,-74.49"/>
</g>
<!-- Node7 -->
<g id="node7" class="node">
<title>Node7</title>
<g id="a_node7"><a xlink:href="../../d7/d46/Repl_8cpp.html" target="_top" xlink:title=" ">
<polygon fill="white" stroke="black" points="320.5,-0.5 320.5,-41.5 481.5,-41.5 481.5,-0.5 320.5,-0.5"/>
<text text-anchor="start" x="328.5" y="-29.5" font-family="Helvetica,sans-Serif" font-size="10.00">C:/Users/folae/Documents</text>
<text text-anchor="start" x="328.5" y="-18.5" font-family="Helvetica,sans-Serif" font-size="10.00">/Code/Big&#45;Projects/ArkScript</text>
<text text-anchor="middle" x="401" y="-7.5" font-family="Helvetica,sans-Serif" font-size="10.00">/Ark/src/arkscript/REPL/Repl.cpp</text>
</a>
</g>
</g>
<!-- Node6&#45;&gt;Node7 -->
<g id="edge6" class="edge">
<title>Node6&#45;&gt;Node7</title>
<path fill="none" stroke="midnightblue" d="M346.95,-71.49C357.72,-61.63 369.74,-50.63 379.7,-41.51"/>
<polygon fill="midnightblue" stroke="midnightblue" points="344.39,-69.09 339.37,-78.43 349.11,-74.26 344.39,-69.09"/>
</g>
</g>
</svg>
        <g id="navigator" transform="translate(0 0)" fill="#404254">
                <rect fill="#f2f5e9" fill-opacity="0.5" stroke="#606060" stroke-width=".5" x="0" y="0" width="60" height="60"/>
                <use id="zoomplus" xlink:href="#zoomPlus" x="17" y="9" onmousedown="handleZoom(evt,'in')"/>
                <use id="zoomminus" xlink:href="#zoomMin" x="42" y="9" onmousedown="handleZoom(evt,'out')"/>
                <use id="reset" xlink:href="#resetDef" x="30" y="36" onmousedown="handleReset()"/>
                <g id="arrowUp" xlink:href="#dirArrow" transform="translate(30 24)" onmousedown="handlePan(0,-1)">
                  <use xlink:href="#rim" fill="#404040">
                        <set attributeName="fill" to="#808080" begin="arrowUp.mouseover" end="arrowUp.mouseout"/>
                  </use>
                  <path fill="none" stroke="white" stroke-width="1.5" d="M0,-3.0v7 M-2.5,-0.5L0,-3.0L2.5,-0.5"/>
                </g>
                <g id="arrowRight" xlink:href="#dirArrow" transform="rotate(90) translate(36 -43)" onmousedown="handlePan(1,0)">
                  <use xlink:href="#rim" fill="#404040">
                        <set attributeName="fill" to="#808080" begin="arrowRight.mouseover" end="arrowRight.mouseout"/>
                  </use>
                  <path fill="none" stroke="white" stroke-width="1.5" d="M0,-3.0v7 M-2.5,-0.5L0,-3.0L2.5,-0.5"/>
                </g>
                <g id="arrowDown" xlink:href="#dirArrow" transform="rotate(180) translate(-30 -48)" onmousedown="handlePan(0,1)">
                  <use xlink:href="#rim" fill="#404040">
                        <set attributeName="fill" to="#808080" begin="arrowDown.mouseover" end="arrowDown.mouseout"/>
                  </use>
                  <path fill="none" stroke="white" stroke-width="1.5" d="M0,-3.0v7 M-2.5,-0.5L0,-3.0L2.5,-0.5"/>
                </g>
                <g id="arrowLeft" xlink:href="#dirArrow" transform="rotate(270) translate(-36 17)" onmousedown="handlePan(-1,0)">
                  <use xlink:href="#rim" fill="#404040">
                        <set attributeName="fill" to="#808080" begin="arrowLeft.mouseover" end="arrowLeft.mouseout"/>
                  </use>
                  <path fill="none" stroke="white" stroke-width="1.5" d="M0,-3.0v7 M-2.5,-0.5L0,-3.0L2.5,-0.5"/>
                </g>
        </g>
        <svg viewBox="0 0 15 15" width="100%" height="30px" preserveAspectRatio="xMaxYMin meet">
         <g id="arrow_out" transform="scale(0.3 0.3)">
          <a xlink:href="ExecutionContext_8hpp__dep__incl_org.svg" target="_base">
           <rect id="button" ry="5" rx="5" y="6" x="6" height="38" width="38"
                fill="#f2f5e9" fill-opacity="0.5" stroke="#606060" stroke-width="1.0"/>
           <path id="arrow"
             d="M 11.500037,31.436501 C 11.940474,20.09759 22.043105,11.32322 32.158766,21.979434 L 37.068811,17.246167 C 37.068811,17.246167 37.088388,32 37.088388,32 L 22.160133,31.978069 C 22.160133,31.978069 26.997745,27.140456 26.997745,27.140456 C 18.528582,18.264221 13.291696,25.230495 11.500037,31.436501 z"
             style="fill:#404040;"/>
          </a>
         </g>
        </svg>
</svg>
