<?xml version="1.0" encoding="UTF-8" standalone="no"?>
<!DOCTYPE svg PUBLIC "-//W3C//DTD SVG 1.1//EN"
 "http://www.w3.org/Graphics/SVG/1.1/DTD/svg11.dtd">
<!-- Generated by graphviz version 12.2.0 (20241103.1931)
 -->
<!-- Title: Ark::internal::ASTLowerer Pages: 1 -->
<svg width="1610pt" height="452pt"
 viewBox="0.00 0.00 1610.25 451.57" xmlns="http://www.w3.org/2000/svg" xmlns:xlink="http://www.w3.org/1999/xlink">
<g id="graph0" class="graph" transform="scale(1 1) rotate(0) translate(4 447.57)">
<title>Ark::internal::ASTLowerer</title>
<!-- Node1 -->
<g id="Node000001" class="node">
<title>Node1</title>
<g id="a_Node000001"><a xlink:title="The ArkScript AST to IR compiler.">
<polygon fill="#999999" stroke="#666666" points="1602.25,-191.97 1473.75,-191.97 1473.75,-172.72 1602.25,-172.72 1602.25,-191.97"/>
<text text-anchor="middle" x="1538" y="-178.47" font-family="Helvetica,sans-Serif" font-size="10.00">Ark::internal::ASTLowerer</text>
</a>
</g>
</g>
<!-- Node2 -->
<g id="Node000002" class="node">
<title>Node2</title>
<g id="a_Node000002"><a xlink:href="../../de/d21/classArk_1_1internal_1_1LocalsLocator.html" target="_top" xlink:title=" ">
<polygon fill="white" stroke="#666666" points="1361.25,-191.97 1226,-191.97 1226,-172.72 1361.25,-172.72 1361.25,-191.97"/>
<text text-anchor="middle" x="1293.62" y="-178.47" font-family="Helvetica,sans-Serif" font-size="10.00">Ark::internal::LocalsLocator</text>
</a>
</g>
</g>
<!-- Node2&#45;&gt;Node1 -->
<g id="edge1_Node000001_Node000002" class="edge">
<title>Node2&#45;&gt;Node1</title>
<g id="a_edge1_Node000001_Node000002"><a xlink:title=" ">
<path fill="none" stroke="#9a32cd" stroke-dasharray="5,2" d="M1372.77,-182.34C1405.25,-182.34 1442.48,-182.34 1473.27,-182.34"/>
<polygon fill="#9a32cd" stroke="#9a32cd" points="1373.01,-178.84 1363.01,-182.34 1373.01,-185.84 1373.01,-178.84"/>
</a>
</g>
<text text-anchor="middle" x="1417.5" y="-184.09" font-family="Helvetica,sans-Serif" font-size="10.00" fill="grey"> m_locals_locator</text>
</g>
<!-- Node3 -->
<g id="Node000003" class="node">
<title>Node3</title>
<g id="a_Node000003"><a xlink:title=" ">
<polygon fill="white" stroke="#666666" points="1142,-168.59 1016.5,-168.59 1016.5,-138.09 1142,-138.09 1142,-168.59"/>
<text text-anchor="start" x="1024.5" y="-155.09" font-family="Helvetica,sans-Serif" font-size="10.00">std::vector&lt; Ark::internal</text>
<text text-anchor="middle" x="1079.25" y="-143.84" font-family="Helvetica,sans-Serif" font-size="10.00">::LocalsLocator::Scope &gt;</text>
</a>
</g>
</g>
<!-- Node3&#45;&gt;Node2 -->
<g id="edge2_Node000002_Node000003" class="edge">
<title>Node3&#45;&gt;Node2</title>
<g id="a_edge2_Node000002_Node000003"><a xlink:title=" ">
<path fill="none" stroke="#9a32cd" stroke-dasharray="5,2" d="M1153.54,-163.35C1176.97,-166.55 1202.77,-170.07 1225.73,-173.21"/>
<polygon fill="#9a32cd" stroke="#9a32cd" points="1154.13,-159.9 1143.75,-162.01 1153.18,-166.84 1154.13,-159.9"/>
</a>
</g>
<text text-anchor="middle" x="1184" y="-172.19" font-family="Helvetica,sans-Serif" font-size="10.00" fill="grey"> m_scopes</text>
</g>
<!-- Node4 -->
<g id="Node000004" class="node">
<title>Node4</title>
<g id="a_Node000004"><a xlink:href="../../da/dde/structArk_1_1internal_1_1LocalsLocator_1_1Scope.html" target="_top" xlink:title=" ">
<polygon fill="white" stroke="#666666" points="897.25,-251.59 762,-251.59 762,-221.09 897.25,-221.09 897.25,-251.59"/>
<text text-anchor="start" x="770" y="-238.09" font-family="Helvetica,sans-Serif" font-size="10.00">Ark::internal::LocalsLocator</text>
<text text-anchor="middle" x="829.62" y="-226.84" font-family="Helvetica,sans-Serif" font-size="10.00">::Scope</text>
</a>
</g>
</g>
<!-- Node4&#45;&gt;Node3 -->
<g id="edge3_Node000003_Node000004" class="edge">
<title>Node4&#45;&gt;Node3</title>
<g id="a_edge3_Node000003_Node000004"><a xlink:title=" ">
<path fill="none" stroke="#9a32cd" stroke-dasharray="5,2" d="M908.78,-231.18C937.75,-227.37 970.37,-220.77 998.5,-209.34 1022.17,-199.73 1045.66,-181.97 1060.95,-169.03"/>
<polygon fill="#9a32cd" stroke="#9a32cd" points="908.47,-227.7 898.96,-232.38 909.31,-234.64 908.47,-227.7"/>
</a>
</g>
<text text-anchor="middle" x="956.88" y="-231.65" font-family="Helvetica,sans-Serif" font-size="10.00" fill="grey"> elements</text>
</g>
<!-- Node5 -->
<g id="Node000005" class="node">
<title>Node5</title>
<g id="a_Node000005"><a xlink:title=" ">
<polygon fill="white" stroke="#666666" points="595.5,-283.97 471.5,-283.97 471.5,-264.72 595.5,-264.72 595.5,-283.97"/>
<text text-anchor="middle" x="533.5" y="-270.47" font-family="Helvetica,sans-Serif" font-size="10.00">std::vector&lt; std::string &gt;</text>
</a>
</g>
</g>
<!-- Node5&#45;&gt;Node1 -->
<g id="edge12_Node000001_Node000005" class="edge">
<title>Node5&#45;&gt;Node1</title>
<g id="a_edge12_Node000001_Node000005"><a xlink:title=" ">
<path fill="none" stroke="#9a32cd" stroke-dasharray="5,2" d="M607.37,-275.73C691.37,-277.21 833.6,-279.34 955.88,-279.34 955.88,-279.34 955.88,-279.34 1294.62,-279.34 1387.54,-279.34 1487.07,-217.14 1523.04,-192.36"/>
<polygon fill="#9a32cd" stroke="#9a32cd" points="607.48,-272.23 597.42,-275.56 607.36,-279.23 607.48,-272.23"/>
</a>
</g>
<text text-anchor="middle" x="1079.25" y="-281.09" font-family="Helvetica,sans-Serif" font-size="10.00" fill="grey"> m_symbols</text>
</g>
<!-- Node5&#45;&gt;Node4 -->
<g id="edge4_Node000004_Node000005" class="edge">
<title>Node5&#45;&gt;Node4</title>
<g id="a_edge4_Node000004_Node000005"><a xlink:title=" ">
<path fill="none" stroke="#9a32cd" stroke-dasharray="5,2" d="M570.99,-260.58C584.19,-256.16 599.34,-251.73 613.5,-249.09 662.6,-239.94 718.99,-236.87 761.72,-236.02"/>
<polygon fill="#9a32cd" stroke="#9a32cd" points="570.14,-257.17 561.84,-263.76 572.44,-263.78 570.14,-257.17"/>
</a>
</g>
<text text-anchor="middle" x="678.75" y="-250.84" font-family="Helvetica,sans-Serif" font-size="10.00" fill="grey"> data</text>
</g>
<!-- Node14 -->
<g id="Node000014" class="node">
<title>Node14</title>
<g id="a_Node000014"><a xlink:href="../../d6/d2f/classArk_1_1internal_1_1Logger.html" target="_top" xlink:title=" ">
<polygon fill="white" stroke="#666666" points="881.5,-337.97 777.75,-337.97 777.75,-318.72 881.5,-318.72 881.5,-337.97"/>
<text text-anchor="middle" x="829.62" y="-324.47" font-family="Helvetica,sans-Serif" font-size="10.00">Ark::internal::Logger</text>
</a>
</g>
</g>
<!-- Node5&#45;&gt;Node14 -->
<g id="edge26_Node000014_Node000005" class="edge">
<title>Node5&#45;&gt;Node14</title>
<g id="a_edge26_Node000014_Node000005"><a xlink:title=" ">
<path fill="none" stroke="#9a32cd" stroke-dasharray="5,2" d="M607.06,-284.66C647.5,-290.75 698.69,-299.04 744,-308.09 758.81,-311.05 774.97,-314.79 789.15,-318.25"/>
<polygon fill="#9a32cd" stroke="#9a32cd" points="607.58,-281.2 597.18,-283.18 606.55,-288.12 607.58,-281.2"/>
</a>
</g>
<text text-anchor="middle" x="678.75" y="-309.84" font-family="Helvetica,sans-Serif" font-size="10.00" fill="grey"> m_active_traces</text>
</g>
<!-- Node6 -->
<g id="Node000006" class="node">
<title>Node6</title>
<g id="a_Node000006"><a xlink:title=" ">
<polygon fill="white" stroke="#666666" points="269.38,-327.97 209.88,-327.97 209.88,-308.72 269.38,-308.72 269.38,-327.97"/>
<text text-anchor="middle" x="239.62" y="-314.47" font-family="Helvetica,sans-Serif" font-size="10.00">std::string</text>
</a>
</g>
</g>
<!-- Node6&#45;&gt;Node5 -->
<g id="edge5_Node000005_Node000006" class="edge">
<title>Node6&#45;&gt;Node5</title>
<g id="a_edge5_Node000005_Node000006"><a xlink:title=" ">
<path fill="none" stroke="#9a32cd" stroke-dasharray="5,2" d="M280.81,-312.29C330.01,-304.87 413.83,-292.23 471.11,-283.6"/>
<polygon fill="#9a32cd" stroke="#9a32cd" points="280.54,-308.79 271.17,-313.74 281.58,-315.71 280.54,-308.79"/>
</a>
</g>
<text text-anchor="middle" x="389" y="-307.09" font-family="Helvetica,sans-Serif" font-size="10.00" fill="grey"> elements</text>
</g>
<!-- Node6&#45;&gt;Node14 -->
<g id="edge20_Node000014_Node000006" class="edge">
<title>Node6&#45;&gt;Node14</title>
<g id="a_edge20_Node000014_Node000006"><a xlink:title=" ">
<path fill="none" stroke="#9a32cd" stroke-dasharray="5,2" d="M281.03,-319.03C385.13,-320.8 662.39,-325.52 777.46,-327.47"/>
<polygon fill="#9a32cd" stroke="#9a32cd" points="281.36,-315.54 271.3,-318.87 281.24,-322.53 281.36,-315.54"/>
</a>
</g>
<text text-anchor="middle" x="533.5" y="-326.09" font-family="Helvetica,sans-Serif" font-size="10.00" fill="grey"> m_name</text>
</g>
<!-- Node15 -->
<g id="Node000015" class="node">
<title>Node15</title>
<g id="a_Node000015"><a xlink:title=" ">
<polygon fill="white" stroke="#666666" points="594.75,-426.47 472.25,-426.47 472.25,-362.22 594.75,-362.22 594.75,-426.47"/>
<text text-anchor="start" x="480.25" y="-412.97" font-family="Helvetica,sans-Serif" font-size="10.00">std::unordered_map</text>
<text text-anchor="start" x="480.25" y="-401.72" font-family="Helvetica,sans-Serif" font-size="10.00">&lt; std::string, std::</text>
<text text-anchor="start" x="480.25" y="-390.47" font-family="Helvetica,sans-Serif" font-size="10.00">chrono::time_point&lt; std</text>
<text text-anchor="start" x="480.25" y="-379.22" font-family="Helvetica,sans-Serif" font-size="10.00">::chrono::high_resolution</text>
<text text-anchor="middle" x="533.5" y="-367.97" font-family="Helvetica,sans-Serif" font-size="10.00">_clock &gt; &gt;</text>
</a>
</g>
</g>
<!-- Node6&#45;&gt;Node15 -->
<g id="edge22_Node000015_Node000006" class="edge">
<title>Node6&#45;&gt;Node15</title>
<g id="a_edge22_Node000015_Node000006"><a xlink:title=" ">
<path fill="none" stroke="#9a32cd" stroke-dasharray="5,2" d="M280.31,-331.22C294.22,-335.58 310,-340.36 324.5,-344.34 373.92,-357.93 430.5,-371.4 472.16,-380.93"/>
<polygon fill="#9a32cd" stroke="#9a32cd" points="281.63,-327.97 271.04,-328.29 279.52,-334.64 281.63,-327.97"/>
</a>
</g>
<text text-anchor="middle" x="389" y="-378.24" font-family="Helvetica,sans-Serif" font-size="10.00" fill="grey"> keys</text>
</g>
<!-- Node7 -->
<g id="Node000007" class="node">
<title>Node7</title>
<g id="a_Node000007"><a xlink:title=" ">
<polygon fill="white" stroke="#666666" points="94,-323.59 0,-323.59 0,-293.09 94,-293.09 94,-323.59"/>
<text text-anchor="start" x="8" y="-310.09" font-family="Helvetica,sans-Serif" font-size="10.00">std::basic_string&lt;</text>
<text text-anchor="middle" x="47" y="-298.84" font-family="Helvetica,sans-Serif" font-size="10.00"> Char &gt;</text>
</a>
</g>
</g>
<!-- Node7&#45;&gt;Node6 -->
<g id="edge6_Node000006_Node000007" class="edge">
<title>Node7&#45;&gt;Node6</title>
<g id="a_edge6_Node000006_Node000007"><a xlink:title=" ">
<path fill="none" stroke="#63b8ff" d="M105.45,-311.36C139.78,-313.16 181.93,-315.37 209.5,-316.82"/>
<polygon fill="#63b8ff" stroke="#63b8ff" points="105.83,-307.87 95.66,-310.84 105.46,-314.86 105.83,-307.87"/>
</a>
</g>
</g>
<!-- Node8 -->
<g id="Node000008" class="node">
<title>Node8</title>
<g id="a_Node000008"><a xlink:title=" ">
<polygon fill="white" stroke="#666666" points="282.88,-164.97 196.38,-164.97 196.38,-145.72 282.88,-145.72 282.88,-164.97"/>
<text text-anchor="middle" x="239.62" y="-151.47" font-family="Helvetica,sans-Serif" font-size="10.00">std::vector&lt; T &gt;</text>
</a>
</g>
</g>
<!-- Node8&#45;&gt;Node3 -->
<g id="edge9_Node000003_Node000008" class="edge">
<title>Node8&#45;&gt;Node3</title>
<g id="a_edge9_Node000003_Node000008"><a xlink:title=" ">
<path fill="none" stroke="orange" stroke-dasharray="5,2" d="M294.21,-154.68C366.65,-153.83 499.82,-152.38 613.5,-151.84 671.5,-151.57 686,-151.71 744,-151.84 838.88,-152.06 948.91,-152.61 1016.03,-152.98"/>
<polygon fill="orange" stroke="orange" points="294.59,-151.18 284.64,-154.8 294.68,-158.18 294.59,-151.18"/>
</a>
</g>
<text text-anchor="start" x="613.5" y="-164.84" font-family="Helvetica,sans-Serif" font-size="10.00" fill="grey"> &lt; Ark::internal::LocalsLocator</text>
<text text-anchor="middle" x="678.75" y="-153.59" font-family="Helvetica,sans-Serif" font-size="10.00" fill="grey">::Scope &gt;</text>
</g>
<!-- Node8&#45;&gt;Node5 -->
<g id="edge7_Node000005_Node000008" class="edge">
<title>Node8&#45;&gt;Node5</title>
<g id="a_edge7_Node000005_Node000008"><a xlink:title=" ">
<path fill="none" stroke="orange" stroke-dasharray="5,2" d="M263.23,-171.87C279.62,-183.29 302.64,-198.18 324.5,-208.34 379.46,-233.91 446.97,-253.3 489.87,-264.25"/>
<polygon fill="orange" stroke="orange" points="265.37,-169.1 255.19,-166.17 261.32,-174.81 265.37,-169.1"/>
</a>
</g>
<text text-anchor="middle" x="389" y="-255.6" font-family="Helvetica,sans-Serif" font-size="10.00" fill="grey"> &lt; std::string &gt;</text>
</g>
<!-- Node10 -->
<g id="Node000010" class="node">
<title>Node10</title>
<g id="a_Node000010"><a xlink:title=" ">
<polygon fill="white" stroke="#666666" points="741.88,-202.97 615.62,-202.97 615.62,-183.72 741.88,-183.72 741.88,-202.97"/>
<text text-anchor="middle" x="678.75" y="-189.47" font-family="Helvetica,sans-Serif" font-size="10.00">std::vector&lt; std::size_t &gt;</text>
</a>
</g>
</g>
<!-- Node8&#45;&gt;Node10 -->
<g id="edge11_Node000010_Node000008" class="edge">
<title>Node8&#45;&gt;Node10</title>
<g id="a_edge11_Node000010_Node000008"><a xlink:title=" ">
<path fill="none" stroke="orange" stroke-dasharray="5,2" d="M294.28,-165.1C304.3,-166.69 314.7,-168.2 324.5,-169.34 426,-181.23 544.65,-187.8 615.37,-190.95"/>
<polygon fill="orange" stroke="orange" points="295.11,-161.69 284.67,-163.52 293.97,-168.6 295.11,-161.69"/>
</a>
</g>
<text text-anchor="middle" x="389" y="-182.83" font-family="Helvetica,sans-Serif" font-size="10.00" fill="grey"> &lt; std::size_t &gt;</text>
</g>
<!-- Node11 -->
<g id="Node000011" class="node">
<title>Node11</title>
<g id="a_Node000011"><a xlink:title=" ">
<polygon fill="white" stroke="#666666" points="595.12,-123.59 471.88,-123.59 471.88,-93.09 595.12,-93.09 595.12,-123.59"/>
<text text-anchor="start" x="479.88" y="-110.09" font-family="Helvetica,sans-Serif" font-size="10.00">std::vector&lt; Ark::internal</text>
<text text-anchor="middle" x="533.5" y="-98.84" font-family="Helvetica,sans-Serif" font-size="10.00">::ValTableElem &gt;</text>
</a>
</g>
</g>
<!-- Node8&#45;&gt;Node11 -->
<g id="edge15_Node000011_Node000008" class="edge">
<title>Node8&#45;&gt;Node11</title>
<g id="a_edge15_Node000011_Node000008"><a xlink:title=" ">
<path fill="none" stroke="orange" stroke-dasharray="5,2" d="M268.81,-140.04C284.68,-132.2 305.15,-123.38 324.5,-118.84 373.08,-107.45 429.72,-105.29 471.63,-105.72"/>
<polygon fill="orange" stroke="orange" points="267.28,-136.89 259.97,-144.55 270.47,-143.12 267.28,-136.89"/>
</a>
</g>
<text text-anchor="start" x="335.75" y="-131.84" font-family="Helvetica,sans-Serif" font-size="10.00" fill="grey"> &lt; Ark::internal::ValTable</text>
<text text-anchor="middle" x="389" y="-120.59" font-family="Helvetica,sans-Serif" font-size="10.00" fill="grey">Elem &gt;</text>
</g>
<!-- Node13 -->
<g id="Node000013" class="node">
<title>Node13</title>
<g id="a_Node000013"><a xlink:title=" ">
<polygon fill="white" stroke="#666666" points="594.38,-58.97 472.62,-58.97 472.62,-39.72 594.38,-39.72 594.38,-58.97"/>
<text text-anchor="middle" x="533.5" y="-45.47" font-family="Helvetica,sans-Serif" font-size="10.00">std::vector&lt; IR::Block &gt;</text>
</a>
</g>
</g>
<!-- Node8&#45;&gt;Node13 -->
<g id="edge17_Node000013_Node000008" class="edge">
<title>Node8&#45;&gt;Node13</title>
<g id="a_edge17_Node000013_Node000008"><a xlink:title=" ">
<path fill="none" stroke="#9a32cd" stroke-dasharray="5,2" d="M257.18,-136.99C271.72,-120.13 292.65,-93.93 306.5,-68.34 317.79,-47.48 305.1,-31.75 324.5,-18.09 384.07,23.84 477.11,-18.56 515.28,-39.32"/>
<polygon fill="#9a32cd" stroke="#9a32cd" points="254.81,-134.38 250.84,-144.2 260.07,-139 254.81,-134.38"/>
</a>
</g>
<text text-anchor="middle" x="389" y="-19.84" font-family="Helvetica,sans-Serif" font-size="10.00" fill="grey"> elements</text>
</g>
<!-- Node8&#45;&gt;Node13 -->
<g id="edge18_Node000013_Node000008" class="edge">
<title>Node8&#45;&gt;Node13</title>
<g id="a_edge18_Node000013_Node000008"><a xlink:title=" ">
<path fill="none" stroke="orange" stroke-dasharray="5,2" d="M257.78,-138C273.69,-122.97 298.72,-101.83 324.5,-90.09 338,-83.95 417.02,-69.38 473.66,-59.43"/>
<polygon fill="orange" stroke="orange" points="255.75,-135.09 251.02,-144.57 260.63,-140.11 255.75,-135.09"/>
</a>
</g>
<text text-anchor="middle" x="389" y="-91.84" font-family="Helvetica,sans-Serif" font-size="10.00" fill="grey"> &lt; IR::Block &gt;</text>
</g>
<!-- Node9 -->
<g id="Node000009" class="node">
<title>Node9</title>
<g id="a_Node000009"><a xlink:title=" ">
<polygon fill="white" stroke="#666666" points="61.4,-371.97 32.6,-371.97 32.6,-352.72 61.4,-352.72 61.4,-371.97"/>
<text text-anchor="middle" x="47" y="-358.47" font-family="Helvetica,sans-Serif" font-size="10.00">T</text>
</a>
</g>
</g>
<!-- Node9&#45;&gt;Node8 -->
<g id="edge8_Node000008_Node000009" class="edge">
<title>Node9&#45;&gt;Node8</title>
<g id="a_edge8_Node000008_Node000009"><a xlink:title=" ">
<path fill="none" stroke="#9a32cd" stroke-dasharray="5,2" d="M71.41,-349.04C78.98,-344.24 87.17,-338.48 94,-332.34 155.7,-276.92 213.05,-194.02 232.03,-165.45"/>
<polygon fill="#9a32cd" stroke="#9a32cd" points="69.7,-345.98 62.95,-354.16 73.32,-351.97 69.7,-345.98"/>
</a>
</g>
<text text-anchor="middle" x="133.38" y="-312.64" font-family="Helvetica,sans-Serif" font-size="10.00" fill="grey"> elements</text>
</g>
<!-- Node16 -->
<g id="Node000016" class="node">
<title>Node16</title>
<g id="a_Node000016"><a xlink:title=" ">
<polygon fill="white" stroke="#666666" points="290.75,-415.59 188.5,-415.59 188.5,-385.09 290.75,-385.09 290.75,-415.59"/>
<text text-anchor="start" x="196.5" y="-402.09" font-family="Helvetica,sans-Serif" font-size="10.00">std::unordered_map</text>
<text text-anchor="middle" x="239.62" y="-390.84" font-family="Helvetica,sans-Serif" font-size="10.00">&lt; K, T &gt;</text>
</a>
</g>
</g>
<!-- Node9&#45;&gt;Node16 -->
<g id="edge25_Node000016_Node000009" class="edge">
<title>Node9&#45;&gt;Node16</title>
<g id="a_edge25_Node000016_Node000009"><a xlink:title=" ">
<path fill="none" stroke="#9a32cd" stroke-dasharray="5,2" d="M72.87,-367.3C101.96,-373.1 150.85,-382.85 188.02,-390.26"/>
<polygon fill="#9a32cd" stroke="#9a32cd" points="73.68,-363.9 63.19,-365.37 72.32,-370.76 73.68,-363.9"/>
</a>
</g>
<text text-anchor="middle" x="133.38" y="-385.37" font-family="Helvetica,sans-Serif" font-size="10.00" fill="grey"> elements</text>
</g>
<!-- Node10&#45;&gt;Node2 -->
<g id="edge10_Node000002_Node000010" class="edge">
<title>Node10&#45;&gt;Node2</title>
<g id="a_edge10_Node000002_Node000010"><a xlink:title=" ">
<path fill="none" stroke="#9a32cd" stroke-dasharray="5,2" d="M753.44,-192.02C873.65,-189.86 1110.12,-185.62 1225.76,-183.54"/>
<polygon fill="#9a32cd" stroke="#9a32cd" points="753.62,-188.52 743.69,-192.2 753.75,-195.52 753.62,-188.52"/>
</a>
</g>
<text text-anchor="middle" x="956.88" y="-190.79" font-family="Helvetica,sans-Serif" font-size="10.00" fill="grey"> m_drop_for_conds</text>
</g>
<!-- Node11&#45;&gt;Node1 -->
<g id="edge13_Node000001_Node000011" class="edge">
<title>Node11&#45;&gt;Node1</title>
<g id="a_edge13_Node000001_Node000011"><a xlink:title=" ">
<path fill="none" stroke="#9a32cd" stroke-dasharray="5,2" d="M606.78,-108.34C666.32,-108.34 752.95,-108.34 828.62,-108.34 828.62,-108.34 828.62,-108.34 1294.62,-108.34 1381.3,-108.34 1478.11,-152.16 1518.12,-172.36"/>
<polygon fill="#9a32cd" stroke="#9a32cd" points="607.13,-104.84 597.13,-108.34 607.13,-111.84 607.13,-104.84"/>
</a>
</g>
<text text-anchor="middle" x="1079.25" y="-110.09" font-family="Helvetica,sans-Serif" font-size="10.00" fill="grey"> m_values</text>
</g>
<!-- Node12 -->
<g id="Node000012" class="node">
<title>Node12</title>
<g id="a_Node000012"><a xlink:href="../../d8/dc4/structArk_1_1internal_1_1ValTableElem.html" target="_top" xlink:title="A Compiler Value class helper to handle multiple types.">
<polygon fill="white" stroke="#666666" points="306.5,-58.97 172.75,-58.97 172.75,-39.72 306.5,-39.72 306.5,-58.97"/>
<text text-anchor="middle" x="239.62" y="-45.47" font-family="Helvetica,sans-Serif" font-size="10.00">Ark::internal::ValTableElem</text>
</a>
</g>
</g>
<!-- Node12&#45;&gt;Node11 -->
<g id="edge14_Node000011_Node000012" class="edge">
<title>Node12&#45;&gt;Node11</title>
<g id="a_edge14_Node000011_Node000012"><a xlink:title=" ">
<path fill="none" stroke="#9a32cd" stroke-dasharray="5,2" d="M300.34,-37.63C344.42,-31.77 404.92,-29.67 453.5,-50.09 464,-54.51 462.69,-61.12 471.5,-68.34 482.28,-77.17 495.05,-85.8 506.12,-92.77"/>
<polygon fill="#9a32cd" stroke="#9a32cd" points="300.12,-34.13 290.72,-39.02 301.12,-41.06 300.12,-34.13"/>
</a>
</g>
<text text-anchor="middle" x="389" y="-51.84" font-family="Helvetica,sans-Serif" font-size="10.00" fill="grey"> elements</text>
</g>
<!-- Node13&#45;&gt;Node1 -->
<g id="edge16_Node000001_Node000013" class="edge">
<title>Node13&#45;&gt;Node1</title>
<g id="a_edge16_Node000001_Node000013"><a xlink:title=" ">
<path fill="none" stroke="#9a32cd" stroke-dasharray="5,2" d="M605.94,-49.34C665.5,-49.34 752.59,-49.34 828.62,-49.34 828.62,-49.34 828.62,-49.34 1294.62,-49.34 1396.86,-49.34 1496.76,-141.42 1527.44,-172.35"/>
<polygon fill="#9a32cd" stroke="#9a32cd" points="606.29,-45.84 596.29,-49.34 606.29,-52.84 606.29,-45.84"/>
</a>
</g>
<text text-anchor="middle" x="1079.25" y="-62.34" font-family="Helvetica,sans-Serif" font-size="10.00" fill="grey"> m_code_pages</text>
<text text-anchor="middle" x="1079.25" y="-51.09" font-family="Helvetica,sans-Serif" font-size="10.00" fill="grey">m_temp_pages</text>
</g>
<!-- Node14&#45;&gt;Node1 -->
<g id="edge19_Node000001_Node000014" class="edge">
<title>Node14&#45;&gt;Node1</title>
<g id="a_edge19_Node000001_Node000014"><a xlink:title=" ">
<path fill="none" stroke="#9a32cd" stroke-dasharray="5,2" d="M888.02,-340.48C1003.6,-361.77 1269.24,-394.61 1455.75,-293.34 1497.94,-270.44 1523.96,-215.07 1533.2,-192.34"/>
<polygon fill="#9a32cd" stroke="#9a32cd" points="888.94,-337.09 878.47,-338.67 887.65,-343.97 888.94,-337.09"/>
</a>
</g>
<text text-anchor="middle" x="1184" y="-364.22" font-family="Helvetica,sans-Serif" font-size="10.00" fill="grey"> m_logger</text>
</g>
<!-- Node15&#45;&gt;Node14 -->
<g id="edge21_Node000014_Node000015" class="edge">
<title>Node15&#45;&gt;Node14</title>
<g id="a_edge21_Node000014_Node000015"><a xlink:title=" ">
<path fill="none" stroke="#9a32cd" stroke-dasharray="5,2" d="M606.12,-378.28C646.59,-369.2 698.12,-357.64 744,-347.34 756.93,-344.44 770.97,-341.29 783.83,-338.4"/>
<polygon fill="#9a32cd" stroke="#9a32cd" points="605.48,-374.84 596.48,-380.44 607.01,-381.67 605.48,-374.84"/>
</a>
</g>
<text text-anchor="middle" x="678.75" y="-378.19" font-family="Helvetica,sans-Serif" font-size="10.00" fill="grey"> m_trace_starts</text>
</g>
<!-- Node16&#45;&gt;Node15 -->
<g id="edge23_Node000015_Node000016" class="edge">
<title>Node16&#45;&gt;Node15</title>
<g id="a_edge23_Node000015_Node000016"><a xlink:title=" ">
<path fill="none" stroke="orange" stroke-dasharray="5,2" d="M302.41,-399.07C352.31,-398.05 422.14,-396.61 471.75,-395.59"/>
<polygon fill="orange" stroke="orange" points="302.57,-395.57 292.65,-399.27 302.72,-402.57 302.57,-395.57"/>
</a>
</g>
<text text-anchor="start" x="324.5" y="-434.07" font-family="Helvetica,sans-Serif" font-size="10.00" fill="grey"> &lt; std::string, std</text>
<text text-anchor="start" x="324.5" y="-422.82" font-family="Helvetica,sans-Serif" font-size="10.00" fill="grey">::chrono::time_point</text>
<text text-anchor="start" x="324.5" y="-411.57" font-family="Helvetica,sans-Serif" font-size="10.00" fill="grey">&lt; std::chrono::high_resolution</text>
<text text-anchor="middle" x="389" y="-400.32" font-family="Helvetica,sans-Serif" font-size="10.00" fill="grey">_clock &gt; &gt;</text>
</g>
<!-- Node17 -->
<g id="Node000017" class="node">
<title>Node17</title>
<g id="a_Node000017"><a xlink:title=" ">
<polygon fill="white" stroke="#666666" points="61.4,-418.97 32.6,-418.97 32.6,-399.72 61.4,-399.72 61.4,-418.97"/>
<text text-anchor="middle" x="47" y="-405.47" font-family="Helvetica,sans-Serif" font-size="10.00">K</text>
</a>
</g>
</g>
<!-- Node17&#45;&gt;Node16 -->
<g id="edge24_Node000016_Node000017" class="edge">
<title>Node17&#45;&gt;Node16</title>
<g id="a_edge24_Node000016_Node000017"><a xlink:title=" ">
<path fill="none" stroke="#9a32cd" stroke-dasharray="5,2" d="M72.87,-408.17C101.96,-406.8 150.85,-404.49 188.02,-402.73"/>
<polygon fill="#9a32cd" stroke="#9a32cd" points="73.04,-404.66 63.22,-408.63 73.38,-411.65 73.04,-404.66"/>
</a>
</g>
<text text-anchor="middle" x="133.38" y="-407.93" font-family="Helvetica,sans-Serif" font-size="10.00" fill="grey"> keys</text>
</g>
</g>
</svg>
