<?xml version="1.0" encoding="UTF-8" standalone="no"?>
<!DOCTYPE svg PUBLIC "-//W3C//DTD SVG 1.1//EN"
 "http://www.w3.org/Graphics/SVG/1.1/DTD/svg11.dtd">
<!-- Generated by graphviz version 2.49.0 (20210828.1703)
 -->
<!-- Title: Ark::UserType Pages: 1 -->
<svg width="151pt" height="344pt"
 viewBox="0.00 0.00 151.00 344.00" xmlns="http://www.w3.org/2000/svg" xmlns:xlink="http://www.w3.org/1999/xlink">
<g id="graph0" class="graph" transform="scale(1 1) rotate(0) translate(4 340)">
<title>Ark::UserType</title>
<polygon fill="white" stroke="transparent" points="-4,4 -4,-340 147,-340 147,4 -4,4"/>
<!-- Node1 -->
<g id="node1" class="node">
<title>Node1</title>
<g id="a_node1"><a xlink:title="A class to be use C++ objects in ArkScript.">
<polygon fill="#bfbfbf" stroke="black" points="32,-0.5 32,-19.5 111,-19.5 111,-0.5 32,-0.5"/>
<text text-anchor="middle" x="71.5" y="-7.5" font-family="Helvetica,sans-Serif" font-size="10.00">Ark::UserType</text>
</a>
</g>
</g>
<!-- Node2 -->
<g id="node2" class="node">
<title>Node2</title>
<g id="a_node2"><a xlink:href="../../d8/d70/structArk_1_1UserType_1_1ControlFuncs.html" target="_top" xlink:title="A structure holding a bunch of pointers to different useful functions related to this usertype.">
<polygon fill="white" stroke="black" points="0,-67.5 0,-86.5 143,-86.5 143,-67.5 0,-67.5"/>
<text text-anchor="middle" x="71.5" y="-74.5" font-family="Helvetica,sans-Serif" font-size="10.00">Ark::UserType::ControlFuncs</text>
</a>
</g>
</g>
<!-- Node2&#45;&gt;Node1 -->
<g id="edge1" class="edge">
<title>Node2&#45;&gt;Node1</title>
<path fill="none" stroke="#9a32cd" stroke-dasharray="5,2" d="M71.5,-57.04C71.5,-44.67 71.5,-29.12 71.5,-19.63"/>
<polygon fill="#9a32cd" stroke="#9a32cd" points="68,-57.23 71.5,-67.23 75,-57.23 68,-57.23"/>
<text text-anchor="middle" x="91.5" y="-41" font-family="Helvetica,sans-Serif" font-size="10.00"> m_funcs</text>
</g>
<!-- Node3 -->
<g id="node3" class="node">
<title>Node3</title>
<g id="a_node3"><a xlink:title=" ">
<polygon fill="white" stroke="#bfbfbf" points="36,-134.5 36,-153.5 107,-153.5 107,-134.5 36,-134.5"/>
<text text-anchor="middle" x="71.5" y="-141.5" font-family="Helvetica,sans-Serif" font-size="10.00">std::ostream</text>
</a>
</g>
</g>
<!-- Node3&#45;&gt;Node2 -->
<g id="edge2" class="edge">
<title>Node3&#45;&gt;Node2</title>
<path fill="none" stroke="#9a32cd" stroke-dasharray="5,2" d="M71.5,-124.04C71.5,-111.67 71.5,-96.12 71.5,-86.63"/>
<polygon fill="#9a32cd" stroke="#9a32cd" points="68,-124.23 71.5,-134.23 75,-124.23 68,-124.23"/>
<text text-anchor="middle" x="102.5" y="-108" font-family="Helvetica,sans-Serif" font-size="10.00"> ostream_func</text>
</g>
<!-- Node4 -->
<g id="node4" class="node">
<title>Node4</title>
<g id="a_node4"><a xlink:title=" ">
<polygon fill="white" stroke="#bfbfbf" points="21.5,-191.5 21.5,-221.5 121.5,-221.5 121.5,-191.5 21.5,-191.5"/>
<text text-anchor="start" x="29.5" y="-209.5" font-family="Helvetica,sans-Serif" font-size="10.00">std::basic_ostream</text>
<text text-anchor="middle" x="71.5" y="-198.5" font-family="Helvetica,sans-Serif" font-size="10.00">&lt; Char &gt;</text>
</a>
</g>
</g>
<!-- Node4&#45;&gt;Node3 -->
<g id="edge3" class="edge">
<title>Node4&#45;&gt;Node3</title>
<path fill="none" stroke="midnightblue" d="M71.5,-181.35C71.5,-171.51 71.5,-160.78 71.5,-153.54"/>
<polygon fill="midnightblue" stroke="midnightblue" points="68,-181.47 71.5,-191.47 75,-181.47 68,-181.47"/>
</g>
<!-- Node5 -->
<g id="node5" class="node">
<title>Node5</title>
<g id="a_node5"><a xlink:title=" ">
<polygon fill="white" stroke="#bfbfbf" points="13.5,-259.5 13.5,-278.5 129.5,-278.5 129.5,-259.5 13.5,-259.5"/>
<text text-anchor="middle" x="71.5" y="-266.5" font-family="Helvetica,sans-Serif" font-size="10.00">std::basic_ios&lt; Char &gt;</text>
</a>
</g>
</g>
<!-- Node5&#45;&gt;Node4 -->
<g id="edge4" class="edge">
<title>Node5&#45;&gt;Node4</title>
<path fill="none" stroke="midnightblue" d="M71.5,-249.22C71.5,-240.36 71.5,-229.96 71.5,-221.76"/>
<polygon fill="midnightblue" stroke="midnightblue" points="68,-249.33 71.5,-259.33 75,-249.33 68,-249.33"/>
</g>
<!-- Node6 -->
<g id="node6" class="node">
<title>Node6</title>
<g id="a_node6"><a xlink:title=" ">
<polygon fill="white" stroke="#bfbfbf" points="34,-316.5 34,-335.5 109,-335.5 109,-316.5 34,-316.5"/>
<text text-anchor="middle" x="71.5" y="-323.5" font-family="Helvetica,sans-Serif" font-size="10.00">std::ios_base</text>
</a>
</g>
</g>
<!-- Node6&#45;&gt;Node5 -->
<g id="edge5" class="edge">
<title>Node6&#45;&gt;Node5</title>
<path fill="none" stroke="midnightblue" d="M71.5,-306.12C71.5,-296.82 71.5,-286.06 71.5,-278.71"/>
<polygon fill="midnightblue" stroke="midnightblue" points="68,-306.41 71.5,-316.41 75,-306.41 68,-306.41"/>
</g>
</g>
</svg>
