<?xml version="1.0" encoding="UTF-8" standalone="no"?>
<!DOCTYPE svg PUBLIC "-//W3C//DTD SVG 1.1//EN"
 "http://www.w3.org/Graphics/SVG/1.1/DTD/svg11.dtd">
<!-- Generated by graphviz version 12.1.1 (20240910.0053)
 -->
<!-- Title: /Users/fola/Documents/ArkScript/Ark/include/Ark/VM/Value.hpp Pages: 1 -->
<svg width="1502pt" height="516pt"
 viewBox="0.00 0.00 1502.26 516.25" xmlns="http://www.w3.org/2000/svg" xmlns:xlink="http://www.w3.org/1999/xlink">
<g id="graph0" class="graph" transform="scale(1 1) rotate(0) translate(4 512.25)">
<title>/Users/fola/Documents/ArkScript/Ark/include/Ark/VM/Value.hpp</title>
<!-- Node1 -->
<g id="Node000001" class="node">
<title>Node1</title>
<g id="a_Node000001"><a xlink:title=" ">
<polygon fill="#999999" stroke="#666666" points="1013.64,-508.25 896.39,-508.25 896.39,-466.5 1013.64,-466.5 1013.64,-508.25"/>
<text text-anchor="start" x="904.39" y="-494.75" font-family="Helvetica,sans-Serif" font-size="10.00">/Users/fola/Documents</text>
<text text-anchor="start" x="904.39" y="-483.5" font-family="Helvetica,sans-Serif" font-size="10.00">/ArkScript/Ark/include</text>
<text text-anchor="middle" x="955.01" y="-472.25" font-family="Helvetica,sans-Serif" font-size="10.00">/Ark/VM/Value.hpp</text>
</a>
</g>
</g>
<!-- Node2 -->
<g id="Node000002" class="node">
<title>Node2</title>
<g id="a_Node000002"><a xlink:href="../../da/d84/Builtins_8hpp.html" target="_top" xlink:title="Host the declaration of all the ArkScript builtins.">
<polygon fill="white" stroke="#666666" points="664.64,-275 541.39,-275 541.39,-233.25 664.64,-233.25 664.64,-275"/>
<text text-anchor="start" x="549.39" y="-261.5" font-family="Helvetica,sans-Serif" font-size="10.00">/Users/fola/Documents</text>
<text text-anchor="start" x="549.39" y="-250.25" font-family="Helvetica,sans-Serif" font-size="10.00">/ArkScript/Ark/include</text>
<text text-anchor="middle" x="603.01" y="-239" font-family="Helvetica,sans-Serif" font-size="10.00">/Ark/Builtins/Builtins.hpp</text>
</a>
</g>
</g>
<!-- Node1&#45;&gt;Node2 -->
<g id="edge1_Node000001_Node000002" class="edge">
<title>Node1&#45;&gt;Node2</title>
<g id="a_edge1_Node000001_Node000002"><a xlink:title=" ">
<path fill="none" stroke="#63b8ff" d="M884.62,-485.18C831.33,-481.03 758.73,-468.09 707.01,-430.5 652.18,-390.64 621.19,-312.28 609.05,-275.32"/>
<polygon fill="#63b8ff" stroke="#63b8ff" points="884.3,-488.67 894.52,-485.86 884.78,-481.68 884.3,-488.67"/>
</a>
</g>
</g>
<!-- Node3 -->
<g id="Node000003" class="node">
<title>Node3</title>
<g id="a_Node000003"><a xlink:href="../../d1/d91/VM_8hpp.html" target="_top" xlink:title="The ArkScript virtual machine.">
<polygon fill="white" stroke="#666666" points="817.64,-197.25 700.39,-197.25 700.39,-155.5 817.64,-155.5 817.64,-197.25"/>
<text text-anchor="start" x="708.39" y="-183.75" font-family="Helvetica,sans-Serif" font-size="10.00">/Users/fola/Documents</text>
<text text-anchor="start" x="708.39" y="-172.5" font-family="Helvetica,sans-Serif" font-size="10.00">/ArkScript/Ark/include</text>
<text text-anchor="middle" x="759.01" y="-161.25" font-family="Helvetica,sans-Serif" font-size="10.00">/Ark/VM/VM.hpp</text>
</a>
</g>
</g>
<!-- Node1&#45;&gt;Node3 -->
<g id="edge40_Node000001_Node000003" class="edge">
<title>Node1&#45;&gt;Node3</title>
<g id="a_edge40_Node000001_Node000003"><a xlink:title=" ">
<path fill="none" stroke="#63b8ff" d="M885.06,-471.69C859.37,-463.29 831.76,-450.33 812.01,-430.5 747.86,-366.07 752.04,-245.19 756.58,-197.48"/>
<polygon fill="#63b8ff" stroke="#63b8ff" points="883.89,-474.99 894.48,-474.57 885.94,-468.3 883.89,-474.99"/>
</a>
</g>
</g>
<!-- Node12 -->
<g id="Node000012" class="node">
<title>Node12</title>
<g id="a_Node000012"><a xlink:href="../../d1/db2/Closure_8cpp.html" target="_top" xlink:title=" ">
<polygon fill="white" stroke="#666666" points="1407.26,-119.5 1266.76,-119.5 1266.76,-77.75 1407.26,-77.75 1407.26,-119.5"/>
<text text-anchor="start" x="1274.76" y="-106" font-family="Helvetica,sans-Serif" font-size="10.00">/Users/fola/Documents</text>
<text text-anchor="start" x="1274.76" y="-94.75" font-family="Helvetica,sans-Serif" font-size="10.00">/ArkScript/Ark/src/arkreactor</text>
<text text-anchor="middle" x="1337.01" y="-83.5" font-family="Helvetica,sans-Serif" font-size="10.00">/VM/Value/Closure.cpp</text>
</a>
</g>
</g>
<!-- Node1&#45;&gt;Node12 -->
<g id="edge42_Node000001_Node000012" class="edge">
<title>Node1&#45;&gt;Node12</title>
<g id="a_edge42_Node000001_Node000012"><a xlink:title=" ">
<path fill="none" stroke="#63b8ff" d="M1024.87,-472.36C1132.36,-448.78 1326.01,-397.34 1326.01,-332.88 1326.01,-332.88 1326.01,-332.88 1326.01,-253.12 1326.01,-205.3 1331.39,-149.31 1334.63,-119.95"/>
<polygon fill="#63b8ff" stroke="#63b8ff" points="1024.31,-468.9 1015.28,-474.44 1025.79,-475.75 1024.31,-468.9"/>
</a>
</g>
</g>
<!-- Node17 -->
<g id="Node000017" class="node">
<title>Node17</title>
<g id="a_Node000017"><a xlink:href="../../d1/d84/BytecodeReader_8hpp.html" target="_top" xlink:title="A bytecode disassembler for ArkScript.">
<polygon fill="white" stroke="#666666" points="1248.89,-275 1079.14,-275 1079.14,-233.25 1248.89,-233.25 1248.89,-275"/>
<text text-anchor="start" x="1087.14" y="-261.5" font-family="Helvetica,sans-Serif" font-size="10.00">/Users/fola/Documents</text>
<text text-anchor="start" x="1087.14" y="-250.25" font-family="Helvetica,sans-Serif" font-size="10.00">/ArkScript/Ark/include</text>
<text text-anchor="middle" x="1164.01" y="-239" font-family="Helvetica,sans-Serif" font-size="10.00">/Ark/Compiler/BytecodeReader.hpp</text>
</a>
</g>
</g>
<!-- Node1&#45;&gt;Node17 -->
<g id="edge17_Node000001_Node000017" class="edge">
<title>Node1&#45;&gt;Node17</title>
<g id="a_edge17_Node000001_Node000017"><a xlink:title=" ">
<path fill="none" stroke="#63b8ff" d="M1025.14,-482.63C1064.85,-476.78 1112.37,-462.86 1142.01,-430.5 1181.5,-387.4 1174.4,-311.33 1168.18,-275.23"/>
<polygon fill="#63b8ff" stroke="#63b8ff" points="1024.86,-479.14 1015.4,-483.91 1025.77,-486.08 1024.86,-479.14"/>
</a>
</g>
</g>
<!-- Node19 -->
<g id="Node000019" class="node">
<title>Node19</title>
<g id="a_Node000019"><a xlink:href="../../db/d5e/TypeChecker_8hpp.html" target="_top" xlink:title=" ">
<polygon fill="white" stroke="#666666" points="153.64,-197.25 36.39,-197.25 36.39,-155.5 153.64,-155.5 153.64,-197.25"/>
<text text-anchor="start" x="44.39" y="-183.75" font-family="Helvetica,sans-Serif" font-size="10.00">/Users/fola/Documents</text>
<text text-anchor="start" x="44.39" y="-172.5" font-family="Helvetica,sans-Serif" font-size="10.00">/ArkScript/Ark/include</text>
<text text-anchor="middle" x="95.01" y="-161.25" font-family="Helvetica,sans-Serif" font-size="10.00">/Ark/TypeChecker.hpp</text>
</a>
</g>
</g>
<!-- Node1&#45;&gt;Node19 -->
<g id="edge21_Node000001_Node000019" class="edge">
<title>Node1&#45;&gt;Node19</title>
<g id="a_edge21_Node000001_Node000019"><a xlink:title=" ">
<path fill="none" stroke="#63b8ff" d="M884.9,-477.51C825.25,-468.88 737.79,-453.66 664.01,-430.5 455.64,-365.1 221.83,-245.31 132.47,-197.68"/>
<polygon fill="#63b8ff" stroke="#63b8ff" points="884.18,-480.94 894.57,-478.88 885.16,-474.01 884.18,-480.94"/>
</a>
</g>
</g>
<!-- Node21 -->
<g id="Node000021" class="node">
<title>Node21</title>
<g id="a_Node000021"><a xlink:href="../../db/df6/ExecutionContext_8hpp.html" target="_top" xlink:title="Keeping track of the internal data needed by the VM.">
<polygon fill="white" stroke="#666666" points="952.89,-352.75 801.14,-352.75 801.14,-311 952.89,-311 952.89,-352.75"/>
<text text-anchor="start" x="809.14" y="-339.25" font-family="Helvetica,sans-Serif" font-size="10.00">/Users/fola/Documents</text>
<text text-anchor="start" x="809.14" y="-328" font-family="Helvetica,sans-Serif" font-size="10.00">/ArkScript/Ark/include</text>
<text text-anchor="middle" x="877.01" y="-316.75" font-family="Helvetica,sans-Serif" font-size="10.00">/Ark/VM/ExecutionContext.hpp</text>
</a>
</g>
</g>
<!-- Node1&#45;&gt;Node21 -->
<g id="edge26_Node000001_Node000021" class="edge">
<title>Node1&#45;&gt;Node21</title>
<g id="a_edge26_Node000001_Node000021"><a xlink:title=" ">
<path fill="none" stroke="#63b8ff" d="M939.69,-456.22C924.17,-425.67 900.59,-379.27 887.21,-352.95"/>
<polygon fill="#63b8ff" stroke="#63b8ff" points="936.48,-457.63 944.13,-464.96 942.72,-454.46 936.48,-457.63"/>
</a>
</g>
</g>
<!-- Node22 -->
<g id="Node000022" class="node">
<title>Node22</title>
<g id="a_Node000022"><a xlink:href="../../d0/dda/Future_8hpp.html" target="_top" xlink:title=" ">
<polygon fill="white" stroke="#666666" points="1039.64,-275 922.39,-275 922.39,-233.25 1039.64,-233.25 1039.64,-275"/>
<text text-anchor="start" x="930.39" y="-261.5" font-family="Helvetica,sans-Serif" font-size="10.00">/Users/fola/Documents</text>
<text text-anchor="start" x="930.39" y="-250.25" font-family="Helvetica,sans-Serif" font-size="10.00">/ArkScript/Ark/include</text>
<text text-anchor="middle" x="981.01" y="-239" font-family="Helvetica,sans-Serif" font-size="10.00">/Ark/VM/Future.hpp</text>
</a>
</g>
</g>
<!-- Node1&#45;&gt;Node22 -->
<g id="edge31_Node000001_Node000022" class="edge">
<title>Node1&#45;&gt;Node22</title>
<g id="a_edge31_Node000001_Node000022"><a xlink:title=" ">
<path fill="none" stroke="#63b8ff" d="M958.54,-454.97C963.97,-406.74 974.19,-315.78 978.74,-275.36"/>
<polygon fill="#63b8ff" stroke="#63b8ff" points="955.08,-454.43 957.44,-464.75 962.04,-455.21 955.08,-454.43"/>
</a>
</g>
</g>
<!-- Node23 -->
<g id="Node000023" class="node">
<title>Node23</title>
<g id="a_Node000023"><a xlink:href="../../d8/dcd/Scope_8hpp.html" target="_top" xlink:title="The virtual machine scope system.">
<polygon fill="white" stroke="#666666" points="1132.64,-430.5 1015.39,-430.5 1015.39,-388.75 1132.64,-388.75 1132.64,-430.5"/>
<text text-anchor="start" x="1023.39" y="-417" font-family="Helvetica,sans-Serif" font-size="10.00">/Users/fola/Documents</text>
<text text-anchor="start" x="1023.39" y="-405.75" font-family="Helvetica,sans-Serif" font-size="10.00">/ArkScript/Ark/include</text>
<text text-anchor="middle" x="1074.01" y="-394.5" font-family="Helvetica,sans-Serif" font-size="10.00">/Ark/VM/Scope.hpp</text>
</a>
</g>
</g>
<!-- Node1&#45;&gt;Node23 -->
<g id="edge32_Node000001_Node000023" class="edge">
<title>Node1&#45;&gt;Node23</title>
<g id="a_edge32_Node000001_Node000023"><a xlink:title=" ">
<path fill="none" stroke="#63b8ff" d="M996.44,-460.01C1011.39,-450.49 1028.02,-439.9 1042.04,-430.98"/>
<polygon fill="#63b8ff" stroke="#63b8ff" points="994.74,-456.94 988.18,-465.26 998.5,-462.85 994.74,-456.94"/>
</a>
</g>
</g>
<!-- Node25 -->
<g id="Node000025" class="node">
<title>Node25</title>
<g id="a_Node000025"><a xlink:href="../../d0/db5/State_8hpp.html" target="_top" xlink:title="State used by the virtual machine: it loads the bytecode, can compile it if needed,...">
<polygon fill="white" stroke="#666666" points="904.64,-275 787.39,-275 787.39,-233.25 904.64,-233.25 904.64,-275"/>
<text text-anchor="start" x="795.39" y="-261.5" font-family="Helvetica,sans-Serif" font-size="10.00">/Users/fola/Documents</text>
<text text-anchor="start" x="795.39" y="-250.25" font-family="Helvetica,sans-Serif" font-size="10.00">/ArkScript/Ark/include</text>
<text text-anchor="middle" x="846.01" y="-239" font-family="Helvetica,sans-Serif" font-size="10.00">/Ark/VM/State.hpp</text>
</a>
</g>
</g>
<!-- Node1&#45;&gt;Node25 -->
<g id="edge36_Node000001_Node000025" class="edge">
<title>Node1&#45;&gt;Node25</title>
<g id="a_edge36_Node000001_Node000025"><a xlink:title=" ">
<path fill="none" stroke="#63b8ff" d="M903.71,-460.58C865.07,-438 814.96,-401.23 792.01,-352.75 784.08,-335.98 785.06,-328.2 792.01,-311 797.57,-297.24 808.33,-284.99 818.78,-275.49"/>
<polygon fill="#63b8ff" stroke="#63b8ff" points="901.52,-463.36 911.95,-465.26 904.98,-457.28 901.52,-463.36"/>
</a>
</g>
</g>
<!-- Node26 -->
<g id="Node000026" class="node">
<title>Node26</title>
<g id="a_Node000026"><a xlink:href="../../d1/d74/Value_8cpp.html" target="_top" xlink:title=" ">
<polygon fill="white" stroke="#666666" points="1494.26,-430.5 1353.76,-430.5 1353.76,-388.75 1494.26,-388.75 1494.26,-430.5"/>
<text text-anchor="start" x="1361.76" y="-417" font-family="Helvetica,sans-Serif" font-size="10.00">/Users/fola/Documents</text>
<text text-anchor="start" x="1361.76" y="-405.75" font-family="Helvetica,sans-Serif" font-size="10.00">/ArkScript/Ark/src/arkreactor</text>
<text text-anchor="middle" x="1424.01" y="-394.5" font-family="Helvetica,sans-Serif" font-size="10.00">/VM/Value.cpp</text>
</a>
</g>
</g>
<!-- Node1&#45;&gt;Node26 -->
<g id="edge41_Node000001_Node000026" class="edge">
<title>Node1&#45;&gt;Node26</title>
<g id="a_edge41_Node000001_Node000026"><a xlink:title=" ">
<path fill="none" stroke="#63b8ff" d="M1025.03,-478.1C1102.42,-468.51 1230.61,-451.34 1340.01,-430.5 1344.43,-429.66 1348.96,-428.74 1353.53,-427.78"/>
<polygon fill="#63b8ff" stroke="#63b8ff" points="1024.98,-474.58 1015.49,-479.27 1025.84,-481.53 1024.98,-474.58"/>
</a>
</g>
</g>
<!-- Node2&#45;&gt;Node3 -->
<g id="edge2_Node000002_Node000003" class="edge">
<title>Node2&#45;&gt;Node3</title>
<g id="a_edge2_Node000002_Node000003"><a xlink:title=" ">
<path fill="none" stroke="#63b8ff" d="M655.09,-227.84C675.25,-218.05 698.02,-206.99 717.09,-197.73"/>
<polygon fill="#63b8ff" stroke="#63b8ff" points="653.65,-224.65 646.18,-232.16 656.7,-230.94 653.65,-224.65"/>
</a>
</g>
</g>
<!-- Node8 -->
<g id="Node000008" class="node">
<title>Node8</title>
<g id="a_Node000008"><a xlink:href="../../d7/d46/Repl_8cpp.html" target="_top" xlink:title=" ">
<polygon fill="white" stroke="#666666" points="722.26,-41.75 587.76,-41.75 587.76,0 722.26,0 722.26,-41.75"/>
<text text-anchor="start" x="595.76" y="-28.25" font-family="Helvetica,sans-Serif" font-size="10.00">/Users/fola/Documents</text>
<text text-anchor="start" x="595.76" y="-17" font-family="Helvetica,sans-Serif" font-size="10.00">/ArkScript/Ark/src/arkscript</text>
<text text-anchor="middle" x="655.01" y="-5.75" font-family="Helvetica,sans-Serif" font-size="10.00">/REPL/Repl.cpp</text>
</a>
</g>
</g>
<!-- Node2&#45;&gt;Node8 -->
<g id="edge16_Node000002_Node000008" class="edge">
<title>Node2&#45;&gt;Node8</title>
<g id="a_edge16_Node000002_Node000008"><a xlink:title=" ">
<path fill="none" stroke="#63b8ff" d="M529.79,-251.4C382.22,-247.18 60.21,-233.82 27.01,-197.25 -8.68,-157.92 -9.28,-116.53 27.01,-77.75 68.25,-33.68 509.31,-50.57 569.01,-41.75 575.08,-40.85 581.35,-39.75 587.61,-38.53"/>
<polygon fill="#63b8ff" stroke="#63b8ff" points="529.36,-254.89 539.45,-251.67 529.55,-247.9 529.36,-254.89"/>
</a>
</g>
</g>
<!-- Node13 -->
<g id="Node000013" class="node">
<title>Node13</title>
<g id="a_Node000013"><a xlink:href="../../d5/d36/BytecodeReader_8cpp.html" target="_top" xlink:title=" ">
<polygon fill="white" stroke="#666666" points="1025.89,-197.25 874.14,-197.25 874.14,-155.5 1025.89,-155.5 1025.89,-197.25"/>
<text text-anchor="start" x="882.14" y="-183.75" font-family="Helvetica,sans-Serif" font-size="10.00">/Users/fola/Documents</text>
<text text-anchor="start" x="882.14" y="-172.5" font-family="Helvetica,sans-Serif" font-size="10.00">/ArkScript/Ark/src/arkreactor</text>
<text text-anchor="middle" x="950.01" y="-161.25" font-family="Helvetica,sans-Serif" font-size="10.00">/Compiler/BytecodeReader.cpp</text>
</a>
</g>
</g>
<!-- Node2&#45;&gt;Node13 -->
<g id="edge12_Node000002_Node000013" class="edge">
<title>Node2&#45;&gt;Node13</title>
<g id="a_edge12_Node000002_Node000013"><a xlink:title=" ">
<path fill="none" stroke="#63b8ff" d="M675.96,-237.2C733.95,-224.54 814.82,-206.89 873.67,-194.04"/>
<polygon fill="#63b8ff" stroke="#63b8ff" points="675.55,-233.71 666.53,-239.26 677.04,-240.55 675.55,-233.71"/>
</a>
</g>
</g>
<!-- Node14 -->
<g id="Node000014" class="node">
<title>Node14</title>
<g id="a_Node000014"><a xlink:href="../../de/dfa/Compiler_8cpp.html" target="_top" xlink:title=" ">
<polygon fill="white" stroke="#666666" points="505.26,-197.25 364.76,-197.25 364.76,-155.5 505.26,-155.5 505.26,-197.25"/>
<text text-anchor="start" x="372.76" y="-183.75" font-family="Helvetica,sans-Serif" font-size="10.00">/Users/fola/Documents</text>
<text text-anchor="start" x="372.76" y="-172.5" font-family="Helvetica,sans-Serif" font-size="10.00">/ArkScript/Ark/src/arkreactor</text>
<text text-anchor="middle" x="435.01" y="-161.25" font-family="Helvetica,sans-Serif" font-size="10.00">/Compiler/Compiler.cpp</text>
</a>
</g>
</g>
<!-- Node2&#45;&gt;Node14 -->
<g id="edge13_Node000002_Node000014" class="edge">
<title>Node2&#45;&gt;Node14</title>
<g id="a_edge13_Node000002_Node000014"><a xlink:title=" ">
<path fill="none" stroke="#63b8ff" d="M547.53,-228.11C525.67,-218.25 500.89,-207.08 480.16,-197.73"/>
<polygon fill="#63b8ff" stroke="#63b8ff" points="546.06,-231.28 556.61,-232.2 548.93,-224.9 546.06,-231.28"/>
</a>
</g>
</g>
<!-- Node15 -->
<g id="Node000015" class="node">
<title>Node15</title>
<g id="a_Node000015"><a xlink:href="../../d6/d69/Processor_8cpp.html" target="_top" xlink:title=" ">
<polygon fill="white" stroke="#666666" points="682.26,-197.25 523.76,-197.25 523.76,-155.5 682.26,-155.5 682.26,-197.25"/>
<text text-anchor="start" x="531.76" y="-183.75" font-family="Helvetica,sans-Serif" font-size="10.00">/Users/fola/Documents</text>
<text text-anchor="start" x="531.76" y="-172.5" font-family="Helvetica,sans-Serif" font-size="10.00">/ArkScript/Ark/src/arkreactor</text>
<text text-anchor="middle" x="603.01" y="-161.25" font-family="Helvetica,sans-Serif" font-size="10.00">/Compiler/Macros/Processor.cpp</text>
</a>
</g>
</g>
<!-- Node2&#45;&gt;Node15 -->
<g id="edge14_Node000002_Node000015" class="edge">
<title>Node2&#45;&gt;Node15</title>
<g id="a_edge14_Node000002_Node000015"><a xlink:title=" ">
<path fill="none" stroke="#63b8ff" d="M603.01,-221.5C603.01,-213.46 603.01,-205.04 603.01,-197.73"/>
<polygon fill="#63b8ff" stroke="#63b8ff" points="599.51,-221.31 603.01,-231.31 606.51,-221.31 599.51,-221.31"/>
</a>
</g>
</g>
<!-- Node16 -->
<g id="Node000016" class="node">
<title>Node16</title>
<g id="a_Node000016"><a xlink:href="../../de/dd7/NameResolutionPass_8cpp.html" target="_top" xlink:title=" ">
<polygon fill="white" stroke="#666666" points="346.51,-197.25 171.51,-197.25 171.51,-155.5 346.51,-155.5 346.51,-197.25"/>
<text text-anchor="start" x="179.51" y="-183.75" font-family="Helvetica,sans-Serif" font-size="10.00">/Users/fola/Documents</text>
<text text-anchor="start" x="179.51" y="-172.5" font-family="Helvetica,sans-Serif" font-size="10.00">/ArkScript/Ark/src/arkreactor</text>
<text text-anchor="middle" x="259.01" y="-161.25" font-family="Helvetica,sans-Serif" font-size="10.00">/Compiler/NameResolutionPass.cpp</text>
</a>
</g>
</g>
<!-- Node2&#45;&gt;Node16 -->
<g id="edge15_Node000002_Node000016" class="edge">
<title>Node2&#45;&gt;Node16</title>
<g id="a_edge15_Node000002_Node000016"><a xlink:title=" ">
<path fill="none" stroke="#63b8ff" d="M530.01,-237.05C476.5,-225.27 403.63,-209.22 346.92,-196.73"/>
<polygon fill="#63b8ff" stroke="#63b8ff" points="529.12,-240.44 539.64,-239.17 530.62,-233.6 529.12,-240.44"/>
</a>
</g>
</g>
<!-- Node4 -->
<g id="Node000004" class="node">
<title>Node4</title>
<g id="a_Node000004"><a xlink:href="../../d3/d7e/Ark_8hpp.html" target="_top" xlink:title="Includes the needed files to start using ArkScript.">
<polygon fill="white" stroke="#666666" points="548.64,-119.5 431.39,-119.5 431.39,-77.75 548.64,-77.75 548.64,-119.5"/>
<text text-anchor="start" x="439.39" y="-106" font-family="Helvetica,sans-Serif" font-size="10.00">/Users/fola/Documents</text>
<text text-anchor="start" x="439.39" y="-94.75" font-family="Helvetica,sans-Serif" font-size="10.00">/ArkScript/Ark/include</text>
<text text-anchor="middle" x="490.01" y="-83.5" font-family="Helvetica,sans-Serif" font-size="10.00">/Ark/Ark.hpp</text>
</a>
</g>
</g>
<!-- Node3&#45;&gt;Node4 -->
<g id="edge3_Node000003_Node000004" class="edge">
<title>Node3&#45;&gt;Node4</title>
<g id="a_edge3_Node000003_Node000004"><a xlink:title=" ">
<path fill="none" stroke="#63b8ff" d="M689.11,-154.97C636.37,-139.97 586.5,-126.14 549,-115.8"/>
<polygon fill="#63b8ff" stroke="#63b8ff" points="688.02,-158.3 698.6,-157.68 689.94,-151.57 688.02,-158.3"/>
</a>
</g>
</g>
<!-- Node6 -->
<g id="Node000006" class="node">
<title>Node6</title>
<g id="a_Node000006"><a xlink:href="../../d5/d44/Module_8hpp.html" target="_top" xlink:title=" ">
<polygon fill="white" stroke="#666666" points="700.64,-119.5 583.39,-119.5 583.39,-77.75 700.64,-77.75 700.64,-119.5"/>
<text text-anchor="start" x="591.39" y="-106" font-family="Helvetica,sans-Serif" font-size="10.00">/Users/fola/Documents</text>
<text text-anchor="start" x="591.39" y="-94.75" font-family="Helvetica,sans-Serif" font-size="10.00">/ArkScript/Ark/include</text>
<text text-anchor="middle" x="642.01" y="-83.5" font-family="Helvetica,sans-Serif" font-size="10.00">/Ark/Module.hpp</text>
</a>
</g>
</g>
<!-- Node3&#45;&gt;Node6 -->
<g id="edge5_Node000003_Node000006" class="edge">
<title>Node3&#45;&gt;Node6</title>
<g id="a_edge5_Node000003_Node000006"><a xlink:title=" ">
<path fill="none" stroke="#63b8ff" d="M718.28,-149.01C703.59,-139.49 687.23,-128.9 673.45,-119.98"/>
<polygon fill="#63b8ff" stroke="#63b8ff" points="716.09,-151.76 726.39,-154.25 719.9,-145.88 716.09,-151.76"/>
</a>
</g>
</g>
<!-- Node7 -->
<g id="Node000007" class="node">
<title>Node7</title>
<g id="a_Node000007"><a xlink:href="../../d5/da5/Repl_8hpp.html" target="_top" xlink:title="ArkScript REPL &#45; Read Eval Print Loop.">
<polygon fill="white" stroke="#666666" points="854.64,-119.5 737.39,-119.5 737.39,-77.75 854.64,-77.75 854.64,-119.5"/>
<text text-anchor="start" x="745.39" y="-106" font-family="Helvetica,sans-Serif" font-size="10.00">/Users/fola/Documents</text>
<text text-anchor="start" x="745.39" y="-94.75" font-family="Helvetica,sans-Serif" font-size="10.00">/ArkScript/Ark/include</text>
<text text-anchor="middle" x="796.01" y="-83.5" font-family="Helvetica,sans-Serif" font-size="10.00">/CLI/REPL/Repl.hpp</text>
</a>
</g>
</g>
<!-- Node3&#45;&gt;Node7 -->
<g id="edge6_Node000003_Node000007" class="edge">
<title>Node3&#45;&gt;Node7</title>
<g id="a_edge6_Node000003_Node000007"><a xlink:title=" ">
<path fill="none" stroke="#63b8ff" d="M773.91,-144.87C778,-136.5 782.33,-127.63 786.07,-119.98"/>
<polygon fill="#63b8ff" stroke="#63b8ff" points="770.84,-143.19 769.59,-153.72 777.13,-146.27 770.84,-143.19"/>
</a>
</g>
</g>
<!-- Node10 -->
<g id="Node000010" class="node">
<title>Node10</title>
<g id="a_Node000010"><a xlink:href="../../d4/dc9/Future_8cpp.html" target="_top" xlink:title=" ">
<polygon fill="white" stroke="#666666" points="1050.26,-119.5 909.76,-119.5 909.76,-77.75 1050.26,-77.75 1050.26,-119.5"/>
<text text-anchor="start" x="917.76" y="-106" font-family="Helvetica,sans-Serif" font-size="10.00">/Users/fola/Documents</text>
<text text-anchor="start" x="917.76" y="-94.75" font-family="Helvetica,sans-Serif" font-size="10.00">/ArkScript/Ark/src/arkreactor</text>
<text text-anchor="middle" x="980.01" y="-83.5" font-family="Helvetica,sans-Serif" font-size="10.00">/VM/Future.cpp</text>
</a>
</g>
</g>
<!-- Node3&#45;&gt;Node10 -->
<g id="edge9_Node000003_Node000010" class="edge">
<title>Node3&#45;&gt;Node10</title>
<g id="a_edge9_Node000003_Node000010"><a xlink:title=" ">
<path fill="none" stroke="#63b8ff" d="M828.64,-151.51C858.27,-141.35 892.47,-129.63 920.86,-119.9"/>
<polygon fill="#63b8ff" stroke="#63b8ff" points="827.7,-148.13 819.38,-154.68 829.97,-154.75 827.7,-148.13"/>
</a>
</g>
</g>
<!-- Node11 -->
<g id="Node000011" class="node">
<title>Node11</title>
<g id="a_Node000011"><a xlink:href="../../d2/d27/VM_8cpp.html" target="_top" xlink:title=" ">
<polygon fill="white" stroke="#666666" points="394.26,-119.5 253.76,-119.5 253.76,-77.75 394.26,-77.75 394.26,-119.5"/>
<text text-anchor="start" x="261.76" y="-106" font-family="Helvetica,sans-Serif" font-size="10.00">/Users/fola/Documents</text>
<text text-anchor="start" x="261.76" y="-94.75" font-family="Helvetica,sans-Serif" font-size="10.00">/ArkScript/Ark/src/arkreactor</text>
<text text-anchor="middle" x="324.01" y="-83.5" font-family="Helvetica,sans-Serif" font-size="10.00">/VM/VM.cpp</text>
</a>
</g>
</g>
<!-- Node3&#45;&gt;Node11 -->
<g id="edge10_Node000003_Node000011" class="edge">
<title>Node3&#45;&gt;Node11</title>
<g id="a_edge10_Node000003_Node000011"><a xlink:title=" ">
<path fill="none" stroke="#63b8ff" d="M689.24,-155.3C571.06,-131.01 537.48,-138.91 422.01,-119.5 413.11,-118 403.78,-116.29 394.57,-114.52"/>
<polygon fill="#63b8ff" stroke="#63b8ff" points="688.19,-158.66 698.7,-157.28 689.63,-151.8 688.19,-158.66"/>
</a>
</g>
</g>
<!-- Node3&#45;&gt;Node12 -->
<g id="edge11_Node000003_Node000012" class="edge">
<title>Node3&#45;&gt;Node12</title>
<g id="a_edge11_Node000003_Node000012"><a xlink:title=" ">
<path fill="none" stroke="#63b8ff" d="M829.31,-161.51C841.2,-159.36 853.44,-157.27 865.01,-155.5 1006.95,-133.82 1173.99,-115.8 1266.44,-106.48"/>
<polygon fill="#63b8ff" stroke="#63b8ff" points="828.73,-158.05 819.53,-163.3 830,-164.94 828.73,-158.05"/>
</a>
</g>
</g>
<!-- Node5 -->
<g id="Node000005" class="node">
<title>Node5</title>
<g id="a_Node000005"><a xlink:href="../../dc/d32/Ark_8cpp.html" target="_top" xlink:title=" ">
<polygon fill="white" stroke="#666666" points="560.26,-41.75 419.76,-41.75 419.76,0 560.26,0 560.26,-41.75"/>
<text text-anchor="start" x="427.76" y="-28.25" font-family="Helvetica,sans-Serif" font-size="10.00">/Users/fola/Documents</text>
<text text-anchor="start" x="427.76" y="-17" font-family="Helvetica,sans-Serif" font-size="10.00">/ArkScript/Ark/src/arkreactor</text>
<text text-anchor="middle" x="490.01" y="-5.75" font-family="Helvetica,sans-Serif" font-size="10.00">/Ark.cpp</text>
</a>
</g>
</g>
<!-- Node4&#45;&gt;Node5 -->
<g id="edge4_Node000004_Node000005" class="edge">
<title>Node4&#45;&gt;Node5</title>
<g id="a_edge4_Node000004_Node000005"><a xlink:title=" ">
<path fill="none" stroke="#63b8ff" d="M490.01,-66C490.01,-57.96 490.01,-49.54 490.01,-42.23"/>
<polygon fill="#63b8ff" stroke="#63b8ff" points="486.51,-65.81 490.01,-75.81 493.51,-65.81 486.51,-65.81"/>
</a>
</g>
</g>
<!-- Node7&#45;&gt;Node8 -->
<g id="edge7_Node000007_Node000008" class="edge">
<title>Node7&#45;&gt;Node8</title>
<g id="a_edge7_Node000007_Node000008"><a xlink:title=" ">
<path fill="none" stroke="#63b8ff" d="M748.19,-71.93C730.16,-62.24 709.91,-51.37 692.9,-42.23"/>
<polygon fill="#63b8ff" stroke="#63b8ff" points="746.43,-74.96 756.89,-76.61 749.74,-68.79 746.43,-74.96"/>
</a>
</g>
</g>
<!-- Node9 -->
<g id="Node000009" class="node">
<title>Node9</title>
<g id="a_Node000009"><a xlink:href="../../df/d0a/main_8cpp.html" target="_top" xlink:title=" ">
<polygon fill="white" stroke="#666666" points="880.26,-41.75 745.76,-41.75 745.76,0 880.26,0 880.26,-41.75"/>
<text text-anchor="start" x="753.76" y="-28.25" font-family="Helvetica,sans-Serif" font-size="10.00">/Users/fola/Documents</text>
<text text-anchor="start" x="753.76" y="-17" font-family="Helvetica,sans-Serif" font-size="10.00">/ArkScript/Ark/src/arkscript</text>
<text text-anchor="middle" x="813.01" y="-5.75" font-family="Helvetica,sans-Serif" font-size="10.00">/main.cpp</text>
</a>
</g>
</g>
<!-- Node7&#45;&gt;Node9 -->
<g id="edge8_Node000007_Node000009" class="edge">
<title>Node7&#45;&gt;Node9</title>
<g id="a_edge8_Node000007_Node000009"><a xlink:title=" ">
<path fill="none" stroke="#63b8ff" d="M803.05,-66.28C804.87,-58.16 806.79,-49.62 808.44,-42.23"/>
<polygon fill="#63b8ff" stroke="#63b8ff" points="799.68,-65.32 800.9,-75.85 806.51,-66.86 799.68,-65.32"/>
</a>
</g>
</g>
<!-- Node17&#45;&gt;Node9 -->
<g id="edge20_Node000017_Node000009" class="edge">
<title>Node17&#45;&gt;Node9</title>
<g id="a_edge20_Node000017_Node000009"><a xlink:title=" ">
<path fill="none" stroke="#63b8ff" d="M1208.34,-225.64C1217.5,-217.69 1225.9,-208.16 1231.01,-197.25 1238.88,-180.44 1241.08,-171.09 1231.01,-155.5 1192.54,-95.89 988.8,-52.29 880.63,-32.95"/>
<polygon fill="#63b8ff" stroke="#63b8ff" points="1206.22,-222.85 1200.59,-231.83 1210.59,-228.32 1206.22,-222.85"/>
</a>
</g>
</g>
<!-- Node17&#45;&gt;Node13 -->
<g id="edge18_Node000017_Node000013" class="edge">
<title>Node17&#45;&gt;Node13</title>
<g id="a_edge18_Node000017_Node000013"><a xlink:title=" ">
<path fill="none" stroke="#63b8ff" d="M1095.98,-229.04C1067.51,-218.96 1034.77,-207.38 1007.52,-197.73"/>
<polygon fill="#63b8ff" stroke="#63b8ff" points="1094.64,-232.28 1105.24,-232.32 1096.98,-225.68 1094.64,-232.28"/>
</a>
</g>
</g>
<!-- Node18 -->
<g id="Node000018" class="node">
<title>Node18</title>
<g id="a_Node000018"><a xlink:href="../../d0/da0/State_8cpp.html" target="_top" xlink:title=" ">
<polygon fill="white" stroke="#666666" points="1222.26,-197.25 1081.76,-197.25 1081.76,-155.5 1222.26,-155.5 1222.26,-197.25"/>
<text text-anchor="start" x="1089.76" y="-183.75" font-family="Helvetica,sans-Serif" font-size="10.00">/Users/fola/Documents</text>
<text text-anchor="start" x="1089.76" y="-172.5" font-family="Helvetica,sans-Serif" font-size="10.00">/ArkScript/Ark/src/arkreactor</text>
<text text-anchor="middle" x="1152.01" y="-161.25" font-family="Helvetica,sans-Serif" font-size="10.00">/VM/State.cpp</text>
</a>
</g>
</g>
<!-- Node17&#45;&gt;Node18 -->
<g id="edge19_Node000017_Node000018" class="edge">
<title>Node17&#45;&gt;Node18</title>
<g id="a_edge19_Node000017_Node000018"><a xlink:title=" ">
<path fill="none" stroke="#63b8ff" d="M1159,-221.5C1157.73,-213.46 1156.4,-205.04 1155.24,-197.73"/>
<polygon fill="#63b8ff" stroke="#63b8ff" points="1155.54,-222 1160.56,-231.33 1162.45,-220.91 1155.54,-222"/>
</a>
</g>
</g>
<!-- Node19&#45;&gt;Node4 -->
<g id="edge22_Node000019_Node000004" class="edge">
<title>Node19&#45;&gt;Node4</title>
<g id="a_edge22_Node000019_Node000004"><a xlink:title=" ">
<path fill="none" stroke="#63b8ff" d="M165.13,-154.95C269.74,-132.51 300.12,-138.91 403.01,-119.5 412.15,-117.78 421.78,-115.77 431.17,-113.71"/>
<polygon fill="#63b8ff" stroke="#63b8ff" points="164.58,-151.49 155.56,-157.04 166.08,-158.32 164.58,-151.49"/>
</a>
</g>
</g>
<!-- Node19&#45;&gt;Node6 -->
<g id="edge23_Node000019_Node000006" class="edge">
<title>Node19&#45;&gt;Node6</title>
<g id="a_edge23_Node000019_Node000006"><a xlink:title=" ">
<path fill="none" stroke="#63b8ff" d="M165.3,-155.05C337.65,-123.26 387.25,-147.32 558.01,-119.5 566.15,-118.17 574.66,-116.5 583.02,-114.69"/>
<polygon fill="#63b8ff" stroke="#63b8ff" points="164.71,-151.6 155.53,-156.9 166.01,-158.48 164.71,-151.6"/>
</a>
</g>
</g>
<!-- Node19&#45;&gt;Node11 -->
<g id="edge25_Node000019_Node000011" class="edge">
<title>Node19&#45;&gt;Node11</title>
<g id="a_edge25_Node000019_Node000011"><a xlink:title=" ">
<path fill="none" stroke="#63b8ff" d="M164.77,-152.3C195.92,-142 232.31,-129.96 262.44,-119.99"/>
<polygon fill="#63b8ff" stroke="#63b8ff" points="163.82,-148.93 155.42,-155.39 166.02,-155.57 163.82,-148.93"/>
</a>
</g>
</g>
<!-- Node20 -->
<g id="Node000020" class="node">
<title>Node20</title>
<g id="a_Node000020"><a xlink:href="../../d6/d9a/TypeChecker_8cpp.html" target="_top" xlink:title=" ">
<polygon fill="white" stroke="#666666" points="176.26,-119.5 35.76,-119.5 35.76,-77.75 176.26,-77.75 176.26,-119.5"/>
<text text-anchor="start" x="43.76" y="-106" font-family="Helvetica,sans-Serif" font-size="10.00">/Users/fola/Documents</text>
<text text-anchor="start" x="43.76" y="-94.75" font-family="Helvetica,sans-Serif" font-size="10.00">/ArkScript/Ark/src/arkreactor</text>
<text text-anchor="middle" x="106.01" y="-83.5" font-family="Helvetica,sans-Serif" font-size="10.00">/TypeChecker.cpp</text>
</a>
</g>
</g>
<!-- Node19&#45;&gt;Node20 -->
<g id="edge24_Node000019_Node000020" class="edge">
<title>Node19&#45;&gt;Node20</title>
<g id="a_edge24_Node000019_Node000020"><a xlink:title=" ">
<path fill="none" stroke="#63b8ff" d="M99.61,-143.75C100.77,-135.71 102,-127.29 103.06,-119.98"/>
<polygon fill="#63b8ff" stroke="#63b8ff" points="96.15,-143.18 98.18,-153.58 103.08,-144.18 96.15,-143.18"/>
</a>
</g>
</g>
<!-- Node21&#45;&gt;Node3 -->
<g id="edge30_Node000021_Node000003" class="edge">
<title>Node21&#45;&gt;Node3</title>
<g id="a_edge30_Node000021_Node000003"><a xlink:title=" ">
<path fill="none" stroke="#63b8ff" d="M812.07,-304.93C799.11,-297.06 786.8,-287.18 778.01,-275 761.55,-252.17 758.35,-218.83 758.2,-197.63"/>
<polygon fill="#63b8ff" stroke="#63b8ff" points="810.31,-307.96 820.74,-309.81 813.75,-301.86 810.31,-307.96"/>
</a>
</g>
</g>
<!-- Node21&#45;&gt;Node22 -->
<g id="edge27_Node000021_Node000022" class="edge">
<title>Node21&#45;&gt;Node22</title>
<g id="a_edge27_Node000021_Node000022"><a xlink:title=" ">
<path fill="none" stroke="#63b8ff" d="M913.97,-303.96C926.83,-294.59 941.05,-284.23 953.07,-275.48"/>
<polygon fill="#63b8ff" stroke="#63b8ff" points="912.13,-300.97 906.11,-309.68 916.25,-306.63 912.13,-300.97"/>
</a>
</g>
</g>
<!-- Node22&#45;&gt;Node3 -->
<g id="edge28_Node000022_Node000003" class="edge">
<title>Node22&#45;&gt;Node3</title>
<g id="a_edge28_Node000022_Node000003"><a xlink:title=" ">
<path fill="none" stroke="#63b8ff" d="M911.27,-229.33C881.24,-219.08 846.51,-207.23 817.81,-197.44"/>
<polygon fill="#63b8ff" stroke="#63b8ff" points="910.08,-232.62 920.67,-232.54 912.34,-225.99 910.08,-232.62"/>
</a>
</g>
</g>
<!-- Node22&#45;&gt;Node10 -->
<g id="edge29_Node000022_Node000010" class="edge">
<title>Node22&#45;&gt;Node10</title>
<g id="a_edge29_Node000022_Node000010"><a xlink:title=" ">
<path fill="none" stroke="#63b8ff" d="M1016.3,-224.88C1023.9,-216.84 1030.89,-207.46 1035.01,-197.25 1041.97,-180.05 1042.05,-172.67 1035.01,-155.5 1029.34,-141.64 1018.39,-129.38 1007.74,-119.9"/>
<polygon fill="#63b8ff" stroke="#63b8ff" points="1014.03,-222.21 1009.33,-231.7 1018.92,-227.21 1014.03,-222.21"/>
</a>
</g>
</g>
<!-- Node23&#45;&gt;Node12 -->
<g id="edge35_Node000023_Node000012" class="edge">
<title>Node23&#45;&gt;Node12</title>
<g id="a_edge35_Node000023_Node000012"><a xlink:title=" ">
<path fill="none" stroke="#63b8ff" d="M1123.85,-382.72C1164.67,-359.32 1221.45,-321.48 1258.01,-275 1258.66,-274.17 1307.23,-166 1327.88,-119.97"/>
<polygon fill="#63b8ff" stroke="#63b8ff" points="1122.16,-379.65 1115.16,-387.61 1125.59,-385.75 1122.16,-379.65"/>
</a>
</g>
</g>
<!-- Node23&#45;&gt;Node21 -->
<g id="edge33_Node000023_Node000021" class="edge">
<title>Node23&#45;&gt;Node21</title>
<g id="a_edge33_Node000023_Node000021"><a xlink:title=" ">
<path fill="none" stroke="#63b8ff" d="M1010.69,-384.28C984.64,-374.26 954.81,-362.79 929.95,-353.23"/>
<polygon fill="#63b8ff" stroke="#63b8ff" points="1009.22,-387.46 1019.81,-387.78 1011.73,-380.93 1009.22,-387.46"/>
</a>
</g>
</g>
<!-- Node24 -->
<g id="Node000024" class="node">
<title>Node24</title>
<g id="a_Node000024"><a xlink:href="../../d5/d04/Scope_8cpp.html" target="_top" xlink:title=" ">
<polygon fill="white" stroke="#666666" points="1149.26,-352.75 1008.76,-352.75 1008.76,-311 1149.26,-311 1149.26,-352.75"/>
<text text-anchor="start" x="1016.76" y="-339.25" font-family="Helvetica,sans-Serif" font-size="10.00">/Users/fola/Documents</text>
<text text-anchor="start" x="1016.76" y="-328" font-family="Helvetica,sans-Serif" font-size="10.00">/ArkScript/Ark/src/arkreactor</text>
<text text-anchor="middle" x="1079.01" y="-316.75" font-family="Helvetica,sans-Serif" font-size="10.00">/VM/Scope.cpp</text>
</a>
</g>
</g>
<!-- Node23&#45;&gt;Node24 -->
<g id="edge34_Node000023_Node000024" class="edge">
<title>Node23&#45;&gt;Node24</title>
<g id="a_edge34_Node000023_Node000024"><a xlink:title=" ">
<path fill="none" stroke="#63b8ff" d="M1076.1,-377C1076.63,-368.96 1077.19,-360.54 1077.67,-353.23"/>
<polygon fill="#63b8ff" stroke="#63b8ff" points="1072.62,-376.61 1075.45,-386.82 1079.6,-377.07 1072.62,-376.61"/>
</a>
</g>
</g>
<!-- Node25&#45;&gt;Node3 -->
<g id="edge37_Node000025_Node000003" class="edge">
<title>Node25&#45;&gt;Node3</title>
<g id="a_edge37_Node000025_Node000003"><a xlink:title=" ">
<path fill="none" stroke="#63b8ff" d="M814.16,-225.39C803.64,-216.23 792.15,-206.23 782.39,-197.73"/>
<polygon fill="#63b8ff" stroke="#63b8ff" points="811.72,-227.9 821.56,-231.83 816.31,-222.63 811.72,-227.9"/>
</a>
</g>
</g>
<!-- Node25&#45;&gt;Node7 -->
<g id="edge38_Node000025_Node000007" class="edge">
<title>Node25&#45;&gt;Node7</title>
<g id="a_edge38_Node000025_Node000007"><a xlink:title=" ">
<path fill="none" stroke="#63b8ff" d="M842.43,-221.53C839.6,-202.08 834.8,-176.86 827.01,-155.5 822.49,-143.1 815.48,-130.15 809.26,-119.85"/>
<polygon fill="#63b8ff" stroke="#63b8ff" points="838.94,-221.86 843.74,-231.31 845.88,-220.93 838.94,-221.86"/>
</a>
</g>
</g>
<!-- Node25&#45;&gt;Node18 -->
<g id="edge39_Node000025_Node000018" class="edge">
<title>Node25&#45;&gt;Node18</title>
<g id="a_edge39_Node000025_Node000018"><a xlink:title=" ">
<path fill="none" stroke="#63b8ff" d="M915.75,-232.59C976.58,-216.65 1036.39,-202.8 1081.42,-192.74"/>
<polygon fill="#63b8ff" stroke="#63b8ff" points="915.02,-229.16 906.25,-235.09 916.81,-235.93 915.02,-229.16"/>
</a>
</g>
</g>
</g>
</svg>
