<?xml version="1.0" encoding="UTF-8" standalone="no"?>
<!DOCTYPE svg PUBLIC "-//W3C//DTD SVG 1.1//EN"
 "http://www.w3.org/Graphics/SVG/1.1/DTD/svg11.dtd">
<!-- Generated by graphviz version 12.2.0 (20241103.1931)
 -->
<!-- Title: /Users/fola/Documents/ArkScript/Ark/include/Ark/VM/Value.hpp Pages: 1 -->
<!--zoomable 528 -->

<svg id="main" version="1.1" xmlns="http://www.w3.org/2000/svg" xmlns:xlink="http://www.w3.org/1999/xlink" xml:space="preserve" onload="init(evt)">

<style type="text/css"><![CDATA[
.node, .edge {opacity: 0.7;}
.node.selected, .edge.selected {opacity: 1;}
.edge:hover path { stroke: red; }
.edge:hover polygon { stroke: red; fill: red; }
]]></style>

<defs>
  <circle id="rim" cx="0" cy="0" r="7"/>
  <circle id="rim2" cx="0" cy="0" r="3.5"/>
  <g id="zoomPlus">
    <use xlink:href="#rim" fill="#404040"><set attributeName="fill" to="#808080" begin="zoomplus.mouseover" end="zoomplus.mouseout"/></use>
    <path d="M-4,0h8M0,-4v8" fill="none" stroke="white" stroke-width="1.5" pointer-events="none"/>
  </g>
  <g id="zoomMin">
    <use xlink:href="#rim" fill="#404040"><set attributeName="fill" to="#808080" begin="zoomminus.mouseover" end="zoomminus.mouseout"/></use>
    <path d="M-4,0h8" fill="none" stroke="white" stroke-width="1.5" pointer-events="none"/>
  </g>
  <g id="arrowUp" transform="translate(30 24)">
    <use xlink:href="#rim"/>
    <path pointer-events="none" fill="none" stroke="white" stroke-width="1.5" d="M0,-3.0v7 M-2.5,-0.5L0,-3.0L2.5,-0.5"/>
  </g>
  <g id="arrowRight" transform="rotate(90) translate(36 -43)">
    <use xlink:href="#rim"/>
    <path pointer-events="none" fill="none" stroke="white" stroke-width="1.5" d="M0,-3.0v7 M-2.5,-0.5L0,-3.0L2.5,-0.5"/>
  </g>
  <g id="arrowDown" transform="rotate(180) translate(-30 -48)">
    <use xlink:href="#rim"/>
    <path pointer-events="none" fill="none" stroke="white" stroke-width="1.5" d="M0,-3.0v7 M-2.5,-0.5L0,-3.0L2.5,-0.5"/>
  </g>
  <g id="arrowLeft" transform="rotate(270) translate(-36 17)">
    <use xlink:href="#rim"/>
    <path pointer-events="none" fill="none" stroke="white" stroke-width="1.5" d="M0,-3.0v7 M-2.5,-0.5L0,-3.0L2.5,-0.5"/>
  </g>
  <g id="resetDef">
    <use xlink:href="#rim2" fill="#404040"><set attributeName="fill" to="#808080" begin="reset.mouseover" end="reset.mouseout"/></use>
  </g>
</defs>
<script type="application/ecmascript">
var viewWidth = 1709;
var viewHeight = 528;
var sectionId = 'dynsection-1';
</script>
<script type="application/ecmascript" xlink:href="../../svg.min.js"/>
<svg id="graph" class="graph">
<g id="viewport">
<title>/Users/fola/Documents/ArkScript/Ark/include/Ark/VM/Value.hpp</title>
<!-- Node1 -->
<g id="Node000001" class="node">
<title>Node1</title>
<g id="a_Node000001"><a xlink:title=" ">
<polygon fill="#999999" stroke="#666666" points="1353.12,-519.5 1235.88,-519.5 1235.88,-477.75 1353.12,-477.75 1353.12,-519.5"/>
<text text-anchor="start" x="1243.88" y="-506" font-family="Helvetica,sans-Serif" font-size="10.00">/Users/fola/Documents</text>
<text text-anchor="start" x="1243.88" y="-494.75" font-family="Helvetica,sans-Serif" font-size="10.00">/ArkScript/Ark/include</text>
<text text-anchor="middle" x="1294.5" y="-483.5" font-family="Helvetica,sans-Serif" font-size="10.00">/Ark/VM/Value.hpp</text>
</a>
</g>
</g>
<!-- Node2 -->
<g id="Node000002" class="node">
<title>Node2</title>
<g id="a_Node000002"><a xlink:href="../../da/d84/Builtins_8hpp.html" target="_top" xlink:title="Host the declaration of all the ArkScript builtins.">
<polygon fill="white" stroke="#666666" points="677.12,-286.25 553.88,-286.25 553.88,-244.5 677.12,-244.5 677.12,-286.25"/>
<text text-anchor="start" x="561.88" y="-272.75" font-family="Helvetica,sans-Serif" font-size="10.00">/Users/fola/Documents</text>
<text text-anchor="start" x="561.88" y="-261.5" font-family="Helvetica,sans-Serif" font-size="10.00">/ArkScript/Ark/include</text>
<text text-anchor="middle" x="615.5" y="-250.25" font-family="Helvetica,sans-Serif" font-size="10.00">/Ark/Builtins/Builtins.hpp</text>
</a>
</g>
</g>
<!-- Node1&#45;&gt;Node2 -->
<g id="edge1_Node000001_Node000002" class="edge">
<title>Node1&#45;&gt;Node2</title>
<g id="a_edge1_Node000001_Node000002"><a xlink:title=" ">
<path fill="none" stroke="#63b8ff" d="M1223.92,-496.93C1141.51,-494.07 1002.24,-482.87 890.5,-441.75 788.47,-404.21 684.8,-324.33 639.34,-286.74"/>
<polygon fill="#63b8ff" stroke="#63b8ff" points="1223.79,-500.42 1233.89,-497.24 1224.01,-493.43 1223.79,-500.42"/>
</a>
</g>
</g>
<!-- Node3 -->
<g id="Node000003" class="node">
<title>Node3</title>
<g id="a_Node000003"><a xlink:href="../../d1/d91/VM_8hpp.html" target="_top" xlink:title="The ArkScript virtual machine.">
<polygon fill="white" stroke="#666666" points="1052.12,-202.88 934.88,-202.88 934.88,-161.12 1052.12,-161.12 1052.12,-202.88"/>
<text text-anchor="start" x="942.88" y="-189.38" font-family="Helvetica,sans-Serif" font-size="10.00">/Users/fola/Documents</text>
<text text-anchor="start" x="942.88" y="-178.12" font-family="Helvetica,sans-Serif" font-size="10.00">/ArkScript/Ark/include</text>
<text text-anchor="middle" x="993.5" y="-166.88" font-family="Helvetica,sans-Serif" font-size="10.00">/Ark/VM/VM.hpp</text>
</a>
</g>
</g>
<!-- Node1&#45;&gt;Node3 -->
<g id="edge41_Node000001_Node000003" class="edge">
<title>Node1&#45;&gt;Node3</title>
<g id="a_edge41_Node000001_Node000003"><a xlink:title=" ">
<path fill="none" stroke="#63b8ff" d="M1224.87,-475.82C1202.33,-467.08 1177.9,-455.72 1157.5,-441.75 1079.03,-388.02 1052.74,-371.46 1010.5,-286.25 997.27,-259.56 994.01,-224.69 993.38,-203.08"/>
<polygon fill="#63b8ff" stroke="#63b8ff" points="1223.41,-479.01 1234,-479.25 1225.87,-472.46 1223.41,-479.01"/>
</a>
</g>
</g>
<!-- Node12 -->
<g id="Node000012" class="node">
<title>Node12</title>
<g id="a_Node000012"><a xlink:href="../../d1/db2/Closure_8cpp.html" target="_top" xlink:title=" ">
<polygon fill="white" stroke="#666666" points="1652.75,-119.5 1512.25,-119.5 1512.25,-77.75 1652.75,-77.75 1652.75,-119.5"/>
<text text-anchor="start" x="1520.25" y="-106" font-family="Helvetica,sans-Serif" font-size="10.00">/Users/fola/Documents</text>
<text text-anchor="start" x="1520.25" y="-94.75" font-family="Helvetica,sans-Serif" font-size="10.00">/ArkScript/Ark/src/arkreactor</text>
<text text-anchor="middle" x="1582.5" y="-83.5" font-family="Helvetica,sans-Serif" font-size="10.00">/VM/Value/Closure.cpp</text>
</a>
</g>
</g>
<!-- Node1&#45;&gt;Node12 -->
<g id="edge43_Node000001_Node000012" class="edge">
<title>Node1&#45;&gt;Node12</title>
<g id="a_edge43_Node000001_Node000012"><a xlink:title=" ">
<path fill="none" stroke="#63b8ff" d="M1324.66,-469.25C1332.87,-460.8 1341.43,-451.25 1348.5,-441.75 1384.85,-392.9 1369.89,-362.58 1415.5,-322.25 1447.16,-294.26 1473.44,-315.95 1503.5,-286.25 1551.56,-238.77 1571.97,-157.54 1579.17,-119.88"/>
<polygon fill="#63b8ff" stroke="#63b8ff" points="1322.29,-466.67 1317.71,-476.22 1327.25,-471.61 1322.29,-466.67"/>
</a>
</g>
</g>
<!-- Node18 -->
<g id="Node000018" class="node">
<title>Node18</title>
<g id="a_Node000018"><a xlink:href="../../d1/d84/BytecodeReader_8hpp.html" target="_top" xlink:title="A bytecode disassembler for ArkScript.">
<polygon fill="white" stroke="#666666" points="1494.38,-286.25 1324.62,-286.25 1324.62,-244.5 1494.38,-244.5 1494.38,-286.25"/>
<text text-anchor="start" x="1332.62" y="-272.75" font-family="Helvetica,sans-Serif" font-size="10.00">/Users/fola/Documents</text>
<text text-anchor="start" x="1332.62" y="-261.5" font-family="Helvetica,sans-Serif" font-size="10.00">/ArkScript/Ark/include</text>
<text text-anchor="middle" x="1409.5" y="-250.25" font-family="Helvetica,sans-Serif" font-size="10.00">/Ark/Compiler/BytecodeReader.hpp</text>
</a>
</g>
</g>
<!-- Node1&#45;&gt;Node18 -->
<g id="edge18_Node000001_Node000018" class="edge">
<title>Node1&#45;&gt;Node18</title>
<g id="a_edge18_Node000001_Node000018"><a xlink:title=" ">
<path fill="none" stroke="#63b8ff" d="M1311.07,-467.32C1315.5,-459.06 1320.24,-450.09 1324.5,-441.75 1328.36,-434.2 1378.31,-330.9 1399.79,-286.46"/>
<polygon fill="#63b8ff" stroke="#63b8ff" points="1308.07,-465.5 1306.39,-475.97 1314.23,-468.83 1308.07,-465.5"/>
</a>
</g>
</g>
<!-- Node20 -->
<g id="Node000020" class="node">
<title>Node20</title>
<g id="a_Node000020"><a xlink:href="../../db/d5e/TypeChecker_8hpp.html" target="_top" xlink:title=" ">
<polygon fill="white" stroke="#666666" points="917.12,-202.88 799.88,-202.88 799.88,-161.12 917.12,-161.12 917.12,-202.88"/>
<text text-anchor="start" x="807.88" y="-189.38" font-family="Helvetica,sans-Serif" font-size="10.00">/Users/fola/Documents</text>
<text text-anchor="start" x="807.88" y="-178.12" font-family="Helvetica,sans-Serif" font-size="10.00">/ArkScript/Ark/include</text>
<text text-anchor="middle" x="858.5" y="-166.88" font-family="Helvetica,sans-Serif" font-size="10.00">/Ark/TypeChecker.hpp</text>
</a>
</g>
</g>
<!-- Node1&#45;&gt;Node20 -->
<g id="edge22_Node000001_Node000020" class="edge">
<title>Node1&#45;&gt;Node20</title>
<g id="a_edge22_Node000001_Node000020"><a xlink:title=" ">
<path fill="none" stroke="#63b8ff" d="M1224.48,-487.77C1184.49,-479.82 1134.67,-465.84 1095.5,-441.75 990.17,-376.96 902.86,-252.22 871.22,-203.35"/>
<polygon fill="#63b8ff" stroke="#63b8ff" points="1223.79,-491.2 1234.27,-489.62 1225.09,-484.32 1223.79,-491.2"/>
</a>
</g>
</g>
<!-- Node22 -->
<g id="Node000022" class="node">
<title>Node22</title>
<g id="a_Node000022"><a xlink:href="../../db/df6/ExecutionContext_8hpp.html" target="_top" xlink:title="Keeping track of the internal data needed by the VM.">
<polygon fill="white" stroke="#666666" points="1292.38,-364 1140.62,-364 1140.62,-322.25 1292.38,-322.25 1292.38,-364"/>
<text text-anchor="start" x="1148.62" y="-350.5" font-family="Helvetica,sans-Serif" font-size="10.00">/Users/fola/Documents</text>
<text text-anchor="start" x="1148.62" y="-339.25" font-family="Helvetica,sans-Serif" font-size="10.00">/ArkScript/Ark/include</text>
<text text-anchor="middle" x="1216.5" y="-328" font-family="Helvetica,sans-Serif" font-size="10.00">/Ark/VM/ExecutionContext.hpp</text>
</a>
</g>
</g>
<!-- Node1&#45;&gt;Node22 -->
<g id="edge27_Node000001_Node000022" class="edge">
<title>Node1&#45;&gt;Node22</title>
<g id="a_edge27_Node000001_Node000022"><a xlink:title=" ">
<path fill="none" stroke="#63b8ff" d="M1279.18,-467.47C1263.65,-436.92 1240.07,-390.52 1226.7,-364.2"/>
<polygon fill="#63b8ff" stroke="#63b8ff" points="1275.97,-468.88 1283.62,-476.21 1282.21,-465.71 1275.97,-468.88"/>
</a>
</g>
</g>
<!-- Node23 -->
<g id="Node000023" class="node">
<title>Node23</title>
<g id="a_Node000023"><a xlink:href="../../d0/dda/Future_8hpp.html" target="_top" xlink:title=" ">
<polygon fill="white" stroke="#666666" points="1306.12,-286.25 1188.88,-286.25 1188.88,-244.5 1306.12,-244.5 1306.12,-286.25"/>
<text text-anchor="start" x="1196.88" y="-272.75" font-family="Helvetica,sans-Serif" font-size="10.00">/Users/fola/Documents</text>
<text text-anchor="start" x="1196.88" y="-261.5" font-family="Helvetica,sans-Serif" font-size="10.00">/ArkScript/Ark/include</text>
<text text-anchor="middle" x="1247.5" y="-250.25" font-family="Helvetica,sans-Serif" font-size="10.00">/Ark/VM/Future.hpp</text>
</a>
</g>
</g>
<!-- Node1&#45;&gt;Node23 -->
<g id="edge32_Node000001_Node000023" class="edge">
<title>Node1&#45;&gt;Node23</title>
<g id="a_edge32_Node000001_Node000023"><a xlink:title=" ">
<path fill="none" stroke="#63b8ff" d="M1303.17,-466.71C1311.64,-430.61 1320.72,-369.79 1301.5,-322.25 1295.94,-308.49 1285.19,-296.24 1274.73,-286.74"/>
<polygon fill="#63b8ff" stroke="#63b8ff" points="1299.87,-465.5 1300.84,-476.05 1306.66,-467.19 1299.87,-465.5"/>
</a>
</g>
</g>
<!-- Node24 -->
<g id="Node000024" class="node">
<title>Node24</title>
<g id="a_Node000024"><a xlink:href="../../d8/dcd/Scope_8hpp.html" target="_top" xlink:title="The virtual machine scope system.">
<polygon fill="white" stroke="#666666" points="1542.12,-441.75 1424.88,-441.75 1424.88,-400 1542.12,-400 1542.12,-441.75"/>
<text text-anchor="start" x="1432.88" y="-428.25" font-family="Helvetica,sans-Serif" font-size="10.00">/Users/fola/Documents</text>
<text text-anchor="start" x="1432.88" y="-417" font-family="Helvetica,sans-Serif" font-size="10.00">/ArkScript/Ark/include</text>
<text text-anchor="middle" x="1483.5" y="-405.75" font-family="Helvetica,sans-Serif" font-size="10.00">/Ark/VM/Scope.hpp</text>
</a>
</g>
</g>
<!-- Node1&#45;&gt;Node24 -->
<g id="edge33_Node000001_Node000024" class="edge">
<title>Node1&#45;&gt;Node24</title>
<g id="a_edge33_Node000001_Node000024"><a xlink:title=" ">
<path fill="none" stroke="#63b8ff" d="M1355.58,-473.14C1380.5,-463.16 1408.97,-451.75 1432.71,-442.23"/>
<polygon fill="#63b8ff" stroke="#63b8ff" points="1354.53,-469.79 1346.55,-476.76 1357.14,-476.29 1354.53,-469.79"/>
</a>
</g>
</g>
<!-- Node26 -->
<g id="Node000026" class="node">
<title>Node26</title>
<g id="a_Node000026"><a xlink:href="../../d0/db5/State_8hpp.html" target="_top" xlink:title="State used by the virtual machine: it loads the bytecode, can compile it if needed,...">
<polygon fill="white" stroke="#666666" points="1171.12,-286.25 1053.88,-286.25 1053.88,-244.5 1171.12,-244.5 1171.12,-286.25"/>
<text text-anchor="start" x="1061.88" y="-272.75" font-family="Helvetica,sans-Serif" font-size="10.00">/Users/fola/Documents</text>
<text text-anchor="start" x="1061.88" y="-261.5" font-family="Helvetica,sans-Serif" font-size="10.00">/ArkScript/Ark/include</text>
<text text-anchor="middle" x="1112.5" y="-250.25" font-family="Helvetica,sans-Serif" font-size="10.00">/Ark/VM/State.hpp</text>
</a>
</g>
</g>
<!-- Node1&#45;&gt;Node26 -->
<g id="edge37_Node000001_Node000026" class="edge">
<title>Node1&#45;&gt;Node26</title>
<g id="a_edge37_Node000001_Node000026"><a xlink:title=" ">
<path fill="none" stroke="#63b8ff" d="M1247.3,-471.51C1209.88,-448.26 1159.39,-410.73 1131.5,-364 1117.16,-339.98 1113.36,-307.27 1112.5,-286.48"/>
<polygon fill="#63b8ff" stroke="#63b8ff" points="1245.34,-474.41 1255.71,-476.61 1248.97,-468.43 1245.34,-474.41"/>
</a>
</g>
</g>
<!-- Node27 -->
<g id="Node000027" class="node">
<title>Node27</title>
<g id="a_Node000027"><a xlink:href="../../d1/d74/Value_8cpp.html" target="_top" xlink:title=" ">
<polygon fill="white" stroke="#666666" points="1700.75,-441.75 1560.25,-441.75 1560.25,-400 1700.75,-400 1700.75,-441.75"/>
<text text-anchor="start" x="1568.25" y="-428.25" font-family="Helvetica,sans-Serif" font-size="10.00">/Users/fola/Documents</text>
<text text-anchor="start" x="1568.25" y="-417" font-family="Helvetica,sans-Serif" font-size="10.00">/ArkScript/Ark/src/arkreactor</text>
<text text-anchor="middle" x="1630.5" y="-405.75" font-family="Helvetica,sans-Serif" font-size="10.00">/VM/Value.cpp</text>
</a>
</g>
</g>
<!-- Node1&#45;&gt;Node27 -->
<g id="edge42_Node000001_Node000027" class="edge">
<title>Node1&#45;&gt;Node27</title>
<g id="a_edge42_Node000001_Node000027"><a xlink:title=" ">
<path fill="none" stroke="#63b8ff" d="M1364.62,-483.02C1416.37,-472.09 1488.44,-456.53 1551.5,-441.75 1554.25,-441.1 1557.06,-440.44 1559.89,-439.76"/>
<polygon fill="#63b8ff" stroke="#63b8ff" points="1364.11,-479.55 1355.05,-485.04 1365.56,-486.4 1364.11,-479.55"/>
</a>
</g>
</g>
<!-- Node2&#45;&gt;Node3 -->
<g id="edge2_Node000002_Node000003" class="edge">
<title>Node2&#45;&gt;Node3</title>
<g id="a_edge2_Node000002_Node000003"><a xlink:title=" ">
<path fill="none" stroke="#63b8ff" d="M688.44,-255.18C752.02,-246.24 846.34,-230.75 926.5,-208.5 931.9,-207 937.47,-205.24 942.98,-203.36"/>
<polygon fill="#63b8ff" stroke="#63b8ff" points="688.26,-251.67 678.83,-256.51 689.22,-258.61 688.26,-251.67"/>
</a>
</g>
</g>
<!-- Node8 -->
<g id="Node000008" class="node">
<title>Node8</title>
<g id="a_Node000008"><a xlink:href="../../d7/d46/Repl_8cpp.html" target="_top" xlink:title=" ">
<polygon fill="white" stroke="#666666" points="1208.75,-41.75 1074.25,-41.75 1074.25,0 1208.75,0 1208.75,-41.75"/>
<text text-anchor="start" x="1082.25" y="-28.25" font-family="Helvetica,sans-Serif" font-size="10.00">/Users/fola/Documents</text>
<text text-anchor="start" x="1082.25" y="-17" font-family="Helvetica,sans-Serif" font-size="10.00">/ArkScript/Ark/src/arkscript</text>
<text text-anchor="middle" x="1141.5" y="-5.75" font-family="Helvetica,sans-Serif" font-size="10.00">/REPL/Repl.cpp</text>
</a>
</g>
</g>
<!-- Node2&#45;&gt;Node8 -->
<g id="edge17_Node000002_Node000008" class="edge">
<title>Node2&#45;&gt;Node8</title>
<g id="a_edge17_Node000002_Node000008"><a xlink:title=" ">
<path fill="none" stroke="#63b8ff" d="M542.08,-264.71C441.36,-263.43 268.24,-254.39 228.5,-208.5 213.08,-190.69 214.46,-174.41 228.5,-155.5 333.32,-14.27 908.54,-66.49 1064.5,-41.75 1067.64,-41.25 1070.83,-40.68 1074.05,-40.06"/>
<polygon fill="#63b8ff" stroke="#63b8ff" points="541.84,-268.21 551.88,-264.81 541.91,-261.21 541.84,-268.21"/>
</a>
</g>
</g>
<!-- Node13 -->
<g id="Node000013" class="node">
<title>Node13</title>
<g id="a_Node000013"><a xlink:href="../../d5/d36/BytecodeReader_8cpp.html" target="_top" xlink:title=" ">
<polygon fill="white" stroke="#666666" points="1222.38,-202.88 1070.62,-202.88 1070.62,-161.12 1222.38,-161.12 1222.38,-202.88"/>
<text text-anchor="start" x="1078.62" y="-189.38" font-family="Helvetica,sans-Serif" font-size="10.00">/Users/fola/Documents</text>
<text text-anchor="start" x="1078.62" y="-178.12" font-family="Helvetica,sans-Serif" font-size="10.00">/ArkScript/Ark/src/arkreactor</text>
<text text-anchor="middle" x="1146.5" y="-166.88" font-family="Helvetica,sans-Serif" font-size="10.00">/Compiler/BytecodeReader.cpp</text>
</a>
</g>
</g>
<!-- Node2&#45;&gt;Node13 -->
<g id="edge12_Node000002_Node000013" class="edge">
<title>Node2&#45;&gt;Node13</title>
<g id="a_edge12_Node000002_Node000013"><a xlink:title=" ">
<path fill="none" stroke="#63b8ff" d="M688.66,-258.98C777.53,-251.56 931.66,-235.91 1061.5,-208.5 1068.43,-207.04 1075.62,-205.28 1082.75,-203.37"/>
<polygon fill="#63b8ff" stroke="#63b8ff" points="688.55,-255.47 678.87,-259.78 689.12,-262.45 688.55,-255.47"/>
</a>
</g>
</g>
<!-- Node14 -->
<g id="Node000014" class="node">
<title>Node14</title>
<g id="a_Node000014"><a xlink:href="../../de/dfa/Compiler_8cpp.html" target="_top" xlink:title=" ">
<polygon fill="white" stroke="#666666" points="781.75,-202.88 641.25,-202.88 641.25,-161.12 781.75,-161.12 781.75,-202.88"/>
<text text-anchor="start" x="649.25" y="-189.38" font-family="Helvetica,sans-Serif" font-size="10.00">/Users/fola/Documents</text>
<text text-anchor="start" x="649.25" y="-178.12" font-family="Helvetica,sans-Serif" font-size="10.00">/ArkScript/Ark/src/arkreactor</text>
<text text-anchor="middle" x="711.5" y="-166.88" font-family="Helvetica,sans-Serif" font-size="10.00">/Compiler/Compiler.cpp</text>
</a>
</g>
</g>
<!-- Node2&#45;&gt;Node14 -->
<g id="edge13_Node000002_Node000014" class="edge">
<title>Node2&#45;&gt;Node14</title>
<g id="a_edge13_Node000002_Node000014"><a xlink:title=" ">
<path fill="none" stroke="#63b8ff" d="M647.92,-236.89C660.95,-225.85 675.7,-213.35 687.71,-203.17"/>
<polygon fill="#63b8ff" stroke="#63b8ff" points="645.75,-234.15 640.38,-243.28 650.28,-239.48 645.75,-234.15"/>
</a>
</g>
</g>
<!-- Node15 -->
<g id="Node000015" class="node">
<title>Node15</title>
<g id="a_Node000015"><a xlink:href="../../d0/da9/IROptimizer_8cpp.html" target="_top" xlink:title=" ">
<polygon fill="white" stroke="#666666" points="181,-208.5 0,-208.5 0,-155.5 181,-155.5 181,-208.5"/>
<text text-anchor="start" x="8" y="-195" font-family="Helvetica,sans-Serif" font-size="10.00">/Users/fola/Documents</text>
<text text-anchor="start" x="8" y="-183.75" font-family="Helvetica,sans-Serif" font-size="10.00">/ArkScript/Ark/src/arkreactor</text>
<text text-anchor="start" x="8" y="-172.5" font-family="Helvetica,sans-Serif" font-size="10.00">/Compiler/IntermediateRepresentation</text>
<text text-anchor="middle" x="90.5" y="-161.25" font-family="Helvetica,sans-Serif" font-size="10.00">/IROptimizer.cpp</text>
</a>
</g>
</g>
<!-- Node2&#45;&gt;Node15 -->
<g id="edge14_Node000002_Node000015" class="edge">
<title>Node2&#45;&gt;Node15</title>
<g id="a_edge14_Node000002_Node000015"><a xlink:title=" ">
<path fill="none" stroke="#63b8ff" d="M542.39,-257.03C458.31,-248.02 316.29,-231.14 195.5,-208.5 190.89,-207.64 186.18,-206.7 181.43,-205.71"/>
<polygon fill="#63b8ff" stroke="#63b8ff" points="541.8,-260.48 552.11,-258.06 542.53,-253.52 541.8,-260.48"/>
</a>
</g>
</g>
<!-- Node16 -->
<g id="Node000016" class="node">
<title>Node16</title>
<g id="a_Node000016"><a xlink:href="../../d6/d69/Processor_8cpp.html" target="_top" xlink:title=" ">
<polygon fill="white" stroke="#666666" points="395.75,-202.88 237.25,-202.88 237.25,-161.12 395.75,-161.12 395.75,-202.88"/>
<text text-anchor="start" x="245.25" y="-189.38" font-family="Helvetica,sans-Serif" font-size="10.00">/Users/fola/Documents</text>
<text text-anchor="start" x="245.25" y="-178.12" font-family="Helvetica,sans-Serif" font-size="10.00">/ArkScript/Ark/src/arkreactor</text>
<text text-anchor="middle" x="316.5" y="-166.88" font-family="Helvetica,sans-Serif" font-size="10.00">/Compiler/Macros/Processor.cpp</text>
</a>
</g>
</g>
<!-- Node2&#45;&gt;Node16 -->
<g id="edge15_Node000002_Node000016" class="edge">
<title>Node2&#45;&gt;Node16</title>
<g id="a_edge15_Node000002_Node000016"><a xlink:title=" ">
<path fill="none" stroke="#63b8ff" d="M542.63,-245.52C501.93,-234.88 450.33,-221.21 404.5,-208.5 398.52,-206.84 392.32,-205.1 386.11,-203.33"/>
<polygon fill="#63b8ff" stroke="#63b8ff" points="541.51,-248.85 552.07,-247.99 543.28,-242.08 541.51,-248.85"/>
</a>
</g>
</g>
<!-- Node17 -->
<g id="Node000017" class="node">
<title>Node17</title>
<g id="a_Node000017"><a xlink:href="../../de/dd7/NameResolutionPass_8cpp.html" target="_top" xlink:title=" ">
<polygon fill="white" stroke="#666666" points="623.25,-208.5 413.75,-208.5 413.75,-155.5 623.25,-155.5 623.25,-208.5"/>
<text text-anchor="start" x="421.75" y="-195" font-family="Helvetica,sans-Serif" font-size="10.00">/Users/fola/Documents</text>
<text text-anchor="start" x="421.75" y="-183.75" font-family="Helvetica,sans-Serif" font-size="10.00">/ArkScript/Ark/src/arkreactor</text>
<text text-anchor="start" x="421.75" y="-172.5" font-family="Helvetica,sans-Serif" font-size="10.00">/Compiler/NameResolution/NameResolution</text>
<text text-anchor="middle" x="518.5" y="-161.25" font-family="Helvetica,sans-Serif" font-size="10.00">Pass.cpp</text>
</a>
</g>
</g>
<!-- Node2&#45;&gt;Node17 -->
<g id="edge16_Node000002_Node000017" class="edge">
<title>Node2&#45;&gt;Node17</title>
<g id="a_edge16_Node000002_Node000017"><a xlink:title=" ">
<path fill="none" stroke="#63b8ff" d="M582.74,-236.89C571.89,-227.79 559.86,-217.7 549.17,-208.73"/>
<polygon fill="#63b8ff" stroke="#63b8ff" points="580.45,-239.54 590.36,-243.29 584.95,-234.18 580.45,-239.54"/>
</a>
</g>
</g>
<!-- Node4 -->
<g id="Node000004" class="node">
<title>Node4</title>
<g id="a_Node000004"><a xlink:href="../../d3/d7e/Ark_8hpp.html" target="_top" xlink:title="Includes the needed files to start using ArkScript.">
<polygon fill="white" stroke="#666666" points="1064.12,-119.5 946.88,-119.5 946.88,-77.75 1064.12,-77.75 1064.12,-119.5"/>
<text text-anchor="start" x="954.88" y="-106" font-family="Helvetica,sans-Serif" font-size="10.00">/Users/fola/Documents</text>
<text text-anchor="start" x="954.88" y="-94.75" font-family="Helvetica,sans-Serif" font-size="10.00">/ArkScript/Ark/include</text>
<text text-anchor="middle" x="1005.5" y="-83.5" font-family="Helvetica,sans-Serif" font-size="10.00">/Ark/Ark.hpp</text>
</a>
</g>
</g>
<!-- Node3&#45;&gt;Node4 -->
<g id="edge3_Node000003_Node000004" class="edge">
<title>Node3&#45;&gt;Node4</title>
<g id="a_edge3_Node000003_Node000004"><a xlink:title=" ">
<path fill="none" stroke="#63b8ff" d="M998.12,-149.64C999.6,-139.62 1001.2,-128.8 1002.53,-119.79"/>
<polygon fill="#63b8ff" stroke="#63b8ff" points="994.68,-148.98 996.69,-159.39 1001.61,-150.01 994.68,-148.98"/>
</a>
</g>
</g>
<!-- Node6 -->
<g id="Node000006" class="node">
<title>Node6</title>
<g id="a_Node000006"><a xlink:href="../../d5/d44/Module_8hpp.html" target="_top" xlink:title=" ">
<polygon fill="white" stroke="#666666" points="770.12,-119.5 652.88,-119.5 652.88,-77.75 770.12,-77.75 770.12,-119.5"/>
<text text-anchor="start" x="660.88" y="-106" font-family="Helvetica,sans-Serif" font-size="10.00">/Users/fola/Documents</text>
<text text-anchor="start" x="660.88" y="-94.75" font-family="Helvetica,sans-Serif" font-size="10.00">/ArkScript/Ark/include</text>
<text text-anchor="middle" x="711.5" y="-83.5" font-family="Helvetica,sans-Serif" font-size="10.00">/Ark/Module.hpp</text>
</a>
</g>
</g>
<!-- Node3&#45;&gt;Node6 -->
<g id="edge5_Node000003_Node000006" class="edge">
<title>Node3&#45;&gt;Node6</title>
<g id="a_edge5_Node000003_Node000006"><a xlink:title=" ">
<path fill="none" stroke="#63b8ff" d="M931.34,-157.04C929.71,-156.51 928.1,-156 926.5,-155.5 862.28,-135.5 844.46,-136.94 779.5,-119.5 776.53,-118.7 773.49,-117.87 770.43,-117.02"/>
<polygon fill="#63b8ff" stroke="#63b8ff" points="930.12,-160.33 940.71,-160.23 932.38,-153.7 930.12,-160.33"/>
</a>
</g>
</g>
<!-- Node7 -->
<g id="Node000007" class="node">
<title>Node7</title>
<g id="a_Node000007"><a xlink:href="../../d5/da5/Repl_8hpp.html" target="_top" xlink:title="ArkScript REPL &#45; Read Eval Print Loop.">
<polygon fill="white" stroke="#666666" points="1200.12,-119.5 1082.88,-119.5 1082.88,-77.75 1200.12,-77.75 1200.12,-119.5"/>
<text text-anchor="start" x="1090.88" y="-106" font-family="Helvetica,sans-Serif" font-size="10.00">/Users/fola/Documents</text>
<text text-anchor="start" x="1090.88" y="-94.75" font-family="Helvetica,sans-Serif" font-size="10.00">/ArkScript/Ark/include</text>
<text text-anchor="middle" x="1141.5" y="-83.5" font-family="Helvetica,sans-Serif" font-size="10.00">/CLI/REPL/Repl.hpp</text>
</a>
</g>
</g>
<!-- Node3&#45;&gt;Node7 -->
<g id="edge6_Node000003_Node000007" class="edge">
<title>Node3&#45;&gt;Node7</title>
<g id="a_edge6_Node000003_Node000007"><a xlink:title=" ">
<path fill="none" stroke="#63b8ff" d="M1040.33,-155.25C1061.05,-143.86 1085.06,-130.66 1104.49,-119.97"/>
<polygon fill="#63b8ff" stroke="#63b8ff" points="1038.87,-152.06 1031.79,-159.95 1042.24,-158.2 1038.87,-152.06"/>
</a>
</g>
</g>
<!-- Node10 -->
<g id="Node000010" class="node">
<title>Node10</title>
<g id="a_Node000010"><a xlink:href="../../d4/dc9/Future_8cpp.html" target="_top" xlink:title=" ">
<polygon fill="white" stroke="#666666" points="1358.75,-119.5 1218.25,-119.5 1218.25,-77.75 1358.75,-77.75 1358.75,-119.5"/>
<text text-anchor="start" x="1226.25" y="-106" font-family="Helvetica,sans-Serif" font-size="10.00">/Users/fola/Documents</text>
<text text-anchor="start" x="1226.25" y="-94.75" font-family="Helvetica,sans-Serif" font-size="10.00">/ArkScript/Ark/src/arkreactor</text>
<text text-anchor="middle" x="1288.5" y="-83.5" font-family="Helvetica,sans-Serif" font-size="10.00">/VM/Future.cpp</text>
</a>
</g>
</g>
<!-- Node3&#45;&gt;Node10 -->
<g id="edge9_Node000003_Node000010" class="edge">
<title>Node3&#45;&gt;Node10</title>
<g id="a_edge9_Node000003_Node000010"><a xlink:title=" ">
<path fill="none" stroke="#63b8ff" d="M1056.1,-157.21C1057.92,-156.62 1059.72,-156.05 1061.5,-155.5 1126.2,-135.58 1143.79,-135.76 1209.5,-119.5 1212.25,-118.82 1215.04,-118.13 1217.87,-117.42"/>
<polygon fill="#63b8ff" stroke="#63b8ff" points="1055.42,-153.74 1047.06,-160.25 1057.66,-160.38 1055.42,-153.74"/>
</a>
</g>
</g>
<!-- Node11 -->
<g id="Node000011" class="node">
<title>Node11</title>
<g id="a_Node000011"><a xlink:href="../../d2/d27/VM_8cpp.html" target="_top" xlink:title=" ">
<polygon fill="white" stroke="#666666" points="928.75,-119.5 788.25,-119.5 788.25,-77.75 928.75,-77.75 928.75,-119.5"/>
<text text-anchor="start" x="796.25" y="-106" font-family="Helvetica,sans-Serif" font-size="10.00">/Users/fola/Documents</text>
<text text-anchor="start" x="796.25" y="-94.75" font-family="Helvetica,sans-Serif" font-size="10.00">/ArkScript/Ark/src/arkreactor</text>
<text text-anchor="middle" x="858.5" y="-83.5" font-family="Helvetica,sans-Serif" font-size="10.00">/VM/VM.cpp</text>
</a>
</g>
</g>
<!-- Node3&#45;&gt;Node11 -->
<g id="edge10_Node000003_Node000011" class="edge">
<title>Node3&#45;&gt;Node11</title>
<g id="a_edge10_Node000003_Node000011"><a xlink:title=" ">
<path fill="none" stroke="#63b8ff" d="M950,-154.78C931.29,-143.5 909.74,-130.51 892.26,-119.97"/>
<polygon fill="#63b8ff" stroke="#63b8ff" points="948.11,-157.73 958.49,-159.89 951.73,-151.73 948.11,-157.73"/>
</a>
</g>
</g>
<!-- Node3&#45;&gt;Node12 -->
<g id="edge11_Node000003_Node000012" class="edge">
<title>Node3&#45;&gt;Node12</title>
<g id="a_edge11_Node000003_Node000012"><a xlink:title=" ">
<path fill="none" stroke="#63b8ff" d="M1054.1,-157.42C1056.58,-156.72 1059.06,-156.08 1061.5,-155.5 1104.29,-145.35 1379.71,-118.65 1511.9,-106.2"/>
<polygon fill="#63b8ff" stroke="#63b8ff" points="1053.18,-154.04 1044.64,-160.3 1055.22,-160.73 1053.18,-154.04"/>
</a>
</g>
</g>
<!-- Node5 -->
<g id="Node000005" class="node">
<title>Node5</title>
<g id="a_Node000005"><a xlink:href="../../dc/d32/Ark_8cpp.html" target="_top" xlink:title=" ">
<polygon fill="white" stroke="#666666" points="1055.75,-41.75 915.25,-41.75 915.25,0 1055.75,0 1055.75,-41.75"/>
<text text-anchor="start" x="923.25" y="-28.25" font-family="Helvetica,sans-Serif" font-size="10.00">/Users/fola/Documents</text>
<text text-anchor="start" x="923.25" y="-17" font-family="Helvetica,sans-Serif" font-size="10.00">/ArkScript/Ark/src/arkreactor</text>
<text text-anchor="middle" x="985.5" y="-5.75" font-family="Helvetica,sans-Serif" font-size="10.00">/Ark.cpp</text>
</a>
</g>
</g>
<!-- Node4&#45;&gt;Node5 -->
<g id="edge4_Node000004_Node000005" class="edge">
<title>Node4&#45;&gt;Node5</title>
<g id="a_edge4_Node000004_Node000005"><a xlink:title=" ">
<path fill="none" stroke="#63b8ff" d="M997.22,-66.28C995.08,-58.16 992.83,-49.62 990.87,-42.23"/>
<polygon fill="#63b8ff" stroke="#63b8ff" points="993.82,-67.09 999.75,-75.86 1000.59,-65.3 993.82,-67.09"/>
</a>
</g>
</g>
<!-- Node7&#45;&gt;Node8 -->
<g id="edge7_Node000007_Node000008" class="edge">
<title>Node7&#45;&gt;Node8</title>
<g id="a_edge7_Node000007_Node000008"><a xlink:title=" ">
<path fill="none" stroke="#63b8ff" d="M1141.5,-66C1141.5,-57.96 1141.5,-49.54 1141.5,-42.23"/>
<polygon fill="#63b8ff" stroke="#63b8ff" points="1138,-65.81 1141.5,-75.81 1145,-65.81 1138,-65.81"/>
</a>
</g>
</g>
<!-- Node9 -->
<g id="Node000009" class="node">
<title>Node9</title>
<g id="a_Node000009"><a xlink:href="../../df/d0a/main_8cpp.html" target="_top" xlink:title=" ">
<polygon fill="white" stroke="#666666" points="1456.75,-41.75 1322.25,-41.75 1322.25,0 1456.75,0 1456.75,-41.75"/>
<text text-anchor="start" x="1330.25" y="-28.25" font-family="Helvetica,sans-Serif" font-size="10.00">/Users/fola/Documents</text>
<text text-anchor="start" x="1330.25" y="-17" font-family="Helvetica,sans-Serif" font-size="10.00">/ArkScript/Ark/src/arkscript</text>
<text text-anchor="middle" x="1389.5" y="-5.75" font-family="Helvetica,sans-Serif" font-size="10.00">/main.cpp</text>
</a>
</g>
</g>
<!-- Node7&#45;&gt;Node9 -->
<g id="edge8_Node000007_Node000009" class="edge">
<title>Node7&#45;&gt;Node9</title>
<g id="a_edge8_Node000007_Node000009"><a xlink:title=" ">
<path fill="none" stroke="#63b8ff" d="M1211.21,-76.33C1246.22,-65.64 1288.44,-52.74 1323,-42.19"/>
<polygon fill="#63b8ff" stroke="#63b8ff" points="1210.58,-72.87 1202.03,-79.14 1212.62,-79.56 1210.58,-72.87"/>
</a>
</g>
</g>
<!-- Node18&#45;&gt;Node9 -->
<g id="edge21_Node000018_Node000009" class="edge">
<title>Node18&#45;&gt;Node9</title>
<g id="a_edge21_Node000018_Node000009"><a xlink:title=" ">
<path fill="none" stroke="#63b8ff" d="M1446.07,-236.34C1453.95,-228.29 1461.2,-218.86 1465.5,-208.5 1474.53,-186.74 1471.52,-178.27 1465.5,-155.5 1453.9,-111.64 1424.19,-67.1 1405.54,-42.13"/>
<polygon fill="#63b8ff" stroke="#63b8ff" points="1443.7,-233.76 1438.82,-243.16 1448.5,-238.85 1443.7,-233.76"/>
</a>
</g>
</g>
<!-- Node18&#45;&gt;Node13 -->
<g id="edge19_Node000018_Node000013" class="edge">
<title>Node18&#45;&gt;Node13</title>
<g id="a_edge19_Node000018_Node000013"><a xlink:title=" ">
<path fill="none" stroke="#63b8ff" d="M1333.23,-240.78C1294.93,-228.92 1248.99,-214.71 1212.26,-203.35"/>
<polygon fill="#63b8ff" stroke="#63b8ff" points="1331.78,-243.99 1342.37,-243.6 1333.85,-237.3 1331.78,-243.99"/>
</a>
</g>
</g>
<!-- Node19 -->
<g id="Node000019" class="node">
<title>Node19</title>
<g id="a_Node000019"><a xlink:href="../../d0/da0/State_8cpp.html" target="_top" xlink:title=" ">
<polygon fill="white" stroke="#666666" points="1456.75,-202.88 1316.25,-202.88 1316.25,-161.12 1456.75,-161.12 1456.75,-202.88"/>
<text text-anchor="start" x="1324.25" y="-189.38" font-family="Helvetica,sans-Serif" font-size="10.00">/Users/fola/Documents</text>
<text text-anchor="start" x="1324.25" y="-178.12" font-family="Helvetica,sans-Serif" font-size="10.00">/ArkScript/Ark/src/arkreactor</text>
<text text-anchor="middle" x="1386.5" y="-166.88" font-family="Helvetica,sans-Serif" font-size="10.00">/VM/State.cpp</text>
</a>
</g>
</g>
<!-- Node18&#45;&gt;Node19 -->
<g id="edge20_Node000018_Node000019" class="edge">
<title>Node18&#45;&gt;Node19</title>
<g id="a_edge20_Node000018_Node000019"><a xlink:title=" ">
<path fill="none" stroke="#63b8ff" d="M1400.73,-233.34C1397.87,-223.23 1394.77,-212.27 1392.2,-203.17"/>
<polygon fill="#63b8ff" stroke="#63b8ff" points="1397.31,-234.13 1403.4,-242.8 1404.05,-232.23 1397.31,-234.13"/>
</a>
</g>
</g>
<!-- Node20&#45;&gt;Node4 -->
<g id="edge23_Node000020_Node000004" class="edge">
<title>Node20&#45;&gt;Node4</title>
<g id="a_edge23_Node000020_Node000004"><a xlink:title=" ">
<path fill="none" stroke="#63b8ff" d="M905.02,-155.25C925.59,-143.86 949.44,-130.66 968.74,-119.97"/>
<polygon fill="#63b8ff" stroke="#63b8ff" points="903.59,-152.04 896.54,-159.94 906.98,-158.16 903.59,-152.04"/>
</a>
</g>
</g>
<!-- Node20&#45;&gt;Node6 -->
<g id="edge24_Node000020_Node000006" class="edge">
<title>Node20&#45;&gt;Node6</title>
<g id="a_edge24_Node000020_Node000006"><a xlink:title=" ">
<path fill="none" stroke="#63b8ff" d="M811.98,-155.25C791.41,-143.86 767.56,-130.66 748.26,-119.97"/>
<polygon fill="#63b8ff" stroke="#63b8ff" points="810.02,-158.16 820.46,-159.94 813.41,-152.04 810.02,-158.16"/>
</a>
</g>
</g>
<!-- Node20&#45;&gt;Node11 -->
<g id="edge26_Node000020_Node000011" class="edge">
<title>Node20&#45;&gt;Node11</title>
<g id="a_edge26_Node000020_Node000011"><a xlink:title=" ">
<path fill="none" stroke="#63b8ff" d="M858.5,-149.64C858.5,-139.62 858.5,-128.8 858.5,-119.79"/>
<polygon fill="#63b8ff" stroke="#63b8ff" points="855,-149.37 858.5,-159.37 862,-149.37 855,-149.37"/>
</a>
</g>
</g>
<!-- Node21 -->
<g id="Node000021" class="node">
<title>Node21</title>
<g id="a_Node000021"><a xlink:href="../../d6/d9a/TypeChecker_8cpp.html" target="_top" xlink:title=" ">
<polygon fill="white" stroke="#666666" points="634.75,-119.5 494.25,-119.5 494.25,-77.75 634.75,-77.75 634.75,-119.5"/>
<text text-anchor="start" x="502.25" y="-106" font-family="Helvetica,sans-Serif" font-size="10.00">/Users/fola/Documents</text>
<text text-anchor="start" x="502.25" y="-94.75" font-family="Helvetica,sans-Serif" font-size="10.00">/ArkScript/Ark/src/arkreactor</text>
<text text-anchor="middle" x="564.5" y="-83.5" font-family="Helvetica,sans-Serif" font-size="10.00">/TypeChecker.cpp</text>
</a>
</g>
</g>
<!-- Node20&#45;&gt;Node21 -->
<g id="edge25_Node000020_Node000021" class="edge">
<title>Node20&#45;&gt;Node21</title>
<g id="a_edge25_Node000020_Node000021"><a xlink:title=" ">
<path fill="none" stroke="#63b8ff" d="M795.9,-157.21C794.08,-156.62 792.28,-156.05 790.5,-155.5 726.23,-135.66 708.78,-135.71 643.5,-119.5 640.75,-118.82 637.96,-118.12 635.13,-117.42"/>
<polygon fill="#63b8ff" stroke="#63b8ff" points="794.34,-160.38 804.94,-160.26 796.58,-153.75 794.34,-160.38"/>
</a>
</g>
</g>
<!-- Node22&#45;&gt;Node3 -->
<g id="edge31_Node000022_Node000003" class="edge">
<title>Node22&#45;&gt;Node3</title>
<g id="a_edge31_Node000022_Node000003"><a xlink:title=" ">
<path fill="none" stroke="#63b8ff" d="M1129.36,-328.09C1099.81,-319.86 1068.29,-306.83 1044.5,-286.25 1018.94,-264.15 1004.9,-226.23 998.31,-203.01"/>
<polygon fill="#63b8ff" stroke="#63b8ff" points="1128.11,-331.39 1138.67,-330.53 1129.89,-324.62 1128.11,-331.39"/>
</a>
</g>
</g>
<!-- Node22&#45;&gt;Node23 -->
<g id="edge28_Node000022_Node000023" class="edge">
<title>Node22&#45;&gt;Node23</title>
<g id="a_edge28_Node000022_Node000023"><a xlink:title=" ">
<path fill="none" stroke="#63b8ff" d="M1229.1,-311.34C1232.49,-303.05 1236.07,-294.29 1239.17,-286.73"/>
<polygon fill="#63b8ff" stroke="#63b8ff" points="1225.93,-309.84 1225.38,-320.42 1232.41,-312.5 1225.93,-309.84"/>
</a>
</g>
</g>
<!-- Node23&#45;&gt;Node3 -->
<g id="edge29_Node000023_Node000003" class="edge">
<title>Node23&#45;&gt;Node3</title>
<g id="a_edge29_Node000023_Node000003"><a xlink:title=" ">
<path fill="none" stroke="#63b8ff" d="M1177.78,-243.68C1129.89,-229.42 1072.95,-212.36 1061.5,-208.5 1056.6,-206.85 1051.53,-205.07 1046.46,-203.25"/>
<polygon fill="#63b8ff" stroke="#63b8ff" points="1176.75,-247.02 1187.34,-246.52 1178.75,-240.31 1176.75,-247.02"/>
</a>
</g>
</g>
<!-- Node23&#45;&gt;Node10 -->
<g id="edge30_Node000023_Node000010" class="edge">
<title>Node23&#45;&gt;Node10</title>
<g id="a_edge30_Node000023_Node000010"><a xlink:title=" ">
<path fill="none" stroke="#63b8ff" d="M1255.24,-233.26C1263.51,-200.04 1276.37,-148.37 1283.43,-119.99"/>
<polygon fill="#63b8ff" stroke="#63b8ff" points="1251.91,-232.16 1252.89,-242.7 1258.7,-233.85 1251.91,-232.16"/>
</a>
</g>
</g>
<!-- Node24&#45;&gt;Node12 -->
<g id="edge36_Node000024_Node000012" class="edge">
<title>Node24&#45;&gt;Node12</title>
<g id="a_edge36_Node000024_Node000012"><a xlink:title=" ">
<path fill="none" stroke="#63b8ff" d="M1544.15,-393.71C1555.79,-385.87 1566.52,-376.06 1573.5,-364 1619.74,-284.1 1598.92,-166.69 1587.83,-119.93"/>
<polygon fill="#63b8ff" stroke="#63b8ff" points="1542.61,-390.55 1535.95,-398.79 1546.29,-396.5 1542.61,-390.55"/>
</a>
</g>
</g>
<!-- Node24&#45;&gt;Node22 -->
<g id="edge34_Node000024_Node000022" class="edge">
<title>Node24&#45;&gt;Node22</title>
<g id="a_edge34_Node000024_Node000022"><a xlink:title=" ">
<path fill="none" stroke="#63b8ff" d="M1413.92,-400.14C1375.22,-389.15 1327.13,-375.51 1288.1,-364.44"/>
<polygon fill="#63b8ff" stroke="#63b8ff" points="1412.54,-403.38 1423.12,-402.74 1414.45,-396.65 1412.54,-403.38"/>
</a>
</g>
</g>
<!-- Node25 -->
<g id="Node000025" class="node">
<title>Node25</title>
<g id="a_Node000025"><a xlink:href="../../d5/d04/Scope_8cpp.html" target="_top" xlink:title=" ">
<polygon fill="white" stroke="#666666" points="1564.75,-364 1424.25,-364 1424.25,-322.25 1564.75,-322.25 1564.75,-364"/>
<text text-anchor="start" x="1432.25" y="-350.5" font-family="Helvetica,sans-Serif" font-size="10.00">/Users/fola/Documents</text>
<text text-anchor="start" x="1432.25" y="-339.25" font-family="Helvetica,sans-Serif" font-size="10.00">/ArkScript/Ark/src/arkreactor</text>
<text text-anchor="middle" x="1494.5" y="-328" font-family="Helvetica,sans-Serif" font-size="10.00">/VM/Scope.cpp</text>
</a>
</g>
</g>
<!-- Node24&#45;&gt;Node25 -->
<g id="edge35_Node000024_Node000025" class="edge">
<title>Node24&#45;&gt;Node25</title>
<g id="a_edge35_Node000024_Node000025"><a xlink:title=" ">
<path fill="none" stroke="#63b8ff" d="M1488.09,-388.25C1489.26,-380.21 1490.48,-371.79 1491.54,-364.48"/>
<polygon fill="#63b8ff" stroke="#63b8ff" points="1484.64,-387.68 1486.67,-398.08 1491.57,-388.68 1484.64,-387.68"/>
</a>
</g>
</g>
<!-- Node26&#45;&gt;Node3 -->
<g id="edge38_Node000026_Node000003" class="edge">
<title>Node26&#45;&gt;Node3</title>
<g id="a_edge38_Node000026_Node000003"><a xlink:title=" ">
<path fill="none" stroke="#63b8ff" d="M1073.47,-237.69C1057.14,-226.52 1038.45,-213.74 1023.26,-203.35"/>
<polygon fill="#63b8ff" stroke="#63b8ff" points="1071.3,-240.44 1081.53,-243.2 1075.25,-234.66 1071.3,-240.44"/>
</a>
</g>
</g>
<!-- Node26&#45;&gt;Node7 -->
<g id="edge39_Node000026_Node000007" class="edge">
<title>Node26&#45;&gt;Node7</title>
<g id="a_edge39_Node000026_Node000007"><a xlink:title=" ">
<path fill="none" stroke="#63b8ff" d="M1180.92,-239.65C1203.75,-229.91 1225.05,-218.65 1231.5,-208.5 1244.13,-188.62 1242.95,-176.09 1231.5,-155.5 1222.92,-140.07 1208.12,-128.36 1192.97,-119.74"/>
<polygon fill="#63b8ff" stroke="#63b8ff" points="1179.68,-236.37 1171.77,-243.43 1182.35,-242.84 1179.68,-236.37"/>
</a>
</g>
</g>
<!-- Node26&#45;&gt;Node19 -->
<g id="edge40_Node000026_Node000019" class="edge">
<title>Node26&#45;&gt;Node19</title>
<g id="a_edge40_Node000026_Node000019"><a xlink:title=" ">
<path fill="none" stroke="#63b8ff" d="M1182.52,-243.58C1224.23,-231.19 1276.93,-215.54 1318.31,-203.25"/>
<polygon fill="#63b8ff" stroke="#63b8ff" points="1181.66,-240.18 1173.07,-246.39 1183.65,-246.9 1181.66,-240.18"/>
</a>
</g>
</g>
</g>
</svg>

<g id="navigator" transform="translate(0 0)" fill="#404254">
  <rect fill="#f2f5e9" fill-opacity="0.5" stroke="#606060" stroke-width=".5" x="0" y="0" width="60" height="60"/>
  <use id="zoomplus" xlink:href="#zoomPlus" x="17" y="9" onmousedown="handleZoom(evt,'in')"/>
  <use id="zoomminus" xlink:href="#zoomMin" x="42" y="9" onmousedown="handleZoom(evt,'out')"/>
  <use id="reset" xlink:href="#resetDef" x="30" y="36" onmousedown="handleReset()"/>
   <use id="arrowup" xlink:href="#arrowUp" x="0" y="0" onmousedown="handlePan(0,-1)"/>
  <use id="arrowright" xlink:href="#arrowRight" x="0" y="0" onmousedown="handlePan(1,0)"/>
  <use id="arrowdown" xlink:href="#arrowDown" x="0" y="0" onmousedown="handlePan(0,1)"/>
  <use id="arrowleft" xlink:href="#arrowLeft" x="0" y="0" onmousedown="handlePan(-1,0)"/>
</g>
<svg viewBox="0 0 15 15" width="100%" height="30px" preserveAspectRatio="xMaxYMin meet">
 <g id="arrow_out" transform="scale(0.3 0.3)">
  <a xlink:href="Value_8hpp__dep__incl_org.svg" target="_base">
   <rect id="button" ry="5" rx="5" y="6" x="6" height="38" width="38"
        fill="#f2f5e9" fill-opacity="0.5" stroke="#606060" stroke-width="1.0"/>
   <path id="arrow"
     d="M 11.500037,31.436501 C 11.940474,20.09759 22.043105,11.32322 32.158766,21.979434 L 37.068811,17.246167 C 37.068811,17.246167 37.088388,32 37.088388,32 L 22.160133,31.978069 C 22.160133,31.978069 26.997745,27.140456 26.997745,27.140456 C 18.528582,18.264221 13.291696,25.230495 11.500037,31.436501 z"
     style="fill:#404040;"/>
  </a>
 </g>
</svg>

<style type='text/css'>
<![CDATA[
[data-mouse-over-selected='false'] { opacity: 0.7; }
[data-mouse-over-selected='true']  { opacity: 1.0; }
]]>
</style>
<script type="application/ecmascript"><![CDATA[
document.addEventListener('DOMContentLoaded', (event) => {
  highlightEdges();
  highlightAdjacentNodes();
});
]]></script>
</svg>
