<?xml version="1.0" encoding="UTF-8" standalone="no"?>
<!DOCTYPE svg PUBLIC "-//W3C//DTD SVG 1.1//EN"
 "http://www.w3.org/Graphics/SVG/1.1/DTD/svg11.dtd">
<!-- Generated by graphviz version 7.1.0 (20230121.1956)
 -->
<!-- Title: /Users/fola/Documents/ArkScript/Ark/include/Ark/VM/Value.hpp Pages: 1 -->
<svg width="1681pt" height="588pt"
 viewBox="0.00 0.00 1680.50 588.00" xmlns="http://www.w3.org/2000/svg" xmlns:xlink="http://www.w3.org/1999/xlink">
<g id="graph0" class="graph" transform="scale(1 1) rotate(0) translate(4 584)">
<title>/Users/fola/Documents/ArkScript/Ark/include/Ark/VM/Value.hpp</title>
<!-- Node1 -->
<g id="node1" class="node">
<title>Node1</title>
<g id="a_node1"><a xlink:title=" ">
<polygon fill="#999999" stroke="#666666" points="592.5,-580 474.5,-580 474.5,-539 592.5,-539 592.5,-580"/>
<text text-anchor="start" x="482.5" y="-568" font-family="Helvetica,sans-Serif" font-size="10.00">/Users/fola/Documents</text>
<text text-anchor="start" x="482.5" y="-557" font-family="Helvetica,sans-Serif" font-size="10.00">/ArkScript/Ark/include</text>
<text text-anchor="middle" x="533.5" y="-546" font-family="Helvetica,sans-Serif" font-size="10.00">/Ark/VM/Value.hpp</text>
</a>
</g>
</g>
<!-- Node2 -->
<g id="node2" class="node">
<title>Node2</title>
<g id="a_node2"><a xlink:href="../../da/d84/Builtins_8hpp.html" target="_top" xlink:title="Host the declaration of all the ArkScript builtins.">
<polygon fill="white" stroke="#666666" points="742.5,-426 618.5,-426 618.5,-385 742.5,-385 742.5,-426"/>
<text text-anchor="start" x="626.5" y="-414" font-family="Helvetica,sans-Serif" font-size="10.00">/Users/fola/Documents</text>
<text text-anchor="start" x="626.5" y="-403" font-family="Helvetica,sans-Serif" font-size="10.00">/ArkScript/Ark/include</text>
<text text-anchor="middle" x="680.5" y="-392" font-family="Helvetica,sans-Serif" font-size="10.00">/Ark/Builtins/Builtins.hpp</text>
</a>
</g>
</g>
<!-- Node1&#45;&gt;Node2 -->
<g id="edge1" class="edge">
<title>Node1&#45;&gt;Node2</title>
<path fill="none" stroke="#63b8ff" d="M571.25,-531.69C582.42,-523.06 594.37,-513.09 604.5,-503 628.82,-478.77 652.61,-446.85 666.92,-426.49"/>
<polygon fill="#63b8ff" stroke="#63b8ff" points="569.17,-528.87 563.3,-537.7 573.39,-534.46 569.17,-528.87"/>
</g>
<!-- Node3 -->
<g id="node3" class="node">
<title>Node3</title>
<g id="a_node3"><a xlink:href="../../d1/d91/VM_8hpp.html" target="_top" xlink:title="The ArkScript virtual machine.">
<polygon fill="white" stroke="#666666" points="573.5,-195 455.5,-195 455.5,-154 573.5,-154 573.5,-195"/>
<text text-anchor="start" x="463.5" y="-183" font-family="Helvetica,sans-Serif" font-size="10.00">/Users/fola/Documents</text>
<text text-anchor="start" x="463.5" y="-172" font-family="Helvetica,sans-Serif" font-size="10.00">/ArkScript/Ark/include</text>
<text text-anchor="middle" x="514.5" y="-161" font-family="Helvetica,sans-Serif" font-size="10.00">/Ark/VM/VM.hpp</text>
</a>
</g>
</g>
<!-- Node1&#45;&gt;Node3 -->
<g id="edge54" class="edge">
<title>Node1&#45;&gt;Node3</title>
<path fill="none" stroke="#63b8ff" d="M527.37,-527.73C521.82,-497.12 514.5,-448.76 514.5,-406.5 514.5,-406.5 514.5,-406.5 514.5,-327.5 514.5,-280 514.5,-224.15 514.5,-195.18"/>
<polygon fill="#63b8ff" stroke="#63b8ff" points="523.91,-528.25 529.19,-537.43 530.79,-526.96 523.91,-528.25"/>
</g>
<!-- Node12 -->
<g id="node12" class="node">
<title>Node12</title>
<g id="a_node12"><a xlink:href="../../d1/db2/Closure_8cpp.html" target="_top" xlink:title=" ">
<polygon fill="white" stroke="#666666" points="141,-118 0,-118 0,-77 141,-77 141,-118"/>
<text text-anchor="start" x="8" y="-106" font-family="Helvetica,sans-Serif" font-size="10.00">/Users/fola/Documents</text>
<text text-anchor="start" x="8" y="-95" font-family="Helvetica,sans-Serif" font-size="10.00">/ArkScript/Ark/src/arkreactor</text>
<text text-anchor="middle" x="70.5" y="-84" font-family="Helvetica,sans-Serif" font-size="10.00">/VM/Value/Closure.cpp</text>
</a>
</g>
</g>
<!-- Node1&#45;&gt;Node12 -->
<g id="edge56" class="edge">
<title>Node1&#45;&gt;Node12</title>
<path fill="none" stroke="#63b8ff" d="M462.79,-551.93C324.69,-537.14 32.5,-495.35 32.5,-406.5 32.5,-406.5 32.5,-406.5 32.5,-250.5 32.5,-201.81 51.08,-146.9 62.25,-118.27"/>
<polygon fill="#63b8ff" stroke="#63b8ff" points="462.25,-555.39 472.56,-552.96 462.98,-548.43 462.25,-555.39"/>
</g>
<!-- Node16 -->
<g id="node16" class="node">
<title>Node16</title>
<g id="a_node16"><a xlink:href="../../d2/de9/Exceptions_8hpp.html" target="_top" xlink:title="ArkScript homemade exceptions.">
<polygon fill="white" stroke="#666666" points="1128.5,-503 1010.5,-503 1010.5,-462 1128.5,-462 1128.5,-503"/>
<text text-anchor="start" x="1018.5" y="-491" font-family="Helvetica,sans-Serif" font-size="10.00">/Users/fola/Documents</text>
<text text-anchor="start" x="1018.5" y="-480" font-family="Helvetica,sans-Serif" font-size="10.00">/ArkScript/Ark/include</text>
<text text-anchor="middle" x="1069.5" y="-469" font-family="Helvetica,sans-Serif" font-size="10.00">/Ark/Exceptions.hpp</text>
</a>
</g>
</g>
<!-- Node1&#45;&gt;Node16 -->
<g id="edge16" class="edge">
<title>Node1&#45;&gt;Node16</title>
<path fill="none" stroke="#63b8ff" d="M604.18,-548.61C710.78,-533.69 910.79,-505.71 1010.23,-491.79"/>
<polygon fill="#63b8ff" stroke="#63b8ff" points="603.83,-545.13 594.41,-549.98 604.8,-552.06 603.83,-545.13"/>
</g>
<!-- Node19 -->
<g id="node19" class="node">
<title>Node19</title>
<g id="a_node19"><a xlink:href="../../d0/db5/State_8hpp.html" target="_top" xlink:title="State used by the virtual machine: it loads the bytecode, can compile it if needed,...">
<polygon fill="white" stroke="#666666" points="876.5,-272 758.5,-272 758.5,-231 876.5,-231 876.5,-272"/>
<text text-anchor="start" x="766.5" y="-260" font-family="Helvetica,sans-Serif" font-size="10.00">/Users/fola/Documents</text>
<text text-anchor="start" x="766.5" y="-249" font-family="Helvetica,sans-Serif" font-size="10.00">/ArkScript/Ark/include</text>
<text text-anchor="middle" x="817.5" y="-238" font-family="Helvetica,sans-Serif" font-size="10.00">/Ark/VM/State.hpp</text>
</a>
</g>
</g>
<!-- Node1&#45;&gt;Node19 -->
<g id="edge53" class="edge">
<title>Node1&#45;&gt;Node19</title>
<path fill="none" stroke="#63b8ff" d="M552.36,-529.11C557.29,-520.84 562.37,-511.71 566.5,-503 606.72,-418.21 576.57,-369.45 647.5,-308 678.47,-281.16 722.7,-267.25 758.28,-260.06"/>
<polygon fill="#63b8ff" stroke="#63b8ff" points="549.52,-527.05 547.29,-537.41 555.49,-530.7 549.52,-527.05"/>
</g>
<!-- Node28 -->
<g id="node28" class="node">
<title>Node28</title>
<g id="a_node28"><a xlink:href="../../db/d5e/TypeChecker_8hpp.html" target="_top" xlink:title=" ">
<polygon fill="white" stroke="#666666" points="721.5,-195 603.5,-195 603.5,-154 721.5,-154 721.5,-195"/>
<text text-anchor="start" x="611.5" y="-183" font-family="Helvetica,sans-Serif" font-size="10.00">/Users/fola/Documents</text>
<text text-anchor="start" x="611.5" y="-172" font-family="Helvetica,sans-Serif" font-size="10.00">/ArkScript/Ark/include</text>
<text text-anchor="middle" x="662.5" y="-161" font-family="Helvetica,sans-Serif" font-size="10.00">/Ark/TypeChecker.hpp</text>
</a>
</g>
</g>
<!-- Node1&#45;&gt;Node28 -->
<g id="edge37" class="edge">
<title>Node1&#45;&gt;Node28</title>
<path fill="none" stroke="#63b8ff" d="M541.68,-527.76C554.56,-480.21 580.95,-386.15 608.5,-308 622.79,-267.47 642.43,-221.21 653.66,-195.47"/>
<polygon fill="#63b8ff" stroke="#63b8ff" points="538.32,-526.78 539.1,-537.34 545.08,-528.6 538.32,-526.78"/>
</g>
<!-- Node29 -->
<g id="node29" class="node">
<title>Node29</title>
<g id="a_node29"><a xlink:href="../../db/df6/ExecutionContext_8hpp.html" target="_top" xlink:title="Keeping track of the internal data needed by the VM.">
<polygon fill="white" stroke="#666666" points="288.5,-349 136.5,-349 136.5,-308 288.5,-308 288.5,-349"/>
<text text-anchor="start" x="144.5" y="-337" font-family="Helvetica,sans-Serif" font-size="10.00">/Users/fola/Documents</text>
<text text-anchor="start" x="144.5" y="-326" font-family="Helvetica,sans-Serif" font-size="10.00">/ArkScript/Ark/include</text>
<text text-anchor="middle" x="212.5" y="-315" font-family="Helvetica,sans-Serif" font-size="10.00">/Ark/VM/ExecutionContext.hpp</text>
</a>
</g>
</g>
<!-- Node1&#45;&gt;Node29 -->
<g id="edge42" class="edge">
<title>Node1&#45;&gt;Node29</title>
<path fill="none" stroke="#63b8ff" d="M487.01,-533.31C470.06,-523.97 450.82,-513.17 433.5,-503 377.57,-470.14 360.38,-466.25 309.5,-426 279.32,-402.13 248.49,-369.82 229.92,-349.32"/>
<polygon fill="#63b8ff" stroke="#63b8ff" points="484.91,-536.15 495.36,-537.9 488.28,-530.02 484.91,-536.15"/>
</g>
<!-- Node30 -->
<g id="node30" class="node">
<title>Node30</title>
<g id="a_node30"><a xlink:href="../../d0/dda/Future_8hpp.html" target="_top" xlink:title=" ">
<polygon fill="white" stroke="#666666" points="306.5,-272 188.5,-272 188.5,-231 306.5,-231 306.5,-272"/>
<text text-anchor="start" x="196.5" y="-260" font-family="Helvetica,sans-Serif" font-size="10.00">/Users/fola/Documents</text>
<text text-anchor="start" x="196.5" y="-249" font-family="Helvetica,sans-Serif" font-size="10.00">/ArkScript/Ark/include</text>
<text text-anchor="middle" x="247.5" y="-238" font-family="Helvetica,sans-Serif" font-size="10.00">/Ark/VM/Future.hpp</text>
</a>
</g>
</g>
<!-- Node1&#45;&gt;Node30 -->
<g id="edge47" class="edge">
<title>Node1&#45;&gt;Node30</title>
<path fill="none" stroke="#63b8ff" d="M463.06,-546.91C365.67,-526.54 194.37,-473.95 127.5,-349 118.9,-332.93 117.69,-323.35 127.5,-308 141.1,-286.73 165.17,-273.49 188.2,-265.31"/>
<polygon fill="#63b8ff" stroke="#63b8ff" points="462.29,-550.32 472.78,-548.88 463.68,-543.46 462.29,-550.32"/>
</g>
<!-- Node31 -->
<g id="node31" class="node">
<title>Node31</title>
<g id="a_node31"><a xlink:href="../../d8/dcd/Scope_8hpp.html" target="_top" xlink:title="The virtual machine scope system.">
<polygon fill="white" stroke="#666666" points="436.5,-426 318.5,-426 318.5,-385 436.5,-385 436.5,-426"/>
<text text-anchor="start" x="326.5" y="-414" font-family="Helvetica,sans-Serif" font-size="10.00">/Users/fola/Documents</text>
<text text-anchor="start" x="326.5" y="-403" font-family="Helvetica,sans-Serif" font-size="10.00">/ArkScript/Ark/include</text>
<text text-anchor="middle" x="377.5" y="-392" font-family="Helvetica,sans-Serif" font-size="10.00">/Ark/VM/Scope.hpp</text>
</a>
</g>
</g>
<!-- Node1&#45;&gt;Node31 -->
<g id="edge48" class="edge">
<title>Node1&#45;&gt;Node31</title>
<path fill="none" stroke="#63b8ff" d="M504.86,-530.6C473.87,-500.4 425.23,-453.01 397.9,-426.38"/>
<polygon fill="#63b8ff" stroke="#63b8ff" points="502.42,-533.1 512.02,-537.57 507.3,-528.09 502.42,-533.1"/>
</g>
<!-- Node33 -->
<g id="node33" class="node">
<title>Node33</title>
<g id="a_node33"><a xlink:href="../../d1/d74/Value_8cpp.html" target="_top" xlink:title=" ">
<polygon fill="white" stroke="#666666" points="1288,-503 1147,-503 1147,-462 1288,-462 1288,-503"/>
<text text-anchor="start" x="1155" y="-491" font-family="Helvetica,sans-Serif" font-size="10.00">/Users/fola/Documents</text>
<text text-anchor="start" x="1155" y="-480" font-family="Helvetica,sans-Serif" font-size="10.00">/ArkScript/Ark/src/arkreactor</text>
<text text-anchor="middle" x="1217.5" y="-469" font-family="Helvetica,sans-Serif" font-size="10.00">/VM/Value.cpp</text>
</a>
</g>
</g>
<!-- Node1&#45;&gt;Node33 -->
<g id="edge55" class="edge">
<title>Node1&#45;&gt;Node33</title>
<path fill="none" stroke="#63b8ff" d="M603.84,-555.41C716.94,-549.68 945.95,-534.97 1137.5,-503 1140.46,-502.51 1143.47,-501.96 1146.51,-501.38"/>
<polygon fill="#63b8ff" stroke="#63b8ff" points="603.93,-551.9 594.11,-555.89 604.27,-558.89 603.93,-551.9"/>
</g>
<!-- Node2&#45;&gt;Node3 -->
<g id="edge2" class="edge">
<title>Node2&#45;&gt;Node3</title>
<path fill="none" stroke="#63b8ff" d="M659.46,-375.48C625.17,-328.17 558.1,-235.65 528.79,-195.21"/>
<polygon fill="#63b8ff" stroke="#63b8ff" points="656.47,-377.31 665.17,-383.35 662.14,-373.2 656.47,-377.31"/>
</g>
<!-- Node13 -->
<g id="node13" class="node">
<title>Node13</title>
<g id="a_node13"><a xlink:href="../../d5/d36/BytecodeReader_8cpp.html" target="_top" xlink:title=" ">
<polygon fill="white" stroke="#666666" points="808.5,-349 656.5,-349 656.5,-308 808.5,-308 808.5,-349"/>
<text text-anchor="start" x="664.5" y="-337" font-family="Helvetica,sans-Serif" font-size="10.00">/Users/fola/Documents</text>
<text text-anchor="start" x="664.5" y="-326" font-family="Helvetica,sans-Serif" font-size="10.00">/ArkScript/Ark/src/arkreactor</text>
<text text-anchor="middle" x="732.5" y="-315" font-family="Helvetica,sans-Serif" font-size="10.00">/Compiler/BytecodeReader.cpp</text>
</a>
</g>
</g>
<!-- Node2&#45;&gt;Node13 -->
<g id="edge13" class="edge">
<title>Node2&#45;&gt;Node13</title>
<path fill="none" stroke="#63b8ff" d="M700.72,-375.34C706.75,-366.63 713.23,-357.3 718.75,-349.33"/>
<polygon fill="#63b8ff" stroke="#63b8ff" points="697.85,-373.34 695.02,-383.55 703.6,-377.33 697.85,-373.34"/>
</g>
<!-- Node14 -->
<g id="node14" class="node">
<title>Node14</title>
<g id="a_node14"><a xlink:href="../../de/dfa/Compiler_8cpp.html" target="_top" xlink:title=" ">
<polygon fill="white" stroke="#666666" points="1038,-272 897,-272 897,-231 1038,-231 1038,-272"/>
<text text-anchor="start" x="905" y="-260" font-family="Helvetica,sans-Serif" font-size="10.00">/Users/fola/Documents</text>
<text text-anchor="start" x="905" y="-249" font-family="Helvetica,sans-Serif" font-size="10.00">/ArkScript/Ark/src/arkreactor</text>
<text text-anchor="middle" x="967.5" y="-238" font-family="Helvetica,sans-Serif" font-size="10.00">/Compiler/Compiler.cpp</text>
</a>
</g>
</g>
<!-- Node2&#45;&gt;Node14 -->
<g id="edge14" class="edge">
<title>Node2&#45;&gt;Node14</title>
<path fill="none" stroke="#63b8ff" d="M753.74,-381.46C775.25,-372.98 798.17,-362.16 817.5,-349 838.29,-334.85 836.28,-322.96 856.5,-308 875.47,-293.97 898.51,-281.78 918.68,-272.44"/>
<polygon fill="#63b8ff" stroke="#63b8ff" points="752.49,-378.19 744.4,-385.02 754.99,-384.73 752.49,-378.19"/>
</g>
<!-- Node15 -->
<g id="node15" class="node">
<title>Node15</title>
<g id="a_node15"><a xlink:href="../../d6/d69/Processor_8cpp.html" target="_top" xlink:title=" ">
<polygon fill="white" stroke="#666666" points="1024,-349 865,-349 865,-308 1024,-308 1024,-349"/>
<text text-anchor="start" x="873" y="-337" font-family="Helvetica,sans-Serif" font-size="10.00">/Users/fola/Documents</text>
<text text-anchor="start" x="873" y="-326" font-family="Helvetica,sans-Serif" font-size="10.00">/ArkScript/Ark/src/arkreactor</text>
<text text-anchor="middle" x="944.5" y="-315" font-family="Helvetica,sans-Serif" font-size="10.00">/Compiler/Macros/Processor.cpp</text>
</a>
</g>
</g>
<!-- Node2&#45;&gt;Node15 -->
<g id="edge15" class="edge">
<title>Node2&#45;&gt;Node15</title>
<path fill="none" stroke="#63b8ff" d="M753.64,-383.72C791.32,-373.02 837.06,-360.02 874.31,-349.44"/>
<polygon fill="#63b8ff" stroke="#63b8ff" points="752.85,-380.31 744.19,-386.41 754.76,-387.04 752.85,-380.31"/>
</g>
<!-- Node4 -->
<g id="node4" class="node">
<title>Node4</title>
<g id="a_node4"><a xlink:href="../../d3/d7e/Ark_8hpp.html" target="_top" xlink:title="Includes the needed files to start using ArkScript.">
<polygon fill="white" stroke="#666666" points="1163.5,-118 1045.5,-118 1045.5,-77 1163.5,-77 1163.5,-118"/>
<text text-anchor="start" x="1053.5" y="-106" font-family="Helvetica,sans-Serif" font-size="10.00">/Users/fola/Documents</text>
<text text-anchor="start" x="1053.5" y="-95" font-family="Helvetica,sans-Serif" font-size="10.00">/ArkScript/Ark/include</text>
<text text-anchor="middle" x="1104.5" y="-84" font-family="Helvetica,sans-Serif" font-size="10.00">/Ark/Ark.hpp</text>
</a>
</g>
</g>
<!-- Node3&#45;&gt;Node4 -->
<g id="edge3" class="edge">
<title>Node3&#45;&gt;Node4</title>
<path fill="none" stroke="#63b8ff" d="M584.84,-155.74C588.09,-155.11 591.33,-154.53 594.5,-154 769.27,-124.94 815.84,-141.08 991.5,-118 1008.97,-115.7 1027.86,-112.67 1045.11,-109.67"/>
<polygon fill="#63b8ff" stroke="#63b8ff" points="584.28,-152.28 575.19,-157.72 585.69,-159.14 584.28,-152.28"/>
</g>
<!-- Node7 -->
<g id="node7" class="node">
<title>Node7</title>
<g id="a_node7"><a xlink:href="../../d5/d44/Module_8hpp.html" target="_top" xlink:title=" ">
<polygon fill="white" stroke="#666666" points="721.5,-118 603.5,-118 603.5,-77 721.5,-77 721.5,-118"/>
<text text-anchor="start" x="611.5" y="-106" font-family="Helvetica,sans-Serif" font-size="10.00">/Users/fola/Documents</text>
<text text-anchor="start" x="611.5" y="-95" font-family="Helvetica,sans-Serif" font-size="10.00">/ArkScript/Ark/include</text>
<text text-anchor="middle" x="662.5" y="-84" font-family="Helvetica,sans-Serif" font-size="10.00">/Ark/Module.hpp</text>
</a>
</g>
</g>
<!-- Node3&#45;&gt;Node7 -->
<g id="edge6" class="edge">
<title>Node3&#45;&gt;Node7</title>
<path fill="none" stroke="#63b8ff" d="M563.87,-148.48C583.12,-138.73 604.87,-127.7 623.04,-118.49"/>
<polygon fill="#63b8ff" stroke="#63b8ff" points="562.46,-145.27 555.12,-152.91 565.62,-151.52 562.46,-145.27"/>
</g>
<!-- Node8 -->
<g id="node8" class="node">
<title>Node8</title>
<g id="a_node8"><a xlink:href="../../d5/da5/Repl_8hpp.html" target="_top" xlink:title="ArkScript REPL &#45; Read Eval Print Loop.">
<polygon fill="white" stroke="#666666" points="982.5,-118 864.5,-118 864.5,-77 982.5,-77 982.5,-118"/>
<text text-anchor="start" x="872.5" y="-106" font-family="Helvetica,sans-Serif" font-size="10.00">/Users/fola/Documents</text>
<text text-anchor="start" x="872.5" y="-95" font-family="Helvetica,sans-Serif" font-size="10.00">/ArkScript/Ark/include</text>
<text text-anchor="middle" x="923.5" y="-84" font-family="Helvetica,sans-Serif" font-size="10.00">/Ark/REPL/Repl.hpp</text>
</a>
</g>
</g>
<!-- Node3&#45;&gt;Node8 -->
<g id="edge7" class="edge">
<title>Node3&#45;&gt;Node8</title>
<path fill="none" stroke="#63b8ff" d="M584.89,-156.04C588.14,-155.33 591.35,-154.65 594.5,-154 688.25,-134.69 798.06,-117.19 864.13,-107.2"/>
<polygon fill="#63b8ff" stroke="#63b8ff" points="584.27,-152.6 575.28,-158.21 585.81,-159.43 584.27,-152.6"/>
</g>
<!-- Node10 -->
<g id="node10" class="node">
<title>Node10</title>
<g id="a_node10"><a xlink:href="../../d4/dc9/Future_8cpp.html" target="_top" xlink:title=" ">
<polygon fill="white" stroke="#666666" points="424,-118 283,-118 283,-77 424,-77 424,-118"/>
<text text-anchor="start" x="291" y="-106" font-family="Helvetica,sans-Serif" font-size="10.00">/Users/fola/Documents</text>
<text text-anchor="start" x="291" y="-95" font-family="Helvetica,sans-Serif" font-size="10.00">/ArkScript/Ark/src/arkreactor</text>
<text text-anchor="middle" x="353.5" y="-84" font-family="Helvetica,sans-Serif" font-size="10.00">/VM/Future.cpp</text>
</a>
</g>
</g>
<!-- Node3&#45;&gt;Node10 -->
<g id="edge10" class="edge">
<title>Node3&#45;&gt;Node10</title>
<path fill="none" stroke="#63b8ff" d="M461.37,-148.75C440.29,-138.93 416.37,-127.79 396.42,-118.49"/>
<polygon fill="#63b8ff" stroke="#63b8ff" points="459.86,-151.91 470.41,-152.96 462.82,-145.56 459.86,-151.91"/>
</g>
<!-- Node11 -->
<g id="node11" class="node">
<title>Node11</title>
<g id="a_node11"><a xlink:href="../../d2/d27/VM_8cpp.html" target="_top" xlink:title=" ">
<polygon fill="white" stroke="#666666" points="585,-118 444,-118 444,-77 585,-77 585,-118"/>
<text text-anchor="start" x="452" y="-106" font-family="Helvetica,sans-Serif" font-size="10.00">/Users/fola/Documents</text>
<text text-anchor="start" x="452" y="-95" font-family="Helvetica,sans-Serif" font-size="10.00">/ArkScript/Ark/src/arkreactor</text>
<text text-anchor="middle" x="514.5" y="-84" font-family="Helvetica,sans-Serif" font-size="10.00">/VM/VM.cpp</text>
</a>
</g>
</g>
<!-- Node3&#45;&gt;Node11 -->
<g id="edge11" class="edge">
<title>Node3&#45;&gt;Node11</title>
<path fill="none" stroke="#63b8ff" d="M514.5,-142.36C514.5,-134.24 514.5,-125.7 514.5,-118.33"/>
<polygon fill="#63b8ff" stroke="#63b8ff" points="511,-142.28 514.5,-152.28 518,-142.28 511,-142.28"/>
</g>
<!-- Node3&#45;&gt;Node12 -->
<g id="edge12" class="edge">
<title>Node3&#45;&gt;Node12</title>
<path fill="none" stroke="#63b8ff" d="M443.75,-161.55C360.83,-147.54 224.23,-124.47 141.29,-110.46"/>
<polygon fill="#63b8ff" stroke="#63b8ff" points="443.15,-165 453.59,-163.21 444.31,-158.09 443.15,-165"/>
</g>
<!-- Node5 -->
<g id="node5" class="node">
<title>Node5</title>
<g id="a_node5"><a xlink:href="../../dc/d32/Ark_8cpp.html" target="_top" xlink:title=" ">
<polygon fill="white" stroke="#666666" points="1167,-41 1026,-41 1026,0 1167,0 1167,-41"/>
<text text-anchor="start" x="1034" y="-29" font-family="Helvetica,sans-Serif" font-size="10.00">/Users/fola/Documents</text>
<text text-anchor="start" x="1034" y="-18" font-family="Helvetica,sans-Serif" font-size="10.00">/ArkScript/Ark/src/arkreactor</text>
<text text-anchor="middle" x="1096.5" y="-7" font-family="Helvetica,sans-Serif" font-size="10.00">/Ark.cpp</text>
</a>
</g>
</g>
<!-- Node4&#45;&gt;Node5 -->
<g id="edge4" class="edge">
<title>Node4&#45;&gt;Node5</title>
<path fill="none" stroke="#63b8ff" d="M1101.18,-65.36C1100.31,-57.24 1099.4,-48.7 1098.62,-41.33"/>
<polygon fill="#63b8ff" stroke="#63b8ff" points="1097.7,-65.72 1102.24,-75.29 1104.66,-64.97 1097.7,-65.72"/>
</g>
<!-- Node6 -->
<g id="node6" class="node">
<title>Node6</title>
<g id="a_node6"><a xlink:href="../../df/d0a/main_8cpp.html" target="_top" xlink:title=" ">
<polygon fill="white" stroke="#666666" points="1320,-41 1185,-41 1185,0 1320,0 1320,-41"/>
<text text-anchor="start" x="1193" y="-29" font-family="Helvetica,sans-Serif" font-size="10.00">/Users/fola/Documents</text>
<text text-anchor="start" x="1193" y="-18" font-family="Helvetica,sans-Serif" font-size="10.00">/ArkScript/Ark/src/arkscript</text>
<text text-anchor="middle" x="1252.5" y="-7" font-family="Helvetica,sans-Serif" font-size="10.00">/main.cpp</text>
</a>
</g>
</g>
<!-- Node4&#45;&gt;Node6 -->
<g id="edge5" class="edge">
<title>Node4&#45;&gt;Node6</title>
<path fill="none" stroke="#63b8ff" d="M1153.87,-71.48C1173.12,-61.73 1194.87,-50.7 1213.04,-41.49"/>
<polygon fill="#63b8ff" stroke="#63b8ff" points="1152.46,-68.27 1145.12,-75.91 1155.62,-74.52 1152.46,-68.27"/>
</g>
<!-- Node8&#45;&gt;Node6 -->
<g id="edge9" class="edge">
<title>Node8&#45;&gt;Node6</title>
<path fill="none" stroke="#63b8ff" d="M994.12,-81.7C1044.95,-70.89 1115.09,-55.61 1176.5,-41 1179.15,-40.37 1181.85,-39.72 1184.58,-39.05"/>
<polygon fill="#63b8ff" stroke="#63b8ff" points="993.47,-78.26 984.41,-83.77 994.92,-85.11 993.47,-78.26"/>
</g>
<!-- Node9 -->
<g id="node9" class="node">
<title>Node9</title>
<g id="a_node9"><a xlink:href="../../d7/d46/Repl_8cpp.html" target="_top" xlink:title=" ">
<polygon fill="white" stroke="#666666" points="991,-41 856,-41 856,0 991,0 991,-41"/>
<text text-anchor="start" x="864" y="-29" font-family="Helvetica,sans-Serif" font-size="10.00">/Users/fola/Documents</text>
<text text-anchor="start" x="864" y="-18" font-family="Helvetica,sans-Serif" font-size="10.00">/ArkScript/Ark/src/arkscript</text>
<text text-anchor="middle" x="923.5" y="-7" font-family="Helvetica,sans-Serif" font-size="10.00">/REPL/Repl.cpp</text>
</a>
</g>
</g>
<!-- Node8&#45;&gt;Node9 -->
<g id="edge8" class="edge">
<title>Node8&#45;&gt;Node9</title>
<path fill="none" stroke="#63b8ff" d="M923.5,-65.36C923.5,-57.24 923.5,-48.7 923.5,-41.33"/>
<polygon fill="#63b8ff" stroke="#63b8ff" points="920,-65.28 923.5,-75.28 927,-65.28 920,-65.28"/>
</g>
<!-- Node16&#45;&gt;Node2 -->
<g id="edge18" class="edge">
<title>Node16&#45;&gt;Node2</title>
<path fill="none" stroke="#63b8ff" d="M998.93,-471.03C934.45,-461.02 836.62,-444.71 752.5,-426 749.34,-425.3 746.11,-424.55 742.85,-423.76"/>
<polygon fill="#63b8ff" stroke="#63b8ff" points="998.26,-474.47 1008.68,-472.54 999.33,-467.55 998.26,-474.47"/>
</g>
<!-- Node16&#45;&gt;Node4 -->
<g id="edge17" class="edge">
<title>Node16&#45;&gt;Node4</title>
<path fill="none" stroke="#63b8ff" d="M1140.08,-461.97C1214.18,-447.46 1256.51,-480.84 1300.5,-426 1386.22,-319.14 1205.64,-171.27 1132.99,-118.33"/>
<polygon fill="#63b8ff" stroke="#63b8ff" points="1139.38,-458.54 1130.39,-464.15 1140.91,-465.37 1139.38,-458.54"/>
</g>
<!-- Node16&#45;&gt;Node15 -->
<g id="edge35" class="edge">
<title>Node16&#45;&gt;Node15</title>
<path fill="none" stroke="#63b8ff" d="M1139.81,-461.22C1180.09,-448.9 1223.78,-434.04 1229.5,-426 1240.06,-411.15 1241.16,-399 1229.5,-385 1201.16,-350.98 1076.91,-357.74 1033.5,-349 1030.4,-348.38 1027.24,-347.73 1024.05,-347.07"/>
<polygon fill="#63b8ff" stroke="#63b8ff" points="1138.86,-457.85 1130.3,-464.1 1140.88,-464.55 1138.86,-457.85"/>
</g>
<!-- Node17 -->
<g id="node17" class="node">
<title>Node17</title>
<g id="a_node17"><a xlink:href="../../db/d93/Optimizer_8hpp.html" target="_top" xlink:title="Optimizes a given ArkScript AST.">
<polygon fill="white" stroke="#666666" points="1514.5,-426 1352.5,-426 1352.5,-385 1514.5,-385 1514.5,-426"/>
<text text-anchor="start" x="1360.5" y="-414" font-family="Helvetica,sans-Serif" font-size="10.00">/Users/fola/Documents</text>
<text text-anchor="start" x="1360.5" y="-403" font-family="Helvetica,sans-Serif" font-size="10.00">/ArkScript/Ark/include</text>
<text text-anchor="middle" x="1433.5" y="-392" font-family="Helvetica,sans-Serif" font-size="10.00">/Ark/Compiler/AST/Optimizer.hpp</text>
</a>
</g>
</g>
<!-- Node16&#45;&gt;Node17 -->
<g id="edge19" class="edge">
<title>Node16&#45;&gt;Node17</title>
<path fill="none" stroke="#63b8ff" d="M1139.98,-461.78C1228.43,-441.77 1253.28,-442.41 1338.5,-426 1342.96,-425.14 1347.54,-424.24 1352.16,-423.33"/>
<polygon fill="#63b8ff" stroke="#63b8ff" points="1139.31,-458.34 1130.35,-463.99 1140.88,-465.17 1139.31,-458.34"/>
</g>
<!-- Node24 -->
<g id="node24" class="node">
<title>Node24</title>
<g id="a_node24"><a xlink:href="../../d2/d15/Lexer_8cpp.html" target="_top" xlink:title=" ">
<polygon fill="white" stroke="#666666" points="902,-426 761,-426 761,-385 902,-385 902,-426"/>
<text text-anchor="start" x="769" y="-414" font-family="Helvetica,sans-Serif" font-size="10.00">/Users/fola/Documents</text>
<text text-anchor="start" x="769" y="-403" font-family="Helvetica,sans-Serif" font-size="10.00">/ArkScript/Ark/src/arkreactor</text>
<text text-anchor="middle" x="831.5" y="-392" font-family="Helvetica,sans-Serif" font-size="10.00">/Compiler/AST/Lexer.cpp</text>
</a>
</g>
</g>
<!-- Node16&#45;&gt;Node24 -->
<g id="edge32" class="edge">
<title>Node16&#45;&gt;Node24</title>
<path fill="none" stroke="#63b8ff" d="M999.09,-459.31C966.01,-448.89 926.89,-436.56 894.76,-426.44"/>
<polygon fill="#63b8ff" stroke="#63b8ff" points="998.02,-462.65 1008.61,-462.31 1000.13,-455.97 998.02,-462.65"/>
</g>
<!-- Node25 -->
<g id="node25" class="node">
<title>Node25</title>
<g id="a_node25"><a xlink:href="../../dc/d73/Node_8cpp.html" target="_top" xlink:title=" ">
<polygon fill="white" stroke="#666666" points="1061,-426 920,-426 920,-385 1061,-385 1061,-426"/>
<text text-anchor="start" x="928" y="-414" font-family="Helvetica,sans-Serif" font-size="10.00">/Users/fola/Documents</text>
<text text-anchor="start" x="928" y="-403" font-family="Helvetica,sans-Serif" font-size="10.00">/ArkScript/Ark/src/arkreactor</text>
<text text-anchor="middle" x="990.5" y="-392" font-family="Helvetica,sans-Serif" font-size="10.00">/Compiler/AST/Node.cpp</text>
</a>
</g>
</g>
<!-- Node16&#45;&gt;Node25 -->
<g id="edge33" class="edge">
<title>Node16&#45;&gt;Node25</title>
<path fill="none" stroke="#63b8ff" d="M1040.55,-454.02C1030.89,-444.84 1020.32,-434.81 1011.39,-426.33"/>
<polygon fill="#63b8ff" stroke="#63b8ff" points="1037.98,-456.41 1047.65,-460.75 1042.8,-451.33 1037.98,-456.41"/>
</g>
<!-- Node26 -->
<g id="node26" class="node">
<title>Node26</title>
<g id="a_node26"><a xlink:href="../../dc/df5/Parser_8cpp.html" target="_top" xlink:title=" ">
<polygon fill="white" stroke="#666666" points="1220,-426 1079,-426 1079,-385 1220,-385 1220,-426"/>
<text text-anchor="start" x="1087" y="-414" font-family="Helvetica,sans-Serif" font-size="10.00">/Users/fola/Documents</text>
<text text-anchor="start" x="1087" y="-403" font-family="Helvetica,sans-Serif" font-size="10.00">/ArkScript/Ark/src/arkreactor</text>
<text text-anchor="middle" x="1149.5" y="-392" font-family="Helvetica,sans-Serif" font-size="10.00">/Compiler/AST/Parser.cpp</text>
</a>
</g>
</g>
<!-- Node16&#45;&gt;Node26 -->
<g id="edge34" class="edge">
<title>Node16&#45;&gt;Node26</title>
<path fill="none" stroke="#63b8ff" d="M1098.82,-454.02C1108.6,-444.84 1119.3,-434.81 1128.34,-426.33"/>
<polygon fill="#63b8ff" stroke="#63b8ff" points="1096.52,-451.37 1091.62,-460.76 1101.31,-456.47 1096.52,-451.37"/>
</g>
<!-- Node27 -->
<g id="node27" class="node">
<title>Node27</title>
<g id="a_node27"><a xlink:href="../../d6/d9a/TypeChecker_8cpp.html" target="_top" xlink:title=" ">
<polygon fill="white" stroke="#666666" points="1340,-118 1199,-118 1199,-77 1340,-77 1340,-118"/>
<text text-anchor="start" x="1207" y="-106" font-family="Helvetica,sans-Serif" font-size="10.00">/Users/fola/Documents</text>
<text text-anchor="start" x="1207" y="-95" font-family="Helvetica,sans-Serif" font-size="10.00">/ArkScript/Ark/src/arkreactor</text>
<text text-anchor="middle" x="1269.5" y="-84" font-family="Helvetica,sans-Serif" font-size="10.00">/TypeChecker.cpp</text>
</a>
</g>
</g>
<!-- Node16&#45;&gt;Node27 -->
<g id="edge36" class="edge">
<title>Node16&#45;&gt;Node27</title>
<path fill="none" stroke="#63b8ff" d="M1139.64,-461.13C1187.59,-446.97 1243.22,-429.94 1247.5,-426 1281.52,-394.66 1286.5,-375.76 1286.5,-329.5 1286.5,-329.5 1286.5,-329.5 1286.5,-250.5 1286.5,-202.7 1278.1,-146.97 1273.11,-118.1"/>
<polygon fill="#63b8ff" stroke="#63b8ff" points="1138.66,-457.77 1130.06,-463.96 1140.64,-464.49 1138.66,-457.77"/>
</g>
<!-- Node18 -->
<g id="node18" class="node">
<title>Node18</title>
<g id="a_node18"><a xlink:href="../../d8/d0f/Compiler_8hpp.html" target="_top" xlink:title="ArkScript compiler is in charge of transforming the AST into bytecode.">
<polygon fill="white" stroke="#666666" points="1179,-349 1042,-349 1042,-308 1179,-308 1179,-349"/>
<text text-anchor="start" x="1050" y="-337" font-family="Helvetica,sans-Serif" font-size="10.00">/Users/fola/Documents</text>
<text text-anchor="start" x="1050" y="-326" font-family="Helvetica,sans-Serif" font-size="10.00">/ArkScript/Ark/include</text>
<text text-anchor="middle" x="1110.5" y="-315" font-family="Helvetica,sans-Serif" font-size="10.00">/Ark/Compiler/Compiler.hpp</text>
</a>
</g>
</g>
<!-- Node17&#45;&gt;Node18 -->
<g id="edge20" class="edge">
<title>Node17&#45;&gt;Node18</title>
<path fill="none" stroke="#63b8ff" d="M1341.26,-383.08C1289.7,-371.11 1226.52,-356.44 1179.32,-345.48"/>
<polygon fill="#63b8ff" stroke="#63b8ff" points="1340.4,-386.48 1350.94,-385.33 1341.99,-379.66 1340.4,-386.48"/>
</g>
<!-- Node21 -->
<g id="node21" class="node">
<title>Node21</title>
<g id="a_node21"><a xlink:href="../../dc/dfd/JsonCompiler_8hpp.html" target="_top" xlink:title=" ">
<polygon fill="white" stroke="#666666" points="1672.5,-349 1514.5,-349 1514.5,-308 1672.5,-308 1672.5,-349"/>
<text text-anchor="start" x="1522.5" y="-337" font-family="Helvetica,sans-Serif" font-size="10.00">/Users/fola/Documents</text>
<text text-anchor="start" x="1522.5" y="-326" font-family="Helvetica,sans-Serif" font-size="10.00">/ArkScript/Ark/include</text>
<text text-anchor="middle" x="1593.5" y="-315" font-family="Helvetica,sans-Serif" font-size="10.00">/Ark/Compiler/JsonCompiler.hpp</text>
</a>
</g>
</g>
<!-- Node17&#45;&gt;Node21 -->
<g id="edge28" class="edge">
<title>Node17&#45;&gt;Node21</title>
<path fill="none" stroke="#63b8ff" d="M1486.3,-379.75C1507.25,-369.93 1531.02,-358.79 1550.84,-349.49"/>
<polygon fill="#63b8ff" stroke="#63b8ff" points="1484.9,-376.54 1477.33,-383.96 1487.87,-382.88 1484.9,-376.54"/>
</g>
<!-- Node23 -->
<g id="node23" class="node">
<title>Node23</title>
<g id="a_node23"><a xlink:href="../../d2/dc5/Optimizer_8cpp.html" target="_top" xlink:title=" ">
<polygon fill="white" stroke="#666666" points="1496.5,-349 1352.5,-349 1352.5,-308 1496.5,-308 1496.5,-349"/>
<text text-anchor="start" x="1360.5" y="-337" font-family="Helvetica,sans-Serif" font-size="10.00">/Users/fola/Documents</text>
<text text-anchor="start" x="1360.5" y="-326" font-family="Helvetica,sans-Serif" font-size="10.00">/ArkScript/Ark/src/arkreactor</text>
<text text-anchor="middle" x="1424.5" y="-315" font-family="Helvetica,sans-Serif" font-size="10.00">/Compiler/AST/Optimizer.cpp</text>
</a>
</g>
</g>
<!-- Node17&#45;&gt;Node23 -->
<g id="edge31" class="edge">
<title>Node17&#45;&gt;Node23</title>
<path fill="none" stroke="#63b8ff" d="M1429.76,-373.36C1428.79,-365.24 1427.76,-356.7 1426.88,-349.33"/>
<polygon fill="#63b8ff" stroke="#63b8ff" points="1426.29,-373.78 1430.96,-383.29 1433.24,-372.95 1426.29,-373.78"/>
</g>
<!-- Node18&#45;&gt;Node4 -->
<g id="edge21" class="edge">
<title>Node18&#45;&gt;Node4</title>
<path fill="none" stroke="#63b8ff" d="M1109.68,-296.37C1108.43,-248.47 1106.06,-158.06 1105.02,-118.21"/>
<polygon fill="#63b8ff" stroke="#63b8ff" points="1106.18,-296.16 1109.94,-306.07 1113.18,-295.98 1106.18,-296.16"/>
</g>
<!-- Node18&#45;&gt;Node8 -->
<g id="edge22" class="edge">
<title>Node18&#45;&gt;Node8</title>
<path fill="none" stroke="#63b8ff" d="M1093.09,-297.99C1081.09,-278.4 1064.33,-252.45 1047.5,-231 1014.05,-188.37 969.57,-143.21 943.99,-118.17"/>
<polygon fill="#63b8ff" stroke="#63b8ff" points="1089.95,-299.56 1098.12,-306.3 1095.93,-295.93 1089.95,-299.56"/>
</g>
<!-- Node18&#45;&gt;Node14 -->
<g id="edge27" class="edge">
<title>Node18&#45;&gt;Node14</title>
<path fill="none" stroke="#63b8ff" d="M1062.54,-302.35C1044.01,-292.63 1023.1,-281.66 1005.62,-272.49"/>
<polygon fill="#63b8ff" stroke="#63b8ff" points="1060.73,-305.35 1071.21,-306.9 1063.98,-299.15 1060.73,-305.35"/>
</g>
<!-- Node18&#45;&gt;Node19 -->
<g id="edge23" class="edge">
<title>Node18&#45;&gt;Node19</title>
<path fill="none" stroke="#63b8ff" d="M1030.63,-307.29C967.24,-291.49 949.35,-287.91 888.5,-272 884.67,-271 880.72,-269.95 876.74,-268.89"/>
<polygon fill="#63b8ff" stroke="#63b8ff" points="1029.64,-310.65 1040.19,-309.68 1031.34,-303.86 1029.64,-310.65"/>
</g>
<!-- Node19&#45;&gt;Node3 -->
<g id="edge25" class="edge">
<title>Node19&#45;&gt;Node3</title>
<path fill="none" stroke="#63b8ff" d="M747.43,-233.16C694.81,-220.13 623.54,-202.49 573.75,-190.17"/>
<polygon fill="#63b8ff" stroke="#63b8ff" points="746.34,-236.49 756.89,-235.5 748.02,-229.7 746.34,-236.49"/>
</g>
<!-- Node19&#45;&gt;Node8 -->
<g id="edge24" class="edge">
<title>Node19&#45;&gt;Node8</title>
<path fill="none" stroke="#63b8ff" d="M866.39,-224.62C878,-216.49 889.36,-206.56 897.5,-195 913.79,-171.88 919.88,-139.08 922.15,-118.3"/>
<polygon fill="#63b8ff" stroke="#63b8ff" points="864.77,-221.49 858.35,-229.92 868.62,-227.34 864.77,-221.49"/>
</g>
<!-- Node20 -->
<g id="node20" class="node">
<title>Node20</title>
<g id="a_node20"><a xlink:href="../../d0/da0/State_8cpp.html" target="_top" xlink:title=" ">
<polygon fill="white" stroke="#666666" points="888,-195 747,-195 747,-154 888,-154 888,-195"/>
<text text-anchor="start" x="755" y="-183" font-family="Helvetica,sans-Serif" font-size="10.00">/Users/fola/Documents</text>
<text text-anchor="start" x="755" y="-172" font-family="Helvetica,sans-Serif" font-size="10.00">/ArkScript/Ark/src/arkreactor</text>
<text text-anchor="middle" x="817.5" y="-161" font-family="Helvetica,sans-Serif" font-size="10.00">/VM/State.cpp</text>
</a>
</g>
</g>
<!-- Node19&#45;&gt;Node20 -->
<g id="edge26" class="edge">
<title>Node19&#45;&gt;Node20</title>
<path fill="none" stroke="#63b8ff" d="M817.5,-219.36C817.5,-211.24 817.5,-202.7 817.5,-195.33"/>
<polygon fill="#63b8ff" stroke="#63b8ff" points="814,-219.28 817.5,-229.28 821,-219.28 814,-219.28"/>
</g>
<!-- Node21&#45;&gt;Node6 -->
<g id="edge30" class="edge">
<title>Node21&#45;&gt;Node6</title>
<path fill="none" stroke="#63b8ff" d="M1593.3,-296.38C1591.81,-276.27 1587.24,-250.34 1574.5,-231 1510.02,-133.12 1382.31,-70.89 1308.58,-41.5"/>
<polygon fill="#63b8ff" stroke="#63b8ff" points="1589.8,-296.42 1593.79,-306.24 1596.79,-296.08 1589.8,-296.42"/>
</g>
<!-- Node22 -->
<g id="node22" class="node">
<title>Node22</title>
<g id="a_node22"><a xlink:href="../../db/d71/JsonCompiler_8cpp.html" target="_top" xlink:title=" ">
<polygon fill="white" stroke="#666666" points="1565,-272 1424,-272 1424,-231 1565,-231 1565,-272"/>
<text text-anchor="start" x="1432" y="-260" font-family="Helvetica,sans-Serif" font-size="10.00">/Users/fola/Documents</text>
<text text-anchor="start" x="1432" y="-249" font-family="Helvetica,sans-Serif" font-size="10.00">/ArkScript/Ark/src/arkreactor</text>
<text text-anchor="middle" x="1494.5" y="-238" font-family="Helvetica,sans-Serif" font-size="10.00">/Compiler/JsonCompiler.cpp</text>
</a>
</g>
</g>
<!-- Node21&#45;&gt;Node22 -->
<g id="edge29" class="edge">
<title>Node21&#45;&gt;Node22</title>
<path fill="none" stroke="#63b8ff" d="M1558.14,-300.71C1545.87,-291.41 1532.32,-281.15 1520.89,-272.49"/>
<polygon fill="#63b8ff" stroke="#63b8ff" points="1555.94,-303.44 1566.02,-306.68 1560.17,-297.86 1555.94,-303.44"/>
</g>
<!-- Node28&#45;&gt;Node4 -->
<g id="edge38" class="edge">
<title>Node28&#45;&gt;Node4</title>
<path fill="none" stroke="#63b8ff" d="M732.79,-155.17C734.71,-154.77 736.62,-154.37 738.5,-154 849.9,-131.85 879.3,-135.66 991.5,-118 1008.9,-115.26 1027.78,-112.08 1045.03,-109.1"/>
<polygon fill="#63b8ff" stroke="#63b8ff" points="732.16,-151.73 723.16,-157.32 733.68,-158.56 732.16,-151.73"/>
</g>
<!-- Node28&#45;&gt;Node7 -->
<g id="edge39" class="edge">
<title>Node28&#45;&gt;Node7</title>
<path fill="none" stroke="#63b8ff" d="M662.5,-142.36C662.5,-134.24 662.5,-125.7 662.5,-118.33"/>
<polygon fill="#63b8ff" stroke="#63b8ff" points="659,-142.28 662.5,-152.28 666,-142.28 659,-142.28"/>
</g>
<!-- Node28&#45;&gt;Node11 -->
<g id="edge41" class="edge">
<title>Node28&#45;&gt;Node11</title>
<path fill="none" stroke="#63b8ff" d="M613.13,-148.48C593.88,-138.73 572.13,-127.7 553.96,-118.49"/>
<polygon fill="#63b8ff" stroke="#63b8ff" points="611.38,-151.52 621.88,-152.91 614.54,-145.27 611.38,-151.52"/>
</g>
<!-- Node28&#45;&gt;Node27 -->
<g id="edge40" class="edge">
<title>Node28&#45;&gt;Node27</title>
<path fill="none" stroke="#63b8ff" d="M732.76,-155.03C734.69,-154.66 736.61,-154.32 738.5,-154 929.36,-121.83 980.86,-145.12 1172.5,-118 1181,-116.8 1189.89,-115.32 1198.67,-113.72"/>
<polygon fill="#63b8ff" stroke="#63b8ff" points="732.2,-151.57 723.11,-157 733.6,-158.43 732.2,-151.57"/>
</g>
<!-- Node29&#45;&gt;Node3 -->
<g id="edge46" class="edge">
<title>Node29&#45;&gt;Node3</title>
<path fill="none" stroke="#63b8ff" d="M261.9,-302.63C321.44,-272.67 420.29,-222.92 475.01,-195.38"/>
<polygon fill="#63b8ff" stroke="#63b8ff" points="260.69,-299.33 253.33,-306.95 263.84,-305.58 260.69,-299.33"/>
</g>
<!-- Node29&#45;&gt;Node30 -->
<g id="edge43" class="edge">
<title>Node29&#45;&gt;Node30</title>
<path fill="none" stroke="#63b8ff" d="M226.5,-297.5C230.45,-289.03 234.65,-280.04 238.24,-272.33"/>
<polygon fill="#63b8ff" stroke="#63b8ff" points="223.39,-295.88 222.34,-306.42 229.74,-298.84 223.39,-295.88"/>
</g>
<!-- Node30&#45;&gt;Node3 -->
<g id="edge44" class="edge">
<title>Node30&#45;&gt;Node3</title>
<path fill="none" stroke="#63b8ff" d="M317.68,-230.79C360.54,-218.75 414.74,-203.52 455.41,-192.1"/>
<polygon fill="#63b8ff" stroke="#63b8ff" points="316.89,-227.37 308.21,-233.45 318.79,-234.11 316.89,-227.37"/>
</g>
<!-- Node30&#45;&gt;Node10 -->
<g id="edge45" class="edge">
<title>Node30&#45;&gt;Node10</title>
<path fill="none" stroke="#63b8ff" d="M267.77,-221.43C288.86,-191.19 321.31,-144.66 339.64,-118.38"/>
<polygon fill="#63b8ff" stroke="#63b8ff" points="265.07,-219.18 262.22,-229.39 270.81,-223.19 265.07,-219.18"/>
</g>
<!-- Node31&#45;&gt;Node3 -->
<g id="edge50" class="edge">
<title>Node31&#45;&gt;Node3</title>
<path fill="none" stroke="#63b8ff" d="M424.99,-378.42C436.57,-370.25 448.04,-360.35 456.5,-349 475.15,-323.98 499.34,-235.15 509.58,-195.21"/>
<polygon fill="#63b8ff" stroke="#63b8ff" points="423.37,-375.29 417,-383.76 427.26,-381.11 423.37,-375.29"/>
</g>
<!-- Node31&#45;&gt;Node12 -->
<g id="edge52" class="edge">
<title>Node31&#45;&gt;Node12</title>
<path fill="none" stroke="#63b8ff" d="M306.89,-397.26C242.08,-389.15 152.44,-373.81 127.5,-349 63.47,-285.3 65.07,-165.64 68.54,-118.4"/>
<polygon fill="#63b8ff" stroke="#63b8ff" points="306.43,-400.72 316.78,-398.45 307.27,-393.78 306.43,-400.72"/>
</g>
<!-- Node31&#45;&gt;Node29 -->
<g id="edge49" class="edge">
<title>Node31&#45;&gt;Node29</title>
<path fill="none" stroke="#63b8ff" d="M323.35,-379.88C301.67,-370.03 277.03,-358.83 256.49,-349.49"/>
<polygon fill="#63b8ff" stroke="#63b8ff" points="321.79,-383.02 332.34,-383.97 324.68,-376.65 321.79,-383.02"/>
</g>
<!-- Node32 -->
<g id="node32" class="node">
<title>Node32</title>
<g id="a_node32"><a xlink:href="../../d5/d04/Scope_8cpp.html" target="_top" xlink:title=" ">
<polygon fill="white" stroke="#666666" points="448,-349 307,-349 307,-308 448,-308 448,-349"/>
<text text-anchor="start" x="315" y="-337" font-family="Helvetica,sans-Serif" font-size="10.00">/Users/fola/Documents</text>
<text text-anchor="start" x="315" y="-326" font-family="Helvetica,sans-Serif" font-size="10.00">/ArkScript/Ark/src/arkreactor</text>
<text text-anchor="middle" x="377.5" y="-315" font-family="Helvetica,sans-Serif" font-size="10.00">/VM/Scope.cpp</text>
</a>
</g>
</g>
<!-- Node31&#45;&gt;Node32 -->
<g id="edge51" class="edge">
<title>Node31&#45;&gt;Node32</title>
<path fill="none" stroke="#63b8ff" d="M377.5,-373.36C377.5,-365.24 377.5,-356.7 377.5,-349.33"/>
<polygon fill="#63b8ff" stroke="#63b8ff" points="374,-373.28 377.5,-383.28 381,-373.28 374,-373.28"/>
</g>
</g>
</svg>
