<?xml version="1.0" encoding="UTF-8" standalone="no"?>
<!DOCTYPE svg PUBLIC "-//W3C//DTD SVG 1.1//EN"
 "http://www.w3.org/Graphics/SVG/1.1/DTD/svg11.dtd">
<!-- Generated by graphviz version 10.0.1 (20240210.2158)
 -->
<!-- Title: /Users/fola/Documents/ArkScript/Ark/include/Ark/VM/Value.hpp Pages: 1 -->
<svg width="1297pt" height="516pt"
 viewBox="0.00 0.00 1296.50 516.25" xmlns="http://www.w3.org/2000/svg" xmlns:xlink="http://www.w3.org/1999/xlink">
<g id="graph0" class="graph" transform="scale(1 1) rotate(0) translate(4 512.25)">
<title>/Users/fola/Documents/ArkScript/Ark/include/Ark/VM/Value.hpp</title>
<!-- Node1 -->
<g id="node1" class="node">
<title>Node1</title>
<g id="a_node1"><a xlink:title=" ">
<polygon fill="#999999" stroke="#666666" points="651.88,-508.25 534.62,-508.25 534.62,-466.5 651.88,-466.5 651.88,-508.25"/>
<text text-anchor="start" x="542.62" y="-494.75" font-family="Helvetica,sans-Serif" font-size="10.00">/Users/fola/Documents</text>
<text text-anchor="start" x="542.62" y="-483.5" font-family="Helvetica,sans-Serif" font-size="10.00">/ArkScript/Ark/include</text>
<text text-anchor="middle" x="593.25" y="-472.25" font-family="Helvetica,sans-Serif" font-size="10.00">/Ark/VM/Value.hpp</text>
</a>
</g>
</g>
<!-- Node2 -->
<g id="node2" class="node">
<title>Node2</title>
<g id="a_node2"><a xlink:href="../../da/d84/Builtins_8hpp.html" target="_top" xlink:title="Host the declaration of all the ArkScript builtins.">
<polygon fill="white" stroke="#666666" points="912.88,-430.5 789.62,-430.5 789.62,-388.75 912.88,-388.75 912.88,-430.5"/>
<text text-anchor="start" x="797.62" y="-417" font-family="Helvetica,sans-Serif" font-size="10.00">/Users/fola/Documents</text>
<text text-anchor="start" x="797.62" y="-405.75" font-family="Helvetica,sans-Serif" font-size="10.00">/ArkScript/Ark/include</text>
<text text-anchor="middle" x="851.25" y="-394.5" font-family="Helvetica,sans-Serif" font-size="10.00">/Ark/Builtins/Builtins.hpp</text>
</a>
</g>
</g>
<!-- Node1&#45;&gt;Node2 -->
<g id="edge1" class="edge">
<title>Node1&#45;&gt;Node2</title>
<path fill="none" stroke="#63b8ff" d="M662.98,-465.9C702.46,-454.31 751.4,-439.94 789.49,-428.76"/>
<polygon fill="#63b8ff" stroke="#63b8ff" points="662.18,-462.49 653.57,-468.66 664.15,-469.21 662.18,-462.49"/>
</g>
<!-- Node3 -->
<g id="node3" class="node">
<title>Node3</title>
<g id="a_node3"><a xlink:href="../../d1/d91/VM_8hpp.html" target="_top" xlink:title="The ArkScript virtual machine.">
<polygon fill="white" stroke="#666666" points="651.88,-197.25 534.62,-197.25 534.62,-155.5 651.88,-155.5 651.88,-197.25"/>
<text text-anchor="start" x="542.62" y="-183.75" font-family="Helvetica,sans-Serif" font-size="10.00">/Users/fola/Documents</text>
<text text-anchor="start" x="542.62" y="-172.5" font-family="Helvetica,sans-Serif" font-size="10.00">/ArkScript/Ark/include</text>
<text text-anchor="middle" x="593.25" y="-161.25" font-family="Helvetica,sans-Serif" font-size="10.00">/Ark/VM/VM.hpp</text>
</a>
</g>
</g>
<!-- Node1&#45;&gt;Node3 -->
<g id="edge34" class="edge">
<title>Node1&#45;&gt;Node3</title>
<path fill="none" stroke="#63b8ff" d="M618.76,-457.25C639.33,-431.69 666.68,-392.48 678.25,-352.75 695.56,-293.3 644.68,-229.23 614.26,-197.52"/>
<polygon fill="#63b8ff" stroke="#63b8ff" points="616.15,-454.91 612.49,-464.86 621.55,-459.36 616.15,-454.91"/>
</g>
<!-- Node12 -->
<g id="node12" class="node">
<title>Node12</title>
<g id="a_node12"><a xlink:href="../../d1/db2/Closure_8cpp.html" target="_top" xlink:title=" ">
<polygon fill="white" stroke="#666666" points="370.5,-119.5 230,-119.5 230,-77.75 370.5,-77.75 370.5,-119.5"/>
<text text-anchor="start" x="238" y="-106" font-family="Helvetica,sans-Serif" font-size="10.00">/Users/fola/Documents</text>
<text text-anchor="start" x="238" y="-94.75" font-family="Helvetica,sans-Serif" font-size="10.00">/ArkScript/Ark/src/arkreactor</text>
<text text-anchor="middle" x="300.25" y="-83.5" font-family="Helvetica,sans-Serif" font-size="10.00">/VM/Value/Closure.cpp</text>
</a>
</g>
</g>
<!-- Node1&#45;&gt;Node12 -->
<g id="edge36" class="edge">
<title>Node1&#45;&gt;Node12</title>
<path fill="none" stroke="#63b8ff" d="M522.95,-484.59C423.92,-477.91 255.25,-449.42 255.25,-332.88 255.25,-332.88 255.25,-332.88 255.25,-253.12 255.25,-203.69 277.01,-148.79 290.26,-119.92"/>
<polygon fill="#63b8ff" stroke="#63b8ff" points="522.67,-488.08 532.86,-485.19 523.1,-481.09 522.67,-488.08"/>
</g>
<!-- Node16 -->
<g id="node16" class="node">
<title>Node16</title>
<g id="a_node16"><a xlink:href="../../db/d5e/TypeChecker_8hpp.html" target="_top" xlink:title=" ">
<polygon fill="white" stroke="#666666" points="831.88,-197.25 714.62,-197.25 714.62,-155.5 831.88,-155.5 831.88,-197.25"/>
<text text-anchor="start" x="722.62" y="-183.75" font-family="Helvetica,sans-Serif" font-size="10.00">/Users/fola/Documents</text>
<text text-anchor="start" x="722.62" y="-172.5" font-family="Helvetica,sans-Serif" font-size="10.00">/ArkScript/Ark/include</text>
<text text-anchor="middle" x="773.25" y="-161.25" font-family="Helvetica,sans-Serif" font-size="10.00">/Ark/TypeChecker.hpp</text>
</a>
</g>
</g>
<!-- Node1&#45;&gt;Node16 -->
<g id="edge15" class="edge">
<title>Node1&#45;&gt;Node16</title>
<path fill="none" stroke="#63b8ff" d="M635.98,-459.52C646.87,-451.21 657.85,-441.35 666.25,-430.5 724.66,-355.04 757.11,-242.99 768.51,-197.58"/>
<polygon fill="#63b8ff" stroke="#63b8ff" points="634.16,-456.52 628.14,-465.24 638.28,-462.18 634.16,-456.52"/>
</g>
<!-- Node18 -->
<g id="node18" class="node">
<title>Node18</title>
<g id="a_node18"><a xlink:href="../../db/df6/ExecutionContext_8hpp.html" target="_top" xlink:title="Keeping track of the internal data needed by the VM.">
<polygon fill="white" stroke="#666666" points="669.12,-352.75 517.38,-352.75 517.38,-311 669.12,-311 669.12,-352.75"/>
<text text-anchor="start" x="525.38" y="-339.25" font-family="Helvetica,sans-Serif" font-size="10.00">/Users/fola/Documents</text>
<text text-anchor="start" x="525.38" y="-328" font-family="Helvetica,sans-Serif" font-size="10.00">/ArkScript/Ark/include</text>
<text text-anchor="middle" x="593.25" y="-316.75" font-family="Helvetica,sans-Serif" font-size="10.00">/Ark/VM/ExecutionContext.hpp</text>
</a>
</g>
</g>
<!-- Node1&#45;&gt;Node18 -->
<g id="edge20" class="edge">
<title>Node1&#45;&gt;Node18</title>
<path fill="none" stroke="#63b8ff" d="M593.25,-455.01C593.25,-424.46 593.25,-378.92 593.25,-352.95"/>
<polygon fill="#63b8ff" stroke="#63b8ff" points="589.75,-454.79 593.25,-464.79 596.75,-454.79 589.75,-454.79"/>
</g>
<!-- Node19 -->
<g id="node19" class="node">
<title>Node19</title>
<g id="a_node19"><a xlink:href="../../d0/dda/Future_8hpp.html" target="_top" xlink:title=" ">
<polygon fill="white" stroke="#666666" points="557.88,-275 440.62,-275 440.62,-233.25 557.88,-233.25 557.88,-275"/>
<text text-anchor="start" x="448.62" y="-261.5" font-family="Helvetica,sans-Serif" font-size="10.00">/Users/fola/Documents</text>
<text text-anchor="start" x="448.62" y="-250.25" font-family="Helvetica,sans-Serif" font-size="10.00">/ArkScript/Ark/include</text>
<text text-anchor="middle" x="499.25" y="-239" font-family="Helvetica,sans-Serif" font-size="10.00">/Ark/VM/Future.hpp</text>
</a>
</g>
</g>
<!-- Node1&#45;&gt;Node19 -->
<g id="edge25" class="edge">
<title>Node1&#45;&gt;Node19</title>
<path fill="none" stroke="#63b8ff" d="M523.29,-478.68C483.73,-471.45 435.16,-457.48 399.25,-430.5 366.6,-405.96 361.58,-391.99 350.25,-352.75 345.1,-334.92 339.68,-326.25 350.25,-311 370.47,-281.82 407.93,-267.86 440.23,-261.19"/>
<polygon fill="#63b8ff" stroke="#63b8ff" points="522.52,-482.1 532.96,-480.33 523.69,-475.2 522.52,-482.1"/>
</g>
<!-- Node20 -->
<g id="node20" class="node">
<title>Node20</title>
<g id="a_node20"><a xlink:href="../../d8/dcd/Scope_8hpp.html" target="_top" xlink:title="The virtual machine scope system.">
<polygon fill="white" stroke="#666666" points="525.88,-430.5 408.62,-430.5 408.62,-388.75 525.88,-388.75 525.88,-430.5"/>
<text text-anchor="start" x="416.62" y="-417" font-family="Helvetica,sans-Serif" font-size="10.00">/Users/fola/Documents</text>
<text text-anchor="start" x="416.62" y="-405.75" font-family="Helvetica,sans-Serif" font-size="10.00">/ArkScript/Ark/include</text>
<text text-anchor="middle" x="467.25" y="-394.5" font-family="Helvetica,sans-Serif" font-size="10.00">/Ark/VM/Scope.hpp</text>
</a>
</g>
</g>
<!-- Node1&#45;&gt;Node20 -->
<g id="edge26" class="edge">
<title>Node1&#45;&gt;Node20</title>
<path fill="none" stroke="#63b8ff" d="M549.84,-460.28C533.89,-450.69 516.09,-439.99 501.11,-430.98"/>
<polygon fill="#63b8ff" stroke="#63b8ff" points="547.81,-463.14 558.19,-465.3 551.42,-457.14 547.81,-463.14"/>
</g>
<!-- Node22 -->
<g id="node22" class="node">
<title>Node22</title>
<g id="a_node22"><a xlink:href="../../d0/db5/State_8hpp.html" target="_top" xlink:title="State used by the virtual machine: it loads the bytecode, can compile it if needed,...">
<polygon fill="white" stroke="#666666" points="226.88,-275 109.62,-275 109.62,-233.25 226.88,-233.25 226.88,-275"/>
<text text-anchor="start" x="117.62" y="-261.5" font-family="Helvetica,sans-Serif" font-size="10.00">/Users/fola/Documents</text>
<text text-anchor="start" x="117.62" y="-250.25" font-family="Helvetica,sans-Serif" font-size="10.00">/ArkScript/Ark/include</text>
<text text-anchor="middle" x="168.25" y="-239" font-family="Helvetica,sans-Serif" font-size="10.00">/Ark/VM/State.hpp</text>
</a>
</g>
</g>
<!-- Node1&#45;&gt;Node22 -->
<g id="edge30" class="edge">
<title>Node1&#45;&gt;Node22</title>
<path fill="none" stroke="#63b8ff" d="M522.72,-483.2C432.79,-477.81 283.81,-464 241.25,-430.5 191.63,-391.44 175.4,-312.68 170.37,-275.47"/>
<polygon fill="#63b8ff" stroke="#63b8ff" points="522.5,-486.69 532.69,-483.77 522.9,-479.7 522.5,-486.69"/>
</g>
<!-- Node24 -->
<g id="node24" class="node">
<title>Node24</title>
<g id="a_node24"><a xlink:href="../../d1/d74/Value_8cpp.html" target="_top" xlink:title=" ">
<polygon fill="white" stroke="#666666" points="1071.5,-430.5 931,-430.5 931,-388.75 1071.5,-388.75 1071.5,-430.5"/>
<text text-anchor="start" x="939" y="-417" font-family="Helvetica,sans-Serif" font-size="10.00">/Users/fola/Documents</text>
<text text-anchor="start" x="939" y="-405.75" font-family="Helvetica,sans-Serif" font-size="10.00">/ArkScript/Ark/src/arkreactor</text>
<text text-anchor="middle" x="1001.25" y="-394.5" font-family="Helvetica,sans-Serif" font-size="10.00">/VM/Value.cpp</text>
</a>
</g>
</g>
<!-- Node1&#45;&gt;Node24 -->
<g id="edge35" class="edge">
<title>Node1&#45;&gt;Node24</title>
<path fill="none" stroke="#63b8ff" d="M663.57,-476.06C730.39,-465.88 833.55,-449.16 922.25,-430.5 925.02,-429.92 927.84,-429.31 930.68,-428.67"/>
<polygon fill="#63b8ff" stroke="#63b8ff" points="663.21,-472.58 653.85,-477.54 664.26,-479.5 663.21,-472.58"/>
</g>
<!-- Node2&#45;&gt;Node3 -->
<g id="edge2" class="edge">
<title>Node2&#45;&gt;Node3</title>
<path fill="none" stroke="#63b8ff" d="M819.47,-380.92C810.28,-372.28 800.5,-362.46 792.25,-352.75 750.71,-303.85 759.96,-275.01 711.25,-233.25 693.87,-218.35 671.84,-206.51 651.53,-197.63"/>
<polygon fill="#63b8ff" stroke="#63b8ff" points="816.85,-383.26 826.58,-387.46 821.59,-378.11 816.85,-383.26"/>
</g>
<!-- Node13 -->
<g id="node13" class="node">
<title>Node13</title>
<g id="a_node13"><a xlink:href="../../d5/d36/BytecodeReader_8cpp.html" target="_top" xlink:title=" ">
<polygon fill="white" stroke="#666666" points="953.12,-352.75 801.38,-352.75 801.38,-311 953.12,-311 953.12,-352.75"/>
<text text-anchor="start" x="809.38" y="-339.25" font-family="Helvetica,sans-Serif" font-size="10.00">/Users/fola/Documents</text>
<text text-anchor="start" x="809.38" y="-328" font-family="Helvetica,sans-Serif" font-size="10.00">/ArkScript/Ark/src/arkreactor</text>
<text text-anchor="middle" x="877.25" y="-316.75" font-family="Helvetica,sans-Serif" font-size="10.00">/Compiler/BytecodeReader.cpp</text>
</a>
</g>
</g>
<!-- Node2&#45;&gt;Node13 -->
<g id="edge12" class="edge">
<title>Node2&#45;&gt;Node13</title>
<path fill="none" stroke="#63b8ff" d="M861.91,-377.56C864.73,-369.36 867.7,-360.71 870.26,-353.23"/>
<polygon fill="#63b8ff" stroke="#63b8ff" points="858.64,-376.3 858.71,-386.89 865.27,-378.57 858.64,-376.3"/>
</g>
<!-- Node14 -->
<g id="node14" class="node">
<title>Node14</title>
<g id="a_node14"><a xlink:href="../../de/dfa/Compiler_8cpp.html" target="_top" xlink:title=" ">
<polygon fill="white" stroke="#666666" points="1111.5,-352.75 971,-352.75 971,-311 1111.5,-311 1111.5,-352.75"/>
<text text-anchor="start" x="979" y="-339.25" font-family="Helvetica,sans-Serif" font-size="10.00">/Users/fola/Documents</text>
<text text-anchor="start" x="979" y="-328" font-family="Helvetica,sans-Serif" font-size="10.00">/ArkScript/Ark/src/arkreactor</text>
<text text-anchor="middle" x="1041.25" y="-316.75" font-family="Helvetica,sans-Serif" font-size="10.00">/Compiler/Compiler.cpp</text>
</a>
</g>
</g>
<!-- Node2&#45;&gt;Node14 -->
<g id="edge13" class="edge">
<title>Node2&#45;&gt;Node14</title>
<path fill="none" stroke="#63b8ff" d="M912.66,-384.14C937.7,-374.16 966.32,-362.75 990.19,-353.23"/>
<polygon fill="#63b8ff" stroke="#63b8ff" points="911.57,-380.81 903.57,-387.76 914.16,-387.31 911.57,-380.81"/>
</g>
<!-- Node15 -->
<g id="node15" class="node">
<title>Node15</title>
<g id="a_node15"><a xlink:href="../../d6/d69/Processor_8cpp.html" target="_top" xlink:title=" ">
<polygon fill="white" stroke="#666666" points="1288.5,-352.75 1130,-352.75 1130,-311 1288.5,-311 1288.5,-352.75"/>
<text text-anchor="start" x="1138" y="-339.25" font-family="Helvetica,sans-Serif" font-size="10.00">/Users/fola/Documents</text>
<text text-anchor="start" x="1138" y="-328" font-family="Helvetica,sans-Serif" font-size="10.00">/ArkScript/Ark/src/arkreactor</text>
<text text-anchor="middle" x="1209.25" y="-316.75" font-family="Helvetica,sans-Serif" font-size="10.00">/Compiler/Macros/Processor.cpp</text>
</a>
</g>
</g>
<!-- Node2&#45;&gt;Node15 -->
<g id="edge14" class="edge">
<title>Node2&#45;&gt;Node15</title>
<path fill="none" stroke="#63b8ff" d="M924.34,-388.38C1011.37,-368.79 1036.1,-369.79 1120.25,-352.75 1123.35,-352.12 1126.52,-351.47 1129.71,-350.8"/>
<polygon fill="#63b8ff" stroke="#63b8ff" points="923.57,-384.97 914.59,-390.6 925.12,-391.79 923.57,-384.97"/>
</g>
<!-- Node4 -->
<g id="node4" class="node">
<title>Node4</title>
<g id="a_node4"><a xlink:href="../../d3/d7e/Ark_8hpp.html" target="_top" xlink:title="Includes the needed files to start using ArkScript.">
<polygon fill="white" stroke="#666666" points="958.88,-119.5 841.62,-119.5 841.62,-77.75 958.88,-77.75 958.88,-119.5"/>
<text text-anchor="start" x="849.62" y="-106" font-family="Helvetica,sans-Serif" font-size="10.00">/Users/fola/Documents</text>
<text text-anchor="start" x="849.62" y="-94.75" font-family="Helvetica,sans-Serif" font-size="10.00">/ArkScript/Ark/include</text>
<text text-anchor="middle" x="900.25" y="-83.5" font-family="Helvetica,sans-Serif" font-size="10.00">/Ark/Ark.hpp</text>
</a>
</g>
</g>
<!-- Node3&#45;&gt;Node4 -->
<g id="edge3" class="edge">
<title>Node3&#45;&gt;Node4</title>
<path fill="none" stroke="#63b8ff" d="M663.07,-160.11C710.86,-149.4 775.59,-134.39 832.25,-119.5 835.22,-118.72 838.27,-117.9 841.33,-117.06"/>
<polygon fill="#63b8ff" stroke="#63b8ff" points="662.39,-156.68 653.39,-162.27 663.91,-163.51 662.39,-156.68"/>
</g>
<!-- Node6 -->
<g id="node6" class="node">
<title>Node6</title>
<g id="a_node6"><a xlink:href="../../d5/d44/Module_8hpp.html" target="_top" xlink:title=" ">
<polygon fill="white" stroke="#666666" points="664.88,-119.5 547.62,-119.5 547.62,-77.75 664.88,-77.75 664.88,-119.5"/>
<text text-anchor="start" x="555.62" y="-106" font-family="Helvetica,sans-Serif" font-size="10.00">/Users/fola/Documents</text>
<text text-anchor="start" x="555.62" y="-94.75" font-family="Helvetica,sans-Serif" font-size="10.00">/ArkScript/Ark/include</text>
<text text-anchor="middle" x="606.25" y="-83.5" font-family="Helvetica,sans-Serif" font-size="10.00">/Ark/Module.hpp</text>
</a>
</g>
</g>
<!-- Node3&#45;&gt;Node6 -->
<g id="edge5" class="edge">
<title>Node3&#45;&gt;Node6</title>
<path fill="none" stroke="#63b8ff" d="M598.68,-143.75C600.06,-135.71 601.5,-127.29 602.76,-119.98"/>
<polygon fill="#63b8ff" stroke="#63b8ff" points="595.23,-143.14 596.99,-153.58 602.13,-144.32 595.23,-143.14"/>
</g>
<!-- Node7 -->
<g id="node7" class="node">
<title>Node7</title>
<g id="a_node7"><a xlink:href="../../d5/da5/Repl_8hpp.html" target="_top" xlink:title="ArkScript REPL &#45; Read Eval Print Loop.">
<polygon fill="white" stroke="#666666" points="211.88,-119.5 94.62,-119.5 94.62,-77.75 211.88,-77.75 211.88,-119.5"/>
<text text-anchor="start" x="102.62" y="-106" font-family="Helvetica,sans-Serif" font-size="10.00">/Users/fola/Documents</text>
<text text-anchor="start" x="102.62" y="-94.75" font-family="Helvetica,sans-Serif" font-size="10.00">/ArkScript/Ark/include</text>
<text text-anchor="middle" x="153.25" y="-83.5" font-family="Helvetica,sans-Serif" font-size="10.00">/CLI/REPL/Repl.hpp</text>
</a>
</g>
</g>
<!-- Node3&#45;&gt;Node7 -->
<g id="edge6" class="edge">
<title>Node3&#45;&gt;Node7</title>
<path fill="none" stroke="#63b8ff" d="M522.97,-167.69C447.79,-158.81 325.29,-142.41 221.25,-119.5 218.25,-118.84 215.18,-118.12 212.1,-117.35"/>
<polygon fill="#63b8ff" stroke="#63b8ff" points="522.33,-171.14 532.67,-168.83 523.14,-164.19 522.33,-171.14"/>
</g>
<!-- Node10 -->
<g id="node10" class="node">
<title>Node10</title>
<g id="a_node10"><a xlink:href="../../d4/dc9/Future_8cpp.html" target="_top" xlink:title=" ">
<polygon fill="white" stroke="#666666" points="529.5,-119.5 389,-119.5 389,-77.75 529.5,-77.75 529.5,-119.5"/>
<text text-anchor="start" x="397" y="-106" font-family="Helvetica,sans-Serif" font-size="10.00">/Users/fola/Documents</text>
<text text-anchor="start" x="397" y="-94.75" font-family="Helvetica,sans-Serif" font-size="10.00">/ArkScript/Ark/src/arkreactor</text>
<text text-anchor="middle" x="459.25" y="-83.5" font-family="Helvetica,sans-Serif" font-size="10.00">/VM/Future.cpp</text>
</a>
</g>
</g>
<!-- Node3&#45;&gt;Node10 -->
<g id="edge9" class="edge">
<title>Node3&#45;&gt;Node10</title>
<path fill="none" stroke="#63b8ff" d="M547.56,-149.55C530.48,-139.89 511.34,-129.07 495.26,-119.98"/>
<polygon fill="#63b8ff" stroke="#63b8ff" points="545.6,-152.46 556.02,-154.33 549.04,-146.36 545.6,-152.46"/>
</g>
<!-- Node11 -->
<g id="node11" class="node">
<title>Node11</title>
<g id="a_node11"><a xlink:href="../../d2/d27/VM_8cpp.html" target="_top" xlink:title=" ">
<polygon fill="white" stroke="#666666" points="823.5,-119.5 683,-119.5 683,-77.75 823.5,-77.75 823.5,-119.5"/>
<text text-anchor="start" x="691" y="-106" font-family="Helvetica,sans-Serif" font-size="10.00">/Users/fola/Documents</text>
<text text-anchor="start" x="691" y="-94.75" font-family="Helvetica,sans-Serif" font-size="10.00">/ArkScript/Ark/src/arkreactor</text>
<text text-anchor="middle" x="753.25" y="-83.5" font-family="Helvetica,sans-Serif" font-size="10.00">/VM/VM.cpp</text>
</a>
</g>
</g>
<!-- Node3&#45;&gt;Node11 -->
<g id="edge10" class="edge">
<title>Node3&#45;&gt;Node11</title>
<path fill="none" stroke="#63b8ff" d="M646.38,-150.22C667.13,-140.4 690.6,-129.29 710.25,-119.98"/>
<polygon fill="#63b8ff" stroke="#63b8ff" points="645.04,-146.99 637.5,-154.43 648.03,-153.31 645.04,-146.99"/>
</g>
<!-- Node3&#45;&gt;Node12 -->
<g id="edge11" class="edge">
<title>Node3&#45;&gt;Node12</title>
<path fill="none" stroke="#63b8ff" d="M523.22,-157.27C477.19,-145.37 417.16,-129.85 370.98,-117.91"/>
<polygon fill="#63b8ff" stroke="#63b8ff" points="522.29,-160.64 532.84,-159.76 524.04,-153.87 522.29,-160.64"/>
</g>
<!-- Node5 -->
<g id="node5" class="node">
<title>Node5</title>
<g id="a_node5"><a xlink:href="../../dc/d32/Ark_8cpp.html" target="_top" xlink:title=" ">
<polygon fill="white" stroke="#666666" points="970.5,-41.75 830,-41.75 830,0 970.5,0 970.5,-41.75"/>
<text text-anchor="start" x="838" y="-28.25" font-family="Helvetica,sans-Serif" font-size="10.00">/Users/fola/Documents</text>
<text text-anchor="start" x="838" y="-17" font-family="Helvetica,sans-Serif" font-size="10.00">/ArkScript/Ark/src/arkreactor</text>
<text text-anchor="middle" x="900.25" y="-5.75" font-family="Helvetica,sans-Serif" font-size="10.00">/Ark.cpp</text>
</a>
</g>
</g>
<!-- Node4&#45;&gt;Node5 -->
<g id="edge4" class="edge">
<title>Node4&#45;&gt;Node5</title>
<path fill="none" stroke="#63b8ff" d="M900.25,-66C900.25,-57.96 900.25,-49.54 900.25,-42.23"/>
<polygon fill="#63b8ff" stroke="#63b8ff" points="896.75,-65.81 900.25,-75.81 903.75,-65.81 896.75,-65.81"/>
</g>
<!-- Node8 -->
<g id="node8" class="node">
<title>Node8</title>
<g id="a_node8"><a xlink:href="../../d7/d46/Repl_8cpp.html" target="_top" xlink:title=" ">
<polygon fill="white" stroke="#666666" points="297.5,-41.75 163,-41.75 163,0 297.5,0 297.5,-41.75"/>
<text text-anchor="start" x="171" y="-28.25" font-family="Helvetica,sans-Serif" font-size="10.00">/Users/fola/Documents</text>
<text text-anchor="start" x="171" y="-17" font-family="Helvetica,sans-Serif" font-size="10.00">/ArkScript/Ark/src/arkscript</text>
<text text-anchor="middle" x="230.25" y="-5.75" font-family="Helvetica,sans-Serif" font-size="10.00">/REPL/Repl.cpp</text>
</a>
</g>
</g>
<!-- Node7&#45;&gt;Node8 -->
<g id="edge7" class="edge">
<title>Node7&#45;&gt;Node8</title>
<path fill="none" stroke="#63b8ff" d="M182,-69.34C191.16,-60.34 201.09,-50.56 209.56,-42.23"/>
<polygon fill="#63b8ff" stroke="#63b8ff" points="179.64,-66.76 174.96,-76.26 184.55,-71.75 179.64,-66.76"/>
</g>
<!-- Node9 -->
<g id="node9" class="node">
<title>Node9</title>
<g id="a_node9"><a xlink:href="../../df/d0a/main_8cpp.html" target="_top" xlink:title=" ">
<polygon fill="white" stroke="#666666" points="144.5,-41.75 10,-41.75 10,0 144.5,0 144.5,-41.75"/>
<text text-anchor="start" x="18" y="-28.25" font-family="Helvetica,sans-Serif" font-size="10.00">/Users/fola/Documents</text>
<text text-anchor="start" x="18" y="-17" font-family="Helvetica,sans-Serif" font-size="10.00">/ArkScript/Ark/src/arkscript</text>
<text text-anchor="middle" x="77.25" y="-5.75" font-family="Helvetica,sans-Serif" font-size="10.00">/main.cpp</text>
</a>
</g>
</g>
<!-- Node7&#45;&gt;Node9 -->
<g id="edge8" class="edge">
<title>Node7&#45;&gt;Node9</title>
<path fill="none" stroke="#63b8ff" d="M124.87,-69.34C115.84,-60.34 106.03,-50.56 97.67,-42.23"/>
<polygon fill="#63b8ff" stroke="#63b8ff" points="122.26,-71.68 131.81,-76.26 127.2,-66.72 122.26,-71.68"/>
</g>
<!-- Node16&#45;&gt;Node4 -->
<g id="edge16" class="edge">
<title>Node16&#45;&gt;Node4</title>
<path fill="none" stroke="#63b8ff" d="M817.01,-149.28C833.08,-139.69 851.02,-128.99 866.12,-119.98"/>
<polygon fill="#63b8ff" stroke="#63b8ff" points="815.38,-146.17 808.58,-154.3 818.96,-152.18 815.38,-146.17"/>
</g>
<!-- Node16&#45;&gt;Node6 -->
<g id="edge17" class="edge">
<title>Node16&#45;&gt;Node6</title>
<path fill="none" stroke="#63b8ff" d="M718.09,-150.36C696.37,-140.5 671.73,-129.33 651.13,-119.98"/>
<polygon fill="#63b8ff" stroke="#63b8ff" points="716.57,-153.51 727.12,-154.45 719.46,-147.13 716.57,-153.51"/>
</g>
<!-- Node16&#45;&gt;Node11 -->
<g id="edge19" class="edge">
<title>Node16&#45;&gt;Node11</title>
<path fill="none" stroke="#63b8ff" d="M764.97,-144.03C762.83,-135.91 760.58,-127.37 758.62,-119.98"/>
<polygon fill="#63b8ff" stroke="#63b8ff" points="761.57,-144.84 767.5,-153.61 768.34,-143.05 761.57,-144.84"/>
</g>
<!-- Node17 -->
<g id="node17" class="node">
<title>Node17</title>
<g id="a_node17"><a xlink:href="../../d6/d9a/TypeChecker_8cpp.html" target="_top" xlink:title=" ">
<polygon fill="white" stroke="#666666" points="1117.5,-119.5 977,-119.5 977,-77.75 1117.5,-77.75 1117.5,-119.5"/>
<text text-anchor="start" x="985" y="-106" font-family="Helvetica,sans-Serif" font-size="10.00">/Users/fola/Documents</text>
<text text-anchor="start" x="985" y="-94.75" font-family="Helvetica,sans-Serif" font-size="10.00">/ArkScript/Ark/src/arkreactor</text>
<text text-anchor="middle" x="1047.25" y="-83.5" font-family="Helvetica,sans-Serif" font-size="10.00">/TypeChecker.cpp</text>
</a>
</g>
</g>
<!-- Node16&#45;&gt;Node17 -->
<g id="edge18" class="edge">
<title>Node16&#45;&gt;Node17</title>
<path fill="none" stroke="#63b8ff" d="M843.33,-156C884.2,-144.7 935.61,-130.49 976.58,-119.16"/>
<polygon fill="#63b8ff" stroke="#63b8ff" points="842.53,-152.59 833.83,-158.63 844.4,-159.34 842.53,-152.59"/>
</g>
<!-- Node18&#45;&gt;Node3 -->
<g id="edge24" class="edge">
<title>Node18&#45;&gt;Node3</title>
<path fill="none" stroke="#63b8ff" d="M593.25,-299.51C593.25,-268.96 593.25,-223.42 593.25,-197.45"/>
<polygon fill="#63b8ff" stroke="#63b8ff" points="589.75,-299.29 593.25,-309.29 596.75,-299.29 589.75,-299.29"/>
</g>
<!-- Node18&#45;&gt;Node19 -->
<g id="edge21" class="edge">
<title>Node18&#45;&gt;Node19</title>
<path fill="none" stroke="#63b8ff" d="M559.17,-303.41C547.72,-294.19 535.16,-284.06 524.51,-275.48"/>
<polygon fill="#63b8ff" stroke="#63b8ff" points="556.9,-306.08 566.88,-309.63 561.29,-300.63 556.9,-306.08"/>
</g>
<!-- Node19&#45;&gt;Node3 -->
<g id="edge22" class="edge">
<title>Node19&#45;&gt;Node3</title>
<path fill="none" stroke="#63b8ff" d="M533.33,-225.66C544.78,-216.44 557.34,-206.31 567.99,-197.73"/>
<polygon fill="#63b8ff" stroke="#63b8ff" points="531.21,-222.88 525.62,-231.88 535.6,-228.33 531.21,-222.88"/>
</g>
<!-- Node19&#45;&gt;Node10 -->
<g id="edge23" class="edge">
<title>Node19&#45;&gt;Node10</title>
<path fill="none" stroke="#63b8ff" d="M491.18,-222.17C483.22,-191.61 471.28,-145.79 464.48,-119.7"/>
<polygon fill="#63b8ff" stroke="#63b8ff" points="487.73,-222.8 493.64,-231.59 494.5,-221.03 487.73,-222.8"/>
</g>
<!-- Node20&#45;&gt;Node12 -->
<g id="edge29" class="edge">
<title>Node20&#45;&gt;Node12</title>
<path fill="none" stroke="#63b8ff" d="M397.78,-388.17C379.93,-379.83 362.37,-368.36 350.25,-352.75 295.04,-281.63 295.7,-166.15 298.54,-119.81"/>
<polygon fill="#63b8ff" stroke="#63b8ff" points="396.32,-391.35 406.89,-392.12 399.11,-384.93 396.32,-391.35"/>
</g>
<!-- Node20&#45;&gt;Node18 -->
<g id="edge27" class="edge">
<title>Node20&#45;&gt;Node18</title>
<path fill="none" stroke="#63b8ff" d="M510.66,-382.53C526.61,-372.94 544.41,-362.24 559.39,-353.23"/>
<polygon fill="#63b8ff" stroke="#63b8ff" points="509.08,-379.39 502.31,-387.55 512.69,-385.39 509.08,-379.39"/>
</g>
<!-- Node21 -->
<g id="node21" class="node">
<title>Node21</title>
<g id="a_node21"><a xlink:href="../../d5/d04/Scope_8cpp.html" target="_top" xlink:title=" ">
<polygon fill="white" stroke="#666666" points="499.5,-352.75 359,-352.75 359,-311 499.5,-311 499.5,-352.75"/>
<text text-anchor="start" x="367" y="-339.25" font-family="Helvetica,sans-Serif" font-size="10.00">/Users/fola/Documents</text>
<text text-anchor="start" x="367" y="-328" font-family="Helvetica,sans-Serif" font-size="10.00">/ArkScript/Ark/src/arkreactor</text>
<text text-anchor="middle" x="429.25" y="-316.75" font-family="Helvetica,sans-Serif" font-size="10.00">/VM/Scope.cpp</text>
</a>
</g>
</g>
<!-- Node20&#45;&gt;Node21 -->
<g id="edge28" class="edge">
<title>Node20&#45;&gt;Node21</title>
<path fill="none" stroke="#63b8ff" d="M451.95,-378.12C447.75,-369.75 443.3,-360.88 439.46,-353.23"/>
<polygon fill="#63b8ff" stroke="#63b8ff" points="448.78,-379.6 456.39,-386.97 455.03,-376.46 448.78,-379.6"/>
</g>
<!-- Node22&#45;&gt;Node3 -->
<g id="edge31" class="edge">
<title>Node22&#45;&gt;Node3</title>
<path fill="none" stroke="#63b8ff" d="M238.65,-240.58C321.32,-225.84 456.96,-201.67 534.32,-187.88"/>
<polygon fill="#63b8ff" stroke="#63b8ff" points="238.07,-237.13 228.83,-242.33 239.29,-244.02 238.07,-237.13"/>
</g>
<!-- Node22&#45;&gt;Node7 -->
<g id="edge32" class="edge">
<title>Node22&#45;&gt;Node7</title>
<path fill="none" stroke="#63b8ff" d="M165.19,-221.76C162.2,-191.21 157.75,-145.67 155.21,-119.7"/>
<polygon fill="#63b8ff" stroke="#63b8ff" points="161.69,-221.94 166.14,-231.55 168.65,-221.26 161.69,-221.94"/>
</g>
<!-- Node23 -->
<g id="node23" class="node">
<title>Node23</title>
<g id="a_node23"><a xlink:href="../../d0/da0/State_8cpp.html" target="_top" xlink:title=" ">
<polygon fill="white" stroke="#666666" points="140.5,-197.25 0,-197.25 0,-155.5 140.5,-155.5 140.5,-197.25"/>
<text text-anchor="start" x="8" y="-183.75" font-family="Helvetica,sans-Serif" font-size="10.00">/Users/fola/Documents</text>
<text text-anchor="start" x="8" y="-172.5" font-family="Helvetica,sans-Serif" font-size="10.00">/ArkScript/Ark/src/arkreactor</text>
<text text-anchor="middle" x="70.25" y="-161.25" font-family="Helvetica,sans-Serif" font-size="10.00">/VM/State.cpp</text>
</a>
</g>
</g>
<!-- Node22&#45;&gt;Node23 -->
<g id="edge33" class="edge">
<title>Node22&#45;&gt;Node23</title>
<path fill="none" stroke="#63b8ff" d="M133.08,-225.94C121.04,-216.64 107.8,-206.4 96.58,-197.73"/>
<polygon fill="#63b8ff" stroke="#63b8ff" points="130.74,-228.55 140.79,-231.9 135.02,-223.01 130.74,-228.55"/>
</g>
</g>
</svg>
