<?xml version="1.0" encoding="UTF-8" standalone="no"?>
<!DOCTYPE svg PUBLIC "-//W3C//DTD SVG 1.1//EN"
 "http://www.w3.org/Graphics/SVG/1.1/DTD/svg11.dtd">
<!-- Generated by graphviz version 12.1.1 (20240910.0053)
 -->
<!-- Title: Ark::Error Pages: 1 -->
<svg width="440pt" height="193pt"
 viewBox="0.00 0.00 439.62 193.00" xmlns="http://www.w3.org/2000/svg" xmlns:xlink="http://www.w3.org/1999/xlink">
<g id="graph0" class="graph" transform="scale(1 1) rotate(0) translate(4 189)">
<title>Ark::Error</title>
<!-- Node1 -->
<g id="Node000001" class="node">
<title>Node1</title>
<g id="a_Node000001"><a xlink:title=" ">
<polygon fill="#999999" stroke="#666666" points="241.25,-74.5 183.25,-74.5 183.25,-55.25 241.25,-55.25 241.25,-74.5"/>
<text text-anchor="middle" x="212.25" y="-61" font-family="Helvetica,sans-Serif" font-size="10.00">Ark::Error</text>
</a>
</g>
</g>
<!-- Node4 -->
<g id="Node000004" class="node">
<title>Node4</title>
<g id="a_Node000004"><a xlink:href="../../d3/df9/classArk_1_1AssertionFailed.html" target="_top" xlink:title="An assertion error, only triggered from ArkScript code through (assert expr error&#45;message)">
<polygon fill="white" stroke="#666666" points="104.5,-19.25 0,-19.25 0,0 104.5,0 104.5,-19.25"/>
<text text-anchor="middle" x="52.25" y="-5.75" font-family="Helvetica,sans-Serif" font-size="10.00">Ark::AssertionFailed</text>
</a>
</g>
</g>
<!-- Node1&#45;&gt;Node4 -->
<g id="edge3_Node000001_Node000004" class="edge">
<title>Node1&#45;&gt;Node4</title>
<g id="a_edge3_Node000001_Node000004"><a xlink:title=" ">
<path fill="none" stroke="#63b8ff" d="M174.49,-51.31C145.33,-41.6 105.66,-28.4 79.52,-19.7"/>
<polygon fill="#63b8ff" stroke="#63b8ff" points="173.08,-54.53 183.67,-54.36 175.29,-47.89 173.08,-54.53"/>
</a>
</g>
</g>
<!-- Node5 -->
<g id="Node000005" class="node">
<title>Node5</title>
<g id="a_Node000005"><a xlink:href="../../d4/d0b/structArk_1_1CodeError.html" target="_top" xlink:title="CodeError thrown by the compiler (parser, macro processor, optimizer, and compiler itself)">
<polygon fill="white" stroke="#666666" points="203.88,-19.25 122.62,-19.25 122.62,0 203.88,0 203.88,-19.25"/>
<text text-anchor="middle" x="163.25" y="-5.75" font-family="Helvetica,sans-Serif" font-size="10.00">Ark::CodeError</text>
</a>
</g>
</g>
<!-- Node1&#45;&gt;Node5 -->
<g id="edge4_Node000001_Node000005" class="edge">
<title>Node1&#45;&gt;Node5</title>
<g id="a_edge4_Node000001_Node000005"><a xlink:title=" ">
<path fill="none" stroke="#63b8ff" d="M196.53,-46.79C188.21,-37.75 178.34,-27.02 171.52,-19.61"/>
<polygon fill="#63b8ff" stroke="#63b8ff" points="193.79,-48.98 203.13,-53.97 198.94,-44.24 193.79,-48.98"/>
</a>
</g>
</g>
<!-- Node6 -->
<g id="Node000006" class="node">
<title>Node6</title>
<g id="a_Node000006"><a xlink:href="../../d2/d26/classArk_1_1TypeError.html" target="_top" xlink:title="A type error triggered when types don&#39;t match.">
<polygon fill="white" stroke="#666666" points="300.75,-19.25 221.75,-19.25 221.75,0 300.75,0 300.75,-19.25"/>
<text text-anchor="middle" x="261.25" y="-5.75" font-family="Helvetica,sans-Serif" font-size="10.00">Ark::TypeError</text>
</a>
</g>
</g>
<!-- Node1&#45;&gt;Node6 -->
<g id="edge5_Node000001_Node000006" class="edge">
<title>Node1&#45;&gt;Node6</title>
<g id="a_edge5_Node000001_Node000006"><a xlink:title=" ">
<path fill="none" stroke="#63b8ff" d="M227.97,-46.79C236.29,-37.75 246.16,-27.02 252.98,-19.61"/>
<polygon fill="#63b8ff" stroke="#63b8ff" points="225.56,-44.24 221.37,-53.97 230.71,-48.98 225.56,-44.24"/>
</a>
</g>
</g>
<!-- Node7 -->
<g id="Node000007" class="node">
<title>Node7</title>
<g id="a_Node000007"><a xlink:href="../../da/d18/classArk_1_1ZeroDivisionError.html" target="_top" xlink:title="A special zero division error triggered when a number is divided by 0.">
<polygon fill="white" stroke="#666666" points="431.62,-19.25 318.88,-19.25 318.88,0 431.62,0 431.62,-19.25"/>
<text text-anchor="middle" x="375.25" y="-5.75" font-family="Helvetica,sans-Serif" font-size="10.00">Ark::ZeroDivisionError</text>
</a>
</g>
</g>
<!-- Node1&#45;&gt;Node7 -->
<g id="edge6_Node000001_Node000007" class="edge">
<title>Node1&#45;&gt;Node7</title>
<g id="a_edge6_Node000001_Node000007"><a xlink:title=" ">
<path fill="none" stroke="#63b8ff" d="M250.71,-51.31C280.43,-41.6 320.84,-28.4 347.46,-19.7"/>
<polygon fill="#63b8ff" stroke="#63b8ff" points="249.76,-47.94 241.34,-54.37 251.93,-54.59 249.76,-47.94"/>
</a>
</g>
</g>
<!-- Node2 -->
<g id="Node000002" class="node">
<title>Node2</title>
<g id="a_Node000002"><a xlink:title=" ">
<polygon fill="white" stroke="#666666" points="258.5,-129.75 166,-129.75 166,-110.5 258.5,-110.5 258.5,-129.75"/>
<text text-anchor="middle" x="212.25" y="-116.25" font-family="Helvetica,sans-Serif" font-size="10.00">std::runtime_error</text>
</a>
</g>
</g>
<!-- Node2&#45;&gt;Node1 -->
<g id="edge1_Node000001_Node000002" class="edge">
<title>Node2&#45;&gt;Node1</title>
<g id="a_edge1_Node000001_Node000002"><a xlink:title=" ">
<path fill="none" stroke="#63b8ff" d="M212.25,-98.88C212.25,-90.59 212.25,-81.42 212.25,-74.86"/>
<polygon fill="#63b8ff" stroke="#63b8ff" points="208.75,-98.82 212.25,-108.82 215.75,-98.82 208.75,-98.82"/>
</a>
</g>
</g>
<!-- Node3 -->
<g id="Node000003" class="node">
<title>Node3</title>
<g id="a_Node000003"><a xlink:title=" ">
<polygon fill="white" stroke="#666666" points="251,-185 173.5,-185 173.5,-165.75 251,-165.75 251,-185"/>
<text text-anchor="middle" x="212.25" y="-171.5" font-family="Helvetica,sans-Serif" font-size="10.00">std::exception</text>
</a>
</g>
</g>
<!-- Node3&#45;&gt;Node2 -->
<g id="edge2_Node000002_Node000003" class="edge">
<title>Node3&#45;&gt;Node2</title>
<g id="a_edge2_Node000002_Node000003"><a xlink:title=" ">
<path fill="none" stroke="#63b8ff" d="M212.25,-154.13C212.25,-145.84 212.25,-136.67 212.25,-130.11"/>
<polygon fill="#63b8ff" stroke="#63b8ff" points="208.75,-154.07 212.25,-164.07 215.75,-154.07 208.75,-154.07"/>
</a>
</g>
</g>
</g>
</svg>
