<?xml version="1.0" encoding="UTF-8" standalone="no"?>
<!DOCTYPE svg PUBLIC "-//W3C//DTD SVG 1.1//EN"
 "http://www.w3.org/Graphics/SVG/1.1/DTD/svg11.dtd">
<!-- Generated by graphviz version 10.0.1 (20240210.2158)
 -->
<!-- Title: Ark::internal::IsSymbol Pages: 1 -->
<svg width="124pt" height="218pt"
 viewBox="0.00 0.00 123.75 217.50" xmlns="http://www.w3.org/2000/svg" xmlns:xlink="http://www.w3.org/1999/xlink">
<g id="graph0" class="graph" transform="scale(1 1) rotate(0) translate(4 213.5)">
<title>Ark::internal::IsSymbol</title>
<!-- Node1 -->
<g id="node1" class="node">
<title>Node1</title>
<g id="a_node1"><a xlink:title=" ">
<polygon fill="#999999" stroke="#666666" points="115.75,-19.25 0,-19.25 0,0 115.75,0 115.75,-19.25"/>
<text text-anchor="middle" x="57.88" y="-5.75" font-family="Helvetica,sans-Serif" font-size="10.00">Ark::internal::IsSymbol</text>
</a>
</g>
</g>
<!-- Node2 -->
<g id="node2" class="node">
<title>Node2</title>
<g id="a_node2"><a xlink:href="../../d0/d86/structArk_1_1internal_1_1CharPred.html" target="_top" xlink:title=" ">
<polygon fill="white" stroke="#666666" points="115.75,-75.5 0,-75.5 0,-56.25 115.75,-56.25 115.75,-75.5"/>
<text text-anchor="middle" x="57.88" y="-62" font-family="Helvetica,sans-Serif" font-size="10.00">Ark::internal::CharPred</text>
</a>
</g>
</g>
<!-- Node2&#45;&gt;Node1 -->
<g id="edge1" class="edge">
<title>Node2&#45;&gt;Node1</title>
<path fill="none" stroke="#63b8ff" d="M57.88,-44.69C57.88,-35.98 57.88,-26.24 57.88,-19.42"/>
<polygon fill="#63b8ff" stroke="#63b8ff" points="54.38,-44.4 57.88,-54.4 61.38,-44.4 54.38,-44.4"/>
</g>
<!-- Node3 -->
<g id="node3" class="node">
<title>Node3</title>
<g id="a_node3"><a xlink:title=" ">
<polygon fill="white" stroke="#666666" points="87.62,-142 28.12,-142 28.12,-122.75 87.62,-122.75 87.62,-142"/>
<text text-anchor="middle" x="57.88" y="-128.5" font-family="Helvetica,sans-Serif" font-size="10.00">std::string</text>
</a>
</g>
</g>
<!-- Node3&#45;&gt;Node2 -->
<g id="edge2" class="edge">
<title>Node3&#45;&gt;Node2</title>
<path fill="none" stroke="#9a32cd" stroke-dasharray="5,2" d="M57.88,-110.9C57.88,-99.07 57.88,-84.79 57.88,-75.77"/>
<polygon fill="#9a32cd" stroke="#9a32cd" points="54.38,-110.89 57.88,-120.89 61.38,-110.89 54.38,-110.89"/>
<text text-anchor="middle" x="71.38" y="-95.25" font-family="Helvetica,sans-Serif" font-size="10.00"> name</text>
</g>
<!-- Node4 -->
<g id="node4" class="node">
<title>Node4</title>
<g id="a_node4"><a xlink:title=" ">
<polygon fill="white" stroke="#666666" points="104.88,-209.5 10.87,-209.5 10.87,-179 104.88,-179 104.88,-209.5"/>
<text text-anchor="start" x="18.88" y="-196" font-family="Helvetica,sans-Serif" font-size="10.00">std::basic_string&lt;</text>
<text text-anchor="middle" x="57.88" y="-184.75" font-family="Helvetica,sans-Serif" font-size="10.00"> Char &gt;</text>
</a>
</g>
</g>
<!-- Node4&#45;&gt;Node3 -->
<g id="edge3" class="edge">
<title>Node4&#45;&gt;Node3</title>
<path fill="none" stroke="#63b8ff" d="M57.88,-167.52C57.88,-158.54 57.88,-149.04 57.88,-142.35"/>
<polygon fill="#63b8ff" stroke="#63b8ff" points="54.38,-167.24 57.88,-177.24 61.38,-167.24 54.38,-167.24"/>
</g>
</g>
</svg>
