<?xml version="1.0" encoding="UTF-8" standalone="no"?>
<!DOCTYPE svg PUBLIC "-//W3C//DTD SVG 1.1//EN"
 "http://www.w3.org/Graphics/SVG/1.1/DTD/svg11.dtd">
<!-- Generated by graphviz version 12.2.0 (20241103.1931)
 -->
<!-- Title: /Users/fola/Documents/ArkScript/Ark/src/arkreactor/Logger.cpp Pages: 1 -->
<svg width="512pt" height="160pt"
 viewBox="0.00 0.00 511.62 160.25" xmlns="http://www.w3.org/2000/svg" xmlns:xlink="http://www.w3.org/1999/xlink">
<g id="graph0" class="graph" transform="scale(1 1) rotate(0) translate(4 156.25)">
<title>/Users/fola/Documents/ArkScript/Ark/src/arkreactor/Logger.cpp</title>
<!-- Node1 -->
<g id="Node000001" class="node">
<title>Node1</title>
<g id="a_Node000001"><a xlink:title=" ">
<polygon fill="#999999" stroke="#666666" points="388,-152.25 247.5,-152.25 247.5,-110.5 388,-110.5 388,-152.25"/>
<text text-anchor="start" x="255.5" y="-138.75" font-family="Helvetica,sans-Serif" font-size="10.00">/Users/fola/Documents</text>
<text text-anchor="start" x="255.5" y="-127.5" font-family="Helvetica,sans-Serif" font-size="10.00">/ArkScript/Ark/src/arkreactor</text>
<text text-anchor="middle" x="317.75" y="-116.25" font-family="Helvetica,sans-Serif" font-size="10.00">/Logger.cpp</text>
</a>
</g>
</g>
<!-- Node2 -->
<g id="Node000002" class="node">
<title>Node2</title>
<g id="a_Node000002"><a xlink:href="../../d9/d11/Logger_8hpp.html" target="_top" xlink:title="Internal logger.">
<polygon fill="white" stroke="#666666" points="280.38,-74.5 199.12,-74.5 199.12,-55.25 280.38,-55.25 280.38,-74.5"/>
<text text-anchor="middle" x="239.75" y="-61" font-family="Helvetica,sans-Serif" font-size="10.00">Ark/Logger.hpp</text>
</a>
</g>
</g>
<!-- Node1&#45;&gt;Node2 -->
<g id="edge1_Node000001_Node000002" class="edge">
<title>Node1&#45;&gt;Node2</title>
<g id="a_edge1_Node000001_Node000002"><a xlink:title=" ">
<path fill="none" stroke="#63b8ff" d="M293.5,-110.32C282.54,-101.26 269.76,-90.69 259.42,-82.14"/>
<polygon fill="#63b8ff" stroke="#63b8ff" points="261.82,-79.59 251.89,-75.91 257.36,-84.98 261.82,-79.59"/>
</a>
</g>
</g>
<!-- Node10 -->
<g id="Node000010" class="node">
<title>Node10</title>
<g id="a_Node000010"><a xlink:title=" ">
<polygon fill="#e0e0e0" stroke="#999999" points="336.62,-74.5 298.88,-74.5 298.88,-55.25 336.62,-55.25 336.62,-74.5"/>
<text text-anchor="middle" x="317.75" y="-61" font-family="Helvetica,sans-Serif" font-size="10.00">array</text>
</a>
</g>
</g>
<!-- Node1&#45;&gt;Node10 -->
<g id="edge9_Node000001_Node000010" class="edge">
<title>Node1&#45;&gt;Node10</title>
<g id="a_edge9_Node000001_Node000010"><a xlink:title=" ">
<path fill="none" stroke="#63b8ff" d="M317.75,-110.32C317.75,-102.65 317.75,-93.89 317.75,-86.2"/>
<polygon fill="#63b8ff" stroke="#63b8ff" points="321.25,-86.46 317.75,-76.46 314.25,-86.46 321.25,-86.46"/>
</a>
</g>
</g>
<!-- Node11 -->
<g id="Node000011" class="node">
<title>Node11</title>
<g id="a_Node000011"><a xlink:title=" ">
<polygon fill="#e0e0e0" stroke="#999999" points="394.38,-74.5 355.12,-74.5 355.12,-55.25 394.38,-55.25 394.38,-74.5"/>
<text text-anchor="middle" x="374.75" y="-61" font-family="Helvetica,sans-Serif" font-size="10.00">utility</text>
</a>
</g>
</g>
<!-- Node1&#45;&gt;Node11 -->
<g id="edge10_Node000001_Node000011" class="edge">
<title>Node1&#45;&gt;Node11</title>
<g id="a_edge10_Node000001_Node000011"><a xlink:title=" ">
<path fill="none" stroke="#63b8ff" d="M335.47,-110.32C343.07,-101.72 351.87,-91.77 359.21,-83.46"/>
<polygon fill="#63b8ff" stroke="#63b8ff" points="361.73,-85.89 365.73,-76.08 356.49,-81.26 361.73,-85.89"/>
</a>
</g>
</g>
<!-- Node3 -->
<g id="Node000003" class="node">
<title>Node3</title>
<g id="a_Node000003"><a xlink:title=" ">
<polygon fill="#e0e0e0" stroke="#999999" points="53.5,-19.25 0,-19.25 0,0 53.5,0 53.5,-19.25"/>
<text text-anchor="middle" x="26.75" y="-5.75" font-family="Helvetica,sans-Serif" font-size="10.00">iostream</text>
</a>
</g>
</g>
<!-- Node2&#45;&gt;Node3 -->
<g id="edge2_Node000002_Node000003" class="edge">
<title>Node2&#45;&gt;Node3</title>
<g id="a_edge2_Node000002_Node000003"><a xlink:title=" ">
<path fill="none" stroke="#63b8ff" d="M203.62,-54.84C165.05,-45.2 104.2,-29.99 64.89,-20.16"/>
<polygon fill="#63b8ff" stroke="#63b8ff" points="65.93,-16.81 55.38,-17.78 64.24,-23.6 65.93,-16.81"/>
</a>
</g>
</g>
<!-- Node4 -->
<g id="Node000004" class="node">
<title>Node4</title>
<g id="a_Node000004"><a xlink:title=" ">
<polygon fill="#e0e0e0" stroke="#999999" points="140.38,-19.25 71.12,-19.25 71.12,0 140.38,0 140.38,-19.25"/>
<text text-anchor="middle" x="105.75" y="-5.75" font-family="Helvetica,sans-Serif" font-size="10.00">fmt/format.h</text>
</a>
</g>
</g>
<!-- Node2&#45;&gt;Node4 -->
<g id="edge3_Node000002_Node000004" class="edge">
<title>Node2&#45;&gt;Node4</title>
<g id="a_edge3_Node000002_Node000004"><a xlink:title=" ">
<path fill="none" stroke="#63b8ff" d="M217.02,-54.84C195.65,-46.35 163.41,-33.54 139.12,-23.89"/>
<polygon fill="#63b8ff" stroke="#63b8ff" points="140.59,-20.7 130,-20.26 138,-27.21 140.59,-20.7"/>
</a>
</g>
</g>
<!-- Node5 -->
<g id="Node000005" class="node">
<title>Node5</title>
<g id="a_Node000005"><a xlink:title=" ">
<polygon fill="#e0e0e0" stroke="#999999" points="198.75,-19.25 158.75,-19.25 158.75,0 198.75,0 198.75,-19.25"/>
<text text-anchor="middle" x="178.75" y="-5.75" font-family="Helvetica,sans-Serif" font-size="10.00">string</text>
</a>
</g>
</g>
<!-- Node2&#45;&gt;Node5 -->
<g id="edge4_Node000002_Node000005" class="edge">
<title>Node2&#45;&gt;Node5</title>
<g id="a_edge4_Node000002_Node000005"><a xlink:title=" ">
<path fill="none" stroke="#63b8ff" d="M229.4,-54.84C220.67,-47.22 207.96,-36.12 197.45,-26.95"/>
<polygon fill="#63b8ff" stroke="#63b8ff" points="199.92,-24.46 190.09,-20.52 195.32,-29.73 199.92,-24.46"/>
</a>
</g>
</g>
<!-- Node6 -->
<g id="Node000006" class="node">
<title>Node6</title>
<g id="a_Node000006"><a xlink:title=" ">
<polygon fill="#e0e0e0" stroke="#999999" points="262.38,-19.25 217.12,-19.25 217.12,0 262.38,0 262.38,-19.25"/>
<text text-anchor="middle" x="239.75" y="-5.75" font-family="Helvetica,sans-Serif" font-size="10.00">chrono</text>
</a>
</g>
</g>
<!-- Node2&#45;&gt;Node6 -->
<g id="edge5_Node000002_Node000006" class="edge">
<title>Node2&#45;&gt;Node6</title>
<g id="a_edge5_Node000002_Node000006"><a xlink:title=" ">
<path fill="none" stroke="#63b8ff" d="M239.75,-55.08C239.75,-48.57 239.75,-39.42 239.75,-31.12"/>
<polygon fill="#63b8ff" stroke="#63b8ff" points="243.25,-31.12 239.75,-21.12 236.25,-31.12 243.25,-31.12"/>
</a>
</g>
</g>
<!-- Node7 -->
<g id="Node000007" class="node">
<title>Node7</title>
<g id="a_Node000007"><a xlink:title=" ">
<polygon fill="#e0e0e0" stroke="#999999" points="323.25,-19.25 280.25,-19.25 280.25,0 323.25,0 323.25,-19.25"/>
<text text-anchor="middle" x="301.75" y="-5.75" font-family="Helvetica,sans-Serif" font-size="10.00">vector</text>
</a>
</g>
</g>
<!-- Node2&#45;&gt;Node7 -->
<g id="edge6_Node000002_Node000007" class="edge">
<title>Node2&#45;&gt;Node7</title>
<g id="a_edge6_Node000002_Node000007"><a xlink:title=" ">
<path fill="none" stroke="#63b8ff" d="M250.27,-54.84C259.14,-47.22 272.06,-36.12 282.74,-26.95"/>
<polygon fill="#63b8ff" stroke="#63b8ff" points="284.93,-29.68 290.24,-20.51 280.37,-24.37 284.93,-29.68"/>
</a>
</g>
</g>
<!-- Node8 -->
<g id="Node000008" class="node">
<title>Node8</title>
<g id="a_Node000008"><a xlink:title=" ">
<polygon fill="#e0e0e0" stroke="#999999" points="424.12,-19.25 341.38,-19.25 341.38,0 424.12,0 424.12,-19.25"/>
<text text-anchor="middle" x="382.75" y="-5.75" font-family="Helvetica,sans-Serif" font-size="10.00">unordered_map</text>
</a>
</g>
</g>
<!-- Node2&#45;&gt;Node8 -->
<g id="edge7_Node000002_Node000008" class="edge">
<title>Node2&#45;&gt;Node8</title>
<g id="a_edge7_Node000002_Node000008"><a xlink:title=" ">
<path fill="none" stroke="#63b8ff" d="M264.01,-54.84C287.02,-46.27 321.84,-33.31 347.83,-23.63"/>
<polygon fill="#63b8ff" stroke="#63b8ff" points="348.8,-27 356.95,-20.23 346.36,-20.44 348.8,-27"/>
</a>
</g>
</g>
<!-- Node9 -->
<g id="Node000009" class="node">
<title>Node9</title>
<g id="a_Node000009"><a xlink:title=" ">
<polygon fill="#e0e0e0" stroke="#999999" points="503.62,-19.25 441.88,-19.25 441.88,0 503.62,0 503.62,-19.25"/>
<text text-anchor="middle" x="472.75" y="-5.75" font-family="Helvetica,sans-Serif" font-size="10.00">fmt/color.h</text>
</a>
</g>
</g>
<!-- Node2&#45;&gt;Node9 -->
<g id="edge8_Node000002_Node000009" class="edge">
<title>Node2&#45;&gt;Node9</title>
<g id="a_edge8_Node000002_Node000009"><a xlink:title=" ">
<path fill="none" stroke="#63b8ff" d="M279.54,-54.78C321.57,-45.18 387.57,-30.09 430.51,-20.28"/>
<polygon fill="#63b8ff" stroke="#63b8ff" points="431.25,-23.7 440.22,-18.06 429.69,-16.87 431.25,-23.7"/>
</a>
</g>
</g>
</g>
</svg>
