<?xml version="1.0" encoding="UTF-8" standalone="no"?>
<!DOCTYPE svg PUBLIC "-//W3C//DTD SVG 1.1//EN"
 "http://www.w3.org/Graphics/SVG/1.1/DTD/svg11.dtd">
<!-- Generated by graphviz version 2.43.0 (0)
 -->
<!-- Title: Ark::UserType::ControlFuncs Pages: 1 -->
<svg width="161pt" height="277pt"
 viewBox="0.00 0.00 161.00 277.00" xmlns="http://www.w3.org/2000/svg" xmlns:xlink="http://www.w3.org/1999/xlink">
<g id="graph0" class="graph" transform="scale(1 1) rotate(0) translate(4 273)">
<title>Ark::UserType::ControlFuncs</title>
<polygon fill="white" stroke="transparent" points="-4,4 -4,-273 157,-273 157,4 -4,4"/>
<!-- Node1 -->
<g id="node1" class="node">
<title>Node1</title>
<g id="a_node1"><a xlink:title="A structure holding a bunch of pointers to different useful functions related to this usertype.">
<polygon fill="#bfbfbf" stroke="black" points="0,-0.5 0,-19.5 153,-19.5 153,-0.5 0,-0.5"/>
<text text-anchor="middle" x="76.5" y="-7.5" font-family="Helvetica,sans-Serif" font-size="10.00">Ark::UserType::ControlFuncs</text>
</a>
</g>
</g>
<!-- Node2 -->
<g id="node2" class="node">
<title>Node2</title>
<g id="a_node2"><a xlink:title=" ">
<polygon fill="white" stroke="#bfbfbf" points="37.5,-67.5 37.5,-86.5 115.5,-86.5 115.5,-67.5 37.5,-67.5"/>
<text text-anchor="middle" x="76.5" y="-74.5" font-family="Helvetica,sans-Serif" font-size="10.00">std::ostream</text>
</a>
</g>
</g>
<!-- Node2&#45;&gt;Node1 -->
<g id="edge1" class="edge">
<title>Node2&#45;&gt;Node1</title>
<path fill="none" stroke="#9a32cd" stroke-dasharray="5,2" d="M76.5,-57.04C76.5,-44.67 76.5,-29.12 76.5,-19.63"/>
<polygon fill="#9a32cd" stroke="#9a32cd" points="73,-57.23 76.5,-67.23 80,-57.23 73,-57.23"/>
<text text-anchor="middle" x="111.5" y="-41" font-family="Helvetica,sans-Serif" font-size="10.00"> ostream_func</text>
</g>
<!-- Node3 -->
<g id="node3" class="node">
<title>Node3</title>
<g id="a_node3"><a xlink:title=" ">
<polygon fill="white" stroke="#bfbfbf" points="22,-124.5 22,-154.5 131,-154.5 131,-124.5 22,-124.5"/>
<text text-anchor="start" x="30" y="-142.5" font-family="Helvetica,sans-Serif" font-size="10.00">std::basic_ostream</text>
<text text-anchor="middle" x="76.5" y="-131.5" font-family="Helvetica,sans-Serif" font-size="10.00">&lt; Char &gt;</text>
</a>
</g>
</g>
<!-- Node3&#45;&gt;Node2 -->
<g id="edge2" class="edge">
<title>Node3&#45;&gt;Node2</title>
<path fill="none" stroke="midnightblue" d="M76.5,-114.35C76.5,-104.51 76.5,-93.78 76.5,-86.54"/>
<polygon fill="midnightblue" stroke="midnightblue" points="73,-114.47 76.5,-124.47 80,-114.47 73,-114.47"/>
</g>
<!-- Node4 -->
<g id="node4" class="node">
<title>Node4</title>
<g id="a_node4"><a xlink:title=" ">
<polygon fill="white" stroke="#bfbfbf" points="12.5,-192.5 12.5,-211.5 140.5,-211.5 140.5,-192.5 12.5,-192.5"/>
<text text-anchor="middle" x="76.5" y="-199.5" font-family="Helvetica,sans-Serif" font-size="10.00">std::basic_ios&lt; Char &gt;</text>
</a>
</g>
</g>
<!-- Node4&#45;&gt;Node3 -->
<g id="edge3" class="edge">
<title>Node4&#45;&gt;Node3</title>
<path fill="none" stroke="midnightblue" d="M76.5,-182.22C76.5,-173.36 76.5,-162.96 76.5,-154.76"/>
<polygon fill="midnightblue" stroke="midnightblue" points="73,-182.33 76.5,-192.33 80,-182.33 73,-182.33"/>
</g>
<!-- Node5 -->
<g id="node5" class="node">
<title>Node5</title>
<g id="a_node5"><a xlink:title=" ">
<polygon fill="white" stroke="#bfbfbf" points="36.5,-249.5 36.5,-268.5 116.5,-268.5 116.5,-249.5 36.5,-249.5"/>
<text text-anchor="middle" x="76.5" y="-256.5" font-family="Helvetica,sans-Serif" font-size="10.00">std::ios_base</text>
</a>
</g>
</g>
<!-- Node5&#45;&gt;Node4 -->
<g id="edge4" class="edge">
<title>Node5&#45;&gt;Node4</title>
<path fill="none" stroke="midnightblue" d="M76.5,-239.12C76.5,-229.82 76.5,-219.06 76.5,-211.71"/>
<polygon fill="midnightblue" stroke="midnightblue" points="73,-239.41 76.5,-249.41 80,-239.41 73,-239.41"/>
</g>
</g>
</svg>
