<?xml version="1.0" encoding="UTF-8" standalone="no"?>
<!DOCTYPE svg PUBLIC "-//W3C//DTD SVG 1.1//EN"
 "http://www.w3.org/Graphics/SVG/1.1/DTD/svg11.dtd">
<!-- Generated by graphviz version 10.0.1 (20240210.2158)
 -->
<!-- Title: Ark::internal::SymbolExecutor Pages: 1 -->
<svg width="1692pt" height="334pt"
 viewBox="0.00 0.00 1691.50 333.61" xmlns="http://www.w3.org/2000/svg" xmlns:xlink="http://www.w3.org/1999/xlink">
<g id="graph0" class="graph" transform="scale(1 1) rotate(0) translate(4 329.61)">
<title>Ark::internal::SymbolExecutor</title>
<!-- Node1 -->
<g id="node1" class="node">
<title>Node1</title>
<g id="a_node1"><a xlink:title="Handles Symbol macros.">
<polygon fill="#999999" stroke="#666666" points="776,-325.61 629.5,-325.61 629.5,-306.36 776,-306.36 776,-325.61"/>
<text text-anchor="middle" x="702.75" y="-312.11" font-family="Helvetica,sans-Serif" font-size="10.00">Ark::internal::SymbolExecutor</text>
</a>
</g>
</g>
<!-- Node2 -->
<g id="node2" class="node">
<title>Node2</title>
<g id="a_node2"><a xlink:href="../../d5/d8f/classArk_1_1internal_1_1MacroExecutor.html" target="_top" xlink:title="A class that applies macros in a Node.">
<polygon fill="white" stroke="#666666" points="448.75,-287.61 308.25,-287.61 308.25,-268.36 448.75,-268.36 448.75,-287.61"/>
<text text-anchor="middle" x="378.5" y="-274.11" font-family="Helvetica,sans-Serif" font-size="10.00">Ark::internal::MacroExecutor</text>
</a>
</g>
</g>
<!-- Node2&#45;&gt;Node1 -->
<g id="edge1" class="edge">
<title>Node2&#45;&gt;Node1</title>
<path fill="none" stroke="#63b8ff" d="M450.67,-289.75C456.1,-290.55 461.51,-291.3 466.75,-291.99 521.03,-299.11 582.61,-305.33 629.11,-309.65"/>
<polygon fill="#63b8ff" stroke="#63b8ff" points="451.42,-286.33 441.01,-288.31 450.38,-293.25 451.42,-286.33"/>
</g>
<!-- Node16 -->
<g id="node16" class="node">
<title>Node16</title>
<g id="a_node16"><a xlink:title=" ">
<polygon fill="white" stroke="#666666" points="770,-250.24 635.5,-250.24 635.5,-219.74 770,-219.74 770,-250.24"/>
<text text-anchor="start" x="643.5" y="-236.74" font-family="Helvetica,sans-Serif" font-size="10.00">std::shared_ptr&lt; Ark</text>
<text text-anchor="middle" x="702.75" y="-225.49" font-family="Helvetica,sans-Serif" font-size="10.00">::internal::MacroExecutor &gt;</text>
</a>
</g>
</g>
<!-- Node2&#45;&gt;Node16 -->
<g id="edge19" class="edge">
<title>Node2&#45;&gt;Node16</title>
<path fill="none" stroke="#9a32cd" stroke-dasharray="5,2" d="M419.4,-264.57C434.12,-260.11 451.04,-255.57 466.75,-252.74 523.02,-242.58 587.89,-238.23 635.19,-236.36"/>
<polygon fill="#9a32cd" stroke="#9a32cd" points="418.57,-261.16 410.07,-267.47 420.66,-267.84 418.57,-261.16"/>
<text text-anchor="middle" x="539.12" y="-253.74" font-family="Helvetica,sans-Serif" font-size="10.00"> ptr</text>
</g>
<!-- Node3 -->
<g id="node3" class="node">
<title>Node3</title>
<g id="a_node3"><a xlink:href="../../d5/db5/classArk_1_1internal_1_1MacroProcessor.html" target="_top" xlink:title="The class handling the macros definitions and calls, given an AST.">
<polygon fill="white" stroke="#666666" points="1683.5,-129.61 1537.75,-129.61 1537.75,-110.36 1683.5,-110.36 1683.5,-129.61"/>
<text text-anchor="middle" x="1610.62" y="-116.11" font-family="Helvetica,sans-Serif" font-size="10.00">Ark::internal::MacroProcessor</text>
</a>
</g>
</g>
<!-- Node3&#45;&gt;Node2 -->
<g id="edge2" class="edge">
<title>Node3&#45;&gt;Node2</title>
<path fill="none" stroke="#9a32cd" stroke-dasharray="5,2" d="M1593.19,-138.27C1553.91,-179.87 1449.63,-277.99 1340.25,-277.99 701.75,-277.99 701.75,-277.99 701.75,-277.99 614.61,-277.99 514.22,-277.99 448.96,-277.99"/>
<polygon fill="#9a32cd" stroke="#9a32cd" points="1595.72,-140.7 1599.94,-130.98 1590.58,-135.95 1595.72,-140.7"/>
<text text-anchor="middle" x="1048.38" y="-279.74" font-family="Helvetica,sans-Serif" font-size="10.00"> m_processor</text>
</g>
<!-- Node4 -->
<g id="node4" class="node">
<title>Node4</title>
<g id="a_node4"><a xlink:href="../../dc/d9e/classArk_1_1internal_1_1Node.html" target="_top" xlink:title="A node of an Abstract Syntax Tree for ArkScript.">
<polygon fill="white" stroke="#666666" points="427.38,-31.61 329.62,-31.61 329.62,-12.36 427.38,-12.36 427.38,-31.61"/>
<text text-anchor="middle" x="378.5" y="-18.11" font-family="Helvetica,sans-Serif" font-size="10.00">Ark::internal::Node</text>
</a>
</g>
</g>
<!-- Node4&#45;&gt;Node3 -->
<g id="edge3" class="edge">
<title>Node4&#45;&gt;Node3</title>
<path fill="none" stroke="#9a32cd" stroke-dasharray="5,2" d="M438.96,-24.19C485.83,-25.96 552.84,-28.53 611.5,-30.99 966.44,-45.85 1056.18,-39.99 1409.5,-76.99 1458.62,-82.13 1471.54,-80.25 1519.75,-90.99 1541.35,-95.8 1565.17,-103.6 1582.85,-109.9"/>
<polygon fill="#9a32cd" stroke="#9a32cd" points="439.13,-20.7 429,-23.82 438.87,-27.69 439.13,-20.7"/>
<text text-anchor="middle" x="1048.38" y="-54.74" font-family="Helvetica,sans-Serif" font-size="10.00"> m_ast</text>
</g>
<!-- Node9 -->
<g id="node9" class="node">
<title>Node9</title>
<g id="a_node9"><a xlink:title=" ">
<polygon fill="white" stroke="#666666" points="753.88,-96.86 651.62,-96.86 651.62,-55.11 753.88,-55.11 753.88,-96.86"/>
<text text-anchor="start" x="659.62" y="-83.36" font-family="Helvetica,sans-Serif" font-size="10.00">std::unordered_map</text>
<text text-anchor="start" x="659.62" y="-72.11" font-family="Helvetica,sans-Serif" font-size="10.00">&lt; std::string, Ark::</text>
<text text-anchor="middle" x="702.75" y="-60.86" font-family="Helvetica,sans-Serif" font-size="10.00">internal::Node &gt;</text>
</a>
</g>
</g>
<!-- Node4&#45;&gt;Node9 -->
<g id="edge10" class="edge">
<title>Node4&#45;&gt;Node9</title>
<path fill="none" stroke="#9a32cd" stroke-dasharray="5,2" d="M439.05,-26.9C486.15,-31.37 553.42,-39.08 611.5,-50.74 624.58,-53.36 638.54,-56.9 651.48,-60.49"/>
<polygon fill="#9a32cd" stroke="#9a32cd" points="439.61,-23.43 429.33,-26 438.97,-30.4 439.61,-23.43"/>
<text text-anchor="middle" x="539.12" y="-52.74" font-family="Helvetica,sans-Serif" font-size="10.00"> elements</text>
</g>
<!-- Node5 -->
<g id="node5" class="node">
<title>Node5</title>
<g id="a_node5"><a xlink:title=" ">
<polygon fill="white" stroke="#666666" points="190.5,-31.61 131,-31.61 131,-12.36 190.5,-12.36 190.5,-31.61"/>
<text text-anchor="middle" x="160.75" y="-18.11" font-family="Helvetica,sans-Serif" font-size="10.00">std::string</text>
</a>
</g>
</g>
<!-- Node5&#45;&gt;Node4 -->
<g id="edge4" class="edge">
<title>Node5&#45;&gt;Node4</title>
<path fill="none" stroke="#9a32cd" stroke-dasharray="5,2" d="M201.94,-21.99C238.06,-21.99 291.16,-21.99 329.5,-21.99"/>
<polygon fill="#9a32cd" stroke="#9a32cd" points="202.36,-18.49 192.36,-21.99 202.36,-25.49 202.36,-18.49"/>
<text text-anchor="middle" x="249.38" y="-46.24" font-family="Helvetica,sans-Serif" font-size="10.00"> m_after_comment</text>
<text text-anchor="middle" x="249.38" y="-34.99" font-family="Helvetica,sans-Serif" font-size="10.00">m_comment</text>
<text text-anchor="middle" x="249.38" y="-23.74" font-family="Helvetica,sans-Serif" font-size="10.00">m_filename</text>
</g>
<!-- Node5&#45;&gt;Node9 -->
<g id="edge9" class="edge">
<title>Node5&#45;&gt;Node9</title>
<path fill="none" stroke="#9a32cd" stroke-dasharray="5,2" d="M178.2,-39.84C186.46,-47.54 197.13,-55.74 208.5,-59.99 288.36,-89.82 542.12,-82.94 651.16,-78.4"/>
<polygon fill="#9a32cd" stroke="#9a32cd" points="180.87,-37.56 171.32,-32.96 175.92,-42.51 180.87,-37.56"/>
<text text-anchor="middle" x="378.5" y="-84.74" font-family="Helvetica,sans-Serif" font-size="10.00"> keys</text>
</g>
<!-- Node18 -->
<g id="node18" class="node">
<title>Node18</title>
<g id="a_node18"><a xlink:title=" ">
<polygon fill="white" stroke="#666666" points="1110.38,-99.61 986.38,-99.61 986.38,-80.36 1110.38,-80.36 1110.38,-99.61"/>
<text text-anchor="middle" x="1048.38" y="-86.11" font-family="Helvetica,sans-Serif" font-size="10.00">std::vector&lt; std::string &gt;</text>
</a>
</g>
</g>
<!-- Node5&#45;&gt;Node18 -->
<g id="edge24" class="edge">
<title>Node5&#45;&gt;Node18</title>
<path fill="none" stroke="#9a32cd" stroke-dasharray="5,2" d="M201.88,-15.37C231.24,-10.87 272.1,-5.32 308.25,-2.99 575.8,14.29 895.22,-53.6 1006.65,-79.94"/>
<polygon fill="#9a32cd" stroke="#9a32cd" points="201.66,-11.86 192.32,-16.86 202.74,-18.77 201.66,-11.86"/>
<text text-anchor="middle" x="539.12" y="-13.74" font-family="Helvetica,sans-Serif" font-size="10.00"> elements</text>
</g>
<!-- Node6 -->
<g id="node6" class="node">
<title>Node6</title>
<g id="a_node6"><a xlink:title=" ">
<polygon fill="white" stroke="#666666" points="94,-37.24 0,-37.24 0,-6.74 94,-6.74 94,-37.24"/>
<text text-anchor="start" x="8" y="-23.74" font-family="Helvetica,sans-Serif" font-size="10.00">std::basic_string&lt;</text>
<text text-anchor="middle" x="47" y="-12.49" font-family="Helvetica,sans-Serif" font-size="10.00"> Char &gt;</text>
</a>
</g>
</g>
<!-- Node6&#45;&gt;Node5 -->
<g id="edge5" class="edge">
<title>Node6&#45;&gt;Node5</title>
<path fill="none" stroke="#63b8ff" d="M105.71,-21.99C114.32,-21.99 122.87,-21.99 130.55,-21.99"/>
<polygon fill="#63b8ff" stroke="#63b8ff" points="105.93,-18.49 95.93,-21.99 105.93,-25.49 105.93,-18.49"/>
</g>
<!-- Node7 -->
<g id="node7" class="node">
<title>Node7</title>
<g id="a_node7"><a xlink:title=" ">
<polygon fill="white" stroke="#666666" points="1400.88,-158.24 1277.62,-158.24 1277.62,-127.74 1400.88,-127.74 1400.88,-158.24"/>
<text text-anchor="start" x="1285.62" y="-144.74" font-family="Helvetica,sans-Serif" font-size="10.00">std::vector&lt; Ark::internal</text>
<text text-anchor="middle" x="1339.25" y="-133.49" font-family="Helvetica,sans-Serif" font-size="10.00">::MacroScope &gt;</text>
</a>
</g>
</g>
<!-- Node7&#45;&gt;Node3 -->
<g id="edge6" class="edge">
<title>Node7&#45;&gt;Node3</title>
<path fill="none" stroke="#9a32cd" stroke-dasharray="5,2" d="M1412.25,-136.84C1451.05,-133.53 1498.78,-129.45 1537.59,-126.14"/>
<polygon fill="#9a32cd" stroke="#9a32cd" points="1412.21,-133.33 1402.55,-137.67 1412.81,-140.31 1412.21,-133.33"/>
<text text-anchor="middle" x="1473.62" y="-136.74" font-family="Helvetica,sans-Serif" font-size="10.00"> m_macros</text>
</g>
<!-- Node8 -->
<g id="node8" class="node">
<title>Node8</title>
<g id="a_node8"><a xlink:href="../../d6/d42/classArk_1_1internal_1_1MacroScope.html" target="_top" xlink:title=" ">
<polygon fill="white" stroke="#666666" points="1113,-136.61 983.75,-136.61 983.75,-117.36 1113,-117.36 1113,-136.61"/>
<text text-anchor="middle" x="1048.38" y="-123.11" font-family="Helvetica,sans-Serif" font-size="10.00">Ark::internal::MacroScope</text>
</a>
</g>
</g>
<!-- Node8&#45;&gt;Node7 -->
<g id="edge7" class="edge">
<title>Node8&#45;&gt;Node7</title>
<path fill="none" stroke="#9a32cd" stroke-dasharray="5,2" d="M1124.95,-131.17C1172.43,-133.8 1232.87,-137.15 1277.28,-139.61"/>
<polygon fill="#9a32cd" stroke="#9a32cd" points="1125.18,-127.68 1115,-130.62 1124.79,-134.67 1125.18,-127.68"/>
<text text-anchor="middle" x="1204.5" y="-139.74" font-family="Helvetica,sans-Serif" font-size="10.00"> elements</text>
</g>
<!-- Node9&#45;&gt;Node3 -->
<g id="edge26" class="edge">
<title>Node9&#45;&gt;Node3</title>
<path fill="none" stroke="#9a32cd" stroke-dasharray="5,2" d="M765.35,-74.43C816.58,-73.22 891.4,-71.63 956.75,-70.99 1038.19,-70.18 1058.63,-67.42 1140,-70.99 1192.31,-73.28 1406.35,-90.43 1519.75,-104.99 1530.58,-106.38 1542.1,-108.11 1553.15,-109.9"/>
<polygon fill="#9a32cd" stroke="#9a32cd" points="765.57,-70.92 755.66,-74.66 765.74,-77.92 765.57,-70.92"/>
<text text-anchor="middle" x="1204.5" y="-80.74" font-family="Helvetica,sans-Serif" font-size="10.00"> m_defined_functions</text>
</g>
<!-- Node9&#45;&gt;Node8 -->
<g id="edge8" class="edge">
<title>Node9&#45;&gt;Node8</title>
<path fill="none" stroke="#9a32cd" stroke-dasharray="5,2" d="M753.16,-101.85C766.12,-107.52 780.31,-112.78 794,-115.99 857.23,-130.81 931.71,-132.21 983.49,-130.72"/>
<polygon fill="#9a32cd" stroke="#9a32cd" points="754.99,-98.84 744.44,-97.87 752.09,-105.21 754.99,-98.84"/>
<text text-anchor="middle" x="866.38" y="-133.74" font-family="Helvetica,sans-Serif" font-size="10.00"> m_macros</text>
</g>
<!-- Node10 -->
<g id="node10" class="node">
<title>Node10</title>
<g id="a_node10"><a xlink:title=" ">
<polygon fill="white" stroke="#666666" points="429.62,-136.24 327.38,-136.24 327.38,-105.74 429.62,-105.74 429.62,-136.24"/>
<text text-anchor="start" x="335.38" y="-122.74" font-family="Helvetica,sans-Serif" font-size="10.00">std::unordered_map</text>
<text text-anchor="middle" x="378.5" y="-111.49" font-family="Helvetica,sans-Serif" font-size="10.00">&lt; K, T &gt;</text>
</a>
</g>
</g>
<!-- Node10&#45;&gt;Node9 -->
<g id="edge11" class="edge">
<title>Node10&#45;&gt;Node9</title>
<path fill="none" stroke="orange" stroke-dasharray="5,2" d="M440.94,-113.14C487.73,-107.07 553.72,-98.33 611.5,-89.99 624.37,-88.13 638.25,-86.03 651.18,-84.02"/>
<polygon fill="orange" stroke="orange" points="440.75,-109.63 431.28,-114.39 441.64,-116.58 440.75,-109.63"/>
<text text-anchor="start" x="501.25" y="-122.99" font-family="Helvetica,sans-Serif" font-size="10.00"> &lt; std::string, Ark</text>
<text text-anchor="middle" x="539.12" y="-111.74" font-family="Helvetica,sans-Serif" font-size="10.00">::internal::Node &gt;</text>
</g>
<!-- Node11 -->
<g id="node11" class="node">
<title>Node11</title>
<g id="a_node11"><a xlink:title=" ">
<polygon fill="white" stroke="#666666" points="175.15,-123.61 146.35,-123.61 146.35,-104.36 175.15,-104.36 175.15,-123.61"/>
<text text-anchor="middle" x="160.75" y="-110.11" font-family="Helvetica,sans-Serif" font-size="10.00">K</text>
</a>
</g>
</g>
<!-- Node11&#45;&gt;Node10 -->
<g id="edge12" class="edge">
<title>Node11&#45;&gt;Node10</title>
<path fill="none" stroke="#9a32cd" stroke-dasharray="5,2" d="M187.02,-113.65C212.94,-113.41 254.42,-113.35 290.25,-114.74 302.24,-115.2 315.14,-115.98 327.24,-116.82"/>
<polygon fill="#9a32cd" stroke="#9a32cd" points="187.11,-110.15 177.15,-113.75 187.19,-117.14 187.11,-110.15"/>
<text text-anchor="middle" x="249.38" y="-116.74" font-family="Helvetica,sans-Serif" font-size="10.00"> keys</text>
</g>
<!-- Node12 -->
<g id="node12" class="node">
<title>Node12</title>
<g id="a_node12"><a xlink:title=" ">
<polygon fill="white" stroke="#666666" points="175.15,-183.61 146.35,-183.61 146.35,-164.36 175.15,-164.36 175.15,-183.61"/>
<text text-anchor="middle" x="160.75" y="-170.11" font-family="Helvetica,sans-Serif" font-size="10.00">T</text>
</a>
</g>
</g>
<!-- Node12&#45;&gt;Node10 -->
<g id="edge13" class="edge">
<title>Node12&#45;&gt;Node10</title>
<path fill="none" stroke="#9a32cd" stroke-dasharray="5,2" d="M185.31,-159.29C192.53,-155.34 200.64,-151.42 208.5,-148.74 247.05,-135.58 292.74,-128.56 326.89,-124.87"/>
<polygon fill="#9a32cd" stroke="#9a32cd" points="183.72,-156.17 176.82,-164.21 187.23,-162.23 183.72,-156.17"/>
<text text-anchor="middle" x="249.38" y="-150.74" font-family="Helvetica,sans-Serif" font-size="10.00"> elements</text>
</g>
<!-- Node13 -->
<g id="node13" class="node">
<title>Node13</title>
<g id="a_node13"><a xlink:title=" ">
<polygon fill="white" stroke="#666666" points="746,-182.61 659.5,-182.61 659.5,-163.36 746,-163.36 746,-182.61"/>
<text text-anchor="middle" x="702.75" y="-169.11" font-family="Helvetica,sans-Serif" font-size="10.00">std::vector&lt; T &gt;</text>
</a>
</g>
</g>
<!-- Node12&#45;&gt;Node13 -->
<g id="edge15" class="edge">
<title>Node12&#45;&gt;Node13</title>
<path fill="none" stroke="#9a32cd" stroke-dasharray="5,2" d="M187.03,-173.94C272.58,-173.78 551.91,-173.27 659.22,-173.07"/>
<polygon fill="#9a32cd" stroke="#9a32cd" points="187.15,-170.44 177.15,-173.96 187.16,-177.44 187.15,-170.44"/>
<text text-anchor="middle" x="378.5" y="-175.74" font-family="Helvetica,sans-Serif" font-size="10.00"> elements</text>
</g>
<!-- Node17 -->
<g id="node17" class="node">
<title>Node17</title>
<g id="a_node17"><a xlink:title=" ">
<polygon fill="white" stroke="#666666" points="431.12,-223.61 325.88,-223.61 325.88,-204.36 431.12,-204.36 431.12,-223.61"/>
<text text-anchor="middle" x="378.5" y="-210.11" font-family="Helvetica,sans-Serif" font-size="10.00">std::shared_ptr&lt; T &gt;</text>
</a>
</g>
</g>
<!-- Node12&#45;&gt;Node17 -->
<g id="edge21" class="edge">
<title>Node12&#45;&gt;Node17</title>
<path fill="none" stroke="#9a32cd" stroke-dasharray="5,2" d="M186.28,-182.03C193.4,-184.17 201.21,-186.34 208.5,-187.99 247.3,-196.74 291.79,-203.45 325.38,-207.86"/>
<polygon fill="#9a32cd" stroke="#9a32cd" points="187.56,-178.76 176.97,-179.11 185.47,-185.44 187.56,-178.76"/>
<text text-anchor="middle" x="249.38" y="-204.74" font-family="Helvetica,sans-Serif" font-size="10.00"> ptr</text>
</g>
<!-- Node13&#45;&gt;Node7 -->
<g id="edge14" class="edge">
<title>Node13&#45;&gt;Node7</title>
<path fill="none" stroke="orange" stroke-dasharray="5,2" d="M757.79,-172.4C856.08,-171.03 1070.62,-166.6 1251,-152.99 1259.51,-152.35 1268.48,-151.51 1277.29,-150.59"/>
<polygon fill="orange" stroke="orange" points="757.85,-168.9 747.9,-172.53 757.95,-175.9 757.85,-168.9"/>
<text text-anchor="middle" x="1048.38" y="-169.74" font-family="Helvetica,sans-Serif" font-size="10.00"> &lt; Ark::internal::MacroScope &gt;</text>
</g>
<!-- Node15 -->
<g id="node15" class="node">
<title>Node15</title>
<g id="a_node15"><a xlink:title=" ">
<polygon fill="white" stroke="#666666" points="1140,-233.24 956.75,-233.24 956.75,-202.74 1140,-202.74 1140,-233.24"/>
<text text-anchor="start" x="964.75" y="-219.74" font-family="Helvetica,sans-Serif" font-size="10.00">std::vector&lt; std::shared</text>
<text text-anchor="middle" x="1048.38" y="-208.49" font-family="Helvetica,sans-Serif" font-size="10.00">_ptr&lt; Ark::internal::MacroExecutor &gt; &gt;</text>
</a>
</g>
</g>
<!-- Node13&#45;&gt;Node15 -->
<g id="edge22" class="edge">
<title>Node13&#45;&gt;Node15</title>
<path fill="none" stroke="orange" stroke-dasharray="5,2" d="M757.49,-179.91C805.12,-186.05 876.57,-195.3 938.75,-203.49 944.5,-204.25 950.43,-205.03 956.4,-205.82"/>
<polygon fill="orange" stroke="orange" points="758.08,-176.45 747.71,-178.65 757.18,-183.4 758.08,-176.45"/>
<text text-anchor="start" x="794" y="-216.99" font-family="Helvetica,sans-Serif" font-size="10.00"> &lt; std::shared_ptr&lt;</text>
<text text-anchor="middle" x="866.38" y="-205.74" font-family="Helvetica,sans-Serif" font-size="10.00"> Ark::internal::MacroExecutor &gt; &gt;</text>
</g>
<!-- Node13&#45;&gt;Node18 -->
<g id="edge25" class="edge">
<title>Node13&#45;&gt;Node18</title>
<path fill="none" stroke="orange" stroke-dasharray="5,2" d="M720.25,-154.92C736.97,-137.99 764.52,-113.7 794,-102.74 827.91,-90.14 922.61,-88.46 986.13,-88.87"/>
<polygon fill="orange" stroke="orange" points="717.96,-152.25 713.58,-161.9 723.02,-157.08 717.96,-152.25"/>
<text text-anchor="middle" x="866.38" y="-104.74" font-family="Helvetica,sans-Serif" font-size="10.00"> &lt; std::string &gt;</text>
</g>
<!-- Node14 -->
<g id="node14" class="node">
<title>Node14</title>
<g id="a_node14"><a xlink:href="../../d7/d22/classArk_1_1internal_1_1MacroExecutorPipeline.html" target="_top" xlink:title="The class that initializes the MacroExecutors.">
<polygon fill="white" stroke="#666666" points="1409.5,-214.24 1269,-214.24 1269,-183.74 1409.5,-183.74 1409.5,-214.24"/>
<text text-anchor="start" x="1277" y="-200.74" font-family="Helvetica,sans-Serif" font-size="10.00">Ark::internal::MacroExecutor</text>
<text text-anchor="middle" x="1339.25" y="-189.49" font-family="Helvetica,sans-Serif" font-size="10.00">Pipeline</text>
</a>
</g>
</g>
<!-- Node14&#45;&gt;Node3 -->
<g id="edge16" class="edge">
<title>Node14&#45;&gt;Node3</title>
<path fill="none" stroke="#9a32cd" stroke-dasharray="5,2" d="M1412.05,-180.37C1444.99,-171.58 1484.48,-160.68 1519.75,-149.99 1540.37,-143.74 1563.42,-136.03 1581.02,-129.99"/>
<polygon fill="#9a32cd" stroke="#9a32cd" points="1411.37,-176.93 1402.61,-182.88 1413.17,-183.69 1411.37,-176.93"/>
<text text-anchor="middle" x="1473.62" y="-177.74" font-family="Helvetica,sans-Serif" font-size="10.00"> m_executor_pipeline</text>
</g>
<!-- Node15&#45;&gt;Node14 -->
<g id="edge17" class="edge">
<title>Node15&#45;&gt;Node14</title>
<path fill="none" stroke="#9a32cd" stroke-dasharray="5,2" d="M1151.72,-211.26C1190.5,-208.71 1233.72,-205.86 1268.78,-203.56"/>
<polygon fill="#9a32cd" stroke="#9a32cd" points="1151.64,-207.75 1141.89,-211.9 1152.1,-214.74 1151.64,-207.75"/>
<text text-anchor="middle" x="1204.5" y="-212.74" font-family="Helvetica,sans-Serif" font-size="10.00"> m_executors</text>
</g>
<!-- Node16&#45;&gt;Node15 -->
<g id="edge18" class="edge">
<title>Node16&#45;&gt;Node15</title>
<path fill="none" stroke="#9a32cd" stroke-dasharray="5,2" d="M781.76,-235.06C827.54,-234.67 886.48,-233.43 938.75,-229.99 944.52,-229.61 950.46,-229.15 956.45,-228.63"/>
<polygon fill="#9a32cd" stroke="#9a32cd" points="781.91,-231.56 771.93,-235.13 781.96,-238.56 781.91,-231.56"/>
<text text-anchor="middle" x="866.38" y="-235.74" font-family="Helvetica,sans-Serif" font-size="10.00"> elements</text>
</g>
<!-- Node17&#45;&gt;Node16 -->
<g id="edge20" class="edge">
<title>Node17&#45;&gt;Node16</title>
<path fill="none" stroke="orange" stroke-dasharray="5,2" d="M442.72,-212.07C489.47,-211.37 554.61,-211.89 611.5,-217.74 619.28,-218.54 627.38,-219.66 635.4,-220.96"/>
<polygon fill="orange" stroke="orange" points="442.7,-208.57 432.77,-212.25 442.83,-215.57 442.7,-208.57"/>
<text text-anchor="middle" x="539.12" y="-219.74" font-family="Helvetica,sans-Serif" font-size="10.00"> &lt; Ark::internal::MacroExecutor &gt;</text>
</g>
<!-- Node18&#45;&gt;Node3 -->
<g id="edge23" class="edge">
<title>Node18&#45;&gt;Node3</title>
<path fill="none" stroke="#9a32cd" stroke-dasharray="5,2" d="M1121.86,-93.31C1194.59,-96.7 1309.83,-102.23 1409.5,-107.74 1451.9,-110.08 1499.34,-112.97 1537.38,-115.36"/>
<polygon fill="#9a32cd" stroke="#9a32cd" points="1122.22,-89.82 1112.07,-92.85 1121.9,-96.81 1122.22,-89.82"/>
<text text-anchor="middle" x="1339.25" y="-109.74" font-family="Helvetica,sans-Serif" font-size="10.00"> m_predefined_macros</text>
</g>
</g>
</svg>
