<?xml version="1.0" encoding="UTF-8" standalone="no"?>
<!DOCTYPE svg PUBLIC "-//W3C//DTD SVG 1.1//EN"
 "http://www.w3.org/Graphics/SVG/1.1/DTD/svg11.dtd">
<!-- Generated by graphviz version 12.1.1 (20240910.0053)
 -->
<!-- Title: Ark::internal::SymbolExecutor Pages: 1 -->
<svg width="1591pt" height="360pt"
 viewBox="0.00 0.00 1590.50 360.26" xmlns="http://www.w3.org/2000/svg" xmlns:xlink="http://www.w3.org/1999/xlink">
<g id="graph0" class="graph" transform="scale(1 1) rotate(0) translate(4 356.26)">
<title>Ark::internal::SymbolExecutor</title>
<!-- Node1 -->
<g id="Node000001" class="node">
<title>Node1</title>
<g id="a_Node000001"><a xlink:title="Handles Symbol macros.">
<polygon fill="#999999" stroke="#666666" points="977.5,-303.63 831,-303.63 831,-284.38 977.5,-284.38 977.5,-303.63"/>
<text text-anchor="middle" x="904.25" y="-290.13" font-family="Helvetica,sans-Serif" font-size="10.00">Ark::internal::SymbolExecutor</text>
</a>
</g>
</g>
<!-- Node2 -->
<g id="Node000002" class="node">
<title>Node2</title>
<g id="a_Node000002"><a xlink:href="../../d5/d8f/classArk_1_1internal_1_1MacroExecutor.html" target="_top" xlink:title="A class that applies macros in a Node.">
<polygon fill="white" stroke="#666666" points="695.88,-296.63 555.38,-296.63 555.38,-277.38 695.88,-277.38 695.88,-296.63"/>
<text text-anchor="middle" x="625.62" y="-283.13" font-family="Helvetica,sans-Serif" font-size="10.00">Ark::internal::MacroExecutor</text>
</a>
</g>
</g>
<!-- Node2&#45;&gt;Node1 -->
<g id="edge1_Node000001_Node000002" class="edge">
<title>Node2&#45;&gt;Node1</title>
<g id="a_edge1_Node000001_Node000002"><a xlink:title=" ">
<path fill="none" stroke="#63b8ff" d="M707.41,-289.05C746.47,-290.04 792.98,-291.22 830.88,-292.18"/>
<polygon fill="#63b8ff" stroke="#63b8ff" points="707.67,-285.56 697.59,-288.8 707.49,-292.56 707.67,-285.56"/>
</a>
</g>
</g>
<!-- Node17 -->
<g id="Node000017" class="node">
<title>Node17</title>
<g id="a_Node000017"><a xlink:title=" ">
<polygon fill="white" stroke="#666666" points="971.5,-352.26 837,-352.26 837,-321.76 971.5,-321.76 971.5,-352.26"/>
<text text-anchor="start" x="845" y="-338.76" font-family="Helvetica,sans-Serif" font-size="10.00">std::shared_ptr&lt; Ark</text>
<text text-anchor="middle" x="904.25" y="-327.51" font-family="Helvetica,sans-Serif" font-size="10.00">::internal::MacroExecutor &gt;</text>
</a>
</g>
</g>
<!-- Node2&#45;&gt;Node17 -->
<g id="edge21_Node000017_Node000002" class="edge">
<title>Node2&#45;&gt;Node17</title>
<g id="a_edge21_Node000017_Node000002"><a xlink:title=" ">
<path fill="none" stroke="#9a32cd" stroke-dasharray="5,2" d="M693.9,-299.17C737.26,-307.01 793.4,-317.15 836.63,-324.97"/>
<polygon fill="#9a32cd" stroke="#9a32cd" points="694.56,-295.73 684.09,-297.4 693.31,-302.62 694.56,-295.73"/>
</a>
</g>
<text text-anchor="middle" x="764.5" y="-321.16" font-family="Helvetica,sans-Serif" font-size="10.00" fill="grey"> ptr</text>
</g>
<!-- Node3 -->
<g id="Node000003" class="node">
<title>Node3</title>
<g id="a_Node000003"><a xlink:href="../../d5/db5/classArk_1_1internal_1_1MacroProcessor.html" target="_top" xlink:title="The class handling the macros definitions and calls, given an AST.">
<polygon fill="white" stroke="#666666" points="1582.5,-138.63 1436.75,-138.63 1436.75,-119.38 1582.5,-119.38 1582.5,-138.63"/>
<text text-anchor="middle" x="1509.62" y="-125.13" font-family="Helvetica,sans-Serif" font-size="10.00">Ark::internal::MacroProcessor</text>
</a>
</g>
</g>
<!-- Node3&#45;&gt;Node2 -->
<g id="edge2_Node000002_Node000003" class="edge">
<title>Node3&#45;&gt;Node2</title>
<g id="a_edge2_Node000002_Node000003"><a xlink:title=" ">
<path fill="none" stroke="#9a32cd" stroke-dasharray="5,2" d="M1466.11,-142.56C1451.17,-147.24 1434.24,-152.45 1418.75,-157.01 1295.54,-193.22 1266.45,-210.22 1140.25,-234.01 983,-263.64 795.33,-277.72 696.11,-283.53"/>
<polygon fill="#9a32cd" stroke="#9a32cd" points="1467.16,-145.9 1475.65,-139.56 1465.06,-139.22 1467.16,-145.9"/>
</a>
</g>
<text text-anchor="middle" x="1067.88" y="-257.59" font-family="Helvetica,sans-Serif" font-size="10.00" fill="grey"> m_processor</text>
</g>
<!-- Node4 -->
<g id="Node000004" class="node">
<title>Node4</title>
<g id="a_Node000004"><a xlink:href="../../da/d7b/classArk_1_1internal_1_1Pass.html" target="_top" xlink:title="An interface to describe compiler passes.">
<polygon fill="white" stroke="#666666" points="813,-36.63 716,-36.63 716,-17.38 813,-17.38 813,-36.63"/>
<text text-anchor="middle" x="764.5" y="-23.13" font-family="Helvetica,sans-Serif" font-size="10.00">Ark::internal::Pass</text>
</a>
</g>
</g>
<!-- Node4&#45;&gt;Node3 -->
<g id="edge3_Node000003_Node000004" class="edge">
<title>Node4&#45;&gt;Node3</title>
<g id="a_edge3_Node000003_Node000004"><a xlink:title=" ">
<path fill="none" stroke="#63b8ff" d="M824.75,-17.41C942.54,-0.9 1212.55,23.98 1418.75,-55.01 1454.23,-68.6 1486.07,-102.14 1500.48,-119"/>
<polygon fill="#63b8ff" stroke="#63b8ff" points="824.4,-13.93 815,-18.81 825.39,-20.85 824.4,-13.93"/>
</a>
</g>
</g>
<!-- Node5 -->
<g id="Node000005" class="node">
<title>Node5</title>
<g id="a_Node000005"><a xlink:href="../../d6/d2f/classArk_1_1internal_1_1Logger.html" target="_top" xlink:title=" ">
<polygon fill="white" stroke="#666666" points="412,-42.63 308.25,-42.63 308.25,-23.38 412,-23.38 412,-42.63"/>
<text text-anchor="middle" x="360.12" y="-29.13" font-family="Helvetica,sans-Serif" font-size="10.00">Ark::internal::Logger</text>
</a>
</g>
</g>
<!-- Node5&#45;&gt;Node4 -->
<g id="edge4_Node000004_Node000005" class="edge">
<title>Node5&#45;&gt;Node4</title>
<g id="a_edge4_Node000004_Node000005"><a xlink:title=" ">
<path fill="none" stroke="#9a32cd" stroke-dasharray="5,2" d="M423.97,-32.07C504.64,-30.87 642.86,-28.81 715.57,-27.72"/>
<polygon fill="#9a32cd" stroke="#9a32cd" points="423.95,-28.57 414.01,-32.22 424.06,-35.57 423.95,-28.57"/>
</a>
</g>
<text text-anchor="middle" x="482.62" y="-33.67" font-family="Helvetica,sans-Serif" font-size="10.00" fill="grey"> m_logger</text>
</g>
<!-- Node6 -->
<g id="Node000006" class="node">
<title>Node6</title>
<g id="a_Node000006"><a xlink:title=" ">
<polygon fill="white" stroke="#666666" points="190.5,-85.63 131,-85.63 131,-66.38 190.5,-66.38 190.5,-85.63"/>
<text text-anchor="middle" x="160.75" y="-72.13" font-family="Helvetica,sans-Serif" font-size="10.00">std::string</text>
</a>
</g>
</g>
<!-- Node6&#45;&gt;Node5 -->
<g id="edge5_Node000005_Node000006" class="edge">
<title>Node6&#45;&gt;Node5</title>
<g id="a_edge5_Node000005_Node000006"><a xlink:title=" ">
<path fill="none" stroke="#9a32cd" stroke-dasharray="5,2" d="M201.6,-62.62C203.92,-61.96 206.24,-61.33 208.5,-60.76 241.23,-52.44 278.56,-45.55 307.86,-40.71"/>
<polygon fill="#9a32cd" stroke="#9a32cd" points="200.77,-59.21 192.2,-65.45 202.79,-65.92 200.77,-59.21"/>
</a>
</g>
<text text-anchor="middle" x="249.38" y="-62.51" font-family="Helvetica,sans-Serif" font-size="10.00" fill="grey"> m_name</text>
</g>
<!-- Node8 -->
<g id="Node000008" class="node">
<title>Node8</title>
<g id="a_Node000008"><a xlink:href="../../dc/d9e/classArk_1_1internal_1_1Node.html" target="_top" xlink:title="A node of an Abstract Syntax Tree for ArkScript.">
<polygon fill="white" stroke="#666666" points="409,-85.63 311.25,-85.63 311.25,-66.38 409,-66.38 409,-85.63"/>
<text text-anchor="middle" x="360.12" y="-72.13" font-family="Helvetica,sans-Serif" font-size="10.00">Ark::internal::Node</text>
</a>
</g>
</g>
<!-- Node6&#45;&gt;Node8 -->
<g id="edge8_Node000008_Node000006" class="edge">
<title>Node6&#45;&gt;Node8</title>
<g id="a_edge8_Node000008_Node000006"><a xlink:title=" ">
<path fill="none" stroke="#9a32cd" stroke-dasharray="5,2" d="M202.32,-76.01C233.9,-76.01 277.8,-76.01 311.12,-76.01"/>
<polygon fill="#9a32cd" stroke="#9a32cd" points="202.39,-72.51 192.39,-76.01 202.39,-79.51 202.39,-72.51"/>
</a>
</g>
<text text-anchor="middle" x="249.38" y="-100.26" font-family="Helvetica,sans-Serif" font-size="10.00" fill="grey"> m_after_comment</text>
<text text-anchor="middle" x="249.38" y="-89.01" font-family="Helvetica,sans-Serif" font-size="10.00" fill="grey">m_comment</text>
<text text-anchor="middle" x="249.38" y="-77.76" font-family="Helvetica,sans-Serif" font-size="10.00" fill="grey">m_filename</text>
</g>
<!-- Node11 -->
<g id="Node000011" class="node">
<title>Node11</title>
<g id="a_Node000011"><a xlink:title=" ">
<polygon fill="white" stroke="#666666" points="676.75,-148.88 574.5,-148.88 574.5,-107.13 676.75,-107.13 676.75,-148.88"/>
<text text-anchor="start" x="582.5" y="-135.38" font-family="Helvetica,sans-Serif" font-size="10.00">std::unordered_map</text>
<text text-anchor="start" x="582.5" y="-124.13" font-family="Helvetica,sans-Serif" font-size="10.00">&lt; std::string, Ark::</text>
<text text-anchor="middle" x="625.62" y="-112.88" font-family="Helvetica,sans-Serif" font-size="10.00">internal::Node &gt;</text>
</a>
</g>
</g>
<!-- Node6&#45;&gt;Node11 -->
<g id="edge12_Node000011_Node000006" class="edge">
<title>Node6&#45;&gt;Node11</title>
<g id="a_edge12_Node000011_Node000006"><a xlink:title=" ">
<path fill="none" stroke="#9a32cd" stroke-dasharray="5,2" d="M178.2,-93.85C186.47,-101.55 197.13,-109.75 208.5,-114.01 274,-138.52 478.22,-133.97 574.04,-130.29"/>
<polygon fill="#9a32cd" stroke="#9a32cd" points="180.87,-91.57 171.32,-86.97 175.92,-96.52 180.87,-91.57"/>
</a>
</g>
<text text-anchor="middle" x="360.12" y="-134.9" font-family="Helvetica,sans-Serif" font-size="10.00" fill="grey"> keys</text>
</g>
<!-- Node7 -->
<g id="Node000007" class="node">
<title>Node7</title>
<g id="a_Node000007"><a xlink:title=" ">
<polygon fill="white" stroke="#666666" points="94,-91.26 0,-91.26 0,-60.76 94,-60.76 94,-91.26"/>
<text text-anchor="start" x="8" y="-77.76" font-family="Helvetica,sans-Serif" font-size="10.00">std::basic_string&lt;</text>
<text text-anchor="middle" x="47" y="-66.51" font-family="Helvetica,sans-Serif" font-size="10.00"> Char &gt;</text>
</a>
</g>
</g>
<!-- Node7&#45;&gt;Node6 -->
<g id="edge6_Node000006_Node000007" class="edge">
<title>Node7&#45;&gt;Node6</title>
<g id="a_edge6_Node000006_Node000007"><a xlink:title=" ">
<path fill="none" stroke="#63b8ff" d="M105.71,-76.01C114.32,-76.01 122.87,-76.01 130.55,-76.01"/>
<polygon fill="#63b8ff" stroke="#63b8ff" points="105.93,-72.51 95.93,-76.01 105.93,-79.51 105.93,-72.51"/>
</a>
</g>
</g>
<!-- Node8&#45;&gt;Node3 -->
<g id="edge7_Node000003_Node000008" class="edge">
<title>Node8&#45;&gt;Node3</title>
<g id="a_edge7_Node000003_Node000008"><a xlink:title=" ">
<path fill="none" stroke="#9a32cd" stroke-dasharray="5,2" d="M420.5,-73.53C473.89,-71.52 554.49,-69.01 624.62,-69.01 624.62,-69.01 624.62,-69.01 1250.88,-69.01 1337.94,-69.01 1437.34,-101.88 1483.11,-118.97"/>
<polygon fill="#9a32cd" stroke="#9a32cd" points="420.57,-70.02 410.71,-73.91 420.84,-77.02 420.57,-70.02"/>
</a>
</g>
<text text-anchor="middle" x="904.25" y="-70.76" font-family="Helvetica,sans-Serif" font-size="10.00" fill="grey"> m_ast</text>
</g>
<!-- Node8&#45;&gt;Node11 -->
<g id="edge13_Node000011_Node000008" class="edge">
<title>Node8&#45;&gt;Node11</title>
<g id="a_edge13_Node000011_Node000008"><a xlink:title=" ">
<path fill="none" stroke="#9a32cd" stroke-dasharray="5,2" d="M420.55,-83.29C454.36,-87.9 497.39,-94.53 535.25,-102.76 548.01,-105.53 561.65,-109.08 574.32,-112.63"/>
<polygon fill="#9a32cd" stroke="#9a32cd" points="421.33,-79.87 410.96,-82.01 420.41,-86.81 421.33,-79.87"/>
</a>
</g>
<text text-anchor="middle" x="482.62" y="-104.51" font-family="Helvetica,sans-Serif" font-size="10.00" fill="grey"> elements</text>
</g>
<!-- Node9 -->
<g id="Node000009" class="node">
<title>Node9</title>
<g id="a_Node000009"><a xlink:title=" ">
<polygon fill="white" stroke="#666666" points="1311.5,-166.26 1188.25,-166.26 1188.25,-135.76 1311.5,-135.76 1311.5,-166.26"/>
<text text-anchor="start" x="1196.25" y="-152.76" font-family="Helvetica,sans-Serif" font-size="10.00">std::vector&lt; Ark::internal</text>
<text text-anchor="middle" x="1249.88" y="-141.51" font-family="Helvetica,sans-Serif" font-size="10.00">::MacroScope &gt;</text>
</a>
</g>
</g>
<!-- Node9&#45;&gt;Node3 -->
<g id="edge9_Node000003_Node000009" class="edge">
<title>Node9&#45;&gt;Node3</title>
<g id="a_edge9_Node000003_Node000009"><a xlink:title=" ">
<path fill="none" stroke="#9a32cd" stroke-dasharray="5,2" d="M1323.19,-144.84C1358.61,-141.81 1401.15,-138.18 1436.54,-135.16"/>
<polygon fill="#9a32cd" stroke="#9a32cd" points="1323.13,-141.33 1313.47,-145.67 1323.73,-148.3 1323.13,-141.33"/>
</a>
</g>
<text text-anchor="middle" x="1389.12" y="-143.08" font-family="Helvetica,sans-Serif" font-size="10.00" fill="grey"> m_macros</text>
</g>
<!-- Node10 -->
<g id="Node000010" class="node">
<title>Node10</title>
<g id="a_Node000010"><a xlink:href="../../d6/d42/classArk_1_1internal_1_1MacroScope.html" target="_top" xlink:title=" ">
<polygon fill="white" stroke="#666666" points="968.88,-155.63 839.62,-155.63 839.62,-136.38 968.88,-136.38 968.88,-155.63"/>
<text text-anchor="middle" x="904.25" y="-142.13" font-family="Helvetica,sans-Serif" font-size="10.00">Ark::internal::MacroScope</text>
</a>
</g>
</g>
<!-- Node10&#45;&gt;Node9 -->
<g id="edge10_Node000009_Node000010" class="edge">
<title>Node10&#45;&gt;Node9</title>
<g id="a_edge10_Node000009_Node000010"><a xlink:title=" ">
<path fill="none" stroke="#9a32cd" stroke-dasharray="5,2" d="M980.48,-143.09C985.56,-142.96 990.61,-142.85 995.5,-142.76 1059.82,-141.6 1075.96,-140.32 1140.25,-142.76 1155.75,-143.35 1172.46,-144.4 1188.02,-145.57"/>
<polygon fill="#9a32cd" stroke="#9a32cd" points="980.74,-139.59 970.85,-143.37 980.95,-146.58 980.74,-139.59"/>
</a>
</g>
<text text-anchor="middle" x="1067.88" y="-144.51" font-family="Helvetica,sans-Serif" font-size="10.00" fill="grey"> elements</text>
</g>
<!-- Node11&#45;&gt;Node3 -->
<g id="edge25_Node000003_Node000011" class="edge">
<title>Node11&#45;&gt;Node3</title>
<g id="a_edge25_Node000003_Node000011"><a xlink:title=" ">
<path fill="none" stroke="#9a32cd" stroke-dasharray="5,2" d="M688.2,-127.44C784.6,-126.62 977.01,-125.25 1140.25,-125.76 1229.7,-126.04 1252.06,-126.19 1341.5,-127.01 1372.69,-127.29 1407.16,-127.69 1436.65,-128.06"/>
<polygon fill="#9a32cd" stroke="#9a32cd" points="688.41,-123.94 678.44,-127.52 688.47,-130.94 688.41,-123.94"/>
</a>
</g>
<text text-anchor="middle" x="1067.88" y="-127.51" font-family="Helvetica,sans-Serif" font-size="10.00" fill="grey"> m_defined_functions</text>
</g>
<!-- Node11&#45;&gt;Node10 -->
<g id="edge11_Node000010_Node000011" class="edge">
<title>Node11&#45;&gt;Node10</title>
<g id="a_edge11_Node000010_Node000011"><a xlink:title=" ">
<path fill="none" stroke="#9a32cd" stroke-dasharray="5,2" d="M688.39,-132.03C733.29,-134.95 793.9,-138.89 839.3,-141.85"/>
<polygon fill="#9a32cd" stroke="#9a32cd" points="688.76,-128.54 678.55,-131.39 688.3,-135.53 688.76,-128.54"/>
</a>
</g>
<text text-anchor="middle" x="764.5" y="-141.42" font-family="Helvetica,sans-Serif" font-size="10.00" fill="grey"> m_macros</text>
</g>
<!-- Node12 -->
<g id="Node000012" class="node">
<title>Node12</title>
<g id="a_Node000012"><a xlink:title=" ">
<polygon fill="white" stroke="#666666" points="411.25,-188.26 309,-188.26 309,-157.76 411.25,-157.76 411.25,-188.26"/>
<text text-anchor="start" x="317" y="-174.76" font-family="Helvetica,sans-Serif" font-size="10.00">std::unordered_map</text>
<text text-anchor="middle" x="360.12" y="-163.51" font-family="Helvetica,sans-Serif" font-size="10.00">&lt; K, T &gt;</text>
</a>
</g>
</g>
<!-- Node12&#45;&gt;Node11 -->
<g id="edge14_Node000011_Node000012" class="edge">
<title>Node12&#45;&gt;Node11</title>
<g id="a_edge14_Node000011_Node000012"><a xlink:title=" ">
<path fill="none" stroke="orange" stroke-dasharray="5,2" d="M422.68,-162.5C468.8,-154.62 531.14,-143.97 574.3,-136.6"/>
<polygon fill="orange" stroke="orange" points="422.38,-159 413.11,-164.13 423.56,-165.9 422.38,-159"/>
</a>
</g>
<text text-anchor="start" x="444.75" y="-173.94" font-family="Helvetica,sans-Serif" font-size="10.00" fill="grey"> &lt; std::string, Ark</text>
<text text-anchor="middle" x="482.62" y="-162.69" font-family="Helvetica,sans-Serif" font-size="10.00" fill="grey">::internal::Node &gt;</text>
</g>
<!-- Node13 -->
<g id="Node000013" class="node">
<title>Node13</title>
<g id="a_Node000013"><a xlink:title=" ">
<polygon fill="white" stroke="#666666" points="175.15,-175.63 146.35,-175.63 146.35,-156.38 175.15,-156.38 175.15,-175.63"/>
<text text-anchor="middle" x="160.75" y="-162.13" font-family="Helvetica,sans-Serif" font-size="10.00">K</text>
</a>
</g>
</g>
<!-- Node13&#45;&gt;Node12 -->
<g id="edge15_Node000012_Node000013" class="edge">
<title>Node13&#45;&gt;Node12</title>
<g id="a_edge15_Node000012_Node000013"><a xlink:title=" ">
<path fill="none" stroke="#9a32cd" stroke-dasharray="5,2" d="M187.03,-165.52C212.95,-165.18 254.44,-165.03 290.25,-166.76 296.25,-167.05 302.53,-167.46 308.75,-167.94"/>
<polygon fill="#9a32cd" stroke="#9a32cd" points="187.1,-162.02 177.15,-165.68 187.21,-169.02 187.1,-162.02"/>
</a>
</g>
<text text-anchor="middle" x="249.38" y="-168.51" font-family="Helvetica,sans-Serif" font-size="10.00" fill="grey"> keys</text>
</g>
<!-- Node14 -->
<g id="Node000014" class="node">
<title>Node14</title>
<g id="a_Node000014"><a xlink:title=" ">
<polygon fill="white" stroke="#666666" points="175.15,-235.63 146.35,-235.63 146.35,-216.38 175.15,-216.38 175.15,-235.63"/>
<text text-anchor="middle" x="160.75" y="-222.13" font-family="Helvetica,sans-Serif" font-size="10.00">T</text>
</a>
</g>
</g>
<!-- Node14&#45;&gt;Node12 -->
<g id="edge16_Node000012_Node000014" class="edge">
<title>Node14&#45;&gt;Node12</title>
<g id="a_edge16_Node000012_Node000014"><a xlink:title=" ">
<path fill="none" stroke="#9a32cd" stroke-dasharray="5,2" d="M185.34,-211.41C192.56,-207.46 200.67,-203.52 208.5,-200.76 240.85,-189.36 278.85,-182.4 308.58,-178.31"/>
<polygon fill="#9a32cd" stroke="#9a32cd" points="183.76,-208.28 176.85,-216.31 187.26,-214.34 183.76,-208.28"/>
</a>
</g>
<text text-anchor="middle" x="249.38" y="-202.51" font-family="Helvetica,sans-Serif" font-size="10.00" fill="grey"> elements</text>
</g>
<!-- Node15 -->
<g id="Node000015" class="node">
<title>Node15</title>
<g id="a_Node000015"><a xlink:title=" ">
<polygon fill="white" stroke="#666666" points="947.5,-219.63 861,-219.63 861,-200.38 947.5,-200.38 947.5,-219.63"/>
<text text-anchor="middle" x="904.25" y="-206.13" font-family="Helvetica,sans-Serif" font-size="10.00">std::vector&lt; T &gt;</text>
</a>
</g>
</g>
<!-- Node14&#45;&gt;Node15 -->
<g id="edge18_Node000015_Node000014" class="edge">
<title>Node14&#45;&gt;Node15</title>
<g id="a_edge18_Node000015_Node000014"><a xlink:title=" ">
<path fill="none" stroke="#9a32cd" stroke-dasharray="5,2" d="M186.92,-225.46C295.4,-223.12 723.69,-213.88 860.79,-210.92"/>
<polygon fill="#9a32cd" stroke="#9a32cd" points="187.01,-221.96 177.09,-225.68 187.16,-228.96 187.01,-221.96"/>
</a>
</g>
<text text-anchor="middle" x="482.62" y="-221.95" font-family="Helvetica,sans-Serif" font-size="10.00" fill="grey"> elements</text>
</g>
<!-- Node18 -->
<g id="Node000018" class="node">
<title>Node18</title>
<g id="a_Node000018"><a xlink:title=" ">
<polygon fill="white" stroke="#666666" points="535.25,-335.63 430,-335.63 430,-316.38 535.25,-316.38 535.25,-335.63"/>
<text text-anchor="middle" x="482.62" y="-322.13" font-family="Helvetica,sans-Serif" font-size="10.00">std::shared_ptr&lt; T &gt;</text>
</a>
</g>
</g>
<!-- Node14&#45;&gt;Node18 -->
<g id="edge23_Node000018_Node000014" class="edge">
<title>Node14&#45;&gt;Node18</title>
<g id="a_edge23_Node000018_Node000014"><a xlink:title=" ">
<path fill="none" stroke="#9a32cd" stroke-dasharray="5,2" d="M186.35,-233.7C243.55,-251.58 385.43,-295.93 449.42,-315.94"/>
<polygon fill="#9a32cd" stroke="#9a32cd" points="187.53,-230.4 176.94,-230.76 185.44,-237.08 187.53,-230.4"/>
</a>
</g>
<text text-anchor="middle" x="249.38" y="-267.12" font-family="Helvetica,sans-Serif" font-size="10.00" fill="grey"> ptr</text>
</g>
<!-- Node15&#45;&gt;Node9 -->
<g id="edge17_Node000009_Node000015" class="edge">
<title>Node15&#45;&gt;Node9</title>
<g id="a_edge17_Node000009_Node000015"><a xlink:title=" ">
<path fill="none" stroke="orange" stroke-dasharray="5,2" d="M938.17,-195.61C955.01,-188.83 976.02,-181.26 995.5,-176.76 1060.12,-161.82 1136,-155.55 1187.76,-152.91"/>
<polygon fill="orange" stroke="orange" points="937.07,-192.28 929.16,-199.33 939.74,-198.74 937.07,-192.28"/>
</a>
</g>
<text text-anchor="middle" x="1067.88" y="-178.51" font-family="Helvetica,sans-Serif" font-size="10.00" fill="grey"> &lt; Ark::internal::MacroScope &gt;</text>
</g>
<!-- Node16 -->
<g id="Node000016" class="node">
<title>Node16</title>
<g id="a_Node000016"><a xlink:title=" ">
<polygon fill="white" stroke="#666666" points="1341.5,-314.26 1158.25,-314.26 1158.25,-283.76 1341.5,-283.76 1341.5,-314.26"/>
<text text-anchor="start" x="1166.25" y="-300.76" font-family="Helvetica,sans-Serif" font-size="10.00">std::vector&lt; std::shared</text>
<text text-anchor="middle" x="1249.88" y="-289.51" font-family="Helvetica,sans-Serif" font-size="10.00">_ptr&lt; Ark::internal::MacroExecutor &gt; &gt;</text>
</a>
</g>
</g>
<!-- Node15&#45;&gt;Node16 -->
<g id="edge24_Node000016_Node000015" class="edge">
<title>Node15&#45;&gt;Node16</title>
<g id="a_edge24_Node000016_Node000015"><a xlink:title=" ">
<path fill="none" stroke="orange" stroke-dasharray="5,2" d="M959.12,-200.51C1007.91,-194.17 1081.01,-190.4 1140.25,-211.51 1180.63,-225.89 1217.1,-262.21 1235.76,-283.26"/>
<polygon fill="orange" stroke="orange" points="958.79,-197.02 949.37,-201.86 959.76,-203.95 958.79,-197.02"/>
</a>
</g>
<text text-anchor="start" x="995.5" y="-224.51" font-family="Helvetica,sans-Serif" font-size="10.00" fill="grey"> &lt; std::shared_ptr&lt;</text>
<text text-anchor="middle" x="1067.88" y="-213.26" font-family="Helvetica,sans-Serif" font-size="10.00" fill="grey"> Ark::internal::MacroExecutor &gt; &gt;</text>
</g>
<!-- Node16&#45;&gt;Node3 -->
<g id="edge19_Node000003_Node000016" class="edge">
<title>Node16&#45;&gt;Node3</title>
<g id="a_edge19_Node000003_Node000016"><a xlink:title=" ">
<path fill="none" stroke="#9a32cd" stroke-dasharray="5,2" d="M1353.08,-295.09C1376.08,-290.6 1399.39,-282.89 1418.75,-270.01 1468.78,-236.72 1496.66,-165.07 1505.51,-138.87"/>
<polygon fill="#9a32cd" stroke="#9a32cd" points="1352.58,-291.63 1343.33,-296.79 1353.78,-298.52 1352.58,-291.63"/>
</a>
</g>
<text text-anchor="middle" x="1389.12" y="-294.54" font-family="Helvetica,sans-Serif" font-size="10.00" fill="grey"> m_executors</text>
</g>
<!-- Node17&#45;&gt;Node16 -->
<g id="edge20_Node000016_Node000017" class="edge">
<title>Node17&#45;&gt;Node16</title>
<g id="a_edge20_Node000016_Node000017"><a xlink:title=" ">
<path fill="none" stroke="#9a32cd" stroke-dasharray="5,2" d="M983.07,-328.4C1035.03,-322.66 1103.57,-315.08 1158.03,-309.05"/>
<polygon fill="#9a32cd" stroke="#9a32cd" points="982.97,-324.89 973.42,-329.47 983.74,-331.85 982.97,-324.89"/>
</a>
</g>
<text text-anchor="middle" x="1067.88" y="-328.57" font-family="Helvetica,sans-Serif" font-size="10.00" fill="grey"> elements</text>
</g>
<!-- Node18&#45;&gt;Node17 -->
<g id="edge22_Node000017_Node000018" class="edge">
<title>Node18&#45;&gt;Node17</title>
<g id="a_edge22_Node000017_Node000018"><a xlink:title=" ">
<path fill="none" stroke="orange" stroke-dasharray="5,2" d="M546.6,-327.66C624.63,-329.7 756.97,-333.17 836.63,-335.26"/>
<polygon fill="orange" stroke="orange" points="547.1,-324.17 537.01,-327.41 546.92,-331.17 547.1,-324.17"/>
</a>
</g>
<text text-anchor="middle" x="625.62" y="-333.26" font-family="Helvetica,sans-Serif" font-size="10.00" fill="grey"> &lt; Ark::internal::MacroExecutor &gt;</text>
</g>
</g>
</svg>
