<?xml version="1.0" encoding="UTF-8" standalone="no"?>
<!DOCTYPE svg PUBLIC "-//W3C//DTD SVG 1.1//EN"
 "http://www.w3.org/Graphics/SVG/1.1/DTD/svg11.dtd">
<!-- Generated by graphviz version 7.1.0 (20230121.1956)
 -->
<!-- Title: Ark::internal::SymbolExecutor Pages: 1 -->
<svg width="1665pt" height="489pt"
 viewBox="0.00 0.00 1665.00 488.50" xmlns="http://www.w3.org/2000/svg" xmlns:xlink="http://www.w3.org/1999/xlink">
<g id="graph0" class="graph" transform="scale(1 1) rotate(0) translate(4 484.5)">
<title>Ark::internal::SymbolExecutor</title>
<!-- Node1 -->
<g id="node1" class="node">
<title>Node1</title>
<g id="a_node1"><a xlink:title="Handles Symbol macros.">
<polygon fill="#999999" stroke="#666666" points="751,-480.5 604,-480.5 604,-461.5 751,-461.5 751,-480.5"/>
<text text-anchor="middle" x="677.5" y="-468.5" font-family="Helvetica,sans-Serif" font-size="10.00">Ark::internal::SymbolExecutor</text>
</a>
</g>
</g>
<!-- Node2 -->
<g id="node2" class="node">
<title>Node2</title>
<g id="a_node2"><a xlink:href="../../d5/d8f/classArk_1_1internal_1_1MacroExecutor.html" target="_top" xlink:title="A class that applies macros in a Node.">
<polygon fill="white" stroke="#666666" points="423,-442.5 282,-442.5 282,-423.5 423,-423.5 423,-442.5"/>
<text text-anchor="middle" x="352.5" y="-430.5" font-family="Helvetica,sans-Serif" font-size="10.00">Ark::internal::MacroExecutor</text>
</a>
</g>
</g>
<!-- Node2&#45;&gt;Node1 -->
<g id="edge1" class="edge">
<title>Node2&#45;&gt;Node1</title>
<path fill="none" stroke="#63b8ff" d="M423.86,-444.62C429.65,-445.46 435.42,-446.27 441,-447 495.4,-454.12 557.11,-460.34 603.7,-464.66"/>
<polygon fill="#63b8ff" stroke="#63b8ff" points="424.64,-441.19 414.24,-443.17 423.61,-448.12 424.64,-441.19"/>
</g>
<!-- Node17 -->
<g id="node17" class="node">
<title>Node17</title>
<g id="a_node17"><a xlink:title=" ">
<polygon fill="white" stroke="#666666" points="745,-405 610,-405 610,-375 745,-375 745,-405"/>
<text text-anchor="start" x="618" y="-393" font-family="Helvetica,sans-Serif" font-size="10.00">std::shared_ptr&lt; Ark</text>
<text text-anchor="middle" x="677.5" y="-382" font-family="Helvetica,sans-Serif" font-size="10.00">::internal::MacroExecutor &gt;</text>
</a>
</g>
</g>
<!-- Node2&#45;&gt;Node17 -->
<g id="edge22" class="edge">
<title>Node2&#45;&gt;Node17</title>
<path fill="none" stroke="#9a32cd" stroke-dasharray="5,2" d="M393.52,-419.73C408.29,-415.32 425.26,-410.82 441,-408 497.3,-397.91 562.18,-393.47 609.56,-391.52"/>
<polygon fill="#9a32cd" stroke="#9a32cd" points="392.69,-416.32 384.16,-422.6 394.75,-423.01 392.69,-416.32"/>
<text text-anchor="middle" x="513.5" y="-411" font-family="Helvetica,sans-Serif" font-size="10.00"> ptr</text>
</g>
<!-- Node3 -->
<g id="node3" class="node">
<title>Node3</title>
<g id="a_node3"><a xlink:href="../../d5/db5/classArk_1_1internal_1_1MacroProcessor.html" target="_top" xlink:title="The class handling the macros definitions and calls, given an AST.">
<polygon fill="white" stroke="#666666" points="1657,-259.5 1511,-259.5 1511,-240.5 1657,-240.5 1657,-259.5"/>
<text text-anchor="middle" x="1584" y="-247.5" font-family="Helvetica,sans-Serif" font-size="10.00">Ark::internal::MacroProcessor</text>
</a>
</g>
</g>
<!-- Node3&#45;&gt;Node2 -->
<g id="edge2" class="edge">
<title>Node3&#45;&gt;Node2</title>
<path fill="none" stroke="#9a32cd" stroke-dasharray="5,2" d="M1568.89,-268.92C1532.23,-315.7 1428.71,-433 1312.5,-433 676.5,-433 676.5,-433 676.5,-433 589.3,-433 488.86,-433 423.44,-433"/>
<polygon fill="#9a32cd" stroke="#9a32cd" points="1571.63,-271.1 1574.94,-261.04 1566.07,-266.84 1571.63,-271.1"/>
<text text-anchor="middle" x="1013" y="-436" font-family="Helvetica,sans-Serif" font-size="10.00"> m_macroprocessor</text>
</g>
<!-- Node4 -->
<g id="node4" class="node">
<title>Node4</title>
<g id="a_node4"><a xlink:href="../../dc/d9e/classArk_1_1internal_1_1Node.html" target="_top" xlink:title="A node of an Abstract Syntax Tree for ArkScript.">
<polygon fill="white" stroke="#666666" points="401.5,-87.5 303.5,-87.5 303.5,-68.5 401.5,-68.5 401.5,-87.5"/>
<text text-anchor="middle" x="352.5" y="-75.5" font-family="Helvetica,sans-Serif" font-size="10.00">Ark::internal::Node</text>
</a>
</g>
</g>
<!-- Node4&#45;&gt;Node3 -->
<g id="edge3" class="edge">
<title>Node4&#45;&gt;Node3</title>
<path fill="none" stroke="#9a32cd" stroke-dasharray="5,2" d="M412.63,-67.03C416.19,-65.82 419.67,-64.48 423,-63 432.01,-58.98 431.98,-54 441,-50 538.82,-6.63 569.5,0 676.5,0 676.5,0 676.5,0 1312.5,0 1456.7,0 1556.74,-193.98 1578.54,-240.2"/>
<polygon fill="#9a32cd" stroke="#9a32cd" points="411.83,-63.62 403.26,-69.85 413.84,-70.32 411.83,-63.62"/>
<text text-anchor="middle" x="1013" y="-3" font-family="Helvetica,sans-Serif" font-size="10.00"> m_ast</text>
</g>
<!-- Node5 -->
<g id="node5" class="node">
<title>Node5</title>
<g id="a_node5"><a xlink:title=" ">
<polygon fill="white" stroke="#666666" points="739.5,-151 615.5,-151 615.5,-121 739.5,-121 739.5,-151"/>
<text text-anchor="start" x="623.5" y="-139" font-family="Helvetica,sans-Serif" font-size="10.00">std::vector&lt; Ark::internal</text>
<text text-anchor="middle" x="677.5" y="-128" font-family="Helvetica,sans-Serif" font-size="10.00">::Node &gt;</text>
</a>
</g>
</g>
<!-- Node4&#45;&gt;Node5 -->
<g id="edge5" class="edge">
<title>Node4&#45;&gt;Node5</title>
<path fill="none" stroke="#9a32cd" stroke-dasharray="5,2" d="M413.14,-76.24C471.75,-75.41 556.56,-76.89 586,-91 596.78,-96.17 594.03,-104.4 604,-111 609.55,-114.68 615.7,-117.87 622,-120.63"/>
<polygon fill="#9a32cd" stroke="#9a32cd" points="413.24,-72.74 403.3,-76.41 413.36,-79.74 413.24,-72.74"/>
<text text-anchor="middle" x="513.5" y="-94" font-family="Helvetica,sans-Serif" font-size="10.00"> elements</text>
</g>
<!-- Node12 -->
<g id="node12" class="node">
<title>Node12</title>
<g id="a_node12"><a xlink:title=" ">
<polygon fill="white" stroke="#666666" points="729,-102.5 626,-102.5 626,-61.5 729,-61.5 729,-102.5"/>
<text text-anchor="start" x="634" y="-90.5" font-family="Helvetica,sans-Serif" font-size="10.00">std::unordered_map</text>
<text text-anchor="start" x="634" y="-79.5" font-family="Helvetica,sans-Serif" font-size="10.00">&lt; std::string, Ark::</text>
<text text-anchor="middle" x="677.5" y="-68.5" font-family="Helvetica,sans-Serif" font-size="10.00">internal::Node &gt;</text>
</a>
</g>
</g>
<!-- Node4&#45;&gt;Node12 -->
<g id="edge14" class="edge">
<title>Node4&#45;&gt;Node12</title>
<path fill="none" stroke="#9a32cd" stroke-dasharray="5,2" d="M401.55,-65.64C414.29,-62.89 428.09,-60.39 441,-59 505.08,-52.12 522.05,-51 586,-59 599.03,-60.63 612.87,-63.53 625.71,-66.74"/>
<polygon fill="#9a32cd" stroke="#9a32cd" points="401.14,-62.14 392.16,-67.75 402.68,-68.97 401.14,-62.14"/>
<text text-anchor="middle" x="513.5" y="-62" font-family="Helvetica,sans-Serif" font-size="10.00"> elements</text>
</g>
<!-- Node5&#45;&gt;Node4 -->
<g id="edge4" class="edge">
<title>Node5&#45;&gt;Node4</title>
<path fill="none" stroke="#9a32cd" stroke-dasharray="5,2" d="M603.8,-129.04C557,-123.85 495.03,-115.63 441,-104 421.32,-99.77 399.64,-93.33 382.77,-87.93"/>
<polygon fill="#9a32cd" stroke="#9a32cd" points="603.23,-132.5 613.55,-130.1 603.99,-125.54 603.23,-132.5"/>
<text text-anchor="middle" x="513.5" y="-130" font-family="Helvetica,sans-Serif" font-size="10.00"> m_list</text>
</g>
<!-- Node6 -->
<g id="node6" class="node">
<title>Node6</title>
<g id="a_node6"><a xlink:title=" ">
<polygon fill="white" stroke="#666666" points="396,-327.5 309,-327.5 309,-308.5 396,-308.5 396,-327.5"/>
<text text-anchor="middle" x="352.5" y="-315.5" font-family="Helvetica,sans-Serif" font-size="10.00">std::vector&lt; T &gt;</text>
</a>
</g>
</g>
<!-- Node6&#45;&gt;Node5 -->
<g id="edge6" class="edge">
<title>Node6&#45;&gt;Node5</title>
<path fill="none" stroke="orange" stroke-dasharray="5,2" d="M406.7,-309.96C412.76,-307.25 418.4,-303.69 423,-299 445.8,-275.77 418.59,-251.62 441,-228 487.44,-179.05 523.59,-208.65 586,-183 608.11,-173.91 632.06,-161.34 649.77,-151.48"/>
<polygon fill="orange" stroke="orange" points="405.86,-306.54 397.64,-313.23 408.24,-313.12 405.86,-306.54"/>
<text text-anchor="middle" x="513.5" y="-231" font-family="Helvetica,sans-Serif" font-size="10.00"> &lt; Ark::internal::Node &gt;</text>
</g>
<!-- Node10 -->
<g id="node10" class="node">
<title>Node10</title>
<g id="a_node10"><a xlink:title=" ">
<polygon fill="white" stroke="#666666" points="1373.5,-287 1249.5,-287 1249.5,-257 1373.5,-257 1373.5,-287"/>
<text text-anchor="start" x="1257.5" y="-275" font-family="Helvetica,sans-Serif" font-size="10.00">std::vector&lt; Ark::internal</text>
<text text-anchor="middle" x="1311.5" y="-264" font-family="Helvetica,sans-Serif" font-size="10.00">::MacroScope &gt;</text>
</a>
</g>
</g>
<!-- Node6&#45;&gt;Node10 -->
<g id="edge18" class="edge">
<title>Node6&#45;&gt;Node10</title>
<path fill="none" stroke="orange" stroke-dasharray="5,2" d="M407.85,-315.39C573.98,-307.4 1074.33,-283.35 1249.29,-274.94"/>
<polygon fill="orange" stroke="orange" points="407.81,-311.89 397.99,-315.86 408.15,-318.88 407.81,-311.89"/>
<text text-anchor="middle" x="836" y="-301" font-family="Helvetica,sans-Serif" font-size="10.00"> &lt; Ark::internal::MacroScope &gt;</text>
</g>
<!-- Node16 -->
<g id="node16" class="node">
<title>Node16</title>
<g id="a_node16"><a xlink:title=" ">
<polygon fill="white" stroke="#666666" points="1105,-350 921,-350 921,-320 1105,-320 1105,-350"/>
<text text-anchor="start" x="929" y="-338" font-family="Helvetica,sans-Serif" font-size="10.00">std::vector&lt; std::shared</text>
<text text-anchor="middle" x="1013" y="-327" font-family="Helvetica,sans-Serif" font-size="10.00">_ptr&lt; Ark::internal::MacroExecutor &gt; &gt;</text>
</a>
</g>
</g>
<!-- Node6&#45;&gt;Node16 -->
<g id="edge25" class="edge">
<title>Node6&#45;&gt;Node16</title>
<path fill="none" stroke="orange" stroke-dasharray="5,2" d="M407.87,-319.4C520.72,-322.32 781.44,-329.05 920.6,-332.64"/>
<polygon fill="orange" stroke="orange" points="408.05,-315.91 397.97,-319.15 407.87,-322.9 408.05,-315.91"/>
<text text-anchor="start" x="605" y="-343" font-family="Helvetica,sans-Serif" font-size="10.00"> &lt; std::shared_ptr&lt;</text>
<text text-anchor="middle" x="677.5" y="-332" font-family="Helvetica,sans-Serif" font-size="10.00"> Ark::internal::MacroExecutor &gt; &gt;</text>
</g>
<!-- Node19 -->
<g id="node19" class="node">
<title>Node19</title>
<g id="a_node19"><a xlink:title=" ">
<polygon fill="white" stroke="#666666" points="740,-240.5 615,-240.5 615,-221.5 740,-221.5 740,-240.5"/>
<text text-anchor="middle" x="677.5" y="-228.5" font-family="Helvetica,sans-Serif" font-size="10.00">std::vector&lt; std::string &gt;</text>
</a>
</g>
</g>
<!-- Node6&#45;&gt;Node19 -->
<g id="edge28" class="edge">
<title>Node6&#45;&gt;Node19</title>
<path fill="none" stroke="orange" stroke-dasharray="5,2" d="M406.82,-308.39C412.63,-305.94 418.18,-302.86 423,-299 436.34,-288.31 427.02,-274.85 441,-265 448.09,-260 547.3,-246.92 614.66,-238.52"/>
<polygon fill="orange" stroke="orange" points="405.85,-305.02 397.6,-311.67 408.19,-311.62 405.85,-305.02"/>
<text text-anchor="middle" x="513.5" y="-268" font-family="Helvetica,sans-Serif" font-size="10.00"> &lt; std::string &gt;</text>
</g>
<!-- Node7 -->
<g id="node7" class="node">
<title>Node7</title>
<g id="a_node7"><a xlink:title=" ">
<polygon fill="white" stroke="#666666" points="176.5,-343.5 147.5,-343.5 147.5,-324.5 176.5,-324.5 176.5,-343.5"/>
<text text-anchor="middle" x="162" y="-331.5" font-family="Helvetica,sans-Serif" font-size="10.00">T</text>
</a>
</g>
</g>
<!-- Node7&#45;&gt;Node6 -->
<g id="edge7" class="edge">
<title>Node7&#45;&gt;Node6</title>
<path fill="none" stroke="#9a32cd" stroke-dasharray="5,2" d="M188.23,-331.86C218.97,-329.25 271.37,-324.8 308.51,-321.65"/>
<polygon fill="#9a32cd" stroke="#9a32cd" points="188.04,-328.36 178.37,-332.7 188.63,-335.34 188.04,-328.36"/>
<text text-anchor="middle" x="237" y="-333" font-family="Helvetica,sans-Serif" font-size="10.00"> elements</text>
</g>
<!-- Node13 -->
<g id="node13" class="node">
<title>Node13</title>
<g id="a_node13"><a xlink:title=" ">
<polygon fill="white" stroke="#666666" points="404,-290 301,-290 301,-260 404,-260 404,-290"/>
<text text-anchor="start" x="309" y="-278" font-family="Helvetica,sans-Serif" font-size="10.00">std::unordered_map</text>
<text text-anchor="middle" x="352.5" y="-267" font-family="Helvetica,sans-Serif" font-size="10.00">&lt; K, T &gt;</text>
</a>
</g>
</g>
<!-- Node7&#45;&gt;Node13 -->
<g id="edge17" class="edge">
<title>Node7&#45;&gt;Node13</title>
<path fill="none" stroke="#9a32cd" stroke-dasharray="5,2" d="M186.64,-321.25C193.99,-317.61 202.21,-313.86 210,-311 239.38,-300.2 273.35,-291.45 300.64,-285.27"/>
<polygon fill="#9a32cd" stroke="#9a32cd" points="185.3,-318.01 178,-325.69 188.5,-324.23 185.3,-318.01"/>
<text text-anchor="middle" x="237" y="-314" font-family="Helvetica,sans-Serif" font-size="10.00"> elements</text>
</g>
<!-- Node18 -->
<g id="node18" class="node">
<title>Node18</title>
<g id="a_node18"><a xlink:title=" ">
<polygon fill="white" stroke="#666666" points="405.5,-378.5 299.5,-378.5 299.5,-359.5 405.5,-359.5 405.5,-378.5"/>
<text text-anchor="middle" x="352.5" y="-366.5" font-family="Helvetica,sans-Serif" font-size="10.00">std::shared_ptr&lt; T &gt;</text>
</a>
</g>
</g>
<!-- Node7&#45;&gt;Node18 -->
<g id="edge24" class="edge">
<title>Node7&#45;&gt;Node18</title>
<path fill="none" stroke="#9a32cd" stroke-dasharray="5,2" d="M188.03,-340.16C195.11,-341.82 202.84,-343.56 210,-345 239.43,-350.93 272.51,-356.6 299.28,-360.93"/>
<polygon fill="#9a32cd" stroke="#9a32cd" points="188.95,-336.78 178.41,-337.85 187.32,-343.59 188.95,-336.78"/>
<text text-anchor="middle" x="237" y="-357" font-family="Helvetica,sans-Serif" font-size="10.00"> ptr</text>
</g>
<!-- Node8 -->
<g id="node8" class="node">
<title>Node8</title>
<g id="a_node8"><a xlink:title=" ">
<polygon fill="white" stroke="#666666" points="192,-87.5 132,-87.5 132,-68.5 192,-68.5 192,-87.5"/>
<text text-anchor="middle" x="162" y="-75.5" font-family="Helvetica,sans-Serif" font-size="10.00">std::string</text>
</a>
</g>
</g>
<!-- Node8&#45;&gt;Node4 -->
<g id="edge8" class="edge">
<title>Node8&#45;&gt;Node4</title>
<path fill="none" stroke="#9a32cd" stroke-dasharray="5,2" d="M203.89,-78C233.08,-78 272.46,-78 303.2,-78"/>
<polygon fill="#9a32cd" stroke="#9a32cd" points="203.97,-74.5 193.97,-78 203.97,-81.5 203.97,-74.5"/>
<text text-anchor="middle" x="237" y="-81" font-family="Helvetica,sans-Serif" font-size="10.00"> m_filename</text>
</g>
<!-- Node8&#45;&gt;Node12 -->
<g id="edge13" class="edge">
<title>Node8&#45;&gt;Node12</title>
<path fill="none" stroke="#9a32cd" stroke-dasharray="5,2" d="M203.42,-65.17C226.23,-58.6 255.41,-51.3 282,-48 416.09,-31.36 452.97,-26.33 586,-50 599.45,-52.39 613.57,-56.54 626.55,-61.06"/>
<polygon fill="#9a32cd" stroke="#9a32cd" points="202.49,-61.79 193.9,-67.98 204.48,-68.5 202.49,-61.79"/>
<text text-anchor="middle" x="352.5" y="-51" font-family="Helvetica,sans-Serif" font-size="10.00"> keys</text>
</g>
<!-- Node8&#45;&gt;Node19 -->
<g id="edge27" class="edge">
<title>Node8&#45;&gt;Node19</title>
<path fill="none" stroke="#9a32cd" stroke-dasharray="5,2" d="M187.01,-94.26C233.58,-124.8 340.44,-190.09 441,-217 498.57,-232.41 566.77,-234.82 614.92,-234.04"/>
<polygon fill="#9a32cd" stroke="#9a32cd" points="189.04,-91.41 178.77,-88.8 185.17,-97.24 189.04,-91.41"/>
<text text-anchor="middle" x="352.5" y="-214" font-family="Helvetica,sans-Serif" font-size="10.00"> elements</text>
</g>
<!-- Node9 -->
<g id="node9" class="node">
<title>Node9</title>
<g id="a_node9"><a xlink:title=" ">
<polygon fill="white" stroke="#666666" points="95,-93 0,-93 0,-63 95,-63 95,-93"/>
<text text-anchor="start" x="8" y="-81" font-family="Helvetica,sans-Serif" font-size="10.00">std::basic_string&lt;</text>
<text text-anchor="middle" x="47.5" y="-70" font-family="Helvetica,sans-Serif" font-size="10.00"> Char &gt;</text>
</a>
</g>
</g>
<!-- Node9&#45;&gt;Node8 -->
<g id="edge9" class="edge">
<title>Node9&#45;&gt;Node8</title>
<path fill="none" stroke="#63b8ff" d="M106.59,-78C115.27,-78 123.88,-78 131.6,-78"/>
<polygon fill="#63b8ff" stroke="#63b8ff" points="106.75,-74.5 96.75,-78 106.75,-81.5 106.75,-74.5"/>
</g>
<!-- Node10&#45;&gt;Node3 -->
<g id="edge10" class="edge">
<title>Node10&#45;&gt;Node3</title>
<path fill="none" stroke="#9a32cd" stroke-dasharray="5,2" d="M1385.14,-266.09C1424.1,-262.92 1471.95,-259.03 1510.84,-255.87"/>
<polygon fill="#9a32cd" stroke="#9a32cd" points="1385.07,-262.59 1375.39,-266.89 1385.64,-269.56 1385.07,-262.59"/>
<text text-anchor="middle" x="1446.5" y="-268" font-family="Helvetica,sans-Serif" font-size="10.00"> m_macros</text>
</g>
<!-- Node11 -->
<g id="node11" class="node">
<title>Node11</title>
<g id="a_node11"><a xlink:href="../../d6/d42/classArk_1_1internal_1_1MacroScope.html" target="_top" xlink:title=" ">
<polygon fill="white" stroke="#666666" points="1078,-180.5 948,-180.5 948,-161.5 1078,-161.5 1078,-180.5"/>
<text text-anchor="middle" x="1013" y="-168.5" font-family="Helvetica,sans-Serif" font-size="10.00">Ark::internal::MacroScope</text>
</a>
</g>
</g>
<!-- Node11&#45;&gt;Node10 -->
<g id="edge11" class="edge">
<title>Node11&#45;&gt;Node10</title>
<path fill="none" stroke="#9a32cd" stroke-dasharray="5,2" d="M1034.78,-188.05C1055.73,-204.31 1089.66,-228.17 1123,-241 1145.56,-249.68 1203.7,-258.58 1249.31,-264.6"/>
<polygon fill="#9a32cd" stroke="#9a32cd" points="1037.05,-185.38 1027.04,-181.91 1032.7,-190.87 1037.05,-185.38"/>
<text text-anchor="middle" x="1173" y="-264" font-family="Helvetica,sans-Serif" font-size="10.00"> elements</text>
</g>
<!-- Node12&#45;&gt;Node3 -->
<g id="edge29" class="edge">
<title>Node12&#45;&gt;Node3</title>
<path fill="none" stroke="#9a32cd" stroke-dasharray="5,2" d="M740.46,-87.28C785.66,-91.53 848.32,-98.23 903,-107 1147.78,-146.27 1437.75,-214.64 1542.63,-240.09"/>
<polygon fill="#9a32cd" stroke="#9a32cd" points="740.85,-83.8 730.57,-86.37 740.21,-90.77 740.85,-83.8"/>
<text text-anchor="middle" x="1173" y="-170" font-family="Helvetica,sans-Serif" font-size="10.00"> m_defined_functions</text>
</g>
<!-- Node12&#45;&gt;Node11 -->
<g id="edge12" class="edge">
<title>Node12&#45;&gt;Node11</title>
<path fill="none" stroke="#9a32cd" stroke-dasharray="5,2" d="M740.02,-99.1C749.71,-101.76 759.62,-104.47 769,-107 841.24,-126.49 925.74,-148.59 973.66,-161.05"/>
<polygon fill="#9a32cd" stroke="#9a32cd" points="741.24,-95.81 730.67,-96.52 739.38,-102.55 741.24,-95.81"/>
<text text-anchor="middle" x="836" y="-146" font-family="Helvetica,sans-Serif" font-size="10.00"> m_macros</text>
</g>
<!-- Node13&#45;&gt;Node12 -->
<g id="edge15" class="edge">
<title>Node13&#45;&gt;Node12</title>
<path fill="none" stroke="orange" stroke-dasharray="5,2" d="M413.79,-254.77C417.19,-252.18 420.31,-249.27 423,-246 448.61,-214.81 411.49,-184.53 441,-157 488.52,-112.66 530.51,-171.85 586,-138 598,-130.68 593.06,-120.82 604,-112 610.47,-106.78 617.97,-102.35 625.64,-98.62"/>
<polygon fill="orange" stroke="orange" points="412.04,-251.73 405.51,-260.07 415.82,-257.63 412.04,-251.73"/>
<text text-anchor="start" x="475.5" y="-171" font-family="Helvetica,sans-Serif" font-size="10.00"> &lt; std::string, Ark</text>
<text text-anchor="middle" x="513.5" y="-160" font-family="Helvetica,sans-Serif" font-size="10.00">::internal::Node &gt;</text>
</g>
<!-- Node14 -->
<g id="node14" class="node">
<title>Node14</title>
<g id="a_node14"><a xlink:title=" ">
<polygon fill="white" stroke="#666666" points="176.5,-275.5 147.5,-275.5 147.5,-256.5 176.5,-256.5 176.5,-275.5"/>
<text text-anchor="middle" x="162" y="-263.5" font-family="Helvetica,sans-Serif" font-size="10.00">K</text>
</a>
</g>
</g>
<!-- Node14&#45;&gt;Node13 -->
<g id="edge16" class="edge">
<title>Node14&#45;&gt;Node13</title>
<path fill="none" stroke="#9a32cd" stroke-dasharray="5,2" d="M188.17,-265.68C208.61,-265.56 238.18,-265.69 264,-267 275.88,-267.6 288.65,-268.58 300.65,-269.65"/>
<polygon fill="#9a32cd" stroke="#9a32cd" points="188.22,-262.18 178.25,-265.77 188.28,-269.18 188.22,-262.18"/>
<text text-anchor="middle" x="237" y="-270" font-family="Helvetica,sans-Serif" font-size="10.00"> keys</text>
</g>
<!-- Node15 -->
<g id="node15" class="node">
<title>Node15</title>
<g id="a_node15"><a xlink:href="../../d7/d22/classArk_1_1internal_1_1MacroExecutorPipeline.html" target="_top" xlink:title="The class that initializes the MacroExecutors.">
<polygon fill="white" stroke="#666666" points="1382,-340 1241,-340 1241,-310 1382,-310 1382,-340"/>
<text text-anchor="start" x="1249" y="-328" font-family="Helvetica,sans-Serif" font-size="10.00">Ark::internal::MacroExecutor</text>
<text text-anchor="middle" x="1311.5" y="-317" font-family="Helvetica,sans-Serif" font-size="10.00">Pipeline</text>
</a>
</g>
</g>
<!-- Node15&#45;&gt;Node3 -->
<g id="edge19" class="edge">
<title>Node15&#45;&gt;Node3</title>
<path fill="none" stroke="#9a32cd" stroke-dasharray="5,2" d="M1390.73,-306.89C1422.6,-299.16 1459.71,-289.68 1493,-280 1514.03,-273.88 1537.5,-266.02 1555.2,-259.88"/>
<polygon fill="#9a32cd" stroke="#9a32cd" points="1390.06,-303.46 1381.16,-309.2 1391.71,-310.26 1390.06,-303.46"/>
<text text-anchor="middle" x="1446.5" y="-307" font-family="Helvetica,sans-Serif" font-size="10.00"> m_executor_pipeline</text>
</g>
<!-- Node16&#45;&gt;Node15 -->
<g id="edge20" class="edge">
<title>Node16&#45;&gt;Node15</title>
<path fill="none" stroke="#9a32cd" stroke-dasharray="5,2" d="M1116.77,-331.53C1157.67,-330.15 1203.69,-328.6 1240.61,-327.36"/>
<polygon fill="#9a32cd" stroke="#9a32cd" points="1116.77,-328.03 1106.89,-331.87 1117,-335.03 1116.77,-328.03"/>
<text text-anchor="middle" x="1173" y="-335" font-family="Helvetica,sans-Serif" font-size="10.00"> m_executors</text>
</g>
<!-- Node17&#45;&gt;Node16 -->
<g id="edge21" class="edge">
<title>Node17&#45;&gt;Node16</title>
<path fill="none" stroke="#9a32cd" stroke-dasharray="5,2" d="M756.4,-377.15C805.56,-369.05 869.28,-358.54 920.8,-350.04"/>
<polygon fill="#9a32cd" stroke="#9a32cd" points="755.98,-373.68 746.68,-378.76 757.12,-380.58 755.98,-373.68"/>
<text text-anchor="middle" x="836" y="-376" font-family="Helvetica,sans-Serif" font-size="10.00"> elements</text>
</g>
<!-- Node18&#45;&gt;Node17 -->
<g id="edge23" class="edge">
<title>Node18&#45;&gt;Node17</title>
<path fill="none" stroke="orange" stroke-dasharray="5,2" d="M417.3,-367.74C464.1,-367.46 529.14,-368.4 586,-374 593.78,-374.77 601.9,-375.83 609.94,-377.04"/>
<polygon fill="orange" stroke="orange" points="417.29,-364.24 407.32,-367.83 417.35,-371.24 417.29,-364.24"/>
<text text-anchor="middle" x="513.5" y="-377" font-family="Helvetica,sans-Serif" font-size="10.00"> &lt; Ark::internal::MacroExecutor &gt;</text>
</g>
<!-- Node19&#45;&gt;Node3 -->
<g id="edge26" class="edge">
<title>Node19&#45;&gt;Node3</title>
<path fill="none" stroke="#9a32cd" stroke-dasharray="5,2" d="M751.52,-228.93C856.03,-226.34 1054.28,-222.85 1223,-228 1322.83,-231.05 1438.01,-238.84 1510.66,-244.28"/>
<polygon fill="#9a32cd" stroke="#9a32cd" points="751.59,-225.43 741.68,-229.18 751.77,-232.42 751.59,-225.43"/>
<text text-anchor="middle" x="1173" y="-231" font-family="Helvetica,sans-Serif" font-size="10.00"> m_predefined_macros</text>
</g>
</g>
</svg>
