<?xml version="1.0" encoding="UTF-8" standalone="no"?>
<!DOCTYPE svg PUBLIC "-//W3C//DTD SVG 1.1//EN"
 "http://www.w3.org/Graphics/SVG/1.1/DTD/svg11.dtd">
<!-- Generated by graphviz version 10.0.1 (20240210.2158)
 -->
<!-- Title: Ark::internal::Optimizer Pages: 1 -->
<svg width="312pt" height="283pt"
 viewBox="0.00 0.00 311.88 283.00" xmlns="http://www.w3.org/2000/svg" xmlns:xlink="http://www.w3.org/1999/xlink">
<g id="graph0" class="graph" transform="scale(1 1) rotate(0) translate(4 279)">
<title>Ark::internal::Optimizer</title>
<!-- Node1 -->
<g id="node1" class="node">
<title>Node1</title>
<g id="a_node1"><a xlink:title="The ArkScript AST optimizer.">
<polygon fill="#999999" stroke="#666666" points="224.38,-19.25 107.88,-19.25 107.88,0 224.38,0 224.38,-19.25"/>
<text text-anchor="middle" x="166.12" y="-5.75" font-family="Helvetica,sans-Serif" font-size="10.00">Ark::internal::Optimizer</text>
</a>
</g>
</g>
<!-- Node2 -->
<g id="node2" class="node">
<title>Node2</title>
<g id="a_node2"><a xlink:href="../../dc/d9e/classArk_1_1internal_1_1Node.html" target="_top" xlink:title="A node of an Abstract Syntax Tree for ArkScript.">
<polygon fill="white" stroke="#666666" points="280,-91.38 182.25,-91.38 182.25,-72.12 280,-72.12 280,-91.38"/>
<text text-anchor="middle" x="231.12" y="-77.88" font-family="Helvetica,sans-Serif" font-size="10.00">Ark::internal::Node</text>
</a>
</g>
</g>
<!-- Node2&#45;&gt;Node1 -->
<g id="edge1" class="edge">
<title>Node2&#45;&gt;Node1</title>
<path fill="none" stroke="#9a32cd" stroke-dasharray="5,2" d="M222.41,-61.29C218.22,-53.28 212.68,-44.25 206.12,-37.25 199.62,-30.31 190.98,-24.27 183.39,-19.71"/>
<polygon fill="#9a32cd" stroke="#9a32cd" points="219.24,-62.78 226.73,-70.26 225.54,-59.74 219.24,-62.78"/>
<text text-anchor="middle" x="229.12" y="-39" font-family="Helvetica,sans-Serif" font-size="10.00"> m_ast</text>
</g>
<!-- Node3 -->
<g id="node3" class="node">
<title>Node3</title>
<g id="a_node3"><a xlink:title=" ">
<polygon fill="white" stroke="#666666" points="236.88,-191.62 177.38,-191.62 177.38,-172.38 236.88,-172.38 236.88,-191.62"/>
<text text-anchor="middle" x="207.12" y="-178.12" font-family="Helvetica,sans-Serif" font-size="10.00">std::string</text>
</a>
</g>
</g>
<!-- Node3&#45;&gt;Node2 -->
<g id="edge2" class="edge">
<title>Node3&#45;&gt;Node2</title>
<path fill="none" stroke="#9a32cd" stroke-dasharray="5,2" d="M212.01,-160.99C217.18,-139.84 225.1,-107.43 228.92,-91.8"/>
<polygon fill="#9a32cd" stroke="#9a32cd" points="208.67,-159.92 209.7,-170.46 215.47,-161.58 208.67,-159.92"/>
<text text-anchor="middle" x="263" y="-139.25" font-family="Helvetica,sans-Serif" font-size="10.00"> m_after_comment</text>
<text text-anchor="middle" x="263" y="-128" font-family="Helvetica,sans-Serif" font-size="10.00">m_comment</text>
<text text-anchor="middle" x="263" y="-116.75" font-family="Helvetica,sans-Serif" font-size="10.00">m_filename</text>
</g>
<!-- Node5 -->
<g id="node5" class="node">
<title>Node5</title>
<g id="a_node5"><a xlink:title=" ">
<polygon fill="white" stroke="#666666" points="164.38,-97 41.88,-97 41.88,-66.5 164.38,-66.5 164.38,-97"/>
<text text-anchor="start" x="49.88" y="-83.5" font-family="Helvetica,sans-Serif" font-size="10.00">std::unordered_map</text>
<text text-anchor="middle" x="103.12" y="-72.25" font-family="Helvetica,sans-Serif" font-size="10.00">&lt; std::string, unsigned &gt;</text>
</a>
</g>
</g>
<!-- Node3&#45;&gt;Node5 -->
<g id="edge5" class="edge">
<title>Node3&#45;&gt;Node5</title>
<path fill="none" stroke="#9a32cd" stroke-dasharray="5,2" d="M195.1,-162.42C183.24,-144.25 166.29,-118.78 162.12,-115 154.6,-108.18 145.38,-102.27 136.48,-97.44"/>
<polygon fill="#9a32cd" stroke="#9a32cd" points="192.15,-164.31 200.54,-170.79 198.02,-160.5 192.15,-164.31"/>
<text text-anchor="middle" x="198.12" y="-128" font-family="Helvetica,sans-Serif" font-size="10.00"> keys</text>
</g>
<!-- Node4 -->
<g id="node4" class="node">
<title>Node4</title>
<g id="a_node4"><a xlink:title=" ">
<polygon fill="white" stroke="#666666" points="254.12,-275 160.12,-275 160.12,-244.5 254.12,-244.5 254.12,-275"/>
<text text-anchor="start" x="168.12" y="-261.5" font-family="Helvetica,sans-Serif" font-size="10.00">std::basic_string&lt;</text>
<text text-anchor="middle" x="207.12" y="-250.25" font-family="Helvetica,sans-Serif" font-size="10.00"> Char &gt;</text>
</a>
</g>
</g>
<!-- Node4&#45;&gt;Node3 -->
<g id="edge3" class="edge">
<title>Node4&#45;&gt;Node3</title>
<path fill="none" stroke="#63b8ff" d="M207.12,-232.98C207.12,-218.72 207.12,-201.91 207.12,-191.87"/>
<polygon fill="#63b8ff" stroke="#63b8ff" points="203.63,-232.63 207.13,-242.63 210.63,-232.63 203.63,-232.63"/>
</g>
<!-- Node5&#45;&gt;Node1 -->
<g id="edge4" class="edge">
<title>Node5&#45;&gt;Node1</title>
<path fill="none" stroke="#9a32cd" stroke-dasharray="5,2" d="M103.23,-54.66C104.31,-48.48 106.38,-42.25 110.12,-37.25 116.07,-29.33 124.97,-23.66 133.94,-19.65"/>
<polygon fill="#9a32cd" stroke="#9a32cd" points="99.75,-54.33 102.33,-64.61 106.72,-54.97 99.75,-54.33"/>
<text text-anchor="middle" x="158.12" y="-39" font-family="Helvetica,sans-Serif" font-size="10.00"> m_sym_appearances</text>
</g>
<!-- Node6 -->
<g id="node6" class="node">
<title>Node6</title>
<g id="a_node6"><a xlink:title=" ">
<polygon fill="white" stroke="#666666" points="102.25,-197.25 0,-197.25 0,-166.75 102.25,-166.75 102.25,-197.25"/>
<text text-anchor="start" x="8" y="-183.75" font-family="Helvetica,sans-Serif" font-size="10.00">std::unordered_map</text>
<text text-anchor="middle" x="51.12" y="-172.5" font-family="Helvetica,sans-Serif" font-size="10.00">&lt; K, T &gt;</text>
</a>
</g>
</g>
<!-- Node6&#45;&gt;Node5 -->
<g id="edge6" class="edge">
<title>Node6&#45;&gt;Node5</title>
<path fill="none" stroke="orange" stroke-dasharray="5,2" d="M46.23,-154.97C45.13,-142.17 45.89,-126.96 52.62,-115 56.66,-107.84 63.01,-102.03 69.86,-97.41"/>
<polygon fill="orange" stroke="orange" points="42.75,-155.36 47.52,-164.83 49.69,-154.46 42.75,-155.36"/>
<text text-anchor="middle" x="107.88" y="-128" font-family="Helvetica,sans-Serif" font-size="10.00"> &lt; std::string, unsigned &gt;</text>
</g>
<!-- Node7 -->
<g id="node7" class="node">
<title>Node7</title>
<g id="a_node7"><a xlink:title=" ">
<polygon fill="white" stroke="#666666" points="42.52,-269.38 13.72,-269.38 13.72,-250.12 42.52,-250.12 42.52,-269.38"/>
<text text-anchor="middle" x="28.12" y="-255.88" font-family="Helvetica,sans-Serif" font-size="10.00">K</text>
</a>
</g>
</g>
<!-- Node7&#45;&gt;Node6 -->
<g id="edge7" class="edge">
<title>Node7&#45;&gt;Node6</title>
<path fill="none" stroke="#9a32cd" stroke-dasharray="5,2" d="M26.22,-238.54C26.12,-231.06 26.76,-222.62 29.12,-215.25 31.16,-208.93 34.86,-202.72 38.65,-197.46"/>
<polygon fill="#9a32cd" stroke="#9a32cd" points="22.71,-238.55 26.79,-248.33 29.7,-238.14 22.71,-238.55"/>
<text text-anchor="middle" x="41.12" y="-217" font-family="Helvetica,sans-Serif" font-size="10.00"> keys</text>
</g>
<!-- Node8 -->
<g id="node8" class="node">
<title>Node8</title>
<g id="a_node8"><a xlink:title=" ">
<polygon fill="white" stroke="#666666" points="89.53,-269.38 60.73,-269.38 60.73,-250.12 89.53,-250.12 89.53,-269.38"/>
<text text-anchor="middle" x="75.12" y="-255.88" font-family="Helvetica,sans-Serif" font-size="10.00">T</text>
</a>
</g>
</g>
<!-- Node8&#45;&gt;Node6 -->
<g id="edge8" class="edge">
<title>Node8&#45;&gt;Node6</title>
<path fill="none" stroke="#9a32cd" stroke-dasharray="5,2" d="M68.92,-239.17C64.82,-226.22 59.52,-209.51 55.78,-197.69"/>
<polygon fill="#9a32cd" stroke="#9a32cd" points="65.46,-239.84 71.82,-248.32 72.14,-237.73 65.46,-239.84"/>
<text text-anchor="middle" x="86.5" y="-217" font-family="Helvetica,sans-Serif" font-size="10.00"> elements</text>
</g>
</g>
</svg>
