<?xml version="1.0" encoding="UTF-8" standalone="no"?>
<!DOCTYPE svg PUBLIC "-//W3C//DTD SVG 1.1//EN"
 "http://www.w3.org/Graphics/SVG/1.1/DTD/svg11.dtd">
<!-- Generated by graphviz version 7.1.0 (20230121.1956)
 -->
<!-- Title: Ark::internal::Optimizer Pages: 1 -->
<svg width="410pt" height="277pt"
 viewBox="0.00 0.00 409.85 277.00" xmlns="http://www.w3.org/2000/svg" xmlns:xlink="http://www.w3.org/1999/xlink">
<g id="graph0" class="graph" transform="scale(1 1) rotate(0) translate(4 273)">
<title>Ark::internal::Optimizer</title>
<!-- Node1 -->
<g id="node1" class="node">
<title>Node1</title>
<g id="a_node1"><a xlink:title="The ArkScript AST optimizer.">
<polygon fill="#999999" stroke="#666666" points="314.35,-24.5 197.35,-24.5 197.35,-5.5 314.35,-5.5 314.35,-24.5"/>
<text text-anchor="middle" x="255.85" y="-12.5" font-family="Helvetica,sans-Serif" font-size="10.00">Ark::internal::Optimizer</text>
</a>
</g>
</g>
<!-- Node2 -->
<g id="node2" class="node">
<title>Node2</title>
<g id="a_node2"><a xlink:href="../../dc/d9e/classArk_1_1internal_1_1Node.html" target="_top" xlink:title="A node of an Abstract Syntax Tree for ArkScript.">
<polygon fill="white" stroke="#666666" points="214.85,-101.5 116.85,-101.5 116.85,-82.5 214.85,-82.5 214.85,-101.5"/>
<text text-anchor="middle" x="165.85" y="-89.5" font-family="Helvetica,sans-Serif" font-size="10.00">Ark::internal::Node</text>
</a>
</g>
</g>
<!-- Node2&#45;&gt;Node1 -->
<g id="edge1" class="edge">
<title>Node2&#45;&gt;Node1</title>
<path fill="none" stroke="#9a32cd" stroke-dasharray="5,2" d="M185.23,-74.85C203.58,-59.56 230.44,-37.17 245.18,-24.89"/>
<polygon fill="#9a32cd" stroke="#9a32cd" points="183.13,-72.04 177.69,-81.13 187.61,-77.42 183.13,-72.04"/>
<text text-anchor="middle" x="232.35" y="-51" font-family="Helvetica,sans-Serif" font-size="10.00"> m_ast</text>
</g>
<!-- Node3 -->
<g id="node3" class="node">
<title>Node3</title>
<g id="a_node3"><a xlink:title=" ">
<polygon fill="white" stroke="#666666" points="161.85,-30 37.85,-30 37.85,0 161.85,0 161.85,-30"/>
<text text-anchor="start" x="45.85" y="-18" font-family="Helvetica,sans-Serif" font-size="10.00">std::vector&lt; Ark::internal</text>
<text text-anchor="middle" x="99.85" y="-7" font-family="Helvetica,sans-Serif" font-size="10.00">::Node &gt;</text>
</a>
</g>
</g>
<!-- Node2&#45;&gt;Node3 -->
<g id="edge3" class="edge">
<title>Node2&#45;&gt;Node3</title>
<path fill="none" stroke="#9a32cd" stroke-dasharray="5,2" d="M117.52,-77.28C109.32,-72.78 101.85,-66.83 96.85,-59 91.45,-50.55 92.53,-39.16 94.78,-30.23"/>
<polygon fill="#9a32cd" stroke="#9a32cd" points="115.85,-80.37 126.39,-81.44 118.83,-74.03 115.85,-80.37"/>
<text text-anchor="middle" x="118.35" y="-51" font-family="Helvetica,sans-Serif" font-size="10.00"> elements</text>
</g>
<!-- Node3&#45;&gt;Node2 -->
<g id="edge2" class="edge">
<title>Node3&#45;&gt;Node2</title>
<path fill="none" stroke="#9a32cd" stroke-dasharray="5,2" d="M132.79,-37.24C136.78,-40.57 140.58,-44.18 143.85,-48 152.68,-58.32 159.14,-72.8 162.7,-82.04"/>
<polygon fill="#9a32cd" stroke="#9a32cd" points="135.2,-34.67 125.13,-31.36 130.93,-40.23 135.2,-34.67"/>
<text text-anchor="middle" x="166.85" y="-51" font-family="Helvetica,sans-Serif" font-size="10.00"> m_list</text>
</g>
<!-- Node4 -->
<g id="node4" class="node">
<title>Node4</title>
<g id="a_node4"><a xlink:title=" ">
<polygon fill="white" stroke="#666666" points="91.35,-144 4.35,-144 4.35,-125 91.35,-125 91.35,-144"/>
<text text-anchor="middle" x="47.85" y="-132" font-family="Helvetica,sans-Serif" font-size="10.00">std::vector&lt; T &gt;</text>
</a>
</g>
</g>
<!-- Node4&#45;&gt;Node3 -->
<g id="edge4" class="edge">
<title>Node4&#45;&gt;Node3</title>
<path fill="none" stroke="orange" stroke-dasharray="5,2" d="M14.88,-118.4C10.87,-115.2 7.32,-111.43 4.85,-107 -1.65,-95.36 -1.54,-88.7 4.85,-77 16.69,-55.33 39.89,-40.21 60.39,-30.45"/>
<polygon fill="orange" stroke="orange" points="12.62,-121.11 22.9,-123.67 16.47,-115.26 12.62,-121.11"/>
<text text-anchor="middle" x="56.35" y="-89.5" font-family="Helvetica,sans-Serif" font-size="10.00"> &lt; Ark::internal::Node &gt;</text>
</g>
<!-- Node5 -->
<g id="node5" class="node">
<title>Node5</title>
<g id="a_node5"><a xlink:title=" ">
<polygon fill="white" stroke="#666666" points="202.35,-263.5 173.35,-263.5 173.35,-244.5 202.35,-244.5 202.35,-263.5"/>
<text text-anchor="middle" x="187.85" y="-251.5" font-family="Helvetica,sans-Serif" font-size="10.00">T</text>
</a>
</g>
</g>
<!-- Node5&#45;&gt;Node4 -->
<g id="edge5" class="edge">
<title>Node5&#45;&gt;Node4</title>
<path fill="none" stroke="#9a32cd" stroke-dasharray="5,2" d="M168.63,-236.87C138.72,-211.77 82.02,-164.18 58.49,-144.43"/>
<polygon fill="#9a32cd" stroke="#9a32cd" points="166.26,-239.45 176.17,-243.2 170.76,-234.09 166.26,-239.45"/>
<text text-anchor="middle" x="169.35" y="-213" font-family="Helvetica,sans-Serif" font-size="10.00"> elements</text>
</g>
<!-- Node9 -->
<g id="node9" class="node">
<title>Node9</title>
<g id="a_node9"><a xlink:title=" ">
<polygon fill="white" stroke="#666666" points="338.35,-192 235.35,-192 235.35,-162 338.35,-162 338.35,-192"/>
<text text-anchor="start" x="243.35" y="-180" font-family="Helvetica,sans-Serif" font-size="10.00">std::unordered_map</text>
<text text-anchor="middle" x="286.85" y="-169" font-family="Helvetica,sans-Serif" font-size="10.00">&lt; K, T &gt;</text>
</a>
</g>
</g>
<!-- Node5&#45;&gt;Node9 -->
<g id="edge12" class="edge">
<title>Node5&#45;&gt;Node9</title>
<path fill="none" stroke="#9a32cd" stroke-dasharray="5,2" d="M206.46,-236.89C216.23,-228.63 228.49,-218.53 239.85,-210 247.9,-203.95 256.99,-197.64 265.03,-192.24"/>
<polygon fill="#9a32cd" stroke="#9a32cd" points="204.46,-234 199.13,-243.16 209.01,-239.32 204.46,-234"/>
<text text-anchor="middle" x="261.35" y="-213" font-family="Helvetica,sans-Serif" font-size="10.00"> elements</text>
</g>
<!-- Node6 -->
<g id="node6" class="node">
<title>Node6</title>
<g id="a_node6"><a xlink:title=" ">
<polygon fill="white" stroke="#666666" points="202.85,-186.5 142.85,-186.5 142.85,-167.5 202.85,-167.5 202.85,-186.5"/>
<text text-anchor="middle" x="172.85" y="-174.5" font-family="Helvetica,sans-Serif" font-size="10.00">std::string</text>
</a>
</g>
</g>
<!-- Node6&#45;&gt;Node2 -->
<g id="edge6" class="edge">
<title>Node6&#45;&gt;Node2</title>
<path fill="none" stroke="#9a32cd" stroke-dasharray="5,2" d="M170.1,-155.68C169.64,-151.8 169.2,-147.78 168.85,-144 167.49,-129.16 166.62,-111.83 166.19,-101.68"/>
<polygon fill="#9a32cd" stroke="#9a32cd" points="166.63,-156.08 171.38,-165.55 173.57,-155.18 166.63,-156.08"/>
<text text-anchor="middle" x="195.85" y="-132" font-family="Helvetica,sans-Serif" font-size="10.00"> m_filename</text>
</g>
<!-- Node8 -->
<g id="node8" class="node">
<title>Node8</title>
<g id="a_node8"><a xlink:title=" ">
<polygon fill="white" stroke="#666666" points="356.35,-107 233.35,-107 233.35,-77 356.35,-77 356.35,-107"/>
<text text-anchor="start" x="241.35" y="-95" font-family="Helvetica,sans-Serif" font-size="10.00">std::unordered_map</text>
<text text-anchor="middle" x="294.85" y="-84" font-family="Helvetica,sans-Serif" font-size="10.00">&lt; std::string, unsigned &gt;</text>
</a>
</g>
</g>
<!-- Node6&#45;&gt;Node8 -->
<g id="edge9" class="edge">
<title>Node6&#45;&gt;Node8</title>
<path fill="none" stroke="#9a32cd" stroke-dasharray="5,2" d="M196.52,-161.17C204.89,-155.84 214.34,-149.73 222.85,-144 240.76,-131.93 260.78,-117.69 275.16,-107.32"/>
<polygon fill="#9a32cd" stroke="#9a32cd" points="194.83,-158.1 188.25,-166.4 198.57,-164.01 194.83,-158.1"/>
<text text-anchor="middle" x="261.35" y="-132" font-family="Helvetica,sans-Serif" font-size="10.00"> keys</text>
</g>
<!-- Node7 -->
<g id="node7" class="node">
<title>Node7</title>
<g id="a_node7"><a xlink:title=" ">
<polygon fill="white" stroke="#666666" points="129.35,-269 34.35,-269 34.35,-239 129.35,-239 129.35,-269"/>
<text text-anchor="start" x="42.35" y="-257" font-family="Helvetica,sans-Serif" font-size="10.00">std::basic_string&lt;</text>
<text text-anchor="middle" x="81.85" y="-246" font-family="Helvetica,sans-Serif" font-size="10.00"> Char &gt;</text>
</a>
</g>
</g>
<!-- Node7&#45;&gt;Node6 -->
<g id="edge7" class="edge">
<title>Node7&#45;&gt;Node6</title>
<path fill="none" stroke="#63b8ff" d="M86.18,-227.63C88.26,-221.29 91.32,-214.9 95.85,-210 108.13,-196.71 126.77,-188.77 142.64,-184.12"/>
<polygon fill="#63b8ff" stroke="#63b8ff" points="82.82,-226.66 83.78,-237.21 89.61,-228.36 82.82,-226.66"/>
</g>
<!-- Node8&#45;&gt;Node1 -->
<g id="edge8" class="edge">
<title>Node8&#45;&gt;Node1</title>
<path fill="none" stroke="#9a32cd" stroke-dasharray="5,2" d="M282.02,-66.33C274.59,-52.04 265.69,-34.93 260.42,-24.79"/>
<polygon fill="#9a32cd" stroke="#9a32cd" points="278.91,-67.94 286.63,-75.2 285.12,-64.71 278.91,-67.94"/>
<text text-anchor="middle" x="326.35" y="-51" font-family="Helvetica,sans-Serif" font-size="10.00"> m_sym_appearances</text>
</g>
<!-- Node9&#45;&gt;Node8 -->
<g id="edge10" class="edge">
<title>Node9&#45;&gt;Node8</title>
<path fill="none" stroke="orange" stroke-dasharray="5,2" d="M289.31,-150.49C290.68,-136.29 292.33,-119.14 293.47,-107.29"/>
<polygon fill="orange" stroke="orange" points="285.86,-149.75 288.39,-160.04 292.83,-150.42 285.86,-149.75"/>
<text text-anchor="middle" x="346.85" y="-132" font-family="Helvetica,sans-Serif" font-size="10.00"> &lt; std::string, unsigned &gt;</text>
</g>
<!-- Node10 -->
<g id="node10" class="node">
<title>Node10</title>
<g id="a_node10"><a xlink:title=" ">
<polygon fill="white" stroke="#666666" points="301.35,-263.5 272.35,-263.5 272.35,-244.5 301.35,-244.5 301.35,-263.5"/>
<text text-anchor="middle" x="286.85" y="-251.5" font-family="Helvetica,sans-Serif" font-size="10.00">K</text>
</a>
</g>
</g>
<!-- Node10&#45;&gt;Node9 -->
<g id="edge11" class="edge">
<title>Node10&#45;&gt;Node9</title>
<path fill="none" stroke="#9a32cd" stroke-dasharray="5,2" d="M286.85,-232.75C286.85,-219.95 286.85,-203.72 286.85,-192.27"/>
<polygon fill="#9a32cd" stroke="#9a32cd" points="283.35,-232.59 286.85,-242.59 290.35,-232.59 283.35,-232.59"/>
<text text-anchor="middle" x="299.35" y="-213" font-family="Helvetica,sans-Serif" font-size="10.00"> keys</text>
</g>
</g>
</svg>
