<?xml version="1.0" encoding="UTF-8" standalone="no"?>
<!DOCTYPE svg PUBLIC "-//W3C//DTD SVG 1.1//EN"
 "http://www.w3.org/Graphics/SVG/1.1/DTD/svg11.dtd">
<!-- Generated by graphviz version 12.2.0 (20241103.1931)
 -->
<!-- Title: /Users/fola/Documents/ArkScript/Ark/src/arkreactor/Compiler/NameResolution/ScopeResolver.cpp Pages: 1 -->
<svg width="422pt" height="238pt"
 viewBox="0.00 0.00 422.12 238.00" xmlns="http://www.w3.org/2000/svg" xmlns:xlink="http://www.w3.org/1999/xlink">

<svg id="main" version="1.1" xmlns="http://www.w3.org/2000/svg" xmlns:xlink="http://www.w3.org/1999/xlink" xml:space="preserve">

<style type="text/css"><![CDATA[
.node, .edge {opacity: 0.7;}
.node.selected, .edge.selected {opacity: 1;}
.edge:hover path { stroke: red; }
.edge:hover polygon { stroke: red; fill: red; }
]]></style>
<script type="application/ecmascript" xlink:href="../../svg.min.js"/>
<svg id="graph" class="graph">
<g id="graph0" class="graph" transform="scale(1 1) rotate(0) translate(4 234)">
<title>/Users/fola/Documents/ArkScript/Ark/src/arkreactor/Compiler/NameResolution/ScopeResolver.cpp</title>
<!-- Node1 -->
<g id="Node000001" class="node">
<title>Node1</title>
<g id="a_Node000001"><a xlink:title=" ">
<polygon fill="#999999" stroke="#666666" points="413.25,-230 191.75,-230 191.75,-188.25 413.25,-188.25 413.25,-230"/>
<text text-anchor="start" x="199.75" y="-216.5" font-family="Helvetica,sans-Serif" font-size="10.00">/Users/fola/Documents</text>
<text text-anchor="start" x="199.75" y="-205.25" font-family="Helvetica,sans-Serif" font-size="10.00">/ArkScript/Ark/src/arkreactor</text>
<text text-anchor="middle" x="302.5" y="-194" font-family="Helvetica,sans-Serif" font-size="10.00">/Compiler/NameResolution/ScopeResolver.cpp</text>
</a>
</g>
</g>
<!-- Node2 -->
<g id="Node000002" class="node">
<title>Node2</title>
<g id="a_Node000002"><a xlink:href="../../db/d5b/ScopeResolver_8hpp.html" target="_top" xlink:title="Handle scope resolution at compile time.">
<polygon fill="white" stroke="#666666" points="287.88,-152.25 139.12,-152.25 139.12,-121.75 287.88,-121.75 287.88,-152.25"/>
<text text-anchor="start" x="147.12" y="-138.75" font-family="Helvetica,sans-Serif" font-size="10.00">Ark/Compiler/NameResolution</text>
<text text-anchor="middle" x="213.5" y="-127.5" font-family="Helvetica,sans-Serif" font-size="10.00">/ScopeResolver.hpp</text>
</a>
</g>
</g>
<!-- Node1&#45;&gt;Node2 -->
<g id="edge1_Node000001_Node000002" class="edge">
<title>Node1&#45;&gt;Node2</title>
<g id="a_edge1_Node000001_Node000002"><a xlink:title=" ">
<path fill="none" stroke="#63b8ff" d="M276.76,-187.84C265.5,-178.97 252.27,-168.55 240.84,-159.54"/>
<polygon fill="#63b8ff" stroke="#63b8ff" points="243.33,-157.05 233.31,-153.61 239,-162.54 243.33,-157.05"/>
</a>
</g>
</g>
<!-- Node9 -->
<g id="Node000009" class="node">
<title>Node9</title>
<g id="a_Node000009"><a xlink:title=" ">
<polygon fill="#e0e0e0" stroke="#999999" points="414.12,-19.25 368.88,-19.25 368.88,0 414.12,0 414.12,-19.25"/>
<text text-anchor="middle" x="391.5" y="-5.75" font-family="Helvetica,sans-Serif" font-size="10.00">ranges</text>
</a>
</g>
</g>
<!-- Node1&#45;&gt;Node9 -->
<g id="edge14_Node000001_Node000009" class="edge">
<title>Node1&#45;&gt;Node9</title>
<g id="a_edge14_Node000001_Node000009"><a xlink:title=" ">
<path fill="none" stroke="#63b8ff" d="M311.52,-188.1C328.74,-149.89 366.08,-67.03 382.94,-29.63"/>
<polygon fill="#63b8ff" stroke="#63b8ff" points="385.93,-31.51 386.84,-20.96 379.54,-28.64 385.93,-31.51"/>
</a>
</g>
</g>
<!-- Node3 -->
<g id="Node000003" class="node">
<title>Node3</title>
<g id="a_Node000003"><a xlink:title=" ">
<polygon fill="#e0e0e0" stroke="#999999" points="112.5,-19.25 72.5,-19.25 72.5,0 112.5,0 112.5,-19.25"/>
<text text-anchor="middle" x="92.5" y="-5.75" font-family="Helvetica,sans-Serif" font-size="10.00">string</text>
</a>
</g>
</g>
<!-- Node2&#45;&gt;Node3 -->
<g id="edge2_Node000002_Node000003" class="edge">
<title>Node2&#45;&gt;Node3</title>
<g id="a_edge2_Node000002_Node000003"><a xlink:title=" ">
<path fill="none" stroke="#63b8ff" d="M138.77,-126.95C113.51,-119.91 87.85,-107.52 72.5,-85.75 60.5,-68.74 70.22,-44.96 79.84,-28.74"/>
<polygon fill="#63b8ff" stroke="#63b8ff" points="82.62,-30.89 85.1,-20.59 76.74,-27.1 82.62,-30.89"/>
</a>
</g>
</g>
<!-- Node4 -->
<g id="Node000004" class="node">
<title>Node4</title>
<g id="a_Node000004"><a xlink:title=" ">
<polygon fill="#e0e0e0" stroke="#999999" points="281.38,-19.25 231.62,-19.25 231.62,0 281.38,0 281.38,-19.25"/>
<text text-anchor="middle" x="256.5" y="-5.75" font-family="Helvetica,sans-Serif" font-size="10.00">optional</text>
</a>
</g>
</g>
<!-- Node2&#45;&gt;Node4 -->
<g id="edge3_Node000002_Node000004" class="edge">
<title>Node2&#45;&gt;Node4</title>
<g id="a_edge3_Node000002_Node000004"><a xlink:title=" ">
<path fill="none" stroke="#63b8ff" d="M254.82,-121.36C270.8,-113.44 287.4,-101.89 296.5,-85.75 303.16,-73.94 301.34,-67.91 296.5,-55.25 292.4,-44.55 284.43,-34.79 276.67,-27.15"/>
<polygon fill="#63b8ff" stroke="#63b8ff" points="279.4,-24.9 269.65,-20.76 274.69,-30.08 279.4,-24.9"/>
</a>
</g>
</g>
<!-- Node5 -->
<g id="Node000005" class="node">
<title>Node5</title>
<g id="a_Node000005"><a xlink:title=" ">
<polygon fill="#e0e0e0" stroke="#999999" points="351.12,-19.25 299.88,-19.25 299.88,0 351.12,0 351.12,-19.25"/>
<text text-anchor="middle" x="325.5" y="-5.75" font-family="Helvetica,sans-Serif" font-size="10.00">memory</text>
</a>
</g>
</g>
<!-- Node2&#45;&gt;Node5 -->
<g id="edge4_Node000002_Node000005" class="edge">
<title>Node2&#45;&gt;Node5</title>
<g id="a_edge4_Node000002_Node000005"><a xlink:title=" ">
<path fill="none" stroke="#63b8ff" d="M263.39,-121.28C281.48,-113.52 300.42,-102.11 312.5,-85.75 324.17,-69.96 326.68,-47.24 326.73,-30.93"/>
<polygon fill="#63b8ff" stroke="#63b8ff" points="330.23,-30.87 326.41,-20.99 323.23,-31.09 330.23,-30.87"/>
</a>
</g>
</g>
<!-- Node6 -->
<g id="Node000006" class="node">
<title>Node6</title>
<g id="a_Node000006"><a xlink:title=" ">
<polygon fill="#e0e0e0" stroke="#999999" points="43,-19.25 0,-19.25 0,0 43,0 43,-19.25"/>
<text text-anchor="middle" x="21.5" y="-5.75" font-family="Helvetica,sans-Serif" font-size="10.00">vector</text>
</a>
</g>
</g>
<!-- Node2&#45;&gt;Node6 -->
<g id="edge5_Node000002_Node000006" class="edge">
<title>Node2&#45;&gt;Node6</title>
<g id="a_edge5_Node000002_Node000006"><a xlink:title=" ">
<path fill="none" stroke="#63b8ff" d="M138.79,-122.95C112.49,-115.47 84.12,-103.82 62.5,-85.75 45.07,-71.18 33.84,-47.22 27.61,-30.28"/>
<polygon fill="#63b8ff" stroke="#63b8ff" points="30.95,-29.21 24.43,-20.85 24.31,-31.45 30.95,-29.21"/>
</a>
</g>
</g>
<!-- Node7 -->
<g id="Node000007" class="node">
<title>Node7</title>
<g id="a_Node000007"><a xlink:title=" ">
<polygon fill="#e0e0e0" stroke="#999999" points="121.12,-80.12 81.88,-80.12 81.88,-60.88 121.12,-60.88 121.12,-80.12"/>
<text text-anchor="middle" x="101.5" y="-66.62" font-family="Helvetica,sans-Serif" font-size="10.00">utility</text>
</a>
</g>
</g>
<!-- Node2&#45;&gt;Node7 -->
<g id="edge6_Node000002_Node000007" class="edge">
<title>Node2&#45;&gt;Node7</title>
<g id="a_edge6_Node000002_Node000007"><a xlink:title=" ">
<path fill="none" stroke="#63b8ff" d="M188.09,-121.36C169.85,-110.86 145.37,-96.77 127.1,-86.24"/>
<polygon fill="#63b8ff" stroke="#63b8ff" points="128.87,-83.22 118.46,-81.27 125.38,-89.29 128.87,-83.22"/>
</a>
</g>
</g>
<!-- Node8 -->
<g id="Node000008" class="node">
<title>Node8</title>
<g id="a_Node000008"><a xlink:href="../../df/db8/StaticScope_8hpp.html" target="_top" xlink:title=" ">
<polygon fill="white" stroke="#666666" points="287.88,-85.75 139.12,-85.75 139.12,-55.25 287.88,-55.25 287.88,-85.75"/>
<text text-anchor="start" x="147.12" y="-72.25" font-family="Helvetica,sans-Serif" font-size="10.00">Ark/Compiler/NameResolution</text>
<text text-anchor="middle" x="213.5" y="-61" font-family="Helvetica,sans-Serif" font-size="10.00">/StaticScope.hpp</text>
</a>
</g>
</g>
<!-- Node2&#45;&gt;Node8 -->
<g id="edge7_Node000002_Node000008" class="edge">
<title>Node2&#45;&gt;Node8</title>
<g id="a_edge7_Node000002_Node000008"><a xlink:title=" ">
<path fill="none" stroke="#63b8ff" d="M213.5,-121.36C213.5,-114.27 213.5,-105.54 213.5,-97.38"/>
<polygon fill="#63b8ff" stroke="#63b8ff" points="217,-97.59 213.5,-87.59 210,-97.59 217,-97.59"/>
</a>
</g>
</g>
<!-- Node8&#45;&gt;Node3 -->
<g id="edge8_Node000008_Node000003" class="edge">
<title>Node8&#45;&gt;Node3</title>
<g id="a_edge8_Node000008_Node000003"><a xlink:title=" ">
<path fill="none" stroke="#63b8ff" d="M183.28,-54.8C164.32,-45.57 140.02,-33.75 121.33,-24.65"/>
<polygon fill="#63b8ff" stroke="#63b8ff" points="122.94,-21.54 112.42,-20.32 119.88,-27.84 122.94,-21.54"/>
</a>
</g>
</g>
<!-- Node8&#45;&gt;Node4 -->
<g id="edge9_Node000008_Node000004" class="edge">
<title>Node8&#45;&gt;Node4</title>
<g id="a_edge9_Node000008_Node000004"><a xlink:title=" ">
<path fill="none" stroke="#63b8ff" d="M224.13,-54.95C229.86,-47.1 236.98,-37.35 243.09,-28.99"/>
<polygon fill="#63b8ff" stroke="#63b8ff" points="245.91,-31.06 248.98,-20.92 240.25,-26.93 245.91,-31.06"/>
</a>
</g>
</g>
<!-- Node8&#45;&gt;Node5 -->
<g id="edge10_Node000008_Node000005" class="edge">
<title>Node8&#45;&gt;Node5</title>
<g id="a_edge10_Node000008_Node000005"><a xlink:title=" ">
<path fill="none" stroke="#63b8ff" d="M241.47,-54.8C258.86,-45.66 281.1,-33.97 298.33,-24.91"/>
<polygon fill="#63b8ff" stroke="#63b8ff" points="299.76,-28.11 306.98,-20.36 296.5,-21.91 299.76,-28.11"/>
</a>
</g>
</g>
<!-- Node8&#45;&gt;Node6 -->
<g id="edge11_Node000008_Node000006" class="edge">
<title>Node8&#45;&gt;Node6</title>
<g id="a_edge11_Node000008_Node000006"><a xlink:title=" ">
<path fill="none" stroke="#63b8ff" d="M165.55,-54.8C130.88,-44.16 84.95,-30.08 54.37,-20.7"/>
<polygon fill="#63b8ff" stroke="#63b8ff" points="55.49,-17.39 44.9,-17.8 53.44,-24.08 55.49,-17.39"/>
</a>
</g>
</g>
<!-- Node8&#45;&gt;Node9 -->
<g id="edge12_Node000008_Node000009" class="edge">
<title>Node8&#45;&gt;Node9</title>
<g id="a_edge12_Node000008_Node000009"><a xlink:title=" ">
<path fill="none" stroke="#63b8ff" d="M257.96,-54.8C288.91,-44.56 329.55,-31.12 357.83,-21.76"/>
<polygon fill="#63b8ff" stroke="#63b8ff" points="358.92,-25.09 367.32,-18.62 356.73,-18.44 358.92,-25.09"/>
</a>
</g>
</g>
<!-- Node10 -->
<g id="Node000010" class="node">
<title>Node10</title>
<g id="a_Node000010"><a xlink:title=" ">
<polygon fill="#e0e0e0" stroke="#999999" points="213.25,-19.25 135.75,-19.25 135.75,0 213.25,0 213.25,-19.25"/>
<text text-anchor="middle" x="174.5" y="-5.75" font-family="Helvetica,sans-Serif" font-size="10.00">unordered_set</text>
</a>
</g>
</g>
<!-- Node8&#45;&gt;Node10 -->
<g id="edge13_Node000008_Node000010" class="edge">
<title>Node8&#45;&gt;Node10</title>
<g id="a_edge13_Node000008_Node000010"><a xlink:title=" ">
<path fill="none" stroke="#63b8ff" d="M203.86,-54.95C198.72,-47.19 192.34,-37.56 186.85,-29.26"/>
<polygon fill="#63b8ff" stroke="#63b8ff" points="189.79,-27.37 181.35,-20.96 183.95,-31.23 189.79,-27.37"/>
</a>
</g>
</g>
</g>
</svg>
</svg>

<style type='text/css'>
<![CDATA[
[data-mouse-over-selected='false'] { opacity: 0.7; }
[data-mouse-over-selected='true']  { opacity: 1.0; }
]]>
</style>
<script type="application/ecmascript"><![CDATA[
document.addEventListener('DOMContentLoaded', (event) => {
  highlightEdges();
  highlightAdjacentNodes();
});
]]></script>
</svg>
