<?xml version="1.0" encoding="UTF-8" standalone="no"?>
<!DOCTYPE svg PUBLIC "-//W3C//DTD SVG 1.1//EN"
 "http://www.w3.org/Graphics/SVG/1.1/DTD/svg11.dtd">
<!-- Generated by graphviz version 2.43.0 (0)
 -->
<!-- Title: Ark::internal::ExecutionContext Pages: 1 -->
<svg width="1072pt" height="160pt"
 viewBox="0.00 0.00 1072.00 160.00" xmlns="http://www.w3.org/2000/svg" xmlns:xlink="http://www.w3.org/1999/xlink">
<g id="graph0" class="graph" transform="scale(1 1) rotate(0) translate(4 156)">
<title>Ark::internal::ExecutionContext</title>
<polygon fill="white" stroke="transparent" points="-4,4 -4,-156 1068,-156 1068,4 -4,4"/>
<!-- Node1 -->
<g id="node1" class="node">
<title>Node1</title>
<g id="a_node1"><a xlink:title=" ">
<polygon fill="#bfbfbf" stroke="black" points="934,-83 934,-113 1064,-113 1064,-83 934,-83"/>
<text text-anchor="start" x="942" y="-101" font-family="Helvetica,sans-Serif" font-size="10.00">Ark::internal::Execution</text>
<text text-anchor="middle" x="999" y="-90" font-family="Helvetica,sans-Serif" font-size="10.00">Context</text>
</a>
</g>
</g>
<!-- Node2 -->
<g id="node2" class="node">
<title>Node2</title>
<g id="a_node2"><a xlink:title=" ">
<polygon fill="white" stroke="#bfbfbf" points="656,-132.5 656,-151.5 781,-151.5 781,-132.5 656,-132.5"/>
<text text-anchor="middle" x="718.5" y="-139.5" font-family="Helvetica,sans-Serif" font-size="10.00">std::vector&lt; uint8_t &gt;</text>
</a>
</g>
</g>
<!-- Node2&#45;&gt;Node1 -->
<g id="edge1" class="edge">
<title>Node2&#45;&gt;Node1</title>
<path fill="none" stroke="#9a32cd" stroke-dasharray="5,2" d="M791.31,-131.35C828.54,-125.74 874.74,-118.67 916,-112 921.7,-111.08 927.63,-110.1 933.56,-109.11"/>
<polygon fill="#9a32cd" stroke="#9a32cd" points="790.42,-127.94 781.06,-132.89 791.46,-134.86 790.42,-127.94"/>
<text text-anchor="middle" x="858.5" y="-132" font-family="Helvetica,sans-Serif" font-size="10.00"> scope_count_to_delete</text>
</g>
<!-- Node3 -->
<g id="node3" class="node">
<title>Node3</title>
<g id="a_node3"><a xlink:title=" ">
<polygon fill="white" stroke="#bfbfbf" points="435,-122.5 435,-141.5 532,-141.5 532,-122.5 435,-122.5"/>
<text text-anchor="middle" x="483.5" y="-129.5" font-family="Helvetica,sans-Serif" font-size="10.00">std::vector&lt; T &gt;</text>
</a>
</g>
</g>
<!-- Node3&#45;&gt;Node2 -->
<g id="edge2" class="edge">
<title>Node3&#45;&gt;Node2</title>
<path fill="none" stroke="orange" stroke-dasharray="5,2" d="M542.58,-134.49C577.01,-135.97 620.62,-137.84 655.68,-139.35"/>
<polygon fill="orange" stroke="orange" points="542.35,-130.98 532.21,-134.05 542.05,-137.97 542.35,-130.98"/>
<text text-anchor="middle" x="604" y="-141" font-family="Helvetica,sans-Serif" font-size="10.00"> &lt; uint8_t &gt;</text>
</g>
<!-- Node8 -->
<g id="node8" class="node">
<title>Node8</title>
<g id="a_node8"><a xlink:title=" ">
<polygon fill="white" stroke="#bfbfbf" points="654,-88.5 654,-107.5 783,-107.5 783,-88.5 654,-88.5"/>
<text text-anchor="middle" x="718.5" y="-95.5" font-family="Helvetica,sans-Serif" font-size="10.00">std::vector&lt; Scope_t &gt;</text>
</a>
</g>
</g>
<!-- Node3&#45;&gt;Node8 -->
<g id="edge12" class="edge">
<title>Node3&#45;&gt;Node8</title>
<path fill="none" stroke="orange" stroke-dasharray="5,2" d="M542.42,-123.55C576.31,-118.6 619.13,-112.35 653.94,-107.28"/>
<polygon fill="orange" stroke="orange" points="541.6,-120.13 532.21,-125.04 542.61,-127.06 541.6,-120.13"/>
<text text-anchor="middle" x="604" y="-122" font-family="Helvetica,sans-Serif" font-size="10.00"> &lt; Scope_t &gt;</text>
</g>
<!-- Node4 -->
<g id="node4" class="node">
<title>Node4</title>
<g id="a_node4"><a xlink:title=" ">
<polygon fill="white" stroke="#bfbfbf" points="0,-76.5 0,-95.5 29,-95.5 29,-76.5 0,-76.5"/>
<text text-anchor="middle" x="14.5" y="-83.5" font-family="Helvetica,sans-Serif" font-size="10.00">T</text>
</a>
</g>
</g>
<!-- Node4&#45;&gt;Node3 -->
<g id="edge3" class="edge">
<title>Node4&#45;&gt;Node3</title>
<path fill="none" stroke="#9a32cd" stroke-dasharray="5,2" d="M38.39,-98.1C41.23,-99.24 44.14,-100.25 47,-101 184.25,-137.18 353.71,-137.02 434.84,-134.32"/>
<polygon fill="#9a32cd" stroke="#9a32cd" points="39.74,-94.86 29.19,-93.89 36.83,-101.23 39.74,-94.86"/>
<text text-anchor="middle" x="173" y="-133" font-family="Helvetica,sans-Serif" font-size="10.00"> elements</text>
</g>
<!-- Node7 -->
<g id="node7" class="node">
<title>Node7</title>
<g id="a_node7"><a xlink:title=" ">
<polygon fill="white" stroke="#bfbfbf" points="127,-0.5 127,-19.5 219,-19.5 219,-0.5 127,-0.5"/>
<text text-anchor="middle" x="173" y="-7.5" font-family="Helvetica,sans-Serif" font-size="10.00">std::array&lt; T &gt;</text>
</a>
</g>
</g>
<!-- Node4&#45;&gt;Node7 -->
<g id="edge7" class="edge">
<title>Node4&#45;&gt;Node7</title>
<path fill="none" stroke="#9a32cd" stroke-dasharray="5,2" d="M37.51,-71.48C57.03,-59.04 86.6,-41.26 114,-29 121.83,-25.5 130.52,-22.31 138.73,-19.58"/>
<polygon fill="#9a32cd" stroke="#9a32cd" points="35.55,-68.58 29.05,-76.94 39.35,-74.46 35.55,-68.58"/>
<text text-anchor="middle" x="71.5" y="-68" font-family="Helvetica,sans-Serif" font-size="10.00"> elements</text>
</g>
<!-- Node10 -->
<g id="node10" class="node">
<title>Node10</title>
<g id="a_node10"><a xlink:title=" ">
<polygon fill="white" stroke="#bfbfbf" points="114,-76.5 114,-95.5 232,-95.5 232,-76.5 114,-76.5"/>
<text text-anchor="middle" x="173" y="-83.5" font-family="Helvetica,sans-Serif" font-size="10.00">std::shared_ptr&lt; T &gt;</text>
</a>
</g>
</g>
<!-- Node4&#45;&gt;Node10 -->
<g id="edge11" class="edge">
<title>Node4&#45;&gt;Node10</title>
<path fill="none" stroke="#9a32cd" stroke-dasharray="5,2" d="M39.32,-86C59.06,-86 87.96,-86 113.75,-86"/>
<polygon fill="#9a32cd" stroke="#9a32cd" points="39.11,-82.5 29.11,-86 39.11,-89.5 39.11,-82.5"/>
<text text-anchor="middle" x="71.5" y="-89" font-family="Helvetica,sans-Serif" font-size="10.00"> ptr</text>
</g>
<!-- Node5 -->
<g id="node5" class="node">
<title>Node5</title>
<g id="a_node5"><a xlink:title=" ">
<polygon fill="white" stroke="#bfbfbf" points="420,-27 420,-57 547,-57 547,-27 420,-27"/>
<text text-anchor="start" x="428" y="-45" font-family="Helvetica,sans-Serif" font-size="10.00">std::array&lt; Ark::Value,</text>
<text text-anchor="middle" x="483.5" y="-34" font-family="Helvetica,sans-Serif" font-size="10.00"> VMStackSize &gt;</text>
</a>
</g>
</g>
<!-- Node5&#45;&gt;Node1 -->
<g id="edge4" class="edge">
<title>Node5&#45;&gt;Node1</title>
<path fill="none" stroke="#9a32cd" stroke-dasharray="5,2" d="M557.41,-47.29C617.91,-51.94 706.16,-59.3 783,-68 833.74,-73.75 891,-81.81 933.67,-88.14"/>
<polygon fill="#9a32cd" stroke="#9a32cd" points="557.44,-43.78 547.2,-46.51 556.9,-50.76 557.44,-43.78"/>
<text text-anchor="middle" x="718.5" y="-71" font-family="Helvetica,sans-Serif" font-size="10.00"> stack</text>
</g>
<!-- Node6 -->
<g id="node6" class="node">
<title>Node6</title>
<g id="a_node6"><a xlink:href="../../d3/d90/classArk_1_1Value.html" target="_top" xlink:title=" ">
<polygon fill="white" stroke="black" points="140,-38.5 140,-57.5 206,-57.5 206,-38.5 140,-38.5"/>
<text text-anchor="middle" x="173" y="-45.5" font-family="Helvetica,sans-Serif" font-size="10.00">Ark::Value</text>
</a>
</g>
</g>
<!-- Node6&#45;&gt;Node5 -->
<g id="edge5" class="edge">
<title>Node6&#45;&gt;Node5</title>
<path fill="none" stroke="#9a32cd" stroke-dasharray="5,2" d="M216.46,-47.17C269.09,-46.15 359.21,-44.4 419.8,-43.22"/>
<polygon fill="#9a32cd" stroke="#9a32cd" points="216.07,-43.68 206.14,-47.37 216.21,-50.68 216.07,-43.68"/>
<text text-anchor="middle" x="322.5" y="-49" font-family="Helvetica,sans-Serif" font-size="10.00"> elements</text>
</g>
<!-- Node7&#45;&gt;Node5 -->
<g id="edge6" class="edge">
<title>Node7&#45;&gt;Node5</title>
<path fill="none" stroke="orange" stroke-dasharray="5,2" d="M229.48,-13.32C274.25,-16.29 338.8,-21.23 395,-28 403.1,-28.98 411.59,-30.15 419.97,-31.39"/>
<polygon fill="orange" stroke="orange" points="229.6,-9.83 219.39,-12.67 229.14,-16.81 229.6,-9.83"/>
<text text-anchor="middle" x="322.5" y="-31" font-family="Helvetica,sans-Serif" font-size="10.00"> &lt; Ark::Value, VMStackSize &gt;</text>
</g>
<!-- Node8&#45;&gt;Node1 -->
<g id="edge8" class="edge">
<title>Node8&#45;&gt;Node1</title>
<path fill="none" stroke="#9a32cd" stroke-dasharray="5,2" d="M793.05,-98C836.8,-98 891.77,-98 933.76,-98"/>
<polygon fill="#9a32cd" stroke="#9a32cd" points="793.04,-94.5 783.04,-98 793.04,-101.5 793.04,-94.5"/>
<text text-anchor="middle" x="858.5" y="-101" font-family="Helvetica,sans-Serif" font-size="10.00"> locals</text>
</g>
<!-- Node9 -->
<g id="node9" class="node">
<title>Node9</title>
<g id="a_node9"><a xlink:title=" ">
<polygon fill="white" stroke="#bfbfbf" points="413,-76.5 413,-95.5 554,-95.5 554,-76.5 413,-76.5"/>
<text text-anchor="middle" x="483.5" y="-83.5" font-family="Helvetica,sans-Serif" font-size="10.00">std::shared_ptr&lt; Scope &gt;</text>
</a>
</g>
</g>
<!-- Node9&#45;&gt;Node8 -->
<g id="edge9" class="edge">
<title>Node9&#45;&gt;Node8</title>
<path fill="none" stroke="#9a32cd" stroke-dasharray="5,2" d="M564.48,-82.01C587.59,-81.65 612.83,-82.02 636,-84 647.16,-84.95 659.08,-86.62 670.27,-88.49"/>
<polygon fill="#9a32cd" stroke="#9a32cd" points="564.3,-78.51 554.37,-82.22 564.44,-85.51 564.3,-78.51"/>
<text text-anchor="middle" x="604" y="-87" font-family="Helvetica,sans-Serif" font-size="10.00"> elements</text>
</g>
<!-- Node10&#45;&gt;Node9 -->
<g id="edge10" class="edge">
<title>Node10&#45;&gt;Node9</title>
<path fill="none" stroke="orange" stroke-dasharray="5,2" d="M242.23,-86C292.92,-86 361.83,-86 412.85,-86"/>
<polygon fill="orange" stroke="orange" points="242.03,-82.5 232.03,-86 242.03,-89.5 242.03,-82.5"/>
<text text-anchor="middle" x="322.5" y="-89" font-family="Helvetica,sans-Serif" font-size="10.00"> &lt; Scope &gt;</text>
</g>
</g>
</svg>
