<?xml version="1.0" encoding="UTF-8" standalone="no"?>
<!DOCTYPE svg PUBLIC "-//W3C//DTD SVG 1.1//EN"
 "http://www.w3.org/Graphics/SVG/1.1/DTD/svg11.dtd">
<!-- Generated by graphviz version 12.2.0 (20241103.1931)
 -->
<!-- Title: /Users/fola/Documents/ArkScript/Ark/include/Ark/Logger.hpp Pages: 1 -->
<!--zoomable 472 -->

<svg id="main" version="1.1" xmlns="http://www.w3.org/2000/svg" xmlns:xlink="http://www.w3.org/1999/xlink" xml:space="preserve" onload="init(evt)">

<style type="text/css"><![CDATA[
.node, .edge {opacity: 0.7;}
.node.selected, .edge.selected {opacity: 1;}
.edge:hover path { stroke: red; }
.edge:hover polygon { stroke: red; fill: red; }
]]></style>

<defs>
  <circle id="rim" cx="0" cy="0" r="7"/>
  <circle id="rim2" cx="0" cy="0" r="3.5"/>
  <g id="zoomPlus">
    <use xlink:href="#rim" fill="#404040"><set attributeName="fill" to="#808080" begin="zoomplus.mouseover" end="zoomplus.mouseout"/></use>
    <path d="M-4,0h8M0,-4v8" fill="none" stroke="white" stroke-width="1.5" pointer-events="none"/>
  </g>
  <g id="zoomMin">
    <use xlink:href="#rim" fill="#404040"><set attributeName="fill" to="#808080" begin="zoomminus.mouseover" end="zoomminus.mouseout"/></use>
    <path d="M-4,0h8" fill="none" stroke="white" stroke-width="1.5" pointer-events="none"/>
  </g>
  <g id="arrowUp" transform="translate(30 24)">
    <use xlink:href="#rim"/>
    <path pointer-events="none" fill="none" stroke="white" stroke-width="1.5" d="M0,-3.0v7 M-2.5,-0.5L0,-3.0L2.5,-0.5"/>
  </g>
  <g id="arrowRight" transform="rotate(90) translate(36 -43)">
    <use xlink:href="#rim"/>
    <path pointer-events="none" fill="none" stroke="white" stroke-width="1.5" d="M0,-3.0v7 M-2.5,-0.5L0,-3.0L2.5,-0.5"/>
  </g>
  <g id="arrowDown" transform="rotate(180) translate(-30 -48)">
    <use xlink:href="#rim"/>
    <path pointer-events="none" fill="none" stroke="white" stroke-width="1.5" d="M0,-3.0v7 M-2.5,-0.5L0,-3.0L2.5,-0.5"/>
  </g>
  <g id="arrowLeft" transform="rotate(270) translate(-36 17)">
    <use xlink:href="#rim"/>
    <path pointer-events="none" fill="none" stroke="white" stroke-width="1.5" d="M0,-3.0v7 M-2.5,-0.5L0,-3.0L2.5,-0.5"/>
  </g>
  <g id="resetDef">
    <use xlink:href="#rim2" fill="#404040"><set attributeName="fill" to="#808080" begin="reset.mouseover" end="reset.mouseout"/></use>
  </g>
</defs>
<script type="application/ecmascript">
var viewWidth = 1878;
var viewHeight = 472;
var sectionId = 'dynsection-1';
</script>
<script type="application/ecmascript" xlink:href="../../svg.min.js"/>
<svg id="graph" class="graph">
<g id="viewport">
<title>/Users/fola/Documents/ArkScript/Ark/include/Ark/Logger.hpp</title>
<!-- Node1 -->
<g id="Node000001" class="node">
<title>Node1</title>
<g id="a_Node000001"><a xlink:title="Internal logger.">
<polygon fill="#999999" stroke="#666666" points="804.62,-464.25 687.38,-464.25 687.38,-422.5 804.62,-422.5 804.62,-464.25"/>
<text text-anchor="start" x="695.38" y="-450.75" font-family="Helvetica,sans-Serif" font-size="10.00">/Users/fola/Documents</text>
<text text-anchor="start" x="695.38" y="-439.5" font-family="Helvetica,sans-Serif" font-size="10.00">/ArkScript/Ark/include</text>
<text text-anchor="middle" x="746" y="-428.25" font-family="Helvetica,sans-Serif" font-size="10.00">/Ark/Logger.hpp</text>
</a>
</g>
</g>
<!-- Node2 -->
<g id="Node000002" class="node">
<title>Node2</title>
<g id="a_Node000002"><a xlink:href="../../d7/ddd/Parser_8hpp.html" target="_top" xlink:title="Parse ArkScript code, but do not handle any import declarations.">
<polygon fill="white" stroke="#666666" points="148,-291.88 0,-291.88 0,-250.12 148,-250.12 148,-291.88"/>
<text text-anchor="start" x="8" y="-278.38" font-family="Helvetica,sans-Serif" font-size="10.00">/Users/fola/Documents</text>
<text text-anchor="start" x="8" y="-267.12" font-family="Helvetica,sans-Serif" font-size="10.00">/ArkScript/Ark/include</text>
<text text-anchor="middle" x="74" y="-255.88" font-family="Helvetica,sans-Serif" font-size="10.00">/Ark/Compiler/AST/Parser.hpp</text>
</a>
</g>
</g>
<!-- Node1&#45;&gt;Node2 -->
<g id="edge1_Node000001_Node000002" class="edge">
<title>Node1&#45;&gt;Node2</title>
<g id="a_edge1_Node000001_Node000002"><a xlink:title=" ">
<path fill="none" stroke="#63b8ff" d="M675.72,-440.2C549.83,-435.46 291.34,-421.66 209,-386.5 159.26,-365.26 114.1,-319.11 90.74,-292.33"/>
<polygon fill="#63b8ff" stroke="#63b8ff" points="675.47,-443.69 685.6,-440.56 675.73,-436.7 675.47,-443.69"/>
</a>
</g>
</g>
<!-- Node3 -->
<g id="Node000003" class="node">
<title>Node3</title>
<g id="a_Node000003"><a xlink:href="../../de/d8e/Welder_8hpp.html" target="_top" xlink:title="In charge of welding everything needed to compile code.">
<polygon fill="white" stroke="#666666" points="940.5,-202.88 813.5,-202.88 813.5,-161.12 940.5,-161.12 940.5,-202.88"/>
<text text-anchor="start" x="821.5" y="-189.38" font-family="Helvetica,sans-Serif" font-size="10.00">/Users/fola/Documents</text>
<text text-anchor="start" x="821.5" y="-178.12" font-family="Helvetica,sans-Serif" font-size="10.00">/ArkScript/Ark/include</text>
<text text-anchor="middle" x="877" y="-166.88" font-family="Helvetica,sans-Serif" font-size="10.00">/Ark/Compiler/Welder.hpp</text>
</a>
</g>
</g>
<!-- Node1&#45;&gt;Node3 -->
<g id="edge43_Node000001_Node000003" class="edge">
<title>Node1&#45;&gt;Node3</title>
<g id="a_edge43_Node000001_Node000003"><a xlink:title=" ">
<path fill="none" stroke="#63b8ff" d="M815.14,-419.83C830.52,-411.66 845.17,-400.8 855,-386.5 893.96,-329.84 886.59,-242.57 880.67,-203.33"/>
<polygon fill="#63b8ff" stroke="#63b8ff" points="813.76,-416.6 806.32,-424.14 816.84,-422.89 813.76,-416.6"/>
</a>
</g>
</g>
<!-- Node15 -->
<g id="Node000015" class="node">
<title>Node15</title>
<g id="a_Node000015"><a xlink:href="../../df/d86/IRCompiler_8hpp.html" target="_top" xlink:title="Compile the intermediate representation to bytecode.">
<polygon fill="white" stroke="#666666" points="623.5,-386.5 424.5,-386.5 424.5,-333.5 623.5,-333.5 623.5,-386.5"/>
<text text-anchor="start" x="432.5" y="-373" font-family="Helvetica,sans-Serif" font-size="10.00">/Users/fola/Documents</text>
<text text-anchor="start" x="432.5" y="-361.75" font-family="Helvetica,sans-Serif" font-size="10.00">/ArkScript/Ark/include</text>
<text text-anchor="start" x="432.5" y="-350.5" font-family="Helvetica,sans-Serif" font-size="10.00">/Ark/Compiler/IntermediateRepresentation</text>
<text text-anchor="middle" x="524" y="-339.25" font-family="Helvetica,sans-Serif" font-size="10.00">/IRCompiler.hpp</text>
</a>
</g>
</g>
<!-- Node1&#45;&gt;Node15 -->
<g id="edge15_Node000001_Node000015" class="edge">
<title>Node1&#45;&gt;Node15</title>
<g id="a_edge15_Node000001_Node000015"><a xlink:title=" ">
<path fill="none" stroke="#63b8ff" d="M680.09,-418.21C653.19,-408.36 622.04,-396.94 594.68,-386.91"/>
<polygon fill="#63b8ff" stroke="#63b8ff" points="678.54,-421.37 689.13,-421.53 680.95,-414.8 678.54,-421.37"/>
</a>
</g>
</g>
<!-- Node17 -->
<g id="Node000017" class="node">
<title>Node17</title>
<g id="a_Node000017"><a xlink:href="../../d0/de2/IROptimizer_8hpp.html" target="_top" xlink:title="Optimize IR based on IR entity grouped by 2 (or more)">
<polygon fill="white" stroke="#666666" points="845.5,-386.5 646.5,-386.5 646.5,-333.5 845.5,-333.5 845.5,-386.5"/>
<text text-anchor="start" x="654.5" y="-373" font-family="Helvetica,sans-Serif" font-size="10.00">/Users/fola/Documents</text>
<text text-anchor="start" x="654.5" y="-361.75" font-family="Helvetica,sans-Serif" font-size="10.00">/ArkScript/Ark/include</text>
<text text-anchor="start" x="654.5" y="-350.5" font-family="Helvetica,sans-Serif" font-size="10.00">/Ark/Compiler/IntermediateRepresentation</text>
<text text-anchor="middle" x="746" y="-339.25" font-family="Helvetica,sans-Serif" font-size="10.00">/IROptimizer.hpp</text>
</a>
</g>
</g>
<!-- Node1&#45;&gt;Node17 -->
<g id="edge18_Node000001_Node000017" class="edge">
<title>Node1&#45;&gt;Node17</title>
<g id="a_edge18_Node000001_Node000017"><a xlink:title=" ">
<path fill="none" stroke="#63b8ff" d="M746,-411.02C746,-402.99 746,-394.44 746,-386.73"/>
<polygon fill="#63b8ff" stroke="#63b8ff" points="742.5,-410.75 746,-420.75 749.5,-410.75 742.5,-410.75"/>
</a>
</g>
</g>
<!-- Node19 -->
<g id="Node000019" class="node">
<title>Node19</title>
<g id="a_Node000019"><a xlink:href="../../db/d08/ASTLowerer_8hpp.html" target="_top" xlink:title=" ">
<polygon fill="white" stroke="#666666" points="406.25,-380.88 217.75,-380.88 217.75,-339.12 406.25,-339.12 406.25,-380.88"/>
<text text-anchor="start" x="225.75" y="-367.38" font-family="Helvetica,sans-Serif" font-size="10.00">/Users/fola/Documents</text>
<text text-anchor="start" x="225.75" y="-356.12" font-family="Helvetica,sans-Serif" font-size="10.00">/ArkScript/Ark/include</text>
<text text-anchor="middle" x="312" y="-344.88" font-family="Helvetica,sans-Serif" font-size="10.00">/Ark/Compiler/Lowerer/ASTLowerer.hpp</text>
</a>
</g>
</g>
<!-- Node1&#45;&gt;Node19 -->
<g id="edge21_Node000001_Node000019" class="edge">
<title>Node1&#45;&gt;Node19</title>
<g id="a_edge21_Node000001_Node000019"><a xlink:title=" ">
<path fill="none" stroke="#63b8ff" d="M675.79,-432C608.8,-421.75 505.16,-404.95 416,-386.5 408.35,-384.92 400.42,-383.17 392.49,-381.35"/>
<polygon fill="#63b8ff" stroke="#63b8ff" points="675.13,-435.44 685.55,-433.49 676.19,-428.52 675.13,-435.44"/>
</a>
</g>
</g>
<!-- Node21 -->
<g id="Node000021" class="node">
<title>Node21</title>
<g id="a_Node000021"><a xlink:href="../../df/d5f/Pass_8hpp.html" target="_top" xlink:title="Interface for a compiler pass (take in an AST, output an AST)">
<polygon fill="white" stroke="#666666" points="1247.12,-380.88 1126.88,-380.88 1126.88,-339.12 1247.12,-339.12 1247.12,-380.88"/>
<text text-anchor="start" x="1134.88" y="-367.38" font-family="Helvetica,sans-Serif" font-size="10.00">/Users/fola/Documents</text>
<text text-anchor="start" x="1134.88" y="-356.12" font-family="Helvetica,sans-Serif" font-size="10.00">/ArkScript/Ark/include</text>
<text text-anchor="middle" x="1187" y="-344.88" font-family="Helvetica,sans-Serif" font-size="10.00">/Ark/Compiler/Pass.hpp</text>
</a>
</g>
</g>
<!-- Node1&#45;&gt;Node21 -->
<g id="edge24_Node000001_Node000021" class="edge">
<title>Node1&#45;&gt;Node21</title>
<g id="a_edge24_Node000001_Node000021"><a xlink:title=" ">
<path fill="none" stroke="#63b8ff" d="M816.21,-429.42C901.94,-413.6 1045.53,-387.11 1126.57,-372.15"/>
<polygon fill="#63b8ff" stroke="#63b8ff" points="815.7,-425.95 806.51,-431.21 816.98,-432.84 815.7,-425.95"/>
</a>
</g>
</g>
<!-- Node31 -->
<g id="Node000031" class="node">
<title>Node31</title>
<g id="a_Node000031"><a xlink:href="../../d9/df5/Logger_8cpp.html" target="_top" xlink:title=" ">
<polygon fill="white" stroke="#666666" points="1405.25,-380.88 1264.75,-380.88 1264.75,-339.12 1405.25,-339.12 1405.25,-380.88"/>
<text text-anchor="start" x="1272.75" y="-367.38" font-family="Helvetica,sans-Serif" font-size="10.00">/Users/fola/Documents</text>
<text text-anchor="start" x="1272.75" y="-356.12" font-family="Helvetica,sans-Serif" font-size="10.00">/ArkScript/Ark/src/arkreactor</text>
<text text-anchor="middle" x="1335" y="-344.88" font-family="Helvetica,sans-Serif" font-size="10.00">/Logger.cpp</text>
</a>
</g>
</g>
<!-- Node1&#45;&gt;Node31 -->
<g id="edge44_Node000001_Node000031" class="edge">
<title>Node1&#45;&gt;Node31</title>
<g id="a_edge44_Node000001_Node000031"><a xlink:title=" ">
<path fill="none" stroke="#63b8ff" d="M816.08,-439.2C915.05,-433.71 1101,-419.65 1256,-386.5 1262.76,-385.05 1269.77,-383.25 1276.69,-381.28"/>
<polygon fill="#63b8ff" stroke="#63b8ff" points="816.05,-435.7 806.25,-439.74 816.43,-442.69 816.05,-435.7"/>
</a>
</g>
</g>
<!-- Node2&#45;&gt;Node3 -->
<g id="edge2_Node000002_Node000003" class="edge">
<title>Node2&#45;&gt;Node3</title>
<g id="a_edge2_Node000002_Node000003"><a xlink:title=" ">
<path fill="none" stroke="#63b8ff" d="M145.38,-246.96C149.29,-246.05 153.18,-245.22 157,-244.5 372.93,-203.98 431.24,-228.77 650,-208.5 705.28,-203.38 767.99,-196.23 813.47,-190.81"/>
<polygon fill="#63b8ff" stroke="#63b8ff" points="144.66,-243.53 135.82,-249.37 146.37,-250.32 144.66,-243.53"/>
</a>
</g>
</g>
<!-- Node11 -->
<g id="Node000011" class="node">
<title>Node11</title>
<g id="a_Node000011"><a xlink:href="../../d9/d2e/Formatter_8hpp.html" target="_top" xlink:title=" ">
<polygon fill="white" stroke="#666666" points="132.62,-202.88 15.38,-202.88 15.38,-161.12 132.62,-161.12 132.62,-202.88"/>
<text text-anchor="start" x="23.38" y="-189.38" font-family="Helvetica,sans-Serif" font-size="10.00">/Users/fola/Documents</text>
<text text-anchor="start" x="23.38" y="-178.12" font-family="Helvetica,sans-Serif" font-size="10.00">/ArkScript/Ark/include</text>
<text text-anchor="middle" x="74" y="-166.88" font-family="Helvetica,sans-Serif" font-size="10.00">/CLI/Formatter.hpp</text>
</a>
</g>
</g>
<!-- Node2&#45;&gt;Node11 -->
<g id="edge10_Node000002_Node000011" class="edge">
<title>Node2&#45;&gt;Node11</title>
<g id="a_edge10_Node000002_Node000011"><a xlink:title=" ">
<path fill="none" stroke="#63b8ff" d="M74,-238.64C74,-226.9 74,-213.87 74,-203.37"/>
<polygon fill="#63b8ff" stroke="#63b8ff" points="70.5,-238.31 74,-248.31 77.5,-238.31 70.5,-238.31"/>
</a>
</g>
</g>
<!-- Node13 -->
<g id="Node000013" class="node">
<title>Node13</title>
<g id="a_Node000013"><a xlink:href="../../dc/df5/Parser_8cpp.html" target="_top" xlink:title=" ">
<polygon fill="white" stroke="#666666" points="291.25,-202.88 150.75,-202.88 150.75,-161.12 291.25,-161.12 291.25,-202.88"/>
<text text-anchor="start" x="158.75" y="-189.38" font-family="Helvetica,sans-Serif" font-size="10.00">/Users/fola/Documents</text>
<text text-anchor="start" x="158.75" y="-178.12" font-family="Helvetica,sans-Serif" font-size="10.00">/ArkScript/Ark/src/arkreactor</text>
<text text-anchor="middle" x="221" y="-166.88" font-family="Helvetica,sans-Serif" font-size="10.00">/Compiler/AST/Parser.cpp</text>
</a>
</g>
</g>
<!-- Node2&#45;&gt;Node13 -->
<g id="edge13_Node000002_Node000013" class="edge">
<title>Node2&#45;&gt;Node13</title>
<g id="a_edge13_Node000002_Node000013"><a xlink:title=" ">
<path fill="none" stroke="#63b8ff" d="M117.86,-244.04C139.84,-231.03 166.07,-215.51 186.58,-203.37"/>
<polygon fill="#63b8ff" stroke="#63b8ff" points="116.22,-240.95 109.4,-249.05 119.79,-246.97 116.22,-240.95"/>
</a>
</g>
</g>
<!-- Node14 -->
<g id="Node000014" class="node">
<title>Node14</title>
<g id="a_Node000014"><a xlink:href="../../d6/d41/ImportSolver_8cpp.html" target="_top" xlink:title=" ">
<polygon fill="white" stroke="#666666" points="640.88,-202.88 465.12,-202.88 465.12,-161.12 640.88,-161.12 640.88,-202.88"/>
<text text-anchor="start" x="473.12" y="-189.38" font-family="Helvetica,sans-Serif" font-size="10.00">/Users/fola/Documents</text>
<text text-anchor="start" x="473.12" y="-178.12" font-family="Helvetica,sans-Serif" font-size="10.00">/ArkScript/Ark/src/arkreactor</text>
<text text-anchor="middle" x="553" y="-166.88" font-family="Helvetica,sans-Serif" font-size="10.00">/Compiler/Package/ImportSolver.cpp</text>
</a>
</g>
</g>
<!-- Node2&#45;&gt;Node14 -->
<g id="edge14_Node000002_Node000014" class="edge">
<title>Node2&#45;&gt;Node14</title>
<g id="a_edge14_Node000002_Node000014"><a xlink:title=" ">
<path fill="none" stroke="#63b8ff" d="M147.57,-246.79C150.75,-245.98 153.9,-245.21 157,-244.5 261.76,-220.41 384.3,-202.99 465.01,-192.97"/>
<polygon fill="#63b8ff" stroke="#63b8ff" points="146.96,-243.33 138.2,-249.3 148.76,-250.1 146.96,-243.33"/>
</a>
</g>
</g>
<!-- Node4 -->
<g id="Node000004" class="node">
<title>Node4</title>
<g id="a_Node000004"><a xlink:href="../../d3/d7e/Ark_8hpp.html" target="_top" xlink:title="Includes the needed files to start using ArkScript.">
<polygon fill="white" stroke="#666666" points="657.62,-119.5 540.38,-119.5 540.38,-77.75 657.62,-77.75 657.62,-119.5"/>
<text text-anchor="start" x="548.38" y="-106" font-family="Helvetica,sans-Serif" font-size="10.00">/Users/fola/Documents</text>
<text text-anchor="start" x="548.38" y="-94.75" font-family="Helvetica,sans-Serif" font-size="10.00">/ArkScript/Ark/include</text>
<text text-anchor="middle" x="599" y="-83.5" font-family="Helvetica,sans-Serif" font-size="10.00">/Ark/Ark.hpp</text>
</a>
</g>
</g>
<!-- Node3&#45;&gt;Node4 -->
<g id="edge3_Node000003_Node000004" class="edge">
<title>Node3&#45;&gt;Node4</title>
<g id="a_edge3_Node000003_Node000004"><a xlink:title=" ">
<path fill="none" stroke="#63b8ff" d="M802.26,-159.12C756.9,-145.85 699.85,-129.14 657.74,-116.82"/>
<polygon fill="#63b8ff" stroke="#63b8ff" points="801.19,-162.46 811.77,-161.91 803.15,-155.74 801.19,-162.46"/>
</a>
</g>
</g>
<!-- Node6 -->
<g id="Node000006" class="node">
<title>Node6</title>
<g id="a_Node000006"><a xlink:href="../../dc/dfd/JsonCompiler_8hpp.html" target="_top" xlink:title=" ">
<polygon fill="white" stroke="#666666" points="802.62,-119.5 685.38,-119.5 685.38,-77.75 802.62,-77.75 802.62,-119.5"/>
<text text-anchor="start" x="693.38" y="-106" font-family="Helvetica,sans-Serif" font-size="10.00">/Users/fola/Documents</text>
<text text-anchor="start" x="693.38" y="-94.75" font-family="Helvetica,sans-Serif" font-size="10.00">/ArkScript/Ark/include</text>
<text text-anchor="middle" x="744" y="-83.5" font-family="Helvetica,sans-Serif" font-size="10.00">/CLI/JsonCompiler.hpp</text>
</a>
</g>
</g>
<!-- Node3&#45;&gt;Node6 -->
<g id="edge5_Node000003_Node000006" class="edge">
<title>Node3&#45;&gt;Node6</title>
<g id="a_edge5_Node000003_Node000006"><a xlink:title=" ">
<path fill="none" stroke="#63b8ff" d="M834.15,-154.78C815.71,-143.5 794.48,-130.51 777.26,-119.97"/>
<polygon fill="#63b8ff" stroke="#63b8ff" points="832.13,-157.65 842.49,-159.89 835.79,-151.68 832.13,-157.65"/>
</a>
</g>
</g>
<!-- Node9 -->
<g id="Node000009" class="node">
<title>Node9</title>
<g id="a_Node000009"><a xlink:href="../../d3/df1/Welder_8cpp.html" target="_top" xlink:title=" ">
<polygon fill="white" stroke="#666666" points="1134.25,-119.5 993.75,-119.5 993.75,-77.75 1134.25,-77.75 1134.25,-119.5"/>
<text text-anchor="start" x="1001.75" y="-106" font-family="Helvetica,sans-Serif" font-size="10.00">/Users/fola/Documents</text>
<text text-anchor="start" x="1001.75" y="-94.75" font-family="Helvetica,sans-Serif" font-size="10.00">/ArkScript/Ark/src/arkreactor</text>
<text text-anchor="middle" x="1064" y="-83.5" font-family="Helvetica,sans-Serif" font-size="10.00">/Compiler/Welder.cpp</text>
</a>
</g>
</g>
<!-- Node3&#45;&gt;Node9 -->
<g id="edge8_Node000003_Node000009" class="edge">
<title>Node3&#45;&gt;Node9</title>
<g id="a_edge8_Node000003_Node000009"><a xlink:title=" ">
<path fill="none" stroke="#63b8ff" d="M934.04,-156.18C960.69,-144.58 992.02,-130.95 1017.24,-119.97"/>
<polygon fill="#63b8ff" stroke="#63b8ff" points="932.87,-152.87 925.09,-160.07 935.66,-159.29 932.87,-152.87"/>
</a>
</g>
</g>
<!-- Node10 -->
<g id="Node000010" class="node">
<title>Node10</title>
<g id="a_Node000010"><a xlink:href="../../d0/da0/State_8cpp.html" target="_top" xlink:title=" ">
<polygon fill="white" stroke="#666666" points="961.25,-119.5 820.75,-119.5 820.75,-77.75 961.25,-77.75 961.25,-119.5"/>
<text text-anchor="start" x="828.75" y="-106" font-family="Helvetica,sans-Serif" font-size="10.00">/Users/fola/Documents</text>
<text text-anchor="start" x="828.75" y="-94.75" font-family="Helvetica,sans-Serif" font-size="10.00">/ArkScript/Ark/src/arkreactor</text>
<text text-anchor="middle" x="891" y="-83.5" font-family="Helvetica,sans-Serif" font-size="10.00">/VM/State.cpp</text>
</a>
</g>
</g>
<!-- Node3&#45;&gt;Node10 -->
<g id="edge9_Node000003_Node000010" class="edge">
<title>Node3&#45;&gt;Node10</title>
<g id="a_edge9_Node000003_Node000010"><a xlink:title=" ">
<path fill="none" stroke="#63b8ff" d="M882.4,-149.64C884.12,-139.62 885.98,-128.8 887.53,-119.79"/>
<polygon fill="#63b8ff" stroke="#63b8ff" points="878.96,-148.94 880.72,-159.39 885.86,-150.13 878.96,-148.94"/>
</a>
</g>
</g>
<!-- Node5 -->
<g id="Node000005" class="node">
<title>Node5</title>
<g id="a_Node000005"><a xlink:href="../../dc/d32/Ark_8cpp.html" target="_top" xlink:title=" ">
<polygon fill="white" stroke="#666666" points="663.25,-41.75 522.75,-41.75 522.75,0 663.25,0 663.25,-41.75"/>
<text text-anchor="start" x="530.75" y="-28.25" font-family="Helvetica,sans-Serif" font-size="10.00">/Users/fola/Documents</text>
<text text-anchor="start" x="530.75" y="-17" font-family="Helvetica,sans-Serif" font-size="10.00">/ArkScript/Ark/src/arkreactor</text>
<text text-anchor="middle" x="593" y="-5.75" font-family="Helvetica,sans-Serif" font-size="10.00">/Ark.cpp</text>
</a>
</g>
</g>
<!-- Node4&#45;&gt;Node5 -->
<g id="edge4_Node000004_Node000005" class="edge">
<title>Node4&#45;&gt;Node5</title>
<g id="a_edge4_Node000004_Node000005"><a xlink:title=" ">
<path fill="none" stroke="#63b8ff" d="M596.5,-66C595.86,-57.96 595.19,-49.54 594.61,-42.23"/>
<polygon fill="#63b8ff" stroke="#63b8ff" points="592.99,-66.12 597.27,-75.82 599.97,-65.57 592.99,-66.12"/>
</a>
</g>
</g>
<!-- Node7 -->
<g id="Node000007" class="node">
<title>Node7</title>
<g id="a_Node000007"><a xlink:href="../../db/d71/JsonCompiler_8cpp.html" target="_top" xlink:title=" ">
<polygon fill="white" stroke="#666666" points="816.25,-41.75 681.75,-41.75 681.75,0 816.25,0 816.25,-41.75"/>
<text text-anchor="start" x="689.75" y="-28.25" font-family="Helvetica,sans-Serif" font-size="10.00">/Users/fola/Documents</text>
<text text-anchor="start" x="689.75" y="-17" font-family="Helvetica,sans-Serif" font-size="10.00">/ArkScript/Ark/src/arkscript</text>
<text text-anchor="middle" x="749" y="-5.75" font-family="Helvetica,sans-Serif" font-size="10.00">/JsonCompiler.cpp</text>
</a>
</g>
</g>
<!-- Node6&#45;&gt;Node7 -->
<g id="edge6_Node000006_Node000007" class="edge">
<title>Node6&#45;&gt;Node7</title>
<g id="a_edge6_Node000006_Node000007"><a xlink:title=" ">
<path fill="none" stroke="#63b8ff" d="M746.09,-66C746.62,-57.96 747.17,-49.54 747.66,-42.23"/>
<polygon fill="#63b8ff" stroke="#63b8ff" points="742.61,-65.61 745.44,-75.82 749.59,-66.07 742.61,-65.61"/>
</a>
</g>
</g>
<!-- Node8 -->
<g id="Node000008" class="node">
<title>Node8</title>
<g id="a_Node000008"><a xlink:href="../../df/d0a/main_8cpp.html" target="_top" xlink:title=" ">
<polygon fill="white" stroke="#666666" points="438.25,-41.75 303.75,-41.75 303.75,0 438.25,0 438.25,-41.75"/>
<text text-anchor="start" x="311.75" y="-28.25" font-family="Helvetica,sans-Serif" font-size="10.00">/Users/fola/Documents</text>
<text text-anchor="start" x="311.75" y="-17" font-family="Helvetica,sans-Serif" font-size="10.00">/ArkScript/Ark/src/arkscript</text>
<text text-anchor="middle" x="371" y="-5.75" font-family="Helvetica,sans-Serif" font-size="10.00">/main.cpp</text>
</a>
</g>
</g>
<!-- Node6&#45;&gt;Node8 -->
<g id="edge7_Node000006_Node000008" class="edge">
<title>Node6&#45;&gt;Node8</title>
<g id="a_edge7_Node000006_Node000008"><a xlink:title=" ">
<path fill="none" stroke="#63b8ff" d="M674.33,-79.42C671.86,-78.85 669.41,-78.29 667,-77.75 589.04,-60.35 498.73,-43.82 438.56,-33.32"/>
<polygon fill="#63b8ff" stroke="#63b8ff" points="673.23,-82.76 683.77,-81.68 674.86,-75.95 673.23,-82.76"/>
</a>
</g>
</g>
<!-- Node11&#45;&gt;Node8 -->
<g id="edge12_Node000011_Node000008" class="edge">
<title>Node11&#45;&gt;Node8</title>
<g id="a_edge12_Node000011_Node000008"><a xlink:title=" ">
<path fill="none" stroke="#63b8ff" d="M121.72,-155.43C180.59,-123.89 279.48,-70.91 333.31,-42.07"/>
<polygon fill="#63b8ff" stroke="#63b8ff" points="120.41,-152.16 113.25,-159.97 123.72,-158.33 120.41,-152.16"/>
</a>
</g>
</g>
<!-- Node12 -->
<g id="Node000012" class="node">
<title>Node12</title>
<g id="a_Node000012"><a xlink:href="../../d2/d56/Formatter_8cpp.html" target="_top" xlink:title=" ">
<polygon fill="white" stroke="#666666" points="141.25,-119.5 6.75,-119.5 6.75,-77.75 141.25,-77.75 141.25,-119.5"/>
<text text-anchor="start" x="14.75" y="-106" font-family="Helvetica,sans-Serif" font-size="10.00">/Users/fola/Documents</text>
<text text-anchor="start" x="14.75" y="-94.75" font-family="Helvetica,sans-Serif" font-size="10.00">/ArkScript/Ark/src/arkscript</text>
<text text-anchor="middle" x="74" y="-83.5" font-family="Helvetica,sans-Serif" font-size="10.00">/Formatter.cpp</text>
</a>
</g>
</g>
<!-- Node11&#45;&gt;Node12 -->
<g id="edge11_Node000011_Node000012" class="edge">
<title>Node11&#45;&gt;Node12</title>
<g id="a_edge11_Node000011_Node000012"><a xlink:title=" ">
<path fill="none" stroke="#63b8ff" d="M74,-149.64C74,-139.62 74,-128.8 74,-119.79"/>
<polygon fill="#63b8ff" stroke="#63b8ff" points="70.5,-149.37 74,-159.37 77.5,-149.37 70.5,-149.37"/>
</a>
</g>
</g>
<!-- Node15&#45;&gt;Node3 -->
<g id="edge16_Node000015_Node000003" class="edge">
<title>Node15&#45;&gt;Node3</title>
<g id="a_edge16_Node000015_Node000003"><a xlink:title=" ">
<path fill="none" stroke="#63b8ff" d="M449.15,-326.72C438.27,-318.76 428.55,-309.1 422,-297.5 410.42,-276.99 406.5,-262.24 422,-244.5 428.4,-237.18 689.71,-205.25 813.37,-190.51"/>
<polygon fill="#63b8ff" stroke="#63b8ff" points="447,-329.5 457.26,-332.17 450.91,-323.69 447,-329.5"/>
</a>
</g>
</g>
<!-- Node16 -->
<g id="Node000016" class="node">
<title>Node16</title>
<g id="a_Node000016"><a xlink:href="../../d1/dfa/IRCompiler_8cpp.html" target="_top" xlink:title=" ">
<polygon fill="white" stroke="#666666" points="611.5,-297.5 430.5,-297.5 430.5,-244.5 611.5,-244.5 611.5,-297.5"/>
<text text-anchor="start" x="438.5" y="-284" font-family="Helvetica,sans-Serif" font-size="10.00">/Users/fola/Documents</text>
<text text-anchor="start" x="438.5" y="-272.75" font-family="Helvetica,sans-Serif" font-size="10.00">/ArkScript/Ark/src/arkreactor</text>
<text text-anchor="start" x="438.5" y="-261.5" font-family="Helvetica,sans-Serif" font-size="10.00">/Compiler/IntermediateRepresentation</text>
<text text-anchor="middle" x="521" y="-250.25" font-family="Helvetica,sans-Serif" font-size="10.00">/IRCompiler.cpp</text>
</a>
</g>
</g>
<!-- Node15&#45;&gt;Node16 -->
<g id="edge17_Node000015_Node000016" class="edge">
<title>Node15&#45;&gt;Node16</title>
<g id="a_edge17_Node000015_Node000016"><a xlink:title=" ">
<path fill="none" stroke="#63b8ff" d="M522.73,-322.11C522.45,-313.91 522.15,-305.39 521.89,-297.75"/>
<polygon fill="#63b8ff" stroke="#63b8ff" points="519.22,-321.98 523.06,-331.86 526.22,-321.74 519.22,-321.98"/>
</a>
</g>
</g>
<!-- Node17&#45;&gt;Node3 -->
<g id="edge19_Node000017_Node000003" class="edge">
<title>Node17&#45;&gt;Node3</title>
<g id="a_edge19_Node000017_Node000003"><a xlink:title=" ">
<path fill="none" stroke="#63b8ff" d="M791.8,-326C801.85,-317.44 811.9,-307.73 820,-297.5 843.43,-267.9 860.88,-227.12 869.96,-203.06"/>
<polygon fill="#63b8ff" stroke="#63b8ff" points="789.7,-323.2 784.19,-332.25 794.14,-328.62 789.7,-323.2"/>
</a>
</g>
</g>
<!-- Node18 -->
<g id="Node000018" class="node">
<title>Node18</title>
<g id="a_Node000018"><a xlink:href="../../d0/da9/IROptimizer_8cpp.html" target="_top" xlink:title=" ">
<polygon fill="white" stroke="#666666" points="810.5,-297.5 629.5,-297.5 629.5,-244.5 810.5,-244.5 810.5,-297.5"/>
<text text-anchor="start" x="637.5" y="-284" font-family="Helvetica,sans-Serif" font-size="10.00">/Users/fola/Documents</text>
<text text-anchor="start" x="637.5" y="-272.75" font-family="Helvetica,sans-Serif" font-size="10.00">/ArkScript/Ark/src/arkreactor</text>
<text text-anchor="start" x="637.5" y="-261.5" font-family="Helvetica,sans-Serif" font-size="10.00">/Compiler/IntermediateRepresentation</text>
<text text-anchor="middle" x="720" y="-250.25" font-family="Helvetica,sans-Serif" font-size="10.00">/IROptimizer.cpp</text>
</a>
</g>
</g>
<!-- Node17&#45;&gt;Node18 -->
<g id="edge20_Node000017_Node000018" class="edge">
<title>Node17&#45;&gt;Node18</title>
<g id="a_edge20_Node000017_Node000018"><a xlink:title=" ">
<path fill="none" stroke="#63b8ff" d="M735.06,-322.4C732.58,-314.11 730,-305.48 727.7,-297.75"/>
<polygon fill="#63b8ff" stroke="#63b8ff" points="731.69,-323.34 737.91,-331.92 738.4,-321.33 731.69,-323.34"/>
</a>
</g>
</g>
<!-- Node19&#45;&gt;Node3 -->
<g id="edge22_Node000019_Node000003" class="edge">
<title>Node19&#45;&gt;Node3</title>
<g id="a_edge22_Node000019_Node000003"><a xlink:title=" ">
<path fill="none" stroke="#63b8ff" d="M328.24,-329.18C344.61,-302.25 372.51,-263.97 408,-244.5 425.57,-234.86 689.16,-204.15 813.27,-190.12"/>
<polygon fill="#63b8ff" stroke="#63b8ff" points="325.36,-327.18 323.31,-337.57 331.39,-330.72 325.36,-327.18"/>
</a>
</g>
</g>
<!-- Node20 -->
<g id="Node000020" class="node">
<title>Node20</title>
<g id="a_Node000020"><a xlink:href="../../d2/d5e/ASTLowerer_8cpp.html" target="_top" xlink:title=" ">
<polygon fill="white" stroke="#666666" points="336.25,-291.88 165.75,-291.88 165.75,-250.12 336.25,-250.12 336.25,-291.88"/>
<text text-anchor="start" x="173.75" y="-278.38" font-family="Helvetica,sans-Serif" font-size="10.00">/Users/fola/Documents</text>
<text text-anchor="start" x="173.75" y="-267.12" font-family="Helvetica,sans-Serif" font-size="10.00">/ArkScript/Ark/src/arkreactor</text>
<text text-anchor="middle" x="251" y="-255.88" font-family="Helvetica,sans-Serif" font-size="10.00">/Compiler/Lowerer/ASTLowerer.cpp</text>
</a>
</g>
</g>
<!-- Node19&#45;&gt;Node20 -->
<g id="edge23_Node000019_Node000020" class="edge">
<title>Node19&#45;&gt;Node20</title>
<g id="a_edge23_Node000019_Node000020"><a xlink:title=" ">
<path fill="none" stroke="#63b8ff" d="M291.29,-329.47C282.74,-317.26 273.03,-303.41 265.28,-292.37"/>
<polygon fill="#63b8ff" stroke="#63b8ff" points="288.38,-331.4 296.98,-337.58 294.11,-327.39 288.38,-331.4"/>
</a>
</g>
</g>
<!-- Node22 -->
<g id="Node000022" class="node">
<title>Node22</title>
<g id="a_Node000022"><a xlink:href="../../db/d93/Optimizer_8hpp.html" target="_top" xlink:title="Optimizes a given ArkScript AST.">
<polygon fill="white" stroke="#666666" points="1436.75,-291.88 1275.25,-291.88 1275.25,-250.12 1436.75,-250.12 1436.75,-291.88"/>
<text text-anchor="start" x="1283.25" y="-278.38" font-family="Helvetica,sans-Serif" font-size="10.00">/Users/fola/Documents</text>
<text text-anchor="start" x="1283.25" y="-267.12" font-family="Helvetica,sans-Serif" font-size="10.00">/ArkScript/Ark/include</text>
<text text-anchor="middle" x="1356" y="-255.88" font-family="Helvetica,sans-Serif" font-size="10.00">/Ark/Compiler/AST/Optimizer.hpp</text>
</a>
</g>
</g>
<!-- Node21&#45;&gt;Node22 -->
<g id="edge25_Node000021_Node000022" class="edge">
<title>Node21&#45;&gt;Node22</title>
<g id="a_edge25_Node000021_Node000022"><a xlink:title=" ">
<path fill="none" stroke="#63b8ff" d="M1236.4,-333.57C1261.88,-320.45 1292.53,-304.67 1316.43,-292.37"/>
<polygon fill="#63b8ff" stroke="#63b8ff" points="1234.83,-330.44 1227.54,-338.13 1238.04,-336.66 1234.83,-330.44"/>
</a>
</g>
</g>
<!-- Node24 -->
<g id="Node000024" class="node">
<title>Node24</title>
<g id="a_Node000024"><a xlink:href="../../de/db1/Processor_8hpp.html" target="_top" xlink:title="Handles the macros and their expansion in ArkScript source code.">
<polygon fill="white" stroke="#666666" points="1631.25,-291.88 1454.75,-291.88 1454.75,-250.12 1631.25,-250.12 1631.25,-291.88"/>
<text text-anchor="start" x="1462.75" y="-278.38" font-family="Helvetica,sans-Serif" font-size="10.00">/Users/fola/Documents</text>
<text text-anchor="start" x="1462.75" y="-267.12" font-family="Helvetica,sans-Serif" font-size="10.00">/ArkScript/Ark/include</text>
<text text-anchor="middle" x="1543" y="-255.88" font-family="Helvetica,sans-Serif" font-size="10.00">/Ark/Compiler/Macros/Processor.hpp</text>
</a>
</g>
</g>
<!-- Node21&#45;&gt;Node24 -->
<g id="edge29_Node000021_Node000024" class="edge">
<title>Node21&#45;&gt;Node24</title>
<g id="a_edge29_Node000021_Node000024"><a xlink:title=" ">
<path fill="none" stroke="#63b8ff" d="M1249.97,-335.25C1252,-334.64 1254.01,-334.05 1256,-333.5 1338.82,-310.52 1362.17,-316.44 1446,-297.5 1453.05,-295.91 1460.36,-294.16 1467.67,-292.35"/>
<polygon fill="#63b8ff" stroke="#63b8ff" points="1248.98,-331.89 1240.51,-338.26 1251.1,-338.56 1248.98,-331.89"/>
</a>
</g>
</g>
<!-- Node27 -->
<g id="Node000027" class="node">
<title>Node27</title>
<g id="a_Node000027"><a xlink:href="../../d4/de8/NameResolutionPass_8hpp.html" target="_top" xlink:title="Resolves names and fully qualify them in the AST (prefixing them with the package they are from)">
<polygon fill="white" stroke="#666666" points="1810.88,-297.5 1659.12,-297.5 1659.12,-244.5 1810.88,-244.5 1810.88,-297.5"/>
<text text-anchor="start" x="1667.12" y="-284" font-family="Helvetica,sans-Serif" font-size="10.00">/Users/fola/Documents</text>
<text text-anchor="start" x="1667.12" y="-272.75" font-family="Helvetica,sans-Serif" font-size="10.00">/ArkScript/Ark/include</text>
<text text-anchor="start" x="1667.12" y="-261.5" font-family="Helvetica,sans-Serif" font-size="10.00">/Ark/Compiler/NameResolution</text>
<text text-anchor="middle" x="1735" y="-250.25" font-family="Helvetica,sans-Serif" font-size="10.00">/NameResolutionPass.hpp</text>
</a>
</g>
</g>
<!-- Node21&#45;&gt;Node27 -->
<g id="edge34_Node000021_Node000027" class="edge">
<title>Node21&#45;&gt;Node27</title>
<g id="a_edge34_Node000021_Node000027"><a xlink:title=" ">
<path fill="none" stroke="#63b8ff" d="M1248.2,-335.46C1250.82,-334.74 1253.43,-334.09 1256,-333.5 1423.14,-295.47 1471.29,-327.83 1640,-297.5 1646.13,-296.4 1652.45,-295.09 1658.77,-293.66"/>
<polygon fill="#63b8ff" stroke="#63b8ff" points="1247.45,-332.03 1238.87,-338.24 1249.45,-338.74 1247.45,-332.03"/>
</a>
</g>
</g>
<!-- Node29 -->
<g id="Node000029" class="node">
<title>Node29</title>
<g id="a_Node000029"><a xlink:href="../../d1/db0/ImportSolver_8hpp.html" target="_top" xlink:title="Handle imports, resolve them with modules and everything.">
<polygon fill="white" stroke="#666666" points="1098.88,-291.88 905.12,-291.88 905.12,-250.12 1098.88,-250.12 1098.88,-291.88"/>
<text text-anchor="start" x="913.12" y="-278.38" font-family="Helvetica,sans-Serif" font-size="10.00">/Users/fola/Documents</text>
<text text-anchor="start" x="913.12" y="-267.12" font-family="Helvetica,sans-Serif" font-size="10.00">/ArkScript/Ark/include</text>
<text text-anchor="middle" x="1002" y="-255.88" font-family="Helvetica,sans-Serif" font-size="10.00">/Ark/Compiler/Package/ImportSolver.hpp</text>
</a>
</g>
</g>
<!-- Node21&#45;&gt;Node29 -->
<g id="edge38_Node000021_Node000029" class="edge">
<title>Node21&#45;&gt;Node29</title>
<g id="a_edge38_Node000021_Node000029"><a xlink:title=" ">
<path fill="none" stroke="#63b8ff" d="M1134.03,-334.09C1105.93,-320.87 1071.82,-304.84 1045.32,-292.37"/>
<polygon fill="#63b8ff" stroke="#63b8ff" points="1132.18,-337.09 1142.72,-338.18 1135.16,-330.75 1132.18,-337.09"/>
</a>
</g>
</g>
<!-- Node30 -->
<g id="Node000030" class="node">
<title>Node30</title>
<g id="a_Node000030"><a xlink:href="../../d8/d54/Pass_8cpp.html" target="_top" xlink:title=" ">
<polygon fill="white" stroke="#666666" points="1257.25,-291.88 1116.75,-291.88 1116.75,-250.12 1257.25,-250.12 1257.25,-291.88"/>
<text text-anchor="start" x="1124.75" y="-278.38" font-family="Helvetica,sans-Serif" font-size="10.00">/Users/fola/Documents</text>
<text text-anchor="start" x="1124.75" y="-267.12" font-family="Helvetica,sans-Serif" font-size="10.00">/ArkScript/Ark/src/arkreactor</text>
<text text-anchor="middle" x="1187" y="-255.88" font-family="Helvetica,sans-Serif" font-size="10.00">/Compiler/Pass.cpp</text>
</a>
</g>
</g>
<!-- Node21&#45;&gt;Node30 -->
<g id="edge42_Node000021_Node000030" class="edge">
<title>Node21&#45;&gt;Node30</title>
<g id="a_edge42_Node000021_Node000030"><a xlink:title=" ">
<path fill="none" stroke="#63b8ff" d="M1187,-327.64C1187,-315.9 1187,-302.87 1187,-292.37"/>
<polygon fill="#63b8ff" stroke="#63b8ff" points="1183.5,-327.31 1187,-337.31 1190.5,-327.31 1183.5,-327.31"/>
</a>
</g>
</g>
<!-- Node22&#45;&gt;Node3 -->
<g id="edge26_Node000022_Node000003" class="edge">
<title>Node22&#45;&gt;Node3</title>
<g id="a_edge26_Node000022_Node000003"><a xlink:title=" ">
<path fill="none" stroke="#63b8ff" d="M1276.29,-246.87C1272.82,-246.04 1269.38,-245.24 1266,-244.5 1234.91,-237.66 1043.15,-208.22 940.97,-192.69"/>
<polygon fill="#63b8ff" stroke="#63b8ff" points="1275.4,-250.26 1285.95,-249.29 1277.1,-243.47 1275.4,-250.26"/>
</a>
</g>
</g>
<!-- Node22&#45;&gt;Node9 -->
<g id="edge28_Node000022_Node000009" class="edge">
<title>Node22&#45;&gt;Node9</title>
<g id="a_edge28_Node000022_Node000009"><a xlink:title=" ">
<path fill="none" stroke="#63b8ff" d="M1275.46,-246.83C1272.27,-246.03 1269.11,-245.24 1266,-244.5 1185.39,-225.19 1140.98,-267.74 1083,-208.5 1060.05,-185.05 1059.28,-144.35 1061.3,-119.91"/>
<polygon fill="#63b8ff" stroke="#63b8ff" points="1274.35,-250.16 1284.91,-249.29 1276.11,-243.39 1274.35,-250.16"/>
</a>
</g>
</g>
<!-- Node23 -->
<g id="Node000023" class="node">
<title>Node23</title>
<g id="a_Node000023"><a xlink:href="../../d2/dc5/Optimizer_8cpp.html" target="_top" xlink:title=" ">
<polygon fill="white" stroke="#666666" points="1235.75,-202.88 1092.25,-202.88 1092.25,-161.12 1235.75,-161.12 1235.75,-202.88"/>
<text text-anchor="start" x="1100.25" y="-189.38" font-family="Helvetica,sans-Serif" font-size="10.00">/Users/fola/Documents</text>
<text text-anchor="start" x="1100.25" y="-178.12" font-family="Helvetica,sans-Serif" font-size="10.00">/ArkScript/Ark/src/arkreactor</text>
<text text-anchor="middle" x="1164" y="-166.88" font-family="Helvetica,sans-Serif" font-size="10.00">/Compiler/AST/Optimizer.cpp</text>
</a>
</g>
</g>
<!-- Node22&#45;&gt;Node23 -->
<g id="edge27_Node000022_Node000023" class="edge">
<title>Node22&#45;&gt;Node23</title>
<g id="a_edge27_Node000022_Node000023"><a xlink:title=" ">
<path fill="none" stroke="#63b8ff" d="M1301.03,-245.09C1271.86,-231.87 1236.46,-215.84 1208.95,-203.37"/>
<polygon fill="#63b8ff" stroke="#63b8ff" points="1299.54,-248.26 1310.09,-249.2 1302.43,-241.88 1299.54,-248.26"/>
</a>
</g>
</g>
<!-- Node24&#45;&gt;Node3 -->
<g id="edge30_Node000024_Node000003" class="edge">
<title>Node24&#45;&gt;Node3</title>
<g id="a_edge30_Node000024_Node000003"><a xlink:title=" ">
<path fill="none" stroke="#63b8ff" d="M1459.82,-247.23C1455.16,-246.23 1450.53,-245.31 1446,-244.5 1286.44,-215.8 1244.13,-226.46 1083,-208.5 1035.37,-203.19 981.62,-196.52 940.98,-191.33"/>
<polygon fill="#63b8ff" stroke="#63b8ff" points="1458.71,-250.56 1469.24,-249.33 1460.24,-243.73 1458.71,-250.56"/>
</a>
</g>
</g>
<!-- Node24&#45;&gt;Node9 -->
<g id="edge33_Node000024_Node000009" class="edge">
<title>Node24&#45;&gt;Node9</title>
<g id="a_edge33_Node000024_Node000009"><a xlink:title=" ">
<path fill="none" stroke="#63b8ff" d="M1455.66,-246.87C1452.4,-246.06 1449.17,-245.27 1446,-244.5 1373.89,-227.07 1344.93,-249.35 1283,-208.5 1258.8,-192.54 1268.52,-172.44 1245,-155.5 1212.57,-132.15 1170.16,-118.38 1134.54,-110.35"/>
<polygon fill="#63b8ff" stroke="#63b8ff" points="1454.8,-250.26 1465.36,-249.3 1456.51,-243.47 1454.8,-250.26"/>
</a>
</g>
</g>
<!-- Node25 -->
<g id="Node000025" class="node">
<title>Node25</title>
<g id="a_Node000025"><a xlink:href="../../d1/da9/Executor_8cpp.html" target="_top" xlink:title=" ">
<polygon fill="white" stroke="#666666" points="1445.62,-202.88 1292.38,-202.88 1292.38,-161.12 1445.62,-161.12 1445.62,-202.88"/>
<text text-anchor="start" x="1300.38" y="-189.38" font-family="Helvetica,sans-Serif" font-size="10.00">/Users/fola/Documents</text>
<text text-anchor="start" x="1300.38" y="-178.12" font-family="Helvetica,sans-Serif" font-size="10.00">/ArkScript/Ark/src/arkreactor</text>
<text text-anchor="middle" x="1369" y="-166.88" font-family="Helvetica,sans-Serif" font-size="10.00">/Compiler/Macros/Executor.cpp</text>
</a>
</g>
</g>
<!-- Node24&#45;&gt;Node25 -->
<g id="edge31_Node000024_Node000025" class="edge">
<title>Node24&#45;&gt;Node25</title>
<g id="a_edge31_Node000024_Node000025"><a xlink:title=" ">
<path fill="none" stroke="#63b8ff" d="M1492.49,-244.74C1466.19,-231.59 1434.45,-215.73 1409.74,-203.37"/>
<polygon fill="#63b8ff" stroke="#63b8ff" points="1490.78,-247.8 1501.29,-249.14 1493.91,-241.54 1490.78,-247.8"/>
</a>
</g>
</g>
<!-- Node26 -->
<g id="Node000026" class="node">
<title>Node26</title>
<g id="a_Node000026"><a xlink:href="../../d6/d69/Processor_8cpp.html" target="_top" xlink:title=" ">
<polygon fill="white" stroke="#666666" points="1622.25,-202.88 1463.75,-202.88 1463.75,-161.12 1622.25,-161.12 1622.25,-202.88"/>
<text text-anchor="start" x="1471.75" y="-189.38" font-family="Helvetica,sans-Serif" font-size="10.00">/Users/fola/Documents</text>
<text text-anchor="start" x="1471.75" y="-178.12" font-family="Helvetica,sans-Serif" font-size="10.00">/ArkScript/Ark/src/arkreactor</text>
<text text-anchor="middle" x="1543" y="-166.88" font-family="Helvetica,sans-Serif" font-size="10.00">/Compiler/Macros/Processor.cpp</text>
</a>
</g>
</g>
<!-- Node24&#45;&gt;Node26 -->
<g id="edge32_Node000024_Node000026" class="edge">
<title>Node24&#45;&gt;Node26</title>
<g id="a_edge32_Node000024_Node000026"><a xlink:title=" ">
<path fill="none" stroke="#63b8ff" d="M1543,-238.64C1543,-226.9 1543,-213.87 1543,-203.37"/>
<polygon fill="#63b8ff" stroke="#63b8ff" points="1539.5,-238.31 1543,-248.31 1546.5,-238.31 1539.5,-238.31"/>
</a>
</g>
</g>
<!-- Node27&#45;&gt;Node3 -->
<g id="edge35_Node000027_Node000003" class="edge">
<title>Node27&#45;&gt;Node3</title>
<g id="a_edge35_Node000027_Node000003"><a xlink:title=" ">
<path fill="none" stroke="#63b8ff" d="M1647.57,-245.84C1645.03,-245.36 1642.5,-244.91 1640,-244.5 1395.23,-204.15 1329.98,-231.75 1083,-208.5 1035.28,-204.01 981.54,-197.3 940.92,-191.89"/>
<polygon fill="#63b8ff" stroke="#63b8ff" points="1646.83,-249.26 1657.32,-247.84 1648.23,-242.41 1646.83,-249.26"/>
</a>
</g>
</g>
<!-- Node27&#45;&gt;Node9 -->
<g id="edge37_Node000027_Node000009" class="edge">
<title>Node27&#45;&gt;Node9</title>
<g id="a_edge37_Node000027_Node000009"><a xlink:title=" ">
<path fill="none" stroke="#63b8ff" d="M1821.36,-242.92C1836.32,-234.3 1849.96,-223.07 1859,-208.5 1871.42,-188.48 1875.06,-172.73 1859,-155.5 1810.15,-103.09 1319.93,-98.91 1134.53,-99.23"/>
<polygon fill="#63b8ff" stroke="#63b8ff" points="1819.9,-239.73 1812.7,-247.5 1823.18,-245.91 1819.9,-239.73"/>
</a>
</g>
</g>
<!-- Node28 -->
<g id="Node000028" class="node">
<title>Node28</title>
<g id="a_Node000028"><a xlink:href="../../de/dd7/NameResolutionPass_8cpp.html" target="_top" xlink:title=" ">
<polygon fill="white" stroke="#666666" points="1849.75,-208.5 1640.25,-208.5 1640.25,-155.5 1849.75,-155.5 1849.75,-208.5"/>
<text text-anchor="start" x="1648.25" y="-195" font-family="Helvetica,sans-Serif" font-size="10.00">/Users/fola/Documents</text>
<text text-anchor="start" x="1648.25" y="-183.75" font-family="Helvetica,sans-Serif" font-size="10.00">/ArkScript/Ark/src/arkreactor</text>
<text text-anchor="start" x="1648.25" y="-172.5" font-family="Helvetica,sans-Serif" font-size="10.00">/Compiler/NameResolution/NameResolution</text>
<text text-anchor="middle" x="1745" y="-161.25" font-family="Helvetica,sans-Serif" font-size="10.00">Pass.cpp</text>
</a>
</g>
</g>
<!-- Node27&#45;&gt;Node28 -->
<g id="edge36_Node000027_Node000028" class="edge">
<title>Node27&#45;&gt;Node28</title>
<g id="a_edge36_Node000027_Node000028"><a xlink:title=" ">
<path fill="none" stroke="#63b8ff" d="M1739.24,-233.11C1740.18,-224.91 1741.16,-216.39 1742.04,-208.75"/>
<polygon fill="#63b8ff" stroke="#63b8ff" points="1735.78,-232.53 1738.12,-242.86 1742.74,-233.33 1735.78,-232.53"/>
</a>
</g>
</g>
<!-- Node29&#45;&gt;Node3 -->
<g id="edge39_Node000029_Node000003" class="edge">
<title>Node29&#45;&gt;Node3</title>
<g id="a_edge39_Node000029_Node000003"><a xlink:title=" ">
<path fill="none" stroke="#63b8ff" d="M963.69,-243.34C945.21,-230.47 923.39,-215.29 906.27,-203.37"/>
<polygon fill="#63b8ff" stroke="#63b8ff" points="961.56,-246.12 971.77,-248.96 965.56,-240.37 961.56,-246.12"/>
</a>
</g>
</g>
<!-- Node29&#45;&gt;Node9 -->
<g id="edge41_Node000029_Node000009" class="edge">
<title>Node29&#45;&gt;Node9</title>
<g id="a_edge41_Node000029_Node000009"><a xlink:title=" ">
<path fill="none" stroke="#63b8ff" d="M1013.16,-239.33C1025.76,-204.72 1045.89,-149.38 1056.65,-119.81"/>
<polygon fill="#63b8ff" stroke="#63b8ff" points="1010,-237.77 1009.87,-248.36 1016.58,-240.16 1010,-237.77"/>
</a>
</g>
</g>
<!-- Node29&#45;&gt;Node14 -->
<g id="edge40_Node000029_Node000014" class="edge">
<title>Node29&#45;&gt;Node14</title>
<g id="a_edge40_Node000029_Node000014"><a xlink:title=" ">
<path fill="none" stroke="#63b8ff" d="M893.63,-249C816.28,-234.01 713.56,-214.11 641.21,-200.09"/>
<polygon fill="#63b8ff" stroke="#63b8ff" points="892.88,-252.42 903.36,-250.89 894.21,-245.55 892.88,-252.42"/>
</a>
</g>
</g>
</g>
</svg>

<g id="navigator" transform="translate(0 0)" fill="#404254">
  <rect fill="#f2f5e9" fill-opacity="0.5" stroke="#606060" stroke-width=".5" x="0" y="0" width="60" height="60"/>
  <use id="zoomplus" xlink:href="#zoomPlus" x="17" y="9" onmousedown="handleZoom(evt,'in')"/>
  <use id="zoomminus" xlink:href="#zoomMin" x="42" y="9" onmousedown="handleZoom(evt,'out')"/>
  <use id="reset" xlink:href="#resetDef" x="30" y="36" onmousedown="handleReset()"/>
   <use id="arrowup" xlink:href="#arrowUp" x="0" y="0" onmousedown="handlePan(0,-1)"/>
  <use id="arrowright" xlink:href="#arrowRight" x="0" y="0" onmousedown="handlePan(1,0)"/>
  <use id="arrowdown" xlink:href="#arrowDown" x="0" y="0" onmousedown="handlePan(0,1)"/>
  <use id="arrowleft" xlink:href="#arrowLeft" x="0" y="0" onmousedown="handlePan(-1,0)"/>
</g>
<svg viewBox="0 0 15 15" width="100%" height="30px" preserveAspectRatio="xMaxYMin meet">
 <g id="arrow_out" transform="scale(0.3 0.3)">
  <a xlink:href="Logger_8hpp__dep__incl_org.svg" target="_base">
   <rect id="button" ry="5" rx="5" y="6" x="6" height="38" width="38"
        fill="#f2f5e9" fill-opacity="0.5" stroke="#606060" stroke-width="1.0"/>
   <path id="arrow"
     d="M 11.500037,31.436501 C 11.940474,20.09759 22.043105,11.32322 32.158766,21.979434 L 37.068811,17.246167 C 37.068811,17.246167 37.088388,32 37.088388,32 L 22.160133,31.978069 C 22.160133,31.978069 26.997745,27.140456 26.997745,27.140456 C 18.528582,18.264221 13.291696,25.230495 11.500037,31.436501 z"
     style="fill:#404040;"/>
  </a>
 </g>
</svg>

<style type='text/css'>
<![CDATA[
[data-mouse-over-selected='false'] { opacity: 0.7; }
[data-mouse-over-selected='true']  { opacity: 1.0; }
]]>
</style>
<script type="application/ecmascript"><![CDATA[
document.addEventListener('DOMContentLoaded', (event) => {
  highlightEdges();
  highlightAdjacentNodes();
});
]]></script>
</svg>
