<?xml version="1.0" encoding="UTF-8" standalone="no"?>
<!DOCTYPE svg PUBLIC "-//W3C//DTD SVG 1.1//EN"
 "http://www.w3.org/Graphics/SVG/1.1/DTD/svg11.dtd">
<!-- Generated by graphviz version 10.0.1 (20240210.2158)
 -->
<!-- Title: /Users/fola/Documents/ArkScript/Ark/include/Ark/Compiler Pages: 1 -->
<svg width="124pt" height="205pt"
 viewBox="0.00 0.00 124.00 205.00" xmlns="http://www.w3.org/2000/svg" xmlns:xlink="http://www.w3.org/1999/xlink">
<g id="graph0" class="graph" transform="scale(1 1) rotate(0) translate(4 201)">
<title>/Users/fola/Documents/ArkScript/Ark/include/Ark/Compiler</title>
<g id="clust1" class="cluster">
<title>clusterdir_a8b6c64285bf9ac60f50770eb2fc48b5</title>
<g id="a_clust1"><a xlink:href="dir_a8b6c64285bf9ac60f50770eb2fc48b5.html" target="_top" xlink:title="Ark">
<polygon fill="#edf0f7" stroke="#7f7f7f" stroke-dasharray="5,2" points="8,-8 8,-189 108,-189 108,-8 8,-8"/>
<text text-anchor="middle" x="58" y="-175.5" font-family="Helvetica,sans-Serif" font-size="10.00">Ark</text>
</a>
</g>
</g>
<g id="clust2" class="cluster">
<title>clusterdir_e4f19535f57335fb80a0267cec25bf70</title>
<g id="a_clust2"><a xlink:href="dir_e4f19535f57335fb80a0267cec25bf70.html" target="_top">
<polygon fill="#edf0f7" stroke="#404040" stroke-width="2" points="16,-16 16,-161.75 100,-161.75 100,-16 16,-16"/>
</a>
</g>
</g>
<!-- dir_e4f19535f57335fb80a0267cec25bf70 -->
<g id="node1" class="node">
<title>dir_e4f19535f57335fb80a0267cec25bf70</title>
<text text-anchor="middle" x="58" y="-140.25" font-family="Helvetica,sans-Serif" font-size="10.00">Compiler</text>
</g>
<!-- dir_100d7a05404dd55ce1a106aad5a3b28c -->
<g id="node2" class="node">
<title>dir_100d7a05404dd55ce1a106aad5a3b28c</title>
<g id="a_node2"><a xlink:href="dir_100d7a05404dd55ce1a106aad5a3b28c.html" target="_top" xlink:title="AST">
<polygon fill="#a2b4d6" stroke="#404040" points="72.75,-43.25 37.25,-43.25 37.25,-24 72.75,-24 72.75,-43.25"/>
<text text-anchor="middle" x="55" y="-29.75" font-family="Helvetica,sans-Serif" font-size="10.00">AST</text>
</a>
</g>
</g>
<!-- dir_e4f19535f57335fb80a0267cec25bf70&#45;&gt;dir_100d7a05404dd55ce1a106aad5a3b28c -->
<g id="edge1" class="edge">
<title>dir_e4f19535f57335fb80a0267cec25bf70&#45;&gt;dir_100d7a05404dd55ce1a106aad5a3b28c</title>
<path fill="none" stroke="#63b8ff" d="M52.11,-134.72C46.45,-126.1 38.29,-112.05 35,-98.5 31.27,-83.13 37.16,-66.04 43.5,-53.41"/>
<polygon fill="#63b8ff" stroke="#63b8ff" points="46.41,-55.38 48.21,-44.94 40.29,-51.98 46.41,-55.38"/>
<g id="a_edge1&#45;headlabel"><a xlink:href="dir_000007_000003.html" target="_top" xlink:title="14">
<text text-anchor="middle" x="47.88" y="-54.7" font-family="Helvetica,sans-Serif" font-size="10.00" fill="#63b8ff">14</text>
</a>
</g>
</g>
<!-- dir_54ed949f9e2ebe39c7d7ae9210877b49 -->
<g id="node3" class="node">
<title>dir_54ed949f9e2ebe39c7d7ae9210877b49</title>
<g id="a_node3"><a xlink:href="dir_54ed949f9e2ebe39c7d7ae9210877b49.html" target="_top" xlink:title="Macros">
<polygon fill="#a2b4d6" stroke="#404040" points="92.12,-98.5 43.88,-98.5 43.88,-79.25 92.12,-79.25 92.12,-98.5"/>
<text text-anchor="middle" x="68" y="-85" font-family="Helvetica,sans-Serif" font-size="10.00">Macros</text>
</a>
</g>
</g>
<!-- dir_e4f19535f57335fb80a0267cec25bf70&#45;&gt;dir_54ed949f9e2ebe39c7d7ae9210877b49 -->
<g id="edge2" class="edge">
<title>dir_e4f19535f57335fb80a0267cec25bf70&#45;&gt;dir_54ed949f9e2ebe39c7d7ae9210877b49</title>
<path fill="none" stroke="#63b8ff" d="M59.56,-134.8C60.82,-128.12 62.63,-118.46 64.26,-109.81"/>
<polygon fill="#63b8ff" stroke="#63b8ff" points="67.66,-110.63 66.07,-100.16 60.78,-109.34 67.66,-110.63"/>
<g id="a_edge2&#45;headlabel"><a xlink:href="dir_000007_000012.html" target="_top" xlink:title="1">
<text text-anchor="middle" x="70.07" y="-109.32" font-family="Helvetica,sans-Serif" font-size="10.00" fill="#63b8ff">1</text>
</a>
</g>
</g>
<!-- dir_54ed949f9e2ebe39c7d7ae9210877b49&#45;&gt;dir_100d7a05404dd55ce1a106aad5a3b28c -->
<g id="edge3" class="edge">
<title>dir_54ed949f9e2ebe39c7d7ae9210877b49&#45;&gt;dir_100d7a05404dd55ce1a106aad5a3b28c</title>
<path fill="none" stroke="#63b8ff" d="M65.85,-79.08C64.23,-72.42 61.92,-62.99 59.86,-54.53"/>
<polygon fill="#63b8ff" stroke="#63b8ff" points="63.32,-53.96 57.55,-45.08 56.52,-55.62 63.32,-53.96"/>
<g id="a_edge3&#45;headlabel"><a xlink:href="dir_000012_000003.html" target="_top" xlink:title="6">
<text text-anchor="middle" x="66.58" y="-51.44" font-family="Helvetica,sans-Serif" font-size="10.00" fill="#63b8ff">6</text>
</a>
</g>
</g>
</g>
</svg>
