<?xml version="1.0" encoding="UTF-8" standalone="no"?>
<!DOCTYPE svg PUBLIC "-//W3C//DTD SVG 1.1//EN"
 "http://www.w3.org/Graphics/SVG/1.1/DTD/svg11.dtd">
<!-- Generated by graphviz version 2.43.0 (0)
 -->
<!-- Title: /home/fola/code/Ark/include/Ark Pages: 1 -->
<svg width="190pt" height="255pt"
 viewBox="0.00 0.00 190.00 255.00" xmlns="http://www.w3.org/2000/svg" xmlns:xlink="http://www.w3.org/1999/xlink">
<g id="graph0" class="graph" transform="scale(1 1) rotate(0) translate(4 251)">
<title>/home/fola/code/Ark/include/Ark</title>
<polygon fill="white" stroke="transparent" points="-4,4 -4,-251 186,-251 186,4 -4,4"/>
<g id="clust1" class="cluster">
<title>clusterdir_d44c64559bbebec7f509842c48db8b23</title>
<g id="a_clust1"><a xlink:href="dir_d44c64559bbebec7f509842c48db8b23.html" target="_top" xlink:title="include">
<polygon fill="#ddddee" stroke="black" points="8,-8 8,-239 174,-239 174,-8 8,-8"/>
<text text-anchor="middle" x="91" y="-227" font-family="Helvetica,sans-Serif" font-size="10.00">include</text>
</a>
</g>
</g>
<g id="clust2" class="cluster">
<title>clusterdir_a8b6c64285bf9ac60f50770eb2fc48b5</title>
<g id="a_clust2"><a xlink:href="dir_a8b6c64285bf9ac60f50770eb2fc48b5.html" target="_top">
<polygon fill="#eeeeff" stroke="black" points="16,-16 16,-212 166,-212 166,-16 16,-16"/>
</a>
</g>
</g>
<!-- dir_a8b6c64285bf9ac60f50770eb2fc48b5 -->
<g id="node1" class="node">
<title>dir_a8b6c64285bf9ac60f50770eb2fc48b5</title>
<text text-anchor="middle" x="127" y="-183.5" font-family="Helvetica,sans-Serif" font-size="10.00">Ark</text>
</g>
<!-- dir_e4f19535f57335fb80a0267cec25bf70 -->
<g id="node3" class="node">
<title>dir_e4f19535f57335fb80a0267cec25bf70</title>
<g id="a_node3"><a xlink:href="dir_e4f19535f57335fb80a0267cec25bf70.html" target="_top" xlink:title="Compiler">
<polygon fill="white" stroke="red" points="85.5,-60 24.5,-60 24.5,-24 85.5,-24 85.5,-60"/>
<text text-anchor="middle" x="55" y="-39.5" font-family="Helvetica,sans-Serif" font-size="10.00">Compiler</text>
</a>
</g>
</g>
<!-- dir_a8b6c64285bf9ac60f50770eb2fc48b5&#45;&gt;dir_e4f19535f57335fb80a0267cec25bf70 -->
<g id="edge6" class="edge">
<title>dir_a8b6c64285bf9ac60f50770eb2fc48b5&#45;&gt;dir_e4f19535f57335fb80a0267cec25bf70</title>
<path fill="none" stroke="black" d="M114.03,-167.92C106.71,-157.81 97.71,-144.56 91,-132 80.25,-111.87 70.7,-87.82 64.15,-69.8"/>
<polygon fill="black" stroke="black" points="67.39,-68.46 60.73,-60.21 60.79,-70.81 67.39,-68.46"/>
<g id="a_edge6&#45;headlabel"><a xlink:href="dir_000001_000003.html" target="_top" xlink:title="13">
<text text-anchor="middle" x="71.27" y="-68.4" font-family="Helvetica,sans-Serif" font-size="10.00">13</text>
</a>
</g>
</g>
<!-- dir_222307dbf92126e8e24c7a501f533901 -->
<g id="node5" class="node">
<title>dir_222307dbf92126e8e24c7a501f533901</title>
<g id="a_node5"><a xlink:href="dir_222307dbf92126e8e24c7a501f533901.html" target="_top" xlink:title="VM">
<polygon fill="white" stroke="red" points="154,-132 100,-132 100,-96 154,-96 154,-132"/>
<text text-anchor="middle" x="127" y="-111.5" font-family="Helvetica,sans-Serif" font-size="10.00">VM</text>
</a>
</g>
</g>
<!-- dir_a8b6c64285bf9ac60f50770eb2fc48b5&#45;&gt;dir_222307dbf92126e8e24c7a501f533901 -->
<g id="edge5" class="edge">
<title>dir_a8b6c64285bf9ac60f50770eb2fc48b5&#45;&gt;dir_222307dbf92126e8e24c7a501f533901</title>
<path fill="none" stroke="black" d="M127,-167.7C127,-159.98 127,-150.71 127,-142.11"/>
<polygon fill="black" stroke="black" points="130.5,-142.1 127,-132.1 123.5,-142.1 130.5,-142.1"/>
<g id="a_edge5&#45;headlabel"><a xlink:href="dir_000001_000009.html" target="_top" xlink:title="8">
<text text-anchor="middle" x="133.34" y="-143.2" font-family="Helvetica,sans-Serif" font-size="10.00">8</text>
</a>
</g>
</g>
<!-- dir_e4e3cacaa047e3554112dad79d53bc60 -->
<g id="node2" class="node">
<title>dir_e4e3cacaa047e3554112dad79d53bc60</title>
<g id="a_node2"><a xlink:href="dir_e4e3cacaa047e3554112dad79d53bc60.html" target="_top" xlink:title="Builtins">
<polygon fill="white" stroke="black" points="158,-60 104,-60 104,-24 158,-24 158,-60"/>
<text text-anchor="middle" x="131" y="-39.5" font-family="Helvetica,sans-Serif" font-size="10.00">Builtins</text>
</a>
</g>
</g>
<!-- dir_e4e3cacaa047e3554112dad79d53bc60&#45;&gt;dir_222307dbf92126e8e24c7a501f533901 -->
<g id="edge7" class="edge">
<title>dir_e4e3cacaa047e3554112dad79d53bc60&#45;&gt;dir_222307dbf92126e8e24c7a501f533901</title>
<path fill="none" stroke="black" d="M135.92,-60.1C136.28,-67.79 135.99,-77.05 135.17,-85.67"/>
<polygon fill="black" stroke="black" points="131.68,-85.34 133.9,-95.7 138.62,-86.21 131.68,-85.34"/>
<g id="a_edge7&#45;headlabel"><a xlink:href="dir_000002_000009.html" target="_top" xlink:title="1">
<text text-anchor="middle" x="129.31" y="-78.92" font-family="Helvetica,sans-Serif" font-size="10.00">1</text>
</a>
</g>
</g>
<!-- dir_fcfe4316a8cc31a1cf70428f9403b478 -->
<g id="node4" class="node">
<title>dir_fcfe4316a8cc31a1cf70428f9403b478</title>
<g id="a_node4"><a xlink:href="dir_fcfe4316a8cc31a1cf70428f9403b478.html" target="_top" xlink:title="REPL">
<polygon fill="white" stroke="red" points="82,-204 28,-204 28,-168 82,-168 82,-204"/>
<text text-anchor="middle" x="55" y="-183.5" font-family="Helvetica,sans-Serif" font-size="10.00">REPL</text>
</a>
</g>
</g>
<!-- dir_fcfe4316a8cc31a1cf70428f9403b478&#45;&gt;dir_e4f19535f57335fb80a0267cec25bf70 -->
<g id="edge2" class="edge">
<title>dir_fcfe4316a8cc31a1cf70428f9403b478&#45;&gt;dir_e4f19535f57335fb80a0267cec25bf70</title>
<path fill="none" stroke="black" d="M55,-167.87C55,-143.67 55,-99.21 55,-70.39"/>
<polygon fill="black" stroke="black" points="58.5,-70.19 55,-60.19 51.5,-70.19 58.5,-70.19"/>
<g id="a_edge2&#45;headlabel"><a xlink:href="dir_000007_000003.html" target="_top" xlink:title="1">
<text text-anchor="middle" x="61.34" y="-71.28" font-family="Helvetica,sans-Serif" font-size="10.00">1</text>
</a>
</g>
</g>
<!-- dir_fcfe4316a8cc31a1cf70428f9403b478&#45;&gt;dir_222307dbf92126e8e24c7a501f533901 -->
<g id="edge1" class="edge">
<title>dir_fcfe4316a8cc31a1cf70428f9403b478&#45;&gt;dir_222307dbf92126e8e24c7a501f533901</title>
<path fill="none" stroke="black" d="M72.8,-167.7C81.6,-159.14 92.38,-148.66 102,-139.3"/>
<polygon fill="black" stroke="black" points="104.68,-141.58 109.41,-132.1 99.8,-136.57 104.68,-141.58"/>
<g id="a_edge1&#45;headlabel"><a xlink:href="dir_000007_000009.html" target="_top" xlink:title="2">
<text text-anchor="middle" x="104.08" y="-143.63" font-family="Helvetica,sans-Serif" font-size="10.00">2</text>
</a>
</g>
</g>
<!-- dir_222307dbf92126e8e24c7a501f533901&#45;&gt;dir_e4e3cacaa047e3554112dad79d53bc60 -->
<g id="edge3" class="edge">
<title>dir_222307dbf92126e8e24c7a501f533901&#45;&gt;dir_e4e3cacaa047e3554112dad79d53bc60</title>
<path fill="none" stroke="black" d="M122.07,-95.7C121.72,-87.98 122.02,-78.71 122.86,-70.11"/>
<polygon fill="black" stroke="black" points="126.34,-70.47 124.13,-60.1 119.39,-69.58 126.34,-70.47"/>
<g id="a_edge3&#45;headlabel"><a xlink:href="dir_000009_000002.html" target="_top" xlink:title="1">
<text text-anchor="middle" x="128.7" y="-71.89" font-family="Helvetica,sans-Serif" font-size="10.00">1</text>
</a>
</g>
</g>
<!-- dir_222307dbf92126e8e24c7a501f533901&#45;&gt;dir_e4f19535f57335fb80a0267cec25bf70 -->
<g id="edge4" class="edge">
<title>dir_222307dbf92126e8e24c7a501f533901&#45;&gt;dir_e4f19535f57335fb80a0267cec25bf70</title>
<path fill="none" stroke="black" d="M109.2,-95.7C100.4,-87.14 89.62,-76.66 80,-67.3"/>
<polygon fill="black" stroke="black" points="82.2,-64.57 72.59,-60.1 77.32,-69.58 82.2,-64.57"/>
<g id="a_edge4&#45;headlabel"><a xlink:href="dir_000009_000003.html" target="_top" xlink:title="2">
<text text-anchor="middle" x="86.76" y="-62.54" font-family="Helvetica,sans-Serif" font-size="10.00">2</text>
</a>
</g>
</g>
</g>
</svg>
