<?xml version="1.0" encoding="UTF-8" standalone="no"?>
<!DOCTYPE svg PUBLIC "-//W3C//DTD SVG 1.1//EN"
 "http://www.w3.org/Graphics/SVG/1.1/DTD/svg11.dtd">
<!-- Generated by graphviz version 7.1.0 (20230121.1956)
 -->
<!-- Title: /Users/fola/Documents/ArkScript/Ark/include/Ark Pages: 1 -->
<svg width="180pt" height="204pt"
 viewBox="0.00 0.00 180.00 204.00" xmlns="http://www.w3.org/2000/svg" xmlns:xlink="http://www.w3.org/1999/xlink">
<g id="graph0" class="graph" transform="scale(1 1) rotate(0) translate(4 200)">
<title>/Users/fola/Documents/ArkScript/Ark/include/Ark</title>
<g id="clust1" class="cluster">
<title>clusterdir_d44c64559bbebec7f509842c48db8b23</title>
<g id="a_clust1"><a xlink:href="dir_d44c64559bbebec7f509842c48db8b23.html" target="_top" xlink:title="include">
<polygon fill="#edf0f7" stroke="#404040" stroke-dasharray="5,2" points="8,-8 8,-188 164,-188 164,-8 8,-8"/>
<text text-anchor="middle" x="86" y="-176" font-family="Helvetica,sans-Serif" font-size="10.00">include</text>
</a>
</g>
</g>
<g id="clust2" class="cluster">
<title>clusterdir_a8b6c64285bf9ac60f50770eb2fc48b5</title>
<g id="a_clust2"><a xlink:href="dir_a8b6c64285bf9ac60f50770eb2fc48b5.html" target="_top">
<polygon fill="#edf0f7" stroke="#404040" stroke-width="2" points="16,-16 16,-161 156,-161 156,-16 16,-16"/>
</a>
</g>
</g>
<!-- dir_a8b6c64285bf9ac60f50770eb2fc48b5 -->
<g id="node1" class="node">
<title>dir_a8b6c64285bf9ac60f50770eb2fc48b5</title>
<text text-anchor="middle" x="108" y="-141" font-family="Helvetica,sans-Serif" font-size="10.00">Ark</text>
</g>
<!-- dir_e4f19535f57335fb80a0267cec25bf70 -->
<g id="node3" class="node">
<title>dir_e4f19535f57335fb80a0267cec25bf70</title>
<g id="a_node3"><a xlink:href="dir_e4f19535f57335fb80a0267cec25bf70.html" target="_top" xlink:title="Compiler">
<polygon fill="#a2b4d6" stroke="#404040" points="80,-43 24,-43 24,-24 80,-24 80,-43"/>
<text text-anchor="middle" x="52" y="-31" font-family="Helvetica,sans-Serif" font-size="10.00">Compiler</text>
</a>
</g>
</g>
<!-- dir_a8b6c64285bf9ac60f50770eb2fc48b5&#45;&gt;dir_e4f19535f57335fb80a0267cec25bf70 -->
<g id="edge2" class="edge">
<title>dir_a8b6c64285bf9ac60f50770eb2fc48b5&#45;&gt;dir_e4f19535f57335fb80a0267cec25bf70</title>
<path fill="none" stroke="#63b8ff" d="M103.06,-134.05C97.91,-125.16 89.67,-110.71 83,-98 75.24,-83.19 66.95,-66.16 60.9,-53.46"/>
<polygon fill="#63b8ff" stroke="#63b8ff" points="64.14,-52.12 56.7,-44.58 57.81,-55.11 64.14,-52.12"/>
<g id="a_edge2&#45;headlabel"><a xlink:href="dir_000000_000007.html" target="_top" xlink:title="17">
<text text-anchor="middle" x="67.6" y="-50.29" font-family="Helvetica,sans-Serif" font-size="10.00" fill="#63b8ff">17</text>
</a>
</g>
</g>
<!-- dir_222307dbf92126e8e24c7a501f533901 -->
<g id="node5" class="node">
<title>dir_222307dbf92126e8e24c7a501f533901</title>
<g id="a_node5"><a xlink:href="dir_222307dbf92126e8e24c7a501f533901.html" target="_top" xlink:title="VM">
<polygon fill="#a2b4d6" stroke="#404040" points="124,-98 92,-98 92,-79 124,-79 124,-98"/>
<text text-anchor="middle" x="108" y="-86" font-family="Helvetica,sans-Serif" font-size="10.00">VM</text>
</a>
</g>
</g>
<!-- dir_a8b6c64285bf9ac60f50770eb2fc48b5&#45;&gt;dir_222307dbf92126e8e24c7a501f533901 -->
<g id="edge1" class="edge">
<title>dir_a8b6c64285bf9ac60f50770eb2fc48b5&#45;&gt;dir_222307dbf92126e8e24c7a501f533901</title>
<path fill="none" stroke="#63b8ff" d="M108,-134.22C108,-127.65 108,-118.18 108,-109.64"/>
<polygon fill="#63b8ff" stroke="#63b8ff" points="111.5,-109.77 108,-99.77 104.5,-109.77 111.5,-109.77"/>
<g id="a_edge1&#45;headlabel"><a xlink:href="dir_000000_000038.html" target="_top" xlink:title="9">
<text text-anchor="middle" x="114.34" y="-109.35" font-family="Helvetica,sans-Serif" font-size="10.00" fill="#63b8ff">9</text>
</a>
</g>
</g>
<!-- dir_e4e3cacaa047e3554112dad79d53bc60 -->
<g id="node2" class="node">
<title>dir_e4e3cacaa047e3554112dad79d53bc60</title>
<g id="a_node2"><a xlink:href="dir_e4e3cacaa047e3554112dad79d53bc60.html" target="_top" xlink:title="Builtins">
<polygon fill="#a2b4d6" stroke="#404040" points="147.5,-43 98.5,-43 98.5,-24 147.5,-24 147.5,-43"/>
<text text-anchor="middle" x="123" y="-31" font-family="Helvetica,sans-Serif" font-size="10.00">Builtins</text>
</a>
</g>
</g>
<!-- dir_e4e3cacaa047e3554112dad79d53bc60&#45;&gt;dir_222307dbf92126e8e24c7a501f533901 -->
<g id="edge3" class="edge">
<title>dir_e4e3cacaa047e3554112dad79d53bc60&#45;&gt;dir_222307dbf92126e8e24c7a501f533901</title>
<path fill="none" stroke="#63b8ff" d="M125.68,-43.44C125.19,-50.21 122.92,-59.74 119.98,-68.22"/>
<polygon fill="#63b8ff" stroke="#63b8ff" points="116.79,-66.77 116.22,-77.35 123.26,-69.43 116.79,-66.77"/>
<g id="a_edge3&#45;headlabel"><a xlink:href="dir_000006_000038.html" target="_top" xlink:title="1">
<text text-anchor="middle" x="114.96" y="-61.26" font-family="Helvetica,sans-Serif" font-size="10.00" fill="#63b8ff">1</text>
</a>
</g>
</g>
<!-- dir_fcfe4316a8cc31a1cf70428f9403b478 -->
<g id="node4" class="node">
<title>dir_fcfe4316a8cc31a1cf70428f9403b478</title>
<g id="a_node4"><a xlink:href="dir_fcfe4316a8cc31a1cf70428f9403b478.html" target="_top" xlink:title="REPL">
<polygon fill="#a2b4d6" stroke="#404040" points="73.5,-153 30.5,-153 30.5,-134 73.5,-134 73.5,-153"/>
<text text-anchor="middle" x="52" y="-141" font-family="Helvetica,sans-Serif" font-size="10.00">REPL</text>
</a>
</g>
</g>
<!-- dir_fcfe4316a8cc31a1cf70428f9403b478&#45;&gt;dir_e4f19535f57335fb80a0267cec25bf70 -->
<g id="edge5" class="edge">
<title>dir_fcfe4316a8cc31a1cf70428f9403b478&#45;&gt;dir_e4f19535f57335fb80a0267cec25bf70</title>
<path fill="none" stroke="#63b8ff" d="M52,-133.66C52,-116.57 52,-78.61 52,-54.92"/>
<polygon fill="#63b8ff" stroke="#63b8ff" points="55.5,-54.97 52,-44.97 48.5,-54.97 55.5,-54.97"/>
<g id="a_edge5&#45;headlabel"><a xlink:href="dir_000031_000007.html" target="_top" xlink:title="1">
<text text-anchor="middle" x="58.34" y="-54.55" font-family="Helvetica,sans-Serif" font-size="10.00" fill="#63b8ff">1</text>
</a>
</g>
</g>
<!-- dir_fcfe4316a8cc31a1cf70428f9403b478&#45;&gt;dir_222307dbf92126e8e24c7a501f533901 -->
<g id="edge4" class="edge">
<title>dir_fcfe4316a8cc31a1cf70428f9403b478&#45;&gt;dir_222307dbf92126e8e24c7a501f533901</title>
<path fill="none" stroke="#63b8ff" d="M61.5,-133.51C69.43,-126 80.95,-115.1 90.54,-106.03"/>
<polygon fill="#63b8ff" stroke="#63b8ff" points="92.68,-108.81 97.54,-99.4 87.87,-103.73 92.68,-108.81"/>
<g id="a_edge4&#45;headlabel"><a xlink:href="dir_000031_000038.html" target="_top" xlink:title="2">
<text text-anchor="middle" x="93.12" y="-109.81" font-family="Helvetica,sans-Serif" font-size="10.00" fill="#63b8ff">2</text>
</a>
</g>
</g>
<!-- dir_222307dbf92126e8e24c7a501f533901&#45;&gt;dir_e4e3cacaa047e3554112dad79d53bc60 -->
<g id="edge6" class="edge">
<title>dir_222307dbf92126e8e24c7a501f533901&#45;&gt;dir_e4e3cacaa047e3554112dad79d53bc60</title>
<path fill="none" stroke="#63b8ff" d="M105.31,-78.75C105.77,-72.04 108.01,-62.52 110.94,-54.02"/>
<polygon fill="#63b8ff" stroke="#63b8ff" points="114.15,-55.42 114.69,-44.84 107.67,-52.78 114.15,-55.42"/>
<g id="a_edge6&#45;headlabel"><a xlink:href="dir_000038_000006.html" target="_top" xlink:title="1">
<text text-anchor="middle" x="115.99" y="-55.92" font-family="Helvetica,sans-Serif" font-size="10.00" fill="#63b8ff">1</text>
</a>
</g>
</g>
<!-- dir_222307dbf92126e8e24c7a501f533901&#45;&gt;dir_e4f19535f57335fb80a0267cec25bf70 -->
<g id="edge7" class="edge">
<title>dir_222307dbf92126e8e24c7a501f533901&#45;&gt;dir_e4f19535f57335fb80a0267cec25bf70</title>
<path fill="none" stroke="#63b8ff" d="M98.5,-78.51C90.57,-71 79.05,-60.1 69.46,-51.03"/>
<polygon fill="#63b8ff" stroke="#63b8ff" points="72.13,-48.73 62.46,-44.4 67.32,-53.81 72.13,-48.73"/>
<g id="a_edge7&#45;headlabel"><a xlink:href="dir_000038_000007.html" target="_top" xlink:title="2">
<text text-anchor="middle" x="75.59" y="-45.6" font-family="Helvetica,sans-Serif" font-size="10.00" fill="#63b8ff">2</text>
</a>
</g>
</g>
</g>
</svg>
