<?xml version="1.0" encoding="UTF-8" standalone="no"?>
<!DOCTYPE svg PUBLIC "-//W3C//DTD SVG 1.1//EN"
 "http://www.w3.org/Graphics/SVG/1.1/DTD/svg11.dtd">
<!-- Generated by graphviz version 7.1.0 (20230121.1956)
 -->
<!-- Title: Graphical Class Hierarchy Pages: 1 -->
<svg width="337pt" height="113pt"
 viewBox="0.00 0.00 337.00 112.50" xmlns="http://www.w3.org/2000/svg" xmlns:xlink="http://www.w3.org/1999/xlink">
<g id="graph0" class="graph" transform="scale(1 1) rotate(0) translate(4 108.5)">
<title>Graphical Class Hierarchy</title>
<!-- Node0 -->
<g id="node1" class="node">
<title>Node0</title>
<g id="a_node1"><a xlink:href="d5/d8f/classArk_1_1internal_1_1MacroExecutor.html" target="_top" xlink:title="A class that applies macros in a Node.">
<polygon fill="white" stroke="#666666" points="141,-56 0,-56 0,-37 141,-37 141,-56"/>
<text text-anchor="middle" x="70.5" y="-44" font-family="Helvetica,sans-Serif" font-size="10.00">Ark::internal::MacroExecutor</text>
</a>
</g>
</g>
<!-- Node1 -->
<g id="node2" class="node">
<title>Node1</title>
<g id="a_node2"><a xlink:href="d1/dd3/classArk_1_1internal_1_1ConditionalExecutor.html" target="_top" xlink:title="Handles Conditional macros.">
<polygon fill="white" stroke="#666666" points="315,-104.5 191,-104.5 191,-74.5 315,-74.5 315,-104.5"/>
<text text-anchor="start" x="199" y="-92.5" font-family="Helvetica,sans-Serif" font-size="10.00">Ark::internal::Conditional</text>
<text text-anchor="middle" x="253" y="-81.5" font-family="Helvetica,sans-Serif" font-size="10.00">Executor</text>
</a>
</g>
</g>
<!-- Node0&#45;&gt;Node1 -->
<g id="edge1" class="edge">
<title>Node0&#45;&gt;Node1</title>
<path fill="none" stroke="#63b8ff" d="M124.5,-59.13C145.2,-64.06 169.07,-69.74 190.51,-74.85"/>
<polygon fill="#63b8ff" stroke="#63b8ff" points="125.38,-55.74 114.84,-56.82 123.75,-62.55 125.38,-55.74"/>
</g>
<!-- Node2 -->
<g id="node3" class="node">
<title>Node2</title>
<g id="a_node3"><a xlink:href="dc/d2c/classArk_1_1internal_1_1FunctionExecutor.html" target="_top" xlink:title="Handles function macros.">
<polygon fill="white" stroke="#666666" points="329,-56 177,-56 177,-37 329,-37 329,-56"/>
<text text-anchor="middle" x="253" y="-44" font-family="Helvetica,sans-Serif" font-size="10.00">Ark::internal::FunctionExecutor</text>
</a>
</g>
</g>
<!-- Node0&#45;&gt;Node2 -->
<g id="edge2" class="edge">
<title>Node0&#45;&gt;Node2</title>
<path fill="none" stroke="#63b8ff" d="M152.56,-46.5C160.6,-46.5 168.74,-46.5 176.71,-46.5"/>
<polygon fill="#63b8ff" stroke="#63b8ff" points="152.8,-43 142.8,-46.5 152.8,-50 152.8,-43"/>
</g>
<!-- Node3 -->
<g id="node4" class="node">
<title>Node3</title>
<g id="a_node4"><a xlink:href="d5/dae/classArk_1_1internal_1_1SymbolExecutor.html" target="_top" xlink:title="Handles Symbol macros.">
<polygon fill="white" stroke="#666666" points="326.5,-19 179.5,-19 179.5,0 326.5,0 326.5,-19"/>
<text text-anchor="middle" x="253" y="-7" font-family="Helvetica,sans-Serif" font-size="10.00">Ark::internal::SymbolExecutor</text>
</a>
</g>
</g>
<!-- Node0&#45;&gt;Node3 -->
<g id="edge3" class="edge">
<title>Node0&#45;&gt;Node3</title>
<path fill="none" stroke="#63b8ff" d="M131.11,-34.28C154.6,-29.47 181.22,-24.01 203.5,-19.44"/>
<polygon fill="#63b8ff" stroke="#63b8ff" points="130.45,-30.84 121.35,-36.28 131.85,-37.7 130.45,-30.84"/>
</g>
</g>
</svg>
