<?xml version="1.0" encoding="UTF-8" standalone="no"?>
<!DOCTYPE svg PUBLIC "-//W3C//DTD SVG 1.1//EN"
 "http://www.w3.org/Graphics/SVG/1.1/DTD/svg11.dtd">
<!-- Generated by graphviz version 10.0.1 (20240210.2158)
 -->
<!-- Title: /Users/fola/Documents/ArkScript/Ark/include/Ark/VM/Value.hpp Pages: 1 -->
<svg width="585pt" height="160pt"
 viewBox="0.00 0.00 585.38 160.25" xmlns="http://www.w3.org/2000/svg" xmlns:xlink="http://www.w3.org/1999/xlink">
<g id="graph0" class="graph" transform="scale(1 1) rotate(0) translate(4 156.25)">
<title>/Users/fola/Documents/ArkScript/Ark/include/Ark/VM/Value.hpp</title>
<!-- Node1 -->
<g id="node1" class="node">
<title>Node1</title>
<g id="a_node1"><a xlink:title=" ">
<polygon fill="#999999" stroke="#666666" points="385.12,-152.25 267.88,-152.25 267.88,-110.5 385.12,-110.5 385.12,-152.25"/>
<text text-anchor="start" x="275.88" y="-138.75" font-family="Helvetica,sans-Serif" font-size="10.00">/Users/fola/Documents</text>
<text text-anchor="start" x="275.88" y="-127.5" font-family="Helvetica,sans-Serif" font-size="10.00">/ArkScript/Ark/include</text>
<text text-anchor="middle" x="326.5" y="-116.25" font-family="Helvetica,sans-Serif" font-size="10.00">/Ark/VM/Value.hpp</text>
</a>
</g>
</g>
<!-- Node2 -->
<g id="node2" class="node">
<title>Node2</title>
<g id="a_node2"><a xlink:title=" ">
<polygon fill="#e0e0e0" stroke="#999999" points="43,-19.25 0,-19.25 0,0 43,0 43,-19.25"/>
<text text-anchor="middle" x="21.5" y="-5.75" font-family="Helvetica,sans-Serif" font-size="10.00">vector</text>
</a>
</g>
</g>
<!-- Node1&#45;&gt;Node2 -->
<g id="edge1" class="edge">
<title>Node1&#45;&gt;Node2</title>
<path fill="none" stroke="#63b8ff" d="M267.64,-128.74C184.98,-125.06 40.94,-113.14 8.5,-74.5 -1.95,-62.05 3.42,-43.47 10.14,-29.55"/>
<polygon fill="#63b8ff" stroke="#63b8ff" points="13.13,-31.38 14.83,-20.93 6.98,-28.04 13.13,-31.38"/>
</g>
<!-- Node3 -->
<g id="node3" class="node">
<title>Node3</title>
<g id="a_node3"><a xlink:title=" ">
<polygon fill="#e0e0e0" stroke="#999999" points="447.12,-74.5 401.88,-74.5 401.88,-55.25 447.12,-55.25 447.12,-74.5"/>
<text text-anchor="middle" x="424.5" y="-61" font-family="Helvetica,sans-Serif" font-size="10.00">variant</text>
</a>
</g>
</g>
<!-- Node1&#45;&gt;Node3 -->
<g id="edge2" class="edge">
<title>Node1&#45;&gt;Node3</title>
<path fill="none" stroke="#63b8ff" d="M357.24,-110.14C371.55,-100.72 388.29,-89.71 401.49,-81.02"/>
<polygon fill="#63b8ff" stroke="#63b8ff" points="403.1,-84.15 409.53,-75.73 399.25,-78.3 403.1,-84.15"/>
</g>
<!-- Node4 -->
<g id="node4" class="node">
<title>Node4</title>
<g id="a_node4"><a xlink:title=" ">
<polygon fill="#e0e0e0" stroke="#999999" points="208.5,-19.25 168.5,-19.25 168.5,0 208.5,0 208.5,-19.25"/>
<text text-anchor="middle" x="188.5" y="-5.75" font-family="Helvetica,sans-Serif" font-size="10.00">string</text>
</a>
</g>
</g>
<!-- Node1&#45;&gt;Node4 -->
<g id="edge3" class="edge">
<title>Node1&#45;&gt;Node4</title>
<path fill="none" stroke="#63b8ff" d="M267.44,-115.35C244.81,-106.82 220.58,-93.85 204.5,-74.5 194.32,-62.25 190.48,-44.41 189.1,-30.7"/>
<polygon fill="#63b8ff" stroke="#63b8ff" points="192.61,-30.81 188.5,-21.05 185.62,-31.25 192.61,-30.81"/>
</g>
<!-- Node5 -->
<g id="node5" class="node">
<title>Node5</title>
<g id="a_node5"><a xlink:title=" ">
<polygon fill="#e0e0e0" stroke="#999999" points="521.38,-74.5 465.62,-74.5 465.62,-55.25 521.38,-55.25 521.38,-74.5"/>
<text text-anchor="middle" x="493.5" y="-61" font-family="Helvetica,sans-Serif" font-size="10.00">cinttypes</text>
</a>
</g>
</g>
<!-- Node1&#45;&gt;Node5 -->
<g id="edge4" class="edge">
<title>Node1&#45;&gt;Node5</title>
<path fill="none" stroke="#63b8ff" d="M378.88,-110.14C405.19,-99.98 436.3,-87.97 459.47,-79.02"/>
<polygon fill="#63b8ff" stroke="#63b8ff" points="460.67,-82.31 468.74,-75.44 458.15,-75.78 460.67,-82.31"/>
</g>
<!-- Node6 -->
<g id="node6" class="node">
<title>Node6</title>
<g id="a_node6"><a xlink:title=" ">
<polygon fill="#e0e0e0" stroke="#999999" points="577.38,-74.5 539.62,-74.5 539.62,-55.25 577.38,-55.25 577.38,-74.5"/>
<text text-anchor="middle" x="558.5" y="-61" font-family="Helvetica,sans-Serif" font-size="10.00">array</text>
</a>
</g>
</g>
<!-- Node1&#45;&gt;Node6 -->
<g id="edge5" class="edge">
<title>Node1&#45;&gt;Node6</title>
<path fill="none" stroke="#63b8ff" d="M385.56,-114.73C423.81,-104.47 474.96,-90.53 528.51,-75.02"/>
<polygon fill="#63b8ff" stroke="#63b8ff" points="529.17,-78.47 537.79,-72.32 527.21,-71.75 529.17,-78.47"/>
</g>
<!-- Node7 -->
<g id="node7" class="node">
<title>Node7</title>
<g id="a_node7"><a xlink:href="../../dc/dd5/Closure_8hpp.html" target="_top" xlink:title="Subtype of the value type, handling closures.">
<polygon fill="white" stroke="#666666" points="345.25,-74.5 213.75,-74.5 213.75,-55.25 345.25,-55.25 345.25,-74.5"/>
<text text-anchor="middle" x="279.5" y="-61" font-family="Helvetica,sans-Serif" font-size="10.00">Ark/VM/Value/Closure.hpp</text>
</a>
</g>
</g>
<!-- Node1&#45;&gt;Node7 -->
<g id="edge6" class="edge">
<title>Node1&#45;&gt;Node7</title>
<path fill="none" stroke="#63b8ff" d="M311.89,-110.32C305.76,-101.91 298.68,-92.2 292.71,-84"/>
<polygon fill="#63b8ff" stroke="#63b8ff" points="295.72,-82.19 287,-76.17 290.06,-86.31 295.72,-82.19"/>
</g>
<!-- Node10 -->
<g id="node10" class="node">
<title>Node10</title>
<g id="a_node10"><a xlink:href="../../d5/d40/Platform_8hpp.html" target="_top" xlink:title="ArkScript configuration macros.">
<polygon fill="white" stroke="#666666" points="321.25,-19.25 231.75,-19.25 231.75,0 321.25,0 321.25,-19.25"/>
<text text-anchor="middle" x="276.5" y="-5.75" font-family="Helvetica,sans-Serif" font-size="10.00">Ark/Platform.hpp</text>
</a>
</g>
</g>
<!-- Node1&#45;&gt;Node10 -->
<g id="edge15" class="edge">
<title>Node1&#45;&gt;Node10</title>
<path fill="none" stroke="#63b8ff" d="M343.44,-110.1C354.3,-94.49 364.63,-72.71 354.5,-55.25 346.31,-41.13 331.79,-31.1 317.48,-24.17"/>
<polygon fill="#63b8ff" stroke="#63b8ff" points="319.14,-21.08 308.58,-20.27 316.33,-27.49 319.14,-21.08"/>
</g>
<!-- Node11 -->
<g id="node11" class="node">
<title>Node11</title>
<g id="a_node11"><a xlink:href="../../dc/d3d/UserType_8hpp.html" target="_top" xlink:title="Subtype of the value, capable of handling any C++ type.">
<polygon fill="white" stroke="#666666" points="157.38,-74.5 17.62,-74.5 17.62,-55.25 157.38,-55.25 157.38,-74.5"/>
<text text-anchor="middle" x="87.5" y="-61" font-family="Helvetica,sans-Serif" font-size="10.00">Ark/VM/Value/UserType.hpp</text>
</a>
</g>
</g>
<!-- Node1&#45;&gt;Node11 -->
<g id="edge11" class="edge">
<title>Node1&#45;&gt;Node11</title>
<path fill="none" stroke="#63b8ff" d="M267.42,-114.43C225.53,-103.12 170.18,-88.19 132,-77.88"/>
<polygon fill="#63b8ff" stroke="#63b8ff" points="133.25,-74.6 122.68,-75.37 131.42,-81.35 133.25,-74.6"/>
</g>
<!-- Node7&#45;&gt;Node4 -->
<g id="edge9" class="edge">
<title>Node7&#45;&gt;Node4</title>
<path fill="none" stroke="#63b8ff" d="M264.06,-54.84C250.34,-46.81 230,-34.91 213.88,-25.48"/>
<polygon fill="#63b8ff" stroke="#63b8ff" points="215.72,-22.5 205.32,-20.47 212.18,-28.54 215.72,-22.5"/>
</g>
<!-- Node8 -->
<g id="node8" class="node">
<title>Node8</title>
<g id="a_node8"><a xlink:title=" ">
<polygon fill="#e0e0e0" stroke="#999999" points="390.12,-19.25 338.88,-19.25 338.88,0 390.12,0 390.12,-19.25"/>
<text text-anchor="middle" x="364.5" y="-5.75" font-family="Helvetica,sans-Serif" font-size="10.00">memory</text>
</a>
</g>
</g>
<!-- Node7&#45;&gt;Node8 -->
<g id="edge7" class="edge">
<title>Node7&#45;&gt;Node8</title>
<path fill="none" stroke="#63b8ff" d="M293.92,-54.84C306.62,-46.89 325.37,-35.14 340.36,-25.75"/>
<polygon fill="#63b8ff" stroke="#63b8ff" points="342.11,-28.78 348.73,-20.51 338.4,-22.85 342.11,-28.78"/>
</g>
<!-- Node9 -->
<g id="node9" class="node">
<title>Node9</title>
<g id="a_node9"><a xlink:title=" ">
<polygon fill="#e0e0e0" stroke="#999999" points="130.25,-19.25 76.75,-19.25 76.75,0 130.25,0 130.25,-19.25"/>
<text text-anchor="middle" x="103.5" y="-5.75" font-family="Helvetica,sans-Serif" font-size="10.00">iostream</text>
</a>
</g>
</g>
<!-- Node7&#45;&gt;Node9 -->
<g id="edge8" class="edge">
<title>Node7&#45;&gt;Node9</title>
<path fill="none" stroke="#63b8ff" d="M249.64,-54.84C219.82,-45.82 173.86,-31.91 141.45,-22.11"/>
<polygon fill="#63b8ff" stroke="#63b8ff" points="142.64,-18.81 132.06,-19.27 140.61,-25.51 142.64,-18.81"/>
</g>
<!-- Node7&#45;&gt;Node10 -->
<g id="edge10" class="edge">
<title>Node7&#45;&gt;Node10</title>
<path fill="none" stroke="#63b8ff" d="M279,-55.08C278.63,-48.49 278.11,-39.21 277.64,-30.82"/>
<polygon fill="#63b8ff" stroke="#63b8ff" points="281.15,-30.91 277.09,-21.12 274.16,-31.3 281.15,-30.91"/>
</g>
<!-- Node11&#45;&gt;Node2 -->
<g id="edge13" class="edge">
<title>Node11&#45;&gt;Node2</title>
<path fill="none" stroke="#63b8ff" d="M76.3,-54.84C66.76,-47.15 52.83,-35.9 41.39,-26.68"/>
<polygon fill="#63b8ff" stroke="#63b8ff" points="43.69,-24.03 33.71,-20.48 39.29,-29.48 43.69,-24.03"/>
</g>
<!-- Node11&#45;&gt;Node9 -->
<g id="edge12" class="edge">
<title>Node11&#45;&gt;Node9</title>
<path fill="none" stroke="#63b8ff" d="M90.14,-55.08C92.14,-48.42 94.98,-38.99 97.52,-30.53"/>
<polygon fill="#63b8ff" stroke="#63b8ff" points="100.84,-31.64 100.36,-21.06 94.14,-29.63 100.84,-31.64"/>
</g>
<!-- Node11&#45;&gt;Node10 -->
<g id="edge14" class="edge">
<title>Node11&#45;&gt;Node10</title>
<path fill="none" stroke="#63b8ff" d="M119.56,-54.84C150.92,-46.01 198.89,-32.49 233.54,-22.73"/>
<polygon fill="#63b8ff" stroke="#63b8ff" points="234.15,-26.19 242.82,-20.11 232.25,-19.46 234.15,-26.19"/>
</g>
</g>
</svg>
