<?xml version="1.0" encoding="UTF-8" standalone="no"?>
<!DOCTYPE svg PUBLIC "-//W3C//DTD SVG 1.1//EN"
 "http://www.w3.org/Graphics/SVG/1.1/DTD/svg11.dtd">
<!-- Generated by graphviz version 2.49.0 (20210828.1703)
 -->
<!-- Title: C:/Users/folae/Documents/Code/Big&#45;Projects/ArkScript/Ark/include/Ark/Platform.hpp Pages: 1 -->
<svg width="2459pt" height="796pt"
 viewBox="0.00 0.00 2458.65 796.00" xmlns="http://www.w3.org/2000/svg" xmlns:xlink="http://www.w3.org/1999/xlink">
<g id="graph0" class="graph" transform="scale(1 1) rotate(0) translate(4 792)">
<title>C:/Users/folae/Documents/Code/Big&#45;Projects/ArkScript/Ark/include/Ark/Platform.hpp</title>
<polygon fill="white" stroke="transparent" points="-4,4 -4,-792 2454.65,-792 2454.65,4 -4,4"/>
<!-- Node1 -->
<g id="node1" class="node">
<title>Node1</title>
<g id="a_node1"><a xlink:title="ArkScript configuration macros.">
<polygon fill="#bfbfbf" stroke="black" points="978.15,-746.5 978.15,-787.5 1122.15,-787.5 1122.15,-746.5 978.15,-746.5"/>
<text text-anchor="start" x="986.15" y="-775.5" font-family="Helvetica,sans-Serif" font-size="10.00">C:/Users/folae/Documents</text>
<text text-anchor="start" x="986.15" y="-764.5" font-family="Helvetica,sans-Serif" font-size="10.00">/Code/Big&#45;Projects/ArkScript</text>
<text text-anchor="middle" x="1050.15" y="-753.5" font-family="Helvetica,sans-Serif" font-size="10.00">/Ark/include/Ark/Platform.hpp</text>
</a>
</g>
</g>
<!-- Node2 -->
<g id="node2" class="node">
<title>Node2</title>
<g id="a_node2"><a xlink:href="../../d1/d84/BytecodeReader_8hpp.html" target="_top" xlink:title="A bytecode disassembler for ArkScript.">
<polygon fill="white" stroke="black" points="548.65,-418 548.65,-459 769.65,-459 769.65,-418 548.65,-418"/>
<text text-anchor="start" x="556.65" y="-447" font-family="Helvetica,sans-Serif" font-size="10.00">C:/Users/folae/Documents</text>
<text text-anchor="start" x="556.65" y="-436" font-family="Helvetica,sans-Serif" font-size="10.00">/Code/Big&#45;Projects/ArkScript</text>
<text text-anchor="middle" x="659.15" y="-425" font-family="Helvetica,sans-Serif" font-size="10.00">/Ark/include/Ark/Compiler/BytecodeReader.hpp</text>
</a>
</g>
</g>
<!-- Node1&#45;&gt;Node2 -->
<g id="edge1" class="edge">
<title>Node1&#45;&gt;Node2</title>
<path fill="none" stroke="midnightblue" d="M1018.73,-739.77C942.69,-676.27 750.02,-515.38 682.76,-459.21"/>
<polygon fill="midnightblue" stroke="midnightblue" points="1016.65,-742.59 1026.57,-746.31 1021.14,-737.22 1016.65,-742.59"/>
</g>
<!-- Node7 -->
<g id="node7" class="node">
<title>Node7</title>
<g id="a_node7"><a xlink:href="../../d1/d91/VM_8hpp.html" target="_top" xlink:title="The ArkScript virtual machine.">
<polygon fill="white" stroke="black" points="772.15,-156.5 772.15,-197.5 914.15,-197.5 914.15,-156.5 772.15,-156.5"/>
<text text-anchor="start" x="780.15" y="-185.5" font-family="Helvetica,sans-Serif" font-size="10.00">C:/Users/folae/Documents</text>
<text text-anchor="start" x="780.15" y="-174.5" font-family="Helvetica,sans-Serif" font-size="10.00">/Code/Big&#45;Projects/ArkScript</text>
<text text-anchor="middle" x="843.15" y="-163.5" font-family="Helvetica,sans-Serif" font-size="10.00">/Ark/include/Ark/VM/VM.hpp</text>
</a>
</g>
</g>
<!-- Node1&#45;&gt;Node7 -->
<g id="edge22" class="edge">
<title>Node1&#45;&gt;Node7</title>
<path fill="none" stroke="midnightblue" d="M968.11,-758.79C758.94,-739.3 222.15,-681.94 222.15,-606.5 222.15,-606.5 222.15,-606.5 222.15,-348.5 222.15,-322.67 211.24,-294.67 347.15,-234 421.43,-200.84 653.54,-186.2 772.03,-180.75"/>
<polygon fill="midnightblue" stroke="midnightblue" points="967.84,-762.28 978.12,-759.71 968.48,-755.31 967.84,-762.28"/>
</g>
<!-- Node13 -->
<g id="node13" class="node">
<title>Node13</title>
<g id="a_node13"><a xlink:href="../../d8/d0f/Compiler_8hpp.html" target="_top" xlink:title="ArkScript compiler is in charge of transforming the AST into bytecode.">
<polygon fill="white" stroke="black" points="1650.15,-329 1650.15,-370 1838.15,-370 1838.15,-329 1650.15,-329"/>
<text text-anchor="start" x="1658.15" y="-358" font-family="Helvetica,sans-Serif" font-size="10.00">C:/Users/folae/Documents</text>
<text text-anchor="start" x="1658.15" y="-347" font-family="Helvetica,sans-Serif" font-size="10.00">/Code/Big&#45;Projects/ArkScript</text>
<text text-anchor="middle" x="1744.15" y="-336" font-family="Helvetica,sans-Serif" font-size="10.00">/Ark/include/Ark/Compiler/Compiler.hpp</text>
</a>
</g>
</g>
<!-- Node1&#45;&gt;Node13 -->
<g id="edge14" class="edge">
<title>Node1&#45;&gt;Node13</title>
<path fill="none" stroke="midnightblue" d="M1132.41,-759.07C1384.18,-735.95 2135.54,-652.1 2273.15,-465 2287.11,-446.02 2288.81,-429.59 2273.15,-412 2244.79,-380.15 1982.54,-362.27 1838.26,-354.76"/>
<polygon fill="midnightblue" stroke="midnightblue" points="1131.87,-755.6 1122.23,-760 1132.51,-762.58 1131.87,-755.6"/>
</g>
<!-- Node15 -->
<g id="node15" class="node">
<title>Node15</title>
<g id="a_node15"><a xlink:href="../../db/d0e/Plugin_8hpp.html" target="_top" xlink:title="Loads .dll/.so/.dynlib files.">
<polygon fill="white" stroke="black" points="35.65,-668.5 35.65,-709.5 188.65,-709.5 188.65,-668.5 35.65,-668.5"/>
<text text-anchor="start" x="43.65" y="-697.5" font-family="Helvetica,sans-Serif" font-size="10.00">C:/Users/folae/Documents</text>
<text text-anchor="start" x="43.65" y="-686.5" font-family="Helvetica,sans-Serif" font-size="10.00">/Code/Big&#45;Projects/ArkScript</text>
<text text-anchor="middle" x="112.15" y="-675.5" font-family="Helvetica,sans-Serif" font-size="10.00">/Ark/include/Ark/VM/Plugin.hpp</text>
</a>
</g>
</g>
<!-- Node1&#45;&gt;Node15 -->
<g id="edge19" class="edge">
<title>Node1&#45;&gt;Node15</title>
<path fill="none" stroke="midnightblue" d="M967.88,-764.32C816.74,-760.39 485.02,-747.86 208.15,-710 201.82,-709.14 195.29,-708.09 188.75,-706.95"/>
<polygon fill="midnightblue" stroke="midnightblue" points="967.92,-767.82 978,-764.58 968.1,-760.82 967.92,-767.82"/>
</g>
<!-- Node17 -->
<g id="node17" class="node">
<title>Node17</title>
<g id="a_node17"><a xlink:href="../../de/dfd/Value_8hpp.html" target="_top" xlink:title=" ">
<polygon fill="white" stroke="black" points="1096.65,-585 1096.65,-626 1247.65,-626 1247.65,-585 1096.65,-585"/>
<text text-anchor="start" x="1104.65" y="-614" font-family="Helvetica,sans-Serif" font-size="10.00">C:/Users/folae/Documents</text>
<text text-anchor="start" x="1104.65" y="-603" font-family="Helvetica,sans-Serif" font-size="10.00">/Code/Big&#45;Projects/ArkScript</text>
<text text-anchor="middle" x="1172.15" y="-592" font-family="Helvetica,sans-Serif" font-size="10.00">/Ark/include/Ark/VM/Value.hpp</text>
</a>
</g>
</g>
<!-- Node1&#45;&gt;Node17 -->
<g id="edge23" class="edge">
<title>Node1&#45;&gt;Node17</title>
<path fill="none" stroke="midnightblue" d="M1050.12,-735.95C1051.48,-715.17 1056.16,-687.81 1070.15,-668 1083.03,-649.76 1103.2,-635.96 1122.21,-626.11"/>
<polygon fill="midnightblue" stroke="midnightblue" points="1046.62,-736 1049.68,-746.14 1053.61,-736.3 1046.62,-736"/>
</g>
<!-- Node33 -->
<g id="node33" class="node">
<title>Node33</title>
<g id="a_node33"><a xlink:href="../../dc/dd5/Closure_8hpp.html" target="_top" xlink:title="Subtype of the value type, handling closures.">
<polygon fill="white" stroke="black" points="1078.65,-668.5 1078.65,-709.5 1265.65,-709.5 1265.65,-668.5 1078.65,-668.5"/>
<text text-anchor="start" x="1086.65" y="-697.5" font-family="Helvetica,sans-Serif" font-size="10.00">C:/Users/folae/Documents</text>
<text text-anchor="start" x="1086.65" y="-686.5" font-family="Helvetica,sans-Serif" font-size="10.00">/Code/Big&#45;Projects/ArkScript</text>
<text text-anchor="middle" x="1172.15" y="-675.5" font-family="Helvetica,sans-Serif" font-size="10.00">/Ark/include/Ark/VM/Value/Closure.hpp</text>
</a>
</g>
</g>
<!-- Node1&#45;&gt;Node33 -->
<g id="edge54" class="edge">
<title>Node1&#45;&gt;Node33</title>
<path fill="none" stroke="midnightblue" d="M1090.41,-740.92C1106.81,-730.7 1125.48,-719.07 1140.84,-709.51"/>
<polygon fill="midnightblue" stroke="midnightblue" points="1088.2,-738.17 1081.57,-746.43 1091.91,-744.11 1088.2,-738.17"/>
</g>
<!-- Node34 -->
<g id="node34" class="node">
<title>Node34</title>
<g id="a_node34"><a xlink:href="../../dc/d3d/UserType_8hpp.html" target="_top" xlink:title="Subtype of the value, capable of handling any C++ type.">
<polygon fill="white" stroke="black" points="1283.65,-668.5 1283.65,-709.5 1478.65,-709.5 1478.65,-668.5 1283.65,-668.5"/>
<text text-anchor="start" x="1291.65" y="-697.5" font-family="Helvetica,sans-Serif" font-size="10.00">C:/Users/folae/Documents</text>
<text text-anchor="start" x="1291.65" y="-686.5" font-family="Helvetica,sans-Serif" font-size="10.00">/Code/Big&#45;Projects/ArkScript</text>
<text text-anchor="middle" x="1381.15" y="-675.5" font-family="Helvetica,sans-Serif" font-size="10.00">/Ark/include/Ark/VM/Value/UserType.hpp</text>
</a>
</g>
</g>
<!-- Node1&#45;&gt;Node34 -->
<g id="edge57" class="edge">
<title>Node1&#45;&gt;Node34</title>
<path fill="none" stroke="midnightblue" d="M1132.17,-747.17C1182.09,-735.7 1245.74,-721.09 1296.19,-709.51"/>
<polygon fill="midnightblue" stroke="midnightblue" points="1131.34,-743.77 1122.38,-749.42 1132.91,-750.59 1131.34,-743.77"/>
</g>
<!-- Node3 -->
<g id="node3" class="node">
<title>Node3</title>
<g id="a_node3"><a xlink:href="../../d0/db5/State_8hpp.html" target="_top" xlink:title="State used by the virtual machine: it loads the bytecode, can compile it if needed,...">
<polygon fill="white" stroke="black" points="1227.65,-240 1227.65,-281 1376.65,-281 1376.65,-240 1227.65,-240"/>
<text text-anchor="start" x="1235.65" y="-269" font-family="Helvetica,sans-Serif" font-size="10.00">C:/Users/folae/Documents</text>
<text text-anchor="start" x="1235.65" y="-258" font-family="Helvetica,sans-Serif" font-size="10.00">/Code/Big&#45;Projects/ArkScript</text>
<text text-anchor="middle" x="1302.15" y="-247" font-family="Helvetica,sans-Serif" font-size="10.00">/Ark/include/Ark/VM/State.hpp</text>
</a>
</g>
</g>
<!-- Node2&#45;&gt;Node3 -->
<g id="edge2" class="edge">
<title>Node2&#45;&gt;Node3</title>
<path fill="none" stroke="midnightblue" d="M689.38,-411.37C722.35,-384.44 777.85,-343.58 833.15,-323 965.92,-273.6 1132.71,-262.85 1227.39,-261.09"/>
<polygon fill="midnightblue" stroke="midnightblue" points="686.97,-408.82 681.49,-417.89 691.43,-414.22 686.97,-408.82"/>
</g>
<!-- Node12 -->
<g id="node12" class="node">
<title>Node12</title>
<g id="a_node12"><a xlink:href="../../d5/d36/BytecodeReader_8cpp.html" target="_top" xlink:title=" ">
<polygon fill="white" stroke="black" points="842.15,-323.5 842.15,-375.5 984.15,-375.5 984.15,-323.5 842.15,-323.5"/>
<text text-anchor="start" x="850.15" y="-363.5" font-family="Helvetica,sans-Serif" font-size="10.00">C:/Users/folae/Documents</text>
<text text-anchor="start" x="850.15" y="-352.5" font-family="Helvetica,sans-Serif" font-size="10.00">/Code/Big&#45;Projects/ArkScript</text>
<text text-anchor="start" x="850.15" y="-341.5" font-family="Helvetica,sans-Serif" font-size="10.00">/Ark/src/arkreactor/Compiler</text>
<text text-anchor="middle" x="913.15" y="-330.5" font-family="Helvetica,sans-Serif" font-size="10.00">/BytecodeReader.cpp</text>
</a>
</g>
</g>
<!-- Node2&#45;&gt;Node12 -->
<g id="edge13" class="edge">
<title>Node2&#45;&gt;Node12</title>
<path fill="none" stroke="midnightblue" d="M725.97,-414.61C761.62,-402.4 805.49,-387.38 841.8,-374.94"/>
<polygon fill="midnightblue" stroke="midnightblue" points="724.48,-411.42 716.15,-417.98 726.75,-418.05 724.48,-411.42"/>
</g>
<!-- Node4 -->
<g id="node4" class="node">
<title>Node4</title>
<g id="a_node4"><a xlink:href="../../d5/da5/Repl_8hpp.html" target="_top" xlink:title="ArkScript REPL &#45; Read Eval Print Loop.">
<polygon fill="white" stroke="black" points="1251.15,-78.5 1251.15,-119.5 1407.15,-119.5 1407.15,-78.5 1251.15,-78.5"/>
<text text-anchor="start" x="1259.15" y="-107.5" font-family="Helvetica,sans-Serif" font-size="10.00">C:/Users/folae/Documents</text>
<text text-anchor="start" x="1259.15" y="-96.5" font-family="Helvetica,sans-Serif" font-size="10.00">/Code/Big&#45;Projects/ArkScript</text>
<text text-anchor="middle" x="1329.15" y="-85.5" font-family="Helvetica,sans-Serif" font-size="10.00">/Ark/include/Ark/REPL/Repl.hpp</text>
</a>
</g>
</g>
<!-- Node3&#45;&gt;Node4 -->
<g id="edge3" class="edge">
<title>Node3&#45;&gt;Node4</title>
<path fill="none" stroke="midnightblue" d="M1307.18,-229.8C1312.62,-197.66 1321.14,-147.31 1325.81,-119.72"/>
<polygon fill="midnightblue" stroke="midnightblue" points="1303.68,-229.5 1305.46,-239.94 1310.58,-230.67 1303.68,-229.5"/>
</g>
<!-- Node3&#45;&gt;Node7 -->
<g id="edge6" class="edge">
<title>Node3&#45;&gt;Node7</title>
<path fill="none" stroke="midnightblue" d="M1222.72,-237.49C1217.47,-236.25 1212.24,-235.07 1207.15,-234 1106.26,-212.77 988.05,-196.06 914.37,-186.61"/>
<polygon fill="midnightblue" stroke="midnightblue" points="1222.29,-240.99 1232.84,-239.95 1223.95,-234.19 1222.29,-240.99"/>
</g>
<!-- Node11 -->
<g id="node11" class="node">
<title>Node11</title>
<g id="a_node11"><a xlink:href="../../d0/da0/State_8cpp.html" target="_top" xlink:title=" ">
<polygon fill="white" stroke="black" points="1330.65,-156.5 1330.65,-197.5 1491.65,-197.5 1491.65,-156.5 1330.65,-156.5"/>
<text text-anchor="start" x="1338.65" y="-185.5" font-family="Helvetica,sans-Serif" font-size="10.00">C:/Users/folae/Documents</text>
<text text-anchor="start" x="1338.65" y="-174.5" font-family="Helvetica,sans-Serif" font-size="10.00">/Code/Big&#45;Projects/ArkScript</text>
<text text-anchor="middle" x="1411.15" y="-163.5" font-family="Helvetica,sans-Serif" font-size="10.00">/Ark/src/arkreactor/VM/State.cpp</text>
</a>
</g>
</g>
<!-- Node3&#45;&gt;Node11 -->
<g id="edge12" class="edge">
<title>Node3&#45;&gt;Node11</title>
<path fill="none" stroke="midnightblue" d="M1336.63,-233.72C1352.24,-222.05 1370.39,-208.47 1384.88,-197.64"/>
<polygon fill="midnightblue" stroke="midnightblue" points="1334.17,-231.19 1328.26,-239.98 1338.36,-236.79 1334.17,-231.19"/>
</g>
<!-- Node5 -->
<g id="node5" class="node">
<title>Node5</title>
<g id="a_node5"><a xlink:href="../../d7/d46/Repl_8cpp.html" target="_top" xlink:title=" ">
<polygon fill="white" stroke="black" points="1248.65,-0.5 1248.65,-41.5 1409.65,-41.5 1409.65,-0.5 1248.65,-0.5"/>
<text text-anchor="start" x="1256.65" y="-29.5" font-family="Helvetica,sans-Serif" font-size="10.00">C:/Users/folae/Documents</text>
<text text-anchor="start" x="1256.65" y="-18.5" font-family="Helvetica,sans-Serif" font-size="10.00">/Code/Big&#45;Projects/ArkScript</text>
<text text-anchor="middle" x="1329.15" y="-7.5" font-family="Helvetica,sans-Serif" font-size="10.00">/Ark/src/arkscript/REPL/Repl.cpp</text>
</a>
</g>
</g>
<!-- Node4&#45;&gt;Node5 -->
<g id="edge4" class="edge">
<title>Node4&#45;&gt;Node5</title>
<path fill="none" stroke="midnightblue" d="M1329.15,-68.3C1329.15,-59.3 1329.15,-49.65 1329.15,-41.51"/>
<polygon fill="midnightblue" stroke="midnightblue" points="1325.65,-68.43 1329.15,-78.43 1332.65,-68.43 1325.65,-68.43"/>
</g>
<!-- Node6 -->
<g id="node6" class="node">
<title>Node6</title>
<g id="a_node6"><a xlink:href="../../df/d0a/main_8cpp.html" target="_top" xlink:title=" ">
<polygon fill="white" stroke="black" points="1510.15,-0.5 1510.15,-41.5 1652.15,-41.5 1652.15,-0.5 1510.15,-0.5"/>
<text text-anchor="start" x="1518.15" y="-29.5" font-family="Helvetica,sans-Serif" font-size="10.00">C:/Users/folae/Documents</text>
<text text-anchor="start" x="1518.15" y="-18.5" font-family="Helvetica,sans-Serif" font-size="10.00">/Code/Big&#45;Projects/ArkScript</text>
<text text-anchor="middle" x="1581.15" y="-7.5" font-family="Helvetica,sans-Serif" font-size="10.00">/Ark/src/arkscript/main.cpp</text>
</a>
</g>
</g>
<!-- Node4&#45;&gt;Node6 -->
<g id="edge5" class="edge">
<title>Node4&#45;&gt;Node6</title>
<path fill="none" stroke="midnightblue" d="M1403.95,-75.44C1439.71,-64.66 1482.12,-51.87 1516.47,-41.51"/>
<polygon fill="midnightblue" stroke="midnightblue" points="1402.61,-72.19 1394.05,-78.43 1404.63,-78.89 1402.61,-72.19"/>
</g>
<!-- Node7&#45;&gt;Node4 -->
<g id="edge10" class="edge">
<title>Node7&#45;&gt;Node4</title>
<path fill="none" stroke="midnightblue" d="M924.31,-163.31C1015.15,-149.1 1161.3,-126.25 1250.92,-112.23"/>
<polygon fill="midnightblue" stroke="midnightblue" points="923.68,-159.86 914.34,-164.87 924.76,-166.78 923.68,-159.86"/>
</g>
<!-- Node8 -->
<g id="node8" class="node">
<title>Node8</title>
<g id="a_node8"><a xlink:href="../../d3/d7e/Ark_8hpp.html" target="_top" xlink:title="Includes the needed files to start using ArkScript.">
<polygon fill="white" stroke="black" points="1673.15,-78.5 1673.15,-119.5 1815.15,-119.5 1815.15,-78.5 1673.15,-78.5"/>
<text text-anchor="start" x="1681.15" y="-107.5" font-family="Helvetica,sans-Serif" font-size="10.00">C:/Users/folae/Documents</text>
<text text-anchor="start" x="1681.15" y="-96.5" font-family="Helvetica,sans-Serif" font-size="10.00">/Code/Big&#45;Projects/ArkScript</text>
<text text-anchor="middle" x="1744.15" y="-85.5" font-family="Helvetica,sans-Serif" font-size="10.00">/Ark/include/Ark/Ark.hpp</text>
</a>
</g>
</g>
<!-- Node7&#45;&gt;Node8 -->
<g id="edge7" class="edge">
<title>Node7&#45;&gt;Node8</title>
<path fill="none" stroke="midnightblue" d="M924.52,-173.39C1068.79,-168.06 1378.68,-153.5 1638.15,-120 1649.48,-118.54 1661.43,-116.64 1673.06,-114.59"/>
<polygon fill="midnightblue" stroke="midnightblue" points="924.28,-169.89 914.42,-173.76 924.54,-176.89 924.28,-169.89"/>
</g>
<!-- Node10 -->
<g id="node10" class="node">
<title>Node10</title>
<g id="a_node10"><a xlink:href="../../d2/d27/VM_8cpp.html" target="_top" xlink:title=" ">
<polygon fill="white" stroke="black" points="1477.15,-78.5 1477.15,-119.5 1629.15,-119.5 1629.15,-78.5 1477.15,-78.5"/>
<text text-anchor="start" x="1485.15" y="-107.5" font-family="Helvetica,sans-Serif" font-size="10.00">C:/Users/folae/Documents</text>
<text text-anchor="start" x="1485.15" y="-96.5" font-family="Helvetica,sans-Serif" font-size="10.00">/Code/Big&#45;Projects/ArkScript</text>
<text text-anchor="middle" x="1553.15" y="-85.5" font-family="Helvetica,sans-Serif" font-size="10.00">/Ark/src/arkreactor/VM/VM.cpp</text>
</a>
</g>
</g>
<!-- Node7&#45;&gt;Node10 -->
<g id="edge11" class="edge">
<title>Node7&#45;&gt;Node10</title>
<path fill="none" stroke="midnightblue" d="M924.42,-169.28C1035.6,-159.81 1241.28,-141.3 1416.15,-120 1435.95,-117.59 1457.32,-114.64 1477.15,-111.75"/>
<polygon fill="midnightblue" stroke="midnightblue" points="923.95,-165.81 914.29,-170.14 924.55,-172.78 923.95,-165.81"/>
</g>
<!-- Node8&#45;&gt;Node6 -->
<g id="edge9" class="edge">
<title>Node8&#45;&gt;Node6</title>
<path fill="none" stroke="midnightblue" d="M1693.08,-74.19C1670.53,-63.67 1644.35,-51.47 1622.98,-41.51"/>
<polygon fill="midnightblue" stroke="midnightblue" points="1691.63,-77.37 1702.17,-78.43 1694.59,-71.03 1691.63,-77.37"/>
</g>
<!-- Node9 -->
<g id="node9" class="node">
<title>Node9</title>
<g id="a_node9"><a xlink:href="../../dc/d32/Ark_8cpp.html" target="_top" xlink:title=" ">
<polygon fill="white" stroke="black" points="1673.15,-0.5 1673.15,-41.5 1815.15,-41.5 1815.15,-0.5 1673.15,-0.5"/>
<text text-anchor="start" x="1681.15" y="-29.5" font-family="Helvetica,sans-Serif" font-size="10.00">C:/Users/folae/Documents</text>
<text text-anchor="start" x="1681.15" y="-18.5" font-family="Helvetica,sans-Serif" font-size="10.00">/Code/Big&#45;Projects/ArkScript</text>
<text text-anchor="middle" x="1744.15" y="-7.5" font-family="Helvetica,sans-Serif" font-size="10.00">/Ark/src/arkreactor/Ark.cpp</text>
</a>
</g>
</g>
<!-- Node8&#45;&gt;Node9 -->
<g id="edge8" class="edge">
<title>Node8&#45;&gt;Node9</title>
<path fill="none" stroke="midnightblue" d="M1744.15,-68.3C1744.15,-59.3 1744.15,-49.65 1744.15,-41.51"/>
<polygon fill="midnightblue" stroke="midnightblue" points="1740.65,-68.43 1744.15,-78.43 1747.65,-68.43 1740.65,-68.43"/>
</g>
<!-- Node13&#45;&gt;Node3 -->
<g id="edge17" class="edge">
<title>Node13&#45;&gt;Node3</title>
<path fill="none" stroke="midnightblue" d="M1658.32,-326.71C1652.52,-325.4 1646.76,-324.15 1641.15,-323 1544.53,-303.13 1519.08,-305.26 1422.15,-287 1407.5,-284.24 1391.89,-281.08 1376.94,-277.95"/>
<polygon fill="midnightblue" stroke="midnightblue" points="1657.56,-330.12 1668.09,-328.95 1659.12,-323.3 1657.56,-330.12"/>
</g>
<!-- Node13&#45;&gt;Node4 -->
<g id="edge16" class="edge">
<title>Node13&#45;&gt;Node4</title>
<path fill="none" stroke="midnightblue" d="M1717.06,-321.58C1674.47,-280.61 1587.77,-202.46 1501.15,-156 1471.95,-140.34 1437.61,-128.08 1407.32,-119.07"/>
<polygon fill="midnightblue" stroke="midnightblue" points="1714.87,-324.33 1724.48,-328.78 1719.74,-319.31 1714.87,-324.33"/>
</g>
<!-- Node13&#45;&gt;Node8 -->
<g id="edge15" class="edge">
<title>Node13&#45;&gt;Node8</title>
<path fill="none" stroke="midnightblue" d="M1744.15,-318.42C1744.15,-266.86 1744.15,-162.98 1744.15,-119.67"/>
<polygon fill="midnightblue" stroke="midnightblue" points="1740.65,-318.58 1744.15,-328.58 1747.65,-318.58 1740.65,-318.58"/>
</g>
<!-- Node14 -->
<g id="node14" class="node">
<title>Node14</title>
<g id="a_node14"><a xlink:href="../../de/dfa/Compiler_8cpp.html" target="_top" xlink:title=" ">
<polygon fill="white" stroke="black" points="1431.15,-234.5 1431.15,-286.5 1573.15,-286.5 1573.15,-234.5 1431.15,-234.5"/>
<text text-anchor="start" x="1439.15" y="-274.5" font-family="Helvetica,sans-Serif" font-size="10.00">C:/Users/folae/Documents</text>
<text text-anchor="start" x="1439.15" y="-263.5" font-family="Helvetica,sans-Serif" font-size="10.00">/Code/Big&#45;Projects/ArkScript</text>
<text text-anchor="start" x="1439.15" y="-252.5" font-family="Helvetica,sans-Serif" font-size="10.00">/Ark/src/arkreactor/Compiler</text>
<text text-anchor="middle" x="1502.15" y="-241.5" font-family="Helvetica,sans-Serif" font-size="10.00">/Compiler.cpp</text>
</a>
</g>
</g>
<!-- Node13&#45;&gt;Node14 -->
<g id="edge18" class="edge">
<title>Node13&#45;&gt;Node14</title>
<path fill="none" stroke="midnightblue" d="M1680.2,-325.51C1646.88,-313.53 1606.07,-298.86 1571.93,-286.58"/>
<polygon fill="midnightblue" stroke="midnightblue" points="1679.25,-328.89 1689.84,-328.98 1681.61,-322.3 1679.25,-328.89"/>
</g>
<!-- Node15&#45;&gt;Node7 -->
<g id="edge20" class="edge">
<title>Node15&#45;&gt;Node7</title>
<path fill="none" stroke="midnightblue" d="M55.04,-663.02C42.11,-654.88 29.69,-644.6 21.15,-632 -6.45,-591.3 2.15,-572.17 2.15,-523 2.15,-523 2.15,-523 2.15,-348.5 2.15,-191.98 568.74,-177.54 771.81,-177.38"/>
<polygon fill="midnightblue" stroke="midnightblue" points="53.64,-666.26 64.03,-668.33 57.2,-660.23 53.64,-666.26"/>
</g>
<!-- Node16 -->
<g id="node16" class="node">
<title>Node16</title>
<g id="a_node16"><a xlink:href="../../dc/d87/Plugin_8cpp.html" target="_top" xlink:title=" ">
<polygon fill="white" stroke="black" points="30.15,-585 30.15,-626 194.15,-626 194.15,-585 30.15,-585"/>
<text text-anchor="start" x="38.15" y="-614" font-family="Helvetica,sans-Serif" font-size="10.00">C:/Users/folae/Documents</text>
<text text-anchor="start" x="38.15" y="-603" font-family="Helvetica,sans-Serif" font-size="10.00">/Code/Big&#45;Projects/ArkScript</text>
<text text-anchor="middle" x="112.15" y="-592" font-family="Helvetica,sans-Serif" font-size="10.00">/Ark/src/arkreactor/VM/Plugin.cpp</text>
</a>
</g>
</g>
<!-- Node15&#45;&gt;Node16 -->
<g id="edge21" class="edge">
<title>Node15&#45;&gt;Node16</title>
<path fill="none" stroke="midnightblue" d="M112.15,-658.06C112.15,-647.38 112.15,-635.63 112.15,-626.05"/>
<polygon fill="midnightblue" stroke="midnightblue" points="108.65,-658.27 112.15,-668.27 115.65,-658.27 108.65,-658.27"/>
</g>
<!-- Node17&#45;&gt;Node3 -->
<g id="edge51" class="edge">
<title>Node17&#45;&gt;Node3</title>
<path fill="none" stroke="midnightblue" d="M1257.45,-586.9C1280.7,-577.77 1303.28,-563.94 1317.15,-543 1331.5,-521.32 1311.69,-341.67 1304.54,-281.24"/>
<polygon fill="midnightblue" stroke="midnightblue" points="1256.01,-583.7 1247.82,-590.41 1258.41,-590.27 1256.01,-583.7"/>
</g>
<!-- Node17&#45;&gt;Node7 -->
<g id="edge52" class="edge">
<title>Node17&#45;&gt;Node7</title>
<path fill="none" stroke="midnightblue" d="M1086.54,-605.1C882.81,-604.46 378.79,-590.02 280.15,-465 194.39,-356.31 296.09,-313.48 451.15,-234 505.75,-206.01 674.79,-189.83 772.14,-182.59"/>
<polygon fill="midnightblue" stroke="midnightblue" points="1086.59,-608.6 1096.6,-605.12 1086.6,-601.6 1086.59,-608.6"/>
</g>
<!-- Node18 -->
<g id="node18" class="node">
<title>Node18</title>
<g id="a_node18"><a xlink:href="../../da/d84/Builtins_8hpp.html" target="_top" xlink:title="Host the declaration of all the ArkScript builtins.">
<polygon fill="white" stroke="black" points="1132.15,-418 1132.15,-459 1308.15,-459 1308.15,-418 1132.15,-418"/>
<text text-anchor="start" x="1140.15" y="-447" font-family="Helvetica,sans-Serif" font-size="10.00">C:/Users/folae/Documents</text>
<text text-anchor="start" x="1140.15" y="-436" font-family="Helvetica,sans-Serif" font-size="10.00">/Code/Big&#45;Projects/ArkScript</text>
<text text-anchor="middle" x="1220.15" y="-425" font-family="Helvetica,sans-Serif" font-size="10.00">/Ark/include/Ark/Builtins/Builtins.hpp</text>
</a>
</g>
</g>
<!-- Node17&#45;&gt;Node18 -->
<g id="edge24" class="edge">
<title>Node17&#45;&gt;Node18</title>
<path fill="none" stroke="midnightblue" d="M1150.72,-576.19C1137.39,-554.89 1124.91,-525.31 1137.15,-501 1146.1,-483.22 1162.9,-469.3 1179.05,-459.23"/>
<polygon fill="midnightblue" stroke="midnightblue" points="1147.97,-578.38 1156.42,-584.77 1153.8,-574.5 1147.97,-578.38"/>
</g>
<!-- Node20 -->
<g id="node20" class="node">
<title>Node20</title>
<g id="a_node20"><a xlink:href="../../d2/de9/Exceptions_8hpp.html" target="_top" xlink:title="ArkScript homemade exceptions.">
<polygon fill="white" stroke="black" points="1684.65,-501.5 1684.65,-542.5 1841.65,-542.5 1841.65,-501.5 1684.65,-501.5"/>
<text text-anchor="start" x="1692.65" y="-530.5" font-family="Helvetica,sans-Serif" font-size="10.00">C:/Users/folae/Documents</text>
<text text-anchor="start" x="1692.65" y="-519.5" font-family="Helvetica,sans-Serif" font-size="10.00">/Code/Big&#45;Projects/ArkScript</text>
<text text-anchor="middle" x="1763.15" y="-508.5" font-family="Helvetica,sans-Serif" font-size="10.00">/Ark/include/Ark/Exceptions.hpp</text>
</a>
</g>
</g>
<!-- Node17&#45;&gt;Node20 -->
<g id="edge29" class="edge">
<title>Node17&#45;&gt;Node20</title>
<path fill="none" stroke="midnightblue" d="M1258.03,-592.66C1372.57,-576.86 1573.71,-549.12 1684.48,-533.85"/>
<polygon fill="midnightblue" stroke="midnightblue" points="1257.33,-589.22 1247.9,-594.05 1258.29,-596.15 1257.33,-589.22"/>
</g>
<!-- Node27 -->
<g id="node27" class="node">
<title>Node27</title>
<g id="a_node27"><a xlink:href="../../db/d5e/TypeChecker_8hpp.html" target="_top" xlink:title=" ">
<polygon fill="white" stroke="black" points="2285.65,-501.5 2285.65,-542.5 2450.65,-542.5 2450.65,-501.5 2285.65,-501.5"/>
<text text-anchor="start" x="2293.65" y="-530.5" font-family="Helvetica,sans-Serif" font-size="10.00">C:/Users/folae/Documents</text>
<text text-anchor="start" x="2293.65" y="-519.5" font-family="Helvetica,sans-Serif" font-size="10.00">/Code/Big&#45;Projects/ArkScript</text>
<text text-anchor="middle" x="2368.15" y="-508.5" font-family="Helvetica,sans-Serif" font-size="10.00">/Ark/include/Ark/TypeChecker.hpp</text>
</a>
</g>
</g>
<!-- Node17&#45;&gt;Node27 -->
<g id="edge40" class="edge">
<title>Node17&#45;&gt;Node27</title>
<path fill="none" stroke="midnightblue" d="M1257.81,-593.51C1298.98,-588.52 1349.07,-582.88 1394.15,-579 1723.85,-550.61 2117.61,-532.94 2285.62,-526.16"/>
<polygon fill="midnightblue" stroke="midnightblue" points="1257.32,-590.04 1247.82,-594.73 1258.17,-596.99 1257.32,-590.04"/>
</g>
<!-- Node28 -->
<g id="node28" class="node">
<title>Node28</title>
<g id="a_node28"><a xlink:href="../../db/df6/ExecutionContext_8hpp.html" target="_top" xlink:title="Keeping track of the internal data needed by the VM.">
<polygon fill="white" stroke="black" points="288.65,-418 288.65,-459 491.65,-459 491.65,-418 288.65,-418"/>
<text text-anchor="start" x="296.65" y="-447" font-family="Helvetica,sans-Serif" font-size="10.00">C:/Users/folae/Documents</text>
<text text-anchor="start" x="296.65" y="-436" font-family="Helvetica,sans-Serif" font-size="10.00">/Code/Big&#45;Projects/ArkScript</text>
<text text-anchor="middle" x="390.15" y="-425" font-family="Helvetica,sans-Serif" font-size="10.00">/Ark/include/Ark/VM/ExecutionContext.hpp</text>
</a>
</g>
</g>
<!-- Node17&#45;&gt;Node28 -->
<g id="edge44" class="edge">
<title>Node17&#45;&gt;Node28</title>
<path fill="none" stroke="midnightblue" d="M1086.26,-593.39C1007.34,-582.59 887.31,-564.67 784.15,-543 667.7,-518.54 534.13,-481.52 456.24,-459.02"/>
<polygon fill="midnightblue" stroke="midnightblue" points="1086.26,-596.92 1096.64,-594.8 1087.2,-589.99 1086.26,-596.92"/>
</g>
<!-- Node29 -->
<g id="node29" class="node">
<title>Node29</title>
<g id="a_node29"><a xlink:href="../../d8/dcd/Scope_8hpp.html" target="_top" xlink:title="The virtual machine scope system.">
<polygon fill="white" stroke="black" points="793.15,-501.5 793.15,-542.5 947.15,-542.5 947.15,-501.5 793.15,-501.5"/>
<text text-anchor="start" x="801.15" y="-530.5" font-family="Helvetica,sans-Serif" font-size="10.00">C:/Users/folae/Documents</text>
<text text-anchor="start" x="801.15" y="-519.5" font-family="Helvetica,sans-Serif" font-size="10.00">/Code/Big&#45;Projects/ArkScript</text>
<text text-anchor="middle" x="870.15" y="-508.5" font-family="Helvetica,sans-Serif" font-size="10.00">/Ark/include/Ark/VM/Scope.hpp</text>
</a>
</g>
</g>
<!-- Node17&#45;&gt;Node29 -->
<g id="edge46" class="edge">
<title>Node17&#45;&gt;Node29</title>
<path fill="none" stroke="midnightblue" d="M1090.14,-582.37C1043.99,-569.91 986.88,-554.5 942.42,-542.5"/>
<polygon fill="midnightblue" stroke="midnightblue" points="1089.25,-585.75 1099.81,-584.98 1091.07,-578.99 1089.25,-585.75"/>
</g>
<!-- Node32 -->
<g id="node32" class="node">
<title>Node32</title>
<g id="a_node32"><a xlink:href="../../d1/d74/Value_8cpp.html" target="_top" xlink:title=" ">
<polygon fill="white" stroke="black" points="1146.15,-501.5 1146.15,-542.5 1308.15,-542.5 1308.15,-501.5 1146.15,-501.5"/>
<text text-anchor="start" x="1154.15" y="-530.5" font-family="Helvetica,sans-Serif" font-size="10.00">C:/Users/folae/Documents</text>
<text text-anchor="start" x="1154.15" y="-519.5" font-family="Helvetica,sans-Serif" font-size="10.00">/Code/Big&#45;Projects/ArkScript</text>
<text text-anchor="middle" x="1227.15" y="-508.5" font-family="Helvetica,sans-Serif" font-size="10.00">/Ark/src/arkreactor/VM/Value.cpp</text>
</a>
</g>
</g>
<!-- Node17&#45;&gt;Node32 -->
<g id="edge53" class="edge">
<title>Node17&#45;&gt;Node32</title>
<path fill="none" stroke="midnightblue" d="M1191.23,-576.22C1198.73,-565.11 1207.15,-552.63 1213.96,-542.55"/>
<polygon fill="midnightblue" stroke="midnightblue" points="1188.16,-574.52 1185.46,-584.77 1193.96,-578.44 1188.16,-574.52"/>
</g>
<!-- Node18&#45;&gt;Node7 -->
<g id="edge25" class="edge">
<title>Node18&#45;&gt;Node7</title>
<path fill="none" stroke="midnightblue" d="M1183.12,-412.01C1107.95,-360.27 938.85,-243.87 871.56,-197.55"/>
<polygon fill="midnightblue" stroke="midnightblue" points="1181.59,-415.21 1191.81,-418 1185.56,-409.44 1181.59,-415.21"/>
</g>
<!-- Node18&#45;&gt;Node12 -->
<g id="edge26" class="edge">
<title>Node18&#45;&gt;Node12</title>
<path fill="none" stroke="midnightblue" d="M1141.42,-415.19C1092.92,-401.44 1031.23,-383.96 984.21,-370.64"/>
<polygon fill="midnightblue" stroke="midnightblue" points="1140.68,-418.62 1151.25,-417.98 1142.59,-411.88 1140.68,-418.62"/>
</g>
<!-- Node18&#45;&gt;Node14 -->
<g id="edge27" class="edge">
<title>Node18&#45;&gt;Node14</title>
<path fill="none" stroke="midnightblue" d="M1238.48,-409.39C1256.63,-383.59 1286.67,-345.98 1321.15,-323 1354.15,-301.01 1395.79,-286.15 1430.8,-276.55"/>
<polygon fill="midnightblue" stroke="midnightblue" points="1235.58,-407.43 1232.78,-417.65 1241.34,-411.41 1235.58,-407.43"/>
</g>
<!-- Node19 -->
<g id="node19" class="node">
<title>Node19</title>
<g id="a_node19"><a xlink:href="../../d6/d69/Processor_8cpp.html" target="_top" xlink:title=" ">
<polygon fill="white" stroke="black" points="1330.15,-323.5 1330.15,-375.5 1472.15,-375.5 1472.15,-323.5 1330.15,-323.5"/>
<text text-anchor="start" x="1338.15" y="-363.5" font-family="Helvetica,sans-Serif" font-size="10.00">C:/Users/folae/Documents</text>
<text text-anchor="start" x="1338.15" y="-352.5" font-family="Helvetica,sans-Serif" font-size="10.00">/Code/Big&#45;Projects/ArkScript</text>
<text text-anchor="start" x="1338.15" y="-341.5" font-family="Helvetica,sans-Serif" font-size="10.00">/Ark/src/arkreactor/Compiler</text>
<text text-anchor="middle" x="1401.15" y="-330.5" font-family="Helvetica,sans-Serif" font-size="10.00">/Macros/Processor.cpp</text>
</a>
</g>
</g>
<!-- Node18&#45;&gt;Node19 -->
<g id="edge28" class="edge">
<title>Node18&#45;&gt;Node19</title>
<path fill="none" stroke="midnightblue" d="M1269.91,-413.58C1294.47,-401.78 1324.08,-387.54 1348.96,-375.58"/>
<polygon fill="midnightblue" stroke="midnightblue" points="1268.27,-410.49 1260.77,-417.98 1271.3,-416.8 1268.27,-410.49"/>
</g>
<!-- Node20&#45;&gt;Node8 -->
<g id="edge30" class="edge">
<title>Node20&#45;&gt;Node8</title>
<path fill="none" stroke="midnightblue" d="M1852.06,-511.24C1916.76,-502.44 1997.21,-487.39 2022.15,-465 2062.05,-429.18 2060.15,-404.12 2060.15,-350.5 2060.15,-350.5 2060.15,-350.5 2060.15,-259.5 2060.15,-150.57 1908.66,-116.02 1815.46,-105.07"/>
<polygon fill="midnightblue" stroke="midnightblue" points="1851.28,-507.81 1841.83,-512.6 1852.2,-514.75 1851.28,-507.81"/>
</g>
<!-- Node20&#45;&gt;Node18 -->
<g id="edge31" class="edge">
<title>Node20&#45;&gt;Node18</title>
<path fill="none" stroke="midnightblue" d="M1674.48,-510.06C1591.9,-499.58 1465.47,-482.76 1356.15,-465 1340.62,-462.48 1324.13,-459.58 1308.2,-456.65"/>
<polygon fill="midnightblue" stroke="midnightblue" points="1674.22,-513.56 1684.58,-511.34 1675.09,-506.61 1674.22,-513.56"/>
</g>
<!-- Node20&#45;&gt;Node19 -->
<g id="edge38" class="edge">
<title>Node20&#45;&gt;Node19</title>
<path fill="none" stroke="midnightblue" d="M1851.89,-511.79C1912.16,-503.49 1984.22,-488.85 2003.15,-465 2017.79,-446.55 2019.22,-429.22 2003.15,-412 1963.48,-369.5 1538.26,-386.91 1481.15,-376 1478.29,-375.45 1475.38,-374.84 1472.46,-374.16"/>
<polygon fill="midnightblue" stroke="midnightblue" points="1851.4,-508.32 1841.95,-513.12 1852.32,-515.26 1851.4,-508.32"/>
</g>
<!-- Node21 -->
<g id="node21" class="node">
<title>Node21</title>
<g id="a_node21"><a xlink:href="../../db/d93/Optimizer_8hpp.html" target="_top" xlink:title="Optimizes a given ArkScript AST.">
<polygon fill="white" stroke="black" points="1364.65,-412.5 1364.65,-464.5 1513.65,-464.5 1513.65,-412.5 1364.65,-412.5"/>
<text text-anchor="start" x="1372.65" y="-452.5" font-family="Helvetica,sans-Serif" font-size="10.00">C:/Users/folae/Documents</text>
<text text-anchor="start" x="1372.65" y="-441.5" font-family="Helvetica,sans-Serif" font-size="10.00">/Code/Big&#45;Projects/ArkScript</text>
<text text-anchor="start" x="1372.65" y="-430.5" font-family="Helvetica,sans-Serif" font-size="10.00">/Ark/include/Ark/Compiler/AST</text>
<text text-anchor="middle" x="1439.15" y="-419.5" font-family="Helvetica,sans-Serif" font-size="10.00">/Optimizer.hpp</text>
</a>
</g>
</g>
<!-- Node20&#45;&gt;Node21 -->
<g id="edge32" class="edge">
<title>Node20&#45;&gt;Node21</title>
<path fill="none" stroke="midnightblue" d="M1674.63,-501.8C1629.18,-491.58 1573.01,-478.37 1523.15,-465 1520.06,-464.17 1516.91,-463.31 1513.73,-462.42"/>
<polygon fill="midnightblue" stroke="midnightblue" points="1673.94,-505.23 1684.46,-504 1675.47,-498.4 1673.94,-505.23"/>
</g>
<!-- Node23 -->
<g id="node23" class="node">
<title>Node23</title>
<g id="a_node23"><a xlink:href="../../d2/d15/Lexer_8cpp.html" target="_top" xlink:title=" ">
<polygon fill="white" stroke="black" points="1532.15,-412.5 1532.15,-464.5 1674.15,-464.5 1674.15,-412.5 1532.15,-412.5"/>
<text text-anchor="start" x="1540.15" y="-452.5" font-family="Helvetica,sans-Serif" font-size="10.00">C:/Users/folae/Documents</text>
<text text-anchor="start" x="1540.15" y="-441.5" font-family="Helvetica,sans-Serif" font-size="10.00">/Code/Big&#45;Projects/ArkScript</text>
<text text-anchor="start" x="1540.15" y="-430.5" font-family="Helvetica,sans-Serif" font-size="10.00">/Ark/src/arkreactor/Compiler</text>
<text text-anchor="middle" x="1603.15" y="-419.5" font-family="Helvetica,sans-Serif" font-size="10.00">/AST/Lexer.cpp</text>
</a>
</g>
</g>
<!-- Node20&#45;&gt;Node23 -->
<g id="edge35" class="edge">
<title>Node20&#45;&gt;Node23</title>
<path fill="none" stroke="midnightblue" d="M1715.89,-496.93C1695.89,-486.74 1672.59,-474.87 1652.38,-464.58"/>
<polygon fill="midnightblue" stroke="midnightblue" points="1714.33,-500.06 1724.83,-501.48 1717.5,-493.82 1714.33,-500.06"/>
</g>
<!-- Node24 -->
<g id="node24" class="node">
<title>Node24</title>
<g id="a_node24"><a xlink:href="../../dc/d73/Node_8cpp.html" target="_top" xlink:title=" ">
<polygon fill="white" stroke="black" points="1692.15,-412.5 1692.15,-464.5 1834.15,-464.5 1834.15,-412.5 1692.15,-412.5"/>
<text text-anchor="start" x="1700.15" y="-452.5" font-family="Helvetica,sans-Serif" font-size="10.00">C:/Users/folae/Documents</text>
<text text-anchor="start" x="1700.15" y="-441.5" font-family="Helvetica,sans-Serif" font-size="10.00">/Code/Big&#45;Projects/ArkScript</text>
<text text-anchor="start" x="1700.15" y="-430.5" font-family="Helvetica,sans-Serif" font-size="10.00">/Ark/src/arkreactor/Compiler</text>
<text text-anchor="middle" x="1763.15" y="-419.5" font-family="Helvetica,sans-Serif" font-size="10.00">/AST/Node.cpp</text>
</a>
</g>
</g>
<!-- Node20&#45;&gt;Node24 -->
<g id="edge36" class="edge">
<title>Node20&#45;&gt;Node24</title>
<path fill="none" stroke="midnightblue" d="M1763.15,-491.12C1763.15,-482.41 1763.15,-472.99 1763.15,-464.61"/>
<polygon fill="midnightblue" stroke="midnightblue" points="1759.65,-491.27 1763.15,-501.27 1766.65,-491.27 1759.65,-491.27"/>
</g>
<!-- Node25 -->
<g id="node25" class="node">
<title>Node25</title>
<g id="a_node25"><a xlink:href="../../dc/df5/Parser_8cpp.html" target="_top" xlink:title=" ">
<polygon fill="white" stroke="black" points="1852.15,-412.5 1852.15,-464.5 1994.15,-464.5 1994.15,-412.5 1852.15,-412.5"/>
<text text-anchor="start" x="1860.15" y="-452.5" font-family="Helvetica,sans-Serif" font-size="10.00">C:/Users/folae/Documents</text>
<text text-anchor="start" x="1860.15" y="-441.5" font-family="Helvetica,sans-Serif" font-size="10.00">/Code/Big&#45;Projects/ArkScript</text>
<text text-anchor="start" x="1860.15" y="-430.5" font-family="Helvetica,sans-Serif" font-size="10.00">/Ark/src/arkreactor/Compiler</text>
<text text-anchor="middle" x="1923.15" y="-419.5" font-family="Helvetica,sans-Serif" font-size="10.00">/AST/Parser.cpp</text>
</a>
</g>
</g>
<!-- Node20&#45;&gt;Node25 -->
<g id="edge37" class="edge">
<title>Node20&#45;&gt;Node25</title>
<path fill="none" stroke="midnightblue" d="M1810.41,-496.93C1830.41,-486.74 1853.71,-474.87 1873.92,-464.58"/>
<polygon fill="midnightblue" stroke="midnightblue" points="1808.8,-493.82 1801.47,-501.48 1811.97,-500.06 1808.8,-493.82"/>
</g>
<!-- Node26 -->
<g id="node26" class="node">
<title>Node26</title>
<g id="a_node26"><a xlink:href="../../d6/d9a/TypeChecker_8cpp.html" target="_top" xlink:title=" ">
<polygon fill="white" stroke="black" points="2088.15,-418 2088.15,-459 2264.15,-459 2264.15,-418 2088.15,-418"/>
<text text-anchor="start" x="2096.15" y="-447" font-family="Helvetica,sans-Serif" font-size="10.00">C:/Users/folae/Documents</text>
<text text-anchor="start" x="2096.15" y="-436" font-family="Helvetica,sans-Serif" font-size="10.00">/Code/Big&#45;Projects/ArkScript</text>
<text text-anchor="middle" x="2176.15" y="-425" font-family="Helvetica,sans-Serif" font-size="10.00">/Ark/src/arkreactor/TypeChecker.cpp</text>
</a>
</g>
</g>
<!-- Node20&#45;&gt;Node26 -->
<g id="edge39" class="edge">
<title>Node20&#45;&gt;Node26</title>
<path fill="none" stroke="midnightblue" d="M1851.92,-506.64C1914.3,-496.15 1999.59,-481.01 2074.15,-465 2082.72,-463.16 2091.66,-461.11 2100.53,-459"/>
<polygon fill="midnightblue" stroke="midnightblue" points="1851,-503.24 1841.72,-508.35 1852.16,-510.15 1851,-503.24"/>
</g>
<!-- Node21&#45;&gt;Node13 -->
<g id="edge33" class="edge">
<title>Node21&#45;&gt;Node13</title>
<path fill="none" stroke="midnightblue" d="M1523.44,-411.94C1578.97,-395.84 1631.44,-381.26 1672.37,-370.02"/>
<polygon fill="midnightblue" stroke="midnightblue" points="1522.4,-408.6 1513.78,-414.75 1524.36,-415.32 1522.4,-408.6"/>
</g>
<!-- Node22 -->
<g id="node22" class="node">
<title>Node22</title>
<g id="a_node22"><a xlink:href="../../d2/dc5/Optimizer_8cpp.html" target="_top" xlink:title=" ">
<polygon fill="white" stroke="black" points="1490.15,-323.5 1490.15,-375.5 1632.15,-375.5 1632.15,-323.5 1490.15,-323.5"/>
<text text-anchor="start" x="1498.15" y="-363.5" font-family="Helvetica,sans-Serif" font-size="10.00">C:/Users/folae/Documents</text>
<text text-anchor="start" x="1498.15" y="-352.5" font-family="Helvetica,sans-Serif" font-size="10.00">/Code/Big&#45;Projects/ArkScript</text>
<text text-anchor="start" x="1498.15" y="-341.5" font-family="Helvetica,sans-Serif" font-size="10.00">/Ark/src/arkreactor/Compiler</text>
<text text-anchor="middle" x="1561.15" y="-330.5" font-family="Helvetica,sans-Serif" font-size="10.00">/AST/Optimizer.cpp</text>
</a>
</g>
</g>
<!-- Node21&#45;&gt;Node22 -->
<g id="edge34" class="edge">
<title>Node21&#45;&gt;Node22</title>
<path fill="none" stroke="midnightblue" d="M1482.62,-406.5C1496.82,-396.37 1512.42,-385.25 1525.94,-375.61"/>
<polygon fill="midnightblue" stroke="midnightblue" points="1480.55,-403.68 1474.44,-412.34 1484.61,-409.38 1480.55,-403.68"/>
</g>
<!-- Node27&#45;&gt;Node8 -->
<g id="edge41" class="edge">
<title>Node27&#45;&gt;Node8</title>
<path fill="none" stroke="midnightblue" d="M2368.15,-491.11C2368.15,-457.07 2368.15,-399.78 2368.15,-350.5 2368.15,-350.5 2368.15,-350.5 2368.15,-259.5 2368.15,-212.28 2379.71,-187.07 2344.15,-156 2305.02,-121.82 1965.42,-106.97 1815.16,-102.03"/>
<polygon fill="midnightblue" stroke="midnightblue" points="2364.65,-491.31 2368.15,-501.31 2371.65,-491.31 2364.65,-491.31"/>
</g>
<!-- Node27&#45;&gt;Node10 -->
<g id="edge43" class="edge">
<title>Node27&#45;&gt;Node10</title>
<path fill="none" stroke="midnightblue" d="M2357.51,-491.72C2346.27,-458.1 2330.15,-401.07 2330.15,-350.5 2330.15,-350.5 2330.15,-350.5 2330.15,-259.5 2330.15,-250.62 1825.19,-152.4 1629.42,-114.66"/>
<polygon fill="midnightblue" stroke="midnightblue" points="2354.27,-493.04 2360.82,-501.37 2360.89,-490.77 2354.27,-493.04"/>
</g>
<!-- Node27&#45;&gt;Node26 -->
<g id="edge42" class="edge">
<title>Node27&#45;&gt;Node26</title>
<path fill="none" stroke="midnightblue" d="M2312.67,-497.45C2283.95,-485.26 2249.3,-470.55 2222.1,-459"/>
<polygon fill="midnightblue" stroke="midnightblue" points="2311.59,-500.79 2322.16,-501.48 2314.32,-494.35 2311.59,-500.79"/>
</g>
<!-- Node28&#45;&gt;Node7 -->
<g id="edge45" class="edge">
<title>Node28&#45;&gt;Node7</title>
<path fill="none" stroke="midnightblue" d="M398.02,-408.19C411.8,-362.91 444.86,-276.71 506.15,-234 548.06,-204.79 686.14,-189.54 772,-182.68"/>
<polygon fill="midnightblue" stroke="midnightblue" points="394.6,-407.4 395.14,-417.99 401.32,-409.38 394.6,-407.4"/>
</g>
<!-- Node29&#45;&gt;Node7 -->
<g id="edge48" class="edge">
<title>Node29&#45;&gt;Node7</title>
<path fill="none" stroke="midnightblue" d="M782.86,-509.02C687.77,-495.54 548.03,-474.33 540.15,-465 446.88,-354.57 682.99,-241.96 791.76,-197.63"/>
<polygon fill="midnightblue" stroke="midnightblue" points="782.38,-512.48 792.78,-510.42 783.36,-505.55 782.38,-512.48"/>
</g>
<!-- Node29&#45;&gt;Node28 -->
<g id="edge47" class="edge">
<title>Node29&#45;&gt;Node28</title>
<path fill="none" stroke="midnightblue" d="M782.67,-509.14C708.77,-498.74 600.25,-482.56 506.15,-465 496.42,-463.18 486.26,-461.15 476.18,-459.05"/>
<polygon fill="midnightblue" stroke="midnightblue" points="782.47,-512.64 792.86,-510.57 783.45,-505.71 782.47,-512.64"/>
</g>
<!-- Node30 -->
<g id="node30" class="node">
<title>Node30</title>
<g id="a_node30"><a xlink:href="../../d5/d04/Scope_8cpp.html" target="_top" xlink:title=" ">
<polygon fill="white" stroke="black" points="787.65,-418 787.65,-459 952.65,-459 952.65,-418 787.65,-418"/>
<text text-anchor="start" x="795.65" y="-447" font-family="Helvetica,sans-Serif" font-size="10.00">C:/Users/folae/Documents</text>
<text text-anchor="start" x="795.65" y="-436" font-family="Helvetica,sans-Serif" font-size="10.00">/Code/Big&#45;Projects/ArkScript</text>
<text text-anchor="middle" x="870.15" y="-425" font-family="Helvetica,sans-Serif" font-size="10.00">/Ark/src/arkreactor/VM/Scope.cpp</text>
</a>
</g>
</g>
<!-- Node29&#45;&gt;Node30 -->
<g id="edge49" class="edge">
<title>Node29&#45;&gt;Node30</title>
<path fill="none" stroke="midnightblue" d="M870.15,-491.06C870.15,-480.38 870.15,-468.63 870.15,-459.05"/>
<polygon fill="midnightblue" stroke="midnightblue" points="866.65,-491.27 870.15,-501.27 873.65,-491.27 866.65,-491.27"/>
</g>
<!-- Node31 -->
<g id="node31" class="node">
<title>Node31</title>
<g id="a_node31"><a xlink:href="../../d1/db2/Closure_8cpp.html" target="_top" xlink:title=" ">
<polygon fill="white" stroke="black" points="970.65,-412.5 970.65,-464.5 1113.65,-464.5 1113.65,-412.5 970.65,-412.5"/>
<text text-anchor="start" x="978.65" y="-452.5" font-family="Helvetica,sans-Serif" font-size="10.00">C:/Users/folae/Documents</text>
<text text-anchor="start" x="978.65" y="-441.5" font-family="Helvetica,sans-Serif" font-size="10.00">/Code/Big&#45;Projects/ArkScript</text>
<text text-anchor="start" x="978.65" y="-430.5" font-family="Helvetica,sans-Serif" font-size="10.00">/Ark/src/arkreactor/VM/Value</text>
<text text-anchor="middle" x="1042.15" y="-419.5" font-family="Helvetica,sans-Serif" font-size="10.00">/Closure.cpp</text>
</a>
</g>
</g>
<!-- Node29&#45;&gt;Node31 -->
<g id="edge50" class="edge">
<title>Node29&#45;&gt;Node31</title>
<path fill="none" stroke="midnightblue" d="M920.66,-497.07C942.23,-486.85 967.4,-474.92 989.23,-464.58"/>
<polygon fill="midnightblue" stroke="midnightblue" points="918.89,-494.03 911.35,-501.48 921.88,-500.36 918.89,-494.03"/>
</g>
<!-- Node33&#45;&gt;Node17 -->
<g id="edge55" class="edge">
<title>Node33&#45;&gt;Node17</title>
<path fill="none" stroke="midnightblue" d="M1172.15,-658.06C1172.15,-647.38 1172.15,-635.63 1172.15,-626.05"/>
<polygon fill="midnightblue" stroke="midnightblue" points="1168.65,-658.27 1172.15,-668.27 1175.65,-658.27 1168.65,-658.27"/>
</g>
<!-- Node33&#45;&gt;Node31 -->
<g id="edge56" class="edge">
<title>Node33&#45;&gt;Node31</title>
<path fill="none" stroke="midnightblue" d="M1216.08,-662.95C1274.24,-626.67 1364.24,-557.64 1317.15,-501 1261.08,-433.57 1208.24,-486.21 1123.15,-465 1120.15,-464.25 1117.09,-463.45 1114.01,-462.62"/>
<polygon fill="midnightblue" stroke="midnightblue" points="1214.1,-660.06 1207.4,-668.27 1217.76,-666.03 1214.1,-660.06"/>
</g>
<!-- Node34&#45;&gt;Node17 -->
<g id="edge58" class="edge">
<title>Node34&#45;&gt;Node17</title>
<path fill="none" stroke="midnightblue" d="M1321.57,-664.77C1290.15,-652.51 1252.03,-637.65 1222.16,-626"/>
<polygon fill="midnightblue" stroke="midnightblue" points="1320.5,-668.11 1331.09,-668.48 1323.04,-661.58 1320.5,-668.11"/>
</g>
<!-- Node35 -->
<g id="node35" class="node">
<title>Node35</title>
<g id="a_node35"><a xlink:href="../../d6/d0f/UserType_8cpp.html" target="_top" xlink:title=" ">
<polygon fill="white" stroke="black" points="1402.65,-579.5 1402.65,-631.5 1545.65,-631.5 1545.65,-579.5 1402.65,-579.5"/>
<text text-anchor="start" x="1410.65" y="-619.5" font-family="Helvetica,sans-Serif" font-size="10.00">C:/Users/folae/Documents</text>
<text text-anchor="start" x="1410.65" y="-608.5" font-family="Helvetica,sans-Serif" font-size="10.00">/Code/Big&#45;Projects/ArkScript</text>
<text text-anchor="start" x="1410.65" y="-597.5" font-family="Helvetica,sans-Serif" font-size="10.00">/Ark/src/arkreactor/VM/Value</text>
<text text-anchor="middle" x="1474.15" y="-586.5" font-family="Helvetica,sans-Serif" font-size="10.00">/UserType.cpp</text>
</a>
</g>
</g>
<!-- Node34&#45;&gt;Node35 -->
<g id="edge59" class="edge">
<title>Node34&#45;&gt;Node35</title>
<path fill="none" stroke="midnightblue" d="M1411.36,-661.52C1422.33,-651.92 1434.67,-641.09 1445.5,-631.61"/>
<polygon fill="midnightblue" stroke="midnightblue" points="1408.88,-659.05 1403.66,-668.27 1413.49,-664.31 1408.88,-659.05"/>
</g>
</g>
</svg>
