<?xml version="1.0" encoding="UTF-8" standalone="no"?>
<!DOCTYPE svg PUBLIC "-//W3C//DTD SVG 1.1//EN"
 "http://www.w3.org/Graphics/SVG/1.1/DTD/svg11.dtd">
<!-- Generated by graphviz version 2.49.0 (20210828.1703)
 -->
<!-- Title: C:/Users/folae/Documents/Code/Big&#45;Projects/ArkScript/Ark/include/Ark/Compiler/MacroExecutors/ConditionalExecutor.hpp Pages: 1 -->
<svg width="368pt" height="150pt"
 viewBox="0.00 0.00 368.00 150.00" xmlns="http://www.w3.org/2000/svg" xmlns:xlink="http://www.w3.org/1999/xlink">
<g id="graph0" class="graph" transform="scale(1 1) rotate(0) translate(4 146)">
<title>C:/Users/folae/Documents/Code/Big&#45;Projects/ArkScript/Ark/include/Ark/Compiler/MacroExecutors/ConditionalExecutor.hpp</title>
<polygon fill="white" stroke="transparent" points="-4,4 -4,-146 364,-146 364,4 -4,4"/>
<!-- Node1 -->
<g id="node1" class="node">
<title>Node1</title>
<g id="a_node1"><a xlink:title="Executor for Conditional Macros.">
<polygon fill="#bfbfbf" stroke="black" points="93,-89.5 93,-141.5 295,-141.5 295,-89.5 93,-89.5"/>
<text text-anchor="start" x="101" y="-129.5" font-family="Helvetica,sans-Serif" font-size="10.00">C:/Users/folae/Documents</text>
<text text-anchor="start" x="101" y="-118.5" font-family="Helvetica,sans-Serif" font-size="10.00">/Code/Big&#45;Projects/ArkScript</text>
<text text-anchor="start" x="101" y="-107.5" font-family="Helvetica,sans-Serif" font-size="10.00">/Ark/include/Ark/Compiler/MacroExecutors</text>
<text text-anchor="middle" x="194" y="-96.5" font-family="Helvetica,sans-Serif" font-size="10.00">/ConditionalExecutor.hpp</text>
</a>
</g>
</g>
<!-- Node2 -->
<g id="node2" class="node">
<title>Node2</title>
<g id="a_node2"><a xlink:href="../../da/d58/ConditionalExecutor_8cpp.html" target="_top" xlink:title=" ">
<polygon fill="white" stroke="black" points="0,-0.5 0,-52.5 200,-52.5 200,-0.5 0,-0.5"/>
<text text-anchor="start" x="8" y="-40.5" font-family="Helvetica,sans-Serif" font-size="10.00">C:/Users/folae/Documents</text>
<text text-anchor="start" x="8" y="-29.5" font-family="Helvetica,sans-Serif" font-size="10.00">/Code/Big&#45;Projects/ArkScript</text>
<text text-anchor="start" x="8" y="-18.5" font-family="Helvetica,sans-Serif" font-size="10.00">/Ark/src/arkreactor/Compiler</text>
<text text-anchor="middle" x="100" y="-7.5" font-family="Helvetica,sans-Serif" font-size="10.00">/MacroExecutors/ConditionalExecutor.cpp</text>
</a>
</g>
</g>
<!-- Node1&#45;&gt;Node2 -->
<g id="edge1" class="edge">
<title>Node1&#45;&gt;Node2</title>
<path fill="none" stroke="midnightblue" d="M159.28,-82.36C148.67,-72.54 137.16,-61.89 127.13,-52.61"/>
<polygon fill="midnightblue" stroke="midnightblue" points="157.09,-85.11 166.81,-89.34 161.85,-79.97 157.09,-85.11"/>
</g>
<!-- Node3 -->
<g id="node3" class="node">
<title>Node3</title>
<g id="a_node3"><a xlink:href="../../dc/db7/MacroProcessor_8cpp.html" target="_top" xlink:title=" ">
<polygon fill="white" stroke="black" points="218,-0.5 218,-52.5 360,-52.5 360,-0.5 218,-0.5"/>
<text text-anchor="start" x="226" y="-40.5" font-family="Helvetica,sans-Serif" font-size="10.00">C:/Users/folae/Documents</text>
<text text-anchor="start" x="226" y="-29.5" font-family="Helvetica,sans-Serif" font-size="10.00">/Code/Big&#45;Projects/ArkScript</text>
<text text-anchor="start" x="226" y="-18.5" font-family="Helvetica,sans-Serif" font-size="10.00">/Ark/src/arkreactor/Compiler</text>
<text text-anchor="middle" x="289" y="-7.5" font-family="Helvetica,sans-Serif" font-size="10.00">/MacroProcessor.cpp</text>
</a>
</g>
</g>
<!-- Node1&#45;&gt;Node3 -->
<g id="edge2" class="edge">
<title>Node1&#45;&gt;Node3</title>
<path fill="none" stroke="midnightblue" d="M229.09,-82.36C239.82,-72.54 251.45,-61.89 261.58,-52.61"/>
<polygon fill="midnightblue" stroke="midnightblue" points="226.49,-80 221.48,-89.34 231.22,-85.16 226.49,-80"/>
</g>
</g>
</svg>
