<?xml version="1.0" encoding="UTF-8" standalone="no"?>
<!DOCTYPE svg PUBLIC "-//W3C//DTD SVG 1.1//EN"
 "http://www.w3.org/Graphics/SVG/1.1/DTD/svg11.dtd">
<!-- Generated by graphviz version 12.1.1 (20240910.0053)
 -->
<!-- Title: Ark::internal::Compiler Pages: 1 -->
<!--zoomable 215 -->

<svg id="main" version="1.1" xmlns="http://www.w3.org/2000/svg" xmlns:xlink="http://www.w3.org/1999/xlink" xml:space="preserve" onload="init(evt)">

<style type="text/css"><![CDATA[
.node, .edge {opacity: 0.7;}
.node.selected, .edge.selected {opacity: 1;}
.edge:hover path { stroke: red; }
.edge:hover polygon { stroke: red; fill: red; }
]]></style>

<defs>
  <circle id="rim" cx="0" cy="0" r="7"/>
  <circle id="rim2" cx="0" cy="0" r="3.5"/>
  <g id="zoomPlus">
    <use xlink:href="#rim" fill="#404040"><set attributeName="fill" to="#808080" begin="zoomplus.mouseover" end="zoomplus.mouseout"/></use>
    <path d="M-4,0h8M0,-4v8" fill="none" stroke="white" stroke-width="1.5" pointer-events="none"/>
  </g>
  <g id="zoomMin">
    <use xlink:href="#rim" fill="#404040"><set attributeName="fill" to="#808080" begin="zoomminus.mouseover" end="zoomminus.mouseout"/></use>
    <path d="M-4,0h8" fill="none" stroke="white" stroke-width="1.5" pointer-events="none"/>
  </g>
  <g id="arrowUp" transform="translate(30 24)">
    <use xlink:href="#rim"/>
    <path pointer-events="none" fill="none" stroke="white" stroke-width="1.5" d="M0,-3.0v7 M-2.5,-0.5L0,-3.0L2.5,-0.5"/>
  </g>
  <g id="arrowRight" transform="rotate(90) translate(36 -43)">
    <use xlink:href="#rim"/>
    <path pointer-events="none" fill="none" stroke="white" stroke-width="1.5" d="M0,-3.0v7 M-2.5,-0.5L0,-3.0L2.5,-0.5"/>
  </g>
  <g id="arrowDown" transform="rotate(180) translate(-30 -48)">
    <use xlink:href="#rim"/>
    <path pointer-events="none" fill="none" stroke="white" stroke-width="1.5" d="M0,-3.0v7 M-2.5,-0.5L0,-3.0L2.5,-0.5"/>
  </g>
  <g id="arrowLeft" transform="rotate(270) translate(-36 17)">
    <use xlink:href="#rim"/>
    <path pointer-events="none" fill="none" stroke="white" stroke-width="1.5" d="M0,-3.0v7 M-2.5,-0.5L0,-3.0L2.5,-0.5"/>
  </g>
  <g id="resetDef">
    <use xlink:href="#rim2" fill="#404040"><set attributeName="fill" to="#808080" begin="reset.mouseover" end="reset.mouseout"/></use>
  </g>
</defs>
<script type="application/ecmascript">
var viewWidth = 800;
var viewHeight = 215;
var sectionId = 'dynsection-0';
</script>
<script type="application/ecmascript" xlink:href="../../svg.min.js"/>
<svg id="graph" class="graph">
<g id="viewport">
<title>Ark::internal::Compiler</title>
<!-- Node1 -->
<g id="Node000001" class="node">
<title>Node1</title>
<g id="a_Node000001"><a xlink:title="The ArkScript bytecode compiler.">
<polygon fill="#999999" stroke="#666666" points="791.5,-110.25 678,-110.25 678,-91 791.5,-91 791.5,-110.25"/>
<text text-anchor="middle" x="734.75" y="-96.75" font-family="Helvetica,sans-Serif" font-size="10.00">Ark::internal::Compiler</text>
</a>
</g>
</g>
<!-- Node2 -->
<g id="Node000002" class="node">
<title>Node2</title>
<g id="a_Node000002"><a xlink:title=" ">
<polygon fill="white" stroke="#666666" points="573,-167.25 449,-167.25 449,-148 573,-148 573,-167.25"/>
<text text-anchor="middle" x="511" y="-153.75" font-family="Helvetica,sans-Serif" font-size="10.00">std::vector&lt; std::string &gt;</text>
</a>
</g>
</g>
<!-- Node2&#45;&gt;Node1 -->
<g id="edge1_Node000001_Node000002" class="edge">
<title>Node2&#45;&gt;Node1</title>
<g id="a_edge1_Node000001_Node000002"><a xlink:title=" ">
<path fill="none" stroke="#9a32cd" stroke-dasharray="5,2" d="M583.29,-145.43C607.8,-140.65 635.28,-134.61 660,-127.62 676.66,-122.91 694.94,-116.23 709.14,-110.7"/>
<polygon fill="#9a32cd" stroke="#9a32cd" points="582.91,-141.94 573.75,-147.26 584.23,-148.82 582.91,-141.94"/>
</a>
</g>
<text text-anchor="middle" x="625.5" y="-145.53" font-family="Helvetica,sans-Serif" font-size="10.00" fill="grey"> m_symbols</text>
</g>
<!-- Node3 -->
<g id="Node000003" class="node">
<title>Node3</title>
<g id="a_Node000003"><a xlink:title=" ">
<polygon fill="white" stroke="#666666" points="269.38,-201.25 209.88,-201.25 209.88,-182 269.38,-182 269.38,-201.25"/>
<text text-anchor="middle" x="239.62" y="-187.75" font-family="Helvetica,sans-Serif" font-size="10.00">std::string</text>
</a>
</g>
</g>
<!-- Node3&#45;&gt;Node2 -->
<g id="edge2_Node000002_Node000003" class="edge">
<title>Node3&#45;&gt;Node2</title>
<g id="a_edge2_Node000002_Node000003"><a xlink:title=" ">
<path fill="none" stroke="#9a32cd" stroke-dasharray="5,2" d="M280.95,-187.39C319.52,-183.23 379.3,-176.54 431,-169.62 436.78,-168.85 442.78,-168.01 448.79,-167.14"/>
<polygon fill="#9a32cd" stroke="#9a32cd" points="280.77,-183.89 271.2,-188.43 281.51,-190.85 280.77,-183.89"/>
</a>
</g>
<text text-anchor="middle" x="377.75" y="-183.99" font-family="Helvetica,sans-Serif" font-size="10.00" fill="grey"> elements</text>
</g>
<!-- Node4 -->
<g id="Node000004" class="node">
<title>Node4</title>
<g id="a_Node000004"><a xlink:title=" ">
<polygon fill="white" stroke="#666666" points="94,-206.88 0,-206.88 0,-176.38 94,-176.38 94,-206.88"/>
<text text-anchor="start" x="8" y="-193.38" font-family="Helvetica,sans-Serif" font-size="10.00">std::basic_string&lt;</text>
<text text-anchor="middle" x="47" y="-182.12" font-family="Helvetica,sans-Serif" font-size="10.00"> Char &gt;</text>
</a>
</g>
</g>
<!-- Node4&#45;&gt;Node3 -->
<g id="edge3_Node000003_Node000004" class="edge">
<title>Node4&#45;&gt;Node3</title>
<g id="a_edge3_Node000003_Node000004"><a xlink:title=" ">
<path fill="none" stroke="#63b8ff" d="M105.45,-191.62C139.78,-191.62 181.93,-191.62 209.5,-191.62"/>
<polygon fill="#63b8ff" stroke="#63b8ff" points="105.66,-188.13 95.66,-191.63 105.66,-195.13 105.66,-188.13"/>
</a>
</g>
</g>
<!-- Node5 -->
<g id="Node000005" class="node">
<title>Node5</title>
<g id="a_Node000005"><a xlink:title=" ">
<polygon fill="white" stroke="#666666" points="282.88,-116.25 196.38,-116.25 196.38,-97 282.88,-97 282.88,-116.25"/>
<text text-anchor="middle" x="239.62" y="-102.75" font-family="Helvetica,sans-Serif" font-size="10.00">std::vector&lt; T &gt;</text>
</a>
</g>
</g>
<!-- Node5&#45;&gt;Node2 -->
<g id="edge4_Node000002_Node000005" class="edge">
<title>Node5&#45;&gt;Node2</title>
<g id="a_edge4_Node000002_Node000005"><a xlink:title=" ">
<path fill="none" stroke="orange" stroke-dasharray="5,2" d="M294.53,-116.83C341.72,-125.77 409.9,-138.67 456.86,-147.56"/>
<polygon fill="orange" stroke="orange" points="295.27,-113.41 284.8,-114.99 293.97,-120.29 295.27,-113.41"/>
</a>
</g>
<text text-anchor="middle" x="377.75" y="-144.31" font-family="Helvetica,sans-Serif" font-size="10.00" fill="grey"> &lt; std::string &gt;</text>
</g>
<!-- Node7 -->
<g id="Node000007" class="node">
<title>Node7</title>
<g id="a_Node000007"><a xlink:title=" ">
<polygon fill="white" stroke="#666666" points="572.62,-58.88 449.38,-58.88 449.38,-28.38 572.62,-28.38 572.62,-58.88"/>
<text text-anchor="start" x="457.38" y="-45.38" font-family="Helvetica,sans-Serif" font-size="10.00">std::vector&lt; Ark::internal</text>
<text text-anchor="middle" x="511" y="-34.12" font-family="Helvetica,sans-Serif" font-size="10.00">::ValTableElem &gt;</text>
</a>
</g>
</g>
<!-- Node5&#45;&gt;Node7 -->
<g id="edge8_Node000007_Node000005" class="edge">
<title>Node5&#45;&gt;Node7</title>
<g id="a_edge8_Node000007_Node000005"><a xlink:title=" ">
<path fill="none" stroke="orange" stroke-dasharray="5,2" d="M262.85,-90.07C279.05,-78.95 302.02,-65.11 324.5,-58.12 364.76,-45.62 412.18,-42.1 448.99,-41.65"/>
<polygon fill="orange" stroke="orange" points="261.07,-87.04 254.93,-95.67 265.11,-92.75 261.07,-87.04"/>
</a>
</g>
<text text-anchor="start" x="324.5" y="-71.12" font-family="Helvetica,sans-Serif" font-size="10.00" fill="grey"> &lt; Ark::internal::ValTable</text>
<text text-anchor="middle" x="377.75" y="-59.88" font-family="Helvetica,sans-Serif" font-size="10.00" fill="grey">Elem &gt;</text>
</g>
<!-- Node9 -->
<g id="Node000009" class="node">
<title>Node9</title>
<g id="a_Node000009"><a xlink:title=" ">
<polygon fill="white" stroke="#666666" points="571.88,-110.25 450.12,-110.25 450.12,-91 571.88,-91 571.88,-110.25"/>
<text text-anchor="middle" x="511" y="-96.75" font-family="Helvetica,sans-Serif" font-size="10.00">std::vector&lt; IR::Block &gt;</text>
</a>
</g>
</g>
<!-- Node5&#45;&gt;Node9 -->
<g id="edge10_Node000009_Node000005" class="edge">
<title>Node5&#45;&gt;Node9</title>
<g id="a_edge10_Node000009_Node000005"><a xlink:title=" ">
<path fill="none" stroke="#9a32cd" stroke-dasharray="5,2" d="M294.57,-105.42C339.42,-104.42 403.21,-103 449.74,-101.97"/>
<polygon fill="#9a32cd" stroke="#9a32cd" points="294.74,-101.92 284.82,-105.64 294.9,-108.92 294.74,-101.92"/>
</a>
</g>
<text text-anchor="middle" x="377.75" y="-106.43" font-family="Helvetica,sans-Serif" font-size="10.00" fill="grey"> elements</text>
</g>
<!-- Node5&#45;&gt;Node9 -->
<g id="edge11_Node000009_Node000005" class="edge">
<title>Node5&#45;&gt;Node9</title>
<g id="a_edge11_Node000009_Node000005"><a xlink:title=" ">
<path fill="none" stroke="orange" stroke-dasharray="5,2" d="M289.79,-94.09C301.11,-91.71 313.17,-89.59 324.5,-88.38 371.56,-83.31 383.81,-84.74 431,-88.38 437.64,-88.89 444.57,-89.64 451.45,-90.52"/>
<polygon fill="orange" stroke="orange" points="289.25,-90.62 280.24,-96.2 290.75,-97.46 289.25,-90.62"/>
</a>
</g>
<text text-anchor="middle" x="377.75" y="-90.12" font-family="Helvetica,sans-Serif" font-size="10.00" fill="grey"> &lt; IR::Block &gt;</text>
</g>
<!-- Node6 -->
<g id="Node000006" class="node">
<title>Node6</title>
<g id="a_Node000006"><a xlink:title=" ">
<polygon fill="white" stroke="#666666" points="61.4,-116.25 32.6,-116.25 32.6,-97 61.4,-97 61.4,-116.25"/>
<text text-anchor="middle" x="47" y="-102.75" font-family="Helvetica,sans-Serif" font-size="10.00">T</text>
</a>
</g>
</g>
<!-- Node6&#45;&gt;Node5 -->
<g id="edge5_Node000005_Node000006" class="edge">
<title>Node6&#45;&gt;Node5</title>
<g id="a_edge5_Node000005_Node000006"><a xlink:title=" ">
<path fill="none" stroke="#9a32cd" stroke-dasharray="5,2" d="M72.86,-106.62C104.12,-106.62 158.29,-106.62 196.17,-106.62"/>
<polygon fill="#9a32cd" stroke="#9a32cd" points="73.22,-103.13 63.22,-106.63 73.22,-110.13 73.22,-103.13"/>
</a>
</g>
<text text-anchor="middle" x="133.38" y="-108.38" font-family="Helvetica,sans-Serif" font-size="10.00" fill="grey"> elements</text>
</g>
<!-- Node7&#45;&gt;Node1 -->
<g id="edge6_Node000001_Node000007" class="edge">
<title>Node7&#45;&gt;Node1</title>
<g id="a_edge6_Node000001_Node000007"><a xlink:title=" ">
<path fill="none" stroke="#9a32cd" stroke-dasharray="5,2" d="M583.59,-62.03C620.45,-71.5 663.97,-82.69 694.64,-90.57"/>
<polygon fill="#9a32cd" stroke="#9a32cd" points="584.91,-58.75 574.35,-59.65 583.17,-65.53 584.91,-58.75"/>
</a>
</g>
<text text-anchor="middle" x="625.5" y="-82.31" font-family="Helvetica,sans-Serif" font-size="10.00" fill="grey"> m_values</text>
</g>
<!-- Node8 -->
<g id="Node000008" class="node">
<title>Node8</title>
<g id="a_Node000008"><a xlink:href="../../d8/dc4/structArk_1_1internal_1_1ValTableElem.html" target="_top" xlink:title="A Compiler Value class helper to handle multiple types.">
<polygon fill="white" stroke="#666666" points="306.5,-19.25 172.75,-19.25 172.75,0 306.5,0 306.5,-19.25"/>
<text text-anchor="middle" x="239.62" y="-5.75" font-family="Helvetica,sans-Serif" font-size="10.00">Ark::internal::ValTableElem</text>
</a>
</g>
</g>
<!-- Node8&#45;&gt;Node7 -->
<g id="edge7_Node000007_Node000008" class="edge">
<title>Node8&#45;&gt;Node7</title>
<g id="a_edge7_Node000007_Node000008"><a xlink:title=" ">
<path fill="none" stroke="#9a32cd" stroke-dasharray="5,2" d="M317.99,-3.09C352.85,-1.89 394.33,-2.9 431,-10.38 448.06,-13.85 466.03,-21.1 480.51,-27.94"/>
<polygon fill="#9a32cd" stroke="#9a32cd" points="318.27,0.43 308.43,-3.49 318.57,-6.57 318.27,0.43"/>
</a>
</g>
<text text-anchor="middle" x="377.75" y="-12.12" font-family="Helvetica,sans-Serif" font-size="10.00" fill="grey"> elements</text>
</g>
<!-- Node9&#45;&gt;Node1 -->
<g id="edge9_Node000001_Node000009" class="edge">
<title>Node9&#45;&gt;Node1</title>
<g id="a_edge9_Node000001_Node000009"><a xlink:title=" ">
<path fill="none" stroke="#9a32cd" stroke-dasharray="5,2" d="M583.73,-100.62C614.17,-100.62 649.14,-100.62 677.65,-100.62"/>
<polygon fill="#9a32cd" stroke="#9a32cd" points="583.81,-97.13 573.81,-100.63 583.81,-104.13 583.81,-97.13"/>
</a>
</g>
<text text-anchor="middle" x="625.5" y="-113.62" font-family="Helvetica,sans-Serif" font-size="10.00" fill="grey"> m_code_pages</text>
<text text-anchor="middle" x="625.5" y="-102.38" font-family="Helvetica,sans-Serif" font-size="10.00" fill="grey">m_temp_pages</text>
</g>
</g>
</svg>

<g id="navigator" transform="translate(0 0)" fill="#404254">
  <rect fill="#f2f5e9" fill-opacity="0.5" stroke="#606060" stroke-width=".5" x="0" y="0" width="60" height="60"/>
  <use id="zoomplus" xlink:href="#zoomPlus" x="17" y="9" onmousedown="handleZoom(evt,'in')"/>
  <use id="zoomminus" xlink:href="#zoomMin" x="42" y="9" onmousedown="handleZoom(evt,'out')"/>
  <use id="reset" xlink:href="#resetDef" x="30" y="36" onmousedown="handleReset()"/>
   <use id="arrowup" xlink:href="#arrowUp" x="0" y="0" onmousedown="handlePan(0,-1)"/>
  <use id="arrowright" xlink:href="#arrowRight" x="0" y="0" onmousedown="handlePan(1,0)"/>
  <use id="arrowdown" xlink:href="#arrowDown" x="0" y="0" onmousedown="handlePan(0,1)"/>
  <use id="arrowleft" xlink:href="#arrowLeft" x="0" y="0" onmousedown="handlePan(-1,0)"/>
</g>
<svg viewBox="0 0 15 15" width="100%" height="30px" preserveAspectRatio="xMaxYMin meet">
 <g id="arrow_out" transform="scale(0.3 0.3)">
  <a xlink:href="classArk_1_1internal_1_1Compiler__coll__graph_org.svg" target="_base">
   <rect id="button" ry="5" rx="5" y="6" x="6" height="38" width="38"
        fill="#f2f5e9" fill-opacity="0.5" stroke="#606060" stroke-width="1.0"/>
   <path id="arrow"
     d="M 11.500037,31.436501 C 11.940474,20.09759 22.043105,11.32322 32.158766,21.979434 L 37.068811,17.246167 C 37.068811,17.246167 37.088388,32 37.088388,32 L 22.160133,31.978069 C 22.160133,31.978069 26.997745,27.140456 26.997745,27.140456 C 18.528582,18.264221 13.291696,25.230495 11.500037,31.436501 z"
     style="fill:#404040;"/>
  </a>
 </g>
</svg>

<style type='text/css'>
<![CDATA[
[data-mouse-over-selected='false'] { opacity: 0.7; }
[data-mouse-over-selected='true']  { opacity: 1.0; }
]]>
</style>
<script type="application/ecmascript"><![CDATA[
document.addEventListener('DOMContentLoaded', (event) => {
  highlightEdges();
  highlightAdjacentNodes();
});
]]></script>
</svg>
