<?xml version="1.0" encoding="UTF-8" standalone="no"?>
<!DOCTYPE svg PUBLIC "-//W3C//DTD SVG 1.1//EN"
 "http://www.w3.org/Graphics/SVG/1.1/DTD/svg11.dtd">
<!-- Generated by graphviz version 2.43.0 (0)
 -->
<!-- Title: /home/fola/code/Ark/include/Ark/VM/Value/Closure.hpp Pages: 1 -->
<svg width="328pt" height="106pt"
 viewBox="0.00 0.00 327.50 106.00" xmlns="http://www.w3.org/2000/svg" xmlns:xlink="http://www.w3.org/1999/xlink">
<g id="graph0" class="graph" transform="scale(1 1) rotate(0) translate(4 102)">
<title>/home/fola/code/Ark/include/Ark/VM/Value/Closure.hpp</title>
<polygon fill="white" stroke="transparent" points="-4,4 -4,-102 323.5,-102 323.5,4 -4,4"/>
<!-- Node1 -->
<g id="node1" class="node">
<title>Node1</title>
<g id="a_node1"><a xlink:title="Subtype of the value type, handling closures.">
<polygon fill="#bfbfbf" stroke="black" points="74.5,-56.5 74.5,-97.5 197.5,-97.5 197.5,-56.5 74.5,-56.5"/>
<text text-anchor="start" x="82.5" y="-85.5" font-family="Helvetica,sans-Serif" font-size="10.00">/home/fola/code/Ark</text>
<text text-anchor="start" x="82.5" y="-74.5" font-family="Helvetica,sans-Serif" font-size="10.00">/include/Ark/VM/Value</text>
<text text-anchor="middle" x="136" y="-63.5" font-family="Helvetica,sans-Serif" font-size="10.00">/Closure.hpp</text>
</a>
</g>
</g>
<!-- Node2 -->
<g id="node2" class="node">
<title>Node2</title>
<g id="a_node2"><a xlink:title=" ">
<polygon fill="white" stroke="#bfbfbf" points="0,-0.5 0,-19.5 58,-19.5 58,-0.5 0,-0.5"/>
<text text-anchor="middle" x="29" y="-7.5" font-family="Helvetica,sans-Serif" font-size="10.00">memory</text>
</a>
</g>
</g>
<!-- Node1&#45;&gt;Node2 -->
<g id="edge1" class="edge">
<title>Node1&#45;&gt;Node2</title>
<path fill="none" stroke="midnightblue" d="M103.9,-56.5C87.18,-46.34 67.12,-34.16 51.97,-24.95"/>
<polygon fill="midnightblue" stroke="midnightblue" points="53.61,-21.85 43.24,-19.65 49.97,-27.84 53.61,-21.85"/>
</g>
<!-- Node3 -->
<g id="node3" class="node">
<title>Node3</title>
<g id="a_node3"><a xlink:title=" ">
<polygon fill="white" stroke="#bfbfbf" points="76.5,-0.5 76.5,-19.5 123.5,-19.5 123.5,-0.5 76.5,-0.5"/>
<text text-anchor="middle" x="100" y="-7.5" font-family="Helvetica,sans-Serif" font-size="10.00">vector</text>
</a>
</g>
</g>
<!-- Node1&#45;&gt;Node3 -->
<g id="edge2" class="edge">
<title>Node1&#45;&gt;Node3</title>
<path fill="none" stroke="midnightblue" d="M125.2,-56.5C120.26,-47.59 114.46,-37.11 109.67,-28.46"/>
<polygon fill="midnightblue" stroke="midnightblue" points="112.7,-26.7 104.79,-19.65 106.58,-30.1 112.7,-26.7"/>
</g>
<!-- Node4 -->
<g id="node4" class="node">
<title>Node4</title>
<g id="a_node4"><a xlink:title=" ">
<polygon fill="white" stroke="#bfbfbf" points="142,-0.5 142,-19.5 202,-19.5 202,-0.5 142,-0.5"/>
<text text-anchor="middle" x="172" y="-7.5" font-family="Helvetica,sans-Serif" font-size="10.00">iostream</text>
</a>
</g>
</g>
<!-- Node1&#45;&gt;Node4 -->
<g id="edge3" class="edge">
<title>Node1&#45;&gt;Node4</title>
<path fill="none" stroke="midnightblue" d="M146.8,-56.5C151.74,-47.59 157.54,-37.11 162.33,-28.46"/>
<polygon fill="midnightblue" stroke="midnightblue" points="165.42,-30.1 167.21,-19.65 159.3,-26.7 165.42,-30.1"/>
</g>
<!-- Node5 -->
<g id="node5" class="node">
<title>Node5</title>
<g id="a_node5"><a xlink:href="../../d5/d40/Platform_8hpp.html" target="_top" xlink:title="ArkScript configuration macros.">
<polygon fill="white" stroke="black" points="220.5,-0.5 220.5,-19.5 319.5,-19.5 319.5,-0.5 220.5,-0.5"/>
<text text-anchor="middle" x="270" y="-7.5" font-family="Helvetica,sans-Serif" font-size="10.00">Ark/Platform.hpp</text>
</a>
</g>
</g>
<!-- Node1&#45;&gt;Node5 -->
<g id="edge4" class="edge">
<title>Node1&#45;&gt;Node5</title>
<path fill="none" stroke="midnightblue" d="M176.2,-56.5C197.84,-46.01 223.93,-33.35 243.1,-24.05"/>
<polygon fill="midnightblue" stroke="midnightblue" points="244.69,-27.17 252.16,-19.65 241.64,-20.87 244.69,-27.17"/>
</g>
</g>
</svg>
