<?xml version="1.0" encoding="UTF-8" standalone="no"?>
<!DOCTYPE svg PUBLIC "-//W3C//DTD SVG 1.1//EN"
 "http://www.w3.org/Graphics/SVG/1.1/DTD/svg11.dtd">
<!-- Generated by graphviz version 2.43.0 (0)
 -->
<!-- Title: /home/fola/code/Ark/include/Ark/Compiler/Macros/Processor.hpp Pages: 1 -->
<svg width="553pt" height="352pt"
 viewBox="0.00 0.00 553.00 352.00" xmlns="http://www.w3.org/2000/svg" xmlns:xlink="http://www.w3.org/1999/xlink">
<g id="graph0" class="graph" transform="scale(1 1) rotate(0) translate(4 348)">
<title>/home/fola/code/Ark/include/Ark/Compiler/Macros/Processor.hpp</title>
<polygon fill="white" stroke="transparent" points="-4,4 -4,-348 549,-348 549,4 -4,4"/>
<!-- Node1 -->
<g id="node1" class="node">
<title>Node1</title>
<g id="a_node1"><a xlink:title="Handles the macros and their expansion in ArkScript source code.">
<polygon fill="#bfbfbf" stroke="black" points="200.5,-302.5 200.5,-343.5 325.5,-343.5 325.5,-302.5 200.5,-302.5"/>
<text text-anchor="start" x="208.5" y="-331.5" font-family="Helvetica,sans-Serif" font-size="10.00">/home/fola/code/Ark</text>
<text text-anchor="start" x="208.5" y="-320.5" font-family="Helvetica,sans-Serif" font-size="10.00">/include/Ark/Compiler</text>
<text text-anchor="middle" x="263" y="-309.5" font-family="Helvetica,sans-Serif" font-size="10.00">/Macros/Processor.hpp</text>
</a>
</g>
</g>
<!-- Node2 -->
<g id="node2" class="node">
<title>Node2</title>
<g id="a_node2"><a xlink:href="../../d7/dc6/Node_8hpp.html" target="_top" xlink:title="AST node used by the parser, optimizer and compiler.">
<polygon fill="white" stroke="black" points="167,-112.5 167,-131.5 319,-131.5 319,-112.5 167,-112.5"/>
<text text-anchor="middle" x="243" y="-119.5" font-family="Helvetica,sans-Serif" font-size="10.00">Ark/Compiler/AST/Node.hpp</text>
</a>
</g>
</g>
<!-- Node1&#45;&gt;Node2 -->
<g id="edge1" class="edge">
<title>Node1&#45;&gt;Node2</title>
<path fill="none" stroke="midnightblue" d="M261.01,-302.19C257.14,-263.7 248.66,-179.3 244.88,-141.71"/>
<polygon fill="midnightblue" stroke="midnightblue" points="248.35,-141.25 243.87,-131.65 241.39,-141.95 248.35,-141.25"/>
</g>
<!-- Node5 -->
<g id="node5" class="node">
<title>Node5</title>
<g id="a_node5"><a xlink:title=" ">
<polygon fill="white" stroke="#bfbfbf" points="38,-56.5 38,-75.5 82,-75.5 82,-56.5 38,-56.5"/>
<text text-anchor="middle" x="60" y="-63.5" font-family="Helvetica,sans-Serif" font-size="10.00">string</text>
</a>
</g>
</g>
<!-- Node1&#45;&gt;Node5 -->
<g id="edge19" class="edge">
<title>Node1&#45;&gt;Node5</title>
<path fill="none" stroke="midnightblue" d="M247.41,-302.41C208.76,-253.87 109.09,-128.66 73.16,-83.53"/>
<polygon fill="midnightblue" stroke="midnightblue" points="75.82,-81.26 66.86,-75.61 70.35,-85.62 75.82,-81.26"/>
</g>
<!-- Node10 -->
<g id="node10" class="node">
<title>Node10</title>
<g id="a_node10"><a xlink:title=" ">
<polygon fill="white" stroke="#bfbfbf" points="0,-0.5 0,-19.5 62,-19.5 62,-0.5 0,-0.5"/>
<text text-anchor="middle" x="31" y="-7.5" font-family="Helvetica,sans-Serif" font-size="10.00">cinttypes</text>
</a>
</g>
</g>
<!-- Node1&#45;&gt;Node10 -->
<g id="edge20" class="edge">
<title>Node1&#45;&gt;Node10</title>
<path fill="none" stroke="midnightblue" d="M200.46,-315.28C125.54,-303.37 10,-270.99 10,-184.5 10,-184.5 10,-184.5 10,-121 10,-88.38 19.02,-51.28 25.23,-29.57"/>
<polygon fill="midnightblue" stroke="midnightblue" points="28.67,-30.32 28.17,-19.73 21.96,-28.32 28.67,-30.32"/>
</g>
<!-- Node11 -->
<g id="node11" class="node">
<title>Node11</title>
<g id="a_node11"><a xlink:href="../../d4/d1a/Executor_8hpp.html" target="_top" xlink:title="The base class for all MacroExecutors.">
<polygon fill="white" stroke="black" points="311.5,-168.5 311.5,-198.5 430.5,-198.5 430.5,-168.5 311.5,-168.5"/>
<text text-anchor="start" x="319.5" y="-186.5" font-family="Helvetica,sans-Serif" font-size="10.00">Ark/Compiler/Macros</text>
<text text-anchor="middle" x="371" y="-175.5" font-family="Helvetica,sans-Serif" font-size="10.00">/Executor.hpp</text>
</a>
</g>
</g>
<!-- Node1&#45;&gt;Node11 -->
<g id="edge11" class="edge">
<title>Node1&#45;&gt;Node11</title>
<path fill="none" stroke="midnightblue" d="M278.47,-302.3C298.37,-276.97 332.82,-233.11 353.6,-206.65"/>
<polygon fill="midnightblue" stroke="midnightblue" points="356.41,-208.74 359.83,-198.72 350.91,-204.42 356.41,-208.74"/>
</g>
<!-- Node12 -->
<g id="node12" class="node">
<title>Node12</title>
<g id="a_node12"><a xlink:title=" ">
<polygon fill="white" stroke="#bfbfbf" points="337.5,-112.5 337.5,-131.5 430.5,-131.5 430.5,-112.5 337.5,-112.5"/>
<text text-anchor="middle" x="384" y="-119.5" font-family="Helvetica,sans-Serif" font-size="10.00">unordered_map</text>
</a>
</g>
</g>
<!-- Node1&#45;&gt;Node12 -->
<g id="edge18" class="edge">
<title>Node1&#45;&gt;Node12</title>
<path fill="none" stroke="midnightblue" d="M265.96,-302.44C271.82,-265.89 285.71,-189.05 302,-168 313.36,-153.32 330.91,-142.78 346.87,-135.61"/>
<polygon fill="midnightblue" stroke="midnightblue" points="348.66,-138.66 356.54,-131.57 345.96,-132.2 348.66,-138.66"/>
</g>
<!-- Node13 -->
<g id="node13" class="node">
<title>Node13</title>
<g id="a_node13"><a xlink:href="../../d4/daa/Pipeline_8hpp.html" target="_top" xlink:title="The Chain of Responsibility class for running nodes through MacroExecutors.">
<polygon fill="white" stroke="black" points="385.5,-235.5 385.5,-265.5 504.5,-265.5 504.5,-235.5 385.5,-235.5"/>
<text text-anchor="start" x="393.5" y="-253.5" font-family="Helvetica,sans-Serif" font-size="10.00">Ark/Compiler/Macros</text>
<text text-anchor="middle" x="445" y="-242.5" font-family="Helvetica,sans-Serif" font-size="10.00">/Pipeline.hpp</text>
</a>
</g>
</g>
<!-- Node1&#45;&gt;Node13 -->
<g id="edge14" class="edge">
<title>Node1&#45;&gt;Node13</title>
<path fill="none" stroke="midnightblue" d="M313.7,-302.36C340.46,-291.99 373.06,-279.37 399.08,-269.29"/>
<polygon fill="midnightblue" stroke="midnightblue" points="400.64,-272.44 408.7,-265.56 398.12,-265.91 400.64,-272.44"/>
</g>
<!-- Node3 -->
<g id="node3" class="node">
<title>Node3</title>
<g id="a_node3"><a xlink:title=" ">
<polygon fill="white" stroke="#bfbfbf" points="304.5,-56.5 304.5,-75.5 355.5,-75.5 355.5,-56.5 304.5,-56.5"/>
<text text-anchor="middle" x="330" y="-63.5" font-family="Helvetica,sans-Serif" font-size="10.00">variant</text>
</a>
</g>
</g>
<!-- Node2&#45;&gt;Node3 -->
<g id="edge2" class="edge">
<title>Node2&#45;&gt;Node3</title>
<path fill="none" stroke="midnightblue" d="M256.98,-112.32C270.55,-103.9 291.38,-90.97 307.32,-81.07"/>
<polygon fill="midnightblue" stroke="midnightblue" points="309.41,-83.9 316.06,-75.65 305.71,-77.95 309.41,-83.9"/>
</g>
<!-- Node4 -->
<g id="node4" class="node">
<title>Node4</title>
<g id="a_node4"><a xlink:title=" ">
<polygon fill="white" stroke="#bfbfbf" points="373.5,-56.5 373.5,-75.5 430.5,-75.5 430.5,-56.5 373.5,-56.5"/>
<text text-anchor="middle" x="402" y="-63.5" font-family="Helvetica,sans-Serif" font-size="10.00">ostream</text>
</a>
</g>
</g>
<!-- Node2&#45;&gt;Node4 -->
<g id="edge3" class="edge">
<title>Node2&#45;&gt;Node4</title>
<path fill="none" stroke="midnightblue" d="M268.19,-112.44C294.94,-103.36 337.4,-88.94 367.31,-78.78"/>
<polygon fill="midnightblue" stroke="midnightblue" points="368.58,-82.05 376.92,-75.52 366.33,-75.42 368.58,-82.05"/>
</g>
<!-- Node2&#45;&gt;Node5 -->
<g id="edge4" class="edge">
<title>Node2&#45;&gt;Node5</title>
<path fill="none" stroke="midnightblue" d="M213.65,-112.42C184.83,-103.98 139.34,-90.63 92.07,-76.61"/>
<polygon fill="midnightblue" stroke="midnightblue" points="92.86,-73.19 82.28,-73.7 90.87,-79.9 92.86,-73.19"/>
</g>
<!-- Node6 -->
<g id="node6" class="node">
<title>Node6</title>
<g id="a_node6"><a xlink:title=" ">
<polygon fill="white" stroke="#bfbfbf" points="252.5,-0.5 252.5,-19.5 299.5,-19.5 299.5,-0.5 252.5,-0.5"/>
<text text-anchor="middle" x="276" y="-7.5" font-family="Helvetica,sans-Serif" font-size="10.00">vector</text>
</a>
</g>
</g>
<!-- Node2&#45;&gt;Node6 -->
<g id="edge5" class="edge">
<title>Node2&#45;&gt;Node6</title>
<path fill="none" stroke="midnightblue" d="M245.73,-112.39C248.58,-103.34 253.17,-88.69 257,-76 261.72,-60.35 266.92,-42.52 270.68,-29.5"/>
<polygon fill="midnightblue" stroke="midnightblue" points="274.06,-30.42 273.47,-19.85 267.33,-28.49 274.06,-30.42"/>
</g>
<!-- Node7 -->
<g id="node7" class="node">
<title>Node7</title>
<g id="a_node7"><a xlink:href="../../d8/ddd/Common_8hpp.html" target="_top" xlink:title="Common code for the compiler.">
<polygon fill="white" stroke="black" points="99.5,-56.5 99.5,-75.5 248.5,-75.5 248.5,-56.5 99.5,-56.5"/>
<text text-anchor="middle" x="174" y="-63.5" font-family="Helvetica,sans-Serif" font-size="10.00">Ark/Compiler/Common.hpp</text>
</a>
</g>
</g>
<!-- Node2&#45;&gt;Node7 -->
<g id="edge6" class="edge">
<title>Node2&#45;&gt;Node7</title>
<path fill="none" stroke="midnightblue" d="M231.91,-112.32C221.51,-104.18 205.74,-91.84 193.28,-82.09"/>
<polygon fill="midnightblue" stroke="midnightblue" points="195.32,-79.24 185.29,-75.83 191.01,-84.75 195.32,-79.24"/>
</g>
<!-- Node7&#45;&gt;Node6 -->
<g id="edge9" class="edge">
<title>Node7&#45;&gt;Node6</title>
<path fill="none" stroke="midnightblue" d="M190.39,-56.32C206.67,-47.7 231.87,-34.36 250.72,-24.39"/>
<polygon fill="midnightblue" stroke="midnightblue" points="252.45,-27.43 259.65,-19.65 249.18,-21.24 252.45,-27.43"/>
</g>
<!-- Node8 -->
<g id="node8" class="node">
<title>Node8</title>
<g id="a_node8"><a xlink:title=" ">
<polygon fill="white" stroke="#bfbfbf" points="89,-0.5 89,-19.5 131,-19.5 131,-0.5 89,-0.5"/>
<text text-anchor="middle" x="110" y="-7.5" font-family="Helvetica,sans-Serif" font-size="10.00">array</text>
</a>
</g>
</g>
<!-- Node7&#45;&gt;Node8 -->
<g id="edge7" class="edge">
<title>Node7&#45;&gt;Node8</title>
<path fill="none" stroke="midnightblue" d="M163.72,-56.32C154.16,-48.26 139.72,-36.08 128.22,-26.37"/>
<polygon fill="midnightblue" stroke="midnightblue" points="130.37,-23.61 120.47,-19.83 125.86,-28.96 130.37,-23.61"/>
</g>
<!-- Node9 -->
<g id="node9" class="node">
<title>Node9</title>
<g id="a_node9"><a xlink:title=" ">
<polygon fill="white" stroke="#bfbfbf" points="149.5,-0.5 149.5,-19.5 222.5,-19.5 222.5,-0.5 149.5,-0.5"/>
<text text-anchor="middle" x="186" y="-7.5" font-family="Helvetica,sans-Serif" font-size="10.00">string_view</text>
</a>
</g>
</g>
<!-- Node7&#45;&gt;Node9 -->
<g id="edge8" class="edge">
<title>Node7&#45;&gt;Node9</title>
<path fill="none" stroke="midnightblue" d="M175.98,-56.08C177.57,-48.93 179.86,-38.64 181.85,-29.69"/>
<polygon fill="midnightblue" stroke="midnightblue" points="185.3,-30.27 184.06,-19.75 178.47,-28.75 185.3,-30.27"/>
</g>
<!-- Node7&#45;&gt;Node10 -->
<g id="edge10" class="edge">
<title>Node7&#45;&gt;Node10</title>
<path fill="none" stroke="midnightblue" d="M151.34,-56.44C127.6,-47.48 90.09,-33.31 63.26,-23.18"/>
<polygon fill="midnightblue" stroke="midnightblue" points="64.14,-19.77 53.55,-19.52 61.67,-26.32 64.14,-19.77"/>
</g>
<!-- Node11&#45;&gt;Node2 -->
<g id="edge13" class="edge">
<title>Node11&#45;&gt;Node2</title>
<path fill="none" stroke="midnightblue" d="M340.67,-168.4C319.48,-158.55 291.41,-145.5 270.8,-135.92"/>
<polygon fill="midnightblue" stroke="midnightblue" points="272.17,-132.7 261.63,-131.66 269.22,-139.05 272.17,-132.7"/>
</g>
<!-- Node11&#45;&gt;Node12 -->
<g id="edge12" class="edge">
<title>Node11&#45;&gt;Node12</title>
<path fill="none" stroke="midnightblue" d="M374.08,-168.4C375.83,-160.38 378.05,-150.23 379.94,-141.57"/>
<polygon fill="midnightblue" stroke="midnightblue" points="383.39,-142.17 382.11,-131.66 376.55,-140.68 383.39,-142.17"/>
</g>
<!-- Node13&#45;&gt;Node6 -->
<g id="edge15" class="edge">
<title>Node13&#45;&gt;Node6</title>
<path fill="none" stroke="midnightblue" d="M449.7,-235.47C460.35,-200.8 482.27,-109.97 440,-56 424.02,-35.6 352.86,-22.02 309.69,-15.5"/>
<polygon fill="midnightblue" stroke="midnightblue" points="310.03,-12.01 299.63,-14.03 309.02,-18.94 310.03,-12.01"/>
</g>
<!-- Node13&#45;&gt;Node11 -->
<g id="edge17" class="edge">
<title>Node13&#45;&gt;Node11</title>
<path fill="none" stroke="midnightblue" d="M428.94,-235.4C418.96,-226.62 405.93,-215.18 394.76,-205.37"/>
<polygon fill="midnightblue" stroke="midnightblue" points="396.85,-202.55 387.03,-198.58 392.23,-207.81 396.85,-202.55"/>
</g>
<!-- Node14 -->
<g id="node14" class="node">
<title>Node14</title>
<g id="a_node14"><a xlink:title=" ">
<polygon fill="white" stroke="#bfbfbf" points="487,-174 487,-193 545,-193 545,-174 487,-174"/>
<text text-anchor="middle" x="516" y="-181" font-family="Helvetica,sans-Serif" font-size="10.00">memory</text>
</a>
</g>
</g>
<!-- Node13&#45;&gt;Node14 -->
<g id="edge16" class="edge">
<title>Node13&#45;&gt;Node14</title>
<path fill="none" stroke="midnightblue" d="M460.41,-235.4C471.81,-224.96 487.33,-210.75 499.07,-200"/>
<polygon fill="midnightblue" stroke="midnightblue" points="501.49,-202.53 506.5,-193.19 496.76,-197.37 501.49,-202.53"/>
</g>
</g>
</svg>
