<?xml version="1.0" encoding="UTF-8" standalone="no"?>
<!DOCTYPE svg PUBLIC "-//W3C//DTD SVG 1.1//EN"
 "http://www.w3.org/Graphics/SVG/1.1/DTD/svg11.dtd">
<!-- Generated by graphviz version 2.49.0 (20210828.1703)
 -->
<!-- Title: C:/Users/folae/Documents/Code/Big&#45;Projects/ArkScript/Ark/include/Ark/Compiler/Macros/Processor.hpp Pages: 1 -->
<svg width="513pt" height="363pt"
 viewBox="0.00 0.00 513.00 363.00" xmlns="http://www.w3.org/2000/svg" xmlns:xlink="http://www.w3.org/1999/xlink">
<g id="graph0" class="graph" transform="scale(1 1) rotate(0) translate(4 359)">
<title>C:/Users/folae/Documents/Code/Big&#45;Projects/ArkScript/Ark/include/Ark/Compiler/Macros/Processor.hpp</title>
<polygon fill="white" stroke="transparent" points="-4,4 -4,-359 509,-359 509,4 -4,4"/>
<!-- Node1 -->
<g id="node1" class="node">
<title>Node1</title>
<g id="a_node1"><a xlink:title="Handles the macros and their expansion in ArkScript source code.">
<polygon fill="#bfbfbf" stroke="black" points="160.5,-302.5 160.5,-354.5 323.5,-354.5 323.5,-302.5 160.5,-302.5"/>
<text text-anchor="start" x="168.5" y="-342.5" font-family="Helvetica,sans-Serif" font-size="10.00">C:/Users/folae/Documents</text>
<text text-anchor="start" x="168.5" y="-331.5" font-family="Helvetica,sans-Serif" font-size="10.00">/Code/Big&#45;Projects/ArkScript</text>
<text text-anchor="start" x="168.5" y="-320.5" font-family="Helvetica,sans-Serif" font-size="10.00">/Ark/include/Ark/Compiler/Macros</text>
<text text-anchor="middle" x="242" y="-309.5" font-family="Helvetica,sans-Serif" font-size="10.00">/Processor.hpp</text>
</a>
</g>
</g>
<!-- Node2 -->
<g id="node2" class="node">
<title>Node2</title>
<g id="a_node2"><a xlink:href="../../d7/dc6/Node_8hpp.html" target="_top" xlink:title="AST node used by the parser, optimizer and compiler.">
<polygon fill="white" stroke="black" points="153.5,-112.5 153.5,-131.5 292.5,-131.5 292.5,-112.5 153.5,-112.5"/>
<text text-anchor="middle" x="223" y="-119.5" font-family="Helvetica,sans-Serif" font-size="10.00">Ark/Compiler/AST/Node.hpp</text>
</a>
</g>
</g>
<!-- Node1&#45;&gt;Node2 -->
<g id="edge1" class="edge">
<title>Node1&#45;&gt;Node2</title>
<path fill="none" stroke="midnightblue" d="M239.67,-302.42C235.83,-261.04 228.23,-179.34 224.78,-142.19"/>
<polygon fill="midnightblue" stroke="midnightblue" points="228.23,-141.44 223.82,-131.8 221.26,-142.08 228.23,-141.44"/>
</g>
<!-- Node5 -->
<g id="node5" class="node">
<title>Node5</title>
<g id="a_node5"><a xlink:title=" ">
<polygon fill="white" stroke="#bfbfbf" points="33.5,-56.5 33.5,-75.5 74.5,-75.5 74.5,-56.5 33.5,-56.5"/>
<text text-anchor="middle" x="54" y="-63.5" font-family="Helvetica,sans-Serif" font-size="10.00">string</text>
</a>
</g>
</g>
<!-- Node1&#45;&gt;Node5 -->
<g id="edge19" class="edge">
<title>Node1&#45;&gt;Node5</title>
<path fill="none" stroke="midnightblue" d="M223.63,-302.05C185.51,-249.22 98.65,-128.87 66.38,-84.15"/>
<polygon fill="midnightblue" stroke="midnightblue" points="69.05,-81.87 60.36,-75.81 63.37,-85.96 69.05,-81.87"/>
</g>
<!-- Node10 -->
<g id="node10" class="node">
<title>Node10</title>
<g id="a_node10"><a xlink:title=" ">
<polygon fill="white" stroke="#bfbfbf" points="0,-0.5 0,-19.5 56,-19.5 56,-0.5 0,-0.5"/>
<text text-anchor="middle" x="28" y="-7.5" font-family="Helvetica,sans-Serif" font-size="10.00">cinttypes</text>
</a>
</g>
</g>
<!-- Node1&#45;&gt;Node10 -->
<g id="edge20" class="edge">
<title>Node1&#45;&gt;Node10</title>
<path fill="none" stroke="midnightblue" d="M160.44,-313.07C91.88,-295.7 5,-258.99 5,-184.5 5,-184.5 5,-184.5 5,-121 5,-88.12 14.97,-50.86 21.78,-29.24"/>
<polygon fill="midnightblue" stroke="midnightblue" points="25.11,-30.3 24.9,-19.71 18.46,-28.12 25.11,-30.3"/>
</g>
<!-- Node11 -->
<g id="node11" class="node">
<title>Node11</title>
<g id="a_node11"><a xlink:href="../../d4/d1a/Executor_8hpp.html" target="_top" xlink:title="The base class for all MacroExecutors.">
<polygon fill="white" stroke="black" points="289,-168.5 289,-198.5 397,-198.5 397,-168.5 289,-168.5"/>
<text text-anchor="start" x="297" y="-186.5" font-family="Helvetica,sans-Serif" font-size="10.00">Ark/Compiler/Macros</text>
<text text-anchor="middle" x="343" y="-175.5" font-family="Helvetica,sans-Serif" font-size="10.00">/Executor.hpp</text>
</a>
</g>
</g>
<!-- Node1&#45;&gt;Node11 -->
<g id="edge11" class="edge">
<title>Node1&#45;&gt;Node11</title>
<path fill="none" stroke="midnightblue" d="M259.82,-302.26C278.87,-275.3 308.79,-232.94 327.07,-207.05"/>
<polygon fill="midnightblue" stroke="midnightblue" points="330.11,-208.82 333.02,-198.63 324.39,-204.78 330.11,-208.82"/>
</g>
<!-- Node12 -->
<g id="node12" class="node">
<title>Node12</title>
<g id="a_node12"><a xlink:title=" ">
<polygon fill="white" stroke="#bfbfbf" points="310.5,-112.5 310.5,-131.5 393.5,-131.5 393.5,-112.5 310.5,-112.5"/>
<text text-anchor="middle" x="352" y="-119.5" font-family="Helvetica,sans-Serif" font-size="10.00">unordered_map</text>
</a>
</g>
</g>
<!-- Node1&#45;&gt;Node12 -->
<g id="edge18" class="edge">
<title>Node1&#45;&gt;Node12</title>
<path fill="none" stroke="midnightblue" d="M245.6,-302.43C251.63,-263.16 264.64,-189.38 280,-168 290.09,-153.96 306.05,-143.34 320.38,-135.95"/>
<polygon fill="midnightblue" stroke="midnightblue" points="322,-139.05 329.49,-131.56 318.96,-132.75 322,-139.05"/>
</g>
<!-- Node13 -->
<g id="node13" class="node">
<title>Node13</title>
<g id="a_node13"><a xlink:href="../../d4/daa/Pipeline_8hpp.html" target="_top" xlink:title="The Chain of Responsibility class for running nodes through MacroExecutors.">
<polygon fill="white" stroke="black" points="360,-235.5 360,-265.5 468,-265.5 468,-235.5 360,-235.5"/>
<text text-anchor="start" x="368" y="-253.5" font-family="Helvetica,sans-Serif" font-size="10.00">Ark/Compiler/Macros</text>
<text text-anchor="middle" x="414" y="-242.5" font-family="Helvetica,sans-Serif" font-size="10.00">/Pipeline.hpp</text>
</a>
</g>
</g>
<!-- Node1&#45;&gt;Node13 -->
<g id="edge14" class="edge">
<title>Node1&#45;&gt;Node13</title>
<path fill="none" stroke="midnightblue" d="M298.8,-302.4C322.83,-291.78 350.32,-279.64 372.42,-269.87"/>
<polygon fill="midnightblue" stroke="midnightblue" points="374.12,-272.95 381.85,-265.71 371.29,-266.55 374.12,-272.95"/>
</g>
<!-- Node3 -->
<g id="node3" class="node">
<title>Node3</title>
<g id="a_node3"><a xlink:title=" ">
<polygon fill="white" stroke="#bfbfbf" points="283,-56.5 283,-75.5 327,-75.5 327,-56.5 283,-56.5"/>
<text text-anchor="middle" x="305" y="-63.5" font-family="Helvetica,sans-Serif" font-size="10.00">variant</text>
</a>
</g>
</g>
<!-- Node2&#45;&gt;Node3 -->
<g id="edge2" class="edge">
<title>Node2&#45;&gt;Node3</title>
<path fill="none" stroke="midnightblue" d="M236.17,-112.32C248.85,-103.98 268.23,-91.21 283.21,-81.35"/>
<polygon fill="midnightblue" stroke="midnightblue" points="285.43,-84.08 291.86,-75.65 281.58,-78.23 285.43,-84.08"/>
</g>
<!-- Node4 -->
<g id="node4" class="node">
<title>Node4</title>
<g id="a_node4"><a xlink:title=" ">
<polygon fill="white" stroke="#bfbfbf" points="345,-56.5 345,-75.5 397,-75.5 397,-56.5 345,-56.5"/>
<text text-anchor="middle" x="371" y="-63.5" font-family="Helvetica,sans-Serif" font-size="10.00">ostream</text>
</a>
</g>
</g>
<!-- Node2&#45;&gt;Node4 -->
<g id="edge3" class="edge">
<title>Node2&#45;&gt;Node4</title>
<path fill="none" stroke="midnightblue" d="M246.45,-112.44C271.13,-103.44 310.19,-89.19 337.98,-79.05"/>
<polygon fill="midnightblue" stroke="midnightblue" points="339.46,-82.23 347.66,-75.52 337.06,-75.66 339.46,-82.23"/>
</g>
<!-- Node2&#45;&gt;Node5 -->
<g id="edge4" class="edge">
<title>Node2&#45;&gt;Node5</title>
<path fill="none" stroke="midnightblue" d="M196.22,-112.44C165.74,-102.7 116.05,-86.83 84.2,-76.65"/>
<polygon fill="midnightblue" stroke="midnightblue" points="85.13,-73.27 74.54,-73.56 83,-79.94 85.13,-73.27"/>
</g>
<!-- Node6 -->
<g id="node6" class="node">
<title>Node6</title>
<g id="a_node6"><a xlink:title=" ">
<polygon fill="white" stroke="#bfbfbf" points="234,-0.5 234,-19.5 276,-19.5 276,-0.5 234,-0.5"/>
<text text-anchor="middle" x="255" y="-7.5" font-family="Helvetica,sans-Serif" font-size="10.00">vector</text>
</a>
</g>
</g>
<!-- Node2&#45;&gt;Node6 -->
<g id="edge5" class="edge">
<title>Node2&#45;&gt;Node6</title>
<path fill="none" stroke="midnightblue" d="M225.51,-112.37C230.7,-94.54 242.7,-53.3 249.68,-29.27"/>
<polygon fill="midnightblue" stroke="midnightblue" points="253.07,-30.17 252.5,-19.59 246.35,-28.22 253.07,-30.17"/>
</g>
<!-- Node7 -->
<g id="node7" class="node">
<title>Node7</title>
<g id="a_node7"><a xlink:href="../../d8/ddd/Common_8hpp.html" target="_top" xlink:title="Common code for the compiler.">
<polygon fill="white" stroke="black" points="93,-56.5 93,-75.5 227,-75.5 227,-56.5 93,-56.5"/>
<text text-anchor="middle" x="160" y="-63.5" font-family="Helvetica,sans-Serif" font-size="10.00">Ark/Compiler/Common.hpp</text>
</a>
</g>
</g>
<!-- Node2&#45;&gt;Node7 -->
<g id="edge6" class="edge">
<title>Node2&#45;&gt;Node7</title>
<path fill="none" stroke="midnightblue" d="M212.88,-112.32C203.47,-104.26 189.26,-92.08 177.93,-82.37"/>
<polygon fill="midnightblue" stroke="midnightblue" points="180.18,-79.68 170.31,-75.83 175.62,-85 180.18,-79.68"/>
</g>
<!-- Node7&#45;&gt;Node6 -->
<g id="edge9" class="edge">
<title>Node7&#45;&gt;Node6</title>
<path fill="none" stroke="midnightblue" d="M175.26,-56.32C190.22,-47.82 213.25,-34.73 230.73,-24.8"/>
<polygon fill="midnightblue" stroke="midnightblue" points="232.81,-27.64 239.77,-19.65 229.35,-21.55 232.81,-27.64"/>
</g>
<!-- Node8 -->
<g id="node8" class="node">
<title>Node8</title>
<g id="a_node8"><a xlink:title=" ">
<polygon fill="white" stroke="#bfbfbf" points="84,-0.5 84,-19.5 122,-19.5 122,-0.5 84,-0.5"/>
<text text-anchor="middle" x="103" y="-7.5" font-family="Helvetica,sans-Serif" font-size="10.00">array</text>
</a>
</g>
</g>
<!-- Node7&#45;&gt;Node8 -->
<g id="edge7" class="edge">
<title>Node7&#45;&gt;Node8</title>
<path fill="none" stroke="midnightblue" d="M150.84,-56.32C142.5,-48.42 129.97,-36.55 119.82,-26.94"/>
<polygon fill="midnightblue" stroke="midnightblue" points="121.99,-24.17 112.32,-19.83 117.18,-29.25 121.99,-24.17"/>
</g>
<!-- Node9 -->
<g id="node9" class="node">
<title>Node9</title>
<g id="a_node9"><a xlink:title=" ">
<polygon fill="white" stroke="#bfbfbf" points="140,-0.5 140,-19.5 204,-19.5 204,-0.5 140,-0.5"/>
<text text-anchor="middle" x="172" y="-7.5" font-family="Helvetica,sans-Serif" font-size="10.00">string_view</text>
</a>
</g>
</g>
<!-- Node7&#45;&gt;Node9 -->
<g id="edge8" class="edge">
<title>Node7&#45;&gt;Node9</title>
<path fill="none" stroke="midnightblue" d="M161.98,-56.08C163.57,-48.93 165.86,-38.64 167.85,-29.69"/>
<polygon fill="midnightblue" stroke="midnightblue" points="171.3,-30.27 170.06,-19.75 164.47,-28.75 171.3,-30.27"/>
</g>
<!-- Node7&#45;&gt;Node10 -->
<g id="edge10" class="edge">
<title>Node7&#45;&gt;Node10</title>
<path fill="none" stroke="midnightblue" d="M139.08,-56.44C117.26,-47.52 82.85,-33.44 58.11,-23.32"/>
<polygon fill="midnightblue" stroke="midnightblue" points="59.4,-20.06 48.82,-19.52 56.75,-26.54 59.4,-20.06"/>
</g>
<!-- Node11&#45;&gt;Node2 -->
<g id="edge13" class="edge">
<title>Node11&#45;&gt;Node2</title>
<path fill="none" stroke="midnightblue" d="M314.56,-168.4C294.88,-158.64 268.86,-145.74 249.59,-136.18"/>
<polygon fill="midnightblue" stroke="midnightblue" points="250.98,-132.96 240.46,-131.66 247.87,-139.24 250.98,-132.96"/>
</g>
<!-- Node11&#45;&gt;Node12 -->
<g id="edge12" class="edge">
<title>Node11&#45;&gt;Node12</title>
<path fill="none" stroke="midnightblue" d="M345.13,-168.4C346.35,-160.38 347.88,-150.23 349.19,-141.57"/>
<polygon fill="midnightblue" stroke="midnightblue" points="352.66,-142.07 350.69,-131.66 345.73,-141.02 352.66,-142.07"/>
</g>
<!-- Node13&#45;&gt;Node6 -->
<g id="edge15" class="edge">
<title>Node13&#45;&gt;Node6</title>
<path fill="none" stroke="midnightblue" d="M418.36,-235.49C428.19,-200.87 448.12,-110.13 406,-56 377.84,-19.8 321.8,-11.72 286.47,-10.45"/>
<polygon fill="midnightblue" stroke="midnightblue" points="286.3,-6.94 276.23,-10.25 286.16,-13.94 286.3,-6.94"/>
</g>
<!-- Node13&#45;&gt;Node11 -->
<g id="edge17" class="edge">
<title>Node13&#45;&gt;Node11</title>
<path fill="none" stroke="midnightblue" d="M398.59,-235.4C389.01,-226.62 376.51,-215.18 365.8,-205.37"/>
<polygon fill="midnightblue" stroke="midnightblue" points="368.12,-202.75 358.38,-198.58 363.39,-207.91 368.12,-202.75"/>
</g>
<!-- Node14 -->
<g id="node14" class="node">
<title>Node14</title>
<g id="a_node14"><a xlink:title=" ">
<polygon fill="white" stroke="#bfbfbf" points="453,-174 453,-193 505,-193 505,-174 453,-174"/>
<text text-anchor="middle" x="479" y="-181" font-family="Helvetica,sans-Serif" font-size="10.00">memory</text>
</a>
</g>
</g>
<!-- Node13&#45;&gt;Node14 -->
<g id="edge16" class="edge">
<title>Node13&#45;&gt;Node14</title>
<path fill="none" stroke="midnightblue" d="M428.1,-235.4C438.44,-225.06 452.48,-211.02 463.19,-200.31"/>
<polygon fill="midnightblue" stroke="midnightblue" points="465.71,-202.74 470.31,-193.19 460.76,-197.79 465.71,-202.74"/>
</g>
</g>
</svg>
