<?xml version="1.0" encoding="UTF-8" standalone="no"?>
<!DOCTYPE svg PUBLIC "-//W3C//DTD SVG 1.1//EN"
 "http://www.w3.org/Graphics/SVG/1.1/DTD/svg11.dtd">
<!-- Generated by graphviz version 12.2.0 (20241103.1931)
 -->
<!-- Title: /Users/fola/Documents/ArkScript/Ark/src/arkreactor/VM/Value/ClosureScope.cpp Pages: 1 -->
<svg width="709pt" height="271pt"
 viewBox="0.00 0.00 709.10 270.75" xmlns="http://www.w3.org/2000/svg" xmlns:xlink="http://www.w3.org/1999/xlink">
<g id="graph0" class="graph" transform="scale(1 1) rotate(0) translate(4 266.75)">
<title>/Users/fola/Documents/ArkScript/Ark/src/arkreactor/VM/Value/ClosureScope.cpp</title>
<!-- Node1 -->
<g id="Node000001" class="node">
<title>Node1</title>
<g id="a_Node000001"><a xlink:title=" ">
<polygon fill="#999999" stroke="#666666" points="229.75,-262.75 85.5,-262.75 85.5,-221 229.75,-221 229.75,-262.75"/>
<text text-anchor="start" x="93.5" y="-249.25" font-family="Helvetica,sans-Serif" font-size="10.00">/Users/fola/Documents</text>
<text text-anchor="start" x="93.5" y="-238" font-family="Helvetica,sans-Serif" font-size="10.00">/ArkScript/Ark/src/arkreactor</text>
<text text-anchor="middle" x="157.62" y="-226.75" font-family="Helvetica,sans-Serif" font-size="10.00">/VM/Value/ClosureScope.cpp</text>
</a>
</g>
</g>
<!-- Node2 -->
<g id="Node000002" class="node">
<title>Node2</title>
<g id="a_Node000002"><a xlink:href="../../d1/d71/ClosureScope_8hpp.html" target="_top" xlink:title="Subtype of the value type, handling closures.">
<polygon fill="white" stroke="#666666" points="159.25,-185 0,-185 0,-165.75 159.25,-165.75 159.25,-185"/>
<text text-anchor="middle" x="79.62" y="-171.5" font-family="Helvetica,sans-Serif" font-size="10.00">Ark/VM/Value/ClosureScope.hpp</text>
</a>
</g>
</g>
<!-- Node1&#45;&gt;Node2 -->
<g id="edge1_Node000001_Node000002" class="edge">
<title>Node1&#45;&gt;Node2</title>
<g id="a_edge1_Node000001_Node000002"><a xlink:title=" ">
<path fill="none" stroke="#63b8ff" d="M133.37,-220.82C122.42,-211.76 109.64,-201.19 99.29,-192.64"/>
<polygon fill="#63b8ff" stroke="#63b8ff" points="101.7,-190.09 91.76,-186.41 97.24,-195.48 101.7,-190.09"/>
</a>
</g>
</g>
<!-- Node15 -->
<g id="Node000015" class="node">
<title>Node15</title>
<g id="a_Node000015"><a xlink:href="../../d8/d45/ScopeView_8hpp.html" target="_top" xlink:title=" ">
<polygon fill="white" stroke="#666666" points="296,-185 177.25,-185 177.25,-165.75 296,-165.75 296,-185"/>
<text text-anchor="middle" x="236.62" y="-171.5" font-family="Helvetica,sans-Serif" font-size="10.00">Ark/VM/ScopeView.hpp</text>
</a>
</g>
</g>
<!-- Node1&#45;&gt;Node15 -->
<g id="edge22_Node000001_Node000015" class="edge">
<title>Node1&#45;&gt;Node15</title>
<g id="a_edge22_Node000001_Node000015"><a xlink:title=" ">
<path fill="none" stroke="#63b8ff" d="M182.19,-220.82C193.29,-211.76 206.23,-201.19 216.71,-192.64"/>
<polygon fill="#63b8ff" stroke="#63b8ff" points="218.81,-195.44 224.34,-186.4 214.38,-190.02 218.81,-195.44"/>
</a>
</g>
</g>
<!-- Node3 -->
<g id="Node000003" class="node">
<title>Node3</title>
<g id="a_Node000003"><a xlink:title=" ">
<polygon fill="#e0e0e0" stroke="#999999" points="101.12,-74.5 58.12,-74.5 58.12,-55.25 101.12,-55.25 101.12,-74.5"/>
<text text-anchor="middle" x="79.62" y="-61" font-family="Helvetica,sans-Serif" font-size="10.00">vector</text>
</a>
</g>
</g>
<!-- Node2&#45;&gt;Node3 -->
<g id="edge2_Node000002_Node000003" class="edge">
<title>Node2&#45;&gt;Node3</title>
<g id="a_edge2_Node000002_Node000003"><a xlink:title=" ">
<path fill="none" stroke="#63b8ff" d="M79.62,-165.5C79.62,-148.25 79.62,-109.83 79.62,-86.06"/>
<polygon fill="#63b8ff" stroke="#63b8ff" points="83.13,-86.39 79.63,-76.39 76.13,-86.39 83.13,-86.39"/>
</a>
</g>
</g>
<!-- Node4 -->
<g id="Node000004" class="node">
<title>Node4</title>
<g id="a_Node000004"><a xlink:title=" ">
<polygon fill="#e0e0e0" stroke="#999999" points="51.25,-129.75 12,-129.75 12,-110.5 51.25,-110.5 51.25,-129.75"/>
<text text-anchor="middle" x="31.62" y="-116.25" font-family="Helvetica,sans-Serif" font-size="10.00">utility</text>
</a>
</g>
</g>
<!-- Node2&#45;&gt;Node4 -->
<g id="edge3_Node000002_Node000004" class="edge">
<title>Node2&#45;&gt;Node4</title>
<g id="a_edge3_Node000002_Node000004"><a xlink:title=" ">
<path fill="none" stroke="#63b8ff" d="M71.7,-165.58C65.07,-158.23 55.41,-147.51 47.24,-138.44"/>
<polygon fill="#63b8ff" stroke="#63b8ff" points="50.03,-136.32 40.74,-131.23 44.83,-141 50.03,-136.32"/>
</a>
</g>
</g>
<!-- Node5 -->
<g id="Node000005" class="node">
<title>Node5</title>
<g id="a_Node000005"><a xlink:title=" ">
<polygon fill="#e0e0e0" stroke="#999999" points="125.5,-19.25 69.75,-19.25 69.75,0 125.5,0 125.5,-19.25"/>
<text text-anchor="middle" x="97.62" y="-5.75" font-family="Helvetica,sans-Serif" font-size="10.00">cinttypes</text>
</a>
</g>
</g>
<!-- Node2&#45;&gt;Node5 -->
<g id="edge4_Node000002_Node000005" class="edge">
<title>Node2&#45;&gt;Node5</title>
<g id="a_edge4_Node000002_Node000005"><a xlink:title=" ">
<path fill="none" stroke="#63b8ff" d="M49.71,-165.39C32.66,-158.56 12.73,-147.29 2.62,-129.75 -1.65,-122.34 1.64,-119 2.62,-110.5 5.53,-85.44 0.32,-75.31 15.62,-55.25 26.49,-41.01 43.25,-30.75 58.8,-23.69"/>
<polygon fill="#63b8ff" stroke="#63b8ff" points="60.01,-26.97 67.88,-19.88 57.31,-20.52 60.01,-26.97"/>
</a>
</g>
</g>
<!-- Node6 -->
<g id="Node000006" class="node">
<title>Node6</title>
<g id="a_Node000006"><a xlink:href="../../d5/d40/Platform_8hpp.html" target="_top" xlink:title="ArkScript configuration macros.">
<polygon fill="white" stroke="#666666" points="622.38,-19.25 532.88,-19.25 532.88,0 622.38,0 622.38,-19.25"/>
<text text-anchor="middle" x="577.62" y="-5.75" font-family="Helvetica,sans-Serif" font-size="10.00">Ark/Platform.hpp</text>
</a>
</g>
</g>
<!-- Node2&#45;&gt;Node6 -->
<g id="edge5_Node000002_Node000006" class="edge">
<title>Node2&#45;&gt;Node6</title>
<g id="a_edge5_Node000002_Node000006"><a xlink:title=" ">
<path fill="none" stroke="#63b8ff" d="M159.5,-166.14C309.5,-149.87 621.17,-111.91 652.62,-74.5 669.24,-54.74 640.18,-36.07 613.53,-24.08"/>
<polygon fill="#63b8ff" stroke="#63b8ff" points="615.13,-20.95 604.56,-20.26 612.39,-27.4 615.13,-20.95"/>
</a>
</g>
</g>
<!-- Node7 -->
<g id="Node000007" class="node">
<title>Node7</title>
<g id="a_Node000007"><a xlink:href="../../de/dfd/Value_8hpp.html" target="_top" xlink:title="Default value type handled by the virtual machine.">
<polygon fill="white" stroke="#666666" points="275,-129.75 180.25,-129.75 180.25,-110.5 275,-110.5 275,-129.75"/>
<text text-anchor="middle" x="227.62" y="-116.25" font-family="Helvetica,sans-Serif" font-size="10.00">Ark/VM/Value.hpp</text>
</a>
</g>
</g>
<!-- Node2&#45;&gt;Node7 -->
<g id="edge6_Node000002_Node000007" class="edge">
<title>Node2&#45;&gt;Node7</title>
<g id="a_edge6_Node000002_Node000007"><a xlink:title=" ">
<path fill="none" stroke="#63b8ff" d="M104.73,-165.34C128.65,-156.74 164.91,-143.69 191.85,-134"/>
<polygon fill="#63b8ff" stroke="#63b8ff" points="192.75,-137.39 200.97,-130.71 190.38,-130.81 192.75,-137.39"/>
</a>
</g>
</g>
<!-- Node7&#45;&gt;Node3 -->
<g id="edge7_Node000007_Node000003" class="edge">
<title>Node7&#45;&gt;Node3</title>
<g id="a_edge7_Node000007_Node000003"><a xlink:title=" ">
<path fill="none" stroke="#63b8ff" d="M202.52,-110.09C177.58,-101.12 139.24,-87.33 112.03,-77.53"/>
<polygon fill="#63b8ff" stroke="#63b8ff" points="113.49,-74.34 102.9,-74.25 111.12,-80.93 113.49,-74.34"/>
</a>
</g>
</g>
<!-- Node7&#45;&gt;Node5 -->
<g id="edge10_Node000007_Node000005" class="edge">
<title>Node7&#45;&gt;Node5</title>
<g id="a_edge10_Node000007_Node000005"><a xlink:title=" ">
<path fill="none" stroke="#63b8ff" d="M216.99,-110.25C195.09,-91.97 144.69,-49.9 116.9,-26.71"/>
<polygon fill="#63b8ff" stroke="#63b8ff" points="119.49,-24.32 109.57,-20.6 115.01,-29.69 119.49,-24.32"/>
</a>
</g>
</g>
<!-- Node7&#45;&gt;Node6 -->
<g id="edge21_Node000007_Node000006" class="edge">
<title>Node7&#45;&gt;Node6</title>
<g id="a_edge21_Node000007_Node000006"><a xlink:title=" ">
<path fill="none" stroke="#63b8ff" d="M275.22,-118.88C356.42,-117.47 516.99,-110.13 558.62,-74.5 571.13,-63.79 575.61,-45.25 577.11,-30.89"/>
<polygon fill="#63b8ff" stroke="#63b8ff" points="580.59,-31.36 577.71,-21.17 573.6,-30.93 580.59,-31.36"/>
</a>
</g>
</g>
<!-- Node8 -->
<g id="Node000008" class="node">
<title>Node8</title>
<g id="a_Node000008"><a xlink:title=" ">
<polygon fill="#e0e0e0" stroke="#999999" points="241.25,-74.5 196,-74.5 196,-55.25 241.25,-55.25 241.25,-74.5"/>
<text text-anchor="middle" x="218.62" y="-61" font-family="Helvetica,sans-Serif" font-size="10.00">variant</text>
</a>
</g>
</g>
<!-- Node7&#45;&gt;Node8 -->
<g id="edge8_Node000007_Node000008" class="edge">
<title>Node7&#45;&gt;Node8</title>
<g id="a_edge8_Node000007_Node000008"><a xlink:title=" ">
<path fill="none" stroke="#63b8ff" d="M226.14,-110.33C225.03,-103.74 223.46,-94.46 222.04,-86.07"/>
<polygon fill="#63b8ff" stroke="#63b8ff" points="225.51,-85.63 220.4,-76.35 218.61,-86.8 225.51,-85.63"/>
</a>
</g>
</g>
<!-- Node9 -->
<g id="Node000009" class="node">
<title>Node9</title>
<g id="a_Node000009"><a xlink:title=" ">
<polygon fill="#e0e0e0" stroke="#999999" points="219.62,-19.25 179.62,-19.25 179.62,0 219.62,0 219.62,-19.25"/>
<text text-anchor="middle" x="199.62" y="-5.75" font-family="Helvetica,sans-Serif" font-size="10.00">string</text>
</a>
</g>
</g>
<!-- Node7&#45;&gt;Node9 -->
<g id="edge9_Node000007_Node000009" class="edge">
<title>Node7&#45;&gt;Node9</title>
<g id="a_edge9_Node000007_Node000009"><a xlink:title=" ">
<path fill="none" stroke="#63b8ff" d="M215.31,-110.07C205.45,-102 192.35,-89.2 186.62,-74.5 181.03,-60.13 185.07,-42.96 190.08,-30.04"/>
<polygon fill="#63b8ff" stroke="#63b8ff" points="193.25,-31.52 194.09,-20.96 186.85,-28.69 193.25,-31.52"/>
</a>
</g>
</g>
<!-- Node10 -->
<g id="Node000010" class="node">
<title>Node10</title>
<g id="a_Node000010"><a xlink:title=" ">
<polygon fill="#e0e0e0" stroke="#999999" points="643.5,-74.5 605.75,-74.5 605.75,-55.25 643.5,-55.25 643.5,-74.5"/>
<text text-anchor="middle" x="624.62" y="-61" font-family="Helvetica,sans-Serif" font-size="10.00">array</text>
</a>
</g>
</g>
<!-- Node7&#45;&gt;Node10 -->
<g id="edge11_Node000007_Node000010" class="edge">
<title>Node7&#45;&gt;Node10</title>
<g id="a_edge11_Node000007_Node000010"><a xlink:title=" ">
<path fill="none" stroke="#63b8ff" d="M275.35,-115.32C345.21,-109.3 479.22,-95.98 591.62,-74.5 592.62,-74.31 593.62,-74.11 594.64,-73.89"/>
<polygon fill="#63b8ff" stroke="#63b8ff" points="595.12,-77.38 604.06,-71.68 593.52,-70.56 595.12,-77.38"/>
</a>
</g>
</g>
<!-- Node11 -->
<g id="Node000011" class="node">
<title>Node11</title>
<g id="a_Node000011"><a xlink:href="../../dc/dd5/Closure_8hpp.html" target="_top" xlink:title="Subtype of the value type, handling closures.">
<polygon fill="white" stroke="#666666" points="549.38,-74.5 417.88,-74.5 417.88,-55.25 549.38,-55.25 549.38,-74.5"/>
<text text-anchor="middle" x="483.62" y="-61" font-family="Helvetica,sans-Serif" font-size="10.00">Ark/VM/Value/Closure.hpp</text>
</a>
</g>
</g>
<!-- Node7&#45;&gt;Node11 -->
<g id="edge12_Node000007_Node000011" class="edge">
<title>Node7&#45;&gt;Node11</title>
<g id="a_edge12_Node000007_Node000011"><a xlink:title=" ">
<path fill="none" stroke="#63b8ff" d="M271.34,-110.03C314.88,-100.98 381.83,-87.05 428.88,-77.26"/>
<polygon fill="#63b8ff" stroke="#63b8ff" points="429.53,-80.7 438.61,-75.24 428.1,-73.85 429.53,-80.7"/>
</a>
</g>
</g>
<!-- Node14 -->
<g id="Node000014" class="node">
<title>Node14</title>
<g id="a_Node000014"><a xlink:href="../../dc/d3d/UserType_8hpp.html" target="_top" xlink:title="Subtype of the value, capable of handling any C++ type.">
<polygon fill="white" stroke="#666666" points="399.5,-74.5 259.75,-74.5 259.75,-55.25 399.5,-55.25 399.5,-74.5"/>
<text text-anchor="middle" x="329.62" y="-61" font-family="Helvetica,sans-Serif" font-size="10.00">Ark/VM/Value/UserType.hpp</text>
</a>
</g>
</g>
<!-- Node7&#45;&gt;Node14 -->
<g id="edge17_Node000007_Node000014" class="edge">
<title>Node7&#45;&gt;Node14</title>
<g id="a_edge17_Node000007_Node000014"><a xlink:title=" ">
<path fill="none" stroke="#63b8ff" d="M244.93,-110.09C260.61,-101.91 283.98,-89.71 302.2,-80.19"/>
<polygon fill="#63b8ff" stroke="#63b8ff" points="303.65,-83.38 310.9,-75.65 300.41,-77.18 303.65,-83.38"/>
</a>
</g>
</g>
<!-- Node11&#45;&gt;Node6 -->
<g id="edge16_Node000011_Node000006" class="edge">
<title>Node11&#45;&gt;Node6</title>
<g id="a_edge16_Node000011_Node000006"><a xlink:title=" ">
<path fill="none" stroke="#63b8ff" d="M499.57,-54.84C513.89,-46.73 535.16,-34.68 551.88,-25.21"/>
<polygon fill="#63b8ff" stroke="#63b8ff" points="553.31,-28.42 560.28,-20.45 549.86,-22.33 553.31,-28.42"/>
</a>
</g>
</g>
<!-- Node11&#45;&gt;Node9 -->
<g id="edge15_Node000011_Node000009" class="edge">
<title>Node11&#45;&gt;Node9</title>
<g id="a_edge15_Node000011_Node000009"><a xlink:title=" ">
<path fill="none" stroke="#63b8ff" d="M435.13,-54.78C376.88,-43.86 280.84,-25.85 231.32,-16.57"/>
<polygon fill="#63b8ff" stroke="#63b8ff" points="232.04,-13.14 221.56,-14.74 230.74,-20.02 232.04,-13.14"/>
</a>
</g>
</g>
<!-- Node12 -->
<g id="Node000012" class="node">
<title>Node12</title>
<g id="a_Node000012"><a xlink:title=" ">
<polygon fill="#e0e0e0" stroke="#999999" points="509.25,-19.25 458,-19.25 458,0 509.25,0 509.25,-19.25"/>
<text text-anchor="middle" x="483.62" y="-5.75" font-family="Helvetica,sans-Serif" font-size="10.00">memory</text>
</a>
</g>
</g>
<!-- Node11&#45;&gt;Node12 -->
<g id="edge13_Node000011_Node000012" class="edge">
<title>Node11&#45;&gt;Node12</title>
<g id="a_edge13_Node000011_Node000012"><a xlink:title=" ">
<path fill="none" stroke="#63b8ff" d="M483.62,-55.08C483.62,-48.57 483.62,-39.42 483.62,-31.12"/>
<polygon fill="#63b8ff" stroke="#63b8ff" points="487.13,-31.12 483.63,-21.12 480.13,-31.12 487.13,-31.12"/>
</a>
</g>
</g>
<!-- Node13 -->
<g id="Node000013" class="node">
<title>Node13</title>
<g id="a_Node000013"><a xlink:title=" ">
<polygon fill="#e0e0e0" stroke="#999999" points="398.38,-19.25 344.88,-19.25 344.88,0 398.38,0 398.38,-19.25"/>
<text text-anchor="middle" x="371.62" y="-5.75" font-family="Helvetica,sans-Serif" font-size="10.00">iostream</text>
</a>
</g>
</g>
<!-- Node11&#45;&gt;Node13 -->
<g id="edge14_Node000011_Node000013" class="edge">
<title>Node11&#45;&gt;Node13</title>
<g id="a_edge14_Node000011_Node000013"><a xlink:title=" ">
<path fill="none" stroke="#63b8ff" d="M464.63,-54.84C447.17,-46.54 421.03,-34.11 400.9,-24.54"/>
<polygon fill="#63b8ff" stroke="#63b8ff" points="402.62,-21.49 392.08,-20.35 399.61,-27.81 402.62,-21.49"/>
</a>
</g>
</g>
<!-- Node14&#45;&gt;Node5 -->
<g id="edge19_Node000014_Node000005" class="edge">
<title>Node14&#45;&gt;Node5</title>
<g id="a_edge19_Node000014_Node000005"><a xlink:title=" ">
<path fill="none" stroke="#63b8ff" d="M290.01,-54.78C247.21,-44.96 179.45,-29.4 136.82,-19.62"/>
<polygon fill="#63b8ff" stroke="#63b8ff" points="137.77,-16.25 127.24,-17.42 136.2,-23.07 137.77,-16.25"/>
</a>
</g>
</g>
<!-- Node14&#45;&gt;Node6 -->
<g id="edge20_Node000014_Node000006" class="edge">
<title>Node14&#45;&gt;Node6</title>
<g id="a_edge20_Node000014_Node000006"><a xlink:title=" ">
<path fill="none" stroke="#63b8ff" d="M371.98,-54.78C414.06,-45.74 478.74,-31.86 524.3,-22.07"/>
<polygon fill="#63b8ff" stroke="#63b8ff" points="524.93,-25.52 533.97,-20 523.46,-18.68 524.93,-25.52"/>
</a>
</g>
</g>
<!-- Node14&#45;&gt;Node13 -->
<g id="edge18_Node000014_Node000013" class="edge">
<title>Node14&#45;&gt;Node13</title>
<g id="a_edge18_Node000014_Node000013"><a xlink:title=" ">
<path fill="none" stroke="#63b8ff" d="M336.56,-55.08C342.24,-47.88 350.46,-37.46 357.52,-28.51"/>
<polygon fill="#63b8ff" stroke="#63b8ff" points="360.16,-30.82 363.6,-20.8 354.66,-26.48 360.16,-30.82"/>
</a>
</g>
</g>
<!-- Node15&#45;&gt;Node5 -->
<g id="edge24_Node000015_Node000005" class="edge">
<title>Node15&#45;&gt;Node5</title>
<g id="a_edge24_Node000015_Node000005"><a xlink:title=" ">
<path fill="none" stroke="#63b8ff" d="M194.16,-165.3C149.06,-153.15 80.04,-126.77 48.62,-74.5 38.05,-56.91 55.72,-38.49 72.72,-25.97"/>
<polygon fill="#63b8ff" stroke="#63b8ff" points="74.39,-29.07 80.66,-20.53 70.43,-23.3 74.39,-29.07"/>
</a>
</g>
</g>
<!-- Node15&#45;&gt;Node6 -->
<g id="edge25_Node000015_Node000006" class="edge">
<title>Node15&#45;&gt;Node6</title>
<g id="a_edge25_Node000015_Node000006"><a xlink:title=" ">
<path fill="none" stroke="#63b8ff" d="M296.14,-172.82C412.26,-169.16 659.96,-158.09 685.62,-129.75 707.85,-105.21 704.03,-82.77 685.62,-55.25 673.78,-37.54 653.47,-26.84 633.64,-20.4"/>
<polygon fill="#63b8ff" stroke="#63b8ff" points="634.76,-17.08 624.18,-17.65 632.81,-23.8 634.76,-17.08"/>
</a>
</g>
</g>
<!-- Node15&#45;&gt;Node7 -->
<g id="edge26_Node000015_Node000007" class="edge">
<title>Node15&#45;&gt;Node7</title>
<g id="a_edge26_Node000015_Node000007"><a xlink:title=" ">
<path fill="none" stroke="#63b8ff" d="M235.14,-165.58C234.03,-158.99 232.46,-149.71 231.04,-141.32"/>
<polygon fill="#63b8ff" stroke="#63b8ff" points="234.51,-140.88 229.4,-131.6 227.61,-142.05 234.51,-140.88"/>
</a>
</g>
</g>
<!-- Node15&#45;&gt;Node10 -->
<g id="edge23_Node000015_Node000010" class="edge">
<title>Node15&#45;&gt;Node10</title>
<g id="a_edge23_Node000015_Node000010"><a xlink:title=" ">
<path fill="none" stroke="#63b8ff" d="M269.04,-165.31C342.88,-144.66 522.74,-94.37 594.42,-74.32"/>
<polygon fill="#63b8ff" stroke="#63b8ff" points="595.2,-77.74 603.89,-71.67 593.32,-71 595.2,-77.74"/>
</a>
</g>
</g>
</g>
</svg>
