<?xml version="1.0" encoding="UTF-8" standalone="no"?>
<!DOCTYPE svg PUBLIC "-//W3C//DTD SVG 1.1//EN"
 "http://www.w3.org/Graphics/SVG/1.1/DTD/svg11.dtd">
<!-- Generated by graphviz version 10.0.1 (20240210.2158)
 -->
<!-- Title: /Users/fola/Documents/ArkScript/Ark/include/Ark/Compiler/AST/Import.hpp Pages: 1 -->
<svg width="744pt" height="361pt"
 viewBox="0.00 0.00 743.50 360.75" xmlns="http://www.w3.org/2000/svg" xmlns:xlink="http://www.w3.org/1999/xlink">
<g id="graph0" class="graph" transform="scale(1 1) rotate(0) translate(4 356.75)">
<title>/Users/fola/Documents/ArkScript/Ark/include/Ark/Compiler/AST/Import.hpp</title>
<!-- Node1 -->
<g id="node1" class="node">
<title>Node1</title>
<g id="a_node1"><a xlink:title=" ">
<polygon fill="#999999" stroke="#666666" points="444.25,-352.75 296.25,-352.75 296.25,-311 444.25,-311 444.25,-352.75"/>
<text text-anchor="start" x="304.25" y="-339.25" font-family="Helvetica,sans-Serif" font-size="10.00">/Users/fola/Documents</text>
<text text-anchor="start" x="304.25" y="-328" font-family="Helvetica,sans-Serif" font-size="10.00">/ArkScript/Ark/include</text>
<text text-anchor="middle" x="370.25" y="-316.75" font-family="Helvetica,sans-Serif" font-size="10.00">/Ark/Compiler/AST/Import.hpp</text>
</a>
</g>
</g>
<!-- Node2 -->
<g id="node2" class="node">
<title>Node2</title>
<g id="a_node2"><a xlink:href="../../d7/ddd/Parser_8hpp.html" target="_top" xlink:title="Parse ArkScript code, but do not handle any import declarations.">
<polygon fill="white" stroke="#666666" points="528.25,-275 380.25,-275 380.25,-233.25 528.25,-233.25 528.25,-275"/>
<text text-anchor="start" x="388.25" y="-261.5" font-family="Helvetica,sans-Serif" font-size="10.00">/Users/fola/Documents</text>
<text text-anchor="start" x="388.25" y="-250.25" font-family="Helvetica,sans-Serif" font-size="10.00">/ArkScript/Ark/include</text>
<text text-anchor="middle" x="454.25" y="-239" font-family="Helvetica,sans-Serif" font-size="10.00">/Ark/Compiler/AST/Parser.hpp</text>
</a>
</g>
</g>
<!-- Node1&#45;&gt;Node2 -->
<g id="edge1" class="edge">
<title>Node1&#45;&gt;Node2</title>
<path fill="none" stroke="#63b8ff" d="M401.01,-303.14C411.16,-293.98 422.25,-283.98 431.68,-275.48"/>
<polygon fill="#63b8ff" stroke="#63b8ff" points="398.97,-300.27 393.88,-309.56 403.65,-305.46 398.97,-300.27"/>
</g>
<!-- Node13 -->
<g id="node13" class="node">
<title>Node13</title>
<g id="a_node13"><a xlink:href="../../d1/db0/ImportSolver_8hpp.html" target="_top" xlink:title=" ">
<polygon fill="white" stroke="#666666" points="362.5,-275 210,-275 210,-233.25 362.5,-233.25 362.5,-275"/>
<text text-anchor="start" x="218" y="-261.5" font-family="Helvetica,sans-Serif" font-size="10.00">/Users/fola/Documents</text>
<text text-anchor="start" x="218" y="-250.25" font-family="Helvetica,sans-Serif" font-size="10.00">/ArkScript/Ark/include</text>
<text text-anchor="middle" x="286.25" y="-239" font-family="Helvetica,sans-Serif" font-size="10.00">/Ark/Compiler/ImportSolver.hpp</text>
</a>
</g>
</g>
<!-- Node1&#45;&gt;Node13 -->
<g id="edge13" class="edge">
<title>Node1&#45;&gt;Node13</title>
<path fill="none" stroke="#63b8ff" d="M339.49,-303.14C329.34,-293.98 318.25,-283.98 308.82,-275.48"/>
<polygon fill="#63b8ff" stroke="#63b8ff" points="336.85,-305.46 346.62,-309.56 341.53,-300.27 336.85,-305.46"/>
</g>
<!-- Node3 -->
<g id="node3" class="node">
<title>Node3</title>
<g id="a_node3"><a xlink:href="../../de/d8e/Welder_8hpp.html" target="_top" xlink:title="In charge of welding everything needed to compile code.">
<polygon fill="white" stroke="#666666" points="439.75,-197.25 312.75,-197.25 312.75,-155.5 439.75,-155.5 439.75,-197.25"/>
<text text-anchor="start" x="320.75" y="-183.75" font-family="Helvetica,sans-Serif" font-size="10.00">/Users/fola/Documents</text>
<text text-anchor="start" x="320.75" y="-172.5" font-family="Helvetica,sans-Serif" font-size="10.00">/ArkScript/Ark/include</text>
<text text-anchor="middle" x="376.25" y="-161.25" font-family="Helvetica,sans-Serif" font-size="10.00">/Ark/Compiler/Welder.hpp</text>
</a>
</g>
</g>
<!-- Node2&#45;&gt;Node3 -->
<g id="edge2" class="edge">
<title>Node2&#45;&gt;Node3</title>
<path fill="none" stroke="#63b8ff" d="M425.12,-224.84C415.85,-215.84 405.79,-206.06 397.21,-197.73"/>
<polygon fill="#63b8ff" stroke="#63b8ff" points="422.65,-227.31 432.26,-231.77 427.53,-222.29 422.65,-227.31"/>
</g>
<!-- Node9 -->
<g id="node9" class="node">
<title>Node9</title>
<g id="a_node9"><a xlink:href="../../d9/d2e/Formatter_8hpp.html" target="_top" xlink:title=" ">
<polygon fill="white" stroke="#666666" points="576.88,-197.25 459.62,-197.25 459.62,-155.5 576.88,-155.5 576.88,-197.25"/>
<text text-anchor="start" x="467.62" y="-183.75" font-family="Helvetica,sans-Serif" font-size="10.00">/Users/fola/Documents</text>
<text text-anchor="start" x="467.62" y="-172.5" font-family="Helvetica,sans-Serif" font-size="10.00">/ArkScript/Ark/include</text>
<text text-anchor="middle" x="518.25" y="-161.25" font-family="Helvetica,sans-Serif" font-size="10.00">/CLI/Formatter.hpp</text>
</a>
</g>
</g>
<!-- Node2&#45;&gt;Node9 -->
<g id="edge8" class="edge">
<title>Node2&#45;&gt;Node9</title>
<path fill="none" stroke="#63b8ff" d="M478.62,-224.29C486.09,-215.44 494.16,-205.89 501.05,-197.73"/>
<polygon fill="#63b8ff" stroke="#63b8ff" points="476.16,-221.77 472.38,-231.67 481.5,-226.29 476.16,-221.77"/>
</g>
<!-- Node11 -->
<g id="node11" class="node">
<title>Node11</title>
<g id="a_node11"><a xlink:href="../../dc/df5/Parser_8cpp.html" target="_top" xlink:title=" ">
<polygon fill="white" stroke="#666666" points="735.5,-197.25 595,-197.25 595,-155.5 735.5,-155.5 735.5,-197.25"/>
<text text-anchor="start" x="603" y="-183.75" font-family="Helvetica,sans-Serif" font-size="10.00">/Users/fola/Documents</text>
<text text-anchor="start" x="603" y="-172.5" font-family="Helvetica,sans-Serif" font-size="10.00">/ArkScript/Ark/src/arkreactor</text>
<text text-anchor="middle" x="665.25" y="-161.25" font-family="Helvetica,sans-Serif" font-size="10.00">/Compiler/AST/Parser.cpp</text>
</a>
</g>
</g>
<!-- Node2&#45;&gt;Node11 -->
<g id="edge11" class="edge">
<title>Node2&#45;&gt;Node11</title>
<path fill="none" stroke="#63b8ff" d="M521.33,-229.04C549.4,-218.96 581.68,-207.38 608.55,-197.73"/>
<polygon fill="#63b8ff" stroke="#63b8ff" points="520.45,-225.64 512.22,-232.31 522.81,-232.23 520.45,-225.64"/>
</g>
<!-- Node12 -->
<g id="node12" class="node">
<title>Node12</title>
<g id="a_node12"><a xlink:href="../../d6/d41/ImportSolver_8cpp.html" target="_top" xlink:title=" ">
<polygon fill="white" stroke="#666666" points="294.5,-197.25 154,-197.25 154,-155.5 294.5,-155.5 294.5,-197.25"/>
<text text-anchor="start" x="162" y="-183.75" font-family="Helvetica,sans-Serif" font-size="10.00">/Users/fola/Documents</text>
<text text-anchor="start" x="162" y="-172.5" font-family="Helvetica,sans-Serif" font-size="10.00">/ArkScript/Ark/src/arkreactor</text>
<text text-anchor="middle" x="224.25" y="-161.25" font-family="Helvetica,sans-Serif" font-size="10.00">/Compiler/ImportSolver.cpp</text>
</a>
</g>
</g>
<!-- Node2&#45;&gt;Node12 -->
<g id="edge12" class="edge">
<title>Node2&#45;&gt;Node12</title>
<path fill="none" stroke="#63b8ff" d="M381.94,-229.31C351.15,-219.17 315.6,-207.46 286.06,-197.73"/>
<polygon fill="#63b8ff" stroke="#63b8ff" points="380.58,-232.55 391.18,-232.35 382.77,-225.9 380.58,-232.55"/>
</g>
<!-- Node4 -->
<g id="node4" class="node">
<title>Node4</title>
<g id="a_node4"><a xlink:href="../../dc/dfd/JsonCompiler_8hpp.html" target="_top" xlink:title=" ">
<polygon fill="white" stroke="#666666" points="434.88,-119.5 317.62,-119.5 317.62,-77.75 434.88,-77.75 434.88,-119.5"/>
<text text-anchor="start" x="325.62" y="-106" font-family="Helvetica,sans-Serif" font-size="10.00">/Users/fola/Documents</text>
<text text-anchor="start" x="325.62" y="-94.75" font-family="Helvetica,sans-Serif" font-size="10.00">/ArkScript/Ark/include</text>
<text text-anchor="middle" x="376.25" y="-83.5" font-family="Helvetica,sans-Serif" font-size="10.00">/CLI/JsonCompiler.hpp</text>
</a>
</g>
</g>
<!-- Node3&#45;&gt;Node4 -->
<g id="edge3" class="edge">
<title>Node3&#45;&gt;Node4</title>
<path fill="none" stroke="#63b8ff" d="M376.25,-143.75C376.25,-135.71 376.25,-127.29 376.25,-119.98"/>
<polygon fill="#63b8ff" stroke="#63b8ff" points="372.75,-143.56 376.25,-153.56 379.75,-143.56 372.75,-143.56"/>
</g>
<!-- Node7 -->
<g id="node7" class="node">
<title>Node7</title>
<g id="a_node7"><a xlink:href="../../d3/df1/Welder_8cpp.html" target="_top" xlink:title=" ">
<polygon fill="white" stroke="#666666" points="140.5,-119.5 0,-119.5 0,-77.75 140.5,-77.75 140.5,-119.5"/>
<text text-anchor="start" x="8" y="-106" font-family="Helvetica,sans-Serif" font-size="10.00">/Users/fola/Documents</text>
<text text-anchor="start" x="8" y="-94.75" font-family="Helvetica,sans-Serif" font-size="10.00">/ArkScript/Ark/src/arkreactor</text>
<text text-anchor="middle" x="70.25" y="-83.5" font-family="Helvetica,sans-Serif" font-size="10.00">/Compiler/Welder.cpp</text>
</a>
</g>
</g>
<!-- Node3&#45;&gt;Node7 -->
<g id="edge6" class="edge">
<title>Node3&#45;&gt;Node7</title>
<path fill="none" stroke="#63b8ff" d="M301.71,-155.15C233.72,-138.05 214.83,-135.12 150.25,-119.5 147.19,-118.76 144.06,-118 140.91,-117.23"/>
<polygon fill="#63b8ff" stroke="#63b8ff" points="300.56,-158.47 311.12,-157.53 302.28,-151.69 300.56,-158.47"/>
</g>
<!-- Node8 -->
<g id="node8" class="node">
<title>Node8</title>
<g id="a_node8"><a xlink:href="../../d0/da0/State_8cpp.html" target="_top" xlink:title=" ">
<polygon fill="white" stroke="#666666" points="299.5,-119.5 159,-119.5 159,-77.75 299.5,-77.75 299.5,-119.5"/>
<text text-anchor="start" x="167" y="-106" font-family="Helvetica,sans-Serif" font-size="10.00">/Users/fola/Documents</text>
<text text-anchor="start" x="167" y="-94.75" font-family="Helvetica,sans-Serif" font-size="10.00">/ArkScript/Ark/src/arkreactor</text>
<text text-anchor="middle" x="229.25" y="-83.5" font-family="Helvetica,sans-Serif" font-size="10.00">/VM/State.cpp</text>
</a>
</g>
</g>
<!-- Node3&#45;&gt;Node8 -->
<g id="edge7" class="edge">
<title>Node3&#45;&gt;Node8</title>
<path fill="none" stroke="#63b8ff" d="M326.65,-149.82C307.79,-140.1 286.56,-129.16 268.75,-119.98"/>
<polygon fill="#63b8ff" stroke="#63b8ff" points="325.02,-152.91 335.51,-154.38 328.23,-146.69 325.02,-152.91"/>
</g>
<!-- Node5 -->
<g id="node5" class="node">
<title>Node5</title>
<g id="a_node5"><a xlink:href="../../db/d71/JsonCompiler_8cpp.html" target="_top" xlink:title=" ">
<polygon fill="white" stroke="#666666" points="443.5,-41.75 309,-41.75 309,0 443.5,0 443.5,-41.75"/>
<text text-anchor="start" x="317" y="-28.25" font-family="Helvetica,sans-Serif" font-size="10.00">/Users/fola/Documents</text>
<text text-anchor="start" x="317" y="-17" font-family="Helvetica,sans-Serif" font-size="10.00">/ArkScript/Ark/src/arkscript</text>
<text text-anchor="middle" x="376.25" y="-5.75" font-family="Helvetica,sans-Serif" font-size="10.00">/JsonCompiler.cpp</text>
</a>
</g>
</g>
<!-- Node4&#45;&gt;Node5 -->
<g id="edge4" class="edge">
<title>Node4&#45;&gt;Node5</title>
<path fill="none" stroke="#63b8ff" d="M376.25,-66C376.25,-57.96 376.25,-49.54 376.25,-42.23"/>
<polygon fill="#63b8ff" stroke="#63b8ff" points="372.75,-65.81 376.25,-75.81 379.75,-65.81 372.75,-65.81"/>
</g>
<!-- Node6 -->
<g id="node6" class="node">
<title>Node6</title>
<g id="a_node6"><a xlink:href="../../df/d0a/main_8cpp.html" target="_top" xlink:title=" ">
<polygon fill="white" stroke="#666666" points="639.5,-41.75 505,-41.75 505,0 639.5,0 639.5,-41.75"/>
<text text-anchor="start" x="513" y="-28.25" font-family="Helvetica,sans-Serif" font-size="10.00">/Users/fola/Documents</text>
<text text-anchor="start" x="513" y="-17" font-family="Helvetica,sans-Serif" font-size="10.00">/ArkScript/Ark/src/arkscript</text>
<text text-anchor="middle" x="572.25" y="-5.75" font-family="Helvetica,sans-Serif" font-size="10.00">/main.cpp</text>
</a>
</g>
</g>
<!-- Node4&#45;&gt;Node6 -->
<g id="edge5" class="edge">
<title>Node4&#45;&gt;Node6</title>
<path fill="none" stroke="#63b8ff" d="M439.25,-73.28C465.17,-63.26 494.84,-51.79 519.58,-42.23"/>
<polygon fill="#63b8ff" stroke="#63b8ff" points="438.25,-69.91 430.19,-76.78 440.78,-76.44 438.25,-69.91"/>
</g>
<!-- Node9&#45;&gt;Node6 -->
<g id="edge10" class="edge">
<title>Node9&#45;&gt;Node6</title>
<path fill="none" stroke="#63b8ff" d="M570.28,-148.7C580.72,-140.79 590.3,-131.07 596.25,-119.5 609.09,-94.51 596.29,-62.34 585.02,-41.9"/>
<polygon fill="#63b8ff" stroke="#63b8ff" points="568.4,-145.74 562.19,-154.32 572.4,-151.49 568.4,-145.74"/>
</g>
<!-- Node10 -->
<g id="node10" class="node">
<title>Node10</title>
<g id="a_node10"><a xlink:href="../../d2/d56/Formatter_8cpp.html" target="_top" xlink:title=" ">
<polygon fill="white" stroke="#666666" points="587.5,-119.5 453,-119.5 453,-77.75 587.5,-77.75 587.5,-119.5"/>
<text text-anchor="start" x="461" y="-106" font-family="Helvetica,sans-Serif" font-size="10.00">/Users/fola/Documents</text>
<text text-anchor="start" x="461" y="-94.75" font-family="Helvetica,sans-Serif" font-size="10.00">/ArkScript/Ark/src/arkscript</text>
<text text-anchor="middle" x="520.25" y="-83.5" font-family="Helvetica,sans-Serif" font-size="10.00">/Formatter.cpp</text>
</a>
</g>
</g>
<!-- Node9&#45;&gt;Node10 -->
<g id="edge9" class="edge">
<title>Node9&#45;&gt;Node10</title>
<path fill="none" stroke="#63b8ff" d="M519.08,-143.75C519.3,-135.71 519.52,-127.29 519.71,-119.98"/>
<polygon fill="#63b8ff" stroke="#63b8ff" points="515.59,-143.47 518.83,-153.56 522.59,-143.66 515.59,-143.47"/>
</g>
<!-- Node13&#45;&gt;Node3 -->
<g id="edge14" class="edge">
<title>Node13&#45;&gt;Node3</title>
<path fill="none" stroke="#63b8ff" d="M318.88,-225.66C329.84,-216.44 341.87,-206.31 352.07,-197.73"/>
<polygon fill="#63b8ff" stroke="#63b8ff" points="316.92,-222.73 311.53,-231.85 321.43,-228.09 316.92,-222.73"/>
</g>
<!-- Node13&#45;&gt;Node12 -->
<g id="edge15" class="edge">
<title>Node13&#45;&gt;Node12</title>
<path fill="none" stroke="#63b8ff" d="M262.42,-224.01C255.24,-215.24 247.52,-205.8 240.91,-197.73"/>
<polygon fill="#63b8ff" stroke="#63b8ff" points="259.63,-226.13 268.68,-231.65 265.05,-221.7 259.63,-226.13"/>
</g>
</g>
</svg>
