<?xml version="1.0" encoding="UTF-8" standalone="no"?>
<!DOCTYPE svg PUBLIC "-//W3C//DTD SVG 1.1//EN"
 "http://www.w3.org/Graphics/SVG/1.1/DTD/svg11.dtd">
<!-- Generated by graphviz version 12.1.1 (20240910.0053)
 -->
<!-- Title: /Users/fola/Documents/ArkScript/Ark/include/Ark/Compiler/Pass.hpp Pages: 1 -->
<svg width="637pt" height="216pt"
 viewBox="0.00 0.00 637.25 215.50" xmlns="http://www.w3.org/2000/svg" xmlns:xlink="http://www.w3.org/1999/xlink">
<g id="graph0" class="graph" transform="scale(1 1) rotate(0) translate(4 211.5)">
<title>/Users/fola/Documents/ArkScript/Ark/include/Ark/Compiler/Pass.hpp</title>
<!-- Node1 -->
<g id="Node000001" class="node">
<title>Node1</title>
<g id="a_Node000001"><a xlink:title="Interface for a compiler pass (take in an AST, output an AST)">
<polygon fill="#999999" stroke="#666666" points="403.75,-207.5 283.5,-207.5 283.5,-165.75 403.75,-165.75 403.75,-207.5"/>
<text text-anchor="start" x="291.5" y="-194" font-family="Helvetica,sans-Serif" font-size="10.00">/Users/fola/Documents</text>
<text text-anchor="start" x="291.5" y="-182.75" font-family="Helvetica,sans-Serif" font-size="10.00">/ArkScript/Ark/include</text>
<text text-anchor="middle" x="343.62" y="-171.5" font-family="Helvetica,sans-Serif" font-size="10.00">/Ark/Compiler/Pass.hpp</text>
</a>
</g>
</g>
<!-- Node2 -->
<g id="Node000002" class="node">
<title>Node2</title>
<g id="a_Node000002"><a xlink:href="../../d7/dc6/Node_8hpp.html" target="_top" xlink:title="AST node used by the parser, optimizer and compiler.">
<polygon fill="white" stroke="#666666" points="307.88,-129.75 167.38,-129.75 167.38,-110.5 307.88,-110.5 307.88,-129.75"/>
<text text-anchor="middle" x="237.62" y="-116.25" font-family="Helvetica,sans-Serif" font-size="10.00">Ark/Compiler/AST/Node.hpp</text>
</a>
</g>
</g>
<!-- Node1&#45;&gt;Node2 -->
<g id="edge1_Node000001_Node000002" class="edge">
<title>Node1&#45;&gt;Node2</title>
<g id="a_edge1_Node000001_Node000002"><a xlink:title=" ">
<path fill="none" stroke="#63b8ff" d="M310.38,-165.39C294.74,-155.88 276.43,-144.74 262.09,-136.01"/>
<polygon fill="#63b8ff" stroke="#63b8ff" points="264.1,-133.14 253.74,-130.93 260.46,-139.12 264.1,-133.14"/>
</a>
</g>
</g>
<!-- Node12 -->
<g id="Node000012" class="node">
<title>Node12</title>
<g id="a_Node000012"><a xlink:href="../../d9/d11/Logger_8hpp.html" target="_top" xlink:title="Internal logger.">
<polygon fill="white" stroke="#666666" points="523.25,-129.75 442,-129.75 442,-110.5 523.25,-110.5 523.25,-129.75"/>
<text text-anchor="middle" x="482.62" y="-116.25" font-family="Helvetica,sans-Serif" font-size="10.00">Ark/Logger.hpp</text>
</a>
</g>
</g>
<!-- Node1&#45;&gt;Node12 -->
<g id="edge12_Node000001_Node000012" class="edge">
<title>Node1&#45;&gt;Node12</title>
<g id="a_edge12_Node000001_Node000012"><a xlink:title=" ">
<path fill="none" stroke="#63b8ff" d="M387.22,-165.39C408.62,-155.46 433.84,-143.76 452.97,-134.88"/>
<polygon fill="#63b8ff" stroke="#63b8ff" points="454.22,-138.17 461.81,-130.78 451.27,-131.82 454.22,-138.17"/>
</a>
</g>
</g>
<!-- Node3 -->
<g id="Node000003" class="node">
<title>Node3</title>
<g id="a_Node000003"><a xlink:title=" ">
<polygon fill="#e0e0e0" stroke="#999999" points="45.25,-74.5 0,-74.5 0,-55.25 45.25,-55.25 45.25,-74.5"/>
<text text-anchor="middle" x="22.62" y="-61" font-family="Helvetica,sans-Serif" font-size="10.00">variant</text>
</a>
</g>
</g>
<!-- Node2&#45;&gt;Node3 -->
<g id="edge2_Node000002_Node000003" class="edge">
<title>Node2&#45;&gt;Node3</title>
<g id="a_edge2_Node000002_Node000003"><a xlink:title=" ">
<path fill="none" stroke="#63b8ff" d="M198.41,-110.01C163.42,-101.8 110.54,-89.16 56.45,-75.18"/>
<polygon fill="#63b8ff" stroke="#63b8ff" points="57.65,-71.87 47.09,-72.75 55.89,-78.65 57.65,-71.87"/>
</a>
</g>
</g>
<!-- Node4 -->
<g id="Node000004" class="node">
<title>Node4</title>
<g id="a_Node000004"><a xlink:title=" ">
<polygon fill="#e0e0e0" stroke="#999999" points="114.25,-74.5 63,-74.5 63,-55.25 114.25,-55.25 114.25,-74.5"/>
<text text-anchor="middle" x="88.62" y="-61" font-family="Helvetica,sans-Serif" font-size="10.00">ostream</text>
</a>
</g>
</g>
<!-- Node2&#45;&gt;Node4 -->
<g id="edge3_Node000002_Node000004" class="edge">
<title>Node2&#45;&gt;Node4</title>
<g id="a_edge3_Node000002_Node000004"><a xlink:title=" ">
<path fill="none" stroke="#63b8ff" d="M212.35,-110.09C188.27,-101.49 151.77,-88.44 124.64,-78.75"/>
<polygon fill="#63b8ff" stroke="#63b8ff" points="126.04,-75.53 115.45,-75.46 123.69,-82.12 126.04,-75.53"/>
</a>
</g>
</g>
<!-- Node5 -->
<g id="Node000005" class="node">
<title>Node5</title>
<g id="a_Node000005"><a xlink:title=" ">
<polygon fill="#e0e0e0" stroke="#999999" points="470.62,-74.5 430.62,-74.5 430.62,-55.25 470.62,-55.25 470.62,-74.5"/>
<text text-anchor="middle" x="450.62" y="-61" font-family="Helvetica,sans-Serif" font-size="10.00">string</text>
</a>
</g>
</g>
<!-- Node2&#45;&gt;Node5 -->
<g id="edge4_Node000002_Node000005" class="edge">
<title>Node2&#45;&gt;Node5</title>
<g id="a_edge4_Node000002_Node000005"><a xlink:title=" ">
<path fill="none" stroke="#63b8ff" d="M277.62,-110.05C312.65,-101.96 365.19,-89.49 419.5,-74.97"/>
<polygon fill="#63b8ff" stroke="#63b8ff" points="420.17,-78.41 428.92,-72.43 418.35,-71.66 420.17,-78.41"/>
</a>
</g>
</g>
<!-- Node6 -->
<g id="Node000006" class="node">
<title>Node6</title>
<g id="a_Node000006"><a xlink:title=" ">
<polygon fill="#e0e0e0" stroke="#999999" points="164.12,-19.25 121.12,-19.25 121.12,0 164.12,0 164.12,-19.25"/>
<text text-anchor="middle" x="142.62" y="-5.75" font-family="Helvetica,sans-Serif" font-size="10.00">vector</text>
</a>
</g>
</g>
<!-- Node2&#45;&gt;Node6 -->
<g id="edge5_Node000002_Node000006" class="edge">
<title>Node2&#45;&gt;Node6</title>
<g id="a_edge5_Node000002_Node000006"><a xlink:title=" ">
<path fill="none" stroke="#63b8ff" d="M212.37,-110.02C195.71,-102.79 174.65,-91.12 161.62,-74.5 151.68,-61.81 146.94,-44.01 144.67,-30.42"/>
<polygon fill="#63b8ff" stroke="#63b8ff" points="148.19,-30.35 143.41,-20.9 141.25,-31.27 148.19,-30.35"/>
</a>
</g>
</g>
<!-- Node7 -->
<g id="Node000007" class="node">
<title>Node7</title>
<g id="a_Node000007"><a xlink:href="../../d8/ddd/Common_8hpp.html" target="_top" xlink:title="Common code for the compiler.">
<polygon fill="white" stroke="#666666" points="304.88,-74.5 170.38,-74.5 170.38,-55.25 304.88,-55.25 304.88,-74.5"/>
<text text-anchor="middle" x="237.62" y="-61" font-family="Helvetica,sans-Serif" font-size="10.00">Ark/Compiler/Common.hpp</text>
</a>
</g>
</g>
<!-- Node2&#45;&gt;Node7 -->
<g id="edge6_Node000002_Node000007" class="edge">
<title>Node2&#45;&gt;Node7</title>
<g id="a_edge6_Node000002_Node000007"><a xlink:title=" ">
<path fill="none" stroke="#63b8ff" d="M237.62,-110.33C237.62,-103.82 237.62,-94.67 237.62,-86.37"/>
<polygon fill="#63b8ff" stroke="#63b8ff" points="241.13,-86.37 237.63,-76.37 234.13,-86.37 241.13,-86.37"/>
</a>
</g>
</g>
<!-- Node11 -->
<g id="Node000011" class="node">
<title>Node11</title>
<g id="a_Node000011"><a xlink:href="../../d5/d40/Platform_8hpp.html" target="_top" xlink:title="ArkScript configuration macros.">
<polygon fill="white" stroke="#666666" points="412.38,-74.5 322.88,-74.5 322.88,-55.25 412.38,-55.25 412.38,-74.5"/>
<text text-anchor="middle" x="367.62" y="-61" font-family="Helvetica,sans-Serif" font-size="10.00">Ark/Platform.hpp</text>
</a>
</g>
</g>
<!-- Node2&#45;&gt;Node11 -->
<g id="edge11_Node000002_Node000011" class="edge">
<title>Node2&#45;&gt;Node11</title>
<g id="a_edge11_Node000002_Node000011"><a xlink:title=" ">
<path fill="none" stroke="#63b8ff" d="M259.68,-110.09C280.31,-101.64 311.41,-88.9 334.93,-79.27"/>
<polygon fill="#63b8ff" stroke="#63b8ff" points="336.14,-82.56 344.06,-75.53 333.48,-76.08 336.14,-82.56"/>
</a>
</g>
</g>
<!-- Node7&#45;&gt;Node6 -->
<g id="edge9_Node000007_Node000006" class="edge">
<title>Node7&#45;&gt;Node6</title>
<g id="a_edge9_Node000007_Node000006"><a xlink:title=" ">
<path fill="none" stroke="#63b8ff" d="M221.51,-54.84C207.04,-46.73 185.55,-34.68 168.64,-25.21"/>
<polygon fill="#63b8ff" stroke="#63b8ff" points="170.57,-22.28 160.14,-20.44 167.15,-28.39 170.57,-22.28"/>
</a>
</g>
</g>
<!-- Node8 -->
<g id="Node000008" class="node">
<title>Node8</title>
<g id="a_Node000008"><a xlink:title=" ">
<polygon fill="#e0e0e0" stroke="#999999" points="219.5,-19.25 181.75,-19.25 181.75,0 219.5,0 219.5,-19.25"/>
<text text-anchor="middle" x="200.62" y="-5.75" font-family="Helvetica,sans-Serif" font-size="10.00">array</text>
</a>
</g>
</g>
<!-- Node7&#45;&gt;Node8 -->
<g id="edge7_Node000007_Node000008" class="edge">
<title>Node7&#45;&gt;Node8</title>
<g id="a_edge7_Node000007_Node000008"><a xlink:title=" ">
<path fill="none" stroke="#63b8ff" d="M231.52,-55.08C226.56,-47.96 219.42,-37.68 213.25,-28.8"/>
<polygon fill="#63b8ff" stroke="#63b8ff" points="216.31,-27.07 207.73,-20.85 210.56,-31.06 216.31,-27.07"/>
</a>
</g>
</g>
<!-- Node9 -->
<g id="Node000009" class="node">
<title>Node9</title>
<g id="a_Node000009"><a xlink:title=" ">
<polygon fill="#e0e0e0" stroke="#999999" points="303.38,-19.25 237.88,-19.25 237.88,0 303.38,0 303.38,-19.25"/>
<text text-anchor="middle" x="270.62" y="-5.75" font-family="Helvetica,sans-Serif" font-size="10.00">string_view</text>
</a>
</g>
</g>
<!-- Node7&#45;&gt;Node9 -->
<g id="edge8_Node000007_Node000009" class="edge">
<title>Node7&#45;&gt;Node9</title>
<g id="a_edge8_Node000007_Node000009"><a xlink:title=" ">
<path fill="none" stroke="#63b8ff" d="M243.07,-55.08C247.4,-48.11 253.59,-38.12 259.01,-29.37"/>
<polygon fill="#63b8ff" stroke="#63b8ff" points="261.97,-31.24 264.26,-20.9 256.02,-27.55 261.97,-31.24"/>
</a>
</g>
</g>
<!-- Node10 -->
<g id="Node000010" class="node">
<title>Node10</title>
<g id="a_Node000010"><a xlink:title=" ">
<polygon fill="#e0e0e0" stroke="#999999" points="377.5,-19.25 321.75,-19.25 321.75,0 377.5,0 377.5,-19.25"/>
<text text-anchor="middle" x="349.62" y="-5.75" font-family="Helvetica,sans-Serif" font-size="10.00">cinttypes</text>
</a>
</g>
</g>
<!-- Node7&#45;&gt;Node10 -->
<g id="edge10_Node000007_Node000010" class="edge">
<title>Node7&#45;&gt;Node10</title>
<g id="a_edge10_Node000007_Node000010"><a xlink:title=" ">
<path fill="none" stroke="#63b8ff" d="M256.62,-54.84C274.08,-46.54 300.22,-34.11 320.35,-24.54"/>
<polygon fill="#63b8ff" stroke="#63b8ff" points="321.64,-27.81 329.17,-20.35 318.63,-21.49 321.64,-27.81"/>
</a>
</g>
</g>
<!-- Node12&#45;&gt;Node5 -->
<g id="edge15_Node000012_Node000005" class="edge">
<title>Node12&#45;&gt;Node5</title>
<g id="a_edge15_Node000012_Node000005"><a xlink:title=" ">
<path fill="none" stroke="#63b8ff" d="M477.34,-110.33C473.15,-103.36 467.15,-93.37 461.89,-84.62"/>
<polygon fill="#63b8ff" stroke="#63b8ff" points="464.95,-82.93 456.8,-76.16 458.95,-86.53 464.95,-82.93"/>
</a>
</g>
</g>
<!-- Node13 -->
<g id="Node000013" class="node">
<title>Node13</title>
<g id="a_Node000013"><a xlink:title=" ">
<polygon fill="#e0e0e0" stroke="#999999" points="542.38,-74.5 488.88,-74.5 488.88,-55.25 542.38,-55.25 542.38,-74.5"/>
<text text-anchor="middle" x="515.62" y="-61" font-family="Helvetica,sans-Serif" font-size="10.00">iostream</text>
</a>
</g>
</g>
<!-- Node12&#45;&gt;Node13 -->
<g id="edge13_Node000012_Node000013" class="edge">
<title>Node12&#45;&gt;Node13</title>
<g id="a_edge13_Node000012_Node000013"><a xlink:title=" ">
<path fill="none" stroke="#63b8ff" d="M488.07,-110.33C492.4,-103.36 498.59,-93.37 504.01,-84.62"/>
<polygon fill="#63b8ff" stroke="#63b8ff" points="506.97,-86.49 509.26,-76.15 501.02,-82.8 506.97,-86.49"/>
</a>
</g>
</g>
<!-- Node14 -->
<g id="Node000014" class="node">
<title>Node14</title>
<g id="a_Node000014"><a xlink:title=" ">
<polygon fill="#e0e0e0" stroke="#999999" points="629.25,-74.5 560,-74.5 560,-55.25 629.25,-55.25 629.25,-74.5"/>
<text text-anchor="middle" x="594.62" y="-61" font-family="Helvetica,sans-Serif" font-size="10.00">fmt/format.h</text>
</a>
</g>
</g>
<!-- Node12&#45;&gt;Node14 -->
<g id="edge14_Node000012_Node000014" class="edge">
<title>Node12&#45;&gt;Node14</title>
<g id="a_edge14_Node000012_Node000014"><a xlink:title=" ">
<path fill="none" stroke="#63b8ff" d="M501.62,-110.09C519.08,-101.79 545.22,-89.36 565.35,-79.79"/>
<polygon fill="#63b8ff" stroke="#63b8ff" points="566.64,-83.06 574.17,-75.6 563.63,-76.74 566.64,-83.06"/>
</a>
</g>
</g>
</g>
</svg>
