<?xml version="1.0" encoding="UTF-8" standalone="no"?>
<!DOCTYPE svg PUBLIC "-//W3C//DTD SVG 1.1//EN"
 "http://www.w3.org/Graphics/SVG/1.1/DTD/svg11.dtd">
<!-- Generated by graphviz version 10.0.1 (20240210.2158)
 -->
<!-- Title: /Users/fola/Documents/ArkScript/Ark/include/Ark/Compiler/ImportSolver.hpp Pages: 1 -->
<!--zoomable 271 -->
<svg id="main" version="1.1" xmlns="http://www.w3.org/2000/svg" xmlns:xlink="http://www.w3.org/1999/xlink" xml:space="preserve" onload="init(evt)">
<style type="text/css"><![CDATA[
.edge:hover path { stroke: red; }
.edge:hover polygon { stroke: red; fill: red; }
]]></style>
<script type="text/javascript"><![CDATA[
var edges = document.getElementsByTagName('g');
if (edges && edges.length) {
  for (var i=0;i<edges.length;i++) {
    if (edges[i].id.substr(0,4)=='edge') {
      edges[i].setAttribute('class','edge');
    }
  }
}
]]></script>
        <defs>
                <circle id="rim" cx="0" cy="0" r="7"/>
                <circle id="rim2" cx="0" cy="0" r="3.5"/>
                <g id="zoomPlus">
                        <use xlink:href="#rim" fill="#404040">
                                <set attributeName="fill" to="#808080" begin="zoomplus.mouseover" end="zoomplus.mouseout"/>
                        </use>
                        <path d="M-4,0h8M0,-4v8" fill="none" stroke="white" stroke-width="1.5" pointer-events="none"/>
                </g>
                <g id="zoomMin">
                        <use xlink:href="#rim" fill="#404040">
                                <set attributeName="fill" to="#808080" begin="zoomminus.mouseover" end="zoomminus.mouseout"/>
                        </use>
                        <path d="M-4,0h8" fill="none" stroke="white" stroke-width="1.5" pointer-events="none"/>
                </g>
                <g id="dirArrow">
                        <path fill="none" stroke="white" stroke-width="1.5" d="M0,-3.0v7 M-2.5,-0.5L0,-3.0L2.5,-0.5"/>
                </g>
               <g id="resetDef">
                       <use xlink:href="#rim2" fill="#404040">
                               <set attributeName="fill" to="#808080" begin="reset.mouseover" end="reset.mouseout"/>
                       </use>
               </g>
        </defs>

<script type="text/javascript">
var viewWidth = 750;
var viewHeight = 271;
var sectionId = 'dynsection-0';
</script>
<script xlink:href="../../svgpan.js"/>
<svg id="graph" class="graph">
<g id="viewport">
<title>/Users/fola/Documents/ArkScript/Ark/include/Ark/Compiler/ImportSolver.hpp</title>
<!-- Node1 -->
<g id="node1" class="node">
<title>Node1</title>
<g id="a_node1"><a xlink:title=" ">
<polygon fill="#999999" stroke="#666666" points="553.5,-262.75 401,-262.75 401,-221 553.5,-221 553.5,-262.75"/>
<text text-anchor="start" x="409" y="-249.25" font-family="Helvetica,sans-Serif" font-size="10.00">/Users/fola/Documents</text>
<text text-anchor="start" x="409" y="-238" font-family="Helvetica,sans-Serif" font-size="10.00">/ArkScript/Ark/include</text>
<text text-anchor="middle" x="477.25" y="-226.75" font-family="Helvetica,sans-Serif" font-size="10.00">/Ark/Compiler/ImportSolver.hpp</text>
</a>
</g>
</g>
<!-- Node2 -->
<g id="node2" class="node">
<title>Node2</title>
<g id="a_node2"><a xlink:title=" ">
<polygon fill="#e0e0e0" stroke="#999999" points="266.75,-19.25 223.75,-19.25 223.75,0 266.75,0 266.75,-19.25"/>
<text text-anchor="middle" x="245.25" y="-5.75" font-family="Helvetica,sans-Serif" font-size="10.00">vector</text>
</a>
</g>
</g>
<!-- Node1&#45;&gt;Node2 -->
<g id="edge1" class="edge">
<title>Node1&#45;&gt;Node2</title>
<path fill="none" stroke="#63b8ff" d="M400.64,-237.2C322.4,-231.66 208.62,-218.02 181.25,-185 141.37,-136.89 198.54,-61.7 228.68,-27.99"/>
<polygon fill="#63b8ff" stroke="#63b8ff" points="231.14,-30.49 235.34,-20.76 225.99,-25.75 231.14,-30.49"/>
</g>
<!-- Node3 -->
<g id="node3" class="node">
<title>Node3</title>
<g id="a_node3"><a xlink:title=" ">
<polygon fill="#e0e0e0" stroke="#999999" points="507.25,-74.5 467.25,-74.5 467.25,-55.25 507.25,-55.25 507.25,-74.5"/>
<text text-anchor="middle" x="487.25" y="-61" font-family="Helvetica,sans-Serif" font-size="10.00">string</text>
</a>
</g>
</g>
<!-- Node1&#45;&gt;Node3 -->
<g id="edge2" class="edge">
<title>Node1&#45;&gt;Node3</title>
<path fill="none" stroke="#63b8ff" d="M511.78,-220.68C524.09,-211.5 536.56,-199.44 543.25,-185 560.14,-148.58 527.47,-106.04 505.32,-82.94"/>
<polygon fill="#63b8ff" stroke="#63b8ff" points="507.81,-80.48 498.26,-75.9 502.86,-85.44 507.81,-80.48"/>
</g>
<!-- Node4 -->
<g id="node4" class="node">
<title>Node4</title>
<g id="a_node4"><a xlink:title=" ">
<polygon fill="#e0e0e0" stroke="#999999" points="417.75,-185 356.75,-185 356.75,-165.75 417.75,-165.75 417.75,-185"/>
<text text-anchor="middle" x="387.25" y="-171.5" font-family="Helvetica,sans-Serif" font-size="10.00">filesystem</text>
</a>
</g>
</g>
<!-- Node1&#45;&gt;Node4 -->
<g id="edge3" class="edge">
<title>Node1&#45;&gt;Node4</title>
<path fill="none" stroke="#63b8ff" d="M449.27,-220.82C436.37,-211.58 421.28,-200.76 409.21,-192.12"/>
<polygon fill="#63b8ff" stroke="#63b8ff" points="411.3,-189.31 401.14,-186.33 407.23,-195 411.3,-189.31"/>
</g>
<!-- Node5 -->
<g id="node5" class="node">
<title>Node5</title>
<g id="a_node5"><a xlink:title=" ">
<polygon fill="#e0e0e0" stroke="#999999" points="518.62,-185 435.88,-185 435.88,-165.75 518.62,-165.75 518.62,-185"/>
<text text-anchor="middle" x="477.25" y="-171.5" font-family="Helvetica,sans-Serif" font-size="10.00">unordered_map</text>
</a>
</g>
</g>
<!-- Node1&#45;&gt;Node5 -->
<g id="edge4" class="edge">
<title>Node1&#45;&gt;Node5</title>
<path fill="none" stroke="#63b8ff" d="M477.25,-220.82C477.25,-213.15 477.25,-204.39 477.25,-196.7"/>
<polygon fill="#63b8ff" stroke="#63b8ff" points="480.75,-196.96 477.25,-186.96 473.75,-196.96 480.75,-196.96"/>
</g>
<!-- Node6 -->
<g id="node6" class="node">
<title>Node6</title>
<g id="a_node6"><a xlink:href="../../d7/dc6/Node_8hpp.html" target="_top" xlink:title="AST node used by the parser, optimizer and compiler.">
<polygon fill="white" stroke="#666666" points="428.5,-129.75 288,-129.75 288,-110.5 428.5,-110.5 428.5,-129.75"/>
<text text-anchor="middle" x="358.25" y="-116.25" font-family="Helvetica,sans-Serif" font-size="10.00">Ark/Compiler/AST/Node.hpp</text>
</a>
</g>
</g>
<!-- Node1&#45;&gt;Node6 -->
<g id="edge5" class="edge">
<title>Node1&#45;&gt;Node6</title>
<path fill="none" stroke="#63b8ff" d="M505.49,-220.58C523.48,-205.16 541.02,-183.62 527.25,-165.75 515.53,-150.53 474.07,-139.45 435.15,-132.14"/>
<polygon fill="#63b8ff" stroke="#63b8ff" points="436.22,-128.78 425.76,-130.44 434.98,-135.66 436.22,-128.78"/>
</g>
<!-- Node13 -->
<g id="node13" class="node">
<title>Node13</title>
<g id="a_node13"><a xlink:href="../../d4/d32/Import_8hpp.html" target="_top" xlink:title=" ">
<polygon fill="white" stroke="#666666" points="741.75,-129.75 596.75,-129.75 596.75,-110.5 741.75,-110.5 741.75,-129.75"/>
<text text-anchor="middle" x="669.25" y="-116.25" font-family="Helvetica,sans-Serif" font-size="10.00">Ark/Compiler/AST/Import.hpp</text>
</a>
</g>
</g>
<!-- Node1&#45;&gt;Node13 -->
<g id="edge15" class="edge">
<title>Node1&#45;&gt;Node13</title>
<path fill="none" stroke="#63b8ff" d="M529.99,-220.62C551.9,-211.18 577.09,-198.94 598.25,-185 618.92,-171.38 639.63,-151.92 653.3,-138.07"/>
<polygon fill="#63b8ff" stroke="#63b8ff" points="655.72,-140.6 660.15,-130.98 650.68,-135.74 655.72,-140.6"/>
</g>
<!-- Node15 -->
<g id="node15" class="node">
<title>Node15</title>
<g id="a_node15"><a xlink:href="../../d9/da7/Compiler_2AST_2Module_8hpp.html" target="_top" xlink:title=" ">
<polygon fill="white" stroke="#666666" points="338.62,-185 189.88,-185 189.88,-165.75 338.62,-165.75 338.62,-185"/>
<text text-anchor="middle" x="264.25" y="-171.5" font-family="Helvetica,sans-Serif" font-size="10.00">Ark/Compiler/AST/Module.hpp</text>
</a>
</g>
</g>
<!-- Node1&#45;&gt;Node15 -->
<g id="edge20" class="edge">
<title>Node1&#45;&gt;Node15</title>
<path fill="none" stroke="#63b8ff" d="M410.15,-220.56C375.65,-210.11 334.74,-197.72 305.03,-188.72"/>
<polygon fill="#63b8ff" stroke="#63b8ff" points="306.27,-185.44 295.68,-185.89 304.24,-192.14 306.27,-185.44"/>
</g>
<!-- Node6&#45;&gt;Node2 -->
<g id="edge9" class="edge">
<title>Node6&#45;&gt;Node2</title>
<path fill="none" stroke="#63b8ff" d="M353.52,-110.04C346.33,-96.86 331.64,-72.14 314.25,-55.25 302.1,-43.45 286.38,-32.99 273.01,-25.18"/>
<polygon fill="#63b8ff" stroke="#63b8ff" points="275.09,-22.33 264.66,-20.48 271.66,-28.43 275.09,-22.33"/>
</g>
<!-- Node6&#45;&gt;Node3 -->
<g id="edge8" class="edge">
<title>Node6&#45;&gt;Node3</title>
<path fill="none" stroke="#63b8ff" d="M380.13,-110.09C401.11,-101.43 432.97,-88.28 456.49,-78.57"/>
<polygon fill="#63b8ff" stroke="#63b8ff" points="457.66,-81.88 465.56,-74.83 454.98,-75.41 457.66,-81.88"/>
</g>
<!-- Node7 -->
<g id="node7" class="node">
<title>Node7</title>
<g id="a_node7"><a xlink:title=" ">
<polygon fill="#e0e0e0" stroke="#999999" points="406.88,-74.5 361.62,-74.5 361.62,-55.25 406.88,-55.25 406.88,-74.5"/>
<text text-anchor="middle" x="384.25" y="-61" font-family="Helvetica,sans-Serif" font-size="10.00">variant</text>
</a>
</g>
</g>
<!-- Node6&#45;&gt;Node7 -->
<g id="edge6" class="edge">
<title>Node6&#45;&gt;Node7</title>
<path fill="none" stroke="#63b8ff" d="M362.54,-110.33C365.87,-103.51 370.61,-93.81 374.81,-85.2"/>
<polygon fill="#63b8ff" stroke="#63b8ff" points="377.96,-86.74 379.2,-76.22 371.67,-83.67 377.96,-86.74"/>
</g>
<!-- Node8 -->
<g id="node8" class="node">
<title>Node8</title>
<g id="a_node8"><a xlink:title=" ">
<polygon fill="#e0e0e0" stroke="#999999" points="304.88,-74.5 253.62,-74.5 253.62,-55.25 304.88,-55.25 304.88,-74.5"/>
<text text-anchor="middle" x="279.25" y="-61" font-family="Helvetica,sans-Serif" font-size="10.00">ostream</text>
</a>
</g>
</g>
<!-- Node6&#45;&gt;Node8 -->
<g id="edge7" class="edge">
<title>Node6&#45;&gt;Node8</title>
<path fill="none" stroke="#63b8ff" d="M344.85,-110.09C333.16,-102.21 315.95,-90.61 302.09,-81.27"/>
<polygon fill="#63b8ff" stroke="#63b8ff" points="304.22,-78.49 293.97,-75.8 300.31,-84.29 304.22,-78.49"/>
</g>
<!-- Node9 -->
<g id="node9" class="node">
<title>Node9</title>
<g id="a_node9"><a xlink:href="../../d8/ddd/Common_8hpp.html" target="_top" xlink:title="Common code for the compiler.">
<polygon fill="white" stroke="#666666" points="134.5,-74.5 0,-74.5 0,-55.25 134.5,-55.25 134.5,-74.5"/>
<text text-anchor="middle" x="67.25" y="-61" font-family="Helvetica,sans-Serif" font-size="10.00">Ark/Compiler/Common.hpp</text>
</a>
</g>
</g>
<!-- Node6&#45;&gt;Node9 -->
<g id="edge10" class="edge">
<title>Node6&#45;&gt;Node9</title>
<path fill="none" stroke="#63b8ff" d="M308.56,-110.03C258.54,-100.88 181.35,-86.75 127.79,-76.95"/>
<polygon fill="#63b8ff" stroke="#63b8ff" points="128.69,-73.56 118.23,-75.2 127.43,-80.45 128.69,-73.56"/>
</g>
<!-- Node12 -->
<g id="node12" class="node">
<title>Node12</title>
<g id="a_node12"><a xlink:href="../../d5/d40/Platform_8hpp.html" target="_top" xlink:title="ArkScript configuration macros.">
<polygon fill="white" stroke="#666666" points="615,-74.5 525.5,-74.5 525.5,-55.25 615,-55.25 615,-74.5"/>
<text text-anchor="middle" x="570.25" y="-61" font-family="Helvetica,sans-Serif" font-size="10.00">Ark/Platform.hpp</text>
</a>
</g>
</g>
<!-- Node6&#45;&gt;Node12 -->
<g id="edge14" class="edge">
<title>Node6&#45;&gt;Node12</title>
<path fill="none" stroke="#63b8ff" d="M394.21,-110.09C429.69,-101.18 484.13,-87.51 523.07,-77.73"/>
<polygon fill="#63b8ff" stroke="#63b8ff" points="523.8,-81.15 532.64,-75.32 522.09,-74.36 523.8,-81.15"/>
</g>
<!-- Node9&#45;&gt;Node2 -->
<g id="edge13" class="edge">
<title>Node9&#45;&gt;Node2</title>
<path fill="none" stroke="#63b8ff" d="M97.45,-54.84C129.39,-45.29 179.62,-30.26 212.5,-20.42"/>
<polygon fill="#63b8ff" stroke="#63b8ff" points="213.32,-23.83 221.9,-17.61 211.31,-17.12 213.32,-23.83"/>
</g>
<!-- Node10 -->
<g id="node10" class="node">
<title>Node10</title>
<g id="a_node10"><a xlink:title=" ">
<polygon fill="#e0e0e0" stroke="#999999" points="140.12,-19.25 102.38,-19.25 102.38,0 140.12,0 140.12,-19.25"/>
<text text-anchor="middle" x="121.25" y="-5.75" font-family="Helvetica,sans-Serif" font-size="10.00">array</text>
</a>
</g>
</g>
<!-- Node9&#45;&gt;Node10 -->
<g id="edge11" class="edge">
<title>Node9&#45;&gt;Node10</title>
<path fill="none" stroke="#63b8ff" d="M76.17,-55.08C83.7,-47.65 94.72,-36.79 103.98,-27.66"/>
<polygon fill="#63b8ff" stroke="#63b8ff" points="106.4,-30.19 111.06,-20.67 101.48,-25.2 106.4,-30.19"/>
</g>
<!-- Node11 -->
<g id="node11" class="node">
<title>Node11</title>
<g id="a_node11"><a xlink:title=" ">
<polygon fill="#e0e0e0" stroke="#999999" points="84,-19.25 18.5,-19.25 18.5,0 84,0 84,-19.25"/>
<text text-anchor="middle" x="51.25" y="-5.75" font-family="Helvetica,sans-Serif" font-size="10.00">string_view</text>
</a>
</g>
</g>
<!-- Node9&#45;&gt;Node11 -->
<g id="edge12" class="edge">
<title>Node9&#45;&gt;Node11</title>
<path fill="none" stroke="#63b8ff" d="M64.61,-55.08C62.61,-48.42 59.77,-38.99 57.23,-30.53"/>
<polygon fill="#63b8ff" stroke="#63b8ff" points="60.61,-29.63 54.39,-21.06 53.91,-31.64 60.61,-29.63"/>
</g>
<!-- Node13&#45;&gt;Node2 -->
<g id="edge16" class="edge">
<title>Node13&#45;&gt;Node2</title>
<path fill="none" stroke="#63b8ff" d="M665.86,-110.31C659.86,-96.03 645.93,-68.16 624.25,-55.25 566.18,-20.67 359.94,-12.86 278.59,-11.12"/>
<polygon fill="#63b8ff" stroke="#63b8ff" points="278.67,-7.62 268.6,-10.93 278.53,-14.62 278.67,-7.62"/>
</g>
<!-- Node13&#45;&gt;Node3 -->
<g id="edge17" class="edge">
<title>Node13&#45;&gt;Node3</title>
<path fill="none" stroke="#63b8ff" d="M637.88,-110.03C609.18,-101.69 565.25,-88.91 518.5,-75.15"/>
<polygon fill="#63b8ff" stroke="#63b8ff" points="519.56,-71.82 508.98,-72.35 517.58,-78.53 519.56,-71.82"/>
</g>
<!-- Node13&#45;&gt;Node12 -->
<g id="edge19" class="edge">
<title>Node13&#45;&gt;Node12</title>
<path fill="none" stroke="#63b8ff" d="M652.46,-110.09C637.24,-101.91 614.55,-89.71 596.87,-80.19"/>
<polygon fill="#63b8ff" stroke="#63b8ff" points="598.92,-77.32 588.46,-75.67 595.61,-83.49 598.92,-77.32"/>
</g>
<!-- Node14 -->
<g id="node14" class="node">
<title>Node14</title>
<g id="a_node14"><a xlink:title=" ">
<polygon fill="#e0e0e0" stroke="#999999" points="721.5,-74.5 671,-74.5 671,-55.25 721.5,-55.25 721.5,-74.5"/>
<text text-anchor="middle" x="696.25" y="-61" font-family="Helvetica,sans-Serif" font-size="10.00">numeric</text>
</a>
</g>
</g>
<!-- Node13&#45;&gt;Node14 -->
<g id="edge18" class="edge">
<title>Node13&#45;&gt;Node14</title>
<path fill="none" stroke="#63b8ff" d="M673.71,-110.33C677.2,-103.44 682.2,-93.59 686.6,-84.91"/>
<polygon fill="#63b8ff" stroke="#63b8ff" points="689.61,-86.71 691.01,-76.21 683.37,-83.55 689.61,-86.71"/>
</g>
<!-- Node15&#45;&gt;Node6 -->
<g id="edge21" class="edge">
<title>Node15&#45;&gt;Node6</title>
<path fill="none" stroke="#63b8ff" d="M280.2,-165.34C294.51,-157.23 315.78,-145.18 332.5,-135.71"/>
<polygon fill="#63b8ff" stroke="#63b8ff" points="333.93,-138.92 340.91,-130.95 330.48,-132.83 333.93,-138.92"/>
</g>
</g>
</svg>
        <g id="navigator" transform="translate(0 0)" fill="#404254">
                <rect fill="#f2f5e9" fill-opacity="0.5" stroke="#606060" stroke-width=".5" x="0" y="0" width="60" height="60"/>
                <use id="zoomplus" xlink:href="#zoomPlus" x="17" y="9" onmousedown="handleZoom(evt,'in')"/>
                <use id="zoomminus" xlink:href="#zoomMin" x="42" y="9" onmousedown="handleZoom(evt,'out')"/>
                <use id="reset" xlink:href="#resetDef" x="30" y="36" onmousedown="handleReset()"/>
                <g id="arrowUp" xlink:href="#dirArrow" transform="translate(30 24)" onmousedown="handlePan(0,-1)">
                  <use xlink:href="#rim" fill="#404040">
                        <set attributeName="fill" to="#808080" begin="arrowUp.mouseover" end="arrowUp.mouseout"/>
                  </use>
                  <path fill="none" stroke="white" stroke-width="1.5" d="M0,-3.0v7 M-2.5,-0.5L0,-3.0L2.5,-0.5"/>
                </g>
                <g id="arrowRight" xlink:href="#dirArrow" transform="rotate(90) translate(36 -43)" onmousedown="handlePan(1,0)">
                  <use xlink:href="#rim" fill="#404040">
                        <set attributeName="fill" to="#808080" begin="arrowRight.mouseover" end="arrowRight.mouseout"/>
                  </use>
                  <path fill="none" stroke="white" stroke-width="1.5" d="M0,-3.0v7 M-2.5,-0.5L0,-3.0L2.5,-0.5"/>
                </g>
                <g id="arrowDown" xlink:href="#dirArrow" transform="rotate(180) translate(-30 -48)" onmousedown="handlePan(0,1)">
                  <use xlink:href="#rim" fill="#404040">
                        <set attributeName="fill" to="#808080" begin="arrowDown.mouseover" end="arrowDown.mouseout"/>
                  </use>
                  <path fill="none" stroke="white" stroke-width="1.5" d="M0,-3.0v7 M-2.5,-0.5L0,-3.0L2.5,-0.5"/>
                </g>
                <g id="arrowLeft" xlink:href="#dirArrow" transform="rotate(270) translate(-36 17)" onmousedown="handlePan(-1,0)">
                  <use xlink:href="#rim" fill="#404040">
                        <set attributeName="fill" to="#808080" begin="arrowLeft.mouseover" end="arrowLeft.mouseout"/>
                  </use>
                  <path fill="none" stroke="white" stroke-width="1.5" d="M0,-3.0v7 M-2.5,-0.5L0,-3.0L2.5,-0.5"/>
                </g>
        </g>
        <svg viewBox="0 0 15 15" width="100%" height="30px" preserveAspectRatio="xMaxYMin meet">
         <g id="arrow_out" transform="scale(0.3 0.3)">
          <a xlink:href="ImportSolver_8hpp__incl_org.svg" target="_base">
           <rect id="button" ry="5" rx="5" y="6" x="6" height="38" width="38"
                fill="#f2f5e9" fill-opacity="0.5" stroke="#606060" stroke-width="1.0"/>
           <path id="arrow"
             d="M 11.500037,31.436501 C 11.940474,20.09759 22.043105,11.32322 32.158766,21.979434 L 37.068811,17.246167 C 37.068811,17.246167 37.088388,32 37.088388,32 L 22.160133,31.978069 C 22.160133,31.978069 26.997745,27.140456 26.997745,27.140456 C 18.528582,18.264221 13.291696,25.230495 11.500037,31.436501 z"
             style="fill:#404040;"/>
          </a>
         </g>
        </svg>
</svg>
