<?xml version="1.0" encoding="UTF-8" standalone="no"?>
<!DOCTYPE svg PUBLIC "-//W3C//DTD SVG 1.1//EN"
 "http://www.w3.org/Graphics/SVG/1.1/DTD/svg11.dtd">
<!-- Generated by graphviz version 10.0.1 (20240210.2158)
 -->
<!-- Title: /Users/fola/Documents/ArkScript/Ark/include/Ark/VM/State.hpp Pages: 1 -->
<!--zoomable 227 -->
<svg id="main" version="1.1" xmlns="http://www.w3.org/2000/svg" xmlns:xlink="http://www.w3.org/1999/xlink" xml:space="preserve" onload="init(evt)">
<style type="text/css"><![CDATA[
.edge:hover path { stroke: red; }
.edge:hover polygon { stroke: red; fill: red; }
]]></style>
<script type="text/javascript"><![CDATA[
var edges = document.getElementsByTagName('g');
if (edges && edges.length) {
  for (var i=0;i<edges.length;i++) {
    if (edges[i].id.substr(0,4)=='edge') {
      edges[i].setAttribute('class','edge');
    }
  }
}
]]></script>
        <defs>
                <circle id="rim" cx="0" cy="0" r="7"/>
                <circle id="rim2" cx="0" cy="0" r="3.5"/>
                <g id="zoomPlus">
                        <use xlink:href="#rim" fill="#404040">
                                <set attributeName="fill" to="#808080" begin="zoomplus.mouseover" end="zoomplus.mouseout"/>
                        </use>
                        <path d="M-4,0h8M0,-4v8" fill="none" stroke="white" stroke-width="1.5" pointer-events="none"/>
                </g>
                <g id="zoomMin">
                        <use xlink:href="#rim" fill="#404040">
                                <set attributeName="fill" to="#808080" begin="zoomminus.mouseover" end="zoomminus.mouseout"/>
                        </use>
                        <path d="M-4,0h8" fill="none" stroke="white" stroke-width="1.5" pointer-events="none"/>
                </g>
                <g id="dirArrow">
                        <path fill="none" stroke="white" stroke-width="1.5" d="M0,-3.0v7 M-2.5,-0.5L0,-3.0L2.5,-0.5"/>
                </g>
               <g id="resetDef">
                       <use xlink:href="#rim2" fill="#404040">
                               <set attributeName="fill" to="#808080" begin="reset.mouseover" end="reset.mouseout"/>
                       </use>
               </g>
        </defs>

<script type="text/javascript">
var viewWidth = 1270;
var viewHeight = 227;
var sectionId = 'dynsection-0';
</script>
<script xlink:href="../../svgpan.js"/>
<svg id="graph" class="graph">
<g id="viewport">
<title>/Users/fola/Documents/ArkScript/Ark/include/Ark/VM/State.hpp</title>
<!-- Node1 -->
<g id="node1" class="node">
<title>Node1</title>
<g id="a_node1"><a xlink:title="State used by the virtual machine: it loads the bytecode, can compile it if needed,...">
<polygon fill="#999999" stroke="#666666" points="775.35,-218.75 658.1,-218.75 658.1,-177 775.35,-177 775.35,-218.75"/>
<text text-anchor="start" x="666.1" y="-205.25" font-family="Helvetica,sans-Serif" font-size="10.00">/Users/fola/Documents</text>
<text text-anchor="start" x="666.1" y="-194" font-family="Helvetica,sans-Serif" font-size="10.00">/ArkScript/Ark/include</text>
<text text-anchor="middle" x="716.72" y="-182.75" font-family="Helvetica,sans-Serif" font-size="10.00">/Ark/VM/State.hpp</text>
</a>
</g>
</g>
<!-- Node2 -->
<g id="node2" class="node">
<title>Node2</title>
<g id="a_node2"><a xlink:title=" ">
<polygon fill="#e0e0e0" stroke="#999999" points="657.72,-19.25 617.72,-19.25 617.72,0 657.72,0 657.72,-19.25"/>
<text text-anchor="middle" x="637.72" y="-5.75" font-family="Helvetica,sans-Serif" font-size="10.00">string</text>
</a>
</g>
</g>
<!-- Node1&#45;&gt;Node2 -->
<g id="edge1" class="edge">
<title>Node1&#45;&gt;Node2</title>
<path fill="none" stroke="#63b8ff" d="M687.53,-176.61C676.09,-167.13 663.99,-154.87 656.72,-141 638.1,-105.48 636.08,-57.47 636.65,-30.73"/>
<polygon fill="#63b8ff" stroke="#63b8ff" points="640.14,-31.1 637.02,-20.97 633.14,-30.83 640.14,-31.1"/>
</g>
<!-- Node3 -->
<g id="node3" class="node">
<title>Node3</title>
<g id="a_node3"><a xlink:title=" ">
<polygon fill="#e0e0e0" stroke="#999999" points="199.22,-19.25 156.22,-19.25 156.22,0 199.22,0 199.22,-19.25"/>
<text text-anchor="middle" x="177.72" y="-5.75" font-family="Helvetica,sans-Serif" font-size="10.00">vector</text>
</a>
</g>
</g>
<!-- Node1&#45;&gt;Node3 -->
<g id="edge2" class="edge">
<title>Node1&#45;&gt;Node3</title>
<path fill="none" stroke="#63b8ff" d="M657.76,-196.97C503.18,-195.85 92.37,-183.55 8.72,-85.75 -31.58,-38.63 85.1,-19.85 144.85,-13.47"/>
<polygon fill="#63b8ff" stroke="#63b8ff" points="144.87,-16.98 154.47,-12.5 144.18,-10.02 144.87,-16.98"/>
</g>
<!-- Node4 -->
<g id="node4" class="node">
<title>Node4</title>
<g id="a_node4"><a xlink:title=" ">
<polygon fill="#e0e0e0" stroke="#999999" points="906.1,-141 823.35,-141 823.35,-121.75 906.1,-121.75 906.1,-141"/>
<text text-anchor="middle" x="864.72" y="-127.5" font-family="Helvetica,sans-Serif" font-size="10.00">unordered_map</text>
</a>
</g>
</g>
<!-- Node1&#45;&gt;Node4 -->
<g id="edge3" class="edge">
<title>Node1&#45;&gt;Node4</title>
<path fill="none" stroke="#63b8ff" d="M763.15,-176.64C786.14,-166.62 813.28,-154.79 833.72,-145.89"/>
<polygon fill="#63b8ff" stroke="#63b8ff" points="834.87,-149.2 842.64,-142 832.07,-142.79 834.87,-149.2"/>
</g>
<!-- Node5 -->
<g id="node5" class="node">
<title>Node5</title>
<g id="a_node5"><a xlink:title=" ">
<polygon fill="#e0e0e0" stroke="#999999" points="985.22,-141 924.22,-141 924.22,-121.75 985.22,-121.75 985.22,-141"/>
<text text-anchor="middle" x="954.72" y="-127.5" font-family="Helvetica,sans-Serif" font-size="10.00">filesystem</text>
</a>
</g>
</g>
<!-- Node1&#45;&gt;Node5 -->
<g id="edge4" class="edge">
<title>Node1&#45;&gt;Node5</title>
<path fill="none" stroke="#63b8ff" d="M775.55,-180.93C818.28,-169.35 875.04,-153.97 913.12,-143.65"/>
<polygon fill="#63b8ff" stroke="#63b8ff" points="913.63,-147.14 922.36,-141.14 911.8,-140.38 913.63,-147.14"/>
</g>
<!-- Node6 -->
<g id="node6" class="node">
<title>Node6</title>
<g id="a_node6"><a xlink:href="../../de/dfd/Value_8hpp.html" target="_top" xlink:title=" ">
<polygon fill="white" stroke="#666666" points="515.1,-141 420.35,-141 420.35,-121.75 515.1,-121.75 515.1,-141"/>
<text text-anchor="middle" x="467.72" y="-127.5" font-family="Helvetica,sans-Serif" font-size="10.00">Ark/VM/Value.hpp</text>
</a>
</g>
</g>
<!-- Node1&#45;&gt;Node6 -->
<g id="edge5" class="edge">
<title>Node1&#45;&gt;Node6</title>
<path fill="none" stroke="#63b8ff" d="M657.71,-181.59C613.68,-170.18 554.36,-154.82 513.79,-144.31"/>
<polygon fill="#63b8ff" stroke="#63b8ff" points="514.89,-140.98 504.33,-141.86 513.14,-147.75 514.89,-140.98"/>
</g>
<!-- Node15 -->
<g id="node15" class="node">
<title>Node15</title>
<g id="a_node15"><a xlink:href="../../d8/ddd/Common_8hpp.html" target="_top" xlink:title="Common code for the compiler.">
<polygon fill="white" stroke="#666666" points="1261.97,-80.12 1127.47,-80.12 1127.47,-60.88 1261.97,-60.88 1261.97,-80.12"/>
<text text-anchor="middle" x="1194.72" y="-66.62" font-family="Helvetica,sans-Serif" font-size="10.00">Ark/Compiler/Common.hpp</text>
</a>
</g>
</g>
<!-- Node1&#45;&gt;Node15 -->
<g id="edge21" class="edge">
<title>Node1&#45;&gt;Node15</title>
<path fill="none" stroke="#63b8ff" d="M736.43,-176.52C754.89,-158.84 784.14,-134.18 814.72,-121.75 940.77,-70.53 984.23,-106.3 1118.72,-85.75 1125.01,-84.79 1131.58,-83.7 1138.11,-82.55"/>
<polygon fill="#63b8ff" stroke="#63b8ff" points="1138.28,-86.08 1147.5,-80.86 1137.04,-79.19 1138.28,-86.08"/>
</g>
<!-- Node17 -->
<g id="node17" class="node">
<title>Node17</title>
<g id="a_node17"><a xlink:href="../../d2/de9/Exceptions_8hpp.html" target="_top" xlink:title="ArkScript homemade exceptions.">
<polygon fill="white" stroke="#666666" points="767.47,-141 665.97,-141 665.97,-121.75 767.47,-121.75 767.47,-141"/>
<text text-anchor="middle" x="716.72" y="-127.5" font-family="Helvetica,sans-Serif" font-size="10.00">Ark/Exceptions.hpp</text>
</a>
</g>
</g>
<!-- Node1&#45;&gt;Node17 -->
<g id="edge25" class="edge">
<title>Node1&#45;&gt;Node17</title>
<path fill="none" stroke="#63b8ff" d="M716.72,-176.82C716.72,-169.15 716.72,-160.39 716.72,-152.7"/>
<polygon fill="#63b8ff" stroke="#63b8ff" points="720.22,-152.96 716.72,-142.96 713.22,-152.96 720.22,-152.96"/>
</g>
<!-- Node6&#45;&gt;Node2 -->
<g id="edge8" class="edge">
<title>Node6&#45;&gt;Node2</title>
<path fill="none" stroke="#63b8ff" d="M492.81,-121.37C512.74,-113.58 540.81,-101.15 562.72,-85.75 586.42,-69.09 609.29,-44.58 623.41,-28.13"/>
<polygon fill="#63b8ff" stroke="#63b8ff" points="625.94,-30.56 629.69,-20.65 620.58,-26.06 625.94,-30.56"/>
</g>
<!-- Node6&#45;&gt;Node3 -->
<g id="edge6" class="edge">
<title>Node6&#45;&gt;Node3</title>
<path fill="none" stroke="#63b8ff" d="M419.97,-129.15C310.18,-125.85 47.15,-114.95 20.72,-85.75 -17.9,-43.08 87.84,-22.32 144.52,-14.49"/>
<polygon fill="#63b8ff" stroke="#63b8ff" points="144.84,-17.97 154.3,-13.2 143.93,-11.03 144.84,-17.97"/>
</g>
<!-- Node7 -->
<g id="node7" class="node">
<title>Node7</title>
<g id="a_node7"><a xlink:title=" ">
<polygon fill="#e0e0e0" stroke="#999999" points="75.35,-80.12 30.1,-80.12 30.1,-60.88 75.35,-60.88 75.35,-80.12"/>
<text text-anchor="middle" x="52.72" y="-66.62" font-family="Helvetica,sans-Serif" font-size="10.00">variant</text>
</a>
</g>
</g>
<!-- Node6&#45;&gt;Node7 -->
<g id="edge7" class="edge">
<title>Node6&#45;&gt;Node7</title>
<path fill="none" stroke="#63b8ff" d="M419.97,-129.43C346.63,-126.95 202.39,-117.99 84.72,-85.75 83.55,-85.43 82.37,-85.07 81.18,-84.68"/>
<polygon fill="#63b8ff" stroke="#63b8ff" points="82.65,-81.5 72.06,-81.17 80.13,-88.03 82.65,-81.5"/>
</g>
<!-- Node8 -->
<g id="node8" class="node">
<title>Node8</title>
<g id="a_node8"><a xlink:title=" ">
<polygon fill="#e0e0e0" stroke="#999999" points="149.6,-80.12 93.85,-80.12 93.85,-60.88 149.6,-60.88 149.6,-80.12"/>
<text text-anchor="middle" x="121.72" y="-66.62" font-family="Helvetica,sans-Serif" font-size="10.00">cinttypes</text>
</a>
</g>
</g>
<!-- Node6&#45;&gt;Node8 -->
<g id="edge9" class="edge">
<title>Node6&#45;&gt;Node8</title>
<path fill="none" stroke="#63b8ff" d="M420.08,-126.08C359.8,-120.03 253.05,-107.27 163.72,-85.75 161.44,-85.2 159.11,-84.58 156.77,-83.91"/>
<polygon fill="#63b8ff" stroke="#63b8ff" points="157.97,-80.62 147.38,-81 155.89,-87.31 157.97,-80.62"/>
</g>
<!-- Node9 -->
<g id="node9" class="node">
<title>Node9</title>
<g id="a_node9"><a xlink:title=" ">
<polygon fill="#e0e0e0" stroke="#999999" points="904.6,-19.25 866.85,-19.25 866.85,0 904.6,0 904.6,-19.25"/>
<text text-anchor="middle" x="885.72" y="-5.75" font-family="Helvetica,sans-Serif" font-size="10.00">array</text>
</a>
</g>
</g>
<!-- Node6&#45;&gt;Node9 -->
<g id="edge10" class="edge">
<title>Node6&#45;&gt;Node9</title>
<path fill="none" stroke="#63b8ff" d="M515.36,-128.02C615.26,-122.66 839.61,-108.24 865.72,-85.75 881.28,-72.35 885.41,-48.34 886.2,-31.07"/>
<polygon fill="#63b8ff" stroke="#63b8ff" points="889.7,-31.24 886.28,-21.21 882.7,-31.18 889.7,-31.24"/>
</g>
<!-- Node10 -->
<g id="node10" class="node">
<title>Node10</title>
<g id="a_node10"><a xlink:href="../../dc/dd5/Closure_8hpp.html" target="_top" xlink:title="Subtype of the value type, handling closures.">
<polygon fill="white" stroke="#666666" points="533.47,-80.12 401.97,-80.12 401.97,-60.88 533.47,-60.88 533.47,-80.12"/>
<text text-anchor="middle" x="467.72" y="-66.62" font-family="Helvetica,sans-Serif" font-size="10.00">Ark/VM/Value/Closure.hpp</text>
</a>
</g>
</g>
<!-- Node6&#45;&gt;Node10 -->
<g id="edge11" class="edge">
<title>Node6&#45;&gt;Node10</title>
<path fill="none" stroke="#63b8ff" d="M467.72,-121.43C467.72,-113.65 467.72,-102.08 467.72,-92.03"/>
<polygon fill="#63b8ff" stroke="#63b8ff" points="471.22,-92.04 467.72,-82.04 464.22,-92.04 471.22,-92.04"/>
</g>
<!-- Node13 -->
<g id="node13" class="node">
<title>Node13</title>
<g id="a_node13"><a xlink:href="../../d5/d40/Platform_8hpp.html" target="_top" xlink:title="ArkScript configuration macros.">
<polygon fill="white" stroke="#666666" points="599.47,-19.25 509.97,-19.25 509.97,0 599.47,0 599.47,-19.25"/>
<text text-anchor="middle" x="554.72" y="-5.75" font-family="Helvetica,sans-Serif" font-size="10.00">Ark/Platform.hpp</text>
</a>
</g>
</g>
<!-- Node6&#45;&gt;Node13 -->
<g id="edge20" class="edge">
<title>Node6&#45;&gt;Node13</title>
<path fill="none" stroke="#63b8ff" d="M494.08,-121.39C510.71,-114.33 531.15,-102.8 542.72,-85.75 553.73,-69.54 556.01,-46.89 555.98,-30.71"/>
<polygon fill="#63b8ff" stroke="#63b8ff" points="559.48,-30.75 555.64,-20.87 552.49,-30.99 559.48,-30.75"/>
</g>
<!-- Node14 -->
<g id="node14" class="node">
<title>Node14</title>
<g id="a_node14"><a xlink:href="../../dc/d3d/UserType_8hpp.html" target="_top" xlink:title="Subtype of the value, capable of handling any C++ type.">
<polygon fill="white" stroke="#666666" points="345.6,-80.12 205.85,-80.12 205.85,-60.88 345.6,-60.88 345.6,-80.12"/>
<text text-anchor="middle" x="275.72" y="-66.62" font-family="Helvetica,sans-Serif" font-size="10.00">Ark/VM/Value/UserType.hpp</text>
</a>
</g>
</g>
<!-- Node6&#45;&gt;Node14 -->
<g id="edge16" class="edge">
<title>Node6&#45;&gt;Node14</title>
<path fill="none" stroke="#63b8ff" d="M438.14,-121.3C405.45,-111.28 352.58,-95.07 316.09,-83.88"/>
<polygon fill="#63b8ff" stroke="#63b8ff" points="317.37,-80.61 306.78,-81.02 315.32,-87.3 317.37,-80.61"/>
</g>
<!-- Node10&#45;&gt;Node2 -->
<g id="edge14" class="edge">
<title>Node10&#45;&gt;Node2</title>
<path fill="none" stroke="#63b8ff" d="M493.91,-60.43C524.32,-49.9 574.43,-32.54 606.75,-21.35"/>
<polygon fill="#63b8ff" stroke="#63b8ff" points="607.64,-24.75 615.94,-18.17 605.35,-18.13 607.64,-24.75"/>
</g>
<!-- Node11 -->
<g id="node11" class="node">
<title>Node11</title>
<g id="a_node11"><a xlink:title=" ">
<polygon fill="#e0e0e0" stroke="#999999" points="492.35,-19.25 441.1,-19.25 441.1,0 492.35,0 492.35,-19.25"/>
<text text-anchor="middle" x="466.72" y="-5.75" font-family="Helvetica,sans-Serif" font-size="10.00">memory</text>
</a>
</g>
</g>
<!-- Node10&#45;&gt;Node11 -->
<g id="edge12" class="edge">
<title>Node10&#45;&gt;Node11</title>
<path fill="none" stroke="#63b8ff" d="M467.57,-60.56C467.44,-52.78 467.24,-41.2 467.07,-31.16"/>
<polygon fill="#63b8ff" stroke="#63b8ff" points="470.57,-31.1 466.9,-21.16 463.57,-31.22 470.57,-31.1"/>
</g>
<!-- Node12 -->
<g id="node12" class="node">
<title>Node12</title>
<g id="a_node12"><a xlink:title=" ">
<polygon fill="#e0e0e0" stroke="#999999" points="400.47,-19.25 346.97,-19.25 346.97,0 400.47,0 400.47,-19.25"/>
<text text-anchor="middle" x="373.72" y="-5.75" font-family="Helvetica,sans-Serif" font-size="10.00">iostream</text>
</a>
</g>
</g>
<!-- Node10&#45;&gt;Node12 -->
<g id="edge13" class="edge">
<title>Node10&#45;&gt;Node12</title>
<path fill="none" stroke="#63b8ff" d="M453.45,-60.56C438.68,-51.31 415.35,-36.7 397.74,-25.67"/>
<polygon fill="#63b8ff" stroke="#63b8ff" points="399.75,-22.8 389.42,-20.45 396.03,-28.73 399.75,-22.8"/>
</g>
<!-- Node10&#45;&gt;Node13 -->
<g id="edge15" class="edge">
<title>Node10&#45;&gt;Node13</title>
<path fill="none" stroke="#63b8ff" d="M480.94,-60.56C494.48,-51.39 515.79,-36.97 532.04,-25.98"/>
<polygon fill="#63b8ff" stroke="#63b8ff" points="533.81,-29 540.13,-20.5 529.89,-23.21 533.81,-29"/>
</g>
<!-- Node14&#45;&gt;Node3 -->
<g id="edge18" class="edge">
<title>Node14&#45;&gt;Node3</title>
<path fill="none" stroke="#63b8ff" d="M260.84,-60.56C245.37,-51.26 220.89,-36.56 202.5,-25.51"/>
<polygon fill="#63b8ff" stroke="#63b8ff" points="204.42,-22.58 194.04,-20.43 200.81,-28.58 204.42,-22.58"/>
</g>
<!-- Node14&#45;&gt;Node12 -->
<g id="edge17" class="edge">
<title>Node14&#45;&gt;Node12</title>
<path fill="none" stroke="#63b8ff" d="M290.61,-60.56C306.08,-51.26 330.55,-36.56 348.95,-25.51"/>
<polygon fill="#63b8ff" stroke="#63b8ff" points="350.63,-28.58 357.4,-20.43 347.03,-22.58 350.63,-28.58"/>
</g>
<!-- Node14&#45;&gt;Node13 -->
<g id="edge19" class="edge">
<title>Node14&#45;&gt;Node13</title>
<path fill="none" stroke="#63b8ff" d="M318.71,-60.43C367.55,-50.12 447.36,-33.28 500.46,-22.08"/>
<polygon fill="#63b8ff" stroke="#63b8ff" points="501.15,-25.51 510.21,-20.02 499.7,-18.66 501.15,-25.51"/>
</g>
<!-- Node15&#45;&gt;Node3 -->
<g id="edge24" class="edge">
<title>Node15&#45;&gt;Node3</title>
<path fill="none" stroke="#63b8ff" d="M1151.88,-60.39C1141.1,-58.39 1129.52,-56.51 1118.72,-55.25 773.57,-15.13 684.77,-36.6 337.72,-19.25 293.99,-17.06 243.56,-14.31 211.19,-12.51"/>
<polygon fill="#63b8ff" stroke="#63b8ff" points="211.41,-9.01 201.23,-11.95 211.02,-16 211.41,-9.01"/>
</g>
<!-- Node15&#45;&gt;Node9 -->
<g id="edge22" class="edge">
<title>Node15&#45;&gt;Node9</title>
<path fill="none" stroke="#63b8ff" d="M1147.12,-60.43C1082.75,-48.16 969.82,-26.65 915.96,-16.39"/>
<polygon fill="#63b8ff" stroke="#63b8ff" points="916.76,-12.98 906.28,-14.54 915.45,-19.85 916.76,-12.98"/>
</g>
<!-- Node16 -->
<g id="node16" class="node">
<title>Node16</title>
<g id="a_node16"><a xlink:title=" ">
<polygon fill="#e0e0e0" stroke="#999999" points="1227.47,-19.25 1161.97,-19.25 1161.97,0 1227.47,0 1227.47,-19.25"/>
<text text-anchor="middle" x="1194.72" y="-5.75" font-family="Helvetica,sans-Serif" font-size="10.00">string_view</text>
</a>
</g>
</g>
<!-- Node15&#45;&gt;Node16 -->
<g id="edge23" class="edge">
<title>Node15&#45;&gt;Node16</title>
<path fill="none" stroke="#63b8ff" d="M1194.72,-60.56C1194.72,-52.78 1194.72,-41.2 1194.72,-31.16"/>
<polygon fill="#63b8ff" stroke="#63b8ff" points="1198.22,-31.16 1194.72,-21.16 1191.22,-31.16 1198.22,-31.16"/>
</g>
<!-- Node17&#45;&gt;Node2 -->
<g id="edge26" class="edge">
<title>Node17&#45;&gt;Node2</title>
<path fill="none" stroke="#63b8ff" d="M715.05,-121.36C711.97,-106.52 704.35,-76.48 689.72,-55.25 682.05,-44.11 670.94,-34.07 660.96,-26.34"/>
<polygon fill="#63b8ff" stroke="#63b8ff" points="663.23,-23.67 653.1,-20.58 659.09,-29.32 663.23,-23.67"/>
</g>
<!-- Node17&#45;&gt;Node3 -->
<g id="edge27" class="edge">
<title>Node17&#45;&gt;Node3</title>
<path fill="none" stroke="#63b8ff" d="M665.61,-127.58C538.01,-120.4 214.44,-100.8 196.72,-85.75 181.13,-72.5 177.36,-48.46 176.87,-31.14"/>
<polygon fill="#63b8ff" stroke="#63b8ff" points="180.36,-31.28 176.96,-21.24 173.36,-31.21 180.36,-31.28"/>
</g>
<!-- Node17&#45;&gt;Node12 -->
<g id="edge31" class="edge">
<title>Node17&#45;&gt;Node12</title>
<path fill="none" stroke="#63b8ff" d="M665.8,-130.08C584.87,-128.54 432.02,-120.92 392.72,-85.75 377.47,-72.1 373.64,-48.14 373.04,-30.94"/>
<polygon fill="#63b8ff" stroke="#63b8ff" points="376.54,-31.15 373.06,-21.15 369.54,-31.14 376.54,-31.15"/>
</g>
<!-- Node17&#45;&gt;Node13 -->
<g id="edge36" class="edge">
<title>Node17&#45;&gt;Node13</title>
<path fill="none" stroke="#63b8ff" d="M704.55,-121.37C677.22,-101.18 610.72,-52.02 576.25,-26.53"/>
<polygon fill="#63b8ff" stroke="#63b8ff" points="578.38,-23.76 568.26,-20.63 574.22,-29.39 578.38,-23.76"/>
</g>
<!-- Node18 -->
<g id="node18" class="node">
<title>Node18</title>
<g id="a_node18"><a xlink:title=" ">
<polygon fill="#e0e0e0" stroke="#999999" points="972.1,-80.12 913.35,-80.12 913.35,-60.88 972.1,-60.88 972.1,-80.12"/>
<text text-anchor="middle" x="942.72" y="-66.62" font-family="Helvetica,sans-Serif" font-size="10.00">stdexcept</text>
</a>
</g>
</g>
<!-- Node17&#45;&gt;Node18 -->
<g id="edge28" class="edge">
<title>Node17&#45;&gt;Node18</title>
<path fill="none" stroke="#63b8ff" d="M758.04,-121.3C795.29,-112.89 851.48,-99.6 899.72,-85.75 901.68,-85.19 903.68,-84.59 905.69,-83.98"/>
<polygon fill="#63b8ff" stroke="#63b8ff" points="906.53,-87.39 915.01,-81.04 904.42,-80.71 906.53,-87.39"/>
</g>
<!-- Node19 -->
<g id="node19" class="node">
<title>Node19</title>
<g id="a_node19"><a xlink:title=" ">
<polygon fill="#e0e0e0" stroke="#999999" points="1039.6,-80.12 989.85,-80.12 989.85,-60.88 1039.6,-60.88 1039.6,-80.12"/>
<text text-anchor="middle" x="1014.72" y="-66.62" font-family="Helvetica,sans-Serif" font-size="10.00">optional</text>
</a>
</g>
</g>
<!-- Node17&#45;&gt;Node19 -->
<g id="edge29" class="edge">
<title>Node17&#45;&gt;Node19</title>
<path fill="none" stroke="#63b8ff" d="M767.83,-123.16C832.95,-113.72 941.71,-97.06 980.72,-85.75 982.07,-85.36 983.44,-84.93 984.81,-84.47"/>
<polygon fill="#63b8ff" stroke="#63b8ff" points="985.67,-87.89 993.81,-81.1 983.21,-81.33 985.67,-87.89"/>
</g>
<!-- Node20 -->
<g id="node20" class="node">
<title>Node20</title>
<g id="a_node20"><a xlink:title=" ">
<polygon fill="#e0e0e0" stroke="#999999" points="1109.35,-80.12 1058.1,-80.12 1058.1,-60.88 1109.35,-60.88 1109.35,-80.12"/>
<text text-anchor="middle" x="1083.72" y="-66.62" font-family="Helvetica,sans-Serif" font-size="10.00">ostream</text>
</a>
</g>
</g>
<!-- Node17&#45;&gt;Node20 -->
<g id="edge30" class="edge">
<title>Node17&#45;&gt;Node20</title>
<path fill="none" stroke="#63b8ff" d="M767.97,-123.57C860.29,-111.3 1045.35,-86.65 1048.72,-85.75 1050.31,-85.33 1051.92,-84.85 1053.53,-84.34"/>
<polygon fill="#63b8ff" stroke="#63b8ff" points="1054.4,-87.75 1062.61,-81.05 1052.02,-81.16 1054.4,-87.75"/>
</g>
<!-- Node21 -->
<g id="node21" class="node">
<title>Node21</title>
<g id="a_node21"><a xlink:href="../../db/d4e/utf8__char_8hpp.html" target="_top" xlink:title=" ">
<polygon fill="white" stroke="#666666" points="857.22,-85.75 742.22,-85.75 742.22,-55.25 857.22,-55.25 857.22,-85.75"/>
<text text-anchor="start" x="750.22" y="-72.25" font-family="Helvetica,sans-Serif" font-size="10.00">Ark/Compiler/AST/utf8</text>
<text text-anchor="middle" x="799.72" y="-61" font-family="Helvetica,sans-Serif" font-size="10.00">_char.hpp</text>
</a>
</g>
</g>
<!-- Node17&#45;&gt;Node21 -->
<g id="edge32" class="edge">
<title>Node17&#45;&gt;Node21</title>
<path fill="none" stroke="#63b8ff" d="M729.33,-121.43C740.09,-113.8 755.99,-102.52 769.96,-92.61"/>
<polygon fill="#63b8ff" stroke="#63b8ff" points="771.87,-95.55 778,-86.91 767.82,-89.84 771.87,-95.55"/>
</g>
<!-- Node21&#45;&gt;Node2 -->
<g id="edge34" class="edge">
<title>Node21&#45;&gt;Node2</title>
<path fill="none" stroke="#63b8ff" d="M759.26,-54.8C731.18,-44.59 694.34,-31.2 668.61,-21.85"/>
<polygon fill="#63b8ff" stroke="#63b8ff" points="670,-18.63 659.4,-18.5 667.6,-25.21 670,-18.63"/>
</g>
<!-- Node21&#45;&gt;Node9 -->
<g id="edge33" class="edge">
<title>Node21&#45;&gt;Node9</title>
<path fill="none" stroke="#63b8ff" d="M820.98,-54.95C833.82,-46.15 850.18,-34.96 863.24,-26.02"/>
<polygon fill="#63b8ff" stroke="#63b8ff" points="864.94,-29.09 871.22,-20.56 860.99,-23.32 864.94,-29.09"/>
</g>
<!-- Node22 -->
<g id="node22" class="node">
<title>Node22</title>
<g id="a_node22"><a xlink:title=" ">
<polygon fill="#e0e0e0" stroke="#999999" points="819.35,-19.25 780.1,-19.25 780.1,0 819.35,0 819.35,-19.25"/>
<text text-anchor="middle" x="799.72" y="-5.75" font-family="Helvetica,sans-Serif" font-size="10.00">limits</text>
</a>
</g>
</g>
<!-- Node21&#45;&gt;Node22 -->
<g id="edge35" class="edge">
<title>Node21&#45;&gt;Node22</title>
<path fill="none" stroke="#63b8ff" d="M799.72,-54.95C799.72,-47.71 799.72,-38.84 799.72,-30.94"/>
<polygon fill="#63b8ff" stroke="#63b8ff" points="803.22,-31.21 799.72,-21.21 796.22,-31.21 803.22,-31.21"/>
</g>
</g>
</svg>
        <g id="navigator" transform="translate(0 0)" fill="#404254">
                <rect fill="#f2f5e9" fill-opacity="0.5" stroke="#606060" stroke-width=".5" x="0" y="0" width="60" height="60"/>
                <use id="zoomplus" xlink:href="#zoomPlus" x="17" y="9" onmousedown="handleZoom(evt,'in')"/>
                <use id="zoomminus" xlink:href="#zoomMin" x="42" y="9" onmousedown="handleZoom(evt,'out')"/>
                <use id="reset" xlink:href="#resetDef" x="30" y="36" onmousedown="handleReset()"/>
                <g id="arrowUp" xlink:href="#dirArrow" transform="translate(30 24)" onmousedown="handlePan(0,-1)">
                  <use xlink:href="#rim" fill="#404040">
                        <set attributeName="fill" to="#808080" begin="arrowUp.mouseover" end="arrowUp.mouseout"/>
                  </use>
                  <path fill="none" stroke="white" stroke-width="1.5" d="M0,-3.0v7 M-2.5,-0.5L0,-3.0L2.5,-0.5"/>
                </g>
                <g id="arrowRight" xlink:href="#dirArrow" transform="rotate(90) translate(36 -43)" onmousedown="handlePan(1,0)">
                  <use xlink:href="#rim" fill="#404040">
                        <set attributeName="fill" to="#808080" begin="arrowRight.mouseover" end="arrowRight.mouseout"/>
                  </use>
                  <path fill="none" stroke="white" stroke-width="1.5" d="M0,-3.0v7 M-2.5,-0.5L0,-3.0L2.5,-0.5"/>
                </g>
                <g id="arrowDown" xlink:href="#dirArrow" transform="rotate(180) translate(-30 -48)" onmousedown="handlePan(0,1)">
                  <use xlink:href="#rim" fill="#404040">
                        <set attributeName="fill" to="#808080" begin="arrowDown.mouseover" end="arrowDown.mouseout"/>
                  </use>
                  <path fill="none" stroke="white" stroke-width="1.5" d="M0,-3.0v7 M-2.5,-0.5L0,-3.0L2.5,-0.5"/>
                </g>
                <g id="arrowLeft" xlink:href="#dirArrow" transform="rotate(270) translate(-36 17)" onmousedown="handlePan(-1,0)">
                  <use xlink:href="#rim" fill="#404040">
                        <set attributeName="fill" to="#808080" begin="arrowLeft.mouseover" end="arrowLeft.mouseout"/>
                  </use>
                  <path fill="none" stroke="white" stroke-width="1.5" d="M0,-3.0v7 M-2.5,-0.5L0,-3.0L2.5,-0.5"/>
                </g>
        </g>
        <svg viewBox="0 0 15 15" width="100%" height="30px" preserveAspectRatio="xMaxYMin meet">
         <g id="arrow_out" transform="scale(0.3 0.3)">
          <a xlink:href="State_8hpp__incl_org.svg" target="_base">
           <rect id="button" ry="5" rx="5" y="6" x="6" height="38" width="38"
                fill="#f2f5e9" fill-opacity="0.5" stroke="#606060" stroke-width="1.0"/>
           <path id="arrow"
             d="M 11.500037,31.436501 C 11.940474,20.09759 22.043105,11.32322 32.158766,21.979434 L 37.068811,17.246167 C 37.068811,17.246167 37.088388,32 37.088388,32 L 22.160133,31.978069 C 22.160133,31.978069 26.997745,27.140456 26.997745,27.140456 C 18.528582,18.264221 13.291696,25.230495 11.500037,31.436501 z"
             style="fill:#404040;"/>
          </a>
         </g>
        </svg>
</svg>
