<?xml version="1.0" encoding="UTF-8" standalone="no"?>
<!DOCTYPE svg PUBLIC "-//W3C//DTD SVG 1.1//EN"
 "http://www.w3.org/Graphics/SVG/1.1/DTD/svg11.dtd">
<!-- Generated by graphviz version 2.43.0 (0)
 -->
<!-- Title: Ark::internal::Node Pages: 1 -->
<svg width="295pt" height="241pt"
 viewBox="0.00 0.00 294.50 241.00" xmlns="http://www.w3.org/2000/svg" xmlns:xlink="http://www.w3.org/1999/xlink">
<g id="graph0" class="graph" transform="scale(1 1) rotate(0) translate(4 237)">
<title>Ark::internal::Node</title>
<polygon fill="white" stroke="transparent" points="-4,4 -4,-237 290.5,-237 290.5,4 -4,4"/>
<!-- Node1 -->
<g id="node1" class="node">
<title>Node1</title>
<g id="a_node1"><a xlink:title="A node of an Abstract Syntax Tree for ArkScript.">
<polygon fill="#bfbfbf" stroke="black" points="171.5,-78.5 171.5,-97.5 279.5,-97.5 279.5,-78.5 171.5,-78.5"/>
<text text-anchor="middle" x="225.5" y="-85.5" font-family="Helvetica,sans-Serif" font-size="10.00">Ark::internal::Node</text>
</a>
</g>
</g>
<!-- Node4 -->
<g id="node4" class="node">
<title>Node4</title>
<g id="a_node4"><a xlink:title=" ">
<polygon fill="white" stroke="#bfbfbf" points="119.5,-0.5 119.5,-30.5 259.5,-30.5 259.5,-0.5 119.5,-0.5"/>
<text text-anchor="start" x="127.5" y="-18.5" font-family="Helvetica,sans-Serif" font-size="10.00">std::vector&lt; Ark::internal</text>
<text text-anchor="middle" x="189.5" y="-7.5" font-family="Helvetica,sans-Serif" font-size="10.00">::Node &gt;</text>
</a>
</g>
</g>
<!-- Node1&#45;&gt;Node4 -->
<g id="edge4" class="edge">
<title>Node1&#45;&gt;Node4</title>
<path fill="none" stroke="#9a32cd" stroke-dasharray="5,2" d="M197.07,-72.38C192.81,-68.92 189.02,-64.8 186.5,-60 181.79,-51.01 182.83,-39.52 184.9,-30.6"/>
<polygon fill="#9a32cd" stroke="#9a32cd" points="195.38,-75.47 205.61,-78.26 199.35,-69.71 195.38,-75.47"/>
<text text-anchor="middle" x="211" y="-52" font-family="Helvetica,sans-Serif" font-size="10.00"> elements</text>
</g>
<!-- Node2 -->
<g id="node2" class="node">
<title>Node2</title>
<g id="a_node2"><a xlink:title=" ">
<polygon fill="white" stroke="#bfbfbf" points="193,-145.5 193,-164.5 258,-164.5 258,-145.5 193,-145.5"/>
<text text-anchor="middle" x="225.5" y="-152.5" font-family="Helvetica,sans-Serif" font-size="10.00">std::string</text>
</a>
</g>
</g>
<!-- Node2&#45;&gt;Node1 -->
<g id="edge1" class="edge">
<title>Node2&#45;&gt;Node1</title>
<path fill="none" stroke="#9a32cd" stroke-dasharray="5,2" d="M225.5,-135.04C225.5,-122.67 225.5,-107.12 225.5,-97.63"/>
<polygon fill="#9a32cd" stroke="#9a32cd" points="222,-135.23 225.5,-145.23 229,-135.23 222,-135.23"/>
<text text-anchor="middle" x="256" y="-119" font-family="Helvetica,sans-Serif" font-size="10.00"> m_filename</text>
</g>
<!-- Node3 -->
<g id="node3" class="node">
<title>Node3</title>
<g id="a_node3"><a xlink:title=" ">
<polygon fill="white" stroke="#bfbfbf" points="173.5,-202.5 173.5,-232.5 277.5,-232.5 277.5,-202.5 173.5,-202.5"/>
<text text-anchor="start" x="181.5" y="-220.5" font-family="Helvetica,sans-Serif" font-size="10.00">std::basic_string&lt;</text>
<text text-anchor="middle" x="225.5" y="-209.5" font-family="Helvetica,sans-Serif" font-size="10.00"> Char &gt;</text>
</a>
</g>
</g>
<!-- Node3&#45;&gt;Node2 -->
<g id="edge2" class="edge">
<title>Node3&#45;&gt;Node2</title>
<path fill="none" stroke="midnightblue" d="M225.5,-192.35C225.5,-182.51 225.5,-171.78 225.5,-164.54"/>
<polygon fill="midnightblue" stroke="midnightblue" points="222,-192.47 225.5,-202.47 229,-192.47 222,-192.47"/>
</g>
<!-- Node4&#45;&gt;Node1 -->
<g id="edge3" class="edge">
<title>Node4&#45;&gt;Node1</title>
<path fill="none" stroke="#9a32cd" stroke-dasharray="5,2" d="M229.59,-36.81C233.54,-40.35 237,-44.4 239.5,-49 244.66,-58.52 238.55,-70.33 232.86,-78.24"/>
<polygon fill="#9a32cd" stroke="#9a32cd" points="231.59,-33.93 221.53,-30.62 227.33,-39.48 231.59,-33.93"/>
<text text-anchor="middle" x="257.5" y="-52" font-family="Helvetica,sans-Serif" font-size="10.00"> m_list</text>
</g>
<!-- Node5 -->
<g id="node5" class="node">
<title>Node5</title>
<g id="a_node5"><a xlink:title=" ">
<polygon fill="white" stroke="#bfbfbf" points="0,-78.5 0,-97.5 97,-97.5 97,-78.5 0,-78.5"/>
<text text-anchor="middle" x="48.5" y="-85.5" font-family="Helvetica,sans-Serif" font-size="10.00">std::vector&lt; T &gt;</text>
</a>
</g>
</g>
<!-- Node5&#45;&gt;Node4 -->
<g id="edge5" class="edge">
<title>Node5&#45;&gt;Node4</title>
<path fill="none" stroke="orange" stroke-dasharray="5,2" d="M51.05,-68.37C52.89,-61.43 56.05,-54.03 61.5,-49 77.26,-34.47 98.58,-26.22 119.3,-21.59"/>
<polygon fill="orange" stroke="orange" points="47.55,-68.01 49.11,-78.49 54.43,-69.32 47.55,-68.01"/>
<text text-anchor="middle" x="120.5" y="-52" font-family="Helvetica,sans-Serif" font-size="10.00"> &lt; Ark::internal::Node &gt;</text>
</g>
<!-- Node6 -->
<g id="node6" class="node">
<title>Node6</title>
<g id="a_node6"><a xlink:title=" ">
<polygon fill="white" stroke="#bfbfbf" points="34,-145.5 34,-164.5 63,-164.5 63,-145.5 34,-145.5"/>
<text text-anchor="middle" x="48.5" y="-152.5" font-family="Helvetica,sans-Serif" font-size="10.00">T</text>
</a>
</g>
</g>
<!-- Node6&#45;&gt;Node5 -->
<g id="edge6" class="edge">
<title>Node6&#45;&gt;Node5</title>
<path fill="none" stroke="#9a32cd" stroke-dasharray="5,2" d="M48.5,-135.04C48.5,-122.67 48.5,-107.12 48.5,-97.63"/>
<polygon fill="#9a32cd" stroke="#9a32cd" points="45,-135.23 48.5,-145.23 52,-135.23 45,-135.23"/>
<text text-anchor="middle" x="73" y="-119" font-family="Helvetica,sans-Serif" font-size="10.00"> elements</text>
</g>
</g>
</svg>
