<?xml version="1.0" encoding="UTF-8" standalone="no"?>
<!DOCTYPE svg PUBLIC "-//W3C//DTD SVG 1.1//EN"
 "http://www.w3.org/Graphics/SVG/1.1/DTD/svg11.dtd">
<!-- Generated by graphviz version 12.1.1 (20240910.0053)
 -->
<!-- Title: /Users/fola/Documents/ArkScript/Ark/include/CLI/Formatter.hpp Pages: 1 -->
<svg width="1480pt" height="337pt"
 viewBox="0.00 0.00 1479.59 337.25" xmlns="http://www.w3.org/2000/svg" xmlns:xlink="http://www.w3.org/1999/xlink">
<g id="graph0" class="graph" transform="scale(1 1) rotate(0) translate(4 333.25)">
<title>/Users/fola/Documents/ArkScript/Ark/include/CLI/Formatter.hpp</title>
<!-- Node1 -->
<g id="Node000001" class="node">
<title>Node1</title>
<g id="a_Node000001"><a xlink:title=" ">
<polygon fill="#999999" stroke="#666666" points="445.62,-329.25 328.38,-329.25 328.38,-287.5 445.62,-287.5 445.62,-329.25"/>
<text text-anchor="start" x="336.38" y="-315.75" font-family="Helvetica,sans-Serif" font-size="10.00">/Users/fola/Documents</text>
<text text-anchor="start" x="336.38" y="-304.5" font-family="Helvetica,sans-Serif" font-size="10.00">/ArkScript/Ark/include</text>
<text text-anchor="middle" x="387" y="-293.25" font-family="Helvetica,sans-Serif" font-size="10.00">/CLI/Formatter.hpp</text>
</a>
</g>
</g>
<!-- Node2 -->
<g id="Node000002" class="node">
<title>Node2</title>
<g id="a_Node000002"><a xlink:title=" ">
<polygon fill="#e0e0e0" stroke="#999999" points="371,-19.25 331,-19.25 331,0 371,0 371,-19.25"/>
<text text-anchor="middle" x="351" y="-5.75" font-family="Helvetica,sans-Serif" font-size="10.00">string</text>
</a>
</g>
</g>
<!-- Node1&#45;&gt;Node2 -->
<g id="edge1_Node000001_Node000002" class="edge">
<title>Node1&#45;&gt;Node2</title>
<g id="a_edge1_Node000001_Node000002"><a xlink:title=" ">
<path fill="none" stroke="#63b8ff" d="M328.22,-301.52C219.96,-289.09 0,-255.49 0,-187.62 0,-187.62 0,-187.62 0,-130.38 0,-92.34 9.76,-76.95 41,-55.25 85.66,-24.23 249.73,-14.44 319.39,-11.64"/>
<polygon fill="#63b8ff" stroke="#63b8ff" points="319.5,-15.14 329.36,-11.27 319.23,-8.15 319.5,-15.14"/>
</a>
</g>
</g>
<!-- Node3 -->
<g id="Node000003" class="node">
<title>Node3</title>
<g id="a_Node000003"><a xlink:href="../../d7/ddd/Parser_8hpp.html" target="_top" xlink:title="Parse ArkScript code, but do not handle any import declarations.">
<polygon fill="white" stroke="#666666" points="849.5,-251.5 704.5,-251.5 704.5,-232.25 849.5,-232.25 849.5,-251.5"/>
<text text-anchor="middle" x="777" y="-238" font-family="Helvetica,sans-Serif" font-size="10.00">Ark/Compiler/AST/Parser.hpp</text>
</a>
</g>
</g>
<!-- Node1&#45;&gt;Node3 -->
<g id="edge2_Node000001_Node000003" class="edge">
<title>Node1&#45;&gt;Node3</title>
<g id="a_edge2_Node000001_Node000003"><a xlink:title=" ">
<path fill="none" stroke="#63b8ff" d="M445.81,-297.65C517.05,-285.87 636.75,-266.07 711.06,-253.78"/>
<polygon fill="#63b8ff" stroke="#63b8ff" points="711.34,-257.28 720.64,-252.2 710.2,-250.38 711.34,-257.28"/>
</a>
</g>
</g>
<!-- Node3&#45;&gt;Node2 -->
<g id="edge42_Node000003_Node000002" class="edge">
<title>Node3&#45;&gt;Node2</title>
<g id="a_edge42_Node000003_Node000002"><a xlink:title=" ">
<path fill="none" stroke="#63b8ff" d="M704.1,-240.12C544.57,-236.98 171.42,-221.05 79,-141 49.26,-115.24 31.35,-85.09 57,-55.25 90.57,-16.2 250.4,-10.91 319.29,-10.48"/>
<polygon fill="#63b8ff" stroke="#63b8ff" points="319.16,-13.98 329.15,-10.45 319.14,-6.98 319.16,-13.98"/>
</a>
</g>
</g>
<!-- Node4 -->
<g id="Node000004" class="node">
<title>Node4</title>
<g id="a_Node000004"><a xlink:href="../../d3/d70/BaseParser_8hpp.html" target="_top" xlink:title=" ">
<polygon fill="white" stroke="#666666" points="583.75,-196.25 416.25,-196.25 416.25,-177 583.75,-177 583.75,-196.25"/>
<text text-anchor="middle" x="500" y="-182.75" font-family="Helvetica,sans-Serif" font-size="10.00">Ark/Compiler/AST/BaseParser.hpp</text>
</a>
</g>
</g>
<!-- Node3&#45;&gt;Node4 -->
<g id="edge3_Node000003_Node000004" class="edge">
<title>Node3&#45;&gt;Node4</title>
<g id="a_edge3_Node000003_Node000004"><a xlink:title=" ">
<path fill="none" stroke="#63b8ff" d="M729.7,-231.78C682.29,-222.67 609.22,-208.62 558.27,-198.83"/>
<polygon fill="#63b8ff" stroke="#63b8ff" points="559.08,-195.42 548.59,-196.97 557.75,-202.29 559.08,-195.42"/>
</a>
</g>
</g>
<!-- Node5 -->
<g id="Node000005" class="node">
<title>Node5</title>
<g id="a_Node000005"><a xlink:title=" ">
<polygon fill="#e0e0e0" stroke="#999999" points="782.5,-80.12 739.5,-80.12 739.5,-60.88 782.5,-60.88 782.5,-80.12"/>
<text text-anchor="middle" x="761" y="-66.62" font-family="Helvetica,sans-Serif" font-size="10.00">vector</text>
</a>
</g>
</g>
<!-- Node3&#45;&gt;Node5 -->
<g id="edge44_Node000003_Node000005" class="edge">
<title>Node3&#45;&gt;Node5</title>
<g id="a_edge44_Node000003_Node000005"><a xlink:title=" ">
<path fill="none" stroke="#63b8ff" d="M783.21,-231.97C796.44,-211.85 824.94,-161.5 809,-121.75 803.64,-108.38 792.83,-96.54 782.83,-87.72"/>
<polygon fill="#63b8ff" stroke="#63b8ff" points="785.17,-85.11 775.21,-81.48 780.72,-90.53 785.17,-85.11"/>
</a>
</g>
</g>
<!-- Node7 -->
<g id="Node000007" class="node">
<title>Node7</title>
<g id="a_Node000007"><a xlink:href="../../d5/d40/Platform_8hpp.html" target="_top" xlink:title="ArkScript configuration macros.">
<polygon fill="white" stroke="#666666" points="799.75,-141 710.25,-141 710.25,-121.75 799.75,-121.75 799.75,-141"/>
<text text-anchor="middle" x="755" y="-127.5" font-family="Helvetica,sans-Serif" font-size="10.00">Ark/Platform.hpp</text>
</a>
</g>
</g>
<!-- Node3&#45;&gt;Node7 -->
<g id="edge41_Node000003_Node000007" class="edge">
<title>Node3&#45;&gt;Node7</title>
<g id="a_edge41_Node000003_Node000007"><a xlink:title=" ">
<path fill="none" stroke="#63b8ff" d="M775.2,-232C771.7,-214.75 763.91,-176.33 759.09,-152.56"/>
<polygon fill="#63b8ff" stroke="#63b8ff" points="762.54,-151.97 757.13,-142.86 755.68,-153.36 762.54,-151.97"/>
</a>
</g>
</g>
<!-- Node13 -->
<g id="Node000013" class="node">
<title>Node13</title>
<g id="a_Node000013"><a xlink:href="../../d7/dc6/Node_8hpp.html" target="_top" xlink:title="AST node used by the parser, optimizer and compiler.">
<polygon fill="white" stroke="#666666" points="1053.25,-196.25 912.75,-196.25 912.75,-177 1053.25,-177 1053.25,-196.25"/>
<text text-anchor="middle" x="983" y="-182.75" font-family="Helvetica,sans-Serif" font-size="10.00">Ark/Compiler/AST/Node.hpp</text>
</a>
</g>
</g>
<!-- Node3&#45;&gt;Node13 -->
<g id="edge16_Node000003_Node000013" class="edge">
<title>Node3&#45;&gt;Node13</title>
<g id="a_edge16_Node000003_Node000013"><a xlink:title=" ">
<path fill="none" stroke="#63b8ff" d="M811.95,-231.84C846.42,-222.93 899.31,-209.26 937.15,-199.48"/>
<polygon fill="#63b8ff" stroke="#63b8ff" points="937.61,-202.97 946.42,-197.08 935.86,-196.2 937.61,-202.97"/>
</a>
</g>
</g>
<!-- Node19 -->
<g id="Node000019" class="node">
<title>Node19</title>
<g id="a_Node000019"><a xlink:href="../../d4/d32/Import_8hpp.html" target="_top" xlink:title=" ">
<polygon fill="white" stroke="#666666" points="748.5,-196.25 603.5,-196.25 603.5,-177 748.5,-177 748.5,-196.25"/>
<text text-anchor="middle" x="676" y="-182.75" font-family="Helvetica,sans-Serif" font-size="10.00">Ark/Compiler/AST/Import.hpp</text>
</a>
</g>
</g>
<!-- Node3&#45;&gt;Node19 -->
<g id="edge27_Node000003_Node000019" class="edge">
<title>Node3&#45;&gt;Node19</title>
<g id="a_edge27_Node000003_Node000019"><a xlink:title=" ">
<path fill="none" stroke="#63b8ff" d="M759.87,-231.84C744.34,-223.66 721.2,-211.46 703.16,-201.94"/>
<polygon fill="#63b8ff" stroke="#63b8ff" points="705.03,-198.98 694.56,-197.41 701.77,-205.17 705.03,-198.98"/>
</a>
</g>
</g>
<!-- Node21 -->
<g id="Node000021" class="node">
<title>Node21</title>
<g id="a_Node000021"><a xlink:href="../../d9/d11/Logger_8hpp.html" target="_top" xlink:title="Internal logger.">
<polygon fill="white" stroke="#666666" points="1324.62,-196.25 1243.38,-196.25 1243.38,-177 1324.62,-177 1324.62,-196.25"/>
<text text-anchor="middle" x="1284" y="-182.75" font-family="Helvetica,sans-Serif" font-size="10.00">Ark/Logger.hpp</text>
</a>
</g>
</g>
<!-- Node3&#45;&gt;Node21 -->
<g id="edge32_Node000003_Node000021" class="edge">
<title>Node3&#45;&gt;Node21</title>
<g id="a_edge32_Node000003_Node000021"><a xlink:title=" ">
<path fill="none" stroke="#63b8ff" d="M849.91,-233.22C953.47,-222.34 1140.67,-202.68 1231.6,-193.13"/>
<polygon fill="#63b8ff" stroke="#63b8ff" points="1231.9,-196.62 1241.48,-192.09 1231.17,-189.65 1231.9,-196.62"/>
</a>
</g>
</g>
<!-- Node24 -->
<g id="Node000024" class="node">
<title>Node24</title>
<g id="a_Node000024"><a xlink:href="../../d4/dcb/Ark_2Utils_8hpp.html" target="_top" xlink:title="Lots of utilities about string, filesystem and more.">
<polygon fill="white" stroke="#666666" points="161.5,-141 88.5,-141 88.5,-121.75 161.5,-121.75 161.5,-141"/>
<text text-anchor="middle" x="125" y="-127.5" font-family="Helvetica,sans-Serif" font-size="10.00">Ark/Utils.hpp</text>
</a>
</g>
</g>
<!-- Node3&#45;&gt;Node24 -->
<g id="edge36_Node000003_Node000024" class="edge">
<title>Node3&#45;&gt;Node24</title>
<g id="a_edge36_Node000003_Node000024"><a xlink:title=" ">
<path fill="none" stroke="#63b8ff" d="M704.01,-234.31C629.15,-227.05 509.48,-213.99 407,-196.25 322.78,-181.67 225.84,-158.23 170.36,-144.16"/>
<polygon fill="#63b8ff" stroke="#63b8ff" points="171.52,-140.85 160.97,-141.77 169.79,-147.63 171.52,-140.85"/>
</a>
</g>
</g>
<!-- Node27 -->
<g id="Node000027" class="node">
<title>Node27</title>
<g id="a_Node000027"><a xlink:title=" ">
<polygon fill="#e0e0e0" stroke="#999999" points="894.88,-196.25 845.12,-196.25 845.12,-177 894.88,-177 894.88,-196.25"/>
<text text-anchor="middle" x="870" y="-182.75" font-family="Helvetica,sans-Serif" font-size="10.00">optional</text>
</a>
</g>
</g>
<!-- Node3&#45;&gt;Node27 -->
<g id="edge43_Node000003_Node000027" class="edge">
<title>Node3&#45;&gt;Node27</title>
<g id="a_edge43_Node000003_Node000027"><a xlink:title=" ">
<path fill="none" stroke="#63b8ff" d="M792.78,-231.84C806.94,-223.73 827.98,-211.68 844.53,-202.21"/>
<polygon fill="#63b8ff" stroke="#63b8ff" points="845.89,-205.46 852.83,-197.45 842.42,-199.39 845.89,-205.46"/>
</a>
</g>
</g>
<!-- Node28 -->
<g id="Node000028" class="node">
<title>Node28</title>
<g id="a_Node000028"><a xlink:href="../../d1/d85/utf8_8hpp.html" target="_top" xlink:title=" ">
<polygon fill="white" stroke="#666666" points="1462.62,-196.25 1411.38,-196.25 1411.38,-177 1462.62,-177 1462.62,-196.25"/>
<text text-anchor="middle" x="1437" y="-182.75" font-family="Helvetica,sans-Serif" font-size="10.00">utf8.hpp</text>
</a>
</g>
</g>
<!-- Node3&#45;&gt;Node28 -->
<g id="edge45_Node000003_Node000028" class="edge">
<title>Node3&#45;&gt;Node28</title>
<g id="a_edge45_Node000003_Node000028"><a xlink:title=" ">
<path fill="none" stroke="#63b8ff" d="M850,-235.11C956.43,-226.69 1160.45,-210.47 1334,-196.25 1355.87,-194.46 1380.36,-192.41 1399.96,-190.76"/>
<polygon fill="#63b8ff" stroke="#63b8ff" points="1400,-194.27 1409.67,-189.94 1399.41,-187.29 1400,-194.27"/>
</a>
</g>
</g>
<!-- Node4&#45;&gt;Node2 -->
<g id="edge4_Node000004_Node000002" class="edge">
<title>Node4&#45;&gt;Node2</title>
<g id="a_edge4_Node000004_Node000002"><a xlink:title=" ">
<path fill="none" stroke="#63b8ff" d="M415.81,-178.27C334.74,-170.32 222.44,-156.66 209,-141 193.91,-123.42 240.48,-77.02 268,-55.25 284,-42.6 304.1,-31.68 320.52,-23.81"/>
<polygon fill="#63b8ff" stroke="#63b8ff" points="321.72,-27.12 329.32,-19.73 318.77,-20.77 321.72,-27.12"/>
</a>
</g>
</g>
<!-- Node4&#45;&gt;Node5 -->
<g id="edge5_Node000004_Node000005" class="edge">
<title>Node4&#45;&gt;Node5</title>
<g id="a_edge5_Node000004_Node000005"><a xlink:title=" ">
<path fill="none" stroke="#63b8ff" d="M505.43,-176.66C514.37,-162.68 533.57,-135.85 557,-121.75 611.16,-89.15 685.48,-77.66 727.84,-73.64"/>
<polygon fill="#63b8ff" stroke="#63b8ff" points="727.98,-77.14 737.65,-72.8 727.38,-70.16 727.98,-77.14"/>
</a>
</g>
</g>
<!-- Node6 -->
<g id="Node000006" class="node">
<title>Node6</title>
<g id="a_Node000006"><a xlink:title=" ">
<polygon fill="#e0e0e0" stroke="#999999" points="472.12,-141 399.88,-141 399.88,-121.75 472.12,-121.75 472.12,-141"/>
<text text-anchor="middle" x="436" y="-127.5" font-family="Helvetica,sans-Serif" font-size="10.00">initializer_list</text>
</a>
</g>
</g>
<!-- Node4&#45;&gt;Node6 -->
<g id="edge6_Node000004_Node000006" class="edge">
<title>Node4&#45;&gt;Node6</title>
<g id="a_edge6_Node000004_Node000006"><a xlink:title=" ">
<path fill="none" stroke="#63b8ff" d="M489.14,-176.59C479.89,-168.9 466.38,-157.65 455.29,-148.43"/>
<polygon fill="#63b8ff" stroke="#63b8ff" points="457.79,-145.95 447.86,-142.24 453.31,-151.33 457.79,-145.95"/>
</a>
</g>
</g>
<!-- Node4&#45;&gt;Node7 -->
<g id="edge7_Node000004_Node000007" class="edge">
<title>Node4&#45;&gt;Node7</title>
<g id="a_edge7_Node000004_Node000007"><a xlink:title=" ">
<path fill="none" stroke="#63b8ff" d="M543.55,-176.53C586.91,-167.48 653.6,-153.55 700.47,-143.76"/>
<polygon fill="#63b8ff" stroke="#63b8ff" points="701.08,-147.21 710.15,-141.74 699.65,-140.36 701.08,-147.21"/>
</a>
</g>
</g>
<!-- Node8 -->
<g id="Node000008" class="node">
<title>Node8</title>
<g id="a_Node000008"><a xlink:href="../../dc/d59/Predicates_8hpp.html" target="_top" xlink:title=" ">
<polygon fill="white" stroke="#666666" points="381.88,-141 218.12,-141 218.12,-121.75 381.88,-121.75 381.88,-141"/>
<text text-anchor="middle" x="300" y="-127.5" font-family="Helvetica,sans-Serif" font-size="10.00">Ark/Compiler/AST/Predicates.hpp</text>
</a>
</g>
</g>
<!-- Node4&#45;&gt;Node8 -->
<g id="edge8_Node000004_Node000008" class="edge">
<title>Node4&#45;&gt;Node8</title>
<g id="a_edge8_Node000004_Node000008"><a xlink:title=" ">
<path fill="none" stroke="#63b8ff" d="M466.07,-176.59C432.74,-167.72 381.69,-154.12 344.99,-144.35"/>
<polygon fill="#63b8ff" stroke="#63b8ff" points="346.12,-141.03 335.56,-141.84 344.32,-147.8 346.12,-141.03"/>
</a>
</g>
</g>
<!-- Node10 -->
<g id="Node000010" class="node">
<title>Node10</title>
<g id="a_Node000010"><a xlink:href="../../db/d4e/utf8__char_8hpp.html" target="_top" xlink:title=" ">
<polygon fill="white" stroke="#666666" points="525.5,-85.75 410.5,-85.75 410.5,-55.25 525.5,-55.25 525.5,-85.75"/>
<text text-anchor="start" x="418.5" y="-72.25" font-family="Helvetica,sans-Serif" font-size="10.00">Ark/Compiler/AST/utf8</text>
<text text-anchor="middle" x="468" y="-61" font-family="Helvetica,sans-Serif" font-size="10.00">_char.hpp</text>
</a>
</g>
</g>
<!-- Node4&#45;&gt;Node10 -->
<g id="edge15_Node000004_Node000010" class="edge">
<title>Node4&#45;&gt;Node10</title>
<g id="a_edge15_Node000004_Node000010"><a xlink:title=" ">
<path fill="none" stroke="#63b8ff" d="M497.49,-176.67C492.73,-159.7 482.25,-122.31 475.15,-97.01"/>
<polygon fill="#63b8ff" stroke="#63b8ff" points="478.55,-96.16 472.48,-87.48 471.81,-98.05 478.55,-96.16"/>
</a>
</g>
</g>
<!-- Node8&#45;&gt;Node2 -->
<g id="edge9_Node000008_Node000002" class="edge">
<title>Node8&#45;&gt;Node2</title>
<g id="a_edge9_Node000008_Node000002"><a xlink:title=" ">
<path fill="none" stroke="#63b8ff" d="M307.97,-121.44C315.22,-112.86 325.73,-99.24 332,-85.75 340.24,-68.02 345.24,-46.21 348.04,-30.67"/>
<polygon fill="#63b8ff" stroke="#63b8ff" points="351.49,-31.24 349.64,-20.81 344.58,-30.12 351.49,-31.24"/>
</a>
</g>
</g>
<!-- Node9 -->
<g id="Node000009" class="node">
<title>Node9</title>
<g id="a_Node000009"><a xlink:title=" ">
<polygon fill="#e0e0e0" stroke="#999999" points="322.62,-80.12 277.38,-80.12 277.38,-60.88 322.62,-60.88 322.62,-80.12"/>
<text text-anchor="middle" x="300" y="-66.62" font-family="Helvetica,sans-Serif" font-size="10.00">cctype</text>
</a>
</g>
</g>
<!-- Node8&#45;&gt;Node9 -->
<g id="edge10_Node000008_Node000009" class="edge">
<title>Node8&#45;&gt;Node9</title>
<g id="a_edge10_Node000008_Node000009"><a xlink:title=" ">
<path fill="none" stroke="#63b8ff" d="M300,-121.43C300,-113.65 300,-102.08 300,-92.03"/>
<polygon fill="#63b8ff" stroke="#63b8ff" points="303.5,-92.04 300,-82.04 296.5,-92.04 303.5,-92.04"/>
</a>
</g>
</g>
<!-- Node8&#45;&gt;Node10 -->
<g id="edge11_Node000008_Node000010" class="edge">
<title>Node8&#45;&gt;Node10</title>
<g id="a_edge11_Node000008_Node000010"><a xlink:title=" ">
<path fill="none" stroke="#63b8ff" d="M325.88,-121.3C349.65,-112.97 385.61,-100.37 415.4,-89.93"/>
<polygon fill="#63b8ff" stroke="#63b8ff" points="416.36,-93.31 424.64,-86.7 414.05,-86.7 416.36,-93.31"/>
</a>
</g>
</g>
<!-- Node10&#45;&gt;Node2 -->
<g id="edge13_Node000010_Node000002" class="edge">
<title>Node10&#45;&gt;Node2</title>
<g id="a_edge13_Node000010_Node000002"><a xlink:title=" ">
<path fill="none" stroke="#63b8ff" d="M438.78,-54.8C420.53,-45.61 397.17,-33.86 379.13,-24.78"/>
<polygon fill="#63b8ff" stroke="#63b8ff" points="380.8,-21.7 370.3,-20.33 377.65,-27.96 380.8,-21.7"/>
</a>
</g>
</g>
<!-- Node11 -->
<g id="Node000011" class="node">
<title>Node11</title>
<g id="a_Node000011"><a xlink:title=" ">
<polygon fill="#e0e0e0" stroke="#999999" points="1245.88,-19.25 1208.12,-19.25 1208.12,0 1245.88,0 1245.88,-19.25"/>
<text text-anchor="middle" x="1227" y="-5.75" font-family="Helvetica,sans-Serif" font-size="10.00">array</text>
</a>
</g>
</g>
<!-- Node10&#45;&gt;Node11 -->
<g id="edge12_Node000010_Node000011" class="edge">
<title>Node10&#45;&gt;Node11</title>
<g id="a_edge12_Node000010_Node000011"><a xlink:title=" ">
<path fill="none" stroke="#63b8ff" d="M525.98,-65C677.61,-53.24 1082.06,-21.87 1196.47,-12.99"/>
<polygon fill="#63b8ff" stroke="#63b8ff" points="1196.58,-16.5 1206.28,-12.23 1196.04,-9.52 1196.58,-16.5"/>
</a>
</g>
</g>
<!-- Node12 -->
<g id="Node000012" class="node">
<title>Node12</title>
<g id="a_Node000012"><a xlink:title=" ">
<polygon fill="#e0e0e0" stroke="#999999" points="487.62,-19.25 448.38,-19.25 448.38,0 487.62,0 487.62,-19.25"/>
<text text-anchor="middle" x="468" y="-5.75" font-family="Helvetica,sans-Serif" font-size="10.00">limits</text>
</a>
</g>
</g>
<!-- Node10&#45;&gt;Node12 -->
<g id="edge14_Node000010_Node000012" class="edge">
<title>Node10&#45;&gt;Node12</title>
<g id="a_edge14_Node000010_Node000012"><a xlink:title=" ">
<path fill="none" stroke="#63b8ff" d="M468,-54.95C468,-47.71 468,-38.84 468,-30.94"/>
<polygon fill="#63b8ff" stroke="#63b8ff" points="471.5,-31.21 468,-21.21 464.5,-31.21 471.5,-31.21"/>
</a>
</g>
</g>
<!-- Node13&#45;&gt;Node2 -->
<g id="edge19_Node000013_Node000002" class="edge">
<title>Node13&#45;&gt;Node2</title>
<g id="a_edge19_Node000013_Node000002"><a xlink:title=" ">
<path fill="none" stroke="#63b8ff" d="M1053.48,-177.88C1100.17,-171.13 1155.42,-159.47 1170,-141 1187.56,-118.75 1184.22,-82.07 1150,-55.25 1087.74,-6.46 517.88,-25.11 439,-19.25 420.28,-17.86 399.36,-15.83 382.61,-14.09"/>
<polygon fill="#63b8ff" stroke="#63b8ff" points="383.07,-10.62 372.75,-13.04 382.33,-17.58 383.07,-10.62"/>
</a>
</g>
</g>
<!-- Node13&#45;&gt;Node5 -->
<g id="edge20_Node000013_Node000005" class="edge">
<title>Node13&#45;&gt;Node5</title>
<g id="a_edge20_Node000013_Node000005"><a xlink:title=" ">
<path fill="none" stroke="#63b8ff" d="M961.73,-176.55C941.71,-167.87 911.01,-154.18 885,-141 849.94,-123.23 810.52,-100.68 785.72,-86.16"/>
<polygon fill="#63b8ff" stroke="#63b8ff" points="787.75,-83.29 777.36,-81.24 784.2,-89.33 787.75,-83.29"/>
</a>
</g>
</g>
<!-- Node13&#45;&gt;Node7 -->
<g id="edge26_Node000013_Node000007" class="edge">
<title>Node13&#45;&gt;Node7</title>
<g id="a_edge26_Node000013_Node000007"><a xlink:title=" ">
<path fill="none" stroke="#63b8ff" d="M944.06,-176.53C905.62,-167.55 846.67,-153.78 804.82,-144.01"/>
<polygon fill="#63b8ff" stroke="#63b8ff" points="805.78,-140.64 795.25,-141.78 804.19,-147.46 805.78,-140.64"/>
</a>
</g>
</g>
<!-- Node14 -->
<g id="Node000014" class="node">
<title>Node14</title>
<g id="a_Node000014"><a xlink:title=" ">
<polygon fill="#e0e0e0" stroke="#999999" points="939.62,-141 894.38,-141 894.38,-121.75 939.62,-121.75 939.62,-141"/>
<text text-anchor="middle" x="917" y="-127.5" font-family="Helvetica,sans-Serif" font-size="10.00">variant</text>
</a>
</g>
</g>
<!-- Node13&#45;&gt;Node14 -->
<g id="edge17_Node000013_Node000014" class="edge">
<title>Node13&#45;&gt;Node14</title>
<g id="a_edge17_Node000013_Node000014"><a xlink:title=" ">
<path fill="none" stroke="#63b8ff" d="M971.8,-176.59C962.26,-168.9 948.33,-157.65 936.89,-148.43"/>
<polygon fill="#63b8ff" stroke="#63b8ff" points="939.19,-145.78 929.21,-142.23 934.79,-151.23 939.19,-145.78"/>
</a>
</g>
</g>
<!-- Node15 -->
<g id="Node000015" class="node">
<title>Node15</title>
<g id="a_Node000015"><a xlink:title=" ">
<polygon fill="#e0e0e0" stroke="#999999" points="1008.62,-141 957.38,-141 957.38,-121.75 1008.62,-121.75 1008.62,-141"/>
<text text-anchor="middle" x="983" y="-127.5" font-family="Helvetica,sans-Serif" font-size="10.00">ostream</text>
</a>
</g>
</g>
<!-- Node13&#45;&gt;Node15 -->
<g id="edge18_Node000013_Node000015" class="edge">
<title>Node13&#45;&gt;Node15</title>
<g id="a_edge18_Node000013_Node000015"><a xlink:title=" ">
<path fill="none" stroke="#63b8ff" d="M983,-176.83C983,-170.32 983,-161.17 983,-152.87"/>
<polygon fill="#63b8ff" stroke="#63b8ff" points="986.5,-152.87 983,-142.87 979.5,-152.87 986.5,-152.87"/>
</a>
</g>
</g>
<!-- Node16 -->
<g id="Node000016" class="node">
<title>Node16</title>
<g id="a_Node000016"><a xlink:href="../../d8/ddd/Common_8hpp.html" target="_top" xlink:title="Common code for the compiler.">
<polygon fill="white" stroke="#666666" points="1161.25,-141 1026.75,-141 1026.75,-121.75 1161.25,-121.75 1161.25,-141"/>
<text text-anchor="middle" x="1094" y="-127.5" font-family="Helvetica,sans-Serif" font-size="10.00">Ark/Compiler/Common.hpp</text>
</a>
</g>
</g>
<!-- Node13&#45;&gt;Node16 -->
<g id="edge21_Node000013_Node000016" class="edge">
<title>Node13&#45;&gt;Node16</title>
<g id="a_edge21_Node000013_Node000016"><a xlink:title=" ">
<path fill="none" stroke="#63b8ff" d="M1001.83,-176.59C1019.05,-168.33 1044.8,-155.98 1064.71,-146.43"/>
<polygon fill="#63b8ff" stroke="#63b8ff" points="1066.21,-149.59 1073.71,-142.11 1063.18,-143.28 1066.21,-149.59"/>
</a>
</g>
</g>
<!-- Node16&#45;&gt;Node5 -->
<g id="edge24_Node000016_Node000005" class="edge">
<title>Node16&#45;&gt;Node5</title>
<g id="a_edge24_Node000016_Node000005"><a xlink:title=" ">
<path fill="none" stroke="#63b8ff" d="M1042.7,-121.3C973.4,-109.05 851.89,-87.57 793.77,-77.29"/>
<polygon fill="#63b8ff" stroke="#63b8ff" points="794.65,-73.89 784.19,-75.6 793.43,-80.79 794.65,-73.89"/>
</a>
</g>
</g>
<!-- Node16&#45;&gt;Node11 -->
<g id="edge22_Node000016_Node000011" class="edge">
<title>Node16&#45;&gt;Node11</title>
<g id="a_edge22_Node000016_Node000011"><a xlink:title=" ">
<path fill="none" stroke="#63b8ff" d="M1105.86,-121.48C1117.39,-112.7 1135.27,-98.75 1150,-85.75 1171.54,-66.74 1194.99,-43.46 1210.28,-27.89"/>
<polygon fill="#63b8ff" stroke="#63b8ff" points="1212.73,-30.4 1217.21,-20.8 1207.72,-25.51 1212.73,-30.4"/>
</a>
</g>
</g>
<!-- Node17 -->
<g id="Node000017" class="node">
<title>Node17</title>
<g id="a_Node000017"><a xlink:title=" ">
<polygon fill="#e0e0e0" stroke="#999999" points="1066.75,-80.12 1001.25,-80.12 1001.25,-60.88 1066.75,-60.88 1066.75,-80.12"/>
<text text-anchor="middle" x="1034" y="-66.62" font-family="Helvetica,sans-Serif" font-size="10.00">string_view</text>
</a>
</g>
</g>
<!-- Node16&#45;&gt;Node17 -->
<g id="edge23_Node000016_Node000017" class="edge">
<title>Node16&#45;&gt;Node17</title>
<g id="a_edge23_Node000016_Node000017"><a xlink:title=" ">
<path fill="none" stroke="#63b8ff" d="M1084.89,-121.43C1075.99,-112.7 1062.22,-99.19 1051.25,-88.43"/>
<polygon fill="#63b8ff" stroke="#63b8ff" points="1053.87,-86.09 1044.28,-81.59 1048.97,-91.09 1053.87,-86.09"/>
</a>
</g>
</g>
<!-- Node18 -->
<g id="Node000018" class="node">
<title>Node18</title>
<g id="a_Node000018"><a xlink:title=" ">
<polygon fill="#e0e0e0" stroke="#999999" points="1140.88,-80.12 1085.12,-80.12 1085.12,-60.88 1140.88,-60.88 1140.88,-80.12"/>
<text text-anchor="middle" x="1113" y="-66.62" font-family="Helvetica,sans-Serif" font-size="10.00">cinttypes</text>
</a>
</g>
</g>
<!-- Node16&#45;&gt;Node18 -->
<g id="edge25_Node000016_Node000018" class="edge">
<title>Node16&#45;&gt;Node18</title>
<g id="a_edge25_Node000016_Node000018"><a xlink:title=" ">
<path fill="none" stroke="#63b8ff" d="M1096.89,-121.43C1099.45,-113.48 1103.3,-101.56 1106.59,-91.37"/>
<polygon fill="#63b8ff" stroke="#63b8ff" points="1109.88,-92.56 1109.62,-81.97 1103.22,-90.41 1109.88,-92.56"/>
</a>
</g>
</g>
<!-- Node19&#45;&gt;Node2 -->
<g id="edge29_Node000019_Node000002" class="edge">
<title>Node19&#45;&gt;Node2</title>
<g id="a_edge29_Node000019_Node000002"><a xlink:title=" ">
<path fill="none" stroke="#63b8ff" d="M670.05,-176.76C661.14,-163.85 643.4,-139.47 625,-121.75 589.18,-87.25 580.06,-76.31 535,-55.25 484.62,-31.71 420.46,-19.79 382.74,-14.42"/>
<polygon fill="#63b8ff" stroke="#63b8ff" points="383.36,-10.97 372.98,-13.1 382.42,-17.91 383.36,-10.97"/>
</a>
</g>
</g>
<!-- Node19&#45;&gt;Node5 -->
<g id="edge28_Node000019_Node000005" class="edge">
<title>Node19&#45;&gt;Node5</title>
<g id="a_edge28_Node000019_Node000005"><a xlink:title=" ">
<path fill="none" stroke="#63b8ff" d="M677.99,-176.68C681.21,-163.66 688.49,-139.15 701,-121.75 710.83,-108.08 725.19,-95.88 737.4,-86.92"/>
<polygon fill="#63b8ff" stroke="#63b8ff" points="739.19,-89.94 745.37,-81.33 735.17,-84.21 739.19,-89.94"/>
</a>
</g>
</g>
<!-- Node19&#45;&gt;Node7 -->
<g id="edge31_Node000019_Node000007" class="edge">
<title>Node19&#45;&gt;Node7</title>
<g id="a_edge31_Node000019_Node000007"><a xlink:title=" ">
<path fill="none" stroke="#63b8ff" d="M689.4,-176.59C701.09,-168.71 718.3,-157.11 732.16,-147.77"/>
<polygon fill="#63b8ff" stroke="#63b8ff" points="733.94,-150.79 740.28,-142.3 730.03,-144.99 733.94,-150.79"/>
</a>
</g>
</g>
<!-- Node20 -->
<g id="Node000020" class="node">
<title>Node20</title>
<g id="a_Node000020"><a xlink:title=" ">
<polygon fill="#e0e0e0" stroke="#999999" points="616.25,-141 565.75,-141 565.75,-121.75 616.25,-121.75 616.25,-141"/>
<text text-anchor="middle" x="591" y="-127.5" font-family="Helvetica,sans-Serif" font-size="10.00">numeric</text>
</a>
</g>
</g>
<!-- Node19&#45;&gt;Node20 -->
<g id="edge30_Node000019_Node000020" class="edge">
<title>Node19&#45;&gt;Node20</title>
<g id="a_edge30_Node000019_Node000020"><a xlink:title=" ">
<path fill="none" stroke="#63b8ff" d="M661.58,-176.59C648.88,-168.64 630.13,-156.89 615.14,-147.5"/>
<polygon fill="#63b8ff" stroke="#63b8ff" points="617.1,-144.6 606.77,-142.26 613.39,-150.53 617.1,-144.6"/>
</a>
</g>
</g>
<!-- Node21&#45;&gt;Node2 -->
<g id="edge35_Node000021_Node000002" class="edge">
<title>Node21&#45;&gt;Node2</title>
<g id="a_edge35_Node000021_Node000002"><a xlink:title=" ">
<path fill="none" stroke="#63b8ff" d="M1314.32,-176.52C1344.64,-165.79 1384.43,-146.28 1367,-121.75 1245.31,49.47 981.67,-59.07 439,-19.25 420.27,-17.88 399.35,-15.85 382.61,-14.1"/>
<polygon fill="#63b8ff" stroke="#63b8ff" points="383.07,-10.63 372.75,-13.05 382.33,-17.59 383.07,-10.63"/>
</a>
</g>
</g>
<!-- Node22 -->
<g id="Node000022" class="node">
<title>Node22</title>
<g id="a_Node000022"><a xlink:title=" ">
<polygon fill="#e0e0e0" stroke="#999999" points="1270.75,-141 1217.25,-141 1217.25,-121.75 1270.75,-121.75 1270.75,-141"/>
<text text-anchor="middle" x="1244" y="-127.5" font-family="Helvetica,sans-Serif" font-size="10.00">iostream</text>
</a>
</g>
</g>
<!-- Node21&#45;&gt;Node22 -->
<g id="edge33_Node000021_Node000022" class="edge">
<title>Node21&#45;&gt;Node22</title>
<g id="a_edge33_Node000021_Node000022"><a xlink:title=" ">
<path fill="none" stroke="#63b8ff" d="M1277.39,-176.83C1272.04,-169.71 1264.32,-159.43 1257.65,-150.55"/>
<polygon fill="#63b8ff" stroke="#63b8ff" points="1260.46,-148.46 1251.66,-142.57 1254.87,-152.67 1260.46,-148.46"/>
</a>
</g>
</g>
<!-- Node23 -->
<g id="Node000023" class="node">
<title>Node23</title>
<g id="a_Node000023"><a xlink:title=" ">
<polygon fill="#e0e0e0" stroke="#999999" points="1357.62,-141 1288.38,-141 1288.38,-121.75 1357.62,-121.75 1357.62,-141"/>
<text text-anchor="middle" x="1323" y="-127.5" font-family="Helvetica,sans-Serif" font-size="10.00">fmt/format.h</text>
</a>
</g>
</g>
<!-- Node21&#45;&gt;Node23 -->
<g id="edge34_Node000021_Node000023" class="edge">
<title>Node21&#45;&gt;Node23</title>
<g id="a_edge34_Node000021_Node000023"><a xlink:title=" ">
<path fill="none" stroke="#63b8ff" d="M1290.44,-176.83C1295.66,-169.71 1303.19,-159.43 1309.69,-150.55"/>
<polygon fill="#63b8ff" stroke="#63b8ff" points="1312.44,-152.72 1315.53,-142.58 1306.79,-148.58 1312.44,-152.72"/>
</a>
</g>
</g>
<!-- Node24&#45;&gt;Node2 -->
<g id="edge38_Node000024_Node000002" class="edge">
<title>Node24&#45;&gt;Node2</title>
<g id="a_edge38_Node000024_Node000002"><a xlink:title=" ">
<path fill="none" stroke="#63b8ff" d="M138.94,-121.26C152.55,-112.33 173.8,-98.26 192,-85.75 211.31,-72.48 214.35,-66.32 235,-55.25 262.46,-40.53 295.84,-28.22 319.73,-20.28"/>
<polygon fill="#63b8ff" stroke="#63b8ff" points="320.76,-23.63 329.19,-17.21 318.6,-16.97 320.76,-23.63"/>
</a>
</g>
</g>
<!-- Node24&#45;&gt;Node5 -->
<g id="edge39_Node000024_Node000005" class="edge">
<title>Node24&#45;&gt;Node5</title>
<g id="a_edge39_Node000024_Node000005"><a xlink:title=" ">
<path fill="none" stroke="#63b8ff" d="M161.79,-126.5C176.47,-124.98 193.53,-123.25 209,-121.75 405.71,-102.7 642.06,-81.87 727.85,-74.38"/>
<polygon fill="#63b8ff" stroke="#63b8ff" points="728,-77.88 737.66,-73.53 727.39,-70.91 728,-77.88"/>
</a>
</g>
</g>
<!-- Node25 -->
<g id="Node000025" class="node">
<title>Node25</title>
<g id="a_Node000025"><a xlink:title=" ">
<polygon fill="#e0e0e0" stroke="#999999" points="182.88,-80.12 127.12,-80.12 127.12,-60.88 182.88,-60.88 182.88,-80.12"/>
<text text-anchor="middle" x="155" y="-66.62" font-family="Helvetica,sans-Serif" font-size="10.00">algorithm</text>
</a>
</g>
</g>
<!-- Node24&#45;&gt;Node25 -->
<g id="edge37_Node000024_Node000025" class="edge">
<title>Node24&#45;&gt;Node25</title>
<g id="a_edge37_Node000024_Node000025"><a xlink:title=" ">
<path fill="none" stroke="#63b8ff" d="M129.56,-121.43C133.7,-113.31 139.95,-101.04 145.21,-90.7"/>
<polygon fill="#63b8ff" stroke="#63b8ff" points="148.29,-92.37 149.71,-81.87 142.05,-89.2 148.29,-92.37"/>
</a>
</g>
</g>
<!-- Node26 -->
<g id="Node000026" class="node">
<title>Node26</title>
<g id="a_Node000026"><a xlink:title=" ">
<polygon fill="#e0e0e0" stroke="#999999" points="109.5,-80.12 66.5,-80.12 66.5,-60.88 109.5,-60.88 109.5,-80.12"/>
<text text-anchor="middle" x="88" y="-66.62" font-family="Helvetica,sans-Serif" font-size="10.00">cmath</text>
</a>
</g>
</g>
<!-- Node24&#45;&gt;Node26 -->
<g id="edge40_Node000024_Node000026" class="edge">
<title>Node24&#45;&gt;Node26</title>
<g id="a_edge40_Node000024_Node000026"><a xlink:title=" ">
<path fill="none" stroke="#63b8ff" d="M119.38,-121.43C114.16,-113.13 106.24,-100.52 99.66,-90.05"/>
<polygon fill="#63b8ff" stroke="#63b8ff" points="102.76,-88.41 94.48,-81.81 96.84,-92.14 102.76,-88.41"/>
</a>
</g>
</g>
<!-- Node28&#45;&gt;Node11 -->
<g id="edge46_Node000028_Node000011" class="edge">
<title>Node28&#45;&gt;Node11</title>
<g id="a_edge46_Node000028_Node000011"><a xlink:title=" ">
<path fill="none" stroke="#63b8ff" d="M1446.92,-176.7C1459.21,-164.5 1477.54,-141.84 1469,-121.75 1452.34,-82.55 1437.18,-76.03 1400,-55.25 1354.27,-29.69 1293.57,-18.43 1257.57,-13.73"/>
<polygon fill="#63b8ff" stroke="#63b8ff" points="1258.21,-10.28 1247.86,-12.56 1257.37,-17.23 1258.21,-10.28"/>
</a>
</g>
</g>
<!-- Node29 -->
<g id="Node000029" class="node">
<title>Node29</title>
<g id="a_Node000029"><a xlink:title=" ">
<polygon fill="#e0e0e0" stroke="#999999" points="1459.62,-141 1414.38,-141 1414.38,-121.75 1459.62,-121.75 1459.62,-141"/>
<text text-anchor="middle" x="1437" y="-127.5" font-family="Helvetica,sans-Serif" font-size="10.00">cstdint</text>
</a>
</g>
</g>
<!-- Node28&#45;&gt;Node29 -->
<g id="edge47_Node000028_Node000029" class="edge">
<title>Node28&#45;&gt;Node29</title>
<g id="a_edge47_Node000028_Node000029"><a xlink:title=" ">
<path fill="none" stroke="#63b8ff" d="M1437,-176.83C1437,-170.32 1437,-161.17 1437,-152.87"/>
<polygon fill="#63b8ff" stroke="#63b8ff" points="1440.5,-152.87 1437,-142.87 1433.5,-152.87 1440.5,-152.87"/>
</a>
</g>
</g>
</g>
</svg>
