<?xml version="1.0" encoding="UTF-8" standalone="no"?>
<!DOCTYPE svg PUBLIC "-//W3C//DTD SVG 1.1//EN"
 "http://www.w3.org/Graphics/SVG/1.1/DTD/svg11.dtd">
<!-- Generated by graphviz version 12.1.1 (20240910.0053)
 -->
<!-- Title: /Users/fola/Documents/ArkScript/Ark/include/Ark/Compiler/Pass.hpp Pages: 1 -->
<!--zoomable 361 -->

<svg id="main" version="1.1" xmlns="http://www.w3.org/2000/svg" xmlns:xlink="http://www.w3.org/1999/xlink" xml:space="preserve" onload="init(evt)">

<style type="text/css"><![CDATA[
.node, .edge {opacity: 0.7;}
.node.selected, .edge.selected {opacity: 1;}
.edge:hover path { stroke: red; }
.edge:hover polygon { stroke: red; fill: red; }
]]></style>

<defs>
  <circle id="rim" cx="0" cy="0" r="7"/>
  <circle id="rim2" cx="0" cy="0" r="3.5"/>
  <g id="zoomPlus">
    <use xlink:href="#rim" fill="#404040"><set attributeName="fill" to="#808080" begin="zoomplus.mouseover" end="zoomplus.mouseout"/></use>
    <path d="M-4,0h8M0,-4v8" fill="none" stroke="white" stroke-width="1.5" pointer-events="none"/>
  </g>
  <g id="zoomMin">
    <use xlink:href="#rim" fill="#404040"><set attributeName="fill" to="#808080" begin="zoomminus.mouseover" end="zoomminus.mouseout"/></use>
    <path d="M-4,0h8" fill="none" stroke="white" stroke-width="1.5" pointer-events="none"/>
  </g>
  <g id="arrowUp" transform="translate(30 24)">
    <use xlink:href="#rim"/>
    <path pointer-events="none" fill="none" stroke="white" stroke-width="1.5" d="M0,-3.0v7 M-2.5,-0.5L0,-3.0L2.5,-0.5"/>
  </g>
  <g id="arrowRight" transform="rotate(90) translate(36 -43)">
    <use xlink:href="#rim"/>
    <path pointer-events="none" fill="none" stroke="white" stroke-width="1.5" d="M0,-3.0v7 M-2.5,-0.5L0,-3.0L2.5,-0.5"/>
  </g>
  <g id="arrowDown" transform="rotate(180) translate(-30 -48)">
    <use xlink:href="#rim"/>
    <path pointer-events="none" fill="none" stroke="white" stroke-width="1.5" d="M0,-3.0v7 M-2.5,-0.5L0,-3.0L2.5,-0.5"/>
  </g>
  <g id="arrowLeft" transform="rotate(270) translate(-36 17)">
    <use xlink:href="#rim"/>
    <path pointer-events="none" fill="none" stroke="white" stroke-width="1.5" d="M0,-3.0v7 M-2.5,-0.5L0,-3.0L2.5,-0.5"/>
  </g>
  <g id="resetDef">
    <use xlink:href="#rim2" fill="#404040"><set attributeName="fill" to="#808080" begin="reset.mouseover" end="reset.mouseout"/></use>
  </g>
</defs>
<script type="application/ecmascript">
var viewWidth = 1407;
var viewHeight = 361;
var sectionId = 'dynsection-1';
</script>
<script type="application/ecmascript" xlink:href="../../svg.min.js"/>
<svg id="graph" class="graph">
<g id="viewport">
<title>/Users/fola/Documents/ArkScript/Ark/include/Ark/Compiler/Pass.hpp</title>
<!-- Node1 -->
<g id="Node000001" class="node">
<title>Node1</title>
<g id="a_Node000001"><a xlink:title="Interface for a compiler pass (take in an AST, output an AST)">
<polygon fill="#999999" stroke="#666666" points="992.38,-352.75 872.12,-352.75 872.12,-311 992.38,-311 992.38,-352.75"/>
<text text-anchor="start" x="880.12" y="-339.25" font-family="Helvetica,sans-Serif" font-size="10.00">/Users/fola/Documents</text>
<text text-anchor="start" x="880.12" y="-328" font-family="Helvetica,sans-Serif" font-size="10.00">/ArkScript/Ark/include</text>
<text text-anchor="middle" x="932.25" y="-316.75" font-family="Helvetica,sans-Serif" font-size="10.00">/Ark/Compiler/Pass.hpp</text>
</a>
</g>
</g>
<!-- Node2 -->
<g id="Node000002" class="node">
<title>Node2</title>
<g id="a_Node000002"><a xlink:href="../../db/d93/Optimizer_8hpp.html" target="_top" xlink:title="Optimizes a given ArkScript AST.">
<polygon fill="white" stroke="#666666" points="818,-275 656.5,-275 656.5,-233.25 818,-233.25 818,-275"/>
<text text-anchor="start" x="664.5" y="-261.5" font-family="Helvetica,sans-Serif" font-size="10.00">/Users/fola/Documents</text>
<text text-anchor="start" x="664.5" y="-250.25" font-family="Helvetica,sans-Serif" font-size="10.00">/ArkScript/Ark/include</text>
<text text-anchor="middle" x="737.25" y="-239" font-family="Helvetica,sans-Serif" font-size="10.00">/Ark/Compiler/AST/Optimizer.hpp</text>
</a>
</g>
</g>
<!-- Node1&#45;&gt;Node2 -->
<g id="edge1_Node000001_Node000002" class="edge">
<title>Node1&#45;&gt;Node2</title>
<g id="a_edge1_Node000001_Node000002"><a xlink:title=" ">
<path fill="none" stroke="#63b8ff" d="M869.57,-306.53C843.79,-296.51 814.26,-285.04 789.65,-275.48"/>
<polygon fill="#63b8ff" stroke="#63b8ff" points="867.99,-309.67 878.58,-310.03 870.53,-303.14 867.99,-309.67"/>
</a>
</g>
</g>
<!-- Node10 -->
<g id="Node000010" class="node">
<title>Node10</title>
<g id="a_Node000010"><a xlink:href="../../de/db1/Processor_8hpp.html" target="_top" xlink:title="Handles the macros and their expansion in ArkScript source code.">
<polygon fill="white" stroke="#666666" points="553.5,-275 377,-275 377,-233.25 553.5,-233.25 553.5,-275"/>
<text text-anchor="start" x="385" y="-261.5" font-family="Helvetica,sans-Serif" font-size="10.00">/Users/fola/Documents</text>
<text text-anchor="start" x="385" y="-250.25" font-family="Helvetica,sans-Serif" font-size="10.00">/ArkScript/Ark/include</text>
<text text-anchor="middle" x="465.25" y="-239" font-family="Helvetica,sans-Serif" font-size="10.00">/Ark/Compiler/Macros/Processor.hpp</text>
</a>
</g>
</g>
<!-- Node1&#45;&gt;Node10 -->
<g id="edge10_Node000001_Node000010" class="edge">
<title>Node1&#45;&gt;Node10</title>
<g id="a_edge10_Node000001_Node000010"><a xlink:title=" ">
<path fill="none" stroke="#63b8ff" d="M860.4,-319.22C777.89,-305.84 642.52,-283.88 553.63,-269.46"/>
<polygon fill="#63b8ff" stroke="#63b8ff" points="859.75,-322.66 870.18,-320.81 860.87,-315.75 859.75,-322.66"/>
</a>
</g>
</g>
<!-- Node14 -->
<g id="Node000014" class="node">
<title>Node14</title>
<g id="a_Node000014"><a xlink:href="../../d4/de8/NameResolutionPass_8hpp.html" target="_top" xlink:title=" ">
<polygon fill="white" stroke="#666666" points="1028.75,-275 835.75,-275 835.75,-233.25 1028.75,-233.25 1028.75,-275"/>
<text text-anchor="start" x="843.75" y="-261.5" font-family="Helvetica,sans-Serif" font-size="10.00">/Users/fola/Documents</text>
<text text-anchor="start" x="843.75" y="-250.25" font-family="Helvetica,sans-Serif" font-size="10.00">/ArkScript/Ark/include</text>
<text text-anchor="middle" x="932.25" y="-239" font-family="Helvetica,sans-Serif" font-size="10.00">/Ark/Compiler/NameResolutionPass.hpp</text>
</a>
</g>
</g>
<!-- Node1&#45;&gt;Node14 -->
<g id="edge16_Node000001_Node000014" class="edge">
<title>Node1&#45;&gt;Node14</title>
<g id="a_edge16_Node000001_Node000014"><a xlink:title=" ">
<path fill="none" stroke="#63b8ff" d="M932.25,-299.25C932.25,-291.21 932.25,-282.79 932.25,-275.48"/>
<polygon fill="#63b8ff" stroke="#63b8ff" points="928.75,-299.06 932.25,-309.06 935.75,-299.06 928.75,-299.06"/>
</a>
</g>
</g>
<!-- Node16 -->
<g id="Node000016" class="node">
<title>Node16</title>
<g id="a_Node000016"><a xlink:href="../../d1/db0/ImportSolver_8hpp.html" target="_top" xlink:title="Handle imports, resolve them with modules and everything.">
<polygon fill="white" stroke="#666666" points="1240.12,-275 1046.38,-275 1046.38,-233.25 1240.12,-233.25 1240.12,-275"/>
<text text-anchor="start" x="1054.38" y="-261.5" font-family="Helvetica,sans-Serif" font-size="10.00">/Users/fola/Documents</text>
<text text-anchor="start" x="1054.38" y="-250.25" font-family="Helvetica,sans-Serif" font-size="10.00">/ArkScript/Ark/include</text>
<text text-anchor="middle" x="1143.25" y="-239" font-family="Helvetica,sans-Serif" font-size="10.00">/Ark/Compiler/Package/ImportSolver.hpp</text>
</a>
</g>
</g>
<!-- Node1&#45;&gt;Node16 -->
<g id="edge20_Node000001_Node000016" class="edge">
<title>Node1&#45;&gt;Node16</title>
<g id="a_edge20_Node000001_Node000016"><a xlink:title=" ">
<path fill="none" stroke="#63b8ff" d="M999.33,-306.79C1027.4,-296.71 1059.68,-285.13 1086.55,-275.48"/>
<polygon fill="#63b8ff" stroke="#63b8ff" points="998.45,-303.39 990.22,-310.06 1000.81,-309.98 998.45,-303.39"/>
</a>
</g>
</g>
<!-- Node18 -->
<g id="Node000018" class="node">
<title>Node18</title>
<g id="a_Node000018"><a xlink:href="../../d8/d54/Pass_8cpp.html" target="_top" xlink:title=" ">
<polygon fill="white" stroke="#666666" points="1398.5,-275 1258,-275 1258,-233.25 1398.5,-233.25 1398.5,-275"/>
<text text-anchor="start" x="1266" y="-261.5" font-family="Helvetica,sans-Serif" font-size="10.00">/Users/fola/Documents</text>
<text text-anchor="start" x="1266" y="-250.25" font-family="Helvetica,sans-Serif" font-size="10.00">/ArkScript/Ark/src/arkreactor</text>
<text text-anchor="middle" x="1328.25" y="-239" font-family="Helvetica,sans-Serif" font-size="10.00">/Compiler/Pass.cpp</text>
</a>
</g>
</g>
<!-- Node1&#45;&gt;Node18 -->
<g id="edge24_Node000001_Node000018" class="edge">
<title>Node1&#45;&gt;Node18</title>
<g id="a_edge24_Node000001_Node000018"><a xlink:title=" ">
<path fill="none" stroke="#63b8ff" d="M1003.92,-319.75C1068.36,-309.4 1165.47,-292.9 1249.25,-275 1252.02,-274.41 1254.83,-273.79 1257.67,-273.15"/>
<polygon fill="#63b8ff" stroke="#63b8ff" points="1003.5,-316.28 994.18,-321.31 1004.6,-323.19 1003.5,-316.28"/>
</a>
</g>
</g>
<!-- Node3 -->
<g id="Node000003" class="node">
<title>Node3</title>
<g id="a_Node000003"><a xlink:href="../../de/d8e/Welder_8hpp.html" target="_top" xlink:title="In charge of welding everything needed to compile code.">
<polygon fill="white" stroke="#666666" points="833.75,-197.25 706.75,-197.25 706.75,-155.5 833.75,-155.5 833.75,-197.25"/>
<text text-anchor="start" x="714.75" y="-183.75" font-family="Helvetica,sans-Serif" font-size="10.00">/Users/fola/Documents</text>
<text text-anchor="start" x="714.75" y="-172.5" font-family="Helvetica,sans-Serif" font-size="10.00">/ArkScript/Ark/include</text>
<text text-anchor="middle" x="770.25" y="-161.25" font-family="Helvetica,sans-Serif" font-size="10.00">/Ark/Compiler/Welder.hpp</text>
</a>
</g>
</g>
<!-- Node2&#45;&gt;Node3 -->
<g id="edge2_Node000002_Node000003" class="edge">
<title>Node2&#45;&gt;Node3</title>
<g id="a_edge2_Node000002_Node000003"><a xlink:title=" ">
<path fill="none" stroke="#63b8ff" d="M750.66,-222.34C754.27,-214.05 758.09,-205.29 761.38,-197.73"/>
<polygon fill="#63b8ff" stroke="#63b8ff" points="747.48,-220.87 746.7,-231.44 753.9,-223.67 747.48,-220.87"/>
</a>
</g>
</g>
<!-- Node7 -->
<g id="Node000007" class="node">
<title>Node7</title>
<g id="a_Node000007"><a xlink:href="../../d3/df1/Welder_8cpp.html" target="_top" xlink:title=" ">
<polygon fill="white" stroke="#666666" points="970.5,-119.5 830,-119.5 830,-77.75 970.5,-77.75 970.5,-119.5"/>
<text text-anchor="start" x="838" y="-106" font-family="Helvetica,sans-Serif" font-size="10.00">/Users/fola/Documents</text>
<text text-anchor="start" x="838" y="-94.75" font-family="Helvetica,sans-Serif" font-size="10.00">/ArkScript/Ark/src/arkreactor</text>
<text text-anchor="middle" x="900.25" y="-83.5" font-family="Helvetica,sans-Serif" font-size="10.00">/Compiler/Welder.cpp</text>
</a>
</g>
</g>
<!-- Node2&#45;&gt;Node7 -->
<g id="edge9_Node000002_Node000007" class="edge">
<title>Node2&#45;&gt;Node7</title>
<g id="a_edge9_Node000002_Node000007"><a xlink:title=" ">
<path fill="none" stroke="#63b8ff" d="M799.36,-227.74C814.85,-219.53 830.62,-209.35 843.25,-197.25 866.5,-174.99 883.35,-141.18 892.46,-119.76"/>
<polygon fill="#63b8ff" stroke="#63b8ff" points="797.96,-224.53 790.62,-232.17 801.12,-230.77 797.96,-224.53"/>
</a>
</g>
</g>
<!-- Node9 -->
<g id="Node000009" class="node">
<title>Node9</title>
<g id="a_Node000009"><a xlink:href="../../d2/dc5/Optimizer_8cpp.html" target="_top" xlink:title=" ">
<polygon fill="white" stroke="#666666" points="689,-197.25 545.5,-197.25 545.5,-155.5 689,-155.5 689,-197.25"/>
<text text-anchor="start" x="553.5" y="-183.75" font-family="Helvetica,sans-Serif" font-size="10.00">/Users/fola/Documents</text>
<text text-anchor="start" x="553.5" y="-172.5" font-family="Helvetica,sans-Serif" font-size="10.00">/ArkScript/Ark/src/arkreactor</text>
<text text-anchor="middle" x="617.25" y="-161.25" font-family="Helvetica,sans-Serif" font-size="10.00">/Compiler/AST/Optimizer.cpp</text>
</a>
</g>
</g>
<!-- Node2&#45;&gt;Node9 -->
<g id="edge8_Node000002_Node000009" class="edge">
<title>Node2&#45;&gt;Node9</title>
<g id="a_edge8_Node000002_Node000009"><a xlink:title=" ">
<path fill="none" stroke="#63b8ff" d="M695.48,-226.76C680.4,-217.24 663.63,-206.65 649.5,-197.73"/>
<polygon fill="#63b8ff" stroke="#63b8ff" points="693.49,-229.64 703.81,-232.02 697.22,-223.72 693.49,-229.64"/>
</a>
</g>
</g>
<!-- Node4 -->
<g id="Node000004" class="node">
<title>Node4</title>
<g id="a_Node000004"><a xlink:href="../../dc/dfd/JsonCompiler_8hpp.html" target="_top" xlink:title=" ">
<polygon fill="white" stroke="#666666" points="652.88,-119.5 535.62,-119.5 535.62,-77.75 652.88,-77.75 652.88,-119.5"/>
<text text-anchor="start" x="543.62" y="-106" font-family="Helvetica,sans-Serif" font-size="10.00">/Users/fola/Documents</text>
<text text-anchor="start" x="543.62" y="-94.75" font-family="Helvetica,sans-Serif" font-size="10.00">/ArkScript/Ark/include</text>
<text text-anchor="middle" x="594.25" y="-83.5" font-family="Helvetica,sans-Serif" font-size="10.00">/CLI/JsonCompiler.hpp</text>
</a>
</g>
</g>
<!-- Node3&#45;&gt;Node4 -->
<g id="edge3_Node000003_Node000004" class="edge">
<title>Node3&#45;&gt;Node4</title>
<g id="a_edge3_Node000003_Node000004"><a xlink:title=" ">
<path fill="none" stroke="#63b8ff" d="M712.75,-150.63C689.7,-140.7 663.46,-129.41 641.54,-119.98"/>
<polygon fill="#63b8ff" stroke="#63b8ff" points="711.13,-153.74 721.69,-154.48 713.89,-147.31 711.13,-153.74"/>
</a>
</g>
</g>
<!-- Node3&#45;&gt;Node7 -->
<g id="edge6_Node000003_Node000007" class="edge">
<title>Node3&#45;&gt;Node7</title>
<g id="a_edge6_Node000003_Node000007"><a xlink:title=" ">
<path fill="none" stroke="#63b8ff" d="M814.57,-149.55C831.14,-139.89 849.71,-129.07 865.32,-119.98"/>
<polygon fill="#63b8ff" stroke="#63b8ff" points="813.27,-146.25 806.4,-154.31 816.8,-152.3 813.27,-146.25"/>
</a>
</g>
</g>
<!-- Node8 -->
<g id="Node000008" class="node">
<title>Node8</title>
<g id="a_Node000008"><a xlink:href="../../d0/da0/State_8cpp.html" target="_top" xlink:title=" ">
<polygon fill="white" stroke="#666666" points="811.5,-119.5 671,-119.5 671,-77.75 811.5,-77.75 811.5,-119.5"/>
<text text-anchor="start" x="679" y="-106" font-family="Helvetica,sans-Serif" font-size="10.00">/Users/fola/Documents</text>
<text text-anchor="start" x="679" y="-94.75" font-family="Helvetica,sans-Serif" font-size="10.00">/ArkScript/Ark/src/arkreactor</text>
<text text-anchor="middle" x="741.25" y="-83.5" font-family="Helvetica,sans-Serif" font-size="10.00">/VM/State.cpp</text>
</a>
</g>
</g>
<!-- Node3&#45;&gt;Node8 -->
<g id="edge7_Node000003_Node000008" class="edge">
<title>Node3&#45;&gt;Node8</title>
<g id="a_edge7_Node000003_Node000008"><a xlink:title=" ">
<path fill="none" stroke="#63b8ff" d="M758.46,-144.59C755.29,-136.3 751.94,-127.54 749.04,-119.98"/>
<polygon fill="#63b8ff" stroke="#63b8ff" points="755.09,-145.57 761.94,-153.66 761.63,-143.07 755.09,-145.57"/>
</a>
</g>
</g>
<!-- Node5 -->
<g id="Node000005" class="node">
<title>Node5</title>
<g id="a_Node000005"><a xlink:href="../../db/d71/JsonCompiler_8cpp.html" target="_top" xlink:title=" ">
<polygon fill="white" stroke="#666666" points="585.5,-41.75 451,-41.75 451,0 585.5,0 585.5,-41.75"/>
<text text-anchor="start" x="459" y="-28.25" font-family="Helvetica,sans-Serif" font-size="10.00">/Users/fola/Documents</text>
<text text-anchor="start" x="459" y="-17" font-family="Helvetica,sans-Serif" font-size="10.00">/ArkScript/Ark/src/arkscript</text>
<text text-anchor="middle" x="518.25" y="-5.75" font-family="Helvetica,sans-Serif" font-size="10.00">/JsonCompiler.cpp</text>
</a>
</g>
</g>
<!-- Node4&#45;&gt;Node5 -->
<g id="edge4_Node000004_Node000005" class="edge">
<title>Node4&#45;&gt;Node5</title>
<g id="a_edge4_Node000004_Node000005"><a xlink:title=" ">
<path fill="none" stroke="#63b8ff" d="M565.87,-69.34C556.84,-60.34 547.03,-50.56 538.67,-42.23"/>
<polygon fill="#63b8ff" stroke="#63b8ff" points="563.26,-71.68 572.81,-76.26 568.2,-66.72 563.26,-71.68"/>
</a>
</g>
</g>
<!-- Node6 -->
<g id="Node000006" class="node">
<title>Node6</title>
<g id="a_Node000006"><a xlink:href="../../df/d0a/main_8cpp.html" target="_top" xlink:title=" ">
<polygon fill="white" stroke="#666666" points="738.5,-41.75 604,-41.75 604,0 738.5,0 738.5,-41.75"/>
<text text-anchor="start" x="612" y="-28.25" font-family="Helvetica,sans-Serif" font-size="10.00">/Users/fola/Documents</text>
<text text-anchor="start" x="612" y="-17" font-family="Helvetica,sans-Serif" font-size="10.00">/ArkScript/Ark/src/arkscript</text>
<text text-anchor="middle" x="671.25" y="-5.75" font-family="Helvetica,sans-Serif" font-size="10.00">/main.cpp</text>
</a>
</g>
</g>
<!-- Node4&#45;&gt;Node6 -->
<g id="edge5_Node000004_Node000006" class="edge">
<title>Node4&#45;&gt;Node6</title>
<g id="a_edge5_Node000004_Node000006"><a xlink:title=" ">
<path fill="none" stroke="#63b8ff" d="M623,-69.34C632.16,-60.34 642.09,-50.56 650.56,-42.23"/>
<polygon fill="#63b8ff" stroke="#63b8ff" points="620.64,-66.76 615.96,-76.26 625.55,-71.75 620.64,-66.76"/>
</a>
</g>
</g>
<!-- Node10&#45;&gt;Node3 -->
<g id="edge11_Node000010_Node000003" class="edge">
<title>Node10&#45;&gt;Node3</title>
<g id="a_edge11_Node000010_Node000003"><a xlink:title=" ">
<path fill="none" stroke="#63b8ff" d="M564.06,-230.21C605.58,-220.38 654.34,-208.57 698.25,-197.25 700.89,-196.57 703.58,-195.87 706.29,-195.15"/>
<polygon fill="#63b8ff" stroke="#63b8ff" points="563.51,-226.75 554.58,-232.45 565.12,-233.56 563.51,-226.75"/>
</a>
</g>
</g>
<!-- Node10&#45;&gt;Node7 -->
<g id="edge15_Node000010_Node000007" class="edge">
<title>Node10&#45;&gt;Node7</title>
<g id="a_edge15_Node000010_Node000007"><a xlink:title=" ">
<path fill="none" stroke="#63b8ff" d="M483.31,-223.14C499.34,-197.59 522.32,-163.74 536.25,-155.5 645.77,-90.74 695.18,-142.88 820.25,-119.5 823.34,-118.92 826.5,-118.3 829.68,-117.63"/>
<polygon fill="#63b8ff" stroke="#63b8ff" points="480.42,-221.16 478.13,-231.51 486.37,-224.85 480.42,-221.16"/>
</a>
</g>
</g>
<!-- Node11 -->
<g id="Node000011" class="node">
<title>Node11</title>
<g id="a_Node000011"><a xlink:href="../../de/dfa/Compiler_8cpp.html" target="_top" xlink:title=" ">
<polygon fill="white" stroke="#666666" points="317.5,-197.25 177,-197.25 177,-155.5 317.5,-155.5 317.5,-197.25"/>
<text text-anchor="start" x="185" y="-183.75" font-family="Helvetica,sans-Serif" font-size="10.00">/Users/fola/Documents</text>
<text text-anchor="start" x="185" y="-172.5" font-family="Helvetica,sans-Serif" font-size="10.00">/ArkScript/Ark/src/arkreactor</text>
<text text-anchor="middle" x="247.25" y="-161.25" font-family="Helvetica,sans-Serif" font-size="10.00">/Compiler/Compiler.cpp</text>
</a>
</g>
</g>
<!-- Node10&#45;&gt;Node11 -->
<g id="edge12_Node000010_Node000011" class="edge">
<title>Node10&#45;&gt;Node11</title>
<g id="a_edge12_Node000010_Node000011"><a xlink:title=" ">
<path fill="none" stroke="#63b8ff" d="M396.33,-229.18C367.23,-219.07 333.71,-207.42 305.83,-197.73"/>
<polygon fill="#63b8ff" stroke="#63b8ff" points="394.81,-232.35 405.4,-232.33 397.1,-225.74 394.81,-232.35"/>
</a>
</g>
</g>
<!-- Node12 -->
<g id="Node000012" class="node">
<title>Node12</title>
<g id="a_Node000012"><a xlink:href="../../d1/da9/Executor_8cpp.html" target="_top" xlink:title=" ">
<polygon fill="white" stroke="#666666" points="488.88,-197.25 335.62,-197.25 335.62,-155.5 488.88,-155.5 488.88,-197.25"/>
<text text-anchor="start" x="343.62" y="-183.75" font-family="Helvetica,sans-Serif" font-size="10.00">/Users/fola/Documents</text>
<text text-anchor="start" x="343.62" y="-172.5" font-family="Helvetica,sans-Serif" font-size="10.00">/ArkScript/Ark/src/arkreactor</text>
<text text-anchor="middle" x="412.25" y="-161.25" font-family="Helvetica,sans-Serif" font-size="10.00">/Compiler/Macros/Executor.cpp</text>
</a>
</g>
</g>
<!-- Node10&#45;&gt;Node12 -->
<g id="edge13_Node000010_Node000012" class="edge">
<title>Node10&#45;&gt;Node12</title>
<g id="a_edge13_Node000010_Node000012"><a xlink:title=" ">
<path fill="none" stroke="#63b8ff" d="M444.49,-223.45C438.46,-214.84 432.02,-205.63 426.49,-197.73"/>
<polygon fill="#63b8ff" stroke="#63b8ff" points="441.58,-225.4 450.18,-231.59 447.31,-221.39 441.58,-225.4"/>
</a>
</g>
</g>
<!-- Node13 -->
<g id="Node000013" class="node">
<title>Node13</title>
<g id="a_Node000013"><a xlink:href="../../d6/d69/Processor_8cpp.html" target="_top" xlink:title=" ">
<polygon fill="white" stroke="#666666" points="158.5,-197.25 0,-197.25 0,-155.5 158.5,-155.5 158.5,-197.25"/>
<text text-anchor="start" x="8" y="-183.75" font-family="Helvetica,sans-Serif" font-size="10.00">/Users/fola/Documents</text>
<text text-anchor="start" x="8" y="-172.5" font-family="Helvetica,sans-Serif" font-size="10.00">/ArkScript/Ark/src/arkreactor</text>
<text text-anchor="middle" x="79.25" y="-161.25" font-family="Helvetica,sans-Serif" font-size="10.00">/Compiler/Macros/Processor.cpp</text>
</a>
</g>
</g>
<!-- Node10&#45;&gt;Node13 -->
<g id="edge14_Node000010_Node000013" class="edge">
<title>Node10&#45;&gt;Node13</title>
<g id="a_edge14_Node000010_Node000013"><a xlink:title=" ">
<path fill="none" stroke="#63b8ff" d="M365.41,-235.21C307.7,-224.64 233.77,-210.73 168.25,-197.25 165.15,-196.61 161.99,-195.95 158.8,-195.28"/>
<polygon fill="#63b8ff" stroke="#63b8ff" points="364.77,-238.65 375.24,-237.01 366.03,-231.77 364.77,-238.65"/>
</a>
</g>
</g>
<!-- Node14&#45;&gt;Node3 -->
<g id="edge17_Node000014_Node000003" class="edge">
<title>Node14&#45;&gt;Node3</title>
<g id="a_edge17_Node000014_Node000003"><a xlink:title=" ">
<path fill="none" stroke="#63b8ff" d="M878.46,-227.97C857.45,-218.15 833.68,-207.04 813.78,-197.73"/>
<polygon fill="#63b8ff" stroke="#63b8ff" points="876.92,-231.12 887.47,-232.18 879.89,-224.78 876.92,-231.12"/>
</a>
</g>
</g>
<!-- Node14&#45;&gt;Node7 -->
<g id="edge19_Node000014_Node000007" class="edge">
<title>Node14&#45;&gt;Node7</title>
<g id="a_edge19_Node000014_Node000007"><a xlink:title=" ">
<path fill="none" stroke="#63b8ff" d="M925.47,-221.8C923.75,-213.8 921.92,-205.21 920.25,-197.25 914.64,-170.5 908.33,-139.58 904.33,-119.83"/>
<polygon fill="#63b8ff" stroke="#63b8ff" points="922.03,-222.44 927.55,-231.48 928.87,-220.97 922.03,-222.44"/>
</a>
</g>
</g>
<!-- Node15 -->
<g id="Node000015" class="node">
<title>Node15</title>
<g id="a_Node000015"><a xlink:href="../../de/dd7/NameResolutionPass_8cpp.html" target="_top" xlink:title=" ">
<polygon fill="white" stroke="#666666" points="1103.75,-197.25 928.75,-197.25 928.75,-155.5 1103.75,-155.5 1103.75,-197.25"/>
<text text-anchor="start" x="936.75" y="-183.75" font-family="Helvetica,sans-Serif" font-size="10.00">/Users/fola/Documents</text>
<text text-anchor="start" x="936.75" y="-172.5" font-family="Helvetica,sans-Serif" font-size="10.00">/ArkScript/Ark/src/arkreactor</text>
<text text-anchor="middle" x="1016.25" y="-161.25" font-family="Helvetica,sans-Serif" font-size="10.00">/Compiler/NameResolutionPass.cpp</text>
</a>
</g>
</g>
<!-- Node14&#45;&gt;Node15 -->
<g id="edge18_Node000014_Node000015" class="edge">
<title>Node14&#45;&gt;Node15</title>
<g id="a_edge18_Node000014_Node000015"><a xlink:title=" ">
<path fill="none" stroke="#63b8ff" d="M963.01,-225.39C973.16,-216.23 984.25,-206.23 993.68,-197.73"/>
<polygon fill="#63b8ff" stroke="#63b8ff" points="960.97,-222.52 955.88,-231.81 965.65,-227.71 960.97,-222.52"/>
</a>
</g>
</g>
<!-- Node16&#45;&gt;Node3 -->
<g id="edge21_Node000016_Node000003" class="edge">
<title>Node16&#45;&gt;Node3</title>
<g id="a_edge21_Node000016_Node000003"><a xlink:title=" ">
<path fill="none" stroke="#63b8ff" d="M1035.07,-231.16C969.87,-217.91 889.07,-201.5 833.98,-190.32"/>
<polygon fill="#63b8ff" stroke="#63b8ff" points="1034.24,-234.56 1044.74,-233.12 1035.64,-227.7 1034.24,-234.56"/>
</a>
</g>
</g>
<!-- Node16&#45;&gt;Node7 -->
<g id="edge23_Node000016_Node000007" class="edge">
<title>Node16&#45;&gt;Node7</title>
<g id="a_edge23_Node000016_Node000007"><a xlink:title=" ">
<path fill="none" stroke="#63b8ff" d="M1241.99,-229.54C1271.15,-220.45 1297.62,-209.34 1306.25,-197.25 1317.04,-182.15 1318.44,-169.49 1306.25,-155.5 1263.59,-106.56 1075.42,-99 970.88,-98.7"/>
<polygon fill="#63b8ff" stroke="#63b8ff" points="1241.18,-226.13 1232.61,-232.35 1243.19,-232.83 1241.18,-226.13"/>
</a>
</g>
</g>
<!-- Node17 -->
<g id="Node000017" class="node">
<title>Node17</title>
<g id="a_Node000017"><a xlink:href="../../d6/d41/ImportSolver_8cpp.html" target="_top" xlink:title=" ">
<polygon fill="white" stroke="#666666" points="1297.12,-197.25 1121.38,-197.25 1121.38,-155.5 1297.12,-155.5 1297.12,-197.25"/>
<text text-anchor="start" x="1129.38" y="-183.75" font-family="Helvetica,sans-Serif" font-size="10.00">/Users/fola/Documents</text>
<text text-anchor="start" x="1129.38" y="-172.5" font-family="Helvetica,sans-Serif" font-size="10.00">/ArkScript/Ark/src/arkreactor</text>
<text text-anchor="middle" x="1209.25" y="-161.25" font-family="Helvetica,sans-Serif" font-size="10.00">/Compiler/Package/ImportSolver.cpp</text>
</a>
</g>
</g>
<!-- Node16&#45;&gt;Node17 -->
<g id="edge22_Node000016_Node000017" class="edge">
<title>Node16&#45;&gt;Node17</title>
<g id="a_edge22_Node000016_Node000017"><a xlink:title=" ">
<path fill="none" stroke="#63b8ff" d="M1168.38,-224.29C1176.09,-215.44 1184.41,-205.89 1191.51,-197.73"/>
<polygon fill="#63b8ff" stroke="#63b8ff" points="1165.86,-221.85 1161.93,-231.68 1171.14,-226.44 1165.86,-221.85"/>
</a>
</g>
</g>
</g>
</svg>

<g id="navigator" transform="translate(0 0)" fill="#404254">
  <rect fill="#f2f5e9" fill-opacity="0.5" stroke="#606060" stroke-width=".5" x="0" y="0" width="60" height="60"/>
  <use id="zoomplus" xlink:href="#zoomPlus" x="17" y="9" onmousedown="handleZoom(evt,'in')"/>
  <use id="zoomminus" xlink:href="#zoomMin" x="42" y="9" onmousedown="handleZoom(evt,'out')"/>
  <use id="reset" xlink:href="#resetDef" x="30" y="36" onmousedown="handleReset()"/>
   <use id="arrowup" xlink:href="#arrowUp" x="0" y="0" onmousedown="handlePan(0,-1)"/>
  <use id="arrowright" xlink:href="#arrowRight" x="0" y="0" onmousedown="handlePan(1,0)"/>
  <use id="arrowdown" xlink:href="#arrowDown" x="0" y="0" onmousedown="handlePan(0,1)"/>
  <use id="arrowleft" xlink:href="#arrowLeft" x="0" y="0" onmousedown="handlePan(-1,0)"/>
</g>
<svg viewBox="0 0 15 15" width="100%" height="30px" preserveAspectRatio="xMaxYMin meet">
 <g id="arrow_out" transform="scale(0.3 0.3)">
  <a xlink:href="Pass_8hpp__dep__incl_org.svg" target="_base">
   <rect id="button" ry="5" rx="5" y="6" x="6" height="38" width="38"
        fill="#f2f5e9" fill-opacity="0.5" stroke="#606060" stroke-width="1.0"/>
   <path id="arrow"
     d="M 11.500037,31.436501 C 11.940474,20.09759 22.043105,11.32322 32.158766,21.979434 L 37.068811,17.246167 C 37.068811,17.246167 37.088388,32 37.088388,32 L 22.160133,31.978069 C 22.160133,31.978069 26.997745,27.140456 26.997745,27.140456 C 18.528582,18.264221 13.291696,25.230495 11.500037,31.436501 z"
     style="fill:#404040;"/>
  </a>
 </g>
</svg>

<style type='text/css'>
<![CDATA[
[data-mouse-over-selected='false'] { opacity: 0.7; }
[data-mouse-over-selected='true']  { opacity: 1.0; }
]]>
</style>
<script type="application/ecmascript"><![CDATA[
document.addEventListener('DOMContentLoaded', (event) => {
  highlightEdges();
  highlightAdjacentNodes();
});
]]></script>
</svg>
