<?xml version="1.0" encoding="UTF-8" standalone="no"?>
<!DOCTYPE svg PUBLIC "-//W3C//DTD SVG 1.1//EN"
 "http://www.w3.org/Graphics/SVG/1.1/DTD/svg11.dtd">
<!-- Generated by graphviz version 12.2.0 (20241103.1931)
 -->
<!-- Title: /Users/fola/Documents/ArkScript/Ark/include/Ark/Compiler/Pass.hpp Pages: 1 -->
<svg width="1219pt" height="383pt"
 viewBox="0.00 0.00 1218.62 383.25" xmlns="http://www.w3.org/2000/svg" xmlns:xlink="http://www.w3.org/1999/xlink">
<g id="graph0" class="graph" transform="scale(1 1) rotate(0) translate(4 379.25)">
<title>/Users/fola/Documents/ArkScript/Ark/include/Ark/Compiler/Pass.hpp</title>
<!-- Node1 -->
<g id="Node000001" class="node">
<title>Node1</title>
<g id="a_Node000001"><a xlink:title="Interface for a compiler pass (take in an AST, output an AST)">
<polygon fill="#999999" stroke="#666666" points="732.88,-375.25 612.62,-375.25 612.62,-333.5 732.88,-333.5 732.88,-375.25"/>
<text text-anchor="start" x="620.62" y="-361.75" font-family="Helvetica,sans-Serif" font-size="10.00">/Users/fola/Documents</text>
<text text-anchor="start" x="620.62" y="-350.5" font-family="Helvetica,sans-Serif" font-size="10.00">/ArkScript/Ark/include</text>
<text text-anchor="middle" x="672.75" y="-339.25" font-family="Helvetica,sans-Serif" font-size="10.00">/Ark/Compiler/Pass.hpp</text>
</a>
</g>
</g>
<!-- Node2 -->
<g id="Node000002" class="node">
<title>Node2</title>
<g id="a_Node000002"><a xlink:href="../../db/d93/Optimizer_8hpp.html" target="_top" xlink:title="Optimizes a given ArkScript AST.">
<polygon fill="white" stroke="#666666" points="324.5,-291.88 163,-291.88 163,-250.12 324.5,-250.12 324.5,-291.88"/>
<text text-anchor="start" x="171" y="-278.38" font-family="Helvetica,sans-Serif" font-size="10.00">/Users/fola/Documents</text>
<text text-anchor="start" x="171" y="-267.12" font-family="Helvetica,sans-Serif" font-size="10.00">/ArkScript/Ark/include</text>
<text text-anchor="middle" x="243.75" y="-255.88" font-family="Helvetica,sans-Serif" font-size="10.00">/Ark/Compiler/AST/Optimizer.hpp</text>
</a>
</g>
</g>
<!-- Node1&#45;&gt;Node2 -->
<g id="edge1_Node000001_Node000002" class="edge">
<title>Node1&#45;&gt;Node2</title>
<g id="a_edge1_Node000001_Node000002"><a xlink:title=" ">
<path fill="none" stroke="#63b8ff" d="M601.28,-339.82C525.07,-325.36 404.59,-302.51 324.87,-287.39"/>
<polygon fill="#63b8ff" stroke="#63b8ff" points="600.23,-343.18 610.71,-341.61 601.54,-336.3 600.23,-343.18"/>
</a>
</g>
</g>
<!-- Node12 -->
<g id="Node000012" class="node">
<title>Node12</title>
<g id="a_Node000012"><a xlink:href="../../de/db1/Processor_8hpp.html" target="_top" xlink:title="Handles the macros and their expansion in ArkScript source code.">
<polygon fill="white" stroke="#666666" points="761,-291.88 584.5,-291.88 584.5,-250.12 761,-250.12 761,-291.88"/>
<text text-anchor="start" x="592.5" y="-278.38" font-family="Helvetica,sans-Serif" font-size="10.00">/Users/fola/Documents</text>
<text text-anchor="start" x="592.5" y="-267.12" font-family="Helvetica,sans-Serif" font-size="10.00">/ArkScript/Ark/include</text>
<text text-anchor="middle" x="672.75" y="-255.88" font-family="Helvetica,sans-Serif" font-size="10.00">/Ark/Compiler/Macros/Processor.hpp</text>
</a>
</g>
</g>
<!-- Node1&#45;&gt;Node12 -->
<g id="edge12_Node000001_Node000012" class="edge">
<title>Node1&#45;&gt;Node12</title>
<g id="a_edge12_Node000001_Node000012"><a xlink:title=" ">
<path fill="none" stroke="#63b8ff" d="M672.75,-322.02C672.75,-311.99 672.75,-301.17 672.75,-292.17"/>
<polygon fill="#63b8ff" stroke="#63b8ff" points="669.25,-321.75 672.75,-331.75 676.25,-321.75 669.25,-321.75"/>
</a>
</g>
</g>
<!-- Node15 -->
<g id="Node000015" class="node">
<title>Node15</title>
<g id="a_Node000015"><a xlink:href="../../d4/de8/NameResolutionPass_8hpp.html" target="_top" xlink:title="Resolves names and fully qualify them in the AST (prefixing them with the package they are from)">
<polygon fill="white" stroke="#666666" points="566.62,-297.5 414.88,-297.5 414.88,-244.5 566.62,-244.5 566.62,-297.5"/>
<text text-anchor="start" x="422.88" y="-284" font-family="Helvetica,sans-Serif" font-size="10.00">/Users/fola/Documents</text>
<text text-anchor="start" x="422.88" y="-272.75" font-family="Helvetica,sans-Serif" font-size="10.00">/ArkScript/Ark/include</text>
<text text-anchor="start" x="422.88" y="-261.5" font-family="Helvetica,sans-Serif" font-size="10.00">/Ark/Compiler/NameResolution</text>
<text text-anchor="middle" x="490.75" y="-250.25" font-family="Helvetica,sans-Serif" font-size="10.00">/NameResolutionPass.hpp</text>
</a>
</g>
</g>
<!-- Node1&#45;&gt;Node15 -->
<g id="edge17_Node000001_Node000015" class="edge">
<title>Node1&#45;&gt;Node15</title>
<g id="a_edge17_Node000001_Node000015"><a xlink:title=" ">
<path fill="none" stroke="#63b8ff" d="M616.95,-328.43C595.31,-318.75 570.53,-307.67 548.69,-297.91"/>
<polygon fill="#63b8ff" stroke="#63b8ff" points="615.35,-331.55 625.91,-332.43 618.21,-325.16 615.35,-331.55"/>
</a>
</g>
</g>
<!-- Node17 -->
<g id="Node000017" class="node">
<title>Node17</title>
<g id="a_Node000017"><a xlink:href="../../d1/db0/ImportSolver_8hpp.html" target="_top" xlink:title="Handle imports, resolve them with modules and everything.">
<polygon fill="white" stroke="#666666" points="972.62,-291.88 778.88,-291.88 778.88,-250.12 972.62,-250.12 972.62,-291.88"/>
<text text-anchor="start" x="786.88" y="-278.38" font-family="Helvetica,sans-Serif" font-size="10.00">/Users/fola/Documents</text>
<text text-anchor="start" x="786.88" y="-267.12" font-family="Helvetica,sans-Serif" font-size="10.00">/ArkScript/Ark/include</text>
<text text-anchor="middle" x="875.75" y="-255.88" font-family="Helvetica,sans-Serif" font-size="10.00">/Ark/Compiler/Package/ImportSolver.hpp</text>
</a>
</g>
</g>
<!-- Node1&#45;&gt;Node17 -->
<g id="edge21_Node000001_Node000017" class="edge">
<title>Node1&#45;&gt;Node17</title>
<g id="a_edge21_Node000001_Node000017"><a xlink:title=" ">
<path fill="none" stroke="#63b8ff" d="M733.91,-328.86C763,-317.2 797.37,-303.42 824.99,-292.35"/>
<polygon fill="#63b8ff" stroke="#63b8ff" points="732.84,-325.52 724.86,-332.49 735.44,-332.02 732.84,-325.52"/>
</a>
</g>
</g>
<!-- Node19 -->
<g id="Node000019" class="node">
<title>Node19</title>
<g id="a_Node000019"><a xlink:href="../../d8/d54/Pass_8cpp.html" target="_top" xlink:title=" ">
<polygon fill="white" stroke="#666666" points="1131,-291.88 990.5,-291.88 990.5,-250.12 1131,-250.12 1131,-291.88"/>
<text text-anchor="start" x="998.5" y="-278.38" font-family="Helvetica,sans-Serif" font-size="10.00">/Users/fola/Documents</text>
<text text-anchor="start" x="998.5" y="-267.12" font-family="Helvetica,sans-Serif" font-size="10.00">/ArkScript/Ark/src/arkreactor</text>
<text text-anchor="middle" x="1060.75" y="-255.88" font-family="Helvetica,sans-Serif" font-size="10.00">/Compiler/Pass.cpp</text>
</a>
</g>
</g>
<!-- Node1&#45;&gt;Node19 -->
<g id="edge25_Node000001_Node000019" class="edge">
<title>Node1&#45;&gt;Node19</title>
<g id="a_edge25_Node000001_Node000019"><a xlink:title=" ">
<path fill="none" stroke="#63b8ff" d="M744.36,-343.2C807.36,-333.59 901.31,-317.66 981.75,-297.5 987.9,-295.96 994.27,-294.19 1000.6,-292.33"/>
<polygon fill="#63b8ff" stroke="#63b8ff" points="744.22,-339.68 734.86,-344.63 745.27,-346.6 744.22,-339.68"/>
</a>
</g>
</g>
<!-- Node3 -->
<g id="Node000003" class="node">
<title>Node3</title>
<g id="a_Node000003"><a xlink:href="../../de/d8e/Welder_8hpp.html" target="_top" xlink:title="In charge of welding everything needed to compile code.">
<polygon fill="white" stroke="#666666" points="554.25,-202.88 427.25,-202.88 427.25,-161.12 554.25,-161.12 554.25,-202.88"/>
<text text-anchor="start" x="435.25" y="-189.38" font-family="Helvetica,sans-Serif" font-size="10.00">/Users/fola/Documents</text>
<text text-anchor="start" x="435.25" y="-178.12" font-family="Helvetica,sans-Serif" font-size="10.00">/ArkScript/Ark/include</text>
<text text-anchor="middle" x="490.75" y="-166.88" font-family="Helvetica,sans-Serif" font-size="10.00">/Ark/Compiler/Welder.hpp</text>
</a>
</g>
</g>
<!-- Node2&#45;&gt;Node3 -->
<g id="edge2_Node000002_Node000003" class="edge">
<title>Node2&#45;&gt;Node3</title>
<g id="a_edge2_Node000002_Node000003"><a xlink:title=" ">
<path fill="none" stroke="#63b8ff" d="M312.37,-245.93C344.66,-234.59 383.69,-220.87 418.75,-208.5 423.5,-206.82 428.43,-205.08 433.38,-203.33"/>
<polygon fill="#63b8ff" stroke="#63b8ff" points="311.4,-242.56 303.13,-249.17 313.72,-249.16 311.4,-242.56"/>
</a>
</g>
</g>
<!-- Node9 -->
<g id="Node000009" class="node">
<title>Node9</title>
<g id="a_Node000009"><a xlink:href="../../d3/df1/Welder_8cpp.html" target="_top" xlink:title=" ">
<polygon fill="white" stroke="#666666" points="705,-119.5 564.5,-119.5 564.5,-77.75 705,-77.75 705,-119.5"/>
<text text-anchor="start" x="572.5" y="-106" font-family="Helvetica,sans-Serif" font-size="10.00">/Users/fola/Documents</text>
<text text-anchor="start" x="572.5" y="-94.75" font-family="Helvetica,sans-Serif" font-size="10.00">/ArkScript/Ark/src/arkreactor</text>
<text text-anchor="middle" x="634.75" y="-83.5" font-family="Helvetica,sans-Serif" font-size="10.00">/Compiler/Welder.cpp</text>
</a>
</g>
</g>
<!-- Node2&#45;&gt;Node9 -->
<g id="edge11_Node000002_Node000009" class="edge">
<title>Node2&#45;&gt;Node9</title>
<g id="a_edge11_Node000002_Node000009"><a xlink:title=" ">
<path fill="none" stroke="#63b8ff" d="M213.97,-241.35C191.56,-216.37 168.25,-180.33 190.75,-155.5 245.32,-95.26 474.65,-133.34 554.75,-119.5 557.85,-118.96 561.01,-118.37 564.2,-117.74"/>
<polygon fill="#63b8ff" stroke="#63b8ff" points="211.36,-243.68 220.75,-248.59 216.47,-238.9 211.36,-243.68"/>
</a>
</g>
</g>
<!-- Node11 -->
<g id="Node000011" class="node">
<title>Node11</title>
<g id="a_Node000011"><a xlink:href="../../d2/dc5/Optimizer_8cpp.html" target="_top" xlink:title=" ">
<polygon fill="white" stroke="#666666" points="143.5,-202.88 0,-202.88 0,-161.12 143.5,-161.12 143.5,-202.88"/>
<text text-anchor="start" x="8" y="-189.38" font-family="Helvetica,sans-Serif" font-size="10.00">/Users/fola/Documents</text>
<text text-anchor="start" x="8" y="-178.12" font-family="Helvetica,sans-Serif" font-size="10.00">/ArkScript/Ark/src/arkreactor</text>
<text text-anchor="middle" x="71.75" y="-166.88" font-family="Helvetica,sans-Serif" font-size="10.00">/Compiler/AST/Optimizer.cpp</text>
</a>
</g>
</g>
<!-- Node2&#45;&gt;Node11 -->
<g id="edge10_Node000002_Node000011" class="edge">
<title>Node2&#45;&gt;Node11</title>
<g id="a_edge10_Node000002_Node000011"><a xlink:title=" ">
<path fill="none" stroke="#63b8ff" d="M193.82,-244.74C167.82,-231.59 136.45,-215.73 112.02,-203.37"/>
<polygon fill="#63b8ff" stroke="#63b8ff" points="192,-247.75 202.51,-249.14 195.16,-241.5 192,-247.75"/>
</a>
</g>
</g>
<!-- Node4 -->
<g id="Node000004" class="node">
<title>Node4</title>
<g id="a_Node000004"><a xlink:href="../../d3/d7e/Ark_8hpp.html" target="_top" xlink:title="Includes the needed files to start using ArkScript.">
<polygon fill="white" stroke="#666666" points="242.38,-119.5 125.12,-119.5 125.12,-77.75 242.38,-77.75 242.38,-119.5"/>
<text text-anchor="start" x="133.12" y="-106" font-family="Helvetica,sans-Serif" font-size="10.00">/Users/fola/Documents</text>
<text text-anchor="start" x="133.12" y="-94.75" font-family="Helvetica,sans-Serif" font-size="10.00">/ArkScript/Ark/include</text>
<text text-anchor="middle" x="183.75" y="-83.5" font-family="Helvetica,sans-Serif" font-size="10.00">/Ark/Ark.hpp</text>
</a>
</g>
</g>
<!-- Node3&#45;&gt;Node4 -->
<g id="edge3_Node000003_Node000004" class="edge">
<title>Node3&#45;&gt;Node4</title>
<g id="a_edge3_Node000003_Node000004"><a xlink:title=" ">
<path fill="none" stroke="#63b8ff" d="M424.72,-157.28C422.71,-156.67 420.72,-156.07 418.75,-155.5 349.58,-135.44 330.74,-136.5 260.75,-119.5 254.85,-118.07 248.7,-116.54 242.56,-114.99"/>
<polygon fill="#63b8ff" stroke="#63b8ff" points="423.5,-160.57 434.09,-160.26 425.62,-153.89 423.5,-160.57"/>
</a>
</g>
</g>
<!-- Node6 -->
<g id="Node000006" class="node">
<title>Node6</title>
<g id="a_Node000006"><a xlink:href="../../dc/dfd/JsonCompiler_8hpp.html" target="_top" xlink:title=" ">
<polygon fill="white" stroke="#666666" points="387.38,-119.5 270.12,-119.5 270.12,-77.75 387.38,-77.75 387.38,-119.5"/>
<text text-anchor="start" x="278.12" y="-106" font-family="Helvetica,sans-Serif" font-size="10.00">/Users/fola/Documents</text>
<text text-anchor="start" x="278.12" y="-94.75" font-family="Helvetica,sans-Serif" font-size="10.00">/ArkScript/Ark/include</text>
<text text-anchor="middle" x="328.75" y="-83.5" font-family="Helvetica,sans-Serif" font-size="10.00">/CLI/JsonCompiler.hpp</text>
</a>
</g>
</g>
<!-- Node3&#45;&gt;Node6 -->
<g id="edge5_Node000003_Node000006" class="edge">
<title>Node3&#45;&gt;Node6</title>
<g id="a_edge5_Node000003_Node000006"><a xlink:title=" ">
<path fill="none" stroke="#63b8ff" d="M440.1,-155.56C417.29,-144.1 390.72,-130.75 369.26,-119.97"/>
<polygon fill="#63b8ff" stroke="#63b8ff" points="438.43,-158.64 448.94,-160 441.57,-152.38 438.43,-158.64"/>
</a>
</g>
</g>
<!-- Node3&#45;&gt;Node9 -->
<g id="edge8_Node000003_Node000009" class="edge">
<title>Node3&#45;&gt;Node9</title>
<g id="a_edge8_Node000003_Node000009"><a xlink:title=" ">
<path fill="none" stroke="#63b8ff" d="M536.59,-155.09C556.69,-143.74 579.92,-130.61 598.74,-119.97"/>
<polygon fill="#63b8ff" stroke="#63b8ff" points="535.02,-151.96 528.03,-159.93 538.46,-158.06 535.02,-151.96"/>
</a>
</g>
</g>
<!-- Node10 -->
<g id="Node000010" class="node">
<title>Node10</title>
<g id="a_Node000010"><a xlink:href="../../d0/da0/State_8cpp.html" target="_top" xlink:title=" ">
<polygon fill="white" stroke="#666666" points="546,-119.5 405.5,-119.5 405.5,-77.75 546,-77.75 546,-119.5"/>
<text text-anchor="start" x="413.5" y="-106" font-family="Helvetica,sans-Serif" font-size="10.00">/Users/fola/Documents</text>
<text text-anchor="start" x="413.5" y="-94.75" font-family="Helvetica,sans-Serif" font-size="10.00">/ArkScript/Ark/src/arkreactor</text>
<text text-anchor="middle" x="475.75" y="-83.5" font-family="Helvetica,sans-Serif" font-size="10.00">/VM/State.cpp</text>
</a>
</g>
</g>
<!-- Node3&#45;&gt;Node10 -->
<g id="edge9_Node000003_Node000010" class="edge">
<title>Node3&#45;&gt;Node10</title>
<g id="a_edge9_Node000003_Node000010"><a xlink:title=" ">
<path fill="none" stroke="#63b8ff" d="M484.97,-149.64C483.12,-139.62 481.13,-128.8 479.47,-119.79"/>
<polygon fill="#63b8ff" stroke="#63b8ff" points="481.51,-150.2 486.77,-159.4 488.4,-148.93 481.51,-150.2"/>
</a>
</g>
</g>
<!-- Node5 -->
<g id="Node000005" class="node">
<title>Node5</title>
<g id="a_Node000005"><a xlink:href="../../dc/d32/Ark_8cpp.html" target="_top" xlink:title=" ">
<polygon fill="white" stroke="#666666" points="243,-41.75 102.5,-41.75 102.5,0 243,0 243,-41.75"/>
<text text-anchor="start" x="110.5" y="-28.25" font-family="Helvetica,sans-Serif" font-size="10.00">/Users/fola/Documents</text>
<text text-anchor="start" x="110.5" y="-17" font-family="Helvetica,sans-Serif" font-size="10.00">/ArkScript/Ark/src/arkreactor</text>
<text text-anchor="middle" x="172.75" y="-5.75" font-family="Helvetica,sans-Serif" font-size="10.00">/Ark.cpp</text>
</a>
</g>
</g>
<!-- Node4&#45;&gt;Node5 -->
<g id="edge4_Node000004_Node000005" class="edge">
<title>Node4&#45;&gt;Node5</title>
<g id="a_edge4_Node000004_Node000005"><a xlink:title=" ">
<path fill="none" stroke="#63b8ff" d="M179.16,-66C177.99,-57.96 176.77,-49.54 175.71,-42.23"/>
<polygon fill="#63b8ff" stroke="#63b8ff" points="175.68,-66.43 180.58,-75.83 182.61,-65.43 175.68,-66.43"/>
</a>
</g>
</g>
<!-- Node7 -->
<g id="Node000007" class="node">
<title>Node7</title>
<g id="a_Node000007"><a xlink:href="../../db/d71/JsonCompiler_8cpp.html" target="_top" xlink:title=" ">
<polygon fill="white" stroke="#666666" points="396,-41.75 261.5,-41.75 261.5,0 396,0 396,-41.75"/>
<text text-anchor="start" x="269.5" y="-28.25" font-family="Helvetica,sans-Serif" font-size="10.00">/Users/fola/Documents</text>
<text text-anchor="start" x="269.5" y="-17" font-family="Helvetica,sans-Serif" font-size="10.00">/ArkScript/Ark/src/arkscript</text>
<text text-anchor="middle" x="328.75" y="-5.75" font-family="Helvetica,sans-Serif" font-size="10.00">/JsonCompiler.cpp</text>
</a>
</g>
</g>
<!-- Node6&#45;&gt;Node7 -->
<g id="edge6_Node000006_Node000007" class="edge">
<title>Node6&#45;&gt;Node7</title>
<g id="a_edge6_Node000006_Node000007"><a xlink:title=" ">
<path fill="none" stroke="#63b8ff" d="M328.75,-66C328.75,-57.96 328.75,-49.54 328.75,-42.23"/>
<polygon fill="#63b8ff" stroke="#63b8ff" points="325.25,-65.81 328.75,-75.81 332.25,-65.81 325.25,-65.81"/>
</a>
</g>
</g>
<!-- Node8 -->
<g id="Node000008" class="node">
<title>Node8</title>
<g id="a_Node000008"><a xlink:href="../../df/d0a/main_8cpp.html" target="_top" xlink:title=" ">
<polygon fill="white" stroke="#666666" points="549,-41.75 414.5,-41.75 414.5,0 549,0 549,-41.75"/>
<text text-anchor="start" x="422.5" y="-28.25" font-family="Helvetica,sans-Serif" font-size="10.00">/Users/fola/Documents</text>
<text text-anchor="start" x="422.5" y="-17" font-family="Helvetica,sans-Serif" font-size="10.00">/ArkScript/Ark/src/arkscript</text>
<text text-anchor="middle" x="481.75" y="-5.75" font-family="Helvetica,sans-Serif" font-size="10.00">/main.cpp</text>
</a>
</g>
</g>
<!-- Node6&#45;&gt;Node8 -->
<g id="edge7_Node000006_Node000008" class="edge">
<title>Node6&#45;&gt;Node8</title>
<g id="a_edge7_Node000006_Node000008"><a xlink:title=" ">
<path fill="none" stroke="#63b8ff" d="M379.83,-72.34C399.6,-62.55 421.93,-51.49 440.64,-42.23"/>
<polygon fill="#63b8ff" stroke="#63b8ff" points="378.52,-69.08 371.11,-76.65 381.62,-75.35 378.52,-69.08"/>
</a>
</g>
</g>
<!-- Node12&#45;&gt;Node3 -->
<g id="edge13_Node000012_Node000003" class="edge">
<title>Node12&#45;&gt;Node3</title>
<g id="a_edge13_Node000012_Node000003"><a xlink:title=" ">
<path fill="none" stroke="#63b8ff" d="M620.28,-244.92C592.7,-231.73 559.33,-215.78 533.36,-203.37"/>
<polygon fill="#63b8ff" stroke="#63b8ff" points="618.64,-248.01 629.17,-249.17 621.66,-241.7 618.64,-248.01"/>
</a>
</g>
</g>
<!-- Node12&#45;&gt;Node9 -->
<g id="edge16_Node000012_Node000009" class="edge">
<title>Node12&#45;&gt;Node9</title>
<g id="a_edge16_Node000012_Node000009"><a xlink:title=" ">
<path fill="none" stroke="#63b8ff" d="M653.09,-239.79C647.79,-230.16 642.71,-219.22 639.75,-208.5 631.45,-178.4 631.77,-141.87 633.05,-119.71"/>
<polygon fill="#63b8ff" stroke="#63b8ff" points="650.01,-241.46 658.07,-248.33 656.06,-237.93 650.01,-241.46"/>
</a>
</g>
</g>
<!-- Node13 -->
<g id="Node000013" class="node">
<title>Node13</title>
<g id="a_Node000013"><a xlink:href="../../d1/da9/Executor_8cpp.html" target="_top" xlink:title=" ">
<polygon fill="white" stroke="#666666" points="978.38,-202.88 825.12,-202.88 825.12,-161.12 978.38,-161.12 978.38,-202.88"/>
<text text-anchor="start" x="833.12" y="-189.38" font-family="Helvetica,sans-Serif" font-size="10.00">/Users/fola/Documents</text>
<text text-anchor="start" x="833.12" y="-178.12" font-family="Helvetica,sans-Serif" font-size="10.00">/ArkScript/Ark/src/arkreactor</text>
<text text-anchor="middle" x="901.75" y="-166.88" font-family="Helvetica,sans-Serif" font-size="10.00">/Compiler/Macros/Executor.cpp</text>
</a>
</g>
</g>
<!-- Node12&#45;&gt;Node13 -->
<g id="edge14_Node000012_Node000013" class="edge">
<title>Node12&#45;&gt;Node13</title>
<g id="a_edge14_Node000012_Node000013"><a xlink:title=" ">
<path fill="none" stroke="#63b8ff" d="M736.78,-245.67C771.9,-232.33 814.95,-215.98 848.26,-203.32"/>
<polygon fill="#63b8ff" stroke="#63b8ff" points="735.67,-242.35 727.57,-249.17 738.16,-248.89 735.67,-242.35"/>
</a>
</g>
</g>
<!-- Node14 -->
<g id="Node000014" class="node">
<title>Node14</title>
<g id="a_Node000014"><a xlink:href="../../d6/d69/Processor_8cpp.html" target="_top" xlink:title=" ">
<polygon fill="white" stroke="#666666" points="807,-202.88 648.5,-202.88 648.5,-161.12 807,-161.12 807,-202.88"/>
<text text-anchor="start" x="656.5" y="-189.38" font-family="Helvetica,sans-Serif" font-size="10.00">/Users/fola/Documents</text>
<text text-anchor="start" x="656.5" y="-178.12" font-family="Helvetica,sans-Serif" font-size="10.00">/ArkScript/Ark/src/arkreactor</text>
<text text-anchor="middle" x="727.75" y="-166.88" font-family="Helvetica,sans-Serif" font-size="10.00">/Compiler/Macros/Processor.cpp</text>
</a>
</g>
</g>
<!-- Node12&#45;&gt;Node14 -->
<g id="edge15_Node000012_Node000014" class="edge">
<title>Node12&#45;&gt;Node14</title>
<g id="a_edge15_Node000012_Node000014"><a xlink:title=" ">
<path fill="none" stroke="#63b8ff" d="M691.65,-240.11C699.31,-227.99 707.96,-214.3 714.87,-203.37"/>
<polygon fill="#63b8ff" stroke="#63b8ff" points="688.7,-238.22 686.32,-248.54 694.62,-241.96 688.7,-238.22"/>
</a>
</g>
</g>
<!-- Node15&#45;&gt;Node3 -->
<g id="edge18_Node000015_Node000003" class="edge">
<title>Node15&#45;&gt;Node3</title>
<g id="a_edge18_Node000015_Node000003"><a xlink:title=" ">
<path fill="none" stroke="#63b8ff" d="M490.75,-233.13C490.75,-222.88 490.75,-212.12 490.75,-203.21"/>
<polygon fill="#63b8ff" stroke="#63b8ff" points="487.25,-232.85 490.75,-242.85 494.25,-232.85 487.25,-232.85"/>
</a>
</g>
</g>
<!-- Node15&#45;&gt;Node9 -->
<g id="edge20_Node000015_Node000009" class="edge">
<title>Node15&#45;&gt;Node9</title>
<g id="a_edge20_Node000015_Node000009"><a xlink:title=" ">
<path fill="none" stroke="#63b8ff" d="M534.49,-236.73C544.63,-228.08 555,-218.39 563.75,-208.5 588.72,-180.27 611.33,-142.54 624.03,-119.72"/>
<polygon fill="#63b8ff" stroke="#63b8ff" points="532.3,-234 526.85,-243.09 536.78,-239.38 532.3,-234"/>
</a>
</g>
</g>
<!-- Node16 -->
<g id="Node000016" class="node">
<title>Node16</title>
<g id="a_Node000016"><a xlink:href="../../de/dd7/NameResolutionPass_8cpp.html" target="_top" xlink:title=" ">
<polygon fill="white" stroke="#666666" points="409.5,-208.5 200,-208.5 200,-155.5 409.5,-155.5 409.5,-208.5"/>
<text text-anchor="start" x="208" y="-195" font-family="Helvetica,sans-Serif" font-size="10.00">/Users/fola/Documents</text>
<text text-anchor="start" x="208" y="-183.75" font-family="Helvetica,sans-Serif" font-size="10.00">/ArkScript/Ark/src/arkreactor</text>
<text text-anchor="start" x="208" y="-172.5" font-family="Helvetica,sans-Serif" font-size="10.00">/Compiler/NameResolution/NameResolution</text>
<text text-anchor="middle" x="304.75" y="-161.25" font-family="Helvetica,sans-Serif" font-size="10.00">Pass.cpp</text>
</a>
</g>
</g>
<!-- Node15&#45;&gt;Node16 -->
<g id="edge19_Node000015_Node000016" class="edge">
<title>Node15&#45;&gt;Node16</title>
<g id="a_edge19_Node000015_Node000016"><a xlink:title=" ">
<path fill="none" stroke="#63b8ff" d="M424.96,-239.23C403.72,-229.29 380.41,-218.39 360.02,-208.85"/>
<polygon fill="#63b8ff" stroke="#63b8ff" points="423.28,-242.31 433.82,-243.37 426.25,-235.97 423.28,-242.31"/>
</a>
</g>
</g>
<!-- Node17&#45;&gt;Node3 -->
<g id="edge22_Node000017_Node000003" class="edge">
<title>Node17&#45;&gt;Node3</title>
<g id="a_edge22_Node000017_Node000003"><a xlink:title=" ">
<path fill="none" stroke="#63b8ff" d="M780.71,-247.04C777.01,-246.18 773.35,-245.33 769.75,-244.5 696.04,-227.51 611.14,-208.94 554.54,-196.7"/>
<polygon fill="#63b8ff" stroke="#63b8ff" points="779.88,-250.44 790.41,-249.32 781.48,-243.63 779.88,-250.44"/>
</a>
</g>
</g>
<!-- Node17&#45;&gt;Node9 -->
<g id="edge24_Node000017_Node000009" class="edge">
<title>Node17&#45;&gt;Node9</title>
<g id="a_edge24_Node000017_Node000009"><a xlink:title=" ">
<path fill="none" stroke="#63b8ff" d="M948.77,-244.53C964.27,-235.6 978.68,-223.84 987.75,-208.5 999.75,-188.23 1003.05,-173.41 987.75,-155.5 952.19,-113.86 797.86,-103.08 705.45,-100.4"/>
<polygon fill="#63b8ff" stroke="#63b8ff" points="947.53,-241.22 940.35,-249.02 950.82,-247.4 947.53,-241.22"/>
</a>
</g>
</g>
<!-- Node18 -->
<g id="Node000018" class="node">
<title>Node18</title>
<g id="a_Node000018"><a xlink:href="../../d6/d41/ImportSolver_8cpp.html" target="_top" xlink:title=" ">
<polygon fill="white" stroke="#666666" points="1210.62,-202.88 1034.88,-202.88 1034.88,-161.12 1210.62,-161.12 1210.62,-202.88"/>
<text text-anchor="start" x="1042.88" y="-189.38" font-family="Helvetica,sans-Serif" font-size="10.00">/Users/fola/Documents</text>
<text text-anchor="start" x="1042.88" y="-178.12" font-family="Helvetica,sans-Serif" font-size="10.00">/ArkScript/Ark/src/arkreactor</text>
<text text-anchor="middle" x="1122.75" y="-166.88" font-family="Helvetica,sans-Serif" font-size="10.00">/Compiler/Package/ImportSolver.cpp</text>
</a>
</g>
</g>
<!-- Node17&#45;&gt;Node18 -->
<g id="edge23_Node000017_Node000018" class="edge">
<title>Node17&#45;&gt;Node18</title>
<g id="a_edge23_Node000017_Node000018"><a xlink:title=" ">
<path fill="none" stroke="#63b8ff" d="M943.83,-246.02C981.9,-232.61 1028.82,-216.09 1065.06,-203.32"/>
<polygon fill="#63b8ff" stroke="#63b8ff" points="943.05,-242.59 934.78,-249.21 945.37,-249.19 943.05,-242.59"/>
</a>
</g>
</g>
</g>
</svg>
