<?xml version="1.0" encoding="UTF-8" standalone="no"?>
<!DOCTYPE svg PUBLIC "-//W3C//DTD SVG 1.1//EN"
 "http://www.w3.org/Graphics/SVG/1.1/DTD/svg11.dtd">
<!-- Generated by graphviz version 2.49.0 (20210828.1703)
 -->
<!-- Title: C:/Users/folae/Documents/Code/Big&#45;Projects/ArkScript/Ark/include/Ark/Compiler/MacroExecutors/MacroExecutorPipeline.hpp Pages: 1 -->
<svg width="704pt" height="285pt"
 viewBox="0.00 0.00 703.50 285.00" xmlns="http://www.w3.org/2000/svg" xmlns:xlink="http://www.w3.org/1999/xlink">
<g id="graph0" class="graph" transform="scale(1 1) rotate(0) translate(4 281)">
<title>C:/Users/folae/Documents/Code/Big&#45;Projects/ArkScript/Ark/include/Ark/Compiler/MacroExecutors/MacroExecutorPipeline.hpp</title>
<polygon fill="white" stroke="transparent" points="-4,4 -4,-281 699.5,-281 699.5,4 -4,4"/>
<!-- Node1 -->
<g id="node1" class="node">
<title>Node1</title>
<g id="a_node1"><a xlink:title="The Chain of Responsibility class for running nodes through MacroExecutors.">
<polygon fill="#bfbfbf" stroke="black" points="461.5,-224.5 461.5,-276.5 663.5,-276.5 663.5,-224.5 461.5,-224.5"/>
<text text-anchor="start" x="469.5" y="-264.5" font-family="Helvetica,sans-Serif" font-size="10.00">C:/Users/folae/Documents</text>
<text text-anchor="start" x="469.5" y="-253.5" font-family="Helvetica,sans-Serif" font-size="10.00">/Code/Big&#45;Projects/ArkScript</text>
<text text-anchor="start" x="469.5" y="-242.5" font-family="Helvetica,sans-Serif" font-size="10.00">/Ark/include/Ark/Compiler/MacroExecutors</text>
<text text-anchor="middle" x="562.5" y="-231.5" font-family="Helvetica,sans-Serif" font-size="10.00">/MacroExecutorPipeline.hpp</text>
</a>
</g>
</g>
<!-- Node2 -->
<g id="node2" class="node">
<title>Node2</title>
<g id="a_node2"><a xlink:title=" ">
<polygon fill="white" stroke="#bfbfbf" points="653.5,-56.5 653.5,-75.5 695.5,-75.5 695.5,-56.5 653.5,-56.5"/>
<text text-anchor="middle" x="674.5" y="-63.5" font-family="Helvetica,sans-Serif" font-size="10.00">vector</text>
</a>
</g>
</g>
<!-- Node1&#45;&gt;Node2 -->
<g id="edge1" class="edge">
<title>Node1&#45;&gt;Node2</title>
<path fill="none" stroke="midnightblue" d="M578.07,-224.12C601.17,-186.49 643.91,-116.85 663.8,-84.44"/>
<polygon fill="midnightblue" stroke="midnightblue" points="666.94,-86 669.19,-75.65 660.98,-82.34 666.94,-86"/>
</g>
<!-- Node3 -->
<g id="node3" class="node">
<title>Node3</title>
<g id="a_node3"><a xlink:href="../../dc/d7c/MacroExecutor_8hpp.html" target="_top" xlink:title="The base class for all MacroExecutors.">
<polygon fill="white" stroke="black" points="428,-168.5 428,-187.5 589,-187.5 589,-168.5 428,-168.5"/>
<text text-anchor="middle" x="508.5" y="-175.5" font-family="Helvetica,sans-Serif" font-size="10.00">Ark/Compiler/MacroExecutor.hpp</text>
</a>
</g>
</g>
<!-- Node1&#45;&gt;Node3 -->
<g id="edge2" class="edge">
<title>Node1&#45;&gt;Node3</title>
<path fill="none" stroke="midnightblue" d="M543.31,-224.45C536.02,-214.93 527.9,-204.33 521.34,-195.76"/>
<polygon fill="midnightblue" stroke="midnightblue" points="524.02,-193.51 515.16,-187.7 518.46,-197.76 524.02,-193.51"/>
</g>
<!-- Node3&#45;&gt;Node2 -->
<g id="edge4" class="edge">
<title>Node3&#45;&gt;Node2</title>
<path fill="none" stroke="midnightblue" d="M521.53,-168.37C550.01,-149.49 618.08,-104.38 653.02,-81.24"/>
<polygon fill="midnightblue" stroke="midnightblue" points="655.13,-84.03 661.53,-75.59 651.27,-78.2 655.13,-84.03"/>
</g>
<!-- Node4 -->
<g id="node4" class="node">
<title>Node4</title>
<g id="a_node4"><a xlink:title=" ">
<polygon fill="white" stroke="#bfbfbf" points="0,-56.5 0,-75.5 83,-75.5 83,-56.5 0,-56.5"/>
<text text-anchor="middle" x="41.5" y="-63.5" font-family="Helvetica,sans-Serif" font-size="10.00">unordered_map</text>
</a>
</g>
</g>
<!-- Node3&#45;&gt;Node4 -->
<g id="edge3" class="edge">
<title>Node3&#45;&gt;Node4</title>
<path fill="none" stroke="midnightblue" d="M455.52,-168.46C406.89,-160.28 332.99,-146.99 269.5,-132 201.16,-115.86 122.65,-92.37 77.88,-78.49"/>
<polygon fill="midnightblue" stroke="midnightblue" points="78.9,-75.14 68.32,-75.51 76.82,-81.82 78.9,-75.14"/>
</g>
<!-- Node5 -->
<g id="node5" class="node">
<title>Node5</title>
<g id="a_node5"><a xlink:href="../../d7/dc6/Node_8hpp.html" target="_top" xlink:title="AST node used by the parser, optimizer and compiler.">
<polygon fill="white" stroke="black" points="279,-112.5 279,-131.5 396,-131.5 396,-112.5 279,-112.5"/>
<text text-anchor="middle" x="337.5" y="-119.5" font-family="Helvetica,sans-Serif" font-size="10.00">Ark/Compiler/Node.hpp</text>
</a>
</g>
</g>
<!-- Node3&#45;&gt;Node5 -->
<g id="edge5" class="edge">
<title>Node3&#45;&gt;Node5</title>
<path fill="none" stroke="midnightblue" d="M481.4,-168.44C452.51,-159.32 406.58,-144.81 374.39,-134.65"/>
<polygon fill="midnightblue" stroke="midnightblue" points="375.06,-131.19 364.47,-131.52 372.95,-137.87 375.06,-131.19"/>
</g>
<!-- Node5&#45;&gt;Node2 -->
<g id="edge10" class="edge">
<title>Node5&#45;&gt;Node2</title>
<path fill="none" stroke="midnightblue" d="M396.25,-114.97C456.2,-108.24 552.02,-95.88 643.33,-75.98"/>
<polygon fill="midnightblue" stroke="midnightblue" points="644.29,-79.36 653.3,-73.78 642.78,-72.52 644.29,-79.36"/>
</g>
<!-- Node5&#45;&gt;Node4 -->
<g id="edge11" class="edge">
<title>Node5&#45;&gt;Node4</title>
<path fill="none" stroke="midnightblue" d="M290.6,-112.44C236.89,-102.64 149.14,-86.64 93.41,-76.47"/>
<polygon fill="midnightblue" stroke="midnightblue" points="93.86,-72.99 83.4,-74.64 92.61,-79.88 93.86,-72.99"/>
</g>
<!-- Node6 -->
<g id="node6" class="node">
<title>Node6</title>
<g id="a_node6"><a xlink:title=" ">
<polygon fill="white" stroke="#bfbfbf" points="101.5,-56.5 101.5,-75.5 145.5,-75.5 145.5,-56.5 101.5,-56.5"/>
<text text-anchor="middle" x="123.5" y="-63.5" font-family="Helvetica,sans-Serif" font-size="10.00">variant</text>
</a>
</g>
</g>
<!-- Node5&#45;&gt;Node6 -->
<g id="edge6" class="edge">
<title>Node5&#45;&gt;Node6</title>
<path fill="none" stroke="midnightblue" d="M300.93,-112.48C265.93,-104.22 211.43,-91.09 155.53,-76.2"/>
<polygon fill="midnightblue" stroke="midnightblue" points="156.39,-72.81 145.82,-73.6 154.57,-79.57 156.39,-72.81"/>
</g>
<!-- Node7 -->
<g id="node7" class="node">
<title>Node7</title>
<g id="a_node7"><a xlink:title=" ">
<polygon fill="white" stroke="#bfbfbf" points="163.5,-56.5 163.5,-75.5 217.5,-75.5 217.5,-56.5 163.5,-56.5"/>
<text text-anchor="middle" x="190.5" y="-63.5" font-family="Helvetica,sans-Serif" font-size="10.00">iostream</text>
</a>
</g>
</g>
<!-- Node5&#45;&gt;Node7 -->
<g id="edge7" class="edge">
<title>Node5&#45;&gt;Node7</title>
<path fill="none" stroke="midnightblue" d="M314.21,-112.44C289.69,-103.44 250.9,-89.19 223.3,-79.05"/>
<polygon fill="midnightblue" stroke="midnightblue" points="224.28,-75.68 213.68,-75.52 221.86,-82.25 224.28,-75.68"/>
</g>
<!-- Node8 -->
<g id="node8" class="node">
<title>Node8</title>
<g id="a_node8"><a xlink:title=" ">
<polygon fill="white" stroke="#bfbfbf" points="235.5,-56.5 235.5,-75.5 273.5,-75.5 273.5,-56.5 235.5,-56.5"/>
<text text-anchor="middle" x="254.5" y="-63.5" font-family="Helvetica,sans-Serif" font-size="10.00">array</text>
</a>
</g>
</g>
<!-- Node5&#45;&gt;Node8 -->
<g id="edge8" class="edge">
<title>Node5&#45;&gt;Node8</title>
<path fill="none" stroke="midnightblue" d="M324.16,-112.32C311.34,-103.98 291.72,-91.21 276.56,-81.35"/>
<polygon fill="midnightblue" stroke="midnightblue" points="278.09,-78.17 267.8,-75.65 274.28,-84.04 278.09,-78.17"/>
</g>
<!-- Node9 -->
<g id="node9" class="node">
<title>Node9</title>
<g id="a_node9"><a xlink:title=" ">
<polygon fill="white" stroke="#bfbfbf" points="341,-0.5 341,-19.5 382,-19.5 382,-0.5 341,-0.5"/>
<text text-anchor="middle" x="361.5" y="-7.5" font-family="Helvetica,sans-Serif" font-size="10.00">string</text>
</a>
</g>
</g>
<!-- Node5&#45;&gt;Node9 -->
<g id="edge9" class="edge">
<title>Node5&#45;&gt;Node9</title>
<path fill="none" stroke="midnightblue" d="M331.89,-112.39C324.4,-99.76 312.92,-75.58 320.5,-56 324.95,-44.5 333.87,-34.13 342.25,-26.25"/>
<polygon fill="midnightblue" stroke="midnightblue" points="344.74,-28.73 349.96,-19.51 340.13,-23.46 344.74,-28.73"/>
</g>
<!-- Node10 -->
<g id="node10" class="node">
<title>Node10</title>
<g id="a_node10"><a xlink:href="../../d5/d40/Platform_8hpp.html" target="_top" xlink:title="ArkScript configuration macros.">
<polygon fill="white" stroke="black" points="330,-56.5 330,-75.5 419,-75.5 419,-56.5 330,-56.5"/>
<text text-anchor="middle" x="374.5" y="-63.5" font-family="Helvetica,sans-Serif" font-size="10.00">Ark/Platform.hpp</text>
</a>
</g>
</g>
<!-- Node5&#45;&gt;Node10 -->
<g id="edge12" class="edge">
<title>Node5&#45;&gt;Node10</title>
<path fill="none" stroke="midnightblue" d="M343.61,-112.08C348.78,-104.53 356.35,-93.49 362.69,-84.23"/>
<polygon fill="midnightblue" stroke="midnightblue" points="365.74,-85.98 368.5,-75.75 359.96,-82.02 365.74,-85.98"/>
</g>
<!-- Node11 -->
<g id="node11" class="node">
<title>Node11</title>
<g id="a_node11"><a xlink:href="../../d2/de9/Exceptions_8hpp.html" target="_top" xlink:title="ArkScript homemade exceptions.">
<polygon fill="white" stroke="black" points="437.5,-56.5 437.5,-75.5 539.5,-75.5 539.5,-56.5 437.5,-56.5"/>
<text text-anchor="middle" x="488.5" y="-63.5" font-family="Helvetica,sans-Serif" font-size="10.00">Ark/Exceptions.hpp</text>
</a>
</g>
</g>
<!-- Node5&#45;&gt;Node11 -->
<g id="edge13" class="edge">
<title>Node5&#45;&gt;Node11</title>
<path fill="none" stroke="midnightblue" d="M361.43,-112.44C386.72,-103.4 426.8,-89.06 455.18,-78.92"/>
<polygon fill="midnightblue" stroke="midnightblue" points="456.45,-82.18 464.69,-75.52 454.09,-75.59 456.45,-82.18"/>
</g>
<!-- Node13 -->
<g id="node13" class="node">
<title>Node13</title>
<g id="a_node13"><a xlink:title=" ">
<polygon fill="white" stroke="#bfbfbf" points="558,-56.5 558,-75.5 635,-75.5 635,-56.5 558,-56.5"/>
<text text-anchor="middle" x="596.5" y="-63.5" font-family="Helvetica,sans-Serif" font-size="10.00">inline/Node.inl</text>
</a>
</g>
</g>
<!-- Node5&#45;&gt;Node13 -->
<g id="edge16" class="edge">
<title>Node5&#45;&gt;Node13</title>
<path fill="none" stroke="midnightblue" d="M378.54,-112.44C424.48,-102.86 498.88,-87.35 547.75,-77.16"/>
<polygon fill="midnightblue" stroke="midnightblue" points="548.69,-80.54 557.77,-75.08 547.26,-73.69 548.69,-80.54"/>
</g>
<!-- Node11&#45;&gt;Node9 -->
<g id="edge15" class="edge">
<title>Node11&#45;&gt;Node9</title>
<path fill="none" stroke="midnightblue" d="M468.38,-56.44C447.48,-47.56 414.57,-33.56 390.78,-23.45"/>
<polygon fill="midnightblue" stroke="midnightblue" points="392.1,-20.21 381.53,-19.52 389.36,-26.65 392.1,-20.21"/>
</g>
<!-- Node12 -->
<g id="node12" class="node">
<title>Node12</title>
<g id="a_node12"><a xlink:title=" ">
<polygon fill="white" stroke="#bfbfbf" points="459,-0.5 459,-19.5 518,-19.5 518,-0.5 459,-0.5"/>
<text text-anchor="middle" x="488.5" y="-7.5" font-family="Helvetica,sans-Serif" font-size="10.00">exception</text>
</a>
</g>
</g>
<!-- Node11&#45;&gt;Node12 -->
<g id="edge14" class="edge">
<title>Node11&#45;&gt;Node12</title>
<path fill="none" stroke="midnightblue" d="M488.5,-56.08C488.5,-49.01 488.5,-38.86 488.5,-29.99"/>
<polygon fill="midnightblue" stroke="midnightblue" points="492,-29.75 488.5,-19.75 485,-29.75 492,-29.75"/>
</g>
</g>
</svg>
