<?xml version="1.0" encoding="UTF-8" standalone="no"?>
<!DOCTYPE svg PUBLIC "-//W3C//DTD SVG 1.1//EN"
 "http://www.w3.org/Graphics/SVG/1.1/DTD/svg11.dtd">
<!-- Generated by graphviz version 7.1.0 (20230121.1956)
 -->
<!-- Title: Ark::types::Contract Pages: 1 -->
<svg width="376pt" height="379pt"
 viewBox="0.00 0.00 376.00 379.00" xmlns="http://www.w3.org/2000/svg" xmlns:xlink="http://www.w3.org/1999/xlink">
<g id="graph0" class="graph" transform="scale(1 1) rotate(0) translate(4 375)">
<title>Ark::types::Contract</title>
<!-- Node1 -->
<g id="node1" class="node">
<title>Node1</title>
<g id="a_node1"><a xlink:title="A contract is a list of typed arguments that a function can follow.">
<polygon fill="#999999" stroke="#666666" points="279.5,-19 174.5,-19 174.5,0 279.5,0 279.5,-19"/>
<text text-anchor="middle" x="227" y="-7" font-family="Helvetica,sans-Serif" font-size="10.00">Ark::types::Contract</text>
</a>
</g>
</g>
<!-- Node2 -->
<g id="node2" class="node">
<title>Node2</title>
<g id="a_node2"><a xlink:title=" ">
<polygon fill="white" stroke="#666666" points="285,-96 169,-96 169,-66 285,-66 285,-96"/>
<text text-anchor="start" x="177" y="-84" font-family="Helvetica,sans-Serif" font-size="10.00">std::vector&lt; Ark::types</text>
<text text-anchor="middle" x="227" y="-73" font-family="Helvetica,sans-Serif" font-size="10.00">::Typedef &gt;</text>
</a>
</g>
</g>
<!-- Node2&#45;&gt;Node1 -->
<g id="edge1" class="edge">
<title>Node2&#45;&gt;Node1</title>
<path fill="none" stroke="#9a32cd" stroke-dasharray="5,2" d="M227,-54.46C227,-42.07 227,-27.99 227,-19.18"/>
<polygon fill="#9a32cd" stroke="#9a32cd" points="223.5,-54.09 227,-64.09 230.5,-54.09 223.5,-54.09"/>
<text text-anchor="middle" x="251.5" y="-40" font-family="Helvetica,sans-Serif" font-size="10.00"> arguments</text>
</g>
<!-- Node3 -->
<g id="node3" class="node">
<title>Node3</title>
<g id="a_node3"><a xlink:href="../../d9/dbf/structArk_1_1types_1_1Typedef.html" target="_top" xlink:title="A type definition within a contract.">
<polygon fill="white" stroke="#666666" points="232,-162 130,-162 130,-143 232,-143 232,-162"/>
<text text-anchor="middle" x="181" y="-150" font-family="Helvetica,sans-Serif" font-size="10.00">Ark::types::Typedef</text>
</a>
</g>
</g>
<!-- Node3&#45;&gt;Node2 -->
<g id="edge2" class="edge">
<title>Node3&#45;&gt;Node2</title>
<path fill="none" stroke="#9a32cd" stroke-dasharray="5,2" d="M193.12,-133.19C200.76,-121.64 210.48,-106.95 217.55,-96.27"/>
<polygon fill="#9a32cd" stroke="#9a32cd" points="190.26,-131.16 187.66,-141.44 196.1,-135.03 190.26,-131.16"/>
<text text-anchor="middle" x="226.5" y="-117" font-family="Helvetica,sans-Serif" font-size="10.00"> elements</text>
</g>
<!-- Node4 -->
<g id="node4" class="node">
<title>Node4</title>
<g id="a_node4"><a xlink:title=" ">
<polygon fill="white" stroke="#666666" points="100,-228 14,-228 14,-209 100,-209 100,-228"/>
<text text-anchor="middle" x="57" y="-216" font-family="Helvetica,sans-Serif" font-size="10.00">std::string_view</text>
</a>
</g>
</g>
<!-- Node4&#45;&gt;Node3 -->
<g id="edge3" class="edge">
<title>Node4&#45;&gt;Node3</title>
<path fill="none" stroke="#9a32cd" stroke-dasharray="5,2" d="M84.25,-203.43C108.54,-190.9 143.34,-172.94 163.9,-162.32"/>
<polygon fill="#9a32cd" stroke="#9a32cd" points="82.87,-200.21 75.59,-207.91 86.08,-206.43 82.87,-200.21"/>
<text text-anchor="middle" x="140" y="-183" font-family="Helvetica,sans-Serif" font-size="10.00"> name</text>
</g>
<!-- Node5 -->
<g id="node5" class="node">
<title>Node5</title>
<g id="a_node5"><a xlink:title=" ">
<polygon fill="white" stroke="#666666" points="114,-305 0,-305 0,-275 114,-275 114,-305"/>
<text text-anchor="start" x="8" y="-293" font-family="Helvetica,sans-Serif" font-size="10.00">std::basic_string_view</text>
<text text-anchor="middle" x="57" y="-282" font-family="Helvetica,sans-Serif" font-size="10.00">&lt; Char &gt;</text>
</a>
</g>
</g>
<!-- Node5&#45;&gt;Node4 -->
<g id="edge4" class="edge">
<title>Node5&#45;&gt;Node4</title>
<path fill="none" stroke="#63b8ff" d="M57,-263.46C57,-251.07 57,-236.99 57,-228.18"/>
<polygon fill="#63b8ff" stroke="#63b8ff" points="53.5,-263.09 57,-273.09 60.5,-263.09 53.5,-263.09"/>
</g>
<!-- Node6 -->
<g id="node6" class="node">
<title>Node6</title>
<g id="a_node6"><a xlink:title=" ">
<polygon fill="white" stroke="#666666" points="244,-228 118,-228 118,-209 244,-209 244,-228"/>
<text text-anchor="middle" x="181" y="-216" font-family="Helvetica,sans-Serif" font-size="10.00">std::vector&lt; ValueType &gt;</text>
</a>
</g>
</g>
<!-- Node6&#45;&gt;Node3 -->
<g id="edge5" class="edge">
<title>Node6&#45;&gt;Node3</title>
<path fill="none" stroke="#9a32cd" stroke-dasharray="5,2" d="M181,-197.18C181,-185.44 181,-171.27 181,-162.32"/>
<polygon fill="#9a32cd" stroke="#9a32cd" points="177.5,-197.09 181,-207.09 184.5,-197.09 177.5,-197.09"/>
<text text-anchor="middle" x="195" y="-183" font-family="Helvetica,sans-Serif" font-size="10.00"> types</text>
</g>
<!-- Node7 -->
<g id="node7" class="node">
<title>Node7</title>
<g id="a_node7"><a xlink:title=" ">
<polygon fill="white" stroke="#666666" points="272.5,-299.5 185.5,-299.5 185.5,-280.5 272.5,-280.5 272.5,-299.5"/>
<text text-anchor="middle" x="229" y="-287.5" font-family="Helvetica,sans-Serif" font-size="10.00">std::vector&lt; T &gt;</text>
</a>
</g>
</g>
<!-- Node7&#45;&gt;Node2 -->
<g id="edge8" class="edge">
<title>Node7&#45;&gt;Node2</title>
<path fill="none" stroke="orange" stroke-dasharray="5,2" d="M248.15,-272.43C252.16,-267.88 255.83,-262.63 258,-257 259.76,-252.44 258.11,-250.89 258,-246 256.67,-187.29 272.38,-169.08 252,-114 249.65,-107.65 245.55,-101.57 241.34,-96.44"/>
<polygon fill="orange" stroke="orange" points="245.99,-269.64 241.39,-279.18 250.94,-274.59 245.99,-269.64"/>
<text text-anchor="middle" x="315" y="-183" font-family="Helvetica,sans-Serif" font-size="10.00"> &lt; Ark::types::Typedef &gt;</text>
</g>
<!-- Node7&#45;&gt;Node6 -->
<g id="edge6" class="edge">
<title>Node7&#45;&gt;Node6</title>
<path fill="none" stroke="orange" stroke-dasharray="5,2" d="M205.71,-273.24C200.22,-268.57 194.85,-263.06 191,-257 185.44,-248.24 182.95,-236.45 181.85,-228.44"/>
<polygon fill="orange" stroke="orange" points="203.56,-276 213.61,-279.33 207.83,-270.45 203.56,-276"/>
<text text-anchor="middle" x="224.5" y="-249" font-family="Helvetica,sans-Serif" font-size="10.00"> &lt; ValueType &gt;</text>
</g>
<!-- Node8 -->
<g id="node8" class="node">
<title>Node8</title>
<g id="a_node8"><a xlink:title=" ">
<polygon fill="white" stroke="#666666" points="243.5,-371 214.5,-371 214.5,-352 243.5,-352 243.5,-371"/>
<text text-anchor="middle" x="229" y="-359" font-family="Helvetica,sans-Serif" font-size="10.00">T</text>
</a>
</g>
</g>
<!-- Node8&#45;&gt;Node7 -->
<g id="edge7" class="edge">
<title>Node8&#45;&gt;Node7</title>
<path fill="none" stroke="#9a32cd" stroke-dasharray="5,2" d="M229,-340.3C229,-326.94 229,-310.09 229,-299.95"/>
<polygon fill="#9a32cd" stroke="#9a32cd" points="225.5,-340.18 229,-350.18 232.5,-340.18 225.5,-340.18"/>
<text text-anchor="middle" x="250.5" y="-326" font-family="Helvetica,sans-Serif" font-size="10.00"> elements</text>
</g>
</g>
</svg>
