<?xml version="1.0" encoding="UTF-8" standalone="no"?>
<!DOCTYPE svg PUBLIC "-//W3C//DTD SVG 1.1//EN"
 "http://www.w3.org/Graphics/SVG/1.1/DTD/svg11.dtd">
<!-- Generated by graphviz version 2.43.0 (0)
 -->
<!-- Title: Ark::types::Contract Pages: 1 -->
<svg width="352pt" height="385pt"
 viewBox="0.00 0.00 352.00 385.00" xmlns="http://www.w3.org/2000/svg" xmlns:xlink="http://www.w3.org/1999/xlink">
<g id="graph0" class="graph" transform="scale(1 1) rotate(0) translate(4 381)">
<title>Ark::types::Contract</title>
<polygon fill="white" stroke="transparent" points="-4,4 -4,-381 348,-381 348,4 -4,4"/>
<!-- Node1 -->
<g id="node1" class="node">
<title>Node1</title>
<g id="a_node1"><a xlink:title="A contract is a list of typed arguments that a function can follow.">
<polygon fill="#bfbfbf" stroke="black" points="8,-0.5 8,-19.5 121,-19.5 121,-0.5 8,-0.5"/>
<text text-anchor="middle" x="64.5" y="-7.5" font-family="Helvetica,sans-Serif" font-size="10.00">Ark::types::Contract</text>
</a>
</g>
</g>
<!-- Node2 -->
<g id="node2" class="node">
<title>Node2</title>
<g id="a_node2"><a xlink:title=" ">
<polygon fill="white" stroke="#bfbfbf" points="0,-67.5 0,-97.5 129,-97.5 129,-67.5 0,-67.5"/>
<text text-anchor="start" x="8" y="-85.5" font-family="Helvetica,sans-Serif" font-size="10.00">std::vector&lt; Ark::types</text>
<text text-anchor="middle" x="64.5" y="-74.5" font-family="Helvetica,sans-Serif" font-size="10.00">::Typedef &gt;</text>
</a>
</g>
</g>
<!-- Node2&#45;&gt;Node1 -->
<g id="edge1" class="edge">
<title>Node2&#45;&gt;Node1</title>
<path fill="none" stroke="#9a32cd" stroke-dasharray="5,2" d="M64.5,-57.09C64.5,-44.21 64.5,-29.2 64.5,-19.89"/>
<polygon fill="#9a32cd" stroke="#9a32cd" points="61,-57.23 64.5,-67.23 68,-57.23 61,-57.23"/>
<text text-anchor="middle" x="92.5" y="-41" font-family="Helvetica,sans-Serif" font-size="10.00"> arguments</text>
</g>
<!-- Node3 -->
<g id="node3" class="node">
<title>Node3</title>
<g id="a_node3"><a xlink:href="../../d9/dbf/structArk_1_1types_1_1Typedef.html" target="_top" xlink:title="A type definition within a contract.">
<polygon fill="white" stroke="black" points="136.5,-145.5 136.5,-164.5 246.5,-164.5 246.5,-145.5 136.5,-145.5"/>
<text text-anchor="middle" x="191.5" y="-152.5" font-family="Helvetica,sans-Serif" font-size="10.00">Ark::types::Typedef</text>
</a>
</g>
</g>
<!-- Node3&#45;&gt;Node2 -->
<g id="edge2" class="edge">
<title>Node3&#45;&gt;Node2</title>
<path fill="none" stroke="#9a32cd" stroke-dasharray="5,2" d="M167.12,-140.47C144.94,-128.16 112.33,-110.05 89.86,-97.58"/>
<polygon fill="#9a32cd" stroke="#9a32cd" points="165.49,-143.56 175.93,-145.36 168.88,-137.44 165.49,-143.56"/>
<text text-anchor="middle" x="164" y="-119" font-family="Helvetica,sans-Serif" font-size="10.00"> elements</text>
</g>
<!-- Node4 -->
<g id="node4" class="node">
<title>Node4</title>
<g id="a_node4"><a xlink:title=" ">
<polygon fill="white" stroke="#bfbfbf" points="76.5,-212.5 76.5,-231.5 216.5,-231.5 216.5,-212.5 76.5,-212.5"/>
<text text-anchor="middle" x="146.5" y="-219.5" font-family="Helvetica,sans-Serif" font-size="10.00">std::vector&lt; ValueType &gt;</text>
</a>
</g>
</g>
<!-- Node4&#45;&gt;Node3 -->
<g id="edge3" class="edge">
<title>Node4&#45;&gt;Node3</title>
<path fill="none" stroke="#9a32cd" stroke-dasharray="5,2" d="M161.34,-204.53C164.17,-201.13 167.01,-197.52 169.5,-194 176.27,-184.41 182.86,-172.61 187.03,-164.72"/>
<polygon fill="#9a32cd" stroke="#9a32cd" points="158.49,-202.48 154.59,-212.33 163.78,-207.06 158.49,-202.48"/>
<text text-anchor="middle" x="191" y="-186" font-family="Helvetica,sans-Serif" font-size="10.00"> types</text>
</g>
<!-- Node5 -->
<g id="node5" class="node">
<title>Node5</title>
<g id="a_node5"><a xlink:title=" ">
<polygon fill="white" stroke="#bfbfbf" points="33,-285 33,-304 130,-304 130,-285 33,-285"/>
<text text-anchor="middle" x="81.5" y="-292" font-family="Helvetica,sans-Serif" font-size="10.00">std::vector&lt; T &gt;</text>
</a>
</g>
</g>
<!-- Node5&#45;&gt;Node2 -->
<g id="edge8" class="edge">
<title>Node5&#45;&gt;Node2</title>
<path fill="none" stroke="orange" stroke-dasharray="5,2" d="M72.98,-275.84C64.09,-256.34 50.72,-223.75 45.5,-194 39.45,-159.49 51.3,-118.88 58.87,-97.81"/>
<polygon fill="orange" stroke="orange" points="69.86,-277.42 77.27,-285 76.2,-274.45 69.86,-277.42"/>
<text text-anchor="middle" x="105.5" y="-186" font-family="Helvetica,sans-Serif" font-size="10.00"> &lt; Ark::types::Typedef &gt;</text>
</g>
<!-- Node5&#45;&gt;Node4 -->
<g id="edge4" class="edge">
<title>Node5&#45;&gt;Node4</title>
<path fill="none" stroke="orange" stroke-dasharray="5,2" d="M96.44,-277.3C109.51,-263.12 128,-243.06 138.46,-231.72"/>
<polygon fill="orange" stroke="orange" points="93.68,-275.13 89.47,-284.86 98.82,-279.88 93.68,-275.13"/>
<text text-anchor="middle" x="158.5" y="-253" font-family="Helvetica,sans-Serif" font-size="10.00"> &lt; ValueType &gt;</text>
</g>
<!-- Node6 -->
<g id="node6" class="node">
<title>Node6</title>
<g id="a_node6"><a xlink:title=" ">
<polygon fill="white" stroke="#bfbfbf" points="67,-357.5 67,-376.5 96,-376.5 96,-357.5 67,-357.5"/>
<text text-anchor="middle" x="81.5" y="-364.5" font-family="Helvetica,sans-Serif" font-size="10.00">T</text>
</a>
</g>
</g>
<!-- Node6&#45;&gt;Node5 -->
<g id="edge5" class="edge">
<title>Node6&#45;&gt;Node5</title>
<path fill="none" stroke="#9a32cd" stroke-dasharray="5,2" d="M81.5,-346.94C81.5,-333.03 81.5,-314.82 81.5,-304.22"/>
<polygon fill="#9a32cd" stroke="#9a32cd" points="78,-347.36 81.5,-357.36 85,-347.36 78,-347.36"/>
<text text-anchor="middle" x="106" y="-331" font-family="Helvetica,sans-Serif" font-size="10.00"> elements</text>
</g>
<!-- Node7 -->
<g id="node7" class="node">
<title>Node7</title>
<g id="a_node7"><a xlink:title=" ">
<polygon fill="white" stroke="#bfbfbf" points="234.5,-212.5 234.5,-231.5 328.5,-231.5 328.5,-212.5 234.5,-212.5"/>
<text text-anchor="middle" x="281.5" y="-219.5" font-family="Helvetica,sans-Serif" font-size="10.00">std::string_view</text>
</a>
</g>
</g>
<!-- Node7&#45;&gt;Node3 -->
<g id="edge6" class="edge">
<title>Node7&#45;&gt;Node3</title>
<path fill="none" stroke="#9a32cd" stroke-dasharray="5,2" d="M260.82,-206.07C243.06,-193.24 218.06,-175.19 203.45,-164.63"/>
<polygon fill="#9a32cd" stroke="#9a32cd" points="259.21,-209.22 269.36,-212.23 263.3,-203.54 259.21,-209.22"/>
<text text-anchor="middle" x="257" y="-186" font-family="Helvetica,sans-Serif" font-size="10.00"> name</text>
</g>
<!-- Node8 -->
<g id="node8" class="node">
<title>Node8</title>
<g id="a_node8"><a xlink:title=" ">
<polygon fill="white" stroke="#bfbfbf" points="219,-279.5 219,-309.5 344,-309.5 344,-279.5 219,-279.5"/>
<text text-anchor="start" x="227" y="-297.5" font-family="Helvetica,sans-Serif" font-size="10.00">std::basic_string_view</text>
<text text-anchor="middle" x="281.5" y="-286.5" font-family="Helvetica,sans-Serif" font-size="10.00">&lt; Char &gt;</text>
</a>
</g>
</g>
<!-- Node8&#45;&gt;Node7 -->
<g id="edge7" class="edge">
<title>Node8&#45;&gt;Node7</title>
<path fill="none" stroke="midnightblue" d="M281.5,-269.09C281.5,-256.21 281.5,-241.2 281.5,-231.89"/>
<polygon fill="midnightblue" stroke="midnightblue" points="278,-269.23 281.5,-279.23 285,-269.23 278,-269.23"/>
</g>
</g>
</svg>
