<?xml version="1.0" encoding="UTF-8" standalone="no"?>
<!DOCTYPE svg PUBLIC "-//W3C//DTD SVG 1.1//EN"
 "http://www.w3.org/Graphics/SVG/1.1/DTD/svg11.dtd">
<!-- Generated by graphviz version 10.0.1 (20240210.2158)
 -->
<!-- Title: Ark::internal::MacroExecutorPipeline Pages: 1 -->
<!--zoomable 318 -->
<svg id="main" version="1.1" xmlns="http://www.w3.org/2000/svg" xmlns:xlink="http://www.w3.org/1999/xlink" xml:space="preserve" onload="init(evt)">
<style type="text/css"><![CDATA[
.edge:hover path { stroke: red; }
.edge:hover polygon { stroke: red; fill: red; }
]]></style>
<script type="text/javascript"><![CDATA[
var edges = document.getElementsByTagName('g');
if (edges && edges.length) {
  for (var i=0;i<edges.length;i++) {
    if (edges[i].id.substr(0,4)=='edge') {
      edges[i].setAttribute('class','edge');
    }
  }
}
]]></script>
        <defs>
                <circle id="rim" cx="0" cy="0" r="7"/>
                <circle id="rim2" cx="0" cy="0" r="3.5"/>
                <g id="zoomPlus">
                        <use xlink:href="#rim" fill="#404040">
                                <set attributeName="fill" to="#808080" begin="zoomplus.mouseover" end="zoomplus.mouseout"/>
                        </use>
                        <path d="M-4,0h8M0,-4v8" fill="none" stroke="white" stroke-width="1.5" pointer-events="none"/>
                </g>
                <g id="zoomMin">
                        <use xlink:href="#rim" fill="#404040">
                                <set attributeName="fill" to="#808080" begin="zoomminus.mouseover" end="zoomminus.mouseout"/>
                        </use>
                        <path d="M-4,0h8" fill="none" stroke="white" stroke-width="1.5" pointer-events="none"/>
                </g>
                <g id="dirArrow">
                        <path fill="none" stroke="white" stroke-width="1.5" d="M0,-3.0v7 M-2.5,-0.5L0,-3.0L2.5,-0.5"/>
                </g>
               <g id="resetDef">
                       <use xlink:href="#rim2" fill="#404040">
                               <set attributeName="fill" to="#808080" begin="reset.mouseover" end="reset.mouseout"/>
                       </use>
               </g>
        </defs>

<script type="text/javascript">
var viewWidth = 2239;
var viewHeight = 318;
var sectionId = 'dynsection-0';
</script>
<script xlink:href="../../svgpan.js"/>
<svg id="graph" class="graph">
<g id="viewport">
<title>Ark::internal::MacroExecutorPipeline</title>
<!-- Node1 -->
<g id="node1" class="node">
<title>Node1</title>
<g id="a_node1"><a xlink:title="The class that initializes the MacroExecutors.">
<polygon fill="#999999" stroke="#666666" points="1180.12,-305.5 1039.62,-305.5 1039.62,-275 1180.12,-275 1180.12,-305.5"/>
<text text-anchor="start" x="1047.62" y="-292" font-family="Helvetica,sans-Serif" font-size="10.00">Ark::internal::MacroExecutor</text>
<text text-anchor="middle" x="1109.88" y="-280.75" font-family="Helvetica,sans-Serif" font-size="10.00">Pipeline</text>
</a>
</g>
</g>
<!-- Node5 -->
<g id="node5" class="node">
<title>Node5</title>
<g id="a_node5"><a xlink:href="../../d5/db5/classArk_1_1internal_1_1MacroProcessor.html" target="_top" xlink:title="The class handling the macros definitions and calls, given an AST.">
<polygon fill="white" stroke="#666666" points="1463,-186.88 1317.25,-186.88 1317.25,-167.62 1463,-167.62 1463,-186.88"/>
<text text-anchor="middle" x="1390.12" y="-173.38" font-family="Helvetica,sans-Serif" font-size="10.00">Ark::internal::MacroProcessor</text>
</a>
</g>
</g>
<!-- Node1&#45;&gt;Node5 -->
<g id="edge18" class="edge">
<title>Node1&#45;&gt;Node5</title>
<path fill="none" stroke="#9a32cd" stroke-dasharray="5,2" d="M1191.72,-273.97C1240.44,-264.01 1294.08,-252.72 1299.25,-250.25 1332.81,-234.22 1364.8,-203.23 1379.96,-187.28"/>
<polygon fill="#9a32cd" stroke="#9a32cd" points="1191.03,-270.54 1181.93,-275.97 1192.43,-277.4 1191.03,-270.54"/>
<text text-anchor="middle" x="1249.75" y="-273" font-family="Helvetica,sans-Serif" font-size="10.00"> m_executor_pipeline</text>
</g>
<!-- Node2 -->
<g id="node2" class="node">
<title>Node2</title>
<g id="a_node2"><a xlink:title=" ">
<polygon fill="white" stroke="#666666" points="2231,-73.5 2047.75,-73.5 2047.75,-43 2231,-43 2231,-73.5"/>
<text text-anchor="start" x="2055.75" y="-60" font-family="Helvetica,sans-Serif" font-size="10.00">std::vector&lt; std::shared</text>
<text text-anchor="middle" x="2139.38" y="-48.75" font-family="Helvetica,sans-Serif" font-size="10.00">_ptr&lt; Ark::internal::MacroExecutor &gt; &gt;</text>
</a>
</g>
</g>
<!-- Node2&#45;&gt;Node1 -->
<g id="edge1" class="edge">
<title>Node2&#45;&gt;Node1</title>
<path fill="none" stroke="#9a32cd" stroke-dasharray="5,2" d="M2127.64,-84.53C2100.26,-146.83 2021.48,-298.25 1902.75,-298.25 1389.12,-298.25 1389.12,-298.25 1389.12,-298.25 1318.08,-298.25 1236.88,-295.61 1180.61,-293.37"/>
<polygon fill="#9a32cd" stroke="#9a32cd" points="2130.84,-85.96 2131.56,-75.39 2124.4,-83.2 2130.84,-85.96"/>
<text text-anchor="middle" x="1714" y="-300" font-family="Helvetica,sans-Serif" font-size="10.00"> m_executors</text>
</g>
<!-- Node3 -->
<g id="node3" class="node">
<title>Node3</title>
<g id="a_node3"><a xlink:title=" ">
<polygon fill="white" stroke="#666666" points="1969,-30.5 1834.5,-30.5 1834.5,0 1969,0 1969,-30.5"/>
<text text-anchor="start" x="1842.5" y="-17" font-family="Helvetica,sans-Serif" font-size="10.00">std::shared_ptr&lt; Ark</text>
<text text-anchor="middle" x="1901.75" y="-5.75" font-family="Helvetica,sans-Serif" font-size="10.00">::internal::MacroExecutor &gt;</text>
</a>
</g>
</g>
<!-- Node3&#45;&gt;Node2 -->
<g id="edge2" class="edge">
<title>Node3&#45;&gt;Node2</title>
<path fill="none" stroke="#9a32cd" stroke-dasharray="5,2" d="M1980.35,-24.97C1996.71,-27.33 2013.83,-30.04 2029.75,-33 2044.5,-35.74 2060.28,-39.13 2075.11,-42.54"/>
<polygon fill="#9a32cd" stroke="#9a32cd" points="1981.06,-21.54 1970.67,-23.6 1980.09,-28.47 1981.06,-21.54"/>
<text text-anchor="middle" x="2008.38" y="-35" font-family="Helvetica,sans-Serif" font-size="10.00"> elements</text>
</g>
<!-- Node4 -->
<g id="node4" class="node">
<title>Node4</title>
<g id="a_node4"><a xlink:href="../../d5/d8f/classArk_1_1internal_1_1MacroExecutor.html" target="_top" xlink:title="A class that applies macros in a Node.">
<polygon fill="white" stroke="#666666" points="1784.25,-148.88 1643.75,-148.88 1643.75,-129.62 1784.25,-129.62 1784.25,-148.88"/>
<text text-anchor="middle" x="1714" y="-135.38" font-family="Helvetica,sans-Serif" font-size="10.00">Ark::internal::MacroExecutor</text>
</a>
</g>
</g>
<!-- Node4&#45;&gt;Node3 -->
<g id="edge3" class="edge">
<title>Node4&#45;&gt;Node3</title>
<path fill="none" stroke="#9a32cd" stroke-dasharray="5,2" d="M1739.11,-123.15C1774.93,-99.25 1841.75,-54.64 1877.22,-30.96"/>
<polygon fill="#9a32cd" stroke="#9a32cd" points="1737.52,-120.01 1731.15,-128.47 1741.41,-125.83 1737.52,-120.01"/>
<text text-anchor="middle" x="1809.38" y="-82" font-family="Helvetica,sans-Serif" font-size="10.00"> ptr</text>
</g>
<!-- Node5&#45;&gt;Node4 -->
<g id="edge4" class="edge">
<title>Node5&#45;&gt;Node4</title>
<path fill="none" stroke="#9a32cd" stroke-dasharray="5,2" d="M1474.66,-167.39C1527.11,-161.2 1593.95,-153.31 1643.49,-147.46"/>
<polygon fill="#9a32cd" stroke="#9a32cd" points="1474.38,-163.9 1464.86,-168.54 1475.2,-170.85 1474.38,-163.9"/>
<text text-anchor="middle" x="1553.38" y="-167" font-family="Helvetica,sans-Serif" font-size="10.00"> m_processor</text>
</g>
<!-- Node6 -->
<g id="node6" class="node">
<title>Node6</title>
<g id="a_node6"><a xlink:href="../../dc/d9e/classArk_1_1internal_1_1Node.html" target="_top" xlink:title="A node of an Abstract Syntax Tree for ArkScript.">
<polygon fill="white" stroke="#666666" points="408.25,-236.88 310.5,-236.88 310.5,-217.62 408.25,-217.62 408.25,-236.88"/>
<text text-anchor="middle" x="359.38" y="-223.38" font-family="Helvetica,sans-Serif" font-size="10.00">Ark::internal::Node</text>
</a>
</g>
</g>
<!-- Node6&#45;&gt;Node5 -->
<g id="edge5" class="edge">
<title>Node6&#45;&gt;Node5</title>
<path fill="none" stroke="#9a32cd" stroke-dasharray="5,2" d="M419.76,-231.85C468.62,-235.23 539.69,-239.25 601.88,-239.25 601.88,-239.25 601.88,-239.25 1110.88,-239.25 1205.16,-239.25 1313.2,-204.92 1362.32,-187.35"/>
<polygon fill="#9a32cd" stroke="#9a32cd" points="420.18,-228.37 409.96,-231.15 419.69,-235.35 420.18,-228.37"/>
<text text-anchor="middle" x="803.38" y="-241" font-family="Helvetica,sans-Serif" font-size="10.00"> m_ast</text>
</g>
<!-- Node11 -->
<g id="node11" class="node">
<title>Node11</title>
<g id="a_node11"><a xlink:title=" ">
<polygon fill="white" stroke="#666666" points="654,-201.12 551.75,-201.12 551.75,-159.38 654,-159.38 654,-201.12"/>
<text text-anchor="start" x="559.75" y="-187.62" font-family="Helvetica,sans-Serif" font-size="10.00">std::unordered_map</text>
<text text-anchor="start" x="559.75" y="-176.38" font-family="Helvetica,sans-Serif" font-size="10.00">&lt; std::string, Ark::</text>
<text text-anchor="middle" x="602.88" y="-165.12" font-family="Helvetica,sans-Serif" font-size="10.00">internal::Node &gt;</text>
</a>
</g>
</g>
<!-- Node6&#45;&gt;Node11 -->
<g id="edge12" class="edge">
<title>Node6&#45;&gt;Node11</title>
<path fill="none" stroke="#9a32cd" stroke-dasharray="5,2" d="M419.73,-215.7C460.19,-207.82 513.2,-197.51 551.59,-190.04"/>
<polygon fill="#9a32cd" stroke="#9a32cd" points="419.3,-212.22 410.15,-217.56 420.64,-219.09 419.3,-212.22"/>
<text text-anchor="middle" x="481.12" y="-215" font-family="Helvetica,sans-Serif" font-size="10.00"> elements</text>
</g>
<!-- Node7 -->
<g id="node7" class="node">
<title>Node7</title>
<g id="a_node7"><a xlink:title=" ">
<polygon fill="white" stroke="#666666" points="190.5,-236.88 131,-236.88 131,-217.62 190.5,-217.62 190.5,-236.88"/>
<text text-anchor="middle" x="160.75" y="-223.38" font-family="Helvetica,sans-Serif" font-size="10.00">std::string</text>
</a>
</g>
</g>
<!-- Node7&#45;&gt;Node6 -->
<g id="edge6" class="edge">
<title>Node7&#45;&gt;Node6</title>
<path fill="none" stroke="#9a32cd" stroke-dasharray="5,2" d="M202.13,-227.25C233.46,-227.25 277.01,-227.25 310.17,-227.25"/>
<polygon fill="#9a32cd" stroke="#9a32cd" points="202.28,-223.75 192.28,-227.25 202.28,-230.75 202.28,-223.75"/>
<text text-anchor="middle" x="249.38" y="-251.5" font-family="Helvetica,sans-Serif" font-size="10.00"> m_after_comment</text>
<text text-anchor="middle" x="249.38" y="-240.25" font-family="Helvetica,sans-Serif" font-size="10.00">m_comment</text>
<text text-anchor="middle" x="249.38" y="-229" font-family="Helvetica,sans-Serif" font-size="10.00">m_filename</text>
</g>
<!-- Node7&#45;&gt;Node11 -->
<g id="edge11" class="edge">
<title>Node7&#45;&gt;Node11</title>
<path fill="none" stroke="#9a32cd" stroke-dasharray="5,2" d="M202.02,-217.27C231.3,-210.43 271.99,-201.75 308.25,-197 393.05,-185.89 492.58,-182.15 551.27,-180.89"/>
<polygon fill="#9a32cd" stroke="#9a32cd" points="201.39,-213.83 192.47,-219.54 203.01,-220.64 201.39,-213.83"/>
<text text-anchor="middle" x="359.38" y="-198" font-family="Helvetica,sans-Serif" font-size="10.00"> keys</text>
</g>
<!-- Node16 -->
<g id="node16" class="node">
<title>Node16</title>
<g id="a_node16"><a xlink:title=" ">
<polygon fill="white" stroke="#666666" points="1171.88,-164.88 1047.88,-164.88 1047.88,-145.62 1171.88,-145.62 1171.88,-164.88"/>
<text text-anchor="middle" x="1109.88" y="-151.38" font-family="Helvetica,sans-Serif" font-size="10.00">std::vector&lt; std::string &gt;</text>
</a>
</g>
</g>
<!-- Node7&#45;&gt;Node16 -->
<g id="edge20" class="edge">
<title>Node7&#45;&gt;Node16</title>
<path fill="none" stroke="#9a32cd" stroke-dasharray="5,2" d="M178.98,-245.12C187.21,-252.56 197.62,-260.55 208.5,-265.25 270.2,-291.89 291.17,-285.25 358.38,-285.25 358.38,-285.25 358.38,-285.25 804.38,-285.25 926.52,-285.25 1055.7,-195.68 1096.07,-165.24"/>
<polygon fill="#9a32cd" stroke="#9a32cd" points="181.44,-242.63 171.81,-238.2 176.58,-247.67 181.44,-242.63"/>
<text text-anchor="middle" x="602.88" y="-287" font-family="Helvetica,sans-Serif" font-size="10.00"> elements</text>
</g>
<!-- Node8 -->
<g id="node8" class="node">
<title>Node8</title>
<g id="a_node8"><a xlink:title=" ">
<polygon fill="white" stroke="#666666" points="94,-242.5 0,-242.5 0,-212 94,-212 94,-242.5"/>
<text text-anchor="start" x="8" y="-229" font-family="Helvetica,sans-Serif" font-size="10.00">std::basic_string&lt;</text>
<text text-anchor="middle" x="47" y="-217.75" font-family="Helvetica,sans-Serif" font-size="10.00"> Char &gt;</text>
</a>
</g>
</g>
<!-- Node8&#45;&gt;Node7 -->
<g id="edge7" class="edge">
<title>Node8&#45;&gt;Node7</title>
<path fill="none" stroke="#63b8ff" d="M105.71,-227.25C114.32,-227.25 122.87,-227.25 130.55,-227.25"/>
<polygon fill="#63b8ff" stroke="#63b8ff" points="105.93,-223.75 95.93,-227.25 105.93,-230.75 105.93,-223.75"/>
</g>
<!-- Node9 -->
<g id="node9" class="node">
<title>Node9</title>
<g id="a_node9"><a xlink:title=" ">
<polygon fill="white" stroke="#666666" points="1171.5,-127.5 1048.25,-127.5 1048.25,-97 1171.5,-97 1171.5,-127.5"/>
<text text-anchor="start" x="1056.25" y="-114" font-family="Helvetica,sans-Serif" font-size="10.00">std::vector&lt; Ark::internal</text>
<text text-anchor="middle" x="1109.88" y="-102.75" font-family="Helvetica,sans-Serif" font-size="10.00">::MacroScope &gt;</text>
</a>
</g>
</g>
<!-- Node9&#45;&gt;Node5 -->
<g id="edge8" class="edge">
<title>Node9&#45;&gt;Node5</title>
<path fill="none" stroke="#9a32cd" stroke-dasharray="5,2" d="M1182.88,-121.79C1218.25,-127.23 1261.31,-134.98 1299.25,-145 1321.85,-150.97 1346.82,-160.15 1364.69,-167.19"/>
<polygon fill="#9a32cd" stroke="#9a32cd" points="1183.59,-118.36 1173.18,-120.33 1182.55,-125.28 1183.59,-118.36"/>
<text text-anchor="middle" x="1249.75" y="-146" font-family="Helvetica,sans-Serif" font-size="10.00"> m_macros</text>
</g>
<!-- Node10 -->
<g id="node10" class="node">
<title>Node10</title>
<g id="a_node10"><a xlink:href="../../d6/d42/classArk_1_1internal_1_1MacroScope.html" target="_top" xlink:title=" ">
<polygon fill="white" stroke="#666666" points="868,-164.88 738.75,-164.88 738.75,-145.62 868,-145.62 868,-164.88"/>
<text text-anchor="middle" x="803.38" y="-151.38" font-family="Helvetica,sans-Serif" font-size="10.00">Ark::internal::MacroScope</text>
</a>
</g>
</g>
<!-- Node10&#45;&gt;Node9 -->
<g id="edge9" class="edge">
<title>Node10&#45;&gt;Node9</title>
<path fill="none" stroke="#9a32cd" stroke-dasharray="5,2" d="M879.73,-152.44C921.22,-150.02 973.48,-145.53 1019.5,-137.25 1032.5,-134.91 1046.35,-131.5 1059.16,-127.95"/>
<polygon fill="#9a32cd" stroke="#9a32cd" points="879.63,-148.94 869.84,-152.99 880.02,-155.93 879.63,-148.94"/>
<text text-anchor="middle" x="952.75" y="-153" font-family="Helvetica,sans-Serif" font-size="10.00"> elements</text>
</g>
<!-- Node11&#45;&gt;Node5 -->
<g id="edge22" class="edge">
<title>Node11&#45;&gt;Node5</title>
<path fill="none" stroke="#9a32cd" stroke-dasharray="5,2" d="M665.74,-180.59C787.19,-181.17 1065.36,-182.02 1299.25,-179.25 1305.02,-179.18 1311.01,-179.09 1317.02,-178.99"/>
<polygon fill="#9a32cd" stroke="#9a32cd" points="666.01,-177.09 656,-180.55 665.98,-184.09 666.01,-177.09"/>
<text text-anchor="middle" x="952.75" y="-182" font-family="Helvetica,sans-Serif" font-size="10.00"> m_defined_functions</text>
</g>
<!-- Node11&#45;&gt;Node10 -->
<g id="edge10" class="edge">
<title>Node11&#45;&gt;Node10</title>
<path fill="none" stroke="#9a32cd" stroke-dasharray="5,2" d="M665.76,-168.9C667.86,-168.59 669.95,-168.28 672,-168 693.51,-165.02 717.12,-162.49 738.26,-160.49"/>
<polygon fill="#9a32cd" stroke="#9a32cd" points="665.22,-165.44 655.89,-170.46 666.32,-172.36 665.22,-165.44"/>
<text text-anchor="middle" x="696.38" y="-169" font-family="Helvetica,sans-Serif" font-size="10.00"> m_macros</text>
</g>
<!-- Node12 -->
<g id="node12" class="node">
<title>Node12</title>
<g id="a_node12"><a xlink:title=" ">
<polygon fill="white" stroke="#666666" points="410.5,-144.5 308.25,-144.5 308.25,-114 410.5,-114 410.5,-144.5"/>
<text text-anchor="start" x="316.25" y="-131" font-family="Helvetica,sans-Serif" font-size="10.00">std::unordered_map</text>
<text text-anchor="middle" x="359.38" y="-119.75" font-family="Helvetica,sans-Serif" font-size="10.00">&lt; K, T &gt;</text>
</a>
</g>
</g>
<!-- Node12&#45;&gt;Node11 -->
<g id="edge13" class="edge">
<title>Node12&#45;&gt;Node11</title>
<path fill="none" stroke="orange" stroke-dasharray="5,2" d="M421.76,-128.34C455.44,-129.34 497.58,-133.05 533.75,-143.75 545.72,-147.29 557.98,-153.08 568.74,-159.01"/>
<polygon fill="orange" stroke="orange" points="422.27,-124.85 412.2,-128.14 422.12,-131.85 422.27,-124.85"/>
<text text-anchor="start" x="443.25" y="-156.25" font-family="Helvetica,sans-Serif" font-size="10.00"> &lt; std::string, Ark</text>
<text text-anchor="middle" x="481.12" y="-145" font-family="Helvetica,sans-Serif" font-size="10.00">::internal::Node &gt;</text>
</g>
<!-- Node13 -->
<g id="node13" class="node">
<title>Node13</title>
<g id="a_node13"><a xlink:title=" ">
<polygon fill="white" stroke="#666666" points="175.15,-158.88 146.35,-158.88 146.35,-139.62 175.15,-139.62 175.15,-158.88"/>
<text text-anchor="middle" x="160.75" y="-145.38" font-family="Helvetica,sans-Serif" font-size="10.00">K</text>
</a>
</g>
</g>
<!-- Node13&#45;&gt;Node12 -->
<g id="edge14" class="edge">
<title>Node13&#45;&gt;Node12</title>
<path fill="none" stroke="#9a32cd" stroke-dasharray="5,2" d="M186.83,-146.7C217.27,-143.6 269.32,-138.31 308.12,-134.36"/>
<polygon fill="#9a32cd" stroke="#9a32cd" points="186.68,-143.2 177.08,-147.69 187.38,-150.16 186.68,-143.2"/>
<text text-anchor="middle" x="249.38" y="-146" font-family="Helvetica,sans-Serif" font-size="10.00"> keys</text>
</g>
<!-- Node14 -->
<g id="node14" class="node">
<title>Node14</title>
<g id="a_node14"><a xlink:title=" ">
<polygon fill="white" stroke="#666666" points="175.15,-91.88 146.35,-91.88 146.35,-72.62 175.15,-72.62 175.15,-91.88"/>
<text text-anchor="middle" x="160.75" y="-78.38" font-family="Helvetica,sans-Serif" font-size="10.00">T</text>
</a>
</g>
</g>
<!-- Node14&#45;&gt;Node12 -->
<g id="edge15" class="edge">
<title>Node14&#45;&gt;Node12</title>
<path fill="none" stroke="#9a32cd" stroke-dasharray="5,2" d="M186.43,-88.15C216.81,-95.41 269.14,-107.92 308.12,-117.24"/>
<polygon fill="#9a32cd" stroke="#9a32cd" points="187.59,-84.83 177.05,-85.91 185.96,-91.64 187.59,-84.83"/>
<text text-anchor="middle" x="249.38" y="-114" font-family="Helvetica,sans-Serif" font-size="10.00"> elements</text>
</g>
<!-- Node15 -->
<g id="node15" class="node">
<title>Node15</title>
<g id="a_node15"><a xlink:title=" ">
<polygon fill="white" stroke="#666666" points="846.62,-96.88 760.12,-96.88 760.12,-77.62 846.62,-77.62 846.62,-96.88"/>
<text text-anchor="middle" x="803.38" y="-83.38" font-family="Helvetica,sans-Serif" font-size="10.00">std::vector&lt; T &gt;</text>
</a>
</g>
</g>
<!-- Node14&#45;&gt;Node15 -->
<g id="edge17" class="edge">
<title>Node14&#45;&gt;Node15</title>
<path fill="none" stroke="#9a32cd" stroke-dasharray="5,2" d="M186.67,-82.44C283.74,-83.2 637.19,-85.96 759.99,-86.92"/>
<polygon fill="#9a32cd" stroke="#9a32cd" points="186.97,-78.95 176.94,-82.37 186.91,-85.95 186.97,-78.95"/>
<text text-anchor="middle" x="481.12" y="-86" font-family="Helvetica,sans-Serif" font-size="10.00"> elements</text>
</g>
<!-- Node17 -->
<g id="node17" class="node">
<title>Node17</title>
<g id="a_node17"><a xlink:title=" ">
<polygon fill="white" stroke="#666666" points="533.75,-30.88 428.5,-30.88 428.5,-11.62 533.75,-11.62 533.75,-30.88"/>
<text text-anchor="middle" x="481.12" y="-17.38" font-family="Helvetica,sans-Serif" font-size="10.00">std::shared_ptr&lt; T &gt;</text>
</a>
</g>
</g>
<!-- Node14&#45;&gt;Node17 -->
<g id="edge24" class="edge">
<title>Node14&#45;&gt;Node17</title>
<path fill="none" stroke="#9a32cd" stroke-dasharray="5,2" d="M185.26,-67.4C192.47,-63.44 200.6,-59.56 208.5,-57 282.37,-33.09 372.49,-25.14 428.09,-22.51"/>
<polygon fill="#9a32cd" stroke="#9a32cd" points="183.65,-64.28 176.78,-72.34 187.18,-70.33 183.65,-64.28"/>
<text text-anchor="middle" x="249.38" y="-58" font-family="Helvetica,sans-Serif" font-size="10.00"> ptr</text>
</g>
<!-- Node15&#45;&gt;Node2 -->
<g id="edge25" class="edge">
<title>Node15&#45;&gt;Node2</title>
<path fill="none" stroke="orange" stroke-dasharray="5,2" d="M858.34,-78.99C919.09,-70.42 1020.82,-58.25 1108.88,-58.25 1108.88,-58.25 1108.88,-58.25 1902.75,-58.25 1950.51,-58.25 2003.71,-58.25 2047.46,-58.25"/>
<polygon fill="orange" stroke="orange" points="858.02,-75.5 848.61,-80.38 859.01,-82.43 858.02,-75.5"/>
<text text-anchor="start" x="1481" y="-71.25" font-family="Helvetica,sans-Serif" font-size="10.00"> &lt; std::shared_ptr&lt;</text>
<text text-anchor="middle" x="1553.38" y="-60" font-family="Helvetica,sans-Serif" font-size="10.00"> Ark::internal::MacroExecutor &gt; &gt;</text>
</g>
<!-- Node15&#45;&gt;Node9 -->
<g id="edge16" class="edge">
<title>Node15&#45;&gt;Node9</title>
<path fill="none" stroke="orange" stroke-dasharray="5,2" d="M858.5,-85.45C902.14,-84.72 964.99,-85.29 1019.5,-92 1028.82,-93.15 1038.59,-94.84 1048.1,-96.77"/>
<polygon fill="orange" stroke="orange" points="858.45,-81.95 848.52,-85.65 858.59,-88.95 858.45,-81.95"/>
<text text-anchor="middle" x="952.75" y="-93" font-family="Helvetica,sans-Serif" font-size="10.00"> &lt; Ark::internal::MacroScope &gt;</text>
</g>
<!-- Node15&#45;&gt;Node16 -->
<g id="edge21" class="edge">
<title>Node15&#45;&gt;Node16</title>
<path fill="none" stroke="orange" stroke-dasharray="5,2" d="M858.2,-98.11C867.46,-99.89 877,-101.67 886,-103.25 945.14,-113.64 963.65,-101.96 1019.5,-124 1028.5,-127.55 1028.7,-132.23 1037.5,-136.25 1045.2,-139.77 1053.67,-142.74 1062.01,-145.2"/>
<polygon fill="orange" stroke="orange" points="859.07,-94.72 848.59,-96.24 857.74,-101.59 859.07,-94.72"/>
<text text-anchor="middle" x="952.75" y="-125" font-family="Helvetica,sans-Serif" font-size="10.00"> &lt; std::string &gt;</text>
</g>
<!-- Node16&#45;&gt;Node5 -->
<g id="edge19" class="edge">
<title>Node16&#45;&gt;Node5</title>
<path fill="none" stroke="#9a32cd" stroke-dasharray="5,2" d="M1183.1,-159.55C1218.18,-161.78 1260.94,-164.73 1299.25,-168 1305.03,-168.49 1311.02,-169.04 1317.04,-169.61"/>
<polygon fill="#9a32cd" stroke="#9a32cd" points="1183.71,-156.08 1173.51,-158.94 1183.27,-163.06 1183.71,-156.08"/>
<text text-anchor="middle" x="1249.75" y="-169" font-family="Helvetica,sans-Serif" font-size="10.00"> m_predefined_macros</text>
</g>
<!-- Node17&#45;&gt;Node3 -->
<g id="edge23" class="edge">
<title>Node17&#45;&gt;Node3</title>
<path fill="none" stroke="orange" stroke-dasharray="5,2" d="M545.12,-19.45C587.57,-18.39 644.84,-17.25 695.38,-17.25 695.38,-17.25 695.38,-17.25 1715,-17.25 1754.51,-17.25 1798.74,-16.79 1834.12,-16.31"/>
<polygon fill="orange" stroke="orange" points="545.25,-15.94 535.34,-19.7 545.43,-22.94 545.25,-15.94"/>
<text text-anchor="middle" x="1109.88" y="-19" font-family="Helvetica,sans-Serif" font-size="10.00"> &lt; Ark::internal::MacroExecutor &gt;</text>
</g>
</g>
</svg>
        <g id="navigator" transform="translate(0 0)" fill="#404254">
                <rect fill="#f2f5e9" fill-opacity="0.5" stroke="#606060" stroke-width=".5" x="0" y="0" width="60" height="60"/>
                <use id="zoomplus" xlink:href="#zoomPlus" x="17" y="9" onmousedown="handleZoom(evt,'in')"/>
                <use id="zoomminus" xlink:href="#zoomMin" x="42" y="9" onmousedown="handleZoom(evt,'out')"/>
                <use id="reset" xlink:href="#resetDef" x="30" y="36" onmousedown="handleReset()"/>
                <g id="arrowUp" xlink:href="#dirArrow" transform="translate(30 24)" onmousedown="handlePan(0,-1)">
                  <use xlink:href="#rim" fill="#404040">
                        <set attributeName="fill" to="#808080" begin="arrowUp.mouseover" end="arrowUp.mouseout"/>
                  </use>
                  <path fill="none" stroke="white" stroke-width="1.5" d="M0,-3.0v7 M-2.5,-0.5L0,-3.0L2.5,-0.5"/>
                </g>
                <g id="arrowRight" xlink:href="#dirArrow" transform="rotate(90) translate(36 -43)" onmousedown="handlePan(1,0)">
                  <use xlink:href="#rim" fill="#404040">
                        <set attributeName="fill" to="#808080" begin="arrowRight.mouseover" end="arrowRight.mouseout"/>
                  </use>
                  <path fill="none" stroke="white" stroke-width="1.5" d="M0,-3.0v7 M-2.5,-0.5L0,-3.0L2.5,-0.5"/>
                </g>
                <g id="arrowDown" xlink:href="#dirArrow" transform="rotate(180) translate(-30 -48)" onmousedown="handlePan(0,1)">
                  <use xlink:href="#rim" fill="#404040">
                        <set attributeName="fill" to="#808080" begin="arrowDown.mouseover" end="arrowDown.mouseout"/>
                  </use>
                  <path fill="none" stroke="white" stroke-width="1.5" d="M0,-3.0v7 M-2.5,-0.5L0,-3.0L2.5,-0.5"/>
                </g>
                <g id="arrowLeft" xlink:href="#dirArrow" transform="rotate(270) translate(-36 17)" onmousedown="handlePan(-1,0)">
                  <use xlink:href="#rim" fill="#404040">
                        <set attributeName="fill" to="#808080" begin="arrowLeft.mouseover" end="arrowLeft.mouseout"/>
                  </use>
                  <path fill="none" stroke="white" stroke-width="1.5" d="M0,-3.0v7 M-2.5,-0.5L0,-3.0L2.5,-0.5"/>
                </g>
        </g>
        <svg viewBox="0 0 15 15" width="100%" height="30px" preserveAspectRatio="xMaxYMin meet">
         <g id="arrow_out" transform="scale(0.3 0.3)">
          <a xlink:href="classArk_1_1internal_1_1MacroExecutorPipeline__coll__graph_org.svg" target="_base">
           <rect id="button" ry="5" rx="5" y="6" x="6" height="38" width="38"
                fill="#f2f5e9" fill-opacity="0.5" stroke="#606060" stroke-width="1.0"/>
           <path id="arrow"
             d="M 11.500037,31.436501 C 11.940474,20.09759 22.043105,11.32322 32.158766,21.979434 L 37.068811,17.246167 C 37.068811,17.246167 37.088388,32 37.088388,32 L 22.160133,31.978069 C 22.160133,31.978069 26.997745,27.140456 26.997745,27.140456 C 18.528582,18.264221 13.291696,25.230495 11.500037,31.436501 z"
             style="fill:#404040;"/>
          </a>
         </g>
        </svg>
</svg>
