<?xml version="1.0" encoding="UTF-8" standalone="no"?>
<!DOCTYPE svg PUBLIC "-//W3C//DTD SVG 1.1//EN"
 "http://www.w3.org/Graphics/SVG/1.1/DTD/svg11.dtd">
<!-- Generated by graphviz version 12.2.0 (20241103.1931)
 -->
<!-- Title: Ark::internal::ConditionalExecutor Pages: 1 -->
<svg width="1597pt" height="502pt"
 viewBox="0.00 0.00 1596.75 501.86" xmlns="http://www.w3.org/2000/svg" xmlns:xlink="http://www.w3.org/1999/xlink">
<g id="graph0" class="graph" transform="scale(1 1) rotate(0) translate(4 497.86)">
<title>Ark::internal::ConditionalExecutor</title>
<!-- Node1 -->
<g id="Node000001" class="node">
<title>Node1</title>
<g id="a_Node000001"><a xlink:title="Handles Conditional macros.">
<polygon fill="#999999" stroke="#666666" points="1029.88,-493.86 906.62,-493.86 906.62,-463.36 1029.88,-463.36 1029.88,-493.86"/>
<text text-anchor="start" x="914.62" y="-480.36" font-family="Helvetica,sans-Serif" font-size="10.00">Ark::internal::Conditional</text>
<text text-anchor="middle" x="968.25" y="-469.11" font-family="Helvetica,sans-Serif" font-size="10.00">Executor</text>
</a>
</g>
</g>
<!-- Node2 -->
<g id="Node000002" class="node">
<title>Node2</title>
<g id="a_Node000002"><a xlink:href="../../d5/d8f/classArk_1_1internal_1_1MacroExecutor.html" target="_top" xlink:title="A class that applies macros in a Node.">
<polygon fill="white" stroke="#666666" points="718.12,-445.23 577.62,-445.23 577.62,-425.98 718.12,-425.98 718.12,-445.23"/>
<text text-anchor="middle" x="647.88" y="-431.73" font-family="Helvetica,sans-Serif" font-size="10.00">Ark::internal::MacroExecutor</text>
</a>
</g>
</g>
<!-- Node2&#45;&gt;Node1 -->
<g id="edge1_Node000001_Node000002" class="edge">
<title>Node2&#45;&gt;Node1</title>
<g id="a_edge1_Node000001_Node000002"><a xlink:title=" ">
<path fill="none" stroke="#63b8ff" d="M723.08,-447.4C728.21,-448.17 733.31,-448.91 738.25,-449.61 795.19,-457.67 860.25,-465.81 906.43,-471.4"/>
<polygon fill="#63b8ff" stroke="#63b8ff" points="723.74,-443.96 713.33,-445.93 722.69,-450.89 723.74,-443.96"/>
</a>
</g>
</g>
<!-- Node18 -->
<g id="Node000018" class="node">
<title>Node18</title>
<g id="a_Node000018"><a xlink:title=" ">
<polygon fill="white" stroke="#666666" points="1035.5,-397.86 901,-397.86 901,-367.36 1035.5,-367.36 1035.5,-397.86"/>
<text text-anchor="start" x="909" y="-384.36" font-family="Helvetica,sans-Serif" font-size="10.00">std::shared_ptr&lt; Ark</text>
<text text-anchor="middle" x="968.25" y="-373.11" font-family="Helvetica,sans-Serif" font-size="10.00">::internal::MacroExecutor &gt;</text>
</a>
</g>
</g>
<!-- Node2&#45;&gt;Node18 -->
<g id="edge26_Node000018_Node000002" class="edge">
<title>Node2&#45;&gt;Node18</title>
<g id="a_edge26_Node000018_Node000002"><a xlink:title=" ">
<path fill="none" stroke="#9a32cd" stroke-dasharray="5,2" d="M690.91,-422.29C705.75,-417.97 722.63,-413.49 738.25,-410.36 792.44,-399.49 854.75,-392.28 900.68,-387.93"/>
<polygon fill="#9a32cd" stroke="#9a32cd" points="690.06,-418.89 681.47,-425.1 692.05,-425.6 690.06,-418.89"/>
</a>
</g>
<text text-anchor="middle" x="810.62" y="-412.11" font-family="Helvetica,sans-Serif" font-size="10.00" fill="grey"> ptr</text>
</g>
<!-- Node3 -->
<g id="Node000003" class="node">
<title>Node3</title>
<g id="a_Node000003"><a xlink:href="../../d5/db5/classArk_1_1internal_1_1MacroProcessor.html" target="_top" xlink:title="The class handling the macros definitions and calls, given an AST.">
<polygon fill="white" stroke="#666666" points="1588.75,-275.23 1443,-275.23 1443,-255.98 1588.75,-255.98 1588.75,-275.23"/>
<text text-anchor="middle" x="1515.88" y="-261.73" font-family="Helvetica,sans-Serif" font-size="10.00">Ark::internal::MacroProcessor</text>
</a>
</g>
</g>
<!-- Node3&#45;&gt;Node2 -->
<g id="edge2_Node000002_Node000003" class="edge">
<title>Node3&#45;&gt;Node2</title>
<g id="a_edge2_Node000002_Node000003"><a xlink:title=" ">
<path fill="none" stroke="#9a32cd" stroke-dasharray="5,2" d="M1500.03,-284.04C1473.48,-315.29 1414.34,-377.35 1347.75,-398.61 1232.15,-435.52 871.46,-437.36 718.53,-436.38"/>
<polygon fill="#9a32cd" stroke="#9a32cd" points="1502.54,-286.5 1506.23,-276.57 1497.15,-282.03 1502.54,-286.5"/>
</a>
</g>
<text text-anchor="middle" x="1100" y="-432.93" font-family="Helvetica,sans-Serif" font-size="10.00" fill="grey"> m_processor</text>
</g>
<!-- Node4 -->
<g id="Node000004" class="node">
<title>Node4</title>
<g id="a_Node000004"><a xlink:href="../../da/d7b/classArk_1_1internal_1_1Pass.html" target="_top" xlink:title="An interface to describe compiler passes.">
<polygon fill="white" stroke="#666666" points="1304.62,-208.23 1207.62,-208.23 1207.62,-188.98 1304.62,-188.98 1304.62,-208.23"/>
<text text-anchor="middle" x="1256.12" y="-194.73" font-family="Helvetica,sans-Serif" font-size="10.00">Ark::internal::Pass</text>
</a>
</g>
</g>
<!-- Node4&#45;&gt;Node3 -->
<g id="edge3_Node000003_Node000004" class="edge">
<title>Node4&#45;&gt;Node3</title>
<g id="a_edge3_Node000003_Node000004"><a xlink:title=" ">
<path fill="none" stroke="#63b8ff" d="M1307.05,-211.59C1356.45,-224.43 1431.02,-243.81 1476.11,-255.53"/>
<polygon fill="#63b8ff" stroke="#63b8ff" points="1308.02,-208.22 1297.46,-209.09 1306.25,-215 1308.02,-208.22"/>
</a>
</g>
</g>
<!-- Node5 -->
<g id="Node000005" class="node">
<title>Node5</title>
<g id="a_Node000005"><a xlink:href="../../d6/d2f/classArk_1_1internal_1_1Logger.html" target="_top" xlink:title=" ">
<polygon fill="white" stroke="#666666" points="1020.12,-188.23 916.38,-188.23 916.38,-168.98 1020.12,-168.98 1020.12,-188.23"/>
<text text-anchor="middle" x="968.25" y="-174.73" font-family="Helvetica,sans-Serif" font-size="10.00">Ark::internal::Logger</text>
</a>
</g>
</g>
<!-- Node5&#45;&gt;Node4 -->
<g id="edge4_Node000004_Node000005" class="edge">
<title>Node5&#45;&gt;Node4</title>
<g id="a_edge4_Node000004_Node000005"><a xlink:title=" ">
<path fill="none" stroke="#9a32cd" stroke-dasharray="5,2" d="M1031.62,-182.97C1084.45,-186.67 1159.1,-191.89 1207.31,-195.26"/>
<polygon fill="#9a32cd" stroke="#9a32cd" points="1032.09,-179.5 1021.87,-182.29 1031.6,-186.48 1032.09,-179.5"/>
</a>
</g>
<text text-anchor="middle" x="1100" y="-192.74" font-family="Helvetica,sans-Serif" font-size="10.00" fill="grey"> m_logger</text>
</g>
<!-- Node6 -->
<g id="Node000006" class="node">
<title>Node6</title>
<g id="a_Node000006"><a xlink:title=" ">
<polygon fill="white" stroke="#666666" points="190.5,-94.23 131,-94.23 131,-74.98 190.5,-74.98 190.5,-94.23"/>
<text text-anchor="middle" x="160.75" y="-80.73" font-family="Helvetica,sans-Serif" font-size="10.00">std::string</text>
</a>
</g>
</g>
<!-- Node6&#45;&gt;Node5 -->
<g id="edge5_Node000005_Node000006" class="edge">
<title>Node6&#45;&gt;Node5</title>
<g id="a_edge5_Node000005_Node000006"><a xlink:title=" ">
<path fill="none" stroke="#9a32cd" stroke-dasharray="5,2" d="M170.56,-64.25C178.23,-49.29 190.89,-30 208.5,-20.61 287.73,21.65 320.74,-13.94 410.5,-16.61 549.08,-20.73 617.52,39.49 720.25,-53.61 742.46,-73.74 716.91,-97.56 738.25,-118.61 763.2,-143.21 856.49,-161.66 916.03,-171.23"/>
<polygon fill="#9a32cd" stroke="#9a32cd" points="167.42,-62.71 166.32,-73.24 173.75,-65.69 167.42,-62.71"/>
</a>
</g>
<text text-anchor="middle" x="493" y="-18.54" font-family="Helvetica,sans-Serif" font-size="10.00" fill="grey"> m_name</text>
</g>
<!-- Node8 -->
<g id="Node000008" class="node">
<title>Node8</title>
<g id="a_Node000008"><a xlink:title=" ">
<polygon fill="white" stroke="#666666" points="709.12,-259.73 586.62,-259.73 586.62,-195.48 709.12,-195.48 709.12,-259.73"/>
<text text-anchor="start" x="594.62" y="-246.23" font-family="Helvetica,sans-Serif" font-size="10.00">std::unordered_map</text>
<text text-anchor="start" x="594.62" y="-234.98" font-family="Helvetica,sans-Serif" font-size="10.00">&lt; std::string, std::</text>
<text text-anchor="start" x="594.62" y="-223.73" font-family="Helvetica,sans-Serif" font-size="10.00">chrono::time_point&lt; std</text>
<text text-anchor="start" x="594.62" y="-212.48" font-family="Helvetica,sans-Serif" font-size="10.00">::chrono::high_resolution</text>
<text text-anchor="middle" x="647.88" y="-201.23" font-family="Helvetica,sans-Serif" font-size="10.00">_clock &gt; &gt;</text>
</a>
</g>
</g>
<!-- Node6&#45;&gt;Node8 -->
<g id="edge8_Node000008_Node000006" class="edge">
<title>Node6&#45;&gt;Node8</title>
<g id="a_edge8_Node000008_Node000006"><a xlink:title=" ">
<path fill="none" stroke="#9a32cd" stroke-dasharray="5,2" d="M189.07,-99.93C195.33,-103.08 202.05,-106.17 208.5,-108.61 302.86,-144.32 330.3,-141.46 428.5,-164.61 485.6,-178.07 501.34,-175.64 557.5,-192.61 566.91,-195.45 576.73,-198.85 586.27,-202.38"/>
<polygon fill="#9a32cd" stroke="#9a32cd" points="190.9,-96.94 180.42,-95.39 187.65,-103.14 190.9,-96.94"/>
</a>
</g>
<text text-anchor="middle" x="359.38" y="-162.06" font-family="Helvetica,sans-Serif" font-size="10.00" fill="grey"> keys</text>
</g>
<!-- Node12 -->
<g id="Node000012" class="node">
<title>Node12</title>
<g id="a_Node000012"><a xlink:title=" ">
<polygon fill="white" stroke="#666666" points="709.88,-177.23 585.88,-177.23 585.88,-157.98 709.88,-157.98 709.88,-177.23"/>
<text text-anchor="middle" x="647.88" y="-163.73" font-family="Helvetica,sans-Serif" font-size="10.00">std::vector&lt; std::string &gt;</text>
</a>
</g>
</g>
<!-- Node6&#45;&gt;Node12 -->
<g id="edge13_Node000012_Node000006" class="edge">
<title>Node6&#45;&gt;Node12</title>
<g id="a_edge13_Node000012_Node000006"><a xlink:title=" ">
<path fill="none" stroke="#9a32cd" stroke-dasharray="5,2" d="M202.4,-84.52C231.8,-84.46 272.48,-84.39 308.25,-84.36 353.69,-84.32 365.4,-78.73 410.5,-84.36 477.38,-92.7 494.46,-97.76 557.5,-121.61 583.94,-131.61 612.71,-147.38 630.27,-157.6"/>
<polygon fill="#9a32cd" stroke="#9a32cd" points="202.44,-81.02 192.45,-84.54 202.46,-88.02 202.44,-81.02"/>
</a>
</g>
<text text-anchor="middle" x="359.38" y="-86.11" font-family="Helvetica,sans-Serif" font-size="10.00" fill="grey"> elements</text>
</g>
<!-- Node14 -->
<g id="Node000014" class="node">
<title>Node14</title>
<g id="a_Node000014"><a xlink:href="../../dc/d9e/classArk_1_1internal_1_1Node.html" target="_top" xlink:title="A node of an Abstract Syntax Tree for ArkScript.">
<polygon fill="white" stroke="#666666" points="408.25,-45.23 310.5,-45.23 310.5,-25.98 408.25,-25.98 408.25,-45.23"/>
<text text-anchor="middle" x="359.38" y="-31.73" font-family="Helvetica,sans-Serif" font-size="10.00">Ark::internal::Node</text>
</a>
</g>
</g>
<!-- Node6&#45;&gt;Node14 -->
<g id="edge17_Node000014_Node000006" class="edge">
<title>Node6&#45;&gt;Node14</title>
<g id="a_edge17_Node000014_Node000006"><a xlink:title=" ">
<path fill="none" stroke="#9a32cd" stroke-dasharray="5,2" d="M174.46,-65.62C182.75,-55.01 194.6,-42.77 208.5,-36.86 240.47,-23.26 279.85,-23.51 310.22,-26.85"/>
<polygon fill="#9a32cd" stroke="#9a32cd" points="171.82,-63.3 168.78,-73.45 177.48,-67.42 171.82,-63.3"/>
</a>
</g>
<text text-anchor="middle" x="249.38" y="-61.11" font-family="Helvetica,sans-Serif" font-size="10.00" fill="grey"> m_after_comment</text>
<text text-anchor="middle" x="249.38" y="-49.86" font-family="Helvetica,sans-Serif" font-size="10.00" fill="grey">m_comment</text>
<text text-anchor="middle" x="249.38" y="-38.61" font-family="Helvetica,sans-Serif" font-size="10.00" fill="grey">m_filename</text>
</g>
<!-- Node17 -->
<g id="Node000017" class="node">
<title>Node17</title>
<g id="a_Node000017"><a xlink:title=" ">
<polygon fill="white" stroke="#666666" points="699,-104.48 596.75,-104.48 596.75,-62.73 699,-62.73 699,-104.48"/>
<text text-anchor="start" x="604.75" y="-90.98" font-family="Helvetica,sans-Serif" font-size="10.00">std::unordered_map</text>
<text text-anchor="start" x="604.75" y="-79.73" font-family="Helvetica,sans-Serif" font-size="10.00">&lt; std::string, Ark::</text>
<text text-anchor="middle" x="647.88" y="-68.48" font-family="Helvetica,sans-Serif" font-size="10.00">internal::Node &gt;</text>
</a>
</g>
</g>
<!-- Node6&#45;&gt;Node17 -->
<g id="edge21_Node000017_Node000006" class="edge">
<title>Node6&#45;&gt;Node17</title>
<g id="a_edge21_Node000017_Node000006"><a xlink:title=" ">
<path fill="none" stroke="#9a32cd" stroke-dasharray="5,2" d="M201.93,-89.84C231.32,-93.39 272.18,-97.77 308.25,-99.61 353.64,-101.93 365.21,-103.36 410.5,-99.61 418.58,-98.94 420.44,-97.52 428.5,-96.61 485.87,-90.14 552.09,-86.77 596.44,-85.1"/>
<polygon fill="#9a32cd" stroke="#9a32cd" points="202.72,-86.41 192.37,-88.66 201.87,-93.36 202.72,-86.41"/>
</a>
</g>
<text text-anchor="middle" x="359.38" y="-103.66" font-family="Helvetica,sans-Serif" font-size="10.00" fill="grey"> keys</text>
</g>
<!-- Node7 -->
<g id="Node000007" class="node">
<title>Node7</title>
<g id="a_Node000007"><a xlink:title=" ">
<polygon fill="white" stroke="#666666" points="94,-99.86 0,-99.86 0,-69.36 94,-69.36 94,-99.86"/>
<text text-anchor="start" x="8" y="-86.36" font-family="Helvetica,sans-Serif" font-size="10.00">std::basic_string&lt;</text>
<text text-anchor="middle" x="47" y="-75.11" font-family="Helvetica,sans-Serif" font-size="10.00"> Char &gt;</text>
</a>
</g>
</g>
<!-- Node7&#45;&gt;Node6 -->
<g id="edge6_Node000006_Node000007" class="edge">
<title>Node7&#45;&gt;Node6</title>
<g id="a_edge6_Node000006_Node000007"><a xlink:title=" ">
<path fill="none" stroke="#63b8ff" d="M105.71,-84.61C114.32,-84.61 122.87,-84.61 130.55,-84.61"/>
<polygon fill="#63b8ff" stroke="#63b8ff" points="105.93,-81.11 95.93,-84.61 105.93,-88.11 105.93,-81.11"/>
</a>
</g>
</g>
<!-- Node8&#45;&gt;Node5 -->
<g id="edge7_Node000005_Node000008" class="edge">
<title>Node8&#45;&gt;Node5</title>
<g id="a_edge7_Node000005_Node000008"><a xlink:title=" ">
<path fill="none" stroke="#9a32cd" stroke-dasharray="5,2" d="M720.69,-216.56C780.14,-207.41 863.13,-194.63 916.04,-186.49"/>
<polygon fill="#9a32cd" stroke="#9a32cd" points="720.36,-213.07 711,-218.05 721.42,-219.99 720.36,-213.07"/>
</a>
</g>
<text text-anchor="middle" x="810.62" y="-214.88" font-family="Helvetica,sans-Serif" font-size="10.00" fill="grey"> m_trace_starts</text>
</g>
<!-- Node9 -->
<g id="Node000009" class="node">
<title>Node9</title>
<g id="a_Node000009"><a xlink:title=" ">
<polygon fill="white" stroke="#666666" points="410.5,-259.86 308.25,-259.86 308.25,-229.36 410.5,-229.36 410.5,-259.86"/>
<text text-anchor="start" x="316.25" y="-246.36" font-family="Helvetica,sans-Serif" font-size="10.00">std::unordered_map</text>
<text text-anchor="middle" x="359.38" y="-235.11" font-family="Helvetica,sans-Serif" font-size="10.00">&lt; K, T &gt;</text>
</a>
</g>
</g>
<!-- Node9&#45;&gt;Node8 -->
<g id="edge9_Node000008_Node000009" class="edge">
<title>Node9&#45;&gt;Node8</title>
<g id="a_edge9_Node000008_Node000009"><a xlink:title=" ">
<path fill="none" stroke="orange" stroke-dasharray="5,2" d="M422.23,-240.94C470.74,-238.06 537.9,-234.08 586.13,-231.21"/>
<polygon fill="orange" stroke="orange" points="422.22,-237.43 412.45,-241.52 422.64,-244.42 422.22,-237.43"/>
</a>
</g>
<text text-anchor="start" x="428.5" y="-276" font-family="Helvetica,sans-Serif" font-size="10.00" fill="grey"> &lt; std::string, std</text>
<text text-anchor="start" x="428.5" y="-264.75" font-family="Helvetica,sans-Serif" font-size="10.00" fill="grey">::chrono::time_point</text>
<text text-anchor="start" x="428.5" y="-253.5" font-family="Helvetica,sans-Serif" font-size="10.00" fill="grey">&lt; std::chrono::high_resolution</text>
<text text-anchor="middle" x="493" y="-242.25" font-family="Helvetica,sans-Serif" font-size="10.00" fill="grey">_clock &gt; &gt;</text>
</g>
<!-- Node9&#45;&gt;Node17 -->
<g id="edge23_Node000017_Node000009" class="edge">
<title>Node9&#45;&gt;Node17</title>
<g id="a_edge23_Node000017_Node000009"><a xlink:title=" ">
<path fill="none" stroke="orange" stroke-dasharray="5,2" d="M387.52,-221.35C395.76,-213.23 404.27,-203.62 410.5,-193.61 423.31,-173.02 410.73,-158.6 428.5,-142.11 452.74,-119.61 539.67,-101.39 596.27,-91.56"/>
<polygon fill="orange" stroke="orange" points="385.13,-218.79 380.24,-228.19 389.93,-223.89 385.13,-218.79"/>
</a>
</g>
<text text-anchor="start" x="455.12" y="-155.11" font-family="Helvetica,sans-Serif" font-size="10.00" fill="grey"> &lt; std::string, Ark</text>
<text text-anchor="middle" x="493" y="-143.86" font-family="Helvetica,sans-Serif" font-size="10.00" fill="grey">::internal::Node &gt;</text>
</g>
<!-- Node10 -->
<g id="Node000010" class="node">
<title>Node10</title>
<g id="a_Node000010"><a xlink:title=" ">
<polygon fill="white" stroke="#666666" points="175.15,-252.23 146.35,-252.23 146.35,-232.98 175.15,-232.98 175.15,-252.23"/>
<text text-anchor="middle" x="160.75" y="-238.73" font-family="Helvetica,sans-Serif" font-size="10.00">K</text>
</a>
</g>
</g>
<!-- Node10&#45;&gt;Node9 -->
<g id="edge10_Node000009_Node000010" class="edge">
<title>Node10&#45;&gt;Node9</title>
<g id="a_edge10_Node000009_Node000010"><a xlink:title=" ">
<path fill="none" stroke="#9a32cd" stroke-dasharray="5,2" d="M187.01,-242.66C212.92,-242.74 254.4,-242.93 290.25,-243.36 295.93,-243.43 301.87,-243.51 307.78,-243.61"/>
<polygon fill="#9a32cd" stroke="#9a32cd" points="187.15,-239.16 177.15,-242.64 187.14,-246.16 187.15,-239.16"/>
</a>
</g>
<text text-anchor="middle" x="249.38" y="-245.11" font-family="Helvetica,sans-Serif" font-size="10.00" fill="grey"> keys</text>
</g>
<!-- Node11 -->
<g id="Node000011" class="node">
<title>Node11</title>
<g id="a_Node000011"><a xlink:title=" ">
<polygon fill="white" stroke="#666666" points="175.15,-320.23 146.35,-320.23 146.35,-300.98 175.15,-300.98 175.15,-320.23"/>
<text text-anchor="middle" x="160.75" y="-306.73" font-family="Helvetica,sans-Serif" font-size="10.00">T</text>
</a>
</g>
</g>
<!-- Node11&#45;&gt;Node9 -->
<g id="edge11_Node000009_Node000011" class="edge">
<title>Node11&#45;&gt;Node9</title>
<g id="a_edge11_Node000009_Node000011"><a xlink:title=" ">
<path fill="none" stroke="#9a32cd" stroke-dasharray="5,2" d="M186.39,-301.31C193.5,-298.69 201.29,-295.86 208.5,-293.36 241.72,-281.83 279.35,-269.6 308.6,-260.26"/>
<polygon fill="#9a32cd" stroke="#9a32cd" points="185.17,-298.03 177.03,-304.81 187.62,-304.59 185.17,-298.03"/>
</a>
</g>
<text text-anchor="middle" x="249.38" y="-295.11" font-family="Helvetica,sans-Serif" font-size="10.00" fill="grey"> elements</text>
</g>
<!-- Node13 -->
<g id="Node000013" class="node">
<title>Node13</title>
<g id="a_Node000013"><a xlink:title=" ">
<polygon fill="white" stroke="#666666" points="402.62,-317.23 316.12,-317.23 316.12,-297.98 402.62,-297.98 402.62,-317.23"/>
<text text-anchor="middle" x="359.38" y="-303.73" font-family="Helvetica,sans-Serif" font-size="10.00">std::vector&lt; T &gt;</text>
</a>
</g>
</g>
<!-- Node11&#45;&gt;Node13 -->
<g id="edge15_Node000013_Node000011" class="edge">
<title>Node11&#45;&gt;Node13</title>
<g id="a_edge15_Node000013_Node000011"><a xlink:title=" ">
<path fill="none" stroke="#9a32cd" stroke-dasharray="5,2" d="M186.71,-310.23C219.13,-309.73 276.24,-308.86 315.63,-308.26"/>
<polygon fill="#9a32cd" stroke="#9a32cd" points="187.04,-306.72 177.09,-310.38 187.14,-313.72 187.04,-306.72"/>
</a>
</g>
<text text-anchor="middle" x="249.38" y="-311.63" font-family="Helvetica,sans-Serif" font-size="10.00" fill="grey"> elements</text>
</g>
<!-- Node19 -->
<g id="Node000019" class="node">
<title>Node19</title>
<g id="a_Node000019"><a xlink:title=" ">
<polygon fill="white" stroke="#666666" points="545.62,-375.23 440.38,-375.23 440.38,-355.98 545.62,-355.98 545.62,-375.23"/>
<text text-anchor="middle" x="493" y="-361.73" font-family="Helvetica,sans-Serif" font-size="10.00">std::shared_ptr&lt; T &gt;</text>
</a>
</g>
</g>
<!-- Node11&#45;&gt;Node19 -->
<g id="edge28_Node000019_Node000011" class="edge">
<title>Node11&#45;&gt;Node19</title>
<g id="a_edge28_Node000019_Node000011"><a xlink:title=" ">
<path fill="none" stroke="#9a32cd" stroke-dasharray="5,2" d="M186.23,-319.33C193.35,-321.63 201.17,-323.93 208.5,-325.61 288.32,-343.91 382.82,-355.22 440.04,-360.96"/>
<polygon fill="#9a32cd" stroke="#9a32cd" points="187.52,-316.07 176.92,-316.18 185.28,-322.7 187.52,-316.07"/>
</a>
</g>
<text text-anchor="middle" x="249.38" y="-342.44" font-family="Helvetica,sans-Serif" font-size="10.00" fill="grey"> ptr</text>
</g>
<!-- Node12&#45;&gt;Node5 -->
<g id="edge12_Node000005_Node000012" class="edge">
<title>Node12&#45;&gt;Node5</title>
<g id="a_edge12_Node000005_Node000012"><a xlink:title=" ">
<path fill="none" stroke="#9a32cd" stroke-dasharray="5,2" d="M721.44,-170.12C780.83,-172.17 863.35,-175.02 916.03,-176.84"/>
<polygon fill="#9a32cd" stroke="#9a32cd" points="721.89,-166.63 711.77,-169.78 721.65,-173.63 721.89,-166.63"/>
</a>
</g>
<text text-anchor="middle" x="810.62" y="-177.41" font-family="Helvetica,sans-Serif" font-size="10.00" fill="grey"> m_active_traces</text>
</g>
<!-- Node13&#45;&gt;Node12 -->
<g id="edge14_Node000012_Node000013" class="edge">
<title>Node13&#45;&gt;Node12</title>
<g id="a_edge14_Node000012_Node000013"><a xlink:title=" ">
<path fill="none" stroke="orange" stroke-dasharray="5,2" d="M387.04,-291.28C395.48,-285.05 404.23,-277.32 410.5,-268.61 424.6,-249.01 410.49,-233.43 428.5,-217.36 471.3,-179.18 537.27,-168.48 585.51,-166.27"/>
<polygon fill="orange" stroke="orange" points="385.29,-288.24 379.04,-296.79 389.26,-294 385.29,-288.24"/>
</a>
</g>
<text text-anchor="middle" x="493" y="-219.11" font-family="Helvetica,sans-Serif" font-size="10.00" fill="grey"> &lt; std::string &gt;</text>
</g>
<!-- Node15 -->
<g id="Node000015" class="node">
<title>Node15</title>
<g id="a_Node000015"><a xlink:title=" ">
<polygon fill="white" stroke="#666666" points="1317.75,-280.86 1194.5,-280.86 1194.5,-250.36 1317.75,-250.36 1317.75,-280.86"/>
<text text-anchor="start" x="1202.5" y="-267.36" font-family="Helvetica,sans-Serif" font-size="10.00">std::vector&lt; Ark::internal</text>
<text text-anchor="middle" x="1256.12" y="-256.11" font-family="Helvetica,sans-Serif" font-size="10.00">::MacroScope &gt;</text>
</a>
</g>
</g>
<!-- Node13&#45;&gt;Node15 -->
<g id="edge24_Node000015_Node000013" class="edge">
<title>Node13&#45;&gt;Node15</title>
<g id="a_edge24_Node000015_Node000013"><a xlink:title=" ">
<path fill="none" stroke="orange" stroke-dasharray="5,2" d="M414.14,-305.09C571.16,-297.71 1028.39,-276.25 1194.18,-268.47"/>
<polygon fill="orange" stroke="orange" points="414.27,-301.58 404.44,-305.54 414.59,-308.57 414.27,-301.58"/>
</a>
</g>
<text text-anchor="middle" x="810.62" y="-291.26" font-family="Helvetica,sans-Serif" font-size="10.00" fill="grey"> &lt; Ark::internal::MacroScope &gt;</text>
</g>
<!-- Node20 -->
<g id="Node000020" class="node">
<title>Node20</title>
<g id="a_Node000020"><a xlink:title=" ">
<polygon fill="white" stroke="#666666" points="1347.75,-345.86 1164.5,-345.86 1164.5,-315.36 1347.75,-315.36 1347.75,-345.86"/>
<text text-anchor="start" x="1172.5" y="-332.36" font-family="Helvetica,sans-Serif" font-size="10.00">std::vector&lt; std::shared</text>
<text text-anchor="middle" x="1256.12" y="-321.11" font-family="Helvetica,sans-Serif" font-size="10.00">_ptr&lt; Ark::internal::MacroExecutor &gt; &gt;</text>
</a>
</g>
</g>
<!-- Node13&#45;&gt;Node20 -->
<g id="edge31_Node000020_Node000013" class="edge">
<title>Node13&#45;&gt;Node20</title>
<g id="a_edge31_Node000020_Node000013"><a xlink:title=" ">
<path fill="none" stroke="orange" stroke-dasharray="5,2" d="M414.1,-315.29C418.96,-315.81 423.82,-316.26 428.5,-316.61 695.27,-336.42 1011.74,-334.81 1164.15,-332.46"/>
<polygon fill="orange" stroke="orange" points="414.66,-311.83 404.32,-314.15 413.85,-318.78 414.66,-311.83"/>
</a>
</g>
<text text-anchor="start" x="738.25" y="-346.3" font-family="Helvetica,sans-Serif" font-size="10.00" fill="grey"> &lt; std::shared_ptr&lt;</text>
<text text-anchor="middle" x="810.62" y="-335.05" font-family="Helvetica,sans-Serif" font-size="10.00" fill="grey"> Ark::internal::MacroExecutor &gt; &gt;</text>
</g>
<!-- Node14&#45;&gt;Node3 -->
<g id="edge16_Node000003_Node000014" class="edge">
<title>Node14&#45;&gt;Node3</title>
<g id="a_edge16_Node000003_Node000014"><a xlink:title=" ">
<path fill="none" stroke="#9a32cd" stroke-dasharray="5,2" d="M419.93,-35.39C505.96,-35.1 670,-34.61 809.62,-34.61 809.62,-34.61 809.62,-34.61 1257.12,-34.61 1391.73,-34.61 1488.11,-211.47 1510.11,-255.68"/>
<polygon fill="#9a32cd" stroke="#9a32cd" points="420.08,-31.89 410.09,-35.43 420.1,-38.89 420.08,-31.89"/>
</a>
</g>
<text text-anchor="middle" x="968.25" y="-36.36" font-family="Helvetica,sans-Serif" font-size="10.00" fill="grey"> m_ast</text>
</g>
<!-- Node14&#45;&gt;Node17 -->
<g id="edge22_Node000017_Node000014" class="edge">
<title>Node14&#45;&gt;Node17</title>
<g id="a_edge22_Node000017_Node000014"><a xlink:title=" ">
<path fill="none" stroke="#9a32cd" stroke-dasharray="5,2" d="M419.78,-39.43C459.12,-42.63 511.72,-48.18 557.5,-57.36 570.34,-59.93 584.01,-63.51 596.69,-67.19"/>
<polygon fill="#9a32cd" stroke="#9a32cd" points="420.29,-35.96 410.05,-38.67 419.74,-42.94 420.29,-35.96"/>
</a>
</g>
<text text-anchor="middle" x="493" y="-59.11" font-family="Helvetica,sans-Serif" font-size="10.00" fill="grey"> elements</text>
</g>
<!-- Node15&#45;&gt;Node3 -->
<g id="edge18_Node000003_Node000015" class="edge">
<title>Node15&#45;&gt;Node3</title>
<g id="a_edge18_Node000003_Node000015"><a xlink:title=" ">
<path fill="none" stroke="#9a32cd" stroke-dasharray="5,2" d="M1329.44,-265.61C1364.86,-265.61 1407.4,-265.61 1442.79,-265.61"/>
<polygon fill="#9a32cd" stroke="#9a32cd" points="1329.72,-262.11 1319.72,-265.61 1329.72,-269.11 1329.72,-262.11"/>
</a>
</g>
<text text-anchor="middle" x="1395.38" y="-267.36" font-family="Helvetica,sans-Serif" font-size="10.00" fill="grey"> m_macros</text>
</g>
<!-- Node16 -->
<g id="Node000016" class="node">
<title>Node16</title>
<g id="a_Node000016"><a xlink:href="../../d6/d42/classArk_1_1internal_1_1MacroScope.html" target="_top" xlink:title=" ">
<polygon fill="white" stroke="#666666" points="1032.88,-138.23 903.62,-138.23 903.62,-118.98 1032.88,-118.98 1032.88,-138.23"/>
<text text-anchor="middle" x="968.25" y="-124.73" font-family="Helvetica,sans-Serif" font-size="10.00">Ark::internal::MacroScope</text>
</a>
</g>
</g>
<!-- Node16&#45;&gt;Node15 -->
<g id="edge19_Node000015_Node000016" class="edge">
<title>Node16&#45;&gt;Node15</title>
<g id="a_edge19_Node000015_Node000016"><a xlink:title=" ">
<path fill="none" stroke="#9a32cd" stroke-dasharray="5,2" d="M1013.41,-143.43C1021.52,-147.68 1029.36,-153.01 1035.5,-159.61 1050.74,-175.98 1037.06,-191.45 1053.5,-206.61 1091.84,-241.96 1150.26,-256.23 1194.36,-261.94"/>
<polygon fill="#9a32cd" stroke="#9a32cd" points="1015,-140.32 1004.46,-139.26 1012.04,-146.66 1015,-140.32"/>
</a>
</g>
<text text-anchor="middle" x="1100" y="-253.79" font-family="Helvetica,sans-Serif" font-size="10.00" fill="grey"> elements</text>
</g>
<!-- Node17&#45;&gt;Node3 -->
<g id="edge32_Node000003_Node000017" class="edge">
<title>Node17&#45;&gt;Node3</title>
<g id="a_edge32_Node000003_Node000017"><a xlink:title=" ">
<path fill="none" stroke="#9a32cd" stroke-dasharray="5,2" d="M710.46,-83.49C834.79,-85.09 1123.06,-98.13 1347.75,-179.61 1406.03,-200.75 1469.86,-237.88 1498.9,-255.62"/>
<polygon fill="#9a32cd" stroke="#9a32cd" points="710.86,-80 700.82,-83.39 710.78,-87 710.86,-80"/>
</a>
</g>
<text text-anchor="middle" x="1100" y="-125.98" font-family="Helvetica,sans-Serif" font-size="10.00" fill="grey"> m_defined_functions</text>
</g>
<!-- Node17&#45;&gt;Node16 -->
<g id="edge20_Node000016_Node000017" class="edge">
<title>Node17&#45;&gt;Node16</title>
<g id="a_edge20_Node000016_Node000017"><a xlink:title=" ">
<path fill="none" stroke="#9a32cd" stroke-dasharray="5,2" d="M710.4,-92.31C765.87,-100.15 847.11,-111.63 903.31,-119.57"/>
<polygon fill="#9a32cd" stroke="#9a32cd" points="711.21,-88.89 700.82,-90.95 710.23,-95.82 711.21,-88.89"/>
</a>
</g>
<text text-anchor="middle" x="810.62" y="-118.29" font-family="Helvetica,sans-Serif" font-size="10.00" fill="grey"> m_macros</text>
</g>
<!-- Node18&#45;&gt;Node3 -->
<g id="edge25_Node000003_Node000018" class="edge">
<title>Node18&#45;&gt;Node3</title>
<g id="a_edge25_Node000003_Node000018"><a xlink:title=" ">
<path fill="none" stroke="#9a32cd" stroke-dasharray="5,2" d="M1047.07,-385.85C1124.71,-387.01 1246.67,-383.16 1347.75,-354.61 1409.12,-337.27 1473.45,-295.1 1501.01,-275.69"/>
<polygon fill="#9a32cd" stroke="#9a32cd" points="1047.52,-382.36 1037.46,-385.68 1047.39,-389.36 1047.52,-382.36"/>
</a>
</g>
<text text-anchor="middle" x="1256.12" y="-384.78" font-family="Helvetica,sans-Serif" font-size="10.00" fill="grey"> m_conditional_executor</text>
</g>
<!-- Node18&#45;&gt;Node20 -->
<g id="edge30_Node000020_Node000018" class="edge">
<title>Node18&#45;&gt;Node20</title>
<g id="a_edge30_Node000020_Node000018"><a xlink:title=" ">
<path fill="none" stroke="#9a32cd" stroke-dasharray="5,2" d="M1046.97,-365.63C1049.17,-365.2 1051.35,-364.77 1053.5,-364.36 1089.58,-357.44 1129.44,-350.6 1164.13,-344.9"/>
<polygon fill="#9a32cd" stroke="#9a32cd" points="1046.47,-362.16 1037.36,-367.57 1047.85,-369.02 1046.47,-362.16"/>
</a>
</g>
<text text-anchor="middle" x="1100" y="-366.11" font-family="Helvetica,sans-Serif" font-size="10.00" fill="grey"> elements</text>
</g>
<!-- Node19&#45;&gt;Node18 -->
<g id="edge27_Node000018_Node000019" class="edge">
<title>Node19&#45;&gt;Node18</title>
<g id="a_edge27_Node000018_Node000019"><a xlink:title=" ">
<path fill="none" stroke="orange" stroke-dasharray="5,2" d="M557.34,-367.88C646.84,-371.1 809.58,-376.95 900.77,-380.22"/>
<polygon fill="orange" stroke="orange" points="557.63,-364.39 547.51,-367.53 557.38,-371.39 557.63,-364.39"/>
</a>
</g>
<text text-anchor="middle" x="647.88" y="-375.13" font-family="Helvetica,sans-Serif" font-size="10.00" fill="grey"> &lt; Ark::internal::MacroExecutor &gt;</text>
</g>
<!-- Node20&#45;&gt;Node3 -->
<g id="edge29_Node000003_Node000020" class="edge">
<title>Node20&#45;&gt;Node3</title>
<g id="a_edge29_Node000003_Node000020"><a xlink:title=" ">
<path fill="none" stroke="#9a32cd" stroke-dasharray="5,2" d="M1330.57,-312.09C1377.55,-300.24 1436.68,-285.33 1475.11,-275.64"/>
<polygon fill="#9a32cd" stroke="#9a32cd" points="1329.83,-308.67 1320.99,-314.5 1331.54,-315.45 1329.83,-308.67"/>
</a>
</g>
<text text-anchor="middle" x="1395.38" y="-303.75" font-family="Helvetica,sans-Serif" font-size="10.00" fill="grey"> m_executors</text>
</g>
</g>
</svg>
