<?xml version="1.0" encoding="UTF-8" standalone="no"?>
<!DOCTYPE svg PUBLIC "-//W3C//DTD SVG 1.1//EN"
 "http://www.w3.org/Graphics/SVG/1.1/DTD/svg11.dtd">
<!-- Generated by graphviz version 10.0.1 (20240210.2158)
 -->
<!-- Title: /Users/fola/Documents/ArkScript/Ark/src/arkreactor/VM/Plugin.cpp Pages: 1 -->
<svg width="326pt" height="160pt"
 viewBox="0.00 0.00 325.50 160.25" xmlns="http://www.w3.org/2000/svg" xmlns:xlink="http://www.w3.org/1999/xlink">
<g id="graph0" class="graph" transform="scale(1 1) rotate(0) translate(4 156.25)">
<title>/Users/fola/Documents/ArkScript/Ark/src/arkreactor/VM/Plugin.cpp</title>
<!-- Node1 -->
<g id="node1" class="node">
<title>Node1</title>
<g id="a_node1"><a xlink:title=" ">
<polygon fill="#999999" stroke="#666666" points="291,-152.25 150.5,-152.25 150.5,-110.5 291,-110.5 291,-152.25"/>
<text text-anchor="start" x="158.5" y="-138.75" font-family="Helvetica,sans-Serif" font-size="10.00">/Users/fola/Documents</text>
<text text-anchor="start" x="158.5" y="-127.5" font-family="Helvetica,sans-Serif" font-size="10.00">/ArkScript/Ark/src/arkreactor</text>
<text text-anchor="middle" x="220.75" y="-116.25" font-family="Helvetica,sans-Serif" font-size="10.00">/VM/Plugin.cpp</text>
</a>
</g>
</g>
<!-- Node2 -->
<g id="node2" class="node">
<title>Node2</title>
<g id="a_node2"><a xlink:href="../../db/d0e/Plugin_8hpp.html" target="_top" xlink:title="Loads .dll/.so/.dynlib files.">
<polygon fill="white" stroke="#666666" points="176.62,-74.5 78.88,-74.5 78.88,-55.25 176.62,-55.25 176.62,-74.5"/>
<text text-anchor="middle" x="127.75" y="-61" font-family="Helvetica,sans-Serif" font-size="10.00">Ark/VM/Plugin.hpp</text>
</a>
</g>
</g>
<!-- Node1&#45;&gt;Node2 -->
<g id="edge1" class="edge">
<title>Node1&#45;&gt;Node2</title>
<path fill="none" stroke="#63b8ff" d="M191.58,-110.14C178.13,-100.82 162.42,-89.92 149.95,-81.27"/>
<polygon fill="#63b8ff" stroke="#63b8ff" points="152.21,-78.58 142,-75.76 148.22,-84.33 152.21,-78.58"/>
</g>
<!-- Node6 -->
<g id="node6" class="node">
<title>Node6</title>
<g id="a_node6"><a xlink:title=" ">
<polygon fill="#e0e0e0" stroke="#999999" points="246.38,-74.5 195.12,-74.5 195.12,-55.25 246.38,-55.25 246.38,-74.5"/>
<text text-anchor="middle" x="220.75" y="-61" font-family="Helvetica,sans-Serif" font-size="10.00">sstream</text>
</a>
</g>
</g>
<!-- Node1&#45;&gt;Node6 -->
<g id="edge5" class="edge">
<title>Node1&#45;&gt;Node6</title>
<path fill="none" stroke="#63b8ff" d="M220.75,-110.32C220.75,-102.65 220.75,-93.89 220.75,-86.2"/>
<polygon fill="#63b8ff" stroke="#63b8ff" points="224.25,-86.46 220.75,-76.46 217.25,-86.46 224.25,-86.46"/>
</g>
<!-- Node7 -->
<g id="node7" class="node">
<title>Node7</title>
<g id="a_node7"><a xlink:title=" ">
<polygon fill="#e0e0e0" stroke="#999999" points="317.5,-74.5 264,-74.5 264,-55.25 317.5,-55.25 317.5,-74.5"/>
<text text-anchor="middle" x="290.75" y="-61" font-family="Helvetica,sans-Serif" font-size="10.00">iostream</text>
</a>
</g>
</g>
<!-- Node1&#45;&gt;Node7 -->
<g id="edge6" class="edge">
<title>Node1&#45;&gt;Node7</title>
<path fill="none" stroke="#63b8ff" d="M242.51,-110.32C252.15,-101.44 263.35,-91.12 272.53,-82.66"/>
<polygon fill="#63b8ff" stroke="#63b8ff" points="274.81,-85.32 279.79,-75.97 270.07,-80.17 274.81,-85.32"/>
</g>
<!-- Node3 -->
<g id="node3" class="node">
<title>Node3</title>
<g id="a_node3"><a xlink:href="../../d5/d40/Platform_8hpp.html" target="_top" xlink:title="ArkScript configuration macros.">
<polygon fill="white" stroke="#666666" points="89.5,-19.25 0,-19.25 0,0 89.5,0 89.5,-19.25"/>
<text text-anchor="middle" x="44.75" y="-5.75" font-family="Helvetica,sans-Serif" font-size="10.00">Ark/Platform.hpp</text>
</a>
</g>
</g>
<!-- Node2&#45;&gt;Node3 -->
<g id="edge2" class="edge">
<title>Node2&#45;&gt;Node3</title>
<path fill="none" stroke="#63b8ff" d="M113.67,-54.84C101.27,-46.89 82.96,-35.14 68.32,-25.75"/>
<polygon fill="#63b8ff" stroke="#63b8ff" points="70.48,-22.97 60.17,-20.52 66.7,-28.87 70.48,-22.97"/>
</g>
<!-- Node4 -->
<g id="node4" class="node">
<title>Node4</title>
<g id="a_node4"><a xlink:title=" ">
<polygon fill="#e0e0e0" stroke="#999999" points="147.75,-19.25 107.75,-19.25 107.75,0 147.75,0 147.75,-19.25"/>
<text text-anchor="middle" x="127.75" y="-5.75" font-family="Helvetica,sans-Serif" font-size="10.00">string</text>
</a>
</g>
</g>
<!-- Node2&#45;&gt;Node4 -->
<g id="edge3" class="edge">
<title>Node2&#45;&gt;Node4</title>
<path fill="none" stroke="#63b8ff" d="M127.75,-55.08C127.75,-48.57 127.75,-39.42 127.75,-31.12"/>
<polygon fill="#63b8ff" stroke="#63b8ff" points="131.25,-31.12 127.75,-21.12 124.25,-31.12 131.25,-31.12"/>
</g>
<!-- Node5 -->
<g id="node5" class="node">
<title>Node5</title>
<g id="a_node5"><a xlink:title=" ">
<polygon fill="#e0e0e0" stroke="#999999" points="239.25,-19.25 166.25,-19.25 166.25,0 239.25,0 239.25,-19.25"/>
<text text-anchor="middle" x="202.75" y="-5.75" font-family="Helvetica,sans-Serif" font-size="10.00">system_error</text>
</a>
</g>
</g>
<!-- Node2&#45;&gt;Node5 -->
<g id="edge4" class="edge">
<title>Node2&#45;&gt;Node5</title>
<path fill="none" stroke="#63b8ff" d="M140.47,-54.84C151.46,-47.04 167.59,-35.59 180.68,-26.29"/>
<polygon fill="#63b8ff" stroke="#63b8ff" points="182.6,-29.22 188.73,-20.58 178.55,-23.51 182.6,-29.22"/>
</g>
</g>
</svg>
