<?xml version="1.0" encoding="UTF-8" standalone="no"?>
<!DOCTYPE svg PUBLIC "-//W3C//DTD SVG 1.1//EN"
 "http://www.w3.org/Graphics/SVG/1.1/DTD/svg11.dtd">
<!-- Generated by graphviz version 12.2.0 (20241103.1931)
 -->
<!-- Title: /Users/fola/Documents/ArkScript/Ark/include/Ark/Compiler/Macros/Processor.hpp Pages: 1 -->
<svg width="1134pt" height="282pt"
 viewBox="0.00 0.00 1133.88 282.00" xmlns="http://www.w3.org/2000/svg" xmlns:xlink="http://www.w3.org/1999/xlink">
<g id="graph0" class="graph" transform="scale(1 1) rotate(0) translate(4 278)">
<title>/Users/fola/Documents/ArkScript/Ark/include/Ark/Compiler/Macros/Processor.hpp</title>
<!-- Node1 -->
<g id="Node000001" class="node">
<title>Node1</title>
<g id="a_Node000001"><a xlink:title="Handles the macros and their expansion in ArkScript source code.">
<polygon fill="#999999" stroke="#666666" points="490.25,-274 313.75,-274 313.75,-232.25 490.25,-232.25 490.25,-274"/>
<text text-anchor="start" x="321.75" y="-260.5" font-family="Helvetica,sans-Serif" font-size="10.00">/Users/fola/Documents</text>
<text text-anchor="start" x="321.75" y="-249.25" font-family="Helvetica,sans-Serif" font-size="10.00">/ArkScript/Ark/include</text>
<text text-anchor="middle" x="402" y="-238" font-family="Helvetica,sans-Serif" font-size="10.00">/Ark/Compiler/Macros/Processor.hpp</text>
</a>
</g>
</g>
<!-- Node2 -->
<g id="Node000002" class="node">
<title>Node2</title>
<g id="a_Node000002"><a xlink:href="../../d7/dc6/Node_8hpp.html" target="_top" xlink:title="AST node used by the parser, optimizer and compiler.">
<polygon fill="white" stroke="#666666" points="370.25,-129.75 229.75,-129.75 229.75,-110.5 370.25,-110.5 370.25,-129.75"/>
<text text-anchor="middle" x="300" y="-116.25" font-family="Helvetica,sans-Serif" font-size="10.00">Ark/Compiler/AST/Node.hpp</text>
</a>
</g>
</g>
<!-- Node1&#45;&gt;Node2 -->
<g id="edge1_Node000001_Node000002" class="edge">
<title>Node1&#45;&gt;Node2</title>
<g id="a_edge1_Node000001_Node000002"><a xlink:title=" ">
<path fill="none" stroke="#63b8ff" d="M317.76,-231.76C300.49,-223.59 284.42,-212.18 274,-196.25 262.36,-178.46 274.14,-154.88 285.37,-138.92"/>
<polygon fill="#63b8ff" stroke="#63b8ff" points="287.9,-141.37 291.16,-131.29 282.33,-137.14 287.9,-141.37"/>
</a>
</g>
</g>
<!-- Node5 -->
<g id="Node000005" class="node">
<title>Node5</title>
<g id="a_Node000005"><a xlink:title=" ">
<polygon fill="#e0e0e0" stroke="#999999" points="40,-19.25 0,-19.25 0,0 40,0 40,-19.25"/>
<text text-anchor="middle" x="20" y="-5.75" font-family="Helvetica,sans-Serif" font-size="10.00">string</text>
</a>
</g>
</g>
<!-- Node1&#45;&gt;Node5 -->
<g id="edge32_Node000001_Node000005" class="edge">
<title>Node1&#45;&gt;Node5</title>
<g id="a_edge32_Node000001_Node000005"><a xlink:title=" ">
<path fill="none" stroke="#63b8ff" d="M313.43,-234.15C240.22,-216.26 136.01,-183.56 58,-129.75 31.46,-111.44 22.13,-104.76 11,-74.5 5.79,-60.32 8.56,-43.35 12.36,-30.47"/>
<polygon fill="#63b8ff" stroke="#63b8ff" points="15.67,-31.62 15.6,-21.02 9.04,-29.35 15.67,-31.62"/>
</a>
</g>
</g>
<!-- Node14 -->
<g id="Node000014" class="node">
<title>Node14</title>
<g id="a_Node000014"><a xlink:href="../../d7/dfb/MacroScope_8hpp.html" target="_top" xlink:title="Defines tools to handle macro definitions.">
<polygon fill="white" stroke="#666666" points="391.12,-196.25 282.88,-196.25 282.88,-165.75 391.12,-165.75 391.12,-196.25"/>
<text text-anchor="start" x="290.88" y="-182.75" font-family="Helvetica,sans-Serif" font-size="10.00">Ark/Compiler/Macros</text>
<text text-anchor="middle" x="337" y="-171.5" font-family="Helvetica,sans-Serif" font-size="10.00">/MacroScope.hpp</text>
</a>
</g>
</g>
<!-- Node1&#45;&gt;Node14 -->
<g id="edge16_Node000001_Node000014" class="edge">
<title>Node1&#45;&gt;Node14</title>
<g id="a_edge16_Node000001_Node000014"><a xlink:title=" ">
<path fill="none" stroke="#63b8ff" d="M383.2,-231.84C375.33,-223.35 366.14,-213.44 358.04,-204.7"/>
<polygon fill="#63b8ff" stroke="#63b8ff" points="360.79,-202.51 351.42,-197.56 355.65,-207.27 360.79,-202.51"/>
</a>
</g>
</g>
<!-- Node15 -->
<g id="Node000015" class="node">
<title>Node15</title>
<g id="a_Node000015"><a xlink:title=" ">
<polygon fill="#e0e0e0" stroke="#999999" points="634.38,-74.5 551.62,-74.5 551.62,-55.25 634.38,-55.25 634.38,-74.5"/>
<text text-anchor="middle" x="593" y="-61" font-family="Helvetica,sans-Serif" font-size="10.00">unordered_map</text>
</a>
</g>
</g>
<!-- Node1&#45;&gt;Node15 -->
<g id="edge30_Node000001_Node000015" class="edge">
<title>Node1&#45;&gt;Node15</title>
<g id="a_edge30_Node000001_Node000015"><a xlink:title=" ">
<path fill="none" stroke="#63b8ff" d="M478.25,-231.89C498.93,-223.52 520,-211.98 536,-196.25 567.47,-165.31 582.78,-114.07 589.15,-85.92"/>
<polygon fill="#63b8ff" stroke="#63b8ff" points="592.55,-86.76 591.17,-76.25 585.7,-85.33 592.55,-86.76"/>
</a>
</g>
</g>
<!-- Node16 -->
<g id="Node000016" class="node">
<title>Node16</title>
<g id="a_Node000016"><a xlink:href="../../df/d5f/Pass_8hpp.html" target="_top" xlink:title="Interface for a compiler pass (take in an AST, output an AST)">
<polygon fill="white" stroke="#666666" points="526.62,-190.62 409.38,-190.62 409.38,-171.38 526.62,-171.38 526.62,-190.62"/>
<text text-anchor="middle" x="468" y="-177.12" font-family="Helvetica,sans-Serif" font-size="10.00">Ark/Compiler/Pass.hpp</text>
</a>
</g>
</g>
<!-- Node1&#45;&gt;Node16 -->
<g id="edge20_Node000001_Node000016" class="edge">
<title>Node1&#45;&gt;Node16</title>
<g id="a_edge20_Node000001_Node000016"><a xlink:title=" ">
<path fill="none" stroke="#63b8ff" d="M421.09,-231.84C430.88,-221.44 442.68,-208.9 451.99,-199.01"/>
<polygon fill="#63b8ff" stroke="#63b8ff" points="454.37,-201.58 458.68,-191.9 449.28,-196.79 454.37,-201.58"/>
</a>
</g>
</g>
<!-- Node22 -->
<g id="Node000022" class="node">
<title>Node22</title>
<g id="a_Node000022"><a xlink:title=" ">
<polygon fill="#e0e0e0" stroke="#999999" points="632.88,-190.62 583.12,-190.62 583.12,-171.38 632.88,-171.38 632.88,-190.62"/>
<text text-anchor="middle" x="608" y="-177.12" font-family="Helvetica,sans-Serif" font-size="10.00">optional</text>
</a>
</g>
</g>
<!-- Node1&#45;&gt;Node22 -->
<g id="edge31_Node000001_Node000022" class="edge">
<title>Node1&#45;&gt;Node22</title>
<g id="a_edge31_Node000001_Node000022"><a xlink:title=" ">
<path fill="none" stroke="#63b8ff" d="M464,-231.83C495.51,-221.4 534.37,-208.37 569,-196.25 570.34,-195.78 571.7,-195.3 573.08,-194.81"/>
<polygon fill="#63b8ff" stroke="#63b8ff" points="574.04,-198.18 582.27,-191.51 571.68,-191.6 574.04,-198.18"/>
</a>
</g>
</g>
<!-- Node3 -->
<g id="Node000003" class="node">
<title>Node3</title>
<g id="a_Node000003"><a xlink:title=" ">
<polygon fill="#e0e0e0" stroke="#999999" points="93.62,-74.5 48.38,-74.5 48.38,-55.25 93.62,-55.25 93.62,-74.5"/>
<text text-anchor="middle" x="71" y="-61" font-family="Helvetica,sans-Serif" font-size="10.00">variant</text>
</a>
</g>
</g>
<!-- Node2&#45;&gt;Node3 -->
<g id="edge2_Node000002_Node000003" class="edge">
<title>Node2&#45;&gt;Node3</title>
<g id="a_edge2_Node000002_Node000003"><a xlink:title=" ">
<path fill="none" stroke="#63b8ff" d="M256.98,-110.07C219.21,-101.98 162.52,-89.5 105.1,-75.2"/>
<polygon fill="#63b8ff" stroke="#63b8ff" points="106.01,-71.82 95.46,-72.78 104.3,-78.61 106.01,-71.82"/>
</a>
</g>
</g>
<!-- Node4 -->
<g id="Node000004" class="node">
<title>Node4</title>
<g id="a_Node000004"><a xlink:title=" ">
<polygon fill="#e0e0e0" stroke="#999999" points="162.62,-74.5 111.38,-74.5 111.38,-55.25 162.62,-55.25 162.62,-74.5"/>
<text text-anchor="middle" x="137" y="-61" font-family="Helvetica,sans-Serif" font-size="10.00">ostream</text>
</a>
</g>
</g>
<!-- Node2&#45;&gt;Node4 -->
<g id="edge3_Node000002_Node000004" class="edge">
<title>Node2&#45;&gt;Node4</title>
<g id="a_edge3_Node000002_Node000004"><a xlink:title=" ">
<path fill="none" stroke="#63b8ff" d="M272.35,-110.09C245.21,-101.22 203.64,-87.65 173.74,-77.88"/>
<polygon fill="#63b8ff" stroke="#63b8ff" points="174.93,-74.58 164.34,-74.81 172.76,-81.24 174.93,-74.58"/>
</a>
</g>
</g>
<!-- Node2&#45;&gt;Node5 -->
<g id="edge4_Node000002_Node000005" class="edge">
<title>Node2&#45;&gt;Node5</title>
<g id="a_edge4_Node000002_Node000005"><a xlink:title=" ">
<path fill="none" stroke="#63b8ff" d="M229.34,-115.32C161.89,-110.27 66.56,-98.94 39,-74.5 26.68,-63.58 22.19,-45.06 20.62,-30.76"/>
<polygon fill="#63b8ff" stroke="#63b8ff" points="24.14,-30.85 19.98,-21.1 17.15,-31.31 24.14,-30.85"/>
</a>
</g>
</g>
<!-- Node6 -->
<g id="Node000006" class="node">
<title>Node6</title>
<g id="a_Node000006"><a xlink:title=" ">
<polygon fill="#e0e0e0" stroke="#999999" points="597.5,-19.25 554.5,-19.25 554.5,0 597.5,0 597.5,-19.25"/>
<text text-anchor="middle" x="576" y="-5.75" font-family="Helvetica,sans-Serif" font-size="10.00">vector</text>
</a>
</g>
</g>
<!-- Node2&#45;&gt;Node6 -->
<g id="edge5_Node000002_Node000006" class="edge">
<title>Node2&#45;&gt;Node6</title>
<g id="a_edge5_Node000002_Node000006"><a xlink:title=" ">
<path fill="none" stroke="#63b8ff" d="M370.42,-112.89C411.46,-107.09 463.18,-95.93 505,-74.5 527.27,-63.09 547.96,-42.93 561.19,-28.3"/>
<polygon fill="#63b8ff" stroke="#63b8ff" points="563.82,-30.62 567.76,-20.78 558.55,-26.01 563.82,-30.62"/>
</a>
</g>
</g>
<!-- Node7 -->
<g id="Node000007" class="node">
<title>Node7</title>
<g id="a_Node000007"><a xlink:href="../../da/d33/Namespace_8hpp.html" target="_top" xlink:title=" ">
<polygon fill="white" stroke="#666666" points="495.88,-74.5 326.12,-74.5 326.12,-55.25 495.88,-55.25 495.88,-74.5"/>
<text text-anchor="middle" x="411" y="-61" font-family="Helvetica,sans-Serif" font-size="10.00">Ark/Compiler/AST/Namespace.hpp</text>
</a>
</g>
</g>
<!-- Node2&#45;&gt;Node7 -->
<g id="edge6_Node000002_Node000007" class="edge">
<title>Node2&#45;&gt;Node7</title>
<g id="a_edge6_Node000002_Node000007"><a xlink:title=" ">
<path fill="none" stroke="#63b8ff" d="M318.83,-110.09C336.05,-101.83 361.8,-89.48 381.71,-79.93"/>
<polygon fill="#63b8ff" stroke="#63b8ff" points="383.21,-83.09 390.71,-75.61 380.18,-76.78 383.21,-83.09"/>
</a>
</g>
</g>
<!-- Node9 -->
<g id="Node000009" class="node">
<title>Node9</title>
<g id="a_Node000009"><a xlink:href="../../d8/ddd/Common_8hpp.html" target="_top" xlink:title="Common code for the compiler.">
<polygon fill="white" stroke="#666666" points="824.25,-74.5 689.75,-74.5 689.75,-55.25 824.25,-55.25 824.25,-74.5"/>
<text text-anchor="middle" x="757" y="-61" font-family="Helvetica,sans-Serif" font-size="10.00">Ark/Compiler/Common.hpp</text>
</a>
</g>
</g>
<!-- Node2&#45;&gt;Node9 -->
<g id="edge10_Node000002_Node000009" class="edge">
<title>Node2&#45;&gt;Node9</title>
<g id="a_edge10_Node000002_Node000009"><a xlink:title=" ">
<path fill="none" stroke="#63b8ff" d="M370.65,-110.89C453.86,-101.2 591.66,-85.14 678.23,-75.05"/>
<polygon fill="#63b8ff" stroke="#63b8ff" points="678.55,-78.54 688.07,-73.91 677.73,-71.59 678.55,-78.54"/>
</a>
</g>
</g>
<!-- Node13 -->
<g id="Node000013" class="node">
<title>Node13</title>
<g id="a_Node000013"><a xlink:href="../../d5/d40/Platform_8hpp.html" target="_top" xlink:title="ArkScript configuration macros.">
<polygon fill="white" stroke="#666666" points="269.75,-74.5 180.25,-74.5 180.25,-55.25 269.75,-55.25 269.75,-74.5"/>
<text text-anchor="middle" x="225" y="-61" font-family="Helvetica,sans-Serif" font-size="10.00">Ark/Platform.hpp</text>
</a>
</g>
</g>
<!-- Node2&#45;&gt;Node13 -->
<g id="edge15_Node000002_Node000013" class="edge">
<title>Node2&#45;&gt;Node13</title>
<g id="a_edge15_Node000002_Node000013"><a xlink:title=" ">
<path fill="none" stroke="#63b8ff" d="M287.28,-110.09C276.29,-102.29 260.16,-90.84 247.07,-81.54"/>
<polygon fill="#63b8ff" stroke="#63b8ff" points="249.2,-78.76 239.02,-75.83 245.15,-84.47 249.2,-78.76"/>
</a>
</g>
</g>
<!-- Node7&#45;&gt;Node5 -->
<g id="edge7_Node000007_Node000005" class="edge">
<title>Node7&#45;&gt;Node5</title>
<g id="a_edge7_Node000007_Node000005"><a xlink:title=" ">
<path fill="none" stroke="#63b8ff" d="M344.23,-54.78C258.99,-43.17 114.97,-23.56 51.57,-14.92"/>
<polygon fill="#63b8ff" stroke="#63b8ff" points="52.23,-11.48 41.85,-13.6 51.29,-18.42 52.23,-11.48"/>
</a>
</g>
</g>
<!-- Node7&#45;&gt;Node6 -->
<g id="edge8_Node000007_Node000006" class="edge">
<title>Node7&#45;&gt;Node6</title>
<g id="a_edge8_Node000007_Node000006"><a xlink:title=" ">
<path fill="none" stroke="#63b8ff" d="M438.99,-54.84C467.85,-45.53 512.82,-31.01 543.3,-21.18"/>
<polygon fill="#63b8ff" stroke="#63b8ff" points="544.33,-24.52 552.77,-18.12 542.18,-17.86 544.33,-24.52"/>
</a>
</g>
</g>
<!-- Node8 -->
<g id="Node000008" class="node">
<title>Node8</title>
<g id="a_Node000008"><a xlink:title=" ">
<polygon fill="#e0e0e0" stroke="#999999" points="436.62,-19.25 385.38,-19.25 385.38,0 436.62,0 436.62,-19.25"/>
<text text-anchor="middle" x="411" y="-5.75" font-family="Helvetica,sans-Serif" font-size="10.00">memory</text>
</a>
</g>
</g>
<!-- Node7&#45;&gt;Node8 -->
<g id="edge9_Node000007_Node000008" class="edge">
<title>Node7&#45;&gt;Node8</title>
<g id="a_edge9_Node000007_Node000008"><a xlink:title=" ">
<path fill="none" stroke="#63b8ff" d="M411,-55.08C411,-48.57 411,-39.42 411,-31.12"/>
<polygon fill="#63b8ff" stroke="#63b8ff" points="414.5,-31.12 411,-21.12 407.5,-31.12 414.5,-31.12"/>
</a>
</g>
</g>
<!-- Node9&#45;&gt;Node6 -->
<g id="edge13_Node000009_Node000006" class="edge">
<title>Node9&#45;&gt;Node6</title>
<g id="a_edge13_Node000009_Node000006"><a xlink:title=" ">
<path fill="none" stroke="#63b8ff" d="M726.3,-54.84C693.64,-45.23 642.17,-30.09 608.75,-20.26"/>
<polygon fill="#63b8ff" stroke="#63b8ff" points="609.77,-16.91 599.19,-17.45 607.8,-23.63 609.77,-16.91"/>
</a>
</g>
</g>
<!-- Node10 -->
<g id="Node000010" class="node">
<title>Node10</title>
<g id="a_Node000010"><a xlink:title=" ">
<polygon fill="#e0e0e0" stroke="#999999" points="705.88,-19.25 668.12,-19.25 668.12,0 705.88,0 705.88,-19.25"/>
<text text-anchor="middle" x="687" y="-5.75" font-family="Helvetica,sans-Serif" font-size="10.00">array</text>
</a>
</g>
</g>
<!-- Node9&#45;&gt;Node10 -->
<g id="edge11_Node000009_Node000010" class="edge">
<title>Node9&#45;&gt;Node10</title>
<g id="a_edge11_Node000009_Node000010"><a xlink:title=" ">
<path fill="none" stroke="#63b8ff" d="M745.13,-54.84C734.91,-47.07 719.93,-35.67 707.74,-26.4"/>
<polygon fill="#63b8ff" stroke="#63b8ff" points="709.98,-23.71 699.9,-20.44 705.74,-29.28 709.98,-23.71"/>
</a>
</g>
</g>
<!-- Node11 -->
<g id="Node000011" class="node">
<title>Node11</title>
<g id="a_Node000011"><a xlink:title=" ">
<polygon fill="#e0e0e0" stroke="#999999" points="789.75,-19.25 724.25,-19.25 724.25,0 789.75,0 789.75,-19.25"/>
<text text-anchor="middle" x="757" y="-5.75" font-family="Helvetica,sans-Serif" font-size="10.00">string_view</text>
</a>
</g>
</g>
<!-- Node9&#45;&gt;Node11 -->
<g id="edge12_Node000009_Node000011" class="edge">
<title>Node9&#45;&gt;Node11</title>
<g id="a_edge12_Node000009_Node000011"><a xlink:title=" ">
<path fill="none" stroke="#63b8ff" d="M757,-55.08C757,-48.57 757,-39.42 757,-31.12"/>
<polygon fill="#63b8ff" stroke="#63b8ff" points="760.5,-31.12 757,-21.12 753.5,-31.12 760.5,-31.12"/>
</a>
</g>
</g>
<!-- Node12 -->
<g id="Node000012" class="node">
<title>Node12</title>
<g id="a_Node000012"><a xlink:title=" ">
<polygon fill="#e0e0e0" stroke="#999999" points="863.88,-19.25 808.12,-19.25 808.12,0 863.88,0 863.88,-19.25"/>
<text text-anchor="middle" x="836" y="-5.75" font-family="Helvetica,sans-Serif" font-size="10.00">cinttypes</text>
</a>
</g>
</g>
<!-- Node9&#45;&gt;Node12 -->
<g id="edge14_Node000009_Node000012" class="edge">
<title>Node9&#45;&gt;Node12</title>
<g id="a_edge14_Node000009_Node000012"><a xlink:title=" ">
<path fill="none" stroke="#63b8ff" d="M770.4,-54.84C782.09,-46.96 799.3,-35.36 813.16,-26.02"/>
<polygon fill="#63b8ff" stroke="#63b8ff" points="814.94,-29.04 821.28,-20.55 811.03,-23.24 814.94,-29.04"/>
</a>
</g>
</g>
<!-- Node14&#45;&gt;Node2 -->
<g id="edge17_Node000014_Node000002" class="edge">
<title>Node14&#45;&gt;Node2</title>
<g id="a_edge17_Node000014_Node000002"><a xlink:title=" ">
<path fill="none" stroke="#63b8ff" d="M327.85,-165.45C322.98,-157.69 316.93,-148.06 311.71,-139.76"/>
<polygon fill="#63b8ff" stroke="#63b8ff" points="314.79,-138.09 306.51,-131.48 308.87,-141.81 314.79,-138.09"/>
</a>
</g>
</g>
<!-- Node14&#45;&gt;Node5 -->
<g id="edge19_Node000014_Node000005" class="edge">
<title>Node14&#45;&gt;Node5</title>
<g id="a_edge19_Node000014_Node000005"><a xlink:title=" ">
<path fill="none" stroke="#63b8ff" d="M282.62,-179.44C209.82,-175.43 82.83,-156.3 22,-74.5 12.77,-62.09 13,-44.27 15.12,-30.6"/>
<polygon fill="#63b8ff" stroke="#63b8ff" points="18.51,-31.47 17.08,-20.97 11.66,-30.07 18.51,-31.47"/>
</a>
</g>
</g>
<!-- Node14&#45;&gt;Node15 -->
<g id="edge18_Node000014_Node000015" class="edge">
<title>Node14&#45;&gt;Node15</title>
<g id="a_edge18_Node000014_Node000015"><a xlink:title=" ">
<path fill="none" stroke="#63b8ff" d="M369.94,-165.31C419.81,-143.08 513.76,-101.2 562.28,-79.57"/>
<polygon fill="#63b8ff" stroke="#63b8ff" points="563.65,-82.79 571.36,-75.52 560.8,-76.4 563.65,-82.79"/>
</a>
</g>
</g>
<!-- Node16&#45;&gt;Node2 -->
<g id="edge21_Node000016_Node000002" class="edge">
<title>Node16&#45;&gt;Node2</title>
<g id="a_edge21_Node000016_Node000002"><a xlink:title=" ">
<path fill="none" stroke="#63b8ff" d="M442.12,-170.93C413.88,-161.03 368.45,-145.11 336.57,-133.94"/>
<polygon fill="#63b8ff" stroke="#63b8ff" points="337.93,-130.71 327.34,-130.71 335.62,-137.32 337.93,-130.71"/>
</a>
</g>
</g>
<!-- Node17 -->
<g id="Node000017" class="node">
<title>Node17</title>
<g id="a_Node000017"><a xlink:href="../../d9/d11/Logger_8hpp.html" target="_top" xlink:title="Internal logger.">
<polygon fill="white" stroke="#666666" points="805.62,-129.75 724.38,-129.75 724.38,-110.5 805.62,-110.5 805.62,-129.75"/>
<text text-anchor="middle" x="765" y="-116.25" font-family="Helvetica,sans-Serif" font-size="10.00">Ark/Logger.hpp</text>
</a>
</g>
</g>
<!-- Node16&#45;&gt;Node17 -->
<g id="edge22_Node000016_Node000017" class="edge">
<title>Node16&#45;&gt;Node17</title>
<g id="a_edge22_Node000016_Node000017"><a xlink:title=" ">
<path fill="none" stroke="#63b8ff" d="M513.76,-170.93C567.49,-160.28 656.44,-142.65 712.81,-131.47"/>
<polygon fill="#63b8ff" stroke="#63b8ff" points="713.36,-134.93 722.49,-129.55 712,-128.06 713.36,-134.93"/>
</a>
</g>
</g>
<!-- Node17&#45;&gt;Node5 -->
<g id="edge25_Node000017_Node000005" class="edge">
<title>Node17&#45;&gt;Node5</title>
<g id="a_edge25_Node000017_Node000005"><a xlink:title=" ">
<path fill="none" stroke="#63b8ff" d="M723.89,-120.02C643.84,-120.69 462.18,-116.89 317,-74.5 298.83,-69.19 296.97,-61.2 279,-55.25 199.57,-28.95 101.04,-17.43 51.53,-13.01"/>
<polygon fill="#63b8ff" stroke="#63b8ff" points="52.09,-9.55 41.82,-12.19 51.49,-16.52 52.09,-9.55"/>
</a>
</g>
</g>
<!-- Node17&#45;&gt;Node6 -->
<g id="edge27_Node000017_Node000006" class="edge">
<title>Node17&#45;&gt;Node6</title>
<g id="a_edge27_Node000017_Node000006"><a xlink:title=" ">
<path fill="none" stroke="#63b8ff" d="M747.14,-110.02C730.02,-101.2 703.53,-87.32 681,-74.5 652.76,-58.43 620.97,-38.88 599.84,-25.67"/>
<polygon fill="#63b8ff" stroke="#63b8ff" points="601.72,-22.72 591.39,-20.37 598,-28.65 601.72,-22.72"/>
</a>
</g>
</g>
<!-- Node17&#45;&gt;Node15 -->
<g id="edge28_Node000017_Node000015" class="edge">
<title>Node17&#45;&gt;Node15</title>
<g id="a_edge28_Node000017_Node000015"><a xlink:title=" ">
<path fill="none" stroke="#63b8ff" d="M735.82,-110.09C707.53,-101.33 664.39,-87.98 632.92,-78.23"/>
<polygon fill="#63b8ff" stroke="#63b8ff" points="634.35,-75.01 623.77,-75.4 632.28,-81.7 634.35,-75.01"/>
</a>
</g>
</g>
<!-- Node18 -->
<g id="Node000018" class="node">
<title>Node18</title>
<g id="a_Node000018"><a xlink:title=" ">
<polygon fill="#e0e0e0" stroke="#999999" points="895.75,-74.5 842.25,-74.5 842.25,-55.25 895.75,-55.25 895.75,-74.5"/>
<text text-anchor="middle" x="869" y="-61" font-family="Helvetica,sans-Serif" font-size="10.00">iostream</text>
</a>
</g>
</g>
<!-- Node17&#45;&gt;Node18 -->
<g id="edge23_Node000017_Node000018" class="edge">
<title>Node17&#45;&gt;Node18</title>
<g id="a_edge23_Node000017_Node000018"><a xlink:title=" ">
<path fill="none" stroke="#63b8ff" d="M782.64,-110.09C798.63,-101.91 822.46,-89.71 841.04,-80.19"/>
<polygon fill="#63b8ff" stroke="#63b8ff" points="842.62,-83.32 849.92,-75.64 839.43,-77.08 842.62,-83.32"/>
</a>
</g>
</g>
<!-- Node19 -->
<g id="Node000019" class="node">
<title>Node19</title>
<g id="a_Node000019"><a xlink:title=" ">
<polygon fill="#e0e0e0" stroke="#999999" points="982.62,-74.5 913.38,-74.5 913.38,-55.25 982.62,-55.25 982.62,-74.5"/>
<text text-anchor="middle" x="948" y="-61" font-family="Helvetica,sans-Serif" font-size="10.00">fmt/format.h</text>
</a>
</g>
</g>
<!-- Node17&#45;&gt;Node19 -->
<g id="edge24_Node000017_Node000019" class="edge">
<title>Node17&#45;&gt;Node19</title>
<g id="a_edge24_Node000017_Node000019"><a xlink:title=" ">
<path fill="none" stroke="#63b8ff" d="M796.04,-110.09C826.28,-101.29 872.45,-87.86 905.97,-78.11"/>
<polygon fill="#63b8ff" stroke="#63b8ff" points="906.73,-81.53 915.35,-75.38 904.77,-74.81 906.73,-81.53"/>
</a>
</g>
</g>
<!-- Node20 -->
<g id="Node000020" class="node">
<title>Node20</title>
<g id="a_Node000020"><a xlink:title=" ">
<polygon fill="#e0e0e0" stroke="#999999" points="1045.62,-74.5 1000.38,-74.5 1000.38,-55.25 1045.62,-55.25 1045.62,-74.5"/>
<text text-anchor="middle" x="1023" y="-61" font-family="Helvetica,sans-Serif" font-size="10.00">chrono</text>
</a>
</g>
</g>
<!-- Node17&#45;&gt;Node20 -->
<g id="edge26_Node000017_Node000020" class="edge">
<title>Node17&#45;&gt;Node20</title>
<g id="a_edge26_Node000017_Node000020"><a xlink:title=" ">
<path fill="none" stroke="#63b8ff" d="M805.8,-112.09C849.08,-104.4 919.69,-91.25 988.93,-75.1"/>
<polygon fill="#63b8ff" stroke="#63b8ff" points="989.63,-78.53 998.56,-72.83 988.02,-71.72 989.63,-78.53"/>
</a>
</g>
</g>
<!-- Node21 -->
<g id="Node000021" class="node">
<title>Node21</title>
<g id="a_Node000021"><a xlink:title=" ">
<polygon fill="#e0e0e0" stroke="#999999" points="1125.88,-74.5 1064.12,-74.5 1064.12,-55.25 1125.88,-55.25 1125.88,-74.5"/>
<text text-anchor="middle" x="1095" y="-61" font-family="Helvetica,sans-Serif" font-size="10.00">fmt/color.h</text>
</a>
</g>
</g>
<!-- Node17&#45;&gt;Node21 -->
<g id="edge29_Node000017_Node000021" class="edge">
<title>Node17&#45;&gt;Node21</title>
<g id="a_edge29_Node000017_Node000021"><a xlink:title=" ">
<path fill="none" stroke="#63b8ff" d="M805.95,-113.61C860.09,-106.14 958.71,-91.95 1052.87,-74.8"/>
<polygon fill="#63b8ff" stroke="#63b8ff" points="1053.34,-78.27 1062.54,-73.02 1052.07,-71.38 1053.34,-78.27"/>
</a>
</g>
</g>
</g>
</svg>
