<?xml version="1.0" encoding="UTF-8" standalone="no"?>
<!DOCTYPE svg PUBLIC "-//W3C//DTD SVG 1.1//EN"
 "http://www.w3.org/Graphics/SVG/1.1/DTD/svg11.dtd">
<!-- Generated by graphviz version 10.0.1 (20240210.2158)
 -->
<!-- Title: /Users/fola/Documents/ArkScript/Ark/include/Ark/Compiler/Macros/Processor.hpp Pages: 1 -->
<svg width="491pt" height="349pt"
 viewBox="0.00 0.00 490.50 348.50" xmlns="http://www.w3.org/2000/svg" xmlns:xlink="http://www.w3.org/1999/xlink">
<g id="graph0" class="graph" transform="scale(1 1) rotate(0) translate(4 344.5)">
<title>/Users/fola/Documents/ArkScript/Ark/include/Ark/Compiler/Macros/Processor.hpp</title>
<!-- Node1 -->
<g id="node1" class="node">
<title>Node1</title>
<g id="a_node1"><a xlink:title="Handles the macros and their expansion in ArkScript source code.">
<polygon fill="#999999" stroke="#666666" points="386.75,-340.5 210.25,-340.5 210.25,-298.75 386.75,-298.75 386.75,-340.5"/>
<text text-anchor="start" x="218.25" y="-327" font-family="Helvetica,sans-Serif" font-size="10.00">/Users/fola/Documents</text>
<text text-anchor="start" x="218.25" y="-315.75" font-family="Helvetica,sans-Serif" font-size="10.00">/ArkScript/Ark/include</text>
<text text-anchor="middle" x="298.5" y="-304.5" font-family="Helvetica,sans-Serif" font-size="10.00">/Ark/Compiler/Macros/Processor.hpp</text>
</a>
</g>
</g>
<!-- Node2 -->
<g id="node2" class="node">
<title>Node2</title>
<g id="a_node2"><a xlink:href="../../d7/dc6/Node_8hpp.html" target="_top" xlink:title="AST node used by the parser, optimizer and compiler.">
<polygon fill="white" stroke="#666666" points="266.75,-129.75 126.25,-129.75 126.25,-110.5 266.75,-110.5 266.75,-129.75"/>
<text text-anchor="middle" x="196.5" y="-116.25" font-family="Helvetica,sans-Serif" font-size="10.00">Ark/Compiler/AST/Node.hpp</text>
</a>
</g>
</g>
<!-- Node1&#45;&gt;Node2 -->
<g id="edge1" class="edge">
<title>Node1&#45;&gt;Node2</title>
<path fill="none" stroke="#63b8ff" d="M293.91,-298.29C286.38,-267.73 269.38,-208.94 241.5,-165.75 234.68,-155.18 224.98,-145.16 216.33,-137.3"/>
<polygon fill="#63b8ff" stroke="#63b8ff" points="218.85,-134.85 209.01,-130.94 214.27,-140.14 218.85,-134.85"/>
</g>
<!-- Node5 -->
<g id="node5" class="node">
<title>Node5</title>
<g id="a_node5"><a xlink:title=" ">
<polygon fill="#e0e0e0" stroke="#999999" points="482.5,-74.5 442.5,-74.5 442.5,-55.25 482.5,-55.25 482.5,-74.5"/>
<text text-anchor="middle" x="462.5" y="-61" font-family="Helvetica,sans-Serif" font-size="10.00">string</text>
</a>
</g>
</g>
<!-- Node1&#45;&gt;Node5 -->
<g id="edge21" class="edge">
<title>Node1&#45;&gt;Node5</title>
<path fill="none" stroke="#63b8ff" d="M335.19,-298.36C369.22,-277.47 418.3,-241.6 443.5,-196.25 462.98,-161.2 464.69,-113.01 463.83,-86.12"/>
<polygon fill="#63b8ff" stroke="#63b8ff" points="467.34,-86.11 463.35,-76.29 460.35,-86.45 467.34,-86.11"/>
</g>
<!-- Node11 -->
<g id="node11" class="node">
<title>Node11</title>
<g id="a_node11"><a xlink:href="../../d7/dfb/MacroScope_8hpp.html" target="_top" xlink:title="Defines tools to handle macro definitions.">
<polygon fill="white" stroke="#666666" points="434.62,-196.25 326.38,-196.25 326.38,-165.75 434.62,-165.75 434.62,-196.25"/>
<text text-anchor="start" x="334.38" y="-182.75" font-family="Helvetica,sans-Serif" font-size="10.00">Ark/Compiler/Macros</text>
<text text-anchor="middle" x="380.5" y="-171.5" font-family="Helvetica,sans-Serif" font-size="10.00">/MacroScope.hpp</text>
</a>
</g>
</g>
<!-- Node1&#45;&gt;Node11 -->
<g id="edge11" class="edge">
<title>Node1&#45;&gt;Node11</title>
<path fill="none" stroke="#63b8ff" d="M310.6,-298.47C325.39,-273.83 350.38,-232.18 366.13,-205.94"/>
<polygon fill="#63b8ff" stroke="#63b8ff" points="368.95,-208.05 371.09,-197.68 362.94,-204.45 368.95,-208.05"/>
</g>
<!-- Node12 -->
<g id="node12" class="node">
<title>Node12</title>
<g id="a_node12"><a xlink:title=" ">
<polygon fill="#e0e0e0" stroke="#999999" points="367.88,-129.75 285.12,-129.75 285.12,-110.5 367.88,-110.5 367.88,-129.75"/>
<text text-anchor="middle" x="326.5" y="-116.25" font-family="Helvetica,sans-Serif" font-size="10.00">unordered_map</text>
</a>
</g>
</g>
<!-- Node1&#45;&gt;Node12 -->
<g id="edge20" class="edge">
<title>Node1&#45;&gt;Node12</title>
<path fill="none" stroke="#63b8ff" d="M300.54,-298.28C303.58,-268.92 309.81,-213 317.5,-165.75 318.82,-157.66 320.54,-148.79 322.13,-141.11"/>
<polygon fill="#63b8ff" stroke="#63b8ff" points="325.53,-141.97 324.19,-131.46 318.68,-140.51 325.53,-141.97"/>
</g>
<!-- Node13 -->
<g id="node13" class="node">
<title>Node13</title>
<g id="a_node13"><a xlink:href="../../d4/daa/Pipeline_8hpp.html" target="_top" xlink:title="The Chain of Responsibility class for running nodes through MacroExecutors.">
<polygon fill="white" stroke="#666666" points="232.62,-262.75 124.38,-262.75 124.38,-232.25 232.62,-232.25 232.62,-262.75"/>
<text text-anchor="start" x="132.38" y="-249.25" font-family="Helvetica,sans-Serif" font-size="10.00">Ark/Compiler/Macros</text>
<text text-anchor="middle" x="178.5" y="-238" font-family="Helvetica,sans-Serif" font-size="10.00">/Pipeline.hpp</text>
</a>
</g>
</g>
<!-- Node1&#45;&gt;Node13 -->
<g id="edge15" class="edge">
<title>Node1&#45;&gt;Node13</title>
<path fill="none" stroke="#63b8ff" d="M263.79,-298.34C248.01,-289.12 229.36,-278.22 213.54,-268.97"/>
<polygon fill="#63b8ff" stroke="#63b8ff" points="215.31,-265.96 204.91,-263.93 211.78,-272 215.31,-265.96"/>
</g>
<!-- Node3 -->
<g id="node3" class="node">
<title>Node3</title>
<g id="a_node3"><a xlink:title=" ">
<polygon fill="#e0e0e0" stroke="#999999" points="424.12,-74.5 378.88,-74.5 378.88,-55.25 424.12,-55.25 424.12,-74.5"/>
<text text-anchor="middle" x="401.5" y="-61" font-family="Helvetica,sans-Serif" font-size="10.00">variant</text>
</a>
</g>
</g>
<!-- Node2&#45;&gt;Node3 -->
<g id="edge2" class="edge">
<title>Node2&#45;&gt;Node3</title>
<path fill="none" stroke="#63b8ff" d="M232.88,-110.02C265.78,-101.74 315.84,-89.02 367.46,-75.28"/>
<polygon fill="#63b8ff" stroke="#63b8ff" points="368.27,-78.68 377.03,-72.72 366.46,-71.92 368.27,-78.68"/>
</g>
<!-- Node4 -->
<g id="node4" class="node">
<title>Node4</title>
<g id="a_node4"><a xlink:title=" ">
<polygon fill="#e0e0e0" stroke="#999999" points="101.12,-74.5 49.88,-74.5 49.88,-55.25 101.12,-55.25 101.12,-74.5"/>
<text text-anchor="middle" x="75.5" y="-61" font-family="Helvetica,sans-Serif" font-size="10.00">ostream</text>
</a>
</g>
</g>
<!-- Node2&#45;&gt;Node4 -->
<g id="edge3" class="edge">
<title>Node2&#45;&gt;Node4</title>
<path fill="none" stroke="#63b8ff" d="M175.97,-110.09C156.94,-101.72 128.35,-89.13 106.53,-79.53"/>
<polygon fill="#63b8ff" stroke="#63b8ff" points="108.07,-76.39 97.51,-75.56 105.26,-82.79 108.07,-76.39"/>
</g>
<!-- Node2&#45;&gt;Node5 -->
<g id="edge4" class="edge">
<title>Node2&#45;&gt;Node5</title>
<path fill="none" stroke="#63b8ff" d="M253.84,-110.03C299.51,-102.4 365.28,-90.56 431.27,-74.84"/>
<polygon fill="#63b8ff" stroke="#63b8ff" points="431.92,-78.28 440.82,-72.53 430.28,-71.48 431.92,-78.28"/>
</g>
<!-- Node6 -->
<g id="node6" class="node">
<title>Node6</title>
<g id="a_node6"><a xlink:title=" ">
<polygon fill="#e0e0e0" stroke="#999999" points="43,-19.25 0,-19.25 0,0 43,0 43,-19.25"/>
<text text-anchor="middle" x="21.5" y="-5.75" font-family="Helvetica,sans-Serif" font-size="10.00">vector</text>
</a>
</g>
</g>
<!-- Node2&#45;&gt;Node6 -->
<g id="edge5" class="edge">
<title>Node2&#45;&gt;Node6</title>
<path fill="none" stroke="#63b8ff" d="M126.03,-113.87C96.17,-108.21 63.13,-96.89 40.5,-74.5 28.91,-63.04 24.33,-44.85 22.54,-30.8"/>
<polygon fill="#63b8ff" stroke="#63b8ff" points="26.03,-30.56 21.7,-20.9 19.06,-31.16 26.03,-30.56"/>
</g>
<!-- Node7 -->
<g id="node7" class="node">
<title>Node7</title>
<g id="a_node7"><a xlink:href="../../d8/ddd/Common_8hpp.html" target="_top" xlink:title="Common code for the compiler.">
<polygon fill="white" stroke="#666666" points="253.75,-74.5 119.25,-74.5 119.25,-55.25 253.75,-55.25 253.75,-74.5"/>
<text text-anchor="middle" x="186.5" y="-61" font-family="Helvetica,sans-Serif" font-size="10.00">Ark/Compiler/Common.hpp</text>
</a>
</g>
</g>
<!-- Node2&#45;&gt;Node7 -->
<g id="edge6" class="edge">
<title>Node2&#45;&gt;Node7</title>
<path fill="none" stroke="#63b8ff" d="M194.85,-110.33C193.61,-103.74 191.87,-94.46 190.29,-86.07"/>
<polygon fill="#63b8ff" stroke="#63b8ff" points="193.75,-85.53 188.47,-76.35 186.87,-86.82 193.75,-85.53"/>
</g>
<!-- Node10 -->
<g id="node10" class="node">
<title>Node10</title>
<g id="a_node10"><a xlink:href="../../d5/d40/Platform_8hpp.html" target="_top" xlink:title="ArkScript configuration macros.">
<polygon fill="white" stroke="#666666" points="361.25,-74.5 271.75,-74.5 271.75,-55.25 361.25,-55.25 361.25,-74.5"/>
<text text-anchor="middle" x="316.5" y="-61" font-family="Helvetica,sans-Serif" font-size="10.00">Ark/Platform.hpp</text>
</a>
</g>
</g>
<!-- Node2&#45;&gt;Node10 -->
<g id="edge10" class="edge">
<title>Node2&#45;&gt;Node10</title>
<path fill="none" stroke="#63b8ff" d="M216.86,-110.09C235.73,-101.72 264.09,-89.13 285.73,-79.53"/>
<polygon fill="#63b8ff" stroke="#63b8ff" points="286.94,-82.82 294.66,-75.57 284.1,-76.42 286.94,-82.82"/>
</g>
<!-- Node7&#45;&gt;Node6 -->
<g id="edge9" class="edge">
<title>Node7&#45;&gt;Node6</title>
<path fill="none" stroke="#63b8ff" d="M158.51,-54.84C129.65,-45.53 84.68,-31.01 54.2,-21.18"/>
<polygon fill="#63b8ff" stroke="#63b8ff" points="55.32,-17.86 44.73,-18.12 53.17,-24.52 55.32,-17.86"/>
</g>
<!-- Node8 -->
<g id="node8" class="node">
<title>Node8</title>
<g id="a_node8"><a xlink:title=" ">
<polygon fill="#e0e0e0" stroke="#999999" points="240.38,-19.25 202.62,-19.25 202.62,0 240.38,0 240.38,-19.25"/>
<text text-anchor="middle" x="221.5" y="-5.75" font-family="Helvetica,sans-Serif" font-size="10.00">array</text>
</a>
</g>
</g>
<!-- Node7&#45;&gt;Node8 -->
<g id="edge7" class="edge">
<title>Node7&#45;&gt;Node8</title>
<path fill="none" stroke="#63b8ff" d="M192.28,-55.08C196.91,-48.03 203.57,-37.9 209.37,-29.08"/>
<polygon fill="#63b8ff" stroke="#63b8ff" points="212.2,-31.15 214.76,-20.87 206.35,-27.31 212.2,-31.15"/>
</g>
<!-- Node9 -->
<g id="node9" class="node">
<title>Node9</title>
<g id="a_node9"><a xlink:title=" ">
<polygon fill="#e0e0e0" stroke="#999999" points="184.25,-19.25 118.75,-19.25 118.75,0 184.25,0 184.25,-19.25"/>
<text text-anchor="middle" x="151.5" y="-5.75" font-family="Helvetica,sans-Serif" font-size="10.00">string_view</text>
</a>
</g>
</g>
<!-- Node7&#45;&gt;Node9 -->
<g id="edge8" class="edge">
<title>Node7&#45;&gt;Node9</title>
<path fill="none" stroke="#63b8ff" d="M180.72,-55.08C176.09,-48.03 169.43,-37.9 163.63,-29.08"/>
<polygon fill="#63b8ff" stroke="#63b8ff" points="166.65,-27.31 158.24,-20.87 160.8,-31.15 166.65,-27.31"/>
</g>
<!-- Node11&#45;&gt;Node2 -->
<g id="edge12" class="edge">
<title>Node11&#45;&gt;Node2</title>
<path fill="none" stroke="#63b8ff" d="M334.54,-165.3C304.19,-155.58 264.83,-142.99 235.91,-133.73"/>
<polygon fill="#63b8ff" stroke="#63b8ff" points="237.02,-130.42 226.43,-130.7 234.89,-137.08 237.02,-130.42"/>
</g>
<!-- Node11&#45;&gt;Node5 -->
<g id="edge14" class="edge">
<title>Node11&#45;&gt;Node5</title>
<path fill="none" stroke="#63b8ff" d="M390.89,-165.55C405.76,-144.84 433.12,-106.76 449.38,-84.14"/>
<polygon fill="#63b8ff" stroke="#63b8ff" points="452.11,-86.34 455.1,-76.18 446.42,-82.26 452.11,-86.34"/>
</g>
<!-- Node11&#45;&gt;Node12 -->
<g id="edge13" class="edge">
<title>Node11&#45;&gt;Node12</title>
<path fill="none" stroke="#63b8ff" d="M367.15,-165.45C359.72,-157.34 350.42,-147.2 342.59,-138.66"/>
<polygon fill="#63b8ff" stroke="#63b8ff" points="345.19,-136.32 335.85,-131.32 340.03,-141.05 345.19,-136.32"/>
</g>
<!-- Node13&#45;&gt;Node6 -->
<g id="edge16" class="edge">
<title>Node13&#45;&gt;Node6</title>
<path fill="none" stroke="#63b8ff" d="M157.86,-231.91C122.43,-205.4 51.37,-145.47 25.5,-74.5 20.42,-60.56 19.55,-43.79 19.88,-30.93"/>
<polygon fill="#63b8ff" stroke="#63b8ff" points="23.37,-31.31 20.42,-21.14 16.38,-30.93 23.37,-31.31"/>
</g>
<!-- Node14 -->
<g id="node14" class="node">
<title>Node14</title>
<g id="a_node14"><a xlink:href="../../d4/d1a/Executor_8hpp.html" target="_top" xlink:title="The base class for all MacroExecutors.">
<polygon fill="white" stroke="#666666" points="232.62,-196.25 124.38,-196.25 124.38,-165.75 232.62,-165.75 232.62,-196.25"/>
<text text-anchor="start" x="132.38" y="-182.75" font-family="Helvetica,sans-Serif" font-size="10.00">Ark/Compiler/Macros</text>
<text text-anchor="middle" x="178.5" y="-171.5" font-family="Helvetica,sans-Serif" font-size="10.00">/Executor.hpp</text>
</a>
</g>
</g>
<!-- Node13&#45;&gt;Node14 -->
<g id="edge17" class="edge">
<title>Node13&#45;&gt;Node14</title>
<path fill="none" stroke="#63b8ff" d="M178.5,-231.86C178.5,-224.77 178.5,-216.04 178.5,-207.88"/>
<polygon fill="#63b8ff" stroke="#63b8ff" points="182,-208.09 178.5,-198.09 175,-208.09 182,-208.09"/>
</g>
<!-- Node14&#45;&gt;Node2 -->
<g id="edge19" class="edge">
<title>Node14&#45;&gt;Node2</title>
<path fill="none" stroke="#63b8ff" d="M182.95,-165.45C185.19,-158.12 187.94,-149.12 190.38,-141.16"/>
<polygon fill="#63b8ff" stroke="#63b8ff" points="193.71,-142.24 193.28,-131.65 187.01,-140.19 193.71,-142.24"/>
</g>
<!-- Node14&#45;&gt;Node12 -->
<g id="edge18" class="edge">
<title>Node14&#45;&gt;Node12</title>
<path fill="none" stroke="#63b8ff" d="M215.46,-165.3C239.3,-155.81 270.05,-143.58 293.15,-134.39"/>
<polygon fill="#63b8ff" stroke="#63b8ff" points="294.4,-137.66 302.4,-130.71 291.81,-131.16 294.4,-137.66"/>
</g>
</g>
</svg>
