<?xml version="1.0" encoding="UTF-8" standalone="no"?>
<!DOCTYPE svg PUBLIC "-//W3C//DTD SVG 1.1//EN"
 "http://www.w3.org/Graphics/SVG/1.1/DTD/svg11.dtd">
<!-- Generated by graphviz version 12.2.0 (20241103.1931)
 -->
<!-- Title: /Users/fola/Documents/ArkScript/Ark/src/arkscript/REPL/Utils.cpp Pages: 1 -->
<!--zoomable 282 -->

<svg id="main" version="1.1" xmlns="http://www.w3.org/2000/svg" xmlns:xlink="http://www.w3.org/1999/xlink" xml:space="preserve" onload="init(evt)">

<style type="text/css"><![CDATA[
.node, .edge {opacity: 0.7;}
.node.selected, .edge.selected {opacity: 1;}
.edge:hover path { stroke: red; }
.edge:hover polygon { stroke: red; fill: red; }
]]></style>

<defs>
  <circle id="rim" cx="0" cy="0" r="7"/>
  <circle id="rim2" cx="0" cy="0" r="3.5"/>
  <g id="zoomPlus">
    <use xlink:href="#rim" fill="#404040"><set attributeName="fill" to="#808080" begin="zoomplus.mouseover" end="zoomplus.mouseout"/></use>
    <path d="M-4,0h8M0,-4v8" fill="none" stroke="white" stroke-width="1.5" pointer-events="none"/>
  </g>
  <g id="zoomMin">
    <use xlink:href="#rim" fill="#404040"><set attributeName="fill" to="#808080" begin="zoomminus.mouseover" end="zoomminus.mouseout"/></use>
    <path d="M-4,0h8" fill="none" stroke="white" stroke-width="1.5" pointer-events="none"/>
  </g>
  <g id="arrowUp" transform="translate(30 24)">
    <use xlink:href="#rim"/>
    <path pointer-events="none" fill="none" stroke="white" stroke-width="1.5" d="M0,-3.0v7 M-2.5,-0.5L0,-3.0L2.5,-0.5"/>
  </g>
  <g id="arrowRight" transform="rotate(90) translate(36 -43)">
    <use xlink:href="#rim"/>
    <path pointer-events="none" fill="none" stroke="white" stroke-width="1.5" d="M0,-3.0v7 M-2.5,-0.5L0,-3.0L2.5,-0.5"/>
  </g>
  <g id="arrowDown" transform="rotate(180) translate(-30 -48)">
    <use xlink:href="#rim"/>
    <path pointer-events="none" fill="none" stroke="white" stroke-width="1.5" d="M0,-3.0v7 M-2.5,-0.5L0,-3.0L2.5,-0.5"/>
  </g>
  <g id="arrowLeft" transform="rotate(270) translate(-36 17)">
    <use xlink:href="#rim"/>
    <path pointer-events="none" fill="none" stroke="white" stroke-width="1.5" d="M0,-3.0v7 M-2.5,-0.5L0,-3.0L2.5,-0.5"/>
  </g>
  <g id="resetDef">
    <use xlink:href="#rim2" fill="#404040"><set attributeName="fill" to="#808080" begin="reset.mouseover" end="reset.mouseout"/></use>
  </g>
</defs>
<script type="application/ecmascript">
var viewWidth = 1463;
var viewHeight = 282;
var sectionId = 'dynsection-0';
</script>
<script type="application/ecmascript" xlink:href="../../svg.min.js"/>
<svg id="graph" class="graph">
<g id="viewport">
<title>/Users/fola/Documents/ArkScript/Ark/src/arkscript/REPL/Utils.cpp</title>
<!-- Node1 -->
<g id="Node000001" class="node">
<title>Node1</title>
<g id="a_Node000001"><a xlink:title=" ">
<polygon fill="#999999" stroke="#666666" points="519.75,-274 385.25,-274 385.25,-232.25 519.75,-232.25 519.75,-274"/>
<text text-anchor="start" x="393.25" y="-260.5" font-family="Helvetica,sans-Serif" font-size="10.00">/Users/fola/Documents</text>
<text text-anchor="start" x="393.25" y="-249.25" font-family="Helvetica,sans-Serif" font-size="10.00">/ArkScript/Ark/src/arkscript</text>
<text text-anchor="middle" x="452.5" y="-238" font-family="Helvetica,sans-Serif" font-size="10.00">/REPL/Utils.cpp</text>
</a>
</g>
</g>
<!-- Node2 -->
<g id="Node000002" class="node">
<title>Node2</title>
<g id="a_Node000002"><a xlink:href="../../df/d85/CLI_2REPL_2Utils_8hpp.html" target="_top" xlink:title="replxx utilities">
<polygon fill="white" stroke="#666666" points="185,-141 82,-141 82,-121.75 185,-121.75 185,-141"/>
<text text-anchor="middle" x="133.5" y="-127.5" font-family="Helvetica,sans-Serif" font-size="10.00">CLI/REPL/Utils.hpp</text>
</a>
</g>
</g>
<!-- Node1&#45;&gt;Node2 -->
<g id="edge1_Node000001_Node000002" class="edge">
<title>Node1&#45;&gt;Node2</title>
<g id="a_edge1_Node000001_Node000002"><a xlink:title=" ">
<path fill="none" stroke="#63b8ff" d="M388.67,-231.81C357.65,-221.64 319.94,-208.84 286.5,-196.25 243.55,-180.08 194.76,-159.28 164.06,-145.88"/>
<polygon fill="#63b8ff" stroke="#63b8ff" points="165.56,-142.72 155,-141.91 162.75,-149.13 165.56,-142.72"/>
</a>
</g>
</g>
<!-- Node6 -->
<g id="Node000006" class="node">
<title>Node6</title>
<g id="a_Node000006"><a xlink:title=" ">
<polygon fill="#e0e0e0" stroke="#999999" points="335.5,-196.25 295.5,-196.25 295.5,-177 335.5,-177 335.5,-196.25"/>
<text text-anchor="middle" x="315.5" y="-182.75" font-family="Helvetica,sans-Serif" font-size="10.00">regex</text>
</a>
</g>
</g>
<!-- Node1&#45;&gt;Node6 -->
<g id="edge5_Node000001_Node000006" class="edge">
<title>Node1&#45;&gt;Node6</title>
<g id="a_edge5_Node000001_Node000006"><a xlink:title=" ">
<path fill="none" stroke="#63b8ff" d="M409.53,-231.89C388.54,-222.01 363.81,-210.37 344.99,-201.51"/>
<polygon fill="#63b8ff" stroke="#63b8ff" points="346.57,-198.38 336.03,-197.29 343.58,-204.72 346.57,-198.38"/>
</a>
</g>
</g>
<!-- Node7 -->
<g id="Node000007" class="node">
<title>Node7</title>
<g id="a_Node000007"><a xlink:title=" ">
<polygon fill="#e0e0e0" stroke="#999999" points="409.38,-196.25 353.62,-196.25 353.62,-177 409.38,-177 409.38,-196.25"/>
<text text-anchor="middle" x="381.5" y="-182.75" font-family="Helvetica,sans-Serif" font-size="10.00">algorithm</text>
</a>
</g>
</g>
<!-- Node1&#45;&gt;Node7 -->
<g id="edge6_Node000001_Node000007" class="edge">
<title>Node1&#45;&gt;Node7</title>
<g id="a_edge6_Node000001_Node000007"><a xlink:title=" ">
<path fill="none" stroke="#63b8ff" d="M430.42,-232.07C420.65,-223.19 409.29,-212.87 399.98,-204.41"/>
<polygon fill="#63b8ff" stroke="#63b8ff" points="402.36,-201.85 392.6,-197.71 397.65,-207.03 402.36,-201.85"/>
</a>
</g>
</g>
<!-- Node8 -->
<g id="Node000008" class="node">
<title>Node8</title>
<g id="a_Node000008"><a xlink:title=" ">
<polygon fill="#e0e0e0" stroke="#999999" points="477.75,-196.25 427.25,-196.25 427.25,-177 477.75,-177 477.75,-196.25"/>
<text text-anchor="middle" x="452.5" y="-182.75" font-family="Helvetica,sans-Serif" font-size="10.00">numeric</text>
</a>
</g>
</g>
<!-- Node1&#45;&gt;Node8 -->
<g id="edge7_Node000001_Node000008" class="edge">
<title>Node1&#45;&gt;Node8</title>
<g id="a_edge7_Node000001_Node000008"><a xlink:title=" ">
<path fill="none" stroke="#63b8ff" d="M452.5,-232.07C452.5,-224.4 452.5,-215.64 452.5,-207.95"/>
<polygon fill="#63b8ff" stroke="#63b8ff" points="456,-208.21 452.5,-198.21 449,-208.21 456,-208.21"/>
</a>
</g>
</g>
<!-- Node9 -->
<g id="Node000009" class="node">
<title>Node9</title>
<g id="a_Node000009"><a xlink:title=" ">
<polygon fill="#e0e0e0" stroke="#999999" points="541.12,-196.25 495.88,-196.25 495.88,-177 541.12,-177 541.12,-196.25"/>
<text text-anchor="middle" x="518.5" y="-182.75" font-family="Helvetica,sans-Serif" font-size="10.00">ranges</text>
</a>
</g>
</g>
<!-- Node1&#45;&gt;Node9 -->
<g id="edge8_Node000001_Node000009" class="edge">
<title>Node1&#45;&gt;Node9</title>
<g id="a_edge8_Node000001_Node000009"><a xlink:title=" ">
<path fill="none" stroke="#63b8ff" d="M473.02,-232.07C482.01,-223.29 492.44,-213.09 501.05,-204.68"/>
<polygon fill="#63b8ff" stroke="#63b8ff" points="503.43,-207.25 508.14,-197.75 498.54,-202.24 503.43,-207.25"/>
</a>
</g>
</g>
<!-- Node10 -->
<g id="Node000010" class="node">
<title>Node10</title>
<g id="a_Node000010"><a xlink:href="../../da/d84/Builtins_8hpp.html" target="_top" xlink:title="Host the declaration of all the ArkScript builtins.">
<polygon fill="white" stroke="#666666" points="679.62,-196.25 559.38,-196.25 559.38,-177 679.62,-177 679.62,-196.25"/>
<text text-anchor="middle" x="619.5" y="-182.75" font-family="Helvetica,sans-Serif" font-size="10.00">Ark/Builtins/Builtins.hpp</text>
</a>
</g>
</g>
<!-- Node1&#45;&gt;Node10 -->
<g id="edge9_Node000001_Node000010" class="edge">
<title>Node1&#45;&gt;Node10</title>
<g id="a_edge9_Node000001_Node000010"><a xlink:title=" ">
<path fill="none" stroke="#63b8ff" d="M504.88,-231.89C531.19,-221.73 562.3,-209.72 585.47,-200.77"/>
<polygon fill="#63b8ff" stroke="#63b8ff" points="586.67,-204.06 594.74,-197.19 584.15,-197.53 586.67,-204.06"/>
</a>
</g>
</g>
<!-- Node27 -->
<g id="Node000027" class="node">
<title>Node27</title>
<g id="a_Node000027"><a xlink:href="../../d8/ddd/Common_8hpp.html" target="_top" xlink:title="Common code for the compiler.">
<polygon fill="white" stroke="#666666" points="1298.75,-141 1164.25,-141 1164.25,-121.75 1298.75,-121.75 1298.75,-141"/>
<text text-anchor="middle" x="1231.5" y="-127.5" font-family="Helvetica,sans-Serif" font-size="10.00">Ark/Compiler/Common.hpp</text>
</a>
</g>
</g>
<!-- Node1&#45;&gt;Node27 -->
<g id="edge40_Node000001_Node000027" class="edge">
<title>Node1&#45;&gt;Node27</title>
<g id="a_edge40_Node000001_Node000027"><a xlink:title=" ">
<path fill="none" stroke="#63b8ff" d="M519.93,-241.76C666.27,-219.26 1011.8,-166.15 1160.94,-143.22"/>
<polygon fill="#63b8ff" stroke="#63b8ff" points="1161.34,-146.7 1170.69,-141.72 1160.28,-139.78 1161.34,-146.7"/>
</a>
</g>
</g>
<!-- Node3 -->
<g id="Node000003" class="node">
<title>Node3</title>
<g id="a_Node000003"><a xlink:title=" ">
<polygon fill="#e0e0e0" stroke="#999999" points="641,-80.12 598,-80.12 598,-60.88 641,-60.88 641,-80.12"/>
<text text-anchor="middle" x="619.5" y="-66.62" font-family="Helvetica,sans-Serif" font-size="10.00">vector</text>
</a>
</g>
</g>
<!-- Node2&#45;&gt;Node3 -->
<g id="edge2_Node000002_Node000003" class="edge">
<title>Node2&#45;&gt;Node3</title>
<g id="a_edge2_Node000002_Node000003"><a xlink:title=" ">
<path fill="none" stroke="#63b8ff" d="M185.39,-126.45C264.47,-120.1 419.76,-106.2 550.5,-85.75 562.25,-83.91 575.03,-81.42 586.36,-79.02"/>
<polygon fill="#63b8ff" stroke="#63b8ff" points="587.02,-82.46 596.06,-76.92 585.54,-75.62 587.02,-82.46"/>
</a>
</g>
</g>
<!-- Node4 -->
<g id="Node000004" class="node">
<title>Node4</title>
<g id="a_Node000004"><a xlink:title=" ">
<polygon fill="#e0e0e0" stroke="#999999" points="331.5,-19.25 291.5,-19.25 291.5,0 331.5,0 331.5,-19.25"/>
<text text-anchor="middle" x="311.5" y="-5.75" font-family="Helvetica,sans-Serif" font-size="10.00">string</text>
</a>
</g>
</g>
<!-- Node2&#45;&gt;Node4 -->
<g id="edge3_Node000002_Node000004" class="edge">
<title>Node2&#45;&gt;Node4</title>
<g id="a_edge3_Node000002_Node000004"><a xlink:title=" ">
<path fill="none" stroke="#63b8ff" d="M130.74,-121.31C126.64,-105.87 120.98,-74.26 136.5,-55.25 176.61,-6.1 214.01,-33.62 280.35,-19.43"/>
<polygon fill="#63b8ff" stroke="#63b8ff" points="280.89,-22.9 289.78,-17.14 279.24,-16.1 280.89,-22.9"/>
</a>
</g>
</g>
<!-- Node5 -->
<g id="Node000005" class="node">
<title>Node5</title>
<g id="a_Node000005"><a xlink:title=" ">
<polygon fill="#e0e0e0" stroke="#999999" points="61,-80.12 0,-80.12 0,-60.88 61,-60.88 61,-80.12"/>
<text text-anchor="middle" x="30.5" y="-66.62" font-family="Helvetica,sans-Serif" font-size="10.00">replxx.hxx</text>
</a>
</g>
</g>
<!-- Node2&#45;&gt;Node5 -->
<g id="edge4_Node000002_Node000005" class="edge">
<title>Node2&#45;&gt;Node5</title>
<g id="a_edge4_Node000002_Node000005"><a xlink:title=" ">
<path fill="none" stroke="#63b8ff" d="M117.86,-121.43C101.52,-112.1 75.63,-97.3 56.27,-86.23"/>
<polygon fill="#63b8ff" stroke="#63b8ff" points="58.02,-83.2 47.6,-81.28 54.55,-89.28 58.02,-83.2"/>
</a>
</g>
</g>
<!-- Node10&#45;&gt;Node3 -->
<g id="edge10_Node000010_Node000003" class="edge">
<title>Node10&#45;&gt;Node3</title>
<g id="a_edge10_Node000010_Node000003"><a xlink:title=" ">
<path fill="none" stroke="#63b8ff" d="M619.5,-176.67C619.5,-158.5 619.5,-116.92 619.5,-91.82"/>
<polygon fill="#63b8ff" stroke="#63b8ff" points="623,-91.93 619.5,-81.93 616,-91.93 623,-91.93"/>
</a>
</g>
</g>
<!-- Node11 -->
<g id="Node000011" class="node">
<title>Node11</title>
<g id="a_Node000011"><a xlink:href="../../de/dfd/Value_8hpp.html" target="_top" xlink:title="Default value type handled by the virtual machine.">
<polygon fill="white" stroke="#666666" points="955.88,-141 861.12,-141 861.12,-121.75 955.88,-121.75 955.88,-141"/>
<text text-anchor="middle" x="908.5" y="-127.5" font-family="Helvetica,sans-Serif" font-size="10.00">Ark/VM/Value.hpp</text>
</a>
</g>
</g>
<!-- Node10&#45;&gt;Node11 -->
<g id="edge11_Node000010_Node000011" class="edge">
<title>Node10&#45;&gt;Node11</title>
<g id="a_edge11_Node000010_Node000011"><a xlink:title=" ">
<path fill="none" stroke="#63b8ff" d="M668.85,-176.53C718.87,-167.32 796.26,-153.06 849.49,-143.25"/>
<polygon fill="#63b8ff" stroke="#63b8ff" points="850.1,-146.69 859.3,-141.44 848.83,-139.81 850.1,-146.69"/>
</a>
</g>
</g>
<!-- Node20 -->
<g id="Node000020" class="node">
<title>Node20</title>
<g id="a_Node000020"><a xlink:href="../../d2/de9/Exceptions_8hpp.html" target="_top" xlink:title="ArkScript homemade exceptions.">
<polygon fill="white" stroke="#666666" points="531.25,-141 429.75,-141 429.75,-121.75 531.25,-121.75 531.25,-141"/>
<text text-anchor="middle" x="480.5" y="-127.5" font-family="Helvetica,sans-Serif" font-size="10.00">Ark/Exceptions.hpp</text>
</a>
</g>
</g>
<!-- Node10&#45;&gt;Node20 -->
<g id="edge27_Node000010_Node000020" class="edge">
<title>Node10&#45;&gt;Node20</title>
<g id="a_edge27_Node000010_Node000020"><a xlink:title=" ">
<path fill="none" stroke="#63b8ff" d="M595.92,-176.59C573.66,-168.06 540.01,-155.17 514.78,-145.51"/>
<polygon fill="#63b8ff" stroke="#63b8ff" points="516.2,-142.3 505.61,-141.99 513.69,-148.84 516.2,-142.3"/>
</a>
</g>
</g>
<!-- Node11&#45;&gt;Node3 -->
<g id="edge12_Node000011_Node000003" class="edge">
<title>Node11&#45;&gt;Node3</title>
<g id="a_edge12_Node000011_Node000003"><a xlink:title=" ">
<path fill="none" stroke="#63b8ff" d="M860.76,-124.88C809.41,-118.3 725.67,-105.6 655.5,-85.75 653.92,-85.3 652.32,-84.81 650.71,-84.29"/>
<polygon fill="#63b8ff" stroke="#63b8ff" points="652.21,-81.11 641.62,-81.03 649.85,-87.7 652.21,-81.11"/>
</a>
</g>
</g>
<!-- Node11&#45;&gt;Node4 -->
<g id="edge14_Node000011_Node000004" class="edge">
<title>Node11&#45;&gt;Node4</title>
<g id="a_edge14_Node000011_Node000004"><a xlink:title=" ">
<path fill="none" stroke="#63b8ff" d="M860.98,-127.25C814.99,-122.75 744.26,-111.88 688.5,-85.75 668.89,-76.56 670.42,-63.76 650.5,-55.25 595.3,-31.67 415.74,-17.5 342.77,-12.58"/>
<polygon fill="#63b8ff" stroke="#63b8ff" points="343.33,-9.11 333.12,-11.95 342.87,-16.1 343.33,-9.11"/>
</a>
</g>
</g>
<!-- Node12 -->
<g id="Node000012" class="node">
<title>Node12</title>
<g id="a_Node000012"><a xlink:title=" ">
<polygon fill="#e0e0e0" stroke="#999999" points="931.12,-80.12 885.88,-80.12 885.88,-60.88 931.12,-60.88 931.12,-80.12"/>
<text text-anchor="middle" x="908.5" y="-66.62" font-family="Helvetica,sans-Serif" font-size="10.00">variant</text>
</a>
</g>
</g>
<!-- Node11&#45;&gt;Node12 -->
<g id="edge13_Node000011_Node000012" class="edge">
<title>Node11&#45;&gt;Node12</title>
<g id="a_edge13_Node000011_Node000012"><a xlink:title=" ">
<path fill="none" stroke="#63b8ff" d="M908.5,-121.43C908.5,-113.65 908.5,-102.08 908.5,-92.03"/>
<polygon fill="#63b8ff" stroke="#63b8ff" points="912,-92.04 908.5,-82.04 905,-92.04 912,-92.04"/>
</a>
</g>
</g>
<!-- Node13 -->
<g id="Node000013" class="node">
<title>Node13</title>
<g id="a_Node000013"><a xlink:title=" ">
<polygon fill="#e0e0e0" stroke="#999999" points="1278.38,-19.25 1222.62,-19.25 1222.62,0 1278.38,0 1278.38,-19.25"/>
<text text-anchor="middle" x="1250.5" y="-5.75" font-family="Helvetica,sans-Serif" font-size="10.00">cinttypes</text>
</a>
</g>
</g>
<!-- Node11&#45;&gt;Node13 -->
<g id="edge15_Node000011_Node000013" class="edge">
<title>Node11&#45;&gt;Node13</title>
<g id="a_edge15_Node000011_Node000013"><a xlink:title=" ">
<path fill="none" stroke="#63b8ff" d="M956.35,-127.12C1004.87,-122.49 1081.31,-111.48 1142.5,-85.75 1177.03,-71.23 1211.65,-44.47 1232.07,-27.12"/>
<polygon fill="#63b8ff" stroke="#63b8ff" points="1234.25,-29.87 1239.5,-20.67 1229.66,-24.58 1234.25,-29.87"/>
</a>
</g>
</g>
<!-- Node14 -->
<g id="Node000014" class="node">
<title>Node14</title>
<g id="a_Node000014"><a xlink:title=" ">
<polygon fill="#e0e0e0" stroke="#999999" points="1174.38,-19.25 1136.62,-19.25 1136.62,0 1174.38,0 1174.38,-19.25"/>
<text text-anchor="middle" x="1155.5" y="-5.75" font-family="Helvetica,sans-Serif" font-size="10.00">array</text>
</a>
</g>
</g>
<!-- Node11&#45;&gt;Node14 -->
<g id="edge16_Node000011_Node000014" class="edge">
<title>Node11&#45;&gt;Node14</title>
<g id="a_edge16_Node000011_Node000014"><a xlink:title=" ">
<path fill="none" stroke="#63b8ff" d="M956.12,-124.91C1009.48,-117.98 1091.76,-104.62 1116.5,-85.75 1134.45,-72.06 1144.9,-47.74 1150.39,-30.49"/>
<polygon fill="#63b8ff" stroke="#63b8ff" points="1153.69,-31.69 1153.07,-21.11 1146.96,-29.76 1153.69,-31.69"/>
</a>
</g>
</g>
<!-- Node15 -->
<g id="Node000015" class="node">
<title>Node15</title>
<g id="a_Node000015"><a xlink:href="../../dc/dd5/Closure_8hpp.html" target="_top" xlink:title="Subtype of the value type, handling closures.">
<polygon fill="white" stroke="#666666" points="829.25,-80.12 697.75,-80.12 697.75,-60.88 829.25,-60.88 829.25,-80.12"/>
<text text-anchor="middle" x="763.5" y="-66.62" font-family="Helvetica,sans-Serif" font-size="10.00">Ark/VM/Value/Closure.hpp</text>
</a>
</g>
</g>
<!-- Node11&#45;&gt;Node15 -->
<g id="edge17_Node000011_Node000015" class="edge">
<title>Node11&#45;&gt;Node15</title>
<g id="a_edge17_Node000011_Node000015"><a xlink:title=" ">
<path fill="none" stroke="#63b8ff" d="M886.16,-121.3C862.14,-111.55 823.72,-95.95 796.28,-84.81"/>
<polygon fill="#63b8ff" stroke="#63b8ff" points="797.61,-81.57 787.03,-81.05 794.98,-88.06 797.61,-81.57"/>
</a>
</g>
</g>
<!-- Node18 -->
<g id="Node000018" class="node">
<title>Node18</title>
<g id="a_Node000018"><a xlink:href="../../d5/d40/Platform_8hpp.html" target="_top" xlink:title="ArkScript configuration macros.">
<polygon fill="white" stroke="#666666" points="983.25,-19.25 893.75,-19.25 893.75,0 983.25,0 983.25,-19.25"/>
<text text-anchor="middle" x="938.5" y="-5.75" font-family="Helvetica,sans-Serif" font-size="10.00">Ark/Platform.hpp</text>
</a>
</g>
</g>
<!-- Node11&#45;&gt;Node18 -->
<g id="edge26_Node000011_Node000018" class="edge">
<title>Node11&#45;&gt;Node18</title>
<g id="a_edge26_Node000011_Node000018"><a xlink:title=" ">
<path fill="none" stroke="#63b8ff" d="M955.96,-125.88C1006.33,-120.01 1081.03,-107.79 1098.5,-85.75 1130.3,-45.61 1052.66,-25.88 994.74,-17.01"/>
<polygon fill="#63b8ff" stroke="#63b8ff" points="995.35,-13.56 984.95,-15.59 994.35,-20.49 995.35,-13.56"/>
</a>
</g>
</g>
<!-- Node19 -->
<g id="Node000019" class="node">
<title>Node19</title>
<g id="a_Node000019"><a xlink:href="../../dc/d3d/UserType_8hpp.html" target="_top" xlink:title="Subtype of the value, capable of handling any C++ type.">
<polygon fill="white" stroke="#666666" points="1089.38,-80.12 949.62,-80.12 949.62,-60.88 1089.38,-60.88 1089.38,-80.12"/>
<text text-anchor="middle" x="1019.5" y="-66.62" font-family="Helvetica,sans-Serif" font-size="10.00">Ark/VM/Value/UserType.hpp</text>
</a>
</g>
</g>
<!-- Node11&#45;&gt;Node19 -->
<g id="edge22_Node000011_Node000019" class="edge">
<title>Node11&#45;&gt;Node19</title>
<g id="a_edge22_Node000011_Node000019"><a xlink:title=" ">
<path fill="none" stroke="#63b8ff" d="M925.36,-121.43C943.21,-111.97 971.64,-96.89 992.59,-85.77"/>
<polygon fill="#63b8ff" stroke="#63b8ff" points="993.95,-89.01 1001.15,-81.24 990.67,-82.83 993.95,-89.01"/>
</a>
</g>
</g>
<!-- Node15&#45;&gt;Node4 -->
<g id="edge20_Node000015_Node000004" class="edge">
<title>Node15&#45;&gt;Node4</title>
<g id="a_edge20_Node000015_Node000004"><a xlink:title=" ">
<path fill="none" stroke="#63b8ff" d="M714.92,-60.39C704.57,-58.58 693.69,-56.77 683.5,-55.25 557.78,-36.53 407.25,-20.39 343.03,-13.8"/>
<polygon fill="#63b8ff" stroke="#63b8ff" points="343.53,-10.33 333.22,-12.79 342.82,-17.29 343.53,-10.33"/>
</a>
</g>
</g>
<!-- Node16 -->
<g id="Node000016" class="node">
<title>Node16</title>
<g id="a_Node000016"><a xlink:title=" ">
<polygon fill="#e0e0e0" stroke="#999999" points="792.12,-19.25 740.88,-19.25 740.88,0 792.12,0 792.12,-19.25"/>
<text text-anchor="middle" x="766.5" y="-5.75" font-family="Helvetica,sans-Serif" font-size="10.00">memory</text>
</a>
</g>
</g>
<!-- Node15&#45;&gt;Node16 -->
<g id="edge18_Node000015_Node000016" class="edge">
<title>Node15&#45;&gt;Node16</title>
<g id="a_edge18_Node000015_Node000016"><a xlink:title=" ">
<path fill="none" stroke="#63b8ff" d="M763.96,-60.56C764.36,-52.69 764.95,-40.95 765.47,-30.82"/>
<polygon fill="#63b8ff" stroke="#63b8ff" points="768.95,-31.33 765.96,-21.16 761.96,-30.97 768.95,-31.33"/>
</a>
</g>
</g>
<!-- Node17 -->
<g id="Node000017" class="node">
<title>Node17</title>
<g id="a_Node000017"><a xlink:title=" ">
<polygon fill="#e0e0e0" stroke="#999999" points="723.25,-19.25 669.75,-19.25 669.75,0 723.25,0 723.25,-19.25"/>
<text text-anchor="middle" x="696.5" y="-5.75" font-family="Helvetica,sans-Serif" font-size="10.00">iostream</text>
</a>
</g>
</g>
<!-- Node15&#45;&gt;Node17 -->
<g id="edge19_Node000015_Node000017" class="edge">
<title>Node15&#45;&gt;Node17</title>
<g id="a_edge19_Node000015_Node000017"><a xlink:title=" ">
<path fill="none" stroke="#63b8ff" d="M753.32,-60.56C743.29,-51.74 727.71,-38.05 715.4,-27.23"/>
<polygon fill="#63b8ff" stroke="#63b8ff" points="717.73,-24.62 707.91,-20.65 713.11,-29.88 717.73,-24.62"/>
</a>
</g>
</g>
<!-- Node15&#45;&gt;Node18 -->
<g id="edge21_Node000015_Node000018" class="edge">
<title>Node15&#45;&gt;Node18</title>
<g id="a_edge21_Node000015_Node000018"><a xlink:title=" ">
<path fill="none" stroke="#63b8ff" d="M790.46,-60.43C820.01,-50.49 867.61,-34.47 900.84,-23.29"/>
<polygon fill="#63b8ff" stroke="#63b8ff" points="901.71,-26.69 910.07,-20.19 899.48,-20.06 901.71,-26.69"/>
</a>
</g>
</g>
<!-- Node19&#45;&gt;Node13 -->
<g id="edge24_Node000019_Node000013" class="edge">
<title>Node19&#45;&gt;Node13</title>
<g id="a_edge24_Node000019_Node000013"><a xlink:title=" ">
<path fill="none" stroke="#63b8ff" d="M1055.09,-60.43C1097.26,-49.68 1167.31,-31.83 1211.09,-20.67"/>
<polygon fill="#63b8ff" stroke="#63b8ff" points="1211.86,-24.08 1220.69,-18.22 1210.13,-17.3 1211.86,-24.08"/>
</a>
</g>
</g>
<!-- Node19&#45;&gt;Node17 -->
<g id="edge23_Node000019_Node000017" class="edge">
<title>Node19&#45;&gt;Node17</title>
<g id="a_edge23_Node000019_Node000017"><a xlink:title=" ">
<path fill="none" stroke="#63b8ff" d="M969.36,-60.39C959.78,-58.67 949.83,-56.9 940.5,-55.25 851.21,-39.51 825.68,-38.59 734.71,-19.82"/>
<polygon fill="#63b8ff" stroke="#63b8ff" points="735.57,-16.42 725.07,-17.81 734.15,-23.28 735.57,-16.42"/>
</a>
</g>
</g>
<!-- Node19&#45;&gt;Node18 -->
<g id="edge25_Node000019_Node000018" class="edge">
<title>Node19&#45;&gt;Node18</title>
<g id="a_edge25_Node000019_Node000018"><a xlink:title=" ">
<path fill="none" stroke="#63b8ff" d="M1007.2,-60.56C994.71,-51.48 975.12,-37.24 960.05,-26.29"/>
<polygon fill="#63b8ff" stroke="#63b8ff" points="962.29,-23.59 952.14,-20.54 958.17,-29.25 962.29,-23.59"/>
</a>
</g>
</g>
<!-- Node20&#45;&gt;Node3 -->
<g id="edge30_Node000020_Node000003" class="edge">
<title>Node20&#45;&gt;Node3</title>
<g id="a_edge30_Node000020_Node000003"><a xlink:title=" ">
<path fill="none" stroke="#63b8ff" d="M501.91,-121.3C524.84,-111.6 561.45,-96.09 587.73,-84.96"/>
<polygon fill="#63b8ff" stroke="#63b8ff" points="589.05,-88.2 596.9,-81.07 586.32,-81.75 589.05,-88.2"/>
</a>
</g>
</g>
<!-- Node20&#45;&gt;Node4 -->
<g id="edge28_Node000020_Node000004" class="edge">
<title>Node20&#45;&gt;Node4</title>
<g id="a_edge28_Node000020_Node000004"><a xlink:title=" ">
<path fill="none" stroke="#63b8ff" d="M429.35,-127.2C340.38,-121.15 164.83,-106.69 146.5,-85.75 137.57,-75.55 138.23,-65.99 146.5,-55.25 182.55,-8.41 218.18,-33.07 280.21,-19.5"/>
<polygon fill="#63b8ff" stroke="#63b8ff" points="280.92,-22.93 289.77,-17.1 279.22,-16.14 280.92,-22.93"/>
</a>
</g>
</g>
<!-- Node20&#45;&gt;Node17 -->
<g id="edge34_Node000020_Node000017" class="edge">
<title>Node20&#45;&gt;Node17</title>
<g id="a_edge34_Node000020_Node000017"><a xlink:title=" ">
<path fill="none" stroke="#63b8ff" d="M495.52,-121.38C509.88,-112.64 532.03,-98.82 550.5,-85.75 568.46,-73.04 570.51,-66.36 589.5,-55.25 611.44,-42.41 637.78,-31.38 658.83,-23.5"/>
<polygon fill="#63b8ff" stroke="#63b8ff" points="660,-26.8 668.19,-20.08 657.6,-20.22 660,-26.8"/>
</a>
</g>
</g>
<!-- Node20&#45;&gt;Node18 -->
<g id="edge39_Node000020_Node000018" class="edge">
<title>Node20&#45;&gt;Node18</title>
<g id="a_edge39_Node000020_Node000018"><a xlink:title=" ">
<path fill="none" stroke="#63b8ff" d="M531.72,-127.44C617.07,-121.97 784.35,-108.66 838.5,-85.75 858.45,-77.31 859.26,-68.36 876.5,-55.25 889.53,-45.34 904.41,-34.61 916.33,-26.16"/>
<polygon fill="#63b8ff" stroke="#63b8ff" points="918.14,-29.16 924.3,-20.53 914.11,-23.44 918.14,-29.16"/>
</a>
</g>
</g>
<!-- Node21 -->
<g id="Node000021" class="node">
<title>Node21</title>
<g id="a_Node000021"><a xlink:title=" ">
<polygon fill="#e0e0e0" stroke="#999999" points="397.12,-80.12 357.88,-80.12 357.88,-60.88 397.12,-60.88 397.12,-80.12"/>
<text text-anchor="middle" x="377.5" y="-66.62" font-family="Helvetica,sans-Serif" font-size="10.00">utility</text>
</a>
</g>
</g>
<!-- Node20&#45;&gt;Node21 -->
<g id="edge29_Node000020_Node000021" class="edge">
<title>Node20&#45;&gt;Node21</title>
<g id="a_edge29_Node000020_Node000021"><a xlink:title=" ">
<path fill="none" stroke="#63b8ff" d="M464.86,-121.43C448.52,-112.1 422.63,-97.3 403.27,-86.23"/>
<polygon fill="#63b8ff" stroke="#63b8ff" points="405.02,-83.2 394.6,-81.28 401.55,-89.28 405.02,-83.2"/>
</a>
</g>
</g>
<!-- Node22 -->
<g id="Node000022" class="node">
<title>Node22</title>
<g id="a_Node000022"><a xlink:title=" ">
<polygon fill="#e0e0e0" stroke="#999999" points="473.88,-80.12 415.12,-80.12 415.12,-60.88 473.88,-60.88 473.88,-80.12"/>
<text text-anchor="middle" x="444.5" y="-66.62" font-family="Helvetica,sans-Serif" font-size="10.00">stdexcept</text>
</a>
</g>
</g>
<!-- Node20&#45;&gt;Node22 -->
<g id="edge31_Node000020_Node000022" class="edge">
<title>Node20&#45;&gt;Node22</title>
<g id="a_edge31_Node000020_Node000022"><a xlink:title=" ">
<path fill="none" stroke="#63b8ff" d="M475.03,-121.43C469.96,-113.13 462.24,-100.52 455.84,-90.05"/>
<polygon fill="#63b8ff" stroke="#63b8ff" points="459.01,-88.52 450.81,-81.82 453.04,-92.17 459.01,-88.52"/>
</a>
</g>
</g>
<!-- Node23 -->
<g id="Node000023" class="node">
<title>Node23</title>
<g id="a_Node000023"><a xlink:title=" ">
<polygon fill="#e0e0e0" stroke="#999999" points="541.38,-80.12 491.62,-80.12 491.62,-60.88 541.38,-60.88 541.38,-80.12"/>
<text text-anchor="middle" x="516.5" y="-66.62" font-family="Helvetica,sans-Serif" font-size="10.00">optional</text>
</a>
</g>
</g>
<!-- Node20&#45;&gt;Node23 -->
<g id="edge32_Node000020_Node000023" class="edge">
<title>Node20&#45;&gt;Node23</title>
<g id="a_edge32_Node000020_Node000023"><a xlink:title=" ">
<path fill="none" stroke="#63b8ff" d="M485.97,-121.43C491.04,-113.13 498.76,-100.52 505.16,-90.05"/>
<polygon fill="#63b8ff" stroke="#63b8ff" points="507.96,-92.17 510.19,-81.82 501.99,-88.52 507.96,-92.17"/>
</a>
</g>
</g>
<!-- Node24 -->
<g id="Node000024" class="node">
<title>Node24</title>
<g id="a_Node000024"><a xlink:title=" ">
<polygon fill="#e0e0e0" stroke="#999999" points="207.12,-80.12 155.88,-80.12 155.88,-60.88 207.12,-60.88 207.12,-80.12"/>
<text text-anchor="middle" x="181.5" y="-66.62" font-family="Helvetica,sans-Serif" font-size="10.00">ostream</text>
</a>
</g>
</g>
<!-- Node20&#45;&gt;Node24 -->
<g id="edge33_Node000020_Node000024" class="edge">
<title>Node20&#45;&gt;Node24</title>
<g id="a_edge33_Node000020_Node000024"><a xlink:title=" ">
<path fill="none" stroke="#63b8ff" d="M429.41,-125.3C375.47,-119.13 288.32,-106.84 215.5,-85.75 214.15,-85.36 212.78,-84.93 211.41,-84.47"/>
<polygon fill="#63b8ff" stroke="#63b8ff" points="213.01,-81.34 202.42,-81.1 210.55,-87.89 213.01,-81.34"/>
</a>
</g>
</g>
<!-- Node25 -->
<g id="Node000025" class="node">
<title>Node25</title>
<g id="a_Node000025"><a xlink:href="../../db/d4e/utf8__char_8hpp.html" target="_top" xlink:title=" ">
<polygon fill="white" stroke="#666666" points="340,-85.75 225,-85.75 225,-55.25 340,-55.25 340,-85.75"/>
<text text-anchor="start" x="233" y="-72.25" font-family="Helvetica,sans-Serif" font-size="10.00">Ark/Compiler/AST/utf8</text>
<text text-anchor="middle" x="282.5" y="-61" font-family="Helvetica,sans-Serif" font-size="10.00">_char.hpp</text>
</a>
</g>
</g>
<!-- Node20&#45;&gt;Node25 -->
<g id="edge35_Node000020_Node000025" class="edge">
<title>Node20&#45;&gt;Node25</title>
<g id="a_edge35_Node000020_Node000025"><a xlink:title=" ">
<path fill="none" stroke="#63b8ff" d="M450,-121.3C421.49,-112.83 378.11,-99.93 342.65,-89.38"/>
<polygon fill="#63b8ff" stroke="#63b8ff" points="343.95,-86.12 333.37,-86.63 341.96,-92.83 343.95,-86.12"/>
</a>
</g>
</g>
<!-- Node25&#45;&gt;Node4 -->
<g id="edge37_Node000025_Node000004" class="edge">
<title>Node25&#45;&gt;Node4</title>
<g id="a_edge37_Node000025_Node000004"><a xlink:title=" ">
<path fill="none" stroke="#63b8ff" d="M289.67,-54.95C293.4,-47.36 298.02,-37.99 302.05,-29.82"/>
<polygon fill="#63b8ff" stroke="#63b8ff" points="305.08,-31.58 306.36,-21.06 298.8,-28.48 305.08,-31.58"/>
</a>
</g>
</g>
<!-- Node25&#45;&gt;Node14 -->
<g id="edge36_Node000025_Node000014" class="edge">
<title>Node25&#45;&gt;Node14</title>
<g id="a_edge36_Node000025_Node000014"><a xlink:title=" ">
<path fill="none" stroke="#63b8ff" d="M340.36,-56.47C343.1,-56.02 345.83,-55.61 348.5,-55.25 368.11,-52.61 980.27,-19.95 1125.03,-12.24"/>
<polygon fill="#63b8ff" stroke="#63b8ff" points="1125.16,-15.74 1134.96,-11.72 1124.79,-8.75 1125.16,-15.74"/>
</a>
</g>
</g>
<!-- Node26 -->
<g id="Node000026" class="node">
<title>Node26</title>
<g id="a_Node000026"><a xlink:title=" ">
<polygon fill="#e0e0e0" stroke="#999999" points="273.12,-19.25 233.88,-19.25 233.88,0 273.12,0 273.12,-19.25"/>
<text text-anchor="middle" x="253.5" y="-5.75" font-family="Helvetica,sans-Serif" font-size="10.00">limits</text>
</a>
</g>
</g>
<!-- Node25&#45;&gt;Node26 -->
<g id="edge38_Node000025_Node000026" class="edge">
<title>Node25&#45;&gt;Node26</title>
<g id="a_edge38_Node000025_Node000026"><a xlink:title=" ">
<path fill="none" stroke="#63b8ff" d="M275.33,-54.95C271.6,-47.36 266.98,-37.99 262.95,-29.82"/>
<polygon fill="#63b8ff" stroke="#63b8ff" points="266.2,-28.48 258.64,-21.06 259.92,-31.58 266.2,-28.48"/>
</a>
</g>
</g>
<!-- Node27&#45;&gt;Node3 -->
<g id="edge43_Node000027_Node000003" class="edge">
<title>Node27&#45;&gt;Node3</title>
<g id="a_edge43_Node000027_Node000003"><a xlink:title=" ">
<path fill="none" stroke="#63b8ff" d="M1163.91,-127.47C1060.9,-122.44 858.66,-110.22 688.5,-85.75 676.73,-84.06 663.95,-81.59 652.62,-79.19"/>
<polygon fill="#63b8ff" stroke="#63b8ff" points="653.44,-75.79 642.92,-77.07 651.94,-82.63 653.44,-75.79"/>
</a>
</g>
</g>
<!-- Node27&#45;&gt;Node13 -->
<g id="edge44_Node000027_Node000013" class="edge">
<title>Node27&#45;&gt;Node13</title>
<g id="a_edge44_Node000027_Node000013"><a xlink:title=" ">
<path fill="none" stroke="#63b8ff" d="M1235.05,-121.31C1238.36,-112.4 1243.14,-98.36 1245.5,-85.75 1248.96,-67.28 1250.11,-45.87 1250.46,-30.64"/>
<polygon fill="#63b8ff" stroke="#63b8ff" points="1253.95,-31.05 1250.57,-21.01 1246.95,-30.97 1253.95,-31.05"/>
</a>
</g>
</g>
<!-- Node27&#45;&gt;Node14 -->
<g id="edge41_Node000027_Node000014" class="edge">
<title>Node27&#45;&gt;Node14</title>
<g id="a_edge41_Node000027_Node000014"><a xlink:title=" ">
<path fill="none" stroke="#63b8ff" d="M1225.79,-121.37C1213.41,-101.87 1183.89,-55.36 1167.31,-29.24"/>
<polygon fill="#63b8ff" stroke="#63b8ff" points="1170.4,-27.58 1162.09,-21.01 1164.49,-31.33 1170.4,-27.58"/>
</a>
</g>
</g>
<!-- Node28 -->
<g id="Node000028" class="node">
<title>Node28</title>
<g id="a_Node000028"><a xlink:title=" ">
<polygon fill="#e0e0e0" stroke="#999999" points="1455.25,-19.25 1389.75,-19.25 1389.75,0 1455.25,0 1455.25,-19.25"/>
<text text-anchor="middle" x="1422.5" y="-5.75" font-family="Helvetica,sans-Serif" font-size="10.00">string_view</text>
</a>
</g>
</g>
<!-- Node27&#45;&gt;Node28 -->
<g id="edge42_Node000027_Node000028" class="edge">
<title>Node27&#45;&gt;Node28</title>
<g id="a_edge42_Node000027_Node000028"><a xlink:title=" ">
<path fill="none" stroke="#63b8ff" d="M1293.33,-121.29C1336.43,-113.72 1388.9,-101.62 1404.5,-85.75 1418.73,-71.27 1422.43,-47.64 1423.07,-30.75"/>
<polygon fill="#63b8ff" stroke="#63b8ff" points="1426.57,-30.93 1423.09,-20.92 1419.57,-30.91 1426.57,-30.93"/>
</a>
</g>
</g>
<!-- Node29 -->
<g id="Node000029" class="node">
<title>Node29</title>
<g id="a_Node000029"><a xlink:href="../../d6/de9/Constants_8hpp.html" target="_top" xlink:title="Constants used by ArkScript.">
<polygon fill="white" stroke="#666666" points="1395.38,-80.12 1297.62,-80.12 1297.62,-60.88 1395.38,-60.88 1395.38,-80.12"/>
<text text-anchor="middle" x="1346.5" y="-66.62" font-family="Helvetica,sans-Serif" font-size="10.00">Ark/Constants.hpp</text>
</a>
</g>
</g>
<!-- Node27&#45;&gt;Node29 -->
<g id="edge45_Node000027_Node000029" class="edge">
<title>Node27&#45;&gt;Node29</title>
<g id="a_edge45_Node000027_Node000029"><a xlink:title=" ">
<path fill="none" stroke="#63b8ff" d="M1248.97,-121.43C1267.54,-111.92 1297.18,-96.75 1318.92,-85.62"/>
<polygon fill="#63b8ff" stroke="#63b8ff" points="1320.22,-88.89 1327.52,-81.22 1317.03,-82.66 1320.22,-88.89"/>
</a>
</g>
</g>
<!-- Node29&#45;&gt;Node13 -->
<g id="edge47_Node000029_Node000013" class="edge">
<title>Node29&#45;&gt;Node13</title>
<g id="a_edge47_Node000029_Node000013"><a xlink:title=" ">
<path fill="none" stroke="#63b8ff" d="M1331.92,-60.56C1316.84,-51.31 1293.01,-36.7 1275.02,-25.67"/>
<polygon fill="#63b8ff" stroke="#63b8ff" points="1276.86,-22.69 1266.51,-20.44 1273.2,-28.65 1276.86,-22.69"/>
</a>
</g>
</g>
<!-- Node29&#45;&gt;Node28 -->
<g id="edge46_Node000029_Node000028" class="edge">
<title>Node29&#45;&gt;Node28</title>
<g id="a_edge46_Node000029_Node000028"><a xlink:title=" ">
<path fill="none" stroke="#63b8ff" d="M1358.04,-60.56C1369.65,-51.57 1387.79,-37.51 1401.88,-26.6"/>
<polygon fill="#63b8ff" stroke="#63b8ff" points="1403.89,-29.47 1409.65,-20.58 1399.6,-23.94 1403.89,-29.47"/>
</a>
</g>
</g>
<!-- Node30 -->
<g id="Node000030" class="node">
<title>Node30</title>
<g id="a_Node000030"><a xlink:title=" ">
<polygon fill="#e0e0e0" stroke="#999999" points="1370.62,-19.25 1322.38,-19.25 1322.38,0 1370.62,0 1370.62,-19.25"/>
<text text-anchor="middle" x="1346.5" y="-5.75" font-family="Helvetica,sans-Serif" font-size="10.00">cstddef</text>
</a>
</g>
</g>
<!-- Node29&#45;&gt;Node30 -->
<g id="edge48_Node000029_Node000030" class="edge">
<title>Node29&#45;&gt;Node30</title>
<g id="a_edge48_Node000029_Node000030"><a xlink:title=" ">
<path fill="none" stroke="#63b8ff" d="M1346.5,-60.56C1346.5,-52.78 1346.5,-41.2 1346.5,-31.16"/>
<polygon fill="#63b8ff" stroke="#63b8ff" points="1350,-31.16 1346.5,-21.16 1343,-31.16 1350,-31.16"/>
</a>
</g>
</g>
</g>
</svg>

<g id="navigator" transform="translate(0 0)" fill="#404254">
  <rect fill="#f2f5e9" fill-opacity="0.5" stroke="#606060" stroke-width=".5" x="0" y="0" width="60" height="60"/>
  <use id="zoomplus" xlink:href="#zoomPlus" x="17" y="9" onmousedown="handleZoom(evt,'in')"/>
  <use id="zoomminus" xlink:href="#zoomMin" x="42" y="9" onmousedown="handleZoom(evt,'out')"/>
  <use id="reset" xlink:href="#resetDef" x="30" y="36" onmousedown="handleReset()"/>
   <use id="arrowup" xlink:href="#arrowUp" x="0" y="0" onmousedown="handlePan(0,-1)"/>
  <use id="arrowright" xlink:href="#arrowRight" x="0" y="0" onmousedown="handlePan(1,0)"/>
  <use id="arrowdown" xlink:href="#arrowDown" x="0" y="0" onmousedown="handlePan(0,1)"/>
  <use id="arrowleft" xlink:href="#arrowLeft" x="0" y="0" onmousedown="handlePan(-1,0)"/>
</g>
<svg viewBox="0 0 15 15" width="100%" height="30px" preserveAspectRatio="xMaxYMin meet">
 <g id="arrow_out" transform="scale(0.3 0.3)">
  <a xlink:href="arkscript_2REPL_2Utils_8cpp__incl_org.svg" target="_base">
   <rect id="button" ry="5" rx="5" y="6" x="6" height="38" width="38"
        fill="#f2f5e9" fill-opacity="0.5" stroke="#606060" stroke-width="1.0"/>
   <path id="arrow"
     d="M 11.500037,31.436501 C 11.940474,20.09759 22.043105,11.32322 32.158766,21.979434 L 37.068811,17.246167 C 37.068811,17.246167 37.088388,32 37.088388,32 L 22.160133,31.978069 C 22.160133,31.978069 26.997745,27.140456 26.997745,27.140456 C 18.528582,18.264221 13.291696,25.230495 11.500037,31.436501 z"
     style="fill:#404040;"/>
  </a>
 </g>
</svg>

<style type='text/css'>
<![CDATA[
[data-mouse-over-selected='false'] { opacity: 0.7; }
[data-mouse-over-selected='true']  { opacity: 1.0; }
]]>
</style>
<script type="application/ecmascript"><![CDATA[
document.addEventListener('DOMContentLoaded', (event) => {
  highlightEdges();
  highlightAdjacentNodes();
});
]]></script>
</svg>
