<?xml version="1.0" encoding="UTF-8" standalone="no"?>
<!DOCTYPE svg PUBLIC "-//W3C//DTD SVG 1.1//EN"
 "http://www.w3.org/Graphics/SVG/1.1/DTD/svg11.dtd">
<!-- Generated by graphviz version 7.1.0 (20230121.1956)
 -->
<!-- Title: /Users/fola/Documents/ArkScript/Ark/include/Ark/TypeChecker.hpp Pages: 1 -->
<!--zoomable 214 -->
<svg id="main" version="1.1" xmlns="http://www.w3.org/2000/svg" xmlns:xlink="http://www.w3.org/1999/xlink" xml:space="preserve" onload="init(evt)">
<style type="text/css"><![CDATA[
.edge:hover path { stroke: red; }
.edge:hover polygon { stroke: red; fill: red; }
]]></style>
<script type="text/javascript"><![CDATA[
var edges = document.getElementsByTagName('g');
if (edges && edges.length) {
  for (var i=0;i<edges.length;i++) {
    if (edges[i].id.substr(0,4)=='edge') {
      edges[i].setAttribute('class','edge');
    }
  }
}
]]></script>
        <defs>
                <circle id="rim" cx="0" cy="0" r="7"/>
                <circle id="rim2" cx="0" cy="0" r="3.5"/>
                <g id="zoomPlus">
                        <use xlink:href="#rim" fill="#404040">
                                <set attributeName="fill" to="#808080" begin="zoomplus.mouseover" end="zoomplus.mouseout"/>
                        </use>
                        <path d="M-4,0h8M0,-4v8" fill="none" stroke="white" stroke-width="1.5" pointer-events="none"/>
                </g>
                <g id="zoomMin">
                        <use xlink:href="#rim" fill="#404040">
                                <set attributeName="fill" to="#808080" begin="zoomminus.mouseover" end="zoomminus.mouseout"/>
                        </use>
                        <path d="M-4,0h8" fill="none" stroke="white" stroke-width="1.5" pointer-events="none"/>
                </g>
                <g id="dirArrow">
                        <path fill="none" stroke="white" stroke-width="1.5" d="M0,-3.0v7 M-2.5,-0.5L0,-3.0L2.5,-0.5"/>
                </g>
               <g id="resetDef">
                       <use xlink:href="#rim2" fill="#404040">
                               <set attributeName="fill" to="#808080" begin="reset.mouseover" end="reset.mouseout"/>
                       </use>
               </g>
        </defs>

<script type="text/javascript">
var viewWidth = 1085;
var viewHeight = 214;
var sectionId = 'dynsection-0';
</script>
<script xlink:href="../../svgpan.js"/>
<svg id="graph" class="graph">
<g id="viewport">
<title>/Users/fola/Documents/ArkScript/Ark/include/Ark/TypeChecker.hpp</title>
<!-- Node1 -->
<g id="node1" class="node">
<title>Node1</title>
<g id="a_node1"><a xlink:title=" ">
<polygon fill="#999999" stroke="#666666" points="176,-206 58,-206 58,-165 176,-165 176,-206"/>
<text text-anchor="start" x="66" y="-194" font-family="Helvetica,sans-Serif" font-size="10.00">/Users/fola/Documents</text>
<text text-anchor="start" x="66" y="-183" font-family="Helvetica,sans-Serif" font-size="10.00">/ArkScript/Ark/include</text>
<text text-anchor="middle" x="117" y="-172" font-family="Helvetica,sans-Serif" font-size="10.00">/Ark/TypeChecker.hpp</text>
</a>
</g>
</g>
<!-- Node2 -->
<g id="node2" class="node">
<title>Node2</title>
<g id="a_node2"><a xlink:title=" ">
<polygon fill="#e0e0e0" stroke="#999999" points="40,-129 0,-129 0,-110 40,-110 40,-129"/>
<text text-anchor="middle" x="20" y="-117" font-family="Helvetica,sans-Serif" font-size="10.00">limits</text>
</a>
</g>
</g>
<!-- Node1&#45;&gt;Node2 -->
<g id="edge1" class="edge">
<title>Node1&#45;&gt;Node2</title>
<path fill="none" stroke="#63b8ff" d="M86.84,-164.6C72.57,-155.19 55.82,-144.13 42.65,-135.44"/>
<polygon fill="#63b8ff" stroke="#63b8ff" points="44.92,-132.75 34.65,-130.16 41.07,-138.59 44.92,-132.75"/>
</g>
<!-- Node3 -->
<g id="node3" class="node">
<title>Node3</title>
<g id="a_node3"><a xlink:title=" ">
<polygon fill="#e0e0e0" stroke="#999999" points="137.5,-74 96.5,-74 96.5,-55 137.5,-55 137.5,-74"/>
<text text-anchor="middle" x="117" y="-62" font-family="Helvetica,sans-Serif" font-size="10.00">string</text>
</a>
</g>
</g>
<!-- Node1&#45;&gt;Node3 -->
<g id="edge2" class="edge">
<title>Node1&#45;&gt;Node3</title>
<path fill="none" stroke="#63b8ff" d="M117,-164.58C117,-142.68 117,-107.68 117,-85.68"/>
<polygon fill="#63b8ff" stroke="#63b8ff" points="120.5,-85.93 117,-75.93 113.5,-85.93 120.5,-85.93"/>
</g>
<!-- Node4 -->
<g id="node4" class="node">
<title>Node4</title>
<g id="a_node4"><a xlink:title=" ">
<polygon fill="#e0e0e0" stroke="#999999" points="454,-19 410,-19 410,0 454,0 454,-19"/>
<text text-anchor="middle" x="432" y="-7" font-family="Helvetica,sans-Serif" font-size="10.00">vector</text>
</a>
</g>
</g>
<!-- Node1&#45;&gt;Node4 -->
<g id="edge3" class="edge">
<title>Node1&#45;&gt;Node4</title>
<path fill="none" stroke="#63b8ff" d="M103.09,-164.82C85.26,-136.98 59.72,-86.02 87,-55 107.41,-31.79 315.73,-17.25 398.43,-12.35"/>
<polygon fill="#63b8ff" stroke="#63b8ff" points="398.39,-15.86 408.17,-11.78 397.98,-8.87 398.39,-15.86"/>
</g>
<!-- Node5 -->
<g id="node5" class="node">
<title>Node5</title>
<g id="a_node5"><a xlink:title=" ">
<polygon fill="#e0e0e0" stroke="#999999" points="615,-129 553,-129 553,-110 615,-110 615,-129"/>
<text text-anchor="middle" x="584" y="-117" font-family="Helvetica,sans-Serif" font-size="10.00">type_traits</text>
</a>
</g>
</g>
<!-- Node1&#45;&gt;Node5 -->
<g id="edge4" class="edge">
<title>Node1&#45;&gt;Node5</title>
<path fill="none" stroke="#63b8ff" d="M176.48,-178.17C256.83,-169.31 404.76,-151.89 541.61,-129.1"/>
<polygon fill="#63b8ff" stroke="#63b8ff" points="541.93,-132.6 551.21,-127.49 540.77,-125.69 541.93,-132.6"/>
</g>
<!-- Node6 -->
<g id="node6" class="node">
<title>Node6</title>
<g id="a_node6"><a xlink:href="../../de/dfd/Value_8hpp.html" target="_top" xlink:title=" ">
<polygon fill="white" stroke="#666666" points="534.5,-129 439.5,-129 439.5,-110 534.5,-110 534.5,-129"/>
<text text-anchor="middle" x="487" y="-117" font-family="Helvetica,sans-Serif" font-size="10.00">Ark/VM/Value.hpp</text>
</a>
</g>
</g>
<!-- Node1&#45;&gt;Node6 -->
<g id="edge5" class="edge">
<title>Node1&#45;&gt;Node6</title>
<path fill="none" stroke="#63b8ff" d="M176.45,-174.22C245.63,-162.25 359.15,-142.61 428.1,-130.69"/>
<polygon fill="#63b8ff" stroke="#63b8ff" points="428.43,-134.18 437.69,-129.03 427.24,-127.29 428.43,-134.18"/>
</g>
<!-- Node6&#45;&gt;Node3 -->
<g id="edge8" class="edge">
<title>Node6&#45;&gt;Node3</title>
<path fill="none" stroke="#63b8ff" d="M439.04,-113.75C373.77,-106.91 253.5,-93.01 152,-74 150.83,-73.78 149.65,-73.55 148.45,-73.3"/>
<polygon fill="#63b8ff" stroke="#63b8ff" points="149.65,-69.99 139.13,-71.23 148.13,-76.82 149.65,-69.99"/>
</g>
<!-- Node6&#45;&gt;Node4 -->
<g id="edge6" class="edge">
<title>Node6&#45;&gt;Node4</title>
<path fill="none" stroke="#63b8ff" d="M439.14,-118.71C362.43,-117.91 217.25,-111.36 185,-74 179.48,-67.61 179.58,-61.48 185,-55 211.79,-22.95 336.98,-13.95 398.17,-11.45"/>
<polygon fill="#63b8ff" stroke="#63b8ff" points="398.13,-14.95 407.99,-11.08 397.87,-7.96 398.13,-14.95"/>
</g>
<!-- Node7 -->
<g id="node7" class="node">
<title>Node7</title>
<g id="a_node7"><a xlink:title=" ">
<polygon fill="#e0e0e0" stroke="#999999" points="240,-74 194,-74 194,-55 240,-55 240,-74"/>
<text text-anchor="middle" x="217" y="-62" font-family="Helvetica,sans-Serif" font-size="10.00">variant</text>
</a>
</g>
</g>
<!-- Node6&#45;&gt;Node7 -->
<g id="edge7" class="edge">
<title>Node6&#45;&gt;Node7</title>
<path fill="none" stroke="#63b8ff" d="M439.37,-110.67C393.52,-102.9 322.01,-90.15 251.26,-74.38"/>
<polygon fill="#63b8ff" stroke="#63b8ff" points="252.37,-71.04 241.85,-72.26 250.83,-77.87 252.37,-71.04"/>
</g>
<!-- Node8 -->
<g id="node8" class="node">
<title>Node8</title>
<g id="a_node8"><a xlink:title=" ">
<polygon fill="#e0e0e0" stroke="#999999" points="314,-74 258,-74 258,-55 314,-55 314,-74"/>
<text text-anchor="middle" x="286" y="-62" font-family="Helvetica,sans-Serif" font-size="10.00">cinttypes</text>
</a>
</g>
</g>
<!-- Node6&#45;&gt;Node8 -->
<g id="edge9" class="edge">
<title>Node6&#45;&gt;Node8</title>
<path fill="none" stroke="#63b8ff" d="M452.9,-109.51C417.58,-100.2 362.45,-85.66 325.31,-75.87"/>
<polygon fill="#63b8ff" stroke="#63b8ff" points="326.43,-72.54 315.87,-73.38 324.65,-79.31 326.43,-72.54"/>
</g>
<!-- Node9 -->
<g id="node9" class="node">
<title>Node9</title>
<g id="a_node9"><a xlink:title=" ">
<polygon fill="#e0e0e0" stroke="#999999" points="792,-19 738,-19 738,0 792,0 792,-19"/>
<text text-anchor="middle" x="765" y="-7" font-family="Helvetica,sans-Serif" font-size="10.00">iostream</text>
</a>
</g>
</g>
<!-- Node6&#45;&gt;Node9 -->
<g id="edge10" class="edge">
<title>Node6&#45;&gt;Node9</title>
<path fill="none" stroke="#63b8ff" d="M531.46,-109.52C565.01,-102.01 611.79,-89.96 651,-74 668.68,-66.8 712.46,-41.58 740.33,-25.17"/>
<polygon fill="#63b8ff" stroke="#63b8ff" points="742.02,-28.24 748.85,-20.14 738.46,-22.21 742.02,-28.24"/>
</g>
<!-- Node10 -->
<g id="node10" class="node">
<title>Node10</title>
<g id="a_node10"><a xlink:title=" ">
<polygon fill="#e0e0e0" stroke="#999999" points="983,-19 931,-19 931,0 983,0 983,-19"/>
<text text-anchor="middle" x="957" y="-7" font-family="Helvetica,sans-Serif" font-size="10.00">memory</text>
</a>
</g>
</g>
<!-- Node6&#45;&gt;Node10 -->
<g id="edge11" class="edge">
<title>Node6&#45;&gt;Node10</title>
<path fill="none" stroke="#63b8ff" d="M534.86,-111.1C537.95,-110.7 541.02,-110.33 544,-110 598.48,-103.95 998.68,-114.15 1036,-74 1054.32,-54.29 1022.55,-35.46 994,-23.5"/>
<polygon fill="#63b8ff" stroke="#63b8ff" points="995.32,-20.26 984.73,-19.82 992.74,-26.76 995.32,-20.26"/>
</g>
<!-- Node11 -->
<g id="node11" class="node">
<title>Node11</title>
<g id="a_node11"><a xlink:title=" ">
<polygon fill="#e0e0e0" stroke="#999999" points="391.5,-74 332.5,-74 332.5,-55 391.5,-55 391.5,-74"/>
<text text-anchor="middle" x="362" y="-62" font-family="Helvetica,sans-Serif" font-size="10.00">functional</text>
</a>
</g>
</g>
<!-- Node6&#45;&gt;Node11 -->
<g id="edge12" class="edge">
<title>Node6&#45;&gt;Node11</title>
<path fill="none" stroke="#63b8ff" d="M465.8,-109.51C445.92,-101.08 415.97,-88.38 393.34,-78.79"/>
<polygon fill="#63b8ff" stroke="#63b8ff" points="394.86,-75.63 384.28,-74.95 392.13,-82.07 394.86,-75.63"/>
</g>
<!-- Node12 -->
<g id="node12" class="node">
<title>Node12</title>
<g id="a_node12"><a xlink:title=" ">
<polygon fill="#e0e0e0" stroke="#999999" points="1077,-19 1037,-19 1037,0 1077,0 1077,-19"/>
<text text-anchor="middle" x="1057" y="-7" font-family="Helvetica,sans-Serif" font-size="10.00">utility</text>
</a>
</g>
</g>
<!-- Node6&#45;&gt;Node12 -->
<g id="edge13" class="edge">
<title>Node6&#45;&gt;Node12</title>
<path fill="none" stroke="#63b8ff" d="M534.86,-111.09C537.95,-110.7 541.02,-110.33 544,-110 600.25,-103.82 1011.83,-113.86 1052,-74 1063.17,-62.92 1063.47,-44.53 1061.53,-30.39"/>
<polygon fill="#63b8ff" stroke="#63b8ff" points="1065.02,-30.02 1059.74,-20.83 1058.14,-31.3 1065.02,-30.02"/>
</g>
<!-- Node13 -->
<g id="node13" class="node">
<title>Node13</title>
<g id="a_node13"><a xlink:title=" ">
<polygon fill="#e0e0e0" stroke="#999999" points="488.5,-74 409.5,-74 409.5,-55 488.5,-55 488.5,-74"/>
<text text-anchor="middle" x="449" y="-62" font-family="Helvetica,sans-Serif" font-size="10.00">Ark/String.hpp</text>
</a>
</g>
</g>
<!-- Node6&#45;&gt;Node13 -->
<g id="edge14" class="edge">
<title>Node6&#45;&gt;Node13</title>
<path fill="none" stroke="#63b8ff" d="M480.73,-109.75C475.64,-102.66 468.3,-92.42 461.97,-83.59"/>
<polygon fill="#63b8ff" stroke="#63b8ff" points="464.96,-81.76 456.29,-75.67 459.28,-85.84 464.96,-81.76"/>
</g>
<!-- Node14 -->
<g id="node14" class="node">
<title>Node14</title>
<g id="a_node14"><a xlink:title=" ">
<polygon fill="#e0e0e0" stroke="#999999" points="545,-74 507,-74 507,-55 545,-55 545,-74"/>
<text text-anchor="middle" x="526" y="-62" font-family="Helvetica,sans-Serif" font-size="10.00">array</text>
</a>
</g>
</g>
<!-- Node6&#45;&gt;Node14 -->
<g id="edge15" class="edge">
<title>Node6&#45;&gt;Node14</title>
<path fill="none" stroke="#63b8ff" d="M493.44,-109.75C498.66,-102.66 506.19,-92.42 512.69,-83.59"/>
<polygon fill="#63b8ff" stroke="#63b8ff" points="515.42,-85.79 518.52,-75.66 509.78,-81.64 515.42,-85.79"/>
</g>
<!-- Node15 -->
<g id="node15" class="node">
<title>Node15</title>
<g id="a_node15"><a xlink:href="../../dc/dd5/Closure_8hpp.html" target="_top" xlink:title="Subtype of the value type, handling closures.">
<polygon fill="white" stroke="#666666" points="831,-74 699,-74 699,-55 831,-55 831,-74"/>
<text text-anchor="middle" x="765" y="-62" font-family="Helvetica,sans-Serif" font-size="10.00">Ark/VM/Value/Closure.hpp</text>
</a>
</g>
</g>
<!-- Node6&#45;&gt;Node15 -->
<g id="edge16" class="edge">
<title>Node6&#45;&gt;Node15</title>
<path fill="none" stroke="#63b8ff" d="M534.16,-109.51C581.83,-100.42 655.59,-86.36 706.85,-76.59"/>
<polygon fill="#63b8ff" stroke="#63b8ff" points="707.42,-80.04 716.59,-74.73 706.11,-73.16 707.42,-80.04"/>
</g>
<!-- Node16 -->
<g id="node16" class="node">
<title>Node16</title>
<g id="a_node16"><a xlink:href="../../d5/d40/Platform_8hpp.html" target="_top" xlink:title="ArkScript configuration macros.">
<polygon fill="white" stroke="#666666" points="904,-19 814,-19 814,0 904,0 904,-19"/>
<text text-anchor="middle" x="859" y="-7" font-family="Helvetica,sans-Serif" font-size="10.00">Ark/Platform.hpp</text>
</a>
</g>
</g>
<!-- Node6&#45;&gt;Node16 -->
<g id="edge27" class="edge">
<title>Node6&#45;&gt;Node16</title>
<path fill="none" stroke="#63b8ff" d="M534.88,-111.26C537.97,-110.83 541.03,-110.4 544,-110 609.66,-101.11 789.34,-116.72 840,-74 852.66,-63.33 857.09,-44.6 858.54,-30.24"/>
<polygon fill="#63b8ff" stroke="#63b8ff" points="862.02,-30.75 859.1,-20.56 855.03,-30.35 862.02,-30.75"/>
</g>
<!-- Node17 -->
<g id="node17" class="node">
<title>Node17</title>
<g id="a_node17"><a xlink:href="../../dc/d3d/UserType_8hpp.html" target="_top" xlink:title="Subtype of the value, capable of handling any C++ type.">
<polygon fill="white" stroke="#666666" points="1027,-74 887,-74 887,-55 1027,-55 1027,-74"/>
<text text-anchor="middle" x="957" y="-62" font-family="Helvetica,sans-Serif" font-size="10.00">Ark/VM/Value/UserType.hpp</text>
</a>
</g>
</g>
<!-- Node6&#45;&gt;Node17 -->
<g id="edge21" class="edge">
<title>Node6&#45;&gt;Node17</title>
<path fill="none" stroke="#63b8ff" d="M534.87,-111.22C537.96,-110.79 541.02,-110.38 544,-110 606.07,-102.03 773.81,-84.41 875.41,-73.89"/>
<polygon fill="#63b8ff" stroke="#63b8ff" points="875.76,-77.38 885.35,-72.86 875.04,-70.41 875.76,-77.38"/>
</g>
<!-- Node18 -->
<g id="node18" class="node">
<title>Node18</title>
<g id="a_node18"><a xlink:title=" ">
<polygon fill="#e0e0e0" stroke="#999999" points="642.5,-74 563.5,-74 563.5,-55 642.5,-55 642.5,-74"/>
<text text-anchor="middle" x="603" y="-62" font-family="Helvetica,sans-Serif" font-size="10.00">inline/Value.inl</text>
</a>
</g>
</g>
<!-- Node6&#45;&gt;Node18 -->
<g id="edge28" class="edge">
<title>Node6&#45;&gt;Node18</title>
<path fill="none" stroke="#63b8ff" d="M506.68,-109.51C524.95,-101.16 552.41,-88.61 573.35,-79.05"/>
<polygon fill="#63b8ff" stroke="#63b8ff" points="574.6,-82.33 582.24,-74.99 571.69,-75.96 574.6,-82.33"/>
</g>
<!-- Node15&#45;&gt;Node4 -->
<g id="edge18" class="edge">
<title>Node15&#45;&gt;Node4</title>
<path fill="none" stroke="#63b8ff" d="M708.51,-54.51C638.87,-43.43 522.75,-24.94 465.71,-15.87"/>
<polygon fill="#63b8ff" stroke="#63b8ff" points="466.4,-12.43 455.97,-14.32 465.3,-19.34 466.4,-12.43"/>
</g>
<!-- Node15&#45;&gt;Node9 -->
<g id="edge19" class="edge">
<title>Node15&#45;&gt;Node9</title>
<path fill="none" stroke="#63b8ff" d="M765,-54.75C765,-48.27 765,-39.16 765,-30.9"/>
<polygon fill="#63b8ff" stroke="#63b8ff" points="768.5,-30.96 765,-20.96 761.5,-30.96 768.5,-30.96"/>
</g>
<!-- Node15&#45;&gt;Node10 -->
<g id="edge17" class="edge">
<title>Node15&#45;&gt;Node10</title>
<path fill="none" stroke="#63b8ff" d="M797.57,-54.51C831.46,-45.16 884.43,-30.53 919.9,-20.74"/>
<polygon fill="#63b8ff" stroke="#63b8ff" points="920.59,-24.18 929.3,-18.15 918.73,-17.43 920.59,-24.18"/>
</g>
<!-- Node15&#45;&gt;Node16 -->
<g id="edge20" class="edge">
<title>Node15&#45;&gt;Node16</title>
<path fill="none" stroke="#63b8ff" d="M780.95,-54.51C795.35,-46.39 816.79,-34.3 833.56,-24.85"/>
<polygon fill="#63b8ff" stroke="#63b8ff" points="834.98,-28.06 841.97,-20.1 831.54,-21.96 834.98,-28.06"/>
</g>
<!-- Node17&#45;&gt;Node4 -->
<g id="edge23" class="edge">
<title>Node17&#45;&gt;Node4</title>
<path fill="none" stroke="#63b8ff" d="M886.74,-56.41C772.36,-44.86 550.18,-22.43 465.7,-13.9"/>
<polygon fill="#63b8ff" stroke="#63b8ff" points="466.07,-10.42 455.77,-12.9 465.37,-17.39 466.07,-10.42"/>
</g>
<!-- Node17&#45;&gt;Node9 -->
<g id="edge22" class="edge">
<title>Node17&#45;&gt;Node9</title>
<path fill="none" stroke="#63b8ff" d="M924.43,-54.51C890.93,-45.26 838.78,-30.87 803.32,-21.08"/>
<polygon fill="#63b8ff" stroke="#63b8ff" points="804.46,-17.76 793.89,-18.48 802.6,-24.51 804.46,-17.76"/>
</g>
<!-- Node17&#45;&gt;Node10 -->
<g id="edge25" class="edge">
<title>Node17&#45;&gt;Node10</title>
<path fill="none" stroke="#63b8ff" d="M957,-54.75C957,-48.27 957,-39.16 957,-30.9"/>
<polygon fill="#63b8ff" stroke="#63b8ff" points="960.5,-30.96 957,-20.96 953.5,-30.96 960.5,-30.96"/>
</g>
<!-- Node17&#45;&gt;Node12 -->
<g id="edge24" class="edge">
<title>Node17&#45;&gt;Node12</title>
<path fill="none" stroke="#63b8ff" d="M973.96,-54.51C989.36,-46.35 1012.31,-34.19 1030.19,-24.71"/>
<polygon fill="#63b8ff" stroke="#63b8ff" points="1031.75,-27.84 1038.95,-20.07 1028.47,-21.66 1031.75,-27.84"/>
</g>
<!-- Node17&#45;&gt;Node16 -->
<g id="edge26" class="edge">
<title>Node17&#45;&gt;Node16</title>
<path fill="none" stroke="#63b8ff" d="M940.38,-54.51C925.22,-46.31 902.58,-34.07 885.03,-24.58"/>
<polygon fill="#63b8ff" stroke="#63b8ff" points="887.17,-21.76 876.71,-20.08 883.84,-27.91 887.17,-21.76"/>
</g>
</g>
</svg>
        <g id="navigator" transform="translate(0 0)" fill="#404254">
                <rect fill="#f2f5e9" fill-opacity="0.5" stroke="#606060" stroke-width=".5" x="0" y="0" width="60" height="60"/>
                <use id="zoomplus" xlink:href="#zoomPlus" x="17" y="9" onmousedown="handleZoom(evt,'in')"/>
                <use id="zoomminus" xlink:href="#zoomMin" x="42" y="9" onmousedown="handleZoom(evt,'out')"/>
                <use id="reset" xlink:href="#resetDef" x="30" y="36" onmousedown="handleReset()"/>
                <g id="arrowUp" xlink:href="#dirArrow" transform="translate(30 24)" onmousedown="handlePan(0,-1)">
                  <use xlink:href="#rim" fill="#404040">
                        <set attributeName="fill" to="#808080" begin="arrowUp.mouseover" end="arrowUp.mouseout"/>
                  </use>
                  <path fill="none" stroke="white" stroke-width="1.5" d="M0,-3.0v7 M-2.5,-0.5L0,-3.0L2.5,-0.5"/>
                </g>
                <g id="arrowRight" xlink:href="#dirArrow" transform="rotate(90) translate(36 -43)" onmousedown="handlePan(1,0)">
                  <use xlink:href="#rim" fill="#404040">
                        <set attributeName="fill" to="#808080" begin="arrowRight.mouseover" end="arrowRight.mouseout"/>
                  </use>
                  <path fill="none" stroke="white" stroke-width="1.5" d="M0,-3.0v7 M-2.5,-0.5L0,-3.0L2.5,-0.5"/>
                </g>
                <g id="arrowDown" xlink:href="#dirArrow" transform="rotate(180) translate(-30 -48)" onmousedown="handlePan(0,1)">
                  <use xlink:href="#rim" fill="#404040">
                        <set attributeName="fill" to="#808080" begin="arrowDown.mouseover" end="arrowDown.mouseout"/>
                  </use>
                  <path fill="none" stroke="white" stroke-width="1.5" d="M0,-3.0v7 M-2.5,-0.5L0,-3.0L2.5,-0.5"/>
                </g>
                <g id="arrowLeft" xlink:href="#dirArrow" transform="rotate(270) translate(-36 17)" onmousedown="handlePan(-1,0)">
                  <use xlink:href="#rim" fill="#404040">
                        <set attributeName="fill" to="#808080" begin="arrowLeft.mouseover" end="arrowLeft.mouseout"/>
                  </use>
                  <path fill="none" stroke="white" stroke-width="1.5" d="M0,-3.0v7 M-2.5,-0.5L0,-3.0L2.5,-0.5"/>
                </g>
        </g>
        <svg viewBox="0 0 15 15" width="100%" height="30px" preserveAspectRatio="xMaxYMin meet">
         <g id="arrow_out" transform="scale(0.3 0.3)">
          <a xlink:href="TypeChecker_8hpp__incl_org.svg" target="_base">
           <rect id="button" ry="5" rx="5" y="6" x="6" height="38" width="38"
                fill="#f2f5e9" fill-opacity="0.5" stroke="#606060" stroke-width="1.0"/>
           <path id="arrow"
             d="M 11.500037,31.436501 C 11.940474,20.09759 22.043105,11.32322 32.158766,21.979434 L 37.068811,17.246167 C 37.068811,17.246167 37.088388,32 37.088388,32 L 22.160133,31.978069 C 22.160133,31.978069 26.997745,27.140456 26.997745,27.140456 C 18.528582,18.264221 13.291696,25.230495 11.500037,31.436501 z"
             style="fill:#404040;"/>
          </a>
         </g>
        </svg>
</svg>
