<?xml version="1.0" encoding="UTF-8" standalone="no"?>
<!DOCTYPE svg PUBLIC "-//W3C//DTD SVG 1.1//EN"
 "http://www.w3.org/Graphics/SVG/1.1/DTD/svg11.dtd">
<!-- Generated by graphviz version 12.1.1 (20240910.0053)
 -->
<!-- Title: /Users/fola/Documents/ArkScript/Ark/include/Ark/TypeChecker.hpp Pages: 1 -->
<svg width="604pt" height="216pt"
 viewBox="0.00 0.00 603.50 215.50" xmlns="http://www.w3.org/2000/svg" xmlns:xlink="http://www.w3.org/1999/xlink">
<g id="graph0" class="graph" transform="scale(1 1) rotate(0) translate(4 211.5)">
<title>/Users/fola/Documents/ArkScript/Ark/include/Ark/TypeChecker.hpp</title>
<!-- Node1 -->
<g id="Node000001" class="node">
<title>Node1</title>
<g id="a_Node000001"><a xlink:title=" ">
<polygon fill="#999999" stroke="#666666" points="341.12,-207.5 223.88,-207.5 223.88,-165.75 341.12,-165.75 341.12,-207.5"/>
<text text-anchor="start" x="231.88" y="-194" font-family="Helvetica,sans-Serif" font-size="10.00">/Users/fola/Documents</text>
<text text-anchor="start" x="231.88" y="-182.75" font-family="Helvetica,sans-Serif" font-size="10.00">/ArkScript/Ark/include</text>
<text text-anchor="middle" x="282.5" y="-171.5" font-family="Helvetica,sans-Serif" font-size="10.00">/Ark/TypeChecker.hpp</text>
</a>
</g>
</g>
<!-- Node2 -->
<g id="Node000002" class="node">
<title>Node2</title>
<g id="a_Node000002"><a xlink:title=" ">
<polygon fill="#e0e0e0" stroke="#999999" points="595.5,-19.25 555.5,-19.25 555.5,0 595.5,0 595.5,-19.25"/>
<text text-anchor="middle" x="575.5" y="-5.75" font-family="Helvetica,sans-Serif" font-size="10.00">string</text>
</a>
</g>
</g>
<!-- Node1&#45;&gt;Node2 -->
<g id="edge1_Node000001_Node000002" class="edge">
<title>Node1&#45;&gt;Node2</title>
<g id="a_edge1_Node000001_Node000002"><a xlink:title=" ">
<path fill="none" stroke="#63b8ff" d="M341.58,-182.3C411.09,-174.85 523.68,-150.92 576.5,-74.5 585.29,-61.79 584.21,-43.99 581.41,-30.41"/>
<polygon fill="#63b8ff" stroke="#63b8ff" points="584.83,-29.67 578.96,-20.85 578.05,-31.41 584.83,-29.67"/>
</a>
</g>
</g>
<!-- Node3 -->
<g id="Node000003" class="node">
<title>Node3</title>
<g id="a_Node000003"><a xlink:title=" ">
<polygon fill="#e0e0e0" stroke="#999999" points="43,-74.5 0,-74.5 0,-55.25 43,-55.25 43,-74.5"/>
<text text-anchor="middle" x="21.5" y="-61" font-family="Helvetica,sans-Serif" font-size="10.00">vector</text>
</a>
</g>
</g>
<!-- Node1&#45;&gt;Node3 -->
<g id="edge2_Node000001_Node000003" class="edge">
<title>Node1&#45;&gt;Node3</title>
<g id="a_edge2_Node000001_Node000003"><a xlink:title=" ">
<path fill="none" stroke="#63b8ff" d="M238.22,-165.31C185.15,-140.96 97.64,-100.81 51.74,-79.75"/>
<polygon fill="#63b8ff" stroke="#63b8ff" points="53.2,-76.57 42.66,-75.58 50.28,-82.93 53.2,-76.57"/>
</a>
</g>
</g>
<!-- Node4 -->
<g id="Node000004" class="node">
<title>Node4</title>
<g id="a_Node000004"><a xlink:href="../../de/dfd/Value_8hpp.html" target="_top" xlink:title=" ">
<polygon fill="white" stroke="#666666" points="329.88,-129.75 235.12,-129.75 235.12,-110.5 329.88,-110.5 329.88,-129.75"/>
<text text-anchor="middle" x="282.5" y="-116.25" font-family="Helvetica,sans-Serif" font-size="10.00">Ark/VM/Value.hpp</text>
</a>
</g>
</g>
<!-- Node1&#45;&gt;Node4 -->
<g id="edge3_Node000001_Node000004" class="edge">
<title>Node1&#45;&gt;Node4</title>
<g id="a_edge3_Node000001_Node000004"><a xlink:title=" ">
<path fill="none" stroke="#63b8ff" d="M282.5,-165.57C282.5,-157.9 282.5,-149.14 282.5,-141.45"/>
<polygon fill="#63b8ff" stroke="#63b8ff" points="286,-141.71 282.5,-131.71 279,-141.71 286,-141.71"/>
</a>
</g>
</g>
<!-- Node4&#45;&gt;Node2 -->
<g id="edge6_Node000004_Node000002" class="edge">
<title>Node4&#45;&gt;Node2</title>
<g id="a_edge6_Node000004_Node000002"><a xlink:title=" ">
<path fill="none" stroke="#63b8ff" d="M330.27,-117.33C399.66,-113.75 523.66,-103.39 556.5,-74.5 568.86,-63.62 573.35,-45.1 574.9,-30.79"/>
<polygon fill="#63b8ff" stroke="#63b8ff" points="578.37,-31.32 575.53,-21.11 571.39,-30.87 578.37,-31.32"/>
</a>
</g>
</g>
<!-- Node4&#45;&gt;Node3 -->
<g id="edge4_Node000004_Node000003" class="edge">
<title>Node4&#45;&gt;Node3</title>
<g id="a_edge4_Node000004_Node000003"><a xlink:title=" ">
<path fill="none" stroke="#63b8ff" d="M234.98,-110.26C189.36,-101.62 118.58,-87.87 57.5,-74.5 56.34,-74.25 55.16,-73.98 53.96,-73.71"/>
<polygon fill="#63b8ff" stroke="#63b8ff" points="55.18,-70.4 44.64,-71.55 53.6,-77.22 55.18,-70.4"/>
</a>
</g>
</g>
<!-- Node5 -->
<g id="Node000005" class="node">
<title>Node5</title>
<g id="a_Node000005"><a xlink:title=" ">
<polygon fill="#e0e0e0" stroke="#999999" points="145.12,-74.5 99.88,-74.5 99.88,-55.25 145.12,-55.25 145.12,-74.5"/>
<text text-anchor="middle" x="122.5" y="-61" font-family="Helvetica,sans-Serif" font-size="10.00">variant</text>
</a>
</g>
</g>
<!-- Node4&#45;&gt;Node5 -->
<g id="edge5_Node000004_Node000005" class="edge">
<title>Node4&#45;&gt;Node5</title>
<g id="a_edge5_Node000004_Node000005"><a xlink:title=" ">
<path fill="none" stroke="#63b8ff" d="M255.36,-110.09C228,-100.99 185.73,-86.92 156.23,-77.1"/>
<polygon fill="#63b8ff" stroke="#63b8ff" points="157.64,-73.88 147.05,-74.05 155.43,-80.52 157.64,-73.88"/>
</a>
</g>
</g>
<!-- Node6 -->
<g id="Node000006" class="node">
<title>Node6</title>
<g id="a_Node000006"><a xlink:title=" ">
<polygon fill="#e0e0e0" stroke="#999999" points="148.38,-19.25 92.62,-19.25 92.62,0 148.38,0 148.38,-19.25"/>
<text text-anchor="middle" x="120.5" y="-5.75" font-family="Helvetica,sans-Serif" font-size="10.00">cinttypes</text>
</a>
</g>
</g>
<!-- Node4&#45;&gt;Node6 -->
<g id="edge7_Node000004_Node000006" class="edge">
<title>Node4&#45;&gt;Node6</title>
<g id="a_edge7_Node000004_Node000006"><a xlink:title=" ">
<path fill="none" stroke="#63b8ff" d="M235,-114.76C184.11,-108.98 108.22,-96.81 90.5,-74.5 79.25,-60.33 90.96,-41.26 102.88,-27.65"/>
<polygon fill="#63b8ff" stroke="#63b8ff" points="105.13,-30.37 109.47,-20.7 100.05,-25.55 105.13,-30.37"/>
</a>
</g>
</g>
<!-- Node7 -->
<g id="Node000007" class="node">
<title>Node7</title>
<g id="a_Node000007"><a xlink:title=" ">
<polygon fill="#e0e0e0" stroke="#999999" points="547.38,-74.5 509.62,-74.5 509.62,-55.25 547.38,-55.25 547.38,-74.5"/>
<text text-anchor="middle" x="528.5" y="-61" font-family="Helvetica,sans-Serif" font-size="10.00">array</text>
</a>
</g>
</g>
<!-- Node4&#45;&gt;Node7 -->
<g id="edge8_Node000004_Node000007" class="edge">
<title>Node4&#45;&gt;Node7</title>
<g id="a_edge8_Node000004_Node000007"><a xlink:title=" ">
<path fill="none" stroke="#63b8ff" d="M330,-110.77C371.94,-103.09 434.94,-90.82 498.29,-74.87"/>
<polygon fill="#63b8ff" stroke="#63b8ff" points="499,-78.3 507.82,-72.43 497.27,-71.52 499,-78.3"/>
</a>
</g>
</g>
<!-- Node8 -->
<g id="Node000008" class="node">
<title>Node8</title>
<g id="a_Node000008"><a xlink:href="../../dc/dd5/Closure_8hpp.html" target="_top" xlink:title="Subtype of the value type, handling closures.">
<polygon fill="white" stroke="#666666" points="491.25,-74.5 359.75,-74.5 359.75,-55.25 491.25,-55.25 491.25,-74.5"/>
<text text-anchor="middle" x="425.5" y="-61" font-family="Helvetica,sans-Serif" font-size="10.00">Ark/VM/Value/Closure.hpp</text>
</a>
</g>
</g>
<!-- Node4&#45;&gt;Node8 -->
<g id="edge9_Node000004_Node000008" class="edge">
<title>Node4&#45;&gt;Node8</title>
<g id="a_edge9_Node000004_Node000008"><a xlink:title=" ">
<path fill="none" stroke="#63b8ff" d="M306.76,-110.09C329.77,-101.52 364.59,-88.56 390.58,-78.88"/>
<polygon fill="#63b8ff" stroke="#63b8ff" points="391.55,-82.25 399.7,-75.48 389.11,-75.69 391.55,-82.25"/>
</a>
</g>
</g>
<!-- Node11 -->
<g id="Node000011" class="node">
<title>Node11</title>
<g id="a_Node000011"><a xlink:href="../../d5/d40/Platform_8hpp.html" target="_top" xlink:title="ArkScript configuration macros.">
<polygon fill="white" stroke="#666666" points="376.25,-19.25 286.75,-19.25 286.75,0 376.25,0 376.25,-19.25"/>
<text text-anchor="middle" x="331.5" y="-5.75" font-family="Helvetica,sans-Serif" font-size="10.00">Ark/Platform.hpp</text>
</a>
</g>
</g>
<!-- Node4&#45;&gt;Node11 -->
<g id="edge18_Node000004_Node000011" class="edge">
<title>Node4&#45;&gt;Node11</title>
<g id="a_edge18_Node000004_Node000011"><a xlink:title=" ">
<path fill="none" stroke="#63b8ff" d="M289.81,-110.05C296.51,-101.36 306.29,-87.67 312.5,-74.5 319.15,-60.38 324.07,-43.41 327.23,-30.51"/>
<polygon fill="#63b8ff" stroke="#63b8ff" points="330.57,-31.62 329.39,-21.09 323.75,-30.05 330.57,-31.62"/>
</a>
</g>
</g>
<!-- Node12 -->
<g id="Node000012" class="node">
<title>Node12</title>
<g id="a_Node000012"><a xlink:href="../../dc/d3d/UserType_8hpp.html" target="_top" xlink:title="Subtype of the value, capable of handling any C++ type.">
<polygon fill="white" stroke="#666666" points="303.38,-74.5 163.62,-74.5 163.62,-55.25 303.38,-55.25 303.38,-74.5"/>
<text text-anchor="middle" x="233.5" y="-61" font-family="Helvetica,sans-Serif" font-size="10.00">Ark/VM/Value/UserType.hpp</text>
</a>
</g>
</g>
<!-- Node4&#45;&gt;Node12 -->
<g id="edge14_Node000004_Node000012" class="edge">
<title>Node4&#45;&gt;Node12</title>
<g id="a_edge14_Node000004_Node000012"><a xlink:title=" ">
<path fill="none" stroke="#63b8ff" d="M274.41,-110.33C267.64,-102.98 257.78,-92.26 249.44,-83.19"/>
<polygon fill="#63b8ff" stroke="#63b8ff" points="252.14,-80.96 242.79,-75.97 246.99,-85.7 252.14,-80.96"/>
</a>
</g>
</g>
<!-- Node8&#45;&gt;Node2 -->
<g id="edge12_Node000008_Node000002" class="edge">
<title>Node8&#45;&gt;Node2</title>
<g id="a_edge12_Node000008_Node000002"><a xlink:title=" ">
<path fill="none" stroke="#63b8ff" d="M450.95,-54.84C476.8,-45.66 516.89,-31.43 544.57,-21.61"/>
<polygon fill="#63b8ff" stroke="#63b8ff" points="545.55,-24.97 553.81,-18.33 543.21,-18.37 545.55,-24.97"/>
</a>
</g>
</g>
<!-- Node9 -->
<g id="Node000009" class="node">
<title>Node9</title>
<g id="a_Node000009"><a xlink:title=" ">
<polygon fill="#e0e0e0" stroke="#999999" points="451.12,-19.25 399.88,-19.25 399.88,0 451.12,0 451.12,-19.25"/>
<text text-anchor="middle" x="425.5" y="-5.75" font-family="Helvetica,sans-Serif" font-size="10.00">memory</text>
</a>
</g>
</g>
<!-- Node8&#45;&gt;Node9 -->
<g id="edge10_Node000008_Node000009" class="edge">
<title>Node8&#45;&gt;Node9</title>
<g id="a_edge10_Node000008_Node000009"><a xlink:title=" ">
<path fill="none" stroke="#63b8ff" d="M425.5,-55.08C425.5,-48.57 425.5,-39.42 425.5,-31.12"/>
<polygon fill="#63b8ff" stroke="#63b8ff" points="429,-31.12 425.5,-21.12 422,-31.12 429,-31.12"/>
</a>
</g>
</g>
<!-- Node10 -->
<g id="Node000010" class="node">
<title>Node10</title>
<g id="a_Node000010"><a xlink:title=" ">
<polygon fill="#e0e0e0" stroke="#999999" points="264.25,-19.25 210.75,-19.25 210.75,0 264.25,0 264.25,-19.25"/>
<text text-anchor="middle" x="237.5" y="-5.75" font-family="Helvetica,sans-Serif" font-size="10.00">iostream</text>
</a>
</g>
</g>
<!-- Node8&#45;&gt;Node10 -->
<g id="edge11_Node000008_Node000010" class="edge">
<title>Node8&#45;&gt;Node10</title>
<g id="a_edge11_Node000008_Node000010"><a xlink:title=" ">
<path fill="none" stroke="#63b8ff" d="M393.61,-54.84C360.9,-45.58 310.04,-31.17 275.32,-21.34"/>
<polygon fill="#63b8ff" stroke="#63b8ff" points="276.69,-18.09 266.11,-18.73 274.78,-24.82 276.69,-18.09"/>
</a>
</g>
</g>
<!-- Node8&#45;&gt;Node11 -->
<g id="edge13_Node000008_Node000011" class="edge">
<title>Node8&#45;&gt;Node11</title>
<g id="a_edge13_Node000008_Node000011"><a xlink:title=" ">
<path fill="none" stroke="#63b8ff" d="M409.55,-54.84C395.24,-46.73 373.97,-34.68 357.25,-25.21"/>
<polygon fill="#63b8ff" stroke="#63b8ff" points="359.27,-22.33 348.84,-20.45 355.82,-28.42 359.27,-22.33"/>
</a>
</g>
</g>
<!-- Node12&#45;&gt;Node6 -->
<g id="edge16_Node000012_Node000006" class="edge">
<title>Node12&#45;&gt;Node6</title>
<g id="a_edge16_Node000012_Node000006"><a xlink:title=" ">
<path fill="none" stroke="#63b8ff" d="M214.33,-54.84C196.72,-46.54 170.34,-34.11 150.04,-24.54"/>
<polygon fill="#63b8ff" stroke="#63b8ff" points="151.67,-21.44 141.13,-20.35 148.69,-27.78 151.67,-21.44"/>
</a>
</g>
</g>
<!-- Node12&#45;&gt;Node10 -->
<g id="edge15_Node000012_Node000010" class="edge">
<title>Node12&#45;&gt;Node10</title>
<g id="a_edge15_Node000012_Node000010"><a xlink:title=" ">
<path fill="none" stroke="#63b8ff" d="M234.16,-55.08C234.66,-48.49 235.35,-39.21 235.98,-30.82"/>
<polygon fill="#63b8ff" stroke="#63b8ff" points="239.45,-31.35 236.71,-21.12 232.47,-30.83 239.45,-31.35"/>
</a>
</g>
</g>
<!-- Node12&#45;&gt;Node11 -->
<g id="edge17_Node000012_Node000011" class="edge">
<title>Node12&#45;&gt;Node11</title>
<g id="a_edge17_Node000012_Node000011"><a xlink:title=" ">
<path fill="none" stroke="#63b8ff" d="M250.12,-54.84C265.19,-46.66 287.64,-34.46 305.15,-24.94"/>
<polygon fill="#63b8ff" stroke="#63b8ff" points="306.35,-28.27 313.46,-20.43 303.01,-22.12 306.35,-28.27"/>
</a>
</g>
</g>
</g>
</svg>
