<?xml version="1.0" encoding="UTF-8" standalone="no"?>
<!DOCTYPE svg PUBLIC "-//W3C//DTD SVG 1.1//EN"
 "http://www.w3.org/Graphics/SVG/1.1/DTD/svg11.dtd">
<!-- Generated by graphviz version 10.0.1 (20240210.2158)
 -->
<!-- Title: /Users/fola/Documents/ArkScript/Ark/src/arkreactor/VM/Scope.cpp Pages: 1 -->
<!--zoomable 271 -->
<svg id="main" version="1.1" xmlns="http://www.w3.org/2000/svg" xmlns:xlink="http://www.w3.org/1999/xlink" xml:space="preserve" onload="init(evt)">
<style type="text/css"><![CDATA[
.edge:hover path { stroke: red; }
.edge:hover polygon { stroke: red; fill: red; }
]]></style>
<script type="text/javascript"><![CDATA[
var edges = document.getElementsByTagName('g');
if (edges && edges.length) {
  for (var i=0;i<edges.length;i++) {
    if (edges[i].id.substr(0,4)=='edge') {
      edges[i].setAttribute('class','edge');
    }
  }
}
]]></script>
        <defs>
                <circle id="rim" cx="0" cy="0" r="7"/>
                <circle id="rim2" cx="0" cy="0" r="3.5"/>
                <g id="zoomPlus">
                        <use xlink:href="#rim" fill="#404040">
                                <set attributeName="fill" to="#808080" begin="zoomplus.mouseover" end="zoomplus.mouseout"/>
                        </use>
                        <path d="M-4,0h8M0,-4v8" fill="none" stroke="white" stroke-width="1.5" pointer-events="none"/>
                </g>
                <g id="zoomMin">
                        <use xlink:href="#rim" fill="#404040">
                                <set attributeName="fill" to="#808080" begin="zoomminus.mouseover" end="zoomminus.mouseout"/>
                        </use>
                        <path d="M-4,0h8" fill="none" stroke="white" stroke-width="1.5" pointer-events="none"/>
                </g>
                <g id="dirArrow">
                        <path fill="none" stroke="white" stroke-width="1.5" d="M0,-3.0v7 M-2.5,-0.5L0,-3.0L2.5,-0.5"/>
                </g>
               <g id="resetDef">
                       <use xlink:href="#rim2" fill="#404040">
                               <set attributeName="fill" to="#808080" begin="reset.mouseover" end="reset.mouseout"/>
                       </use>
               </g>
        </defs>

<script type="text/javascript">
var viewWidth = 637;
var viewHeight = 271;
var sectionId = 'dynsection-0';
</script>
<script xlink:href="../../svgpan.js"/>
<svg id="graph" class="graph">
<g id="viewport">
<title>/Users/fola/Documents/ArkScript/Ark/src/arkreactor/VM/Scope.cpp</title>
<!-- Node1 -->
<g id="node1" class="node">
<title>Node1</title>
<g id="a_node1"><a xlink:title=" ">
<polygon fill="#999999" stroke="#666666" points="292.31,-262.75 151.81,-262.75 151.81,-221 292.31,-221 292.31,-262.75"/>
<text text-anchor="start" x="159.81" y="-249.25" font-family="Helvetica,sans-Serif" font-size="10.00">/Users/fola/Documents</text>
<text text-anchor="start" x="159.81" y="-238" font-family="Helvetica,sans-Serif" font-size="10.00">/ArkScript/Ark/src/arkreactor</text>
<text text-anchor="middle" x="222.06" y="-226.75" font-family="Helvetica,sans-Serif" font-size="10.00">/VM/Scope.cpp</text>
</a>
</g>
</g>
<!-- Node2 -->
<g id="node2" class="node">
<title>Node2</title>
<g id="a_node2"><a xlink:href="../../d8/dcd/Scope_8hpp.html" target="_top" xlink:title="The virtual machine scope system.">
<polygon fill="white" stroke="#666666" points="228.31,-185 129.81,-185 129.81,-165.75 228.31,-165.75 228.31,-185"/>
<text text-anchor="middle" x="179.06" y="-171.5" font-family="Helvetica,sans-Serif" font-size="10.00">Ark/VM/Scope.hpp</text>
</a>
</g>
</g>
<!-- Node1&#45;&gt;Node2 -->
<g id="edge1" class="edge">
<title>Node1&#45;&gt;Node2</title>
<path fill="none" stroke="#63b8ff" d="M208.69,-220.82C203.14,-212.5 196.75,-202.91 191.32,-194.77"/>
<polygon fill="#63b8ff" stroke="#63b8ff" points="194.4,-193.08 185.94,-186.7 188.58,-196.97 194.4,-193.08"/>
</g>
<!-- Node14 -->
<g id="node14" class="node">
<title>Node14</title>
<g id="a_node14"><a xlink:title=" ">
<polygon fill="#e0e0e0" stroke="#999999" points="285.68,-185 246.43,-185 246.43,-165.75 285.68,-165.75 285.68,-185"/>
<text text-anchor="middle" x="266.06" y="-171.5" font-family="Helvetica,sans-Serif" font-size="10.00">limits</text>
</a>
</g>
</g>
<!-- Node1&#45;&gt;Node14 -->
<g id="edge21" class="edge">
<title>Node1&#45;&gt;Node14</title>
<path fill="none" stroke="#63b8ff" d="M235.74,-220.82C241.41,-212.5 247.96,-202.91 253.51,-194.77"/>
<polygon fill="#63b8ff" stroke="#63b8ff" points="256.27,-196.93 259.02,-186.7 250.49,-192.98 256.27,-196.93"/>
</g>
<!-- Node3 -->
<g id="node3" class="node">
<title>Node3</title>
<g id="a_node3"><a xlink:title=" ">
<polygon fill="#e0e0e0" stroke="#999999" points="628.56,-19.25 585.56,-19.25 585.56,0 628.56,0 628.56,-19.25"/>
<text text-anchor="middle" x="607.06" y="-5.75" font-family="Helvetica,sans-Serif" font-size="10.00">vector</text>
</a>
</g>
</g>
<!-- Node2&#45;&gt;Node3 -->
<g id="edge2" class="edge">
<title>Node2&#45;&gt;Node3</title>
<path fill="none" stroke="#63b8ff" d="M228.65,-166.36C336.44,-148.45 584.31,-104.41 608.06,-74.5 617.77,-62.27 616.49,-44.18 613.38,-30.37"/>
<polygon fill="#63b8ff" stroke="#63b8ff" points="616.85,-29.75 610.81,-21.05 610.1,-31.62 616.85,-29.75"/>
</g>
<!-- Node4 -->
<g id="node4" class="node">
<title>Node4</title>
<g id="a_node4"><a xlink:title=" ">
<polygon fill="#e0e0e0" stroke="#999999" points="74.93,-74.5 19.18,-74.5 19.18,-55.25 74.93,-55.25 74.93,-74.5"/>
<text text-anchor="middle" x="47.06" y="-61" font-family="Helvetica,sans-Serif" font-size="10.00">cinttypes</text>
</a>
</g>
</g>
<!-- Node2&#45;&gt;Node4 -->
<g id="edge3" class="edge">
<title>Node2&#45;&gt;Node4</title>
<path fill="none" stroke="#63b8ff" d="M168.26,-165.5C146.02,-147.22 94.84,-105.15 66.62,-81.96"/>
<polygon fill="#63b8ff" stroke="#63b8ff" points="69.13,-79.48 59.18,-75.84 64.68,-84.89 69.13,-79.48"/>
</g>
<!-- Node5 -->
<g id="node5" class="node">
<title>Node5</title>
<g id="a_node5"><a xlink:href="../../d5/d40/Platform_8hpp.html" target="_top" xlink:title="ArkScript configuration macros.">
<polygon fill="white" stroke="#666666" points="267.81,-19.25 178.31,-19.25 178.31,0 267.81,0 267.81,-19.25"/>
<text text-anchor="middle" x="223.06" y="-5.75" font-family="Helvetica,sans-Serif" font-size="10.00">Ark/Platform.hpp</text>
</a>
</g>
</g>
<!-- Node2&#45;&gt;Node5 -->
<g id="edge4" class="edge">
<title>Node2&#45;&gt;Node5</title>
<path fill="none" stroke="#63b8ff" d="M142.58,-165.26C80.98,-148.17 -32.94,-108.19 10.06,-55.25 29.45,-31.38 110.3,-19.82 166.61,-14.57"/>
<polygon fill="#63b8ff" stroke="#63b8ff" points="166.72,-18.08 176.37,-13.71 166.1,-11.1 166.72,-18.08"/>
</g>
<!-- Node6 -->
<g id="node6" class="node">
<title>Node6</title>
<g id="a_node6"><a xlink:href="../../de/dfd/Value_8hpp.html" target="_top" xlink:title=" ">
<polygon fill="white" stroke="#666666" points="270.43,-129.75 175.68,-129.75 175.68,-110.5 270.43,-110.5 270.43,-129.75"/>
<text text-anchor="middle" x="223.06" y="-116.25" font-family="Helvetica,sans-Serif" font-size="10.00">Ark/VM/Value.hpp</text>
</a>
</g>
</g>
<!-- Node2&#45;&gt;Node6 -->
<g id="edge5" class="edge">
<title>Node2&#45;&gt;Node6</title>
<path fill="none" stroke="#63b8ff" d="M186.32,-165.58C192.34,-158.3 201.07,-147.73 208.51,-138.73"/>
<polygon fill="#63b8ff" stroke="#63b8ff" points="211,-141.21 214.67,-131.28 205.6,-136.76 211,-141.21"/>
</g>
<!-- Node6&#45;&gt;Node3 -->
<g id="edge6" class="edge">
<title>Node6&#45;&gt;Node3</title>
<path fill="none" stroke="#63b8ff" d="M270.63,-119.57C358.39,-119.41 541.13,-114.16 588.06,-74.5 600.63,-63.87 605.1,-45.32 606.58,-30.94"/>
<polygon fill="#63b8ff" stroke="#63b8ff" points="610.06,-31.38 607.16,-21.19 603.08,-30.97 610.06,-31.38"/>
</g>
<!-- Node6&#45;&gt;Node4 -->
<g id="edge9" class="edge">
<title>Node6&#45;&gt;Node4</title>
<path fill="none" stroke="#63b8ff" d="M193.2,-110.09C163.72,-101.17 118.49,-87.49 86.16,-77.71"/>
<polygon fill="#63b8ff" stroke="#63b8ff" points="87.34,-74.41 76.76,-74.86 85.32,-81.11 87.34,-74.41"/>
</g>
<!-- Node6&#45;&gt;Node5 -->
<g id="edge20" class="edge">
<title>Node6&#45;&gt;Node5</title>
<path fill="none" stroke="#63b8ff" d="M223.06,-110.25C223.06,-93 223.06,-54.58 223.06,-30.81"/>
<polygon fill="#63b8ff" stroke="#63b8ff" points="226.56,-31.14 223.06,-21.14 219.56,-31.14 226.56,-31.14"/>
</g>
<!-- Node7 -->
<g id="node7" class="node">
<title>Node7</title>
<g id="a_node7"><a xlink:title=" ">
<polygon fill="#e0e0e0" stroke="#999999" points="138.68,-74.5 93.43,-74.5 93.43,-55.25 138.68,-55.25 138.68,-74.5"/>
<text text-anchor="middle" x="116.06" y="-61" font-family="Helvetica,sans-Serif" font-size="10.00">variant</text>
</a>
</g>
</g>
<!-- Node6&#45;&gt;Node7 -->
<g id="edge7" class="edge">
<title>Node6&#45;&gt;Node7</title>
<path fill="none" stroke="#63b8ff" d="M204.91,-110.09C188.38,-101.87 163.71,-89.59 144.56,-80.06"/>
<polygon fill="#63b8ff" stroke="#63b8ff" points="146.16,-76.95 135.65,-75.63 143.05,-83.22 146.16,-76.95"/>
</g>
<!-- Node8 -->
<g id="node8" class="node">
<title>Node8</title>
<g id="a_node8"><a xlink:title=" ">
<polygon fill="#e0e0e0" stroke="#999999" points="326.06,-19.25 286.06,-19.25 286.06,0 326.06,0 326.06,-19.25"/>
<text text-anchor="middle" x="306.06" y="-5.75" font-family="Helvetica,sans-Serif" font-size="10.00">string</text>
</a>
</g>
</g>
<!-- Node6&#45;&gt;Node8 -->
<g id="edge8" class="edge">
<title>Node6&#45;&gt;Node8</title>
<path fill="none" stroke="#63b8ff" d="M229.85,-110.25C243.47,-92.44 274.34,-52.08 292.34,-28.56"/>
<polygon fill="#63b8ff" stroke="#63b8ff" points="294.96,-30.9 298.25,-20.83 289.4,-26.64 294.96,-30.9"/>
</g>
<!-- Node9 -->
<g id="node9" class="node">
<title>Node9</title>
<g id="a_node9"><a xlink:title=" ">
<polygon fill="#e0e0e0" stroke="#999999" points="194.93,-74.5 157.18,-74.5 157.18,-55.25 194.93,-55.25 194.93,-74.5"/>
<text text-anchor="middle" x="176.06" y="-61" font-family="Helvetica,sans-Serif" font-size="10.00">array</text>
</a>
</g>
</g>
<!-- Node6&#45;&gt;Node9 -->
<g id="edge10" class="edge">
<title>Node6&#45;&gt;Node9</title>
<path fill="none" stroke="#63b8ff" d="M215.3,-110.33C208.87,-103.05 199.54,-92.48 191.59,-83.48"/>
<polygon fill="#63b8ff" stroke="#63b8ff" points="194.23,-81.18 184.99,-75.99 188.98,-85.81 194.23,-81.18"/>
</g>
<!-- Node10 -->
<g id="node10" class="node">
<title>Node10</title>
<g id="a_node10"><a xlink:href="../../dc/dd5/Closure_8hpp.html" target="_top" xlink:title="Subtype of the value type, handling closures.">
<polygon fill="white" stroke="#666666" points="420.81,-74.5 289.31,-74.5 289.31,-55.25 420.81,-55.25 420.81,-74.5"/>
<text text-anchor="middle" x="355.06" y="-61" font-family="Helvetica,sans-Serif" font-size="10.00">Ark/VM/Value/Closure.hpp</text>
</a>
</g>
</g>
<!-- Node6&#45;&gt;Node10 -->
<g id="edge11" class="edge">
<title>Node6&#45;&gt;Node10</title>
<path fill="none" stroke="#63b8ff" d="M245.45,-110.09C266.5,-101.6 298.26,-88.79 322.18,-79.14"/>
<polygon fill="#63b8ff" stroke="#63b8ff" points="323.19,-82.51 331.15,-75.52 320.57,-76.01 323.19,-82.51"/>
</g>
<!-- Node13 -->
<g id="node13" class="node">
<title>Node13</title>
<g id="a_node13"><a xlink:href="../../dc/d3d/UserType_8hpp.html" target="_top" xlink:title="Subtype of the value, capable of handling any C++ type.">
<polygon fill="white" stroke="#666666" points="578.93,-74.5 439.18,-74.5 439.18,-55.25 578.93,-55.25 578.93,-74.5"/>
<text text-anchor="middle" x="509.06" y="-61" font-family="Helvetica,sans-Serif" font-size="10.00">Ark/VM/Value/UserType.hpp</text>
</a>
</g>
</g>
<!-- Node6&#45;&gt;Node13 -->
<g id="edge16" class="edge">
<title>Node6&#45;&gt;Node13</title>
<path fill="none" stroke="#63b8ff" d="M270.93,-110.21C319.82,-101.11 395.85,-86.95 448.81,-77.09"/>
<polygon fill="#63b8ff" stroke="#63b8ff" points="449.39,-80.54 458.58,-75.27 448.11,-73.66 449.39,-80.54"/>
</g>
<!-- Node10&#45;&gt;Node5 -->
<g id="edge15" class="edge">
<title>Node10&#45;&gt;Node5</title>
<path fill="none" stroke="#63b8ff" d="M332.67,-54.84C311.62,-46.35 279.86,-33.54 255.93,-23.89"/>
<polygon fill="#63b8ff" stroke="#63b8ff" points="257.55,-20.76 246.96,-20.27 254.93,-27.26 257.55,-20.76"/>
</g>
<!-- Node10&#45;&gt;Node8 -->
<g id="edge14" class="edge">
<title>Node10&#45;&gt;Node8</title>
<path fill="none" stroke="#63b8ff" d="M346.97,-55.08C340.2,-47.73 330.34,-37.01 321.99,-27.94"/>
<polygon fill="#63b8ff" stroke="#63b8ff" points="324.7,-25.71 315.35,-20.72 319.55,-30.45 324.7,-25.71"/>
</g>
<!-- Node11 -->
<g id="node11" class="node">
<title>Node11</title>
<g id="a_node11"><a xlink:title=" ">
<polygon fill="#e0e0e0" stroke="#999999" points="395.68,-19.25 344.43,-19.25 344.43,0 395.68,0 395.68,-19.25"/>
<text text-anchor="middle" x="370.06" y="-5.75" font-family="Helvetica,sans-Serif" font-size="10.00">memory</text>
</a>
</g>
</g>
<!-- Node10&#45;&gt;Node11 -->
<g id="edge12" class="edge">
<title>Node10&#45;&gt;Node11</title>
<path fill="none" stroke="#63b8ff" d="M357.53,-55.08C359.41,-48.42 362.07,-38.99 364.45,-30.53"/>
<polygon fill="#63b8ff" stroke="#63b8ff" points="367.77,-31.64 367.12,-21.07 361.04,-29.74 367.77,-31.64"/>
</g>
<!-- Node12 -->
<g id="node12" class="node">
<title>Node12</title>
<g id="a_node12"><a xlink:title=" ">
<polygon fill="#e0e0e0" stroke="#999999" points="501.81,-19.25 448.31,-19.25 448.31,0 501.81,0 501.81,-19.25"/>
<text text-anchor="middle" x="475.06" y="-5.75" font-family="Helvetica,sans-Serif" font-size="10.00">iostream</text>
</a>
</g>
</g>
<!-- Node10&#45;&gt;Node12 -->
<g id="edge13" class="edge">
<title>Node10&#45;&gt;Node12</title>
<path fill="none" stroke="#63b8ff" d="M375.41,-54.84C394.29,-46.47 422.64,-33.88 444.29,-24.28"/>
<polygon fill="#63b8ff" stroke="#63b8ff" points="445.5,-27.57 453.22,-20.32 442.66,-21.17 445.5,-27.57"/>
</g>
<!-- Node13&#45;&gt;Node3 -->
<g id="edge18" class="edge">
<title>Node13&#45;&gt;Node3</title>
<path fill="none" stroke="#63b8ff" d="M525.68,-54.84C540.75,-46.66 563.2,-34.46 580.71,-24.94"/>
<polygon fill="#63b8ff" stroke="#63b8ff" points="581.91,-28.27 589.02,-20.43 578.56,-22.12 581.91,-28.27"/>
</g>
<!-- Node13&#45;&gt;Node5 -->
<g id="edge19" class="edge">
<title>Node13&#45;&gt;Node5</title>
<path fill="none" stroke="#63b8ff" d="M460.22,-54.78C409.98,-45.43 331.83,-30.88 279.1,-21.06"/>
<polygon fill="#63b8ff" stroke="#63b8ff" points="279.89,-17.65 269.42,-19.26 278.61,-24.53 279.89,-17.65"/>
</g>
<!-- Node13&#45;&gt;Node12 -->
<g id="edge17" class="edge">
<title>Node13&#45;&gt;Node12</title>
<path fill="none" stroke="#63b8ff" d="M503.44,-55.08C498.94,-48.03 492.47,-37.9 486.84,-29.08"/>
<polygon fill="#63b8ff" stroke="#63b8ff" points="489.94,-27.43 481.61,-20.88 484.04,-31.2 489.94,-27.43"/>
</g>
</g>
</svg>
        <g id="navigator" transform="translate(0 0)" fill="#404254">
                <rect fill="#f2f5e9" fill-opacity="0.5" stroke="#606060" stroke-width=".5" x="0" y="0" width="60" height="60"/>
                <use id="zoomplus" xlink:href="#zoomPlus" x="17" y="9" onmousedown="handleZoom(evt,'in')"/>
                <use id="zoomminus" xlink:href="#zoomMin" x="42" y="9" onmousedown="handleZoom(evt,'out')"/>
                <use id="reset" xlink:href="#resetDef" x="30" y="36" onmousedown="handleReset()"/>
                <g id="arrowUp" xlink:href="#dirArrow" transform="translate(30 24)" onmousedown="handlePan(0,-1)">
                  <use xlink:href="#rim" fill="#404040">
                        <set attributeName="fill" to="#808080" begin="arrowUp.mouseover" end="arrowUp.mouseout"/>
                  </use>
                  <path fill="none" stroke="white" stroke-width="1.5" d="M0,-3.0v7 M-2.5,-0.5L0,-3.0L2.5,-0.5"/>
                </g>
                <g id="arrowRight" xlink:href="#dirArrow" transform="rotate(90) translate(36 -43)" onmousedown="handlePan(1,0)">
                  <use xlink:href="#rim" fill="#404040">
                        <set attributeName="fill" to="#808080" begin="arrowRight.mouseover" end="arrowRight.mouseout"/>
                  </use>
                  <path fill="none" stroke="white" stroke-width="1.5" d="M0,-3.0v7 M-2.5,-0.5L0,-3.0L2.5,-0.5"/>
                </g>
                <g id="arrowDown" xlink:href="#dirArrow" transform="rotate(180) translate(-30 -48)" onmousedown="handlePan(0,1)">
                  <use xlink:href="#rim" fill="#404040">
                        <set attributeName="fill" to="#808080" begin="arrowDown.mouseover" end="arrowDown.mouseout"/>
                  </use>
                  <path fill="none" stroke="white" stroke-width="1.5" d="M0,-3.0v7 M-2.5,-0.5L0,-3.0L2.5,-0.5"/>
                </g>
                <g id="arrowLeft" xlink:href="#dirArrow" transform="rotate(270) translate(-36 17)" onmousedown="handlePan(-1,0)">
                  <use xlink:href="#rim" fill="#404040">
                        <set attributeName="fill" to="#808080" begin="arrowLeft.mouseover" end="arrowLeft.mouseout"/>
                  </use>
                  <path fill="none" stroke="white" stroke-width="1.5" d="M0,-3.0v7 M-2.5,-0.5L0,-3.0L2.5,-0.5"/>
                </g>
        </g>
        <svg viewBox="0 0 15 15" width="100%" height="30px" preserveAspectRatio="xMaxYMin meet">
         <g id="arrow_out" transform="scale(0.3 0.3)">
          <a xlink:href="Scope_8cpp__incl_org.svg" target="_base">
           <rect id="button" ry="5" rx="5" y="6" x="6" height="38" width="38"
                fill="#f2f5e9" fill-opacity="0.5" stroke="#606060" stroke-width="1.0"/>
           <path id="arrow"
             d="M 11.500037,31.436501 C 11.940474,20.09759 22.043105,11.32322 32.158766,21.979434 L 37.068811,17.246167 C 37.068811,17.246167 37.088388,32 37.088388,32 L 22.160133,31.978069 C 22.160133,31.978069 26.997745,27.140456 26.997745,27.140456 C 18.528582,18.264221 13.291696,25.230495 11.500037,31.436501 z"
             style="fill:#404040;"/>
          </a>
         </g>
        </svg>
</svg>
