<?xml version="1.0" encoding="UTF-8" standalone="no"?>
<!DOCTYPE svg PUBLIC "-//W3C//DTD SVG 1.1//EN"
 "http://www.w3.org/Graphics/SVG/1.1/DTD/svg11.dtd">
<!-- Generated by graphviz version 12.2.0 (20241103.1931)
 -->
<!-- Title: /Users/fola/Documents/ArkScript/Ark/include/Ark/VM/Value/UserType.hpp Pages: 1 -->
<!--zoomable 605 -->

<svg id="main" version="1.1" xmlns="http://www.w3.org/2000/svg" xmlns:xlink="http://www.w3.org/1999/xlink" xml:space="preserve" onload="init(evt)">

<style type="text/css"><![CDATA[
.node, .edge {opacity: 0.7;}
.node.selected, .edge.selected {opacity: 1;}
.edge:hover path { stroke: red; }
.edge:hover polygon { stroke: red; fill: red; }
]]></style>

<defs>
  <circle id="rim" cx="0" cy="0" r="7"/>
  <circle id="rim2" cx="0" cy="0" r="3.5"/>
  <g id="zoomPlus">
    <use xlink:href="#rim" fill="#404040"><set attributeName="fill" to="#808080" begin="zoomplus.mouseover" end="zoomplus.mouseout"/></use>
    <path d="M-4,0h8M0,-4v8" fill="none" stroke="white" stroke-width="1.5" pointer-events="none"/>
  </g>
  <g id="zoomMin">
    <use xlink:href="#rim" fill="#404040"><set attributeName="fill" to="#808080" begin="zoomminus.mouseover" end="zoomminus.mouseout"/></use>
    <path d="M-4,0h8" fill="none" stroke="white" stroke-width="1.5" pointer-events="none"/>
  </g>
  <g id="arrowUp" transform="translate(30 24)">
    <use xlink:href="#rim"/>
    <path pointer-events="none" fill="none" stroke="white" stroke-width="1.5" d="M0,-3.0v7 M-2.5,-0.5L0,-3.0L2.5,-0.5"/>
  </g>
  <g id="arrowRight" transform="rotate(90) translate(36 -43)">
    <use xlink:href="#rim"/>
    <path pointer-events="none" fill="none" stroke="white" stroke-width="1.5" d="M0,-3.0v7 M-2.5,-0.5L0,-3.0L2.5,-0.5"/>
  </g>
  <g id="arrowDown" transform="rotate(180) translate(-30 -48)">
    <use xlink:href="#rim"/>
    <path pointer-events="none" fill="none" stroke="white" stroke-width="1.5" d="M0,-3.0v7 M-2.5,-0.5L0,-3.0L2.5,-0.5"/>
  </g>
  <g id="arrowLeft" transform="rotate(270) translate(-36 17)">
    <use xlink:href="#rim"/>
    <path pointer-events="none" fill="none" stroke="white" stroke-width="1.5" d="M0,-3.0v7 M-2.5,-0.5L0,-3.0L2.5,-0.5"/>
  </g>
  <g id="resetDef">
    <use xlink:href="#rim2" fill="#404040"><set attributeName="fill" to="#808080" begin="reset.mouseover" end="reset.mouseout"/></use>
  </g>
</defs>
<script type="application/ecmascript">
var viewWidth = 1825;
var viewHeight = 605;
var sectionId = 'dynsection-1';
</script>
<script type="application/ecmascript" xlink:href="../../svg.min.js"/>
<svg id="graph" class="graph">
<g id="viewport">
<title>/Users/fola/Documents/ArkScript/Ark/include/Ark/VM/Value/UserType.hpp</title>
<!-- Node1 -->
<g id="Node000001" class="node">
<title>Node1</title>
<g id="a_Node000001"><a xlink:title="Subtype of the value, capable of handling any C++ type.">
<polygon fill="#999999" stroke="#666666" points="1427.62,-597.25 1284.88,-597.25 1284.88,-555.5 1427.62,-555.5 1427.62,-597.25"/>
<text text-anchor="start" x="1292.88" y="-583.75" font-family="Helvetica,sans-Serif" font-size="10.00">/Users/fola/Documents</text>
<text text-anchor="start" x="1292.88" y="-572.5" font-family="Helvetica,sans-Serif" font-size="10.00">/ArkScript/Ark/include</text>
<text text-anchor="middle" x="1356.25" y="-561.25" font-family="Helvetica,sans-Serif" font-size="10.00">/Ark/VM/Value/UserType.hpp</text>
</a>
</g>
</g>
<!-- Node2 -->
<g id="Node000002" class="node">
<title>Node2</title>
<g id="a_Node000002"><a xlink:href="../../de/dfd/Value_8hpp.html" target="_top" xlink:title="Default value type handled by the virtual machine.">
<polygon fill="white" stroke="#666666" points="1341.88,-519.5 1224.62,-519.5 1224.62,-477.75 1341.88,-477.75 1341.88,-519.5"/>
<text text-anchor="start" x="1232.62" y="-506" font-family="Helvetica,sans-Serif" font-size="10.00">/Users/fola/Documents</text>
<text text-anchor="start" x="1232.62" y="-494.75" font-family="Helvetica,sans-Serif" font-size="10.00">/ArkScript/Ark/include</text>
<text text-anchor="middle" x="1283.25" y="-483.5" font-family="Helvetica,sans-Serif" font-size="10.00">/Ark/VM/Value.hpp</text>
</a>
</g>
</g>
<!-- Node1&#45;&gt;Node2 -->
<g id="edge1_Node000001_Node000002" class="edge">
<title>Node1&#45;&gt;Node2</title>
<g id="a_edge1_Node000001_Node000002"><a xlink:title=" ">
<path fill="none" stroke="#63b8ff" d="M1328.72,-546.81C1320.12,-537.89 1310.81,-528.22 1302.87,-519.98"/>
<polygon fill="#63b8ff" stroke="#63b8ff" points="1326.18,-549.21 1335.64,-553.99 1331.22,-544.36 1326.18,-549.21"/>
</a>
</g>
</g>
<!-- Node32 -->
<g id="Node000032" class="node">
<title>Node32</title>
<g id="a_Node000032"><a xlink:href="../../d6/d0f/UserType_8cpp.html" target="_top" xlink:title=" ">
<polygon fill="white" stroke="#666666" points="1500.5,-519.5 1360,-519.5 1360,-477.75 1500.5,-477.75 1500.5,-519.5"/>
<text text-anchor="start" x="1368" y="-506" font-family="Helvetica,sans-Serif" font-size="10.00">/Users/fola/Documents</text>
<text text-anchor="start" x="1368" y="-494.75" font-family="Helvetica,sans-Serif" font-size="10.00">/ArkScript/Ark/src/arkreactor</text>
<text text-anchor="middle" x="1430.25" y="-483.5" font-family="Helvetica,sans-Serif" font-size="10.00">/VM/Value/UserType.cpp</text>
</a>
</g>
</g>
<!-- Node1&#45;&gt;Node32 -->
<g id="edge50_Node000001_Node000032" class="edge">
<title>Node1&#45;&gt;Node32</title>
<g id="a_edge50_Node000001_Node000032"><a xlink:title=" ">
<path fill="none" stroke="#63b8ff" d="M1383.88,-547.09C1392.68,-538.09 1402.23,-528.31 1410.36,-519.98"/>
<polygon fill="#63b8ff" stroke="#63b8ff" points="1381.62,-544.39 1377.14,-553.99 1386.63,-549.29 1381.62,-544.39"/>
</a>
</g>
</g>
<!-- Node3 -->
<g id="Node000003" class="node">
<title>Node3</title>
<g id="a_Node000003"><a xlink:href="../../da/d84/Builtins_8hpp.html" target="_top" xlink:title="Host the declaration of all the ArkScript builtins.">
<polygon fill="white" stroke="#666666" points="852.88,-286.25 729.62,-286.25 729.62,-244.5 852.88,-244.5 852.88,-286.25"/>
<text text-anchor="start" x="737.62" y="-272.75" font-family="Helvetica,sans-Serif" font-size="10.00">/Users/fola/Documents</text>
<text text-anchor="start" x="737.62" y="-261.5" font-family="Helvetica,sans-Serif" font-size="10.00">/ArkScript/Ark/include</text>
<text text-anchor="middle" x="791.25" y="-250.25" font-family="Helvetica,sans-Serif" font-size="10.00">/Ark/Builtins/Builtins.hpp</text>
</a>
</g>
</g>
<!-- Node2&#45;&gt;Node3 -->
<g id="edge2_Node000002_Node000003" class="edge">
<title>Node2&#45;&gt;Node3</title>
<g id="a_edge2_Node000002_Node000003"><a xlink:title=" ">
<path fill="none" stroke="#63b8ff" d="M1213.03,-496.37C1108.93,-493.17 920.25,-481.85 867.25,-441.75 816.44,-403.31 799.1,-323.88 793.6,-286.57"/>
<polygon fill="#63b8ff" stroke="#63b8ff" points="1212.76,-499.86 1222.85,-496.65 1212.96,-492.87 1212.76,-499.86"/>
</a>
</g>
</g>
<!-- Node4 -->
<g id="Node000004" class="node">
<title>Node4</title>
<g id="a_Node000004"><a xlink:href="../../d1/d91/VM_8hpp.html" target="_top" xlink:title="The ArkScript virtual machine.">
<polygon fill="white" stroke="#666666" points="1246.88,-202.88 1129.62,-202.88 1129.62,-161.12 1246.88,-161.12 1246.88,-202.88"/>
<text text-anchor="start" x="1137.62" y="-189.38" font-family="Helvetica,sans-Serif" font-size="10.00">/Users/fola/Documents</text>
<text text-anchor="start" x="1137.62" y="-178.12" font-family="Helvetica,sans-Serif" font-size="10.00">/ArkScript/Ark/include</text>
<text text-anchor="middle" x="1188.25" y="-166.88" font-family="Helvetica,sans-Serif" font-size="10.00">/Ark/VM/VM.hpp</text>
</a>
</g>
</g>
<!-- Node2&#45;&gt;Node4 -->
<g id="edge44_Node000002_Node000004" class="edge">
<title>Node2&#45;&gt;Node4</title>
<g id="a_edge44_Node000002_Node000004"><a xlink:title=" ">
<path fill="none" stroke="#63b8ff" d="M1213.12,-495.57C1126.9,-488.7 984.82,-462.18 926.25,-364 896.76,-314.56 929.44,-278.01 976.25,-244.5 1030.24,-205.85 1057.88,-228.35 1121.25,-208.5 1126.36,-206.9 1131.64,-205.12 1136.89,-203.26"/>
<polygon fill="#63b8ff" stroke="#63b8ff" points="1212.64,-499.05 1222.87,-496.27 1213.15,-492.06 1212.64,-499.05"/>
</a>
</g>
</g>
<!-- Node20 -->
<g id="Node000020" class="node">
<title>Node20</title>
<g id="a_Node000020"><a xlink:href="../../d1/d84/BytecodeReader_8hpp.html" target="_top" xlink:title="A bytecode disassembler for ArkScript.">
<polygon fill="white" stroke="#666666" points="1817.12,-286.25 1647.38,-286.25 1647.38,-244.5 1817.12,-244.5 1817.12,-286.25"/>
<text text-anchor="start" x="1655.38" y="-272.75" font-family="Helvetica,sans-Serif" font-size="10.00">/Users/fola/Documents</text>
<text text-anchor="start" x="1655.38" y="-261.5" font-family="Helvetica,sans-Serif" font-size="10.00">/ArkScript/Ark/include</text>
<text text-anchor="middle" x="1732.25" y="-250.25" font-family="Helvetica,sans-Serif" font-size="10.00">/Ark/Compiler/BytecodeReader.hpp</text>
</a>
</g>
</g>
<!-- Node2&#45;&gt;Node20 -->
<g id="edge20_Node000002_Node000020" class="edge">
<title>Node2&#45;&gt;Node20</title>
<g id="a_edge20_Node000002_Node000020"><a xlink:title=" ">
<path fill="none" stroke="#63b8ff" d="M1353.13,-477.36C1413.7,-461.69 1433.77,-466.93 1487.25,-441.75 1577.41,-399.3 1669.05,-322.92 1710.05,-286.61"/>
<polygon fill="#63b8ff" stroke="#63b8ff" points="1352.41,-473.93 1343.66,-479.9 1354.22,-480.69 1352.41,-473.93"/>
</a>
</g>
</g>
<!-- Node22 -->
<g id="Node000022" class="node">
<title>Node22</title>
<g id="a_Node000022"><a xlink:href="../../db/d5e/TypeChecker_8hpp.html" target="_top" xlink:title=" ">
<polygon fill="white" stroke="#666666" points="128.88,-202.88 11.62,-202.88 11.62,-161.12 128.88,-161.12 128.88,-202.88"/>
<text text-anchor="start" x="19.62" y="-189.38" font-family="Helvetica,sans-Serif" font-size="10.00">/Users/fola/Documents</text>
<text text-anchor="start" x="19.62" y="-178.12" font-family="Helvetica,sans-Serif" font-size="10.00">/ArkScript/Ark/include</text>
<text text-anchor="middle" x="70.25" y="-166.88" font-family="Helvetica,sans-Serif" font-size="10.00">/Ark/TypeChecker.hpp</text>
</a>
</g>
</g>
<!-- Node2&#45;&gt;Node22 -->
<g id="edge24_Node000002_Node000022" class="edge">
<title>Node2&#45;&gt;Node22</title>
<g id="a_edge24_Node000002_Node000022"><a xlink:title=" ">
<path fill="none" stroke="#63b8ff" d="M1212.83,-493.48C1122.58,-487.14 961.72,-472.41 827.25,-441.75 551.68,-378.92 235.88,-252.48 117.93,-203.26"/>
<polygon fill="#63b8ff" stroke="#63b8ff" points="1212.56,-496.97 1222.77,-494.16 1213.04,-489.98 1212.56,-496.97"/>
</a>
</g>
</g>
<!-- Node24 -->
<g id="Node000024" class="node">
<title>Node24</title>
<g id="a_Node000024"><a xlink:href="../../db/df6/ExecutionContext_8hpp.html" target="_top" xlink:title="Keeping track of the internal data needed by the VM.">
<polygon fill="white" stroke="#666666" points="1257.12,-364 1105.38,-364 1105.38,-322.25 1257.12,-322.25 1257.12,-364"/>
<text text-anchor="start" x="1113.38" y="-350.5" font-family="Helvetica,sans-Serif" font-size="10.00">/Users/fola/Documents</text>
<text text-anchor="start" x="1113.38" y="-339.25" font-family="Helvetica,sans-Serif" font-size="10.00">/ArkScript/Ark/include</text>
<text text-anchor="middle" x="1181.25" y="-328" font-family="Helvetica,sans-Serif" font-size="10.00">/Ark/VM/ExecutionContext.hpp</text>
</a>
</g>
</g>
<!-- Node2&#45;&gt;Node24 -->
<g id="edge29_Node000002_Node000024" class="edge">
<title>Node2&#45;&gt;Node24</title>
<g id="a_edge29_Node000002_Node000024"><a xlink:title=" ">
<path fill="none" stroke="#63b8ff" d="M1263.74,-468.27C1243.45,-437.73 1212.23,-390.75 1194.59,-364.2"/>
<polygon fill="#63b8ff" stroke="#63b8ff" points="1260.63,-469.91 1269.08,-476.3 1266.46,-466.03 1260.63,-469.91"/>
</a>
</g>
</g>
<!-- Node25 -->
<g id="Node000025" class="node">
<title>Node25</title>
<g id="a_Node000025"><a xlink:href="../../d0/dda/Future_8hpp.html" target="_top" xlink:title="Internal object to resolve asynchronously a function call in ArkScript.">
<polygon fill="white" stroke="#666666" points="1332.88,-286.25 1215.62,-286.25 1215.62,-244.5 1332.88,-244.5 1332.88,-286.25"/>
<text text-anchor="start" x="1223.62" y="-272.75" font-family="Helvetica,sans-Serif" font-size="10.00">/Users/fola/Documents</text>
<text text-anchor="start" x="1223.62" y="-261.5" font-family="Helvetica,sans-Serif" font-size="10.00">/ArkScript/Ark/include</text>
<text text-anchor="middle" x="1274.25" y="-250.25" font-family="Helvetica,sans-Serif" font-size="10.00">/Ark/VM/Future.hpp</text>
</a>
</g>
</g>
<!-- Node2&#45;&gt;Node25 -->
<g id="edge34_Node000002_Node000025" class="edge">
<title>Node2&#45;&gt;Node25</title>
<g id="a_edge34_Node000002_Node000025"><a xlink:title=" ">
<path fill="none" stroke="#63b8ff" d="M1353.01,-474.7C1387.75,-462.59 1423.41,-448.81 1428.25,-441.75 1458.3,-397.96 1458.74,-365.74 1428.25,-322.25 1406.86,-291.74 1367.04,-277.82 1333.25,-271.51"/>
<polygon fill="#63b8ff" stroke="#63b8ff" points="1352.04,-471.34 1343.72,-477.91 1354.32,-477.95 1352.04,-471.34"/>
</a>
</g>
</g>
<!-- Node26 -->
<g id="Node000026" class="node">
<title>Node26</title>
<g id="a_Node000026"><a xlink:href="../../d8/d45/ScopeView_8hpp.html" target="_top" xlink:title=" ">
<polygon fill="white" stroke="#666666" points="1201.12,-441.75 1079.38,-441.75 1079.38,-400 1201.12,-400 1201.12,-441.75"/>
<text text-anchor="start" x="1087.38" y="-428.25" font-family="Helvetica,sans-Serif" font-size="10.00">/Users/fola/Documents</text>
<text text-anchor="start" x="1087.38" y="-417" font-family="Helvetica,sans-Serif" font-size="10.00">/ArkScript/Ark/include</text>
<text text-anchor="middle" x="1140.25" y="-405.75" font-family="Helvetica,sans-Serif" font-size="10.00">/Ark/VM/ScopeView.hpp</text>
</a>
</g>
</g>
<!-- Node2&#45;&gt;Node26 -->
<g id="edge35_Node000002_Node000026" class="edge">
<title>Node2&#45;&gt;Node26</title>
<g id="a_edge35_Node000002_Node000026"><a xlink:title=" ">
<path fill="none" stroke="#63b8ff" d="M1235,-472.07C1216.65,-462.35 1196,-451.41 1178.68,-442.23"/>
<polygon fill="#63b8ff" stroke="#63b8ff" points="1233.12,-475.03 1243.59,-476.62 1236.39,-468.84 1233.12,-475.03"/>
</a>
</g>
</g>
<!-- Node29 -->
<g id="Node000029" class="node">
<title>Node29</title>
<g id="a_Node000029"><a xlink:href="../../d0/db5/State_8hpp.html" target="_top" xlink:title="State used by the virtual machine: it loads the bytecode, can compile it if needed,...">
<polygon fill="white" stroke="#666666" points="1628.88,-286.25 1511.62,-286.25 1511.62,-244.5 1628.88,-244.5 1628.88,-286.25"/>
<text text-anchor="start" x="1519.62" y="-272.75" font-family="Helvetica,sans-Serif" font-size="10.00">/Users/fola/Documents</text>
<text text-anchor="start" x="1519.62" y="-261.5" font-family="Helvetica,sans-Serif" font-size="10.00">/ArkScript/Ark/include</text>
<text text-anchor="middle" x="1570.25" y="-250.25" font-family="Helvetica,sans-Serif" font-size="10.00">/Ark/VM/State.hpp</text>
</a>
</g>
</g>
<!-- Node2&#45;&gt;Node29 -->
<g id="edge40_Node000002_Node000029" class="edge">
<title>Node2&#45;&gt;Node29</title>
<g id="a_edge40_Node000002_Node000029"><a xlink:title=" ">
<path fill="none" stroke="#63b8ff" d="M1353.32,-476.8C1395.96,-463.71 1443.81,-448.15 1452.25,-441.75 1507.95,-399.5 1546.09,-323.02 1561.97,-286.65"/>
<polygon fill="#63b8ff" stroke="#63b8ff" points="1352.33,-473.44 1343.78,-479.71 1354.37,-480.13 1352.33,-473.44"/>
</a>
</g>
</g>
<!-- Node30 -->
<g id="Node000030" class="node">
<title>Node30</title>
<g id="a_Node000030"><a xlink:href="../../d1/d71/ClosureScope_8hpp.html" target="_top" xlink:title="Subtype of the value type, handling closures.">
<polygon fill="white" stroke="#666666" points="1419.38,-441.75 1257.12,-441.75 1257.12,-400 1419.38,-400 1419.38,-441.75"/>
<text text-anchor="start" x="1265.12" y="-428.25" font-family="Helvetica,sans-Serif" font-size="10.00">/Users/fola/Documents</text>
<text text-anchor="start" x="1265.12" y="-417" font-family="Helvetica,sans-Serif" font-size="10.00">/ArkScript/Ark/include</text>
<text text-anchor="middle" x="1338.25" y="-405.75" font-family="Helvetica,sans-Serif" font-size="10.00">/Ark/VM/Value/ClosureScope.hpp</text>
</a>
</g>
</g>
<!-- Node2&#45;&gt;Node30 -->
<g id="edge45_Node000002_Node000030" class="edge">
<title>Node2&#45;&gt;Node30</title>
<g id="a_edge45_Node000002_Node000030"><a xlink:title=" ">
<path fill="none" stroke="#63b8ff" d="M1304.59,-468.23C1310.9,-459.54 1317.67,-450.22 1323.47,-442.23"/>
<polygon fill="#63b8ff" stroke="#63b8ff" points="1301.92,-465.95 1298.88,-476.1 1307.59,-470.07 1301.92,-465.95"/>
</a>
</g>
</g>
<!-- Node31 -->
<g id="Node000031" class="node">
<title>Node31</title>
<g id="a_Node000031"><a xlink:href="../../d1/d74/Value_8cpp.html" target="_top" xlink:title=" ">
<polygon fill="white" stroke="#666666" points="1729.5,-441.75 1589,-441.75 1589,-400 1729.5,-400 1729.5,-441.75"/>
<text text-anchor="start" x="1597" y="-428.25" font-family="Helvetica,sans-Serif" font-size="10.00">/Users/fola/Documents</text>
<text text-anchor="start" x="1597" y="-417" font-family="Helvetica,sans-Serif" font-size="10.00">/ArkScript/Ark/src/arkreactor</text>
<text text-anchor="middle" x="1659.25" y="-405.75" font-family="Helvetica,sans-Serif" font-size="10.00">/VM/Value.cpp</text>
</a>
</g>
</g>
<!-- Node2&#45;&gt;Node31 -->
<g id="edge49_Node000002_Node000031" class="edge">
<title>Node2&#45;&gt;Node31</title>
<g id="a_edge49_Node000002_Node000031"><a xlink:title=" ">
<path fill="none" stroke="#63b8ff" d="M1353.15,-477.47C1451.58,-455.94 1479.82,-460.68 1575.25,-441.75 1579.66,-440.88 1584.19,-439.93 1588.75,-438.95"/>
<polygon fill="#63b8ff" stroke="#63b8ff" points="1352.58,-474.01 1343.58,-479.61 1354.1,-480.85 1352.58,-474.01"/>
</a>
</g>
</g>
<!-- Node3&#45;&gt;Node4 -->
<g id="edge3_Node000003_Node000004" class="edge">
<title>Node3&#45;&gt;Node4</title>
<g id="a_edge3_Node000003_Node000004"><a xlink:title=" ">
<path fill="none" stroke="#63b8ff" d="M864.25,-245.11C865.25,-244.9 866.26,-244.7 867.25,-244.5 979.03,-222.04 1010.84,-236.95 1121.25,-208.5 1126.91,-207.04 1132.76,-205.26 1138.52,-203.32"/>
<polygon fill="#63b8ff" stroke="#63b8ff" points="863.82,-241.63 854.81,-247.19 865.33,-248.46 863.82,-241.63"/>
</a>
</g>
</g>
<!-- Node9 -->
<g id="Node000009" class="node">
<title>Node9</title>
<g id="a_Node000009"><a xlink:href="../../d7/d46/Repl_8cpp.html" target="_top" xlink:title=" ">
<polygon fill="white" stroke="#666666" points="1178.5,-41.75 1044,-41.75 1044,0 1178.5,0 1178.5,-41.75"/>
<text text-anchor="start" x="1052" y="-28.25" font-family="Helvetica,sans-Serif" font-size="10.00">/Users/fola/Documents</text>
<text text-anchor="start" x="1052" y="-17" font-family="Helvetica,sans-Serif" font-size="10.00">/ArkScript/Ark/src/arkscript</text>
<text text-anchor="middle" x="1111.25" y="-5.75" font-family="Helvetica,sans-Serif" font-size="10.00">/REPL/Repl.cpp</text>
</a>
</g>
</g>
<!-- Node3&#45;&gt;Node9 -->
<g id="edge18_Node000003_Node000009" class="edge">
<title>Node3&#45;&gt;Node9</title>
<g id="a_edge18_Node000003_Node000009"><a xlink:title=" ">
<path fill="none" stroke="#63b8ff" d="M773.69,-234.07C762.72,-210.76 753.41,-178.7 769.25,-155.5 830.72,-65.48 962.67,-36.1 1043.51,-26.51"/>
<polygon fill="#63b8ff" stroke="#63b8ff" points="770.44,-235.41 778.08,-242.76 776.69,-232.25 770.44,-235.41"/>
</a>
</g>
</g>
<!-- Node14 -->
<g id="Node000014" class="node">
<title>Node14</title>
<g id="a_Node000014"><a xlink:href="../../d5/d36/BytecodeReader_8cpp.html" target="_top" xlink:title=" ">
<polygon fill="white" stroke="#666666" points="1455.12,-202.88 1303.38,-202.88 1303.38,-161.12 1455.12,-161.12 1455.12,-202.88"/>
<text text-anchor="start" x="1311.38" y="-189.38" font-family="Helvetica,sans-Serif" font-size="10.00">/Users/fola/Documents</text>
<text text-anchor="start" x="1311.38" y="-178.12" font-family="Helvetica,sans-Serif" font-size="10.00">/ArkScript/Ark/src/arkreactor</text>
<text text-anchor="middle" x="1379.25" y="-166.88" font-family="Helvetica,sans-Serif" font-size="10.00">/Compiler/BytecodeReader.cpp</text>
</a>
</g>
</g>
<!-- Node3&#45;&gt;Node14 -->
<g id="edge13_Node000003_Node000014" class="edge">
<title>Node3&#45;&gt;Node14</title>
<g id="a_edge13_Node000003_Node000014"><a xlink:title=" ">
<path fill="none" stroke="#63b8ff" d="M864.56,-257.51C956.41,-248.46 1118.5,-231.01 1256.25,-208.5 1271.42,-206.02 1287.57,-202.97 1303,-199.86"/>
<polygon fill="#63b8ff" stroke="#63b8ff" points="864.28,-254.02 854.67,-258.48 864.96,-260.98 864.28,-254.02"/>
</a>
</g>
</g>
<!-- Node15 -->
<g id="Node000015" class="node">
<title>Node15</title>
<g id="a_Node000015"><a xlink:href="../../d0/da9/IROptimizer_8cpp.html" target="_top" xlink:title=" ">
<polygon fill="white" stroke="#666666" points="1111.75,-208.5 930.75,-208.5 930.75,-155.5 1111.75,-155.5 1111.75,-208.5"/>
<text text-anchor="start" x="938.75" y="-195" font-family="Helvetica,sans-Serif" font-size="10.00">/Users/fola/Documents</text>
<text text-anchor="start" x="938.75" y="-183.75" font-family="Helvetica,sans-Serif" font-size="10.00">/ArkScript/Ark/src/arkreactor</text>
<text text-anchor="start" x="938.75" y="-172.5" font-family="Helvetica,sans-Serif" font-size="10.00">/Compiler/IntermediateRepresentation</text>
<text text-anchor="middle" x="1021.25" y="-161.25" font-family="Helvetica,sans-Serif" font-size="10.00">/IROptimizer.cpp</text>
</a>
</g>
</g>
<!-- Node3&#45;&gt;Node15 -->
<g id="edge14_Node000003_Node000015" class="edge">
<title>Node3&#45;&gt;Node15</title>
<g id="a_edge14_Node000003_Node000015"><a xlink:title=" ">
<path fill="none" stroke="#63b8ff" d="M859.54,-240.21C887.4,-230.36 919.67,-218.94 948.02,-208.91"/>
<polygon fill="#63b8ff" stroke="#63b8ff" points="858.38,-236.91 850.12,-243.55 860.72,-243.51 858.38,-236.91"/>
</a>
</g>
</g>
<!-- Node16 -->
<g id="Node000016" class="node">
<title>Node16</title>
<g id="a_Node000016"><a xlink:href="../../d2/d5e/ASTLowerer_8cpp.html" target="_top" xlink:title=" ">
<polygon fill="white" stroke="#666666" points="317.5,-202.88 147,-202.88 147,-161.12 317.5,-161.12 317.5,-202.88"/>
<text text-anchor="start" x="155" y="-189.38" font-family="Helvetica,sans-Serif" font-size="10.00">/Users/fola/Documents</text>
<text text-anchor="start" x="155" y="-178.12" font-family="Helvetica,sans-Serif" font-size="10.00">/ArkScript/Ark/src/arkreactor</text>
<text text-anchor="middle" x="232.25" y="-166.88" font-family="Helvetica,sans-Serif" font-size="10.00">/Compiler/Lowerer/ASTLowerer.cpp</text>
</a>
</g>
</g>
<!-- Node3&#45;&gt;Node16 -->
<g id="edge15_Node000003_Node000016" class="edge">
<title>Node3&#45;&gt;Node16</title>
<g id="a_edge15_Node000003_Node000016"><a xlink:title=" ">
<path fill="none" stroke="#63b8ff" d="M717.87,-258.79C625.98,-251.05 464,-234.95 327.25,-208.5 319.54,-207.01 311.53,-205.23 303.58,-203.31"/>
<polygon fill="#63b8ff" stroke="#63b8ff" points="717.51,-262.27 727.76,-259.61 718.09,-255.29 717.51,-262.27"/>
</a>
</g>
</g>
<!-- Node17 -->
<g id="Node000017" class="node">
<title>Node17</title>
<g id="a_Node000017"><a xlink:href="../../d6/d69/Processor_8cpp.html" target="_top" xlink:title=" ">
<polygon fill="white" stroke="#666666" points="494.5,-202.88 336,-202.88 336,-161.12 494.5,-161.12 494.5,-202.88"/>
<text text-anchor="start" x="344" y="-189.38" font-family="Helvetica,sans-Serif" font-size="10.00">/Users/fola/Documents</text>
<text text-anchor="start" x="344" y="-178.12" font-family="Helvetica,sans-Serif" font-size="10.00">/ArkScript/Ark/src/arkreactor</text>
<text text-anchor="middle" x="415.25" y="-166.88" font-family="Helvetica,sans-Serif" font-size="10.00">/Compiler/Macros/Processor.cpp</text>
</a>
</g>
</g>
<!-- Node3&#45;&gt;Node17 -->
<g id="edge16_Node000003_Node000017" class="edge">
<title>Node3&#45;&gt;Node17</title>
<g id="a_edge16_Node000003_Node000017"><a xlink:title=" ">
<path fill="none" stroke="#63b8ff" d="M718.04,-252.06C659.6,-241.77 575.78,-226.01 503.25,-208.5 496.6,-206.9 489.7,-205.11 482.83,-203.25"/>
<polygon fill="#63b8ff" stroke="#63b8ff" points="717.44,-255.51 727.89,-253.78 718.65,-248.61 717.44,-255.51"/>
</a>
</g>
</g>
<!-- Node18 -->
<g id="Node000018" class="node">
<title>Node18</title>
<g id="a_Node000018"><a xlink:href="../../de/dd7/NameResolutionPass_8cpp.html" target="_top" xlink:title=" ">
<polygon fill="white" stroke="#666666" points="722,-208.5 512.5,-208.5 512.5,-155.5 722,-155.5 722,-208.5"/>
<text text-anchor="start" x="520.5" y="-195" font-family="Helvetica,sans-Serif" font-size="10.00">/Users/fola/Documents</text>
<text text-anchor="start" x="520.5" y="-183.75" font-family="Helvetica,sans-Serif" font-size="10.00">/ArkScript/Ark/src/arkreactor</text>
<text text-anchor="start" x="520.5" y="-172.5" font-family="Helvetica,sans-Serif" font-size="10.00">/Compiler/NameResolution/NameResolution</text>
<text text-anchor="middle" x="617.25" y="-161.25" font-family="Helvetica,sans-Serif" font-size="10.00">Pass.cpp</text>
</a>
</g>
</g>
<!-- Node3&#45;&gt;Node18 -->
<g id="edge17_Node000003_Node000018" class="edge">
<title>Node3&#45;&gt;Node18</title>
<g id="a_edge17_Node000003_Node000018"><a xlink:title=" ">
<path fill="none" stroke="#63b8ff" d="M737.62,-239.29C717,-229.65 693.43,-218.63 672.65,-208.91"/>
<polygon fill="#63b8ff" stroke="#63b8ff" points="735.88,-242.34 746.42,-243.41 738.84,-236 735.88,-242.34"/>
</a>
</g>
</g>
<!-- Node19 -->
<g id="Node000019" class="node">
<title>Node19</title>
<g id="a_Node000019"><a xlink:href="../../d7/d48/arkscript_2REPL_2Utils_8cpp.html" target="_top" xlink:title=" ">
<polygon fill="white" stroke="#666666" points="912.5,-202.88 778,-202.88 778,-161.12 912.5,-161.12 912.5,-202.88"/>
<text text-anchor="start" x="786" y="-189.38" font-family="Helvetica,sans-Serif" font-size="10.00">/Users/fola/Documents</text>
<text text-anchor="start" x="786" y="-178.12" font-family="Helvetica,sans-Serif" font-size="10.00">/ArkScript/Ark/src/arkscript</text>
<text text-anchor="middle" x="845.25" y="-166.88" font-family="Helvetica,sans-Serif" font-size="10.00">/REPL/Utils.cpp</text>
</a>
</g>
</g>
<!-- Node3&#45;&gt;Node19 -->
<g id="edge19_Node000003_Node000019" class="edge">
<title>Node3&#45;&gt;Node19</title>
<g id="a_edge19_Node000003_Node000019"><a xlink:title=" ">
<path fill="none" stroke="#63b8ff" d="M810.77,-234.97C817.77,-224.41 825.5,-212.76 831.87,-203.17"/>
<polygon fill="#63b8ff" stroke="#63b8ff" points="808.05,-232.73 805.44,-243 813.88,-236.6 808.05,-232.73"/>
</a>
</g>
</g>
<!-- Node5 -->
<g id="Node000005" class="node">
<title>Node5</title>
<g id="a_Node000005"><a xlink:href="../../d3/d7e/Ark_8hpp.html" target="_top" xlink:title="Includes the needed files to start using ArkScript.">
<polygon fill="white" stroke="#666666" points="294.88,-119.5 177.62,-119.5 177.62,-77.75 294.88,-77.75 294.88,-119.5"/>
<text text-anchor="start" x="185.62" y="-106" font-family="Helvetica,sans-Serif" font-size="10.00">/Users/fola/Documents</text>
<text text-anchor="start" x="185.62" y="-94.75" font-family="Helvetica,sans-Serif" font-size="10.00">/ArkScript/Ark/include</text>
<text text-anchor="middle" x="236.25" y="-83.5" font-family="Helvetica,sans-Serif" font-size="10.00">/Ark/Ark.hpp</text>
</a>
</g>
</g>
<!-- Node4&#45;&gt;Node5 -->
<g id="edge4_Node000004_Node000005" class="edge">
<title>Node4&#45;&gt;Node5</title>
<g id="a_edge4_Node000004_Node000005"><a xlink:title=" ">
<path fill="none" stroke="#63b8ff" d="M1129.19,-157.39C1126.52,-156.68 1123.87,-156.05 1121.25,-155.5 798.51,-88.02 708.55,-150.07 380.25,-119.5 352.23,-116.89 321.3,-112.78 295.31,-108.98"/>
<polygon fill="#63b8ff" stroke="#63b8ff" points="1128.09,-160.71 1138.67,-160.2 1130.08,-154 1128.09,-160.71"/>
</a>
</g>
</g>
<!-- Node7 -->
<g id="Node000007" class="node">
<title>Node7</title>
<g id="a_Node000007"><a xlink:href="../../d5/d44/Module_8hpp.html" target="_top" xlink:title=" ">
<polygon fill="white" stroke="#666666" points="702.88,-119.5 585.62,-119.5 585.62,-77.75 702.88,-77.75 702.88,-119.5"/>
<text text-anchor="start" x="593.62" y="-106" font-family="Helvetica,sans-Serif" font-size="10.00">/Users/fola/Documents</text>
<text text-anchor="start" x="593.62" y="-94.75" font-family="Helvetica,sans-Serif" font-size="10.00">/ArkScript/Ark/include</text>
<text text-anchor="middle" x="644.25" y="-83.5" font-family="Helvetica,sans-Serif" font-size="10.00">/Ark/Module.hpp</text>
</a>
</g>
</g>
<!-- Node4&#45;&gt;Node7 -->
<g id="edge6_Node000004_Node000007" class="edge">
<title>Node4&#45;&gt;Node7</title>
<g id="a_edge6_Node000004_Node000007"><a xlink:title=" ">
<path fill="none" stroke="#63b8ff" d="M1128.12,-157.32C1125.81,-156.67 1123.52,-156.06 1121.25,-155.5 973.45,-119.31 793.96,-106.32 703.08,-101.85"/>
<polygon fill="#63b8ff" stroke="#63b8ff" points="1126.89,-160.61 1137.48,-160.22 1128.96,-153.92 1126.89,-160.61"/>
</a>
</g>
</g>
<!-- Node8 -->
<g id="Node000008" class="node">
<title>Node8</title>
<g id="a_Node000008"><a xlink:href="../../d5/da5/Repl_8hpp.html" target="_top" xlink:title="ArkScript REPL &#45; Read Eval Print Loop.">
<polygon fill="white" stroke="#666666" points="1579.88,-119.5 1462.62,-119.5 1462.62,-77.75 1579.88,-77.75 1579.88,-119.5"/>
<text text-anchor="start" x="1470.62" y="-106" font-family="Helvetica,sans-Serif" font-size="10.00">/Users/fola/Documents</text>
<text text-anchor="start" x="1470.62" y="-94.75" font-family="Helvetica,sans-Serif" font-size="10.00">/ArkScript/Ark/include</text>
<text text-anchor="middle" x="1521.25" y="-83.5" font-family="Helvetica,sans-Serif" font-size="10.00">/CLI/REPL/Repl.hpp</text>
</a>
</g>
</g>
<!-- Node4&#45;&gt;Node8 -->
<g id="edge7_Node000004_Node000008" class="edge">
<title>Node4&#45;&gt;Node8</title>
<g id="a_edge7_Node000004_Node000008"><a xlink:title=" ">
<path fill="none" stroke="#63b8ff" d="M1258.06,-164.17C1270.13,-161.27 1282.55,-158.29 1294.25,-155.5 1361.78,-139.38 1378.91,-136.39 1446.25,-119.5 1451.48,-118.19 1456.9,-116.8 1462.33,-115.4"/>
<polygon fill="#63b8ff" stroke="#63b8ff" points="1257.49,-160.71 1248.58,-166.45 1259.13,-167.51 1257.49,-160.71"/>
</a>
</g>
</g>
<!-- Node11 -->
<g id="Node000011" class="node">
<title>Node11</title>
<g id="a_Node000011"><a xlink:href="../../d4/dc9/Future_8cpp.html" target="_top" xlink:title=" ">
<polygon fill="white" stroke="#666666" points="1265.5,-119.5 1125,-119.5 1125,-77.75 1265.5,-77.75 1265.5,-119.5"/>
<text text-anchor="start" x="1133" y="-106" font-family="Helvetica,sans-Serif" font-size="10.00">/Users/fola/Documents</text>
<text text-anchor="start" x="1133" y="-94.75" font-family="Helvetica,sans-Serif" font-size="10.00">/ArkScript/Ark/src/arkreactor</text>
<text text-anchor="middle" x="1195.25" y="-83.5" font-family="Helvetica,sans-Serif" font-size="10.00">/VM/Future.cpp</text>
</a>
</g>
</g>
<!-- Node4&#45;&gt;Node11 -->
<g id="edge10_Node000004_Node000011" class="edge">
<title>Node4&#45;&gt;Node11</title>
<g id="a_edge10_Node000004_Node000011"><a xlink:title=" ">
<path fill="none" stroke="#63b8ff" d="M1190.95,-149.64C1191.81,-139.62 1192.74,-128.8 1193.52,-119.79"/>
<polygon fill="#63b8ff" stroke="#63b8ff" points="1187.48,-149.11 1190.11,-159.38 1194.45,-149.71 1187.48,-149.11"/>
</a>
</g>
</g>
<!-- Node12 -->
<g id="Node000012" class="node">
<title>Node12</title>
<g id="a_Node000012"><a xlink:href="../../d2/d27/VM_8cpp.html" target="_top" xlink:title=" ">
<polygon fill="white" stroke="#666666" points="529.5,-119.5 389,-119.5 389,-77.75 529.5,-77.75 529.5,-119.5"/>
<text text-anchor="start" x="397" y="-106" font-family="Helvetica,sans-Serif" font-size="10.00">/Users/fola/Documents</text>
<text text-anchor="start" x="397" y="-94.75" font-family="Helvetica,sans-Serif" font-size="10.00">/ArkScript/Ark/src/arkreactor</text>
<text text-anchor="middle" x="459.25" y="-83.5" font-family="Helvetica,sans-Serif" font-size="10.00">/VM/VM.cpp</text>
</a>
</g>
</g>
<!-- Node4&#45;&gt;Node12 -->
<g id="edge11_Node000004_Node000012" class="edge">
<title>Node4&#45;&gt;Node12</title>
<g id="a_edge11_Node000004_Node000012"><a xlink:title=" ">
<path fill="none" stroke="#63b8ff" d="M1129.18,-157.45C1126.52,-156.73 1123.87,-156.07 1121.25,-155.5 884.08,-103.75 817.34,-147.86 576.25,-119.5 561.21,-117.73 545.16,-115.34 529.92,-112.83"/>
<polygon fill="#63b8ff" stroke="#63b8ff" points="1128.06,-160.77 1138.65,-160.3 1130.08,-154.06 1128.06,-160.77"/>
</a>
</g>
</g>
<!-- Node13 -->
<g id="Node000013" class="node">
<title>Node13</title>
<g id="a_Node000013"><a xlink:href="../../d1/db2/Closure_8cpp.html" target="_top" xlink:title=" ">
<polygon fill="white" stroke="#666666" points="1437.5,-119.5 1297,-119.5 1297,-77.75 1437.5,-77.75 1437.5,-119.5"/>
<text text-anchor="start" x="1305" y="-106" font-family="Helvetica,sans-Serif" font-size="10.00">/Users/fola/Documents</text>
<text text-anchor="start" x="1305" y="-94.75" font-family="Helvetica,sans-Serif" font-size="10.00">/ArkScript/Ark/src/arkreactor</text>
<text text-anchor="middle" x="1367.25" y="-83.5" font-family="Helvetica,sans-Serif" font-size="10.00">/VM/Value/Closure.cpp</text>
</a>
</g>
</g>
<!-- Node4&#45;&gt;Node13 -->
<g id="edge12_Node000004_Node000013" class="edge">
<title>Node4&#45;&gt;Node13</title>
<g id="a_edge12_Node000004_Node000013"><a xlink:title=" ">
<path fill="none" stroke="#63b8ff" d="M1243.19,-156.02C1268.63,-144.46 1298.46,-130.9 1322.49,-119.97"/>
<polygon fill="#63b8ff" stroke="#63b8ff" points="1241.99,-152.72 1234.34,-160.05 1244.89,-159.1 1241.99,-152.72"/>
</a>
</g>
</g>
<!-- Node6 -->
<g id="Node000006" class="node">
<title>Node6</title>
<g id="a_Node000006"><a xlink:href="../../dc/d32/Ark_8cpp.html" target="_top" xlink:title=" ">
<polygon fill="white" stroke="#666666" points="306.5,-41.75 166,-41.75 166,0 306.5,0 306.5,-41.75"/>
<text text-anchor="start" x="174" y="-28.25" font-family="Helvetica,sans-Serif" font-size="10.00">/Users/fola/Documents</text>
<text text-anchor="start" x="174" y="-17" font-family="Helvetica,sans-Serif" font-size="10.00">/ArkScript/Ark/src/arkreactor</text>
<text text-anchor="middle" x="236.25" y="-5.75" font-family="Helvetica,sans-Serif" font-size="10.00">/Ark.cpp</text>
</a>
</g>
</g>
<!-- Node5&#45;&gt;Node6 -->
<g id="edge5_Node000005_Node000006" class="edge">
<title>Node5&#45;&gt;Node6</title>
<g id="a_edge5_Node000005_Node000006"><a xlink:title=" ">
<path fill="none" stroke="#63b8ff" d="M236.25,-66C236.25,-57.96 236.25,-49.54 236.25,-42.23"/>
<polygon fill="#63b8ff" stroke="#63b8ff" points="232.75,-65.81 236.25,-75.81 239.75,-65.81 232.75,-65.81"/>
</a>
</g>
</g>
<!-- Node8&#45;&gt;Node9 -->
<g id="edge8_Node000008_Node000009" class="edge">
<title>Node8&#45;&gt;Node9</title>
<g id="a_edge8_Node000008_Node000009"><a xlink:title=" ">
<path fill="none" stroke="#63b8ff" d="M1451.24,-78.85C1449.56,-78.47 1447.9,-78.1 1446.25,-77.75 1354.31,-57.95 1246.89,-41.13 1178.98,-31.27"/>
<polygon fill="#63b8ff" stroke="#63b8ff" points="1450.41,-82.25 1460.95,-81.13 1452.01,-75.44 1450.41,-82.25"/>
</a>
</g>
</g>
<!-- Node10 -->
<g id="Node000010" class="node">
<title>Node10</title>
<g id="a_Node000010"><a xlink:href="../../df/d0a/main_8cpp.html" target="_top" xlink:title=" ">
<polygon fill="white" stroke="#666666" points="1692.5,-41.75 1558,-41.75 1558,0 1692.5,0 1692.5,-41.75"/>
<text text-anchor="start" x="1566" y="-28.25" font-family="Helvetica,sans-Serif" font-size="10.00">/Users/fola/Documents</text>
<text text-anchor="start" x="1566" y="-17" font-family="Helvetica,sans-Serif" font-size="10.00">/ArkScript/Ark/src/arkscript</text>
<text text-anchor="middle" x="1625.25" y="-5.75" font-family="Helvetica,sans-Serif" font-size="10.00">/main.cpp</text>
</a>
</g>
</g>
<!-- Node8&#45;&gt;Node10 -->
<g id="edge9_Node000008_Node000010" class="edge">
<title>Node8&#45;&gt;Node10</title>
<g id="a_edge9_Node000008_Node000010"><a xlink:title=" ">
<path fill="none" stroke="#63b8ff" d="M1558.2,-70.71C1571.07,-61.34 1585.29,-50.98 1597.3,-42.23"/>
<polygon fill="#63b8ff" stroke="#63b8ff" points="1556.37,-67.72 1550.34,-76.43 1560.49,-73.38 1556.37,-67.72"/>
</a>
</g>
</g>
<!-- Node20&#45;&gt;Node10 -->
<g id="edge23_Node000020_Node000010" class="edge">
<title>Node20&#45;&gt;Node10</title>
<g id="a_edge23_Node000020_Node000010"><a xlink:title=" ">
<path fill="none" stroke="#63b8ff" d="M1728.6,-232.95C1725.32,-210.72 1719.39,-180.55 1709.25,-155.5 1691.67,-112.07 1660.09,-67.04 1641.07,-41.92"/>
<polygon fill="#63b8ff" stroke="#63b8ff" points="1725.1,-233.15 1729.93,-242.58 1732.04,-232.2 1725.1,-233.15"/>
</a>
</g>
</g>
<!-- Node20&#45;&gt;Node14 -->
<g id="edge21_Node000020_Node000014" class="edge">
<title>Node20&#45;&gt;Node14</title>
<g id="a_edge21_Node000020_Node000014"><a xlink:title=" ">
<path fill="none" stroke="#63b8ff" d="M1636.08,-242.21C1579.26,-229.11 1508.32,-212.75 1455.4,-200.55"/>
<polygon fill="#63b8ff" stroke="#63b8ff" points="1635.24,-245.6 1645.77,-244.44 1636.82,-238.78 1635.24,-245.6"/>
</a>
</g>
</g>
<!-- Node21 -->
<g id="Node000021" class="node">
<title>Node21</title>
<g id="a_Node000021"><a xlink:href="../../d0/da0/State_8cpp.html" target="_top" xlink:title=" ">
<polygon fill="white" stroke="#666666" points="1700.5,-202.88 1560,-202.88 1560,-161.12 1700.5,-161.12 1700.5,-202.88"/>
<text text-anchor="start" x="1568" y="-189.38" font-family="Helvetica,sans-Serif" font-size="10.00">/Users/fola/Documents</text>
<text text-anchor="start" x="1568" y="-178.12" font-family="Helvetica,sans-Serif" font-size="10.00">/ArkScript/Ark/src/arkreactor</text>
<text text-anchor="middle" x="1630.25" y="-166.88" font-family="Helvetica,sans-Serif" font-size="10.00">/VM/State.cpp</text>
</a>
</g>
</g>
<!-- Node20&#45;&gt;Node21 -->
<g id="edge22_Node000020_Node000021" class="edge">
<title>Node20&#45;&gt;Node21</title>
<g id="a_edge22_Node000020_Node000021"><a xlink:title=" ">
<path fill="none" stroke="#63b8ff" d="M1698.01,-237.06C1684.2,-226.04 1668.54,-213.55 1655.75,-203.35"/>
<polygon fill="#63b8ff" stroke="#63b8ff" points="1695.59,-239.61 1705.59,-243.11 1699.96,-234.13 1695.59,-239.61"/>
</a>
</g>
</g>
<!-- Node22&#45;&gt;Node5 -->
<g id="edge25_Node000022_Node000005" class="edge">
<title>Node22&#45;&gt;Node5</title>
<g id="a_edge25_Node000022_Node000005"><a xlink:title=" ">
<path fill="none" stroke="#63b8ff" d="M121.83,-155.71C145.28,-144.22 172.65,-130.8 194.74,-119.97"/>
<polygon fill="#63b8ff" stroke="#63b8ff" points="120.51,-152.46 113.07,-160.01 123.59,-158.75 120.51,-152.46"/>
</a>
</g>
</g>
<!-- Node22&#45;&gt;Node7 -->
<g id="edge26_Node000022_Node000007" class="edge">
<title>Node22&#45;&gt;Node7</title>
<g id="a_edge26_Node000022_Node000007"><a xlink:title=" ">
<path fill="none" stroke="#63b8ff" d="M130.84,-157.36C133.33,-156.68 135.8,-156.06 138.25,-155.5 312.28,-115.8 361.44,-143.98 538.25,-119.5 553.55,-117.38 570,-114.56 585.26,-111.72"/>
<polygon fill="#63b8ff" stroke="#63b8ff" points="129.94,-153.98 121.36,-160.2 131.95,-160.68 129.94,-153.98"/>
</a>
</g>
</g>
<!-- Node22&#45;&gt;Node12 -->
<g id="edge28_Node000022_Node000012" class="edge">
<title>Node22&#45;&gt;Node12</title>
<g id="a_edge28_Node000022_Node000012"><a xlink:title=" ">
<path fill="none" stroke="#63b8ff" d="M131.89,-157.32C134.03,-156.68 136.15,-156.07 138.25,-155.5 222.99,-132.45 323.01,-116.81 388.61,-108.07"/>
<polygon fill="#63b8ff" stroke="#63b8ff" points="131.06,-153.91 122.6,-160.29 133.19,-160.58 131.06,-153.91"/>
</a>
</g>
</g>
<!-- Node23 -->
<g id="Node000023" class="node">
<title>Node23</title>
<g id="a_Node000023"><a xlink:href="../../d6/d9a/TypeChecker_8cpp.html" target="_top" xlink:title=" ">
<polygon fill="white" stroke="#666666" points="140.5,-119.5 0,-119.5 0,-77.75 140.5,-77.75 140.5,-119.5"/>
<text text-anchor="start" x="8" y="-106" font-family="Helvetica,sans-Serif" font-size="10.00">/Users/fola/Documents</text>
<text text-anchor="start" x="8" y="-94.75" font-family="Helvetica,sans-Serif" font-size="10.00">/ArkScript/Ark/src/arkreactor</text>
<text text-anchor="middle" x="70.25" y="-83.5" font-family="Helvetica,sans-Serif" font-size="10.00">/TypeChecker.cpp</text>
</a>
</g>
</g>
<!-- Node22&#45;&gt;Node23 -->
<g id="edge27_Node000022_Node000023" class="edge">
<title>Node22&#45;&gt;Node23</title>
<g id="a_edge27_Node000022_Node000023"><a xlink:title=" ">
<path fill="none" stroke="#63b8ff" d="M70.25,-149.64C70.25,-139.62 70.25,-128.8 70.25,-119.79"/>
<polygon fill="#63b8ff" stroke="#63b8ff" points="66.75,-149.37 70.25,-159.37 73.75,-149.37 66.75,-149.37"/>
</a>
</g>
</g>
<!-- Node24&#45;&gt;Node4 -->
<g id="edge33_Node000024_Node000004" class="edge">
<title>Node24&#45;&gt;Node4</title>
<g id="a_edge33_Node000024_Node000004"><a xlink:title=" ">
<path fill="none" stroke="#63b8ff" d="M1182.64,-310.63C1184.04,-278.74 1186.17,-230.35 1187.36,-203.24"/>
<polygon fill="#63b8ff" stroke="#63b8ff" points="1179.15,-310.32 1182.2,-320.46 1186.14,-310.62 1179.15,-310.32"/>
</a>
</g>
</g>
<!-- Node24&#45;&gt;Node25 -->
<g id="edge30_Node000024_Node000025" class="edge">
<title>Node24&#45;&gt;Node25</title>
<g id="a_edge30_Node000024_Node000025"><a xlink:title=" ">
<path fill="none" stroke="#63b8ff" d="M1214.97,-314.66C1226.29,-305.44 1238.72,-295.31 1249.26,-286.73"/>
<polygon fill="#63b8ff" stroke="#63b8ff" points="1212.89,-311.84 1207.35,-320.87 1217.31,-317.27 1212.89,-311.84"/>
</a>
</g>
</g>
<!-- Node25&#45;&gt;Node4 -->
<g id="edge31_Node000025_Node000004" class="edge">
<title>Node25&#45;&gt;Node4</title>
<g id="a_edge31_Node000025_Node000004"><a xlink:title=" ">
<path fill="none" stroke="#63b8ff" d="M1244.87,-236.57C1233.28,-225.61 1220.22,-213.25 1209.56,-203.17"/>
<polygon fill="#63b8ff" stroke="#63b8ff" points="1242.22,-238.89 1251.89,-243.22 1247.03,-233.8 1242.22,-238.89"/>
</a>
</g>
</g>
<!-- Node25&#45;&gt;Node11 -->
<g id="edge32_Node000025_Node000011" class="edge">
<title>Node25&#45;&gt;Node11</title>
<g id="a_edge32_Node000025_Node000011"><a xlink:title=" ">
<path fill="none" stroke="#63b8ff" d="M1274.42,-232.85C1273.3,-210.11 1269.17,-179.35 1256.25,-155.5 1248.72,-141.61 1236.4,-129.34 1224.8,-119.86"/>
<polygon fill="#63b8ff" stroke="#63b8ff" points="1270.92,-232.84 1274.72,-242.73 1277.92,-232.63 1270.92,-232.84"/>
</a>
</g>
</g>
<!-- Node26&#45;&gt;Node4 -->
<g id="edge37_Node000026_Node000004" class="edge">
<title>Node26&#45;&gt;Node4</title>
<g id="a_edge37_Node000026_Node000004"><a xlink:title=" ">
<path fill="none" stroke="#63b8ff" d="M1067.88,-409.24C1016.59,-400.05 954.18,-384.94 938.25,-364 927.01,-349.23 928.85,-338.25 938.25,-322.25 960.65,-284.13 1072.77,-231.7 1139.01,-203.29"/>
<polygon fill="#63b8ff" stroke="#63b8ff" points="1067.02,-412.65 1077.47,-410.91 1068.22,-405.75 1067.02,-412.65"/>
</a>
</g>
</g>
<!-- Node26&#45;&gt;Node24 -->
<g id="edge36_Node000026_Node000024" class="edge">
<title>Node26&#45;&gt;Node24</title>
<g id="a_edge36_Node000026_Node000024"><a xlink:title=" ">
<path fill="none" stroke="#63b8ff" d="M1156.61,-389.65C1161.19,-381.2 1166.05,-372.21 1170.23,-364.48"/>
<polygon fill="#63b8ff" stroke="#63b8ff" points="1153.64,-387.78 1151.96,-398.24 1159.8,-391.12 1153.64,-387.78"/>
</a>
</g>
</g>
<!-- Node27 -->
<g id="Node000027" class="node">
<title>Node27</title>
<g id="a_Node000027"><a xlink:href="../../d9/ddb/ScopeView_8cpp.html" target="_top" xlink:title=" ">
<polygon fill="white" stroke="#666666" points="1087.5,-364 947,-364 947,-322.25 1087.5,-322.25 1087.5,-364"/>
<text text-anchor="start" x="955" y="-350.5" font-family="Helvetica,sans-Serif" font-size="10.00">/Users/fola/Documents</text>
<text text-anchor="start" x="955" y="-339.25" font-family="Helvetica,sans-Serif" font-size="10.00">/ArkScript/Ark/src/arkreactor</text>
<text text-anchor="middle" x="1017.25" y="-328" font-family="Helvetica,sans-Serif" font-size="10.00">/VM/ScopeView.cpp</text>
</a>
</g>
</g>
<!-- Node26&#45;&gt;Node27 -->
<g id="edge38_Node000026_Node000027" class="edge">
<title>Node26&#45;&gt;Node27</title>
<g id="a_edge38_Node000026_Node000027"><a xlink:title=" ">
<path fill="none" stroke="#63b8ff" d="M1097.87,-393.78C1082.31,-384.19 1064.93,-373.49 1050.3,-364.48"/>
<polygon fill="#63b8ff" stroke="#63b8ff" points="1095.65,-396.52 1106,-398.78 1099.32,-390.56 1095.65,-396.52"/>
</a>
</g>
</g>
<!-- Node28 -->
<g id="Node000028" class="node">
<title>Node28</title>
<g id="a_Node000028"><a xlink:href="../../d6/d49/ClosureScope_8cpp.html" target="_top" xlink:title=" ">
<polygon fill="white" stroke="#666666" points="1419.38,-364 1275.12,-364 1275.12,-322.25 1419.38,-322.25 1419.38,-364"/>
<text text-anchor="start" x="1283.12" y="-350.5" font-family="Helvetica,sans-Serif" font-size="10.00">/Users/fola/Documents</text>
<text text-anchor="start" x="1283.12" y="-339.25" font-family="Helvetica,sans-Serif" font-size="10.00">/ArkScript/Ark/src/arkreactor</text>
<text text-anchor="middle" x="1347.25" y="-328" font-family="Helvetica,sans-Serif" font-size="10.00">/VM/Value/ClosureScope.cpp</text>
</a>
</g>
</g>
<!-- Node26&#45;&gt;Node28 -->
<g id="edge39_Node000026_Node000028" class="edge">
<title>Node26&#45;&gt;Node28</title>
<g id="a_edge39_Node000026_Node000028"><a xlink:title=" ">
<path fill="none" stroke="#63b8ff" d="M1206.42,-395.66C1233.88,-385.61 1265.38,-374.08 1291.62,-364.48"/>
<polygon fill="#63b8ff" stroke="#63b8ff" points="1205.33,-392.33 1197.14,-399.06 1207.74,-398.91 1205.33,-392.33"/>
</a>
</g>
</g>
<!-- Node29&#45;&gt;Node4 -->
<g id="edge41_Node000029_Node000004" class="edge">
<title>Node29&#45;&gt;Node4</title>
<g id="a_edge41_Node000029_Node000004"><a xlink:title=" ">
<path fill="none" stroke="#63b8ff" d="M1499.97,-250.88C1444.11,-239.97 1364.03,-223.95 1294.25,-208.5 1279,-205.12 1262.58,-201.28 1247.31,-197.61"/>
<polygon fill="#63b8ff" stroke="#63b8ff" points="1499.19,-254.29 1509.68,-252.77 1500.53,-247.42 1499.19,-254.29"/>
</a>
</g>
</g>
<!-- Node29&#45;&gt;Node8 -->
<g id="edge42_Node000029_Node000008" class="edge">
<title>Node29&#45;&gt;Node8</title>
<g id="a_edge42_Node000029_Node000008"><a xlink:title=" ">
<path fill="none" stroke="#63b8ff" d="M1559.3,-233.23C1556.57,-225.2 1553.73,-216.55 1551.25,-208.5 1541.8,-177.77 1532.15,-141.73 1526.43,-119.79"/>
<polygon fill="#63b8ff" stroke="#63b8ff" points="1555.96,-234.28 1562.52,-242.6 1562.58,-232.01 1555.96,-234.28"/>
</a>
</g>
</g>
<!-- Node29&#45;&gt;Node21 -->
<g id="edge43_Node000029_Node000021" class="edge">
<title>Node29&#45;&gt;Node21</title>
<g id="a_edge43_Node000029_Node000021"><a xlink:title=" ">
<path fill="none" stroke="#63b8ff" d="M1591.7,-235.29C1599.54,-224.65 1608.24,-212.86 1615.38,-203.17"/>
<polygon fill="#63b8ff" stroke="#63b8ff" points="1589.1,-232.92 1585.98,-243.04 1594.73,-237.07 1589.1,-232.92"/>
</a>
</g>
</g>
<!-- Node30&#45;&gt;Node13 -->
<g id="edge47_Node000030_Node000013" class="edge">
<title>Node30&#45;&gt;Node13</title>
<g id="a_edge47_Node000030_Node000013"><a xlink:title=" ">
<path fill="none" stroke="#63b8ff" d="M1395.38,-393.83C1407.78,-385.83 1419.72,-375.92 1428.25,-364 1469.55,-306.32 1456.2,-278.98 1464.25,-208.5 1466.92,-185.1 1476.04,-175.89 1464.25,-155.5 1455.3,-140.02 1440.26,-128.45 1424.66,-119.98"/>
<polygon fill="#63b8ff" stroke="#63b8ff" points="1393.9,-390.63 1387.15,-398.79 1397.52,-396.62 1393.9,-390.63"/>
</a>
</g>
</g>
<!-- Node30&#45;&gt;Node24 -->
<g id="edge46_Node000030_Node000024" class="edge">
<title>Node30&#45;&gt;Node24</title>
<g id="a_edge46_Node000030_Node000024"><a xlink:title=" ">
<path fill="none" stroke="#63b8ff" d="M1285.84,-394.59C1265.55,-384.8 1242.64,-373.74 1223.44,-364.48"/>
<polygon fill="#63b8ff" stroke="#63b8ff" points="1284.29,-397.72 1294.81,-398.92 1287.33,-391.42 1284.29,-397.72"/>
</a>
</g>
</g>
<!-- Node30&#45;&gt;Node28 -->
<g id="edge48_Node000030_Node000028" class="edge">
<title>Node30&#45;&gt;Node28</title>
<g id="a_edge48_Node000030_Node000028"><a xlink:title=" ">
<path fill="none" stroke="#63b8ff" d="M1342.01,-388.25C1342.96,-380.21 1343.96,-371.79 1344.83,-364.48"/>
<polygon fill="#63b8ff" stroke="#63b8ff" points="1338.54,-387.73 1340.84,-398.07 1345.5,-388.56 1338.54,-387.73"/>
</a>
</g>
</g>
</g>
</svg>

<g id="navigator" transform="translate(0 0)" fill="#404254">
  <rect fill="#f2f5e9" fill-opacity="0.5" stroke="#606060" stroke-width=".5" x="0" y="0" width="60" height="60"/>
  <use id="zoomplus" xlink:href="#zoomPlus" x="17" y="9" onmousedown="handleZoom(evt,'in')"/>
  <use id="zoomminus" xlink:href="#zoomMin" x="42" y="9" onmousedown="handleZoom(evt,'out')"/>
  <use id="reset" xlink:href="#resetDef" x="30" y="36" onmousedown="handleReset()"/>
   <use id="arrowup" xlink:href="#arrowUp" x="0" y="0" onmousedown="handlePan(0,-1)"/>
  <use id="arrowright" xlink:href="#arrowRight" x="0" y="0" onmousedown="handlePan(1,0)"/>
  <use id="arrowdown" xlink:href="#arrowDown" x="0" y="0" onmousedown="handlePan(0,1)"/>
  <use id="arrowleft" xlink:href="#arrowLeft" x="0" y="0" onmousedown="handlePan(-1,0)"/>
</g>
<svg viewBox="0 0 15 15" width="100%" height="30px" preserveAspectRatio="xMaxYMin meet">
 <g id="arrow_out" transform="scale(0.3 0.3)">
  <a xlink:href="UserType_8hpp__dep__incl_org.svg" target="_base">
   <rect id="button" ry="5" rx="5" y="6" x="6" height="38" width="38"
        fill="#f2f5e9" fill-opacity="0.5" stroke="#606060" stroke-width="1.0"/>
   <path id="arrow"
     d="M 11.500037,31.436501 C 11.940474,20.09759 22.043105,11.32322 32.158766,21.979434 L 37.068811,17.246167 C 37.068811,17.246167 37.088388,32 37.088388,32 L 22.160133,31.978069 C 22.160133,31.978069 26.997745,27.140456 26.997745,27.140456 C 18.528582,18.264221 13.291696,25.230495 11.500037,31.436501 z"
     style="fill:#404040;"/>
  </a>
 </g>
</svg>

<style type='text/css'>
<![CDATA[
[data-mouse-over-selected='false'] { opacity: 0.7; }
[data-mouse-over-selected='true']  { opacity: 1.0; }
]]>
</style>
<script type="application/ecmascript"><![CDATA[
document.addEventListener('DOMContentLoaded', (event) => {
  highlightEdges();
  highlightAdjacentNodes();
});
]]></script>
</svg>
