<?xml version="1.0" encoding="UTF-8" standalone="no"?>
<!DOCTYPE svg PUBLIC "-//W3C//DTD SVG 1.1//EN"
 "http://www.w3.org/Graphics/SVG/1.1/DTD/svg11.dtd">
<!-- Generated by graphviz version 2.49.0 (20210828.1703)
 -->
<!-- Title: C:/Users/folae/Documents/Code/Big&#45;Projects/ArkScript/Ark/include/Ark/Constants.hpp Pages: 1 -->
<svg width="1878pt" height="551pt"
 viewBox="0.00 0.00 1877.90 551.00" xmlns="http://www.w3.org/2000/svg" xmlns:xlink="http://www.w3.org/1999/xlink">
<g id="graph0" class="graph" transform="scale(1 1) rotate(0) translate(4 547)">
<title>C:/Users/folae/Documents/Code/Big&#45;Projects/ArkScript/Ark/include/Ark/Constants.hpp</title>
<polygon fill="white" stroke="transparent" points="-4,4 -4,-547 1873.9,-547 1873.9,4 -4,4"/>
<!-- Node1 -->
<g id="node1" class="node">
<title>Node1</title>
<g id="a_node1"><a xlink:title="Constants used by ArkScript.">
<polygon fill="#bfbfbf" stroke="black" points="679.5,-501.5 679.5,-542.5 831.5,-542.5 831.5,-501.5 679.5,-501.5"/>
<text text-anchor="start" x="687.5" y="-530.5" font-family="Helvetica,sans-Serif" font-size="10.00">C:/Users/folae/Documents</text>
<text text-anchor="start" x="687.5" y="-519.5" font-family="Helvetica,sans-Serif" font-size="10.00">/Code/Big&#45;Projects/ArkScript</text>
<text text-anchor="middle" x="755.5" y="-508.5" font-family="Helvetica,sans-Serif" font-size="10.00">/Ark/include/Ark/Constants.hpp</text>
</a>
</g>
</g>
<!-- Node2 -->
<g id="node2" class="node">
<title>Node2</title>
<g id="a_node2"><a xlink:href="../../d3/d7e/Ark_8hpp.html" target="_top" xlink:title="Includes the needed files to start using ArkScript.">
<polygon fill="white" stroke="black" points="346.5,-78.5 346.5,-119.5 488.5,-119.5 488.5,-78.5 346.5,-78.5"/>
<text text-anchor="start" x="354.5" y="-107.5" font-family="Helvetica,sans-Serif" font-size="10.00">C:/Users/folae/Documents</text>
<text text-anchor="start" x="354.5" y="-96.5" font-family="Helvetica,sans-Serif" font-size="10.00">/Code/Big&#45;Projects/ArkScript</text>
<text text-anchor="middle" x="417.5" y="-85.5" font-family="Helvetica,sans-Serif" font-size="10.00">/Ark/include/Ark/Ark.hpp</text>
</a>
</g>
</g>
<!-- Node1&#45;&gt;Node2 -->
<g id="edge1" class="edge">
<title>Node1&#45;&gt;Node2</title>
<path fill="none" stroke="midnightblue" d="M841.94,-516.25C1095.65,-501.15 1820.5,-449.37 1820.5,-350.5 1820.5,-350.5 1820.5,-350.5 1820.5,-259.5 1820.5,-192.48 2048.2,-246.91 1523.5,-156 1323.41,-121.33 700.42,-105.75 488.73,-101.36"/>
<polygon fill="midnightblue" stroke="midnightblue" points="841.44,-512.77 831.66,-516.85 841.85,-519.76 841.44,-512.77"/>
</g>
<!-- Node5 -->
<g id="node5" class="node">
<title>Node5</title>
<g id="a_node5"><a xlink:href="../../db/d93/Optimizer_8hpp.html" target="_top" xlink:title="Optimizes a given ArkScript AST.">
<polygon fill="white" stroke="black" points="314,-412.5 314,-464.5 463,-464.5 463,-412.5 314,-412.5"/>
<text text-anchor="start" x="322" y="-452.5" font-family="Helvetica,sans-Serif" font-size="10.00">C:/Users/folae/Documents</text>
<text text-anchor="start" x="322" y="-441.5" font-family="Helvetica,sans-Serif" font-size="10.00">/Code/Big&#45;Projects/ArkScript</text>
<text text-anchor="start" x="322" y="-430.5" font-family="Helvetica,sans-Serif" font-size="10.00">/Ark/include/Ark/Compiler/AST</text>
<text text-anchor="middle" x="388.5" y="-419.5" font-family="Helvetica,sans-Serif" font-size="10.00">/Optimizer.hpp</text>
</a>
</g>
</g>
<!-- Node1&#45;&gt;Node5 -->
<g id="edge4" class="edge">
<title>Node1&#45;&gt;Node5</title>
<path fill="none" stroke="midnightblue" d="M669.37,-505.06C614.99,-494.6 543.39,-480.1 480.5,-465 474.86,-463.65 469.04,-462.19 463.2,-460.67"/>
<polygon fill="midnightblue" stroke="midnightblue" points="668.84,-508.52 679.32,-506.96 670.15,-501.64 668.84,-508.52"/>
</g>
<!-- Node7 -->
<g id="node7" class="node">
<title>Node7</title>
<g id="a_node7"><a xlink:href="../../d5/da5/Repl_8hpp.html" target="_top" xlink:title="ArkScript REPL &#45; Read Eval Print Loop.">
<polygon fill="white" stroke="black" points="2.5,-78.5 2.5,-119.5 158.5,-119.5 158.5,-78.5 2.5,-78.5"/>
<text text-anchor="start" x="10.5" y="-107.5" font-family="Helvetica,sans-Serif" font-size="10.00">C:/Users/folae/Documents</text>
<text text-anchor="start" x="10.5" y="-96.5" font-family="Helvetica,sans-Serif" font-size="10.00">/Code/Big&#45;Projects/ArkScript</text>
<text text-anchor="middle" x="80.5" y="-85.5" font-family="Helvetica,sans-Serif" font-size="10.00">/Ark/include/Ark/REPL/Repl.hpp</text>
</a>
</g>
</g>
<!-- Node1&#45;&gt;Node7 -->
<g id="edge22" class="edge">
<title>Node1&#45;&gt;Node7</title>
<path fill="none" stroke="midnightblue" d="M669.34,-519.07C495.18,-514.44 113.75,-500.36 66.5,-465 22.85,-432.33 22.5,-405.02 22.5,-350.5 22.5,-350.5 22.5,-350.5 22.5,-259.5 22.5,-206.46 51.17,-149.15 68.2,-119.8"/>
<polygon fill="midnightblue" stroke="midnightblue" points="669.41,-522.57 679.5,-519.34 669.59,-515.58 669.41,-522.57"/>
</g>
<!-- Node12 -->
<g id="node12" class="node">
<title>Node12</title>
<g id="a_node12"><a xlink:href="../../d0/da0/State_8cpp.html" target="_top" xlink:title=" ">
<polygon fill="white" stroke="black" points="1306,-156.5 1306,-197.5 1467,-197.5 1467,-156.5 1306,-156.5"/>
<text text-anchor="start" x="1314" y="-185.5" font-family="Helvetica,sans-Serif" font-size="10.00">C:/Users/folae/Documents</text>
<text text-anchor="start" x="1314" y="-174.5" font-family="Helvetica,sans-Serif" font-size="10.00">/Code/Big&#45;Projects/ArkScript</text>
<text text-anchor="middle" x="1386.5" y="-163.5" font-family="Helvetica,sans-Serif" font-size="10.00">/Ark/src/arkreactor/VM/State.cpp</text>
</a>
</g>
</g>
<!-- Node1&#45;&gt;Node12 -->
<g id="edge38" class="edge">
<title>Node1&#45;&gt;Node12</title>
<path fill="none" stroke="midnightblue" d="M841.76,-514.51C1064.55,-495.77 1649.69,-433.28 1763.5,-287 1777.97,-268.41 1778.88,-251.84 1763.5,-234 1726.01,-190.53 1566.17,-180.26 1467.04,-178.16"/>
<polygon fill="midnightblue" stroke="midnightblue" points="841.43,-511.03 831.75,-515.34 842.01,-518 841.43,-511.03"/>
</g>
<!-- Node15 -->
<g id="node15" class="node">
<title>Node15</title>
<g id="a_node15"><a xlink:href="../../d7/ddd/Parser_8hpp.html" target="_top" xlink:title="Parses a token stream into an AST by using the Ark::Node.">
<polygon fill="white" stroke="black" points="489,-412.5 489,-464.5 638,-464.5 638,-412.5 489,-412.5"/>
<text text-anchor="start" x="497" y="-452.5" font-family="Helvetica,sans-Serif" font-size="10.00">C:/Users/folae/Documents</text>
<text text-anchor="start" x="497" y="-441.5" font-family="Helvetica,sans-Serif" font-size="10.00">/Code/Big&#45;Projects/ArkScript</text>
<text text-anchor="start" x="497" y="-430.5" font-family="Helvetica,sans-Serif" font-size="10.00">/Ark/include/Ark/Compiler/AST</text>
<text text-anchor="middle" x="563.5" y="-419.5" font-family="Helvetica,sans-Serif" font-size="10.00">/Parser.hpp</text>
</a>
</g>
</g>
<!-- Node1&#45;&gt;Node15 -->
<g id="edge19" class="edge">
<title>Node1&#45;&gt;Node15</title>
<path fill="none" stroke="midnightblue" d="M700.08,-497.48C675.8,-487.17 647.26,-475.06 622.58,-464.58"/>
<polygon fill="midnightblue" stroke="midnightblue" points="698.94,-500.79 709.51,-501.48 701.67,-494.35 698.94,-500.79"/>
</g>
<!-- Node17 -->
<g id="node17" class="node">
<title>Node17</title>
<g id="a_node17"><a xlink:href="../../d7/d09/Utils_8hpp.html" target="_top" xlink:title="Lots of utilities about string, filesystem and more.">
<polygon fill="white" stroke="black" points="961.5,-329 961.5,-370 1103.5,-370 1103.5,-329 961.5,-329"/>
<text text-anchor="start" x="969.5" y="-358" font-family="Helvetica,sans-Serif" font-size="10.00">C:/Users/folae/Documents</text>
<text text-anchor="start" x="969.5" y="-347" font-family="Helvetica,sans-Serif" font-size="10.00">/Code/Big&#45;Projects/ArkScript</text>
<text text-anchor="middle" x="1032.5" y="-336" font-family="Helvetica,sans-Serif" font-size="10.00">/Ark/include/Ark/Utils.hpp</text>
</a>
</g>
</g>
<!-- Node1&#45;&gt;Node17 -->
<g id="edge23" class="edge">
<title>Node1&#45;&gt;Node17</title>
<path fill="none" stroke="midnightblue" d="M795.79,-496.2C851.27,-462.05 950.05,-401.25 1000.67,-370.09"/>
<polygon fill="midnightblue" stroke="midnightblue" points="793.96,-493.22 787.28,-501.44 797.63,-499.18 793.96,-493.22"/>
</g>
<!-- Node19 -->
<g id="node19" class="node">
<title>Node19</title>
<g id="a_node19"><a xlink:href="../../d9/db7/makeErrorCtx_8cpp.html" target="_top" xlink:title=" ">
<polygon fill="white" stroke="black" points="1612.5,-234.5 1612.5,-286.5 1754.5,-286.5 1754.5,-234.5 1612.5,-234.5"/>
<text text-anchor="start" x="1620.5" y="-274.5" font-family="Helvetica,sans-Serif" font-size="10.00">C:/Users/folae/Documents</text>
<text text-anchor="start" x="1620.5" y="-263.5" font-family="Helvetica,sans-Serif" font-size="10.00">/Code/Big&#45;Projects/ArkScript</text>
<text text-anchor="start" x="1620.5" y="-252.5" font-family="Helvetica,sans-Serif" font-size="10.00">/Ark/src/arkreactor/Compiler</text>
<text text-anchor="middle" x="1683.5" y="-241.5" font-family="Helvetica,sans-Serif" font-size="10.00">/AST/makeErrorCtx.cpp</text>
</a>
</g>
</g>
<!-- Node1&#45;&gt;Node19 -->
<g id="edge37" class="edge">
<title>Node1&#45;&gt;Node19</title>
<path fill="none" stroke="midnightblue" d="M835.09,-498.74C1013.33,-448.9 1442.24,-328.96 1612.3,-281.41"/>
<polygon fill="midnightblue" stroke="midnightblue" points="833.94,-495.43 825.25,-501.5 835.82,-502.17 833.94,-495.43"/>
</g>
<!-- Node24 -->
<g id="node24" class="node">
<title>Node24</title>
<g id="a_node24"><a xlink:href="../../db/df6/ExecutionContext_8hpp.html" target="_top" xlink:title="Keeping track of the internal data needed by the VM.">
<polygon fill="white" stroke="black" points="76,-418 76,-459 279,-459 279,-418 76,-418"/>
<text text-anchor="start" x="84" y="-447" font-family="Helvetica,sans-Serif" font-size="10.00">C:/Users/folae/Documents</text>
<text text-anchor="start" x="84" y="-436" font-family="Helvetica,sans-Serif" font-size="10.00">/Code/Big&#45;Projects/ArkScript</text>
<text text-anchor="middle" x="177.5" y="-425" font-family="Helvetica,sans-Serif" font-size="10.00">/Ark/include/Ark/VM/ExecutionContext.hpp</text>
</a>
</g>
</g>
<!-- Node1&#45;&gt;Node24 -->
<g id="edge35" class="edge">
<title>Node1&#45;&gt;Node24</title>
<path fill="none" stroke="midnightblue" d="M669.46,-512.25C578.51,-502.54 430.99,-485.52 304.5,-465 293.51,-463.22 282.02,-461.17 270.64,-459.03"/>
<polygon fill="midnightblue" stroke="midnightblue" points="669.13,-515.73 679.45,-513.31 669.87,-508.77 669.13,-515.73"/>
</g>
<!-- Node3 -->
<g id="node3" class="node">
<title>Node3</title>
<g id="a_node3"><a xlink:href="../../dc/d32/Ark_8cpp.html" target="_top" xlink:title=" ">
<polygon fill="white" stroke="black" points="346.5,-0.5 346.5,-41.5 488.5,-41.5 488.5,-0.5 346.5,-0.5"/>
<text text-anchor="start" x="354.5" y="-29.5" font-family="Helvetica,sans-Serif" font-size="10.00">C:/Users/folae/Documents</text>
<text text-anchor="start" x="354.5" y="-18.5" font-family="Helvetica,sans-Serif" font-size="10.00">/Code/Big&#45;Projects/ArkScript</text>
<text text-anchor="middle" x="417.5" y="-7.5" font-family="Helvetica,sans-Serif" font-size="10.00">/Ark/src/arkreactor/Ark.cpp</text>
</a>
</g>
</g>
<!-- Node2&#45;&gt;Node3 -->
<g id="edge2" class="edge">
<title>Node2&#45;&gt;Node3</title>
<path fill="none" stroke="midnightblue" d="M417.5,-68.3C417.5,-59.3 417.5,-49.65 417.5,-41.51"/>
<polygon fill="midnightblue" stroke="midnightblue" points="414,-68.43 417.5,-78.43 421,-68.43 414,-68.43"/>
</g>
<!-- Node4 -->
<g id="node4" class="node">
<title>Node4</title>
<g id="a_node4"><a xlink:href="../../df/d0a/main_8cpp.html" target="_top" xlink:title=" ">
<polygon fill="white" stroke="black" points="183.5,-0.5 183.5,-41.5 325.5,-41.5 325.5,-0.5 183.5,-0.5"/>
<text text-anchor="start" x="191.5" y="-29.5" font-family="Helvetica,sans-Serif" font-size="10.00">C:/Users/folae/Documents</text>
<text text-anchor="start" x="191.5" y="-18.5" font-family="Helvetica,sans-Serif" font-size="10.00">/Code/Big&#45;Projects/ArkScript</text>
<text text-anchor="middle" x="254.5" y="-7.5" font-family="Helvetica,sans-Serif" font-size="10.00">/Ark/src/arkscript/main.cpp</text>
</a>
</g>
</g>
<!-- Node2&#45;&gt;Node4 -->
<g id="edge3" class="edge">
<title>Node2&#45;&gt;Node4</title>
<path fill="none" stroke="midnightblue" d="M366.43,-74.19C343.88,-63.67 317.7,-51.47 296.33,-41.51"/>
<polygon fill="midnightblue" stroke="midnightblue" points="364.98,-77.37 375.52,-78.43 367.94,-71.03 364.98,-77.37"/>
</g>
<!-- Node6 -->
<g id="node6" class="node">
<title>Node6</title>
<g id="a_node6"><a xlink:href="../../d8/d0f/Compiler_8hpp.html" target="_top" xlink:title="ArkScript compiler is in charge of transforming the AST into bytecode.">
<polygon fill="white" stroke="black" points="294.5,-329 294.5,-370 482.5,-370 482.5,-329 294.5,-329"/>
<text text-anchor="start" x="302.5" y="-358" font-family="Helvetica,sans-Serif" font-size="10.00">C:/Users/folae/Documents</text>
<text text-anchor="start" x="302.5" y="-347" font-family="Helvetica,sans-Serif" font-size="10.00">/Code/Big&#45;Projects/ArkScript</text>
<text text-anchor="middle" x="388.5" y="-336" font-family="Helvetica,sans-Serif" font-size="10.00">/Ark/include/Ark/Compiler/Compiler.hpp</text>
</a>
</g>
</g>
<!-- Node5&#45;&gt;Node6 -->
<g id="edge5" class="edge">
<title>Node5&#45;&gt;Node6</title>
<path fill="none" stroke="midnightblue" d="M388.5,-402.16C388.5,-391.21 388.5,-379.55 388.5,-370.08"/>
<polygon fill="midnightblue" stroke="midnightblue" points="385,-402.34 388.5,-412.34 392,-402.34 385,-402.34"/>
</g>
<!-- Node14 -->
<g id="node14" class="node">
<title>Node14</title>
<g id="a_node14"><a xlink:href="../../d2/dc5/Optimizer_8cpp.html" target="_top" xlink:title=" ">
<polygon fill="white" stroke="black" points="134.5,-323.5 134.5,-375.5 276.5,-375.5 276.5,-323.5 134.5,-323.5"/>
<text text-anchor="start" x="142.5" y="-363.5" font-family="Helvetica,sans-Serif" font-size="10.00">C:/Users/folae/Documents</text>
<text text-anchor="start" x="142.5" y="-352.5" font-family="Helvetica,sans-Serif" font-size="10.00">/Code/Big&#45;Projects/ArkScript</text>
<text text-anchor="start" x="142.5" y="-341.5" font-family="Helvetica,sans-Serif" font-size="10.00">/Ark/src/arkreactor/Compiler</text>
<text text-anchor="middle" x="205.5" y="-330.5" font-family="Helvetica,sans-Serif" font-size="10.00">/AST/Optimizer.cpp</text>
</a>
</g>
</g>
<!-- Node5&#45;&gt;Node14 -->
<g id="edge18" class="edge">
<title>Node5&#45;&gt;Node14</title>
<path fill="none" stroke="midnightblue" d="M326.27,-407.92C304.18,-397.41 279.54,-385.7 258.31,-375.61"/>
<polygon fill="midnightblue" stroke="midnightblue" points="325.03,-411.2 335.57,-412.34 328.04,-404.88 325.03,-411.2"/>
</g>
<!-- Node6&#45;&gt;Node2 -->
<g id="edge6" class="edge">
<title>Node6&#45;&gt;Node2</title>
<path fill="none" stroke="midnightblue" d="M350.62,-322.19C339.78,-312.51 329.33,-300.55 323.5,-287 314.19,-265.36 316.41,-256.46 323.5,-234 338.05,-187.93 374.73,-143.96 397.73,-119.61"/>
<polygon fill="midnightblue" stroke="midnightblue" points="348.61,-325.08 358.52,-328.83 353.12,-319.72 348.61,-325.08"/>
</g>
<!-- Node6&#45;&gt;Node7 -->
<g id="edge7" class="edge">
<title>Node6&#45;&gt;Node7</title>
<path fill="none" stroke="midnightblue" d="M300.73,-326.57C295.58,-325.35 290.48,-324.15 285.5,-323 211.1,-305.82 172.33,-340.15 117.5,-287 71.4,-242.32 73.92,-157.97 77.85,-119.73"/>
<polygon fill="midnightblue" stroke="midnightblue" points="300.13,-330.03 310.67,-328.95 301.76,-323.22 300.13,-330.03"/>
</g>
<!-- Node9 -->
<g id="node9" class="node">
<title>Node9</title>
<g id="a_node9"><a xlink:href="../../d0/db5/State_8hpp.html" target="_top" xlink:title="State used by the virtual machine: it loads the bytecode, can compile it if needed,...">
<polygon fill="white" stroke="black" points="127,-240 127,-281 276,-281 276,-240 127,-240"/>
<text text-anchor="start" x="135" y="-269" font-family="Helvetica,sans-Serif" font-size="10.00">C:/Users/folae/Documents</text>
<text text-anchor="start" x="135" y="-258" font-family="Helvetica,sans-Serif" font-size="10.00">/Code/Big&#45;Projects/ArkScript</text>
<text text-anchor="middle" x="201.5" y="-247" font-family="Helvetica,sans-Serif" font-size="10.00">/Ark/include/Ark/VM/State.hpp</text>
</a>
</g>
</g>
<!-- Node6&#45;&gt;Node9 -->
<g id="edge10" class="edge">
<title>Node6&#45;&gt;Node9</title>
<path fill="none" stroke="midnightblue" d="M337.25,-324.66C307.85,-310.98 271.38,-294.01 243.65,-281.11"/>
<polygon fill="midnightblue" stroke="midnightblue" points="335.99,-327.93 346.53,-328.98 338.94,-321.58 335.99,-327.93"/>
</g>
<!-- Node13 -->
<g id="node13" class="node">
<title>Node13</title>
<g id="a_node13"><a xlink:href="../../de/dfa/Compiler_8cpp.html" target="_top" xlink:title=" ">
<polygon fill="white" stroke="black" points="332.5,-234.5 332.5,-286.5 474.5,-286.5 474.5,-234.5 332.5,-234.5"/>
<text text-anchor="start" x="340.5" y="-274.5" font-family="Helvetica,sans-Serif" font-size="10.00">C:/Users/folae/Documents</text>
<text text-anchor="start" x="340.5" y="-263.5" font-family="Helvetica,sans-Serif" font-size="10.00">/Code/Big&#45;Projects/ArkScript</text>
<text text-anchor="start" x="340.5" y="-252.5" font-family="Helvetica,sans-Serif" font-size="10.00">/Ark/src/arkreactor/Compiler</text>
<text text-anchor="middle" x="403.5" y="-241.5" font-family="Helvetica,sans-Serif" font-size="10.00">/Compiler.cpp</text>
</a>
</g>
</g>
<!-- Node6&#45;&gt;Node13 -->
<g id="edge17" class="edge">
<title>Node6&#45;&gt;Node13</title>
<path fill="none" stroke="midnightblue" d="M393.61,-318.84C395.41,-308.42 397.41,-296.81 399.14,-286.79"/>
<polygon fill="midnightblue" stroke="midnightblue" points="390.15,-318.31 391.9,-328.76 397.05,-319.5 390.15,-318.31"/>
</g>
<!-- Node7&#45;&gt;Node4 -->
<g id="edge9" class="edge">
<title>Node7&#45;&gt;Node4</title>
<path fill="none" stroke="midnightblue" d="M134.69,-74.33C158.84,-63.78 186.93,-51.51 209.84,-41.51"/>
<polygon fill="midnightblue" stroke="midnightblue" points="133.07,-71.22 125.31,-78.43 135.87,-77.63 133.07,-71.22"/>
</g>
<!-- Node8 -->
<g id="node8" class="node">
<title>Node8</title>
<g id="a_node8"><a xlink:href="../../d7/d46/Repl_8cpp.html" target="_top" xlink:title=" ">
<polygon fill="white" stroke="black" points="0,-0.5 0,-41.5 161,-41.5 161,-0.5 0,-0.5"/>
<text text-anchor="start" x="8" y="-29.5" font-family="Helvetica,sans-Serif" font-size="10.00">C:/Users/folae/Documents</text>
<text text-anchor="start" x="8" y="-18.5" font-family="Helvetica,sans-Serif" font-size="10.00">/Code/Big&#45;Projects/ArkScript</text>
<text text-anchor="middle" x="80.5" y="-7.5" font-family="Helvetica,sans-Serif" font-size="10.00">/Ark/src/arkscript/REPL/Repl.cpp</text>
</a>
</g>
</g>
<!-- Node7&#45;&gt;Node8 -->
<g id="edge8" class="edge">
<title>Node7&#45;&gt;Node8</title>
<path fill="none" stroke="midnightblue" d="M80.5,-68.3C80.5,-59.3 80.5,-49.65 80.5,-41.51"/>
<polygon fill="midnightblue" stroke="midnightblue" points="77,-68.43 80.5,-78.43 84,-68.43 77,-68.43"/>
</g>
<!-- Node9&#45;&gt;Node7 -->
<g id="edge11" class="edge">
<title>Node9&#45;&gt;Node7</title>
<path fill="none" stroke="midnightblue" d="M160.23,-234.1C146.55,-224.15 132.12,-211.8 121.5,-198 103.06,-174.03 91.42,-140.55 85.43,-119.59"/>
<polygon fill="midnightblue" stroke="midnightblue" points="158.41,-237.1 168.61,-239.98 162.43,-231.37 158.41,-237.1"/>
</g>
<!-- Node10 -->
<g id="node10" class="node">
<title>Node10</title>
<g id="a_node10"><a xlink:href="../../d1/d91/VM_8hpp.html" target="_top" xlink:title="The ArkScript virtual machine.">
<polygon fill="white" stroke="black" points="130.5,-156.5 130.5,-197.5 272.5,-197.5 272.5,-156.5 130.5,-156.5"/>
<text text-anchor="start" x="138.5" y="-185.5" font-family="Helvetica,sans-Serif" font-size="10.00">C:/Users/folae/Documents</text>
<text text-anchor="start" x="138.5" y="-174.5" font-family="Helvetica,sans-Serif" font-size="10.00">/Code/Big&#45;Projects/ArkScript</text>
<text text-anchor="middle" x="201.5" y="-163.5" font-family="Helvetica,sans-Serif" font-size="10.00">/Ark/include/Ark/VM/VM.hpp</text>
</a>
</g>
</g>
<!-- Node9&#45;&gt;Node10 -->
<g id="edge12" class="edge">
<title>Node9&#45;&gt;Node10</title>
<path fill="none" stroke="midnightblue" d="M201.5,-229.56C201.5,-218.88 201.5,-207.13 201.5,-197.55"/>
<polygon fill="midnightblue" stroke="midnightblue" points="198,-229.77 201.5,-239.77 205,-229.77 198,-229.77"/>
</g>
<!-- Node9&#45;&gt;Node12 -->
<g id="edge16" class="edge">
<title>Node9&#45;&gt;Node12</title>
<path fill="none" stroke="midnightblue" d="M286,-240.09C298.52,-237.72 311.31,-235.59 323.5,-234 687.96,-186.6 1127.68,-179.05 1305.77,-178.04"/>
<polygon fill="midnightblue" stroke="midnightblue" points="285.18,-236.68 276.03,-242.03 286.52,-243.55 285.18,-236.68"/>
</g>
<!-- Node10&#45;&gt;Node2 -->
<g id="edge13" class="edge">
<title>Node10&#45;&gt;Node2</title>
<path fill="none" stroke="midnightblue" d="M266.79,-153.03C297.2,-142.33 332.99,-129.73 362.06,-119.51"/>
<polygon fill="midnightblue" stroke="midnightblue" points="265.4,-149.81 257.13,-156.43 267.72,-156.41 265.4,-149.81"/>
</g>
<!-- Node10&#45;&gt;Node7 -->
<g id="edge14" class="edge">
<title>Node10&#45;&gt;Node7</title>
<path fill="none" stroke="midnightblue" d="M161.57,-150.92C145.3,-140.7 126.78,-129.07 111.55,-119.51"/>
<polygon fill="midnightblue" stroke="midnightblue" points="160.01,-154.07 170.34,-156.43 163.73,-148.15 160.01,-154.07"/>
</g>
<!-- Node11 -->
<g id="node11" class="node">
<title>Node11</title>
<g id="a_node11"><a xlink:href="../../d2/d27/VM_8cpp.html" target="_top" xlink:title=" ">
<polygon fill="white" stroke="black" points="176.5,-78.5 176.5,-119.5 328.5,-119.5 328.5,-78.5 176.5,-78.5"/>
<text text-anchor="start" x="184.5" y="-107.5" font-family="Helvetica,sans-Serif" font-size="10.00">C:/Users/folae/Documents</text>
<text text-anchor="start" x="184.5" y="-96.5" font-family="Helvetica,sans-Serif" font-size="10.00">/Code/Big&#45;Projects/ArkScript</text>
<text text-anchor="middle" x="252.5" y="-85.5" font-family="Helvetica,sans-Serif" font-size="10.00">/Ark/src/arkreactor/VM/VM.cpp</text>
</a>
</g>
</g>
<!-- Node10&#45;&gt;Node11 -->
<g id="edge15" class="edge">
<title>Node10&#45;&gt;Node11</title>
<path fill="none" stroke="midnightblue" d="M220.26,-148.05C226.62,-138.57 233.59,-128.18 239.41,-119.51"/>
<polygon fill="midnightblue" stroke="midnightblue" points="217.3,-146.17 214.63,-156.43 223.11,-150.07 217.3,-146.17"/>
</g>
<!-- Node15&#45;&gt;Node6 -->
<g id="edge20" class="edge">
<title>Node15&#45;&gt;Node6</title>
<path fill="none" stroke="midnightblue" d="M503.82,-407.83C478.74,-395.36 450.27,-381.21 427.89,-370.08"/>
<polygon fill="midnightblue" stroke="midnightblue" points="502.37,-411.02 512.88,-412.34 505.49,-404.75 502.37,-411.02"/>
</g>
<!-- Node16 -->
<g id="node16" class="node">
<title>Node16</title>
<g id="a_node16"><a xlink:href="../../dc/df5/Parser_8cpp.html" target="_top" xlink:title=" ">
<polygon fill="white" stroke="black" points="492.5,-234.5 492.5,-286.5 634.5,-286.5 634.5,-234.5 492.5,-234.5"/>
<text text-anchor="start" x="500.5" y="-274.5" font-family="Helvetica,sans-Serif" font-size="10.00">C:/Users/folae/Documents</text>
<text text-anchor="start" x="500.5" y="-263.5" font-family="Helvetica,sans-Serif" font-size="10.00">/Code/Big&#45;Projects/ArkScript</text>
<text text-anchor="start" x="500.5" y="-252.5" font-family="Helvetica,sans-Serif" font-size="10.00">/Ark/src/arkreactor/Compiler</text>
<text text-anchor="middle" x="563.5" y="-241.5" font-family="Helvetica,sans-Serif" font-size="10.00">/AST/Parser.cpp</text>
</a>
</g>
</g>
<!-- Node15&#45;&gt;Node16 -->
<g id="edge21" class="edge">
<title>Node15&#45;&gt;Node16</title>
<path fill="none" stroke="midnightblue" d="M563.5,-402.25C563.5,-368.04 563.5,-316.97 563.5,-286.67"/>
<polygon fill="midnightblue" stroke="midnightblue" points="560,-402.28 563.5,-412.28 567,-402.28 560,-402.28"/>
</g>
<!-- Node17&#45;&gt;Node2 -->
<g id="edge24" class="edge">
<title>Node17&#45;&gt;Node2</title>
<path fill="none" stroke="midnightblue" d="M1114.11,-344.96C1256.02,-337.95 1536.02,-320.07 1565.5,-287 1581.17,-269.41 1575.23,-255.45 1565.5,-234 1543.79,-186.1 1525.22,-175.81 1476.5,-156 1385.58,-119.03 711.29,-104.79 488.63,-101.07"/>
<polygon fill="midnightblue" stroke="midnightblue" points="1113.54,-341.48 1103.72,-345.46 1113.88,-348.47 1113.54,-341.48"/>
</g>
<!-- Node17&#45;&gt;Node11 -->
<g id="edge33" class="edge">
<title>Node17&#45;&gt;Node11</title>
<path fill="none" stroke="midnightblue" d="M951.07,-341.39C861.77,-332.35 725.32,-314.54 681.5,-287 656.96,-271.58 666.76,-251.3 643.5,-234 592.54,-196.1 425.13,-146.55 326.67,-119.58"/>
<polygon fill="midnightblue" stroke="midnightblue" points="950.88,-344.88 961.18,-342.39 951.57,-337.92 950.88,-344.88"/>
</g>
<!-- Node17&#45;&gt;Node12 -->
<g id="edge32" class="edge">
<title>Node17&#45;&gt;Node12</title>
<path fill="none" stroke="midnightblue" d="M1113.76,-344.04C1201.32,-337.49 1332.82,-322 1367.5,-287 1390.89,-263.4 1391.35,-221.92 1389.18,-197.5"/>
<polygon fill="midnightblue" stroke="midnightblue" points="1113.3,-340.57 1103.58,-344.78 1113.8,-347.55 1113.3,-340.57"/>
</g>
<!-- Node17&#45;&gt;Node13 -->
<g id="edge29" class="edge">
<title>Node17&#45;&gt;Node13</title>
<path fill="none" stroke="midnightblue" d="M950.99,-344.39C843.07,-337.82 647.29,-321.92 483.5,-287 480.65,-286.39 477.75,-285.72 474.84,-285.01"/>
<polygon fill="midnightblue" stroke="midnightblue" points="950.96,-347.9 961.15,-345 951.38,-340.91 950.96,-347.9"/>
</g>
<!-- Node17&#45;&gt;Node16 -->
<g id="edge26" class="edge">
<title>Node17&#45;&gt;Node16</title>
<path fill="none" stroke="midnightblue" d="M950.92,-338.63C872.77,-328.42 751.79,-310.66 648.5,-287 643.99,-285.97 639.38,-284.83 634.74,-283.62"/>
<polygon fill="midnightblue" stroke="midnightblue" points="950.82,-342.14 961.18,-339.96 951.72,-335.2 950.82,-342.14"/>
</g>
<!-- Node18 -->
<g id="node18" class="node">
<title>Node18</title>
<g id="a_node18"><a xlink:href="../../d2/d15/Lexer_8cpp.html" target="_top" xlink:title=" ">
<polygon fill="white" stroke="black" points="1216.5,-234.5 1216.5,-286.5 1358.5,-286.5 1358.5,-234.5 1216.5,-234.5"/>
<text text-anchor="start" x="1224.5" y="-274.5" font-family="Helvetica,sans-Serif" font-size="10.00">C:/Users/folae/Documents</text>
<text text-anchor="start" x="1224.5" y="-263.5" font-family="Helvetica,sans-Serif" font-size="10.00">/Code/Big&#45;Projects/ArkScript</text>
<text text-anchor="start" x="1224.5" y="-252.5" font-family="Helvetica,sans-Serif" font-size="10.00">/Ark/src/arkreactor/Compiler</text>
<text text-anchor="middle" x="1287.5" y="-241.5" font-family="Helvetica,sans-Serif" font-size="10.00">/AST/Lexer.cpp</text>
</a>
</g>
</g>
<!-- Node17&#45;&gt;Node18 -->
<g id="edge25" class="edge">
<title>Node17&#45;&gt;Node18</title>
<path fill="none" stroke="midnightblue" d="M1099.63,-325.6C1135.56,-313.34 1179.81,-298.24 1216.34,-285.78"/>
<polygon fill="midnightblue" stroke="midnightblue" points="1098.06,-322.43 1089.73,-328.98 1100.32,-329.06 1098.06,-322.43"/>
</g>
<!-- Node17&#45;&gt;Node19 -->
<g id="edge27" class="edge">
<title>Node17&#45;&gt;Node19</title>
<path fill="none" stroke="midnightblue" d="M1113.81,-344.35C1224.4,-337.65 1427.99,-321.54 1598.5,-287 1603.03,-286.08 1607.67,-285.03 1612.32,-283.89"/>
<polygon fill="midnightblue" stroke="midnightblue" points="1113.51,-340.87 1103.73,-344.95 1113.92,-347.85 1113.51,-340.87"/>
</g>
<!-- Node20 -->
<g id="node20" class="node">
<title>Node20</title>
<g id="a_node20"><a xlink:href="../../d5/d36/BytecodeReader_8cpp.html" target="_top" xlink:title=" ">
<polygon fill="white" stroke="black" points="1414.5,-234.5 1414.5,-286.5 1556.5,-286.5 1556.5,-234.5 1414.5,-234.5"/>
<text text-anchor="start" x="1422.5" y="-274.5" font-family="Helvetica,sans-Serif" font-size="10.00">C:/Users/folae/Documents</text>
<text text-anchor="start" x="1422.5" y="-263.5" font-family="Helvetica,sans-Serif" font-size="10.00">/Code/Big&#45;Projects/ArkScript</text>
<text text-anchor="start" x="1422.5" y="-252.5" font-family="Helvetica,sans-Serif" font-size="10.00">/Ark/src/arkreactor/Compiler</text>
<text text-anchor="middle" x="1485.5" y="-241.5" font-family="Helvetica,sans-Serif" font-size="10.00">/BytecodeReader.cpp</text>
</a>
</g>
</g>
<!-- Node17&#45;&gt;Node20 -->
<g id="edge28" class="edge">
<title>Node17&#45;&gt;Node20</title>
<path fill="none" stroke="midnightblue" d="M1113.88,-337.9C1188.84,-327.43 1302.88,-309.7 1400.5,-287 1405,-285.95 1409.62,-284.8 1414.25,-283.58"/>
<polygon fill="midnightblue" stroke="midnightblue" points="1113,-334.49 1103.57,-339.33 1113.96,-341.42 1113,-334.49"/>
</g>
<!-- Node21 -->
<g id="node21" class="node">
<title>Node21</title>
<g id="a_node21"><a xlink:href="../../d6/dd1/Exceptions_8cpp.html" target="_top" xlink:title=" ">
<polygon fill="white" stroke="black" points="690.5,-240 690.5,-281 858.5,-281 858.5,-240 690.5,-240"/>
<text text-anchor="start" x="698.5" y="-269" font-family="Helvetica,sans-Serif" font-size="10.00">C:/Users/folae/Documents</text>
<text text-anchor="start" x="698.5" y="-258" font-family="Helvetica,sans-Serif" font-size="10.00">/Code/Big&#45;Projects/ArkScript</text>
<text text-anchor="middle" x="774.5" y="-247" font-family="Helvetica,sans-Serif" font-size="10.00">/Ark/src/arkreactor/Exceptions.cpp</text>
</a>
</g>
</g>
<!-- Node17&#45;&gt;Node21 -->
<g id="edge30" class="edge">
<title>Node17&#45;&gt;Node21</title>
<path fill="none" stroke="midnightblue" d="M964.94,-325.72C923.85,-311.86 871.91,-294.35 832.65,-281.11"/>
<polygon fill="midnightblue" stroke="midnightblue" points="964.01,-329.1 974.6,-328.98 966.24,-322.46 964.01,-329.1"/>
</g>
<!-- Node22 -->
<g id="node22" class="node">
<title>Node22</title>
<g id="a_node22"><a xlink:href="../../de/d06/arkreactor_2Utils_8cpp.html" target="_top" xlink:title=" ">
<polygon fill="white" stroke="black" points="876.5,-240 876.5,-281 1018.5,-281 1018.5,-240 876.5,-240"/>
<text text-anchor="start" x="884.5" y="-269" font-family="Helvetica,sans-Serif" font-size="10.00">C:/Users/folae/Documents</text>
<text text-anchor="start" x="884.5" y="-258" font-family="Helvetica,sans-Serif" font-size="10.00">/Code/Big&#45;Projects/ArkScript</text>
<text text-anchor="middle" x="947.5" y="-247" font-family="Helvetica,sans-Serif" font-size="10.00">/Ark/src/arkreactor/Utils.cpp</text>
</a>
</g>
</g>
<!-- Node17&#45;&gt;Node22 -->
<g id="edge31" class="edge">
<title>Node17&#45;&gt;Node22</title>
<path fill="none" stroke="midnightblue" d="M1006.02,-321.4C993.3,-308.37 978.33,-293.05 966.71,-281.16"/>
<polygon fill="midnightblue" stroke="midnightblue" points="1003.72,-324.05 1013.21,-328.76 1008.73,-319.16 1003.72,-324.05"/>
</g>
<!-- Node23 -->
<g id="node23" class="node">
<title>Node23</title>
<g id="a_node23"><a xlink:href="../../d1/d74/Value_8cpp.html" target="_top" xlink:title=" ">
<polygon fill="white" stroke="black" points="1036.5,-240 1036.5,-281 1198.5,-281 1198.5,-240 1036.5,-240"/>
<text text-anchor="start" x="1044.5" y="-269" font-family="Helvetica,sans-Serif" font-size="10.00">C:/Users/folae/Documents</text>
<text text-anchor="start" x="1044.5" y="-258" font-family="Helvetica,sans-Serif" font-size="10.00">/Code/Big&#45;Projects/ArkScript</text>
<text text-anchor="middle" x="1117.5" y="-247" font-family="Helvetica,sans-Serif" font-size="10.00">/Ark/src/arkreactor/VM/Value.cpp</text>
</a>
</g>
</g>
<!-- Node17&#45;&gt;Node23 -->
<g id="edge34" class="edge">
<title>Node17&#45;&gt;Node23</title>
<path fill="none" stroke="midnightblue" d="M1058.98,-321.4C1071.7,-308.37 1086.67,-293.05 1098.29,-281.16"/>
<polygon fill="midnightblue" stroke="midnightblue" points="1056.27,-319.16 1051.79,-328.76 1061.28,-324.05 1056.27,-319.16"/>
</g>
<!-- Node24&#45;&gt;Node10 -->
<g id="edge36" class="edge">
<title>Node24&#45;&gt;Node10</title>
<path fill="none" stroke="midnightblue" d="M148.31,-410.3C139.47,-400.39 130.73,-388.52 125.5,-376 101.13,-317.68 87.67,-289.73 117.5,-234 125.85,-218.39 140.69,-206.38 155.59,-197.56"/>
<polygon fill="midnightblue" stroke="midnightblue" points="145.95,-412.9 155.35,-417.8 151.05,-408.11 145.95,-412.9"/>
</g>
</g>
</svg>
