<?xml version="1.0" encoding="UTF-8" standalone="no"?>
<!DOCTYPE svg PUBLIC "-//W3C//DTD SVG 1.1//EN"
 "http://www.w3.org/Graphics/SVG/1.1/DTD/svg11.dtd">
<!-- Generated by graphviz version 2.49.0 (20210828.1703)
 -->
<!-- Title: C:/Users/folae/Documents/Code/Big&#45;Projects/ArkScript/Ark/src/arkreactor/Compiler/AST/Lexer.cpp Pages: 1 -->
<svg width="1882pt" height="296pt"
 viewBox="0.00 0.00 1882.00 296.00" xmlns="http://www.w3.org/2000/svg" xmlns:xlink="http://www.w3.org/1999/xlink">
<g id="graph0" class="graph" transform="scale(1 1) rotate(0) translate(4 292)">
<title>C:/Users/folae/Documents/Code/Big&#45;Projects/ArkScript/Ark/src/arkreactor/Compiler/AST/Lexer.cpp</title>
<polygon fill="white" stroke="transparent" points="-4,4 -4,-292 1878,-292 1878,4 -4,4"/>
<!-- Node1 -->
<g id="node1" class="node">
<title>Node1</title>
<g id="a_node1"><a xlink:title=" ">
<polygon fill="#bfbfbf" stroke="black" points="1295,-235.5 1295,-287.5 1437,-287.5 1437,-235.5 1295,-235.5"/>
<text text-anchor="start" x="1303" y="-275.5" font-family="Helvetica,sans-Serif" font-size="10.00">C:/Users/folae/Documents</text>
<text text-anchor="start" x="1303" y="-264.5" font-family="Helvetica,sans-Serif" font-size="10.00">/Code/Big&#45;Projects/ArkScript</text>
<text text-anchor="start" x="1303" y="-253.5" font-family="Helvetica,sans-Serif" font-size="10.00">/Ark/src/arkreactor/Compiler</text>
<text text-anchor="middle" x="1366" y="-242.5" font-family="Helvetica,sans-Serif" font-size="10.00">/AST/Lexer.cpp</text>
</a>
</g>
</g>
<!-- Node2 -->
<g id="node2" class="node">
<title>Node2</title>
<g id="a_node2"><a xlink:href="../../da/d79/Lexer_8hpp.html" target="_top" xlink:title="Tokenize ArkScript code.">
<polygon fill="white" stroke="black" points="1009,-174 1009,-193 1149,-193 1149,-174 1009,-174"/>
<text text-anchor="middle" x="1079" y="-181" font-family="Helvetica,sans-Serif" font-size="10.00">Ark/Compiler/AST/Lexer.hpp</text>
</a>
</g>
</g>
<!-- Node1&#45;&gt;Node2 -->
<g id="edge1" class="edge">
<title>Node1&#45;&gt;Node2</title>
<path fill="none" stroke="midnightblue" d="M1294.69,-241.62C1240.05,-227.15 1166.54,-207.68 1120.99,-195.62"/>
<polygon fill="midnightblue" stroke="midnightblue" points="1121.72,-192.19 1111.15,-193.01 1119.92,-198.96 1121.72,-192.19"/>
</g>
<!-- Node10 -->
<g id="node10" class="node">
<title>Node10</title>
<g id="a_node10"><a xlink:title=" ">
<polygon fill="white" stroke="#bfbfbf" points="947.5,-174 947.5,-193 990.5,-193 990.5,-174 947.5,-174"/>
<text text-anchor="middle" x="969" y="-181" font-family="Helvetica,sans-Serif" font-size="10.00">cstdio</text>
</a>
</g>
</g>
<!-- Node1&#45;&gt;Node10 -->
<g id="edge12" class="edge">
<title>Node1&#45;&gt;Node10</title>
<path fill="none" stroke="midnightblue" d="M1294.85,-254.31C1220.12,-246.48 1099.81,-230.09 1000,-199 998.13,-198.42 996.22,-197.74 994.33,-197.01"/>
<polygon fill="midnightblue" stroke="midnightblue" points="995.65,-193.77 985.08,-193.03 992.88,-200.2 995.65,-193.77"/>
</g>
<!-- Node11 -->
<g id="node11" class="node">
<title>Node11</title>
<g id="a_node11"><a xlink:title=" ">
<polygon fill="white" stroke="#bfbfbf" points="1818,-56.5 1818,-75.5 1874,-75.5 1874,-56.5 1818,-56.5"/>
<text text-anchor="middle" x="1846" y="-63.5" font-family="Helvetica,sans-Serif" font-size="10.00">algorithm</text>
</a>
</g>
</g>
<!-- Node1&#45;&gt;Node11 -->
<g id="edge13" class="edge">
<title>Node1&#45;&gt;Node11</title>
<path fill="none" stroke="midnightblue" d="M1437.08,-245.98C1483.46,-235.44 1544.84,-219.46 1597,-199 1684.66,-164.61 1781.24,-107.33 1823.79,-81.01"/>
<polygon fill="midnightblue" stroke="midnightblue" points="1825.85,-83.85 1832.49,-75.59 1822.15,-77.91 1825.85,-83.85"/>
</g>
<!-- Node12 -->
<g id="node12" class="node">
<title>Node12</title>
<g id="a_node12"><a xlink:title=" ">
<polygon fill="white" stroke="#bfbfbf" points="0,-0.5 0,-19.5 40,-19.5 40,-0.5 0,-0.5"/>
<text text-anchor="middle" x="20" y="-7.5" font-family="Helvetica,sans-Serif" font-size="10.00">utility</text>
</a>
</g>
</g>
<!-- Node1&#45;&gt;Node12 -->
<g id="edge14" class="edge">
<title>Node1&#45;&gt;Node12</title>
<path fill="none" stroke="midnightblue" d="M1294.69,-260.01C1048.3,-256.92 237.36,-234.66 43,-76 29.26,-64.78 23.72,-44.76 21.49,-29.9"/>
<polygon fill="midnightblue" stroke="midnightblue" points="24.95,-29.31 20.35,-19.76 17.99,-30.09 24.95,-29.31"/>
</g>
<!-- Node13 -->
<g id="node13" class="node">
<title>Node13</title>
<g id="a_node13"><a xlink:title=" ">
<polygon fill="white" stroke="#bfbfbf" points="1534,-112.5 1534,-131.5 1586,-131.5 1586,-112.5 1534,-112.5"/>
<text text-anchor="middle" x="1560" y="-119.5" font-family="Helvetica,sans-Serif" font-size="10.00">sstream</text>
</a>
</g>
</g>
<!-- Node1&#45;&gt;Node13 -->
<g id="edge15" class="edge">
<title>Node1&#45;&gt;Node13</title>
<path fill="none" stroke="midnightblue" d="M1437.43,-252.98C1474.69,-245.34 1518,-229.95 1545,-199 1558.65,-183.36 1561.29,-158.94 1561.24,-142.02"/>
<polygon fill="midnightblue" stroke="midnightblue" points="1564.72,-141.58 1560.87,-131.71 1557.73,-141.83 1564.72,-141.58"/>
</g>
<!-- Node14 -->
<g id="node14" class="node">
<title>Node14</title>
<g id="a_node14"><a xlink:title=" ">
<polygon fill="white" stroke="#bfbfbf" points="1456,-174 1456,-193 1536,-193 1536,-174 1456,-174"/>
<text text-anchor="middle" x="1496" y="-181" font-family="Helvetica,sans-Serif" font-size="10.00">utf8_decoder.h</text>
</a>
</g>
</g>
<!-- Node1&#45;&gt;Node14 -->
<g id="edge16" class="edge">
<title>Node1&#45;&gt;Node14</title>
<path fill="none" stroke="midnightblue" d="M1408.93,-235.4C1430.02,-223.07 1454.63,-208.69 1472.29,-198.36"/>
<polygon fill="midnightblue" stroke="midnightblue" points="1474.46,-201.15 1481.33,-193.08 1470.93,-195.1 1474.46,-201.15"/>
</g>
<!-- Node15 -->
<g id="node15" class="node">
<title>Node15</title>
<g id="a_node15"><a xlink:href="../../d2/de9/Exceptions_8hpp.html" target="_top" xlink:title="ArkScript homemade exceptions.">
<polygon fill="white" stroke="black" points="1168,-174 1168,-193 1270,-193 1270,-174 1168,-174"/>
<text text-anchor="middle" x="1219" y="-181" font-family="Helvetica,sans-Serif" font-size="10.00">Ark/Exceptions.hpp</text>
</a>
</g>
</g>
<!-- Node1&#45;&gt;Node15 -->
<g id="edge17" class="edge">
<title>Node1&#45;&gt;Node15</title>
<path fill="none" stroke="midnightblue" d="M1317.46,-235.4C1293.17,-222.85 1264.75,-208.15 1244.7,-197.79"/>
<polygon fill="midnightblue" stroke="midnightblue" points="1246.08,-194.56 1235.59,-193.08 1242.87,-200.78 1246.08,-194.56"/>
</g>
<!-- Node29 -->
<g id="node29" class="node">
<title>Node29</title>
<g id="a_node29"><a xlink:href="../../d7/d09/Utils_8hpp.html" target="_top" xlink:title="Lots of utilities about string, filesystem and more.">
<polygon fill="white" stroke="black" points="1604.5,-112.5 1604.5,-131.5 1677.5,-131.5 1677.5,-112.5 1604.5,-112.5"/>
<text text-anchor="middle" x="1641" y="-119.5" font-family="Helvetica,sans-Serif" font-size="10.00">Ark/Utils.hpp</text>
</a>
</g>
</g>
<!-- Node1&#45;&gt;Node29 -->
<g id="edge47" class="edge">
<title>Node1&#45;&gt;Node29</title>
<path fill="none" stroke="midnightblue" d="M1437.18,-247.34C1476.78,-237.91 1525.83,-222.62 1565,-199 1590.99,-183.33 1614.63,-156.89 1628.42,-139.7"/>
<polygon fill="midnightblue" stroke="midnightblue" points="1631.3,-141.69 1634.69,-131.65 1625.78,-137.39 1631.3,-141.69"/>
</g>
<!-- Node34 -->
<g id="node34" class="node">
<title>Node34</title>
<g id="a_node34"><a xlink:href="../../dc/dc5/makeErrorCtx_8hpp.html" target="_top" xlink:title="Create string error context for AST errors.">
<polygon fill="white" stroke="black" points="1294.5,-168.5 1294.5,-198.5 1437.5,-198.5 1437.5,-168.5 1294.5,-168.5"/>
<text text-anchor="start" x="1302.5" y="-186.5" font-family="Helvetica,sans-Serif" font-size="10.00">Ark/Compiler/AST/makeError</text>
<text text-anchor="middle" x="1366" y="-175.5" font-family="Helvetica,sans-Serif" font-size="10.00">Ctx.hpp</text>
</a>
</g>
</g>
<!-- Node1&#45;&gt;Node34 -->
<g id="edge57" class="edge">
<title>Node1&#45;&gt;Node34</title>
<path fill="none" stroke="midnightblue" d="M1366,-235.19C1366,-226.79 1366,-217.44 1366,-209.09"/>
<polygon fill="midnightblue" stroke="midnightblue" points="1369.5,-208.85 1366,-198.85 1362.5,-208.85 1369.5,-208.85"/>
</g>
<!-- Node3 -->
<g id="node3" class="node">
<title>Node3</title>
<g id="a_node3"><a xlink:title=" ">
<polygon fill="white" stroke="#bfbfbf" points="1159,-0.5 1159,-19.5 1201,-19.5 1201,-0.5 1159,-0.5"/>
<text text-anchor="middle" x="1180" y="-7.5" font-family="Helvetica,sans-Serif" font-size="10.00">vector</text>
</a>
</g>
</g>
<!-- Node2&#45;&gt;Node3 -->
<g id="edge2" class="edge">
<title>Node2&#45;&gt;Node3</title>
<path fill="none" stroke="midnightblue" d="M1078.85,-173.89C1079.08,-159.24 1081.67,-129.36 1098,-112 1132.38,-75.45 1175.72,-116.75 1205,-76 1215.63,-61.2 1205.08,-41.3 1194.6,-27.43"/>
<polygon fill="midnightblue" stroke="midnightblue" points="1197.31,-25.21 1188.28,-19.67 1191.89,-29.64 1197.31,-25.21"/>
</g>
<!-- Node4 -->
<g id="node4" class="node">
<title>Node4</title>
<g id="a_node4"><a xlink:href="../../d3/d6e/Token_8hpp.html" target="_top" xlink:title="Token definition for ArkScript.">
<polygon fill="white" stroke="black" points="869.5,-112.5 869.5,-131.5 1012.5,-131.5 1012.5,-112.5 869.5,-112.5"/>
<text text-anchor="middle" x="941" y="-119.5" font-family="Helvetica,sans-Serif" font-size="10.00">Ark/Compiler/AST/Token.hpp</text>
</a>
</g>
</g>
<!-- Node2&#45;&gt;Node4 -->
<g id="edge3" class="edge">
<title>Node2&#45;&gt;Node4</title>
<path fill="none" stroke="midnightblue" d="M1059.23,-173.98C1035.86,-163.9 996.79,-147.05 970,-135.5"/>
<polygon fill="midnightblue" stroke="midnightblue" points="971.3,-132.25 960.74,-131.51 968.53,-138.68 971.3,-132.25"/>
</g>
<!-- Node8 -->
<g id="node8" class="node">
<title>Node8</title>
<g id="a_node8"><a xlink:href="../../d8/ddd/Common_8hpp.html" target="_top" xlink:title="Common code for the compiler.">
<polygon fill="white" stroke="black" points="1062,-56.5 1062,-75.5 1196,-75.5 1196,-56.5 1062,-56.5"/>
<text text-anchor="middle" x="1129" y="-63.5" font-family="Helvetica,sans-Serif" font-size="10.00">Ark/Compiler/Common.hpp</text>
</a>
</g>
</g>
<!-- Node2&#45;&gt;Node8 -->
<g id="edge7" class="edge">
<title>Node2&#45;&gt;Node8</title>
<path fill="none" stroke="midnightblue" d="M1073.79,-173.74C1066.28,-159.88 1054.42,-132.38 1065,-112 1072.15,-98.23 1085.67,-87.78 1098.45,-80.44"/>
<polygon fill="midnightblue" stroke="midnightblue" points="1100.32,-83.41 1107.52,-75.64 1097.04,-77.23 1100.32,-83.41"/>
</g>
<!-- Node5 -->
<g id="node5" class="node">
<title>Node5</title>
<g id="a_node5"><a xlink:title=" ">
<polygon fill="white" stroke="#bfbfbf" points="977,-0.5 977,-19.5 1015,-19.5 1015,-0.5 977,-0.5"/>
<text text-anchor="middle" x="996" y="-7.5" font-family="Helvetica,sans-Serif" font-size="10.00">array</text>
</a>
</g>
</g>
<!-- Node4&#45;&gt;Node5 -->
<g id="edge4" class="edge">
<title>Node4&#45;&gt;Node5</title>
<path fill="none" stroke="midnightblue" d="M949.58,-112.43C957.7,-103.88 969.71,-90.02 977,-76 984.63,-61.33 989.61,-43.16 992.55,-29.77"/>
<polygon fill="midnightblue" stroke="midnightblue" points="996.01,-30.31 994.55,-19.82 989.15,-28.93 996.01,-30.31"/>
</g>
<!-- Node6 -->
<g id="node6" class="node">
<title>Node6</title>
<g id="a_node6"><a xlink:title=" ">
<polygon fill="white" stroke="#bfbfbf" points="1290.5,-56.5 1290.5,-75.5 1331.5,-75.5 1331.5,-56.5 1290.5,-56.5"/>
<text text-anchor="middle" x="1311" y="-63.5" font-family="Helvetica,sans-Serif" font-size="10.00">string</text>
</a>
</g>
</g>
<!-- Node4&#45;&gt;Node6 -->
<g id="edge5" class="edge">
<title>Node4&#45;&gt;Node6</title>
<path fill="none" stroke="midnightblue" d="M1012.63,-113.86C1080.73,-106.48 1185.86,-93.58 1276,-76 1277.46,-75.71 1278.95,-75.4 1280.46,-75.08"/>
<polygon fill="midnightblue" stroke="midnightblue" points="1281.44,-78.44 1290.36,-72.74 1279.83,-71.63 1281.44,-78.44"/>
</g>
<!-- Node7 -->
<g id="node7" class="node">
<title>Node7</title>
<g id="a_node7"><a xlink:title=" ">
<polygon fill="white" stroke="#bfbfbf" points="1048,-0.5 1048,-19.5 1112,-19.5 1112,-0.5 1048,-0.5"/>
<text text-anchor="middle" x="1080" y="-7.5" font-family="Helvetica,sans-Serif" font-size="10.00">string_view</text>
</a>
</g>
</g>
<!-- Node4&#45;&gt;Node7 -->
<g id="edge6" class="edge">
<title>Node4&#45;&gt;Node7</title>
<path fill="none" stroke="midnightblue" d="M951.91,-112.37C975.56,-93.65 1031.79,-49.15 1061.26,-25.83"/>
<polygon fill="midnightblue" stroke="midnightblue" points="1063.47,-28.54 1069.14,-19.59 1059.13,-23.05 1063.47,-28.54"/>
</g>
<!-- Node8&#45;&gt;Node3 -->
<g id="edge10" class="edge">
<title>Node8&#45;&gt;Node3</title>
<path fill="none" stroke="midnightblue" d="M1137.42,-56.08C1144.85,-48.22 1155.85,-36.57 1164.81,-27.08"/>
<polygon fill="midnightblue" stroke="midnightblue" points="1167.41,-29.42 1171.74,-19.75 1162.32,-24.62 1167.41,-29.42"/>
</g>
<!-- Node8&#45;&gt;Node5 -->
<g id="edge8" class="edge">
<title>Node8&#45;&gt;Node5</title>
<path fill="none" stroke="midnightblue" d="M1107.93,-56.44C1085.42,-47.31 1049.63,-32.77 1024.59,-22.61"/>
<polygon fill="midnightblue" stroke="midnightblue" points="1025.83,-19.33 1015.25,-18.82 1023.2,-25.82 1025.83,-19.33"/>
</g>
<!-- Node8&#45;&gt;Node7 -->
<g id="edge9" class="edge">
<title>Node8&#45;&gt;Node7</title>
<path fill="none" stroke="midnightblue" d="M1120.91,-56.08C1113.84,-48.3 1103.41,-36.8 1094.85,-27.37"/>
<polygon fill="midnightblue" stroke="midnightblue" points="1097.25,-24.8 1087.94,-19.75 1092.07,-29.51 1097.25,-24.8"/>
</g>
<!-- Node9 -->
<g id="node9" class="node">
<title>Node9</title>
<g id="a_node9"><a xlink:title=" ">
<polygon fill="white" stroke="#bfbfbf" points="1234,-0.5 1234,-19.5 1290,-19.5 1290,-0.5 1234,-0.5"/>
<text text-anchor="middle" x="1262" y="-7.5" font-family="Helvetica,sans-Serif" font-size="10.00">cinttypes</text>
</a>
</g>
</g>
<!-- Node8&#45;&gt;Node9 -->
<g id="edge11" class="edge">
<title>Node8&#45;&gt;Node9</title>
<path fill="none" stroke="midnightblue" d="M1150.07,-56.44C1172.06,-47.52 1206.73,-33.44 1231.66,-23.32"/>
<polygon fill="midnightblue" stroke="midnightblue" points="1233.08,-26.52 1241.02,-19.52 1230.44,-20.04 1233.08,-26.52"/>
</g>
<!-- Node15&#45;&gt;Node3 -->
<g id="edge20" class="edge">
<title>Node15&#45;&gt;Node3</title>
<path fill="none" stroke="midnightblue" d="M1258.2,-173.97C1323.77,-159.7 1448.62,-132.47 1449,-132 1470.17,-105.68 1470.91,-81.71 1449,-56 1416.3,-17.63 1274.62,-28.95 1225,-20 1220.47,-19.18 1215.69,-18.28 1211,-17.36"/>
<polygon fill="midnightblue" stroke="midnightblue" points="1211.52,-13.9 1201.03,-15.38 1210.16,-20.76 1211.52,-13.9"/>
</g>
<!-- Node15&#45;&gt;Node6 -->
<g id="edge19" class="edge">
<title>Node15&#45;&gt;Node6</title>
<path fill="none" stroke="midnightblue" d="M1215.52,-173.89C1210.42,-159.74 1202.77,-131.24 1215,-112 1222.58,-100.07 1255.63,-86.25 1280.85,-77.11"/>
<polygon fill="midnightblue" stroke="midnightblue" points="1282.14,-80.37 1290.41,-73.73 1279.81,-73.77 1282.14,-80.37"/>
</g>
<!-- Node16 -->
<g id="node16" class="node">
<title>Node16</title>
<g id="a_node16"><a xlink:title=" ">
<polygon fill="white" stroke="#bfbfbf" points="1223.5,-112.5 1223.5,-131.5 1282.5,-131.5 1282.5,-112.5 1223.5,-112.5"/>
<text text-anchor="middle" x="1253" y="-119.5" font-family="Helvetica,sans-Serif" font-size="10.00">exception</text>
</a>
</g>
</g>
<!-- Node15&#45;&gt;Node16 -->
<g id="edge18" class="edge">
<title>Node15&#45;&gt;Node16</title>
<path fill="none" stroke="midnightblue" d="M1223.87,-173.98C1228.87,-165.23 1236.79,-151.37 1243.11,-140.31"/>
<polygon fill="midnightblue" stroke="midnightblue" points="1246.22,-141.93 1248.14,-131.51 1240.14,-138.46 1246.22,-141.93"/>
</g>
<!-- Node17 -->
<g id="node17" class="node">
<title>Node17</title>
<g id="a_node17"><a xlink:title=" ">
<polygon fill="white" stroke="#bfbfbf" points="1107.5,-112.5 1107.5,-131.5 1166.5,-131.5 1166.5,-112.5 1107.5,-112.5"/>
<text text-anchor="middle" x="1137" y="-119.5" font-family="Helvetica,sans-Serif" font-size="10.00">stdexcept</text>
</a>
</g>
</g>
<!-- Node15&#45;&gt;Node17 -->
<g id="edge21" class="edge">
<title>Node15&#45;&gt;Node17</title>
<path fill="none" stroke="midnightblue" d="M1207.25,-173.98C1194.22,-164.52 1172.96,-149.1 1157.24,-137.69"/>
<polygon fill="midnightblue" stroke="midnightblue" points="1158.88,-134.55 1148.73,-131.51 1154.77,-140.21 1158.88,-134.55"/>
</g>
<!-- Node18 -->
<g id="node18" class="node">
<title>Node18</title>
<g id="a_node18"><a xlink:href="../../de/dfd/Value_8hpp.html" target="_top" xlink:title=" ">
<polygon fill="white" stroke="black" points="589,-112.5 589,-131.5 685,-131.5 685,-112.5 589,-112.5"/>
<text text-anchor="middle" x="637" y="-119.5" font-family="Helvetica,sans-Serif" font-size="10.00">Ark/VM/Value.hpp</text>
</a>
</g>
</g>
<!-- Node15&#45;&gt;Node18 -->
<g id="edge22" class="edge">
<title>Node15&#45;&gt;Node18</title>
<path fill="none" stroke="midnightblue" d="M1186.89,-173.93C1177.62,-171.71 1167.46,-169.52 1158,-168 991.31,-141.14 791.85,-129.56 695.21,-125.23"/>
<polygon fill="midnightblue" stroke="midnightblue" points="695.2,-121.73 685.06,-124.79 694.89,-128.72 695.2,-121.73"/>
</g>
<!-- Node18&#45;&gt;Node3 -->
<g id="edge23" class="edge">
<title>Node18&#45;&gt;Node3</title>
<path fill="none" stroke="midnightblue" d="M685.41,-115.83C734.22,-109.7 811.25,-97.5 875,-76 893.83,-69.65 896.11,-62.18 915,-56 936.95,-48.82 1083.44,-25.83 1148.72,-15.78"/>
<polygon fill="midnightblue" stroke="midnightblue" points="1149.47,-19.21 1158.83,-14.23 1148.41,-12.29 1149.47,-19.21"/>
</g>
<!-- Node18&#45;&gt;Node5 -->
<g id="edge32" class="edge">
<title>Node18&#45;&gt;Node5</title>
<path fill="none" stroke="midnightblue" d="M685.14,-113.3C726.58,-105.96 787.63,-93.44 839,-76 858.96,-69.22 862.63,-64.32 882,-56 910.78,-43.64 944.16,-30.61 967.33,-21.78"/>
<polygon fill="midnightblue" stroke="midnightblue" points="968.79,-24.96 976.9,-18.14 966.31,-18.42 968.79,-24.96"/>
</g>
<!-- Node18&#45;&gt;Node6 -->
<g id="edge25" class="edge">
<title>Node18&#45;&gt;Node6</title>
<path fill="none" stroke="midnightblue" d="M685.32,-118.74C813.87,-112.53 1162.25,-94.47 1276,-76 1277.47,-75.76 1278.97,-75.49 1280.48,-75.19"/>
<polygon fill="midnightblue" stroke="midnightblue" points="1281.42,-78.57 1290.4,-72.96 1279.88,-71.74 1281.42,-78.57"/>
</g>
<!-- Node18&#45;&gt;Node9 -->
<g id="edge26" class="edge">
<title>Node18&#45;&gt;Node9</title>
<path fill="none" stroke="midnightblue" d="M685.03,-119.26C813.62,-114.32 1159.08,-99.04 1205,-76 1225.89,-65.52 1242.45,-43.75 1252.22,-28.29"/>
<polygon fill="midnightblue" stroke="midnightblue" points="1255.27,-30.02 1257.41,-19.64 1249.27,-26.42 1255.27,-30.02"/>
</g>
<!-- Node18&#45;&gt;Node12 -->
<g id="edge30" class="edge">
<title>Node18&#45;&gt;Node12</title>
<path fill="none" stroke="midnightblue" d="M588.78,-119.47C459.69,-115.05 113,-100.98 68,-76 49.09,-65.5 35.54,-44.06 27.76,-28.67"/>
<polygon fill="midnightblue" stroke="midnightblue" points="30.92,-27.16 23.48,-19.61 24.59,-30.15 30.92,-27.16"/>
</g>
<!-- Node19 -->
<g id="node19" class="node">
<title>Node19</title>
<g id="a_node19"><a xlink:title=" ">
<polygon fill="white" stroke="#bfbfbf" points="924,-56.5 924,-75.5 968,-75.5 968,-56.5 924,-56.5"/>
<text text-anchor="middle" x="946" y="-63.5" font-family="Helvetica,sans-Serif" font-size="10.00">variant</text>
</a>
</g>
</g>
<!-- Node18&#45;&gt;Node19 -->
<g id="edge24" class="edge">
<title>Node18&#45;&gt;Node19</title>
<path fill="none" stroke="midnightblue" d="M685.05,-114.29C739.76,-106.37 831.68,-92.22 910,-76 911.28,-75.74 912.58,-75.46 913.89,-75.17"/>
<polygon fill="midnightblue" stroke="midnightblue" points="915.04,-78.49 923.98,-72.81 913.45,-71.68 915.04,-78.49"/>
</g>
<!-- Node20 -->
<g id="node20" class="node">
<title>Node20</title>
<g id="a_node20"><a xlink:title=" ">
<polygon fill="white" stroke="#bfbfbf" points="368,-0.5 368,-19.5 422,-19.5 422,-0.5 368,-0.5"/>
<text text-anchor="middle" x="395" y="-7.5" font-family="Helvetica,sans-Serif" font-size="10.00">iostream</text>
</a>
</g>
</g>
<!-- Node18&#45;&gt;Node20 -->
<g id="edge27" class="edge">
<title>Node18&#45;&gt;Node20</title>
<path fill="none" stroke="midnightblue" d="M588.89,-115.64C552,-109.94 500.82,-98.49 461,-76 439.23,-63.7 419.55,-42.37 407.46,-27.51"/>
<polygon fill="midnightblue" stroke="midnightblue" points="410.2,-25.32 401.26,-19.62 404.69,-29.65 410.2,-25.32"/>
</g>
<!-- Node21 -->
<g id="node21" class="node">
<title>Node21</title>
<g id="a_node21"><a xlink:title=" ">
<polygon fill="white" stroke="#bfbfbf" points="130,-0.5 130,-19.5 182,-19.5 182,-0.5 130,-0.5"/>
<text text-anchor="middle" x="156" y="-7.5" font-family="Helvetica,sans-Serif" font-size="10.00">memory</text>
</a>
</g>
</g>
<!-- Node18&#45;&gt;Node21 -->
<g id="edge28" class="edge">
<title>Node18&#45;&gt;Node21</title>
<path fill="none" stroke="midnightblue" d="M588.95,-120.78C459.59,-119.68 111.4,-113.27 77,-76 58.06,-55.48 92.18,-35.65 121.34,-23.4"/>
<polygon fill="midnightblue" stroke="midnightblue" points="122.97,-26.51 130.95,-19.54 120.36,-20.02 122.97,-26.51"/>
</g>
<!-- Node22 -->
<g id="node22" class="node">
<title>Node22</title>
<g id="a_node22"><a xlink:title=" ">
<polygon fill="white" stroke="#bfbfbf" points="470,-56.5 470,-75.5 528,-75.5 528,-56.5 470,-56.5"/>
<text text-anchor="middle" x="499" y="-63.5" font-family="Helvetica,sans-Serif" font-size="10.00">functional</text>
</a>
</g>
</g>
<!-- Node18&#45;&gt;Node22 -->
<g id="edge29" class="edge">
<title>Node18&#45;&gt;Node22</title>
<path fill="none" stroke="midnightblue" d="M615.13,-112.44C592.22,-103.48 556.02,-89.31 530.13,-79.18"/>
<polygon fill="midnightblue" stroke="midnightblue" points="531.35,-75.9 520.76,-75.52 528.8,-82.42 531.35,-75.9"/>
</g>
<!-- Node23 -->
<g id="node23" class="node">
<title>Node23</title>
<g id="a_node23"><a xlink:title=" ">
<polygon fill="white" stroke="#bfbfbf" points="546.5,-56.5 546.5,-75.5 625.5,-75.5 625.5,-56.5 546.5,-56.5"/>
<text text-anchor="middle" x="586" y="-63.5" font-family="Helvetica,sans-Serif" font-size="10.00">Ark/String.hpp</text>
</a>
</g>
</g>
<!-- Node18&#45;&gt;Node23 -->
<g id="edge31" class="edge">
<title>Node18&#45;&gt;Node23</title>
<path fill="none" stroke="midnightblue" d="M628.58,-112.08C621.15,-104.22 610.15,-92.57 601.19,-83.08"/>
<polygon fill="midnightblue" stroke="midnightblue" points="603.68,-80.62 594.26,-75.75 598.59,-85.42 603.68,-80.62"/>
</g>
<!-- Node24 -->
<g id="node24" class="node">
<title>Node24</title>
<g id="a_node24"><a xlink:href="../../dc/dd5/Closure_8hpp.html" target="_top" xlink:title="Subtype of the value type, handling closures.">
<polygon fill="white" stroke="black" points="282,-56.5 282,-75.5 414,-75.5 414,-56.5 282,-56.5"/>
<text text-anchor="middle" x="348" y="-63.5" font-family="Helvetica,sans-Serif" font-size="10.00">Ark/VM/Value/Closure.hpp</text>
</a>
</g>
</g>
<!-- Node18&#45;&gt;Node24 -->
<g id="edge33" class="edge">
<title>Node18&#45;&gt;Node24</title>
<path fill="none" stroke="midnightblue" d="M591.21,-112.44C540.26,-102.92 457.97,-87.55 403.43,-77.36"/>
<polygon fill="midnightblue" stroke="midnightblue" points="404.05,-73.91 393.58,-75.52 402.77,-80.79 404.05,-73.91"/>
</g>
<!-- Node25 -->
<g id="node25" class="node">
<title>Node25</title>
<g id="a_node25"><a xlink:href="../../d5/d40/Platform_8hpp.html" target="_top" xlink:title="ArkScript configuration macros.">
<polygon fill="white" stroke="black" points="209.5,-0.5 209.5,-19.5 298.5,-19.5 298.5,-0.5 209.5,-0.5"/>
<text text-anchor="middle" x="254" y="-7.5" font-family="Helvetica,sans-Serif" font-size="10.00">Ark/Platform.hpp</text>
</a>
</g>
</g>
<!-- Node18&#45;&gt;Node25 -->
<g id="edge44" class="edge">
<title>Node18&#45;&gt;Node25</title>
<path fill="none" stroke="midnightblue" d="M588.86,-121.39C501.03,-121.11 319.57,-115.6 273,-76 259.72,-64.71 255.45,-44.71 254.21,-29.86"/>
<polygon fill="midnightblue" stroke="midnightblue" points="257.7,-29.58 253.75,-19.74 250.71,-29.89 257.7,-29.58"/>
</g>
<!-- Node26 -->
<g id="node26" class="node">
<title>Node26</title>
<g id="a_node26"><a xlink:href="../../dc/d3d/UserType_8hpp.html" target="_top" xlink:title="Subtype of the value, capable of handling any C++ type.">
<polygon fill="white" stroke="black" points="86,-56.5 86,-75.5 226,-75.5 226,-56.5 86,-56.5"/>
<text text-anchor="middle" x="156" y="-63.5" font-family="Helvetica,sans-Serif" font-size="10.00">Ark/VM/Value/UserType.hpp</text>
</a>
</g>
</g>
<!-- Node18&#45;&gt;Node26 -->
<g id="edge38" class="edge">
<title>Node18&#45;&gt;Node26</title>
<path fill="none" stroke="midnightblue" d="M588.68,-115.58C506.11,-106.31 337.05,-87.33 236.44,-76.03"/>
<polygon fill="midnightblue" stroke="midnightblue" points="236.65,-72.53 226.32,-74.89 235.87,-79.49 236.65,-72.53"/>
</g>
<!-- Node27 -->
<g id="node27" class="node">
<title>Node27</title>
<g id="a_node27"><a xlink:href="../../d0/dd2/Profiling_8hpp.html" target="_top" xlink:title=" ">
<polygon fill="white" stroke="black" points="644,-56.5 644,-75.5 732,-75.5 732,-56.5 644,-56.5"/>
<text text-anchor="middle" x="688" y="-63.5" font-family="Helvetica,sans-Serif" font-size="10.00">Ark/Profiling.hpp</text>
</a>
</g>
</g>
<!-- Node18&#45;&gt;Node27 -->
<g id="edge45" class="edge">
<title>Node18&#45;&gt;Node27</title>
<path fill="none" stroke="midnightblue" d="M645.42,-112.08C652.85,-104.22 663.85,-92.57 672.81,-83.08"/>
<polygon fill="midnightblue" stroke="midnightblue" points="675.41,-85.42 679.74,-75.75 670.32,-80.62 675.41,-85.42"/>
</g>
<!-- Node28 -->
<g id="node28" class="node">
<title>Node28</title>
<g id="a_node28"><a xlink:title=" ">
<polygon fill="white" stroke="#bfbfbf" points="750,-56.5 750,-75.5 830,-75.5 830,-56.5 750,-56.5"/>
<text text-anchor="middle" x="790" y="-63.5" font-family="Helvetica,sans-Serif" font-size="10.00">inline/Value.inl</text>
</a>
</g>
</g>
<!-- Node18&#45;&gt;Node28 -->
<g id="edge46" class="edge">
<title>Node18&#45;&gt;Node28</title>
<path fill="none" stroke="midnightblue" d="M661.24,-112.44C686.87,-103.4 727.49,-89.06 756.24,-78.92"/>
<polygon fill="midnightblue" stroke="midnightblue" points="757.61,-82.15 765.87,-75.52 755.28,-75.54 757.61,-82.15"/>
</g>
<!-- Node24&#45;&gt;Node3 -->
<g id="edge35" class="edge">
<title>Node24&#45;&gt;Node3</title>
<path fill="none" stroke="midnightblue" d="M414.01,-59.46C429.42,-58.25 445.78,-57.02 461,-56 754.11,-36.34 828.79,-50.19 1121,-20 1130.04,-19.07 1139.81,-17.72 1148.74,-16.34"/>
<polygon fill="midnightblue" stroke="midnightblue" points="1149.44,-19.78 1158.76,-14.75 1148.34,-12.87 1149.44,-19.78"/>
</g>
<!-- Node24&#45;&gt;Node20 -->
<g id="edge36" class="edge">
<title>Node24&#45;&gt;Node20</title>
<path fill="none" stroke="midnightblue" d="M355.76,-56.08C362.54,-48.3 372.54,-36.8 380.76,-27.37"/>
<polygon fill="midnightblue" stroke="midnightblue" points="383.46,-29.59 387.38,-19.75 378.18,-25 383.46,-29.59"/>
</g>
<!-- Node24&#45;&gt;Node21 -->
<g id="edge34" class="edge">
<title>Node24&#45;&gt;Node21</title>
<path fill="none" stroke="midnightblue" d="M317.58,-56.44C283.46,-46.85 228.17,-31.3 191.95,-21.11"/>
<polygon fill="midnightblue" stroke="midnightblue" points="192.84,-17.73 182.27,-18.39 190.95,-24.47 192.84,-17.73"/>
</g>
<!-- Node24&#45;&gt;Node25 -->
<g id="edge37" class="edge">
<title>Node24&#45;&gt;Node25</title>
<path fill="none" stroke="midnightblue" d="M332.9,-56.32C318.1,-47.82 295.31,-34.73 278.02,-24.8"/>
<polygon fill="midnightblue" stroke="midnightblue" points="279.48,-21.6 269.07,-19.65 275.99,-27.67 279.48,-21.6"/>
</g>
<!-- Node26&#45;&gt;Node3 -->
<g id="edge40" class="edge">
<title>Node26&#45;&gt;Node3</title>
<path fill="none" stroke="midnightblue" d="M226.19,-59.21C241.61,-58.04 257.85,-56.9 273,-56 649.56,-33.53 745.54,-56.5 1121,-20 1130.04,-19.12 1139.81,-17.79 1148.75,-16.42"/>
<polygon fill="midnightblue" stroke="midnightblue" points="1149.45,-19.85 1158.77,-14.81 1148.34,-12.94 1149.45,-19.85"/>
</g>
<!-- Node26&#45;&gt;Node12 -->
<g id="edge41" class="edge">
<title>Node26&#45;&gt;Node12</title>
<path fill="none" stroke="midnightblue" d="M134.45,-56.44C111.57,-47.36 75.26,-32.94 49.68,-22.78"/>
<polygon fill="midnightblue" stroke="midnightblue" points="50.7,-19.43 40.12,-18.99 48.12,-25.93 50.7,-19.43"/>
</g>
<!-- Node26&#45;&gt;Node20 -->
<g id="edge39" class="edge">
<title>Node26&#45;&gt;Node20</title>
<path fill="none" stroke="midnightblue" d="M193.87,-56.44C238.81,-46.29 313.24,-29.47 357.86,-19.39"/>
<polygon fill="midnightblue" stroke="midnightblue" points="358.73,-22.78 367.71,-17.16 357.19,-15.95 358.73,-22.78"/>
</g>
<!-- Node26&#45;&gt;Node21 -->
<g id="edge42" class="edge">
<title>Node26&#45;&gt;Node21</title>
<path fill="none" stroke="midnightblue" d="M156,-56.08C156,-49.01 156,-38.86 156,-29.99"/>
<polygon fill="midnightblue" stroke="midnightblue" points="159.5,-29.75 156,-19.75 152.5,-29.75 159.5,-29.75"/>
</g>
<!-- Node26&#45;&gt;Node25 -->
<g id="edge43" class="edge">
<title>Node26&#45;&gt;Node25</title>
<path fill="none" stroke="midnightblue" d="M171.75,-56.32C187.32,-47.74 211.38,-34.49 229.46,-24.52"/>
<polygon fill="midnightblue" stroke="midnightblue" points="231.22,-27.55 238.29,-19.65 227.85,-21.42 231.22,-27.55"/>
</g>
<!-- Node29&#45;&gt;Node3 -->
<g id="edge52" class="edge">
<title>Node29&#45;&gt;Node3</title>
<path fill="none" stroke="midnightblue" d="M1626.61,-112.39C1599.57,-96.37 1541.93,-62.96 1520,-56 1394.1,-16.06 1355.41,-40.97 1225,-20 1220.45,-19.27 1215.66,-18.41 1210.97,-17.52"/>
<polygon fill="midnightblue" stroke="midnightblue" points="1211.49,-14.05 1201,-15.54 1210.13,-20.92 1211.49,-14.05"/>
</g>
<!-- Node29&#45;&gt;Node6 -->
<g id="edge49" class="edge">
<title>Node29&#45;&gt;Node6</title>
<path fill="none" stroke="midnightblue" d="M1604.36,-113.71C1601.2,-113.12 1598.04,-112.54 1595,-112 1503.02,-95.72 1393.78,-79.2 1341.65,-71.49"/>
<polygon fill="midnightblue" stroke="midnightblue" points="1342.11,-68.02 1331.71,-70.02 1341.09,-74.94 1342.11,-68.02"/>
</g>
<!-- Node29&#45;&gt;Node11 -->
<g id="edge48" class="edge">
<title>Node29&#45;&gt;Node11</title>
<path fill="none" stroke="midnightblue" d="M1673.48,-112.44C1710.07,-102.81 1769.45,-87.17 1808.11,-76.98"/>
<polygon fill="midnightblue" stroke="midnightblue" points="1809.17,-80.32 1817.95,-74.39 1807.39,-73.55 1809.17,-80.32"/>
</g>
<!-- Node29&#45;&gt;Node20 -->
<g id="edge50" class="edge">
<title>Node29&#45;&gt;Node20</title>
<path fill="none" stroke="midnightblue" d="M1618.24,-112.39C1575.04,-96.19 1482.47,-62.25 1449,-56 1247.94,-18.47 595.44,-12.17 432.26,-11.18"/>
<polygon fill="midnightblue" stroke="midnightblue" points="432.25,-7.68 422.23,-11.12 432.21,-14.68 432.25,-7.68"/>
</g>
<!-- Node30 -->
<g id="node30" class="node">
<title>Node30</title>
<g id="a_node30"><a xlink:title=" ">
<polygon fill="white" stroke="#bfbfbf" points="1572.5,-56.5 1572.5,-75.5 1621.5,-75.5 1621.5,-56.5 1572.5,-56.5"/>
<text text-anchor="middle" x="1597" y="-63.5" font-family="Helvetica,sans-Serif" font-size="10.00">fstream</text>
</a>
</g>
</g>
<!-- Node29&#45;&gt;Node30 -->
<g id="edge51" class="edge">
<title>Node29&#45;&gt;Node30</title>
<path fill="none" stroke="midnightblue" d="M1633.73,-112.08C1627.46,-104.38 1618.21,-93.03 1610.57,-83.65"/>
<polygon fill="midnightblue" stroke="midnightblue" points="1613.16,-81.29 1604.13,-75.75 1607.73,-85.71 1613.16,-81.29"/>
</g>
<!-- Node31 -->
<g id="node31" class="node">
<title>Node31</title>
<g id="a_node31"><a xlink:title=" ">
<polygon fill="white" stroke="#bfbfbf" points="1640,-56.5 1640,-75.5 1684,-75.5 1684,-56.5 1640,-56.5"/>
<text text-anchor="middle" x="1662" y="-63.5" font-family="Helvetica,sans-Serif" font-size="10.00">cmath</text>
</a>
</g>
</g>
<!-- Node29&#45;&gt;Node31 -->
<g id="edge53" class="edge">
<title>Node29&#45;&gt;Node31</title>
<path fill="none" stroke="midnightblue" d="M1644.47,-112.08C1647.31,-104.77 1651.43,-94.18 1654.96,-85.1"/>
<polygon fill="midnightblue" stroke="midnightblue" points="1658.23,-86.34 1658.6,-75.75 1651.71,-83.8 1658.23,-86.34"/>
</g>
<!-- Node32 -->
<g id="node32" class="node">
<title>Node32</title>
<g id="a_node32"><a xlink:href="../../d6/de9/Constants_8hpp.html" target="_top" xlink:title="Constants used by ArkScript.">
<polygon fill="white" stroke="black" points="1702,-56.5 1702,-75.5 1800,-75.5 1800,-56.5 1702,-56.5"/>
<text text-anchor="middle" x="1751" y="-63.5" font-family="Helvetica,sans-Serif" font-size="10.00">Ark/Constants.hpp</text>
</a>
</g>
</g>
<!-- Node29&#45;&gt;Node32 -->
<g id="edge54" class="edge">
<title>Node29&#45;&gt;Node32</title>
<path fill="none" stroke="midnightblue" d="M1658.67,-112.32C1676.39,-103.62 1703.9,-90.12 1724.29,-80.11"/>
<polygon fill="midnightblue" stroke="midnightblue" points="1725.94,-83.2 1733.37,-75.65 1722.85,-76.92 1725.94,-83.2"/>
</g>
<!-- Node32&#45;&gt;Node9 -->
<g id="edge55" class="edge">
<title>Node32&#45;&gt;Node9</title>
<path fill="none" stroke="midnightblue" d="M1701.98,-57.22C1698.94,-56.79 1695.93,-56.38 1693,-56 1548.47,-37.25 1375.87,-21.11 1300.45,-14.37"/>
<polygon fill="midnightblue" stroke="midnightblue" points="1300.31,-10.84 1290.04,-13.44 1299.69,-17.81 1300.31,-10.84"/>
</g>
<!-- Node33 -->
<g id="node33" class="node">
<title>Node33</title>
<g id="a_node33"><a xlink:title=" ">
<polygon fill="white" stroke="#bfbfbf" points="1727,-0.5 1727,-19.5 1775,-19.5 1775,-0.5 1727,-0.5"/>
<text text-anchor="middle" x="1751" y="-7.5" font-family="Helvetica,sans-Serif" font-size="10.00">cstddef</text>
</a>
</g>
</g>
<!-- Node32&#45;&gt;Node33 -->
<g id="edge56" class="edge">
<title>Node32&#45;&gt;Node33</title>
<path fill="none" stroke="midnightblue" d="M1751,-56.08C1751,-49.01 1751,-38.86 1751,-29.99"/>
<polygon fill="midnightblue" stroke="midnightblue" points="1754.5,-29.75 1751,-19.75 1747.5,-29.75 1754.5,-29.75"/>
</g>
<!-- Node34&#45;&gt;Node6 -->
<g id="edge59" class="edge">
<title>Node34&#45;&gt;Node6</title>
<path fill="none" stroke="midnightblue" d="M1404.61,-168.44C1433.67,-155.62 1465.82,-135.18 1449,-112 1436.27,-94.46 1378.34,-80.17 1341.7,-72.69"/>
<polygon fill="midnightblue" stroke="midnightblue" points="1342.03,-69.18 1331.54,-70.67 1340.66,-76.05 1342.03,-69.18"/>
</g>
<!-- Node34&#45;&gt;Node13 -->
<g id="edge58" class="edge">
<title>Node34&#45;&gt;Node13</title>
<path fill="none" stroke="midnightblue" d="M1411.98,-168.4C1446.25,-157.89 1492.41,-143.73 1524.01,-134.04"/>
<polygon fill="midnightblue" stroke="midnightblue" points="1525.2,-137.34 1533.73,-131.06 1523.14,-130.64 1525.2,-137.34"/>
</g>
<!-- Node35 -->
<g id="node35" class="node">
<title>Node35</title>
<g id="a_node35"><a xlink:href="../../d7/dc6/Node_8hpp.html" target="_top" xlink:title="AST node used by the parser, optimizer and compiler.">
<polygon fill="white" stroke="black" points="1300.5,-112.5 1300.5,-131.5 1439.5,-131.5 1439.5,-112.5 1300.5,-112.5"/>
<text text-anchor="middle" x="1370" y="-119.5" font-family="Helvetica,sans-Serif" font-size="10.00">Ark/Compiler/AST/Node.hpp</text>
</a>
</g>
</g>
<!-- Node34&#45;&gt;Node35 -->
<g id="edge60" class="edge">
<title>Node34&#45;&gt;Node35</title>
<path fill="none" stroke="midnightblue" d="M1366.95,-168.4C1367.48,-160.47 1368.15,-150.46 1368.73,-141.86"/>
<polygon fill="midnightblue" stroke="midnightblue" points="1372.24,-141.87 1369.42,-131.66 1365.26,-141.4 1372.24,-141.87"/>
</g>
<!-- Node35&#45;&gt;Node3 -->
<g id="edge64" class="edge">
<title>Node35&#45;&gt;Node3</title>
<path fill="none" stroke="midnightblue" d="M1368.58,-112.45C1365.83,-98.52 1358.4,-71.01 1341,-56 1331.08,-47.44 1255.09,-28.58 1211.14,-18.2"/>
<polygon fill="midnightblue" stroke="midnightblue" points="1211.78,-14.75 1201.24,-15.87 1210.18,-21.57 1211.78,-14.75"/>
</g>
<!-- Node35&#45;&gt;Node6 -->
<g id="edge63" class="edge">
<title>Node35&#45;&gt;Node6</title>
<path fill="none" stroke="midnightblue" d="M1360.52,-112.32C1351.8,-104.34 1338.66,-92.31 1328.1,-82.65"/>
<polygon fill="midnightblue" stroke="midnightblue" points="1330.39,-80 1320.65,-75.83 1325.67,-85.17 1330.39,-80"/>
</g>
<!-- Node35&#45;&gt;Node8 -->
<g id="edge65" class="edge">
<title>Node35&#45;&gt;Node8</title>
<path fill="none" stroke="midnightblue" d="M1331.81,-112.44C1289.86,-103.04 1222.41,-87.93 1176.93,-77.74"/>
<polygon fill="midnightblue" stroke="midnightblue" points="1177.53,-74.29 1167.01,-75.52 1176,-81.12 1177.53,-74.29"/>
</g>
<!-- Node35&#45;&gt;Node19 -->
<g id="edge61" class="edge">
<title>Node35&#45;&gt;Node19</title>
<path fill="none" stroke="midnightblue" d="M1302.82,-112.44C1210.39,-100.67 1047.61,-79.94 978.5,-71.14"/>
<polygon fill="midnightblue" stroke="midnightblue" points="978.6,-67.62 968.24,-69.83 977.72,-74.57 978.6,-67.62"/>
</g>
<!-- Node36 -->
<g id="node36" class="node">
<title>Node36</title>
<g id="a_node36"><a xlink:title=" ">
<polygon fill="white" stroke="#bfbfbf" points="1388,-56.5 1388,-75.5 1440,-75.5 1440,-56.5 1388,-56.5"/>
<text text-anchor="middle" x="1414" y="-63.5" font-family="Helvetica,sans-Serif" font-size="10.00">ostream</text>
</a>
</g>
</g>
<!-- Node35&#45;&gt;Node36 -->
<g id="edge62" class="edge">
<title>Node35&#45;&gt;Node36</title>
<path fill="none" stroke="midnightblue" d="M1377.27,-112.08C1383.54,-104.38 1392.79,-93.03 1400.43,-83.65"/>
<polygon fill="midnightblue" stroke="midnightblue" points="1403.27,-85.71 1406.87,-75.75 1397.84,-81.29 1403.27,-85.71"/>
</g>
</g>
</svg>
