<?xml version="1.0" encoding="UTF-8" standalone="no"?>
<!DOCTYPE svg PUBLIC "-//W3C//DTD SVG 1.1//EN"
 "http://www.w3.org/Graphics/SVG/1.1/DTD/svg11.dtd">
<!-- Generated by graphviz version 2.43.0 (0)
 -->
<!-- Title: /home/fola/code/Ark/include/Ark/Utils.hpp Pages: 1 -->
<svg width="552pt" height="151pt"
 viewBox="0.00 0.00 551.50 151.00" xmlns="http://www.w3.org/2000/svg" xmlns:xlink="http://www.w3.org/1999/xlink">
<g id="graph0" class="graph" transform="scale(1 1) rotate(0) translate(4 147)">
<title>/home/fola/code/Ark/include/Ark/Utils.hpp</title>
<polygon fill="white" stroke="transparent" points="-4,4 -4,-147 547.5,-147 547.5,4 -4,4"/>
<!-- Node1 -->
<g id="node1" class="node">
<title>Node1</title>
<g id="a_node1"><a xlink:title="Lots of utilities about string, filesystem and more.">
<polygon fill="#bfbfbf" stroke="black" points="189.5,-112.5 189.5,-142.5 310.5,-142.5 310.5,-112.5 189.5,-112.5"/>
<text text-anchor="start" x="197.5" y="-130.5" font-family="Helvetica,sans-Serif" font-size="10.00">/home/fola/code/Ark</text>
<text text-anchor="middle" x="250" y="-119.5" font-family="Helvetica,sans-Serif" font-size="10.00">/include/Ark/Utils.hpp</text>
</a>
</g>
</g>
<!-- Node2 -->
<g id="node2" class="node">
<title>Node2</title>
<g id="a_node2"><a xlink:title=" ">
<polygon fill="white" stroke="#bfbfbf" points="0,-56.5 0,-75.5 64,-75.5 64,-56.5 0,-56.5"/>
<text text-anchor="middle" x="32" y="-63.5" font-family="Helvetica,sans-Serif" font-size="10.00">algorithm</text>
</a>
</g>
</g>
<!-- Node1&#45;&gt;Node2 -->
<g id="edge1" class="edge">
<title>Node1&#45;&gt;Node2</title>
<path fill="none" stroke="midnightblue" d="M198.61,-112.47C160.35,-102.03 108.79,-87.96 73.21,-78.25"/>
<polygon fill="midnightblue" stroke="midnightblue" points="73.73,-74.76 63.17,-75.51 71.89,-81.52 73.73,-74.76"/>
</g>
<!-- Node3 -->
<g id="node3" class="node">
<title>Node3</title>
<g id="a_node3"><a xlink:title=" ">
<polygon fill="white" stroke="#bfbfbf" points="82,-56.5 82,-75.5 126,-75.5 126,-56.5 82,-56.5"/>
<text text-anchor="middle" x="104" y="-63.5" font-family="Helvetica,sans-Serif" font-size="10.00">string</text>
</a>
</g>
</g>
<!-- Node1&#45;&gt;Node3 -->
<g id="edge2" class="edge">
<title>Node1&#45;&gt;Node3</title>
<path fill="none" stroke="midnightblue" d="M215.4,-112.4C190.9,-102.42 158.34,-89.15 134.75,-79.53"/>
<polygon fill="midnightblue" stroke="midnightblue" points="135.83,-76.19 125.24,-75.66 133.18,-82.67 135.83,-76.19"/>
</g>
<!-- Node4 -->
<g id="node4" class="node">
<title>Node4</title>
<g id="a_node4"><a xlink:title=" ">
<polygon fill="white" stroke="#bfbfbf" points="144,-56.5 144,-75.5 204,-75.5 204,-56.5 144,-56.5"/>
<text text-anchor="middle" x="174" y="-63.5" font-family="Helvetica,sans-Serif" font-size="10.00">iostream</text>
</a>
</g>
</g>
<!-- Node1&#45;&gt;Node4 -->
<g id="edge3" class="edge">
<title>Node1&#45;&gt;Node4</title>
<path fill="none" stroke="midnightblue" d="M231.99,-112.4C220.26,-103.22 204.98,-91.26 193.06,-81.92"/>
<polygon fill="midnightblue" stroke="midnightblue" points="195.09,-79.07 185.06,-75.66 190.78,-84.58 195.09,-79.07"/>
</g>
<!-- Node5 -->
<g id="node5" class="node">
<title>Node5</title>
<g id="a_node5"><a xlink:title=" ">
<polygon fill="white" stroke="#bfbfbf" points="222.5,-56.5 222.5,-75.5 277.5,-75.5 277.5,-56.5 222.5,-56.5"/>
<text text-anchor="middle" x="250" y="-63.5" font-family="Helvetica,sans-Serif" font-size="10.00">fstream</text>
</a>
</g>
</g>
<!-- Node1&#45;&gt;Node5 -->
<g id="edge4" class="edge">
<title>Node1&#45;&gt;Node5</title>
<path fill="none" stroke="midnightblue" d="M250,-112.4C250,-104.47 250,-94.46 250,-85.86"/>
<polygon fill="midnightblue" stroke="midnightblue" points="253.5,-85.66 250,-75.66 246.5,-85.66 253.5,-85.66"/>
</g>
<!-- Node6 -->
<g id="node6" class="node">
<title>Node6</title>
<g id="a_node6"><a xlink:title=" ">
<polygon fill="white" stroke="#bfbfbf" points="295.5,-56.5 295.5,-75.5 342.5,-75.5 342.5,-56.5 295.5,-56.5"/>
<text text-anchor="middle" x="319" y="-63.5" font-family="Helvetica,sans-Serif" font-size="10.00">vector</text>
</a>
</g>
</g>
<!-- Node1&#45;&gt;Node6 -->
<g id="edge5" class="edge">
<title>Node1&#45;&gt;Node6</title>
<path fill="none" stroke="midnightblue" d="M266.35,-112.4C276.9,-103.31 290.6,-91.49 301.38,-82.19"/>
<polygon fill="midnightblue" stroke="midnightblue" points="303.67,-84.84 308.96,-75.66 299.1,-79.54 303.67,-84.84"/>
</g>
<!-- Node7 -->
<g id="node7" class="node">
<title>Node7</title>
<g id="a_node7"><a xlink:title=" ">
<polygon fill="white" stroke="#bfbfbf" points="360.5,-56.5 360.5,-75.5 407.5,-75.5 407.5,-56.5 360.5,-56.5"/>
<text text-anchor="middle" x="384" y="-63.5" font-family="Helvetica,sans-Serif" font-size="10.00">cmath</text>
</a>
</g>
</g>
<!-- Node1&#45;&gt;Node7 -->
<g id="edge6" class="edge">
<title>Node1&#45;&gt;Node7</title>
<path fill="none" stroke="midnightblue" d="M281.76,-112.4C304.04,-102.51 333.59,-89.38 355.19,-79.79"/>
<polygon fill="midnightblue" stroke="midnightblue" points="356.78,-82.91 364.5,-75.66 353.94,-76.52 356.78,-82.91"/>
</g>
<!-- Node8 -->
<g id="node8" class="node">
<title>Node8</title>
<g id="a_node8"><a xlink:href="../../d6/de9/Constants_8hpp.html" target="_top" xlink:title="Constants used by ArkScript.">
<polygon fill="white" stroke="black" points="426,-56.5 426,-75.5 532,-75.5 532,-56.5 426,-56.5"/>
<text text-anchor="middle" x="479" y="-63.5" font-family="Helvetica,sans-Serif" font-size="10.00">Ark/Constants.hpp</text>
</a>
</g>
</g>
<!-- Node1&#45;&gt;Node8 -->
<g id="edge7" class="edge">
<title>Node1&#45;&gt;Node8</title>
<path fill="none" stroke="midnightblue" d="M303.98,-112.47C344.35,-101.99 398.8,-87.84 436.19,-78.12"/>
<polygon fill="midnightblue" stroke="midnightblue" points="437.46,-81.41 446.26,-75.51 435.7,-74.63 437.46,-81.41"/>
</g>
<!-- Node9 -->
<g id="node9" class="node">
<title>Node9</title>
<g id="a_node9"><a xlink:title=" ">
<polygon fill="white" stroke="#bfbfbf" points="410,-0.5 410,-19.5 472,-19.5 472,-0.5 410,-0.5"/>
<text text-anchor="middle" x="441" y="-7.5" font-family="Helvetica,sans-Serif" font-size="10.00">cinttypes</text>
</a>
</g>
</g>
<!-- Node8&#45;&gt;Node9 -->
<g id="edge8" class="edge">
<title>Node8&#45;&gt;Node9</title>
<path fill="none" stroke="midnightblue" d="M472.73,-56.08C467.36,-48.46 459.48,-37.26 452.92,-27.94"/>
<polygon fill="midnightblue" stroke="midnightblue" points="455.78,-25.91 447.16,-19.75 450.05,-29.94 455.78,-25.91"/>
</g>
<!-- Node10 -->
<g id="node10" class="node">
<title>Node10</title>
<g id="a_node10"><a xlink:title=" ">
<polygon fill="white" stroke="#bfbfbf" points="490.5,-0.5 490.5,-19.5 543.5,-19.5 543.5,-0.5 490.5,-0.5"/>
<text text-anchor="middle" x="517" y="-7.5" font-family="Helvetica,sans-Serif" font-size="10.00">cstddef</text>
</a>
</g>
</g>
<!-- Node8&#45;&gt;Node10 -->
<g id="edge9" class="edge">
<title>Node8&#45;&gt;Node10</title>
<path fill="none" stroke="midnightblue" d="M485.27,-56.08C490.64,-48.46 498.52,-37.26 505.08,-27.94"/>
<polygon fill="midnightblue" stroke="midnightblue" points="507.95,-29.94 510.84,-19.75 502.22,-25.91 507.95,-29.94"/>
</g>
</g>
</svg>
