<?xml version="1.0" encoding="UTF-8" standalone="no"?>
<!DOCTYPE svg PUBLIC "-//W3C//DTD SVG 1.1//EN"
 "http://www.w3.org/Graphics/SVG/1.1/DTD/svg11.dtd">
<!-- Generated by graphviz version 2.49.0 (20210828.1703)
 -->
<!-- Title: C:/Users/folae/Documents/Code/Big&#45;Projects/ArkScript/Ark/include/Ark/Compiler/MacroProcessor.hpp Pages: 1 -->
<svg width="1846pt" height="341pt"
 viewBox="0.00 0.00 1846.00 341.00" xmlns="http://www.w3.org/2000/svg" xmlns:xlink="http://www.w3.org/1999/xlink">
<g id="graph0" class="graph" transform="scale(1 1) rotate(0) translate(4 337)">
<title>C:/Users/folae/Documents/Code/Big&#45;Projects/ArkScript/Ark/include/Ark/Compiler/MacroProcessor.hpp</title>
<polygon fill="white" stroke="transparent" points="-4,4 -4,-337 1842,-337 1842,4 -4,4"/>
<!-- Node1 -->
<g id="node1" class="node">
<title>Node1</title>
<g id="a_node1"><a xlink:title="Handles the macros and their expansion in ArkScript source code.">
<polygon fill="#bfbfbf" stroke="black" points="584.5,-291.5 584.5,-332.5 805.5,-332.5 805.5,-291.5 584.5,-291.5"/>
<text text-anchor="start" x="592.5" y="-320.5" font-family="Helvetica,sans-Serif" font-size="10.00">C:/Users/folae/Documents</text>
<text text-anchor="start" x="592.5" y="-309.5" font-family="Helvetica,sans-Serif" font-size="10.00">/Code/Big&#45;Projects/ArkScript</text>
<text text-anchor="middle" x="695" y="-298.5" font-family="Helvetica,sans-Serif" font-size="10.00">/Ark/include/Ark/Compiler/MacroProcessor.hpp</text>
</a>
</g>
</g>
<!-- Node2 -->
<g id="node2" class="node">
<title>Node2</title>
<g id="a_node2"><a xlink:href="../../d7/dc6/Node_8hpp.html" target="_top" xlink:title="AST node used by the parser, optimizer and compiler.">
<polygon fill="white" stroke="black" points="226.5,-112.5 226.5,-131.5 343.5,-131.5 343.5,-112.5 226.5,-112.5"/>
<text text-anchor="middle" x="285" y="-119.5" font-family="Helvetica,sans-Serif" font-size="10.00">Ark/Compiler/Node.hpp</text>
</a>
</g>
</g>
<!-- Node1&#45;&gt;Node2 -->
<g id="edge1" class="edge">
<title>Node1&#45;&gt;Node2</title>
<path fill="none" stroke="midnightblue" d="M584.45,-303.3C522.7,-296.08 445.45,-282.09 381,-255 333.7,-235.12 311.2,-233.24 287,-188 279.43,-173.84 279.65,-155.36 281.34,-141.73"/>
<polygon fill="midnightblue" stroke="midnightblue" points="284.84,-142.04 282.98,-131.61 277.93,-140.93 284.84,-142.04"/>
</g>
<!-- Node6 -->
<g id="node6" class="node">
<title>Node6</title>
<g id="a_node6"><a xlink:title=" ">
<polygon fill="white" stroke="#bfbfbf" points="318.5,-0.5 318.5,-19.5 359.5,-19.5 359.5,-0.5 318.5,-0.5"/>
<text text-anchor="middle" x="339" y="-7.5" font-family="Helvetica,sans-Serif" font-size="10.00">string</text>
</a>
</g>
</g>
<!-- Node1&#45;&gt;Node6 -->
<g id="edge57" class="edge">
<title>Node1&#45;&gt;Node6</title>
<path fill="none" stroke="midnightblue" d="M584.46,-304.54C448.82,-295.77 227.11,-278.45 148,-255 77.11,-233.98 0,-252.94 0,-179 0,-179 0,-179 0,-121 0,-71.66 44.59,-75.31 90,-56 164.23,-24.43 260.07,-15 308.34,-12.19"/>
<polygon fill="midnightblue" stroke="midnightblue" points="308.64,-15.68 318.44,-11.66 308.27,-8.69 308.64,-15.68"/>
</g>
<!-- Node8 -->
<g id="node8" class="node">
<title>Node8</title>
<g id="a_node8"><a xlink:title=" ">
<polygon fill="white" stroke="#bfbfbf" points="132.5,-56.5 132.5,-75.5 215.5,-75.5 215.5,-56.5 132.5,-56.5"/>
<text text-anchor="middle" x="174" y="-63.5" font-family="Helvetica,sans-Serif" font-size="10.00">unordered_map</text>
</a>
</g>
</g>
<!-- Node1&#45;&gt;Node8 -->
<g id="edge55" class="edge">
<title>Node1&#45;&gt;Node8</title>
<path fill="none" stroke="midnightblue" d="M584.35,-302.82C488.52,-294.3 358.22,-278.81 312,-255 244.65,-220.31 232.4,-197.3 194,-132 185.49,-117.53 180.26,-99.08 177.3,-85.54"/>
<polygon fill="midnightblue" stroke="midnightblue" points="180.69,-84.64 175.32,-75.51 173.82,-86 180.69,-84.64"/>
</g>
<!-- Node10 -->
<g id="node10" class="node">
<title>Node10</title>
<g id="a_node10"><a xlink:href="../../d2/de9/Exceptions_8hpp.html" target="_top" xlink:title="ArkScript homemade exceptions.">
<polygon fill="white" stroke="black" points="1403,-56.5 1403,-75.5 1505,-75.5 1505,-56.5 1403,-56.5"/>
<text text-anchor="middle" x="1454" y="-63.5" font-family="Helvetica,sans-Serif" font-size="10.00">Ark/Exceptions.hpp</text>
</a>
</g>
</g>
<!-- Node1&#45;&gt;Node10 -->
<g id="edge13" class="edge">
<title>Node1&#45;&gt;Node10</title>
<path fill="none" stroke="midnightblue" d="M805.69,-308.1C923.48,-303.21 1114.73,-290.1 1276,-255 1401.7,-227.64 1483.1,-248.33 1538,-132 1549.55,-107.54 1520.27,-89.76 1493.17,-79.05"/>
<polygon fill="midnightblue" stroke="midnightblue" points="1494.34,-75.75 1483.75,-75.55 1491.91,-82.31 1494.34,-75.75"/>
</g>
<!-- Node13 -->
<g id="node13" class="node">
<title>Node13</title>
<g id="a_node13"><a xlink:href="../../dc/dc5/makeErrorCtx_8hpp.html" target="_top" xlink:title=" ">
<polygon fill="white" stroke="black" points="28.5,-168.5 28.5,-187.5 183.5,-187.5 183.5,-168.5 28.5,-168.5"/>
<text text-anchor="middle" x="106" y="-175.5" font-family="Helvetica,sans-Serif" font-size="10.00">Ark/Compiler/makeErrorCtx.hpp</text>
</a>
</g>
</g>
<!-- Node1&#45;&gt;Node13 -->
<g id="edge14" class="edge">
<title>Node1&#45;&gt;Node13</title>
<path fill="none" stroke="midnightblue" d="M584.38,-305.88C459.64,-298.82 265.39,-283.6 198,-255 166.25,-241.53 136.88,-213.43 120.23,-195.43"/>
<polygon fill="midnightblue" stroke="midnightblue" points="122.8,-193.06 113.51,-187.96 117.59,-197.74 122.8,-193.06"/>
</g>
<!-- Node15 -->
<g id="node15" class="node">
<title>Node15</title>
<g id="a_node15"><a xlink:href="../../dc/d7c/MacroExecutor_8hpp.html" target="_top" xlink:title="The base class for all MacroExecutors.">
<polygon fill="white" stroke="black" points="296.5,-168.5 296.5,-187.5 457.5,-187.5 457.5,-168.5 296.5,-168.5"/>
<text text-anchor="middle" x="377" y="-175.5" font-family="Helvetica,sans-Serif" font-size="10.00">Ark/Compiler/MacroExecutor.hpp</text>
</a>
</g>
</g>
<!-- Node1&#45;&gt;Node15 -->
<g id="edge18" class="edge">
<title>Node1&#45;&gt;Node15</title>
<path fill="none" stroke="midnightblue" d="M584.36,-301.3C513.54,-292.96 430.03,-278.49 403,-255 386.42,-240.59 380.4,-215.15 378.22,-197.7"/>
<polygon fill="midnightblue" stroke="midnightblue" points="381.69,-197.21 377.27,-187.58 374.72,-197.87 381.69,-197.21"/>
</g>
<!-- Node16 -->
<g id="node16" class="node">
<title>Node16</title>
<g id="a_node16"><a xlink:href="../../df/d10/MacroExecutorPipeline_8hpp.html" target="_top" xlink:title="The Chain of Responsibility class for running nodes through MacroExecutors.">
<polygon fill="white" stroke="black" points="412.5,-224.5 412.5,-254.5 559.5,-254.5 559.5,-224.5 412.5,-224.5"/>
<text text-anchor="start" x="420.5" y="-242.5" font-family="Helvetica,sans-Serif" font-size="10.00">Ark/Compiler/MacroExecutors</text>
<text text-anchor="middle" x="486" y="-231.5" font-family="Helvetica,sans-Serif" font-size="10.00">/MacroExecutorPipeline.hpp</text>
</a>
</g>
</g>
<!-- Node1&#45;&gt;Node16 -->
<g id="edge22" class="edge">
<title>Node1&#45;&gt;Node16</title>
<path fill="none" stroke="midnightblue" d="M637.06,-291.46C605.77,-280.9 567.49,-267.99 537.29,-257.8"/>
<polygon fill="midnightblue" stroke="midnightblue" points="538.38,-254.48 527.79,-254.6 536.15,-261.11 538.38,-254.48"/>
</g>
<!-- Node17 -->
<g id="node17" class="node">
<title>Node17</title>
<g id="a_node17"><a xlink:href="../../da/d84/Builtins_8hpp.html" target="_top" xlink:title="Host the declaration of all the ArkScript builtins.">
<polygon fill="white" stroke="black" points="739.5,-230 739.5,-249 860.5,-249 860.5,-230 739.5,-230"/>
<text text-anchor="middle" x="800" y="-237" font-family="Helvetica,sans-Serif" font-size="10.00">Ark/Builtins/Builtins.hpp</text>
</a>
</g>
</g>
<!-- Node1&#45;&gt;Node17 -->
<g id="edge25" class="edge">
<title>Node1&#45;&gt;Node17</title>
<path fill="none" stroke="midnightblue" d="M724.25,-291.36C741.5,-279.78 762.94,-265.39 778.6,-254.87"/>
<polygon fill="midnightblue" stroke="midnightblue" points="780.73,-257.65 787.08,-249.17 776.83,-251.84 780.73,-257.65"/>
</g>
<!-- Node19 -->
<g id="node19" class="node">
<title>Node19</title>
<g id="a_node19"><a xlink:title=" ">
<polygon fill="white" stroke="#bfbfbf" points="1450,-112.5 1450,-131.5 1506,-131.5 1506,-112.5 1450,-112.5"/>
<text text-anchor="middle" x="1478" y="-119.5" font-family="Helvetica,sans-Serif" font-size="10.00">cinttypes</text>
</a>
</g>
</g>
<!-- Node1&#45;&gt;Node19 -->
<g id="edge58" class="edge">
<title>Node1&#45;&gt;Node19</title>
<path fill="none" stroke="midnightblue" d="M776.58,-291.41C943.66,-251.3 1319.21,-161.13 1439.89,-132.15"/>
<polygon fill="midnightblue" stroke="midnightblue" points="1440.87,-135.51 1449.78,-129.78 1439.24,-128.71 1440.87,-135.51"/>
</g>
<!-- Node22 -->
<g id="node22" class="node">
<title>Node22</title>
<g id="a_node22"><a xlink:title=" ">
<polygon fill="white" stroke="#bfbfbf" points="1345,-56.5 1345,-75.5 1385,-75.5 1385,-56.5 1345,-56.5"/>
<text text-anchor="middle" x="1365" y="-63.5" font-family="Helvetica,sans-Serif" font-size="10.00">utility</text>
</a>
</g>
</g>
<!-- Node1&#45;&gt;Node22 -->
<g id="edge56" class="edge">
<title>Node1&#45;&gt;Node22</title>
<path fill="none" stroke="midnightblue" d="M805.73,-303.75C1008.91,-287.86 1428.41,-242.21 1515,-132 1566.58,-66.35 1556.63,-122.99 1395.11,-76.24"/>
<polygon fill="midnightblue" stroke="midnightblue" points="1395.85,-72.81 1385.27,-73.32 1393.86,-79.53 1395.85,-72.81"/>
</g>
<!-- Node29 -->
<g id="node29" class="node">
<title>Node29</title>
<g id="a_node29"><a xlink:title=" ">
<polygon fill="white" stroke="#bfbfbf" points="1638,-230 1638,-249 1694,-249 1694,-230 1638,-230"/>
<text text-anchor="middle" x="1666" y="-237" font-family="Helvetica,sans-Serif" font-size="10.00">algorithm</text>
</a>
</g>
</g>
<!-- Node1&#45;&gt;Node29 -->
<g id="edge54" class="edge">
<title>Node1&#45;&gt;Node29</title>
<path fill="none" stroke="midnightblue" d="M805.84,-308.09C1017.21,-301.93 1470.48,-285.53 1624,-255 1627.7,-254.26 1631.51,-253.28 1635.27,-252.17"/>
<polygon fill="midnightblue" stroke="midnightblue" points="1636.52,-255.45 1644.94,-249.02 1634.35,-248.79 1636.52,-255.45"/>
</g>
<!-- Node30 -->
<g id="node30" class="node">
<title>Node30</title>
<g id="a_node30"><a xlink:title=" ">
<polygon fill="white" stroke="#bfbfbf" points="1712,-230 1712,-249 1838,-249 1838,-230 1712,-230"/>
<text text-anchor="middle" x="1775" y="-237" font-family="Helvetica,sans-Serif" font-size="10.00">inline/MacroProcessor.inl</text>
</a>
</g>
</g>
<!-- Node1&#45;&gt;Node30 -->
<g id="edge59" class="edge">
<title>Node1&#45;&gt;Node30</title>
<path fill="none" stroke="midnightblue" d="M805.85,-310.02C991.97,-307.22 1378.76,-296.44 1703,-255 1711.09,-253.97 1719.64,-252.54 1727.9,-250.99"/>
<polygon fill="midnightblue" stroke="midnightblue" points="1728.66,-254.41 1737.8,-249.05 1727.31,-247.54 1728.66,-254.41"/>
</g>
<!-- Node3 -->
<g id="node3" class="node">
<title>Node3</title>
<g id="a_node3"><a xlink:title=" ">
<polygon fill="white" stroke="#bfbfbf" points="367,-56.5 367,-75.5 411,-75.5 411,-56.5 367,-56.5"/>
<text text-anchor="middle" x="389" y="-63.5" font-family="Helvetica,sans-Serif" font-size="10.00">variant</text>
</a>
</g>
</g>
<!-- Node2&#45;&gt;Node3 -->
<g id="edge2" class="edge">
<title>Node2&#45;&gt;Node3</title>
<path fill="none" stroke="midnightblue" d="M301.71,-112.32C318.31,-103.7 344,-90.36 363.22,-80.39"/>
<polygon fill="midnightblue" stroke="midnightblue" points="365.07,-83.37 372.33,-75.65 361.84,-77.16 365.07,-83.37"/>
</g>
<!-- Node4 -->
<g id="node4" class="node">
<title>Node4</title>
<g id="a_node4"><a xlink:title=" ">
<polygon fill="white" stroke="#bfbfbf" points="710,-56.5 710,-75.5 764,-75.5 764,-56.5 710,-56.5"/>
<text text-anchor="middle" x="737" y="-63.5" font-family="Helvetica,sans-Serif" font-size="10.00">iostream</text>
</a>
</g>
</g>
<!-- Node2&#45;&gt;Node4 -->
<g id="edge3" class="edge">
<title>Node2&#45;&gt;Node4</title>
<path fill="none" stroke="midnightblue" d="M343.63,-114C437.96,-102.73 620.81,-80.88 699.5,-71.48"/>
<polygon fill="midnightblue" stroke="midnightblue" points="700.38,-74.9 709.89,-70.24 699.55,-67.95 700.38,-74.9"/>
</g>
<!-- Node5 -->
<g id="node5" class="node">
<title>Node5</title>
<g id="a_node5"><a xlink:title=" ">
<polygon fill="white" stroke="#bfbfbf" points="429,-56.5 429,-75.5 467,-75.5 467,-56.5 429,-56.5"/>
<text text-anchor="middle" x="448" y="-63.5" font-family="Helvetica,sans-Serif" font-size="10.00">array</text>
</a>
</g>
</g>
<!-- Node2&#45;&gt;Node5 -->
<g id="edge4" class="edge">
<title>Node2&#45;&gt;Node5</title>
<path fill="none" stroke="midnightblue" d="M310.83,-112.44C340.35,-102.66 388.53,-86.7 419.23,-76.53"/>
<polygon fill="midnightblue" stroke="midnightblue" points="420.52,-79.79 428.91,-73.32 418.32,-73.15 420.52,-79.79"/>
</g>
<!-- Node2&#45;&gt;Node6 -->
<g id="edge5" class="edge">
<title>Node2&#45;&gt;Node6</title>
<path fill="none" stroke="midnightblue" d="M293.04,-112.32C300.66,-103.69 311.96,-89.77 319,-76 326.56,-61.22 331.85,-43.06 335.08,-29.7"/>
<polygon fill="midnightblue" stroke="midnightblue" points="338.53,-30.31 337.32,-19.78 331.7,-28.77 338.53,-30.31"/>
</g>
<!-- Node7 -->
<g id="node7" class="node">
<title>Node7</title>
<g id="a_node7"><a xlink:title=" ">
<polygon fill="white" stroke="#bfbfbf" points="503,-56.5 503,-75.5 545,-75.5 545,-56.5 503,-56.5"/>
<text text-anchor="middle" x="524" y="-63.5" font-family="Helvetica,sans-Serif" font-size="10.00">vector</text>
</a>
</g>
</g>
<!-- Node2&#45;&gt;Node7 -->
<g id="edge6" class="edge">
<title>Node2&#45;&gt;Node7</title>
<path fill="none" stroke="midnightblue" d="M322.87,-112.44C369.93,-101.81 449.34,-83.87 492.97,-74.01"/>
<polygon fill="midnightblue" stroke="midnightblue" points="494.01,-77.36 503,-71.75 492.47,-70.54 494.01,-77.36"/>
</g>
<!-- Node2&#45;&gt;Node8 -->
<g id="edge7" class="edge">
<title>Node2&#45;&gt;Node8</title>
<path fill="none" stroke="midnightblue" d="M267.17,-112.32C249.28,-103.62 221.52,-90.12 200.95,-80.11"/>
<polygon fill="midnightblue" stroke="midnightblue" points="202.31,-76.88 191.79,-75.65 199.25,-83.18 202.31,-76.88"/>
</g>
<!-- Node9 -->
<g id="node9" class="node">
<title>Node9</title>
<g id="a_node9"><a xlink:href="../../d5/d40/Platform_8hpp.html" target="_top" xlink:title="ArkScript configuration macros.">
<polygon fill="white" stroke="black" points="806.5,-56.5 806.5,-75.5 895.5,-75.5 895.5,-56.5 806.5,-56.5"/>
<text text-anchor="middle" x="851" y="-63.5" font-family="Helvetica,sans-Serif" font-size="10.00">Ark/Platform.hpp</text>
</a>
</g>
</g>
<!-- Node2&#45;&gt;Node9 -->
<g id="edge8" class="edge">
<title>Node2&#45;&gt;Node9</title>
<path fill="none" stroke="midnightblue" d="M343.63,-116.03C435.31,-108.16 618.13,-92.07 773,-76 780.54,-75.22 788.49,-74.35 796.31,-73.47"/>
<polygon fill="midnightblue" stroke="midnightblue" points="796.93,-76.92 806.47,-72.32 796.14,-69.97 796.93,-76.92"/>
</g>
<!-- Node2&#45;&gt;Node10 -->
<g id="edge9" class="edge">
<title>Node2&#45;&gt;Node10</title>
<path fill="none" stroke="midnightblue" d="M343.62,-119.46C538.99,-114.2 1167.75,-96.21 1392.89,-75.97"/>
<polygon fill="midnightblue" stroke="midnightblue" points="1393.35,-79.44 1402.98,-75.04 1392.7,-72.47 1393.35,-79.44"/>
</g>
<!-- Node12 -->
<g id="node12" class="node">
<title>Node12</title>
<g id="a_node12"><a xlink:title=" ">
<polygon fill="white" stroke="#bfbfbf" points="233.5,-56.5 233.5,-75.5 310.5,-75.5 310.5,-56.5 233.5,-56.5"/>
<text text-anchor="middle" x="272" y="-63.5" font-family="Helvetica,sans-Serif" font-size="10.00">inline/Node.inl</text>
</a>
</g>
</g>
<!-- Node2&#45;&gt;Node12 -->
<g id="edge12" class="edge">
<title>Node2&#45;&gt;Node12</title>
<path fill="none" stroke="midnightblue" d="M282.85,-112.08C281.13,-104.93 278.65,-94.64 276.5,-85.69"/>
<polygon fill="midnightblue" stroke="midnightblue" points="279.85,-84.65 274.11,-75.75 273.04,-86.29 279.85,-84.65"/>
</g>
<!-- Node10&#45;&gt;Node6 -->
<g id="edge11" class="edge">
<title>Node10&#45;&gt;Node6</title>
<path fill="none" stroke="midnightblue" d="M1402.98,-56.97C1399.95,-56.61 1396.94,-56.28 1394,-56 990.16,-17.21 496.14,-11.86 369.64,-11.12"/>
<polygon fill="midnightblue" stroke="midnightblue" points="369.54,-7.62 359.52,-11.06 369.5,-14.62 369.54,-7.62"/>
</g>
<!-- Node11 -->
<g id="node11" class="node">
<title>Node11</title>
<g id="a_node11"><a xlink:title=" ">
<polygon fill="white" stroke="#bfbfbf" points="1424.5,-0.5 1424.5,-19.5 1483.5,-19.5 1483.5,-0.5 1424.5,-0.5"/>
<text text-anchor="middle" x="1454" y="-7.5" font-family="Helvetica,sans-Serif" font-size="10.00">exception</text>
</a>
</g>
</g>
<!-- Node10&#45;&gt;Node11 -->
<g id="edge10" class="edge">
<title>Node10&#45;&gt;Node11</title>
<path fill="none" stroke="midnightblue" d="M1454,-56.08C1454,-49.01 1454,-38.86 1454,-29.99"/>
<polygon fill="midnightblue" stroke="midnightblue" points="1457.5,-29.75 1454,-19.75 1450.5,-29.75 1457.5,-29.75"/>
</g>
<!-- Node13&#45;&gt;Node2 -->
<g id="edge17" class="edge">
<title>Node13&#45;&gt;Node2</title>
<path fill="none" stroke="midnightblue" d="M134.36,-168.44C164.74,-159.28 213.11,-144.69 246.82,-134.52"/>
<polygon fill="midnightblue" stroke="midnightblue" points="248.21,-137.76 256.77,-131.52 246.18,-131.05 248.21,-137.76"/>
</g>
<!-- Node13&#45;&gt;Node6 -->
<g id="edge16" class="edge">
<title>Node13&#45;&gt;Node6</title>
<path fill="none" stroke="midnightblue" d="M95.91,-168.49C82.84,-156.37 62.66,-133.24 71,-112 83.41,-80.39 93.42,-72.7 123,-56 182.63,-22.34 264.3,-13.75 308.16,-11.62"/>
<polygon fill="midnightblue" stroke="midnightblue" points="308.35,-15.12 318.2,-11.22 308.07,-8.13 308.35,-15.12"/>
</g>
<!-- Node14 -->
<g id="node14" class="node">
<title>Node14</title>
<g id="a_node14"><a xlink:title=" ">
<polygon fill="white" stroke="#bfbfbf" points="80,-112.5 80,-131.5 132,-131.5 132,-112.5 80,-112.5"/>
<text text-anchor="middle" x="106" y="-119.5" font-family="Helvetica,sans-Serif" font-size="10.00">sstream</text>
</a>
</g>
</g>
<!-- Node13&#45;&gt;Node14 -->
<g id="edge15" class="edge">
<title>Node13&#45;&gt;Node14</title>
<path fill="none" stroke="midnightblue" d="M106,-168.08C106,-161.01 106,-150.86 106,-141.99"/>
<polygon fill="midnightblue" stroke="midnightblue" points="109.5,-141.75 106,-131.75 102.5,-141.75 109.5,-141.75"/>
</g>
<!-- Node15&#45;&gt;Node2 -->
<g id="edge21" class="edge">
<title>Node15&#45;&gt;Node2</title>
<path fill="none" stroke="midnightblue" d="M362.22,-168.32C347.73,-159.82 325.43,-146.73 308.51,-136.8"/>
<polygon fill="midnightblue" stroke="midnightblue" points="310.14,-133.7 299.74,-131.65 306.6,-139.74 310.14,-133.7"/>
</g>
<!-- Node15&#45;&gt;Node7 -->
<g id="edge20" class="edge">
<title>Node15&#45;&gt;Node7</title>
<path fill="none" stroke="midnightblue" d="M388.53,-168.37C413.55,-149.65 473.02,-105.15 504.18,-81.83"/>
<polygon fill="midnightblue" stroke="midnightblue" points="506.61,-84.39 512.52,-75.59 502.42,-78.78 506.61,-84.39"/>
</g>
<!-- Node15&#45;&gt;Node8 -->
<g id="edge19" class="edge">
<title>Node15&#45;&gt;Node8</title>
<path fill="none" stroke="midnightblue" d="M307.26,-168.47C277.3,-162.14 243.23,-151.13 217,-132 200.48,-119.95 188.48,-99.47 181.42,-84.72"/>
<polygon fill="midnightblue" stroke="midnightblue" points="184.61,-83.29 177.33,-75.6 178.23,-86.15 184.61,-83.29"/>
</g>
<!-- Node16&#45;&gt;Node7 -->
<g id="edge23" class="edge">
<title>Node16&#45;&gt;Node7</title>
<path fill="none" stroke="midnightblue" d="M488.14,-224.35C491.83,-200.84 499.93,-152.34 510,-112 512.23,-103.06 515.21,-93.27 517.85,-85.12"/>
<polygon fill="midnightblue" stroke="midnightblue" points="521.19,-86.14 521.02,-75.54 514.55,-83.93 521.19,-86.14"/>
</g>
<!-- Node16&#45;&gt;Node15 -->
<g id="edge24" class="edge">
<title>Node16&#45;&gt;Node15</title>
<path fill="none" stroke="midnightblue" d="M460.17,-224.4C442.53,-214.77 419.3,-202.09 401.87,-192.58"/>
<polygon fill="midnightblue" stroke="midnightblue" points="403.31,-189.38 392.86,-187.66 399.96,-195.52 403.31,-189.38"/>
</g>
<!-- Node17&#45;&gt;Node7 -->
<g id="edge26" class="edge">
<title>Node17&#45;&gt;Node7</title>
<path fill="none" stroke="midnightblue" d="M760.46,-230C708.16,-216.97 615.76,-187.52 557,-132 543.51,-119.26 534.65,-99.79 529.54,-85.48"/>
<polygon fill="midnightblue" stroke="midnightblue" points="532.79,-84.15 526.35,-75.74 526.13,-86.33 532.79,-84.15"/>
</g>
<!-- Node17&#45;&gt;Node10 -->
<g id="edge53" class="edge">
<title>Node17&#45;&gt;Node10</title>
<path fill="none" stroke="midnightblue" d="M860.65,-239.1C1017.55,-239.24 1430.44,-230.09 1515,-132 1530.88,-113.58 1504.28,-93.28 1481.37,-80.35"/>
<polygon fill="midnightblue" stroke="midnightblue" points="1483.01,-77.26 1472.55,-75.61 1479.7,-83.43 1483.01,-77.26"/>
</g>
<!-- Node18 -->
<g id="node18" class="node">
<title>Node18</title>
<g id="a_node18"><a xlink:href="../../de/dfd/Value_8hpp.html" target="_top" xlink:title=" ">
<polygon fill="white" stroke="black" points="856,-168.5 856,-187.5 952,-187.5 952,-168.5 856,-168.5"/>
<text text-anchor="middle" x="904" y="-175.5" font-family="Helvetica,sans-Serif" font-size="10.00">Ark/VM/Value.hpp</text>
</a>
</g>
</g>
<!-- Node17&#45;&gt;Node18 -->
<g id="edge27" class="edge">
<title>Node17&#45;&gt;Node18</title>
<path fill="none" stroke="midnightblue" d="M814.9,-229.98C831.97,-220.21 860.16,-204.08 880.26,-192.58"/>
<polygon fill="midnightblue" stroke="midnightblue" points="882.19,-195.51 889.13,-187.51 878.71,-189.44 882.19,-195.51"/>
</g>
<!-- Node18&#45;&gt;Node3 -->
<g id="edge29" class="edge">
<title>Node18&#45;&gt;Node3</title>
<path fill="none" stroke="midnightblue" d="M855.77,-177.15C780.61,-176.14 631.75,-169.07 512,-132 473.91,-120.21 433.8,-96.59 410.11,-81.31"/>
<polygon fill="midnightblue" stroke="midnightblue" points="411.87,-78.28 401.59,-75.71 408.02,-84.13 411.87,-78.28"/>
</g>
<!-- Node18&#45;&gt;Node4 -->
<g id="edge32" class="edge">
<title>Node18&#45;&gt;Node4</title>
<path fill="none" stroke="midnightblue" d="M855.83,-175.29C791.25,-171.88 681.82,-161.75 657,-132 639.18,-110.64 672.49,-91.26 701.41,-79.32"/>
<polygon fill="midnightblue" stroke="midnightblue" points="702.94,-82.48 710.97,-75.57 700.38,-75.97 702.94,-82.48"/>
</g>
<!-- Node18&#45;&gt;Node5 -->
<g id="edge37" class="edge">
<title>Node18&#45;&gt;Node5</title>
<path fill="none" stroke="midnightblue" d="M855.73,-176.87C787.38,-175.34 659.32,-167.43 557,-132 522.93,-120.2 487.89,-96.93 467.03,-81.67"/>
<polygon fill="midnightblue" stroke="midnightblue" points="469.11,-78.86 459,-75.68 464.92,-84.47 469.11,-78.86"/>
</g>
<!-- Node18&#45;&gt;Node6 -->
<g id="edge30" class="edge">
<title>Node18&#45;&gt;Node6</title>
<path fill="none" stroke="midnightblue" d="M855.65,-175.67C802.53,-172.61 715.77,-162.83 648,-132 599.1,-109.75 602.54,-79.03 554,-56 492.7,-26.91 412.76,-16.52 369.69,-12.89"/>
<polygon fill="midnightblue" stroke="midnightblue" points="369.81,-9.39 359.57,-12.1 369.27,-16.36 369.81,-9.39"/>
</g>
<!-- Node18&#45;&gt;Node7 -->
<g id="edge28" class="edge">
<title>Node18&#45;&gt;Node7</title>
<path fill="none" stroke="midnightblue" d="M855.71,-174.04C778.7,-168.68 632.06,-155.67 586,-132 564.64,-121.02 546.54,-99.72 535.51,-84.5"/>
<polygon fill="midnightblue" stroke="midnightblue" points="538.16,-82.18 529.59,-75.95 532.4,-86.16 538.16,-82.18"/>
</g>
<!-- Node18&#45;&gt;Node9 -->
<g id="edge50" class="edge">
<title>Node18&#45;&gt;Node9</title>
<path fill="none" stroke="midnightblue" d="M952.21,-175.53C1018.2,-172.38 1131.39,-162.56 1157,-132 1162.71,-125.19 1162.81,-118.73 1157,-112 1140.83,-93.28 989.32,-78.19 905.74,-71.2"/>
<polygon fill="midnightblue" stroke="midnightblue" points="905.91,-67.71 895.65,-70.37 905.33,-74.68 905.91,-67.71"/>
</g>
<!-- Node18&#45;&gt;Node10 -->
<g id="edge43" class="edge">
<title>Node18&#45;&gt;Node10</title>
<path fill="none" stroke="midnightblue" d="M952.31,-175.46C1054.56,-171.68 1289.6,-160.13 1364,-132 1393.13,-120.99 1421.34,-97.99 1438.18,-82.51"/>
<polygon fill="midnightblue" stroke="midnightblue" points="1440.63,-85.02 1445.5,-75.61 1435.82,-79.93 1440.63,-85.02"/>
</g>
<!-- Node18&#45;&gt;Node19 -->
<g id="edge31" class="edge">
<title>Node18&#45;&gt;Node19</title>
<path fill="none" stroke="midnightblue" d="M952.29,-174.97C1045.98,-170.57 1258.83,-158.37 1436,-132 1437.24,-131.81 1438.51,-131.61 1439.78,-131.4"/>
<polygon fill="midnightblue" stroke="midnightblue" points="1440.42,-134.84 1449.62,-129.59 1439.15,-127.96 1440.42,-134.84"/>
</g>
<!-- Node20 -->
<g id="node20" class="node">
<title>Node20</title>
<g id="a_node20"><a xlink:title=" ">
<polygon fill="white" stroke="#bfbfbf" points="1000,-56.5 1000,-75.5 1052,-75.5 1052,-56.5 1000,-56.5"/>
<text text-anchor="middle" x="1026" y="-63.5" font-family="Helvetica,sans-Serif" font-size="10.00">memory</text>
</a>
</g>
</g>
<!-- Node18&#45;&gt;Node20 -->
<g id="edge33" class="edge">
<title>Node18&#45;&gt;Node20</title>
<path fill="none" stroke="midnightblue" d="M952.21,-175.41C1057.66,-171.45 1301.37,-159.4 1326,-132 1331.94,-125.39 1331.8,-118.74 1326,-112 1308.95,-92.2 1138.11,-76.06 1062.12,-69.8"/>
<polygon fill="midnightblue" stroke="midnightblue" points="1062.3,-66.3 1052.05,-68.98 1061.74,-73.28 1062.3,-66.3"/>
</g>
<!-- Node21 -->
<g id="node21" class="node">
<title>Node21</title>
<g id="a_node21"><a xlink:title=" ">
<polygon fill="white" stroke="#bfbfbf" points="666,-112.5 666,-131.5 724,-131.5 724,-112.5 666,-112.5"/>
<text text-anchor="middle" x="695" y="-119.5" font-family="Helvetica,sans-Serif" font-size="10.00">functional</text>
</a>
</g>
</g>
<!-- Node18&#45;&gt;Node21 -->
<g id="edge34" class="edge">
<title>Node18&#45;&gt;Node21</title>
<path fill="none" stroke="midnightblue" d="M870.88,-168.44C833.72,-158.84 773.48,-143.28 734.05,-133.09"/>
<polygon fill="midnightblue" stroke="midnightblue" points="734.81,-129.67 724.25,-130.56 733.06,-136.45 734.81,-129.67"/>
</g>
<!-- Node18&#45;&gt;Node22 -->
<g id="edge35" class="edge">
<title>Node18&#45;&gt;Node22</title>
<path fill="none" stroke="midnightblue" d="M952.32,-174.97C1060.07,-170.02 1312.94,-155.98 1343,-132 1356.8,-120.99 1362,-100.94 1363.93,-86.01"/>
<polygon fill="midnightblue" stroke="midnightblue" points="1367.43,-86.1 1364.85,-75.82 1360.46,-85.47 1367.43,-86.1"/>
</g>
<!-- Node23 -->
<g id="node23" class="node">
<title>Node23</title>
<g id="a_node23"><a xlink:title=" ">
<polygon fill="white" stroke="#bfbfbf" points="864.5,-112.5 864.5,-131.5 943.5,-131.5 943.5,-112.5 864.5,-112.5"/>
<text text-anchor="middle" x="904" y="-119.5" font-family="Helvetica,sans-Serif" font-size="10.00">Ark/String.hpp</text>
</a>
</g>
</g>
<!-- Node18&#45;&gt;Node23 -->
<g id="edge36" class="edge">
<title>Node18&#45;&gt;Node23</title>
<path fill="none" stroke="midnightblue" d="M904,-168.08C904,-161.01 904,-150.86 904,-141.99"/>
<polygon fill="midnightblue" stroke="midnightblue" points="907.5,-141.75 904,-131.75 900.5,-141.75 907.5,-141.75"/>
</g>
<!-- Node24 -->
<g id="node24" class="node">
<title>Node24</title>
<g id="a_node24"><a xlink:href="../../dc/dd5/Closure_8hpp.html" target="_top" xlink:title="Subtype of the value type, handling closures.">
<polygon fill="white" stroke="black" points="742,-112.5 742,-131.5 846,-131.5 846,-112.5 742,-112.5"/>
<text text-anchor="middle" x="794" y="-119.5" font-family="Helvetica,sans-Serif" font-size="10.00">Ark/VM/Closure.hpp</text>
</a>
</g>
</g>
<!-- Node18&#45;&gt;Node24 -->
<g id="edge38" class="edge">
<title>Node18&#45;&gt;Node24</title>
<path fill="none" stroke="midnightblue" d="M886.33,-168.32C868.61,-159.62 841.1,-146.12 820.71,-136.11"/>
<polygon fill="midnightblue" stroke="midnightblue" points="822.15,-132.92 811.63,-131.65 819.06,-139.2 822.15,-132.92"/>
</g>
<!-- Node25 -->
<g id="node25" class="node">
<title>Node25</title>
<g id="a_node25"><a xlink:href="../../dc/d3d/UserType_8hpp.html" target="_top" xlink:title="Subtype of the value, capable of handling any C++ type.">
<polygon fill="white" stroke="black" points="1204.5,-112.5 1204.5,-131.5 1317.5,-131.5 1317.5,-112.5 1204.5,-112.5"/>
<text text-anchor="middle" x="1261" y="-119.5" font-family="Helvetica,sans-Serif" font-size="10.00">Ark/VM/UserType.hpp</text>
</a>
</g>
</g>
<!-- Node18&#45;&gt;Node25 -->
<g id="edge44" class="edge">
<title>Node18&#45;&gt;Node25</title>
<path fill="none" stroke="midnightblue" d="M952.15,-169.72C1014.64,-160.26 1124,-143.72 1194.42,-133.07"/>
<polygon fill="midnightblue" stroke="midnightblue" points="1195.15,-136.5 1204.51,-131.54 1194.1,-129.58 1195.15,-136.5"/>
</g>
<!-- Node27 -->
<g id="node27" class="node">
<title>Node27</title>
<g id="a_node27"><a xlink:href="../../d0/dd2/Profiling_8hpp.html" target="_top" xlink:title=" ">
<polygon fill="white" stroke="black" points="962,-112.5 962,-131.5 1050,-131.5 1050,-112.5 962,-112.5"/>
<text text-anchor="middle" x="1006" y="-119.5" font-family="Helvetica,sans-Serif" font-size="10.00">Ark/Profiling.hpp</text>
</a>
</g>
</g>
<!-- Node18&#45;&gt;Node27 -->
<g id="edge51" class="edge">
<title>Node18&#45;&gt;Node27</title>
<path fill="none" stroke="midnightblue" d="M920.39,-168.32C936.67,-159.7 961.87,-146.36 980.72,-136.39"/>
<polygon fill="midnightblue" stroke="midnightblue" points="982.45,-139.43 989.65,-131.65 979.18,-133.24 982.45,-139.43"/>
</g>
<!-- Node28 -->
<g id="node28" class="node">
<title>Node28</title>
<g id="a_node28"><a xlink:title=" ">
<polygon fill="white" stroke="#bfbfbf" points="1068,-112.5 1068,-131.5 1148,-131.5 1148,-112.5 1068,-112.5"/>
<text text-anchor="middle" x="1108" y="-119.5" font-family="Helvetica,sans-Serif" font-size="10.00">inline/Value.inl</text>
</a>
</g>
</g>
<!-- Node18&#45;&gt;Node28 -->
<g id="edge52" class="edge">
<title>Node18&#45;&gt;Node28</title>
<path fill="none" stroke="midnightblue" d="M936.32,-168.44C971.39,-159.16 1027.5,-144.31 1065.96,-134.13"/>
<polygon fill="midnightblue" stroke="midnightblue" points="1067.06,-137.46 1075.83,-131.52 1065.26,-130.69 1067.06,-137.46"/>
</g>
<!-- Node24&#45;&gt;Node4 -->
<g id="edge41" class="edge">
<title>Node24&#45;&gt;Node4</title>
<path fill="none" stroke="midnightblue" d="M784.84,-112.32C776.5,-104.42 763.97,-92.55 753.82,-82.94"/>
<polygon fill="midnightblue" stroke="midnightblue" points="755.99,-80.17 746.32,-75.83 751.18,-85.25 755.99,-80.17"/>
</g>
<!-- Node24&#45;&gt;Node7 -->
<g id="edge40" class="edge">
<title>Node24&#45;&gt;Node7</title>
<path fill="none" stroke="midnightblue" d="M751.22,-112.44C696.64,-101.53 603.53,-82.91 555.19,-73.24"/>
<polygon fill="midnightblue" stroke="midnightblue" points="555.8,-69.79 545.31,-71.26 554.43,-76.65 555.8,-69.79"/>
</g>
<!-- Node24&#45;&gt;Node9 -->
<g id="edge42" class="edge">
<title>Node24&#45;&gt;Node9</title>
<path fill="none" stroke="midnightblue" d="M803.16,-112.32C811.5,-104.42 824.03,-92.55 834.18,-82.94"/>
<polygon fill="midnightblue" stroke="midnightblue" points="836.82,-85.25 841.68,-75.83 832.01,-80.17 836.82,-85.25"/>
</g>
<!-- Node24&#45;&gt;Node20 -->
<g id="edge39" class="edge">
<title>Node24&#45;&gt;Node20</title>
<path fill="none" stroke="midnightblue" d="M830.76,-112.44C874.41,-102.28 946.73,-85.45 990.03,-75.37"/>
<polygon fill="midnightblue" stroke="midnightblue" points="990.9,-78.76 999.85,-73.09 989.32,-71.94 990.9,-78.76"/>
</g>
<!-- Node25&#45;&gt;Node4 -->
<g id="edge45" class="edge">
<title>Node25&#45;&gt;Node4</title>
<path fill="none" stroke="midnightblue" d="M1204.2,-115.87C1098.3,-106.23 874.41,-85.55 797,-76 789.6,-75.09 781.7,-73.99 774.15,-72.88"/>
<polygon fill="midnightblue" stroke="midnightblue" points="774.55,-69.4 764.14,-71.38 773.51,-76.32 774.55,-69.4"/>
</g>
<!-- Node25&#45;&gt;Node7 -->
<g id="edge46" class="edge">
<title>Node25&#45;&gt;Node7</title>
<path fill="none" stroke="midnightblue" d="M1204.34,-115.94C1188.98,-114.61 1172.36,-113.21 1157,-112 925.89,-93.79 647.05,-75.11 555.08,-69.04"/>
<polygon fill="midnightblue" stroke="midnightblue" points="555.25,-65.54 545.05,-68.38 554.79,-72.53 555.25,-65.54"/>
</g>
<!-- Node25&#45;&gt;Node9 -->
<g id="edge48" class="edge">
<title>Node25&#45;&gt;Node9</title>
<path fill="none" stroke="midnightblue" d="M1204.42,-113.55C1125.58,-103.16 983.62,-84.47 905.76,-74.21"/>
<polygon fill="midnightblue" stroke="midnightblue" points="906.05,-70.72 895.68,-72.88 905.13,-77.66 906.05,-70.72"/>
</g>
<!-- Node25&#45;&gt;Node22 -->
<g id="edge47" class="edge">
<title>Node25&#45;&gt;Node22</title>
<path fill="none" stroke="midnightblue" d="M1277.71,-112.32C1294.31,-103.7 1320,-90.36 1339.22,-80.39"/>
<polygon fill="midnightblue" stroke="midnightblue" points="1341.07,-83.37 1348.33,-75.65 1337.84,-77.16 1341.07,-83.37"/>
</g>
<!-- Node26 -->
<g id="node26" class="node">
<title>Node26</title>
<g id="a_node26"><a xlink:title=" ">
<polygon fill="white" stroke="#bfbfbf" points="1213,-56.5 1213,-75.5 1309,-75.5 1309,-56.5 1213,-56.5"/>
<text text-anchor="middle" x="1261" y="-63.5" font-family="Helvetica,sans-Serif" font-size="10.00">inline/UserType.inl</text>
</a>
</g>
</g>
<!-- Node25&#45;&gt;Node26 -->
<g id="edge49" class="edge">
<title>Node25&#45;&gt;Node26</title>
<path fill="none" stroke="midnightblue" d="M1261,-112.08C1261,-105.01 1261,-94.86 1261,-85.99"/>
<polygon fill="midnightblue" stroke="midnightblue" points="1264.5,-85.75 1261,-75.75 1257.5,-85.75 1264.5,-85.75"/>
</g>
</g>
</svg>
