<?xml version="1.0" encoding="UTF-8" standalone="no"?>
<!DOCTYPE svg PUBLIC "-//W3C//DTD SVG 1.1//EN"
 "http://www.w3.org/Graphics/SVG/1.1/DTD/svg11.dtd">
<!-- Generated by graphviz version 7.1.0 (20230121.1956)
 -->
<!-- Title: /Users/fola/Documents/ArkScript/Ark/include/Ark/TypeChecker.hpp Pages: 1 -->
<svg width="670pt" height="203pt"
 viewBox="0.00 0.00 670.00 203.00" xmlns="http://www.w3.org/2000/svg" xmlns:xlink="http://www.w3.org/1999/xlink">
<g id="graph0" class="graph" transform="scale(1 1) rotate(0) translate(4 199)">
<title>/Users/fola/Documents/ArkScript/Ark/include/Ark/TypeChecker.hpp</title>
<!-- Node1 -->
<g id="node1" class="node">
<title>Node1</title>
<g id="a_node1"><a xlink:title=" ">
<polygon fill="#999999" stroke="#666666" points="417.5,-195 299.5,-195 299.5,-154 417.5,-154 417.5,-195"/>
<text text-anchor="start" x="307.5" y="-183" font-family="Helvetica,sans-Serif" font-size="10.00">/Users/fola/Documents</text>
<text text-anchor="start" x="307.5" y="-172" font-family="Helvetica,sans-Serif" font-size="10.00">/ArkScript/Ark/include</text>
<text text-anchor="middle" x="358.5" y="-161" font-family="Helvetica,sans-Serif" font-size="10.00">/Ark/TypeChecker.hpp</text>
</a>
</g>
</g>
<!-- Node2 -->
<g id="node2" class="node">
<title>Node2</title>
<g id="a_node2"><a xlink:href="../../d3/d7e/Ark_8hpp.html" target="_top" xlink:title="Includes the needed files to start using ArkScript.">
<polygon fill="white" stroke="#666666" points="207.5,-118 89.5,-118 89.5,-77 207.5,-77 207.5,-118"/>
<text text-anchor="start" x="97.5" y="-106" font-family="Helvetica,sans-Serif" font-size="10.00">/Users/fola/Documents</text>
<text text-anchor="start" x="97.5" y="-95" font-family="Helvetica,sans-Serif" font-size="10.00">/ArkScript/Ark/include</text>
<text text-anchor="middle" x="148.5" y="-84" font-family="Helvetica,sans-Serif" font-size="10.00">/Ark/Ark.hpp</text>
</a>
</g>
</g>
<!-- Node1&#45;&gt;Node2 -->
<g id="edge1" class="edge">
<title>Node1&#45;&gt;Node2</title>
<path fill="none" stroke="#63b8ff" d="M292.2,-149.82C263.99,-139.75 231.46,-128.13 204.49,-118.49"/>
<polygon fill="#63b8ff" stroke="#63b8ff" points="290.76,-153.02 301.35,-153.09 293.11,-146.43 290.76,-153.02"/>
</g>
<!-- Node5 -->
<g id="node5" class="node">
<title>Node5</title>
<g id="a_node5"><a xlink:href="../../d5/d44/Module_8hpp.html" target="_top" xlink:title=" ">
<polygon fill="white" stroke="#666666" points="343.5,-118 225.5,-118 225.5,-77 343.5,-77 343.5,-118"/>
<text text-anchor="start" x="233.5" y="-106" font-family="Helvetica,sans-Serif" font-size="10.00">/Users/fola/Documents</text>
<text text-anchor="start" x="233.5" y="-95" font-family="Helvetica,sans-Serif" font-size="10.00">/ArkScript/Ark/include</text>
<text text-anchor="middle" x="284.5" y="-84" font-family="Helvetica,sans-Serif" font-size="10.00">/Ark/Module.hpp</text>
</a>
</g>
</g>
<!-- Node1&#45;&gt;Node5 -->
<g id="edge4" class="edge">
<title>Node1&#45;&gt;Node5</title>
<path fill="none" stroke="#63b8ff" d="M331.11,-145.74C322.13,-136.64 312.35,-126.72 304.07,-118.33"/>
<polygon fill="#63b8ff" stroke="#63b8ff" points="328.48,-148.06 337.99,-152.72 333.46,-143.14 328.48,-148.06"/>
</g>
<!-- Node6 -->
<g id="node6" class="node">
<title>Node6</title>
<g id="a_node6"><a xlink:href="../../d6/d9a/TypeChecker_8cpp.html" target="_top" xlink:title=" ">
<polygon fill="white" stroke="#666666" points="503,-118 362,-118 362,-77 503,-77 503,-118"/>
<text text-anchor="start" x="370" y="-106" font-family="Helvetica,sans-Serif" font-size="10.00">/Users/fola/Documents</text>
<text text-anchor="start" x="370" y="-95" font-family="Helvetica,sans-Serif" font-size="10.00">/ArkScript/Ark/src/arkreactor</text>
<text text-anchor="middle" x="432.5" y="-84" font-family="Helvetica,sans-Serif" font-size="10.00">/TypeChecker.cpp</text>
</a>
</g>
</g>
<!-- Node1&#45;&gt;Node6 -->
<g id="edge5" class="edge">
<title>Node1&#45;&gt;Node6</title>
<path fill="none" stroke="#63b8ff" d="M385.89,-145.74C394.87,-136.64 404.65,-126.72 412.93,-118.33"/>
<polygon fill="#63b8ff" stroke="#63b8ff" points="383.54,-143.14 379.01,-152.72 388.52,-148.06 383.54,-143.14"/>
</g>
<!-- Node7 -->
<g id="node7" class="node">
<title>Node7</title>
<g id="a_node7"><a xlink:href="../../d2/d27/VM_8cpp.html" target="_top" xlink:title=" ">
<polygon fill="white" stroke="#666666" points="662,-118 521,-118 521,-77 662,-77 662,-118"/>
<text text-anchor="start" x="529" y="-106" font-family="Helvetica,sans-Serif" font-size="10.00">/Users/fola/Documents</text>
<text text-anchor="start" x="529" y="-95" font-family="Helvetica,sans-Serif" font-size="10.00">/ArkScript/Ark/src/arkreactor</text>
<text text-anchor="middle" x="591.5" y="-84" font-family="Helvetica,sans-Serif" font-size="10.00">/VM/VM.cpp</text>
</a>
</g>
</g>
<!-- Node1&#45;&gt;Node7 -->
<g id="edge6" class="edge">
<title>Node1&#45;&gt;Node7</title>
<path fill="none" stroke="#63b8ff" d="M428.59,-150.94C460.79,-140.57 498.65,-128.39 529.77,-118.37"/>
<polygon fill="#63b8ff" stroke="#63b8ff" points="427.79,-147.52 419.34,-153.92 429.93,-154.18 427.79,-147.52"/>
</g>
<!-- Node3 -->
<g id="node3" class="node">
<title>Node3</title>
<g id="a_node3"><a xlink:href="../../dc/d32/Ark_8cpp.html" target="_top" xlink:title=" ">
<polygon fill="white" stroke="#666666" points="141,-41 0,-41 0,0 141,0 141,-41"/>
<text text-anchor="start" x="8" y="-29" font-family="Helvetica,sans-Serif" font-size="10.00">/Users/fola/Documents</text>
<text text-anchor="start" x="8" y="-18" font-family="Helvetica,sans-Serif" font-size="10.00">/ArkScript/Ark/src/arkreactor</text>
<text text-anchor="middle" x="70.5" y="-7" font-family="Helvetica,sans-Serif" font-size="10.00">/Ark.cpp</text>
</a>
</g>
</g>
<!-- Node2&#45;&gt;Node3 -->
<g id="edge2" class="edge">
<title>Node2&#45;&gt;Node3</title>
<path fill="none" stroke="#63b8ff" d="M119.92,-69.02C110.38,-59.84 99.94,-49.81 91.13,-41.33"/>
<polygon fill="#63b8ff" stroke="#63b8ff" points="117.28,-71.34 126.92,-75.75 122.13,-66.29 117.28,-71.34"/>
</g>
<!-- Node4 -->
<g id="node4" class="node">
<title>Node4</title>
<g id="a_node4"><a xlink:href="../../df/d0a/main_8cpp.html" target="_top" xlink:title=" ">
<polygon fill="white" stroke="#666666" points="294,-41 159,-41 159,0 294,0 294,-41"/>
<text text-anchor="start" x="167" y="-29" font-family="Helvetica,sans-Serif" font-size="10.00">/Users/fola/Documents</text>
<text text-anchor="start" x="167" y="-18" font-family="Helvetica,sans-Serif" font-size="10.00">/ArkScript/Ark/src/arkscript</text>
<text text-anchor="middle" x="226.5" y="-7" font-family="Helvetica,sans-Serif" font-size="10.00">/main.cpp</text>
</a>
</g>
</g>
<!-- Node2&#45;&gt;Node4 -->
<g id="edge3" class="edge">
<title>Node2&#45;&gt;Node4</title>
<path fill="none" stroke="#63b8ff" d="M177.08,-69.02C186.62,-59.84 197.06,-49.81 205.87,-41.33"/>
<polygon fill="#63b8ff" stroke="#63b8ff" points="174.87,-66.29 170.08,-75.75 179.72,-71.34 174.87,-66.29"/>
</g>
</g>
</svg>
