<?xml version="1.0" encoding="UTF-8" standalone="no"?>
<!DOCTYPE svg PUBLIC "-//W3C//DTD SVG 1.1//EN"
 "http://www.w3.org/Graphics/SVG/1.1/DTD/svg11.dtd">
<!-- Generated by graphviz version 7.1.0 (20230121.1956)
 -->
<!-- Title: Ark::UserType Pages: 1 -->
<svg width="152pt" height="338pt"
 viewBox="0.00 0.00 152.00 338.00" xmlns="http://www.w3.org/2000/svg" xmlns:xlink="http://www.w3.org/1999/xlink">
<g id="graph0" class="graph" transform="scale(1 1) rotate(0) translate(4 334)">
<title>Ark::UserType</title>
<!-- Node1 -->
<g id="node1" class="node">
<title>Node1</title>
<g id="a_node1"><a xlink:title="A class to be use C++ objects in ArkScript.">
<polygon fill="#999999" stroke="#666666" points="112,-19 32,-19 32,0 112,0 112,-19"/>
<text text-anchor="middle" x="72" y="-7" font-family="Helvetica,sans-Serif" font-size="10.00">Ark::UserType</text>
</a>
</g>
</g>
<!-- Node2 -->
<g id="node2" class="node">
<title>Node2</title>
<g id="a_node2"><a xlink:href="../../d8/d70/structArk_1_1UserType_1_1ControlFuncs.html" target="_top" xlink:title="A structure holding a bunch of pointers to different useful functions related to this usertype.">
<polygon fill="white" stroke="#666666" points="144,-85 0,-85 0,-66 144,-66 144,-85"/>
<text text-anchor="middle" x="72" y="-73" font-family="Helvetica,sans-Serif" font-size="10.00">Ark::UserType::ControlFuncs</text>
</a>
</g>
</g>
<!-- Node2&#45;&gt;Node1 -->
<g id="edge1" class="edge">
<title>Node2&#45;&gt;Node1</title>
<path fill="none" stroke="#9a32cd" stroke-dasharray="5,2" d="M72,-54.18C72,-42.44 72,-28.27 72,-19.32"/>
<polygon fill="#9a32cd" stroke="#9a32cd" points="68.5,-54.09 72,-64.09 75.5,-54.09 68.5,-54.09"/>
<text text-anchor="middle" x="92.5" y="-40" font-family="Helvetica,sans-Serif" font-size="10.00"> m_funcs</text>
</g>
<!-- Node3 -->
<g id="node3" class="node">
<title>Node3</title>
<g id="a_node3"><a xlink:title=" ">
<polygon fill="white" stroke="#666666" points="107.5,-151 36.5,-151 36.5,-132 107.5,-132 107.5,-151"/>
<text text-anchor="middle" x="72" y="-139" font-family="Helvetica,sans-Serif" font-size="10.00">std::ostream</text>
</a>
</g>
</g>
<!-- Node3&#45;&gt;Node2 -->
<g id="edge2" class="edge">
<title>Node3&#45;&gt;Node2</title>
<path fill="none" stroke="#9a32cd" stroke-dasharray="5,2" d="M72,-120.18C72,-108.44 72,-94.27 72,-85.32"/>
<polygon fill="#9a32cd" stroke="#9a32cd" points="68.5,-120.09 72,-130.09 75.5,-120.09 68.5,-120.09"/>
<text text-anchor="middle" x="103.5" y="-106" font-family="Helvetica,sans-Serif" font-size="10.00"> ostream_func</text>
</g>
<!-- Node4 -->
<g id="node4" class="node">
<title>Node4</title>
<g id="a_node4"><a xlink:title=" ">
<polygon fill="white" stroke="#666666" points="122,-218 22,-218 22,-188 122,-188 122,-218"/>
<text text-anchor="start" x="30" y="-206" font-family="Helvetica,sans-Serif" font-size="10.00">std::basic_ostream</text>
<text text-anchor="middle" x="72" y="-195" font-family="Helvetica,sans-Serif" font-size="10.00">&lt; Char &gt;</text>
</a>
</g>
</g>
<!-- Node4&#45;&gt;Node3 -->
<g id="edge3" class="edge">
<title>Node4&#45;&gt;Node3</title>
<path fill="none" stroke="#63b8ff" d="M72,-176.13C72,-167.29 72,-157.99 72,-151.42"/>
<polygon fill="#63b8ff" stroke="#63b8ff" points="68.5,-176.08 72,-186.08 75.5,-176.08 68.5,-176.08"/>
</g>
<!-- Node5 -->
<g id="node5" class="node">
<title>Node5</title>
<g id="a_node5"><a xlink:title=" ">
<polygon fill="white" stroke="#666666" points="130,-274 14,-274 14,-255 130,-255 130,-274"/>
<text text-anchor="middle" x="72" y="-262" font-family="Helvetica,sans-Serif" font-size="10.00">std::basic_ios&lt; Char &gt;</text>
</a>
</g>
</g>
<!-- Node5&#45;&gt;Node4 -->
<g id="edge4" class="edge">
<title>Node5&#45;&gt;Node4</title>
<path fill="none" stroke="#63b8ff" d="M72,-243.46C72,-235.23 72,-225.89 72,-218.36"/>
<polygon fill="#63b8ff" stroke="#63b8ff" points="68.5,-243.21 72,-253.21 75.5,-243.21 68.5,-243.21"/>
</g>
<!-- Node6 -->
<g id="node6" class="node">
<title>Node6</title>
<g id="a_node6"><a xlink:title=" ">
<polygon fill="white" stroke="#666666" points="109.5,-330 34.5,-330 34.5,-311 109.5,-311 109.5,-330"/>
<text text-anchor="middle" x="72" y="-318" font-family="Helvetica,sans-Serif" font-size="10.00">std::ios_base</text>
</a>
</g>
</g>
<!-- Node6&#45;&gt;Node5 -->
<g id="edge5" class="edge">
<title>Node6&#45;&gt;Node5</title>
<path fill="none" stroke="#63b8ff" d="M72,-299.11C72,-290.52 72,-280.97 72,-274.25"/>
<polygon fill="#63b8ff" stroke="#63b8ff" points="68.5,-299.07 72,-309.07 75.5,-299.07 68.5,-299.07"/>
</g>
</g>
</svg>
