<?xml version="1.0" encoding="UTF-8" standalone="no"?>
<!DOCTYPE svg PUBLIC "-//W3C//DTD SVG 1.1//EN"
 "http://www.w3.org/Graphics/SVG/1.1/DTD/svg11.dtd">
<!-- Generated by graphviz version 2.49.0 (20210828.1703)
 -->
<!-- Title: C:/Users/folae/Documents/Code/Big&#45;Projects/ArkScript/Ark/src/arkreactor/Compiler/makeErrorCtx.cpp Pages: 1 -->
<svg width="1156pt" height="285pt"
 viewBox="0.00 0.00 1155.80 285.00" xmlns="http://www.w3.org/2000/svg" xmlns:xlink="http://www.w3.org/1999/xlink">
<g id="graph0" class="graph" transform="scale(1 1) rotate(0) translate(4 281)">
<title>C:/Users/folae/Documents/Code/Big&#45;Projects/ArkScript/Ark/src/arkreactor/Compiler/makeErrorCtx.cpp</title>
<polygon fill="white" stroke="transparent" points="-4,4 -4,-281 1151.8,-281 1151.8,4 -4,4"/>
<!-- Node1 -->
<g id="node1" class="node">
<title>Node1</title>
<g id="a_node1"><a xlink:title=" ">
<polygon fill="#bfbfbf" stroke="black" points="746.8,-224.5 746.8,-276.5 888.8,-276.5 888.8,-224.5 746.8,-224.5"/>
<text text-anchor="start" x="754.8" y="-264.5" font-family="Helvetica,sans-Serif" font-size="10.00">C:/Users/folae/Documents</text>
<text text-anchor="start" x="754.8" y="-253.5" font-family="Helvetica,sans-Serif" font-size="10.00">/Code/Big&#45;Projects/ArkScript</text>
<text text-anchor="start" x="754.8" y="-242.5" font-family="Helvetica,sans-Serif" font-size="10.00">/Ark/src/arkreactor/Compiler</text>
<text text-anchor="middle" x="817.8" y="-231.5" font-family="Helvetica,sans-Serif" font-size="10.00">/makeErrorCtx.cpp</text>
</a>
</g>
</g>
<!-- Node2 -->
<g id="node2" class="node">
<title>Node2</title>
<g id="a_node2"><a xlink:href="../../dc/dc5/makeErrorCtx_8hpp.html" target="_top" xlink:title=" ">
<polygon fill="white" stroke="black" points="358.3,-168.5 358.3,-187.5 513.3,-187.5 513.3,-168.5 358.3,-168.5"/>
<text text-anchor="middle" x="435.8" y="-175.5" font-family="Helvetica,sans-Serif" font-size="10.00">Ark/Compiler/makeErrorCtx.hpp</text>
</a>
</g>
</g>
<!-- Node1&#45;&gt;Node2 -->
<g id="edge1" class="edge">
<title>Node1&#45;&gt;Node2</title>
<path fill="none" stroke="midnightblue" d="M746.4,-236.32C672.76,-222.73 559.44,-201.82 491.96,-189.36"/>
<polygon fill="midnightblue" stroke="midnightblue" points="492.41,-185.89 481.94,-187.51 491.14,-192.77 492.41,-185.89"/>
</g>
<!-- Node9 -->
<g id="node9" class="node">
<title>Node9</title>
<g id="a_node9"><a xlink:title=" ">
<polygon fill="white" stroke="#bfbfbf" points="665.8,-56.5 665.8,-75.5 707.8,-75.5 707.8,-56.5 665.8,-56.5"/>
<text text-anchor="middle" x="686.8" y="-63.5" font-family="Helvetica,sans-Serif" font-size="10.00">vector</text>
</a>
</g>
</g>
<!-- Node1&#45;&gt;Node9 -->
<g id="edge16" class="edge">
<title>Node1&#45;&gt;Node9</title>
<path fill="none" stroke="midnightblue" d="M799.59,-224.12C772.46,-186.33 722.15,-116.25 699.02,-84.02"/>
<polygon fill="midnightblue" stroke="midnightblue" points="701.69,-81.73 693.01,-75.65 696,-85.81 701.69,-81.73"/>
</g>
<!-- Node15 -->
<g id="node15" class="node">
<title>Node15</title>
<g id="a_node15"><a xlink:title=" ">
<polygon fill="white" stroke="#bfbfbf" points="910.8,-168.5 910.8,-187.5 960.8,-187.5 960.8,-168.5 910.8,-168.5"/>
<text text-anchor="middle" x="935.8" y="-175.5" font-family="Helvetica,sans-Serif" font-size="10.00">iomanip</text>
</a>
</g>
</g>
<!-- Node1&#45;&gt;Node15 -->
<g id="edge17" class="edge">
<title>Node1&#45;&gt;Node15</title>
<path fill="none" stroke="midnightblue" d="M859.74,-224.45C877.62,-213.76 897.79,-201.71 912.87,-192.7"/>
<polygon fill="midnightblue" stroke="midnightblue" points="914.74,-195.66 921.53,-187.53 911.15,-189.65 914.74,-195.66"/>
</g>
<!-- Node16 -->
<g id="node16" class="node">
<title>Node16</title>
<g id="a_node16"><a xlink:href="../../d6/de9/Constants_8hpp.html" target="_top" xlink:title="Constants used by ArkScript.">
<polygon fill="white" stroke="black" points="1049.8,-56.5 1049.8,-75.5 1147.8,-75.5 1147.8,-56.5 1049.8,-56.5"/>
<text text-anchor="middle" x="1098.8" y="-63.5" font-family="Helvetica,sans-Serif" font-size="10.00">Ark/Constants.hpp</text>
</a>
</g>
</g>
<!-- Node1&#45;&gt;Node16 -->
<g id="edge18" class="edge">
<title>Node1&#45;&gt;Node16</title>
<path fill="none" stroke="midnightblue" d="M840.02,-224.3C856.06,-207.07 878.85,-184.46 901.8,-168 956.2,-129 1027.75,-96.32 1067.94,-79.41"/>
<polygon fill="midnightblue" stroke="midnightblue" points="1069.33,-82.63 1077.22,-75.56 1066.64,-76.16 1069.33,-82.63"/>
</g>
<!-- Node18 -->
<g id="node18" class="node">
<title>Node18</title>
<g id="a_node18"><a xlink:href="../../d7/d09/Utils_8hpp.html" target="_top" xlink:title="Lots of utilities about string, filesystem and more.">
<polygon fill="white" stroke="black" points="781.3,-112.5 781.3,-131.5 854.3,-131.5 854.3,-112.5 781.3,-112.5"/>
<text text-anchor="middle" x="817.8" y="-119.5" font-family="Helvetica,sans-Serif" font-size="10.00">Ark/Utils.hpp</text>
</a>
</g>
</g>
<!-- Node1&#45;&gt;Node18 -->
<g id="edge20" class="edge">
<title>Node1&#45;&gt;Node18</title>
<path fill="none" stroke="midnightblue" d="M817.8,-224.2C817.8,-199.88 817.8,-163.67 817.8,-141.8"/>
<polygon fill="midnightblue" stroke="midnightblue" points="821.3,-141.55 817.8,-131.55 814.3,-141.55 821.3,-141.55"/>
</g>
<!-- Node3 -->
<g id="node3" class="node">
<title>Node3</title>
<g id="a_node3"><a xlink:title=" ">
<polygon fill="white" stroke="#bfbfbf" points="460.8,-112.5 460.8,-131.5 512.8,-131.5 512.8,-112.5 460.8,-112.5"/>
<text text-anchor="middle" x="486.8" y="-119.5" font-family="Helvetica,sans-Serif" font-size="10.00">sstream</text>
</a>
</g>
</g>
<!-- Node2&#45;&gt;Node3 -->
<g id="edge2" class="edge">
<title>Node2&#45;&gt;Node3</title>
<path fill="none" stroke="midnightblue" d="M444.22,-168.08C451.65,-160.22 462.65,-148.57 471.62,-139.08"/>
<polygon fill="midnightblue" stroke="midnightblue" points="474.22,-141.42 478.54,-131.75 469.13,-136.62 474.22,-141.42"/>
</g>
<!-- Node4 -->
<g id="node4" class="node">
<title>Node4</title>
<g id="a_node4"><a xlink:title=" ">
<polygon fill="white" stroke="#bfbfbf" points="369.3,-0.5 369.3,-19.5 410.3,-19.5 410.3,-0.5 369.3,-0.5"/>
<text text-anchor="middle" x="389.8" y="-7.5" font-family="Helvetica,sans-Serif" font-size="10.00">string</text>
</a>
</g>
</g>
<!-- Node2&#45;&gt;Node4 -->
<g id="edge3" class="edge">
<title>Node2&#45;&gt;Node4</title>
<path fill="none" stroke="midnightblue" d="M358.09,-170.16C246.12,-158.5 48.07,-130.58 4.8,-76 -40.3,-19.1 259.67,-11.91 358.78,-11.08"/>
<polygon fill="midnightblue" stroke="midnightblue" points="359.08,-14.58 369.05,-11.01 359.03,-7.58 359.08,-14.58"/>
</g>
<!-- Node5 -->
<g id="node5" class="node">
<title>Node5</title>
<g id="a_node5"><a xlink:href="../../d7/dc6/Node_8hpp.html" target="_top" xlink:title="AST node used by the parser, optimizer and compiler.">
<polygon fill="white" stroke="black" points="325.3,-112.5 325.3,-131.5 442.3,-131.5 442.3,-112.5 325.3,-112.5"/>
<text text-anchor="middle" x="383.8" y="-119.5" font-family="Helvetica,sans-Serif" font-size="10.00">Ark/Compiler/Node.hpp</text>
</a>
</g>
</g>
<!-- Node2&#45;&gt;Node5 -->
<g id="edge4" class="edge">
<title>Node2&#45;&gt;Node5</title>
<path fill="none" stroke="midnightblue" d="M427.22,-168.08C419.64,-160.22 408.42,-148.57 399.29,-139.08"/>
<polygon fill="midnightblue" stroke="midnightblue" points="401.69,-136.53 392.23,-131.75 396.65,-141.38 401.69,-136.53"/>
</g>
<!-- Node5&#45;&gt;Node4 -->
<g id="edge8" class="edge">
<title>Node5&#45;&gt;Node4</title>
<path fill="none" stroke="midnightblue" d="M384.27,-112.37C385.24,-94.62 387.48,-53.67 388.79,-29.6"/>
<polygon fill="midnightblue" stroke="midnightblue" points="392.28,-29.77 389.33,-19.59 385.29,-29.39 392.28,-29.77"/>
</g>
<!-- Node6 -->
<g id="node6" class="node">
<title>Node6</title>
<g id="a_node6"><a xlink:title=" ">
<polygon fill="white" stroke="#bfbfbf" points="531.8,-56.5 531.8,-75.5 575.8,-75.5 575.8,-56.5 531.8,-56.5"/>
<text text-anchor="middle" x="553.8" y="-63.5" font-family="Helvetica,sans-Serif" font-size="10.00">variant</text>
</a>
</g>
</g>
<!-- Node5&#45;&gt;Node6 -->
<g id="edge5" class="edge">
<title>Node5&#45;&gt;Node6</title>
<path fill="none" stroke="midnightblue" d="M410.74,-112.44C440.9,-102.86 489.74,-87.35 521.82,-77.16"/>
<polygon fill="midnightblue" stroke="midnightblue" points="523.13,-80.42 531.6,-74.05 521.01,-73.75 523.13,-80.42"/>
</g>
<!-- Node7 -->
<g id="node7" class="node">
<title>Node7</title>
<g id="a_node7"><a xlink:title=" ">
<polygon fill="white" stroke="#bfbfbf" points="593.8,-56.5 593.8,-75.5 647.8,-75.5 647.8,-56.5 593.8,-56.5"/>
<text text-anchor="middle" x="620.8" y="-63.5" font-family="Helvetica,sans-Serif" font-size="10.00">iostream</text>
</a>
</g>
</g>
<!-- Node5&#45;&gt;Node7 -->
<g id="edge6" class="edge">
<title>Node5&#45;&gt;Node7</title>
<path fill="none" stroke="midnightblue" d="M423.15,-112.49C461.66,-104.1 522.24,-90.72 583.81,-76.19"/>
<polygon fill="midnightblue" stroke="midnightblue" points="584.77,-79.56 593.69,-73.85 583.16,-72.75 584.77,-79.56"/>
</g>
<!-- Node8 -->
<g id="node8" class="node">
<title>Node8</title>
<g id="a_node8"><a xlink:title=" ">
<polygon fill="white" stroke="#bfbfbf" points="13.8,-56.5 13.8,-75.5 51.8,-75.5 51.8,-56.5 13.8,-56.5"/>
<text text-anchor="middle" x="32.8" y="-63.5" font-family="Helvetica,sans-Serif" font-size="10.00">array</text>
</a>
</g>
</g>
<!-- Node5&#45;&gt;Node8 -->
<g id="edge7" class="edge">
<title>Node5&#45;&gt;Node8</title>
<path fill="none" stroke="midnightblue" d="M325.2,-115.9C262.22,-109.74 159.14,-97.68 61.95,-75.92"/>
<polygon fill="midnightblue" stroke="midnightblue" points="62.49,-72.45 51.96,-73.64 60.93,-79.27 62.49,-72.45"/>
</g>
<!-- Node5&#45;&gt;Node9 -->
<g id="edge9" class="edge">
<title>Node5&#45;&gt;Node9</title>
<path fill="none" stroke="midnightblue" d="M440.87,-112.47C504.2,-102.87 603.4,-87.35 655.76,-75.95"/>
<polygon fill="midnightblue" stroke="midnightblue" points="656.61,-79.35 665.59,-73.73 655.06,-72.52 656.61,-79.35"/>
</g>
<!-- Node10 -->
<g id="node10" class="node">
<title>Node10</title>
<g id="a_node10"><a xlink:title=" ">
<polygon fill="white" stroke="#bfbfbf" points="70.3,-56.5 70.3,-75.5 153.3,-75.5 153.3,-56.5 70.3,-56.5"/>
<text text-anchor="middle" x="111.8" y="-63.5" font-family="Helvetica,sans-Serif" font-size="10.00">unordered_map</text>
</a>
</g>
</g>
<!-- Node5&#45;&gt;Node10 -->
<g id="edge10" class="edge">
<title>Node5&#45;&gt;Node10</title>
<path fill="none" stroke="midnightblue" d="M340.7,-112.44C292.53,-102.88 214.58,-87.4 163.26,-77.21"/>
<polygon fill="midnightblue" stroke="midnightblue" points="163.85,-73.77 153.36,-75.25 162.49,-80.63 163.85,-73.77"/>
</g>
<!-- Node11 -->
<g id="node11" class="node">
<title>Node11</title>
<g id="a_node11"><a xlink:href="../../d5/d40/Platform_8hpp.html" target="_top" xlink:title="ArkScript configuration macros.">
<polygon fill="white" stroke="black" points="171.3,-56.5 171.3,-75.5 260.3,-75.5 260.3,-56.5 171.3,-56.5"/>
<text text-anchor="middle" x="215.8" y="-63.5" font-family="Helvetica,sans-Serif" font-size="10.00">Ark/Platform.hpp</text>
</a>
</g>
</g>
<!-- Node5&#45;&gt;Node11 -->
<g id="edge11" class="edge">
<title>Node5&#45;&gt;Node11</title>
<path fill="none" stroke="midnightblue" d="M357.18,-112.44C328.8,-103.32 283.67,-88.81 252.05,-78.65"/>
<polygon fill="midnightblue" stroke="midnightblue" points="252.89,-75.24 242.3,-75.52 250.75,-81.91 252.89,-75.24"/>
</g>
<!-- Node12 -->
<g id="node12" class="node">
<title>Node12</title>
<g id="a_node12"><a xlink:href="../../d2/de9/Exceptions_8hpp.html" target="_top" xlink:title="ArkScript homemade exceptions.">
<polygon fill="white" stroke="black" points="411.8,-56.5 411.8,-75.5 513.8,-75.5 513.8,-56.5 411.8,-56.5"/>
<text text-anchor="middle" x="462.8" y="-63.5" font-family="Helvetica,sans-Serif" font-size="10.00">Ark/Exceptions.hpp</text>
</a>
</g>
</g>
<!-- Node5&#45;&gt;Node12 -->
<g id="edge12" class="edge">
<title>Node5&#45;&gt;Node12</title>
<path fill="none" stroke="midnightblue" d="M396.5,-112.32C408.7,-103.98 427.38,-91.21 441.81,-81.35"/>
<polygon fill="midnightblue" stroke="midnightblue" points="443.86,-84.19 450.14,-75.65 439.91,-78.41 443.86,-84.19"/>
</g>
<!-- Node14 -->
<g id="node14" class="node">
<title>Node14</title>
<g id="a_node14"><a xlink:title=" ">
<polygon fill="white" stroke="#bfbfbf" points="278.3,-56.5 278.3,-75.5 355.3,-75.5 355.3,-56.5 278.3,-56.5"/>
<text text-anchor="middle" x="316.8" y="-63.5" font-family="Helvetica,sans-Serif" font-size="10.00">inline/Node.inl</text>
</a>
</g>
</g>
<!-- Node5&#45;&gt;Node14 -->
<g id="edge15" class="edge">
<title>Node5&#45;&gt;Node14</title>
<path fill="none" stroke="midnightblue" d="M373.04,-112.32C363.04,-104.26 347.92,-92.08 335.87,-82.37"/>
<polygon fill="midnightblue" stroke="midnightblue" points="337.75,-79.38 327.76,-75.83 333.35,-84.83 337.75,-79.38"/>
</g>
<!-- Node12&#45;&gt;Node4 -->
<g id="edge14" class="edge">
<title>Node12&#45;&gt;Node4</title>
<path fill="none" stroke="midnightblue" d="M451.07,-56.32C439.97,-48.11 423.06,-35.6 409.82,-25.81"/>
<polygon fill="midnightblue" stroke="midnightblue" points="411.87,-22.97 401.75,-19.83 407.7,-28.59 411.87,-22.97"/>
</g>
<!-- Node13 -->
<g id="node13" class="node">
<title>Node13</title>
<g id="a_node13"><a xlink:title=" ">
<polygon fill="white" stroke="#bfbfbf" points="433.3,-0.5 433.3,-19.5 492.3,-19.5 492.3,-0.5 433.3,-0.5"/>
<text text-anchor="middle" x="462.8" y="-7.5" font-family="Helvetica,sans-Serif" font-size="10.00">exception</text>
</a>
</g>
</g>
<!-- Node12&#45;&gt;Node13 -->
<g id="edge13" class="edge">
<title>Node12&#45;&gt;Node13</title>
<path fill="none" stroke="midnightblue" d="M462.8,-56.08C462.8,-49.01 462.8,-38.86 462.8,-29.99"/>
<polygon fill="midnightblue" stroke="midnightblue" points="466.3,-29.75 462.8,-19.75 459.3,-29.75 466.3,-29.75"/>
</g>
<!-- Node17 -->
<g id="node17" class="node">
<title>Node17</title>
<g id="a_node17"><a xlink:title=" ">
<polygon fill="white" stroke="#bfbfbf" points="1070.8,-0.5 1070.8,-19.5 1126.8,-19.5 1126.8,-0.5 1070.8,-0.5"/>
<text text-anchor="middle" x="1098.8" y="-7.5" font-family="Helvetica,sans-Serif" font-size="10.00">cinttypes</text>
</a>
</g>
</g>
<!-- Node16&#45;&gt;Node17 -->
<g id="edge19" class="edge">
<title>Node16&#45;&gt;Node17</title>
<path fill="none" stroke="midnightblue" d="M1098.8,-56.08C1098.8,-49.01 1098.8,-38.86 1098.8,-29.99"/>
<polygon fill="midnightblue" stroke="midnightblue" points="1102.3,-29.75 1098.8,-19.75 1095.3,-29.75 1102.3,-29.75"/>
</g>
<!-- Node18&#45;&gt;Node4 -->
<g id="edge21" class="edge">
<title>Node18&#45;&gt;Node4</title>
<path fill="none" stroke="midnightblue" d="M854.61,-114.55C905.88,-105.19 993.61,-87.69 1002.8,-76 1008.3,-69.01 1008.89,-62.48 1002.8,-56 958.74,-9.11 488.36,-30.06 424.8,-20 423.33,-19.77 421.83,-19.5 420.32,-19.21"/>
<polygon fill="midnightblue" stroke="midnightblue" points="420.92,-15.75 410.4,-16.99 419.39,-22.59 420.92,-15.75"/>
</g>
<!-- Node18&#45;&gt;Node7 -->
<g id="edge22" class="edge">
<title>Node18&#45;&gt;Node7</title>
<path fill="none" stroke="midnightblue" d="M786.59,-112.44C751.68,-102.87 695.18,-87.39 658,-77.2"/>
<polygon fill="midnightblue" stroke="midnightblue" points="658.64,-73.74 648.07,-74.47 656.78,-80.49 658.64,-73.74"/>
</g>
<!-- Node18&#45;&gt;Node9 -->
<g id="edge26" class="edge">
<title>Node18&#45;&gt;Node9</title>
<path fill="none" stroke="midnightblue" d="M797.05,-112.44C775.49,-103.56 741.54,-89.56 717.01,-79.45"/>
<polygon fill="midnightblue" stroke="midnightblue" points="718.04,-76.09 707.46,-75.52 715.37,-82.56 718.04,-76.09"/>
</g>
<!-- Node18&#45;&gt;Node16 -->
<g id="edge28" class="edge">
<title>Node18&#45;&gt;Node16</title>
<path fill="none" stroke="midnightblue" d="M854.54,-113.94C902.86,-104.66 988.16,-88.26 1044.09,-77.51"/>
<polygon fill="midnightblue" stroke="midnightblue" points="1045.02,-80.9 1054.18,-75.58 1043.69,-74.03 1045.02,-80.9"/>
</g>
<!-- Node19 -->
<g id="node19" class="node">
<title>Node19</title>
<g id="a_node19"><a xlink:title=" ">
<polygon fill="white" stroke="#bfbfbf" points="788.3,-56.5 788.3,-75.5 847.3,-75.5 847.3,-56.5 788.3,-56.5"/>
<text text-anchor="middle" x="817.8" y="-63.5" font-family="Helvetica,sans-Serif" font-size="10.00">streambuf</text>
</a>
</g>
</g>
<!-- Node18&#45;&gt;Node19 -->
<g id="edge23" class="edge">
<title>Node18&#45;&gt;Node19</title>
<path fill="none" stroke="midnightblue" d="M817.8,-112.08C817.8,-105.01 817.8,-94.86 817.8,-85.99"/>
<polygon fill="midnightblue" stroke="midnightblue" points="821.3,-85.75 817.8,-75.75 814.3,-85.75 821.3,-85.75"/>
</g>
<!-- Node20 -->
<g id="node20" class="node">
<title>Node20</title>
<g id="a_node20"><a xlink:title=" ">
<polygon fill="white" stroke="#bfbfbf" points="865.3,-56.5 865.3,-75.5 914.3,-75.5 914.3,-56.5 865.3,-56.5"/>
<text text-anchor="middle" x="889.8" y="-63.5" font-family="Helvetica,sans-Serif" font-size="10.00">fstream</text>
</a>
</g>
</g>
<!-- Node18&#45;&gt;Node20 -->
<g id="edge24" class="edge">
<title>Node18&#45;&gt;Node20</title>
<path fill="none" stroke="midnightblue" d="M829.37,-112.32C840.22,-104.18 856.68,-91.84 869.69,-82.09"/>
<polygon fill="midnightblue" stroke="midnightblue" points="872.12,-84.63 878.02,-75.83 867.92,-79.03 872.12,-84.63"/>
</g>
<!-- Node21 -->
<g id="node21" class="node">
<title>Node21</title>
<g id="a_node21"><a xlink:title=" ">
<polygon fill="white" stroke="#bfbfbf" points="932.3,-56.5 932.3,-75.5 993.3,-75.5 993.3,-56.5 932.3,-56.5"/>
<text text-anchor="middle" x="962.8" y="-63.5" font-family="Helvetica,sans-Serif" font-size="10.00">filesystem</text>
</a>
</g>
</g>
<!-- Node18&#45;&gt;Node21 -->
<g id="edge25" class="edge">
<title>Node18&#45;&gt;Node21</title>
<path fill="none" stroke="midnightblue" d="M840.78,-112.44C864.96,-103.44 903.22,-89.19 930.45,-79.05"/>
<polygon fill="midnightblue" stroke="midnightblue" points="931.79,-82.29 939.93,-75.52 929.34,-75.73 931.79,-82.29"/>
</g>
<!-- Node22 -->
<g id="node22" class="node">
<title>Node22</title>
<g id="a_node22"><a xlink:title=" ">
<polygon fill="white" stroke="#bfbfbf" points="725.8,-56.5 725.8,-75.5 769.8,-75.5 769.8,-56.5 725.8,-56.5"/>
<text text-anchor="middle" x="747.8" y="-63.5" font-family="Helvetica,sans-Serif" font-size="10.00">cmath</text>
</a>
</g>
</g>
<!-- Node18&#45;&gt;Node22 -->
<g id="edge27" class="edge">
<title>Node18&#45;&gt;Node22</title>
<path fill="none" stroke="midnightblue" d="M806.56,-112.32C796.01,-104.18 780,-91.84 767.36,-82.09"/>
<polygon fill="midnightblue" stroke="midnightblue" points="769.31,-79.17 759.25,-75.83 765.03,-84.71 769.31,-79.17"/>
</g>
</g>
</svg>
