<?xml version="1.0" encoding="UTF-8" standalone="no"?>
<!DOCTYPE svg PUBLIC "-//W3C//DTD SVG 1.1//EN"
 "http://www.w3.org/Graphics/SVG/1.1/DTD/svg11.dtd">
<!-- Generated by graphviz version 2.49.0 (20210828.1703)
 -->
<!-- Title: C:/Users/folae/Documents/Code/Big&#45;Projects/ArkScript/Ark/src/arkreactor/Compiler/AST/makeErrorCtx.cpp Pages: 1 -->
<svg width="922pt" height="296pt"
 viewBox="0.00 0.00 922.00 296.00" xmlns="http://www.w3.org/2000/svg" xmlns:xlink="http://www.w3.org/1999/xlink">
<g id="graph0" class="graph" transform="scale(1 1) rotate(0) translate(4 292)">
<title>C:/Users/folae/Documents/Code/Big&#45;Projects/ArkScript/Ark/src/arkreactor/Compiler/AST/makeErrorCtx.cpp</title>
<polygon fill="white" stroke="transparent" points="-4,4 -4,-292 918,-292 918,4 -4,4"/>
<!-- Node1 -->
<g id="node1" class="node">
<title>Node1</title>
<g id="a_node1"><a xlink:title=" ">
<polygon fill="#bfbfbf" stroke="black" points="489,-235.5 489,-287.5 631,-287.5 631,-235.5 489,-235.5"/>
<text text-anchor="start" x="497" y="-275.5" font-family="Helvetica,sans-Serif" font-size="10.00">C:/Users/folae/Documents</text>
<text text-anchor="start" x="497" y="-264.5" font-family="Helvetica,sans-Serif" font-size="10.00">/Code/Big&#45;Projects/ArkScript</text>
<text text-anchor="start" x="497" y="-253.5" font-family="Helvetica,sans-Serif" font-size="10.00">/Ark/src/arkreactor/Compiler</text>
<text text-anchor="middle" x="560" y="-242.5" font-family="Helvetica,sans-Serif" font-size="10.00">/AST/makeErrorCtx.cpp</text>
</a>
</g>
</g>
<!-- Node2 -->
<g id="node2" class="node">
<title>Node2</title>
<g id="a_node2"><a xlink:href="../../dc/dc5/makeErrorCtx_8hpp.html" target="_top" xlink:title="Create string error context for AST errors.">
<polygon fill="white" stroke="black" points="197.5,-168.5 197.5,-198.5 340.5,-198.5 340.5,-168.5 197.5,-168.5"/>
<text text-anchor="start" x="205.5" y="-186.5" font-family="Helvetica,sans-Serif" font-size="10.00">Ark/Compiler/AST/makeError</text>
<text text-anchor="middle" x="269" y="-175.5" font-family="Helvetica,sans-Serif" font-size="10.00">Ctx.hpp</text>
</a>
</g>
</g>
<!-- Node1&#45;&gt;Node2 -->
<g id="edge1" class="edge">
<title>Node1&#45;&gt;Node2</title>
<path fill="none" stroke="midnightblue" d="M488.81,-241.91C441.16,-229.46 378.97,-213.22 332.9,-201.19"/>
<polygon fill="midnightblue" stroke="midnightblue" points="333.59,-197.75 323.03,-198.61 331.82,-204.52 333.59,-197.75"/>
</g>
<!-- Node8 -->
<g id="node8" class="node">
<title>Node8</title>
<g id="a_node8"><a xlink:title=" ">
<polygon fill="white" stroke="#bfbfbf" points="322,-0.5 322,-19.5 364,-19.5 364,-0.5 322,-0.5"/>
<text text-anchor="middle" x="343" y="-7.5" font-family="Helvetica,sans-Serif" font-size="10.00">vector</text>
</a>
</g>
</g>
<!-- Node1&#45;&gt;Node8 -->
<g id="edge14" class="edge">
<title>Node1&#45;&gt;Node8</title>
<path fill="none" stroke="midnightblue" d="M538,-235.2C493.64,-184.21 394.56,-70.29 357.43,-27.59"/>
<polygon fill="midnightblue" stroke="midnightblue" points="359.87,-25.07 350.67,-19.82 354.59,-29.66 359.87,-25.07"/>
</g>
<!-- Node13 -->
<g id="node13" class="node">
<title>Node13</title>
<g id="a_node13"><a xlink:title=" ">
<polygon fill="white" stroke="#bfbfbf" points="653,-174 653,-193 703,-193 703,-174 653,-174"/>
<text text-anchor="middle" x="678" y="-181" font-family="Helvetica,sans-Serif" font-size="10.00">iomanip</text>
</a>
</g>
</g>
<!-- Node1&#45;&gt;Node13 -->
<g id="edge15" class="edge">
<title>Node1&#45;&gt;Node13</title>
<path fill="none" stroke="midnightblue" d="M598.96,-235.4C617.93,-223.19 640.03,-208.95 656.04,-198.65"/>
<polygon fill="midnightblue" stroke="midnightblue" points="658.17,-201.44 664.68,-193.08 654.38,-195.55 658.17,-201.44"/>
</g>
<!-- Node14 -->
<g id="node14" class="node">
<title>Node14</title>
<g id="a_node14"><a xlink:href="../../d6/de9/Constants_8hpp.html" target="_top" xlink:title="Constants used by ArkScript.">
<polygon fill="white" stroke="black" points="816,-56.5 816,-75.5 914,-75.5 914,-56.5 816,-56.5"/>
<text text-anchor="middle" x="865" y="-63.5" font-family="Helvetica,sans-Serif" font-size="10.00">Ark/Constants.hpp</text>
</a>
</g>
</g>
<!-- Node1&#45;&gt;Node14 -->
<g id="edge16" class="edge">
<title>Node1&#45;&gt;Node14</title>
<path fill="none" stroke="midnightblue" d="M578.4,-235.12C594.05,-214.9 618.08,-186.94 644,-168 702.39,-125.33 781.67,-94.52 827.69,-78.82"/>
<polygon fill="midnightblue" stroke="midnightblue" points="828.89,-82.1 837.26,-75.61 826.67,-75.47 828.89,-82.1"/>
</g>
<!-- Node16 -->
<g id="node16" class="node">
<title>Node16</title>
<g id="a_node16"><a xlink:href="../../d7/d09/Utils_8hpp.html" target="_top" xlink:title="Lots of utilities about string, filesystem and more.">
<polygon fill="white" stroke="black" points="523.5,-112.5 523.5,-131.5 596.5,-131.5 596.5,-112.5 523.5,-112.5"/>
<text text-anchor="middle" x="560" y="-119.5" font-family="Helvetica,sans-Serif" font-size="10.00">Ark/Utils.hpp</text>
</a>
</g>
</g>
<!-- Node1&#45;&gt;Node16 -->
<g id="edge19" class="edge">
<title>Node1&#45;&gt;Node16</title>
<path fill="none" stroke="midnightblue" d="M560,-235.28C560,-208.24 560,-165.94 560,-141.72"/>
<polygon fill="midnightblue" stroke="midnightblue" points="563.5,-141.7 560,-131.7 556.5,-141.7 563.5,-141.7"/>
</g>
<!-- Node3 -->
<g id="node3" class="node">
<title>Node3</title>
<g id="a_node3"><a xlink:title=" ">
<polygon fill="white" stroke="#bfbfbf" points="105,-112.5 105,-131.5 157,-131.5 157,-112.5 105,-112.5"/>
<text text-anchor="middle" x="131" y="-119.5" font-family="Helvetica,sans-Serif" font-size="10.00">sstream</text>
</a>
</g>
</g>
<!-- Node2&#45;&gt;Node3 -->
<g id="edge2" class="edge">
<title>Node2&#45;&gt;Node3</title>
<path fill="none" stroke="midnightblue" d="M236.3,-168.4C213.25,-158.46 182.64,-145.26 160.37,-135.66"/>
<polygon fill="midnightblue" stroke="midnightblue" points="161.65,-132.4 151.08,-131.66 158.88,-138.83 161.65,-132.4"/>
</g>
<!-- Node4 -->
<g id="node4" class="node">
<title>Node4</title>
<g id="a_node4"><a xlink:title=" ">
<polygon fill="white" stroke="#bfbfbf" points="322.5,-56.5 322.5,-75.5 363.5,-75.5 363.5,-56.5 322.5,-56.5"/>
<text text-anchor="middle" x="343" y="-63.5" font-family="Helvetica,sans-Serif" font-size="10.00">string</text>
</a>
</g>
</g>
<!-- Node2&#45;&gt;Node4 -->
<g id="edge3" class="edge">
<title>Node2&#45;&gt;Node4</title>
<path fill="none" stroke="midnightblue" d="M288.68,-168.34C300.16,-159.15 314.09,-146.26 323,-132 331.9,-117.76 337.08,-99.29 339.93,-85.68"/>
<polygon fill="midnightblue" stroke="midnightblue" points="343.42,-86.06 341.81,-75.59 336.54,-84.78 343.42,-86.06"/>
</g>
<!-- Node5 -->
<g id="node5" class="node">
<title>Node5</title>
<g id="a_node5"><a xlink:href="../../d7/dc6/Node_8hpp.html" target="_top" xlink:title="AST node used by the parser, optimizer and compiler.">
<polygon fill="white" stroke="black" points="175.5,-112.5 175.5,-131.5 314.5,-131.5 314.5,-112.5 175.5,-112.5"/>
<text text-anchor="middle" x="245" y="-119.5" font-family="Helvetica,sans-Serif" font-size="10.00">Ark/Compiler/AST/Node.hpp</text>
</a>
</g>
</g>
<!-- Node2&#45;&gt;Node5 -->
<g id="edge4" class="edge">
<title>Node2&#45;&gt;Node5</title>
<path fill="none" stroke="midnightblue" d="M263.31,-168.4C260,-160.2 255.8,-149.78 252.26,-140.99"/>
<polygon fill="midnightblue" stroke="midnightblue" points="255.48,-139.62 248.49,-131.66 248.99,-142.24 255.48,-139.62"/>
</g>
<!-- Node5&#45;&gt;Node4 -->
<g id="edge7" class="edge">
<title>Node5&#45;&gt;Node4</title>
<path fill="none" stroke="midnightblue" d="M260.75,-112.32C276.32,-103.74 300.38,-90.49 318.46,-80.52"/>
<polygon fill="midnightblue" stroke="midnightblue" points="320.22,-83.55 327.29,-75.65 316.85,-77.42 320.22,-83.55"/>
</g>
<!-- Node6 -->
<g id="node6" class="node">
<title>Node6</title>
<g id="a_node6"><a xlink:title=" ">
<polygon fill="white" stroke="#bfbfbf" points="152,-56.5 152,-75.5 196,-75.5 196,-56.5 152,-56.5"/>
<text text-anchor="middle" x="174" y="-63.5" font-family="Helvetica,sans-Serif" font-size="10.00">variant</text>
</a>
</g>
</g>
<!-- Node5&#45;&gt;Node6 -->
<g id="edge5" class="edge">
<title>Node5&#45;&gt;Node6</title>
<path fill="none" stroke="midnightblue" d="M233.59,-112.32C222.89,-104.18 206.66,-91.84 193.84,-82.09"/>
<polygon fill="midnightblue" stroke="midnightblue" points="195.69,-79.1 185.61,-75.83 191.46,-84.67 195.69,-79.1"/>
</g>
<!-- Node7 -->
<g id="node7" class="node">
<title>Node7</title>
<g id="a_node7"><a xlink:title=" ">
<polygon fill="white" stroke="#bfbfbf" points="214,-56.5 214,-75.5 266,-75.5 266,-56.5 214,-56.5"/>
<text text-anchor="middle" x="240" y="-63.5" font-family="Helvetica,sans-Serif" font-size="10.00">ostream</text>
</a>
</g>
</g>
<!-- Node5&#45;&gt;Node7 -->
<g id="edge6" class="edge">
<title>Node5&#45;&gt;Node7</title>
<path fill="none" stroke="midnightblue" d="M244.17,-112.08C243.52,-105.01 242.58,-94.86 241.76,-85.99"/>
<polygon fill="midnightblue" stroke="midnightblue" points="245.22,-85.39 240.81,-75.75 238.25,-86.03 245.22,-85.39"/>
</g>
<!-- Node5&#45;&gt;Node8 -->
<g id="edge8" class="edge">
<title>Node5&#45;&gt;Node8</title>
<path fill="none" stroke="midnightblue" d="M252.69,-112.37C269.01,-94.05 307.32,-51.05 328.42,-27.36"/>
<polygon fill="midnightblue" stroke="midnightblue" points="331.31,-29.39 335.35,-19.59 326.08,-24.73 331.31,-29.39"/>
</g>
<!-- Node9 -->
<g id="node9" class="node">
<title>Node9</title>
<g id="a_node9"><a xlink:href="../../d8/ddd/Common_8hpp.html" target="_top" xlink:title="Common code for the compiler.">
<polygon fill="white" stroke="black" points="0,-56.5 0,-75.5 134,-75.5 134,-56.5 0,-56.5"/>
<text text-anchor="middle" x="67" y="-63.5" font-family="Helvetica,sans-Serif" font-size="10.00">Ark/Compiler/Common.hpp</text>
</a>
</g>
</g>
<!-- Node5&#45;&gt;Node9 -->
<g id="edge9" class="edge">
<title>Node5&#45;&gt;Node9</title>
<path fill="none" stroke="midnightblue" d="M216.8,-112.44C186.59,-103.28 138.49,-88.69 104.97,-78.52"/>
<polygon fill="midnightblue" stroke="midnightblue" points="105.66,-75.07 95.07,-75.52 103.63,-81.77 105.66,-75.07"/>
</g>
<!-- Node9&#45;&gt;Node8 -->
<g id="edge12" class="edge">
<title>Node9&#45;&gt;Node8</title>
<path fill="none" stroke="midnightblue" d="M110.73,-56.44C166.81,-45.47 262.67,-26.72 311.86,-17.09"/>
<polygon fill="midnightblue" stroke="midnightblue" points="312.76,-20.48 321.9,-15.13 311.42,-13.61 312.76,-20.48"/>
</g>
<!-- Node10 -->
<g id="node10" class="node">
<title>Node10</title>
<g id="a_node10"><a xlink:title=" ">
<polygon fill="white" stroke="#bfbfbf" points="14,-0.5 14,-19.5 52,-19.5 52,-0.5 14,-0.5"/>
<text text-anchor="middle" x="33" y="-7.5" font-family="Helvetica,sans-Serif" font-size="10.00">array</text>
</a>
</g>
</g>
<!-- Node9&#45;&gt;Node10 -->
<g id="edge10" class="edge">
<title>Node9&#45;&gt;Node10</title>
<path fill="none" stroke="midnightblue" d="M61.39,-56.08C56.63,-48.53 49.68,-37.49 43.85,-28.23"/>
<polygon fill="midnightblue" stroke="midnightblue" points="46.8,-26.35 38.51,-19.75 40.88,-30.08 46.8,-26.35"/>
</g>
<!-- Node11 -->
<g id="node11" class="node">
<title>Node11</title>
<g id="a_node11"><a xlink:title=" ">
<polygon fill="white" stroke="#bfbfbf" points="70,-0.5 70,-19.5 134,-19.5 134,-0.5 70,-0.5"/>
<text text-anchor="middle" x="102" y="-7.5" font-family="Helvetica,sans-Serif" font-size="10.00">string_view</text>
</a>
</g>
</g>
<!-- Node9&#45;&gt;Node11 -->
<g id="edge11" class="edge">
<title>Node9&#45;&gt;Node11</title>
<path fill="none" stroke="midnightblue" d="M72.78,-56.08C77.67,-48.53 84.83,-37.49 90.83,-28.23"/>
<polygon fill="midnightblue" stroke="midnightblue" points="93.83,-30.05 96.33,-19.75 87.95,-26.24 93.83,-30.05"/>
</g>
<!-- Node12 -->
<g id="node12" class="node">
<title>Node12</title>
<g id="a_node12"><a xlink:title=" ">
<polygon fill="white" stroke="#bfbfbf" points="550,-0.5 550,-19.5 606,-19.5 606,-0.5 550,-0.5"/>
<text text-anchor="middle" x="578" y="-7.5" font-family="Helvetica,sans-Serif" font-size="10.00">cinttypes</text>
</a>
</g>
</g>
<!-- Node9&#45;&gt;Node12 -->
<g id="edge13" class="edge">
<title>Node9&#45;&gt;Node12</title>
<path fill="none" stroke="midnightblue" d="M134.13,-57C137.13,-56.66 140.09,-56.32 143,-56 289.66,-39.73 464.37,-22.23 539.99,-14.74"/>
<polygon fill="midnightblue" stroke="midnightblue" points="540.39,-18.22 549.99,-13.75 539.7,-11.25 540.39,-18.22"/>
</g>
<!-- Node14&#45;&gt;Node12 -->
<g id="edge17" class="edge">
<title>Node14&#45;&gt;Node12</title>
<path fill="none" stroke="midnightblue" d="M819.52,-56.44C763.36,-45.88 668.83,-28.09 616.24,-18.19"/>
<polygon fill="midnightblue" stroke="midnightblue" points="616.77,-14.73 606.3,-16.32 615.48,-21.61 616.77,-14.73"/>
</g>
<!-- Node15 -->
<g id="node15" class="node">
<title>Node15</title>
<g id="a_node15"><a xlink:title=" ">
<polygon fill="white" stroke="#bfbfbf" points="841,-0.5 841,-19.5 889,-19.5 889,-0.5 841,-0.5"/>
<text text-anchor="middle" x="865" y="-7.5" font-family="Helvetica,sans-Serif" font-size="10.00">cstddef</text>
</a>
</g>
</g>
<!-- Node14&#45;&gt;Node15 -->
<g id="edge18" class="edge">
<title>Node14&#45;&gt;Node15</title>
<path fill="none" stroke="midnightblue" d="M865,-56.08C865,-49.01 865,-38.86 865,-29.99"/>
<polygon fill="midnightblue" stroke="midnightblue" points="868.5,-29.75 865,-19.75 861.5,-29.75 868.5,-29.75"/>
</g>
<!-- Node16&#45;&gt;Node4 -->
<g id="edge20" class="edge">
<title>Node16&#45;&gt;Node4</title>
<path fill="none" stroke="midnightblue" d="M525.62,-112.44C483.62,-101.99 413.25,-84.48 373.23,-74.52"/>
<polygon fill="midnightblue" stroke="midnightblue" points="374.06,-71.12 363.51,-72.1 372.37,-77.92 374.06,-71.12"/>
</g>
<!-- Node16&#45;&gt;Node8 -->
<g id="edge25" class="edge">
<title>Node16&#45;&gt;Node8</title>
<path fill="none" stroke="midnightblue" d="M535.68,-112.46C512.84,-104.13 477.96,-90.62 449,-76 418.45,-60.57 385.09,-39.32 364.11,-25.38"/>
<polygon fill="midnightblue" stroke="midnightblue" points="365.91,-22.38 355.66,-19.71 362.01,-28.19 365.91,-22.38"/>
</g>
<!-- Node16&#45;&gt;Node14 -->
<g id="edge27" class="edge">
<title>Node16&#45;&gt;Node14</title>
<path fill="none" stroke="midnightblue" d="M596.79,-114.49C648.94,-105.25 744.9,-88.26 806.78,-77.31"/>
<polygon fill="midnightblue" stroke="midnightblue" points="807.55,-80.73 816.78,-75.54 806.32,-73.83 807.55,-80.73"/>
</g>
<!-- Node17 -->
<g id="node17" class="node">
<title>Node17</title>
<g id="a_node17"><a xlink:title=" ">
<polygon fill="white" stroke="#bfbfbf" points="458,-56.5 458,-75.5 512,-75.5 512,-56.5 458,-56.5"/>
<text text-anchor="middle" x="485" y="-63.5" font-family="Helvetica,sans-Serif" font-size="10.00">iostream</text>
</a>
</g>
</g>
<!-- Node16&#45;&gt;Node17 -->
<g id="edge21" class="edge">
<title>Node16&#45;&gt;Node17</title>
<path fill="none" stroke="midnightblue" d="M547.95,-112.32C536.54,-104.11 519.17,-91.6 505.57,-81.81"/>
<polygon fill="midnightblue" stroke="midnightblue" points="507.43,-78.84 497.27,-75.83 503.34,-84.52 507.43,-78.84"/>
</g>
<!-- Node18 -->
<g id="node18" class="node">
<title>Node18</title>
<g id="a_node18"><a xlink:title=" ">
<polygon fill="white" stroke="#bfbfbf" points="530.5,-56.5 530.5,-75.5 589.5,-75.5 589.5,-56.5 530.5,-56.5"/>
<text text-anchor="middle" x="560" y="-63.5" font-family="Helvetica,sans-Serif" font-size="10.00">streambuf</text>
</a>
</g>
</g>
<!-- Node16&#45;&gt;Node18 -->
<g id="edge22" class="edge">
<title>Node16&#45;&gt;Node18</title>
<path fill="none" stroke="midnightblue" d="M560,-112.08C560,-105.01 560,-94.86 560,-85.99"/>
<polygon fill="midnightblue" stroke="midnightblue" points="563.5,-85.75 560,-75.75 556.5,-85.75 563.5,-85.75"/>
</g>
<!-- Node19 -->
<g id="node19" class="node">
<title>Node19</title>
<g id="a_node19"><a xlink:title=" ">
<polygon fill="white" stroke="#bfbfbf" points="607.5,-56.5 607.5,-75.5 656.5,-75.5 656.5,-56.5 607.5,-56.5"/>
<text text-anchor="middle" x="632" y="-63.5" font-family="Helvetica,sans-Serif" font-size="10.00">fstream</text>
</a>
</g>
</g>
<!-- Node16&#45;&gt;Node19 -->
<g id="edge23" class="edge">
<title>Node16&#45;&gt;Node19</title>
<path fill="none" stroke="midnightblue" d="M571.57,-112.32C582.42,-104.18 598.88,-91.84 611.88,-82.09"/>
<polygon fill="midnightblue" stroke="midnightblue" points="614.32,-84.63 620.22,-75.83 610.12,-79.03 614.32,-84.63"/>
</g>
<!-- Node20 -->
<g id="node20" class="node">
<title>Node20</title>
<g id="a_node20"><a xlink:title=" ">
<polygon fill="white" stroke="#bfbfbf" points="674.5,-56.5 674.5,-75.5 735.5,-75.5 735.5,-56.5 674.5,-56.5"/>
<text text-anchor="middle" x="705" y="-63.5" font-family="Helvetica,sans-Serif" font-size="10.00">filesystem</text>
</a>
</g>
</g>
<!-- Node16&#45;&gt;Node20 -->
<g id="edge24" class="edge">
<title>Node16&#45;&gt;Node20</title>
<path fill="none" stroke="midnightblue" d="M582.98,-112.44C607.16,-103.44 645.42,-89.19 672.65,-79.05"/>
<polygon fill="midnightblue" stroke="midnightblue" points="673.98,-82.29 682.13,-75.52 671.54,-75.73 673.98,-82.29"/>
</g>
<!-- Node21 -->
<g id="node21" class="node">
<title>Node21</title>
<g id="a_node21"><a xlink:title=" ">
<polygon fill="white" stroke="#bfbfbf" points="754,-56.5 754,-75.5 798,-75.5 798,-56.5 754,-56.5"/>
<text text-anchor="middle" x="776" y="-63.5" font-family="Helvetica,sans-Serif" font-size="10.00">cmath</text>
</a>
</g>
</g>
<!-- Node16&#45;&gt;Node21 -->
<g id="edge26" class="edge">
<title>Node16&#45;&gt;Node21</title>
<path fill="none" stroke="midnightblue" d="M596.63,-112.59C631.99,-104.36 687.28,-91.21 743.85,-76.22"/>
<polygon fill="midnightblue" stroke="midnightblue" points="744.92,-79.56 753.68,-73.61 743.12,-72.8 744.92,-79.56"/>
</g>
</g>
</svg>
