<?xml version="1.0" encoding="UTF-8" standalone="no"?>
<!DOCTYPE svg PUBLIC "-//W3C//DTD SVG 1.1//EN"
 "http://www.w3.org/Graphics/SVG/1.1/DTD/svg11.dtd">
<!-- Generated by graphviz version 2.43.0 (0)
 -->
<!-- Title: Ark::internal::Closure Pages: 1 -->
<svg width="149pt" height="229pt"
 viewBox="0.00 0.00 149.00 229.00" xmlns="http://www.w3.org/2000/svg" xmlns:xlink="http://www.w3.org/1999/xlink">
<g id="graph0" class="graph" transform="scale(1 1) rotate(0) translate(4 225)">
<title>Ark::internal::Closure</title>
<polygon fill="white" stroke="transparent" points="-4,4 -4,-225 145,-225 145,4 -4,4"/>
<!-- Node1 -->
<g id="node1" class="node">
<title>Node1</title>
<g id="a_node1"><a xlink:title="Closure management.">
<polygon fill="#bfbfbf" stroke="black" points="11,-0.5 11,-19.5 130,-19.5 130,-0.5 11,-0.5"/>
<text text-anchor="middle" x="70.5" y="-7.5" font-family="Helvetica,sans-Serif" font-size="10.00">Ark::internal::Closure</text>
</a>
</g>
</g>
<!-- Node2 -->
<g id="node2" class="node">
<title>Node2</title>
<g id="a_node2"><a xlink:title=" ">
<polygon fill="white" stroke="#bfbfbf" points="0,-67.5 0,-86.5 141,-86.5 141,-67.5 0,-67.5"/>
<text text-anchor="middle" x="70.5" y="-74.5" font-family="Helvetica,sans-Serif" font-size="10.00">std::shared_ptr&lt; Scope &gt;</text>
</a>
</g>
</g>
<!-- Node2&#45;&gt;Node1 -->
<g id="edge1" class="edge">
<title>Node2&#45;&gt;Node1</title>
<path fill="none" stroke="#9a32cd" stroke-dasharray="5,2" d="M70.5,-57.04C70.5,-44.67 70.5,-29.12 70.5,-19.63"/>
<polygon fill="#9a32cd" stroke="#9a32cd" points="67,-57.23 70.5,-67.23 74,-57.23 67,-57.23"/>
<text text-anchor="middle" x="94" y="-41" font-family="Helvetica,sans-Serif" font-size="10.00"> m_scope</text>
</g>
<!-- Node3 -->
<g id="node3" class="node">
<title>Node3</title>
<g id="a_node3"><a xlink:title=" ">
<polygon fill="white" stroke="#bfbfbf" points="11.5,-134.5 11.5,-153.5 129.5,-153.5 129.5,-134.5 11.5,-134.5"/>
<text text-anchor="middle" x="70.5" y="-141.5" font-family="Helvetica,sans-Serif" font-size="10.00">std::shared_ptr&lt; T &gt;</text>
</a>
</g>
</g>
<!-- Node3&#45;&gt;Node2 -->
<g id="edge2" class="edge">
<title>Node3&#45;&gt;Node2</title>
<path fill="none" stroke="orange" stroke-dasharray="5,2" d="M70.5,-124.04C70.5,-111.67 70.5,-96.12 70.5,-86.63"/>
<polygon fill="orange" stroke="orange" points="67,-124.23 70.5,-134.23 74,-124.23 67,-124.23"/>
<text text-anchor="middle" x="98" y="-108" font-family="Helvetica,sans-Serif" font-size="10.00"> &lt; Scope &gt;</text>
</g>
<!-- Node4 -->
<g id="node4" class="node">
<title>Node4</title>
<g id="a_node4"><a xlink:title=" ">
<polygon fill="white" stroke="#bfbfbf" points="56,-201.5 56,-220.5 85,-220.5 85,-201.5 56,-201.5"/>
<text text-anchor="middle" x="70.5" y="-208.5" font-family="Helvetica,sans-Serif" font-size="10.00">T</text>
</a>
</g>
</g>
<!-- Node4&#45;&gt;Node3 -->
<g id="edge3" class="edge">
<title>Node4&#45;&gt;Node3</title>
<path fill="none" stroke="#9a32cd" stroke-dasharray="5,2" d="M70.5,-191.04C70.5,-178.67 70.5,-163.12 70.5,-153.63"/>
<polygon fill="#9a32cd" stroke="#9a32cd" points="67,-191.23 70.5,-201.23 74,-191.23 67,-191.23"/>
<text text-anchor="middle" x="79" y="-175" font-family="Helvetica,sans-Serif" font-size="10.00"> ptr</text>
</g>
</g>
</svg>
