<?xml version="1.0" encoding="UTF-8" standalone="no"?>
<!DOCTYPE svg PUBLIC "-//W3C//DTD SVG 1.1//EN"
 "http://www.w3.org/Graphics/SVG/1.1/DTD/svg11.dtd">
<!-- Generated by graphviz version 7.1.0 (20230121.1956)
 -->
<!-- Title: /Users/fola/Documents/ArkScript/Ark/src/arkreactor/Compiler/BytecodeReader.cpp Pages: 1 -->
<!--zoomable 324 -->
<svg id="main" version="1.1" xmlns="http://www.w3.org/2000/svg" xmlns:xlink="http://www.w3.org/1999/xlink" xml:space="preserve" onload="init(evt)">
<style type="text/css"><![CDATA[
.edge:hover path { stroke: red; }
.edge:hover polygon { stroke: red; fill: red; }
]]></style>
<script type="text/javascript"><![CDATA[
var edges = document.getElementsByTagName('g');
if (edges && edges.length) {
  for (var i=0;i<edges.length;i++) {
    if (edges[i].id.substr(0,4)=='edge') {
      edges[i].setAttribute('class','edge');
    }
  }
}
]]></script>
        <defs>
                <circle id="rim" cx="0" cy="0" r="7"/>
                <circle id="rim2" cx="0" cy="0" r="3.5"/>
                <g id="zoomPlus">
                        <use xlink:href="#rim" fill="#404040">
                                <set attributeName="fill" to="#808080" begin="zoomplus.mouseover" end="zoomplus.mouseout"/>
                        </use>
                        <path d="M-4,0h8M0,-4v8" fill="none" stroke="white" stroke-width="1.5" pointer-events="none"/>
                </g>
                <g id="zoomMin">
                        <use xlink:href="#rim" fill="#404040">
                                <set attributeName="fill" to="#808080" begin="zoomminus.mouseover" end="zoomminus.mouseout"/>
                        </use>
                        <path d="M-4,0h8" fill="none" stroke="white" stroke-width="1.5" pointer-events="none"/>
                </g>
                <g id="dirArrow">
                        <path fill="none" stroke="white" stroke-width="1.5" d="M0,-3.0v7 M-2.5,-0.5L0,-3.0L2.5,-0.5"/>
                </g>
               <g id="resetDef">
                       <use xlink:href="#rim2" fill="#404040">
                               <set attributeName="fill" to="#808080" begin="reset.mouseover" end="reset.mouseout"/>
                       </use>
               </g>
        </defs>

<script type="text/javascript">
var viewWidth = 1927;
var viewHeight = 324;
var sectionId = 'dynsection-0';
</script>
<script xlink:href="../../svgpan.js"/>
<svg id="graph" class="graph">
<g id="viewport">
<title>/Users/fola/Documents/ArkScript/Ark/src/arkreactor/Compiler/BytecodeReader.cpp</title>
<!-- Node1 -->
<g id="node1" class="node">
<title>Node1</title>
<g id="a_node1"><a xlink:title=" ">
<polygon fill="#999999" stroke="#666666" points="1029.55,-316 877.55,-316 877.55,-275 1029.55,-275 1029.55,-316"/>
<text text-anchor="start" x="885.55" y="-304" font-family="Helvetica,sans-Serif" font-size="10.00">/Users/fola/Documents</text>
<text text-anchor="start" x="885.55" y="-293" font-family="Helvetica,sans-Serif" font-size="10.00">/ArkScript/Ark/src/arkreactor</text>
<text text-anchor="middle" x="953.55" y="-282" font-family="Helvetica,sans-Serif" font-size="10.00">/Compiler/BytecodeReader.cpp</text>
</a>
</g>
</g>
<!-- Node2 -->
<g id="node2" class="node">
<title>Node2</title>
<g id="a_node2"><a xlink:href="../../d1/d84/BytecodeReader_8hpp.html" target="_top" xlink:title="A bytecode disassembler for ArkScript.">
<polygon fill="white" stroke="#666666" points="373.05,-129 206.05,-129 206.05,-110 373.05,-110 373.05,-129"/>
<text text-anchor="middle" x="289.55" y="-117" font-family="Helvetica,sans-Serif" font-size="10.00">Ark/Compiler/BytecodeReader.hpp</text>
</a>
</g>
</g>
<!-- Node1&#45;&gt;Node2 -->
<g id="edge1" class="edge">
<title>Node1&#45;&gt;Node2</title>
<path fill="none" stroke="#63b8ff" d="M877.38,-274.54C738.07,-238.03 446.27,-161.57 334.46,-132.27"/>
<polygon fill="#63b8ff" stroke="#63b8ff" points="335.62,-128.96 325.06,-129.81 333.84,-135.73 335.62,-128.96"/>
</g>
<!-- Node13 -->
<g id="node13" class="node">
<title>Node13</title>
<g id="a_node13"><a xlink:href="../../d8/daa/Instructions_8hpp.html" target="_top" xlink:title="The different instructions used by the compiler and virtual machine.">
<polygon fill="white" stroke="#666666" points="281.55,-184 135.55,-184 135.55,-165 281.55,-165 281.55,-184"/>
<text text-anchor="middle" x="208.55" y="-172" font-family="Helvetica,sans-Serif" font-size="10.00">Ark/Compiler/Instructions.hpp</text>
</a>
</g>
</g>
<!-- Node1&#45;&gt;Node13 -->
<g id="edge14" class="edge">
<title>Node1&#45;&gt;Node13</title>
<path fill="none" stroke="#63b8ff" d="M877.24,-285.44C794.58,-275.33 658.92,-257.91 542.55,-239 443.41,-222.89 328.5,-200.15 262.59,-186.7"/>
<polygon fill="#63b8ff" stroke="#63b8ff" points="263.63,-183.34 253.13,-184.77 262.23,-190.2 263.63,-183.34"/>
</g>
<!-- Node14 -->
<g id="node14" class="node">
<title>Node14</title>
<g id="a_node14"><a xlink:href="../../da/d84/Builtins_8hpp.html" target="_top" xlink:title="Host the declaration of all the ArkScript builtins.">
<polygon fill="white" stroke="#666666" points="1118.05,-239 997.05,-239 997.05,-220 1118.05,-220 1118.05,-239"/>
<text text-anchor="middle" x="1057.55" y="-227" font-family="Helvetica,sans-Serif" font-size="10.00">Ark/Builtins/Builtins.hpp</text>
</a>
</g>
</g>
<!-- Node1&#45;&gt;Node14 -->
<g id="edge16" class="edge">
<title>Node1&#45;&gt;Node14</title>
<path fill="none" stroke="#63b8ff" d="M985.88,-274.6C1001.33,-265.09 1019.5,-253.91 1033.67,-245.19"/>
<polygon fill="#63b8ff" stroke="#63b8ff" points="1035.22,-248.35 1041.91,-240.12 1031.56,-242.38 1035.22,-248.35"/>
</g>
<!-- Node27 -->
<g id="node27" class="node">
<title>Node27</title>
<g id="a_node27"><a xlink:href="../../d7/d09/Utils_8hpp.html" target="_top" xlink:title="Lots of utilities about string, filesystem and more.">
<polygon fill="white" stroke="#666666" points="652.55,-129 578.55,-129 578.55,-110 652.55,-110 652.55,-129"/>
<text text-anchor="middle" x="615.55" y="-117" font-family="Helvetica,sans-Serif" font-size="10.00">Ark/Utils.hpp</text>
</a>
</g>
</g>
<!-- Node1&#45;&gt;Node27 -->
<g id="edge48" class="edge">
<title>Node1&#45;&gt;Node27</title>
<path fill="none" stroke="#63b8ff" d="M914.77,-274.54C845.72,-238.99 703.07,-165.56 643.08,-134.68"/>
<polygon fill="#63b8ff" stroke="#63b8ff" points="644.72,-131.58 634.22,-130.12 641.51,-137.8 644.72,-131.58"/>
</g>
<!-- Node32 -->
<g id="node32" class="node">
<title>Node32</title>
<g id="a_node32"><a xlink:href="../../d5/d3a/proxy_8hpp.html" target="_top" xlink:title=" ">
<polygon fill="white" stroke="#666666" points="1237.05,-239 1136.05,-239 1136.05,-220 1237.05,-220 1237.05,-239"/>
<text text-anchor="middle" x="1186.55" y="-227" font-family="Helvetica,sans-Serif" font-size="10.00">termcolor/proxy.hpp</text>
</a>
</g>
</g>
<!-- Node1&#45;&gt;Node32 -->
<g id="edge58" class="edge">
<title>Node1&#45;&gt;Node32</title>
<path fill="none" stroke="#63b8ff" d="M1026.31,-274.51C1064.53,-264.01 1110.1,-251.5 1142.85,-242.5"/>
<polygon fill="#63b8ff" stroke="#63b8ff" points="1143.7,-245.9 1152.41,-239.88 1141.84,-239.15 1143.7,-245.9"/>
</g>
<!-- Node34 -->
<g id="node34" class="node">
<title>Node34</title>
<g id="a_node34"><a xlink:title=" ">
<polygon fill="#e0e0e0" stroke="#999999" points="1319.55,-239 1255.55,-239 1255.55,-220 1319.55,-220 1319.55,-239"/>
<text text-anchor="middle" x="1287.55" y="-227" font-family="Helvetica,sans-Serif" font-size="10.00">picosha2.h</text>
</a>
</g>
</g>
<!-- Node1&#45;&gt;Node34 -->
<g id="edge60" class="edge">
<title>Node1&#45;&gt;Node34</title>
<path fill="none" stroke="#63b8ff" d="M1029.81,-280.43C1086.32,-269.91 1165.54,-254.99 1244.23,-239.43"/>
<polygon fill="#63b8ff" stroke="#63b8ff" points="1244.71,-242.91 1253.84,-237.53 1243.35,-236.04 1244.71,-242.91"/>
</g>
<!-- Node3 -->
<g id="node3" class="node">
<title>Node3</title>
<g id="a_node3"><a xlink:title=" ">
<polygon fill="#e0e0e0" stroke="#999999" points="1408.55,-19 1364.55,-19 1364.55,0 1408.55,0 1408.55,-19"/>
<text text-anchor="middle" x="1386.55" y="-7" font-family="Helvetica,sans-Serif" font-size="10.00">vector</text>
</a>
</g>
</g>
<!-- Node2&#45;&gt;Node3 -->
<g id="edge2" class="edge">
<title>Node2&#45;&gt;Node3</title>
<path fill="none" stroke="#63b8ff" d="M294.13,-109.94C302.4,-95.52 321.32,-66.81 346.55,-55 446.74,-8.11 1231.6,-31.3 1341.55,-19 1345.26,-18.58 1349.13,-18.04 1352.96,-17.41"/>
<polygon fill="#63b8ff" stroke="#63b8ff" points="1353.5,-20.88 1362.72,-15.67 1352.26,-13.98 1353.5,-20.88"/>
</g>
<!-- Node4 -->
<g id="node4" class="node">
<title>Node4</title>
<g id="a_node4"><a xlink:title=" ">
<polygon fill="#e0e0e0" stroke="#999999" points="405.55,-74 355.55,-74 355.55,-55 405.55,-55 405.55,-74"/>
<text text-anchor="middle" x="380.55" y="-62" font-family="Helvetica,sans-Serif" font-size="10.00">fstream</text>
</a>
</g>
</g>
<!-- Node2&#45;&gt;Node4 -->
<g id="edge3" class="edge">
<title>Node2&#45;&gt;Node4</title>
<path fill="none" stroke="#63b8ff" d="M304.98,-109.51C318.79,-101.47 339.29,-89.53 355.45,-80.11"/>
<polygon fill="#63b8ff" stroke="#63b8ff" points="357.15,-83.18 364.03,-75.12 353.63,-77.13 357.15,-83.18"/>
</g>
<!-- Node5 -->
<g id="node5" class="node">
<title>Node5</title>
<g id="a_node5"><a xlink:title=" ">
<polygon fill="#e0e0e0" stroke="#999999" points="1142.55,-19 1088.55,-19 1088.55,0 1142.55,0 1142.55,-19"/>
<text text-anchor="middle" x="1115.55" y="-7" font-family="Helvetica,sans-Serif" font-size="10.00">iostream</text>
</a>
</g>
</g>
<!-- Node2&#45;&gt;Node5 -->
<g id="edge4" class="edge">
<title>Node2&#45;&gt;Node5</title>
<path fill="none" stroke="#63b8ff" d="M283.45,-109.83C274.74,-96.28 261.25,-70.07 275.55,-55 303.46,-25.57 915.69,-13.7 1076.92,-11.08"/>
<polygon fill="#63b8ff" stroke="#63b8ff" points="1076.7,-14.59 1086.65,-10.93 1076.59,-7.59 1076.7,-14.59"/>
</g>
<!-- Node6 -->
<g id="node6" class="node">
<title>Node6</title>
<g id="a_node6"><a xlink:title=" ">
<polygon fill="#e0e0e0" stroke="#999999" points="793.05,-74 752.05,-74 752.05,-55 793.05,-55 793.05,-74"/>
<text text-anchor="middle" x="772.55" y="-62" font-family="Helvetica,sans-Serif" font-size="10.00">string</text>
</a>
</g>
</g>
<!-- Node2&#45;&gt;Node6 -->
<g id="edge5" class="edge">
<title>Node2&#45;&gt;Node6</title>
<path fill="none" stroke="#63b8ff" d="M373.25,-114.75C462.15,-109.76 606.83,-98.76 740.44,-74.04"/>
<polygon fill="#63b8ff" stroke="#63b8ff" points="741.01,-77.5 750.19,-72.21 739.72,-70.62 741.01,-77.5"/>
</g>
<!-- Node7 -->
<g id="node7" class="node">
<title>Node7</title>
<g id="a_node7"><a xlink:title=" ">
<polygon fill="#e0e0e0" stroke="#999999" points="154.55,-19 98.55,-19 98.55,0 154.55,0 154.55,-19"/>
<text text-anchor="middle" x="126.55" y="-7" font-family="Helvetica,sans-Serif" font-size="10.00">cinttypes</text>
</a>
</g>
</g>
<!-- Node2&#45;&gt;Node7 -->
<g id="edge6" class="edge">
<title>Node2&#45;&gt;Node7</title>
<path fill="none" stroke="#63b8ff" d="M205.75,-116.72C132.92,-113.2 35.3,-103.01 10.55,-74 5.06,-67.58 5.76,-61.96 10.55,-55 19.62,-41.8 57.21,-28.94 87.17,-20.46"/>
<polygon fill="#63b8ff" stroke="#63b8ff" points="88.03,-23.86 96.75,-17.84 86.18,-17.11 88.03,-23.86"/>
</g>
<!-- Node8 -->
<g id="node8" class="node">
<title>Node8</title>
<g id="a_node8"><a xlink:title=" ">
<polygon fill="#e0e0e0" stroke="#999999" points="223.55,-74 173.55,-74 173.55,-55 223.55,-55 223.55,-74"/>
<text text-anchor="middle" x="198.55" y="-62" font-family="Helvetica,sans-Serif" font-size="10.00">optional</text>
</a>
</g>
</g>
<!-- Node2&#45;&gt;Node8 -->
<g id="edge7" class="edge">
<title>Node2&#45;&gt;Node8</title>
<path fill="none" stroke="#63b8ff" d="M274.11,-109.51C260.3,-101.47 239.8,-89.53 223.64,-80.11"/>
<polygon fill="#63b8ff" stroke="#63b8ff" points="225.47,-77.13 215.06,-75.12 221.94,-83.18 225.47,-77.13"/>
</g>
<!-- Node9 -->
<g id="node9" class="node">
<title>Node9</title>
<g id="a_node9"><a xlink:href="../../d5/d40/Platform_8hpp.html" target="_top" xlink:title="ArkScript configuration macros.">
<polygon fill="white" stroke="#666666" points="1332.55,-19 1242.55,-19 1242.55,0 1332.55,0 1332.55,-19"/>
<text text-anchor="middle" x="1287.55" y="-7" font-family="Helvetica,sans-Serif" font-size="10.00">Ark/Platform.hpp</text>
</a>
</g>
</g>
<!-- Node2&#45;&gt;Node9 -->
<g id="edge8" class="edge">
<title>Node2&#45;&gt;Node9</title>
<path fill="none" stroke="#63b8ff" d="M289.96,-109.73C291.15,-95.53 295.76,-67.82 313.55,-55 354.5,-25.48 1171.24,-23.23 1221.55,-19 1224.57,-18.75 1227.67,-18.45 1230.8,-18.14"/>
<polygon fill="#63b8ff" stroke="#63b8ff" points="1231.1,-21.62 1240.65,-17.05 1230.33,-14.67 1231.1,-21.62"/>
</g>
<!-- Node10 -->
<g id="node10" class="node">
<title>Node10</title>
<g id="a_node10"><a xlink:href="../../d8/ddd/Common_8hpp.html" target="_top" xlink:title="Common code for the compiler.">
<polygon fill="white" stroke="#666666" points="155.05,-74 20.05,-74 20.05,-55 155.05,-55 155.05,-74"/>
<text text-anchor="middle" x="87.55" y="-62" font-family="Helvetica,sans-Serif" font-size="10.00">Ark/Compiler/Common.hpp</text>
</a>
</g>
</g>
<!-- Node2&#45;&gt;Node10 -->
<g id="edge9" class="edge">
<title>Node2&#45;&gt;Node10</title>
<path fill="none" stroke="#63b8ff" d="M255.28,-109.51C221.51,-100.65 169.74,-87.07 132.65,-77.33"/>
<polygon fill="#63b8ff" stroke="#63b8ff" points="133.67,-73.98 123.11,-74.83 131.89,-80.75 133.67,-73.98"/>
</g>
<!-- Node10&#45;&gt;Node3 -->
<g id="edge12" class="edge">
<title>Node10&#45;&gt;Node3</title>
<path fill="none" stroke="#63b8ff" d="M155.54,-55.7C158.58,-55.44 161.59,-55.21 164.55,-55 686.61,-18.26 821.27,-75.74 1341.55,-19 1345.26,-18.59 1349.13,-18.05 1352.97,-17.44"/>
<polygon fill="#63b8ff" stroke="#63b8ff" points="1353.5,-20.9 1362.73,-15.7 1352.27,-14.01 1353.5,-20.9"/>
</g>
<!-- Node10&#45;&gt;Node7 -->
<g id="edge13" class="edge">
<title>Node10&#45;&gt;Node7</title>
<path fill="none" stroke="#63b8ff" d="M93.99,-54.75C99.2,-47.66 106.73,-37.42 113.24,-28.59"/>
<polygon fill="#63b8ff" stroke="#63b8ff" points="115.96,-30.79 119.07,-20.66 110.32,-26.64 115.96,-30.79"/>
</g>
<!-- Node11 -->
<g id="node11" class="node">
<title>Node11</title>
<g id="a_node11"><a xlink:title=" ">
<polygon fill="#e0e0e0" stroke="#999999" points="300.55,-19 262.55,-19 262.55,0 300.55,0 300.55,-19"/>
<text text-anchor="middle" x="281.55" y="-7" font-family="Helvetica,sans-Serif" font-size="10.00">array</text>
</a>
</g>
</g>
<!-- Node10&#45;&gt;Node11 -->
<g id="edge10" class="edge">
<title>Node10&#45;&gt;Node11</title>
<path fill="none" stroke="#63b8ff" d="M120.45,-54.51C157.13,-44.49 215.94,-28.42 251.44,-18.72"/>
<polygon fill="#63b8ff" stroke="#63b8ff" points="251.91,-22.23 260.63,-16.21 250.06,-15.47 251.91,-22.23"/>
</g>
<!-- Node12 -->
<g id="node12" class="node">
<title>Node12</title>
<g id="a_node12"><a xlink:title=" ">
<polygon fill="#e0e0e0" stroke="#999999" points="80.55,-19 14.55,-19 14.55,0 80.55,0 80.55,-19"/>
<text text-anchor="middle" x="47.55" y="-7" font-family="Helvetica,sans-Serif" font-size="10.00">string_view</text>
</a>
</g>
</g>
<!-- Node10&#45;&gt;Node12 -->
<g id="edge11" class="edge">
<title>Node10&#45;&gt;Node12</title>
<path fill="none" stroke="#63b8ff" d="M80.94,-54.75C75.59,-47.66 67.87,-37.42 61.2,-28.59"/>
<polygon fill="#63b8ff" stroke="#63b8ff" points="64.02,-26.52 55.21,-20.65 58.44,-30.74 64.02,-26.52"/>
</g>
<!-- Node13&#45;&gt;Node7 -->
<g id="edge15" class="edge">
<title>Node13&#45;&gt;Node7</title>
<path fill="none" stroke="#63b8ff" d="M157.39,-164.54C108.37,-152.94 37.03,-127.48 3.55,-74 -0.94,-66.84 -1.3,-61.91 3.55,-55 8.65,-47.72 53.51,-32.7 87.6,-22.13"/>
<polygon fill="#63b8ff" stroke="#63b8ff" points="88.24,-25.6 96.77,-19.32 86.19,-18.91 88.24,-25.6"/>
</g>
<!-- Node14&#45;&gt;Node3 -->
<g id="edge17" class="edge">
<title>Node14&#45;&gt;Node3</title>
<path fill="none" stroke="#63b8ff" d="M1118.14,-219.87C1239.79,-202.12 1509.62,-160.56 1597.55,-129 1644.92,-111.99 1671.02,-117.38 1696.55,-74 1774.55,58.57 2169.54,-140.29 1430.55,-19 1427.12,-18.44 1423.56,-17.81 1420.01,-17.17"/>
<polygon fill="#63b8ff" stroke="#63b8ff" points="1420.85,-13.76 1410.37,-15.35 1419.55,-20.64 1420.85,-13.76"/>
</g>
<!-- Node15 -->
<g id="node15" class="node">
<title>Node15</title>
<g id="a_node15"><a xlink:href="../../de/dfd/Value_8hpp.html" target="_top" xlink:title=" ">
<polygon fill="white" stroke="#666666" points="1105.05,-129 1010.05,-129 1010.05,-110 1105.05,-110 1105.05,-129"/>
<text text-anchor="middle" x="1057.55" y="-117" font-family="Helvetica,sans-Serif" font-size="10.00">Ark/VM/Value.hpp</text>
</a>
</g>
</g>
<!-- Node14&#45;&gt;Node15 -->
<g id="edge18" class="edge">
<title>Node14&#45;&gt;Node15</title>
<path fill="none" stroke="#63b8ff" d="M1057.55,-219.66C1057.55,-202.57 1057.55,-164.61 1057.55,-140.92"/>
<polygon fill="#63b8ff" stroke="#63b8ff" points="1061.05,-140.97 1057.55,-130.97 1054.05,-140.97 1061.05,-140.97"/>
</g>
<!-- Node24 -->
<g id="node24" class="node">
<title>Node24</title>
<g id="a_node24"><a xlink:href="../../d2/de9/Exceptions_8hpp.html" target="_top" xlink:title="ArkScript homemade exceptions.">
<polygon fill="white" stroke="#666666" points="1195.55,-184 1093.55,-184 1093.55,-165 1195.55,-165 1195.55,-184"/>
<text text-anchor="middle" x="1144.55" y="-172" font-family="Helvetica,sans-Serif" font-size="10.00">Ark/Exceptions.hpp</text>
</a>
</g>
</g>
<!-- Node14&#45;&gt;Node24 -->
<g id="edge42" class="edge">
<title>Node14&#45;&gt;Node24</title>
<path fill="none" stroke="#63b8ff" d="M1072.3,-219.51C1085.51,-211.47 1105.1,-199.53 1120.56,-190.11"/>
<polygon fill="#63b8ff" stroke="#63b8ff" points="1121.99,-193.34 1128.71,-185.15 1118.35,-187.36 1121.99,-193.34"/>
</g>
<!-- Node15&#45;&gt;Node3 -->
<g id="edge19" class="edge">
<title>Node15&#45;&gt;Node3</title>
<path fill="none" stroke="#63b8ff" d="M1105.4,-111.08C1108.49,-110.69 1111.56,-110.32 1114.55,-110 1172.56,-103.69 1598.72,-116.66 1638.55,-74 1686.15,-23.01 1816.62,-89.69 1430.55,-19 1427.14,-18.38 1423.58,-17.71 1420.03,-17.04"/>
<polygon fill="#63b8ff" stroke="#63b8ff" points="1420.88,-13.64 1410.4,-15.19 1419.56,-20.51 1420.88,-13.64"/>
</g>
<!-- Node15&#45;&gt;Node5 -->
<g id="edge23" class="edge">
<title>Node15&#45;&gt;Node5</title>
<path fill="none" stroke="#63b8ff" d="M1067.54,-109.53C1076.33,-101.14 1088.89,-87.84 1096.55,-74 1104.14,-60.26 1109.04,-43.14 1111.95,-30.13"/>
<polygon fill="#63b8ff" stroke="#63b8ff" points="1115.32,-31.15 1113.87,-20.66 1108.46,-29.77 1115.32,-31.15"/>
</g>
<!-- Node15&#45;&gt;Node6 -->
<g id="edge21" class="edge">
<title>Node15&#45;&gt;Node6</title>
<path fill="none" stroke="#63b8ff" d="M1009.91,-110.93C959.49,-102.7 877.65,-88.74 807.55,-74 806.38,-73.76 805.2,-73.5 804.01,-73.24"/>
<polygon fill="#63b8ff" stroke="#63b8ff" points="805.23,-69.93 794.7,-71.09 803.66,-76.75 805.23,-69.93"/>
</g>
<!-- Node15&#45;&gt;Node7 -->
<g id="edge22" class="edge">
<title>Node15&#45;&gt;Node7</title>
<path fill="none" stroke="#63b8ff" d="M1009.6,-113.27C963.82,-107.27 893.44,-95.38 835.55,-74 819.31,-68 818.15,-59.91 801.55,-55 684.52,-20.38 375.32,-27.07 253.55,-19 224.33,-17.06 191.33,-14.85 166.29,-13.17"/>
<polygon fill="#63b8ff" stroke="#63b8ff" points="166.77,-9.7 156.55,-12.52 166.3,-16.68 166.77,-9.7"/>
</g>
<!-- Node15&#45;&gt;Node9 -->
<g id="edge40" class="edge">
<title>Node15&#45;&gt;Node9</title>
<path fill="none" stroke="#63b8ff" d="M1017.37,-109.56C979.62,-99.35 932.06,-80.69 954.55,-55 955.68,-53.71 1135.94,-30.16 1230.74,-17.85"/>
<polygon fill="#63b8ff" stroke="#63b8ff" points="1231.17,-21.33 1240.63,-16.57 1230.26,-14.39 1231.17,-21.33"/>
</g>
<!-- Node15&#45;&gt;Node11 -->
<g id="edge28" class="edge">
<title>Node15&#45;&gt;Node11</title>
<path fill="none" stroke="#63b8ff" d="M1029.16,-109.62C978.25,-93.82 873.21,-61.83 835.55,-55 733.7,-36.53 413.44,-17.76 312.4,-12.17"/>
<polygon fill="#63b8ff" stroke="#63b8ff" points="312.62,-8.68 302.45,-11.62 312.24,-15.67 312.62,-8.68"/>
</g>
<!-- Node16 -->
<g id="node16" class="node">
<title>Node16</title>
<g id="a_node16"><a xlink:title=" ">
<polygon fill="#e0e0e0" stroke="#999999" points="1009.55,-74 963.55,-74 963.55,-55 1009.55,-55 1009.55,-74"/>
<text text-anchor="middle" x="986.55" y="-62" font-family="Helvetica,sans-Serif" font-size="10.00">variant</text>
</a>
</g>
</g>
<!-- Node15&#45;&gt;Node16 -->
<g id="edge20" class="edge">
<title>Node15&#45;&gt;Node16</title>
<path fill="none" stroke="#63b8ff" d="M1045.5,-109.51C1035.14,-101.77 1019.94,-90.43 1007.58,-81.2"/>
<polygon fill="#63b8ff" stroke="#63b8ff" points="1009.73,-78.44 999.62,-75.26 1005.54,-84.05 1009.73,-78.44"/>
</g>
<!-- Node17 -->
<g id="node17" class="node">
<title>Node17</title>
<g id="a_node17"><a xlink:title=" ">
<polygon fill="#e0e0e0" stroke="#999999" points="1491.55,-19 1439.55,-19 1439.55,0 1491.55,0 1491.55,-19"/>
<text text-anchor="middle" x="1465.55" y="-7" font-family="Helvetica,sans-Serif" font-size="10.00">memory</text>
</a>
</g>
</g>
<!-- Node15&#45;&gt;Node17 -->
<g id="edge24" class="edge">
<title>Node15&#45;&gt;Node17</title>
<path fill="none" stroke="#63b8ff" d="M1105.4,-111.07C1108.49,-110.68 1111.56,-110.32 1114.55,-110 1175.88,-103.45 1626.37,-119.01 1668.55,-74 1717.82,-21.42 1574.03,-12.1 1502.87,-10.65"/>
<polygon fill="#63b8ff" stroke="#63b8ff" points="1503.27,-7.15 1493.22,-10.49 1503.16,-14.15 1503.27,-7.15"/>
</g>
<!-- Node18 -->
<g id="node18" class="node">
<title>Node18</title>
<g id="a_node18"><a xlink:title=" ">
<polygon fill="#e0e0e0" stroke="#999999" points="1087.05,-74 1028.05,-74 1028.05,-55 1087.05,-55 1087.05,-74"/>
<text text-anchor="middle" x="1057.55" y="-62" font-family="Helvetica,sans-Serif" font-size="10.00">functional</text>
</a>
</g>
</g>
<!-- Node15&#45;&gt;Node18 -->
<g id="edge25" class="edge">
<title>Node15&#45;&gt;Node18</title>
<path fill="none" stroke="#63b8ff" d="M1057.55,-109.75C1057.55,-103.27 1057.55,-94.16 1057.55,-85.9"/>
<polygon fill="#63b8ff" stroke="#63b8ff" points="1061.05,-85.96 1057.55,-75.96 1054.05,-85.96 1061.05,-85.96"/>
</g>
<!-- Node19 -->
<g id="node19" class="node">
<title>Node19</title>
<g id="a_node19"><a xlink:title=" ">
<polygon fill="#e0e0e0" stroke="#999999" points="1212.55,-19 1172.55,-19 1172.55,0 1212.55,0 1212.55,-19"/>
<text text-anchor="middle" x="1192.55" y="-7" font-family="Helvetica,sans-Serif" font-size="10.00">utility</text>
</a>
</g>
</g>
<!-- Node15&#45;&gt;Node19 -->
<g id="edge26" class="edge">
<title>Node15&#45;&gt;Node19</title>
<path fill="none" stroke="#63b8ff" d="M1009.85,-112.87C960.15,-105.11 893.17,-88.16 921.55,-55 955.18,-15.69 1100.65,-28.25 1151.55,-19 1154.59,-18.45 1157.76,-17.84 1160.92,-17.22"/>
<polygon fill="#63b8ff" stroke="#63b8ff" points="1161.56,-20.66 1170.66,-15.24 1160.17,-13.8 1161.56,-20.66"/>
</g>
<!-- Node20 -->
<g id="node20" class="node">
<title>Node20</title>
<g id="a_node20"><a xlink:title=" ">
<polygon fill="#e0e0e0" stroke="#999999" points="1223.05,-74 1144.05,-74 1144.05,-55 1223.05,-55 1223.05,-74"/>
<text text-anchor="middle" x="1183.55" y="-62" font-family="Helvetica,sans-Serif" font-size="10.00">Ark/String.hpp</text>
</a>
</g>
</g>
<!-- Node15&#45;&gt;Node20 -->
<g id="edge27" class="edge">
<title>Node15&#45;&gt;Node20</title>
<path fill="none" stroke="#63b8ff" d="M1078.92,-109.51C1098.95,-101.08 1129.15,-88.38 1151.96,-78.79"/>
<polygon fill="#63b8ff" stroke="#63b8ff" points="1153.23,-82.05 1161.09,-74.94 1150.52,-75.6 1153.23,-82.05"/>
</g>
<!-- Node21 -->
<g id="node21" class="node">
<title>Node21</title>
<g id="a_node21"><a xlink:href="../../dc/dd5/Closure_8hpp.html" target="_top" xlink:title="Subtype of the value type, handling closures.">
<polygon fill="white" stroke="#666666" points="1531.55,-74 1399.55,-74 1399.55,-55 1531.55,-55 1531.55,-74"/>
<text text-anchor="middle" x="1465.55" y="-62" font-family="Helvetica,sans-Serif" font-size="10.00">Ark/VM/Value/Closure.hpp</text>
</a>
</g>
</g>
<!-- Node15&#45;&gt;Node21 -->
<g id="edge29" class="edge">
<title>Node15&#45;&gt;Node21</title>
<path fill="none" stroke="#63b8ff" d="M1105.43,-111.28C1108.51,-110.84 1111.57,-110.41 1114.55,-110 1208.55,-97.03 1316.92,-83.51 1388.08,-74.83"/>
<polygon fill="#63b8ff" stroke="#63b8ff" points="1388.17,-78.34 1397.68,-73.66 1387.33,-71.39 1388.17,-78.34"/>
</g>
<!-- Node22 -->
<g id="node22" class="node">
<title>Node22</title>
<g id="a_node22"><a xlink:href="../../dc/d3d/UserType_8hpp.html" target="_top" xlink:title="Subtype of the value, capable of handling any C++ type.">
<polygon fill="white" stroke="#666666" points="1381.55,-74 1241.55,-74 1241.55,-55 1381.55,-55 1381.55,-74"/>
<text text-anchor="middle" x="1311.55" y="-62" font-family="Helvetica,sans-Serif" font-size="10.00">Ark/VM/Value/UserType.hpp</text>
</a>
</g>
</g>
<!-- Node15&#45;&gt;Node22 -->
<g id="edge34" class="edge">
<title>Node15&#45;&gt;Node22</title>
<path fill="none" stroke="#63b8ff" d="M1100.63,-109.51C1143.91,-100.48 1210.73,-86.54 1257.53,-76.77"/>
<polygon fill="#63b8ff" stroke="#63b8ff" points="1258.12,-80.22 1267.19,-74.76 1256.69,-73.37 1258.12,-80.22"/>
</g>
<!-- Node23 -->
<g id="node23" class="node">
<title>Node23</title>
<g id="a_node23"><a xlink:title=" ">
<polygon fill="#e0e0e0" stroke="#999999" points="1629.05,-74 1550.05,-74 1550.05,-55 1629.05,-55 1629.05,-74"/>
<text text-anchor="middle" x="1589.55" y="-62" font-family="Helvetica,sans-Serif" font-size="10.00">inline/Value.inl</text>
</a>
</g>
</g>
<!-- Node15&#45;&gt;Node23 -->
<g id="edge41" class="edge">
<title>Node15&#45;&gt;Node23</title>
<path fill="none" stroke="#63b8ff" d="M1105.41,-111.14C1108.5,-110.73 1111.56,-110.35 1114.55,-110 1299.59,-88.41 1350.13,-97.87 1538.33,-74.16"/>
<polygon fill="#63b8ff" stroke="#63b8ff" points="1538.77,-77.63 1548.24,-72.9 1537.88,-70.69 1538.77,-77.63"/>
</g>
<!-- Node21&#45;&gt;Node3 -->
<g id="edge31" class="edge">
<title>Node21&#45;&gt;Node3</title>
<path fill="none" stroke="#63b8ff" d="M1452.14,-54.51C1440.38,-46.62 1423.04,-34.98 1409.13,-25.65"/>
<polygon fill="#63b8ff" stroke="#63b8ff" points="1411.26,-22.87 1401.01,-20.2 1407.36,-28.68 1411.26,-22.87"/>
</g>
<!-- Node21&#45;&gt;Node5 -->
<g id="edge32" class="edge">
<title>Node21&#45;&gt;Node5</title>
<path fill="none" stroke="#63b8ff" d="M1400.95,-54.53C1339.75,-45.91 1245.28,-32.26 1163.55,-19 1160.52,-18.51 1157.38,-17.99 1154.24,-17.45"/>
<polygon fill="#63b8ff" stroke="#63b8ff" points="1154.88,-14.01 1144.43,-15.75 1153.68,-20.91 1154.88,-14.01"/>
</g>
<!-- Node21&#45;&gt;Node9 -->
<g id="edge33" class="edge">
<title>Node21&#45;&gt;Node9</title>
<path fill="none" stroke="#63b8ff" d="M1435.35,-54.51C1405.98,-45.76 1361.15,-32.42 1328.56,-22.71"/>
<polygon fill="#63b8ff" stroke="#63b8ff" points="1329.62,-19.38 1319.04,-19.88 1327.63,-26.09 1329.62,-19.38"/>
</g>
<!-- Node21&#45;&gt;Node17 -->
<g id="edge30" class="edge">
<title>Node21&#45;&gt;Node17</title>
<path fill="none" stroke="#63b8ff" d="M1465.55,-54.75C1465.55,-48.27 1465.55,-39.16 1465.55,-30.9"/>
<polygon fill="#63b8ff" stroke="#63b8ff" points="1469.05,-30.96 1465.55,-20.96 1462.05,-30.96 1469.05,-30.96"/>
</g>
<!-- Node22&#45;&gt;Node3 -->
<g id="edge36" class="edge">
<title>Node22&#45;&gt;Node3</title>
<path fill="none" stroke="#63b8ff" d="M1324.27,-54.51C1335.33,-46.7 1351.58,-35.21 1364.72,-25.93"/>
<polygon fill="#63b8ff" stroke="#63b8ff" points="1366.63,-28.86 1372.77,-20.23 1362.59,-23.14 1366.63,-28.86"/>
</g>
<!-- Node22&#45;&gt;Node5 -->
<g id="edge35" class="edge">
<title>Node22&#45;&gt;Node5</title>
<path fill="none" stroke="#63b8ff" d="M1278.3,-54.51C1243.9,-45.21 1190.25,-30.7 1154.04,-20.91"/>
<polygon fill="#63b8ff" stroke="#63b8ff" points="1154.97,-17.53 1144.4,-18.3 1153.14,-24.29 1154.97,-17.53"/>
</g>
<!-- Node22&#45;&gt;Node9 -->
<g id="edge39" class="edge">
<title>Node22&#45;&gt;Node9</title>
<path fill="none" stroke="#63b8ff" d="M1307.58,-54.75C1304.51,-47.96 1300.13,-38.3 1296.26,-29.73"/>
<polygon fill="#63b8ff" stroke="#63b8ff" points="1299.53,-28.49 1292.22,-20.82 1293.16,-31.37 1299.53,-28.49"/>
</g>
<!-- Node22&#45;&gt;Node17 -->
<g id="edge38" class="edge">
<title>Node22&#45;&gt;Node17</title>
<path fill="none" stroke="#63b8ff" d="M1337.67,-54.51C1362.75,-45.88 1400.85,-32.76 1428.95,-23.1"/>
<polygon fill="#63b8ff" stroke="#63b8ff" points="1429.8,-26.5 1438.12,-19.94 1427.52,-19.88 1429.8,-26.5"/>
</g>
<!-- Node22&#45;&gt;Node19 -->
<g id="edge37" class="edge">
<title>Node22&#45;&gt;Node19</title>
<path fill="none" stroke="#63b8ff" d="M1291.36,-54.51C1272.53,-46.12 1244.18,-33.5 1222.67,-23.92"/>
<polygon fill="#63b8ff" stroke="#63b8ff" points="1224.38,-20.85 1213.82,-19.97 1221.53,-27.24 1224.38,-20.85"/>
</g>
<!-- Node24&#45;&gt;Node3 -->
<g id="edge45" class="edge">
<title>Node24&#45;&gt;Node3</title>
<path fill="none" stroke="#63b8ff" d="M1195.8,-171.74C1315.68,-166.44 1608.75,-146.21 1668.55,-74 1716.68,-15.86 1877.55,-95.95 1430.55,-19 1427.13,-18.41 1423.57,-17.77 1420.02,-17.11"/>
<polygon fill="#63b8ff" stroke="#63b8ff" points="1420.86,-13.71 1410.38,-15.28 1419.56,-20.59 1420.86,-13.71"/>
</g>
<!-- Node24&#45;&gt;Node6 -->
<g id="edge44" class="edge">
<title>Node24&#45;&gt;Node6</title>
<path fill="none" stroke="#63b8ff" d="M1113.79,-164.57C1044.04,-144.32 874.46,-95.09 804.03,-74.64"/>
<polygon fill="#63b8ff" stroke="#63b8ff" points="805.25,-71.35 794.67,-71.92 803.3,-78.07 805.25,-71.35"/>
</g>
<!-- Node24&#45;&gt;Node15 -->
<g id="edge47" class="edge">
<title>Node24&#45;&gt;Node15</title>
<path fill="none" stroke="#63b8ff" d="M1129.79,-164.51C1116.58,-156.47 1096.99,-144.53 1081.53,-135.11"/>
<polygon fill="#63b8ff" stroke="#63b8ff" points="1083.74,-132.36 1073.38,-130.15 1080.1,-138.34 1083.74,-132.36"/>
</g>
<!-- Node25 -->
<g id="node25" class="node">
<title>Node25</title>
<g id="a_node25"><a xlink:title=" ">
<polygon fill="#e0e0e0" stroke="#999999" points="1182.05,-129 1123.05,-129 1123.05,-110 1182.05,-110 1182.05,-129"/>
<text text-anchor="middle" x="1152.55" y="-117" font-family="Helvetica,sans-Serif" font-size="10.00">exception</text>
</a>
</g>
</g>
<!-- Node24&#45;&gt;Node25 -->
<g id="edge43" class="edge">
<title>Node24&#45;&gt;Node25</title>
<path fill="none" stroke="#63b8ff" d="M1145.87,-164.75C1146.86,-158.19 1148.25,-148.95 1149.51,-140.6"/>
<polygon fill="#63b8ff" stroke="#63b8ff" points="1152.94,-141.35 1150.97,-130.94 1146.02,-140.3 1152.94,-141.35"/>
</g>
<!-- Node26 -->
<g id="node26" class="node">
<title>Node26</title>
<g id="a_node26"><a xlink:title=" ">
<polygon fill="#e0e0e0" stroke="#999999" points="1259.05,-129 1200.05,-129 1200.05,-110 1259.05,-110 1259.05,-129"/>
<text text-anchor="middle" x="1229.55" y="-117" font-family="Helvetica,sans-Serif" font-size="10.00">stdexcept</text>
</a>
</g>
</g>
<!-- Node24&#45;&gt;Node26 -->
<g id="edge46" class="edge">
<title>Node24&#45;&gt;Node26</title>
<path fill="none" stroke="#63b8ff" d="M1158.96,-164.51C1171.74,-156.54 1190.65,-144.75 1205.68,-135.38"/>
<polygon fill="#63b8ff" stroke="#63b8ff" points="1207.42,-138.42 1214.06,-130.16 1203.72,-132.48 1207.42,-138.42"/>
</g>
<!-- Node27&#45;&gt;Node3 -->
<g id="edge53" class="edge">
<title>Node27&#45;&gt;Node3</title>
<path fill="none" stroke="#63b8ff" d="M610.46,-109.78C603.25,-96.15 592.42,-69.84 606.55,-55 634.74,-25.39 1300.95,-23.81 1341.55,-19 1345.26,-18.56 1349.12,-18 1352.96,-17.37"/>
<polygon fill="#63b8ff" stroke="#63b8ff" points="1353.49,-20.83 1362.72,-15.62 1352.26,-13.94 1353.49,-20.83"/>
</g>
<!-- Node27&#45;&gt;Node4 -->
<g id="edge52" class="edge">
<title>Node27&#45;&gt;Node4</title>
<path fill="none" stroke="#63b8ff" d="M578.06,-110.52C539.93,-102.33 478.84,-89.02 416.93,-74.51"/>
<polygon fill="#63b8ff" stroke="#63b8ff" points="417.79,-71.12 407.25,-72.24 416.18,-77.93 417.79,-71.12"/>
</g>
<!-- Node27&#45;&gt;Node5 -->
<g id="edge51" class="edge">
<title>Node27&#45;&gt;Node5</title>
<path fill="none" stroke="#63b8ff" d="M602.38,-109.66C584.74,-96.78 557.43,-72.5 573.55,-55 607.52,-18.12 958.4,-11.8 1076.78,-10.72"/>
<polygon fill="#63b8ff" stroke="#63b8ff" points="1076.65,-14.22 1086.62,-10.64 1076.59,-7.22 1076.65,-14.22"/>
</g>
<!-- Node27&#45;&gt;Node6 -->
<g id="edge50" class="edge">
<title>Node27&#45;&gt;Node6</title>
<path fill="none" stroke="#63b8ff" d="M642.18,-109.51C669.52,-100.28 712.05,-85.92 741.05,-76.13"/>
<polygon fill="#63b8ff" stroke="#63b8ff" points="742.02,-79.5 750.38,-72.98 739.78,-72.87 742.02,-79.5"/>
</g>
<!-- Node28 -->
<g id="node28" class="node">
<title>Node28</title>
<g id="a_node28"><a xlink:title=" ">
<polygon fill="#e0e0e0" stroke="#999999" points="671.55,-74 615.55,-74 615.55,-55 671.55,-55 671.55,-74"/>
<text text-anchor="middle" x="643.55" y="-62" font-family="Helvetica,sans-Serif" font-size="10.00">algorithm</text>
</a>
</g>
</g>
<!-- Node27&#45;&gt;Node28 -->
<g id="edge49" class="edge">
<title>Node27&#45;&gt;Node28</title>
<path fill="none" stroke="#63b8ff" d="M620.17,-109.75C623.8,-102.88 628.97,-93.08 633.54,-84.45"/>
<polygon fill="#63b8ff" stroke="#63b8ff" points="636.54,-86.26 638.11,-75.78 630.35,-82.99 636.54,-86.26"/>
</g>
<!-- Node29 -->
<g id="node29" class="node">
<title>Node29</title>
<g id="a_node29"><a xlink:title=" ">
<polygon fill="#e0e0e0" stroke="#999999" points="733.55,-74 689.55,-74 689.55,-55 733.55,-55 733.55,-74"/>
<text text-anchor="middle" x="711.55" y="-62" font-family="Helvetica,sans-Serif" font-size="10.00">cmath</text>
</a>
</g>
</g>
<!-- Node27&#45;&gt;Node29 -->
<g id="edge54" class="edge">
<title>Node27&#45;&gt;Node29</title>
<path fill="none" stroke="#63b8ff" d="M631.83,-109.51C646.54,-101.39 668.44,-89.3 685.56,-79.85"/>
<polygon fill="#63b8ff" stroke="#63b8ff" points="687.11,-82.99 694.18,-75.09 683.73,-76.86 687.11,-82.99"/>
</g>
<!-- Node30 -->
<g id="node30" class="node">
<title>Node30</title>
<g id="a_node30"><a xlink:href="../../d6/de9/Constants_8hpp.html" target="_top" xlink:title="Constants used by ArkScript.">
<polygon fill="white" stroke="#666666" points="521.55,-74 423.55,-74 423.55,-55 521.55,-55 521.55,-74"/>
<text text-anchor="middle" x="472.55" y="-62" font-family="Helvetica,sans-Serif" font-size="10.00">Ark/Constants.hpp</text>
</a>
</g>
</g>
<!-- Node27&#45;&gt;Node30 -->
<g id="edge55" class="edge">
<title>Node27&#45;&gt;Node30</title>
<path fill="none" stroke="#63b8ff" d="M591.29,-109.51C568.14,-100.93 533.03,-87.92 506.99,-78.27"/>
<polygon fill="#63b8ff" stroke="#63b8ff" points="508.46,-75.08 497.86,-74.88 506.02,-81.64 508.46,-75.08"/>
</g>
<!-- Node30&#45;&gt;Node7 -->
<g id="edge56" class="edge">
<title>Node30&#45;&gt;Node7</title>
<path fill="none" stroke="#63b8ff" d="M423.34,-55.96C354.14,-45.36 229.44,-26.26 165.97,-16.54"/>
<polygon fill="#63b8ff" stroke="#63b8ff" points="166.77,-13.12 156.36,-15.07 165.71,-20.04 166.77,-13.12"/>
</g>
<!-- Node31 -->
<g id="node31" class="node">
<title>Node31</title>
<g id="a_node31"><a xlink:title=" ">
<polygon fill="#e0e0e0" stroke="#999999" points="497.05,-19 448.05,-19 448.05,0 497.05,0 497.05,-19"/>
<text text-anchor="middle" x="472.55" y="-7" font-family="Helvetica,sans-Serif" font-size="10.00">cstddef</text>
</a>
</g>
</g>
<!-- Node30&#45;&gt;Node31 -->
<g id="edge57" class="edge">
<title>Node30&#45;&gt;Node31</title>
<path fill="none" stroke="#63b8ff" d="M472.55,-54.75C472.55,-48.27 472.55,-39.16 472.55,-30.9"/>
<polygon fill="#63b8ff" stroke="#63b8ff" points="476.05,-30.96 472.55,-20.96 469.05,-30.96 476.05,-30.96"/>
</g>
<!-- Node33 -->
<g id="node33" class="node">
<title>Node33</title>
<g id="a_node33"><a xlink:title=" ">
<polygon fill="#e0e0e0" stroke="#999999" points="1919.05,-184 1800.05,-184 1800.05,-165 1919.05,-165 1919.05,-184"/>
<text text-anchor="middle" x="1859.55" y="-172" font-family="Helvetica,sans-Serif" font-size="10.00">termcolor/termcolor.hpp</text>
</a>
</g>
</g>
<!-- Node32&#45;&gt;Node33 -->
<g id="edge59" class="edge">
<title>Node32&#45;&gt;Node33</title>
<path fill="none" stroke="#63b8ff" d="M1237.25,-221.05C1240.39,-220.67 1243.51,-220.32 1246.55,-220 1485.34,-195.14 1546.44,-205.71 1785.55,-184 1786.56,-183.91 1787.58,-183.81 1788.61,-183.72"/>
<polygon fill="#63b8ff" stroke="#63b8ff" points="1788.68,-187.23 1798.29,-182.76 1787.99,-180.26 1788.68,-187.23"/>
</g>
</g>
</svg>
        <g id="navigator" transform="translate(0 0)" fill="#404254">
                <rect fill="#f2f5e9" fill-opacity="0.5" stroke="#606060" stroke-width=".5" x="0" y="0" width="60" height="60"/>
                <use id="zoomplus" xlink:href="#zoomPlus" x="17" y="9" onmousedown="handleZoom(evt,'in')"/>
                <use id="zoomminus" xlink:href="#zoomMin" x="42" y="9" onmousedown="handleZoom(evt,'out')"/>
                <use id="reset" xlink:href="#resetDef" x="30" y="36" onmousedown="handleReset()"/>
                <g id="arrowUp" xlink:href="#dirArrow" transform="translate(30 24)" onmousedown="handlePan(0,-1)">
                  <use xlink:href="#rim" fill="#404040">
                        <set attributeName="fill" to="#808080" begin="arrowUp.mouseover" end="arrowUp.mouseout"/>
                  </use>
                  <path fill="none" stroke="white" stroke-width="1.5" d="M0,-3.0v7 M-2.5,-0.5L0,-3.0L2.5,-0.5"/>
                </g>
                <g id="arrowRight" xlink:href="#dirArrow" transform="rotate(90) translate(36 -43)" onmousedown="handlePan(1,0)">
                  <use xlink:href="#rim" fill="#404040">
                        <set attributeName="fill" to="#808080" begin="arrowRight.mouseover" end="arrowRight.mouseout"/>
                  </use>
                  <path fill="none" stroke="white" stroke-width="1.5" d="M0,-3.0v7 M-2.5,-0.5L0,-3.0L2.5,-0.5"/>
                </g>
                <g id="arrowDown" xlink:href="#dirArrow" transform="rotate(180) translate(-30 -48)" onmousedown="handlePan(0,1)">
                  <use xlink:href="#rim" fill="#404040">
                        <set attributeName="fill" to="#808080" begin="arrowDown.mouseover" end="arrowDown.mouseout"/>
                  </use>
                  <path fill="none" stroke="white" stroke-width="1.5" d="M0,-3.0v7 M-2.5,-0.5L0,-3.0L2.5,-0.5"/>
                </g>
                <g id="arrowLeft" xlink:href="#dirArrow" transform="rotate(270) translate(-36 17)" onmousedown="handlePan(-1,0)">
                  <use xlink:href="#rim" fill="#404040">
                        <set attributeName="fill" to="#808080" begin="arrowLeft.mouseover" end="arrowLeft.mouseout"/>
                  </use>
                  <path fill="none" stroke="white" stroke-width="1.5" d="M0,-3.0v7 M-2.5,-0.5L0,-3.0L2.5,-0.5"/>
                </g>
        </g>
        <svg viewBox="0 0 15 15" width="100%" height="30px" preserveAspectRatio="xMaxYMin meet">
         <g id="arrow_out" transform="scale(0.3 0.3)">
          <a xlink:href="BytecodeReader_8cpp__incl_org.svg" target="_base">
           <rect id="button" ry="5" rx="5" y="6" x="6" height="38" width="38"
                fill="#f2f5e9" fill-opacity="0.5" stroke="#606060" stroke-width="1.0"/>
           <path id="arrow"
             d="M 11.500037,31.436501 C 11.940474,20.09759 22.043105,11.32322 32.158766,21.979434 L 37.068811,17.246167 C 37.068811,17.246167 37.088388,32 37.088388,32 L 22.160133,31.978069 C 22.160133,31.978069 26.997745,27.140456 26.997745,27.140456 C 18.528582,18.264221 13.291696,25.230495 11.500037,31.436501 z"
             style="fill:#404040;"/>
          </a>
         </g>
        </svg>
</svg>
