<?xml version="1.0" encoding="UTF-8" standalone="no"?>
<!DOCTYPE svg PUBLIC "-//W3C//DTD SVG 1.1//EN"
 "http://www.w3.org/Graphics/SVG/1.1/DTD/svg11.dtd">
<!-- Generated by graphviz version 2.49.0 (20210828.1703)
 -->
<!-- Title: C:/Users/folae/Documents/Code/Big&#45;Projects/ArkScript/Ark/include/Ark/Profiling.hpp Pages: 1 -->
<svg width="1328pt" height="618pt"
 viewBox="0.00 0.00 1328.38 618.00" xmlns="http://www.w3.org/2000/svg" xmlns:xlink="http://www.w3.org/1999/xlink">
<g id="graph0" class="graph" transform="scale(1 1) rotate(0) translate(4 614)">
<title>C:/Users/folae/Documents/Code/Big&#45;Projects/ArkScript/Ark/include/Ark/Profiling.hpp</title>
<polygon fill="white" stroke="transparent" points="-4,4 -4,-614 1324.38,-614 1324.38,4 -4,4"/>
<!-- Node1 -->
<g id="node1" class="node">
<title>Node1</title>
<g id="a_node1"><a xlink:title=" ">
<polygon fill="#bfbfbf" stroke="black" points="808.88,-568.5 808.88,-609.5 951.88,-609.5 951.88,-568.5 808.88,-568.5"/>
<text text-anchor="start" x="816.88" y="-597.5" font-family="Helvetica,sans-Serif" font-size="10.00">C:/Users/folae/Documents</text>
<text text-anchor="start" x="816.88" y="-586.5" font-family="Helvetica,sans-Serif" font-size="10.00">/Code/Big&#45;Projects/ArkScript</text>
<text text-anchor="middle" x="880.38" y="-575.5" font-family="Helvetica,sans-Serif" font-size="10.00">/Ark/include/Ark/Profiling.hpp</text>
</a>
</g>
</g>
<!-- Node2 -->
<g id="node2" class="node">
<title>Node2</title>
<g id="a_node2"><a xlink:href="../../de/dfd/Value_8hpp.html" target="_top" xlink:title=" ">
<polygon fill="white" stroke="black" points="419.88,-490.5 419.88,-531.5 570.88,-531.5 570.88,-490.5 419.88,-490.5"/>
<text text-anchor="start" x="427.88" y="-519.5" font-family="Helvetica,sans-Serif" font-size="10.00">C:/Users/folae/Documents</text>
<text text-anchor="start" x="427.88" y="-508.5" font-family="Helvetica,sans-Serif" font-size="10.00">/Code/Big&#45;Projects/ArkScript</text>
<text text-anchor="middle" x="495.38" y="-497.5" font-family="Helvetica,sans-Serif" font-size="10.00">/Ark/include/Ark/VM/Value.hpp</text>
</a>
</g>
</g>
<!-- Node1&#45;&gt;Node2 -->
<g id="edge1" class="edge">
<title>Node1&#45;&gt;Node2</title>
<path fill="none" stroke="midnightblue" d="M798.73,-571.88C731.44,-558.6 636.74,-539.9 571.12,-526.95"/>
<polygon fill="midnightblue" stroke="midnightblue" points="798.38,-575.38 808.87,-573.88 799.74,-568.51 798.38,-575.38"/>
</g>
<!-- Node7 -->
<g id="node7" class="node">
<title>Node7</title>
<g id="a_node7"><a xlink:href="../../df/d0a/main_8cpp.html" target="_top" xlink:title=" ">
<polygon fill="white" stroke="black" points="689.38,-0.5 689.38,-41.5 831.38,-41.5 831.38,-0.5 689.38,-0.5"/>
<text text-anchor="start" x="697.38" y="-29.5" font-family="Helvetica,sans-Serif" font-size="10.00">C:/Users/folae/Documents</text>
<text text-anchor="start" x="697.38" y="-18.5" font-family="Helvetica,sans-Serif" font-size="10.00">/Code/Big&#45;Projects/ArkScript</text>
<text text-anchor="middle" x="760.38" y="-7.5" font-family="Helvetica,sans-Serif" font-size="10.00">/Ark/src/arkscript/main.cpp</text>
</a>
</g>
</g>
<!-- Node1&#45;&gt;Node7 -->
<g id="edge33" class="edge">
<title>Node1&#45;&gt;Node7</title>
<path fill="none" stroke="midnightblue" d="M962.16,-576.47C1089.41,-556.19 1320.38,-509.06 1320.38,-434 1320.38,-434 1320.38,-434 1320.38,-176 1320.38,-169.73 982.42,-80.26 831.59,-40.65"/>
<polygon fill="midnightblue" stroke="midnightblue" points="961.39,-573.04 952.06,-578.05 962.48,-579.96 961.39,-573.04"/>
</g>
<!-- Node3 -->
<g id="node3" class="node">
<title>Node3</title>
<g id="a_node3"><a xlink:href="../../da/d84/Builtins_8hpp.html" target="_top" xlink:title="Host the declaration of all the ArkScript builtins.">
<polygon fill="white" stroke="black" points="672.38,-412.5 672.38,-453.5 848.38,-453.5 848.38,-412.5 672.38,-412.5"/>
<text text-anchor="start" x="680.38" y="-441.5" font-family="Helvetica,sans-Serif" font-size="10.00">C:/Users/folae/Documents</text>
<text text-anchor="start" x="680.38" y="-430.5" font-family="Helvetica,sans-Serif" font-size="10.00">/Code/Big&#45;Projects/ArkScript</text>
<text text-anchor="middle" x="760.38" y="-419.5" font-family="Helvetica,sans-Serif" font-size="10.00">/Ark/include/Ark/Builtins/Builtins.hpp</text>
</a>
</g>
</g>
<!-- Node2&#45;&gt;Node3 -->
<g id="edge2" class="edge">
<title>Node2&#45;&gt;Node3</title>
<path fill="none" stroke="midnightblue" d="M573.56,-487.58C611.27,-476.76 656.09,-463.91 692.37,-453.51"/>
<polygon fill="midnightblue" stroke="midnightblue" points="572.27,-484.31 563.63,-490.43 574.2,-491.04 572.27,-484.31"/>
</g>
<!-- Node10 -->
<g id="node10" class="node">
<title>Node10</title>
<g id="a_node10"><a xlink:href="../../d0/db5/State_8hpp.html" target="_top" xlink:title="State used by the virtual machine: it loads the bytecode, can compile it if needed,...">
<polygon fill="white" stroke="black" points="224.88,-240 224.88,-281 373.88,-281 373.88,-240 224.88,-240"/>
<text text-anchor="start" x="232.88" y="-269" font-family="Helvetica,sans-Serif" font-size="10.00">C:/Users/folae/Documents</text>
<text text-anchor="start" x="232.88" y="-258" font-family="Helvetica,sans-Serif" font-size="10.00">/Code/Big&#45;Projects/ArkScript</text>
<text text-anchor="middle" x="299.38" y="-247" font-family="Helvetica,sans-Serif" font-size="10.00">/Ark/include/Ark/VM/State.hpp</text>
</a>
</g>
</g>
<!-- Node2&#45;&gt;Node10 -->
<g id="edge30" class="edge">
<title>Node2&#45;&gt;Node10</title>
<path fill="none" stroke="midnightblue" d="M409.52,-499.25C283.14,-481.41 57.05,-441.05 11.38,-376 -44.5,-296.4 122.1,-272.13 224.87,-264.73"/>
<polygon fill="midnightblue" stroke="midnightblue" points="409.17,-502.74 419.56,-500.65 410.14,-495.81 409.17,-502.74"/>
</g>
<!-- Node11 -->
<g id="node11" class="node">
<title>Node11</title>
<g id="a_node11"><a xlink:href="../../d1/d91/VM_8hpp.html" target="_top" xlink:title="The ArkScript virtual machine.">
<polygon fill="white" stroke="black" points="388.38,-156.5 388.38,-197.5 530.38,-197.5 530.38,-156.5 388.38,-156.5"/>
<text text-anchor="start" x="396.38" y="-185.5" font-family="Helvetica,sans-Serif" font-size="10.00">C:/Users/folae/Documents</text>
<text text-anchor="start" x="396.38" y="-174.5" font-family="Helvetica,sans-Serif" font-size="10.00">/Code/Big&#45;Projects/ArkScript</text>
<text text-anchor="middle" x="459.38" y="-163.5" font-family="Helvetica,sans-Serif" font-size="10.00">/Ark/include/Ark/VM/VM.hpp</text>
</a>
</g>
</g>
<!-- Node2&#45;&gt;Node11 -->
<g id="edge31" class="edge">
<title>Node2&#45;&gt;Node11</title>
<path fill="none" stroke="midnightblue" d="M473.17,-481.95C467.63,-473.44 462.41,-463.75 459.38,-454 430.79,-361.78 447.21,-243.74 455.5,-197.66"/>
<polygon fill="midnightblue" stroke="midnightblue" points="470.41,-484.11 478.99,-490.34 476.17,-480.13 470.41,-484.11"/>
</g>
<!-- Node20 -->
<g id="node20" class="node">
<title>Node20</title>
<g id="a_node20"><a xlink:href="../../d8/dcd/Scope_8hpp.html" target="_top" xlink:title="The virtual machine scope system.">
<polygon fill="white" stroke="black" points="236.38,-412.5 236.38,-453.5 390.38,-453.5 390.38,-412.5 236.38,-412.5"/>
<text text-anchor="start" x="244.38" y="-441.5" font-family="Helvetica,sans-Serif" font-size="10.00">C:/Users/folae/Documents</text>
<text text-anchor="start" x="244.38" y="-430.5" font-family="Helvetica,sans-Serif" font-size="10.00">/Code/Big&#45;Projects/ArkScript</text>
<text text-anchor="middle" x="313.38" y="-419.5" font-family="Helvetica,sans-Serif" font-size="10.00">/Ark/include/Ark/VM/Scope.hpp</text>
</a>
</g>
</g>
<!-- Node2&#45;&gt;Node20 -->
<g id="edge26" class="edge">
<title>Node2&#45;&gt;Node20</title>
<path fill="none" stroke="midnightblue" d="M439.03,-486.47C413.7,-475.89 384.16,-463.56 360.09,-453.51"/>
<polygon fill="midnightblue" stroke="midnightblue" points="437.94,-489.8 448.51,-490.43 440.63,-483.34 437.94,-489.8"/>
</g>
<!-- Node23 -->
<g id="node23" class="node">
<title>Node23</title>
<g id="a_node23"><a xlink:href="../../d1/d74/Value_8cpp.html" target="_top" xlink:title=" ">
<polygon fill="white" stroke="black" points="468.38,-412.5 468.38,-453.5 630.38,-453.5 630.38,-412.5 468.38,-412.5"/>
<text text-anchor="start" x="476.38" y="-441.5" font-family="Helvetica,sans-Serif" font-size="10.00">C:/Users/folae/Documents</text>
<text text-anchor="start" x="476.38" y="-430.5" font-family="Helvetica,sans-Serif" font-size="10.00">/Code/Big&#45;Projects/ArkScript</text>
<text text-anchor="middle" x="549.38" y="-419.5" font-family="Helvetica,sans-Serif" font-size="10.00">/Ark/src/arkreactor/VM/Value.cpp</text>
</a>
</g>
</g>
<!-- Node2&#45;&gt;Node23 -->
<g id="edge32" class="edge">
<title>Node2&#45;&gt;Node23</title>
<path fill="none" stroke="midnightblue" d="M515.24,-482.05C521.98,-472.57 529.36,-462.18 535.52,-453.51"/>
<polygon fill="midnightblue" stroke="midnightblue" points="512.23,-480.25 509.29,-490.43 517.93,-484.3 512.23,-480.25"/>
</g>
<!-- Node4 -->
<g id="node4" class="node">
<title>Node4</title>
<g id="a_node4"><a xlink:href="../../d8/d0f/Compiler_8hpp.html" target="_top" xlink:title="ArkScript compiler is in charge of transforming the AST into bytecode.">
<polygon fill="white" stroke="black" points="666.38,-329 666.38,-370 854.38,-370 854.38,-329 666.38,-329"/>
<text text-anchor="start" x="674.38" y="-358" font-family="Helvetica,sans-Serif" font-size="10.00">C:/Users/folae/Documents</text>
<text text-anchor="start" x="674.38" y="-347" font-family="Helvetica,sans-Serif" font-size="10.00">/Code/Big&#45;Projects/ArkScript</text>
<text text-anchor="middle" x="760.38" y="-336" font-family="Helvetica,sans-Serif" font-size="10.00">/Ark/include/Ark/Compiler/Compiler.hpp</text>
</a>
</g>
</g>
<!-- Node3&#45;&gt;Node4 -->
<g id="edge3" class="edge">
<title>Node3&#45;&gt;Node4</title>
<path fill="none" stroke="midnightblue" d="M760.38,-402.06C760.38,-391.38 760.38,-379.63 760.38,-370.05"/>
<polygon fill="midnightblue" stroke="midnightblue" points="756.88,-402.27 760.38,-412.27 763.88,-402.27 756.88,-402.27"/>
</g>
<!-- Node3&#45;&gt;Node11 -->
<g id="edge22" class="edge">
<title>Node3&#45;&gt;Node11</title>
<path fill="none" stroke="midnightblue" d="M662.03,-413.68C589.87,-399.82 503.41,-382.15 497.38,-376 449.49,-327.13 452.58,-237.43 456.72,-197.76"/>
<polygon fill="midnightblue" stroke="midnightblue" points="661.63,-417.17 672.11,-415.61 662.95,-410.29 661.63,-417.17"/>
</g>
<!-- Node14 -->
<g id="node14" class="node">
<title>Node14</title>
<g id="a_node14"><a xlink:href="../../de/dfa/Compiler_8cpp.html" target="_top" xlink:title=" ">
<polygon fill="white" stroke="black" points="811.38,-234.5 811.38,-286.5 953.38,-286.5 953.38,-234.5 811.38,-234.5"/>
<text text-anchor="start" x="819.38" y="-274.5" font-family="Helvetica,sans-Serif" font-size="10.00">C:/Users/folae/Documents</text>
<text text-anchor="start" x="819.38" y="-263.5" font-family="Helvetica,sans-Serif" font-size="10.00">/Code/Big&#45;Projects/ArkScript</text>
<text text-anchor="start" x="819.38" y="-252.5" font-family="Helvetica,sans-Serif" font-size="10.00">/Ark/src/arkreactor/Compiler</text>
<text text-anchor="middle" x="882.38" y="-241.5" font-family="Helvetica,sans-Serif" font-size="10.00">/Compiler.cpp</text>
</a>
</g>
</g>
<!-- Node3&#45;&gt;Node14 -->
<g id="edge24" class="edge">
<title>Node3&#45;&gt;Node14</title>
<path fill="none" stroke="midnightblue" d="M826.37,-407.65C840.51,-399.58 854,-389.18 863.38,-376 882.08,-349.73 884.83,-311.57 884.26,-286.65"/>
<polygon fill="midnightblue" stroke="midnightblue" points="824.69,-404.58 817.51,-412.37 827.98,-410.75 824.69,-404.58"/>
</g>
<!-- Node15 -->
<g id="node15" class="node">
<title>Node15</title>
<g id="a_node15"><a xlink:href="../../dd/d6a/MacroProcessor_8hpp.html" target="_top" xlink:title="Handles the macros and their expansion in ArkScript source code.">
<polygon fill="white" stroke="black" points="1070.88,-329 1070.88,-370 1291.88,-370 1291.88,-329 1070.88,-329"/>
<text text-anchor="start" x="1078.88" y="-358" font-family="Helvetica,sans-Serif" font-size="10.00">C:/Users/folae/Documents</text>
<text text-anchor="start" x="1078.88" y="-347" font-family="Helvetica,sans-Serif" font-size="10.00">/Code/Big&#45;Projects/ArkScript</text>
<text text-anchor="middle" x="1181.38" y="-336" font-family="Helvetica,sans-Serif" font-size="10.00">/Ark/include/Ark/Compiler/MacroProcessor.hpp</text>
</a>
</g>
</g>
<!-- Node3&#45;&gt;Node15 -->
<g id="edge18" class="edge">
<title>Node3&#45;&gt;Node15</title>
<path fill="none" stroke="midnightblue" d="M858.45,-414.41C917.36,-403.68 993.75,-389.48 1061.38,-376 1070.89,-374.11 1080.8,-372.08 1090.69,-370.03"/>
<polygon fill="midnightblue" stroke="midnightblue" points="857.62,-411 848.41,-416.23 858.88,-417.89 857.62,-411"/>
</g>
<!-- Node18 -->
<g id="node18" class="node">
<title>Node18</title>
<g id="a_node18"><a xlink:href="../../d5/d36/BytecodeReader_8cpp.html" target="_top" xlink:title=" ">
<polygon fill="white" stroke="black" points="910.38,-323.5 910.38,-375.5 1052.38,-375.5 1052.38,-323.5 910.38,-323.5"/>
<text text-anchor="start" x="918.38" y="-363.5" font-family="Helvetica,sans-Serif" font-size="10.00">C:/Users/folae/Documents</text>
<text text-anchor="start" x="918.38" y="-352.5" font-family="Helvetica,sans-Serif" font-size="10.00">/Code/Big&#45;Projects/ArkScript</text>
<text text-anchor="start" x="918.38" y="-341.5" font-family="Helvetica,sans-Serif" font-size="10.00">/Ark/src/arkreactor/Compiler</text>
<text text-anchor="middle" x="981.38" y="-330.5" font-family="Helvetica,sans-Serif" font-size="10.00">/BytecodeReader.cpp</text>
</a>
</g>
</g>
<!-- Node3&#45;&gt;Node18 -->
<g id="edge23" class="edge">
<title>Node3&#45;&gt;Node18</title>
<path fill="none" stroke="midnightblue" d="M823.06,-408.89C851.25,-398.49 884.59,-386.2 913.38,-375.58"/>
<polygon fill="midnightblue" stroke="midnightblue" points="821.49,-405.73 813.32,-412.48 823.91,-412.3 821.49,-405.73"/>
</g>
<!-- Node19 -->
<g id="node19" class="node">
<title>Node19</title>
<g id="a_node19"><a xlink:href="../../dc/df5/Parser_8cpp.html" target="_top" xlink:title=" ">
<polygon fill="white" stroke="black" points="506.38,-323.5 506.38,-375.5 648.38,-375.5 648.38,-323.5 506.38,-323.5"/>
<text text-anchor="start" x="514.38" y="-363.5" font-family="Helvetica,sans-Serif" font-size="10.00">C:/Users/folae/Documents</text>
<text text-anchor="start" x="514.38" y="-352.5" font-family="Helvetica,sans-Serif" font-size="10.00">/Code/Big&#45;Projects/ArkScript</text>
<text text-anchor="start" x="514.38" y="-341.5" font-family="Helvetica,sans-Serif" font-size="10.00">/Ark/src/arkreactor/Compiler</text>
<text text-anchor="middle" x="577.38" y="-330.5" font-family="Helvetica,sans-Serif" font-size="10.00">/Parser.cpp</text>
</a>
</g>
</g>
<!-- Node3&#45;&gt;Node19 -->
<g id="edge25" class="edge">
<title>Node3&#45;&gt;Node19</title>
<path fill="none" stroke="midnightblue" d="M707.26,-408.34C684.18,-398.06 657.12,-386.01 633.69,-375.58"/>
<polygon fill="midnightblue" stroke="midnightblue" points="705.99,-411.61 716.55,-412.48 708.84,-405.21 705.99,-411.61"/>
</g>
<!-- Node5 -->
<g id="node5" class="node">
<title>Node5</title>
<g id="a_node5"><a xlink:href="../../d3/d7e/Ark_8hpp.html" target="_top" xlink:title="Includes the needed files to start using ArkScript.">
<polygon fill="white" stroke="black" points="689.38,-78.5 689.38,-119.5 831.38,-119.5 831.38,-78.5 689.38,-78.5"/>
<text text-anchor="start" x="697.38" y="-107.5" font-family="Helvetica,sans-Serif" font-size="10.00">C:/Users/folae/Documents</text>
<text text-anchor="start" x="697.38" y="-96.5" font-family="Helvetica,sans-Serif" font-size="10.00">/Code/Big&#45;Projects/ArkScript</text>
<text text-anchor="middle" x="760.38" y="-85.5" font-family="Helvetica,sans-Serif" font-size="10.00">/Ark/include/Ark/Ark.hpp</text>
</a>
</g>
</g>
<!-- Node4&#45;&gt;Node5 -->
<g id="edge4" class="edge">
<title>Node4&#45;&gt;Node5</title>
<path fill="none" stroke="midnightblue" d="M760.38,-318.42C760.38,-266.86 760.38,-162.98 760.38,-119.67"/>
<polygon fill="midnightblue" stroke="midnightblue" points="756.88,-318.58 760.38,-328.58 763.88,-318.58 756.88,-318.58"/>
</g>
<!-- Node8 -->
<g id="node8" class="node">
<title>Node8</title>
<g id="a_node8"><a xlink:href="../../d5/da5/Repl_8hpp.html" target="_top" xlink:title="ArkScript REPL &#45; Read Eval Print Loop.">
<polygon fill="white" stroke="black" points="514.38,-78.5 514.38,-119.5 670.38,-119.5 670.38,-78.5 514.38,-78.5"/>
<text text-anchor="start" x="522.38" y="-107.5" font-family="Helvetica,sans-Serif" font-size="10.00">C:/Users/folae/Documents</text>
<text text-anchor="start" x="522.38" y="-96.5" font-family="Helvetica,sans-Serif" font-size="10.00">/Code/Big&#45;Projects/ArkScript</text>
<text text-anchor="middle" x="592.38" y="-85.5" font-family="Helvetica,sans-Serif" font-size="10.00">/Ark/include/Ark/REPL/Repl.hpp</text>
</a>
</g>
</g>
<!-- Node4&#45;&gt;Node8 -->
<g id="edge7" class="edge">
<title>Node4&#45;&gt;Node8</title>
<path fill="none" stroke="midnightblue" d="M741.13,-320.02C706.66,-269.04 635.27,-163.43 605.68,-119.67"/>
<polygon fill="midnightblue" stroke="midnightblue" points="738.42,-322.26 746.92,-328.58 744.22,-318.34 738.42,-322.26"/>
</g>
<!-- Node4&#45;&gt;Node10 -->
<g id="edge10" class="edge">
<title>Node4&#45;&gt;Node10</title>
<path fill="none" stroke="midnightblue" d="M673.94,-326.62C668.35,-325.35 662.79,-324.13 657.38,-323 560.01,-302.61 446.7,-284 374.07,-272.71"/>
<polygon fill="midnightblue" stroke="midnightblue" points="673.5,-330.11 684.03,-328.94 675.07,-323.29 673.5,-330.11"/>
</g>
<!-- Node4&#45;&gt;Node14 -->
<g id="edge17" class="edge">
<title>Node4&#45;&gt;Node14</title>
<path fill="none" stroke="midnightblue" d="M795.91,-323.17C812.06,-311.65 831.1,-298.07 847.21,-286.58"/>
<polygon fill="midnightblue" stroke="midnightblue" points="793.87,-320.32 787.76,-328.98 797.94,-326.02 793.87,-320.32"/>
</g>
<!-- Node6 -->
<g id="node6" class="node">
<title>Node6</title>
<g id="a_node6"><a xlink:href="../../dc/d32/Ark_8cpp.html" target="_top" xlink:title=" ">
<polygon fill="white" stroke="black" points="849.38,-0.5 849.38,-41.5 991.38,-41.5 991.38,-0.5 849.38,-0.5"/>
<text text-anchor="start" x="857.38" y="-29.5" font-family="Helvetica,sans-Serif" font-size="10.00">C:/Users/folae/Documents</text>
<text text-anchor="start" x="857.38" y="-18.5" font-family="Helvetica,sans-Serif" font-size="10.00">/Code/Big&#45;Projects/ArkScript</text>
<text text-anchor="middle" x="920.38" y="-7.5" font-family="Helvetica,sans-Serif" font-size="10.00">/Ark/src/arkreactor/Ark.cpp</text>
</a>
</g>
</g>
<!-- Node5&#45;&gt;Node6 -->
<g id="edge5" class="edge">
<title>Node5&#45;&gt;Node6</title>
<path fill="none" stroke="midnightblue" d="M810.81,-74.05C832.87,-63.57 858.44,-51.42 879.32,-41.51"/>
<polygon fill="midnightblue" stroke="midnightblue" points="809.12,-70.98 801.59,-78.43 812.12,-77.3 809.12,-70.98"/>
</g>
<!-- Node5&#45;&gt;Node7 -->
<g id="edge6" class="edge">
<title>Node5&#45;&gt;Node7</title>
<path fill="none" stroke="midnightblue" d="M760.38,-68.3C760.38,-59.3 760.38,-49.65 760.38,-41.51"/>
<polygon fill="midnightblue" stroke="midnightblue" points="756.88,-68.43 760.38,-78.43 763.88,-68.43 756.88,-68.43"/>
</g>
<!-- Node8&#45;&gt;Node7 -->
<g id="edge9" class="edge">
<title>Node8&#45;&gt;Node7</title>
<path fill="none" stroke="midnightblue" d="M645.02,-74.19C668.26,-63.67 695.24,-51.47 717.27,-41.51"/>
<polygon fill="midnightblue" stroke="midnightblue" points="643.32,-71.12 635.65,-78.43 646.2,-77.5 643.32,-71.12"/>
</g>
<!-- Node9 -->
<g id="node9" class="node">
<title>Node9</title>
<g id="a_node9"><a xlink:href="../../d7/d46/Repl_8cpp.html" target="_top" xlink:title=" ">
<polygon fill="white" stroke="black" points="509.88,-0.5 509.88,-41.5 670.88,-41.5 670.88,-0.5 509.88,-0.5"/>
<text text-anchor="start" x="517.88" y="-29.5" font-family="Helvetica,sans-Serif" font-size="10.00">C:/Users/folae/Documents</text>
<text text-anchor="start" x="517.88" y="-18.5" font-family="Helvetica,sans-Serif" font-size="10.00">/Code/Big&#45;Projects/ArkScript</text>
<text text-anchor="middle" x="590.38" y="-7.5" font-family="Helvetica,sans-Serif" font-size="10.00">/Ark/src/arkscript/REPL/Repl.cpp</text>
</a>
</g>
</g>
<!-- Node8&#45;&gt;Node9 -->
<g id="edge8" class="edge">
<title>Node8&#45;&gt;Node9</title>
<path fill="none" stroke="midnightblue" d="M591.6,-68.3C591.36,-59.3 591.11,-49.65 590.9,-41.51"/>
<polygon fill="midnightblue" stroke="midnightblue" points="588.11,-68.52 591.87,-78.43 595.1,-68.34 588.11,-68.52"/>
</g>
<!-- Node10&#45;&gt;Node8 -->
<g id="edge11" class="edge">
<title>Node10&#45;&gt;Node8</title>
<path fill="none" stroke="midnightblue" d="M318.09,-231.3C336.56,-204.25 364.18,-166.07 379.38,-156 391,-148.31 458.43,-131.22 514.36,-117.93"/>
<polygon fill="midnightblue" stroke="midnightblue" points="315.15,-229.4 312.44,-239.64 320.95,-233.32 315.15,-229.4"/>
</g>
<!-- Node10&#45;&gt;Node11 -->
<g id="edge12" class="edge">
<title>Node10&#45;&gt;Node11</title>
<path fill="none" stroke="midnightblue" d="M346.87,-235.31C370.56,-223.25 398.82,-208.85 421.09,-197.5"/>
<polygon fill="midnightblue" stroke="midnightblue" points="345.03,-232.32 337.71,-239.98 348.21,-238.56 345.03,-232.32"/>
</g>
<!-- Node13 -->
<g id="node13" class="node">
<title>Node13</title>
<g id="a_node13"><a xlink:href="../../d0/da0/State_8cpp.html" target="_top" xlink:title=" ">
<polygon fill="white" stroke="black" points="170.88,-156.5 170.88,-197.5 331.88,-197.5 331.88,-156.5 170.88,-156.5"/>
<text text-anchor="start" x="178.88" y="-185.5" font-family="Helvetica,sans-Serif" font-size="10.00">C:/Users/folae/Documents</text>
<text text-anchor="start" x="178.88" y="-174.5" font-family="Helvetica,sans-Serif" font-size="10.00">/Code/Big&#45;Projects/ArkScript</text>
<text text-anchor="middle" x="251.38" y="-163.5" font-family="Helvetica,sans-Serif" font-size="10.00">/Ark/src/arkreactor/VM/State.cpp</text>
</a>
</g>
</g>
<!-- Node10&#45;&gt;Node13 -->
<g id="edge16" class="edge">
<title>Node10&#45;&gt;Node13</title>
<path fill="none" stroke="midnightblue" d="M282.54,-230.89C276.04,-219.87 268.77,-207.53 262.9,-197.55"/>
<polygon fill="midnightblue" stroke="midnightblue" points="279.67,-232.93 287.76,-239.77 285.7,-229.38 279.67,-232.93"/>
</g>
<!-- Node11&#45;&gt;Node5 -->
<g id="edge13" class="edge">
<title>Node11&#45;&gt;Node5</title>
<path fill="none" stroke="midnightblue" d="M540.45,-155.53C586.89,-143.81 644.64,-129.23 689.3,-117.95"/>
<polygon fill="midnightblue" stroke="midnightblue" points="539.55,-152.15 530.72,-157.99 541.27,-158.93 539.55,-152.15"/>
</g>
<!-- Node11&#45;&gt;Node8 -->
<g id="edge14" class="edge">
<title>Node11&#45;&gt;Node8</title>
<path fill="none" stroke="midnightblue" d="M502.78,-151.2C520.78,-140.92 541.35,-129.16 558.25,-119.51"/>
<polygon fill="midnightblue" stroke="midnightblue" points="500.58,-148.43 493.63,-156.43 504.05,-154.51 500.58,-148.43"/>
</g>
<!-- Node12 -->
<g id="node12" class="node">
<title>Node12</title>
<g id="a_node12"><a xlink:href="../../d2/d27/VM_8cpp.html" target="_top" xlink:title=" ">
<polygon fill="white" stroke="black" points="344.38,-78.5 344.38,-119.5 496.38,-119.5 496.38,-78.5 344.38,-78.5"/>
<text text-anchor="start" x="352.38" y="-107.5" font-family="Helvetica,sans-Serif" font-size="10.00">C:/Users/folae/Documents</text>
<text text-anchor="start" x="352.38" y="-96.5" font-family="Helvetica,sans-Serif" font-size="10.00">/Code/Big&#45;Projects/ArkScript</text>
<text text-anchor="middle" x="420.38" y="-85.5" font-family="Helvetica,sans-Serif" font-size="10.00">/Ark/src/arkreactor/VM/VM.cpp</text>
</a>
</g>
</g>
<!-- Node11&#45;&gt;Node12 -->
<g id="edge15" class="edge">
<title>Node11&#45;&gt;Node12</title>
<path fill="none" stroke="midnightblue" d="M444.74,-147.47C439.96,-138.14 434.75,-128.01 430.39,-119.51"/>
<polygon fill="midnightblue" stroke="midnightblue" points="441.66,-149.13 449.34,-156.43 447.89,-145.93 441.66,-149.13"/>
</g>
<!-- Node15&#45;&gt;Node14 -->
<g id="edge19" class="edge">
<title>Node15&#45;&gt;Node14</title>
<path fill="none" stroke="midnightblue" d="M1104.54,-326.14C1057.95,-312.58 998.93,-295.41 953.43,-282.17"/>
<polygon fill="midnightblue" stroke="midnightblue" points="1103.7,-329.54 1114.28,-328.98 1105.66,-322.82 1103.7,-329.54"/>
</g>
<!-- Node16 -->
<g id="node16" class="node">
<title>Node16</title>
<g id="a_node16"><a xlink:href="../../db/d91/MacroExecutor_8cpp.html" target="_top" xlink:title=" ">
<polygon fill="white" stroke="black" points="1140.38,-234.5 1140.38,-286.5 1282.38,-286.5 1282.38,-234.5 1140.38,-234.5"/>
<text text-anchor="start" x="1148.38" y="-274.5" font-family="Helvetica,sans-Serif" font-size="10.00">C:/Users/folae/Documents</text>
<text text-anchor="start" x="1148.38" y="-263.5" font-family="Helvetica,sans-Serif" font-size="10.00">/Code/Big&#45;Projects/ArkScript</text>
<text text-anchor="start" x="1148.38" y="-252.5" font-family="Helvetica,sans-Serif" font-size="10.00">/Ark/src/arkreactor/Compiler</text>
<text text-anchor="middle" x="1211.38" y="-241.5" font-family="Helvetica,sans-Serif" font-size="10.00">/MacroExecutor.cpp</text>
</a>
</g>
</g>
<!-- Node15&#45;&gt;Node16 -->
<g id="edge20" class="edge">
<title>Node15&#45;&gt;Node16</title>
<path fill="none" stroke="midnightblue" d="M1191.5,-319.16C1195.12,-308.66 1199.17,-296.92 1202.66,-286.79"/>
<polygon fill="midnightblue" stroke="midnightblue" points="1188.14,-318.16 1188.19,-328.76 1194.76,-320.45 1188.14,-318.16"/>
</g>
<!-- Node17 -->
<g id="node17" class="node">
<title>Node17</title>
<g id="a_node17"><a xlink:href="../../dc/db7/MacroProcessor_8cpp.html" target="_top" xlink:title=" ">
<polygon fill="white" stroke="black" points="980.38,-234.5 980.38,-286.5 1122.38,-286.5 1122.38,-234.5 980.38,-234.5"/>
<text text-anchor="start" x="988.38" y="-274.5" font-family="Helvetica,sans-Serif" font-size="10.00">C:/Users/folae/Documents</text>
<text text-anchor="start" x="988.38" y="-263.5" font-family="Helvetica,sans-Serif" font-size="10.00">/Code/Big&#45;Projects/ArkScript</text>
<text text-anchor="start" x="988.38" y="-252.5" font-family="Helvetica,sans-Serif" font-size="10.00">/Ark/src/arkreactor/Compiler</text>
<text text-anchor="middle" x="1051.38" y="-241.5" font-family="Helvetica,sans-Serif" font-size="10.00">/MacroProcessor.cpp</text>
</a>
</g>
</g>
<!-- Node15&#45;&gt;Node17 -->
<g id="edge21" class="edge">
<title>Node15&#45;&gt;Node17</title>
<path fill="none" stroke="midnightblue" d="M1143.53,-323.17C1126.32,-311.65 1106.02,-298.07 1088.87,-286.58"/>
<polygon fill="midnightblue" stroke="midnightblue" points="1141.95,-326.32 1152.21,-328.98 1145.84,-320.5 1141.95,-326.32"/>
</g>
<!-- Node20&#45;&gt;Node11 -->
<g id="edge27" class="edge">
<title>Node20&#45;&gt;Node11</title>
<path fill="none" stroke="midnightblue" d="M353.25,-406.19C363.95,-397.66 374.67,-387.41 382.38,-376 419.4,-321.27 399.65,-294.42 426.38,-234 431.95,-221.41 439.71,-208.1 446.3,-197.62"/>
<polygon fill="midnightblue" stroke="midnightblue" points="350.97,-403.53 345.13,-412.36 355.21,-409.1 350.97,-403.53"/>
</g>
<!-- Node21 -->
<g id="node21" class="node">
<title>Node21</title>
<g id="a_node21"><a xlink:href="../../d1/db2/Closure_8cpp.html" target="_top" xlink:title=" ">
<polygon fill="white" stroke="black" points="20.38,-329 20.38,-370 190.38,-370 190.38,-329 20.38,-329"/>
<text text-anchor="start" x="28.38" y="-358" font-family="Helvetica,sans-Serif" font-size="10.00">C:/Users/folae/Documents</text>
<text text-anchor="start" x="28.38" y="-347" font-family="Helvetica,sans-Serif" font-size="10.00">/Code/Big&#45;Projects/ArkScript</text>
<text text-anchor="middle" x="105.38" y="-336" font-family="Helvetica,sans-Serif" font-size="10.00">/Ark/src/arkreactor/VM/Closure.cpp</text>
</a>
</g>
</g>
<!-- Node20&#45;&gt;Node21 -->
<g id="edge28" class="edge">
<title>Node20&#45;&gt;Node21</title>
<path fill="none" stroke="midnightblue" d="M254.09,-408.77C222.82,-396.51 184.88,-381.65 155.16,-370"/>
<polygon fill="midnightblue" stroke="midnightblue" points="252.97,-412.09 263.56,-412.48 255.53,-405.57 252.97,-412.09"/>
</g>
<!-- Node22 -->
<g id="node22" class="node">
<title>Node22</title>
<g id="a_node22"><a xlink:href="../../d5/d04/Scope_8cpp.html" target="_top" xlink:title=" ">
<polygon fill="white" stroke="black" points="208.88,-329 208.88,-370 373.88,-370 373.88,-329 208.88,-329"/>
<text text-anchor="start" x="216.88" y="-358" font-family="Helvetica,sans-Serif" font-size="10.00">C:/Users/folae/Documents</text>
<text text-anchor="start" x="216.88" y="-347" font-family="Helvetica,sans-Serif" font-size="10.00">/Code/Big&#45;Projects/ArkScript</text>
<text text-anchor="middle" x="291.38" y="-336" font-family="Helvetica,sans-Serif" font-size="10.00">/Ark/src/arkreactor/VM/Scope.cpp</text>
</a>
</g>
</g>
<!-- Node20&#45;&gt;Node22 -->
<g id="edge29" class="edge">
<title>Node20&#45;&gt;Node22</title>
<path fill="none" stroke="midnightblue" d="M305.39,-402.4C302.48,-391.63 299.27,-379.73 296.66,-370.05"/>
<polygon fill="midnightblue" stroke="midnightblue" points="302.07,-403.53 308.06,-412.27 308.83,-401.7 302.07,-403.53"/>
</g>
</g>
</svg>
