<?xml version="1.0" encoding="UTF-8" standalone="no"?>
<!DOCTYPE svg PUBLIC "-//W3C//DTD SVG 1.1//EN"
 "http://www.w3.org/Graphics/SVG/1.1/DTD/svg11.dtd">
<!-- Generated by graphviz version 2.49.0 (20210828.1703)
 -->
<!-- Title: C:/Users/folae/Documents/Code/Big&#45;Projects/ArkScript/Ark/include/Ark/Profiling.hpp Pages: 1 -->
<svg width="1844pt" height="707pt"
 viewBox="0.00 0.00 1843.66 707.00" xmlns="http://www.w3.org/2000/svg" xmlns:xlink="http://www.w3.org/1999/xlink">
<g id="graph0" class="graph" transform="scale(1 1) rotate(0) translate(4 703)">
<title>C:/Users/folae/Documents/Code/Big&#45;Projects/ArkScript/Ark/include/Ark/Profiling.hpp</title>
<polygon fill="white" stroke="transparent" points="-4,4 -4,-703 1839.66,-703 1839.66,4 -4,4"/>
<!-- Node1 -->
<g id="node1" class="node">
<title>Node1</title>
<g id="a_node1"><a xlink:title=" ">
<polygon fill="#bfbfbf" stroke="black" points="1442.16,-657.5 1442.16,-698.5 1585.16,-698.5 1585.16,-657.5 1442.16,-657.5"/>
<text text-anchor="start" x="1450.16" y="-686.5" font-family="Helvetica,sans-Serif" font-size="10.00">C:/Users/folae/Documents</text>
<text text-anchor="start" x="1450.16" y="-675.5" font-family="Helvetica,sans-Serif" font-size="10.00">/Code/Big&#45;Projects/ArkScript</text>
<text text-anchor="middle" x="1513.66" y="-664.5" font-family="Helvetica,sans-Serif" font-size="10.00">/Ark/include/Ark/Profiling.hpp</text>
</a>
</g>
</g>
<!-- Node2 -->
<g id="node2" class="node">
<title>Node2</title>
<g id="a_node2"><a xlink:href="../../de/dfd/Value_8hpp.html" target="_top" xlink:title=" ">
<polygon fill="white" stroke="black" points="1117.16,-579.5 1117.16,-620.5 1268.16,-620.5 1268.16,-579.5 1117.16,-579.5"/>
<text text-anchor="start" x="1125.16" y="-608.5" font-family="Helvetica,sans-Serif" font-size="10.00">C:/Users/folae/Documents</text>
<text text-anchor="start" x="1125.16" y="-597.5" font-family="Helvetica,sans-Serif" font-size="10.00">/Code/Big&#45;Projects/ArkScript</text>
<text text-anchor="middle" x="1192.66" y="-586.5" font-family="Helvetica,sans-Serif" font-size="10.00">/Ark/include/Ark/VM/Value.hpp</text>
</a>
</g>
</g>
<!-- Node1&#45;&gt;Node2 -->
<g id="edge1" class="edge">
<title>Node1&#45;&gt;Node2</title>
<path fill="none" stroke="midnightblue" d="M1432.14,-657.7C1381.75,-645.77 1317.52,-630.56 1268.27,-618.9"/>
<polygon fill="midnightblue" stroke="midnightblue" points="1431.49,-661.14 1442.02,-660.04 1433.1,-654.33 1431.49,-661.14"/>
</g>
<!-- Node7 -->
<g id="node7" class="node">
<title>Node7</title>
<g id="a_node7"><a xlink:href="../../df/d0a/main_8cpp.html" target="_top" xlink:title=" ">
<polygon fill="white" stroke="black" points="800.66,-0.5 800.66,-41.5 942.66,-41.5 942.66,-0.5 800.66,-0.5"/>
<text text-anchor="start" x="808.66" y="-29.5" font-family="Helvetica,sans-Serif" font-size="10.00">C:/Users/folae/Documents</text>
<text text-anchor="start" x="808.66" y="-18.5" font-family="Helvetica,sans-Serif" font-size="10.00">/Code/Big&#45;Projects/ArkScript</text>
<text text-anchor="middle" x="871.66" y="-7.5" font-family="Helvetica,sans-Serif" font-size="10.00">/Ark/src/arkscript/main.cpp</text>
</a>
</g>
</g>
<!-- Node1&#45;&gt;Node7 -->
<g id="edge45" class="edge">
<title>Node1&#45;&gt;Node7</title>
<path fill="none" stroke="midnightblue" d="M1595.75,-672.48C1691.15,-662.27 1835.66,-629.27 1835.66,-523 1835.66,-523 1835.66,-523 1835.66,-176 1835.66,-38.93 1362.3,-97.79 1226.66,-78 1104.69,-60.21 1072.77,-64.99 951.66,-42 948.71,-41.44 945.7,-40.84 942.67,-40.2"/>
<polygon fill="midnightblue" stroke="midnightblue" points="1595.12,-669.02 1585.52,-673.5 1595.82,-675.99 1595.12,-669.02"/>
</g>
<!-- Node3 -->
<g id="node3" class="node">
<title>Node3</title>
<g id="a_node3"><a xlink:href="../../da/d84/Builtins_8hpp.html" target="_top" xlink:title="Host the declaration of all the ArkScript builtins.">
<polygon fill="white" stroke="black" points="718.66,-418 718.66,-459 894.66,-459 894.66,-418 718.66,-418"/>
<text text-anchor="start" x="726.66" y="-447" font-family="Helvetica,sans-Serif" font-size="10.00">C:/Users/folae/Documents</text>
<text text-anchor="start" x="726.66" y="-436" font-family="Helvetica,sans-Serif" font-size="10.00">/Code/Big&#45;Projects/ArkScript</text>
<text text-anchor="middle" x="806.66" y="-425" font-family="Helvetica,sans-Serif" font-size="10.00">/Ark/include/Ark/Builtins/Builtins.hpp</text>
</a>
</g>
</g>
<!-- Node2&#45;&gt;Node3 -->
<g id="edge2" class="edge">
<title>Node2&#45;&gt;Node3</title>
<path fill="none" stroke="midnightblue" d="M1106.73,-594.35C1049.3,-588.29 973.6,-574.47 913.66,-543 874.53,-522.46 839.94,-483.18 821.28,-459.36"/>
<polygon fill="midnightblue" stroke="midnightblue" points="1106.57,-597.85 1116.87,-595.35 1107.26,-590.88 1106.57,-597.85"/>
</g>
<!-- Node4 -->
<g id="node4" class="node">
<title>Node4</title>
<g id="a_node4"><a xlink:href="../../d1/d91/VM_8hpp.html" target="_top" xlink:title="The ArkScript virtual machine.">
<polygon fill="white" stroke="black" points="984.66,-156.5 984.66,-197.5 1126.66,-197.5 1126.66,-156.5 984.66,-156.5"/>
<text text-anchor="start" x="992.66" y="-185.5" font-family="Helvetica,sans-Serif" font-size="10.00">C:/Users/folae/Documents</text>
<text text-anchor="start" x="992.66" y="-174.5" font-family="Helvetica,sans-Serif" font-size="10.00">/Code/Big&#45;Projects/ArkScript</text>
<text text-anchor="middle" x="1055.66" y="-163.5" font-family="Helvetica,sans-Serif" font-size="10.00">/Ark/include/Ark/VM/VM.hpp</text>
</a>
</g>
</g>
<!-- Node2&#45;&gt;Node4 -->
<g id="edge43" class="edge">
<title>Node2&#45;&gt;Node4</title>
<path fill="none" stroke="midnightblue" d="M1192.66,-569.32C1192.66,-537.29 1192.66,-484.78 1192.66,-439.5 1192.66,-439.5 1192.66,-439.5 1192.66,-348.5 1192.66,-281.48 1127.54,-225.83 1087.09,-197.73"/>
<polygon fill="midnightblue" stroke="midnightblue" points="1189.16,-569.36 1192.66,-579.36 1196.16,-569.36 1189.16,-569.36"/>
</g>
<!-- Node14 -->
<g id="node14" class="node">
<title>Node14</title>
<g id="a_node14"><a xlink:href="../../d2/de9/Exceptions_8hpp.html" target="_top" xlink:title="ArkScript homemade exceptions.">
<polygon fill="white" stroke="black" points="509.16,-501.5 509.16,-542.5 666.16,-542.5 666.16,-501.5 509.16,-501.5"/>
<text text-anchor="start" x="517.16" y="-530.5" font-family="Helvetica,sans-Serif" font-size="10.00">C:/Users/folae/Documents</text>
<text text-anchor="start" x="517.16" y="-519.5" font-family="Helvetica,sans-Serif" font-size="10.00">/Code/Big&#45;Projects/ArkScript</text>
<text text-anchor="middle" x="587.66" y="-508.5" font-family="Helvetica,sans-Serif" font-size="10.00">/Ark/include/Ark/Exceptions.hpp</text>
</a>
</g>
</g>
<!-- Node2&#45;&gt;Node14 -->
<g id="edge14" class="edge">
<title>Node2&#45;&gt;Node14</title>
<path fill="none" stroke="midnightblue" d="M1106.92,-588.23C989.42,-573.47 780,-547.16 666.33,-532.88"/>
<polygon fill="midnightblue" stroke="midnightblue" points="1106.6,-591.72 1116.96,-589.49 1107.47,-584.77 1106.6,-591.72"/>
</g>
<!-- Node17 -->
<g id="node17" class="node">
<title>Node17</title>
<g id="a_node17"><a xlink:href="../../d0/db5/State_8hpp.html" target="_top" xlink:title="State used by the virtual machine: it loads the bytecode, can compile it if needed,...">
<polygon fill="white" stroke="black" points="882.16,-240 882.16,-281 1031.16,-281 1031.16,-240 882.16,-240"/>
<text text-anchor="start" x="890.16" y="-269" font-family="Helvetica,sans-Serif" font-size="10.00">C:/Users/folae/Documents</text>
<text text-anchor="start" x="890.16" y="-258" font-family="Helvetica,sans-Serif" font-size="10.00">/Code/Big&#45;Projects/ArkScript</text>
<text text-anchor="middle" x="956.66" y="-247" font-family="Helvetica,sans-Serif" font-size="10.00">/Ark/include/Ark/VM/State.hpp</text>
</a>
</g>
</g>
<!-- Node2&#45;&gt;Node17 -->
<g id="edge42" class="edge">
<title>Node2&#45;&gt;Node17</title>
<path fill="none" stroke="midnightblue" d="M1184.72,-569.71C1168.79,-515.5 1128.46,-398.22 1059.66,-323 1043.64,-305.48 1021.46,-291.37 1001.79,-281.1"/>
<polygon fill="midnightblue" stroke="midnightblue" points="1181.37,-570.73 1187.49,-579.37 1188.1,-568.8 1181.37,-570.73"/>
</g>
<!-- Node24 -->
<g id="node24" class="node">
<title>Node24</title>
<g id="a_node24"><a xlink:href="../../db/d5e/TypeChecker_8hpp.html" target="_top" xlink:title=" ">
<polygon fill="white" stroke="black" points="923.16,-501.5 923.16,-542.5 1088.16,-542.5 1088.16,-501.5 923.16,-501.5"/>
<text text-anchor="start" x="931.16" y="-530.5" font-family="Helvetica,sans-Serif" font-size="10.00">C:/Users/folae/Documents</text>
<text text-anchor="start" x="931.16" y="-519.5" font-family="Helvetica,sans-Serif" font-size="10.00">/Code/Big&#45;Projects/ArkScript</text>
<text text-anchor="middle" x="1005.66" y="-508.5" font-family="Helvetica,sans-Serif" font-size="10.00">/Ark/include/Ark/TypeChecker.hpp</text>
</a>
</g>
</g>
<!-- Node2&#45;&gt;Node24 -->
<g id="edge32" class="edge">
<title>Node2&#45;&gt;Node24</title>
<path fill="none" stroke="midnightblue" d="M1135.11,-575.61C1109.01,-565 1078.5,-552.6 1053.66,-542.51"/>
<polygon fill="midnightblue" stroke="midnightblue" points="1133.92,-578.91 1144.51,-579.43 1136.56,-572.42 1133.92,-578.91"/>
</g>
<!-- Node25 -->
<g id="node25" class="node">
<title>Node25</title>
<g id="a_node25"><a xlink:href="../../db/df6/ExecutionContext_8hpp.html" target="_top" xlink:title="Keeping track of the internal data needed by the VM.">
<polygon fill="white" stroke="black" points="1221.16,-418 1221.16,-459 1424.16,-459 1424.16,-418 1221.16,-418"/>
<text text-anchor="start" x="1229.16" y="-447" font-family="Helvetica,sans-Serif" font-size="10.00">C:/Users/folae/Documents</text>
<text text-anchor="start" x="1229.16" y="-436" font-family="Helvetica,sans-Serif" font-size="10.00">/Code/Big&#45;Projects/ArkScript</text>
<text text-anchor="middle" x="1322.66" y="-425" font-family="Helvetica,sans-Serif" font-size="10.00">/Ark/include/Ark/VM/ExecutionContext.hpp</text>
</a>
</g>
</g>
<!-- Node2&#45;&gt;Node25 -->
<g id="edge35" class="edge">
<title>Node2&#45;&gt;Node25</title>
<path fill="none" stroke="midnightblue" d="M1206.09,-570.18C1216.39,-549.71 1231.85,-522.21 1249.66,-501 1262.88,-485.27 1280.42,-470.35 1295,-459.14"/>
<polygon fill="midnightblue" stroke="midnightblue" points="1202.87,-568.8 1201.59,-579.32 1209.15,-571.89 1202.87,-568.8"/>
</g>
<!-- Node26 -->
<g id="node26" class="node">
<title>Node26</title>
<g id="a_node26"><a xlink:href="../../d8/dcd/Scope_8hpp.html" target="_top" xlink:title="The virtual machine scope system.">
<polygon fill="white" stroke="black" points="1438.66,-501.5 1438.66,-542.5 1592.66,-542.5 1592.66,-501.5 1438.66,-501.5"/>
<text text-anchor="start" x="1446.66" y="-530.5" font-family="Helvetica,sans-Serif" font-size="10.00">C:/Users/folae/Documents</text>
<text text-anchor="start" x="1446.66" y="-519.5" font-family="Helvetica,sans-Serif" font-size="10.00">/Code/Big&#45;Projects/ArkScript</text>
<text text-anchor="middle" x="1515.66" y="-508.5" font-family="Helvetica,sans-Serif" font-size="10.00">/Ark/include/Ark/VM/Scope.hpp</text>
</a>
</g>
</g>
<!-- Node2&#45;&gt;Node26 -->
<g id="edge37" class="edge">
<title>Node2&#45;&gt;Node26</title>
<path fill="none" stroke="midnightblue" d="M1278.17,-578.88C1327.94,-567.17 1390.17,-552.53 1438.45,-541.17"/>
<polygon fill="midnightblue" stroke="midnightblue" points="1277.32,-575.48 1268.39,-581.18 1278.93,-582.3 1277.32,-575.48"/>
</g>
<!-- Node29 -->
<g id="node29" class="node">
<title>Node29</title>
<g id="a_node29"><a xlink:href="../../d1/d74/Value_8cpp.html" target="_top" xlink:title=" ">
<polygon fill="white" stroke="black" points="1258.66,-501.5 1258.66,-542.5 1420.66,-542.5 1420.66,-501.5 1258.66,-501.5"/>
<text text-anchor="start" x="1266.66" y="-530.5" font-family="Helvetica,sans-Serif" font-size="10.00">C:/Users/folae/Documents</text>
<text text-anchor="start" x="1266.66" y="-519.5" font-family="Helvetica,sans-Serif" font-size="10.00">/Code/Big&#45;Projects/ArkScript</text>
<text text-anchor="middle" x="1339.66" y="-508.5" font-family="Helvetica,sans-Serif" font-size="10.00">/Ark/src/arkreactor/VM/Value.cpp</text>
</a>
</g>
</g>
<!-- Node2&#45;&gt;Node29 -->
<g id="edge44" class="edge">
<title>Node2&#45;&gt;Node29</title>
<path fill="none" stroke="midnightblue" d="M1239.53,-574.77C1259.68,-564.35 1282.92,-552.34 1301.93,-542.51"/>
<polygon fill="midnightblue" stroke="midnightblue" points="1237.79,-571.73 1230.52,-579.43 1241.01,-577.94 1237.79,-571.73"/>
</g>
<!-- Node3&#45;&gt;Node4 -->
<g id="edge3" class="edge">
<title>Node3&#45;&gt;Node4</title>
<path fill="none" stroke="midnightblue" d="M889.69,-415.5C894.41,-414.3 899.1,-413.13 903.66,-412 972.75,-394.95 1015.36,-431.68 1059.66,-376 1101.29,-323.67 1077.36,-236.56 1063.45,-197.73"/>
<polygon fill="midnightblue" stroke="midnightblue" points="888.78,-412.12 879.96,-417.98 890.51,-418.9 888.78,-412.12"/>
</g>
<!-- Node11 -->
<g id="node11" class="node">
<title>Node11</title>
<g id="a_node11"><a xlink:href="../../d5/d36/BytecodeReader_8cpp.html" target="_top" xlink:title=" ">
<polygon fill="white" stroke="black" points="908.66,-323.5 908.66,-375.5 1050.66,-375.5 1050.66,-323.5 908.66,-323.5"/>
<text text-anchor="start" x="916.66" y="-363.5" font-family="Helvetica,sans-Serif" font-size="10.00">C:/Users/folae/Documents</text>
<text text-anchor="start" x="916.66" y="-352.5" font-family="Helvetica,sans-Serif" font-size="10.00">/Code/Big&#45;Projects/ArkScript</text>
<text text-anchor="start" x="916.66" y="-341.5" font-family="Helvetica,sans-Serif" font-size="10.00">/Ark/src/arkreactor/Compiler</text>
<text text-anchor="middle" x="979.66" y="-330.5" font-family="Helvetica,sans-Serif" font-size="10.00">/BytecodeReader.cpp</text>
</a>
</g>
</g>
<!-- Node3&#45;&gt;Node11 -->
<g id="edge11" class="edge">
<title>Node3&#45;&gt;Node11</title>
<path fill="none" stroke="midnightblue" d="M854.54,-413.42C877.95,-401.65 906.11,-387.49 929.78,-375.58"/>
<polygon fill="midnightblue" stroke="midnightblue" points="852.85,-410.36 845.49,-417.98 855.99,-416.61 852.85,-410.36"/>
</g>
<!-- Node12 -->
<g id="node12" class="node">
<title>Node12</title>
<g id="a_node12"><a xlink:href="../../de/dfa/Compiler_8cpp.html" target="_top" xlink:title=" ">
<polygon fill="white" stroke="black" points="714.66,-234.5 714.66,-286.5 856.66,-286.5 856.66,-234.5 714.66,-234.5"/>
<text text-anchor="start" x="722.66" y="-274.5" font-family="Helvetica,sans-Serif" font-size="10.00">C:/Users/folae/Documents</text>
<text text-anchor="start" x="722.66" y="-263.5" font-family="Helvetica,sans-Serif" font-size="10.00">/Code/Big&#45;Projects/ArkScript</text>
<text text-anchor="start" x="722.66" y="-252.5" font-family="Helvetica,sans-Serif" font-size="10.00">/Ark/src/arkreactor/Compiler</text>
<text text-anchor="middle" x="785.66" y="-241.5" font-family="Helvetica,sans-Serif" font-size="10.00">/Compiler.cpp</text>
</a>
</g>
</g>
<!-- Node3&#45;&gt;Node12 -->
<g id="edge12" class="edge">
<title>Node3&#45;&gt;Node12</title>
<path fill="none" stroke="midnightblue" d="M838.39,-410.64C847.72,-400.81 856.73,-388.9 861.66,-376 870.07,-353.99 871.81,-344.26 861.66,-323 854.72,-308.45 842.46,-296.23 829.79,-286.61"/>
<polygon fill="midnightblue" stroke="midnightblue" points="835.88,-408.2 831.26,-417.74 840.81,-413.17 835.88,-408.2"/>
</g>
<!-- Node13 -->
<g id="node13" class="node">
<title>Node13</title>
<g id="a_node13"><a xlink:href="../../d6/d69/Processor_8cpp.html" target="_top" xlink:title=" ">
<polygon fill="white" stroke="black" points="710.66,-323.5 710.66,-375.5 852.66,-375.5 852.66,-323.5 710.66,-323.5"/>
<text text-anchor="start" x="718.66" y="-363.5" font-family="Helvetica,sans-Serif" font-size="10.00">C:/Users/folae/Documents</text>
<text text-anchor="start" x="718.66" y="-352.5" font-family="Helvetica,sans-Serif" font-size="10.00">/Code/Big&#45;Projects/ArkScript</text>
<text text-anchor="start" x="718.66" y="-341.5" font-family="Helvetica,sans-Serif" font-size="10.00">/Ark/src/arkreactor/Compiler</text>
<text text-anchor="middle" x="781.66" y="-330.5" font-family="Helvetica,sans-Serif" font-size="10.00">/Macros/Processor.cpp</text>
</a>
</g>
</g>
<!-- Node3&#45;&gt;Node13 -->
<g id="edge13" class="edge">
<title>Node3&#45;&gt;Node13</title>
<path fill="none" stroke="midnightblue" d="M798.14,-407.84C795.14,-397.42 791.81,-385.81 788.93,-375.79"/>
<polygon fill="midnightblue" stroke="midnightblue" points="794.86,-409.11 800.99,-417.76 801.59,-407.18 794.86,-409.11"/>
</g>
<!-- Node5 -->
<g id="node5" class="node">
<title>Node5</title>
<g id="a_node5"><a xlink:href="../../d3/d7e/Ark_8hpp.html" target="_top" xlink:title="Includes the needed files to start using ArkScript.">
<polygon fill="white" stroke="black" points="637.66,-78.5 637.66,-119.5 779.66,-119.5 779.66,-78.5 637.66,-78.5"/>
<text text-anchor="start" x="645.66" y="-107.5" font-family="Helvetica,sans-Serif" font-size="10.00">C:/Users/folae/Documents</text>
<text text-anchor="start" x="645.66" y="-96.5" font-family="Helvetica,sans-Serif" font-size="10.00">/Code/Big&#45;Projects/ArkScript</text>
<text text-anchor="middle" x="708.66" y="-85.5" font-family="Helvetica,sans-Serif" font-size="10.00">/Ark/include/Ark/Ark.hpp</text>
</a>
</g>
</g>
<!-- Node4&#45;&gt;Node5 -->
<g id="edge4" class="edge">
<title>Node4&#45;&gt;Node5</title>
<path fill="none" stroke="midnightblue" d="M974.58,-158.24C915.59,-145.32 836.49,-128 779.92,-115.61"/>
<polygon fill="midnightblue" stroke="midnightblue" points="974.09,-161.72 984.6,-160.44 975.59,-154.88 974.09,-161.72"/>
</g>
<!-- Node8 -->
<g id="node8" class="node">
<title>Node8</title>
<g id="a_node8"><a xlink:href="../../d5/da5/Repl_8hpp.html" target="_top" xlink:title="ArkScript REPL &#45; Read Eval Print Loop.">
<polygon fill="white" stroke="black" points="878.66,-78.5 878.66,-119.5 1034.66,-119.5 1034.66,-78.5 878.66,-78.5"/>
<text text-anchor="start" x="886.66" y="-107.5" font-family="Helvetica,sans-Serif" font-size="10.00">C:/Users/folae/Documents</text>
<text text-anchor="start" x="886.66" y="-96.5" font-family="Helvetica,sans-Serif" font-size="10.00">/Code/Big&#45;Projects/ArkScript</text>
<text text-anchor="middle" x="956.66" y="-85.5" font-family="Helvetica,sans-Serif" font-size="10.00">/Ark/include/Ark/REPL/Repl.hpp</text>
</a>
</g>
</g>
<!-- Node4&#45;&gt;Node8 -->
<g id="edge7" class="edge">
<title>Node4&#45;&gt;Node8</title>
<path fill="none" stroke="midnightblue" d="M1021.88,-150.06C1008.84,-140.06 994.18,-128.8 982.07,-119.51"/>
<polygon fill="midnightblue" stroke="midnightblue" points="1020.1,-153.11 1030.17,-156.43 1024.37,-147.56 1020.1,-153.11"/>
</g>
<!-- Node10 -->
<g id="node10" class="node">
<title>Node10</title>
<g id="a_node10"><a xlink:href="../../d2/d27/VM_8cpp.html" target="_top" xlink:title=" ">
<polygon fill="white" stroke="black" points="1065.66,-78.5 1065.66,-119.5 1217.66,-119.5 1217.66,-78.5 1065.66,-78.5"/>
<text text-anchor="start" x="1073.66" y="-107.5" font-family="Helvetica,sans-Serif" font-size="10.00">C:/Users/folae/Documents</text>
<text text-anchor="start" x="1073.66" y="-96.5" font-family="Helvetica,sans-Serif" font-size="10.00">/Code/Big&#45;Projects/ArkScript</text>
<text text-anchor="middle" x="1141.66" y="-85.5" font-family="Helvetica,sans-Serif" font-size="10.00">/Ark/src/arkreactor/VM/VM.cpp</text>
</a>
</g>
</g>
<!-- Node4&#45;&gt;Node10 -->
<g id="edge10" class="edge">
<title>Node4&#45;&gt;Node10</title>
<path fill="none" stroke="midnightblue" d="M1085.33,-149.78C1096.58,-139.84 1109.17,-128.72 1119.59,-119.51"/>
<polygon fill="midnightblue" stroke="midnightblue" points="1082.99,-147.18 1077.81,-156.43 1087.62,-152.43 1082.99,-147.18"/>
</g>
<!-- Node6 -->
<g id="node6" class="node">
<title>Node6</title>
<g id="a_node6"><a xlink:href="../../dc/d32/Ark_8cpp.html" target="_top" xlink:title=" ">
<polygon fill="white" stroke="black" points="637.66,-0.5 637.66,-41.5 779.66,-41.5 779.66,-0.5 637.66,-0.5"/>
<text text-anchor="start" x="645.66" y="-29.5" font-family="Helvetica,sans-Serif" font-size="10.00">C:/Users/folae/Documents</text>
<text text-anchor="start" x="645.66" y="-18.5" font-family="Helvetica,sans-Serif" font-size="10.00">/Code/Big&#45;Projects/ArkScript</text>
<text text-anchor="middle" x="708.66" y="-7.5" font-family="Helvetica,sans-Serif" font-size="10.00">/Ark/src/arkreactor/Ark.cpp</text>
</a>
</g>
</g>
<!-- Node5&#45;&gt;Node6 -->
<g id="edge5" class="edge">
<title>Node5&#45;&gt;Node6</title>
<path fill="none" stroke="midnightblue" d="M708.66,-68.3C708.66,-59.3 708.66,-49.65 708.66,-41.51"/>
<polygon fill="midnightblue" stroke="midnightblue" points="705.16,-68.43 708.66,-78.43 712.16,-68.43 705.16,-68.43"/>
</g>
<!-- Node5&#45;&gt;Node7 -->
<g id="edge6" class="edge">
<title>Node5&#45;&gt;Node7</title>
<path fill="none" stroke="midnightblue" d="M759.73,-74.19C782.28,-63.67 808.46,-51.47 829.83,-41.51"/>
<polygon fill="midnightblue" stroke="midnightblue" points="758.22,-71.03 750.64,-78.43 761.18,-77.37 758.22,-71.03"/>
</g>
<!-- Node8&#45;&gt;Node7 -->
<g id="edge9" class="edge">
<title>Node8&#45;&gt;Node7</title>
<path fill="none" stroke="midnightblue" d="M927.02,-71.49C915.98,-61.63 903.68,-50.63 893.48,-41.51"/>
<polygon fill="midnightblue" stroke="midnightblue" points="924.99,-74.37 934.77,-78.43 929.65,-69.15 924.99,-74.37"/>
</g>
<!-- Node9 -->
<g id="node9" class="node">
<title>Node9</title>
<g id="a_node9"><a xlink:href="../../d7/d46/Repl_8cpp.html" target="_top" xlink:title=" ">
<polygon fill="white" stroke="black" points="961.16,-0.5 961.16,-41.5 1122.16,-41.5 1122.16,-0.5 961.16,-0.5"/>
<text text-anchor="start" x="969.16" y="-29.5" font-family="Helvetica,sans-Serif" font-size="10.00">C:/Users/folae/Documents</text>
<text text-anchor="start" x="969.16" y="-18.5" font-family="Helvetica,sans-Serif" font-size="10.00">/Code/Big&#45;Projects/ArkScript</text>
<text text-anchor="middle" x="1041.66" y="-7.5" font-family="Helvetica,sans-Serif" font-size="10.00">/Ark/src/arkscript/REPL/Repl.cpp</text>
</a>
</g>
</g>
<!-- Node8&#45;&gt;Node9 -->
<g id="edge8" class="edge">
<title>Node8&#45;&gt;Node9</title>
<path fill="none" stroke="midnightblue" d="M986.31,-71.49C997.34,-61.63 1009.65,-50.63 1019.85,-41.51"/>
<polygon fill="midnightblue" stroke="midnightblue" points="983.67,-69.15 978.55,-78.43 988.34,-74.37 983.67,-69.15"/>
</g>
<!-- Node14&#45;&gt;Node3 -->
<g id="edge16" class="edge">
<title>Node14&#45;&gt;Node3</title>
<path fill="none" stroke="midnightblue" d="M649.67,-497.92C682.68,-485.64 722.82,-470.7 754.26,-459"/>
<polygon fill="midnightblue" stroke="midnightblue" points="648.27,-494.71 640.12,-501.48 650.71,-501.27 648.27,-494.71"/>
</g>
<!-- Node14&#45;&gt;Node5 -->
<g id="edge15" class="edge">
<title>Node14&#45;&gt;Node5</title>
<path fill="none" stroke="midnightblue" d="M499.04,-518.03C348.94,-512.16 57.6,-496.79 23.66,-465 -13.99,-429.74 4.66,-402.08 4.66,-350.5 4.66,-350.5 4.66,-350.5 4.66,-259.5 4.66,-130.66 458.86,-105.89 637.61,-101.13"/>
<polygon fill="midnightblue" stroke="midnightblue" points="499.03,-521.54 509.15,-518.42 499.3,-514.54 499.03,-521.54"/>
</g>
<!-- Node14&#45;&gt;Node13 -->
<g id="edge30" class="edge">
<title>Node14&#45;&gt;Node13</title>
<path fill="none" stroke="midnightblue" d="M631,-495.79C644.45,-486.95 658.83,-476.36 670.66,-465 691.76,-444.75 689.75,-433.42 709.66,-412 721.64,-399.12 736.19,-386.26 749.06,-375.66"/>
<polygon fill="midnightblue" stroke="midnightblue" points="628.87,-493.01 622.34,-501.35 632.65,-498.9 628.87,-493.01"/>
</g>
<!-- Node15 -->
<g id="node15" class="node">
<title>Node15</title>
<g id="a_node15"><a xlink:href="../../db/d93/Optimizer_8hpp.html" target="_top" xlink:title="Optimizes a given ArkScript AST.">
<polygon fill="white" stroke="black" points="513.16,-412.5 513.16,-464.5 662.16,-464.5 662.16,-412.5 513.16,-412.5"/>
<text text-anchor="start" x="521.16" y="-452.5" font-family="Helvetica,sans-Serif" font-size="10.00">C:/Users/folae/Documents</text>
<text text-anchor="start" x="521.16" y="-441.5" font-family="Helvetica,sans-Serif" font-size="10.00">/Code/Big&#45;Projects/ArkScript</text>
<text text-anchor="start" x="521.16" y="-430.5" font-family="Helvetica,sans-Serif" font-size="10.00">/Ark/include/Ark/Compiler/AST</text>
<text text-anchor="middle" x="587.66" y="-419.5" font-family="Helvetica,sans-Serif" font-size="10.00">/Optimizer.hpp</text>
</a>
</g>
</g>
<!-- Node14&#45;&gt;Node15 -->
<g id="edge17" class="edge">
<title>Node14&#45;&gt;Node15</title>
<path fill="none" stroke="midnightblue" d="M587.66,-491.12C587.66,-482.41 587.66,-472.99 587.66,-464.61"/>
<polygon fill="midnightblue" stroke="midnightblue" points="584.16,-491.27 587.66,-501.27 591.16,-491.27 584.16,-491.27"/>
</g>
<!-- Node20 -->
<g id="node20" class="node">
<title>Node20</title>
<g id="a_node20"><a xlink:href="../../d2/d15/Lexer_8cpp.html" target="_top" xlink:title=" ">
<polygon fill="white" stroke="black" points="32.66,-412.5 32.66,-464.5 174.66,-464.5 174.66,-412.5 32.66,-412.5"/>
<text text-anchor="start" x="40.66" y="-452.5" font-family="Helvetica,sans-Serif" font-size="10.00">C:/Users/folae/Documents</text>
<text text-anchor="start" x="40.66" y="-441.5" font-family="Helvetica,sans-Serif" font-size="10.00">/Code/Big&#45;Projects/ArkScript</text>
<text text-anchor="start" x="40.66" y="-430.5" font-family="Helvetica,sans-Serif" font-size="10.00">/Ark/src/arkreactor/Compiler</text>
<text text-anchor="middle" x="103.66" y="-419.5" font-family="Helvetica,sans-Serif" font-size="10.00">/AST/Lexer.cpp</text>
</a>
</g>
</g>
<!-- Node14&#45;&gt;Node20 -->
<g id="edge27" class="edge">
<title>Node14&#45;&gt;Node20</title>
<path fill="none" stroke="midnightblue" d="M499.05,-513.11C416.67,-504.75 290.88,-489.33 183.66,-465 180.82,-464.35 177.93,-463.65 175.03,-462.91"/>
<polygon fill="midnightblue" stroke="midnightblue" points="498.82,-516.61 509.12,-514.12 499.52,-509.64 498.82,-516.61"/>
</g>
<!-- Node21 -->
<g id="node21" class="node">
<title>Node21</title>
<g id="a_node21"><a xlink:href="../../dc/d73/Node_8cpp.html" target="_top" xlink:title=" ">
<polygon fill="white" stroke="black" points="192.66,-412.5 192.66,-464.5 334.66,-464.5 334.66,-412.5 192.66,-412.5"/>
<text text-anchor="start" x="200.66" y="-452.5" font-family="Helvetica,sans-Serif" font-size="10.00">C:/Users/folae/Documents</text>
<text text-anchor="start" x="200.66" y="-441.5" font-family="Helvetica,sans-Serif" font-size="10.00">/Code/Big&#45;Projects/ArkScript</text>
<text text-anchor="start" x="200.66" y="-430.5" font-family="Helvetica,sans-Serif" font-size="10.00">/Ark/src/arkreactor/Compiler</text>
<text text-anchor="middle" x="263.66" y="-419.5" font-family="Helvetica,sans-Serif" font-size="10.00">/AST/Node.cpp</text>
</a>
</g>
</g>
<!-- Node14&#45;&gt;Node21 -->
<g id="edge28" class="edge">
<title>Node14&#45;&gt;Node21</title>
<path fill="none" stroke="midnightblue" d="M498.91,-502.49C452.44,-492.33 394.73,-478.97 343.66,-465 340.71,-464.19 337.7,-463.35 334.67,-462.47"/>
<polygon fill="midnightblue" stroke="midnightblue" points="498.44,-505.97 508.96,-504.67 499.93,-499.13 498.44,-505.97"/>
</g>
<!-- Node22 -->
<g id="node22" class="node">
<title>Node22</title>
<g id="a_node22"><a xlink:href="../../dc/df5/Parser_8cpp.html" target="_top" xlink:title=" ">
<polygon fill="white" stroke="black" points="352.66,-412.5 352.66,-464.5 494.66,-464.5 494.66,-412.5 352.66,-412.5"/>
<text text-anchor="start" x="360.66" y="-452.5" font-family="Helvetica,sans-Serif" font-size="10.00">C:/Users/folae/Documents</text>
<text text-anchor="start" x="360.66" y="-441.5" font-family="Helvetica,sans-Serif" font-size="10.00">/Code/Big&#45;Projects/ArkScript</text>
<text text-anchor="start" x="360.66" y="-430.5" font-family="Helvetica,sans-Serif" font-size="10.00">/Ark/src/arkreactor/Compiler</text>
<text text-anchor="middle" x="423.66" y="-419.5" font-family="Helvetica,sans-Serif" font-size="10.00">/AST/Parser.cpp</text>
</a>
</g>
</g>
<!-- Node14&#45;&gt;Node22 -->
<g id="edge29" class="edge">
<title>Node14&#45;&gt;Node22</title>
<path fill="none" stroke="midnightblue" d="M539.22,-496.93C518.72,-486.74 494.84,-474.87 474.12,-464.58"/>
<polygon fill="midnightblue" stroke="midnightblue" points="537.87,-500.16 548.38,-501.48 540.98,-493.89 537.87,-500.16"/>
</g>
<!-- Node23 -->
<g id="node23" class="node">
<title>Node23</title>
<g id="a_node23"><a xlink:href="../../d6/d9a/TypeChecker_8cpp.html" target="_top" xlink:title=" ">
<polygon fill="white" stroke="black" points="912.66,-418 912.66,-459 1088.66,-459 1088.66,-418 912.66,-418"/>
<text text-anchor="start" x="920.66" y="-447" font-family="Helvetica,sans-Serif" font-size="10.00">C:/Users/folae/Documents</text>
<text text-anchor="start" x="920.66" y="-436" font-family="Helvetica,sans-Serif" font-size="10.00">/Code/Big&#45;Projects/ArkScript</text>
<text text-anchor="middle" x="1000.66" y="-425" font-family="Helvetica,sans-Serif" font-size="10.00">/Ark/src/arkreactor/TypeChecker.cpp</text>
</a>
</g>
</g>
<!-- Node14&#45;&gt;Node23 -->
<g id="edge31" class="edge">
<title>Node14&#45;&gt;Node23</title>
<path fill="none" stroke="midnightblue" d="M676.24,-507.29C739.8,-496.97 827.34,-481.77 903.66,-465 911.91,-463.19 920.52,-461.15 929.05,-459.03"/>
<polygon fill="midnightblue" stroke="midnightblue" points="675.57,-503.85 666.26,-508.9 676.69,-510.76 675.57,-503.85"/>
</g>
<!-- Node16 -->
<g id="node16" class="node">
<title>Node16</title>
<g id="a_node16"><a xlink:href="../../d8/d0f/Compiler_8hpp.html" target="_top" xlink:title="ArkScript compiler is in charge of transforming the AST into bytecode.">
<polygon fill="white" stroke="black" points="504.66,-329 504.66,-370 692.66,-370 692.66,-329 504.66,-329"/>
<text text-anchor="start" x="512.66" y="-358" font-family="Helvetica,sans-Serif" font-size="10.00">C:/Users/folae/Documents</text>
<text text-anchor="start" x="512.66" y="-347" font-family="Helvetica,sans-Serif" font-size="10.00">/Code/Big&#45;Projects/ArkScript</text>
<text text-anchor="middle" x="598.66" y="-336" font-family="Helvetica,sans-Serif" font-size="10.00">/Ark/include/Ark/Compiler/Compiler.hpp</text>
</a>
</g>
</g>
<!-- Node15&#45;&gt;Node16 -->
<g id="edge18" class="edge">
<title>Node15&#45;&gt;Node16</title>
<path fill="none" stroke="midnightblue" d="M592.13,-402.16C593.52,-391.21 594.99,-379.55 596.19,-370.08"/>
<polygon fill="midnightblue" stroke="midnightblue" points="588.63,-401.98 590.84,-412.34 595.57,-402.85 588.63,-401.98"/>
</g>
<!-- Node19 -->
<g id="node19" class="node">
<title>Node19</title>
<g id="a_node19"><a xlink:href="../../d2/dc5/Optimizer_8cpp.html" target="_top" xlink:title=" ">
<polygon fill="white" stroke="black" points="344.66,-323.5 344.66,-375.5 486.66,-375.5 486.66,-323.5 344.66,-323.5"/>
<text text-anchor="start" x="352.66" y="-363.5" font-family="Helvetica,sans-Serif" font-size="10.00">C:/Users/folae/Documents</text>
<text text-anchor="start" x="352.66" y="-352.5" font-family="Helvetica,sans-Serif" font-size="10.00">/Code/Big&#45;Projects/ArkScript</text>
<text text-anchor="start" x="352.66" y="-341.5" font-family="Helvetica,sans-Serif" font-size="10.00">/Ark/src/arkreactor/Compiler</text>
<text text-anchor="middle" x="415.66" y="-330.5" font-family="Helvetica,sans-Serif" font-size="10.00">/AST/Optimizer.cpp</text>
</a>
</g>
</g>
<!-- Node15&#45;&gt;Node19 -->
<g id="edge26" class="edge">
<title>Node15&#45;&gt;Node19</title>
<path fill="none" stroke="midnightblue" d="M528.9,-407.78C508.21,-397.31 485.17,-385.66 465.3,-375.61"/>
<polygon fill="midnightblue" stroke="midnightblue" points="527.41,-410.95 537.91,-412.34 530.57,-404.7 527.41,-410.95"/>
</g>
<!-- Node16&#45;&gt;Node5 -->
<g id="edge19" class="edge">
<title>Node16&#45;&gt;Node5</title>
<path fill="none" stroke="midnightblue" d="M603.82,-318.86C611.52,-279.65 628.47,-209.29 658.66,-156 666.24,-142.62 677.46,-129.68 687.35,-119.61"/>
<polygon fill="midnightblue" stroke="midnightblue" points="600.35,-318.35 601.93,-328.82 607.23,-319.65 600.35,-318.35"/>
</g>
<!-- Node16&#45;&gt;Node8 -->
<g id="edge20" class="edge">
<title>Node16&#45;&gt;Node8</title>
<path fill="none" stroke="midnightblue" d="M614.4,-320.11C639.27,-277.9 691.68,-198.98 757.66,-156 793.75,-132.49 839.73,-118.72 878.4,-110.72"/>
<polygon fill="midnightblue" stroke="midnightblue" points="611.37,-318.37 609.38,-328.78 617.42,-321.88 611.37,-318.37"/>
</g>
<!-- Node16&#45;&gt;Node12 -->
<g id="edge25" class="edge">
<title>Node16&#45;&gt;Node12</title>
<path fill="none" stroke="midnightblue" d="M649.74,-324.74C675.18,-312.9 705.93,-298.59 731.74,-286.58"/>
<polygon fill="midnightblue" stroke="midnightblue" points="648.22,-321.58 640.63,-328.98 651.17,-327.93 648.22,-321.58"/>
</g>
<!-- Node16&#45;&gt;Node17 -->
<g id="edge21" class="edge">
<title>Node16&#45;&gt;Node17</title>
<path fill="none" stroke="midnightblue" d="M686.44,-326.6C691.58,-325.37 696.69,-324.16 701.66,-323 774.33,-306.03 793.26,-305.08 865.66,-287 873.14,-285.13 880.95,-283.09 888.7,-281"/>
<polygon fill="midnightblue" stroke="midnightblue" points="685.4,-323.25 676.5,-329 687.04,-330.06 685.4,-323.25"/>
</g>
<!-- Node17&#45;&gt;Node4 -->
<g id="edge23" class="edge">
<title>Node17&#45;&gt;Node4</title>
<path fill="none" stroke="midnightblue" d="M988.37,-233.39C1002.46,-221.8 1018.77,-208.37 1031.8,-197.64"/>
<polygon fill="midnightblue" stroke="midnightblue" points="985.87,-230.92 980.38,-239.98 990.32,-236.33 985.87,-230.92"/>
</g>
<!-- Node17&#45;&gt;Node8 -->
<g id="edge22" class="edge">
<title>Node17&#45;&gt;Node8</title>
<path fill="none" stroke="midnightblue" d="M956.66,-229.8C956.66,-197.66 956.66,-147.31 956.66,-119.72"/>
<polygon fill="midnightblue" stroke="midnightblue" points="953.16,-229.94 956.66,-239.94 960.16,-229.94 953.16,-229.94"/>
</g>
<!-- Node18 -->
<g id="node18" class="node">
<title>Node18</title>
<g id="a_node18"><a xlink:href="../../d0/da0/State_8cpp.html" target="_top" xlink:title=" ">
<polygon fill="white" stroke="black" points="767.16,-156.5 767.16,-197.5 928.16,-197.5 928.16,-156.5 767.16,-156.5"/>
<text text-anchor="start" x="775.16" y="-185.5" font-family="Helvetica,sans-Serif" font-size="10.00">C:/Users/folae/Documents</text>
<text text-anchor="start" x="775.16" y="-174.5" font-family="Helvetica,sans-Serif" font-size="10.00">/Code/Big&#45;Projects/ArkScript</text>
<text text-anchor="middle" x="847.66" y="-163.5" font-family="Helvetica,sans-Serif" font-size="10.00">/Ark/src/arkreactor/VM/State.cpp</text>
</a>
</g>
</g>
<!-- Node17&#45;&gt;Node18 -->
<g id="edge24" class="edge">
<title>Node17&#45;&gt;Node18</title>
<path fill="none" stroke="midnightblue" d="M922.18,-233.72C906.57,-222.05 888.42,-208.47 873.94,-197.64"/>
<polygon fill="midnightblue" stroke="midnightblue" points="920.45,-236.79 930.55,-239.98 924.64,-231.19 920.45,-236.79"/>
</g>
<!-- Node24&#45;&gt;Node10 -->
<g id="edge34" class="edge">
<title>Node24&#45;&gt;Node10</title>
<path fill="none" stroke="midnightblue" d="M1057.45,-496.37C1071.71,-487.86 1086.35,-477.32 1097.66,-465 1136.12,-423.13 1154.66,-407.35 1154.66,-350.5 1154.66,-350.5 1154.66,-350.5 1154.66,-259.5 1154.66,-208.94 1148.09,-149.65 1144.29,-119.6"/>
<polygon fill="midnightblue" stroke="midnightblue" points="1055.6,-493.4 1048.66,-501.4 1059.08,-499.48 1055.6,-493.4"/>
</g>
<!-- Node24&#45;&gt;Node23 -->
<g id="edge33" class="edge">
<title>Node24&#45;&gt;Node23</title>
<path fill="none" stroke="midnightblue" d="M1003.83,-491.06C1003.17,-480.38 1002.45,-468.63 1001.86,-459.05"/>
<polygon fill="midnightblue" stroke="midnightblue" points="1000.35,-491.5 1004.45,-501.27 1007.33,-491.08 1000.35,-491.5"/>
</g>
<!-- Node25&#45;&gt;Node4 -->
<g id="edge36" class="edge">
<title>Node25&#45;&gt;Node4</title>
<path fill="none" stroke="midnightblue" d="M1313.29,-408.21C1297.85,-364.4 1263.03,-281.86 1206.66,-234 1183.96,-214.73 1154.02,-201.8 1126.78,-193.27"/>
<polygon fill="midnightblue" stroke="midnightblue" points="1309.99,-409.38 1316.55,-417.71 1316.61,-407.11 1309.99,-409.38"/>
</g>
<!-- Node26&#45;&gt;Node4 -->
<g id="edge39" class="edge">
<title>Node26&#45;&gt;Node4</title>
<path fill="none" stroke="midnightblue" d="M1494.32,-493.44C1487.38,-484.41 1479.66,-474.3 1472.66,-465 1385.8,-349.44 1369.04,-305.98 1243.66,-234 1207.78,-213.4 1163.61,-199.74 1127.1,-191.07"/>
<polygon fill="midnightblue" stroke="midnightblue" points="1491.56,-495.59 1500.44,-501.38 1497.11,-491.32 1491.56,-495.59"/>
</g>
<!-- Node26&#45;&gt;Node25 -->
<g id="edge38" class="edge">
<title>Node26&#45;&gt;Node25</title>
<path fill="none" stroke="midnightblue" d="M1459.89,-497.45C1431.02,-485.26 1396.19,-470.55 1368.85,-459"/>
<polygon fill="midnightblue" stroke="midnightblue" points="1458.86,-500.81 1469.43,-501.48 1461.58,-494.36 1458.86,-500.81"/>
</g>
<!-- Node27 -->
<g id="node27" class="node">
<title>Node27</title>
<g id="a_node27"><a xlink:href="../../d5/d04/Scope_8cpp.html" target="_top" xlink:title=" ">
<polygon fill="white" stroke="black" points="1481.16,-418 1481.16,-459 1646.16,-459 1646.16,-418 1481.16,-418"/>
<text text-anchor="start" x="1489.16" y="-447" font-family="Helvetica,sans-Serif" font-size="10.00">C:/Users/folae/Documents</text>
<text text-anchor="start" x="1489.16" y="-436" font-family="Helvetica,sans-Serif" font-size="10.00">/Code/Big&#45;Projects/ArkScript</text>
<text text-anchor="middle" x="1563.66" y="-425" font-family="Helvetica,sans-Serif" font-size="10.00">/Ark/src/arkreactor/VM/Scope.cpp</text>
</a>
</g>
</g>
<!-- Node26&#45;&gt;Node27 -->
<g id="edge40" class="edge">
<title>Node26&#45;&gt;Node27</title>
<path fill="none" stroke="midnightblue" d="M1532.51,-492.39C1539.01,-481.37 1546.27,-469.03 1552.15,-459.05"/>
<polygon fill="midnightblue" stroke="midnightblue" points="1529.34,-490.88 1527.28,-501.27 1535.37,-494.43 1529.34,-490.88"/>
</g>
<!-- Node28 -->
<g id="node28" class="node">
<title>Node28</title>
<g id="a_node28"><a xlink:href="../../d1/db2/Closure_8cpp.html" target="_top" xlink:title=" ">
<polygon fill="white" stroke="black" points="1664.16,-412.5 1664.16,-464.5 1807.16,-464.5 1807.16,-412.5 1664.16,-412.5"/>
<text text-anchor="start" x="1672.16" y="-452.5" font-family="Helvetica,sans-Serif" font-size="10.00">C:/Users/folae/Documents</text>
<text text-anchor="start" x="1672.16" y="-441.5" font-family="Helvetica,sans-Serif" font-size="10.00">/Code/Big&#45;Projects/ArkScript</text>
<text text-anchor="start" x="1672.16" y="-430.5" font-family="Helvetica,sans-Serif" font-size="10.00">/Ark/src/arkreactor/VM/Value</text>
<text text-anchor="middle" x="1735.66" y="-419.5" font-family="Helvetica,sans-Serif" font-size="10.00">/Closure.cpp</text>
</a>
</g>
</g>
<!-- Node26&#45;&gt;Node28 -->
<g id="edge41" class="edge">
<title>Node26&#45;&gt;Node28</title>
<path fill="none" stroke="midnightblue" d="M1578.06,-497.89C1606.12,-487.49 1639.31,-475.2 1667.97,-464.58"/>
<polygon fill="midnightblue" stroke="midnightblue" points="1576.52,-494.72 1568.36,-501.48 1578.95,-501.29 1576.52,-494.72"/>
</g>
</g>
</svg>
