<?xml version="1.0" encoding="UTF-8" standalone="no"?>
<!DOCTYPE svg PUBLIC "-//W3C//DTD SVG 1.1//EN"
 "http://www.w3.org/Graphics/SVG/1.1/DTD/svg11.dtd">
<!-- Generated by graphviz version 12.1.1 (20240910.0053)
 -->
<!-- Title: Ark::internal::NameResolutionPass Pages: 1 -->
<svg width="1764pt" height="287pt"
 viewBox="0.00 0.00 1764.00 286.88" xmlns="http://www.w3.org/2000/svg" xmlns:xlink="http://www.w3.org/1999/xlink">
<g id="graph0" class="graph" transform="scale(1 1) rotate(0) translate(4 282.88)">
<title>Ark::internal::NameResolutionPass</title>
<!-- Node1 -->
<g id="Node000001" class="node">
<title>Node1</title>
<g id="a_Node000001"><a xlink:title=" ">
<polygon fill="#999999" stroke="#666666" points="1756,-159.88 1586.25,-159.88 1586.25,-140.62 1756,-140.62 1756,-159.88"/>
<text text-anchor="middle" x="1671.12" y="-146.38" font-family="Helvetica,sans-Serif" font-size="10.00">Ark::internal::NameResolutionPass</text>
</a>
</g>
</g>
<!-- Node2 -->
<g id="Node000002" class="node">
<title>Node2</title>
<g id="a_Node000002"><a xlink:href="../../da/d7b/classArk_1_1internal_1_1Pass.html" target="_top" xlink:title="An interface to describe compiler passes.">
<polygon fill="white" stroke="#666666" points="779.25,-278.88 682.25,-278.88 682.25,-259.62 779.25,-259.62 779.25,-278.88"/>
<text text-anchor="middle" x="730.75" y="-265.38" font-family="Helvetica,sans-Serif" font-size="10.00">Ark::internal::Pass</text>
</a>
</g>
</g>
<!-- Node2&#45;&gt;Node1 -->
<g id="edge1_Node000001_Node000002" class="edge">
<title>Node2&#45;&gt;Node1</title>
<g id="a_edge1_Node000001_Node000002"><a xlink:title=" ">
<path fill="none" stroke="#63b8ff" d="M790.87,-269.57C849.86,-269.86 943.07,-270.25 1023.75,-270.25 1023.75,-270.25 1023.75,-270.25 1398.12,-270.25 1506.77,-270.25 1620.65,-189.12 1657.7,-160.27"/>
<polygon fill="#63b8ff" stroke="#63b8ff" points="791.08,-266.07 781.06,-269.52 791.04,-273.07 791.08,-266.07"/>
</a>
</g>
</g>
<!-- Node3 -->
<g id="Node000003" class="node">
<title>Node3</title>
<g id="a_Node000003"><a xlink:href="../../d6/d2f/classArk_1_1internal_1_1Logger.html" target="_top" xlink:title=" ">
<polygon fill="white" stroke="#666666" points="379.75,-268.88 276,-268.88 276,-249.62 379.75,-249.62 379.75,-268.88"/>
<text text-anchor="middle" x="327.88" y="-255.38" font-family="Helvetica,sans-Serif" font-size="10.00">Ark::internal::Logger</text>
</a>
</g>
</g>
<!-- Node3&#45;&gt;Node2 -->
<g id="edge2_Node000002_Node000003" class="edge">
<title>Node3&#45;&gt;Node2</title>
<g id="a_edge2_Node000002_Node000003"><a xlink:title=" ">
<path fill="none" stroke="#9a32cd" stroke-dasharray="5,2" d="M391.48,-260.81C471.85,-262.82 609.56,-266.25 682,-268.06"/>
<polygon fill="#9a32cd" stroke="#9a32cd" points="391.65,-257.31 381.57,-260.56 391.48,-264.31 391.65,-257.31"/>
</a>
</g>
<text text-anchor="middle" x="463.38" y="-265.57" font-family="Helvetica,sans-Serif" font-size="10.00" fill="grey"> m_logger</text>
</g>
<!-- Node4 -->
<g id="Node000004" class="node">
<title>Node4</title>
<g id="a_Node000004"><a xlink:title=" ">
<polygon fill="white" stroke="#666666" points="190.5,-182.88 131,-182.88 131,-163.62 190.5,-163.62 190.5,-182.88"/>
<text text-anchor="middle" x="160.75" y="-169.38" font-family="Helvetica,sans-Serif" font-size="10.00">std::string</text>
</a>
</g>
</g>
<!-- Node4&#45;&gt;Node3 -->
<g id="edge3_Node000003_Node000004" class="edge">
<title>Node4&#45;&gt;Node3</title>
<g id="a_edge3_Node000003_Node000004"><a xlink:title=" ">
<path fill="none" stroke="#9a32cd" stroke-dasharray="5,2" d="M174.17,-192.19C182.59,-203.61 194.67,-217.58 208.5,-226.25 228.66,-238.88 253.71,-246.77 275.57,-251.65"/>
<polygon fill="#9a32cd" stroke="#9a32cd" points="177.23,-190.45 168.64,-184.25 171.49,-194.45 177.23,-190.45"/>
</a>
</g>
<text text-anchor="middle" x="228.75" y="-245.92" font-family="Helvetica,sans-Serif" font-size="10.00" fill="grey"> m_name</text>
</g>
<!-- Node6 -->
<g id="Node000006" class="node">
<title>Node6</title>
<g id="a_Node000006"><a xlink:href="../../dc/d9e/classArk_1_1internal_1_1Node.html" target="_top" xlink:title="A node of an Abstract Syntax Tree for ArkScript.">
<polygon fill="white" stroke="#666666" points="916.75,-221.88 819,-221.88 819,-202.62 916.75,-202.62 916.75,-221.88"/>
<text text-anchor="middle" x="867.88" y="-208.38" font-family="Helvetica,sans-Serif" font-size="10.00">Ark::internal::Node</text>
</a>
</g>
</g>
<!-- Node4&#45;&gt;Node6 -->
<g id="edge6_Node000006_Node000004" class="edge">
<title>Node4&#45;&gt;Node6</title>
<g id="a_edge6_Node000006_Node000004"><a xlink:title=" ">
<path fill="none" stroke="#9a32cd" stroke-dasharray="5,2" d="M201.92,-185.98C204.13,-186.46 206.34,-186.89 208.5,-187.25 434.18,-224.7 709.08,-218.89 818.54,-214.56"/>
<polygon fill="#9a32cd" stroke="#9a32cd" points="202.93,-182.62 192.38,-183.58 201.22,-189.41 202.93,-182.62"/>
</a>
</g>
<text text-anchor="middle" x="463.38" y="-239.7" font-family="Helvetica,sans-Serif" font-size="10.00" fill="grey"> m_after_comment</text>
<text text-anchor="middle" x="463.38" y="-228.45" font-family="Helvetica,sans-Serif" font-size="10.00" fill="grey">m_comment</text>
<text text-anchor="middle" x="463.38" y="-217.2" font-family="Helvetica,sans-Serif" font-size="10.00" fill="grey">m_filename</text>
</g>
<!-- Node7 -->
<g id="Node000007" class="node">
<title>Node7</title>
<g id="a_Node000007"><a xlink:title=" ">
<polygon fill="white" stroke="#666666" points="649.62,-30.5 552.62,-30.5 552.62,0 649.62,0 649.62,-30.5"/>
<text text-anchor="start" x="560.62" y="-17" font-family="Helvetica,sans-Serif" font-size="10.00">std::unordered_set</text>
<text text-anchor="middle" x="601.12" y="-5.75" font-family="Helvetica,sans-Serif" font-size="10.00">&lt; std::string &gt;</text>
</a>
</g>
</g>
<!-- Node4&#45;&gt;Node7 -->
<g id="edge8_Node000007_Node000004" class="edge">
<title>Node4&#45;&gt;Node7</title>
<g id="a_edge8_Node000007_Node000004"><a xlink:title=" ">
<path fill="none" stroke="#9a32cd" stroke-dasharray="5,2" d="M180.41,-155.92C200.2,-138.73 233.24,-113.37 267,-102 374.51,-65.81 424.25,-129.09 520,-68.25 532.49,-60.32 526.6,-49.68 538,-40.25 542.3,-36.69 547.17,-33.59 552.25,-30.9"/>
<polygon fill="#9a32cd" stroke="#9a32cd" points="178.3,-153.1 173.17,-162.37 182.96,-158.33 178.3,-153.1"/>
</a>
</g>
<text text-anchor="middle" x="327.88" y="-103.75" font-family="Helvetica,sans-Serif" font-size="10.00" fill="grey"> keys</text>
</g>
<!-- Node13 -->
<g id="Node000013" class="node">
<title>Node13</title>
<g id="a_Node000013"><a xlink:title=" ">
<polygon fill="white" stroke="#666666" points="1238.75,-136.88 1114.75,-136.88 1114.75,-117.62 1238.75,-117.62 1238.75,-136.88"/>
<text text-anchor="middle" x="1176.75" y="-123.38" font-family="Helvetica,sans-Serif" font-size="10.00">std::vector&lt; std::string &gt;</text>
</a>
</g>
</g>
<!-- Node4&#45;&gt;Node13 -->
<g id="edge16_Node000013_Node000004" class="edge">
<title>Node4&#45;&gt;Node13</title>
<g id="a_edge16_Node000013_Node000004"><a xlink:title=" ">
<path fill="none" stroke="#9a32cd" stroke-dasharray="5,2" d="M202.13,-173.25C235.56,-173.25 284.31,-173.25 326.88,-173.25 326.88,-173.25 326.88,-173.25 868.88,-173.25 968.68,-173.25 996.63,-185.2 1093,-159.25 1101.64,-156.92 1102.77,-153.75 1111,-150.25 1121.87,-145.62 1134.01,-141.14 1144.82,-137.37"/>
<polygon fill="#9a32cd" stroke="#9a32cd" points="202.49,-169.75 192.49,-173.25 202.49,-176.75 202.49,-169.75"/>
</a>
</g>
<text text-anchor="middle" x="601.12" y="-175" font-family="Helvetica,sans-Serif" font-size="10.00" fill="grey"> elements</text>
</g>
<!-- Node18 -->
<g id="Node000018" class="node">
<title>Node18</title>
<g id="a_Node000018"><a xlink:href="../../df/da2/structArk_1_1internal_1_1Variable.html" target="_top" xlink:title=" ">
<polygon fill="white" stroke="#666666" points="382.38,-141.88 273.38,-141.88 273.38,-122.62 382.38,-122.62 382.38,-141.88"/>
<text text-anchor="middle" x="327.88" y="-128.38" font-family="Helvetica,sans-Serif" font-size="10.00">Ark::internal::Variable</text>
</a>
</g>
</g>
<!-- Node4&#45;&gt;Node18 -->
<g id="edge23_Node000018_Node000004" class="edge">
<title>Node4&#45;&gt;Node18</title>
<g id="a_edge23_Node000018_Node000004"><a xlink:title=" ">
<path fill="none" stroke="#9a32cd" stroke-dasharray="5,2" d="M186.23,-157.87C193.2,-154.1 200.95,-150.45 208.5,-148 229.01,-141.35 252.39,-137.5 272.93,-135.28"/>
<polygon fill="#9a32cd" stroke="#9a32cd" points="184.94,-154.58 178.01,-162.6 188.43,-160.65 184.94,-154.58"/>
</a>
</g>
<text text-anchor="middle" x="228.75" y="-149.75" font-family="Helvetica,sans-Serif" font-size="10.00" fill="grey"> name</text>
</g>
<!-- Node5 -->
<g id="Node000005" class="node">
<title>Node5</title>
<g id="a_Node000005"><a xlink:title=" ">
<polygon fill="white" stroke="#666666" points="94,-188.5 0,-188.5 0,-158 94,-158 94,-188.5"/>
<text text-anchor="start" x="8" y="-175" font-family="Helvetica,sans-Serif" font-size="10.00">std::basic_string&lt;</text>
<text text-anchor="middle" x="47" y="-163.75" font-family="Helvetica,sans-Serif" font-size="10.00"> Char &gt;</text>
</a>
</g>
</g>
<!-- Node5&#45;&gt;Node4 -->
<g id="edge4_Node000004_Node000005" class="edge">
<title>Node5&#45;&gt;Node4</title>
<g id="a_edge4_Node000004_Node000005"><a xlink:title=" ">
<path fill="none" stroke="#63b8ff" d="M105.71,-173.25C114.32,-173.25 122.87,-173.25 130.55,-173.25"/>
<polygon fill="#63b8ff" stroke="#63b8ff" points="105.93,-169.75 95.93,-173.25 105.93,-176.75 105.93,-169.75"/>
</a>
</g>
</g>
<!-- Node6&#45;&gt;Node1 -->
<g id="edge5_Node000001_Node000006" class="edge">
<title>Node6&#45;&gt;Node1</title>
<g id="a_edge5_Node000001_Node000006"><a xlink:title=" ">
<path fill="none" stroke="#9a32cd" stroke-dasharray="5,2" d="M928.39,-215.33C937.79,-215.71 947.41,-216.04 956.5,-216.25 1184.11,-221.44 1241.16,-206.32 1467.75,-184.25 1512.47,-179.89 1523.93,-180.65 1568.25,-173.25 1588.82,-169.81 1611.46,-164.82 1630.17,-160.37"/>
<polygon fill="#9a32cd" stroke="#9a32cd" points="928.72,-211.84 918.58,-214.91 928.42,-218.84 928.72,-211.84"/>
</a>
</g>
<text text-anchor="middle" x="1284.5" y="-207.62" font-family="Helvetica,sans-Serif" font-size="10.00" fill="grey"> m_ast</text>
</g>
<!-- Node10 -->
<g id="Node000010" class="node">
<title>Node10</title>
<g id="a_Node000010"><a xlink:title=" ">
<polygon fill="white" stroke="#666666" points="1238.38,-189.5 1115.12,-189.5 1115.12,-159 1238.38,-159 1238.38,-189.5"/>
<text text-anchor="start" x="1123.12" y="-176" font-family="Helvetica,sans-Serif" font-size="10.00">std::vector&lt; Ark::internal</text>
<text text-anchor="middle" x="1176.75" y="-164.75" font-family="Helvetica,sans-Serif" font-size="10.00">::Node &gt;</text>
</a>
</g>
</g>
<!-- Node6&#45;&gt;Node10 -->
<g id="edge12_Node000010_Node000006" class="edge">
<title>Node6&#45;&gt;Node10</title>
<g id="a_edge12_Node000010_Node000006"><a xlink:title=" ">
<path fill="none" stroke="#9a32cd" stroke-dasharray="5,2" d="M928.56,-204.86C982.24,-198.21 1060.74,-188.49 1114.8,-181.8"/>
<polygon fill="#9a32cd" stroke="#9a32cd" points="928.16,-201.38 918.66,-206.08 929.02,-208.33 928.16,-201.38"/>
</a>
</g>
<text text-anchor="middle" x="1024.75" y="-202.77" font-family="Helvetica,sans-Serif" font-size="10.00" fill="grey"> elements</text>
</g>
<!-- Node7&#45;&gt;Node1 -->
<g id="edge7_Node000001_Node000007" class="edge">
<title>Node7&#45;&gt;Node1</title>
<g id="a_edge7_Node000001_Node000007"><a xlink:title=" ">
<path fill="none" stroke="#9a32cd" stroke-dasharray="5,2" d="M661.25,-9.98C714.87,-5.66 796.11,-0.25 866.88,-0.25 866.88,-0.25 866.88,-0.25 1398.12,-0.25 1514.61,-0.25 1628.17,-107.04 1660.81,-140.41"/>
<polygon fill="#9a32cd" stroke="#9a32cd" points="661.1,-6.48 651.42,-10.79 661.67,-13.46 661.1,-6.48"/>
</a>
</g>
<text text-anchor="middle" x="1176.75" y="-13.25" font-family="Helvetica,sans-Serif" font-size="10.00" fill="grey"> m_defined_symbols</text>
<text text-anchor="middle" x="1176.75" y="-2" font-family="Helvetica,sans-Serif" font-size="10.00" fill="grey">m_language_symbols</text>
</g>
<!-- Node8 -->
<g id="Node000008" class="node">
<title>Node8</title>
<g id="a_Node000008"><a xlink:title=" ">
<polygon fill="white" stroke="#666666" points="388.75,-35.88 267,-35.88 267,-16.62 388.75,-16.62 388.75,-35.88"/>
<text text-anchor="middle" x="327.88" y="-22.38" font-family="Helvetica,sans-Serif" font-size="10.00">std::unordered_set&lt; K &gt;</text>
</a>
</g>
</g>
<!-- Node8&#45;&gt;Node7 -->
<g id="edge9_Node000007_Node000008" class="edge">
<title>Node8&#45;&gt;Node7</title>
<g id="a_edge9_Node000007_Node000008"><a xlink:title=" ">
<path fill="none" stroke="orange" stroke-dasharray="5,2" d="M400.32,-23.35C448.29,-21.41 510.17,-18.9 552.27,-17.19"/>
<polygon fill="orange" stroke="orange" points="400.44,-19.84 390.59,-23.75 400.72,-26.84 400.44,-19.84"/>
</a>
</g>
<text text-anchor="middle" x="463.38" y="-24.75" font-family="Helvetica,sans-Serif" font-size="10.00" fill="grey"> &lt; std::string &gt;</text>
</g>
<!-- Node17 -->
<g id="Node000017" class="node">
<title>Node17</title>
<g id="a_Node000017"><a xlink:title=" ">
<polygon fill="white" stroke="#666666" points="664.25,-79.5 538,-79.5 538,-49 664.25,-49 664.25,-79.5"/>
<text text-anchor="start" x="546" y="-66" font-family="Helvetica,sans-Serif" font-size="10.00">std::unordered_set</text>
<text text-anchor="middle" x="601.12" y="-54.75" font-family="Helvetica,sans-Serif" font-size="10.00">&lt; Ark::internal::Variable &gt;</text>
</a>
</g>
</g>
<!-- Node8&#45;&gt;Node17 -->
<g id="edge24_Node000017_Node000008" class="edge">
<title>Node8&#45;&gt;Node17</title>
<g id="a_edge24_Node000017_Node000008"><a xlink:title=" ">
<path fill="none" stroke="orange" stroke-dasharray="5,2" d="M400.24,-36.25C442.96,-42.23 496.73,-49.77 537.74,-55.51"/>
<polygon fill="orange" stroke="orange" points="400.96,-32.81 390.57,-34.89 399.99,-39.75 400.96,-32.81"/>
</a>
</g>
<text text-anchor="middle" x="463.38" y="-54.77" font-family="Helvetica,sans-Serif" font-size="10.00" fill="grey"> &lt; Ark::internal::Variable &gt;</text>
</g>
<!-- Node9 -->
<g id="Node000009" class="node">
<title>Node9</title>
<g id="a_Node000009"><a xlink:title=" ">
<polygon fill="white" stroke="#666666" points="175.15,-35.88 146.35,-35.88 146.35,-16.62 175.15,-16.62 175.15,-35.88"/>
<text text-anchor="middle" x="160.75" y="-22.38" font-family="Helvetica,sans-Serif" font-size="10.00">K</text>
</a>
</g>
</g>
<!-- Node9&#45;&gt;Node8 -->
<g id="edge10_Node000008_Node000009" class="edge">
<title>Node9&#45;&gt;Node8</title>
<g id="a_edge10_Node000008_Node000009"><a xlink:title=" ">
<path fill="none" stroke="#9a32cd" stroke-dasharray="5,2" d="M187.06,-26.25C208.25,-26.25 239.36,-26.25 266.86,-26.25"/>
<polygon fill="#9a32cd" stroke="#9a32cd" points="187.06,-22.75 177.06,-26.25 187.06,-29.75 187.06,-22.75"/>
</a>
</g>
<text text-anchor="middle" x="228.75" y="-28" font-family="Helvetica,sans-Serif" font-size="10.00" fill="grey"> keys</text>
</g>
<!-- Node10&#45;&gt;Node1 -->
<g id="edge11_Node000001_Node000010" class="edge">
<title>Node10&#45;&gt;Node1</title>
<g id="a_edge11_Node000001_Node000010"><a xlink:title=" ">
<path fill="none" stroke="#9a32cd" stroke-dasharray="5,2" d="M1249.84,-171.65C1328.22,-168.7 1457.18,-163.48 1568.25,-157.25 1574,-156.93 1579.94,-156.57 1585.91,-156.2"/>
<polygon fill="#9a32cd" stroke="#9a32cd" points="1250.02,-168.14 1240.16,-172.02 1250.29,-175.14 1250.02,-168.14"/>
</a>
</g>
<text text-anchor="middle" x="1397.12" y="-170.31" font-family="Helvetica,sans-Serif" font-size="10.00" fill="grey"> m_symbol_nodes</text>
</g>
<!-- Node11 -->
<g id="Node000011" class="node">
<title>Node11</title>
<g id="a_Node000011"><a xlink:title=" ">
<polygon fill="white" stroke="#666666" points="911.12,-122.88 824.62,-122.88 824.62,-103.62 911.12,-103.62 911.12,-122.88"/>
<text text-anchor="middle" x="867.88" y="-109.38" font-family="Helvetica,sans-Serif" font-size="10.00">std::vector&lt; T &gt;</text>
</a>
</g>
</g>
<!-- Node11&#45;&gt;Node10 -->
<g id="edge13_Node000010_Node000011" class="edge">
<title>Node11&#45;&gt;Node10</title>
<g id="a_edge13_Node000010_Node000011"><a xlink:title=" ">
<path fill="none" stroke="orange" stroke-dasharray="5,2" d="M922.54,-123.92C976.18,-134.58 1058.55,-150.95 1114.67,-162.11"/>
<polygon fill="orange" stroke="orange" points="923.52,-120.54 913.03,-122.03 922.15,-127.41 923.52,-120.54"/>
</a>
</g>
<text text-anchor="middle" x="1024.75" y="-157.98" font-family="Helvetica,sans-Serif" font-size="10.00" fill="grey"> &lt; Ark::internal::Node &gt;</text>
</g>
<!-- Node11&#45;&gt;Node13 -->
<g id="edge17_Node000013_Node000011" class="edge">
<title>Node11&#45;&gt;Node13</title>
<g id="a_edge17_Node000013_Node000011"><a xlink:title=" ">
<path fill="none" stroke="orange" stroke-dasharray="5,2" d="M922.88,-111.09C968.33,-109.83 1035.02,-109.29 1093,-114 1101.85,-114.72 1111.17,-115.85 1120.25,-117.15"/>
<polygon fill="orange" stroke="orange" points="922.91,-107.58 913.02,-111.38 923.12,-114.58 922.91,-107.58"/>
</a>
</g>
<text text-anchor="middle" x="1024.75" y="-115.75" font-family="Helvetica,sans-Serif" font-size="10.00" fill="grey"> &lt; std::string &gt;</text>
</g>
<!-- Node15 -->
<g id="Node000015" class="node">
<title>Node15</title>
<g id="a_Node000015"><a xlink:title=" ">
<polygon fill="white" stroke="#666666" points="1242.5,-82.5 1111,-82.5 1111,-52 1242.5,-52 1242.5,-82.5"/>
<text text-anchor="start" x="1119" y="-69" font-family="Helvetica,sans-Serif" font-size="10.00">std::vector&lt; Ark::internal</text>
<text text-anchor="middle" x="1176.75" y="-57.75" font-family="Helvetica,sans-Serif" font-size="10.00">::ScopeResolver::Scope &gt;</text>
</a>
</g>
</g>
<!-- Node11&#45;&gt;Node15 -->
<g id="edge25_Node000015_Node000011" class="edge">
<title>Node11&#45;&gt;Node15</title>
<g id="a_edge25_Node000015_Node000011"><a xlink:title=" ">
<path fill="none" stroke="orange" stroke-dasharray="5,2" d="M903.74,-99.28C919.59,-93.52 938.73,-87.35 956.5,-83.75 1007.75,-73.36 1066.94,-69.37 1110.89,-67.9"/>
<polygon fill="orange" stroke="orange" points="902.9,-95.86 894.77,-102.64 905.36,-102.41 902.9,-95.86"/>
</a>
</g>
<text text-anchor="start" x="956.5" y="-96.75" font-family="Helvetica,sans-Serif" font-size="10.00" fill="grey"> &lt; Ark::internal::ScopeResolver</text>
<text text-anchor="middle" x="1024.75" y="-85.5" font-family="Helvetica,sans-Serif" font-size="10.00" fill="grey">::Scope &gt;</text>
</g>
<!-- Node12 -->
<g id="Node000012" class="node">
<title>Node12</title>
<g id="a_Node000012"><a xlink:title=" ">
<polygon fill="white" stroke="#666666" points="615.52,-122.88 586.73,-122.88 586.73,-103.62 615.52,-103.62 615.52,-122.88"/>
<text text-anchor="middle" x="601.12" y="-109.38" font-family="Helvetica,sans-Serif" font-size="10.00">T</text>
</a>
</g>
</g>
<!-- Node12&#45;&gt;Node11 -->
<g id="edge14_Node000011_Node000012" class="edge">
<title>Node12&#45;&gt;Node11</title>
<g id="a_edge14_Node000011_Node000012"><a xlink:title=" ">
<path fill="none" stroke="#9a32cd" stroke-dasharray="5,2" d="M627.38,-113.25C672.77,-113.25 768.6,-113.25 824.3,-113.25"/>
<polygon fill="#9a32cd" stroke="#9a32cd" points="627.5,-109.75 617.5,-113.25 627.5,-116.75 627.5,-109.75"/>
</a>
</g>
<text text-anchor="middle" x="730.75" y="-115" font-family="Helvetica,sans-Serif" font-size="10.00" fill="grey"> elements</text>
</g>
<!-- Node13&#45;&gt;Node1 -->
<g id="edge15_Node000001_Node000013" class="edge">
<title>Node13&#45;&gt;Node1</title>
<g id="a_edge15_Node000001_Node000013"><a xlink:title=" ">
<path fill="none" stroke="#9a32cd" stroke-dasharray="5,2" d="M1250.52,-130.65C1340.04,-134.83 1491.73,-141.92 1586.12,-146.33"/>
<polygon fill="#9a32cd" stroke="#9a32cd" points="1250.78,-127.16 1240.63,-130.19 1250.45,-134.15 1250.78,-127.16"/>
</a>
</g>
<text text-anchor="middle" x="1397.12" y="-142.41" font-family="Helvetica,sans-Serif" font-size="10.00" fill="grey"> m_plugin_names</text>
</g>
<!-- Node14 -->
<g id="Node000014" class="node">
<title>Node14</title>
<g id="a_Node000014"><a xlink:href="../../dd/d92/classArk_1_1internal_1_1ScopeResolver.html" target="_top" xlink:title=" ">
<polygon fill="white" stroke="#666666" points="1467.75,-83.88 1326.5,-83.88 1326.5,-64.62 1467.75,-64.62 1467.75,-83.88"/>
<text text-anchor="middle" x="1397.12" y="-70.38" font-family="Helvetica,sans-Serif" font-size="10.00">Ark::internal::ScopeResolver</text>
</a>
</g>
</g>
<!-- Node14&#45;&gt;Node1 -->
<g id="edge18_Node000001_Node000014" class="edge">
<title>Node14&#45;&gt;Node1</title>
<g id="a_edge18_Node000001_Node000014"><a xlink:title=" ">
<path fill="none" stroke="#9a32cd" stroke-dasharray="5,2" d="M1479.03,-82.72C1507.63,-86.95 1539.75,-93.12 1568.25,-102 1599.27,-111.66 1632.89,-129.08 1652.7,-140.14"/>
<polygon fill="#9a32cd" stroke="#9a32cd" points="1479.74,-79.29 1469.35,-81.35 1478.76,-86.22 1479.74,-79.29"/>
</a>
</g>
<text text-anchor="middle" x="1527" y="-103.75" font-family="Helvetica,sans-Serif" font-size="10.00" fill="grey"> m_scope_resolver</text>
</g>
<!-- Node15&#45;&gt;Node14 -->
<g id="edge19_Node000014_Node000015" class="edge">
<title>Node15&#45;&gt;Node14</title>
<g id="a_edge19_Node000014_Node000015"><a xlink:title=" ">
<path fill="none" stroke="#9a32cd" stroke-dasharray="5,2" d="M1254.28,-69.7C1277.7,-70.45 1303.34,-71.28 1326.3,-72.01"/>
<polygon fill="#9a32cd" stroke="#9a32cd" points="1254.59,-66.21 1244.49,-69.39 1254.37,-73.21 1254.59,-66.21"/>
</a>
</g>
<text text-anchor="middle" x="1284.5" y="-73.13" font-family="Helvetica,sans-Serif" font-size="10.00" fill="grey"> m_scopes</text>
</g>
<!-- Node16 -->
<g id="Node000016" class="node">
<title>Node16</title>
<g id="a_Node000016"><a xlink:href="../../df/d51/classArk_1_1internal_1_1ScopeResolver_1_1Scope.html" target="_top" xlink:title=" ">
<polygon fill="white" stroke="#666666" points="938.5,-72.5 797.25,-72.5 797.25,-42 938.5,-42 938.5,-72.5"/>
<text text-anchor="start" x="805.25" y="-59" font-family="Helvetica,sans-Serif" font-size="10.00">Ark::internal::ScopeResolver</text>
<text text-anchor="middle" x="867.88" y="-47.75" font-family="Helvetica,sans-Serif" font-size="10.00">::Scope</text>
</a>
</g>
</g>
<!-- Node16&#45;&gt;Node15 -->
<g id="edge20_Node000015_Node000016" class="edge">
<title>Node16&#45;&gt;Node15</title>
<g id="a_edge20_Node000015_Node000016"><a xlink:title=" ">
<path fill="none" stroke="#9a32cd" stroke-dasharray="5,2" d="M929.97,-38.89C938.8,-36.87 947.83,-35.13 956.5,-34 1016.66,-26.15 1033.44,-22.48 1093,-34 1110.79,-37.44 1129.6,-44.68 1144.78,-51.53"/>
<polygon fill="#9a32cd" stroke="#9a32cd" points="929.29,-35.45 920.4,-41.22 930.95,-42.25 929.29,-35.45"/>
</a>
</g>
<text text-anchor="middle" x="1024.75" y="-35.75" font-family="Helvetica,sans-Serif" font-size="10.00" fill="grey"> elements</text>
</g>
<!-- Node17&#45;&gt;Node16 -->
<g id="edge21_Node000016_Node000017" class="edge">
<title>Node17&#45;&gt;Node16</title>
<g id="a_edge21_Node000016_Node000017"><a xlink:title=" ">
<path fill="none" stroke="#9a32cd" stroke-dasharray="5,2" d="M676,-62.3C713.85,-61.3 759.69,-60.08 796.96,-59.1"/>
<polygon fill="#9a32cd" stroke="#9a32cd" points="675.95,-58.8 666.04,-62.56 676.13,-65.79 675.95,-58.8"/>
</a>
</g>
<text text-anchor="middle" x="730.75" y="-63.74" font-family="Helvetica,sans-Serif" font-size="10.00" fill="grey"> m_vars</text>
</g>
<!-- Node18&#45;&gt;Node17 -->
<g id="edge22_Node000017_Node000018" class="edge">
<title>Node18&#45;&gt;Node17</title>
<g id="a_edge22_Node000017_Node000018"><a xlink:title=" ">
<path fill="none" stroke="#9a32cd" stroke-dasharray="5,2" d="M393.77,-126.16C431.23,-121.55 478.92,-113.81 520,-101.25 529.67,-98.29 550.67,-88.55 568.75,-79.8"/>
<polygon fill="#9a32cd" stroke="#9a32cd" points="393.51,-122.67 383.99,-127.31 394.33,-129.62 393.51,-122.67"/>
</a>
</g>
<text text-anchor="middle" x="463.38" y="-126.14" font-family="Helvetica,sans-Serif" font-size="10.00" fill="grey"> keys</text>
</g>
</g>
</svg>
