<?xml version="1.0" encoding="UTF-8" standalone="no"?>
<!DOCTYPE svg PUBLIC "-//W3C//DTD SVG 1.1//EN"
 "http://www.w3.org/Graphics/SVG/1.1/DTD/svg11.dtd">
<!-- Generated by graphviz version 10.0.1 (20240210.2158)
 -->
<!-- Title: /Users/fola/Documents/ArkScript/Ark/src/arkreactor/Compiler/Macros/Processor.cpp Pages: 1 -->
<!--zoomable 426 -->
<svg id="main" version="1.1" xmlns="http://www.w3.org/2000/svg" xmlns:xlink="http://www.w3.org/1999/xlink" xml:space="preserve" onload="init(evt)">
<style type="text/css"><![CDATA[
.edge:hover path { stroke: red; }
.edge:hover polygon { stroke: red; fill: red; }
]]></style>
<script type="text/javascript"><![CDATA[
var edges = document.getElementsByTagName('g');
if (edges && edges.length) {
  for (var i=0;i<edges.length;i++) {
    if (edges[i].id.substr(0,4)=='edge') {
      edges[i].setAttribute('class','edge');
    }
  }
}
]]></script>
        <defs>
                <circle id="rim" cx="0" cy="0" r="7"/>
                <circle id="rim2" cx="0" cy="0" r="3.5"/>
                <g id="zoomPlus">
                        <use xlink:href="#rim" fill="#404040">
                                <set attributeName="fill" to="#808080" begin="zoomplus.mouseover" end="zoomplus.mouseout"/>
                        </use>
                        <path d="M-4,0h8M0,-4v8" fill="none" stroke="white" stroke-width="1.5" pointer-events="none"/>
                </g>
                <g id="zoomMin">
                        <use xlink:href="#rim" fill="#404040">
                                <set attributeName="fill" to="#808080" begin="zoomminus.mouseover" end="zoomminus.mouseout"/>
                        </use>
                        <path d="M-4,0h8" fill="none" stroke="white" stroke-width="1.5" pointer-events="none"/>
                </g>
                <g id="dirArrow">
                        <path fill="none" stroke="white" stroke-width="1.5" d="M0,-3.0v7 M-2.5,-0.5L0,-3.0L2.5,-0.5"/>
                </g>
               <g id="resetDef">
                       <use xlink:href="#rim2" fill="#404040">
                               <set attributeName="fill" to="#808080" begin="reset.mouseover" end="reset.mouseout"/>
                       </use>
               </g>
        </defs>

<script type="text/javascript">
var viewWidth = 1422;
var viewHeight = 426;
var sectionId = 'dynsection-0';
</script>
<script xlink:href="../../svgpan.js"/>
<svg id="graph" class="graph">
<g id="viewport">
<title>/Users/fola/Documents/ArkScript/Ark/src/arkreactor/Compiler/Macros/Processor.cpp</title>
<!-- Node1 -->
<g id="node1" class="node">
<title>Node1</title>
<g id="a_node1"><a xlink:title=" ">
<polygon fill="#999999" stroke="#666666" points="592.38,-418.25 433.88,-418.25 433.88,-376.5 592.38,-376.5 592.38,-418.25"/>
<text text-anchor="start" x="441.88" y="-404.75" font-family="Helvetica,sans-Serif" font-size="10.00">/Users/fola/Documents</text>
<text text-anchor="start" x="441.88" y="-393.5" font-family="Helvetica,sans-Serif" font-size="10.00">/ArkScript/Ark/src/arkreactor</text>
<text text-anchor="middle" x="513.13" y="-382.25" font-family="Helvetica,sans-Serif" font-size="10.00">/Compiler/Macros/Processor.cpp</text>
</a>
</g>
</g>
<!-- Node2 -->
<g id="node2" class="node">
<title>Node2</title>
<g id="a_node2"><a xlink:href="../../de/db1/Processor_8hpp.html" target="_top" xlink:title="Handles the macros and their expansion in ArkScript source code.">
<polygon fill="white" stroke="#666666" points="217.26,-340.5 109.01,-340.5 109.01,-310 217.26,-310 217.26,-340.5"/>
<text text-anchor="start" x="117.01" y="-327" font-family="Helvetica,sans-Serif" font-size="10.00">Ark/Compiler/Macros</text>
<text text-anchor="middle" x="163.13" y="-315.75" font-family="Helvetica,sans-Serif" font-size="10.00">/Processor.hpp</text>
</a>
</g>
</g>
<!-- Node1&#45;&gt;Node2 -->
<g id="edge1" class="edge">
<title>Node1&#45;&gt;Node2</title>
<path fill="none" stroke="#63b8ff" d="M433.71,-380.46C371.88,-368.07 287.09,-351.09 229,-339.45"/>
<polygon fill="#63b8ff" stroke="#63b8ff" points="229.73,-336.02 219.24,-337.49 228.35,-342.89 229.73,-336.02"/>
</g>
<!-- Node16 -->
<g id="node16" class="node">
<title>Node16</title>
<g id="a_node16"><a xlink:title=" ">
<polygon fill="#e0e0e0" stroke="#999999" points="303.01,-334.88 247.26,-334.88 247.26,-315.62 303.01,-315.62 303.01,-334.88"/>
<text text-anchor="middle" x="275.13" y="-321.38" font-family="Helvetica,sans-Serif" font-size="10.00">algorithm</text>
</a>
</g>
</g>
<!-- Node1&#45;&gt;Node16 -->
<g id="edge23" class="edge">
<title>Node1&#45;&gt;Node16</title>
<path fill="none" stroke="#63b8ff" d="M433.85,-376.23C396.65,-366.29 351.85,-353.63 312.13,-340.5 310.81,-340.06 309.47,-339.6 308.11,-339.13"/>
<polygon fill="#63b8ff" stroke="#63b8ff" points="309.72,-336 299.13,-335.86 307.33,-342.57 309.72,-336"/>
</g>
<!-- Node17 -->
<g id="node17" class="node">
<title>Node17</title>
<g id="a_node17"><a xlink:title=" ">
<polygon fill="#e0e0e0" stroke="#999999" points="366.76,-334.88 321.51,-334.88 321.51,-315.62 366.76,-315.62 366.76,-334.88"/>
<text text-anchor="middle" x="344.13" y="-321.38" font-family="Helvetica,sans-Serif" font-size="10.00">ranges</text>
</a>
</g>
</g>
<!-- Node1&#45;&gt;Node17 -->
<g id="edge24" class="edge">
<title>Node1&#45;&gt;Node17</title>
<path fill="none" stroke="#63b8ff" d="M461.46,-376.11C435.44,-365.74 403.49,-352.75 375.13,-340.5 374.66,-340.29 374.18,-340.09 373.7,-339.88"/>
<polygon fill="#63b8ff" stroke="#63b8ff" points="375.36,-336.79 364.8,-335.9 372.5,-343.18 375.36,-336.79"/>
</g>
<!-- Node18 -->
<g id="node18" class="node">
<title>Node18</title>
<g id="a_node18"><a xlink:title=" ">
<polygon fill="#e0e0e0" stroke="#999999" points="435.76,-334.88 384.51,-334.88 384.51,-315.62 435.76,-315.62 435.76,-334.88"/>
<text text-anchor="middle" x="410.13" y="-321.38" font-family="Helvetica,sans-Serif" font-size="10.00">sstream</text>
</a>
</g>
</g>
<!-- Node1&#45;&gt;Node18 -->
<g id="edge25" class="edge">
<title>Node1&#45;&gt;Node18</title>
<path fill="none" stroke="#63b8ff" d="M483.34,-376.09C467.22,-365.11 447.62,-351.77 432.76,-341.65"/>
<polygon fill="#63b8ff" stroke="#63b8ff" points="434.82,-338.82 424.58,-336.09 430.88,-344.61 434.82,-338.82"/>
</g>
<!-- Node19 -->
<g id="node19" class="node">
<title>Node19</title>
<g id="a_node19"><a xlink:title=" ">
<polygon fill="#e0e0e0" stroke="#999999" points="514.26,-334.88 454.01,-334.88 454.01,-315.62 514.26,-315.62 514.26,-334.88"/>
<text text-anchor="middle" x="484.13" y="-321.38" font-family="Helvetica,sans-Serif" font-size="10.00">fmt/core.h</text>
</a>
</g>
</g>
<!-- Node1&#45;&gt;Node19 -->
<g id="edge26" class="edge">
<title>Node1&#45;&gt;Node19</title>
<path fill="none" stroke="#63b8ff" d="M504.75,-376.09C500.75,-366.43 496,-354.93 492.06,-345.42"/>
<polygon fill="#63b8ff" stroke="#63b8ff" points="495.41,-344.35 488.35,-336.45 488.94,-347.03 495.41,-344.35"/>
</g>
<!-- Node20 -->
<g id="node20" class="node">
<title>Node20</title>
<g id="a_node20"><a xlink:href="../../d2/de9/Exceptions_8hpp.html" target="_top" xlink:title="ArkScript homemade exceptions.">
<polygon fill="white" stroke="#666666" points="983.88,-141 882.38,-141 882.38,-121.75 983.88,-121.75 983.88,-141"/>
<text text-anchor="middle" x="933.13" y="-127.5" font-family="Helvetica,sans-Serif" font-size="10.00">Ark/Exceptions.hpp</text>
</a>
</g>
</g>
<!-- Node1&#45;&gt;Node20 -->
<g id="edge27" class="edge">
<title>Node1&#45;&gt;Node20</title>
<path fill="none" stroke="#63b8ff" d="M592.59,-378.64C624.13,-369.75 659.99,-357.24 690.13,-340.5 787.69,-286.32 881.78,-189 917.76,-149.62"/>
<polygon fill="#63b8ff" stroke="#63b8ff" points="920.14,-152.21 924.25,-142.44 914.95,-147.51 920.14,-152.21"/>
</g>
<!-- Node26 -->
<g id="node26" class="node">
<title>Node26</title>
<g id="a_node26"><a xlink:href="../../da/d84/Builtins_8hpp.html" target="_top" xlink:title="Host the declaration of all the ArkScript builtins.">
<polygon fill="white" stroke="#666666" points="738.26,-201.88 618.01,-201.88 618.01,-182.62 738.26,-182.62 738.26,-201.88"/>
<text text-anchor="middle" x="678.13" y="-188.38" font-family="Helvetica,sans-Serif" font-size="10.00">Ark/Builtins/Builtins.hpp</text>
</a>
</g>
</g>
<!-- Node1&#45;&gt;Node26 -->
<g id="edge39" class="edge">
<title>Node1&#45;&gt;Node26</title>
<path fill="none" stroke="#63b8ff" d="M583.8,-376.09C632.7,-357.95 694.17,-326.01 724.13,-274 737.01,-251.65 715.87,-225.73 698.18,-209.41"/>
<polygon fill="#63b8ff" stroke="#63b8ff" points="700.91,-207.15 691.07,-203.22 696.31,-212.43 700.91,-207.15"/>
</g>
<!-- Node32 -->
<g id="node32" class="node">
<title>Node32</title>
<g id="a_node32"><a xlink:href="../../dc/dce/Symbol_8hpp.html" target="_top" xlink:title="Executor for Symbol Macros.">
<polygon fill="white" stroke="#666666" points="385.13,-274 267.13,-274 267.13,-243.5 385.13,-243.5 385.13,-274"/>
<text text-anchor="start" x="275.13" y="-260.5" font-family="Helvetica,sans-Serif" font-size="10.00">Ark/Compiler/Macros</text>
<text text-anchor="middle" x="326.13" y="-249.25" font-family="Helvetica,sans-Serif" font-size="10.00">/Executors/Symbol.hpp</text>
</a>
</g>
</g>
<!-- Node1&#45;&gt;Node32 -->
<g id="edge58" class="edge">
<title>Node1&#45;&gt;Node32</title>
<path fill="none" stroke="#63b8ff" d="M522.99,-376.01C530.62,-356.96 537.68,-328.72 523.13,-310 507.48,-289.85 446.68,-276.44 396.72,-268.57"/>
<polygon fill="#63b8ff" stroke="#63b8ff" points="397.5,-265.15 387.09,-267.11 396.45,-272.07 397.5,-265.15"/>
</g>
<!-- Node33 -->
<g id="node33" class="node">
<title>Node33</title>
<g id="a_node33"><a xlink:href="../../d4/d59/Function_8hpp.html" target="_top" xlink:title="Executor for List Macros.">
<polygon fill="white" stroke="#666666" points="563.38,-274 440.88,-274 440.88,-243.5 563.38,-243.5 563.38,-274"/>
<text text-anchor="start" x="448.88" y="-260.5" font-family="Helvetica,sans-Serif" font-size="10.00">Ark/Compiler/Macros</text>
<text text-anchor="middle" x="502.13" y="-249.25" font-family="Helvetica,sans-Serif" font-size="10.00">/Executors/Function.hpp</text>
</a>
</g>
</g>
<!-- Node1&#45;&gt;Node33 -->
<g id="edge61" class="edge">
<title>Node1&#45;&gt;Node33</title>
<path fill="none" stroke="#63b8ff" d="M534.31,-376.06C549.68,-358.73 566.17,-333.04 556.13,-310 551.38,-299.08 542.95,-289.46 534.15,-281.64"/>
<polygon fill="#63b8ff" stroke="#63b8ff" points="536.47,-279.02 526.51,-275.4 532.04,-284.44 536.47,-279.02"/>
</g>
<!-- Node34 -->
<g id="node34" class="node">
<title>Node34</title>
<g id="a_node34"><a xlink:href="../../da/dc2/Conditional_8hpp.html" target="_top" xlink:title="Executor for Conditional Macros.">
<polygon fill="white" stroke="#666666" points="715.01,-274 581.26,-274 581.26,-243.5 715.01,-243.5 715.01,-274"/>
<text text-anchor="start" x="589.26" y="-260.5" font-family="Helvetica,sans-Serif" font-size="10.00">Ark/Compiler/Macros</text>
<text text-anchor="middle" x="648.13" y="-249.25" font-family="Helvetica,sans-Serif" font-size="10.00">/Executors/Conditional.hpp</text>
</a>
</g>
</g>
<!-- Node1&#45;&gt;Node34 -->
<g id="edge64" class="edge">
<title>Node1&#45;&gt;Node34</title>
<path fill="none" stroke="#63b8ff" d="M534.56,-376.15C545.59,-365.63 559.2,-352.49 571.13,-340.5 590.27,-321.27 611.52,-298.91 626.83,-282.6"/>
<polygon fill="#63b8ff" stroke="#63b8ff" points="629.37,-285.02 633.65,-275.33 624.26,-280.23 629.37,-285.02"/>
</g>
<!-- Node3 -->
<g id="node3" class="node">
<title>Node3</title>
<g id="a_node3"><a xlink:href="../../d7/dc6/Node_8hpp.html" target="_top" xlink:title="AST node used by the parser, optimizer and compiler.">
<polygon fill="white" stroke="#666666" points="430.38,-141 289.88,-141 289.88,-121.75 430.38,-121.75 430.38,-141"/>
<text text-anchor="middle" x="360.13" y="-127.5" font-family="Helvetica,sans-Serif" font-size="10.00">Ark/Compiler/AST/Node.hpp</text>
</a>
</g>
</g>
<!-- Node2&#45;&gt;Node3 -->
<g id="edge2" class="edge">
<title>Node2&#45;&gt;Node3</title>
<path fill="none" stroke="#63b8ff" d="M217.51,-313.73C283.62,-300.75 387.29,-279.69 394.13,-274 428.65,-245.33 442.59,-216.94 422.13,-177 415.52,-164.09 403.24,-154.07 391.34,-146.82"/>
<polygon fill="#63b8ff" stroke="#63b8ff" points="393.34,-143.92 382.9,-142.12 389.93,-150.04 393.34,-143.92"/>
</g>
<!-- Node6 -->
<g id="node6" class="node">
<title>Node6</title>
<g id="a_node6"><a xlink:title=" ">
<polygon fill="#e0e0e0" stroke="#999999" points="624.13,-19.25 584.13,-19.25 584.13,0 624.13,0 624.13,-19.25"/>
<text text-anchor="middle" x="604.13" y="-5.75" font-family="Helvetica,sans-Serif" font-size="10.00">string</text>
</a>
</g>
</g>
<!-- Node2&#45;&gt;Node6 -->
<g id="edge22" class="edge">
<title>Node2&#45;&gt;Node6</title>
<path fill="none" stroke="#63b8ff" d="M126.81,-309.68C111.68,-301.58 95.67,-289.88 87.13,-274 52.99,-210.5 88.24,-168.5 143.13,-121.75 194.36,-78.12 214.62,-74.35 279.13,-55.25 402.73,-18.65 443.18,-44.72 572.52,-19.44"/>
<polygon fill="#63b8ff" stroke="#63b8ff" points="573.06,-22.9 582.16,-17.48 571.67,-16.04 573.06,-22.9"/>
</g>
<!-- Node12 -->
<g id="node12" class="node">
<title>Node12</title>
<g id="a_node12"><a xlink:href="../../d7/dfb/MacroScope_8hpp.html" target="_top" xlink:title="Defines tools to handle macro definitions.">
<polygon fill="white" stroke="#666666" points="249.26,-207.5 141.01,-207.5 141.01,-177 249.26,-177 249.26,-207.5"/>
<text text-anchor="start" x="149.01" y="-194" font-family="Helvetica,sans-Serif" font-size="10.00">Ark/Compiler/Macros</text>
<text text-anchor="middle" x="195.13" y="-182.75" font-family="Helvetica,sans-Serif" font-size="10.00">/MacroScope.hpp</text>
</a>
</g>
</g>
<!-- Node2&#45;&gt;Node12 -->
<g id="edge12" class="edge">
<title>Node2&#45;&gt;Node12</title>
<path fill="none" stroke="#63b8ff" d="M187.9,-309.63C200.04,-300.97 213.46,-288.79 220.13,-274 228.36,-255.79 220.76,-234.1 211.84,-217.79"/>
<polygon fill="#63b8ff" stroke="#63b8ff" points="214.86,-216.02 206.73,-209.24 208.86,-219.62 214.86,-216.02"/>
</g>
<!-- Node13 -->
<g id="node13" class="node">
<title>Node13</title>
<g id="a_node13"><a xlink:title=" ">
<polygon fill="#e0e0e0" stroke="#999999" points="234.51,-141 151.76,-141 151.76,-121.75 234.51,-121.75 234.51,-141"/>
<text text-anchor="middle" x="193.13" y="-127.5" font-family="Helvetica,sans-Serif" font-size="10.00">unordered_map</text>
</a>
</g>
</g>
<!-- Node2&#45;&gt;Node13 -->
<g id="edge21" class="edge">
<title>Node2&#45;&gt;Node13</title>
<path fill="none" stroke="#63b8ff" d="M131.15,-309.56C117.09,-301.28 102,-289.45 94.13,-274 87.99,-261.92 90.65,-256.6 94.13,-243.5 102.87,-210.6 109.45,-202.38 132.13,-177 142.28,-165.65 155.75,-155.42 167.46,-147.63"/>
<polygon fill="#63b8ff" stroke="#63b8ff" points="169.34,-150.58 175.89,-142.26 165.57,-144.68 169.34,-150.58"/>
</g>
<!-- Node14 -->
<g id="node14" class="node">
<title>Node14</title>
<g id="a_node14"><a xlink:href="../../d4/daa/Pipeline_8hpp.html" target="_top" xlink:title="The Chain of Responsibility class for running nodes through MacroExecutors.">
<polygon fill="white" stroke="#666666" points="211.26,-274 103.01,-274 103.01,-243.5 211.26,-243.5 211.26,-274"/>
<text text-anchor="start" x="111.01" y="-260.5" font-family="Helvetica,sans-Serif" font-size="10.00">Ark/Compiler/Macros</text>
<text text-anchor="middle" x="157.13" y="-249.25" font-family="Helvetica,sans-Serif" font-size="10.00">/Pipeline.hpp</text>
</a>
</g>
</g>
<!-- Node2&#45;&gt;Node14 -->
<g id="edge16" class="edge">
<title>Node2&#45;&gt;Node14</title>
<path fill="none" stroke="#63b8ff" d="M161.77,-309.61C161.11,-302.52 160.3,-293.79 159.54,-285.63"/>
<polygon fill="#63b8ff" stroke="#63b8ff" points="163.04,-285.47 158.63,-275.84 156.07,-286.12 163.04,-285.47"/>
</g>
<!-- Node4 -->
<g id="node4" class="node">
<title>Node4</title>
<g id="a_node4"><a xlink:title=" ">
<polygon fill="#e0e0e0" stroke="#999999" points="382.76,-80.12 337.51,-80.12 337.51,-60.88 382.76,-60.88 382.76,-80.12"/>
<text text-anchor="middle" x="360.13" y="-66.62" font-family="Helvetica,sans-Serif" font-size="10.00">variant</text>
</a>
</g>
</g>
<!-- Node3&#45;&gt;Node4 -->
<g id="edge3" class="edge">
<title>Node3&#45;&gt;Node4</title>
<path fill="none" stroke="#63b8ff" d="M360.13,-121.43C360.13,-113.65 360.13,-102.08 360.13,-92.03"/>
<polygon fill="#63b8ff" stroke="#63b8ff" points="363.63,-92.04 360.13,-82.04 356.63,-92.04 363.63,-92.04"/>
</g>
<!-- Node5 -->
<g id="node5" class="node">
<title>Node5</title>
<g id="a_node5"><a xlink:title=" ">
<polygon fill="#e0e0e0" stroke="#999999" points="451.76,-80.12 400.51,-80.12 400.51,-60.88 451.76,-60.88 451.76,-80.12"/>
<text text-anchor="middle" x="426.13" y="-66.62" font-family="Helvetica,sans-Serif" font-size="10.00">ostream</text>
</a>
</g>
</g>
<!-- Node3&#45;&gt;Node5 -->
<g id="edge4" class="edge">
<title>Node3&#45;&gt;Node5</title>
<path fill="none" stroke="#63b8ff" d="M370.16,-121.43C380.04,-112.62 395.39,-98.93 407.51,-88.11"/>
<polygon fill="#63b8ff" stroke="#63b8ff" points="409.75,-90.8 414.89,-81.53 405.09,-85.58 409.75,-90.8"/>
</g>
<!-- Node3&#45;&gt;Node6 -->
<g id="edge5" class="edge">
<title>Node3&#45;&gt;Node6</title>
<path fill="none" stroke="#63b8ff" d="M350.87,-121.56C336.13,-106.47 310.7,-75.41 328.13,-55.25 362.43,-15.59 504.2,-29.41 572.55,-19.16"/>
<polygon fill="#63b8ff" stroke="#63b8ff" points="572.94,-22.64 582.15,-17.39 571.68,-15.76 572.94,-22.64"/>
</g>
<!-- Node7 -->
<g id="node7" class="node">
<title>Node7</title>
<g id="a_node7"><a xlink:title=" ">
<polygon fill="#e0e0e0" stroke="#999999" points="254.63,-19.25 211.63,-19.25 211.63,0 254.63,0 254.63,-19.25"/>
<text text-anchor="middle" x="233.13" y="-5.75" font-family="Helvetica,sans-Serif" font-size="10.00">vector</text>
</a>
</g>
</g>
<!-- Node3&#45;&gt;Node7 -->
<g id="edge6" class="edge">
<title>Node3&#45;&gt;Node7</title>
<path fill="none" stroke="#63b8ff" d="M289.58,-123.38C193.63,-113.53 32.81,-95.65 24.13,-85.75 15.2,-75.55 15.61,-65.79 24.13,-55.25 35.19,-41.58 144.42,-23.69 200.41,-15.33"/>
<polygon fill="#63b8ff" stroke="#63b8ff" points="200.61,-18.83 209.99,-13.91 199.59,-11.91 200.61,-18.83"/>
</g>
<!-- Node8 -->
<g id="node8" class="node">
<title>Node8</title>
<g id="a_node8"><a xlink:href="../../d8/ddd/Common_8hpp.html" target="_top" xlink:title="Common code for the compiler.">
<polygon fill="white" stroke="#666666" points="167.38,-80.12 32.88,-80.12 32.88,-60.88 167.38,-60.88 167.38,-80.12"/>
<text text-anchor="middle" x="100.13" y="-66.62" font-family="Helvetica,sans-Serif" font-size="10.00">Ark/Compiler/Common.hpp</text>
</a>
</g>
</g>
<!-- Node3&#45;&gt;Node8 -->
<g id="edge7" class="edge">
<title>Node3&#45;&gt;Node8</title>
<path fill="none" stroke="#63b8ff" d="M320.08,-121.3C274.75,-111.04 200.81,-94.3 151.33,-83.09"/>
<polygon fill="#63b8ff" stroke="#63b8ff" points="152.24,-79.71 141.71,-80.91 150.69,-86.54 152.24,-79.71"/>
</g>
<!-- Node11 -->
<g id="node11" class="node">
<title>Node11</title>
<g id="a_node11"><a xlink:href="../../d5/d40/Platform_8hpp.html" target="_top" xlink:title="ArkScript configuration macros.">
<polygon fill="white" stroke="#666666" points="1020.88,-19.25 931.38,-19.25 931.38,0 1020.88,0 1020.88,-19.25"/>
<text text-anchor="middle" x="976.13" y="-5.75" font-family="Helvetica,sans-Serif" font-size="10.00">Ark/Platform.hpp</text>
</a>
</g>
</g>
<!-- Node3&#45;&gt;Node11 -->
<g id="edge11" class="edge">
<title>Node3&#45;&gt;Node11</title>
<path fill="none" stroke="#63b8ff" d="M385.63,-121.26C430.86,-105.45 528.36,-72.92 613.13,-55.25 720.3,-32.91 847.76,-20.42 919.57,-14.65"/>
<polygon fill="#63b8ff" stroke="#63b8ff" points="919.83,-18.14 929.53,-13.86 919.28,-11.16 919.83,-18.14"/>
</g>
<!-- Node8&#45;&gt;Node7 -->
<g id="edge10" class="edge">
<title>Node8&#45;&gt;Node7</title>
<path fill="none" stroke="#63b8ff" d="M120.62,-60.43C142.46,-50.76 177.27,-35.35 202.4,-24.23"/>
<polygon fill="#63b8ff" stroke="#63b8ff" points="203.73,-27.47 211.46,-20.22 200.89,-21.07 203.73,-27.47"/>
</g>
<!-- Node9 -->
<g id="node9" class="node">
<title>Node9</title>
<g id="a_node9"><a xlink:title=" ">
<polygon fill="#e0e0e0" stroke="#999999" points="566.01,-19.25 528.26,-19.25 528.26,0 566.01,0 566.01,-19.25"/>
<text text-anchor="middle" x="547.13" y="-5.75" font-family="Helvetica,sans-Serif" font-size="10.00">array</text>
</a>
</g>
</g>
<!-- Node8&#45;&gt;Node9 -->
<g id="edge8" class="edge">
<title>Node8&#45;&gt;Node9</title>
<path fill="none" stroke="#63b8ff" d="M149.33,-60.42C159.81,-58.6 170.82,-56.78 181.13,-55.25 305.19,-36.79 453.75,-20.45 516.63,-13.79"/>
<polygon fill="#63b8ff" stroke="#63b8ff" points="516.95,-17.28 526.53,-12.75 516.22,-10.32 516.95,-17.28"/>
</g>
<!-- Node10 -->
<g id="node10" class="node">
<title>Node10</title>
<g id="a_node10"><a xlink:title=" ">
<polygon fill="#e0e0e0" stroke="#999999" points="132.88,-19.25 67.38,-19.25 67.38,0 132.88,0 132.88,-19.25"/>
<text text-anchor="middle" x="100.13" y="-5.75" font-family="Helvetica,sans-Serif" font-size="10.00">string_view</text>
</a>
</g>
</g>
<!-- Node8&#45;&gt;Node10 -->
<g id="edge9" class="edge">
<title>Node8&#45;&gt;Node10</title>
<path fill="none" stroke="#63b8ff" d="M100.13,-60.56C100.13,-52.78 100.13,-41.2 100.13,-31.16"/>
<polygon fill="#63b8ff" stroke="#63b8ff" points="103.63,-31.16 100.13,-21.16 96.63,-31.16 103.63,-31.16"/>
</g>
<!-- Node12&#45;&gt;Node3 -->
<g id="edge13" class="edge">
<title>Node12&#45;&gt;Node3</title>
<path fill="none" stroke="#63b8ff" d="M236.35,-176.55C263.29,-166.93 298.14,-154.5 324,-145.27"/>
<polygon fill="#63b8ff" stroke="#63b8ff" points="325.16,-148.57 333.4,-141.91 322.81,-141.98 325.16,-148.57"/>
</g>
<!-- Node12&#45;&gt;Node6 -->
<g id="edge15" class="edge">
<title>Node12&#45;&gt;Node6</title>
<path fill="none" stroke="#63b8ff" d="M209.14,-176.87C218.79,-166.9 231.86,-153.25 243.13,-141 277.62,-103.53 274.26,-79.34 319.13,-55.25 417.2,-2.61 460.15,-41.12 572.54,-19.43"/>
<polygon fill="#63b8ff" stroke="#63b8ff" points="573.07,-22.89 582.16,-17.44 571.65,-16.03 573.07,-22.89"/>
</g>
<!-- Node12&#45;&gt;Node13 -->
<g id="edge14" class="edge">
<title>Node12&#45;&gt;Node13</title>
<path fill="none" stroke="#63b8ff" d="M194.64,-176.7C194.39,-169.46 194.09,-160.59 193.82,-152.69"/>
<polygon fill="#63b8ff" stroke="#63b8ff" points="197.33,-152.84 193.49,-142.96 190.34,-153.08 197.33,-152.84"/>
</g>
<!-- Node14&#45;&gt;Node7 -->
<g id="edge17" class="edge">
<title>Node14&#45;&gt;Node7</title>
<path fill="none" stroke="#63b8ff" d="M132.59,-243C78.78,-208.87 -40.59,-122.25 14.13,-55.25 25.85,-40.91 141.81,-23.15 200.08,-15.04"/>
<polygon fill="#63b8ff" stroke="#63b8ff" points="200.32,-18.54 209.75,-13.71 199.36,-11.6 200.32,-18.54"/>
</g>
<!-- Node15 -->
<g id="node15" class="node">
<title>Node15</title>
<g id="a_node15"><a xlink:href="../../d4/d1a/Executor_8hpp.html" target="_top" xlink:title="The base class for all MacroExecutors.">
<polygon fill="white" stroke="#666666" points="413.26,-207.5 305.01,-207.5 305.01,-177 413.26,-177 413.26,-207.5"/>
<text text-anchor="start" x="313.01" y="-194" font-family="Helvetica,sans-Serif" font-size="10.00">Ark/Compiler/Macros</text>
<text text-anchor="middle" x="359.13" y="-182.75" font-family="Helvetica,sans-Serif" font-size="10.00">/Executor.hpp</text>
</a>
</g>
</g>
<!-- Node14&#45;&gt;Node15 -->
<g id="edge18" class="edge">
<title>Node14&#45;&gt;Node15</title>
<path fill="none" stroke="#63b8ff" d="M203.22,-243.03C232.7,-233.62 271.14,-221.35 302.48,-211.34"/>
<polygon fill="#63b8ff" stroke="#63b8ff" points="303.34,-214.74 311.8,-208.36 301.21,-208.07 303.34,-214.74"/>
</g>
<!-- Node15&#45;&gt;Node3 -->
<g id="edge20" class="edge">
<title>Node15&#45;&gt;Node3</title>
<path fill="none" stroke="#63b8ff" d="M359.38,-176.7C359.5,-169.46 359.66,-160.59 359.79,-152.69"/>
<polygon fill="#63b8ff" stroke="#63b8ff" points="363.28,-153.02 359.95,-142.96 356.28,-152.9 363.28,-153.02"/>
</g>
<!-- Node15&#45;&gt;Node13 -->
<g id="edge19" class="edge">
<title>Node15&#45;&gt;Node13</title>
<path fill="none" stroke="#63b8ff" d="M317.67,-176.55C290.45,-166.89 255.19,-154.38 229.14,-145.15"/>
<polygon fill="#63b8ff" stroke="#63b8ff" points="230.61,-141.95 220.02,-141.91 228.27,-148.55 230.61,-141.95"/>
</g>
<!-- Node20&#45;&gt;Node5 -->
<g id="edge32" class="edge">
<title>Node20&#45;&gt;Node5</title>
<path fill="none" stroke="#63b8ff" d="M882.2,-124.46C780.18,-112.61 552.92,-86.22 463.4,-75.83"/>
<polygon fill="#63b8ff" stroke="#63b8ff" points="464.04,-72.38 453.7,-74.7 463.23,-79.33 464.04,-72.38"/>
</g>
<!-- Node20&#45;&gt;Node6 -->
<g id="edge28" class="edge">
<title>Node20&#45;&gt;Node6</title>
<path fill="none" stroke="#63b8ff" d="M974.4,-121.35C1020.04,-109.57 1083.61,-86.68 1055.13,-55.25 1041.03,-39.68 736.51,-19.03 636,-12.61"/>
<polygon fill="#63b8ff" stroke="#63b8ff" points="636.24,-9.12 626.04,-11.98 635.8,-16.11 636.24,-9.12"/>
</g>
<!-- Node20&#45;&gt;Node7 -->
<g id="edge29" class="edge">
<title>Node20&#45;&gt;Node7</title>
<path fill="none" stroke="#63b8ff" d="M882.17,-125.84C838.97,-120.52 776.24,-109.22 726.13,-85.75 706.21,-76.42 707.56,-63.43 687.13,-55.25 610.44,-24.54 357.21,-14.25 266.13,-11.49"/>
<polygon fill="#63b8ff" stroke="#63b8ff" points="266.49,-8 256.39,-11.21 266.28,-14.99 266.49,-8"/>
</g>
<!-- Node20&#45;&gt;Node11 -->
<g id="edge38" class="edge">
<title>Node20&#45;&gt;Node11</title>
<path fill="none" stroke="#63b8ff" d="M984.14,-129.14C1097.09,-125.88 1360.47,-115.16 1387.13,-85.75 1396.24,-75.71 1396.19,-65.34 1387.13,-55.25 1375.43,-42.21 1142.29,-23.09 1032.46,-14.76"/>
<polygon fill="#63b8ff" stroke="#63b8ff" points="1033.02,-11.29 1022.79,-14.03 1032.5,-18.27 1033.02,-11.29"/>
</g>
<!-- Node21 -->
<g id="node21" class="node">
<title>Node21</title>
<g id="a_node21"><a xlink:title=" ">
<polygon fill="#e0e0e0" stroke="#999999" points="1378.51,-80.12 1319.76,-80.12 1319.76,-60.88 1378.51,-60.88 1378.51,-80.12"/>
<text text-anchor="middle" x="1349.13" y="-66.62" font-family="Helvetica,sans-Serif" font-size="10.00">stdexcept</text>
</a>
</g>
</g>
<!-- Node20&#45;&gt;Node21 -->
<g id="edge30" class="edge">
<title>Node20&#45;&gt;Node21</title>
<path fill="none" stroke="#63b8ff" d="M984.26,-128.25C1057.57,-124.32 1196.35,-113.61 1311.13,-85.75 1313.02,-85.29 1314.93,-84.77 1316.86,-84.2"/>
<polygon fill="#63b8ff" stroke="#63b8ff" points="1317.91,-87.54 1326.28,-81.04 1315.69,-80.9 1317.91,-87.54"/>
</g>
<!-- Node22 -->
<g id="node22" class="node">
<title>Node22</title>
<g id="a_node22"><a xlink:title=" ">
<polygon fill="#e0e0e0" stroke="#999999" points="1302.01,-80.12 1252.26,-80.12 1252.26,-60.88 1302.01,-60.88 1302.01,-80.12"/>
<text text-anchor="middle" x="1277.13" y="-66.62" font-family="Helvetica,sans-Serif" font-size="10.00">optional</text>
</a>
</g>
</g>
<!-- Node20&#45;&gt;Node22 -->
<g id="edge31" class="edge">
<title>Node20&#45;&gt;Node22</title>
<path fill="none" stroke="#63b8ff" d="M984.15,-127.02C1046.26,-122.02 1153.91,-110.44 1243.13,-85.75 1244.52,-85.37 1245.93,-84.94 1247.34,-84.48"/>
<polygon fill="#63b8ff" stroke="#63b8ff" points="1248.45,-87.8 1256.6,-81.04 1246.01,-81.24 1248.45,-87.8"/>
</g>
<!-- Node23 -->
<g id="node23" class="node">
<title>Node23</title>
<g id="a_node23"><a xlink:title=" ">
<polygon fill="#e0e0e0" stroke="#999999" points="1229.88,-19.25 1176.38,-19.25 1176.38,0 1229.88,0 1229.88,-19.25"/>
<text text-anchor="middle" x="1203.13" y="-5.75" font-family="Helvetica,sans-Serif" font-size="10.00">iostream</text>
</a>
</g>
</g>
<!-- Node20&#45;&gt;Node23 -->
<g id="edge33" class="edge">
<title>Node20&#45;&gt;Node23</title>
<path fill="none" stroke="#63b8ff" d="M984.3,-129.33C1100.48,-126.43 1376.29,-116.36 1404.13,-85.75 1452.82,-32.24 1311.99,-16.68 1241.14,-12.29"/>
<polygon fill="#63b8ff" stroke="#63b8ff" points="1241.7,-8.82 1231.52,-11.74 1241.3,-15.8 1241.7,-8.82"/>
</g>
<!-- Node24 -->
<g id="node24" class="node">
<title>Node24</title>
<g id="a_node24"><a xlink:href="../../db/d4e/utf8__char_8hpp.html" target="_top" xlink:title=" ">
<polygon fill="white" stroke="#666666" points="849.63,-85.75 734.63,-85.75 734.63,-55.25 849.63,-55.25 849.63,-85.75"/>
<text text-anchor="start" x="742.63" y="-72.25" font-family="Helvetica,sans-Serif" font-size="10.00">Ark/Compiler/AST/utf8</text>
<text text-anchor="middle" x="792.13" y="-61" font-family="Helvetica,sans-Serif" font-size="10.00">_char.hpp</text>
</a>
</g>
</g>
<!-- Node20&#45;&gt;Node24 -->
<g id="edge34" class="edge">
<title>Node20&#45;&gt;Node24</title>
<path fill="none" stroke="#63b8ff" d="M911.41,-121.3C891.9,-113.16 862.6,-100.92 837.93,-90.62"/>
<polygon fill="#63b8ff" stroke="#63b8ff" points="839.3,-87.4 828.72,-86.78 836.6,-93.86 839.3,-87.4"/>
</g>
<!-- Node24&#45;&gt;Node6 -->
<g id="edge36" class="edge">
<title>Node24&#45;&gt;Node6</title>
<path fill="none" stroke="#63b8ff" d="M745.18,-54.8C710.65,-43.98 664.72,-29.6 634.8,-20.23"/>
<polygon fill="#63b8ff" stroke="#63b8ff" points="636.2,-17 625.62,-17.35 634.11,-23.68 636.2,-17"/>
</g>
<!-- Node24&#45;&gt;Node9 -->
<g id="edge35" class="edge">
<title>Node24&#45;&gt;Node9</title>
<path fill="none" stroke="#63b8ff" d="M734.29,-57.28C692.98,-48.29 635.88,-35.32 577.31,-19.69"/>
<polygon fill="#63b8ff" stroke="#63b8ff" points="578.39,-16.36 567.82,-17.14 576.57,-23.12 578.39,-16.36"/>
</g>
<!-- Node25 -->
<g id="node25" class="node">
<title>Node25</title>
<g id="a_node25"><a xlink:title=" ">
<polygon fill="#e0e0e0" stroke="#999999" points="811.76,-19.25 772.51,-19.25 772.51,0 811.76,0 811.76,-19.25"/>
<text text-anchor="middle" x="792.13" y="-5.75" font-family="Helvetica,sans-Serif" font-size="10.00">limits</text>
</a>
</g>
</g>
<!-- Node24&#45;&gt;Node25 -->
<g id="edge37" class="edge">
<title>Node24&#45;&gt;Node25</title>
<path fill="none" stroke="#63b8ff" d="M792.13,-54.95C792.13,-47.71 792.13,-38.84 792.13,-30.94"/>
<polygon fill="#63b8ff" stroke="#63b8ff" points="795.63,-31.21 792.13,-21.21 788.63,-31.21 795.63,-31.21"/>
</g>
<!-- Node26&#45;&gt;Node7 -->
<g id="edge40" class="edge">
<title>Node26&#45;&gt;Node7</title>
<path fill="none" stroke="#63b8ff" d="M646.78,-182.14C563.61,-157.95 342.73,-93.37 328.13,-85.75 298.13,-70.09 268.3,-44.43 250.29,-27.53"/>
<polygon fill="#63b8ff" stroke="#63b8ff" points="252.74,-25.03 243.1,-20.64 247.9,-30.09 252.74,-25.03"/>
</g>
<!-- Node26&#45;&gt;Node20 -->
<g id="edge57" class="edge">
<title>Node26&#45;&gt;Node20</title>
<path fill="none" stroke="#63b8ff" d="M717.42,-182.18C761.78,-171.94 834.09,-155.24 882.62,-144.04"/>
<polygon fill="#63b8ff" stroke="#63b8ff" points="883.37,-147.46 892.33,-141.8 881.8,-140.64 883.37,-147.46"/>
</g>
<!-- Node27 -->
<g id="node27" class="node">
<title>Node27</title>
<g id="a_node27"><a xlink:href="../../de/dfd/Value_8hpp.html" target="_top" xlink:title=" ">
<polygon fill="white" stroke="#666666" points="697.51,-141 602.76,-141 602.76,-121.75 697.51,-121.75 697.51,-141"/>
<text text-anchor="middle" x="650.13" y="-127.5" font-family="Helvetica,sans-Serif" font-size="10.00">Ark/VM/Value.hpp</text>
</a>
</g>
</g>
<!-- Node26&#45;&gt;Node27 -->
<g id="edge41" class="edge">
<title>Node26&#45;&gt;Node27</title>
<path fill="none" stroke="#63b8ff" d="M673.88,-182.31C670.02,-174.18 664.18,-161.92 659.27,-151.58"/>
<polygon fill="#63b8ff" stroke="#63b8ff" points="662.53,-150.3 655.08,-142.77 656.21,-153.3 662.53,-150.3"/>
</g>
<!-- Node27&#45;&gt;Node4 -->
<g id="edge43" class="edge">
<title>Node27&#45;&gt;Node4</title>
<path fill="none" stroke="#63b8ff" d="M602.48,-125.92C549.85,-120.14 463.04,-108.05 391.13,-85.75 390.17,-85.45 389.19,-85.13 388.22,-84.79"/>
<polygon fill="#63b8ff" stroke="#63b8ff" points="389.84,-81.67 379.26,-81.17 387.22,-88.16 389.84,-81.67"/>
</g>
<!-- Node27&#45;&gt;Node6 -->
<g id="edge44" class="edge">
<title>Node27&#45;&gt;Node6</title>
<path fill="none" stroke="#63b8ff" d="M640.11,-121.55C631.4,-113.25 619.25,-99.99 613.13,-85.75 605.6,-68.21 603.72,-46.38 603.5,-30.78"/>
<polygon fill="#63b8ff" stroke="#63b8ff" points="607,-30.92 603.61,-20.88 600,-30.84 607,-30.92"/>
</g>
<!-- Node27&#45;&gt;Node7 -->
<g id="edge42" class="edge">
<title>Node27&#45;&gt;Node7</title>
<path fill="none" stroke="#63b8ff" d="M630.69,-121.25C596.9,-105.71 524.82,-73.97 461.13,-55.25 393.07,-35.25 310.92,-21.67 266.16,-15.13"/>
<polygon fill="#63b8ff" stroke="#63b8ff" points="266.72,-11.67 256.33,-13.72 265.73,-18.6 266.72,-11.67"/>
</g>
<!-- Node27&#45;&gt;Node9 -->
<g id="edge46" class="edge">
<title>Node27&#45;&gt;Node9</title>
<path fill="none" stroke="#63b8ff" d="M639.01,-121.4C628.66,-112.79 613.07,-99.15 601.13,-85.75 584.99,-67.62 569.09,-44.72 558.77,-28.99"/>
<polygon fill="#63b8ff" stroke="#63b8ff" points="561.76,-27.18 553.4,-20.67 555.88,-30.97 561.76,-27.18"/>
</g>
<!-- Node27&#45;&gt;Node11 -->
<g id="edge56" class="edge">
<title>Node27&#45;&gt;Node11</title>
<path fill="none" stroke="#63b8ff" d="M697.8,-126.54C741.53,-121.58 807.19,-110.42 859.13,-85.75 878.7,-76.46 879.2,-67.39 897.13,-55.25 913.56,-44.13 932.94,-33.15 948.4,-24.86"/>
<polygon fill="#63b8ff" stroke="#63b8ff" points="949.84,-28.06 957.05,-20.3 946.57,-21.87 949.84,-28.06"/>
</g>
<!-- Node28 -->
<g id="node28" class="node">
<title>Node28</title>
<g id="a_node28"><a xlink:title=" ">
<polygon fill="#e0e0e0" stroke="#999999" points="678.01,-80.12 622.26,-80.12 622.26,-60.88 678.01,-60.88 678.01,-80.12"/>
<text text-anchor="middle" x="650.13" y="-66.62" font-family="Helvetica,sans-Serif" font-size="10.00">cinttypes</text>
</a>
</g>
</g>
<!-- Node27&#45;&gt;Node28 -->
<g id="edge45" class="edge">
<title>Node27&#45;&gt;Node28</title>
<path fill="none" stroke="#63b8ff" d="M650.13,-121.43C650.13,-113.65 650.13,-102.08 650.13,-92.03"/>
<polygon fill="#63b8ff" stroke="#63b8ff" points="653.63,-92.04 650.13,-82.04 646.63,-92.04 653.63,-92.04"/>
</g>
<!-- Node29 -->
<g id="node29" class="node">
<title>Node29</title>
<g id="a_node29"><a xlink:href="../../dc/dd5/Closure_8hpp.html" target="_top" xlink:title="Subtype of the value type, handling closures.">
<polygon fill="white" stroke="#666666" points="1233.88,-80.12 1102.38,-80.12 1102.38,-60.88 1233.88,-60.88 1233.88,-80.12"/>
<text text-anchor="middle" x="1168.13" y="-66.62" font-family="Helvetica,sans-Serif" font-size="10.00">Ark/VM/Value/Closure.hpp</text>
</a>
</g>
</g>
<!-- Node27&#45;&gt;Node29 -->
<g id="edge47" class="edge">
<title>Node27&#45;&gt;Node29</title>
<path fill="none" stroke="#63b8ff" d="M697.86,-125.36C773.62,-117.35 926.05,-101 1055.13,-85.75 1066.67,-84.39 1078.86,-82.9 1090.79,-81.42"/>
<polygon fill="#63b8ff" stroke="#63b8ff" points="1091.14,-84.9 1100.63,-80.19 1090.27,-77.96 1091.14,-84.9"/>
</g>
<!-- Node31 -->
<g id="node31" class="node">
<title>Node31</title>
<g id="a_node31"><a xlink:href="../../dc/d3d/UserType_8hpp.html" target="_top" xlink:title="Subtype of the value, capable of handling any C++ type.">
<polygon fill="white" stroke="#666666" points="1046.01,-80.12 906.26,-80.12 906.26,-60.88 1046.01,-60.88 1046.01,-80.12"/>
<text text-anchor="middle" x="976.13" y="-66.62" font-family="Helvetica,sans-Serif" font-size="10.00">Ark/VM/Value/UserType.hpp</text>
</a>
</g>
</g>
<!-- Node27&#45;&gt;Node31 -->
<g id="edge52" class="edge">
<title>Node27&#45;&gt;Node31</title>
<path fill="none" stroke="#63b8ff" d="M697.89,-121.75C755.36,-111.37 851.98,-93.92 914.89,-82.56"/>
<polygon fill="#63b8ff" stroke="#63b8ff" points="915.13,-86.07 924.35,-80.85 913.89,-79.18 915.13,-86.07"/>
</g>
<!-- Node29&#45;&gt;Node6 -->
<g id="edge50" class="edge">
<title>Node29&#45;&gt;Node6</title>
<path fill="none" stroke="#63b8ff" d="M1120.86,-60.4C1110.13,-58.52 1098.76,-56.68 1088.13,-55.25 918.26,-32.33 713.24,-17.69 635.8,-12.62"/>
<polygon fill="#63b8ff" stroke="#63b8ff" points="636.21,-9.14 626,-11.98 635.75,-16.12 636.21,-9.14"/>
</g>
<!-- Node29&#45;&gt;Node11 -->
<g id="edge51" class="edge">
<title>Node29&#45;&gt;Node11</title>
<path fill="none" stroke="#63b8ff" d="M1138.55,-60.43C1105.86,-50.4 1053,-34.19 1016.51,-23"/>
<polygon fill="#63b8ff" stroke="#63b8ff" points="1017.78,-19.73 1007.19,-20.15 1015.73,-26.43 1017.78,-19.73"/>
</g>
<!-- Node29&#45;&gt;Node23 -->
<g id="edge49" class="edge">
<title>Node29&#45;&gt;Node23</title>
<path fill="none" stroke="#63b8ff" d="M1173.45,-60.56C1178.33,-52.35 1185.73,-39.91 1191.91,-29.5"/>
<polygon fill="#63b8ff" stroke="#63b8ff" points="1194.89,-31.34 1196.99,-20.95 1188.88,-27.76 1194.89,-31.34"/>
</g>
<!-- Node30 -->
<g id="node30" class="node">
<title>Node30</title>
<g id="a_node30"><a xlink:title=" ">
<polygon fill="#e0e0e0" stroke="#999999" points="1158.76,-19.25 1107.51,-19.25 1107.51,0 1158.76,0 1158.76,-19.25"/>
<text text-anchor="middle" x="1133.13" y="-5.75" font-family="Helvetica,sans-Serif" font-size="10.00">memory</text>
</a>
</g>
</g>
<!-- Node29&#45;&gt;Node30 -->
<g id="edge48" class="edge">
<title>Node29&#45;&gt;Node30</title>
<path fill="none" stroke="#63b8ff" d="M1162.82,-60.56C1157.94,-52.35 1150.54,-39.91 1144.35,-29.5"/>
<polygon fill="#63b8ff" stroke="#63b8ff" points="1147.39,-27.76 1139.27,-20.95 1141.37,-31.34 1147.39,-27.76"/>
</g>
<!-- Node31&#45;&gt;Node7 -->
<g id="edge54" class="edge">
<title>Node31&#45;&gt;Node7</title>
<path fill="none" stroke="#63b8ff" d="M905.98,-60.38C890.56,-58.53 874.31,-56.71 859.13,-55.25 632.9,-33.42 359.7,-17.54 266.29,-12.4"/>
<polygon fill="#63b8ff" stroke="#63b8ff" points="266.75,-8.92 256.58,-11.87 266.37,-15.91 266.75,-8.92"/>
</g>
<!-- Node31&#45;&gt;Node11 -->
<g id="edge55" class="edge">
<title>Node31&#45;&gt;Node11</title>
<path fill="none" stroke="#63b8ff" d="M976.13,-60.56C976.13,-52.78 976.13,-41.2 976.13,-31.16"/>
<polygon fill="#63b8ff" stroke="#63b8ff" points="979.63,-31.16 976.13,-21.16 972.63,-31.16 979.63,-31.16"/>
</g>
<!-- Node31&#45;&gt;Node23 -->
<g id="edge53" class="edge">
<title>Node31&#45;&gt;Node23</title>
<path fill="none" stroke="#63b8ff" d="M1011.11,-60.43C1052.69,-49.65 1121.85,-31.71 1164.84,-20.56"/>
<polygon fill="#63b8ff" stroke="#63b8ff" points="1165.7,-23.95 1174.5,-18.05 1163.94,-17.18 1165.7,-23.95"/>
</g>
<!-- Node32&#45;&gt;Node3 -->
<g id="edge60" class="edge">
<title>Node32&#45;&gt;Node3</title>
<path fill="none" stroke="#63b8ff" d="M313.59,-243.29C300.87,-226.76 284.58,-199.14 296.13,-177 302.94,-163.96 315.49,-153.95 327.68,-146.75"/>
<polygon fill="#63b8ff" stroke="#63b8ff" points="329.23,-149.9 336.37,-142.08 325.91,-143.73 329.23,-149.9"/>
</g>
<!-- Node32&#45;&gt;Node15 -->
<g id="edge59" class="edge">
<title>Node32&#45;&gt;Node15</title>
<path fill="none" stroke="#63b8ff" d="M333.62,-243.11C337.42,-235.69 342.14,-226.47 346.48,-217.99"/>
<polygon fill="#63b8ff" stroke="#63b8ff" points="349.55,-219.67 350.99,-209.18 343.32,-216.48 349.55,-219.67"/>
</g>
<!-- Node33&#45;&gt;Node3 -->
<g id="edge63" class="edge">
<title>Node33&#45;&gt;Node3</title>
<path fill="none" stroke="#63b8ff" d="M496.8,-243.15C489.69,-225.47 475.59,-195.73 455.13,-177 439.82,-162.97 419.3,-152.59 401.26,-145.39"/>
<polygon fill="#63b8ff" stroke="#63b8ff" points="402.71,-142.19 392.11,-141.94 400.24,-148.74 402.71,-142.19"/>
</g>
<!-- Node33&#45;&gt;Node15 -->
<g id="edge62" class="edge">
<title>Node33&#45;&gt;Node15</title>
<path fill="none" stroke="#63b8ff" d="M469.69,-243.11C449.57,-234.04 423.52,-222.29 401.75,-212.47"/>
<polygon fill="#63b8ff" stroke="#63b8ff" points="403.39,-209.37 392.83,-208.45 400.51,-215.75 403.39,-209.37"/>
</g>
<!-- Node34&#45;&gt;Node3 -->
<g id="edge66" class="edge">
<title>Node34&#45;&gt;Node3</title>
<path fill="none" stroke="#63b8ff" d="M619.86,-243.04C586.95,-226.16 530.78,-198.1 481.13,-177 453.56,-165.28 421.75,-153.62 397.67,-145.16"/>
<polygon fill="#63b8ff" stroke="#63b8ff" points="398.88,-141.88 388.29,-141.89 396.58,-148.49 398.88,-141.88"/>
</g>
<!-- Node34&#45;&gt;Node15 -->
<g id="edge65" class="edge">
<title>Node34&#45;&gt;Node15</title>
<path fill="none" stroke="#63b8ff" d="M582.19,-243.03C535,-232.5 471.74,-218.38 424.65,-207.87"/>
<polygon fill="#63b8ff" stroke="#63b8ff" points="425.65,-204.51 415.13,-205.75 424.12,-211.34 425.65,-204.51"/>
</g>
</g>
</svg>
        <g id="navigator" transform="translate(0 0)" fill="#404254">
                <rect fill="#f2f5e9" fill-opacity="0.5" stroke="#606060" stroke-width=".5" x="0" y="0" width="60" height="60"/>
                <use id="zoomplus" xlink:href="#zoomPlus" x="17" y="9" onmousedown="handleZoom(evt,'in')"/>
                <use id="zoomminus" xlink:href="#zoomMin" x="42" y="9" onmousedown="handleZoom(evt,'out')"/>
                <use id="reset" xlink:href="#resetDef" x="30" y="36" onmousedown="handleReset()"/>
                <g id="arrowUp" xlink:href="#dirArrow" transform="translate(30 24)" onmousedown="handlePan(0,-1)">
                  <use xlink:href="#rim" fill="#404040">
                        <set attributeName="fill" to="#808080" begin="arrowUp.mouseover" end="arrowUp.mouseout"/>
                  </use>
                  <path fill="none" stroke="white" stroke-width="1.5" d="M0,-3.0v7 M-2.5,-0.5L0,-3.0L2.5,-0.5"/>
                </g>
                <g id="arrowRight" xlink:href="#dirArrow" transform="rotate(90) translate(36 -43)" onmousedown="handlePan(1,0)">
                  <use xlink:href="#rim" fill="#404040">
                        <set attributeName="fill" to="#808080" begin="arrowRight.mouseover" end="arrowRight.mouseout"/>
                  </use>
                  <path fill="none" stroke="white" stroke-width="1.5" d="M0,-3.0v7 M-2.5,-0.5L0,-3.0L2.5,-0.5"/>
                </g>
                <g id="arrowDown" xlink:href="#dirArrow" transform="rotate(180) translate(-30 -48)" onmousedown="handlePan(0,1)">
                  <use xlink:href="#rim" fill="#404040">
                        <set attributeName="fill" to="#808080" begin="arrowDown.mouseover" end="arrowDown.mouseout"/>
                  </use>
                  <path fill="none" stroke="white" stroke-width="1.5" d="M0,-3.0v7 M-2.5,-0.5L0,-3.0L2.5,-0.5"/>
                </g>
                <g id="arrowLeft" xlink:href="#dirArrow" transform="rotate(270) translate(-36 17)" onmousedown="handlePan(-1,0)">
                  <use xlink:href="#rim" fill="#404040">
                        <set attributeName="fill" to="#808080" begin="arrowLeft.mouseover" end="arrowLeft.mouseout"/>
                  </use>
                  <path fill="none" stroke="white" stroke-width="1.5" d="M0,-3.0v7 M-2.5,-0.5L0,-3.0L2.5,-0.5"/>
                </g>
        </g>
        <svg viewBox="0 0 15 15" width="100%" height="30px" preserveAspectRatio="xMaxYMin meet">
         <g id="arrow_out" transform="scale(0.3 0.3)">
          <a xlink:href="Processor_8cpp__incl_org.svg" target="_base">
           <rect id="button" ry="5" rx="5" y="6" x="6" height="38" width="38"
                fill="#f2f5e9" fill-opacity="0.5" stroke="#606060" stroke-width="1.0"/>
           <path id="arrow"
             d="M 11.500037,31.436501 C 11.940474,20.09759 22.043105,11.32322 32.158766,21.979434 L 37.068811,17.246167 C 37.068811,17.246167 37.088388,32 37.088388,32 L 22.160133,31.978069 C 22.160133,31.978069 26.997745,27.140456 26.997745,27.140456 C 18.528582,18.264221 13.291696,25.230495 11.500037,31.436501 z"
             style="fill:#404040;"/>
          </a>
         </g>
        </svg>
</svg>
