<?xml version="1.0" encoding="UTF-8" standalone="no"?>
<!DOCTYPE svg PUBLIC "-//W3C//DTD SVG 1.1//EN"
 "http://www.w3.org/Graphics/SVG/1.1/DTD/svg11.dtd">
<!-- Generated by graphviz version 2.43.0 (0)
 -->
<!-- Title: /home/fola/code/Ark/src/arkscript/REPL/Utils.cpp Pages: 1 -->
<svg width="325pt" height="162pt"
 viewBox="0.00 0.00 324.50 162.00" xmlns="http://www.w3.org/2000/svg" xmlns:xlink="http://www.w3.org/1999/xlink">
<g id="graph0" class="graph" transform="scale(1 1) rotate(0) translate(4 158)">
<title>/home/fola/code/Ark/src/arkscript/REPL/Utils.cpp</title>
<polygon fill="white" stroke="transparent" points="-4,4 -4,-158 320.5,-158 320.5,4 -4,4"/>
<!-- Node1 -->
<g id="node1" class="node">
<title>Node1</title>
<g id="a_node1"><a xlink:title=" ">
<polygon fill="#bfbfbf" stroke="black" points="172,-112.5 172,-153.5 287,-153.5 287,-112.5 172,-112.5"/>
<text text-anchor="start" x="180" y="-141.5" font-family="Helvetica,sans-Serif" font-size="10.00">/home/fola/code/Ark</text>
<text text-anchor="start" x="180" y="-130.5" font-family="Helvetica,sans-Serif" font-size="10.00">/src/arkscript/REPL</text>
<text text-anchor="middle" x="229.5" y="-119.5" font-family="Helvetica,sans-Serif" font-size="10.00">/Utils.cpp</text>
</a>
</g>
</g>
<!-- Node2 -->
<g id="node2" class="node">
<title>Node2</title>
<g id="a_node2"><a xlink:href="../../dc/d3e/Util_8hpp.html" target="_top" xlink:title="replxx utilities">
<polygon fill="white" stroke="black" points="51,-56.5 51,-75.5 186,-75.5 186,-56.5 51,-56.5"/>
<text text-anchor="middle" x="118.5" y="-63.5" font-family="Helvetica,sans-Serif" font-size="10.00">Ark/REPL/replxx/Util.hpp</text>
</a>
</g>
</g>
<!-- Node1&#45;&gt;Node2 -->
<g id="edge1" class="edge">
<title>Node1&#45;&gt;Node2</title>
<path fill="none" stroke="midnightblue" d="M196.2,-112.5C178.85,-102.34 158.04,-90.16 142.33,-80.95"/>
<polygon fill="midnightblue" stroke="midnightblue" points="143.67,-77.69 133.28,-75.65 140.14,-83.73 143.67,-77.69"/>
</g>
<!-- Node7 -->
<g id="node7" class="node">
<title>Node7</title>
<g id="a_node7"><a xlink:title=" ">
<polygon fill="white" stroke="#bfbfbf" points="204.5,-56.5 204.5,-75.5 254.5,-75.5 254.5,-56.5 204.5,-56.5"/>
<text text-anchor="middle" x="229.5" y="-63.5" font-family="Helvetica,sans-Serif" font-size="10.00">cstring</text>
</a>
</g>
</g>
<!-- Node1&#45;&gt;Node7 -->
<g id="edge6" class="edge">
<title>Node1&#45;&gt;Node7</title>
<path fill="none" stroke="midnightblue" d="M229.5,-112.5C229.5,-104.07 229.5,-94.24 229.5,-85.87"/>
<polygon fill="midnightblue" stroke="midnightblue" points="233,-85.65 229.5,-75.65 226,-85.65 233,-85.65"/>
</g>
<!-- Node8 -->
<g id="node8" class="node">
<title>Node8</title>
<g id="a_node8"><a xlink:title=" ">
<polygon fill="white" stroke="#bfbfbf" points="272.5,-56.5 272.5,-75.5 316.5,-75.5 316.5,-56.5 272.5,-56.5"/>
<text text-anchor="middle" x="294.5" y="-63.5" font-family="Helvetica,sans-Serif" font-size="10.00">regex</text>
</a>
</g>
</g>
<!-- Node1&#45;&gt;Node8 -->
<g id="edge7" class="edge">
<title>Node1&#45;&gt;Node8</title>
<path fill="none" stroke="midnightblue" d="M249,-112.5C258.49,-103.01 269.74,-91.76 278.69,-82.81"/>
<polygon fill="midnightblue" stroke="midnightblue" points="281.25,-85.2 285.85,-75.65 276.3,-80.25 281.25,-85.2"/>
</g>
<!-- Node3 -->
<g id="node3" class="node">
<title>Node3</title>
<g id="a_node3"><a xlink:title=" ">
<polygon fill="white" stroke="#bfbfbf" points="0,-0.5 0,-19.5 47,-19.5 47,-0.5 0,-0.5"/>
<text text-anchor="middle" x="23.5" y="-7.5" font-family="Helvetica,sans-Serif" font-size="10.00">vector</text>
</a>
</g>
</g>
<!-- Node2&#45;&gt;Node3 -->
<g id="edge2" class="edge">
<title>Node2&#45;&gt;Node3</title>
<path fill="none" stroke="midnightblue" d="M103.24,-56.32C88.28,-47.82 65.25,-34.73 47.77,-24.8"/>
<polygon fill="midnightblue" stroke="midnightblue" points="49.15,-21.55 38.73,-19.65 45.69,-27.64 49.15,-21.55"/>
</g>
<!-- Node4 -->
<g id="node4" class="node">
<title>Node4</title>
<g id="a_node4"><a xlink:title=" ">
<polygon fill="white" stroke="#bfbfbf" points="65,-0.5 65,-19.5 110,-19.5 110,-0.5 65,-0.5"/>
<text text-anchor="middle" x="87.5" y="-7.5" font-family="Helvetica,sans-Serif" font-size="10.00">utility</text>
</a>
</g>
</g>
<!-- Node2&#45;&gt;Node4 -->
<g id="edge3" class="edge">
<title>Node2&#45;&gt;Node4</title>
<path fill="none" stroke="midnightblue" d="M113.38,-56.08C109.09,-48.61 102.84,-37.72 97.56,-28.52"/>
<polygon fill="midnightblue" stroke="midnightblue" points="100.54,-26.68 92.52,-19.75 94.47,-30.17 100.54,-26.68"/>
</g>
<!-- Node5 -->
<g id="node5" class="node">
<title>Node5</title>
<g id="a_node5"><a xlink:title=" ">
<polygon fill="white" stroke="#bfbfbf" points="128.5,-0.5 128.5,-19.5 172.5,-19.5 172.5,-0.5 128.5,-0.5"/>
<text text-anchor="middle" x="150.5" y="-7.5" font-family="Helvetica,sans-Serif" font-size="10.00">string</text>
</a>
</g>
</g>
<!-- Node2&#45;&gt;Node5 -->
<g id="edge4" class="edge">
<title>Node2&#45;&gt;Node5</title>
<path fill="none" stroke="midnightblue" d="M123.78,-56.08C128.21,-48.61 134.66,-37.72 140.12,-28.52"/>
<polygon fill="midnightblue" stroke="midnightblue" points="143.23,-30.14 145.31,-19.75 137.21,-26.57 143.23,-30.14"/>
</g>
<!-- Node6 -->
<g id="node6" class="node">
<title>Node6</title>
<g id="a_node6"><a xlink:title=" ">
<polygon fill="white" stroke="#bfbfbf" points="190.5,-0.5 190.5,-19.5 258.5,-19.5 258.5,-0.5 190.5,-0.5"/>
<text text-anchor="middle" x="224.5" y="-7.5" font-family="Helvetica,sans-Serif" font-size="10.00">replxx.hxx</text>
</a>
</g>
</g>
<!-- Node2&#45;&gt;Node6 -->
<g id="edge5" class="edge">
<title>Node2&#45;&gt;Node6</title>
<path fill="none" stroke="midnightblue" d="M135.53,-56.32C152.53,-47.66 178.88,-34.24 198.49,-24.25"/>
<polygon fill="midnightblue" stroke="midnightblue" points="200.19,-27.31 207.51,-19.65 197.01,-21.08 200.19,-27.31"/>
</g>
</g>
</svg>
