<?xml version="1.0" encoding="UTF-8" standalone="no"?>
<!DOCTYPE svg PUBLIC "-//W3C//DTD SVG 1.1//EN"
 "http://www.w3.org/Graphics/SVG/1.1/DTD/svg11.dtd">
<!-- Generated by graphviz version 12.2.0 (20241103.1931)
 -->
<!-- Title: Ark::internal::ImportSolver Pages: 1 -->
<svg width="1507pt" height="463pt"
 viewBox="0.00 0.00 1506.50 462.69" xmlns="http://www.w3.org/2000/svg" xmlns:xlink="http://www.w3.org/1999/xlink">
<g id="graph0" class="graph" transform="scale(1 1) rotate(0) translate(4 458.69)">
<title>Ark::internal::ImportSolver</title>
<!-- Node1 -->
<g id="Node000001" class="node">
<title>Node1</title>
<g id="a_Node000001"><a xlink:title=" ">
<polygon fill="#999999" stroke="#666666" points="1498.5,-196.24 1368.5,-196.24 1368.5,-176.99 1498.5,-176.99 1498.5,-196.24"/>
<text text-anchor="middle" x="1433.5" y="-182.74" font-family="Helvetica,sans-Serif" font-size="10.00">Ark::internal::ImportSolver</text>
</a>
</g>
</g>
<!-- Node2 -->
<g id="Node000002" class="node">
<title>Node2</title>
<g id="a_Node000002"><a xlink:href="../../da/d7b/classArk_1_1internal_1_1Pass.html" target="_top" xlink:title="An interface to describe compiler passes.">
<polygon fill="white" stroke="#666666" points="1153.75,-173.24 1056.75,-173.24 1056.75,-153.99 1153.75,-153.99 1153.75,-173.24"/>
<text text-anchor="middle" x="1105.25" y="-159.74" font-family="Helvetica,sans-Serif" font-size="10.00">Ark::internal::Pass</text>
</a>
</g>
</g>
<!-- Node2&#45;&gt;Node1 -->
<g id="edge1_Node000001_Node000002" class="edge">
<title>Node2&#45;&gt;Node1</title>
<g id="a_edge1_Node000001_Node000002"><a xlink:title=" ">
<path fill="none" stroke="#63b8ff" d="M1165.44,-167.79C1222.74,-171.83 1309.35,-177.93 1368.29,-182.09"/>
<polygon fill="#63b8ff" stroke="#63b8ff" points="1165.77,-164.3 1155.55,-167.09 1165.28,-171.29 1165.77,-164.3"/>
</a>
</g>
</g>
<!-- Node3 -->
<g id="Node000003" class="node">
<title>Node3</title>
<g id="a_Node000003"><a xlink:href="../../d6/d2f/classArk_1_1internal_1_1Logger.html" target="_top" xlink:title=" ">
<polygon fill="white" stroke="#666666" points="839.75,-168.24 736,-168.24 736,-148.99 839.75,-148.99 839.75,-168.24"/>
<text text-anchor="middle" x="787.88" y="-154.74" font-family="Helvetica,sans-Serif" font-size="10.00">Ark::internal::Logger</text>
</a>
</g>
</g>
<!-- Node3&#45;&gt;Node2 -->
<g id="edge2_Node000002_Node000003" class="edge">
<title>Node3&#45;&gt;Node2</title>
<g id="a_edge2_Node000002_Node000003"><a xlink:title=" ">
<path fill="none" stroke="#9a32cd" stroke-dasharray="5,2" d="M851.51,-159.61C911.74,-160.56 1001.5,-161.99 1056.26,-162.86"/>
<polygon fill="#9a32cd" stroke="#9a32cd" points="851.81,-156.11 841.76,-159.45 851.7,-163.11 851.81,-156.11"/>
</a>
</g>
<text text-anchor="middle" x="879.12" y="-162.13" font-family="Helvetica,sans-Serif" font-size="10.00" fill="grey"> m_logger</text>
</g>
<!-- Node4 -->
<g id="Node000004" class="node">
<title>Node4</title>
<g id="a_Node000004"><a xlink:title=" ">
<polygon fill="white" stroke="#666666" points="253.62,-315.24 194.12,-315.24 194.12,-295.99 253.62,-295.99 253.62,-315.24"/>
<text text-anchor="middle" x="223.88" y="-301.74" font-family="Helvetica,sans-Serif" font-size="10.00">std::string</text>
</a>
</g>
</g>
<!-- Node4&#45;&gt;Node3 -->
<g id="edge3_Node000003_Node000004" class="edge">
<title>Node4&#45;&gt;Node3</title>
<g id="a_edge3_Node000003_Node000004"><a xlink:title=" ">
<path fill="none" stroke="#9a32cd" stroke-dasharray="5,2" d="M238.83,-287.01C251.33,-271.68 271.05,-250.58 293,-238.62 344.6,-210.49 372.42,-241.16 422,-209.62 433.03,-202.6 428.58,-192.72 440,-186.37 495.45,-155.52 518.77,-176.9 582,-171.62 634.39,-167.23 694.42,-163.59 735.9,-161.28"/>
<polygon fill="#9a32cd" stroke="#9a32cd" points="236.38,-284.46 232.95,-294.49 241.88,-288.79 236.38,-284.46"/>
</a>
</g>
<text text-anchor="middle" x="502" y="-188.12" font-family="Helvetica,sans-Serif" font-size="10.00" fill="grey"> m_name</text>
</g>
<!-- Node6 -->
<g id="Node000006" class="node">
<title>Node6</title>
<g id="a_Node000006"><a xlink:title=" ">
<polygon fill="white" stroke="#666666" points="563.25,-141.74 440.75,-141.74 440.75,-77.49 563.25,-77.49 563.25,-141.74"/>
<text text-anchor="start" x="448.75" y="-128.24" font-family="Helvetica,sans-Serif" font-size="10.00">std::unordered_map</text>
<text text-anchor="start" x="448.75" y="-116.99" font-family="Helvetica,sans-Serif" font-size="10.00">&lt; std::string, std::</text>
<text text-anchor="start" x="448.75" y="-105.74" font-family="Helvetica,sans-Serif" font-size="10.00">chrono::time_point&lt; std</text>
<text text-anchor="start" x="448.75" y="-94.49" font-family="Helvetica,sans-Serif" font-size="10.00">::chrono::high_resolution</text>
<text text-anchor="middle" x="502" y="-83.24" font-family="Helvetica,sans-Serif" font-size="10.00">_clock &gt; &gt;</text>
</a>
</g>
</g>
<!-- Node4&#45;&gt;Node6 -->
<g id="edge6_Node000006_Node000004" class="edge">
<title>Node4&#45;&gt;Node6</title>
<g id="a_edge6_Node000006_Node000004"><a xlink:title=" ">
<path fill="none" stroke="#9a32cd" stroke-dasharray="5,2" d="M232.05,-284.94C241.78,-260.16 261.65,-219.35 293,-198.37 341.38,-165.99 371.08,-203.85 422,-175.62 432.46,-169.82 431.19,-163.7 440,-155.62 444.99,-151.04 450.41,-146.47 455.89,-142.07"/>
<polygon fill="#9a32cd" stroke="#9a32cd" points="228.79,-283.65 228.6,-294.24 235.36,-286.08 228.79,-283.65"/>
</a>
</g>
<text text-anchor="middle" x="357.5" y="-200.12" font-family="Helvetica,sans-Serif" font-size="10.00" fill="grey"> keys</text>
</g>
<!-- Node10 -->
<g id="Node000010" class="node">
<title>Node10</title>
<g id="a_Node000010"><a xlink:title=" ">
<polygon fill="white" stroke="#666666" points="564,-226.24 440,-226.24 440,-206.99 564,-206.99 564,-226.24"/>
<text text-anchor="middle" x="502" y="-212.74" font-family="Helvetica,sans-Serif" font-size="10.00">std::vector&lt; std::string &gt;</text>
</a>
</g>
</g>
<!-- Node4&#45;&gt;Node10 -->
<g id="edge11_Node000010_Node000004" class="edge">
<title>Node4&#45;&gt;Node10</title>
<g id="a_edge11_Node000010_Node000004"><a xlink:title=" ">
<path fill="none" stroke="#9a32cd" stroke-dasharray="5,2" d="M264.71,-292.78C320.16,-274.9 419.45,-242.9 469.84,-226.66"/>
<polygon fill="#9a32cd" stroke="#9a32cd" points="263.79,-289.4 255.34,-295.8 265.94,-296.06 263.79,-289.4"/>
</a>
</g>
<text text-anchor="middle" x="357.5" y="-283.5" font-family="Helvetica,sans-Serif" font-size="10.00" fill="grey"> elements</text>
</g>
<!-- Node13 -->
<g id="Node000013" class="node">
<title>Node13</title>
<g id="a_Node000013"><a xlink:href="../../dc/d9e/classArk_1_1internal_1_1Node.html" target="_top" xlink:title="A node of an Abstract Syntax Tree for ArkScript.">
<polygon fill="white" stroke="#666666" points="836.75,-408.24 739,-408.24 739,-388.99 836.75,-388.99 836.75,-408.24"/>
<text text-anchor="middle" x="787.88" y="-394.74" font-family="Helvetica,sans-Serif" font-size="10.00">Ark::internal::Node</text>
</a>
</g>
</g>
<!-- Node4&#45;&gt;Node13 -->
<g id="edge17_Node000013_Node000004" class="edge">
<title>Node4&#45;&gt;Node13</title>
<g id="a_edge17_Node000013_Node000004"><a xlink:title=" ">
<path fill="none" stroke="#9a32cd" stroke-dasharray="5,2" d="M237.49,-324.42C249.59,-340.68 269.47,-363.18 293,-373.62 444.07,-440.63 647.2,-421 738.67,-407.13"/>
<polygon fill="#9a32cd" stroke="#9a32cd" points="240.51,-322.63 231.87,-316.5 234.8,-326.68 240.51,-322.63"/>
</a>
</g>
<text text-anchor="middle" x="502" y="-445.19" font-family="Helvetica,sans-Serif" font-size="10.00" fill="grey"> m_after_comment</text>
<text text-anchor="middle" x="502" y="-433.94" font-family="Helvetica,sans-Serif" font-size="10.00" fill="grey">m_comment</text>
<text text-anchor="middle" x="502" y="-422.69" font-family="Helvetica,sans-Serif" font-size="10.00" fill="grey">m_filename</text>
</g>
<!-- Node15 -->
<g id="Node000015" class="node">
<title>Node15</title>
<g id="a_Node000015"><a xlink:href="../../da/d03/structArk_1_1internal_1_1Import.html" target="_top" xlink:title=" ">
<polygon fill="white" stroke="#666666" points="839,-314.24 736.75,-314.24 736.75,-294.99 839,-294.99 839,-314.24"/>
<text text-anchor="middle" x="787.88" y="-300.74" font-family="Helvetica,sans-Serif" font-size="10.00">Ark::internal::Import</text>
</a>
</g>
</g>
<!-- Node4&#45;&gt;Node15 -->
<g id="edge20_Node000015_Node000004" class="edge">
<title>Node4&#45;&gt;Node15</title>
<g id="a_edge20_Node000015_Node000004"><a xlink:title=" ">
<path fill="none" stroke="#9a32cd" stroke-dasharray="5,2" d="M265.4,-306.49C349.68,-308.15 549.98,-311.27 718,-307.62 723.98,-307.49 730.26,-307.29 736.48,-307.06"/>
<polygon fill="#9a32cd" stroke="#9a32cd" points="265.64,-302.99 255.57,-306.29 265.5,-309.99 265.64,-302.99"/>
</a>
</g>
<text text-anchor="middle" x="502" y="-311.07" font-family="Helvetica,sans-Serif" font-size="10.00" fill="grey"> prefix</text>
</g>
<!-- Node17 -->
<g id="Node000017" class="node">
<title>Node17</title>
<g id="a_Node000017"><a xlink:title=" ">
<polygon fill="white" stroke="#666666" points="1274,-302.49 1171.75,-302.49 1171.75,-260.74 1274,-260.74 1274,-302.49"/>
<text text-anchor="start" x="1179.75" y="-288.99" font-family="Helvetica,sans-Serif" font-size="10.00">std::unordered_map</text>
<text text-anchor="start" x="1179.75" y="-277.74" font-family="Helvetica,sans-Serif" font-size="10.00">&lt; std::string, Ark::</text>
<text text-anchor="middle" x="1222.88" y="-266.49" font-family="Helvetica,sans-Serif" font-size="10.00">internal::Package &gt;</text>
</a>
</g>
</g>
<!-- Node4&#45;&gt;Node17 -->
<g id="edge25_Node000017_Node000004" class="edge">
<title>Node4&#45;&gt;Node17</title>
<g id="a_edge25_Node000017_Node000004"><a xlink:title=" ">
<path fill="none" stroke="#9a32cd" stroke-dasharray="5,2" d="M264.93,-318.5C318.23,-334.47 415.67,-359.62 501,-359.62 501,-359.62 501,-359.62 979.62,-359.62 1053.85,-359.62 1134.99,-326.02 1181.99,-302.93"/>
<polygon fill="#9a32cd" stroke="#9a32cd" points="265.97,-315.16 255.38,-315.59 263.92,-321.85 265.97,-315.16"/>
</a>
</g>
<text text-anchor="middle" x="787.88" y="-361.37" font-family="Helvetica,sans-Serif" font-size="10.00" fill="grey"> keys</text>
</g>
<!-- Node5 -->
<g id="Node000005" class="node">
<title>Node5</title>
<g id="a_Node000005"><a xlink:title=" ">
<polygon fill="white" stroke="#666666" points="94,-320.87 0,-320.87 0,-290.37 94,-290.37 94,-320.87"/>
<text text-anchor="start" x="8" y="-307.37" font-family="Helvetica,sans-Serif" font-size="10.00">std::basic_string&lt;</text>
<text text-anchor="middle" x="47" y="-296.12" font-family="Helvetica,sans-Serif" font-size="10.00"> Char &gt;</text>
</a>
</g>
</g>
<!-- Node5&#45;&gt;Node4 -->
<g id="edge4_Node000004_Node000005" class="edge">
<title>Node5&#45;&gt;Node4</title>
<g id="a_edge4_Node000004_Node000005"><a xlink:title=" ">
<path fill="none" stroke="#63b8ff" d="M105.85,-305.62C135.35,-305.62 169.95,-305.62 193.83,-305.62"/>
<polygon fill="#63b8ff" stroke="#63b8ff" points="105.92,-302.12 95.92,-305.62 105.92,-309.12 105.92,-302.12"/>
</a>
</g>
</g>
<!-- Node6&#45;&gt;Node3 -->
<g id="edge5_Node000003_Node000006" class="edge">
<title>Node6&#45;&gt;Node3</title>
<g id="a_edge5_Node000003_Node000006"><a xlink:title=" ">
<path fill="none" stroke="#9a32cd" stroke-dasharray="5,2" d="M574.77,-112.56C616.94,-115.44 671.02,-121.13 718,-132.37 734.18,-136.24 751.69,-142.94 765,-148.61"/>
<polygon fill="#9a32cd" stroke="#9a32cd" points="575.2,-109.08 564.99,-111.94 574.75,-116.07 575.2,-109.08"/>
</a>
</g>
<text text-anchor="middle" x="650" y="-134.12" font-family="Helvetica,sans-Serif" font-size="10.00" fill="grey"> m_trace_starts</text>
</g>
<!-- Node7 -->
<g id="Node000007" class="node">
<title>Node7</title>
<g id="a_Node000007"><a xlink:title=" ">
<polygon fill="white" stroke="#666666" points="275,-120.87 172.75,-120.87 172.75,-90.37 275,-90.37 275,-120.87"/>
<text text-anchor="start" x="180.75" y="-107.37" font-family="Helvetica,sans-Serif" font-size="10.00">std::unordered_map</text>
<text text-anchor="middle" x="223.88" y="-96.12" font-family="Helvetica,sans-Serif" font-size="10.00">&lt; K, T &gt;</text>
</a>
</g>
</g>
<!-- Node7&#45;&gt;Node6 -->
<g id="edge7_Node000006_Node000007" class="edge">
<title>Node7&#45;&gt;Node6</title>
<g id="a_edge7_Node000006_Node000007"><a xlink:title=" ">
<path fill="none" stroke="orange" stroke-dasharray="5,2" d="M286.76,-97.09C288.86,-96.91 290.95,-96.75 293,-96.62 350.21,-92.85 364.86,-91.95 422,-96.62 427.96,-97.1 434.14,-97.79 440.31,-98.6"/>
<polygon fill="orange" stroke="orange" points="286.52,-93.59 276.9,-98.04 287.19,-100.56 286.52,-93.59"/>
</a>
</g>
<text text-anchor="start" x="293" y="-132.12" font-family="Helvetica,sans-Serif" font-size="10.00" fill="grey"> &lt; std::string, std</text>
<text text-anchor="start" x="293" y="-120.87" font-family="Helvetica,sans-Serif" font-size="10.00" fill="grey">::chrono::time_point</text>
<text text-anchor="start" x="293" y="-109.62" font-family="Helvetica,sans-Serif" font-size="10.00" fill="grey">&lt; std::chrono::high_resolution</text>
<text text-anchor="middle" x="357.5" y="-98.37" font-family="Helvetica,sans-Serif" font-size="10.00" fill="grey">_clock &gt; &gt;</text>
</g>
<!-- Node7&#45;&gt;Node17 -->
<g id="edge29_Node000017_Node000007" class="edge">
<title>Node7&#45;&gt;Node17</title>
<g id="a_edge29_Node000017_Node000007"><a xlink:title=" ">
<path fill="none" stroke="orange" stroke-dasharray="5,2" d="M233.98,-131.82C244.22,-157.09 263.38,-194.28 293,-213.62 348.32,-249.72 374.29,-228.78 440,-235.62 582.77,-250.47 1021.84,-272.11 1171.38,-279.24"/>
<polygon fill="orange" stroke="orange" points="237.29,-130.65 230.45,-122.56 230.75,-133.15 237.29,-130.65"/>
</a>
</g>
<text text-anchor="start" x="742.5" y="-275.02" font-family="Helvetica,sans-Serif" font-size="10.00" fill="grey"> &lt; std::string, Ark</text>
<text text-anchor="middle" x="787.88" y="-263.77" font-family="Helvetica,sans-Serif" font-size="10.00" fill="grey">::internal::Package &gt;</text>
</g>
<!-- Node8 -->
<g id="Node000008" class="node">
<title>Node8</title>
<g id="a_Node000008"><a xlink:title=" ">
<polygon fill="white" stroke="#666666" points="61.4,-125.24 32.6,-125.24 32.6,-105.99 61.4,-105.99 61.4,-125.24"/>
<text text-anchor="middle" x="47" y="-111.74" font-family="Helvetica,sans-Serif" font-size="10.00">K</text>
</a>
</g>
</g>
<!-- Node8&#45;&gt;Node7 -->
<g id="edge8_Node000007_Node000008" class="edge">
<title>Node8&#45;&gt;Node7</title>
<g id="a_edge8_Node000007_Node000008"><a xlink:title=" ">
<path fill="none" stroke="#9a32cd" stroke-dasharray="5,2" d="M73.1,-114.18C98.97,-112.7 140.01,-110.35 172.59,-108.49"/>
<polygon fill="#9a32cd" stroke="#9a32cd" points="73.02,-110.68 63.23,-114.74 73.42,-117.67 73.02,-110.68"/>
</a>
</g>
<text text-anchor="middle" x="133.38" y="-113.56" font-family="Helvetica,sans-Serif" font-size="10.00" fill="grey"> keys</text>
</g>
<!-- Node9 -->
<g id="Node000009" class="node">
<title>Node9</title>
<g id="a_Node000009"><a xlink:title=" ">
<polygon fill="white" stroke="#666666" points="61.4,-57.24 32.6,-57.24 32.6,-37.99 61.4,-37.99 61.4,-57.24"/>
<text text-anchor="middle" x="47" y="-43.74" font-family="Helvetica,sans-Serif" font-size="10.00">T</text>
</a>
</g>
</g>
<!-- Node9&#45;&gt;Node7 -->
<g id="edge9_Node000007_Node000009" class="edge">
<title>Node9&#45;&gt;Node7</title>
<g id="a_edge9_Node000007_Node000009"><a xlink:title=" ">
<path fill="none" stroke="#9a32cd" stroke-dasharray="5,2" d="M72.36,-55.7C99,-64.53 142.33,-78.9 175.67,-89.96"/>
<polygon fill="#9a32cd" stroke="#9a32cd" points="73.75,-52.47 63.16,-52.64 71.55,-59.11 73.75,-52.47"/>
</a>
</g>
<text text-anchor="middle" x="133.38" y="-83.56" font-family="Helvetica,sans-Serif" font-size="10.00" fill="grey"> elements</text>
</g>
<!-- Node11 -->
<g id="Node000011" class="node">
<title>Node11</title>
<g id="a_Node000011"><a xlink:title=" ">
<polygon fill="white" stroke="#666666" points="267.12,-59.24 180.62,-59.24 180.62,-39.99 267.12,-39.99 267.12,-59.24"/>
<text text-anchor="middle" x="223.88" y="-45.74" font-family="Helvetica,sans-Serif" font-size="10.00">std::vector&lt; T &gt;</text>
</a>
</g>
</g>
<!-- Node9&#45;&gt;Node11 -->
<g id="edge13_Node000011_Node000009" class="edge">
<title>Node9&#45;&gt;Node11</title>
<g id="a_edge13_Node000011_Node000009"><a xlink:title=" ">
<path fill="none" stroke="#9a32cd" stroke-dasharray="5,2" d="M73.25,-47.71C94.88,-47.82 126.87,-48.01 154.75,-48.37 163.03,-48.47 171.88,-48.61 180.36,-48.76"/>
<polygon fill="#9a32cd" stroke="#9a32cd" points="73.35,-44.21 63.33,-47.67 73.32,-51.21 73.35,-44.21"/>
</a>
</g>
<text text-anchor="middle" x="133.38" y="-50.12" font-family="Helvetica,sans-Serif" font-size="10.00" fill="grey"> elements</text>
</g>
<!-- Node16 -->
<g id="Node000016" class="node">
<title>Node16</title>
<g id="a_Node000016"><a xlink:title=" ">
<polygon fill="white" stroke="#666666" points="399.25,-21.24 315.75,-21.24 315.75,-1.99 399.25,-1.99 399.25,-21.24"/>
<text text-anchor="middle" x="357.5" y="-7.74" font-family="Helvetica,sans-Serif" font-size="10.00">std::stack&lt; T &gt;</text>
</a>
</g>
</g>
<!-- Node9&#45;&gt;Node16 -->
<g id="edge23_Node000016_Node000009" class="edge">
<title>Node9&#45;&gt;Node16</title>
<g id="a_edge23_Node000016_Node000009"><a xlink:title=" ">
<path fill="none" stroke="#9a32cd" stroke-dasharray="5,2" d="M72.44,-40.89C84.3,-37.85 98.81,-34.49 112,-32.37 183.08,-20.95 266.87,-15.56 315.61,-13.22"/>
<polygon fill="#9a32cd" stroke="#9a32cd" points="71.85,-37.42 63.08,-43.36 73.64,-44.19 71.85,-37.42"/>
</a>
</g>
<text text-anchor="middle" x="133.38" y="-34.12" font-family="Helvetica,sans-Serif" font-size="10.00" fill="grey"> elements</text>
</g>
<!-- Node10&#45;&gt;Node1 -->
<g id="edge30_Node000001_Node000010" class="edge">
<title>Node10&#45;&gt;Node1</title>
<g id="a_edge30_Node000001_Node000010"><a xlink:title=" ">
<path fill="none" stroke="#9a32cd" stroke-dasharray="5,2" d="M575.93,-215.24C722.65,-212.29 1063.98,-204.57 1350.5,-191.62 1356.2,-191.36 1362.12,-191.06 1368.05,-190.74"/>
<polygon fill="#9a32cd" stroke="#9a32cd" points="575.88,-211.74 565.95,-215.43 576.02,-218.73 575.88,-211.74"/>
</a>
</g>
<text text-anchor="middle" x="978.62" y="-208.62" font-family="Helvetica,sans-Serif" font-size="10.00" fill="grey"> m_imported</text>
</g>
<!-- Node10&#45;&gt;Node3 -->
<g id="edge10_Node000003_Node000010" class="edge">
<title>Node10&#45;&gt;Node3</title>
<g id="a_edge10_Node000003_Node000010"><a xlink:title=" ">
<path fill="none" stroke="#9a32cd" stroke-dasharray="5,2" d="M541.59,-203C554.34,-198.84 568.68,-194.54 582,-191.37 596.67,-187.87 679.85,-174.93 735.61,-166.4"/>
<polygon fill="#9a32cd" stroke="#9a32cd" points="540.68,-199.61 532.3,-206.1 542.89,-206.25 540.68,-199.61"/>
</a>
</g>
<text text-anchor="middle" x="650" y="-193.12" font-family="Helvetica,sans-Serif" font-size="10.00" fill="grey"> m_active_traces</text>
</g>
<!-- Node10&#45;&gt;Node15 -->
<g id="edge21_Node000015_Node000010" class="edge">
<title>Node10&#45;&gt;Node15</title>
<g id="a_edge21_Node000015_Node000010"><a xlink:title=" ">
<path fill="none" stroke="#9a32cd" stroke-dasharray="5,2" d="M546.42,-230.08C603.64,-247.81 703.02,-278.62 754.25,-294.5"/>
<polygon fill="#9a32cd" stroke="#9a32cd" points="547.6,-226.78 537.01,-227.16 545.52,-233.46 547.6,-226.78"/>
</a>
</g>
<text text-anchor="middle" x="650" y="-294.01" font-family="Helvetica,sans-Serif" font-size="10.00" fill="grey"> package</text>
<text text-anchor="middle" x="650" y="-282.76" font-family="Helvetica,sans-Serif" font-size="10.00" fill="grey">symbols</text>
</g>
<!-- Node11&#45;&gt;Node10 -->
<g id="edge12_Node000010_Node000011" class="edge">
<title>Node11&#45;&gt;Node10</title>
<g id="a_edge12_Node000010_Node000011"><a xlink:title=" ">
<path fill="none" stroke="orange" stroke-dasharray="5,2" d="M257.37,-65.56C263.94,-70 270.27,-75.36 275,-81.62 291.78,-103.83 272.2,-123.11 293,-141.62 336.5,-180.31 373.59,-132.02 422,-164.37 434.38,-172.64 428.51,-183.15 440,-192.62 447.11,-198.48 455.83,-203.03 464.43,-206.52"/>
<polygon fill="orange" stroke="orange" points="259.4,-62.69 249.03,-60.49 255.76,-68.67 259.4,-62.69"/>
</a>
</g>
<text text-anchor="middle" x="357.5" y="-166.12" font-family="Helvetica,sans-Serif" font-size="10.00" fill="grey"> &lt; std::string &gt;</text>
</g>
<!-- Node12 -->
<g id="Node000012" class="node">
<title>Node12</title>
<g id="a_Node000012"><a xlink:title=" ">
<polygon fill="white" stroke="#666666" points="718,-64.87 582,-64.87 582,-34.37 718,-34.37 718,-64.87"/>
<text text-anchor="start" x="590" y="-51.37" font-family="Helvetica,sans-Serif" font-size="10.00">std::vector&lt; std::filesystem</text>
<text text-anchor="middle" x="650" y="-40.12" font-family="Helvetica,sans-Serif" font-size="10.00">::path &gt;</text>
</a>
</g>
</g>
<!-- Node11&#45;&gt;Node12 -->
<g id="edge15_Node000012_Node000011" class="edge">
<title>Node11&#45;&gt;Node12</title>
<g id="a_edge15_Node000012_Node000011"><a xlink:title=" ">
<path fill="none" stroke="orange" stroke-dasharray="5,2" d="M278.84,-49.62C356.04,-49.62 497.9,-49.62 581.8,-49.62"/>
<polygon fill="orange" stroke="orange" points="279,-46.12 269,-49.62 279,-53.12 279,-46.12"/>
</a>
</g>
<text text-anchor="start" x="316.25" y="-62.62" font-family="Helvetica,sans-Serif" font-size="10.00" fill="grey"> &lt; std::filesystem::</text>
<text text-anchor="middle" x="357.5" y="-51.37" font-family="Helvetica,sans-Serif" font-size="10.00" fill="grey">path &gt;</text>
</g>
<!-- Node12&#45;&gt;Node1 -->
<g id="edge14_Node000001_Node000012" class="edge">
<title>Node12&#45;&gt;Node1</title>
<g id="a_edge14_Node000001_Node000012"><a xlink:title=" ">
<path fill="none" stroke="#9a32cd" stroke-dasharray="5,2" d="M729.52,-49.62C773.26,-49.62 828.72,-49.62 878.12,-49.62 878.12,-49.62 878.12,-49.62 1223.88,-49.62 1316.6,-49.62 1400.09,-145.35 1424.98,-176.76"/>
<polygon fill="#9a32cd" stroke="#9a32cd" points="729.6,-46.12 719.6,-49.62 729.6,-53.12 729.6,-46.12"/>
</a>
</g>
<text text-anchor="middle" x="978.62" y="-51.37" font-family="Helvetica,sans-Serif" font-size="10.00" fill="grey"> m_libenv</text>
</g>
<!-- Node13&#45;&gt;Node1 -->
<g id="edge16_Node000001_Node000013" class="edge">
<title>Node13&#45;&gt;Node1</title>
<g id="a_edge16_Node000001_Node000013"><a xlink:title=" ">
<path fill="none" stroke="#9a32cd" stroke-dasharray="5,2" d="M848.43,-401.84C921.71,-404.15 1049.26,-402.79 1153.75,-373.62 1250.24,-346.68 1271.18,-324.81 1350.5,-263.62 1378.79,-241.78 1408.54,-211.82 1423.2,-196.5"/>
<polygon fill="#9a32cd" stroke="#9a32cd" points="848.78,-398.35 838.66,-401.49 848.53,-405.34 848.78,-398.35"/>
</a>
</g>
<text text-anchor="middle" x="1105.25" y="-394.23" font-family="Helvetica,sans-Serif" font-size="10.00" fill="grey"> m_ast</text>
</g>
<!-- Node18 -->
<g id="Node000018" class="node">
<title>Node18</title>
<g id="a_Node000018"><a xlink:href="../../dd/d76/structArk_1_1internal_1_1Package.html" target="_top" xlink:title=" ">
<polygon fill="white" stroke="#666666" points="1035,-312.24 922.25,-312.24 922.25,-292.99 1035,-292.99 1035,-312.24"/>
<text text-anchor="middle" x="978.62" y="-298.74" font-family="Helvetica,sans-Serif" font-size="10.00">Ark::internal::Package</text>
</a>
</g>
</g>
<!-- Node13&#45;&gt;Node18 -->
<g id="edge27_Node000018_Node000013" class="edge">
<title>Node13&#45;&gt;Node18</title>
<g id="a_edge27_Node000018_Node000013"><a xlink:title=" ">
<path fill="none" stroke="#9a32cd" stroke-dasharray="5,2" d="M820.94,-383.73C827.2,-380.76 833.7,-377.62 839.75,-374.62 882.8,-353.23 932.64,-326.78 959.02,-312.64"/>
<polygon fill="#9a32cd" stroke="#9a32cd" points="819.68,-380.46 812.12,-387.89 822.66,-386.79 819.68,-380.46"/>
</a>
</g>
<text text-anchor="middle" x="879.12" y="-366.88" font-family="Helvetica,sans-Serif" font-size="10.00" fill="grey"> ast</text>
</g>
<!-- Node14 -->
<g id="Node000014" class="node">
<title>Node14</title>
<g id="a_Node000014"><a xlink:title=" ">
<polygon fill="white" stroke="#666666" points="1038.75,-131.87 918.5,-131.87 918.5,-101.37 1038.75,-101.37 1038.75,-131.87"/>
<text text-anchor="start" x="926.5" y="-118.37" font-family="Helvetica,sans-Serif" font-size="10.00">std::stack&lt; Ark::internal</text>
<text text-anchor="middle" x="978.62" y="-107.12" font-family="Helvetica,sans-Serif" font-size="10.00">::Import &gt;</text>
</a>
</g>
</g>
<!-- Node14&#45;&gt;Node1 -->
<g id="edge18_Node000001_Node000014" class="edge">
<title>Node14&#45;&gt;Node1</title>
<g id="a_edge18_Node000001_Node000014"><a xlink:title=" ">
<path fill="none" stroke="#9a32cd" stroke-dasharray="5,2" d="M1050.23,-123.77C1110.02,-130.23 1197.88,-140.65 1274,-153.37 1313.24,-159.92 1357.53,-169.39 1389.29,-176.54"/>
<polygon fill="#9a32cd" stroke="#9a32cd" points="1050.86,-120.32 1040.54,-122.74 1050.11,-127.28 1050.86,-120.32"/>
</a>
</g>
<text text-anchor="middle" x="1222.88" y="-155.12" font-family="Helvetica,sans-Serif" font-size="10.00" fill="grey"> m_imports</text>
</g>
<!-- Node15&#45;&gt;Node14 -->
<g id="edge19_Node000014_Node000015" class="edge">
<title>Node15&#45;&gt;Node14</title>
<g id="a_edge19_Node000014_Node000015"><a xlink:title=" ">
<path fill="none" stroke="#9a32cd" stroke-dasharray="5,2" d="M827.52,-289.52C831.83,-287.16 836,-284.52 839.75,-281.62 883.92,-247.39 882.5,-226.35 918.5,-183.62 933.59,-165.7 951.45,-145.61 963.56,-132.14"/>
<polygon fill="#9a32cd" stroke="#9a32cd" points="826.16,-286.29 818.76,-293.86 829.27,-292.56 826.16,-286.29"/>
</a>
</g>
<text text-anchor="middle" x="879.12" y="-267.81" font-family="Helvetica,sans-Serif" font-size="10.00" fill="grey"> elements</text>
</g>
<!-- Node15&#45;&gt;Node18 -->
<g id="edge28_Node000018_Node000015" class="edge">
<title>Node15&#45;&gt;Node18</title>
<g id="a_edge28_Node000018_Node000015"><a xlink:title=" ">
<path fill="none" stroke="#9a32cd" stroke-dasharray="5,2" d="M850.62,-300.62C853.03,-300.52 855.41,-300.44 857.75,-300.37 878.66,-299.72 901.63,-299.93 921.81,-300.42"/>
<polygon fill="#9a32cd" stroke="#9a32cd" points="850.6,-297.12 840.78,-301.08 850.93,-304.11 850.6,-297.12"/>
</a>
</g>
<text text-anchor="middle" x="879.12" y="-302.12" font-family="Helvetica,sans-Serif" font-size="10.00" fill="grey"> import</text>
</g>
<!-- Node16&#45;&gt;Node14 -->
<g id="edge22_Node000014_Node000016" class="edge">
<title>Node16&#45;&gt;Node14</title>
<g id="a_edge22_Node000014_Node000016"><a xlink:title=" ">
<path fill="none" stroke="orange" stroke-dasharray="5,2" d="M410.91,-6.08C481.44,0.03 610.47,6.47 718,-14.37 805.51,-31.32 901.35,-76.73 948.33,-100.93"/>
<polygon fill="orange" stroke="orange" points="410.84,-2.57 401.2,-6.95 411.47,-9.54 410.84,-2.57"/>
</a>
</g>
<text text-anchor="middle" x="650" y="-16.12" font-family="Helvetica,sans-Serif" font-size="10.00" fill="grey"> &lt; Ark::internal::Import &gt;</text>
</g>
<!-- Node17&#45;&gt;Node1 -->
<g id="edge24_Node000001_Node000017" class="edge">
<title>Node17&#45;&gt;Node1</title>
<g id="a_edge24_Node000001_Node000017"><a xlink:title=" ">
<path fill="none" stroke="#9a32cd" stroke-dasharray="5,2" d="M1280.98,-255.61C1323.74,-236.14 1379.93,-210.56 1410.45,-196.66"/>
<polygon fill="#9a32cd" stroke="#9a32cd" points="1279.72,-252.34 1272.07,-259.67 1282.62,-258.71 1279.72,-252.34"/>
</a>
</g>
<text text-anchor="middle" x="1321.25" y="-249.93" font-family="Helvetica,sans-Serif" font-size="10.00" fill="grey"> m_packages</text>
</g>
<!-- Node18&#45;&gt;Node17 -->
<g id="edge26_Node000017_Node000018" class="edge">
<title>Node18&#45;&gt;Node17</title>
<g id="a_edge26_Node000017_Node000018"><a xlink:title=" ">
<path fill="none" stroke="#9a32cd" stroke-dasharray="5,2" d="M1046.6,-296.81C1086.11,-293.39 1135.3,-289.12 1171.5,-285.98"/>
<polygon fill="#9a32cd" stroke="#9a32cd" points="1046.37,-293.32 1036.71,-297.67 1046.97,-300.29 1046.37,-293.32"/>
</a>
</g>
<text text-anchor="middle" x="1105.25" y="-297.57" font-family="Helvetica,sans-Serif" font-size="10.00" fill="grey"> elements</text>
</g>
</g>
</svg>
