<?xml version="1.0" encoding="UTF-8" standalone="no"?>
<!DOCTYPE svg PUBLIC "-//W3C//DTD SVG 1.1//EN"
 "http://www.w3.org/Graphics/SVG/1.1/DTD/svg11.dtd">
<!-- Generated by graphviz version 2.43.0 (0)
 -->
<!-- Title: Ark::VM Pages: 1 -->
<svg width="1325pt" height="688pt"
 viewBox="0.00 0.00 1325.00 688.00" xmlns="http://www.w3.org/2000/svg" xmlns:xlink="http://www.w3.org/1999/xlink">
<g id="graph0" class="graph" transform="scale(1 1) rotate(0) translate(4 684)">
<title>Ark::VM</title>
<polygon fill="white" stroke="transparent" points="-4,4 -4,-684 1321,-684 1321,4 -4,4"/>
<!-- Node1 -->
<g id="node1" class="node">
<title>Node1</title>
<g id="a_node1"><a xlink:title="The ArkScript virtual machine, executing ArkScript bytecode.">
<polygon fill="#bfbfbf" stroke="black" points="1262,-364 1262,-383 1317,-383 1317,-364 1262,-364"/>
<text text-anchor="middle" x="1289.5" y="-371" font-family="Helvetica,sans-Serif" font-size="10.00">Ark::VM</text>
</a>
</g>
</g>
<!-- Node2 -->
<g id="node2" class="node">
<title>Node2</title>
<g id="a_node2"><a xlink:title=" ">
<polygon fill="white" stroke="#bfbfbf" points="749.5,-588 749.5,-629 909.5,-629 909.5,-588 749.5,-588"/>
<text text-anchor="start" x="757.5" y="-617" font-family="Helvetica,sans-Serif" font-size="10.00">std::vector&lt; std::unique</text>
<text text-anchor="start" x="757.5" y="-606" font-family="Helvetica,sans-Serif" font-size="10.00">_ptr&lt; Ark::internal::Execution</text>
<text text-anchor="middle" x="829.5" y="-595" font-family="Helvetica,sans-Serif" font-size="10.00">Context &gt; &gt;</text>
</a>
</g>
</g>
<!-- Node2&#45;&gt;Node1 -->
<g id="edge1" class="edge">
<title>Node2&#45;&gt;Node1</title>
<path fill="none" stroke="#9a32cd" stroke-dasharray="5,2" d="M898.62,-584.46C983.58,-552.78 1131.36,-492 1244,-415.5 1257.89,-406.07 1271.58,-392.28 1280.03,-383.11"/>
<polygon fill="#9a32cd" stroke="#9a32cd" points="897.24,-581.23 889.08,-587.99 899.67,-587.8 897.24,-581.23"/>
<text text-anchor="middle" x="1119.5" y="-515.5" font-family="Helvetica,sans-Serif" font-size="10.00"> m_execution_contexts</text>
</g>
<!-- Node3 -->
<g id="node3" class="node">
<title>Node3</title>
<g id="a_node3"><a xlink:title=" ">
<polygon fill="white" stroke="#bfbfbf" points="435.5,-649.5 435.5,-679.5 598.5,-679.5 598.5,-649.5 435.5,-649.5"/>
<text text-anchor="start" x="443.5" y="-667.5" font-family="Helvetica,sans-Serif" font-size="10.00">std::unique_ptr&lt; Ark</text>
<text text-anchor="middle" x="517" y="-656.5" font-family="Helvetica,sans-Serif" font-size="10.00">::internal::ExecutionContext &gt;</text>
</a>
</g>
</g>
<!-- Node3&#45;&gt;Node2 -->
<g id="edge2" class="edge">
<title>Node3&#45;&gt;Node2</title>
<path fill="none" stroke="#9a32cd" stroke-dasharray="5,2" d="M608.73,-648.14C653.33,-640.09 706.57,-630.49 749.48,-622.75"/>
<polygon fill="#9a32cd" stroke="#9a32cd" points="607.99,-644.71 598.77,-649.93 609.23,-651.6 607.99,-644.71"/>
<text text-anchor="middle" x="667" y="-647.5" font-family="Helvetica,sans-Serif" font-size="10.00"> elements</text>
</g>
<!-- Node4 -->
<g id="node4" class="node">
<title>Node4</title>
<g id="a_node4"><a xlink:title=" ">
<polygon fill="white" stroke="#bfbfbf" points="114,-565 114,-584 232,-584 232,-565 114,-565"/>
<text text-anchor="middle" x="173" y="-572" font-family="Helvetica,sans-Serif" font-size="10.00">std::unique_ptr&lt; T &gt;</text>
</a>
</g>
</g>
<!-- Node4&#45;&gt;Node3 -->
<g id="edge3" class="edge">
<title>Node4&#45;&gt;Node3</title>
<path fill="none" stroke="orange" stroke-dasharray="5,2" d="M220.15,-586.64C282.03,-602.93 391.85,-631.83 458.88,-649.47"/>
<polygon fill="orange" stroke="orange" points="220.84,-583.21 210.28,-584.05 219.06,-589.98 220.84,-583.21"/>
<text text-anchor="start" x="266" y="-648.5" font-family="Helvetica,sans-Serif" font-size="10.00"> &lt; Ark::internal::Execution</text>
<text text-anchor="middle" x="330" y="-637.5" font-family="Helvetica,sans-Serif" font-size="10.00">Context &gt;</text>
</g>
<!-- Node9 -->
<g id="node9" class="node">
<title>Node9</title>
<g id="a_node9"><a xlink:title=" ">
<polygon fill="white" stroke="#bfbfbf" points="458.5,-541.5 458.5,-571.5 575.5,-571.5 575.5,-541.5 458.5,-541.5"/>
<text text-anchor="start" x="466.5" y="-559.5" font-family="Helvetica,sans-Serif" font-size="10.00">std::unique_ptr&lt; Ark</text>
<text text-anchor="middle" x="517" y="-548.5" font-family="Helvetica,sans-Serif" font-size="10.00">::internal::Future &gt;</text>
</a>
</g>
</g>
<!-- Node4&#45;&gt;Node9 -->
<g id="edge10" class="edge">
<title>Node4&#45;&gt;Node9</title>
<path fill="none" stroke="orange" stroke-dasharray="5,2" d="M242.29,-570.91C305.56,-567.58 398.62,-562.68 458.27,-559.54"/>
<polygon fill="orange" stroke="orange" points="241.82,-567.43 232.02,-571.45 242.19,-574.42 241.82,-567.43"/>
<text text-anchor="middle" x="330" y="-572.5" font-family="Helvetica,sans-Serif" font-size="10.00"> &lt; Ark::internal::Future &gt;</text>
</g>
<!-- Node5 -->
<g id="node5" class="node">
<title>Node5</title>
<g id="a_node5"><a xlink:title=" ">
<polygon fill="white" stroke="#bfbfbf" points="0,-392 0,-411 29,-411 29,-392 0,-392"/>
<text text-anchor="middle" x="14.5" y="-399" font-family="Helvetica,sans-Serif" font-size="10.00">T</text>
</a>
</g>
</g>
<!-- Node5&#45;&gt;Node4 -->
<g id="edge4" class="edge">
<title>Node5&#45;&gt;Node4</title>
<path fill="none" stroke="#9a32cd" stroke-dasharray="5,2" d="M26.05,-419.95C31.78,-429.43 39.27,-440.95 47,-450.5 84.69,-497.07 137.94,-545.02 160.83,-564.93"/>
<polygon fill="#9a32cd" stroke="#9a32cd" points="29.05,-418.15 20.95,-411.32 23.02,-421.71 29.05,-418.15"/>
<text text-anchor="middle" x="71.5" y="-506.5" font-family="Helvetica,sans-Serif" font-size="10.00"> ptr</text>
</g>
<!-- Node6 -->
<g id="node6" class="node">
<title>Node6</title>
<g id="a_node6"><a xlink:title=" ">
<polygon fill="white" stroke="#bfbfbf" points="124.5,-360 124.5,-379 221.5,-379 221.5,-360 124.5,-360"/>
<text text-anchor="middle" x="173" y="-367" font-family="Helvetica,sans-Serif" font-size="10.00">std::vector&lt; T &gt;</text>
</a>
</g>
</g>
<!-- Node5&#45;&gt;Node6 -->
<g id="edge6" class="edge">
<title>Node5&#45;&gt;Node6</title>
<path fill="none" stroke="#9a32cd" stroke-dasharray="5,2" d="M38.93,-396.71C61.72,-392.05 96.99,-384.84 125.49,-379.01"/>
<polygon fill="#9a32cd" stroke="#9a32cd" points="38.21,-393.28 29.11,-398.72 39.61,-400.14 38.21,-393.28"/>
<text text-anchor="middle" x="71.5" y="-397.5" font-family="Helvetica,sans-Serif" font-size="10.00"> elements</text>
</g>
<!-- Node17 -->
<g id="node17" class="node">
<title>Node17</title>
<g id="a_node17"><a xlink:title=" ">
<polygon fill="white" stroke="#bfbfbf" points="460,-63.5 460,-93.5 574,-93.5 574,-63.5 460,-63.5"/>
<text text-anchor="start" x="468" y="-81.5" font-family="Helvetica,sans-Serif" font-size="10.00">std::unordered_map</text>
<text text-anchor="middle" x="517" y="-70.5" font-family="Helvetica,sans-Serif" font-size="10.00">&lt; K, T &gt;</text>
</a>
</g>
</g>
<!-- Node5&#45;&gt;Node17 -->
<g id="edge24" class="edge">
<title>Node5&#45;&gt;Node17</title>
<path fill="none" stroke="#9a32cd" stroke-dasharray="5,2" d="M26.48,-383.36C56.15,-335.98 142.93,-207.73 250,-143.5 315.43,-104.25 403.37,-88.66 459.88,-82.5"/>
<polygon fill="#9a32cd" stroke="#9a32cd" points="23.45,-381.61 21.17,-391.95 29.41,-385.28 23.45,-381.61"/>
<text text-anchor="middle" x="173" y="-264.5" font-family="Helvetica,sans-Serif" font-size="10.00"> elements</text>
</g>
<!-- Node23 -->
<g id="node23" class="node">
<title>Node23</title>
<g id="a_node23"><a xlink:title=" ">
<polygon fill="white" stroke="#bfbfbf" points="114,-460 114,-479 232,-479 232,-460 114,-460"/>
<text text-anchor="middle" x="173" y="-467" font-family="Helvetica,sans-Serif" font-size="10.00">std::shared_ptr&lt; T &gt;</text>
</a>
</g>
</g>
<!-- Node5&#45;&gt;Node23 -->
<g id="edge36" class="edge">
<title>Node5&#45;&gt;Node23</title>
<path fill="none" stroke="#9a32cd" stroke-dasharray="5,2" d="M38.34,-411.42C68.25,-424.42 120.32,-447.05 149.87,-459.88"/>
<polygon fill="#9a32cd" stroke="#9a32cd" points="39.68,-408.19 29.11,-407.42 36.89,-414.61 39.68,-408.19"/>
<text text-anchor="middle" x="71.5" y="-438.5" font-family="Helvetica,sans-Serif" font-size="10.00"> ptr</text>
</g>
<!-- Node6&#45;&gt;Node2 -->
<g id="edge5" class="edge">
<title>Node6&#45;&gt;Node2</title>
<path fill="none" stroke="orange" stroke-dasharray="5,2" d="M198.26,-384.49C256.99,-420.87 402.53,-511.57 410,-521.5 426.74,-543.75 406.24,-564.14 428,-581.5 475.87,-619.69 646.78,-618.17 749.22,-613.46"/>
<polygon fill="orange" stroke="orange" points="199.96,-381.43 189.62,-379.14 196.28,-387.38 199.96,-381.43"/>
<text text-anchor="start" x="428" y="-628.5" font-family="Helvetica,sans-Serif" font-size="10.00"> &lt; std::unique_ptr&lt;</text>
<text text-anchor="middle" x="517" y="-617.5" font-family="Helvetica,sans-Serif" font-size="10.00"> Ark::internal::ExecutionContext &gt; &gt;</text>
</g>
<!-- Node8 -->
<g id="node8" class="node">
<title>Node8</title>
<g id="a_node8"><a xlink:title=" ">
<polygon fill="white" stroke="#bfbfbf" points="746.5,-436.5 746.5,-466.5 912.5,-466.5 912.5,-436.5 746.5,-436.5"/>
<text text-anchor="start" x="754.5" y="-454.5" font-family="Helvetica,sans-Serif" font-size="10.00">std::vector&lt; std::unique</text>
<text text-anchor="middle" x="829.5" y="-443.5" font-family="Helvetica,sans-Serif" font-size="10.00">_ptr&lt; Ark::internal::Future &gt; &gt;</text>
</a>
</g>
</g>
<!-- Node6&#45;&gt;Node8 -->
<g id="edge11" class="edge">
<title>Node6&#45;&gt;Node8</title>
<path fill="none" stroke="orange" stroke-dasharray="5,2" d="M216.42,-381.69C227.3,-384.54 239.03,-387.36 250,-389.5 424.97,-423.68 633.66,-440.2 746.4,-447.16"/>
<polygon fill="orange" stroke="orange" points="217.27,-378.3 206.71,-379.09 215.46,-385.06 217.27,-378.3"/>
<text text-anchor="start" x="455.5" y="-449.5" font-family="Helvetica,sans-Serif" font-size="10.00"> &lt; std::unique_ptr&lt;</text>
<text text-anchor="middle" x="517" y="-438.5" font-family="Helvetica,sans-Serif" font-size="10.00"> Ark::internal::Future &gt; &gt;</text>
</g>
<!-- Node12 -->
<g id="node12" class="node">
<title>Node12</title>
<g id="a_node12"><a xlink:title=" ">
<polygon fill="white" stroke="#bfbfbf" points="757,-330 757,-349 902,-349 902,-330 757,-330"/>
<text text-anchor="middle" x="829.5" y="-337" font-family="Helvetica,sans-Serif" font-size="10.00">std::vector&lt; bytecode_t &gt;</text>
</a>
</g>
</g>
<!-- Node6&#45;&gt;Node12 -->
<g id="edge17" class="edge">
<title>Node6&#45;&gt;Node12</title>
<path fill="none" stroke="orange" stroke-dasharray="5,2" d="M231.65,-366.86C351.29,-361.37 626.24,-348.77 756.95,-342.78"/>
<polygon fill="orange" stroke="orange" points="231.43,-363.36 221.6,-367.32 231.75,-370.36 231.43,-363.36"/>
<text text-anchor="middle" x="517" y="-359.5" font-family="Helvetica,sans-Serif" font-size="10.00"> &lt; bytecode_t &gt;</text>
</g>
<!-- Node13 -->
<g id="node13" class="node">
<title>Node13</title>
<g id="a_node13"><a xlink:title=" ">
<polygon fill="white" stroke="#bfbfbf" points="454.5,-291 454.5,-310 579.5,-310 579.5,-291 454.5,-291"/>
<text text-anchor="middle" x="517" y="-298" font-family="Helvetica,sans-Serif" font-size="10.00">std::vector&lt; uint8_t &gt;</text>
</a>
</g>
</g>
<!-- Node6&#45;&gt;Node13 -->
<g id="edge16" class="edge">
<title>Node6&#45;&gt;Node13</title>
<path fill="none" stroke="orange" stroke-dasharray="5,2" d="M193.66,-353.3C208.25,-342.26 229.15,-328.43 250,-321.5 317.36,-299.1 399.4,-295.99 454.4,-297.11"/>
<polygon fill="orange" stroke="orange" points="191.16,-350.8 185.45,-359.72 195.48,-356.32 191.16,-350.8"/>
<text text-anchor="middle" x="330" y="-324.5" font-family="Helvetica,sans-Serif" font-size="10.00"> &lt; uint8_t &gt;</text>
</g>
<!-- Node19 -->
<g id="node19" class="node">
<title>Node19</title>
<g id="a_node19"><a xlink:title=" ">
<polygon fill="white" stroke="#bfbfbf" points="759.5,-196 759.5,-215 899.5,-215 899.5,-196 759.5,-196"/>
<text text-anchor="middle" x="829.5" y="-203" font-family="Helvetica,sans-Serif" font-size="10.00">std::vector&lt; Ark::Value &gt;</text>
</a>
</g>
</g>
<!-- Node6&#45;&gt;Node19 -->
<g id="edge27" class="edge">
<title>Node6&#45;&gt;Node19</title>
<path fill="none" stroke="orange" stroke-dasharray="5,2" d="M187.72,-351.95C201.81,-334.88 225.16,-309.15 250,-292.5 321.02,-244.89 345.22,-240.9 428,-219.5 541.16,-190.24 678.28,-193.36 759.18,-198.95"/>
<polygon fill="orange" stroke="orange" points="184.78,-350.02 181.23,-360 190.23,-354.41 184.78,-350.02"/>
<text text-anchor="middle" x="517" y="-222.5" font-family="Helvetica,sans-Serif" font-size="10.00"> &lt; Ark::Value &gt;</text>
</g>
<!-- Node20 -->
<g id="node20" class="node">
<title>Node20</title>
<g id="a_node20"><a xlink:title=" ">
<polygon fill="white" stroke="#bfbfbf" points="759.5,-69 759.5,-88 899.5,-88 899.5,-69 759.5,-69"/>
<text text-anchor="middle" x="829.5" y="-76" font-family="Helvetica,sans-Serif" font-size="10.00">std::vector&lt; std::string &gt;</text>
</a>
</g>
</g>
<!-- Node6&#45;&gt;Node20 -->
<g id="edge32" class="edge">
<title>Node6&#45;&gt;Node20</title>
<path fill="none" stroke="orange" stroke-dasharray="5,2" d="M178.74,-350.1C187.46,-318.44 209.01,-255.7 250,-220.5 376.45,-111.9 453.37,-169.49 606,-102.5 614.38,-98.82 615.22,-95.1 624,-92.5 667.85,-79.52 719.2,-76.05 759.48,-75.8"/>
<polygon fill="orange" stroke="orange" points="175.32,-349.34 176.18,-359.9 182.09,-351.11 175.32,-349.34"/>
<text text-anchor="middle" x="517" y="-147.5" font-family="Helvetica,sans-Serif" font-size="10.00"> &lt; std::string &gt;</text>
</g>
<!-- Node21 -->
<g id="node21" class="node">
<title>Node21</title>
<g id="a_node21"><a xlink:title=" ">
<polygon fill="white" stroke="#bfbfbf" points="728,-381.5 728,-411.5 931,-411.5 931,-381.5 728,-381.5"/>
<text text-anchor="start" x="736" y="-399.5" font-family="Helvetica,sans-Serif" font-size="10.00">std::vector&lt; std::shared</text>
<text text-anchor="middle" x="829.5" y="-388.5" font-family="Helvetica,sans-Serif" font-size="10.00">_ptr&lt; Ark::internal::SharedLibrary &gt; &gt;</text>
</a>
</g>
</g>
<!-- Node6&#45;&gt;Node21 -->
<g id="edge37" class="edge">
<title>Node6&#45;&gt;Node21</title>
<path fill="none" stroke="orange" stroke-dasharray="5,2" d="M231.62,-371.88C342.95,-376.47 588.86,-386.61 727.79,-392.35"/>
<polygon fill="orange" stroke="orange" points="231.73,-368.38 221.6,-371.46 231.44,-375.37 231.73,-368.38"/>
<text text-anchor="start" x="437" y="-400.5" font-family="Helvetica,sans-Serif" font-size="10.00"> &lt; std::shared_ptr&lt;</text>
<text text-anchor="middle" x="517" y="-389.5" font-family="Helvetica,sans-Serif" font-size="10.00"> Ark::internal::SharedLibrary &gt; &gt;</text>
</g>
<!-- Node7 -->
<g id="node7" class="node">
<title>Node7</title>
<g id="a_node7"><a xlink:href="../../d3/d90/classArk_1_1Value.html" target="_top" xlink:title=" ">
<polygon fill="white" stroke="black" points="484,-240 484,-259 550,-259 550,-240 484,-240"/>
<text text-anchor="middle" x="517" y="-247" font-family="Helvetica,sans-Serif" font-size="10.00">Ark::Value</text>
</a>
</g>
</g>
<!-- Node7&#45;&gt;Node1 -->
<g id="edge7" class="edge">
<title>Node7&#45;&gt;Node1</title>
<path fill="none" stroke="#9a32cd" stroke-dasharray="5,2" d="M560.4,-251.31C668.51,-256.12 952.46,-270.17 1045,-288.5 1130.21,-305.38 1226.11,-345.49 1267.56,-363.93"/>
<polygon fill="#9a32cd" stroke="#9a32cd" points="560.34,-247.8 550.2,-250.86 560.03,-254.79 560.34,-247.8"/>
<text text-anchor="middle" x="997" y="-302.5" font-family="Helvetica,sans-Serif" font-size="10.00"> m_no_value</text>
<text text-anchor="middle" x="997" y="-291.5" font-family="Helvetica,sans-Serif" font-size="10.00">m_undefined_value</text>
</g>
<!-- Node14 -->
<g id="node14" class="node">
<title>Node14</title>
<g id="a_node14"><a xlink:title=" ">
<polygon fill="white" stroke="#bfbfbf" points="772.5,-130 772.5,-171 886.5,-171 886.5,-130 772.5,-130"/>
<text text-anchor="start" x="780.5" y="-159" font-family="Helvetica,sans-Serif" font-size="10.00">std::unordered_map</text>
<text text-anchor="start" x="780.5" y="-148" font-family="Helvetica,sans-Serif" font-size="10.00">&lt; std::string, Ark::</text>
<text text-anchor="middle" x="829.5" y="-137" font-family="Helvetica,sans-Serif" font-size="10.00">Value &gt;</text>
</a>
</g>
</g>
<!-- Node7&#45;&gt;Node14 -->
<g id="edge19" class="edge">
<title>Node7&#45;&gt;Node14</title>
<path fill="none" stroke="#9a32cd" stroke-dasharray="5,2" d="M556.48,-236.63C576.58,-229.95 601.59,-221.71 624,-214.5 674.11,-198.39 731.31,-180.53 772.44,-167.79"/>
<polygon fill="#9a32cd" stroke="#9a32cd" points="555.14,-233.39 546.75,-239.87 557.35,-240.03 555.14,-233.39"/>
<text text-anchor="middle" x="667" y="-217.5" font-family="Helvetica,sans-Serif" font-size="10.00"> elements</text>
</g>
<!-- Node7&#45;&gt;Node19 -->
<g id="edge26" class="edge">
<title>Node7&#45;&gt;Node19</title>
<path fill="none" stroke="#9a32cd" stroke-dasharray="5,2" d="M560.46,-245.49C599.43,-241.61 658.74,-235.19 710,-227.5 733.59,-223.96 759.67,-219.21 781.34,-215.03"/>
<polygon fill="#9a32cd" stroke="#9a32cd" points="559.63,-242.05 550.02,-246.52 560.32,-249.02 559.63,-242.05"/>
<text text-anchor="middle" x="667" y="-241.5" font-family="Helvetica,sans-Serif" font-size="10.00"> elements</text>
</g>
<!-- Node8&#45;&gt;Node1 -->
<g id="edge8" class="edge">
<title>Node8&#45;&gt;Node1</title>
<path fill="none" stroke="#9a32cd" stroke-dasharray="5,2" d="M922.71,-440.95C992.37,-432.76 1090.31,-420.76 1176,-408.5 1206.31,-404.16 1215.01,-407.35 1244,-397.5 1254.47,-393.94 1265.42,-388.07 1273.83,-383.03"/>
<polygon fill="#9a32cd" stroke="#9a32cd" points="922.16,-437.49 912.64,-442.13 922.98,-444.44 922.16,-437.49"/>
<text text-anchor="middle" x="1119.5" y="-425.5" font-family="Helvetica,sans-Serif" font-size="10.00"> m_futures</text>
</g>
<!-- Node9&#45;&gt;Node8 -->
<g id="edge9" class="edge">
<title>Node9&#45;&gt;Node8</title>
<path fill="none" stroke="#9a32cd" stroke-dasharray="5,2" d="M585.99,-544.68C623.24,-537.18 669.87,-526.13 710,-511.5 743.37,-499.34 779.47,-480.1 802.95,-466.69"/>
<polygon fill="#9a32cd" stroke="#9a32cd" points="584.88,-541.33 575.75,-546.7 586.24,-548.2 584.88,-541.33"/>
<text text-anchor="middle" x="667" y="-538.5" font-family="Helvetica,sans-Serif" font-size="10.00"> elements</text>
</g>
<!-- Node10 -->
<g id="node10" class="node">
<title>Node10</title>
<g id="a_node10"><a xlink:title=" ">
<polygon fill="white" stroke="#bfbfbf" points="1085,-341 1085,-360 1154,-360 1154,-341 1085,-341"/>
<text text-anchor="middle" x="1119.5" y="-348" font-family="Helvetica,sans-Serif" font-size="10.00">std::mutex</text>
</a>
</g>
</g>
<!-- Node10&#45;&gt;Node1 -->
<g id="edge12" class="edge">
<title>Node10&#45;&gt;Node1</title>
<path fill="none" stroke="#9a32cd" stroke-dasharray="5,2" d="M1164.19,-356.48C1195.13,-360.72 1235.64,-366.26 1261.87,-369.85"/>
<polygon fill="#9a32cd" stroke="#9a32cd" points="1164.48,-352.99 1154.09,-355.1 1163.53,-359.92 1164.48,-352.99"/>
<text text-anchor="middle" x="1219" y="-369.5" font-family="Helvetica,sans-Serif" font-size="10.00"> m_mutex</text>
</g>
<!-- Node11 -->
<g id="node11" class="node">
<title>Node11</title>
<g id="a_node11"><a xlink:href="../../d1/d37/classArk_1_1State.html" target="_top" xlink:title="Ark state to handle the dirty job of loading and compiling ArkScript code.">
<polygon fill="white" stroke="black" points="1087,-196 1087,-215 1152,-215 1152,-196 1087,-196"/>
<text text-anchor="middle" x="1119.5" y="-203" font-family="Helvetica,sans-Serif" font-size="10.00">Ark::State</text>
</a>
</g>
</g>
<!-- Node11&#45;&gt;Node1 -->
<g id="edge13" class="edge">
<title>Node11&#45;&gt;Node1</title>
<path fill="none" stroke="#9a32cd" stroke-dasharray="5,2" d="M1162.18,-203.31C1188.66,-204.16 1221.97,-209.73 1244,-229.5 1284.31,-265.68 1288.53,-337.5 1288.66,-363.67"/>
<polygon fill="#9a32cd" stroke="#9a32cd" points="1162.08,-199.8 1152.04,-203.19 1162,-206.8 1162.08,-199.8"/>
<text text-anchor="middle" x="1219" y="-232.5" font-family="Helvetica,sans-Serif" font-size="10.00"> m_state</text>
</g>
<!-- Node12&#45;&gt;Node11 -->
<g id="edge14" class="edge">
<title>Node12&#45;&gt;Node11</title>
<path fill="none" stroke="#9a32cd" stroke-dasharray="5,2" d="M912.48,-345.68C954.83,-345.15 1005.72,-338.41 1045,-314.5 1084.19,-290.65 1107.15,-237.06 1115.21,-215.13"/>
<polygon fill="#9a32cd" stroke="#9a32cd" points="912.46,-342.18 902.47,-345.69 912.47,-349.18 912.46,-342.18"/>
<text text-anchor="middle" x="997" y="-345.5" font-family="Helvetica,sans-Serif" font-size="10.00"> m_pages</text>
</g>
<!-- Node13&#45;&gt;Node11 -->
<g id="edge28" class="edge">
<title>Node13&#45;&gt;Node11</title>
<path fill="none" stroke="#9a32cd" stroke-dasharray="5,2" d="M589.82,-304.25C714.57,-309.69 965.6,-315.64 1045,-280.5 1076.67,-266.48 1101.82,-231.96 1112.68,-215.09"/>
<polygon fill="#9a32cd" stroke="#9a32cd" points="589.75,-300.74 579.6,-303.79 589.44,-307.73 589.75,-300.74"/>
<text text-anchor="middle" x="829.5" y="-310.5" font-family="Helvetica,sans-Serif" font-size="10.00"> m_bytecode</text>
</g>
<!-- Node13&#45;&gt;Node12 -->
<g id="edge15" class="edge">
<title>Node13&#45;&gt;Node12</title>
<path fill="none" stroke="#9a32cd" stroke-dasharray="5,2" d="M589.84,-309.52C640.01,-315.82 706.71,-324.2 756.84,-330.5"/>
<polygon fill="#9a32cd" stroke="#9a32cd" points="590.07,-306.03 579.72,-308.25 589.2,-312.97 590.07,-306.03"/>
<text text-anchor="middle" x="667" y="-325.5" font-family="Helvetica,sans-Serif" font-size="10.00"> elements</text>
</g>
<!-- Node14&#45;&gt;Node11 -->
<g id="edge18" class="edge">
<title>Node14&#45;&gt;Node11</title>
<path fill="none" stroke="#9a32cd" stroke-dasharray="5,2" d="M896.48,-162.51C938.93,-170.3 995.26,-180.79 1045,-190.5 1058.68,-193.17 1073.76,-196.23 1086.69,-198.88"/>
<polygon fill="#9a32cd" stroke="#9a32cd" points="897.02,-159.05 886.55,-160.68 895.76,-165.93 897.02,-159.05"/>
<text text-anchor="middle" x="997" y="-193.5" font-family="Helvetica,sans-Serif" font-size="10.00"> m_binded</text>
</g>
<!-- Node15 -->
<g id="node15" class="node">
<title>Node15</title>
<g id="a_node15"><a xlink:title=" ">
<polygon fill="white" stroke="#bfbfbf" points="484.5,-16 484.5,-35 549.5,-35 549.5,-16 484.5,-16"/>
<text text-anchor="middle" x="517" y="-23" font-family="Helvetica,sans-Serif" font-size="10.00">std::string</text>
</a>
</g>
</g>
<!-- Node15&#45;&gt;Node11 -->
<g id="edge29" class="edge">
<title>Node15&#45;&gt;Node11</title>
<path fill="none" stroke="#9a32cd" stroke-dasharray="5,2" d="M559.57,-22.24C635.05,-17.55 799.05,-12.95 931,-48.5 985.89,-63.29 1001.57,-69.82 1045,-106.5 1076.89,-133.44 1102.84,-176.78 1113.4,-195.9"/>
<polygon fill="#9a32cd" stroke="#9a32cd" points="559.27,-18.76 549.52,-22.9 559.73,-25.74 559.27,-18.76"/>
<text text-anchor="middle" x="829.5" y="-51.5" font-family="Helvetica,sans-Serif" font-size="10.00"> m_filename</text>
</g>
<!-- Node15&#45;&gt;Node14 -->
<g id="edge20" class="edge">
<title>Node15&#45;&gt;Node14</title>
<path fill="none" stroke="#9a32cd" stroke-dasharray="5,2" d="M559.41,-35.1C574.6,-39.53 591.58,-45.6 606,-53.5 615.13,-58.51 615.06,-63.16 624,-68.5 671.3,-96.73 730.09,-119.14 772.48,-133.36"/>
<polygon fill="#9a32cd" stroke="#9a32cd" points="560.31,-31.72 549.74,-32.43 558.44,-38.47 560.31,-31.72"/>
<text text-anchor="middle" x="667" y="-111.5" font-family="Helvetica,sans-Serif" font-size="10.00"> keys</text>
</g>
<!-- Node15&#45;&gt;Node20 -->
<g id="edge31" class="edge">
<title>Node15&#45;&gt;Node20</title>
<path fill="none" stroke="#9a32cd" stroke-dasharray="5,2" d="M559.62,-30.8C598.6,-35.94 658.4,-44.3 710,-53.5 735.46,-58.04 763.81,-63.99 786.4,-68.94"/>
<polygon fill="#9a32cd" stroke="#9a32cd" points="560.07,-27.33 549.7,-29.5 559.16,-34.27 560.07,-27.33"/>
<text text-anchor="middle" x="667" y="-56.5" font-family="Helvetica,sans-Serif" font-size="10.00"> elements</text>
</g>
<!-- Node16 -->
<g id="node16" class="node">
<title>Node16</title>
<g id="a_node16"><a xlink:title=" ">
<polygon fill="white" stroke="#bfbfbf" points="121,-0.5 121,-30.5 225,-30.5 225,-0.5 121,-0.5"/>
<text text-anchor="start" x="129" y="-18.5" font-family="Helvetica,sans-Serif" font-size="10.00">std::basic_string&lt;</text>
<text text-anchor="middle" x="173" y="-7.5" font-family="Helvetica,sans-Serif" font-size="10.00"> Char &gt;</text>
</a>
</g>
</g>
<!-- Node16&#45;&gt;Node15 -->
<g id="edge21" class="edge">
<title>Node16&#45;&gt;Node15</title>
<path fill="none" stroke="midnightblue" d="M235.2,-17.29C308.33,-19.43 427.88,-22.92 484.44,-24.58"/>
<polygon fill="midnightblue" stroke="midnightblue" points="235.3,-13.79 225.2,-17 235.09,-20.79 235.3,-13.79"/>
</g>
<!-- Node17&#45;&gt;Node14 -->
<g id="edge22" class="edge">
<title>Node17&#45;&gt;Node14</title>
<path fill="none" stroke="orange" stroke-dasharray="5,2" d="M581.82,-97.13C590.16,-100.46 598.43,-104.25 606,-108.5 615.08,-113.6 614.46,-119.32 624,-123.5 671.23,-144.2 730.03,-150.15 772.44,-151.4"/>
<polygon fill="orange" stroke="orange" points="582.99,-93.83 572.4,-93.56 580.51,-100.38 582.99,-93.83"/>
<text text-anchor="start" x="624" y="-160.5" font-family="Helvetica,sans-Serif" font-size="10.00"> &lt; std::string, Ark</text>
<text text-anchor="middle" x="667" y="-149.5" font-family="Helvetica,sans-Serif" font-size="10.00">::Value &gt;</text>
</g>
<!-- Node18 -->
<g id="node18" class="node">
<title>Node18</title>
<g id="a_node18"><a xlink:title=" ">
<polygon fill="white" stroke="#bfbfbf" points="158.5,-50 158.5,-69 187.5,-69 187.5,-50 158.5,-50"/>
<text text-anchor="middle" x="173" y="-57" font-family="Helvetica,sans-Serif" font-size="10.00">K</text>
</a>
</g>
</g>
<!-- Node18&#45;&gt;Node17 -->
<g id="edge23" class="edge">
<title>Node18&#45;&gt;Node17</title>
<path fill="none" stroke="#9a32cd" stroke-dasharray="5,2" d="M198.13,-60.84C252.19,-63.84 384.18,-71.18 459.99,-75.39"/>
<polygon fill="#9a32cd" stroke="#9a32cd" points="198.01,-57.33 187.83,-60.27 197.62,-64.32 198.01,-57.33"/>
<text text-anchor="middle" x="330" y="-75.5" font-family="Helvetica,sans-Serif" font-size="10.00"> keys</text>
</g>
<!-- Node19&#45;&gt;Node11 -->
<g id="edge25" class="edge">
<title>Node19&#45;&gt;Node11</title>
<path fill="none" stroke="#9a32cd" stroke-dasharray="5,2" d="M910.16,-205.5C968.53,-205.5 1044.66,-205.5 1086.85,-205.5"/>
<polygon fill="#9a32cd" stroke="#9a32cd" points="909.85,-202 899.85,-205.5 909.85,-209 909.85,-202"/>
<text text-anchor="middle" x="997" y="-208.5" font-family="Helvetica,sans-Serif" font-size="10.00"> m_constants</text>
</g>
<!-- Node20&#45;&gt;Node11 -->
<g id="edge30" class="edge">
<title>Node20&#45;&gt;Node11</title>
<path fill="none" stroke="#9a32cd" stroke-dasharray="5,2" d="M885.28,-90.38C929.95,-101.39 993.81,-120.22 1045,-147.5 1070.25,-160.96 1095.52,-183.32 1108.85,-195.99"/>
<polygon fill="#9a32cd" stroke="#9a32cd" points="886.03,-86.96 875.49,-88.01 884.39,-93.76 886.03,-86.96"/>
<text text-anchor="middle" x="997" y="-161.5" font-family="Helvetica,sans-Serif" font-size="10.00"> m_libenv</text>
<text text-anchor="middle" x="997" y="-150.5" font-family="Helvetica,sans-Serif" font-size="10.00">m_symbols</text>
</g>
<!-- Node21&#45;&gt;Node1 -->
<g id="edge33" class="edge">
<title>Node21&#45;&gt;Node1</title>
<path fill="none" stroke="#9a32cd" stroke-dasharray="5,2" d="M941.06,-396.73C1024.52,-395.88 1141.74,-392.49 1244,-381.5 1249.78,-380.88 1255.93,-379.95 1261.76,-378.94"/>
<polygon fill="#9a32cd" stroke="#9a32cd" points="941.02,-393.23 931.05,-396.82 941.08,-400.23 941.02,-393.23"/>
<text text-anchor="middle" x="1119.5" y="-396.5" font-family="Helvetica,sans-Serif" font-size="10.00"> m_shared_lib_objects</text>
</g>
<!-- Node22 -->
<g id="node22" class="node">
<title>Node22</title>
<g id="a_node22"><a xlink:title=" ">
<polygon fill="white" stroke="#bfbfbf" points="444.5,-492.5 444.5,-522.5 589.5,-522.5 589.5,-492.5 444.5,-492.5"/>
<text text-anchor="start" x="452.5" y="-510.5" font-family="Helvetica,sans-Serif" font-size="10.00">std::shared_ptr&lt; Ark</text>
<text text-anchor="middle" x="517" y="-499.5" font-family="Helvetica,sans-Serif" font-size="10.00">::internal::SharedLibrary &gt;</text>
</a>
</g>
</g>
<!-- Node22&#45;&gt;Node21 -->
<g id="edge34" class="edge">
<title>Node22&#45;&gt;Node21</title>
<path fill="none" stroke="#9a32cd" stroke-dasharray="5,2" d="M573.62,-489.11C584.4,-485.38 595.59,-481.41 606,-477.5 660.87,-456.93 672.84,-447.27 728,-427.5 743.64,-421.9 760.86,-416.36 776.56,-411.55"/>
<polygon fill="#9a32cd" stroke="#9a32cd" points="572.19,-485.9 563.86,-492.45 574.45,-492.52 572.19,-485.9"/>
<text text-anchor="middle" x="667" y="-473.5" font-family="Helvetica,sans-Serif" font-size="10.00"> elements</text>
</g>
<!-- Node23&#45;&gt;Node22 -->
<g id="edge35" class="edge">
<title>Node23&#45;&gt;Node22</title>
<path fill="none" stroke="orange" stroke-dasharray="5,2" d="M242.27,-477.09C300.8,-483.59 384.83,-492.93 444.32,-499.54"/>
<polygon fill="orange" stroke="orange" points="242.34,-473.57 232.02,-475.95 241.57,-480.53 242.34,-473.57"/>
<text text-anchor="middle" x="330" y="-497.5" font-family="Helvetica,sans-Serif" font-size="10.00"> &lt; Ark::internal::SharedLibrary &gt;</text>
</g>
</g>
</svg>
