<?xml version="1.0" encoding="UTF-8" standalone="no"?>
<!DOCTYPE svg PUBLIC "-//W3C//DTD SVG 1.1//EN"
 "http://www.w3.org/Graphics/SVG/1.1/DTD/svg11.dtd">
<!-- Generated by graphviz version 2.49.0 (20210828.1703)
 -->
<!-- Title: Ark::BetterTypeError Pages: 1 -->
<svg width="232pt" height="220pt"
 viewBox="0.00 0.00 231.50 220.00" xmlns="http://www.w3.org/2000/svg" xmlns:xlink="http://www.w3.org/1999/xlink">
<g id="graph0" class="graph" transform="scale(1 1) rotate(0) translate(4 216)">
<title>Ark::BetterTypeError</title>
<polygon fill="white" stroke="transparent" points="-4,4 -4,-216 227.5,-216 227.5,4 -4,4"/>
<!-- Node1 -->
<g id="node1" class="node">
<title>Node1</title>
<g id="a_node1"><a xlink:title="A type error triggered when types don&#39;t match.">
<polygon fill="#bfbfbf" stroke="black" points="57.5,-0.5 57.5,-19.5 163.5,-19.5 163.5,-0.5 57.5,-0.5"/>
<text text-anchor="middle" x="110.5" y="-7.5" font-family="Helvetica,sans-Serif" font-size="10.00">Ark::BetterTypeError</text>
</a>
</g>
</g>
<!-- Node2 -->
<g id="node2" class="node">
<title>Node2</title>
<g id="a_node2"><a xlink:href="../../d6/d43/classArk_1_1Error.html" target="_top" xlink:title=" ">
<polygon fill="white" stroke="black" points="37,-67.5 37,-86.5 96,-86.5 96,-67.5 37,-67.5"/>
<text text-anchor="middle" x="66.5" y="-74.5" font-family="Helvetica,sans-Serif" font-size="10.00">Ark::Error</text>
</a>
</g>
</g>
<!-- Node2&#45;&gt;Node1 -->
<g id="edge1" class="edge">
<title>Node2&#45;&gt;Node1</title>
<path fill="none" stroke="midnightblue" d="M78.07,-58.9C86.62,-46.27 97.91,-29.6 104.66,-19.63"/>
<polygon fill="midnightblue" stroke="midnightblue" points="75.14,-56.99 72.43,-67.23 80.94,-60.91 75.14,-56.99"/>
</g>
<!-- Node3 -->
<g id="node3" class="node">
<title>Node3</title>
<g id="a_node3"><a xlink:title=" ">
<polygon fill="white" stroke="#bfbfbf" points="0,-130 0,-149 93,-149 93,-130 0,-130"/>
<text text-anchor="middle" x="46.5" y="-137" font-family="Helvetica,sans-Serif" font-size="10.00">std::runtime_error</text>
</a>
</g>
</g>
<!-- Node3&#45;&gt;Node2 -->
<g id="edge2" class="edge">
<title>Node3&#45;&gt;Node2</title>
<path fill="none" stroke="midnightblue" d="M52.55,-120.19C56.23,-109.06 60.76,-95.36 63.64,-86.65"/>
<polygon fill="midnightblue" stroke="midnightblue" points="49.18,-119.24 49.37,-129.83 55.83,-121.44 49.18,-119.24"/>
</g>
<!-- Node4 -->
<g id="node4" class="node">
<title>Node4</title>
<g id="a_node4"><a xlink:title=" ">
<polygon fill="white" stroke="#bfbfbf" points="7.5,-192.5 7.5,-211.5 85.5,-211.5 85.5,-192.5 7.5,-192.5"/>
<text text-anchor="middle" x="46.5" y="-199.5" font-family="Helvetica,sans-Serif" font-size="10.00">std::exception</text>
</a>
</g>
</g>
<!-- Node4&#45;&gt;Node3 -->
<g id="edge3" class="edge">
<title>Node4&#45;&gt;Node3</title>
<path fill="none" stroke="midnightblue" d="M46.5,-182C46.5,-171 46.5,-157.68 46.5,-149.15"/>
<polygon fill="midnightblue" stroke="midnightblue" points="43,-182.33 46.5,-192.33 50,-182.33 43,-182.33"/>
</g>
<!-- Node5 -->
<g id="node5" class="node">
<title>Node5</title>
<g id="a_node5"><a xlink:title=" ">
<polygon fill="white" stroke="#bfbfbf" points="122,-67.5 122,-86.5 205,-86.5 205,-67.5 122,-67.5"/>
<text text-anchor="middle" x="163.5" y="-74.5" font-family="Helvetica,sans-Serif" font-size="10.00">std::string_view</text>
</a>
</g>
</g>
<!-- Node5&#45;&gt;Node1 -->
<g id="edge4" class="edge">
<title>Node5&#45;&gt;Node1</title>
<path fill="none" stroke="#9a32cd" stroke-dasharray="5,2" d="M149.86,-59.27C139.53,-46.6 125.75,-29.7 117.53,-19.63"/>
<polygon fill="#9a32cd" stroke="#9a32cd" points="147.32,-61.7 156.35,-67.23 152.75,-57.27 147.32,-61.7"/>
<text text-anchor="middle" x="170" y="-41" font-family="Helvetica,sans-Serif" font-size="10.00"> m_funcname</text>
</g>
<!-- Node6 -->
<g id="node6" class="node">
<title>Node6</title>
<g id="a_node6"><a xlink:title=" ">
<polygon fill="white" stroke="#bfbfbf" points="111.5,-124.5 111.5,-154.5 223.5,-154.5 223.5,-124.5 111.5,-124.5"/>
<text text-anchor="start" x="119.5" y="-142.5" font-family="Helvetica,sans-Serif" font-size="10.00">std::basic_string_view</text>
<text text-anchor="middle" x="167.5" y="-131.5" font-family="Helvetica,sans-Serif" font-size="10.00">&lt; Char &gt;</text>
</a>
</g>
</g>
<!-- Node6&#45;&gt;Node5 -->
<g id="edge5" class="edge">
<title>Node6&#45;&gt;Node5</title>
<path fill="none" stroke="midnightblue" d="M165.9,-114.35C165.25,-104.51 164.54,-93.78 164.06,-86.54"/>
<polygon fill="midnightblue" stroke="midnightblue" points="162.42,-114.72 166.57,-124.47 169.4,-114.26 162.42,-114.72"/>
</g>
</g>
</svg>
