<?xml version="1.0" encoding="UTF-8" standalone="no"?>
<!DOCTYPE svg PUBLIC "-//W3C//DTD SVG 1.1//EN"
 "http://www.w3.org/Graphics/SVG/1.1/DTD/svg11.dtd">
<!-- Generated by graphviz version 2.49.0 (20210828.1703)
 -->
<!-- Title: C:/Users/folae/Documents/Code/Big&#45;Projects/ArkScript/Ark/include/Ark/VM Pages: 1 -->
<svg width="114pt" height="239pt"
 viewBox="0.00 0.00 114.00 239.00" xmlns="http://www.w3.org/2000/svg" xmlns:xlink="http://www.w3.org/1999/xlink">
<g id="graph0" class="graph" transform="scale(1 1) rotate(0) translate(4 235)">
<title>C:/Users/folae/Documents/Code/Big&#45;Projects/ArkScript/Ark/include/Ark/VM</title>
<polygon fill="white" stroke="transparent" points="-4,4 -4,-235 110,-235 110,4 -4,4"/>
<g id="clust1" class="cluster">
<title>clusterdir_a8b6c64285bf9ac60f50770eb2fc48b5</title>
<g id="a_clust1"><a xlink:href="dir_a8b6c64285bf9ac60f50770eb2fc48b5.html" target="_top" xlink:title="Ark">
<polygon fill="#ddddee" stroke="black" points="8,-8 8,-223 98,-223 98,-8 8,-8"/>
<text text-anchor="middle" x="53" y="-211" font-family="Helvetica,sans-Serif" font-size="10.00">Ark</text>
</a>
</g>
</g>
<!-- dir_e4e3cacaa047e3554112dad79d53bc60 -->
<g id="node1" class="node">
<title>dir_e4e3cacaa047e3554112dad79d53bc60</title>
<g id="a_node1"><a xlink:href="dir_e4e3cacaa047e3554112dad79d53bc60.html" target="_top" xlink:title="Builtins">
<polygon fill="none" stroke="black" points="70,-196 16,-196 16,-160 70,-160 70,-196"/>
<text text-anchor="middle" x="43" y="-175.5" font-family="Helvetica,sans-Serif" font-size="10.00">Builtins</text>
</a>
</g>
</g>
<!-- dir_222307dbf92126e8e24c7a501f533901 -->
<g id="node3" class="node">
<title>dir_222307dbf92126e8e24c7a501f533901</title>
<g id="a_node3"><a xlink:href="dir_222307dbf92126e8e24c7a501f533901.html" target="_top" xlink:title="VM">
<polygon fill="#eeeeff" stroke="black" points="70,-124 16,-124 16,-88 70,-88 70,-124"/>
<text text-anchor="middle" x="43" y="-103.5" font-family="Helvetica,sans-Serif" font-size="10.00">VM</text>
</a>
</g>
</g>
<!-- dir_e4e3cacaa047e3554112dad79d53bc60&#45;&gt;dir_222307dbf92126e8e24c7a501f533901 -->
<g id="edge3" class="edge">
<title>dir_e4e3cacaa047e3554112dad79d53bc60&#45;&gt;dir_222307dbf92126e8e24c7a501f533901</title>
<path fill="none" stroke="black" d="M37.08,-159.7C36.29,-151.98 36.06,-142.71 36.4,-134.11"/>
<polygon fill="black" stroke="black" points="39.9,-134.32 37.1,-124.1 32.92,-133.84 39.9,-134.32"/>
<g id="a_edge3&#45;headlabel"><a xlink:href="dir_000002_000007.html" target="_top" xlink:title="1">
<text text-anchor="middle" x="42.48" y="-135.61" font-family="Helvetica,sans-Serif" font-size="10.00">1</text>
</a>
</g>
</g>
<!-- dir_e4f19535f57335fb80a0267cec25bf70 -->
<g id="node2" class="node">
<title>dir_e4f19535f57335fb80a0267cec25bf70</title>
<g id="a_node2"><a xlink:href="dir_e4f19535f57335fb80a0267cec25bf70.html" target="_top" xlink:title="Compiler">
<polygon fill="white" stroke="red" points="80.5,-52 25.5,-52 25.5,-16 80.5,-16 80.5,-52"/>
<text text-anchor="middle" x="53" y="-31.5" font-family="Helvetica,sans-Serif" font-size="10.00">Compiler</text>
</a>
</g>
</g>
<!-- dir_e4f19535f57335fb80a0267cec25bf70&#45;&gt;dir_e4e3cacaa047e3554112dad79d53bc60 -->
<g id="edge4" class="edge">
<title>dir_e4f19535f57335fb80a0267cec25bf70&#45;&gt;dir_e4e3cacaa047e3554112dad79d53bc60</title>
<path fill="none" stroke="black" d="M64.05,-52.39C69.74,-62.38 76.08,-75.42 79,-88 82.62,-103.59 83.7,-108.71 79,-124 75.99,-133.78 70.49,-143.38 64.68,-151.67"/>
<polygon fill="black" stroke="black" points="61.81,-149.67 58.61,-159.77 67.41,-153.87 61.81,-149.67"/>
<g id="a_edge4&#45;headlabel"><a xlink:href="dir_000003_000002.html" target="_top" xlink:title="2">
<text text-anchor="middle" x="61.69" y="-142.59" font-family="Helvetica,sans-Serif" font-size="10.00">2</text>
</a>
</g>
</g>
<!-- dir_222307dbf92126e8e24c7a501f533901&#45;&gt;dir_e4e3cacaa047e3554112dad79d53bc60 -->
<g id="edge1" class="edge">
<title>dir_222307dbf92126e8e24c7a501f533901&#45;&gt;dir_e4e3cacaa047e3554112dad79d53bc60</title>
<path fill="none" stroke="black" d="M48.9,-124.1C49.7,-131.79 49.94,-141.05 49.6,-149.67"/>
<polygon fill="black" stroke="black" points="46.11,-149.48 48.92,-159.7 53.09,-149.96 46.11,-149.48"/>
<g id="a_edge1&#45;headlabel"><a xlink:href="dir_000007_000002.html" target="_top" xlink:title="1">
<text text-anchor="middle" x="43.52" y="-143.2" font-family="Helvetica,sans-Serif" font-size="10.00">1</text>
</a>
</g>
</g>
<!-- dir_222307dbf92126e8e24c7a501f533901&#45;&gt;dir_e4f19535f57335fb80a0267cec25bf70 -->
<g id="edge2" class="edge">
<title>dir_222307dbf92126e8e24c7a501f533901&#45;&gt;dir_e4f19535f57335fb80a0267cec25bf70</title>
<path fill="none" stroke="black" d="M45.47,-87.7C46.57,-79.98 47.9,-70.71 49.13,-62.11"/>
<polygon fill="black" stroke="black" points="52.61,-62.5 50.56,-52.1 45.68,-61.51 52.61,-62.5"/>
<g id="a_edge2&#45;headlabel"><a xlink:href="dir_000007_000003.html" target="_top" xlink:title="2">
<text text-anchor="middle" x="54.91" y="-63.96" font-family="Helvetica,sans-Serif" font-size="10.00">2</text>
</a>
</g>
</g>
</g>
</svg>
