<?xml version="1.0" encoding="UTF-8" standalone="no"?>
<!DOCTYPE svg PUBLIC "-//W3C//DTD SVG 1.1//EN"
 "http://www.w3.org/Graphics/SVG/1.1/DTD/svg11.dtd">
<!-- Generated by graphviz version 2.49.0 (20210828.1703)
 -->
<!-- Title: C:/Users/folae/Documents/Code/Big&#45;Projects/ArkScript/Ark/include/Ark/Compiler Pages: 1 -->
<svg width="208pt" height="183pt"
 viewBox="0.00 0.00 208.00 183.00" xmlns="http://www.w3.org/2000/svg" xmlns:xlink="http://www.w3.org/1999/xlink">
<g id="graph0" class="graph" transform="scale(1 1) rotate(0) translate(4 179)">
<title>C:/Users/folae/Documents/Code/Big&#45;Projects/ArkScript/Ark/include/Ark/Compiler</title>
<polygon fill="white" stroke="transparent" points="-4,4 -4,-179 204,-179 204,4 -4,4"/>
<g id="clust1" class="cluster">
<title>clusterdir_a8b6c64285bf9ac60f50770eb2fc48b5</title>
<g id="a_clust1"><a xlink:href="dir_a8b6c64285bf9ac60f50770eb2fc48b5.html" target="_top" xlink:title="Ark">
<polygon fill="#ddddee" stroke="black" points="8,-8 8,-167 192,-167 192,-8 8,-8"/>
<text text-anchor="middle" x="100" y="-155" font-family="Helvetica,sans-Serif" font-size="10.00">Ark</text>
</a>
</g>
</g>
<g id="clust2" class="cluster">
<title>clusterdir_e4f19535f57335fb80a0267cec25bf70</title>
<g id="a_clust2"><a xlink:href="dir_e4f19535f57335fb80a0267cec25bf70.html" target="_top">
<polygon fill="#eeeeff" stroke="black" points="16,-16 16,-140 120,-140 120,-16 16,-16"/>
</a>
</g>
</g>
<!-- dir_e4e3cacaa047e3554112dad79d53bc60 -->
<g id="node1" class="node">
<title>dir_e4e3cacaa047e3554112dad79d53bc60</title>
<g id="a_node1"><a xlink:href="dir_e4e3cacaa047e3554112dad79d53bc60.html" target="_top" xlink:title="Builtins">
<polygon fill="none" stroke="black" points="184,-60 130,-60 130,-24 184,-24 184,-60"/>
<text text-anchor="middle" x="157" y="-39.5" font-family="Helvetica,sans-Serif" font-size="10.00">Builtins</text>
</a>
</g>
</g>
<!-- dir_e4f19535f57335fb80a0267cec25bf70 -->
<g id="node2" class="node">
<title>dir_e4f19535f57335fb80a0267cec25bf70</title>
<text text-anchor="middle" x="76" y="-111.5" font-family="Helvetica,sans-Serif" font-size="10.00">Compiler</text>
</g>
<!-- dir_e4f19535f57335fb80a0267cec25bf70&#45;&gt;dir_e4e3cacaa047e3554112dad79d53bc60 -->
<g id="edge2" class="edge">
<title>dir_e4f19535f57335fb80a0267cec25bf70&#45;&gt;dir_e4e3cacaa047e3554112dad79d53bc60</title>
<path fill="none" stroke="black" d="M96.02,-95.7C106.13,-86.97 118.54,-76.24 129.52,-66.75"/>
<polygon fill="black" stroke="black" points="131.93,-69.29 137.21,-60.1 127.35,-63.99 131.93,-69.29"/>
<g id="a_edge2&#45;headlabel"><a xlink:href="dir_000003_000002.html" target="_top" xlink:title="2">
<text text-anchor="middle" x="131.07" y="-71.29" font-family="Helvetica,sans-Serif" font-size="10.00">2</text>
</a>
</g>
</g>
<!-- dir_5287ab12cc2145c1637bd68d8a78bf77 -->
<g id="node3" class="node">
<title>dir_5287ab12cc2145c1637bd68d8a78bf77</title>
<g id="a_node3"><a xlink:href="dir_5287ab12cc2145c1637bd68d8a78bf77.html" target="_top" xlink:title="MacroExecutors">
<polygon fill="white" stroke="black" points="112,-60 24,-60 24,-24 112,-24 112,-60"/>
<text text-anchor="middle" x="68" y="-39.5" font-family="Helvetica,sans-Serif" font-size="10.00">MacroExecutors</text>
</a>
</g>
</g>
<!-- dir_e4f19535f57335fb80a0267cec25bf70&#45;&gt;dir_5287ab12cc2145c1637bd68d8a78bf77 -->
<g id="edge1" class="edge">
<title>dir_e4f19535f57335fb80a0267cec25bf70&#45;&gt;dir_5287ab12cc2145c1637bd68d8a78bf77</title>
<path fill="none" stroke="black" d="M74.02,-95.7C73.14,-87.98 72.08,-78.71 71.1,-70.11"/>
<polygon fill="black" stroke="black" points="74.57,-69.64 69.95,-60.1 67.61,-70.44 74.57,-69.64"/>
<g id="a_edge1&#45;headlabel"><a xlink:href="dir_000003_000004.html" target="_top" xlink:title="1">
<text text-anchor="middle" x="77.8" y="-70.39" font-family="Helvetica,sans-Serif" font-size="10.00">1</text>
</a>
</g>
</g>
</g>
</svg>
