<?xml version="1.0" encoding="UTF-8" standalone="no"?>
<!DOCTYPE svg PUBLIC "-//W3C//DTD SVG 1.1//EN"
 "http://www.w3.org/Graphics/SVG/1.1/DTD/svg11.dtd">
<!-- Generated by graphviz version 2.49.0 (20210828.1703)
 -->
<!-- Title: C:/Users/folae/Documents/Code/Big&#45;Projects/ArkScript/Ark/src/arkscript Pages: 1 -->
<svg width="182pt" height="159pt"
 viewBox="0.00 0.00 182.00 159.00" xmlns="http://www.w3.org/2000/svg" xmlns:xlink="http://www.w3.org/1999/xlink">
<g id="graph0" class="graph" transform="scale(1 1) rotate(0) translate(4 155)">
<title>C:/Users/folae/Documents/Code/Big&#45;Projects/ArkScript/Ark/src/arkscript</title>
<polygon fill="white" stroke="transparent" points="-4,4 -4,-155 178,-155 178,4 -4,4"/>
<g id="clust1" class="cluster">
<title>clusterdir_68267d1309a1af8e8297ef4c3efbcdba</title>
<g id="a_clust1"><a xlink:href="dir_68267d1309a1af8e8297ef4c3efbcdba.html" target="_top" xlink:title="src">
<polygon fill="#ddddee" stroke="black" points="8,-56 8,-143 166,-143 166,-56 8,-56"/>
<text text-anchor="middle" x="87" y="-131" font-family="Helvetica,sans-Serif" font-size="10.00">src</text>
</a>
</g>
</g>
<g id="clust2" class="cluster">
<title>clusterdir_2f97cbe3d7d7ee3d0a7f34ae796b7c3c</title>
<g id="a_clust2"><a xlink:href="dir_2f97cbe3d7d7ee3d0a7f34ae796b7c3c.html" target="_top">
<polygon fill="#eeeeff" stroke="black" points="16,-64 16,-116 158,-116 158,-64 16,-64"/>
</a>
</g>
</g>
<!-- dir_2f97cbe3d7d7ee3d0a7f34ae796b7c3c -->
<g id="node1" class="node">
<title>dir_2f97cbe3d7d7ee3d0a7f34ae796b7c3c</title>
<text text-anchor="middle" x="123" y="-87.5" font-family="Helvetica,sans-Serif" font-size="10.00">arkscript</text>
</g>
<!-- dir_d44c64559bbebec7f509842c48db8b23 -->
<g id="node3" class="node">
<title>dir_d44c64559bbebec7f509842c48db8b23</title>
<g id="a_node3"><a xlink:href="dir_d44c64559bbebec7f509842c48db8b23.html" target="_top" xlink:title="include">
<polygon fill="white" stroke="red" points="114,-36 60,-36 60,0 114,0 114,-36"/>
<text text-anchor="middle" x="87" y="-15.5" font-family="Helvetica,sans-Serif" font-size="10.00">include</text>
</a>
</g>
</g>
<!-- dir_2f97cbe3d7d7ee3d0a7f34ae796b7c3c&#45;&gt;dir_d44c64559bbebec7f509842c48db8b23 -->
<g id="edge1" class="edge">
<title>dir_2f97cbe3d7d7ee3d0a7f34ae796b7c3c&#45;&gt;dir_d44c64559bbebec7f509842c48db8b23</title>
<path fill="none" stroke="black" d="M114.1,-71.7C110,-63.73 105.05,-54.1 100.51,-45.26"/>
<polygon fill="black" stroke="black" points="103.48,-43.4 95.8,-36.1 97.26,-46.6 103.48,-43.4"/>
<g id="a_edge1&#45;headlabel"><a xlink:href="dir_000033_000000.html" target="_top" xlink:title="6">
<text text-anchor="middle" x="107.65" y="-42.79" font-family="Helvetica,sans-Serif" font-size="10.00">6</text>
</a>
</g>
</g>
<!-- dir_b137344471615342cb36678e59bedd43 -->
<g id="node2" class="node">
<title>dir_b137344471615342cb36678e59bedd43</title>
<g id="a_node2"><a xlink:href="dir_b137344471615342cb36678e59bedd43.html" target="_top" xlink:title="REPL">
<polygon fill="white" stroke="black" points="78,-108 24,-108 24,-72 78,-72 78,-108"/>
<text text-anchor="middle" x="51" y="-87.5" font-family="Helvetica,sans-Serif" font-size="10.00">REPL</text>
</a>
</g>
</g>
<!-- dir_b137344471615342cb36678e59bedd43&#45;&gt;dir_d44c64559bbebec7f509842c48db8b23 -->
<g id="edge2" class="edge">
<title>dir_b137344471615342cb36678e59bedd43&#45;&gt;dir_d44c64559bbebec7f509842c48db8b23</title>
<path fill="none" stroke="black" d="M59.9,-71.7C64,-63.73 68.95,-54.1 73.49,-45.26"/>
<polygon fill="black" stroke="black" points="76.74,-46.6 78.2,-36.1 70.52,-43.4 76.74,-46.6"/>
<g id="a_edge2&#45;headlabel"><a xlink:href="dir_000034_000000.html" target="_top" xlink:title="3">
<text text-anchor="middle" x="77.62" y="-48.59" font-family="Helvetica,sans-Serif" font-size="10.00">3</text>
</a>
</g>
</g>
</g>
</svg>
