<?xml version="1.0" encoding="UTF-8" standalone="no"?>
<!DOCTYPE svg PUBLIC "-//W3C//DTD SVG 1.1//EN"
 "http://www.w3.org/Graphics/SVG/1.1/DTD/svg11.dtd">
<!-- Generated by graphviz version 2.43.0 (0)
 -->
<!-- Title: /home/fola/code/Ark/src/arkreactor Pages: 1 -->
<svg width="275pt" height="159pt"
 viewBox="0.00 0.00 275.00 159.00" xmlns="http://www.w3.org/2000/svg" xmlns:xlink="http://www.w3.org/1999/xlink">
<g id="graph0" class="graph" transform="scale(1 1) rotate(0) translate(4 155)">
<title>/home/fola/code/Ark/src/arkreactor</title>
<polygon fill="white" stroke="transparent" points="-4,4 -4,-155 271,-155 271,4 -4,4"/>
<g id="clust1" class="cluster">
<title>clusterdir_68267d1309a1af8e8297ef4c3efbcdba</title>
<g id="a_clust1"><a xlink:href="dir_68267d1309a1af8e8297ef4c3efbcdba.html" target="_top" xlink:title="src">
<polygon fill="#ddddee" stroke="black" points="8,-56 8,-143 259,-143 259,-56 8,-56"/>
<text text-anchor="middle" x="133.5" y="-131" font-family="Helvetica,sans-Serif" font-size="10.00">src</text>
</a>
</g>
</g>
<g id="clust2" class="cluster">
<title>clusterdir_e0d450b481c7e7e5abacff9799e54b3d</title>
<g id="a_clust2"><a xlink:href="dir_e0d450b481c7e7e5abacff9799e54b3d.html" target="_top">
<polygon fill="#eeeeff" stroke="black" points="16,-64 16,-116 251,-116 251,-64 16,-64"/>
</a>
</g>
</g>
<!-- dir_e0d450b481c7e7e5abacff9799e54b3d -->
<g id="node1" class="node">
<title>dir_e0d450b481c7e7e5abacff9799e54b3d</title>
<text text-anchor="middle" x="209" y="-87.5" font-family="Helvetica,sans-Serif" font-size="10.00">arkreactor</text>
</g>
<!-- dir_d44c64559bbebec7f509842c48db8b23 -->
<g id="node4" class="node">
<title>dir_d44c64559bbebec7f509842c48db8b23</title>
<g id="a_node4"><a xlink:href="dir_d44c64559bbebec7f509842c48db8b23.html" target="_top" xlink:title="include">
<polygon fill="white" stroke="red" points="154,-36 100,-36 100,0 154,0 154,-36"/>
<text text-anchor="middle" x="127" y="-15.5" font-family="Helvetica,sans-Serif" font-size="10.00">include</text>
</a>
</g>
</g>
<!-- dir_e0d450b481c7e7e5abacff9799e54b3d&#45;&gt;dir_d44c64559bbebec7f509842c48db8b23 -->
<g id="edge3" class="edge">
<title>dir_e0d450b481c7e7e5abacff9799e54b3d&#45;&gt;dir_d44c64559bbebec7f509842c48db8b23</title>
<path fill="none" stroke="black" d="M188.73,-71.7C178.5,-62.97 165.94,-52.24 154.82,-42.75"/>
<polygon fill="black" stroke="black" points="156.91,-39.94 147.04,-36.1 152.37,-45.26 156.91,-39.94"/>
<g id="a_edge3&#45;headlabel"><a xlink:href="dir_000030_000000.html" target="_top" xlink:title="61">
<text text-anchor="middle" x="161.49" y="-37.61" font-family="Helvetica,sans-Serif" font-size="10.00">61</text>
</a>
</g>
</g>
<!-- dir_548d85becfdd8b4d1d64f6a452aea6ab -->
<g id="node2" class="node">
<title>dir_548d85becfdd8b4d1d64f6a452aea6ab</title>
<g id="a_node2"><a xlink:href="dir_548d85becfdd8b4d1d64f6a452aea6ab.html" target="_top" xlink:title="Compiler">
<polygon fill="white" stroke="red" points="157.5,-108 96.5,-108 96.5,-72 157.5,-72 157.5,-108"/>
<text text-anchor="middle" x="127" y="-87.5" font-family="Helvetica,sans-Serif" font-size="10.00">Compiler</text>
</a>
</g>
</g>
<!-- dir_548d85becfdd8b4d1d64f6a452aea6ab&#45;&gt;dir_d44c64559bbebec7f509842c48db8b23 -->
<g id="edge1" class="edge">
<title>dir_548d85becfdd8b4d1d64f6a452aea6ab&#45;&gt;dir_d44c64559bbebec7f509842c48db8b23</title>
<path fill="none" stroke="black" d="M127,-71.7C127,-63.98 127,-54.71 127,-46.11"/>
<polygon fill="black" stroke="black" points="130.5,-46.1 127,-36.1 123.5,-46.1 130.5,-46.1"/>
<g id="a_edge1&#45;headlabel"><a xlink:href="dir_000031_000000.html" target="_top" xlink:title="38">
<text text-anchor="middle" x="133.34" y="-47.2" font-family="Helvetica,sans-Serif" font-size="10.00">38</text>
</a>
</g>
</g>
<!-- dir_9600556d5cc28570e4ccd195a3befa41 -->
<g id="node3" class="node">
<title>dir_9600556d5cc28570e4ccd195a3befa41</title>
<g id="a_node3"><a xlink:href="dir_9600556d5cc28570e4ccd195a3befa41.html" target="_top" xlink:title="VM">
<polygon fill="white" stroke="red" points="78,-108 24,-108 24,-72 78,-72 78,-108"/>
<text text-anchor="middle" x="51" y="-87.5" font-family="Helvetica,sans-Serif" font-size="10.00">VM</text>
</a>
</g>
</g>
<!-- dir_9600556d5cc28570e4ccd195a3befa41&#45;&gt;dir_d44c64559bbebec7f509842c48db8b23 -->
<g id="edge2" class="edge">
<title>dir_9600556d5cc28570e4ccd195a3befa41&#45;&gt;dir_d44c64559bbebec7f509842c48db8b23</title>
<path fill="none" stroke="black" d="M69.79,-71.7C79.17,-63.05 90.68,-52.45 100.91,-43.03"/>
<polygon fill="black" stroke="black" points="103.45,-45.45 108.43,-36.1 98.7,-40.3 103.45,-45.45"/>
<g id="a_edge2&#45;headlabel"><a xlink:href="dir_000037_000000.html" target="_top" xlink:title="19">
<text text-anchor="middle" x="102.72" y="-47.48" font-family="Helvetica,sans-Serif" font-size="10.00">19</text>
</a>
</g>
</g>
</g>
</svg>
