<?xml version="1.0" encoding="UTF-8" standalone="no"?>
<!DOCTYPE svg PUBLIC "-//W3C//DTD SVG 1.1//EN"
 "http://www.w3.org/Graphics/SVG/1.1/DTD/svg11.dtd">
<!-- Generated by graphviz version 2.43.0 (0)
 -->
<!-- Title: /home/fola/code/Ark/src/arkreactor/Compiler/Macros Pages: 1 -->
<svg width="192pt" height="159pt"
 viewBox="0.00 0.00 192.00 159.00" xmlns="http://www.w3.org/2000/svg" xmlns:xlink="http://www.w3.org/1999/xlink">
<g id="graph0" class="graph" transform="scale(1 1) rotate(0) translate(4 155)">
<title>/home/fola/code/Ark/src/arkreactor/Compiler/Macros</title>
<polygon fill="white" stroke="transparent" points="-4,4 -4,-155 188,-155 188,4 -4,4"/>
<g id="clust1" class="cluster">
<title>clusterdir_548d85becfdd8b4d1d64f6a452aea6ab</title>
<g id="a_clust1"><a xlink:href="dir_548d85becfdd8b4d1d64f6a452aea6ab.html" target="_top" xlink:title="Compiler">
<polygon fill="#ddddee" stroke="black" points="8,-56 8,-143 176,-143 176,-56 8,-56"/>
<text text-anchor="middle" x="92" y="-131" font-family="Helvetica,sans-Serif" font-size="10.00">Compiler</text>
</a>
</g>
</g>
<g id="clust2" class="cluster">
<title>clusterdir_b9cbe36700296659acef612d0d107ef6</title>
<g id="a_clust2"><a xlink:href="dir_b9cbe36700296659acef612d0d107ef6.html" target="_top">
<polygon fill="#eeeeff" stroke="black" points="16,-64 16,-116 168,-116 168,-64 16,-64"/>
</a>
</g>
</g>
<!-- dir_b9cbe36700296659acef612d0d107ef6 -->
<g id="node1" class="node">
<title>dir_b9cbe36700296659acef612d0d107ef6</title>
<text text-anchor="middle" x="133" y="-87.5" font-family="Helvetica,sans-Serif" font-size="10.00">Macros</text>
</g>
<!-- dir_cfa9778ddee3bfdde39b0361cb5ec6f6 -->
<g id="node2" class="node">
<title>dir_cfa9778ddee3bfdde39b0361cb5ec6f6</title>
<g id="a_node2"><a xlink:href="dir_cfa9778ddee3bfdde39b0361cb5ec6f6.html" target="_top" xlink:title="Executors">
<polygon fill="white" stroke="black" points="88,-108 24,-108 24,-72 88,-72 88,-108"/>
<text text-anchor="middle" x="56" y="-87.5" font-family="Helvetica,sans-Serif" font-size="10.00">Executors</text>
</a>
</g>
</g>
<!-- dir_d44c64559bbebec7f509842c48db8b23 -->
<g id="node3" class="node">
<title>dir_d44c64559bbebec7f509842c48db8b23</title>
<g id="a_node3"><a xlink:href="dir_d44c64559bbebec7f509842c48db8b23.html" target="_top" xlink:title="include">
<polygon fill="white" stroke="red" points="83,-36 29,-36 29,0 83,0 83,-36"/>
<text text-anchor="middle" x="56" y="-15.5" font-family="Helvetica,sans-Serif" font-size="10.00">include</text>
</a>
</g>
</g>
<!-- dir_cfa9778ddee3bfdde39b0361cb5ec6f6&#45;&gt;dir_d44c64559bbebec7f509842c48db8b23 -->
<g id="edge1" class="edge">
<title>dir_cfa9778ddee3bfdde39b0361cb5ec6f6&#45;&gt;dir_d44c64559bbebec7f509842c48db8b23</title>
<path fill="none" stroke="black" d="M56,-71.7C56,-63.98 56,-54.71 56,-46.11"/>
<polygon fill="black" stroke="black" points="59.5,-46.1 56,-36.1 52.5,-46.1 59.5,-46.1"/>
<g id="a_edge1&#45;headlabel"><a xlink:href="dir_000034_000000.html" target="_top" xlink:title="3">
<text text-anchor="middle" x="62.34" y="-47.2" font-family="Helvetica,sans-Serif" font-size="10.00">3</text>
</a>
</g>
</g>
</g>
</svg>
