<?xml version="1.0" encoding="UTF-8" standalone="no"?>
<!DOCTYPE svg PUBLIC "-//W3C//DTD SVG 1.1//EN"
 "http://www.w3.org/Graphics/SVG/1.1/DTD/svg11.dtd">
<!-- Generated by graphviz version 2.49.0 (20210828.1703)
 -->
<!-- Title: C:/Users/folae/Documents/Code/Big&#45;Projects/ArkScript/Ark/src/arkreactor Pages: 1 -->
<svg width="262pt" height="159pt"
 viewBox="0.00 0.00 262.00 159.00" xmlns="http://www.w3.org/2000/svg" xmlns:xlink="http://www.w3.org/1999/xlink">
<g id="graph0" class="graph" transform="scale(1 1) rotate(0) translate(4 155)">
<title>C:/Users/folae/Documents/Code/Big&#45;Projects/ArkScript/Ark/src/arkreactor</title>
<polygon fill="white" stroke="transparent" points="-4,4 -4,-155 258,-155 258,4 -4,4"/>
<g id="clust1" class="cluster">
<title>clusterdir_68267d1309a1af8e8297ef4c3efbcdba</title>
<g id="a_clust1"><a xlink:href="dir_68267d1309a1af8e8297ef4c3efbcdba.html" target="_top" xlink:title="src">
<polygon fill="#ddddee" stroke="black" points="8,-56 8,-143 246,-143 246,-56 8,-56"/>
<text text-anchor="middle" x="127" y="-131" font-family="Helvetica,sans-Serif" font-size="10.00">src</text>
</a>
</g>
</g>
<g id="clust2" class="cluster">
<title>clusterdir_e0d450b481c7e7e5abacff9799e54b3d</title>
<g id="a_clust2"><a xlink:href="dir_e0d450b481c7e7e5abacff9799e54b3d.html" target="_top">
<polygon fill="#eeeeff" stroke="black" points="16,-64 16,-116 238,-116 238,-64 16,-64"/>
</a>
</g>
</g>
<!-- dir_e0d450b481c7e7e5abacff9799e54b3d -->
<g id="node1" class="node">
<title>dir_e0d450b481c7e7e5abacff9799e54b3d</title>
<text text-anchor="middle" x="200" y="-87.5" font-family="Helvetica,sans-Serif" font-size="10.00">arkreactor</text>
</g>
<!-- dir_d44c64559bbebec7f509842c48db8b23 -->
<g id="node4" class="node">
<title>dir_d44c64559bbebec7f509842c48db8b23</title>
<g id="a_node4"><a xlink:href="dir_d44c64559bbebec7f509842c48db8b23.html" target="_top" xlink:title="include">
<polygon fill="white" stroke="red" points="151,-36 97,-36 97,0 151,0 151,-36"/>
<text text-anchor="middle" x="124" y="-15.5" font-family="Helvetica,sans-Serif" font-size="10.00">include</text>
</a>
</g>
</g>
<!-- dir_e0d450b481c7e7e5abacff9799e54b3d&#45;&gt;dir_d44c64559bbebec7f509842c48db8b23 -->
<g id="edge3" class="edge">
<title>dir_e0d450b481c7e7e5abacff9799e54b3d&#45;&gt;dir_d44c64559bbebec7f509842c48db8b23</title>
<path fill="none" stroke="black" d="M181.21,-71.7C171.83,-63.05 160.32,-52.45 150.09,-43.03"/>
<polygon fill="black" stroke="black" points="152.3,-40.3 142.57,-36.1 147.55,-45.45 152.3,-40.3"/>
<g id="a_edge3&#45;headlabel"><a xlink:href="dir_000012_000000.html" target="_top" xlink:title="53">
<text text-anchor="middle" x="156.86" y="-38.15" font-family="Helvetica,sans-Serif" font-size="10.00">53</text>
</a>
</g>
</g>
<!-- dir_548d85becfdd8b4d1d64f6a452aea6ab -->
<g id="node2" class="node">
<title>dir_548d85becfdd8b4d1d64f6a452aea6ab</title>
<g id="a_node2"><a xlink:href="dir_548d85becfdd8b4d1d64f6a452aea6ab.html" target="_top" xlink:title="Compiler">
<polygon fill="white" stroke="red" points="151.5,-108 96.5,-108 96.5,-72 151.5,-72 151.5,-108"/>
<text text-anchor="middle" x="124" y="-87.5" font-family="Helvetica,sans-Serif" font-size="10.00">Compiler</text>
</a>
</g>
</g>
<!-- dir_548d85becfdd8b4d1d64f6a452aea6ab&#45;&gt;dir_d44c64559bbebec7f509842c48db8b23 -->
<g id="edge1" class="edge">
<title>dir_548d85becfdd8b4d1d64f6a452aea6ab&#45;&gt;dir_d44c64559bbebec7f509842c48db8b23</title>
<path fill="none" stroke="black" d="M124,-71.7C124,-63.98 124,-54.71 124,-46.11"/>
<polygon fill="black" stroke="black" points="127.5,-46.1 124,-36.1 120.5,-46.1 127.5,-46.1"/>
<g id="a_edge1&#45;headlabel"><a xlink:href="dir_000013_000000.html" target="_top" xlink:title="37">
<text text-anchor="middle" x="130.34" y="-47.2" font-family="Helvetica,sans-Serif" font-size="10.00">37</text>
</a>
</g>
</g>
<!-- dir_9600556d5cc28570e4ccd195a3befa41 -->
<g id="node3" class="node">
<title>dir_9600556d5cc28570e4ccd195a3befa41</title>
<g id="a_node3"><a xlink:href="dir_9600556d5cc28570e4ccd195a3befa41.html" target="_top" xlink:title="VM">
<polygon fill="white" stroke="red" points="78,-108 24,-108 24,-72 78,-72 78,-108"/>
<text text-anchor="middle" x="51" y="-87.5" font-family="Helvetica,sans-Serif" font-size="10.00">VM</text>
</a>
</g>
</g>
<!-- dir_9600556d5cc28570e4ccd195a3befa41&#45;&gt;dir_d44c64559bbebec7f509842c48db8b23 -->
<g id="edge2" class="edge">
<title>dir_9600556d5cc28570e4ccd195a3befa41&#45;&gt;dir_d44c64559bbebec7f509842c48db8b23</title>
<path fill="none" stroke="black" d="M69.04,-71.7C78.06,-63.05 89.12,-52.45 98.94,-43.03"/>
<polygon fill="black" stroke="black" points="101.37,-45.55 106.16,-36.1 96.52,-40.5 101.37,-45.55"/>
<g id="a_edge2&#45;headlabel"><a xlink:href="dir_000019_000000.html" target="_top" xlink:title="12">
<text text-anchor="middle" x="100.74" y="-47.59" font-family="Helvetica,sans-Serif" font-size="10.00">12</text>
</a>
</g>
</g>
</g>
</svg>
