<?xml version="1.0" encoding="UTF-8" standalone="no"?>
<!DOCTYPE svg PUBLIC "-//W3C//DTD SVG 1.1//EN"
 "http://www.w3.org/Graphics/SVG/1.1/DTD/svg11.dtd">
<!-- Generated by graphviz version 2.49.0 (20210828.1703)
 -->
<!-- Title: Graphical Class Hierarchy Pages: 1 -->
<svg width="527pt" height="370pt"
 viewBox="0.00 0.00 527.00 370.00" xmlns="http://www.w3.org/2000/svg" xmlns:xlink="http://www.w3.org/1999/xlink">
<g id="graph0" class="graph" transform="scale(1 1) rotate(0) translate(4 366)">
<title>Graphical Class Hierarchy</title>
<polygon fill="white" stroke="transparent" points="-4,4 -4,-366 523,-366 523,4 -4,4"/>
<!-- Node5 -->
<g id="node1" class="node">
<title>Node5</title>
<g id="a_node1"><a xlink:title=" ">
<polygon fill="white" stroke="#bfbfbf" points="0,-171.5 0,-190.5 78,-190.5 78,-171.5 0,-171.5"/>
<text text-anchor="middle" x="39" y="-178.5" font-family="Helvetica,sans-Serif" font-size="10.00">std::exception</text>
</a>
</g>
</g>
<!-- Node6 -->
<g id="node2" class="node">
<title>Node6</title>
<g id="a_node2"><a xlink:title=" ">
<polygon fill="white" stroke="#bfbfbf" points="114,-171.5 114,-190.5 207,-190.5 207,-171.5 114,-171.5"/>
<text text-anchor="middle" x="160.5" y="-178.5" font-family="Helvetica,sans-Serif" font-size="10.00">std::runtime_error</text>
</a>
</g>
</g>
<!-- Node5&#45;&gt;Node6 -->
<g id="edge1" class="edge">
<title>Node5&#45;&gt;Node6</title>
<path fill="none" stroke="midnightblue" d="M88.23,-181C96.66,-181 105.42,-181 113.79,-181"/>
<polygon fill="midnightblue" stroke="midnightblue" points="88.14,-177.5 78.14,-181 88.14,-184.5 88.14,-177.5"/>
</g>
<!-- Node0 -->
<g id="node3" class="node">
<title>Node0</title>
<g id="a_node3"><a xlink:href="d3/df9/classArk_1_1AssertionFailed.html" target="_top" xlink:title="An assertion error, only triggered from ArkScript code through (assert expr error&#45;message)">
<polygon fill="white" stroke="black" points="257.5,-342.5 257.5,-361.5 362.5,-361.5 362.5,-342.5 257.5,-342.5"/>
<text text-anchor="middle" x="310" y="-349.5" font-family="Helvetica,sans-Serif" font-size="10.00">Ark::AssertionFailed</text>
</a>
</g>
</g>
<!-- Node6&#45;&gt;Node0 -->
<g id="edge2" class="edge">
<title>Node6&#45;&gt;Node0</title>
<path fill="none" stroke="midnightblue" d="M166.58,-200.53C176.04,-232.96 199.45,-297.82 243,-333 247.82,-336.9 253.41,-339.99 259.25,-342.46"/>
<polygon fill="midnightblue" stroke="midnightblue" points="169.85,-199.22 163.81,-190.51 163.11,-201.08 169.85,-199.22"/>
</g>
<!-- Node8 -->
<g id="node4" class="node">
<title>Node8</title>
<g id="a_node4"><a xlink:href="d4/d64/classArk_1_1CompilationError.html" target="_top" xlink:title="CompilationError thrown by the compiler.">
<polygon fill="white" stroke="black" points="255,-304.5 255,-323.5 365,-323.5 365,-304.5 255,-304.5"/>
<text text-anchor="middle" x="310" y="-311.5" font-family="Helvetica,sans-Serif" font-size="10.00">Ark::CompilationError</text>
</a>
</g>
</g>
<!-- Node6&#45;&gt;Node8 -->
<g id="edge3" class="edge">
<title>Node6&#45;&gt;Node8</title>
<path fill="none" stroke="midnightblue" d="M170.02,-199.91C182.43,-225.34 207.9,-270.19 243,-295 248.45,-298.85 254.68,-301.93 261.08,-304.39"/>
<polygon fill="midnightblue" stroke="midnightblue" points="173.07,-198.17 165.64,-190.62 166.73,-201.15 173.07,-198.17"/>
</g>
<!-- Node9 -->
<g id="node5" class="node">
<title>Node9</title>
<g id="a_node5"><a xlink:href="d6/d43/classArk_1_1Error.html" target="_top" xlink:title=" ">
<polygon fill="white" stroke="black" points="280.5,-266.5 280.5,-285.5 339.5,-285.5 339.5,-266.5 280.5,-266.5"/>
<text text-anchor="middle" x="310" y="-273.5" font-family="Helvetica,sans-Serif" font-size="10.00">Ark::Error</text>
</a>
</g>
</g>
<!-- Node6&#45;&gt;Node9 -->
<g id="edge4" class="edge">
<title>Node6&#45;&gt;Node9</title>
<path fill="none" stroke="midnightblue" d="M175.73,-198.38C190.74,-215.64 215.95,-241.68 243,-257 254.41,-263.46 268.2,-267.88 280.22,-270.82"/>
<polygon fill="midnightblue" stroke="midnightblue" points="178.35,-196.06 169.21,-190.7 173.01,-200.59 178.35,-196.06"/>
</g>
<!-- Node11 -->
<g id="node7" class="node">
<title>Node11</title>
<g id="a_node7"><a xlink:href="d7/d7c/classArk_1_1MacroProcessingError.html" target="_top" xlink:title="MacroProcessingError thrown by the compiler.">
<polygon fill="white" stroke="black" points="243,-228.5 243,-247.5 377,-247.5 377,-228.5 243,-228.5"/>
<text text-anchor="middle" x="310" y="-235.5" font-family="Helvetica,sans-Serif" font-size="10.00">Ark::MacroProcessingError</text>
</a>
</g>
</g>
<!-- Node6&#45;&gt;Node11 -->
<g id="edge6" class="edge">
<title>Node6&#45;&gt;Node11</title>
<path fill="none" stroke="midnightblue" d="M189,-195.13C204.59,-202.81 224.6,-212.11 243,-219 252.27,-222.47 262.46,-225.69 272.01,-228.45"/>
<polygon fill="midnightblue" stroke="midnightblue" points="190.43,-191.93 179.92,-190.6 187.3,-198.2 190.43,-191.93"/>
</g>
<!-- Node12 -->
<g id="node8" class="node">
<title>Node12</title>
<g id="a_node8"><a xlink:href="d6/d47/classArk_1_1OptimizerError.html" target="_top" xlink:title="OptimizerError thrown by the AST optimizer.">
<polygon fill="white" stroke="black" points="259.5,-190.5 259.5,-209.5 360.5,-209.5 360.5,-190.5 259.5,-190.5"/>
<text text-anchor="middle" x="310" y="-197.5" font-family="Helvetica,sans-Serif" font-size="10.00">Ark::OptimizerError</text>
</a>
</g>
</g>
<!-- Node6&#45;&gt;Node12 -->
<g id="edge7" class="edge">
<title>Node6&#45;&gt;Node12</title>
<path fill="none" stroke="midnightblue" d="M217.65,-188.23C231.36,-190 245.94,-191.88 259.33,-193.6"/>
<polygon fill="midnightblue" stroke="midnightblue" points="217.73,-184.71 207.36,-186.91 216.83,-191.66 217.73,-184.71"/>
</g>
<!-- Node13 -->
<g id="node9" class="node">
<title>Node13</title>
<g id="a_node9"><a xlink:href="d9/d1a/classArk_1_1ParseError.html" target="_top" xlink:title="ParseError thrown by the parser.">
<polygon fill="white" stroke="black" points="268,-152.5 268,-171.5 352,-171.5 352,-152.5 268,-152.5"/>
<text text-anchor="middle" x="310" y="-159.5" font-family="Helvetica,sans-Serif" font-size="10.00">Ark::ParseError</text>
</a>
</g>
</g>
<!-- Node6&#45;&gt;Node13 -->
<g id="edge8" class="edge">
<title>Node6&#45;&gt;Node13</title>
<path fill="none" stroke="midnightblue" d="M217.53,-173.78C234.19,-171.64 252.13,-169.33 267.67,-167.32"/>
<polygon fill="midnightblue" stroke="midnightblue" points="216.83,-170.34 207.36,-175.09 217.73,-177.29 216.83,-170.34"/>
</g>
<!-- Node14 -->
<g id="node10" class="node">
<title>Node14</title>
<g id="a_node10"><a xlink:href="d8/d05/classArk_1_1PowError.html" target="_top" xlink:title="A pow error triggered when we can&#39;t do a pow b.">
<polygon fill="white" stroke="black" points="271.5,-114.5 271.5,-133.5 348.5,-133.5 348.5,-114.5 271.5,-114.5"/>
<text text-anchor="middle" x="310" y="-121.5" font-family="Helvetica,sans-Serif" font-size="10.00">Ark::PowError</text>
</a>
</g>
</g>
<!-- Node6&#45;&gt;Node14 -->
<g id="edge9" class="edge">
<title>Node6&#45;&gt;Node14</title>
<path fill="none" stroke="midnightblue" d="M189,-166.87C204.59,-159.19 224.6,-149.89 243,-143 252.27,-139.53 262.46,-136.31 272.01,-133.55"/>
<polygon fill="midnightblue" stroke="midnightblue" points="187.3,-163.8 179.92,-171.4 190.43,-170.07 187.3,-163.8"/>
</g>
<!-- Node15 -->
<g id="node11" class="node">
<title>Node15</title>
<g id="a_node11"><a xlink:href="dd/d6d/classArk_1_1SyntaxError.html" target="_top" xlink:title="SyntaxError thrown by the lexer.">
<polygon fill="white" stroke="black" points="265.5,-76.5 265.5,-95.5 354.5,-95.5 354.5,-76.5 265.5,-76.5"/>
<text text-anchor="middle" x="310" y="-83.5" font-family="Helvetica,sans-Serif" font-size="10.00">Ark::SyntaxError</text>
</a>
</g>
</g>
<!-- Node6&#45;&gt;Node15 -->
<g id="edge10" class="edge">
<title>Node6&#45;&gt;Node15</title>
<path fill="none" stroke="midnightblue" d="M175.73,-163.62C190.74,-146.36 215.95,-120.32 243,-105 249.85,-101.12 257.55,-97.98 265.21,-95.45"/>
<polygon fill="midnightblue" stroke="midnightblue" points="173.01,-161.41 169.21,-171.3 178.35,-165.94 173.01,-161.41"/>
</g>
<!-- Node16 -->
<g id="node12" class="node">
<title>Node16</title>
<g id="a_node12"><a xlink:href="d2/d26/classArk_1_1TypeError.html" target="_top" xlink:title="A type error triggered when types don&#39;t match.">
<polygon fill="white" stroke="black" points="270,-38.5 270,-57.5 350,-57.5 350,-38.5 270,-38.5"/>
<text text-anchor="middle" x="310" y="-45.5" font-family="Helvetica,sans-Serif" font-size="10.00">Ark::TypeError</text>
</a>
</g>
</g>
<!-- Node6&#45;&gt;Node16 -->
<g id="edge11" class="edge">
<title>Node6&#45;&gt;Node16</title>
<path fill="none" stroke="midnightblue" d="M170.02,-162.09C182.43,-136.66 207.9,-91.81 243,-67 250.89,-61.43 260.39,-57.48 269.7,-54.68"/>
<polygon fill="midnightblue" stroke="midnightblue" points="166.73,-160.85 165.64,-171.38 173.07,-163.83 166.73,-160.85"/>
</g>
<!-- Node17 -->
<g id="node13" class="node">
<title>Node17</title>
<g id="a_node13"><a xlink:href="da/d18/classArk_1_1ZeroDivisionError.html" target="_top" xlink:title="A special zero division error triggered when a number is divided by 0.">
<polygon fill="white" stroke="black" points="255,-0.5 255,-19.5 365,-19.5 365,-0.5 255,-0.5"/>
<text text-anchor="middle" x="310" y="-7.5" font-family="Helvetica,sans-Serif" font-size="10.00">Ark::ZeroDivisionError</text>
</a>
</g>
</g>
<!-- Node6&#45;&gt;Node17 -->
<g id="edge12" class="edge">
<title>Node6&#45;&gt;Node17</title>
<path fill="none" stroke="midnightblue" d="M166.58,-161.47C176.04,-129.04 199.45,-64.18 243,-29 247.82,-25.1 253.41,-22.01 259.25,-19.54"/>
<polygon fill="midnightblue" stroke="midnightblue" points="163.11,-160.92 163.81,-171.49 169.85,-162.78 163.11,-160.92"/>
</g>
<!-- Node10 -->
<g id="node6" class="node">
<title>Node10</title>
<g id="a_node6"><a xlink:href="d8/d25/classArk_1_1BetterTypeError.html" target="_top" xlink:title="A type error triggered when types don&#39;t match.">
<polygon fill="white" stroke="black" points="413,-266.5 413,-285.5 519,-285.5 519,-266.5 413,-266.5"/>
<text text-anchor="middle" x="466" y="-273.5" font-family="Helvetica,sans-Serif" font-size="10.00">Ark::BetterTypeError</text>
</a>
</g>
</g>
<!-- Node9&#45;&gt;Node10 -->
<g id="edge5" class="edge">
<title>Node9&#45;&gt;Node10</title>
<path fill="none" stroke="midnightblue" d="M349.75,-276C368.87,-276 392.21,-276 412.87,-276"/>
<polygon fill="midnightblue" stroke="midnightblue" points="349.61,-272.5 339.61,-276 349.61,-279.5 349.61,-272.5"/>
</g>
</g>
</svg>
