<?xml version="1.0" encoding="UTF-8" standalone="no"?>
<!DOCTYPE svg PUBLIC "-//W3C//DTD SVG 1.1//EN"
 "http://www.w3.org/Graphics/SVG/1.1/DTD/svg11.dtd">
<!-- Generated by graphviz version 10.0.1 (20240210.2158)
 -->
<!-- Title: /Users/fola/Documents/ArkScript/Ark/src/arkreactor/Exceptions.cpp Pages: 1 -->
<!--zoomable 227 -->
<svg id="main" version="1.1" xmlns="http://www.w3.org/2000/svg" xmlns:xlink="http://www.w3.org/1999/xlink" xml:space="preserve" onload="init(evt)">
<style type="text/css"><![CDATA[
.edge:hover path { stroke: red; }
.edge:hover polygon { stroke: red; fill: red; }
]]></style>
<script type="text/javascript"><![CDATA[
var edges = document.getElementsByTagName('g');
if (edges && edges.length) {
  for (var i=0;i<edges.length;i++) {
    if (edges[i].id.substr(0,4)=='edge') {
      edges[i].setAttribute('class','edge');
    }
  }
}
]]></script>
        <defs>
                <circle id="rim" cx="0" cy="0" r="7"/>
                <circle id="rim2" cx="0" cy="0" r="3.5"/>
                <g id="zoomPlus">
                        <use xlink:href="#rim" fill="#404040">
                                <set attributeName="fill" to="#808080" begin="zoomplus.mouseover" end="zoomplus.mouseout"/>
                        </use>
                        <path d="M-4,0h8M0,-4v8" fill="none" stroke="white" stroke-width="1.5" pointer-events="none"/>
                </g>
                <g id="zoomMin">
                        <use xlink:href="#rim" fill="#404040">
                                <set attributeName="fill" to="#808080" begin="zoomminus.mouseover" end="zoomminus.mouseout"/>
                        </use>
                        <path d="M-4,0h8" fill="none" stroke="white" stroke-width="1.5" pointer-events="none"/>
                </g>
                <g id="dirArrow">
                        <path fill="none" stroke="white" stroke-width="1.5" d="M0,-3.0v7 M-2.5,-0.5L0,-3.0L2.5,-0.5"/>
                </g>
               <g id="resetDef">
                       <use xlink:href="#rim2" fill="#404040">
                               <set attributeName="fill" to="#808080" begin="reset.mouseover" end="reset.mouseout"/>
                       </use>
               </g>
        </defs>

<script type="text/javascript">
var viewWidth = 1502;
var viewHeight = 227;
var sectionId = 'dynsection-0';
</script>
<script xlink:href="../../svgpan.js"/>
<svg id="graph" class="graph">
<g id="viewport">
<title>/Users/fola/Documents/ArkScript/Ark/src/arkreactor/Exceptions.cpp</title>
<!-- Node1 -->
<g id="node1" class="node">
<title>Node1</title>
<g id="a_node1"><a xlink:title=" ">
<polygon fill="#999999" stroke="#666666" points="869.12,-218.75 728.62,-218.75 728.62,-177 869.12,-177 869.12,-218.75"/>
<text text-anchor="start" x="736.62" y="-205.25" font-family="Helvetica,sans-Serif" font-size="10.00">/Users/fola/Documents</text>
<text text-anchor="start" x="736.62" y="-194" font-family="Helvetica,sans-Serif" font-size="10.00">/ArkScript/Ark/src/arkreactor</text>
<text text-anchor="middle" x="798.88" y="-182.75" font-family="Helvetica,sans-Serif" font-size="10.00">/Exceptions.cpp</text>
</a>
</g>
</g>
<!-- Node2 -->
<g id="node2" class="node">
<title>Node2</title>
<g id="a_node2"><a xlink:href="../../d2/de9/Exceptions_8hpp.html" target="_top" xlink:title="ArkScript homemade exceptions.">
<polygon fill="white" stroke="#666666" points="849.62,-141 748.12,-141 748.12,-121.75 849.62,-121.75 849.62,-141"/>
<text text-anchor="middle" x="798.88" y="-127.5" font-family="Helvetica,sans-Serif" font-size="10.00">Ark/Exceptions.hpp</text>
</a>
</g>
</g>
<!-- Node1&#45;&gt;Node2 -->
<g id="edge1" class="edge">
<title>Node1&#45;&gt;Node2</title>
<path fill="none" stroke="#63b8ff" d="M798.88,-176.82C798.88,-169.15 798.88,-160.39 798.88,-152.7"/>
<polygon fill="#63b8ff" stroke="#63b8ff" points="802.38,-152.96 798.88,-142.96 795.38,-152.96 802.38,-152.96"/>
</g>
<!-- Node13 -->
<g id="node13" class="node">
<title>Node13</title>
<g id="a_node13"><a xlink:href="../../d5/d3a/proxy_8hpp.html" target="_top" xlink:title=" ">
<polygon fill="white" stroke="#666666" points="1393.25,-141 1292.5,-141 1292.5,-121.75 1393.25,-121.75 1393.25,-141"/>
<text text-anchor="middle" x="1342.88" y="-127.5" font-family="Helvetica,sans-Serif" font-size="10.00">termcolor/proxy.hpp</text>
</a>
</g>
</g>
<!-- Node1&#45;&gt;Node13 -->
<g id="edge13" class="edge">
<title>Node1&#45;&gt;Node13</title>
<path fill="none" stroke="#63b8ff" d="M869.44,-188.51C976.7,-175.79 1179.06,-151.8 1280.95,-139.72"/>
<polygon fill="#63b8ff" stroke="#63b8ff" points="1281.25,-143.21 1290.77,-138.55 1280.42,-136.26 1281.25,-143.21"/>
</g>
<!-- Node16 -->
<g id="node16" class="node">
<title>Node16</title>
<g id="a_node16"><a xlink:title=" ">
<polygon fill="#e0e0e0" stroke="#999999" points="1462.5,-141 1411.25,-141 1411.25,-121.75 1462.5,-121.75 1462.5,-141"/>
<text text-anchor="middle" x="1436.88" y="-127.5" font-family="Helvetica,sans-Serif" font-size="10.00">sstream</text>
</a>
</g>
</g>
<!-- Node1&#45;&gt;Node16 -->
<g id="edge16" class="edge">
<title>Node1&#45;&gt;Node16</title>
<path fill="none" stroke="#63b8ff" d="M869.41,-193.76C980.35,-188.1 1202.42,-173.75 1399.8,-141.09"/>
<polygon fill="#63b8ff" stroke="#63b8ff" points="1400.19,-144.57 1409.48,-139.47 1399.04,-137.67 1400.19,-144.57"/>
</g>
<!-- Node17 -->
<g id="node17" class="node">
<title>Node17</title>
<g id="a_node17"><a xlink:href="../../d6/de9/Constants_8hpp.html" target="_top" xlink:title="Constants used by ArkScript.">
<polygon fill="white" stroke="#666666" points="1219.75,-141 1122,-141 1122,-121.75 1219.75,-121.75 1219.75,-141"/>
<text text-anchor="middle" x="1170.88" y="-127.5" font-family="Helvetica,sans-Serif" font-size="10.00">Ark/Constants.hpp</text>
</a>
</g>
</g>
<!-- Node1&#45;&gt;Node17 -->
<g id="edge17" class="edge">
<title>Node1&#45;&gt;Node17</title>
<path fill="none" stroke="#63b8ff" d="M869.28,-184.67C938.97,-172.58 1044.54,-154.28 1110.51,-142.84"/>
<polygon fill="#63b8ff" stroke="#63b8ff" points="1110.8,-146.34 1120.05,-141.19 1109.6,-139.45 1110.8,-146.34"/>
</g>
<!-- Node21 -->
<g id="node21" class="node">
<title>Node21</title>
<g id="a_node21"><a xlink:href="../../d4/dcb/Ark_2Utils_8hpp.html" target="_top" xlink:title="Lots of utilities about string, filesystem and more.">
<polygon fill="white" stroke="#666666" points="129.38,-80.12 56.38,-80.12 56.38,-60.88 129.38,-60.88 129.38,-80.12"/>
<text text-anchor="middle" x="92.88" y="-66.62" font-family="Helvetica,sans-Serif" font-size="10.00">Ark/Utils.hpp</text>
</a>
</g>
</g>
<!-- Node1&#45;&gt;Node21 -->
<g id="edge21" class="edge">
<title>Node1&#45;&gt;Node21</title>
<path fill="none" stroke="#63b8ff" d="M728.16,-193.58C631.08,-188.01 451.55,-173.92 301.88,-141 238.04,-126.96 166.27,-100.68 125.63,-84.77"/>
<polygon fill="#63b8ff" stroke="#63b8ff" points="127.01,-81.56 116.43,-81.13 124.44,-88.07 127.01,-81.56"/>
</g>
<!-- Node24 -->
<g id="node24" class="node">
<title>Node24</title>
<g id="a_node24"><a xlink:href="../../d4/dc0/Files_8hpp.html" target="_top" xlink:title="Lots of utilities about the filesystem.">
<polygon fill="white" stroke="#666666" points="220.75,-80.12 147,-80.12 147,-60.88 220.75,-60.88 220.75,-80.12"/>
<text text-anchor="middle" x="183.88" y="-66.62" font-family="Helvetica,sans-Serif" font-size="10.00">Ark/Files.hpp</text>
</a>
</g>
</g>
<!-- Node1&#45;&gt;Node24 -->
<g id="edge26" class="edge">
<title>Node1&#45;&gt;Node24</title>
<path fill="none" stroke="#63b8ff" d="M728.35,-192.84C642.04,-186.74 491.94,-172.37 366.88,-141 311.01,-126.99 248.91,-101.07 213.32,-85.15"/>
<polygon fill="#63b8ff" stroke="#63b8ff" points="215.09,-82.11 204.54,-81.18 212.21,-88.49 215.09,-82.11"/>
</g>
<!-- Node27 -->
<g id="node27" class="node">
<title>Node27</title>
<g id="a_node27"><a xlink:href="../../d7/dc6/Node_8hpp.html" target="_top" xlink:title="AST node used by the parser, optimizer and compiler.">
<polygon fill="white" stroke="#666666" points="516.12,-141 375.62,-141 375.62,-121.75 516.12,-121.75 516.12,-141"/>
<text text-anchor="middle" x="445.88" y="-127.5" font-family="Helvetica,sans-Serif" font-size="10.00">Ark/Compiler/AST/Node.hpp</text>
</a>
</g>
</g>
<!-- Node1&#45;&gt;Node27 -->
<g id="edge31" class="edge">
<title>Node1&#45;&gt;Node27</title>
<path fill="none" stroke="#63b8ff" d="M728.29,-183.98C663.42,-172.12 568.25,-154.74 506.67,-143.48"/>
<polygon fill="#63b8ff" stroke="#63b8ff" points="507.53,-140.08 497.07,-141.73 506.28,-146.97 507.53,-140.08"/>
</g>
<!-- Node3 -->
<g id="node3" class="node">
<title>Node3</title>
<g id="a_node3"><a xlink:title=" ">
<polygon fill="#e0e0e0" stroke="#999999" points="390.88,-19.25 350.88,-19.25 350.88,0 390.88,0 390.88,-19.25"/>
<text text-anchor="middle" x="370.88" y="-5.75" font-family="Helvetica,sans-Serif" font-size="10.00">string</text>
</a>
</g>
</g>
<!-- Node2&#45;&gt;Node3 -->
<g id="edge2" class="edge">
<title>Node2&#45;&gt;Node3</title>
<path fill="none" stroke="#63b8ff" d="M793.83,-121.3C784.18,-104.94 761.44,-70.75 731.88,-55.25 674.8,-25.34 479.3,-14.76 402.35,-11.7"/>
<polygon fill="#63b8ff" stroke="#63b8ff" points="402.7,-8.21 392.57,-11.32 402.43,-15.2 402.7,-8.21"/>
</g>
<!-- Node4 -->
<g id="node4" class="node">
<title>Node4</title>
<g id="a_node4"><a xlink:title=" ">
<polygon fill="#e0e0e0" stroke="#999999" points="332.38,-19.25 289.38,-19.25 289.38,0 332.38,0 332.38,-19.25"/>
<text text-anchor="middle" x="310.88" y="-5.75" font-family="Helvetica,sans-Serif" font-size="10.00">vector</text>
</a>
</g>
</g>
<!-- Node2&#45;&gt;Node4 -->
<g id="edge3" class="edge">
<title>Node2&#45;&gt;Node4</title>
<path fill="none" stroke="#63b8ff" d="M783.77,-121.27C769.87,-112.68 748.9,-99.15 731.88,-85.75 716.18,-73.4 717.08,-63.45 698.88,-55.25 556.74,8.78 501.11,-46.14 343.79,-19.21"/>
<polygon fill="#63b8ff" stroke="#63b8ff" points="344.73,-15.82 334.27,-17.49 343.49,-22.71 344.73,-15.82"/>
</g>
<!-- Node5 -->
<g id="node5" class="node">
<title>Node5</title>
<g id="a_node5"><a xlink:title=" ">
<polygon fill="#e0e0e0" stroke="#999999" points="976.25,-80.12 917.5,-80.12 917.5,-60.88 976.25,-60.88 976.25,-80.12"/>
<text text-anchor="middle" x="946.88" y="-66.62" font-family="Helvetica,sans-Serif" font-size="10.00">stdexcept</text>
</a>
</g>
</g>
<!-- Node2&#45;&gt;Node5 -->
<g id="edge4" class="edge">
<title>Node2&#45;&gt;Node5</title>
<path fill="none" stroke="#63b8ff" d="M821.68,-121.3C846.3,-111.51 885.76,-95.81 913.79,-84.66"/>
<polygon fill="#63b8ff" stroke="#63b8ff" points="914.89,-87.99 922.88,-81.04 912.3,-81.49 914.89,-87.99"/>
</g>
<!-- Node6 -->
<g id="node6" class="node">
<title>Node6</title>
<g id="a_node6"><a xlink:title=" ">
<polygon fill="#e0e0e0" stroke="#999999" points="1043.75,-80.12 994,-80.12 994,-60.88 1043.75,-60.88 1043.75,-80.12"/>
<text text-anchor="middle" x="1018.88" y="-66.62" font-family="Helvetica,sans-Serif" font-size="10.00">optional</text>
</a>
</g>
</g>
<!-- Node2&#45;&gt;Node6 -->
<g id="edge5" class="edge">
<title>Node2&#45;&gt;Node6</title>
<path fill="none" stroke="#63b8ff" d="M845.7,-121.33C883.67,-113.47 938.32,-100.98 984.88,-85.75 986.03,-85.37 987.2,-84.97 988.38,-84.55"/>
<polygon fill="#63b8ff" stroke="#63b8ff" points="989.46,-87.89 997.53,-81.03 986.94,-81.36 989.46,-87.89"/>
</g>
<!-- Node7 -->
<g id="node7" class="node">
<title>Node7</title>
<g id="a_node7"><a xlink:title=" ">
<polygon fill="#e0e0e0" stroke="#999999" points="689.5,-80.12 638.25,-80.12 638.25,-60.88 689.5,-60.88 689.5,-80.12"/>
<text text-anchor="middle" x="663.88" y="-66.62" font-family="Helvetica,sans-Serif" font-size="10.00">ostream</text>
</a>
</g>
</g>
<!-- Node2&#45;&gt;Node7 -->
<g id="edge6" class="edge">
<title>Node2&#45;&gt;Node7</title>
<path fill="none" stroke="#63b8ff" d="M778.08,-121.3C755.81,-111.6 720.26,-96.09 694.73,-84.96"/>
<polygon fill="#63b8ff" stroke="#63b8ff" points="696.43,-81.88 685.86,-81.09 693.63,-88.29 696.43,-81.88"/>
</g>
<!-- Node8 -->
<g id="node8" class="node">
<title>Node8</title>
<g id="a_node8"><a xlink:title=" ">
<polygon fill="#e0e0e0" stroke="#999999" points="1115.62,-80.12 1062.12,-80.12 1062.12,-60.88 1115.62,-60.88 1115.62,-80.12"/>
<text text-anchor="middle" x="1088.88" y="-66.62" font-family="Helvetica,sans-Serif" font-size="10.00">iostream</text>
</a>
</g>
</g>
<!-- Node2&#45;&gt;Node8 -->
<g id="edge7" class="edge">
<title>Node2&#45;&gt;Node8</title>
<path fill="none" stroke="#63b8ff" d="M849.67,-124.54C901.44,-117.87 983.72,-105.29 1052.88,-85.75 1054.45,-85.3 1056.05,-84.81 1057.66,-84.29"/>
<polygon fill="#63b8ff" stroke="#63b8ff" points="1058.53,-87.7 1066.76,-81.03 1056.16,-81.11 1058.53,-87.7"/>
</g>
<!-- Node9 -->
<g id="node9" class="node">
<title>Node9</title>
<g id="a_node9"><a xlink:href="../../db/d4e/utf8__char_8hpp.html" target="_top" xlink:title=" ">
<polygon fill="white" stroke="#666666" points="899.38,-85.75 784.38,-85.75 784.38,-55.25 899.38,-55.25 899.38,-85.75"/>
<text text-anchor="start" x="792.38" y="-72.25" font-family="Helvetica,sans-Serif" font-size="10.00">Ark/Compiler/AST/utf8</text>
<text text-anchor="middle" x="841.88" y="-61" font-family="Helvetica,sans-Serif" font-size="10.00">_char.hpp</text>
</a>
</g>
</g>
<!-- Node2&#45;&gt;Node9 -->
<g id="edge8" class="edge">
<title>Node2&#45;&gt;Node9</title>
<path fill="none" stroke="#63b8ff" d="M805.41,-121.43C810.5,-114.46 817.81,-104.45 824.56,-95.21"/>
<polygon fill="#63b8ff" stroke="#63b8ff" points="827.3,-97.39 830.37,-87.25 821.64,-93.27 827.3,-97.39"/>
</g>
<!-- Node12 -->
<g id="node12" class="node">
<title>Node12</title>
<g id="a_node12"><a xlink:href="../../d5/d40/Platform_8hpp.html" target="_top" xlink:title="ArkScript configuration macros.">
<polygon fill="white" stroke="#666666" points="620.62,-80.12 531.12,-80.12 531.12,-60.88 620.62,-60.88 620.62,-80.12"/>
<text text-anchor="middle" x="575.88" y="-66.62" font-family="Helvetica,sans-Serif" font-size="10.00">Ark/Platform.hpp</text>
</a>
</g>
</g>
<!-- Node2&#45;&gt;Node12 -->
<g id="edge12" class="edge">
<title>Node2&#45;&gt;Node12</title>
<path fill="none" stroke="#63b8ff" d="M764.02,-121.29C729.65,-112.32 675.62,-98.17 628.88,-85.75 626.14,-85.02 623.32,-84.27 620.47,-83.51"/>
<polygon fill="#63b8ff" stroke="#63b8ff" points="621.54,-80.17 610.97,-80.97 619.73,-86.94 621.54,-80.17"/>
</g>
<!-- Node9&#45;&gt;Node3 -->
<g id="edge10" class="edge">
<title>Node9&#45;&gt;Node3</title>
<path fill="none" stroke="#63b8ff" d="M784.18,-57.64C779.35,-56.78 774.53,-55.97 769.88,-55.25 633.74,-34.2 470,-19.06 402.41,-13.24"/>
<polygon fill="#63b8ff" stroke="#63b8ff" points="403.07,-9.79 392.81,-12.43 402.48,-16.76 403.07,-9.79"/>
</g>
<!-- Node10 -->
<g id="node10" class="node">
<title>Node10</title>
<g id="a_node10"><a xlink:title=" ">
<polygon fill="#e0e0e0" stroke="#999999" points="634.75,-19.25 597,-19.25 597,0 634.75,0 634.75,-19.25"/>
<text text-anchor="middle" x="615.88" y="-5.75" font-family="Helvetica,sans-Serif" font-size="10.00">array</text>
</a>
</g>
</g>
<!-- Node9&#45;&gt;Node10 -->
<g id="edge9" class="edge">
<title>Node9&#45;&gt;Node10</title>
<path fill="none" stroke="#63b8ff" d="M785.43,-54.8C741.26,-43.29 681.57,-27.74 646.06,-18.49"/>
<polygon fill="#63b8ff" stroke="#63b8ff" points="647.03,-15.12 636.47,-15.99 645.26,-21.9 647.03,-15.12"/>
</g>
<!-- Node11 -->
<g id="node11" class="node">
<title>Node11</title>
<g id="a_node11"><a xlink:title=" ">
<polygon fill="#e0e0e0" stroke="#999999" points="861.5,-19.25 822.25,-19.25 822.25,0 861.5,0 861.5,-19.25"/>
<text text-anchor="middle" x="841.88" y="-5.75" font-family="Helvetica,sans-Serif" font-size="10.00">limits</text>
</a>
</g>
</g>
<!-- Node9&#45;&gt;Node11 -->
<g id="edge11" class="edge">
<title>Node9&#45;&gt;Node11</title>
<path fill="none" stroke="#63b8ff" d="M841.88,-54.95C841.88,-47.71 841.88,-38.84 841.88,-30.94"/>
<polygon fill="#63b8ff" stroke="#63b8ff" points="845.38,-31.21 841.88,-21.21 838.38,-31.21 845.38,-31.21"/>
</g>
<!-- Node14 -->
<g id="node14" class="node">
<title>Node14</title>
<g id="a_node14"><a xlink:title=" ">
<polygon fill="#e0e0e0" stroke="#999999" points="1493.5,-80.12 1448.25,-80.12 1448.25,-60.88 1493.5,-60.88 1493.5,-80.12"/>
<text text-anchor="middle" x="1470.88" y="-66.62" font-family="Helvetica,sans-Serif" font-size="10.00">cstdint</text>
</a>
</g>
</g>
<!-- Node13&#45;&gt;Node14 -->
<g id="edge14" class="edge">
<title>Node13&#45;&gt;Node14</title>
<path fill="none" stroke="#63b8ff" d="M1362.59,-121.3C1383.51,-111.68 1416.81,-96.37 1440.97,-85.26"/>
<polygon fill="#63b8ff" stroke="#63b8ff" points="1442.35,-88.47 1449.97,-81.12 1439.42,-82.12 1442.35,-88.47"/>
</g>
<!-- Node15 -->
<g id="node15" class="node">
<title>Node15</title>
<g id="a_node15"><a xlink:title=" ">
<polygon fill="#e0e0e0" stroke="#999999" points="1429.88,-80.12 1311.88,-80.12 1311.88,-60.88 1429.88,-60.88 1429.88,-80.12"/>
<text text-anchor="middle" x="1370.88" y="-66.62" font-family="Helvetica,sans-Serif" font-size="10.00">termcolor/termcolor.hpp</text>
</a>
</g>
</g>
<!-- Node13&#45;&gt;Node15 -->
<g id="edge15" class="edge">
<title>Node13&#45;&gt;Node15</title>
<path fill="none" stroke="#63b8ff" d="M1347.13,-121.43C1350.99,-113.31 1356.82,-101.04 1361.74,-90.7"/>
<polygon fill="#63b8ff" stroke="#63b8ff" points="1364.8,-92.43 1365.93,-81.89 1358.48,-89.42 1364.8,-92.43"/>
</g>
<!-- Node18 -->
<g id="node18" class="node">
<title>Node18</title>
<g id="a_node18"><a xlink:title=" ">
<polygon fill="#e0e0e0" stroke="#999999" points="1060.62,-19.25 995.12,-19.25 995.12,0 1060.62,0 1060.62,-19.25"/>
<text text-anchor="middle" x="1027.88" y="-5.75" font-family="Helvetica,sans-Serif" font-size="10.00">string_view</text>
</a>
</g>
</g>
<!-- Node17&#45;&gt;Node18 -->
<g id="edge18" class="edge">
<title>Node17&#45;&gt;Node18</title>
<path fill="none" stroke="#63b8ff" d="M1167.41,-121.33C1161.1,-105.91 1146.37,-74.34 1124.88,-55.25 1109.08,-41.22 1088.12,-30.83 1069.72,-23.63"/>
<polygon fill="#63b8ff" stroke="#63b8ff" points="1070.97,-20.36 1060.38,-20.18 1068.55,-26.93 1070.97,-20.36"/>
</g>
<!-- Node19 -->
<g id="node19" class="node">
<title>Node19</title>
<g id="a_node19"><a xlink:title=" ">
<polygon fill="#e0e0e0" stroke="#999999" points="1227.75,-80.12 1172,-80.12 1172,-60.88 1227.75,-60.88 1227.75,-80.12"/>
<text text-anchor="middle" x="1199.88" y="-66.62" font-family="Helvetica,sans-Serif" font-size="10.00">cinttypes</text>
</a>
</g>
</g>
<!-- Node17&#45;&gt;Node19 -->
<g id="edge19" class="edge">
<title>Node17&#45;&gt;Node19</title>
<path fill="none" stroke="#63b8ff" d="M1175.28,-121.43C1179.28,-113.31 1185.32,-101.04 1190.42,-90.7"/>
<polygon fill="#63b8ff" stroke="#63b8ff" points="1193.48,-92.4 1194.76,-81.88 1187.2,-89.31 1193.48,-92.4"/>
</g>
<!-- Node20 -->
<g id="node20" class="node">
<title>Node20</title>
<g id="a_node20"><a xlink:title=" ">
<polygon fill="#e0e0e0" stroke="#999999" points="1294,-80.12 1245.75,-80.12 1245.75,-60.88 1294,-60.88 1294,-80.12"/>
<text text-anchor="middle" x="1269.88" y="-66.62" font-family="Helvetica,sans-Serif" font-size="10.00">cstddef</text>
</a>
</g>
</g>
<!-- Node17&#45;&gt;Node20 -->
<g id="edge20" class="edge">
<title>Node17&#45;&gt;Node20</title>
<path fill="none" stroke="#63b8ff" d="M1185.91,-121.43C1201.54,-112.14 1226.26,-97.44 1244.84,-86.39"/>
<polygon fill="#63b8ff" stroke="#63b8ff" points="1246.59,-89.42 1253.4,-81.3 1243.01,-83.4 1246.59,-89.42"/>
</g>
<!-- Node21&#45;&gt;Node3 -->
<g id="edge23" class="edge">
<title>Node21&#45;&gt;Node3</title>
<path fill="none" stroke="#63b8ff" d="M119.36,-60.48C125.4,-58.6 131.83,-56.74 137.88,-55.25 223.47,-34.21 249.63,-39.48 339.62,-19.28"/>
<polygon fill="#63b8ff" stroke="#63b8ff" points="340.18,-22.74 349.14,-17.1 338.61,-15.92 340.18,-22.74"/>
</g>
<!-- Node21&#45;&gt;Node4 -->
<g id="edge24" class="edge">
<title>Node21&#45;&gt;Node4</title>
<path fill="none" stroke="#63b8ff" d="M120.41,-60.52C126.16,-58.72 132.2,-56.88 137.88,-55.25 151.31,-51.39 231.57,-30.85 277.91,-19.03"/>
<polygon fill="#63b8ff" stroke="#63b8ff" points="278.61,-22.46 287.43,-16.6 276.88,-15.68 278.61,-22.46"/>
</g>
<!-- Node22 -->
<g id="node22" class="node">
<title>Node22</title>
<g id="a_node22"><a xlink:title=" ">
<polygon fill="#e0e0e0" stroke="#999999" points="55.75,-19.25 0,-19.25 0,0 55.75,0 55.75,-19.25"/>
<text text-anchor="middle" x="27.88" y="-5.75" font-family="Helvetica,sans-Serif" font-size="10.00">algorithm</text>
</a>
</g>
</g>
<!-- Node21&#45;&gt;Node22 -->
<g id="edge22" class="edge">
<title>Node21&#45;&gt;Node22</title>
<path fill="none" stroke="#63b8ff" d="M83,-60.56C73.27,-51.74 58.15,-38.05 46.21,-27.23"/>
<polygon fill="#63b8ff" stroke="#63b8ff" points="48.72,-24.79 38.96,-20.67 44.02,-29.97 48.72,-24.79"/>
</g>
<!-- Node23 -->
<g id="node23" class="node">
<title>Node23</title>
<g id="a_node23"><a xlink:title=" ">
<polygon fill="#e0e0e0" stroke="#999999" points="116.38,-19.25 73.38,-19.25 73.38,0 116.38,0 116.38,-19.25"/>
<text text-anchor="middle" x="94.88" y="-5.75" font-family="Helvetica,sans-Serif" font-size="10.00">cmath</text>
</a>
</g>
</g>
<!-- Node21&#45;&gt;Node23 -->
<g id="edge25" class="edge">
<title>Node21&#45;&gt;Node23</title>
<path fill="none" stroke="#63b8ff" d="M93.18,-60.56C93.45,-52.69 93.84,-40.95 94.19,-30.82"/>
<polygon fill="#63b8ff" stroke="#63b8ff" points="97.68,-31.28 94.52,-21.16 90.68,-31.04 97.68,-31.28"/>
</g>
<!-- Node24&#45;&gt;Node3 -->
<g id="edge27" class="edge">
<title>Node24&#45;&gt;Node3</title>
<path fill="none" stroke="#63b8ff" d="M212.68,-60.43C247.07,-49.6 304.37,-31.56 339.75,-20.43"/>
<polygon fill="#63b8ff" stroke="#63b8ff" points="340.48,-23.86 348.97,-17.52 338.38,-17.19 340.48,-23.86"/>
</g>
<!-- Node24&#45;&gt;Node4 -->
<g id="edge28" class="edge">
<title>Node24&#45;&gt;Node4</title>
<path fill="none" stroke="#63b8ff" d="M203.44,-60.43C224.2,-50.81 257.24,-35.49 281.2,-24.38"/>
<polygon fill="#63b8ff" stroke="#63b8ff" points="282.52,-27.63 290.12,-20.25 279.58,-21.28 282.52,-27.63"/>
</g>
<!-- Node25 -->
<g id="node25" class="node">
<title>Node25</title>
<g id="a_node25"><a xlink:title=" ">
<polygon fill="#e0e0e0" stroke="#999999" points="189.38,-19.25 140.38,-19.25 140.38,0 189.38,0 189.38,-19.25"/>
<text text-anchor="middle" x="164.88" y="-5.75" font-family="Helvetica,sans-Serif" font-size="10.00">fstream</text>
</a>
</g>
</g>
<!-- Node24&#45;&gt;Node25 -->
<g id="edge29" class="edge">
<title>Node24&#45;&gt;Node25</title>
<path fill="none" stroke="#63b8ff" d="M180.99,-60.56C178.42,-52.6 174.58,-40.69 171.29,-30.49"/>
<polygon fill="#63b8ff" stroke="#63b8ff" points="174.65,-29.53 168.25,-21.09 167.99,-31.68 174.65,-29.53"/>
</g>
<!-- Node26 -->
<g id="node26" class="node">
<title>Node26</title>
<g id="a_node26"><a xlink:title=" ">
<polygon fill="#e0e0e0" stroke="#999999" points="268.38,-19.25 207.38,-19.25 207.38,0 268.38,0 268.38,-19.25"/>
<text text-anchor="middle" x="237.88" y="-5.75" font-family="Helvetica,sans-Serif" font-size="10.00">filesystem</text>
</a>
</g>
</g>
<!-- Node24&#45;&gt;Node26 -->
<g id="edge30" class="edge">
<title>Node24&#45;&gt;Node26</title>
<path fill="none" stroke="#63b8ff" d="M192.08,-60.56C200.01,-51.91 212.23,-38.59 222.05,-27.87"/>
<polygon fill="#63b8ff" stroke="#63b8ff" points="224.39,-30.5 228.57,-20.77 219.23,-25.77 224.39,-30.5"/>
</g>
<!-- Node27&#45;&gt;Node3 -->
<g id="edge34" class="edge">
<title>Node27&#45;&gt;Node3</title>
<path fill="none" stroke="#63b8ff" d="M416.33,-121.29C399.5,-114.42 379.83,-103.15 369.88,-85.75 360.27,-68.97 362.12,-46.44 365.38,-30.44"/>
<polygon fill="#63b8ff" stroke="#63b8ff" points="368.68,-31.7 367.63,-21.15 361.88,-30.05 368.68,-31.7"/>
</g>
<!-- Node27&#45;&gt;Node4 -->
<g id="edge35" class="edge">
<title>Node27&#45;&gt;Node4</title>
<path fill="none" stroke="#63b8ff" d="M420.09,-121.36C401.52,-113.93 376.71,-101.97 358.88,-85.75 341.39,-69.84 327.68,-46.17 319.47,-29.67"/>
<polygon fill="#63b8ff" stroke="#63b8ff" points="322.77,-28.47 315.33,-20.93 316.45,-31.47 322.77,-28.47"/>
</g>
<!-- Node27&#45;&gt;Node7 -->
<g id="edge33" class="edge">
<title>Node27&#45;&gt;Node7</title>
<path fill="none" stroke="#63b8ff" d="M492.19,-121.28C529.75,-113.39 583.81,-100.88 629.88,-85.75 630.86,-85.43 631.86,-85.09 632.86,-84.74"/>
<polygon fill="#63b8ff" stroke="#63b8ff" points="634.08,-88.01 642.16,-81.17 631.57,-81.48 634.08,-88.01"/>
</g>
<!-- Node27&#45;&gt;Node12 -->
<g id="edge40" class="edge">
<title>Node27&#45;&gt;Node12</title>
<path fill="none" stroke="#63b8ff" d="M465.9,-121.3C487.24,-111.64 521.27,-96.23 545.83,-85.11"/>
<polygon fill="#63b8ff" stroke="#63b8ff" points="546.99,-88.42 554.66,-81.11 544.11,-82.05 546.99,-88.42"/>
</g>
<!-- Node28 -->
<g id="node28" class="node">
<title>Node28</title>
<g id="a_node28"><a xlink:title=" ">
<polygon fill="#e0e0e0" stroke="#999999" points="284.5,-80.12 239.25,-80.12 239.25,-60.88 284.5,-60.88 284.5,-80.12"/>
<text text-anchor="middle" x="261.88" y="-66.62" font-family="Helvetica,sans-Serif" font-size="10.00">variant</text>
</a>
</g>
</g>
<!-- Node27&#45;&gt;Node28 -->
<g id="edge32" class="edge">
<title>Node27&#45;&gt;Node28</title>
<path fill="none" stroke="#63b8ff" d="M413.54,-121.29C383.61,-112.72 337.97,-99.19 298.88,-85.75 297.56,-85.3 296.22,-84.83 294.86,-84.34"/>
<polygon fill="#63b8ff" stroke="#63b8ff" points="296.49,-81.21 285.9,-81.03 294.06,-87.78 296.49,-81.21"/>
</g>
<!-- Node29 -->
<g id="node29" class="node">
<title>Node29</title>
<g id="a_node29"><a xlink:href="../../d8/ddd/Common_8hpp.html" target="_top" xlink:title="Common code for the compiler.">
<polygon fill="white" stroke="#666666" points="513.12,-80.12 378.62,-80.12 378.62,-60.88 513.12,-60.88 513.12,-80.12"/>
<text text-anchor="middle" x="445.88" y="-66.62" font-family="Helvetica,sans-Serif" font-size="10.00">Ark/Compiler/Common.hpp</text>
</a>
</g>
</g>
<!-- Node27&#45;&gt;Node29 -->
<g id="edge36" class="edge">
<title>Node27&#45;&gt;Node29</title>
<path fill="none" stroke="#63b8ff" d="M445.88,-121.43C445.88,-113.65 445.88,-102.08 445.88,-92.03"/>
<polygon fill="#63b8ff" stroke="#63b8ff" points="449.38,-92.04 445.88,-82.04 442.38,-92.04 449.38,-92.04"/>
</g>
<!-- Node29&#45;&gt;Node4 -->
<g id="edge39" class="edge">
<title>Node29&#45;&gt;Node4</title>
<path fill="none" stroke="#63b8ff" d="M425.08,-60.43C402.81,-50.72 367.26,-35.21 341.73,-24.08"/>
<polygon fill="#63b8ff" stroke="#63b8ff" points="343.43,-21 332.86,-20.21 340.63,-27.42 343.43,-21"/>
</g>
<!-- Node29&#45;&gt;Node10 -->
<g id="edge37" class="edge">
<title>Node29&#45;&gt;Node10</title>
<path fill="none" stroke="#63b8ff" d="M472.06,-60.43C502.89,-49.75 553.96,-32.07 586.22,-20.9"/>
<polygon fill="#63b8ff" stroke="#63b8ff" points="587.04,-24.31 595.35,-17.73 584.75,-17.7 587.04,-24.31"/>
</g>
<!-- Node29&#45;&gt;Node18 -->
<g id="edge38" class="edge">
<title>Node29&#45;&gt;Node18</title>
<path fill="none" stroke="#63b8ff" d="M490.36,-60.41C500.68,-58.51 511.63,-56.66 521.88,-55.25 691.64,-31.9 895.22,-18.29 983.47,-13.08"/>
<polygon fill="#63b8ff" stroke="#63b8ff" points="983.6,-16.58 993.38,-12.51 983.2,-9.59 983.6,-16.58"/>
</g>
</g>
</svg>
        <g id="navigator" transform="translate(0 0)" fill="#404254">
                <rect fill="#f2f5e9" fill-opacity="0.5" stroke="#606060" stroke-width=".5" x="0" y="0" width="60" height="60"/>
                <use id="zoomplus" xlink:href="#zoomPlus" x="17" y="9" onmousedown="handleZoom(evt,'in')"/>
                <use id="zoomminus" xlink:href="#zoomMin" x="42" y="9" onmousedown="handleZoom(evt,'out')"/>
                <use id="reset" xlink:href="#resetDef" x="30" y="36" onmousedown="handleReset()"/>
                <g id="arrowUp" xlink:href="#dirArrow" transform="translate(30 24)" onmousedown="handlePan(0,-1)">
                  <use xlink:href="#rim" fill="#404040">
                        <set attributeName="fill" to="#808080" begin="arrowUp.mouseover" end="arrowUp.mouseout"/>
                  </use>
                  <path fill="none" stroke="white" stroke-width="1.5" d="M0,-3.0v7 M-2.5,-0.5L0,-3.0L2.5,-0.5"/>
                </g>
                <g id="arrowRight" xlink:href="#dirArrow" transform="rotate(90) translate(36 -43)" onmousedown="handlePan(1,0)">
                  <use xlink:href="#rim" fill="#404040">
                        <set attributeName="fill" to="#808080" begin="arrowRight.mouseover" end="arrowRight.mouseout"/>
                  </use>
                  <path fill="none" stroke="white" stroke-width="1.5" d="M0,-3.0v7 M-2.5,-0.5L0,-3.0L2.5,-0.5"/>
                </g>
                <g id="arrowDown" xlink:href="#dirArrow" transform="rotate(180) translate(-30 -48)" onmousedown="handlePan(0,1)">
                  <use xlink:href="#rim" fill="#404040">
                        <set attributeName="fill" to="#808080" begin="arrowDown.mouseover" end="arrowDown.mouseout"/>
                  </use>
                  <path fill="none" stroke="white" stroke-width="1.5" d="M0,-3.0v7 M-2.5,-0.5L0,-3.0L2.5,-0.5"/>
                </g>
                <g id="arrowLeft" xlink:href="#dirArrow" transform="rotate(270) translate(-36 17)" onmousedown="handlePan(-1,0)">
                  <use xlink:href="#rim" fill="#404040">
                        <set attributeName="fill" to="#808080" begin="arrowLeft.mouseover" end="arrowLeft.mouseout"/>
                  </use>
                  <path fill="none" stroke="white" stroke-width="1.5" d="M0,-3.0v7 M-2.5,-0.5L0,-3.0L2.5,-0.5"/>
                </g>
        </g>
        <svg viewBox="0 0 15 15" width="100%" height="30px" preserveAspectRatio="xMaxYMin meet">
         <g id="arrow_out" transform="scale(0.3 0.3)">
          <a xlink:href="Exceptions_8cpp__incl_org.svg" target="_base">
           <rect id="button" ry="5" rx="5" y="6" x="6" height="38" width="38"
                fill="#f2f5e9" fill-opacity="0.5" stroke="#606060" stroke-width="1.0"/>
           <path id="arrow"
             d="M 11.500037,31.436501 C 11.940474,20.09759 22.043105,11.32322 32.158766,21.979434 L 37.068811,17.246167 C 37.068811,17.246167 37.088388,32 37.088388,32 L 22.160133,31.978069 C 22.160133,31.978069 26.997745,27.140456 26.997745,27.140456 C 18.528582,18.264221 13.291696,25.230495 11.500037,31.436501 z"
             style="fill:#404040;"/>
          </a>
         </g>
        </svg>
</svg>
