<?xml version="1.0" encoding="UTF-8" standalone="no"?>
<!DOCTYPE svg PUBLIC "-//W3C//DTD SVG 1.1//EN"
 "http://www.w3.org/Graphics/SVG/1.1/DTD/svg11.dtd">
<!-- Generated by graphviz version 7.1.0 (20230121.1956)
 -->
<!-- Title: /Users/fola/Documents/ArkScript/Ark/src/arkreactor/TypeChecker.cpp Pages: 1 -->
<svg width="1229pt" height="269pt"
 viewBox="0.00 0.00 1228.50 269.00" xmlns="http://www.w3.org/2000/svg" xmlns:xlink="http://www.w3.org/1999/xlink">
<g id="graph0" class="graph" transform="scale(1 1) rotate(0) translate(4 265)">
<title>/Users/fola/Documents/ArkScript/Ark/src/arkreactor/TypeChecker.cpp</title>
<!-- Node1 -->
<g id="node1" class="node">
<title>Node1</title>
<g id="a_node1"><a xlink:title=" ">
<polygon fill="#999999" stroke="#666666" points="724.5,-261 583.5,-261 583.5,-220 724.5,-220 724.5,-261"/>
<text text-anchor="start" x="591.5" y="-249" font-family="Helvetica,sans-Serif" font-size="10.00">/Users/fola/Documents</text>
<text text-anchor="start" x="591.5" y="-238" font-family="Helvetica,sans-Serif" font-size="10.00">/ArkScript/Ark/src/arkreactor</text>
<text text-anchor="middle" x="654" y="-227" font-family="Helvetica,sans-Serif" font-size="10.00">/TypeChecker.cpp</text>
</a>
</g>
</g>
<!-- Node2 -->
<g id="node2" class="node">
<title>Node2</title>
<g id="a_node2"><a xlink:href="../../db/d5e/TypeChecker_8hpp.html" target="_top" xlink:title=" ">
<polygon fill="white" stroke="#666666" points="359,-184 249,-184 249,-165 359,-165 359,-184"/>
<text text-anchor="middle" x="304" y="-172" font-family="Helvetica,sans-Serif" font-size="10.00">Ark/TypeChecker.hpp</text>
</a>
</g>
</g>
<!-- Node1&#45;&gt;Node2 -->
<g id="edge1" class="edge">
<title>Node1&#45;&gt;Node2</title>
<path fill="none" stroke="#63b8ff" d="M583.17,-226.55C518.77,-214.77 424.76,-197.58 363.99,-186.47"/>
<polygon fill="#63b8ff" stroke="#63b8ff" points="364.99,-183.1 354.53,-184.74 363.73,-189.98 364.99,-183.1"/>
</g>
<!-- Node3 -->
<g id="node3" class="node">
<title>Node3</title>
<g id="a_node3"><a xlink:title=" ">
<polygon fill="#e0e0e0" stroke="#999999" points="40,-129 0,-129 0,-110 40,-110 40,-129"/>
<text text-anchor="middle" x="20" y="-117" font-family="Helvetica,sans-Serif" font-size="10.00">limits</text>
</a>
</g>
</g>
<!-- Node1&#45;&gt;Node3 -->
<g id="edge30" class="edge">
<title>Node1&#45;&gt;Node3</title>
<path fill="none" stroke="#63b8ff" d="M583.14,-233.2C500.27,-225.1 359.23,-209.02 240,-184 171.57,-169.64 93.33,-145.04 51.05,-131.05"/>
<polygon fill="#63b8ff" stroke="#63b8ff" points="52.4,-127.81 41.8,-127.96 50.18,-134.45 52.4,-127.81"/>
</g>
<!-- Node20 -->
<g id="node20" class="node">
<title>Node20</title>
<g id="a_node20"><a xlink:title=" ">
<polygon fill="#e0e0e0" stroke="#999999" points="727.5,-184 676.5,-184 676.5,-165 727.5,-165 727.5,-184"/>
<text text-anchor="middle" x="702" y="-172" font-family="Helvetica,sans-Serif" font-size="10.00">numeric</text>
</a>
</g>
</g>
<!-- Node1&#45;&gt;Node20 -->
<g id="edge31" class="edge">
<title>Node1&#45;&gt;Node20</title>
<path fill="none" stroke="#63b8ff" d="M668.92,-219.6C675.26,-211.15 682.59,-201.38 688.74,-193.18"/>
<polygon fill="#63b8ff" stroke="#63b8ff" points="691.39,-195.47 694.59,-185.37 685.79,-191.27 691.39,-195.47"/>
</g>
<!-- Node21 -->
<g id="node21" class="node">
<title>Node21</title>
<g id="a_node21"><a xlink:title=" ">
<polygon fill="#e0e0e0" stroke="#999999" points="802,-184 746,-184 746,-165 802,-165 802,-184"/>
<text text-anchor="middle" x="774" y="-172" font-family="Helvetica,sans-Serif" font-size="10.00">algorithm</text>
</a>
</g>
</g>
<!-- Node1&#45;&gt;Node21 -->
<g id="edge32" class="edge">
<title>Node1&#45;&gt;Node21</title>
<path fill="none" stroke="#63b8ff" d="M691.31,-219.6C709.48,-209.91 730.91,-198.48 747.4,-189.68"/>
<polygon fill="#63b8ff" stroke="#63b8ff" points="748.93,-192.84 756.11,-185.04 745.64,-186.66 748.93,-192.84"/>
</g>
<!-- Node22 -->
<g id="node22" class="node">
<title>Node22</title>
<g id="a_node22"><a xlink:href="../../d5/d3a/proxy_8hpp.html" target="_top" xlink:title=" ">
<polygon fill="white" stroke="#666666" points="967.5,-184 866.5,-184 866.5,-165 967.5,-165 967.5,-184"/>
<text text-anchor="middle" x="917" y="-172" font-family="Helvetica,sans-Serif" font-size="10.00">termcolor/proxy.hpp</text>
</a>
</g>
</g>
<!-- Node1&#45;&gt;Node22 -->
<g id="edge33" class="edge">
<title>Node1&#45;&gt;Node22</title>
<path fill="none" stroke="#63b8ff" d="M724.83,-222.26C770.48,-211.15 828.63,-197 868.95,-187.19"/>
<polygon fill="#63b8ff" stroke="#63b8ff" points="869.72,-190.61 878.61,-184.84 868.07,-183.81 869.72,-190.61"/>
</g>
<!-- Node24 -->
<g id="node24" class="node">
<title>Node24</title>
<g id="a_node24"><a xlink:href="../../d2/de9/Exceptions_8hpp.html" target="_top" xlink:title="ArkScript homemade exceptions.">
<polygon fill="white" stroke="#666666" points="658,-184 556,-184 556,-165 658,-165 658,-184"/>
<text text-anchor="middle" x="607" y="-172" font-family="Helvetica,sans-Serif" font-size="10.00">Ark/Exceptions.hpp</text>
</a>
</g>
</g>
<!-- Node1&#45;&gt;Node24 -->
<g id="edge35" class="edge">
<title>Node1&#45;&gt;Node24</title>
<path fill="none" stroke="#63b8ff" d="M639.39,-219.6C633.18,-211.15 626,-201.38 619.98,-193.18"/>
<polygon fill="#63b8ff" stroke="#63b8ff" points="623,-191.37 614.26,-185.38 617.36,-195.51 623,-191.37"/>
</g>
<!-- Node2&#45;&gt;Node3 -->
<g id="edge2" class="edge">
<title>Node2&#45;&gt;Node3</title>
<path fill="none" stroke="#63b8ff" d="M248.67,-165.68C199.21,-158.28 124.57,-146.09 51.04,-129.26"/>
<polygon fill="#63b8ff" stroke="#63b8ff" points="52.21,-125.93 41.68,-127.08 50.63,-132.75 52.21,-125.93"/>
</g>
<!-- Node4 -->
<g id="node4" class="node">
<title>Node4</title>
<g id="a_node4"><a xlink:title=" ">
<polygon fill="#e0e0e0" stroke="#999999" points="1220.5,-74 1179.5,-74 1179.5,-55 1220.5,-55 1220.5,-74"/>
<text text-anchor="middle" x="1200" y="-62" font-family="Helvetica,sans-Serif" font-size="10.00">string</text>
</a>
</g>
</g>
<!-- Node2&#45;&gt;Node4 -->
<g id="edge3" class="edge">
<title>Node2&#45;&gt;Node4</title>
<path fill="none" stroke="#63b8ff" d="M359.26,-171.61C426.79,-168.06 543.93,-157.93 640,-129 658.46,-123.44 660.41,-115.11 679,-110 864.34,-59.04 918.53,-91.04 1110,-74 1129.21,-72.29 1150.72,-70.26 1167.9,-68.62"/>
<polygon fill="#63b8ff" stroke="#63b8ff" points="1168.15,-72.11 1177.77,-67.67 1167.48,-65.14 1168.15,-72.11"/>
</g>
<!-- Node5 -->
<g id="node5" class="node">
<title>Node5</title>
<g id="a_node5"><a xlink:title=" ">
<polygon fill="#e0e0e0" stroke="#999999" points="246,-19 202,-19 202,0 246,0 246,-19"/>
<text text-anchor="middle" x="224" y="-7" font-family="Helvetica,sans-Serif" font-size="10.00">vector</text>
</a>
</g>
</g>
<!-- Node2&#45;&gt;Node5 -->
<g id="edge4" class="edge">
<title>Node2&#45;&gt;Node5</title>
<path fill="none" stroke="#63b8ff" d="M248.52,-169.57C220.76,-164.47 189.42,-153.26 172,-129 152.81,-102.29 158.25,-84.87 172,-55 177.5,-43.06 187.96,-33.13 198.06,-25.7"/>
<polygon fill="#63b8ff" stroke="#63b8ff" points="199.88,-28.7 206.21,-20.21 195.96,-22.89 199.88,-28.7"/>
</g>
<!-- Node6 -->
<g id="node6" class="node">
<title>Node6</title>
<g id="a_node6"><a xlink:title=" ">
<polygon fill="#e0e0e0" stroke="#999999" points="120,-129 58,-129 58,-110 120,-110 120,-129"/>
<text text-anchor="middle" x="89" y="-117" font-family="Helvetica,sans-Serif" font-size="10.00">type_traits</text>
</a>
</g>
</g>
<!-- Node2&#45;&gt;Node6 -->
<g id="edge5" class="edge">
<title>Node2&#45;&gt;Node6</title>
<path fill="none" stroke="#63b8ff" d="M267.53,-164.51C229.91,-155.24 171.28,-140.78 131.57,-130.99"/>
<polygon fill="#63b8ff" stroke="#63b8ff" points="132.41,-127.6 121.87,-128.6 130.74,-134.39 132.41,-127.6"/>
</g>
<!-- Node7 -->
<g id="node7" class="node">
<title>Node7</title>
<g id="a_node7"><a xlink:href="../../de/dfd/Value_8hpp.html" target="_top" xlink:title=" ">
<polygon fill="white" stroke="#666666" points="631.5,-129 536.5,-129 536.5,-110 631.5,-110 631.5,-129"/>
<text text-anchor="middle" x="584" y="-117" font-family="Helvetica,sans-Serif" font-size="10.00">Ark/VM/Value.hpp</text>
</a>
</g>
</g>
<!-- Node2&#45;&gt;Node7 -->
<g id="edge6" class="edge">
<title>Node2&#45;&gt;Node7</title>
<path fill="none" stroke="#63b8ff" d="M351.5,-164.51C399.51,-155.42 473.8,-141.36 525.43,-131.59"/>
<polygon fill="#63b8ff" stroke="#63b8ff" points="526.08,-135.03 535.25,-129.73 524.77,-128.15 526.08,-135.03"/>
</g>
<!-- Node7&#45;&gt;Node4 -->
<g id="edge9" class="edge">
<title>Node7&#45;&gt;Node4</title>
<path fill="none" stroke="#63b8ff" d="M631.69,-111.63C636.52,-111.04 641.35,-110.48 646,-110 876,-86.28 936.51,-109.41 1165,-74 1166,-73.84 1167.01,-73.68 1168.04,-73.49"/>
<polygon fill="#63b8ff" stroke="#63b8ff" points="1168.46,-76.98 1177.53,-71.51 1167.03,-70.13 1168.46,-76.98"/>
</g>
<!-- Node7&#45;&gt;Node5 -->
<g id="edge7" class="edge">
<title>Node7&#45;&gt;Node5</title>
<path fill="none" stroke="#63b8ff" d="M536.31,-118.48C453.11,-117.46 286.2,-110.75 243,-74 230.53,-63.39 226.05,-44.95 224.53,-30.67"/>
<polygon fill="#63b8ff" stroke="#63b8ff" points="228.05,-30.76 223.93,-21 221.06,-31.2 228.05,-30.76"/>
</g>
<!-- Node8 -->
<g id="node8" class="node">
<title>Node8</title>
<g id="a_node8"><a xlink:title=" ">
<polygon fill="#e0e0e0" stroke="#999999" points="298,-74 252,-74 252,-55 298,-55 298,-74"/>
<text text-anchor="middle" x="275" y="-62" font-family="Helvetica,sans-Serif" font-size="10.00">variant</text>
</a>
</g>
</g>
<!-- Node7&#45;&gt;Node8 -->
<g id="edge8" class="edge">
<title>Node7&#45;&gt;Node8</title>
<path fill="none" stroke="#63b8ff" d="M536.19,-112.3C483.09,-105.1 394.62,-92.11 309.52,-74.36"/>
<polygon fill="#63b8ff" stroke="#63b8ff" points="310.34,-70.95 299.83,-72.31 308.89,-77.8 310.34,-70.95"/>
</g>
<!-- Node9 -->
<g id="node9" class="node">
<title>Node9</title>
<g id="a_node9"><a xlink:title=" ">
<polygon fill="#e0e0e0" stroke="#999999" points="372,-74 316,-74 316,-55 372,-55 372,-74"/>
<text text-anchor="middle" x="344" y="-62" font-family="Helvetica,sans-Serif" font-size="10.00">cinttypes</text>
</a>
</g>
</g>
<!-- Node7&#45;&gt;Node9 -->
<g id="edge10" class="edge">
<title>Node7&#45;&gt;Node9</title>
<path fill="none" stroke="#63b8ff" d="M542.37,-109.5C503.64,-101.1 444.03,-88.1 383.23,-74.48"/>
<polygon fill="#63b8ff" stroke="#63b8ff" points="384.28,-71.13 373.75,-72.36 382.74,-77.96 384.28,-71.13"/>
</g>
<!-- Node10 -->
<g id="node10" class="node">
<title>Node10</title>
<g id="a_node10"><a xlink:title=" ">
<polygon fill="#e0e0e0" stroke="#999999" points="962,-19 908,-19 908,0 962,0 962,-19"/>
<text text-anchor="middle" x="935" y="-7" font-family="Helvetica,sans-Serif" font-size="10.00">iostream</text>
</a>
</g>
</g>
<!-- Node7&#45;&gt;Node10 -->
<g id="edge11" class="edge">
<title>Node7&#45;&gt;Node10</title>
<path fill="none" stroke="#63b8ff" d="M631.7,-111.72C636.53,-111.11 641.36,-110.52 646,-110 691.44,-104.89 1025.11,-107.72 1056,-74 1061.7,-67.77 1060.83,-61.93 1056,-55 1050.98,-47.81 1006.73,-32.73 973.18,-22.13"/>
<polygon fill="#63b8ff" stroke="#63b8ff" points="974.32,-18.82 963.73,-19.18 972.23,-25.5 974.32,-18.82"/>
</g>
<!-- Node11 -->
<g id="node11" class="node">
<title>Node11</title>
<g id="a_node11"><a xlink:title=" ">
<polygon fill="#e0e0e0" stroke="#999999" points="849,-19 797,-19 797,0 849,0 849,-19"/>
<text text-anchor="middle" x="823" y="-7" font-family="Helvetica,sans-Serif" font-size="10.00">memory</text>
</a>
</g>
</g>
<!-- Node7&#45;&gt;Node11 -->
<g id="edge12" class="edge">
<title>Node7&#45;&gt;Node11</title>
<path fill="none" stroke="#63b8ff" d="M613.59,-109.5C639.27,-101.34 677.21,-88.39 709,-74 741.25,-59.4 776.6,-38.97 799.25,-25.26"/>
<polygon fill="#63b8ff" stroke="#63b8ff" points="801,-28.29 807.71,-20.09 797.35,-22.32 801,-28.29"/>
</g>
<!-- Node12 -->
<g id="node12" class="node">
<title>Node12</title>
<g id="a_node12"><a xlink:title=" ">
<polygon fill="#e0e0e0" stroke="#999999" points="449.5,-74 390.5,-74 390.5,-55 449.5,-55 449.5,-74"/>
<text text-anchor="middle" x="420" y="-62" font-family="Helvetica,sans-Serif" font-size="10.00">functional</text>
</a>
</g>
</g>
<!-- Node7&#45;&gt;Node12 -->
<g id="edge13" class="edge">
<title>Node7&#45;&gt;Node12</title>
<path fill="none" stroke="#63b8ff" d="M556.18,-109.51C529.36,-100.84 488.54,-87.65 458.58,-77.97"/>
<polygon fill="#63b8ff" stroke="#63b8ff" points="459.71,-74.66 449.12,-74.91 457.56,-81.32 459.71,-74.66"/>
</g>
<!-- Node13 -->
<g id="node13" class="node">
<title>Node13</title>
<g id="a_node13"><a xlink:title=" ">
<polygon fill="#e0e0e0" stroke="#999999" points="1149,-19 1109,-19 1109,0 1149,0 1149,-19"/>
<text text-anchor="middle" x="1129" y="-7" font-family="Helvetica,sans-Serif" font-size="10.00">utility</text>
</a>
</g>
</g>
<!-- Node7&#45;&gt;Node13 -->
<g id="edge14" class="edge">
<title>Node7&#45;&gt;Node13</title>
<path fill="none" stroke="#63b8ff" d="M631.69,-111.69C636.52,-111.08 641.36,-110.51 646,-110 743.74,-99.32 1002.36,-124.04 1087,-74 1103.7,-64.13 1115.05,-44.7 1121.71,-29.93"/>
<polygon fill="#63b8ff" stroke="#63b8ff" points="1124.92,-31.32 1125.47,-20.74 1118.44,-28.67 1124.92,-31.32"/>
</g>
<!-- Node14 -->
<g id="node14" class="node">
<title>Node14</title>
<g id="a_node14"><a xlink:title=" ">
<polygon fill="#e0e0e0" stroke="#999999" points="546.5,-74 467.5,-74 467.5,-55 546.5,-55 546.5,-74"/>
<text text-anchor="middle" x="507" y="-62" font-family="Helvetica,sans-Serif" font-size="10.00">Ark/String.hpp</text>
</a>
</g>
</g>
<!-- Node7&#45;&gt;Node14 -->
<g id="edge15" class="edge">
<title>Node7&#45;&gt;Node14</title>
<path fill="none" stroke="#63b8ff" d="M570.94,-109.51C559.48,-101.62 542.57,-89.98 529.02,-80.65"/>
<polygon fill="#63b8ff" stroke="#63b8ff" points="531.34,-78 521.12,-75.22 527.37,-83.77 531.34,-78"/>
</g>
<!-- Node15 -->
<g id="node15" class="node">
<title>Node15</title>
<g id="a_node15"><a xlink:title=" ">
<polygon fill="#e0e0e0" stroke="#999999" points="603,-74 565,-74 565,-55 603,-55 603,-74"/>
<text text-anchor="middle" x="584" y="-62" font-family="Helvetica,sans-Serif" font-size="10.00">array</text>
</a>
</g>
</g>
<!-- Node7&#45;&gt;Node15 -->
<g id="edge16" class="edge">
<title>Node7&#45;&gt;Node15</title>
<path fill="none" stroke="#63b8ff" d="M584,-109.75C584,-103.27 584,-94.16 584,-85.9"/>
<polygon fill="#63b8ff" stroke="#63b8ff" points="587.5,-85.96 584,-75.96 580.5,-85.96 587.5,-85.96"/>
</g>
<!-- Node16 -->
<g id="node16" class="node">
<title>Node16</title>
<g id="a_node16"><a xlink:href="../../dc/dd5/Closure_8hpp.html" target="_top" xlink:title="Subtype of the value type, handling closures.">
<polygon fill="white" stroke="#666666" points="889,-74 757,-74 757,-55 889,-55 889,-74"/>
<text text-anchor="middle" x="823" y="-62" font-family="Helvetica,sans-Serif" font-size="10.00">Ark/VM/Value/Closure.hpp</text>
</a>
</g>
</g>
<!-- Node7&#45;&gt;Node16 -->
<g id="edge17" class="edge">
<title>Node7&#45;&gt;Node16</title>
<path fill="none" stroke="#63b8ff" d="M624.54,-109.51C665.1,-100.52 727.6,-86.65 771.61,-76.9"/>
<polygon fill="#63b8ff" stroke="#63b8ff" points="772.17,-80.36 781.18,-74.77 770.66,-73.52 772.17,-80.36"/>
</g>
<!-- Node17 -->
<g id="node17" class="node">
<title>Node17</title>
<g id="a_node17"><a xlink:href="../../d5/d40/Platform_8hpp.html" target="_top" xlink:title="ArkScript configuration macros.">
<polygon fill="white" stroke="#666666" points="1070,-19 980,-19 980,0 1070,0 1070,-19"/>
<text text-anchor="middle" x="1025" y="-7" font-family="Helvetica,sans-Serif" font-size="10.00">Ark/Platform.hpp</text>
</a>
</g>
</g>
<!-- Node7&#45;&gt;Node17 -->
<g id="edge28" class="edge">
<title>Node7&#45;&gt;Node17</title>
<path fill="none" stroke="#63b8ff" d="M631.7,-111.71C636.52,-111.1 641.36,-110.51 646,-110 693.1,-104.78 1038.93,-108.9 1071,-74 1085.04,-58.72 1066.05,-39.12 1048.39,-25.77"/>
<polygon fill="#63b8ff" stroke="#63b8ff" points="1050.87,-23.23 1040.69,-20.29 1046.81,-28.94 1050.87,-23.23"/>
</g>
<!-- Node18 -->
<g id="node18" class="node">
<title>Node18</title>
<g id="a_node18"><a xlink:href="../../dc/d3d/UserType_8hpp.html" target="_top" xlink:title="Subtype of the value, capable of handling any C++ type.">
<polygon fill="white" stroke="#666666" points="1047,-74 907,-74 907,-55 1047,-55 1047,-74"/>
<text text-anchor="middle" x="977" y="-62" font-family="Helvetica,sans-Serif" font-size="10.00">Ark/VM/Value/UserType.hpp</text>
</a>
</g>
</g>
<!-- Node7&#45;&gt;Node18 -->
<g id="edge22" class="edge">
<title>Node7&#45;&gt;Node18</title>
<path fill="none" stroke="#63b8ff" d="M631.73,-111.94C636.55,-111.29 641.37,-110.63 646,-110 732.36,-98.28 831.41,-84.98 898.48,-76"/>
<polygon fill="#63b8ff" stroke="#63b8ff" points="898.85,-79.48 908.29,-74.68 897.92,-72.54 898.85,-79.48"/>
</g>
<!-- Node19 -->
<g id="node19" class="node">
<title>Node19</title>
<g id="a_node19"><a xlink:title=" ">
<polygon fill="#e0e0e0" stroke="#999999" points="700.5,-74 621.5,-74 621.5,-55 700.5,-55 700.5,-74"/>
<text text-anchor="middle" x="661" y="-62" font-family="Helvetica,sans-Serif" font-size="10.00">inline/Value.inl</text>
</a>
</g>
</g>
<!-- Node7&#45;&gt;Node19 -->
<g id="edge29" class="edge">
<title>Node7&#45;&gt;Node19</title>
<path fill="none" stroke="#63b8ff" d="M597.06,-109.51C608.52,-101.62 625.43,-89.98 638.98,-80.65"/>
<polygon fill="#63b8ff" stroke="#63b8ff" points="640.63,-83.77 646.88,-75.22 636.66,-78 640.63,-83.77"/>
</g>
<!-- Node16&#45;&gt;Node5 -->
<g id="edge19" class="edge">
<title>Node16&#45;&gt;Node5</title>
<path fill="none" stroke="#63b8ff" d="M756.61,-57.63C628.96,-46.33 353.45,-21.95 257.65,-13.48"/>
<polygon fill="#63b8ff" stroke="#63b8ff" points="258.15,-10.01 247.88,-12.61 257.53,-16.98 258.15,-10.01"/>
</g>
<!-- Node16&#45;&gt;Node10 -->
<g id="edge20" class="edge">
<title>Node16&#45;&gt;Node10</title>
<path fill="none" stroke="#63b8ff" d="M842,-54.51C859.56,-46.2 885.92,-33.73 906.09,-24.18"/>
<polygon fill="#63b8ff" stroke="#63b8ff" points="907.37,-27.45 914.91,-20.01 904.38,-21.12 907.37,-27.45"/>
</g>
<!-- Node16&#45;&gt;Node11 -->
<g id="edge18" class="edge">
<title>Node16&#45;&gt;Node11</title>
<path fill="none" stroke="#63b8ff" d="M823,-54.75C823,-48.27 823,-39.16 823,-30.9"/>
<polygon fill="#63b8ff" stroke="#63b8ff" points="826.5,-30.96 823,-20.96 819.5,-30.96 826.5,-30.96"/>
</g>
<!-- Node16&#45;&gt;Node17 -->
<g id="edge21" class="edge">
<title>Node16&#45;&gt;Node17</title>
<path fill="none" stroke="#63b8ff" d="M857.27,-54.51C891.03,-45.65 942.81,-32.07 979.9,-22.33"/>
<polygon fill="#63b8ff" stroke="#63b8ff" points="980.65,-25.75 989.44,-19.83 978.88,-18.98 980.65,-25.75"/>
</g>
<!-- Node18&#45;&gt;Node5 -->
<g id="edge24" class="edge">
<title>Node18&#45;&gt;Node5</title>
<path fill="none" stroke="#63b8ff" d="M906.8,-55.8C903.83,-55.52 900.89,-55.25 898,-55 652.67,-33.71 356.31,-17.41 257.71,-12.23"/>
<polygon fill="#63b8ff" stroke="#63b8ff" points="258.11,-8.75 247.94,-11.72 257.74,-15.74 258.11,-8.75"/>
</g>
<!-- Node18&#45;&gt;Node10 -->
<g id="edge23" class="edge">
<title>Node18&#45;&gt;Node10</title>
<path fill="none" stroke="#63b8ff" d="M970.06,-54.75C964.38,-47.58 956.16,-37.2 949.11,-28.3"/>
<polygon fill="#63b8ff" stroke="#63b8ff" points="951.98,-26.29 943.03,-20.63 946.49,-30.64 951.98,-26.29"/>
</g>
<!-- Node18&#45;&gt;Node11 -->
<g id="edge26" class="edge">
<title>Node18&#45;&gt;Node11</title>
<path fill="none" stroke="#63b8ff" d="M950.88,-54.51C925.8,-45.88 887.69,-32.76 859.6,-23.1"/>
<polygon fill="#63b8ff" stroke="#63b8ff" points="861.02,-19.88 850.43,-19.94 858.74,-26.5 861.02,-19.88"/>
</g>
<!-- Node18&#45;&gt;Node13 -->
<g id="edge25" class="edge">
<title>Node18&#45;&gt;Node13</title>
<path fill="none" stroke="#63b8ff" d="M1002.78,-54.51C1029.14,-45.32 1070.07,-31.05 1098.13,-21.26"/>
<polygon fill="#63b8ff" stroke="#63b8ff" points="1099.21,-24.6 1107.5,-18 1096.9,-17.99 1099.21,-24.6"/>
</g>
<!-- Node18&#45;&gt;Node17 -->
<g id="edge27" class="edge">
<title>Node18&#45;&gt;Node17</title>
<path fill="none" stroke="#63b8ff" d="M984.93,-54.75C991.56,-47.43 1001.22,-36.76 1009.39,-27.74"/>
<polygon fill="#63b8ff" stroke="#63b8ff" points="1011.77,-30.33 1015.89,-20.56 1006.58,-25.63 1011.77,-30.33"/>
</g>
<!-- Node23 -->
<g id="node23" class="node">
<title>Node23</title>
<g id="a_node23"><a xlink:title=" ">
<polygon fill="#e0e0e0" stroke="#999999" points="1000.5,-129 881.5,-129 881.5,-110 1000.5,-110 1000.5,-129"/>
<text text-anchor="middle" x="941" y="-117" font-family="Helvetica,sans-Serif" font-size="10.00">termcolor/termcolor.hpp</text>
</a>
</g>
</g>
<!-- Node22&#45;&gt;Node23 -->
<g id="edge34" class="edge">
<title>Node22&#45;&gt;Node23</title>
<path fill="none" stroke="#63b8ff" d="M920.96,-164.75C924.04,-157.96 928.41,-148.3 932.29,-139.73"/>
<polygon fill="#63b8ff" stroke="#63b8ff" points="935.39,-141.37 936.33,-130.82 929.01,-138.49 935.39,-141.37"/>
</g>
<!-- Node24&#45;&gt;Node4 -->
<g id="edge37" class="edge">
<title>Node24&#45;&gt;Node4</title>
<path fill="none" stroke="#63b8ff" d="M642.77,-164.58C673.3,-156.55 718.15,-143.76 756,-129 773.96,-122 776.48,-115.35 795,-110 812.86,-104.84 1074.71,-78.12 1167.61,-68.75"/>
<polygon fill="#63b8ff" stroke="#63b8ff" points="1167.96,-72.24 1177.55,-67.75 1167.25,-65.27 1167.96,-72.24"/>
</g>
<!-- Node24&#45;&gt;Node5 -->
<g id="edge38" class="edge">
<title>Node24&#45;&gt;Node5</title>
<path fill="none" stroke="#63b8ff" d="M555.72,-167.54C461.86,-155.48 268.27,-124.93 227,-74 217.32,-62.05 217.29,-44.3 219.27,-30.6"/>
<polygon fill="#63b8ff" stroke="#63b8ff" points="222.68,-31.41 221.15,-20.92 215.81,-30.07 222.68,-31.41"/>
</g>
<!-- Node24&#45;&gt;Node7 -->
<g id="edge40" class="edge">
<title>Node24&#45;&gt;Node7</title>
<path fill="none" stroke="#63b8ff" d="M603.2,-164.75C600.26,-157.96 596.06,-148.3 592.35,-139.73"/>
<polygon fill="#63b8ff" stroke="#63b8ff" points="595.67,-138.61 588.48,-130.83 589.25,-141.4 595.67,-138.61"/>
</g>
<!-- Node25 -->
<g id="node25" class="node">
<title>Node25</title>
<g id="a_node25"><a xlink:title=" ">
<polygon fill="#e0e0e0" stroke="#999999" points="747.5,-129 688.5,-129 688.5,-110 747.5,-110 747.5,-129"/>
<text text-anchor="middle" x="718" y="-117" font-family="Helvetica,sans-Serif" font-size="10.00">exception</text>
</a>
</g>
</g>
<!-- Node24&#45;&gt;Node25 -->
<g id="edge36" class="edge">
<title>Node24&#45;&gt;Node25</title>
<path fill="none" stroke="#63b8ff" d="M625.83,-164.51C643.16,-156.24 669.11,-143.84 689.07,-134.31"/>
<polygon fill="#63b8ff" stroke="#63b8ff" points="690.57,-137.48 698.08,-130.01 687.55,-131.16 690.57,-137.48"/>
</g>
<!-- Node26 -->
<g id="node26" class="node">
<title>Node26</title>
<g id="a_node26"><a xlink:title=" ">
<polygon fill="#e0e0e0" stroke="#999999" points="863.5,-129 804.5,-129 804.5,-110 863.5,-110 863.5,-129"/>
<text text-anchor="middle" x="834" y="-117" font-family="Helvetica,sans-Serif" font-size="10.00">stdexcept</text>
</a>
</g>
</g>
<!-- Node24&#45;&gt;Node26 -->
<g id="edge39" class="edge">
<title>Node24&#45;&gt;Node26</title>
<path fill="none" stroke="#63b8ff" d="M645.51,-164.51C686.44,-154.95 750.92,-139.9 792.83,-130.11"/>
<polygon fill="#63b8ff" stroke="#63b8ff" points="793.6,-133.53 802.55,-127.84 792.01,-126.71 793.6,-133.53"/>
</g>
</g>
</svg>
