<?xml version="1.0" encoding="UTF-8" standalone="no"?>
<!DOCTYPE svg PUBLIC "-//W3C//DTD SVG 1.1//EN"
 "http://www.w3.org/Graphics/SVG/1.1/DTD/svg11.dtd">
<!-- Generated by graphviz version 2.43.0 (0)
 -->
<!-- Title: /home/fola/code/Ark/src/arkreactor/TypeChecker.cpp Pages: 1 -->
<svg width="1332pt" height="263pt"
 viewBox="0.00 0.00 1332.00 263.00" xmlns="http://www.w3.org/2000/svg" xmlns:xlink="http://www.w3.org/1999/xlink">
<g id="graph0" class="graph" transform="scale(1 1) rotate(0) translate(4 259)">
<title>/home/fola/code/Ark/src/arkreactor/TypeChecker.cpp</title>
<polygon fill="white" stroke="transparent" points="-4,4 -4,-259 1328,-259 1328,4 -4,4"/>
<!-- Node1 -->
<g id="node1" class="node">
<title>Node1</title>
<g id="a_node1"><a xlink:title=" ">
<polygon fill="#bfbfbf" stroke="black" points="543.5,-224.5 543.5,-254.5 714.5,-254.5 714.5,-224.5 543.5,-224.5"/>
<text text-anchor="start" x="551.5" y="-242.5" font-family="Helvetica,sans-Serif" font-size="10.00">/home/fola/code/Ark</text>
<text text-anchor="middle" x="629" y="-231.5" font-family="Helvetica,sans-Serif" font-size="10.00">/src/arkreactor/TypeChecker.cpp</text>
</a>
</g>
</g>
<!-- Node2 -->
<g id="node2" class="node">
<title>Node2</title>
<g id="a_node2"><a xlink:href="../../db/d5e/TypeChecker_8hpp.html" target="_top" xlink:title=" ">
<polygon fill="white" stroke="black" points="210,-168.5 210,-187.5 328,-187.5 328,-168.5 210,-168.5"/>
<text text-anchor="middle" x="269" y="-175.5" font-family="Helvetica,sans-Serif" font-size="10.00">Ark/TypeChecker.hpp</text>
</a>
</g>
</g>
<!-- Node1&#45;&gt;Node2 -->
<g id="edge1" class="edge">
<title>Node1&#45;&gt;Node2</title>
<path fill="none" stroke="midnightblue" d="M544.14,-224.47C478.51,-213.63 389.19,-198.87 330.36,-189.14"/>
<polygon fill="midnightblue" stroke="midnightblue" points="330.9,-185.68 320.47,-187.51 329.76,-192.59 330.9,-185.68"/>
</g>
<!-- Node3 -->
<g id="node3" class="node">
<title>Node3</title>
<g id="a_node3"><a xlink:title=" ">
<polygon fill="white" stroke="#bfbfbf" points="0,-112.5 0,-131.5 44,-131.5 44,-112.5 0,-112.5"/>
<text text-anchor="middle" x="22" y="-119.5" font-family="Helvetica,sans-Serif" font-size="10.00">limits</text>
</a>
</g>
</g>
<!-- Node1&#45;&gt;Node3 -->
<g id="edge31" class="edge">
<title>Node1&#45;&gt;Node3</title>
<path fill="none" stroke="midnightblue" d="M543.13,-234.2C455.98,-228.49 317.66,-215.67 201,-188 146.25,-175.01 85.18,-150.56 50.39,-135.63"/>
<polygon fill="midnightblue" stroke="midnightblue" points="51.46,-132.28 40.89,-131.51 48.67,-138.7 51.46,-132.28"/>
</g>
<!-- Node21 -->
<g id="node21" class="node">
<title>Node21</title>
<g id="a_node21"><a xlink:title=" ">
<polygon fill="white" stroke="#bfbfbf" points="652,-168.5 652,-187.5 708,-187.5 708,-168.5 652,-168.5"/>
<text text-anchor="middle" x="680" y="-175.5" font-family="Helvetica,sans-Serif" font-size="10.00">numeric</text>
</a>
</g>
</g>
<!-- Node1&#45;&gt;Node21 -->
<g id="edge32" class="edge">
<title>Node1&#45;&gt;Node21</title>
<path fill="none" stroke="midnightblue" d="M641.09,-224.4C648.57,-215.66 658.22,-204.41 666.03,-195.3"/>
<polygon fill="midnightblue" stroke="midnightblue" points="668.73,-197.53 672.58,-187.66 663.41,-192.97 668.73,-197.53"/>
</g>
<!-- Node22 -->
<g id="node22" class="node">
<title>Node22</title>
<g id="a_node22"><a xlink:title=" ">
<polygon fill="white" stroke="#bfbfbf" points="726,-168.5 726,-187.5 790,-187.5 790,-168.5 726,-168.5"/>
<text text-anchor="middle" x="758" y="-175.5" font-family="Helvetica,sans-Serif" font-size="10.00">algorithm</text>
</a>
</g>
</g>
<!-- Node1&#45;&gt;Node22 -->
<g id="edge33" class="edge">
<title>Node1&#45;&gt;Node22</title>
<path fill="none" stroke="midnightblue" d="M659.57,-224.4C680.93,-214.55 709.22,-201.5 729.98,-191.92"/>
<polygon fill="midnightblue" stroke="midnightblue" points="731.61,-195.02 739.23,-187.66 728.68,-188.67 731.61,-195.02"/>
</g>
<!-- Node23 -->
<g id="node23" class="node">
<title>Node23</title>
<g id="a_node23"><a xlink:title=" ">
<polygon fill="white" stroke="#bfbfbf" points="808,-168.5 808,-187.5 942,-187.5 942,-168.5 808,-168.5"/>
<text text-anchor="middle" x="875" y="-175.5" font-family="Helvetica,sans-Serif" font-size="10.00">termcolor/termcolor.hpp</text>
</a>
</g>
</g>
<!-- Node1&#45;&gt;Node23 -->
<g id="edge34" class="edge">
<title>Node1&#45;&gt;Node23</title>
<path fill="none" stroke="midnightblue" d="M686.99,-224.47C730.72,-213.9 789.85,-199.59 830.04,-189.87"/>
<polygon fill="midnightblue" stroke="midnightblue" points="830.93,-193.26 839.83,-187.51 829.29,-186.46 830.93,-193.26"/>
</g>
<!-- Node24 -->
<g id="node24" class="node">
<title>Node24</title>
<g id="a_node24"><a xlink:href="../../d2/de9/Exceptions_8hpp.html" target="_top" xlink:title="ArkScript homemade exceptions.">
<polygon fill="white" stroke="black" points="524,-168.5 524,-187.5 634,-187.5 634,-168.5 524,-168.5"/>
<text text-anchor="middle" x="579" y="-175.5" font-family="Helvetica,sans-Serif" font-size="10.00">Ark/Exceptions.hpp</text>
</a>
</g>
</g>
<!-- Node1&#45;&gt;Node24 -->
<g id="edge35" class="edge">
<title>Node1&#45;&gt;Node24</title>
<path fill="none" stroke="midnightblue" d="M617.15,-224.4C609.89,-215.75 600.55,-204.64 592.93,-195.58"/>
<polygon fill="midnightblue" stroke="midnightblue" points="595.39,-193.06 586.28,-187.66 590.03,-197.57 595.39,-193.06"/>
</g>
<!-- Node2&#45;&gt;Node3 -->
<g id="edge2" class="edge">
<title>Node2&#45;&gt;Node3</title>
<path fill="none" stroke="midnightblue" d="M226.87,-168.47C184.21,-159.72 116.38,-145.52 58,-132 56.73,-131.71 55.43,-131.4 54.13,-131.09"/>
<polygon fill="midnightblue" stroke="midnightblue" points="54.6,-127.6 44.06,-128.64 52.95,-134.41 54.6,-127.6"/>
</g>
<!-- Node4 -->
<g id="node4" class="node">
<title>Node4</title>
<g id="a_node4"><a xlink:title=" ">
<polygon fill="white" stroke="#bfbfbf" points="1280,-56.5 1280,-75.5 1324,-75.5 1324,-56.5 1280,-56.5"/>
<text text-anchor="middle" x="1302" y="-63.5" font-family="Helvetica,sans-Serif" font-size="10.00">string</text>
</a>
</g>
</g>
<!-- Node2&#45;&gt;Node4 -->
<g id="edge3" class="edge">
<title>Node2&#45;&gt;Node4</title>
<path fill="none" stroke="midnightblue" d="M328.23,-177.42C402.93,-176.26 534.37,-168.51 640,-132 656.21,-126.4 656.65,-117.16 673,-112 787.69,-75.8 1093.15,-86.05 1213,-76 1231.66,-74.43 1252.49,-72.35 1269.3,-70.58"/>
<polygon fill="midnightblue" stroke="midnightblue" points="1270.14,-74.01 1279.71,-69.47 1269.39,-67.05 1270.14,-74.01"/>
</g>
<!-- Node5 -->
<g id="node5" class="node">
<title>Node5</title>
<g id="a_node5"><a xlink:title=" ">
<polygon fill="white" stroke="#bfbfbf" points="124.5,-0.5 124.5,-19.5 171.5,-19.5 171.5,-0.5 124.5,-0.5"/>
<text text-anchor="middle" x="148" y="-7.5" font-family="Helvetica,sans-Serif" font-size="10.00">vector</text>
</a>
</g>
</g>
<!-- Node2&#45;&gt;Node5 -->
<g id="edge4" class="edge">
<title>Node2&#45;&gt;Node5</title>
<path fill="none" stroke="midnightblue" d="M209.81,-169.88C163.88,-162.99 105.64,-150.8 91,-132 82.62,-121.24 79.9,-87.44 96,-56 102.38,-43.55 113.81,-33.07 124.34,-25.36"/>
<polygon fill="midnightblue" stroke="midnightblue" points="126.55,-28.09 132.84,-19.56 122.6,-22.31 126.55,-28.09"/>
</g>
<!-- Node6 -->
<g id="node6" class="node">
<title>Node6</title>
<g id="a_node6"><a xlink:title=" ">
<polygon fill="white" stroke="#bfbfbf" points="100.5,-112.5 100.5,-131.5 169.5,-131.5 169.5,-112.5 100.5,-112.5"/>
<text text-anchor="middle" x="135" y="-119.5" font-family="Helvetica,sans-Serif" font-size="10.00">type_traits</text>
</a>
</g>
</g>
<!-- Node2&#45;&gt;Node6 -->
<g id="edge5" class="edge">
<title>Node2&#45;&gt;Node6</title>
<path fill="none" stroke="midnightblue" d="M247.77,-168.44C225.62,-159.52 190.68,-145.44 165.56,-135.32"/>
<polygon fill="midnightblue" stroke="midnightblue" points="166.72,-132.01 156.13,-131.52 164.1,-138.5 166.72,-132.01"/>
</g>
<!-- Node7 -->
<g id="node7" class="node">
<title>Node7</title>
<g id="a_node7"><a xlink:href="../../de/dfd/Value_8hpp.html" target="_top" xlink:title=" ">
<polygon fill="white" stroke="black" points="527.5,-112.5 527.5,-131.5 630.5,-131.5 630.5,-112.5 527.5,-112.5"/>
<text text-anchor="middle" x="579" y="-119.5" font-family="Helvetica,sans-Serif" font-size="10.00">Ark/VM/Value.hpp</text>
</a>
</g>
</g>
<!-- Node2&#45;&gt;Node7 -->
<g id="edge6" class="edge">
<title>Node2&#45;&gt;Node7</title>
<path fill="none" stroke="midnightblue" d="M318.12,-168.44C372.88,-158.9 461.41,-143.48 519.91,-133.29"/>
<polygon fill="midnightblue" stroke="midnightblue" points="520.86,-136.68 530.11,-131.52 519.66,-129.78 520.86,-136.68"/>
</g>
<!-- Node7&#45;&gt;Node4 -->
<g id="edge9" class="edge">
<title>Node7&#45;&gt;Node4</title>
<path fill="none" stroke="midnightblue" d="M630.84,-113.54C635.62,-112.97 640.4,-112.45 645,-112 920.17,-85.3 992.7,-117.71 1266,-76 1267.25,-75.81 1268.53,-75.59 1269.81,-75.36"/>
<polygon fill="midnightblue" stroke="midnightblue" points="1270.61,-78.77 1279.66,-73.27 1269.15,-71.92 1270.61,-78.77"/>
</g>
<!-- Node7&#45;&gt;Node5 -->
<g id="edge7" class="edge">
<title>Node7&#45;&gt;Node5</title>
<path fill="none" stroke="midnightblue" d="M527.37,-118.54C422.91,-113.1 194.12,-98.74 167,-76 153.64,-64.81 149.39,-44.78 148.17,-29.91"/>
<polygon fill="midnightblue" stroke="midnightblue" points="151.66,-29.61 147.73,-19.77 144.66,-29.91 151.66,-29.61"/>
</g>
<!-- Node8 -->
<g id="node8" class="node">
<title>Node8</title>
<g id="a_node8"><a xlink:title=" ">
<polygon fill="white" stroke="#bfbfbf" points="176.5,-56.5 176.5,-75.5 227.5,-75.5 227.5,-56.5 176.5,-56.5"/>
<text text-anchor="middle" x="202" y="-63.5" font-family="Helvetica,sans-Serif" font-size="10.00">variant</text>
</a>
</g>
</g>
<!-- Node7&#45;&gt;Node8 -->
<g id="edge8" class="edge">
<title>Node7&#45;&gt;Node8</title>
<path fill="none" stroke="midnightblue" d="M527.41,-116.17C462.15,-109.64 346.2,-96.57 237.37,-75.84"/>
<polygon fill="midnightblue" stroke="midnightblue" points="238.02,-72.4 227.53,-73.95 236.69,-79.28 238.02,-72.4"/>
</g>
<!-- Node9 -->
<g id="node9" class="node">
<title>Node9</title>
<g id="a_node9"><a xlink:title=" ">
<polygon fill="white" stroke="#bfbfbf" points="246,-56.5 246,-75.5 308,-75.5 308,-56.5 246,-56.5"/>
<text text-anchor="middle" x="277" y="-63.5" font-family="Helvetica,sans-Serif" font-size="10.00">cinttypes</text>
</a>
</g>
</g>
<!-- Node7&#45;&gt;Node9 -->
<g id="edge10" class="edge">
<title>Node7&#45;&gt;Node9</title>
<path fill="none" stroke="midnightblue" d="M527.16,-112.9C476.37,-104.78 396.54,-91.55 318.42,-76.21"/>
<polygon fill="midnightblue" stroke="midnightblue" points="318.9,-72.73 308.41,-74.23 317.54,-79.6 318.9,-72.73"/>
</g>
<!-- Node10 -->
<g id="node10" class="node">
<title>Node10</title>
<g id="a_node10"><a xlink:title=" ">
<polygon fill="white" stroke="#bfbfbf" points="994,-0.5 994,-19.5 1054,-19.5 1054,-0.5 994,-0.5"/>
<text text-anchor="middle" x="1024" y="-7.5" font-family="Helvetica,sans-Serif" font-size="10.00">iostream</text>
</a>
</g>
</g>
<!-- Node7&#45;&gt;Node10 -->
<g id="edge11" class="edge">
<title>Node7&#45;&gt;Node10</title>
<path fill="none" stroke="midnightblue" d="M630.84,-113.6C635.62,-113.02 640.4,-112.47 645,-112 701.73,-106.14 1118.11,-117.72 1157,-76 1163.06,-69.5 1162.18,-63.22 1157,-56 1151.35,-48.12 1101.38,-32.67 1064.35,-22.09"/>
<polygon fill="midnightblue" stroke="midnightblue" points="1064.87,-18.6 1054.29,-19.24 1062.96,-25.33 1064.87,-18.6"/>
</g>
<!-- Node11 -->
<g id="node11" class="node">
<title>Node11</title>
<g id="a_node11"><a xlink:title=" ">
<polygon fill="white" stroke="#bfbfbf" points="878,-0.5 878,-19.5 936,-19.5 936,-0.5 878,-0.5"/>
<text text-anchor="middle" x="907" y="-7.5" font-family="Helvetica,sans-Serif" font-size="10.00">memory</text>
</a>
</g>
</g>
<!-- Node7&#45;&gt;Node11 -->
<g id="edge12" class="edge">
<title>Node7&#45;&gt;Node11</title>
<path fill="none" stroke="midnightblue" d="M630.85,-114.09C673.87,-107.36 736.16,-95.27 788,-76 797.79,-72.36 851.2,-42.53 883.05,-24.57"/>
<polygon fill="midnightblue" stroke="midnightblue" points="884.8,-27.6 891.78,-19.63 881.35,-21.5 884.8,-27.6"/>
</g>
<!-- Node12 -->
<g id="node12" class="node">
<title>Node12</title>
<g id="a_node12"><a xlink:title=" ">
<polygon fill="white" stroke="#bfbfbf" points="326.5,-56.5 326.5,-75.5 391.5,-75.5 391.5,-56.5 326.5,-56.5"/>
<text text-anchor="middle" x="359" y="-63.5" font-family="Helvetica,sans-Serif" font-size="10.00">functional</text>
</a>
</g>
</g>
<!-- Node7&#45;&gt;Node12 -->
<g id="edge13" class="edge">
<title>Node7&#45;&gt;Node12</title>
<path fill="none" stroke="midnightblue" d="M544.14,-112.44C505.41,-102.94 442.88,-87.59 401.36,-77.4"/>
<polygon fill="midnightblue" stroke="midnightblue" points="402.09,-73.97 391.54,-74.99 400.42,-80.77 402.09,-73.97"/>
</g>
<!-- Node13 -->
<g id="node13" class="node">
<title>Node13</title>
<g id="a_node13"><a xlink:title=" ">
<polygon fill="white" stroke="#bfbfbf" points="1209.5,-0.5 1209.5,-19.5 1254.5,-19.5 1254.5,-0.5 1209.5,-0.5"/>
<text text-anchor="middle" x="1232" y="-7.5" font-family="Helvetica,sans-Serif" font-size="10.00">utility</text>
</a>
</g>
</g>
<!-- Node7&#45;&gt;Node13 -->
<g id="edge14" class="edge">
<title>Node7&#45;&gt;Node13</title>
<path fill="none" stroke="midnightblue" d="M630.84,-113.58C635.62,-113.01 640.4,-112.47 645,-112 705.27,-105.9 1136.62,-106.43 1189,-76 1206.87,-65.62 1218.73,-44.48 1225.38,-29.13"/>
<polygon fill="midnightblue" stroke="midnightblue" points="1228.72,-30.2 1229.17,-19.62 1222.21,-27.61 1228.72,-30.2"/>
</g>
<!-- Node14 -->
<g id="node14" class="node">
<title>Node14</title>
<g id="a_node14"><a xlink:title=" ">
<polygon fill="white" stroke="#bfbfbf" points="410,-56.5 410,-75.5 496,-75.5 496,-56.5 410,-56.5"/>
<text text-anchor="middle" x="453" y="-63.5" font-family="Helvetica,sans-Serif" font-size="10.00">Ark/String.hpp</text>
</a>
</g>
</g>
<!-- Node7&#45;&gt;Node14 -->
<g id="edge15" class="edge">
<title>Node7&#45;&gt;Node14</title>
<path fill="none" stroke="midnightblue" d="M559.03,-112.44C538.39,-103.6 505.94,-89.69 482.37,-79.59"/>
<polygon fill="midnightblue" stroke="midnightblue" points="483.44,-76.24 472.87,-75.52 480.68,-82.67 483.44,-76.24"/>
</g>
<!-- Node15 -->
<g id="node15" class="node">
<title>Node15</title>
<g id="a_node15"><a xlink:title=" ">
<polygon fill="white" stroke="#bfbfbf" points="514,-56.5 514,-75.5 556,-75.5 556,-56.5 514,-56.5"/>
<text text-anchor="middle" x="535" y="-63.5" font-family="Helvetica,sans-Serif" font-size="10.00">array</text>
</a>
</g>
</g>
<!-- Node7&#45;&gt;Node15 -->
<g id="edge16" class="edge">
<title>Node7&#45;&gt;Node15</title>
<path fill="none" stroke="midnightblue" d="M571.73,-112.08C565.46,-104.38 556.21,-93.03 548.57,-83.65"/>
<polygon fill="midnightblue" stroke="midnightblue" points="551.16,-81.29 542.13,-75.75 545.73,-85.71 551.16,-81.29"/>
</g>
<!-- Node16 -->
<g id="node16" class="node">
<title>Node16</title>
<g id="a_node16"><a xlink:href="../../dc/dd5/Closure_8hpp.html" target="_top" xlink:title="Subtype of the value type, handling closures.">
<polygon fill="white" stroke="black" points="835.5,-56.5 835.5,-75.5 978.5,-75.5 978.5,-56.5 835.5,-56.5"/>
<text text-anchor="middle" x="907" y="-63.5" font-family="Helvetica,sans-Serif" font-size="10.00">Ark/VM/Value/Closure.hpp</text>
</a>
</g>
</g>
<!-- Node7&#45;&gt;Node16 -->
<g id="edge17" class="edge">
<title>Node7&#45;&gt;Node16</title>
<path fill="none" stroke="midnightblue" d="M630.61,-112.5C688.72,-102.94 783.09,-87.4 845.1,-77.19"/>
<polygon fill="midnightblue" stroke="midnightblue" points="845.85,-80.61 855.15,-75.54 844.71,-73.71 845.85,-80.61"/>
</g>
<!-- Node17 -->
<g id="node17" class="node">
<title>Node17</title>
<g id="a_node17"><a xlink:href="../../d5/d40/Platform_8hpp.html" target="_top" xlink:title="ArkScript configuration macros.">
<polygon fill="white" stroke="black" points="1072.5,-0.5 1072.5,-19.5 1171.5,-19.5 1171.5,-0.5 1072.5,-0.5"/>
<text text-anchor="middle" x="1122" y="-7.5" font-family="Helvetica,sans-Serif" font-size="10.00">Ark/Platform.hpp</text>
</a>
</g>
</g>
<!-- Node7&#45;&gt;Node17 -->
<g id="edge28" class="edge">
<title>Node7&#45;&gt;Node17</title>
<path fill="none" stroke="midnightblue" d="M630.84,-113.59C635.62,-113.01 640.4,-112.47 645,-112 703.5,-106.02 1132.86,-118.97 1173,-76 1188.44,-59.47 1165.51,-38.65 1145.63,-25.09"/>
<polygon fill="midnightblue" stroke="midnightblue" points="1147.43,-22.08 1137.13,-19.58 1143.62,-27.96 1147.43,-22.08"/>
</g>
<!-- Node18 -->
<g id="node18" class="node">
<title>Node18</title>
<g id="a_node18"><a xlink:href="../../dc/d3d/UserType_8hpp.html" target="_top" xlink:title="Subtype of the value, capable of handling any C++ type.">
<polygon fill="white" stroke="black" points="996.5,-56.5 996.5,-75.5 1147.5,-75.5 1147.5,-56.5 996.5,-56.5"/>
<text text-anchor="middle" x="1072" y="-63.5" font-family="Helvetica,sans-Serif" font-size="10.00">Ark/VM/Value/UserType.hpp</text>
</a>
</g>
</g>
<!-- Node7&#45;&gt;Node18 -->
<g id="edge22" class="edge">
<title>Node7&#45;&gt;Node18</title>
<path fill="none" stroke="midnightblue" d="M630.5,-113.82C635.4,-113.18 640.29,-112.57 645,-112 793.91,-94.04 833.87,-92.24 986.24,-76.18"/>
<polygon fill="midnightblue" stroke="midnightblue" points="986.87,-79.63 996.44,-75.1 986.13,-72.67 986.87,-79.63"/>
</g>
<!-- Node19 -->
<g id="node19" class="node">
<title>Node19</title>
<g id="a_node19"><a xlink:href="../../d0/dd2/Profiling_8hpp.html" target="_top" xlink:title=" ">
<polygon fill="white" stroke="black" points="574.5,-56.5 574.5,-75.5 671.5,-75.5 671.5,-56.5 574.5,-56.5"/>
<text text-anchor="middle" x="623" y="-63.5" font-family="Helvetica,sans-Serif" font-size="10.00">Ark/Profiling.hpp</text>
</a>
</g>
</g>
<!-- Node7&#45;&gt;Node19 -->
<g id="edge29" class="edge">
<title>Node7&#45;&gt;Node19</title>
<path fill="none" stroke="midnightblue" d="M586.27,-112.08C592.54,-104.38 601.79,-93.03 609.43,-83.65"/>
<polygon fill="midnightblue" stroke="midnightblue" points="612.27,-85.71 615.87,-75.75 606.84,-81.29 612.27,-85.71"/>
</g>
<!-- Node20 -->
<g id="node20" class="node">
<title>Node20</title>
<g id="a_node20"><a xlink:title=" ">
<polygon fill="white" stroke="#bfbfbf" points="689.5,-56.5 689.5,-75.5 778.5,-75.5 778.5,-56.5 689.5,-56.5"/>
<text text-anchor="middle" x="734" y="-63.5" font-family="Helvetica,sans-Serif" font-size="10.00">inline/Value.inl</text>
</a>
</g>
</g>
<!-- Node7&#45;&gt;Node20 -->
<g id="edge30" class="edge">
<title>Node7&#45;&gt;Node20</title>
<path fill="none" stroke="midnightblue" d="M603.56,-112.44C629.52,-103.4 670.67,-89.06 699.8,-78.92"/>
<polygon fill="midnightblue" stroke="midnightblue" points="701.26,-82.11 709.55,-75.52 698.96,-75.5 701.26,-82.11"/>
</g>
<!-- Node16&#45;&gt;Node5 -->
<g id="edge19" class="edge">
<title>Node16&#45;&gt;Node5</title>
<path fill="none" stroke="midnightblue" d="M835.27,-59.51C819.69,-58.34 803.29,-57.12 788,-56 556.15,-39.08 276.96,-19.84 181.72,-13.31"/>
<polygon fill="midnightblue" stroke="midnightblue" points="181.76,-9.8 171.54,-12.61 181.28,-16.79 181.76,-9.8"/>
</g>
<!-- Node16&#45;&gt;Node10 -->
<g id="edge20" class="edge">
<title>Node16&#45;&gt;Node10</title>
<path fill="none" stroke="midnightblue" d="M925.54,-56.44C944.62,-47.64 974.57,-33.81 996.44,-23.72"/>
<polygon fill="midnightblue" stroke="midnightblue" points="997.93,-26.88 1005.55,-19.52 995,-20.53 997.93,-26.88"/>
</g>
<!-- Node16&#45;&gt;Node11 -->
<g id="edge18" class="edge">
<title>Node16&#45;&gt;Node11</title>
<path fill="none" stroke="midnightblue" d="M907,-56.08C907,-49.01 907,-38.86 907,-29.99"/>
<polygon fill="midnightblue" stroke="midnightblue" points="910.5,-29.75 907,-19.75 903.5,-29.75 910.5,-29.75"/>
</g>
<!-- Node16&#45;&gt;Node17 -->
<g id="edge21" class="edge">
<title>Node16&#45;&gt;Node17</title>
<path fill="none" stroke="midnightblue" d="M941.07,-56.44C978.18,-47.12 1037.66,-32.18 1078.21,-22"/>
<polygon fill="midnightblue" stroke="midnightblue" points="1079.25,-25.35 1088.09,-19.52 1077.54,-18.56 1079.25,-25.35"/>
</g>
<!-- Node18&#45;&gt;Node5 -->
<g id="edge24" class="edge">
<title>Node18&#45;&gt;Node5</title>
<path fill="none" stroke="midnightblue" d="M996.46,-56.71C993.61,-56.46 990.78,-56.22 988,-56 675.28,-30.89 295.9,-16.23 181.94,-12.17"/>
<polygon fill="midnightblue" stroke="midnightblue" points="181.87,-8.66 171.75,-11.81 181.62,-15.66 181.87,-8.66"/>
</g>
<!-- Node18&#45;&gt;Node10 -->
<g id="edge23" class="edge">
<title>Node18&#45;&gt;Node10</title>
<path fill="none" stroke="midnightblue" d="M1064.07,-56.08C1057.15,-48.3 1046.93,-36.8 1038.55,-27.37"/>
<polygon fill="midnightblue" stroke="midnightblue" points="1041.04,-24.9 1031.78,-19.75 1035.81,-29.55 1041.04,-24.9"/>
</g>
<!-- Node18&#45;&gt;Node11 -->
<g id="edge26" class="edge">
<title>Node18&#45;&gt;Node11</title>
<path fill="none" stroke="midnightblue" d="M1045.86,-56.44C1017.98,-47.32 973.65,-32.81 942.6,-22.65"/>
<polygon fill="midnightblue" stroke="midnightblue" points="943.62,-19.3 933.02,-19.52 941.44,-25.95 943.62,-19.3"/>
</g>
<!-- Node18&#45;&gt;Node13 -->
<g id="edge25" class="edge">
<title>Node18&#45;&gt;Node13</title>
<path fill="none" stroke="midnightblue" d="M1097.35,-56.44C1125.06,-47.09 1169.52,-32.09 1199.71,-21.9"/>
<polygon fill="midnightblue" stroke="midnightblue" points="1201,-25.16 1209.35,-18.64 1198.76,-18.52 1201,-25.16"/>
</g>
<!-- Node18&#45;&gt;Node17 -->
<g id="edge27" class="edge">
<title>Node18&#45;&gt;Node17</title>
<path fill="none" stroke="midnightblue" d="M1080.26,-56.08C1087.46,-48.3 1098.11,-36.8 1106.85,-27.37"/>
<polygon fill="midnightblue" stroke="midnightblue" points="1109.67,-29.47 1113.9,-19.75 1104.53,-24.71 1109.67,-29.47"/>
</g>
<!-- Node24&#45;&gt;Node4 -->
<g id="edge37" class="edge">
<title>Node24&#45;&gt;Node4</title>
<path fill="none" stroke="midnightblue" d="M596.83,-168.5C633.42,-151.07 713.84,-112.83 717,-112 930.8,-55.96 992.8,-95.12 1213,-76 1231.66,-74.38 1252.48,-72.29 1269.3,-70.53"/>
<polygon fill="midnightblue" stroke="midnightblue" points="1270.13,-73.96 1279.71,-69.43 1269.39,-67 1270.13,-73.96"/>
</g>
<!-- Node24&#45;&gt;Node5 -->
<g id="edge38" class="edge">
<title>Node24&#45;&gt;Node5</title>
<path fill="none" stroke="midnightblue" d="M523.96,-172.21C419.12,-161.84 196.97,-133.47 150,-76 139.63,-63.31 140.38,-44.1 142.97,-29.86"/>
<polygon fill="midnightblue" stroke="midnightblue" points="146.47,-30.24 145.27,-19.72 139.64,-28.7 146.47,-30.24"/>
</g>
<!-- Node24&#45;&gt;Node7 -->
<g id="edge40" class="edge">
<title>Node24&#45;&gt;Node7</title>
<path fill="none" stroke="midnightblue" d="M579,-168.08C579,-161.01 579,-150.86 579,-141.99"/>
<polygon fill="midnightblue" stroke="midnightblue" points="582.5,-141.75 579,-131.75 575.5,-141.75 582.5,-141.75"/>
</g>
<!-- Node25 -->
<g id="node25" class="node">
<title>Node25</title>
<g id="a_node25"><a xlink:title=" ">
<polygon fill="white" stroke="#bfbfbf" points="725.5,-112.5 725.5,-131.5 790.5,-131.5 790.5,-112.5 725.5,-112.5"/>
<text text-anchor="middle" x="758" y="-119.5" font-family="Helvetica,sans-Serif" font-size="10.00">exception</text>
</a>
</g>
</g>
<!-- Node24&#45;&gt;Node25 -->
<g id="edge36" class="edge">
<title>Node24&#45;&gt;Node25</title>
<path fill="none" stroke="midnightblue" d="M607.36,-168.44C637.74,-159.28 686.11,-144.69 719.82,-134.52"/>
<polygon fill="midnightblue" stroke="midnightblue" points="721.21,-137.76 729.77,-131.52 719.18,-131.05 721.21,-137.76"/>
</g>
<!-- Node26 -->
<g id="node26" class="node">
<title>Node26</title>
<g id="a_node26"><a xlink:title=" ">
<polygon fill="white" stroke="#bfbfbf" points="808.5,-112.5 808.5,-131.5 873.5,-131.5 873.5,-112.5 808.5,-112.5"/>
<text text-anchor="middle" x="841" y="-119.5" font-family="Helvetica,sans-Serif" font-size="10.00">stdexcept</text>
</a>
</g>
</g>
<!-- Node24&#45;&gt;Node26 -->
<g id="edge39" class="edge">
<title>Node24&#45;&gt;Node26</title>
<path fill="none" stroke="midnightblue" d="M621.82,-168.48C664.28,-159.99 731.47,-146.43 798.46,-132.31"/>
<polygon fill="midnightblue" stroke="midnightblue" points="799.28,-135.71 808.34,-130.22 797.83,-128.86 799.28,-135.71"/>
</g>
</g>
</svg>
