<?xml version="1.0" encoding="UTF-8" standalone="no"?>
<!DOCTYPE svg PUBLIC "-//W3C//DTD SVG 1.1//EN"
 "http://www.w3.org/Graphics/SVG/1.1/DTD/svg11.dtd">
<!-- Generated by graphviz version 10.0.1 (20240210.2158)
 -->
<!-- Title: Ark::internal::Module Pages: 1 -->
<svg width="143pt" height="250pt"
 viewBox="0.00 0.00 142.75 250.25" xmlns="http://www.w3.org/2000/svg" xmlns:xlink="http://www.w3.org/1999/xlink">
<g id="graph0" class="graph" transform="scale(1 1) rotate(0) translate(4 246.25)">
<title>Ark::internal::Module</title>
<!-- Node1 -->
<g id="node1" class="node">
<title>Node1</title>
<g id="a_node1"><a xlink:title=" ">
<polygon fill="#999999" stroke="#666666" points="106,-19.25 0,-19.25 0,0 106,0 106,-19.25"/>
<text text-anchor="middle" x="53" y="-5.75" font-family="Helvetica,sans-Serif" font-size="10.00">Ark::internal::Module</text>
</a>
</g>
</g>
<!-- Node2 -->
<g id="node2" class="node">
<title>Node2</title>
<g id="a_node2"><a xlink:href="../../dc/d9e/classArk_1_1internal_1_1Node.html" target="_top" xlink:title="A node of an Abstract Syntax Tree for ArkScript.">
<polygon fill="white" stroke="#666666" points="101.88,-85.75 4.12,-85.75 4.12,-66.5 101.88,-66.5 101.88,-85.75"/>
<text text-anchor="middle" x="53" y="-72.25" font-family="Helvetica,sans-Serif" font-size="10.00">Ark::internal::Node</text>
</a>
</g>
</g>
<!-- Node2&#45;&gt;Node1 -->
<g id="edge1" class="edge">
<title>Node2&#45;&gt;Node1</title>
<path fill="none" stroke="#9a32cd" stroke-dasharray="5,2" d="M53,-54.65C53,-42.82 53,-28.54 53,-19.52"/>
<polygon fill="#9a32cd" stroke="#9a32cd" points="49.5,-54.64 53,-64.64 56.5,-54.64 49.5,-54.64"/>
<text text-anchor="middle" x="61.25" y="-39" font-family="Helvetica,sans-Serif" font-size="10.00"> ast</text>
</g>
<!-- Node3 -->
<g id="node3" class="node">
<title>Node3</title>
<g id="a_node3"><a xlink:title=" ">
<polygon fill="white" stroke="#666666" points="82.75,-174.75 23.25,-174.75 23.25,-155.5 82.75,-155.5 82.75,-174.75"/>
<text text-anchor="middle" x="53" y="-161.25" font-family="Helvetica,sans-Serif" font-size="10.00">std::string</text>
</a>
</g>
</g>
<!-- Node3&#45;&gt;Node2 -->
<g id="edge2" class="edge">
<title>Node3&#45;&gt;Node2</title>
<path fill="none" stroke="#9a32cd" stroke-dasharray="5,2" d="M53,-143.76C53,-125.55 53,-99.72 53,-86.19"/>
<polygon fill="#9a32cd" stroke="#9a32cd" points="49.5,-143.63 53,-153.63 56.5,-143.63 49.5,-143.63"/>
<text text-anchor="middle" x="93.88" y="-128" font-family="Helvetica,sans-Serif" font-size="10.00"> m_after_comment</text>
<text text-anchor="middle" x="93.88" y="-116.75" font-family="Helvetica,sans-Serif" font-size="10.00">m_comment</text>
<text text-anchor="middle" x="93.88" y="-105.5" font-family="Helvetica,sans-Serif" font-size="10.00">m_filename</text>
</g>
<!-- Node4 -->
<g id="node4" class="node">
<title>Node4</title>
<g id="a_node4"><a xlink:title=" ">
<polygon fill="white" stroke="#666666" points="100,-242.25 6,-242.25 6,-211.75 100,-211.75 100,-242.25"/>
<text text-anchor="start" x="14" y="-228.75" font-family="Helvetica,sans-Serif" font-size="10.00">std::basic_string&lt;</text>
<text text-anchor="middle" x="53" y="-217.5" font-family="Helvetica,sans-Serif" font-size="10.00"> Char &gt;</text>
</a>
</g>
</g>
<!-- Node4&#45;&gt;Node3 -->
<g id="edge3" class="edge">
<title>Node4&#45;&gt;Node3</title>
<path fill="none" stroke="#63b8ff" d="M53,-200.27C53,-191.29 53,-181.79 53,-175.1"/>
<polygon fill="#63b8ff" stroke="#63b8ff" points="49.5,-199.99 53,-209.99 56.5,-199.99 49.5,-199.99"/>
</g>
</g>
</svg>
