<?xml version="1.0" encoding="UTF-8" standalone="no"?>
<!DOCTYPE svg PUBLIC "-//W3C//DTD SVG 1.1//EN"
 "http://www.w3.org/Graphics/SVG/1.1/DTD/svg11.dtd">
<!-- Generated by graphviz version 2.49.0 (20210828.1703)
 -->
<!-- Title: C:/Users/folae/Documents/Code/Big&#45;Projects/ArkScript/Ark/include/Ark/Compiler/AST/Optimizer.hpp Pages: 1 -->
<svg width="1516pt" height="296pt"
 viewBox="0.00 0.00 1516.00 296.00" xmlns="http://www.w3.org/2000/svg" xmlns:xlink="http://www.w3.org/1999/xlink">
<g id="graph0" class="graph" transform="scale(1 1) rotate(0) translate(4 292)">
<title>C:/Users/folae/Documents/Code/Big&#45;Projects/ArkScript/Ark/include/Ark/Compiler/AST/Optimizer.hpp</title>
<polygon fill="white" stroke="transparent" points="-4,4 -4,-292 1512,-292 1512,4 -4,4"/>
<!-- Node1 -->
<g id="node1" class="node">
<title>Node1</title>
<g id="a_node1"><a xlink:title="Optimizes a given ArkScript AST.">
<polygon fill="#bfbfbf" stroke="black" points="986.5,-235.5 986.5,-287.5 1135.5,-287.5 1135.5,-235.5 986.5,-235.5"/>
<text text-anchor="start" x="994.5" y="-275.5" font-family="Helvetica,sans-Serif" font-size="10.00">C:/Users/folae/Documents</text>
<text text-anchor="start" x="994.5" y="-264.5" font-family="Helvetica,sans-Serif" font-size="10.00">/Code/Big&#45;Projects/ArkScript</text>
<text text-anchor="start" x="994.5" y="-253.5" font-family="Helvetica,sans-Serif" font-size="10.00">/Ark/include/Ark/Compiler/AST</text>
<text text-anchor="middle" x="1061" y="-242.5" font-family="Helvetica,sans-Serif" font-size="10.00">/Optimizer.hpp</text>
</a>
</g>
</g>
<!-- Node2 -->
<g id="node2" class="node">
<title>Node2</title>
<g id="a_node2"><a xlink:title=" ">
<polygon fill="white" stroke="#bfbfbf" points="0,-56.5 0,-75.5 58,-75.5 58,-56.5 0,-56.5"/>
<text text-anchor="middle" x="29" y="-63.5" font-family="Helvetica,sans-Serif" font-size="10.00">functional</text>
</a>
</g>
</g>
<!-- Node1&#45;&gt;Node2 -->
<g id="edge1" class="edge">
<title>Node1&#45;&gt;Node2</title>
<path fill="none" stroke="midnightblue" d="M986.25,-247.92C821.92,-219.97 416.77,-149.54 68.05,-76.14"/>
<polygon fill="midnightblue" stroke="midnightblue" points="68.52,-72.67 58.01,-74.03 67.08,-79.51 68.52,-72.67"/>
</g>
<!-- Node3 -->
<g id="node3" class="node">
<title>Node3</title>
<g id="a_node3"><a xlink:title=" ">
<polygon fill="white" stroke="#bfbfbf" points="762.5,-174 762.5,-193 845.5,-193 845.5,-174 762.5,-174"/>
<text text-anchor="middle" x="804" y="-181" font-family="Helvetica,sans-Serif" font-size="10.00">unordered_map</text>
</a>
</g>
</g>
<!-- Node1&#45;&gt;Node3 -->
<g id="edge2" class="edge">
<title>Node1&#45;&gt;Node3</title>
<path fill="none" stroke="midnightblue" d="M986.32,-238.42C939.25,-224.5 880.42,-207.1 842.53,-195.89"/>
<polygon fill="midnightblue" stroke="midnightblue" points="843.48,-192.52 832.9,-193.05 841.49,-199.24 843.48,-192.52"/>
</g>
<!-- Node4 -->
<g id="node4" class="node">
<title>Node4</title>
<g id="a_node4"><a xlink:title=" ">
<polygon fill="white" stroke="#bfbfbf" points="990.5,-56.5 990.5,-75.5 1031.5,-75.5 1031.5,-56.5 990.5,-56.5"/>
<text text-anchor="middle" x="1011" y="-63.5" font-family="Helvetica,sans-Serif" font-size="10.00">string</text>
</a>
</g>
</g>
<!-- Node1&#45;&gt;Node4 -->
<g id="edge3" class="edge">
<title>Node1&#45;&gt;Node4</title>
<path fill="none" stroke="midnightblue" d="M1046.65,-235.48C1040.97,-224.59 1034.89,-211.48 1031,-199 1018.8,-159.85 1013.91,-111.78 1012.05,-85.8"/>
<polygon fill="midnightblue" stroke="midnightblue" points="1015.53,-85.3 1011.4,-75.54 1008.54,-85.74 1015.53,-85.3"/>
</g>
<!-- Node5 -->
<g id="node5" class="node">
<title>Node5</title>
<g id="a_node5"><a xlink:title=" ">
<polygon fill="white" stroke="#bfbfbf" points="1310,-0.5 1310,-19.5 1366,-19.5 1366,-0.5 1310,-0.5"/>
<text text-anchor="middle" x="1338" y="-7.5" font-family="Helvetica,sans-Serif" font-size="10.00">cinttypes</text>
</a>
</g>
</g>
<!-- Node1&#45;&gt;Node5 -->
<g id="edge4" class="edge">
<title>Node1&#45;&gt;Node5</title>
<path fill="none" stroke="midnightblue" d="M1135.52,-235.75C1161.19,-225.88 1189.6,-213.42 1214,-199 1287.93,-155.32 1326.63,-153.79 1363,-76 1370.49,-59.98 1361.26,-41.05 1351.97,-27.76"/>
<polygon fill="midnightblue" stroke="midnightblue" points="1354.58,-25.41 1345.74,-19.57 1349.01,-29.65 1354.58,-25.41"/>
</g>
<!-- Node6 -->
<g id="node6" class="node">
<title>Node6</title>
<g id="a_node6"><a xlink:href="../../d7/dc6/Node_8hpp.html" target="_top" xlink:title="AST node used by the parser, optimizer and compiler.">
<polygon fill="white" stroke="black" points="1147.5,-112.5 1147.5,-131.5 1286.5,-131.5 1286.5,-112.5 1147.5,-112.5"/>
<text text-anchor="middle" x="1217" y="-119.5" font-family="Helvetica,sans-Serif" font-size="10.00">Ark/Compiler/AST/Node.hpp</text>
</a>
</g>
</g>
<!-- Node1&#45;&gt;Node6 -->
<g id="edge5" class="edge">
<title>Node1&#45;&gt;Node6</title>
<path fill="none" stroke="midnightblue" d="M1135.56,-237.97C1156.14,-228.69 1176.92,-216.02 1192,-199 1206.22,-182.95 1212.38,-158.62 1215.03,-141.83"/>
<polygon fill="midnightblue" stroke="midnightblue" points="1218.54,-141.98 1216.36,-131.61 1211.6,-141.07 1218.54,-141.98"/>
</g>
<!-- Node13 -->
<g id="node13" class="node">
<title>Node13</title>
<g id="a_node13"><a xlink:href="../../d2/de9/Exceptions_8hpp.html" target="_top" xlink:title="ArkScript homemade exceptions.">
<polygon fill="white" stroke="black" points="864,-174 864,-193 966,-193 966,-174 864,-174"/>
<text text-anchor="middle" x="915" y="-181" font-family="Helvetica,sans-Serif" font-size="10.00">Ark/Exceptions.hpp</text>
</a>
</g>
</g>
<!-- Node1&#45;&gt;Node13 -->
<g id="edge15" class="edge">
<title>Node1&#45;&gt;Node13</title>
<path fill="none" stroke="midnightblue" d="M1012.79,-235.4C988.66,-222.85 960.44,-208.15 940.53,-197.79"/>
<polygon fill="midnightblue" stroke="midnightblue" points="941.96,-194.59 931.48,-193.08 938.73,-200.8 941.96,-194.59"/>
</g>
<!-- Node26 -->
<g id="node26" class="node">
<title>Node26</title>
<g id="a_node26"><a xlink:href="../../d6/de9/Constants_8hpp.html" target="_top" xlink:title="Constants used by ArkScript.">
<polygon fill="white" stroke="black" points="1410,-174 1410,-193 1508,-193 1508,-174 1410,-174"/>
<text text-anchor="middle" x="1459" y="-181" font-family="Helvetica,sans-Serif" font-size="10.00">Ark/Constants.hpp</text>
</a>
</g>
</g>
<!-- Node1&#45;&gt;Node26 -->
<g id="edge45" class="edge">
<title>Node1&#45;&gt;Node26</title>
<path fill="none" stroke="midnightblue" d="M1135.7,-247.77C1203.71,-235.95 1306.82,-217.44 1396,-199 1401.5,-197.86 1407.25,-196.62 1412.95,-195.35"/>
<polygon fill="midnightblue" stroke="midnightblue" points="1414.1,-198.68 1423.08,-193.06 1412.55,-191.85 1414.1,-198.68"/>
</g>
<!-- Node28 -->
<g id="node28" class="node">
<title>Node28</title>
<g id="a_node28"><a xlink:href="../../dc/dc5/makeErrorCtx_8hpp.html" target="_top" xlink:title="Create string error context for AST errors.">
<polygon fill="white" stroke="black" points="1039.5,-168.5 1039.5,-198.5 1182.5,-198.5 1182.5,-168.5 1039.5,-168.5"/>
<text text-anchor="start" x="1047.5" y="-186.5" font-family="Helvetica,sans-Serif" font-size="10.00">Ark/Compiler/AST/makeError</text>
<text text-anchor="middle" x="1111" y="-175.5" font-family="Helvetica,sans-Serif" font-size="10.00">Ctx.hpp</text>
</a>
</g>
</g>
<!-- Node1&#45;&gt;Node28 -->
<g id="edge48" class="edge">
<title>Node1&#45;&gt;Node28</title>
<path fill="none" stroke="midnightblue" d="M1077.65,-235.19C1083.55,-226.22 1090.16,-216.18 1095.92,-207.42"/>
<polygon fill="midnightblue" stroke="midnightblue" points="1098.99,-209.12 1101.56,-198.85 1093.14,-205.28 1098.99,-209.12"/>
</g>
<!-- Node6&#45;&gt;Node4 -->
<g id="edge8" class="edge">
<title>Node6&#45;&gt;Node4</title>
<path fill="none" stroke="midnightblue" d="M1181.82,-112.46C1148.23,-104.2 1095.97,-91.09 1041.46,-76.04"/>
<polygon fill="midnightblue" stroke="midnightblue" points="1042.2,-72.61 1031.62,-73.31 1040.32,-79.36 1042.2,-72.61"/>
</g>
<!-- Node7 -->
<g id="node7" class="node">
<title>Node7</title>
<g id="a_node7"><a xlink:title=" ">
<polygon fill="white" stroke="#bfbfbf" points="1050,-56.5 1050,-75.5 1094,-75.5 1094,-56.5 1050,-56.5"/>
<text text-anchor="middle" x="1072" y="-63.5" font-family="Helvetica,sans-Serif" font-size="10.00">variant</text>
</a>
</g>
</g>
<!-- Node6&#45;&gt;Node7 -->
<g id="edge6" class="edge">
<title>Node6&#45;&gt;Node7</title>
<path fill="none" stroke="midnightblue" d="M1194.02,-112.44C1169.7,-103.39 1131.13,-89.02 1103.87,-78.87"/>
<polygon fill="midnightblue" stroke="midnightblue" points="1104.98,-75.55 1094.39,-75.34 1102.54,-82.11 1104.98,-75.55"/>
</g>
<!-- Node8 -->
<g id="node8" class="node">
<title>Node8</title>
<g id="a_node8"><a xlink:title=" ">
<polygon fill="white" stroke="#bfbfbf" points="1302,-56.5 1302,-75.5 1354,-75.5 1354,-56.5 1302,-56.5"/>
<text text-anchor="middle" x="1328" y="-63.5" font-family="Helvetica,sans-Serif" font-size="10.00">ostream</text>
</a>
</g>
</g>
<!-- Node6&#45;&gt;Node8 -->
<g id="edge7" class="edge">
<title>Node6&#45;&gt;Node8</title>
<path fill="none" stroke="midnightblue" d="M1234.83,-112.32C1252.72,-103.62 1280.48,-90.12 1301.05,-80.11"/>
<polygon fill="midnightblue" stroke="midnightblue" points="1302.75,-83.18 1310.21,-75.65 1299.69,-76.88 1302.75,-83.18"/>
</g>
<!-- Node9 -->
<g id="node9" class="node">
<title>Node9</title>
<g id="a_node9"><a xlink:title=" ">
<polygon fill="white" stroke="#bfbfbf" points="812,-0.5 812,-19.5 854,-19.5 854,-0.5 812,-0.5"/>
<text text-anchor="middle" x="833" y="-7.5" font-family="Helvetica,sans-Serif" font-size="10.00">vector</text>
</a>
</g>
</g>
<!-- Node6&#45;&gt;Node9 -->
<g id="edge9" class="edge">
<title>Node6&#45;&gt;Node9</title>
<path fill="none" stroke="midnightblue" d="M1202.45,-112.32C1174.13,-95.49 1113.46,-59.72 1103,-56 1020.02,-26.49 915.69,-16.12 864.41,-12.65"/>
<polygon fill="midnightblue" stroke="midnightblue" points="864.5,-9.15 854.29,-12.01 864.05,-16.13 864.5,-9.15"/>
</g>
<!-- Node10 -->
<g id="node10" class="node">
<title>Node10</title>
<g id="a_node10"><a xlink:href="../../d8/ddd/Common_8hpp.html" target="_top" xlink:title="Common code for the compiler.">
<polygon fill="white" stroke="black" points="1150,-56.5 1150,-75.5 1284,-75.5 1284,-56.5 1150,-56.5"/>
<text text-anchor="middle" x="1217" y="-63.5" font-family="Helvetica,sans-Serif" font-size="10.00">Ark/Compiler/Common.hpp</text>
</a>
</g>
</g>
<!-- Node6&#45;&gt;Node10 -->
<g id="edge10" class="edge">
<title>Node6&#45;&gt;Node10</title>
<path fill="none" stroke="midnightblue" d="M1217,-112.08C1217,-105.01 1217,-94.86 1217,-85.99"/>
<polygon fill="midnightblue" stroke="midnightblue" points="1220.5,-85.75 1217,-75.75 1213.5,-85.75 1220.5,-85.75"/>
</g>
<!-- Node10&#45;&gt;Node5 -->
<g id="edge14" class="edge">
<title>Node10&#45;&gt;Node5</title>
<path fill="none" stroke="midnightblue" d="M1236.17,-56.44C1255.91,-47.64 1286.89,-33.81 1309.49,-23.72"/>
<polygon fill="midnightblue" stroke="midnightblue" points="1311.21,-26.79 1318.92,-19.52 1308.36,-20.4 1311.21,-26.79"/>
</g>
<!-- Node10&#45;&gt;Node9 -->
<g id="edge13" class="edge">
<title>Node10&#45;&gt;Node9</title>
<path fill="none" stroke="midnightblue" d="M1156.15,-56.44C1073.39,-44.8 928.34,-24.41 864.58,-15.44"/>
<polygon fill="midnightblue" stroke="midnightblue" points="864.75,-11.93 854.36,-14 863.78,-18.86 864.75,-11.93"/>
</g>
<!-- Node11 -->
<g id="node11" class="node">
<title>Node11</title>
<g id="a_node11"><a xlink:title=" ">
<polygon fill="white" stroke="#bfbfbf" points="998,-0.5 998,-19.5 1036,-19.5 1036,-0.5 998,-0.5"/>
<text text-anchor="middle" x="1017" y="-7.5" font-family="Helvetica,sans-Serif" font-size="10.00">array</text>
</a>
</g>
</g>
<!-- Node10&#45;&gt;Node11 -->
<g id="edge11" class="edge">
<title>Node10&#45;&gt;Node11</title>
<path fill="none" stroke="midnightblue" d="M1185.31,-56.44C1146.95,-46.09 1082.9,-28.79 1045.86,-18.79"/>
<polygon fill="midnightblue" stroke="midnightblue" points="1046.74,-15.4 1036.17,-16.18 1044.92,-22.16 1046.74,-15.4"/>
</g>
<!-- Node12 -->
<g id="node12" class="node">
<title>Node12</title>
<g id="a_node12"><a xlink:title=" ">
<polygon fill="white" stroke="#bfbfbf" points="1185,-0.5 1185,-19.5 1249,-19.5 1249,-0.5 1185,-0.5"/>
<text text-anchor="middle" x="1217" y="-7.5" font-family="Helvetica,sans-Serif" font-size="10.00">string_view</text>
</a>
</g>
</g>
<!-- Node10&#45;&gt;Node12 -->
<g id="edge12" class="edge">
<title>Node10&#45;&gt;Node12</title>
<path fill="none" stroke="midnightblue" d="M1217,-56.08C1217,-49.01 1217,-38.86 1217,-29.99"/>
<polygon fill="midnightblue" stroke="midnightblue" points="1220.5,-29.75 1217,-19.75 1213.5,-29.75 1220.5,-29.75"/>
</g>
<!-- Node13&#45;&gt;Node4 -->
<g id="edge17" class="edge">
<title>Node13&#45;&gt;Node4</title>
<path fill="none" stroke="midnightblue" d="M922.22,-173.82C938.13,-154.67 976.47,-108.54 997.18,-83.63"/>
<polygon fill="midnightblue" stroke="midnightblue" points="1000,-85.71 1003.7,-75.78 994.62,-81.24 1000,-85.71"/>
</g>
<!-- Node13&#45;&gt;Node9 -->
<g id="edge18" class="edge">
<title>Node13&#45;&gt;Node9</title>
<path fill="none" stroke="midnightblue" d="M905.83,-173.79C896.6,-164.42 882.79,-148.61 876,-132 863.14,-100.51 879.69,-87.56 867,-56 862.77,-45.48 855.41,-35.27 848.62,-27.25"/>
<polygon fill="midnightblue" stroke="midnightblue" points="851.18,-24.86 841.9,-19.75 845.97,-29.53 851.18,-24.86"/>
</g>
<!-- Node14 -->
<g id="node14" class="node">
<title>Node14</title>
<g id="a_node14"><a xlink:title=" ">
<polygon fill="white" stroke="#bfbfbf" points="885.5,-112.5 885.5,-131.5 944.5,-131.5 944.5,-112.5 885.5,-112.5"/>
<text text-anchor="middle" x="915" y="-119.5" font-family="Helvetica,sans-Serif" font-size="10.00">exception</text>
</a>
</g>
</g>
<!-- Node13&#45;&gt;Node14 -->
<g id="edge16" class="edge">
<title>Node13&#45;&gt;Node14</title>
<path fill="none" stroke="midnightblue" d="M915,-173.98C915,-165.58 915,-152.48 915,-141.66"/>
<polygon fill="midnightblue" stroke="midnightblue" points="918.5,-141.51 915,-131.51 911.5,-141.51 918.5,-141.51"/>
</g>
<!-- Node15 -->
<g id="node15" class="node">
<title>Node15</title>
<g id="a_node15"><a xlink:title=" ">
<polygon fill="white" stroke="#bfbfbf" points="548.5,-112.5 548.5,-131.5 607.5,-131.5 607.5,-112.5 548.5,-112.5"/>
<text text-anchor="middle" x="578" y="-119.5" font-family="Helvetica,sans-Serif" font-size="10.00">stdexcept</text>
</a>
</g>
</g>
<!-- Node13&#45;&gt;Node15 -->
<g id="edge19" class="edge">
<title>Node13&#45;&gt;Node15</title>
<path fill="none" stroke="midnightblue" d="M881.23,-173.95C872.4,-171.86 862.87,-169.72 854,-168 752.58,-148.28 723.4,-151.75 617.87,-132.03"/>
<polygon fill="midnightblue" stroke="midnightblue" points="618.24,-128.54 607.76,-130.11 616.93,-135.41 618.24,-128.54"/>
</g>
<!-- Node16 -->
<g id="node16" class="node">
<title>Node16</title>
<g id="a_node16"><a xlink:href="../../de/dfd/Value_8hpp.html" target="_top" xlink:title=" ">
<polygon fill="white" stroke="black" points="626,-112.5 626,-131.5 722,-131.5 722,-112.5 626,-112.5"/>
<text text-anchor="middle" x="674" y="-119.5" font-family="Helvetica,sans-Serif" font-size="10.00">Ark/VM/Value.hpp</text>
</a>
</g>
</g>
<!-- Node13&#45;&gt;Node16 -->
<g id="edge20" class="edge">
<title>Node13&#45;&gt;Node16</title>
<path fill="none" stroke="midnightblue" d="M880.47,-173.98C837.79,-163.44 765.08,-145.49 718.32,-133.94"/>
<polygon fill="midnightblue" stroke="midnightblue" points="719.01,-130.51 708.47,-131.51 717.33,-137.3 719.01,-130.51"/>
</g>
<!-- Node16&#45;&gt;Node2 -->
<g id="edge27" class="edge">
<title>Node16&#45;&gt;Node2</title>
<path fill="none" stroke="midnightblue" d="M625.94,-113.21C622.58,-112.77 619.24,-112.36 616,-112 376.27,-85.59 310.6,-111.57 68.53,-75.98"/>
<polygon fill="midnightblue" stroke="midnightblue" points="68.77,-72.48 58.36,-74.47 67.74,-79.4 68.77,-72.48"/>
</g>
<!-- Node16&#45;&gt;Node4 -->
<g id="edge23" class="edge">
<title>Node16&#45;&gt;Node4</title>
<path fill="none" stroke="midnightblue" d="M722.13,-115.39C781.95,-108.07 887.03,-94.02 976,-76 977.46,-75.7 978.95,-75.39 980.45,-75.05"/>
<polygon fill="midnightblue" stroke="midnightblue" points="981.44,-78.41 990.35,-72.69 979.81,-71.61 981.44,-78.41"/>
</g>
<!-- Node16&#45;&gt;Node5 -->
<g id="edge24" class="edge">
<title>Node16&#45;&gt;Node5</title>
<path fill="none" stroke="midnightblue" d="M722.4,-112.67C769.67,-104.29 843.56,-90.57 907,-76 940.62,-68.28 948.14,-62.62 982,-56 1012.7,-49.99 1214.41,-25.71 1299.85,-15.53"/>
<polygon fill="midnightblue" stroke="midnightblue" points="1300.4,-18.99 1309.92,-14.33 1299.58,-12.03 1300.4,-18.99"/>
</g>
<!-- Node16&#45;&gt;Node7 -->
<g id="edge22" class="edge">
<title>Node16&#45;&gt;Node7</title>
<path fill="none" stroke="midnightblue" d="M722.2,-117.57C790.8,-112.15 920.62,-99.88 1039.74,-75.97"/>
<polygon fill="midnightblue" stroke="midnightblue" points="1040.66,-79.35 1049.76,-73.92 1039.26,-72.49 1040.66,-79.35"/>
</g>
<!-- Node16&#45;&gt;Node9 -->
<g id="edge21" class="edge">
<title>Node16&#45;&gt;Node9</title>
<path fill="none" stroke="midnightblue" d="M684.77,-112.49C701.01,-99.79 732.84,-75.27 761,-56 776.97,-45.07 795.49,-33.52 809.75,-24.86"/>
<polygon fill="midnightblue" stroke="midnightblue" points="811.68,-27.78 818.43,-19.62 808.06,-21.79 811.68,-27.78"/>
</g>
<!-- Node16&#45;&gt;Node11 -->
<g id="edge30" class="edge">
<title>Node16&#45;&gt;Node11</title>
<path fill="none" stroke="midnightblue" d="M721.06,-112.49C760.54,-104.77 818.16,-92.13 867,-76 911.55,-61.29 961.11,-38.47 990.64,-24.15"/>
<polygon fill="midnightblue" stroke="midnightblue" points="992.4,-27.19 999.85,-19.65 989.33,-20.9 992.4,-27.19"/>
</g>
<!-- Node17 -->
<g id="node17" class="node">
<title>Node17</title>
<g id="a_node17"><a xlink:title=" ">
<polygon fill="white" stroke="#bfbfbf" points="293,-0.5 293,-19.5 347,-19.5 347,-0.5 293,-0.5"/>
<text text-anchor="middle" x="320" y="-7.5" font-family="Helvetica,sans-Serif" font-size="10.00">iostream</text>
</a>
</g>
</g>
<!-- Node16&#45;&gt;Node17 -->
<g id="edge25" class="edge">
<title>Node16&#45;&gt;Node17</title>
<path fill="none" stroke="midnightblue" d="M625.92,-113.32C622.57,-112.85 619.24,-112.41 616,-112 574.47,-106.79 269.15,-106.98 241,-76 222.27,-55.39 256.11,-35.65 285.16,-23.44"/>
<polygon fill="midnightblue" stroke="midnightblue" points="286.76,-26.56 294.74,-19.59 284.16,-20.07 286.76,-26.56"/>
</g>
<!-- Node18 -->
<g id="node18" class="node">
<title>Node18</title>
<g id="a_node18"><a xlink:title=" ">
<polygon fill="white" stroke="#bfbfbf" points="392,-0.5 392,-19.5 444,-19.5 444,-0.5 392,-0.5"/>
<text text-anchor="middle" x="418" y="-7.5" font-family="Helvetica,sans-Serif" font-size="10.00">memory</text>
</a>
</g>
</g>
<!-- Node16&#45;&gt;Node18 -->
<g id="edge26" class="edge">
<title>Node16&#45;&gt;Node18</title>
<path fill="none" stroke="midnightblue" d="M625.86,-113.18C558.63,-102.06 443.99,-82.34 437,-76 424.1,-64.29 419.77,-44.35 418.41,-29.64"/>
<polygon fill="midnightblue" stroke="midnightblue" points="421.9,-29.42 417.85,-19.63 414.91,-29.8 421.9,-29.42"/>
</g>
<!-- Node19 -->
<g id="node19" class="node">
<title>Node19</title>
<g id="a_node19"><a xlink:title=" ">
<polygon fill="white" stroke="#bfbfbf" points="200,-0.5 200,-19.5 240,-19.5 240,-0.5 200,-0.5"/>
<text text-anchor="middle" x="220" y="-7.5" font-family="Helvetica,sans-Serif" font-size="10.00">utility</text>
</a>
</g>
</g>
<!-- Node16&#45;&gt;Node19 -->
<g id="edge28" class="edge">
<title>Node16&#45;&gt;Node19</title>
<path fill="none" stroke="midnightblue" d="M625.92,-113.31C622.57,-112.84 619.24,-112.4 616,-112 530.95,-101.42 295.24,-133.85 232,-76 219.45,-64.52 217.41,-44.54 217.92,-29.76"/>
<polygon fill="midnightblue" stroke="midnightblue" points="221.41,-29.92 218.67,-19.69 214.43,-29.4 221.41,-29.92"/>
</g>
<!-- Node20 -->
<g id="node20" class="node">
<title>Node20</title>
<g id="a_node20"><a xlink:title=" ">
<polygon fill="white" stroke="#bfbfbf" points="634.5,-56.5 634.5,-75.5 713.5,-75.5 713.5,-56.5 634.5,-56.5"/>
<text text-anchor="middle" x="674" y="-63.5" font-family="Helvetica,sans-Serif" font-size="10.00">Ark/String.hpp</text>
</a>
</g>
</g>
<!-- Node16&#45;&gt;Node20 -->
<g id="edge29" class="edge">
<title>Node16&#45;&gt;Node20</title>
<path fill="none" stroke="midnightblue" d="M674,-112.08C674,-105.01 674,-94.86 674,-85.99"/>
<polygon fill="midnightblue" stroke="midnightblue" points="677.5,-85.75 674,-75.75 670.5,-85.75 677.5,-85.75"/>
</g>
<!-- Node21 -->
<g id="node21" class="node">
<title>Node21</title>
<g id="a_node21"><a xlink:href="../../dc/dd5/Closure_8hpp.html" target="_top" xlink:title="Subtype of the value type, handling closures.">
<polygon fill="white" stroke="black" points="446,-56.5 446,-75.5 578,-75.5 578,-56.5 446,-56.5"/>
<text text-anchor="middle" x="512" y="-63.5" font-family="Helvetica,sans-Serif" font-size="10.00">Ark/VM/Value/Closure.hpp</text>
</a>
</g>
</g>
<!-- Node16&#45;&gt;Node21 -->
<g id="edge31" class="edge">
<title>Node16&#45;&gt;Node21</title>
<path fill="none" stroke="midnightblue" d="M648.33,-112.44C621.08,-103.36 577.82,-88.94 547.35,-78.78"/>
<polygon fill="midnightblue" stroke="midnightblue" points="548.14,-75.36 537.55,-75.52 545.93,-82 548.14,-75.36"/>
</g>
<!-- Node22 -->
<g id="node22" class="node">
<title>Node22</title>
<g id="a_node22"><a xlink:href="../../d5/d40/Platform_8hpp.html" target="_top" xlink:title="ArkScript configuration macros.">
<polygon fill="white" stroke="black" points="467.5,-0.5 467.5,-19.5 556.5,-19.5 556.5,-0.5 467.5,-0.5"/>
<text text-anchor="middle" x="512" y="-7.5" font-family="Helvetica,sans-Serif" font-size="10.00">Ark/Platform.hpp</text>
</a>
</g>
</g>
<!-- Node16&#45;&gt;Node22 -->
<g id="edge42" class="edge">
<title>Node16&#45;&gt;Node22</title>
<path fill="none" stroke="midnightblue" d="M663.27,-112.43C647.09,-99.64 615.34,-75.02 587,-56 570.45,-44.89 551.16,-33.35 536.28,-24.73"/>
<polygon fill="midnightblue" stroke="midnightblue" points="537.63,-21.47 527.22,-19.53 534.15,-27.54 537.63,-21.47"/>
</g>
<!-- Node23 -->
<g id="node23" class="node">
<title>Node23</title>
<g id="a_node23"><a xlink:href="../../dc/d3d/UserType_8hpp.html" target="_top" xlink:title="Subtype of the value, capable of handling any C++ type.">
<polygon fill="white" stroke="black" points="250,-56.5 250,-75.5 390,-75.5 390,-56.5 250,-56.5"/>
<text text-anchor="middle" x="320" y="-63.5" font-family="Helvetica,sans-Serif" font-size="10.00">Ark/VM/Value/UserType.hpp</text>
</a>
</g>
</g>
<!-- Node16&#45;&gt;Node23 -->
<g id="edge36" class="edge">
<title>Node16&#45;&gt;Node23</title>
<path fill="none" stroke="midnightblue" d="M625.89,-113.52C622.55,-113.01 619.22,-112.5 616,-112 537.2,-99.9 446.57,-86.14 386.57,-77.06"/>
<polygon fill="midnightblue" stroke="midnightblue" points="386.89,-73.57 376.48,-75.53 385.84,-80.49 386.89,-73.57"/>
</g>
<!-- Node24 -->
<g id="node24" class="node">
<title>Node24</title>
<g id="a_node24"><a xlink:href="../../d0/dd2/Profiling_8hpp.html" target="_top" xlink:title=" ">
<polygon fill="white" stroke="black" points="770,-56.5 770,-75.5 858,-75.5 858,-56.5 770,-56.5"/>
<text text-anchor="middle" x="814" y="-63.5" font-family="Helvetica,sans-Serif" font-size="10.00">Ark/Profiling.hpp</text>
</a>
</g>
</g>
<!-- Node16&#45;&gt;Node24 -->
<g id="edge43" class="edge">
<title>Node16&#45;&gt;Node24</title>
<path fill="none" stroke="midnightblue" d="M696.18,-112.44C719.43,-103.48 756.15,-89.31 782.42,-79.18"/>
<polygon fill="midnightblue" stroke="midnightblue" points="783.85,-82.38 791.92,-75.52 781.33,-75.85 783.85,-82.38"/>
</g>
<!-- Node25 -->
<g id="node25" class="node">
<title>Node25</title>
<g id="a_node25"><a xlink:title=" ">
<polygon fill="white" stroke="#bfbfbf" points="76,-56.5 76,-75.5 156,-75.5 156,-56.5 76,-56.5"/>
<text text-anchor="middle" x="116" y="-63.5" font-family="Helvetica,sans-Serif" font-size="10.00">inline/Value.inl</text>
</a>
</g>
</g>
<!-- Node16&#45;&gt;Node25 -->
<g id="edge44" class="edge">
<title>Node16&#45;&gt;Node25</title>
<path fill="none" stroke="midnightblue" d="M625.93,-113.26C622.57,-112.81 619.24,-112.38 616,-112 418.5,-88.74 367.37,-100.37 170,-76 168.73,-75.84 167.44,-75.68 166.14,-75.5"/>
<polygon fill="midnightblue" stroke="midnightblue" points="166.44,-72.01 156.05,-74.06 165.45,-78.94 166.44,-72.01"/>
</g>
<!-- Node21&#45;&gt;Node9 -->
<g id="edge33" class="edge">
<title>Node21&#45;&gt;Node9</title>
<path fill="none" stroke="midnightblue" d="M562.86,-56.44C630.13,-45.13 746.6,-25.53 802,-16.22"/>
<polygon fill="midnightblue" stroke="midnightblue" points="802.64,-19.66 811.92,-14.55 801.48,-12.75 802.64,-19.66"/>
</g>
<!-- Node21&#45;&gt;Node17 -->
<g id="edge34" class="edge">
<title>Node21&#45;&gt;Node17</title>
<path fill="none" stroke="midnightblue" d="M481.58,-56.44C447.75,-46.93 393.11,-31.56 356.88,-21.37"/>
<polygon fill="midnightblue" stroke="midnightblue" points="357.75,-17.98 347.18,-18.64 355.86,-24.72 357.75,-17.98"/>
</g>
<!-- Node21&#45;&gt;Node18 -->
<g id="edge32" class="edge">
<title>Node21&#45;&gt;Node18</title>
<path fill="none" stroke="midnightblue" d="M496.9,-56.32C482.1,-47.82 459.31,-34.73 442.02,-24.8"/>
<polygon fill="midnightblue" stroke="midnightblue" points="443.48,-21.6 433.07,-19.65 439.99,-27.67 443.48,-21.6"/>
</g>
<!-- Node21&#45;&gt;Node22 -->
<g id="edge35" class="edge">
<title>Node21&#45;&gt;Node22</title>
<path fill="none" stroke="midnightblue" d="M512,-56.08C512,-49.01 512,-38.86 512,-29.99"/>
<polygon fill="midnightblue" stroke="midnightblue" points="515.5,-29.75 512,-19.75 508.5,-29.75 515.5,-29.75"/>
</g>
<!-- Node23&#45;&gt;Node9 -->
<g id="edge38" class="edge">
<title>Node23&#45;&gt;Node9</title>
<path fill="none" stroke="midnightblue" d="M390.25,-57.6C503.18,-45.72 720.6,-22.83 801.59,-14.31"/>
<polygon fill="midnightblue" stroke="midnightblue" points="802.07,-17.78 811.65,-13.25 801.34,-10.81 802.07,-17.78"/>
</g>
<!-- Node23&#45;&gt;Node17 -->
<g id="edge37" class="edge">
<title>Node23&#45;&gt;Node17</title>
<path fill="none" stroke="midnightblue" d="M320,-56.08C320,-49.01 320,-38.86 320,-29.99"/>
<polygon fill="midnightblue" stroke="midnightblue" points="323.5,-29.75 320,-19.75 316.5,-29.75 323.5,-29.75"/>
</g>
<!-- Node23&#45;&gt;Node18 -->
<g id="edge40" class="edge">
<title>Node23&#45;&gt;Node18</title>
<path fill="none" stroke="midnightblue" d="M335.75,-56.32C351.32,-47.74 375.38,-34.49 393.46,-24.52"/>
<polygon fill="midnightblue" stroke="midnightblue" points="395.22,-27.55 402.29,-19.65 391.85,-21.42 395.22,-27.55"/>
</g>
<!-- Node23&#45;&gt;Node19 -->
<g id="edge39" class="edge">
<title>Node23&#45;&gt;Node19</title>
<path fill="none" stroke="midnightblue" d="M303.93,-56.32C288.04,-47.74 263.49,-34.49 245.04,-24.52"/>
<polygon fill="midnightblue" stroke="midnightblue" points="246.49,-21.33 236.03,-19.65 243.16,-27.49 246.49,-21.33"/>
</g>
<!-- Node23&#45;&gt;Node22 -->
<g id="edge41" class="edge">
<title>Node23&#45;&gt;Node22</title>
<path fill="none" stroke="midnightblue" d="M350.42,-56.44C383.28,-47.2 435.78,-32.44 471.97,-22.26"/>
<polygon fill="midnightblue" stroke="midnightblue" points="473.04,-25.59 481.72,-19.52 471.15,-18.85 473.04,-25.59"/>
</g>
<!-- Node26&#45;&gt;Node5 -->
<g id="edge46" class="edge">
<title>Node26&#45;&gt;Node5</title>
<path fill="none" stroke="midnightblue" d="M1455.21,-173.64C1444.26,-148.28 1412.33,-75.93 1396,-56 1386.09,-43.9 1372.35,-33.06 1360.73,-25.05"/>
<polygon fill="midnightblue" stroke="midnightblue" points="1362.63,-22.11 1352.36,-19.51 1358.76,-27.95 1362.63,-22.11"/>
</g>
<!-- Node27 -->
<g id="node27" class="node">
<title>Node27</title>
<g id="a_node27"><a xlink:title=" ">
<polygon fill="white" stroke="#bfbfbf" points="1448,-112.5 1448,-131.5 1496,-131.5 1496,-112.5 1448,-112.5"/>
<text text-anchor="middle" x="1472" y="-119.5" font-family="Helvetica,sans-Serif" font-size="10.00">cstddef</text>
</a>
</g>
</g>
<!-- Node26&#45;&gt;Node27 -->
<g id="edge47" class="edge">
<title>Node26&#45;&gt;Node27</title>
<path fill="none" stroke="midnightblue" d="M1460.86,-173.98C1462.72,-165.49 1465.62,-152.2 1468,-141.32"/>
<polygon fill="midnightblue" stroke="midnightblue" points="1471.43,-142.03 1470.14,-131.51 1464.59,-140.53 1471.43,-142.03"/>
</g>
<!-- Node28&#45;&gt;Node4 -->
<g id="edge50" class="edge">
<title>Node28&#45;&gt;Node4</title>
<path fill="none" stroke="midnightblue" d="M1098.74,-168.34C1080.15,-146.86 1044.91,-106.17 1025.22,-83.43"/>
<polygon fill="midnightblue" stroke="midnightblue" points="1027.7,-80.94 1018.51,-75.67 1022.41,-85.52 1027.7,-80.94"/>
</g>
<!-- Node28&#45;&gt;Node6 -->
<g id="edge51" class="edge">
<title>Node28&#45;&gt;Node6</title>
<path fill="none" stroke="midnightblue" d="M1136.12,-168.4C1153.27,-158.77 1175.86,-146.09 1192.81,-136.58"/>
<polygon fill="midnightblue" stroke="midnightblue" points="1194.57,-139.6 1201.58,-131.66 1191.14,-133.5 1194.57,-139.6"/>
</g>
<!-- Node29 -->
<g id="node29" class="node">
<title>Node29</title>
<g id="a_node29"><a xlink:title=" ">
<polygon fill="white" stroke="#bfbfbf" points="1077,-112.5 1077,-131.5 1129,-131.5 1129,-112.5 1077,-112.5"/>
<text text-anchor="middle" x="1103" y="-119.5" font-family="Helvetica,sans-Serif" font-size="10.00">sstream</text>
</a>
</g>
</g>
<!-- Node28&#45;&gt;Node29 -->
<g id="edge49" class="edge">
<title>Node28&#45;&gt;Node29</title>
<path fill="none" stroke="midnightblue" d="M1109.1,-168.4C1108.03,-160.38 1106.66,-150.23 1105.5,-141.57"/>
<polygon fill="midnightblue" stroke="midnightblue" points="1108.97,-141.1 1104.16,-131.66 1102.03,-142.04 1108.97,-141.1"/>
</g>
</g>
</svg>
