<?xml version="1.0" encoding="UTF-8" standalone="no"?>
<!DOCTYPE svg PUBLIC "-//W3C//DTD SVG 1.1//EN"
 "http://www.w3.org/Graphics/SVG/1.1/DTD/svg11.dtd">
<!-- Generated by graphviz version 2.43.0 (0)
 -->
<!-- Title: /home/fola/code/Ark/include/Ark/Builtins/Builtins.hpp Pages: 1 -->
<svg width="1229pt" height="274pt"
 viewBox="0.00 0.00 1228.94 274.00" xmlns="http://www.w3.org/2000/svg" xmlns:xlink="http://www.w3.org/1999/xlink">
<g id="graph0" class="graph" transform="scale(1 1) rotate(0) translate(4 270)">
<title>/home/fola/code/Ark/include/Ark/Builtins/Builtins.hpp</title>
<polygon fill="white" stroke="transparent" points="-4,4 -4,-270 1224.94,-270 1224.94,4 -4,4"/>
<!-- Node1 -->
<g id="node1" class="node">
<title>Node1</title>
<g id="a_node1"><a xlink:title="Host the declaration of all the ArkScript builtins.">
<polygon fill="#bfbfbf" stroke="black" points="1011,-224.5 1011,-265.5 1126,-265.5 1126,-224.5 1011,-224.5"/>
<text text-anchor="start" x="1019" y="-253.5" font-family="Helvetica,sans-Serif" font-size="10.00">/home/fola/code/Ark</text>
<text text-anchor="start" x="1019" y="-242.5" font-family="Helvetica,sans-Serif" font-size="10.00">/include/Ark/Builtins</text>
<text text-anchor="middle" x="1068.5" y="-231.5" font-family="Helvetica,sans-Serif" font-size="10.00">/Builtins.hpp</text>
</a>
</g>
</g>
<!-- Node2 -->
<g id="node2" class="node">
<title>Node2</title>
<g id="a_node2"><a xlink:title=" ">
<polygon fill="white" stroke="#bfbfbf" points="1089,-0.5 1089,-19.5 1136,-19.5 1136,-0.5 1089,-0.5"/>
<text text-anchor="middle" x="1112.5" y="-7.5" font-family="Helvetica,sans-Serif" font-size="10.00">vector</text>
</a>
</g>
</g>
<!-- Node1&#45;&gt;Node2 -->
<g id="edge1" class="edge">
<title>Node1&#45;&gt;Node2</title>
<path fill="none" stroke="midnightblue" d="M1111.04,-224.43C1145.47,-206 1191.56,-174.82 1212.5,-132 1218.82,-119.08 1227.7,-80.67 1211.5,-56 1197.03,-33.97 1168.9,-22.58 1146.31,-16.78"/>
<polygon fill="midnightblue" stroke="midnightblue" points="1146.92,-13.33 1136.39,-14.49 1145.35,-20.15 1146.92,-13.33"/>
</g>
<!-- Node3 -->
<g id="node3" class="node">
<title>Node3</title>
<g id="a_node3"><a xlink:href="../../de/dfd/Value_8hpp.html" target="_top" xlink:title=" ">
<polygon fill="white" stroke="black" points="558,-112.5 558,-131.5 661,-131.5 661,-112.5 558,-112.5"/>
<text text-anchor="middle" x="609.5" y="-119.5" font-family="Helvetica,sans-Serif" font-size="10.00">Ark/VM/Value.hpp</text>
</a>
</g>
</g>
<!-- Node1&#45;&gt;Node3 -->
<g id="edge2" class="edge">
<title>Node1&#45;&gt;Node3</title>
<path fill="none" stroke="midnightblue" d="M1010.83,-228.8C917.22,-204.12 734.37,-155.92 651.78,-134.15"/>
<polygon fill="midnightblue" stroke="midnightblue" points="652.54,-130.73 641.98,-131.56 650.76,-137.5 652.54,-130.73"/>
</g>
<!-- Node18 -->
<g id="node18" class="node">
<title>Node18</title>
<g id="a_node18"><a xlink:href="../../d2/de9/Exceptions_8hpp.html" target="_top" xlink:title="ArkScript homemade exceptions.">
<polygon fill="white" stroke="black" points="1013.5,-168.5 1013.5,-187.5 1123.5,-187.5 1123.5,-168.5 1013.5,-168.5"/>
<text text-anchor="middle" x="1068.5" y="-175.5" font-family="Helvetica,sans-Serif" font-size="10.00">Ark/Exceptions.hpp</text>
</a>
</g>
</g>
<!-- Node1&#45;&gt;Node18 -->
<g id="edge27" class="edge">
<title>Node1&#45;&gt;Node18</title>
<path fill="none" stroke="midnightblue" d="M1068.5,-224.5C1068.5,-216.07 1068.5,-206.24 1068.5,-197.87"/>
<polygon fill="midnightblue" stroke="midnightblue" points="1072,-197.65 1068.5,-187.65 1065,-197.65 1072,-197.65"/>
</g>
<!-- Node3&#45;&gt;Node2 -->
<g id="edge3" class="edge">
<title>Node3&#45;&gt;Node2</title>
<path fill="none" stroke="midnightblue" d="M661.04,-121.57C766.77,-121.85 1003.93,-117.66 1071.5,-76 1088.85,-65.3 1100.09,-44.23 1106.34,-28.97"/>
<polygon fill="midnightblue" stroke="midnightblue" points="1109.64,-30.13 1109.88,-19.54 1103.09,-27.67 1109.64,-30.13"/>
</g>
<!-- Node4 -->
<g id="node4" class="node">
<title>Node4</title>
<g id="a_node4"><a xlink:title=" ">
<polygon fill="white" stroke="#bfbfbf" points="584,-56.5 584,-75.5 635,-75.5 635,-56.5 584,-56.5"/>
<text text-anchor="middle" x="609.5" y="-63.5" font-family="Helvetica,sans-Serif" font-size="10.00">variant</text>
</a>
</g>
</g>
<!-- Node3&#45;&gt;Node4 -->
<g id="edge4" class="edge">
<title>Node3&#45;&gt;Node4</title>
<path fill="none" stroke="midnightblue" d="M609.5,-112.08C609.5,-105.01 609.5,-94.86 609.5,-85.99"/>
<polygon fill="midnightblue" stroke="midnightblue" points="613,-85.75 609.5,-75.75 606,-85.75 613,-85.75"/>
</g>
<!-- Node5 -->
<g id="node5" class="node">
<title>Node5</title>
<g id="a_node5"><a xlink:title=" ">
<polygon fill="white" stroke="#bfbfbf" points="1140.5,-56.5 1140.5,-75.5 1184.5,-75.5 1184.5,-56.5 1140.5,-56.5"/>
<text text-anchor="middle" x="1162.5" y="-63.5" font-family="Helvetica,sans-Serif" font-size="10.00">string</text>
</a>
</g>
</g>
<!-- Node3&#45;&gt;Node5 -->
<g id="edge5" class="edge">
<title>Node3&#45;&gt;Node5</title>
<path fill="none" stroke="midnightblue" d="M661.21,-119.21C754.66,-115.36 957.67,-104.27 1126.5,-76 1127.75,-75.79 1129.02,-75.56 1130.3,-75.31"/>
<polygon fill="midnightblue" stroke="midnightblue" points="1131.12,-78.72 1140.15,-73.17 1129.63,-71.88 1131.12,-78.72"/>
</g>
<!-- Node6 -->
<g id="node6" class="node">
<title>Node6</title>
<g id="a_node6"><a xlink:title=" ">
<polygon fill="white" stroke="#bfbfbf" points="653.5,-56.5 653.5,-75.5 715.5,-75.5 715.5,-56.5 653.5,-56.5"/>
<text text-anchor="middle" x="684.5" y="-63.5" font-family="Helvetica,sans-Serif" font-size="10.00">cinttypes</text>
</a>
</g>
</g>
<!-- Node3&#45;&gt;Node6 -->
<g id="edge6" class="edge">
<title>Node3&#45;&gt;Node6</title>
<path fill="none" stroke="midnightblue" d="M621.55,-112.32C632.96,-104.11 650.33,-91.6 663.93,-81.81"/>
<polygon fill="midnightblue" stroke="midnightblue" points="666.16,-84.52 672.23,-75.83 662.07,-78.84 666.16,-84.52"/>
</g>
<!-- Node7 -->
<g id="node7" class="node">
<title>Node7</title>
<g id="a_node7"><a xlink:title=" ">
<polygon fill="white" stroke="#bfbfbf" points="823.5,-0.5 823.5,-19.5 883.5,-19.5 883.5,-0.5 823.5,-0.5"/>
<text text-anchor="middle" x="853.5" y="-7.5" font-family="Helvetica,sans-Serif" font-size="10.00">iostream</text>
</a>
</g>
</g>
<!-- Node3&#45;&gt;Node7 -->
<g id="edge7" class="edge">
<title>Node3&#45;&gt;Node7</title>
<path fill="none" stroke="midnightblue" d="M557.98,-119.53C490.63,-116.4 378.21,-106.61 352.5,-76 346.78,-69.19 346.46,-62.52 352.5,-56 385.86,-19.94 729.8,-27.03 813.19,-19.6"/>
<polygon fill="midnightblue" stroke="midnightblue" points="813.82,-23.05 823.35,-18.42 813.02,-16.1 813.82,-23.05"/>
</g>
<!-- Node8 -->
<g id="node8" class="node">
<title>Node8</title>
<g id="a_node8"><a xlink:title=" ">
<polygon fill="white" stroke="#bfbfbf" points="945.5,-0.5 945.5,-19.5 1003.5,-19.5 1003.5,-0.5 945.5,-0.5"/>
<text text-anchor="middle" x="974.5" y="-7.5" font-family="Helvetica,sans-Serif" font-size="10.00">memory</text>
</a>
</g>
</g>
<!-- Node3&#45;&gt;Node8 -->
<g id="edge8" class="edge">
<title>Node3&#45;&gt;Node8</title>
<path fill="none" stroke="midnightblue" d="M661.28,-119.6C773.15,-116.04 1029.47,-104.79 1055.5,-76 1074.49,-55 1039.72,-35.31 1009.99,-23.22"/>
<polygon fill="midnightblue" stroke="midnightblue" points="1011.17,-19.93 1000.58,-19.57 1008.64,-26.45 1011.17,-19.93"/>
</g>
<!-- Node9 -->
<g id="node9" class="node">
<title>Node9</title>
<g id="a_node9"><a xlink:title=" ">
<polygon fill="white" stroke="#bfbfbf" points="0,-56.5 0,-75.5 65,-75.5 65,-56.5 0,-56.5"/>
<text text-anchor="middle" x="32.5" y="-63.5" font-family="Helvetica,sans-Serif" font-size="10.00">functional</text>
</a>
</g>
</g>
<!-- Node3&#45;&gt;Node9 -->
<g id="edge9" class="edge">
<title>Node3&#45;&gt;Node9</title>
<path fill="none" stroke="midnightblue" d="M557.77,-118.41C462.71,-113.24 254,-100.05 79.5,-76 78.03,-75.8 76.54,-75.58 75.04,-75.35"/>
<polygon fill="midnightblue" stroke="midnightblue" points="75.48,-71.88 65.04,-73.69 74.33,-78.78 75.48,-71.88"/>
</g>
<!-- Node10 -->
<g id="node10" class="node">
<title>Node10</title>
<g id="a_node10"><a xlink:title=" ">
<polygon fill="white" stroke="#bfbfbf" points="379,-0.5 379,-19.5 424,-19.5 424,-0.5 379,-0.5"/>
<text text-anchor="middle" x="401.5" y="-7.5" font-family="Helvetica,sans-Serif" font-size="10.00">utility</text>
</a>
</g>
</g>
<!-- Node3&#45;&gt;Node10 -->
<g id="edge10" class="edge">
<title>Node3&#45;&gt;Node10</title>
<path fill="none" stroke="midnightblue" d="M557.78,-120.18C436.57,-117.71 142.12,-108.42 112.5,-76 106.5,-69.44 106.72,-62.75 112.5,-56 145.18,-17.83 300.06,-11.78 368.66,-11"/>
<polygon fill="midnightblue" stroke="midnightblue" points="368.93,-14.5 378.9,-10.92 368.87,-7.5 368.93,-14.5"/>
</g>
<!-- Node11 -->
<g id="node11" class="node">
<title>Node11</title>
<g id="a_node11"><a xlink:title=" ">
<polygon fill="white" stroke="#bfbfbf" points="121.5,-56.5 121.5,-75.5 207.5,-75.5 207.5,-56.5 121.5,-56.5"/>
<text text-anchor="middle" x="164.5" y="-63.5" font-family="Helvetica,sans-Serif" font-size="10.00">Ark/String.hpp</text>
</a>
</g>
</g>
<!-- Node3&#45;&gt;Node11 -->
<g id="edge11" class="edge">
<title>Node3&#45;&gt;Node11</title>
<path fill="none" stroke="midnightblue" d="M557.88,-116.04C484.55,-108.79 345.79,-94.29 217.6,-76.09"/>
<polygon fill="midnightblue" stroke="midnightblue" points="217.99,-72.61 207.6,-74.66 217,-79.54 217.99,-72.61"/>
</g>
<!-- Node12 -->
<g id="node12" class="node">
<title>Node12</title>
<g id="a_node12"><a xlink:title=" ">
<polygon fill="white" stroke="#bfbfbf" points="225.5,-56.5 225.5,-75.5 267.5,-75.5 267.5,-56.5 225.5,-56.5"/>
<text text-anchor="middle" x="246.5" y="-63.5" font-family="Helvetica,sans-Serif" font-size="10.00">array</text>
</a>
</g>
</g>
<!-- Node3&#45;&gt;Node12 -->
<g id="edge12" class="edge">
<title>Node3&#45;&gt;Node12</title>
<path fill="none" stroke="midnightblue" d="M557.78,-115.77C492.89,-108.78 378.37,-95.03 281.5,-76 280.22,-75.75 278.91,-75.48 277.6,-75.19"/>
<polygon fill="midnightblue" stroke="midnightblue" points="278.05,-71.7 267.51,-72.82 276.44,-78.52 278.05,-71.7"/>
</g>
<!-- Node13 -->
<g id="node13" class="node">
<title>Node13</title>
<g id="a_node13"><a xlink:href="../../dc/dd5/Closure_8hpp.html" target="_top" xlink:title="Subtype of the value type, handling closures.">
<polygon fill="white" stroke="black" points="903,-56.5 903,-75.5 1046,-75.5 1046,-56.5 903,-56.5"/>
<text text-anchor="middle" x="974.5" y="-63.5" font-family="Helvetica,sans-Serif" font-size="10.00">Ark/VM/Value/Closure.hpp</text>
</a>
</g>
</g>
<!-- Node3&#45;&gt;Node13 -->
<g id="edge13" class="edge">
<title>Node3&#45;&gt;Node13</title>
<path fill="none" stroke="midnightblue" d="M661.02,-113.38C725.36,-103.86 835.59,-87.55 906.72,-77.03"/>
<polygon fill="midnightblue" stroke="midnightblue" points="907.54,-80.44 916.92,-75.52 906.52,-73.52 907.54,-80.44"/>
</g>
<!-- Node14 -->
<g id="node14" class="node">
<title>Node14</title>
<g id="a_node14"><a xlink:href="../../d5/d40/Platform_8hpp.html" target="_top" xlink:title="ArkScript configuration macros.">
<polygon fill="white" stroke="black" points="706,-0.5 706,-19.5 805,-19.5 805,-0.5 706,-0.5"/>
<text text-anchor="middle" x="755.5" y="-7.5" font-family="Helvetica,sans-Serif" font-size="10.00">Ark/Platform.hpp</text>
</a>
</g>
</g>
<!-- Node3&#45;&gt;Node14 -->
<g id="edge24" class="edge">
<title>Node3&#45;&gt;Node14</title>
<path fill="none" stroke="midnightblue" d="M557.76,-120.71C482.78,-119.06 349.58,-111.11 319.5,-76 313.72,-69.25 313.55,-62.6 319.5,-56 344.21,-28.6 581.73,-16.89 695.42,-12.82"/>
<polygon fill="midnightblue" stroke="midnightblue" points="695.82,-16.31 705.7,-12.46 695.58,-9.31 695.82,-16.31"/>
</g>
<!-- Node15 -->
<g id="node15" class="node">
<title>Node15</title>
<g id="a_node15"><a xlink:href="../../dc/d3d/UserType_8hpp.html" target="_top" xlink:title="Subtype of the value, capable of handling any C++ type.">
<polygon fill="white" stroke="black" points="734,-56.5 734,-75.5 885,-75.5 885,-56.5 734,-56.5"/>
<text text-anchor="middle" x="809.5" y="-63.5" font-family="Helvetica,sans-Serif" font-size="10.00">Ark/VM/Value/UserType.hpp</text>
</a>
</g>
</g>
<!-- Node3&#45;&gt;Node15 -->
<g id="edge18" class="edge">
<title>Node3&#45;&gt;Node15</title>
<path fill="none" stroke="midnightblue" d="M641.19,-112.44C675.57,-103.16 730.58,-88.31 768.29,-78.13"/>
<polygon fill="midnightblue" stroke="midnightblue" points="769.22,-81.5 777.96,-75.52 767.39,-74.74 769.22,-81.5"/>
</g>
<!-- Node16 -->
<g id="node16" class="node">
<title>Node16</title>
<g id="a_node16"><a xlink:href="../../d0/dd2/Profiling_8hpp.html" target="_top" xlink:title=" ">
<polygon fill="white" stroke="black" points="362,-56.5 362,-75.5 459,-75.5 459,-56.5 362,-56.5"/>
<text text-anchor="middle" x="410.5" y="-63.5" font-family="Helvetica,sans-Serif" font-size="10.00">Ark/Profiling.hpp</text>
</a>
</g>
</g>
<!-- Node3&#45;&gt;Node16 -->
<g id="edge25" class="edge">
<title>Node3&#45;&gt;Node16</title>
<path fill="none" stroke="midnightblue" d="M577.97,-112.44C543.91,-103.2 489.49,-88.44 451.98,-78.26"/>
<polygon fill="midnightblue" stroke="midnightblue" points="452.45,-74.76 441.88,-75.52 450.62,-81.51 452.45,-74.76"/>
</g>
<!-- Node17 -->
<g id="node17" class="node">
<title>Node17</title>
<g id="a_node17"><a xlink:title=" ">
<polygon fill="white" stroke="#bfbfbf" points="477,-56.5 477,-75.5 566,-75.5 566,-56.5 477,-56.5"/>
<text text-anchor="middle" x="521.5" y="-63.5" font-family="Helvetica,sans-Serif" font-size="10.00">inline/Value.inl</text>
</a>
</g>
</g>
<!-- Node3&#45;&gt;Node17 -->
<g id="edge26" class="edge">
<title>Node3&#45;&gt;Node17</title>
<path fill="none" stroke="midnightblue" d="M595.36,-112.32C581.63,-103.9 560.56,-90.97 544.44,-81.07"/>
<polygon fill="midnightblue" stroke="midnightblue" points="545.96,-77.9 535.6,-75.65 542.3,-83.87 545.96,-77.9"/>
</g>
<!-- Node13&#45;&gt;Node2 -->
<g id="edge15" class="edge">
<title>Node13&#45;&gt;Node2</title>
<path fill="none" stroke="midnightblue" d="M996.37,-56.44C1019.28,-47.48 1055.48,-33.31 1081.37,-23.18"/>
<polygon fill="midnightblue" stroke="midnightblue" points="1082.7,-26.42 1090.74,-19.52 1080.15,-19.9 1082.7,-26.42"/>
</g>
<!-- Node13&#45;&gt;Node7 -->
<g id="edge16" class="edge">
<title>Node13&#45;&gt;Node7</title>
<path fill="none" stroke="midnightblue" d="M955.33,-56.44C935.59,-47.64 904.61,-33.81 882.01,-23.72"/>
<polygon fill="midnightblue" stroke="midnightblue" points="883.14,-20.4 872.58,-19.52 880.29,-26.79 883.14,-20.4"/>
</g>
<!-- Node13&#45;&gt;Node8 -->
<g id="edge14" class="edge">
<title>Node13&#45;&gt;Node8</title>
<path fill="none" stroke="midnightblue" d="M974.5,-56.08C974.5,-49.01 974.5,-38.86 974.5,-29.99"/>
<polygon fill="midnightblue" stroke="midnightblue" points="978,-29.75 974.5,-19.75 971,-29.75 978,-29.75"/>
</g>
<!-- Node13&#45;&gt;Node14 -->
<g id="edge17" class="edge">
<title>Node13&#45;&gt;Node14</title>
<path fill="none" stroke="midnightblue" d="M939.8,-56.44C901.92,-47.1 841.15,-32.12 799.84,-21.93"/>
<polygon fill="midnightblue" stroke="midnightblue" points="800.59,-18.51 790.04,-19.52 798.91,-25.31 800.59,-18.51"/>
</g>
<!-- Node15&#45;&gt;Node2 -->
<g id="edge20" class="edge">
<title>Node15&#45;&gt;Node2</title>
<path fill="none" stroke="midnightblue" d="M857.51,-56.44C919.31,-45.43 1025.1,-26.58 1078.92,-16.98"/>
<polygon fill="midnightblue" stroke="midnightblue" points="1079.73,-20.39 1088.97,-15.19 1078.51,-13.5 1079.73,-20.39"/>
</g>
<!-- Node15&#45;&gt;Node7 -->
<g id="edge19" class="edge">
<title>Node15&#45;&gt;Node7</title>
<path fill="none" stroke="midnightblue" d="M816.77,-56.08C823.04,-48.38 832.29,-37.03 839.93,-27.65"/>
<polygon fill="midnightblue" stroke="midnightblue" points="842.77,-29.71 846.37,-19.75 837.34,-25.29 842.77,-29.71"/>
</g>
<!-- Node15&#45;&gt;Node8 -->
<g id="edge22" class="edge">
<title>Node15&#45;&gt;Node8</title>
<path fill="none" stroke="midnightblue" d="M835.64,-56.44C863.52,-47.32 907.85,-32.81 938.9,-22.65"/>
<polygon fill="midnightblue" stroke="midnightblue" points="940.06,-25.95 948.48,-19.52 937.88,-19.3 940.06,-25.95"/>
</g>
<!-- Node15&#45;&gt;Node10 -->
<g id="edge21" class="edge">
<title>Node15&#45;&gt;Node10</title>
<path fill="none" stroke="midnightblue" d="M744.85,-56.44C656.55,-44.76 501.53,-24.24 434.22,-15.33"/>
<polygon fill="midnightblue" stroke="midnightblue" points="434.57,-11.85 424.2,-14 433.65,-18.79 434.57,-11.85"/>
</g>
<!-- Node15&#45;&gt;Node14 -->
<g id="edge23" class="edge">
<title>Node15&#45;&gt;Node14</title>
<path fill="none" stroke="midnightblue" d="M800.58,-56.08C792.72,-48.22 781.07,-36.57 771.58,-27.08"/>
<polygon fill="midnightblue" stroke="midnightblue" points="773.8,-24.35 764.25,-19.75 768.85,-29.3 773.8,-24.35"/>
</g>
<!-- Node18&#45;&gt;Node2 -->
<g id="edge30" class="edge">
<title>Node18&#45;&gt;Node2</title>
<path fill="none" stroke="midnightblue" d="M1123.7,-171.5C1149.36,-165.85 1177.65,-154.55 1193.5,-132 1212.92,-104.36 1210.63,-85.11 1193.5,-56 1183.27,-38.61 1163.63,-27.46 1146.25,-20.61"/>
<polygon fill="midnightblue" stroke="midnightblue" points="1146.96,-17.15 1136.37,-17.06 1144.59,-23.74 1146.96,-17.15"/>
</g>
<!-- Node18&#45;&gt;Node3 -->
<g id="edge32" class="edge">
<title>Node18&#45;&gt;Node3</title>
<path fill="none" stroke="midnightblue" d="M1013.13,-170.49C926.92,-160.34 761.18,-140.85 671.23,-130.26"/>
<polygon fill="midnightblue" stroke="midnightblue" points="671.52,-126.77 661.18,-129.08 670.7,-133.72 671.52,-126.77"/>
</g>
<!-- Node18&#45;&gt;Node5 -->
<g id="edge29" class="edge">
<title>Node18&#45;&gt;Node5</title>
<path fill="none" stroke="midnightblue" d="M1056.09,-168.37C1039.43,-155.7 1013.46,-131.48 1027.5,-112 1033.71,-103.39 1092.41,-86.06 1130.34,-75.6"/>
<polygon fill="midnightblue" stroke="midnightblue" points="1131.7,-78.86 1140.42,-72.84 1129.85,-72.1 1131.7,-78.86"/>
</g>
<!-- Node19 -->
<g id="node19" class="node">
<title>Node19</title>
<g id="a_node19"><a xlink:title=" ">
<polygon fill="white" stroke="#bfbfbf" points="1119,-112.5 1119,-131.5 1184,-131.5 1184,-112.5 1119,-112.5"/>
<text text-anchor="middle" x="1151.5" y="-119.5" font-family="Helvetica,sans-Serif" font-size="10.00">exception</text>
</a>
</g>
</g>
<!-- Node18&#45;&gt;Node19 -->
<g id="edge28" class="edge">
<title>Node18&#45;&gt;Node19</title>
<path fill="none" stroke="midnightblue" d="M1081.84,-168.32C1094.66,-159.98 1114.28,-147.21 1129.44,-137.35"/>
<polygon fill="midnightblue" stroke="midnightblue" points="1131.72,-140.04 1138.2,-131.65 1127.91,-134.17 1131.72,-140.04"/>
</g>
<!-- Node20 -->
<g id="node20" class="node">
<title>Node20</title>
<g id="a_node20"><a xlink:title=" ">
<polygon fill="white" stroke="#bfbfbf" points="1036,-112.5 1036,-131.5 1101,-131.5 1101,-112.5 1036,-112.5"/>
<text text-anchor="middle" x="1068.5" y="-119.5" font-family="Helvetica,sans-Serif" font-size="10.00">stdexcept</text>
</a>
</g>
</g>
<!-- Node18&#45;&gt;Node20 -->
<g id="edge31" class="edge">
<title>Node18&#45;&gt;Node20</title>
<path fill="none" stroke="midnightblue" d="M1068.5,-168.08C1068.5,-161.01 1068.5,-150.86 1068.5,-141.99"/>
<polygon fill="midnightblue" stroke="midnightblue" points="1072,-141.75 1068.5,-131.75 1065,-141.75 1072,-141.75"/>
</g>
</g>
</svg>
