<?xml version="1.0" encoding="UTF-8" standalone="no"?>
<!DOCTYPE svg PUBLIC "-//W3C//DTD SVG 1.1//EN"
 "http://www.w3.org/Graphics/SVG/1.1/DTD/svg11.dtd">
<!-- Generated by graphviz version 2.43.0 (0)
 -->
<!-- Title: /home/fola/code/Ark/include/Ark/VM/Plugin.hpp Pages: 1 -->
<svg width="858pt" height="262pt"
 viewBox="0.00 0.00 858.00 262.00" xmlns="http://www.w3.org/2000/svg" xmlns:xlink="http://www.w3.org/1999/xlink">
<g id="graph0" class="graph" transform="scale(1 1) rotate(0) translate(4 258)">
<title>/home/fola/code/Ark/include/Ark/VM/Plugin.hpp</title>
<polygon fill="white" stroke="transparent" points="-4,4 -4,-258 854,-258 854,4 -4,4"/>
<!-- Node1 -->
<g id="node1" class="node">
<title>Node1</title>
<g id="a_node1"><a xlink:title="Loads .dll/.so/.dynlib files.">
<polygon fill="#bfbfbf" stroke="black" points="461,-223.5 461,-253.5 608,-253.5 608,-223.5 461,-223.5"/>
<text text-anchor="start" x="469" y="-241.5" font-family="Helvetica,sans-Serif" font-size="10.00">/home/fola/code/Ark</text>
<text text-anchor="middle" x="534.5" y="-230.5" font-family="Helvetica,sans-Serif" font-size="10.00">/include/Ark/VM/Plugin.hpp</text>
</a>
</g>
</g>
<!-- Node2 -->
<g id="node2" class="node">
<title>Node2</title>
<g id="a_node2"><a xlink:href="../../d1/d91/VM_8hpp.html" target="_top" xlink:title="The ArkScript virtual machine.">
<polygon fill="white" stroke="black" points="386,-156.5 386,-186.5 519,-186.5 519,-156.5 386,-156.5"/>
<text text-anchor="start" x="394" y="-174.5" font-family="Helvetica,sans-Serif" font-size="10.00">/home/fola/code/Ark</text>
<text text-anchor="middle" x="452.5" y="-163.5" font-family="Helvetica,sans-Serif" font-size="10.00">/include/Ark/VM/VM.hpp</text>
</a>
</g>
</g>
<!-- Node1&#45;&gt;Node2 -->
<g id="edge1" class="edge">
<title>Node1&#45;&gt;Node2</title>
<path fill="none" stroke="midnightblue" d="M508.85,-217.17C496.31,-207.23 481.53,-195.51 470.26,-186.58"/>
<polygon fill="midnightblue" stroke="midnightblue" points="506.7,-219.93 516.71,-223.4 511.04,-214.44 506.7,-219.93"/>
</g>
<!-- Node11 -->
<g id="node11" class="node">
<title>Node11</title>
<g id="a_node11"><a xlink:href="../../dc/d87/Plugin_8cpp.html" target="_top" xlink:title=" ">
<polygon fill="white" stroke="black" points="537,-156.5 537,-186.5 696,-186.5 696,-156.5 537,-156.5"/>
<text text-anchor="start" x="545" y="-174.5" font-family="Helvetica,sans-Serif" font-size="10.00">/home/fola/code/Ark</text>
<text text-anchor="middle" x="616.5" y="-163.5" font-family="Helvetica,sans-Serif" font-size="10.00">/src/arkreactor/VM/Plugin.cpp</text>
</a>
</g>
</g>
<!-- Node1&#45;&gt;Node11 -->
<g id="edge11" class="edge">
<title>Node1&#45;&gt;Node11</title>
<path fill="none" stroke="midnightblue" d="M560.15,-217.17C572.69,-207.23 587.47,-195.51 598.74,-186.58"/>
<polygon fill="midnightblue" stroke="midnightblue" points="557.96,-214.44 552.29,-223.4 562.3,-219.93 557.96,-214.44"/>
</g>
<!-- Node3 -->
<g id="node3" class="node">
<title>Node3</title>
<g id="a_node3"><a xlink:href="../../d3/d7e/Ark_8hpp.html" target="_top" xlink:title="Includes the needed files to start using ArkScript.">
<polygon fill="white" stroke="black" points="74,-84 74,-114 189,-114 189,-84 74,-84"/>
<text text-anchor="start" x="82" y="-102" font-family="Helvetica,sans-Serif" font-size="10.00">/home/fola/code/Ark</text>
<text text-anchor="middle" x="131.5" y="-91" font-family="Helvetica,sans-Serif" font-size="10.00">/include/Ark/Ark.hpp</text>
</a>
</g>
</g>
<!-- Node2&#45;&gt;Node3 -->
<g id="edge2" class="edge">
<title>Node2&#45;&gt;Node3</title>
<path fill="none" stroke="midnightblue" d="M375.86,-157.36C324.99,-148.14 256.92,-134.85 197.5,-120 190.41,-118.23 182.96,-116.17 175.71,-114.05"/>
<polygon fill="midnightblue" stroke="midnightblue" points="375.33,-160.82 385.79,-159.15 376.57,-153.93 375.33,-160.82"/>
</g>
<!-- Node6 -->
<g id="node6" class="node">
<title>Node6</title>
<g id="a_node6"><a xlink:href="../../d5/da5/Repl_8hpp.html" target="_top" xlink:title="ArkScript REPL &#45; Read Eval Print Loop.">
<polygon fill="white" stroke="black" points="207,-84 207,-114 354,-114 354,-84 207,-84"/>
<text text-anchor="start" x="215" y="-102" font-family="Helvetica,sans-Serif" font-size="10.00">/home/fola/code/Ark</text>
<text text-anchor="middle" x="280.5" y="-91" font-family="Helvetica,sans-Serif" font-size="10.00">/include/Ark/REPL/Repl.hpp</text>
</a>
</g>
</g>
<!-- Node2&#45;&gt;Node6 -->
<g id="edge5" class="edge">
<title>Node2&#45;&gt;Node6</title>
<path fill="none" stroke="midnightblue" d="M408.58,-152.5C379.45,-140.56 341.77,-125.11 314.83,-114.07"/>
<polygon fill="midnightblue" stroke="midnightblue" points="407.53,-155.85 418.11,-156.4 410.18,-149.37 407.53,-155.85"/>
</g>
<!-- Node8 -->
<g id="node8" class="node">
<title>Node8</title>
<g id="a_node8"><a xlink:href="../../d4/dc9/Future_8cpp.html" target="_top" xlink:title=" ">
<polygon fill="white" stroke="black" points="372.5,-84 372.5,-114 532.5,-114 532.5,-84 372.5,-84"/>
<text text-anchor="start" x="380.5" y="-102" font-family="Helvetica,sans-Serif" font-size="10.00">/home/fola/code/Ark</text>
<text text-anchor="middle" x="452.5" y="-91" font-family="Helvetica,sans-Serif" font-size="10.00">/src/arkreactor/VM/Future.cpp</text>
</a>
</g>
</g>
<!-- Node2&#45;&gt;Node8 -->
<g id="edge8" class="edge">
<title>Node2&#45;&gt;Node8</title>
<path fill="none" stroke="midnightblue" d="M452.5,-146.23C452.5,-135.57 452.5,-123.41 452.5,-114.25"/>
<polygon fill="midnightblue" stroke="midnightblue" points="449,-146.23 452.5,-156.23 456,-146.23 449,-146.23"/>
</g>
<!-- Node9 -->
<g id="node9" class="node">
<title>Node9</title>
<g id="a_node9"><a xlink:href="../../d1/db2/Closure_8cpp.html" target="_top" xlink:title=" ">
<polygon fill="white" stroke="black" points="550.5,-78.5 550.5,-119.5 686.5,-119.5 686.5,-78.5 550.5,-78.5"/>
<text text-anchor="start" x="558.5" y="-107.5" font-family="Helvetica,sans-Serif" font-size="10.00">/home/fola/code/Ark</text>
<text text-anchor="start" x="558.5" y="-96.5" font-family="Helvetica,sans-Serif" font-size="10.00">/src/arkreactor/VM/Value</text>
<text text-anchor="middle" x="618.5" y="-85.5" font-family="Helvetica,sans-Serif" font-size="10.00">/Closure.cpp</text>
</a>
</g>
</g>
<!-- Node2&#45;&gt;Node9 -->
<g id="edge9" class="edge">
<title>Node2&#45;&gt;Node9</title>
<path fill="none" stroke="midnightblue" d="M495.12,-152.4C518.8,-142.34 548.27,-129.83 572.48,-119.55"/>
<polygon fill="midnightblue" stroke="midnightblue" points="493.53,-149.27 485.69,-156.4 496.27,-155.72 493.53,-149.27"/>
</g>
<!-- Node10 -->
<g id="node10" class="node">
<title>Node10</title>
<g id="a_node10"><a xlink:href="../../d2/d27/VM_8cpp.html" target="_top" xlink:title=" ">
<polygon fill="white" stroke="black" points="705,-84 705,-114 850,-114 850,-84 705,-84"/>
<text text-anchor="start" x="713" y="-102" font-family="Helvetica,sans-Serif" font-size="10.00">/home/fola/code/Ark</text>
<text text-anchor="middle" x="777.5" y="-91" font-family="Helvetica,sans-Serif" font-size="10.00">/src/arkreactor/VM/VM.cpp</text>
</a>
</g>
</g>
<!-- Node2&#45;&gt;Node10 -->
<g id="edge10" class="edge">
<title>Node2&#45;&gt;Node10</title>
<path fill="none" stroke="midnightblue" d="M529.14,-155.27C577.05,-145.58 639.98,-132.54 695.5,-120 703.79,-118.13 712.53,-116.08 721.1,-114.03"/>
<polygon fill="midnightblue" stroke="midnightblue" points="528.27,-151.88 519.16,-157.29 529.65,-158.74 528.27,-151.88"/>
</g>
<!-- Node4 -->
<g id="node4" class="node">
<title>Node4</title>
<g id="a_node4"><a xlink:href="../../dc/d32/Ark_8cpp.html" target="_top" xlink:title=" ">
<polygon fill="white" stroke="black" points="0,-6 0,-36 127,-36 127,-6 0,-6"/>
<text text-anchor="start" x="8" y="-24" font-family="Helvetica,sans-Serif" font-size="10.00">/home/fola/code/Ark</text>
<text text-anchor="middle" x="63.5" y="-13" font-family="Helvetica,sans-Serif" font-size="10.00">/src/arkreactor/Ark.cpp</text>
</a>
</g>
</g>
<!-- Node3&#45;&gt;Node4 -->
<g id="edge3" class="edge">
<title>Node3&#45;&gt;Node4</title>
<path fill="none" stroke="midnightblue" d="M111.97,-76.17C100.48,-63.33 86.28,-47.47 76.23,-36.23"/>
<polygon fill="midnightblue" stroke="midnightblue" points="109.43,-78.59 118.71,-83.7 114.65,-73.92 109.43,-78.59"/>
</g>
<!-- Node5 -->
<g id="node5" class="node">
<title>Node5</title>
<g id="a_node5"><a xlink:href="../../df/d0a/main_8cpp.html" target="_top" xlink:title=" ">
<polygon fill="white" stroke="black" points="145.5,-6 145.5,-36 273.5,-36 273.5,-6 145.5,-6"/>
<text text-anchor="start" x="153.5" y="-24" font-family="Helvetica,sans-Serif" font-size="10.00">/home/fola/code/Ark</text>
<text text-anchor="middle" x="209.5" y="-13" font-family="Helvetica,sans-Serif" font-size="10.00">/src/arkscript/main.cpp</text>
</a>
</g>
</g>
<!-- Node3&#45;&gt;Node5 -->
<g id="edge4" class="edge">
<title>Node3&#45;&gt;Node5</title>
<path fill="none" stroke="midnightblue" d="M153.53,-76.53C166.77,-63.63 183.26,-47.57 194.89,-36.23"/>
<polygon fill="midnightblue" stroke="midnightblue" points="150.89,-74.22 146.17,-83.7 155.78,-79.23 150.89,-74.22"/>
</g>
<!-- Node6&#45;&gt;Node5 -->
<g id="edge6" class="edge">
<title>Node6&#45;&gt;Node5</title>
<path fill="none" stroke="midnightblue" d="M260.11,-76.17C248.11,-63.33 233.29,-47.47 222.79,-36.23"/>
<polygon fill="midnightblue" stroke="midnightblue" points="257.76,-78.79 267.15,-83.7 262.88,-74.01 257.76,-78.79"/>
</g>
<!-- Node7 -->
<g id="node7" class="node">
<title>Node7</title>
<g id="a_node7"><a xlink:href="../../d7/d46/Repl_8cpp.html" target="_top" xlink:title=" ">
<polygon fill="white" stroke="black" points="292,-0.5 292,-41.5 407,-41.5 407,-0.5 292,-0.5"/>
<text text-anchor="start" x="300" y="-29.5" font-family="Helvetica,sans-Serif" font-size="10.00">/home/fola/code/Ark</text>
<text text-anchor="start" x="300" y="-18.5" font-family="Helvetica,sans-Serif" font-size="10.00">/src/arkscript/REPL</text>
<text text-anchor="middle" x="349.5" y="-7.5" font-family="Helvetica,sans-Serif" font-size="10.00">/Repl.cpp</text>
</a>
</g>
</g>
<!-- Node6&#45;&gt;Node7 -->
<g id="edge7" class="edge">
<title>Node6&#45;&gt;Node7</title>
<path fill="none" stroke="midnightblue" d="M300.26,-76.23C310.15,-65.34 322.02,-52.26 331.63,-41.68"/>
<polygon fill="midnightblue" stroke="midnightblue" points="297.61,-73.95 293.48,-83.7 302.79,-78.65 297.61,-73.95"/>
</g>
</g>
</svg>
