<?xml version="1.0" encoding="UTF-8" standalone="no"?>
<!DOCTYPE svg PUBLIC "-//W3C//DTD SVG 1.1//EN"
 "http://www.w3.org/Graphics/SVG/1.1/DTD/svg11.dtd">
<!-- Generated by graphviz version 7.1.0 (20230121.1956)
 -->
<!-- Title: /Users/fola/Documents/ArkScript/Ark/include/Ark/Compiler/Macros/Executors/Symbol.hpp Pages: 1 -->
<svg width="326pt" height="148pt"
 viewBox="0.00 0.00 326.00 148.00" xmlns="http://www.w3.org/2000/svg" xmlns:xlink="http://www.w3.org/1999/xlink">
<g id="graph0" class="graph" transform="scale(1 1) rotate(0) translate(4 144)">
<title>/Users/fola/Documents/ArkScript/Ark/include/Ark/Compiler/Macros/Executors/Symbol.hpp</title>
<!-- Node1 -->
<g id="node1" class="node">
<title>Node1</title>
<g id="a_node1"><a xlink:title="Executor for Symbol Macros.">
<polygon fill="#999999" stroke="#666666" points="234,-140 75,-140 75,-88 234,-88 234,-140"/>
<text text-anchor="start" x="83" y="-128" font-family="Helvetica,sans-Serif" font-size="10.00">/Users/fola/Documents</text>
<text text-anchor="start" x="83" y="-117" font-family="Helvetica,sans-Serif" font-size="10.00">/ArkScript/Ark/include</text>
<text text-anchor="start" x="83" y="-106" font-family="Helvetica,sans-Serif" font-size="10.00">/Ark/Compiler/Macros/Executors</text>
<text text-anchor="middle" x="154.5" y="-95" font-family="Helvetica,sans-Serif" font-size="10.00">/Symbol.hpp</text>
</a>
</g>
</g>
<!-- Node2 -->
<g id="node2" class="node">
<title>Node2</title>
<g id="a_node2"><a xlink:href="../../d8/d0b/Symbol_8cpp.html" target="_top" xlink:title=" ">
<polygon fill="white" stroke="#666666" points="141,-52 0,-52 0,0 141,0 141,-52"/>
<text text-anchor="start" x="8" y="-40" font-family="Helvetica,sans-Serif" font-size="10.00">/Users/fola/Documents</text>
<text text-anchor="start" x="8" y="-29" font-family="Helvetica,sans-Serif" font-size="10.00">/ArkScript/Ark/src/arkreactor</text>
<text text-anchor="start" x="8" y="-18" font-family="Helvetica,sans-Serif" font-size="10.00">/Compiler/Macros/Executors</text>
<text text-anchor="middle" x="70.5" y="-7" font-family="Helvetica,sans-Serif" font-size="10.00">/Symbol.cpp</text>
</a>
</g>
</g>
<!-- Node1&#45;&gt;Node2 -->
<g id="edge1" class="edge">
<title>Node1&#45;&gt;Node2</title>
<path fill="none" stroke="#63b8ff" d="M121.87,-79.59C113.06,-70.57 103.67,-60.96 95.36,-52.45"/>
<polygon fill="#63b8ff" stroke="#63b8ff" points="119.2,-81.87 128.69,-86.58 124.21,-76.98 119.2,-81.87"/>
</g>
<!-- Node3 -->
<g id="node3" class="node">
<title>Node3</title>
<g id="a_node3"><a xlink:href="../../d6/d69/Processor_8cpp.html" target="_top" xlink:title=" ">
<polygon fill="white" stroke="#666666" points="318,-46.5 159,-46.5 159,-5.5 318,-5.5 318,-46.5"/>
<text text-anchor="start" x="167" y="-34.5" font-family="Helvetica,sans-Serif" font-size="10.00">/Users/fola/Documents</text>
<text text-anchor="start" x="167" y="-23.5" font-family="Helvetica,sans-Serif" font-size="10.00">/ArkScript/Ark/src/arkreactor</text>
<text text-anchor="middle" x="238.5" y="-12.5" font-family="Helvetica,sans-Serif" font-size="10.00">/Compiler/Macros/Processor.cpp</text>
</a>
</g>
</g>
<!-- Node1&#45;&gt;Node3 -->
<g id="edge2" class="edge">
<title>Node1&#45;&gt;Node3</title>
<path fill="none" stroke="#63b8ff" d="M187.24,-79.48C197.97,-68.49 209.55,-56.64 218.98,-46.98"/>
<polygon fill="#63b8ff" stroke="#63b8ff" points="184.79,-76.98 180.31,-86.58 189.8,-81.87 184.79,-76.98"/>
</g>
</g>
</svg>
