<?xml version="1.0" encoding="UTF-8" standalone="no"?>
<!DOCTYPE svg PUBLIC "-//W3C//DTD SVG 1.1//EN"
 "http://www.w3.org/Graphics/SVG/1.1/DTD/svg11.dtd">
<!-- Generated by graphviz version 12.1.1 (20240910.0053)
 -->
<!-- Title: Ark::State Pages: 1 -->
<svg width="894pt" height="385pt"
 viewBox="0.00 0.00 893.80 385.21" xmlns="http://www.w3.org/2000/svg" xmlns:xlink="http://www.w3.org/1999/xlink">
<g id="graph0" class="graph" transform="scale(1 1) rotate(0) translate(4 381.21)">
<title>Ark::State</title>
<!-- Node1 -->
<g id="Node000001" class="node">
<title>Node1</title>
<g id="a_Node000001"><a xlink:title="Ark state to handle the dirty job of loading and compiling ArkScript code.">
<polygon fill="#999999" stroke="#666666" points="885.8,-211.4 825.55,-211.4 825.55,-192.15 885.8,-192.15 885.8,-211.4"/>
<text text-anchor="middle" x="855.67" y="-197.9" font-family="Helvetica,sans-Serif" font-size="10.00">Ark::State</text>
</a>
</g>
</g>
<!-- Node2 -->
<g id="Node000002" class="node">
<title>Node2</title>
<g id="a_Node000002"><a xlink:title=" ">
<polygon fill="white" stroke="#666666" points="429.8,-347.4 320.05,-347.4 320.05,-328.15 429.8,-328.15 429.8,-347.4"/>
<text text-anchor="middle" x="374.92" y="-333.9" font-family="Helvetica,sans-Serif" font-size="10.00">std::vector&lt; uint8_t &gt;</text>
</a>
</g>
</g>
<!-- Node2&#45;&gt;Node1 -->
<g id="edge1_Node000001_Node000002" class="edge">
<title>Node2&#45;&gt;Node1</title>
<g id="a_edge1_Node000001_Node000002"><a xlink:title=" ">
<path fill="none" stroke="#9a32cd" stroke-dasharray="5,2" d="M427.85,-350.16C516.04,-367.92 696.29,-389.66 807.55,-302.77 837.59,-279.31 849.3,-232.15 853.11,-211.66"/>
<polygon fill="#9a32cd" stroke="#9a32cd" points="428.79,-346.77 418.28,-348.16 427.36,-353.63 428.79,-346.77"/>
</a>
</g>
<text text-anchor="middle" x="666.05" y="-367.71" font-family="Helvetica,sans-Serif" font-size="10.00" fill="grey"> m_bytecode</text>
</g>
<!-- Node11 -->
<g id="Node000011" class="node">
<title>Node11</title>
<g id="a_Node000011"><a xlink:title=" ">
<polygon fill="white" stroke="#666666" points="730.3,-308.4 601.8,-308.4 601.8,-289.15 730.3,-289.15 730.3,-308.4"/>
<text text-anchor="middle" x="666.05" y="-294.9" font-family="Helvetica,sans-Serif" font-size="10.00">std::vector&lt; bytecode_t &gt;</text>
</a>
</g>
</g>
<!-- Node2&#45;&gt;Node11 -->
<g id="edge15_Node000011_Node000002" class="edge">
<title>Node2&#45;&gt;Node11</title>
<g id="a_edge15_Node000011_Node000002"><a xlink:title=" ">
<path fill="none" stroke="#9a32cd" stroke-dasharray="5,2" d="M441.39,-328.97C482.32,-323.46 536.13,-316.21 583.8,-309.77 589.58,-308.99 595.6,-308.18 601.62,-307.36"/>
<polygon fill="#9a32cd" stroke="#9a32cd" points="441.14,-325.47 431.7,-330.27 442.08,-332.4 441.14,-325.47"/>
</a>
</g>
<text text-anchor="middle" x="515.8" y="-329.54" font-family="Helvetica,sans-Serif" font-size="10.00" fill="grey"> elements</text>
</g>
<!-- Node3 -->
<g id="Node000003" class="node">
<title>Node3</title>
<g id="a_Node000003"><a xlink:title=" ">
<polygon fill="white" stroke="#666666" points="197.8,-242.4 111.3,-242.4 111.3,-223.15 197.8,-223.15 197.8,-242.4"/>
<text text-anchor="middle" x="154.55" y="-228.9" font-family="Helvetica,sans-Serif" font-size="10.00">std::vector&lt; T &gt;</text>
</a>
</g>
</g>
<!-- Node3&#45;&gt;Node2 -->
<g id="edge2_Node000002_Node000003" class="edge">
<title>Node3&#45;&gt;Node2</title>
<g id="a_edge2_Node000002_Node000003"><a xlink:title=" ">
<path fill="none" stroke="orange" stroke-dasharray="5,2" d="M165.84,-252.74C176.59,-271.46 195.28,-298.61 219.55,-312.77 249.68,-330.36 288.46,-336.59 319.61,-338.43"/>
<polygon fill="orange" stroke="orange" points="169.03,-251.29 161.17,-244.19 162.89,-254.64 169.03,-251.29"/>
</a>
</g>
<text text-anchor="middle" x="260.8" y="-338.46" font-family="Helvetica,sans-Serif" font-size="10.00" fill="grey"> &lt; uint8_t &gt;</text>
</g>
<!-- Node5 -->
<g id="Node000005" class="node">
<title>Node5</title>
<g id="a_Node000005"><a xlink:title=" ">
<polygon fill="white" stroke="#666666" points="583.8,-268.02 447.8,-268.02 447.8,-237.52 583.8,-237.52 583.8,-268.02"/>
<text text-anchor="start" x="455.8" y="-254.52" font-family="Helvetica,sans-Serif" font-size="10.00">std::vector&lt; std::filesystem</text>
<text text-anchor="middle" x="515.8" y="-243.27" font-family="Helvetica,sans-Serif" font-size="10.00">::path &gt;</text>
</a>
</g>
</g>
<!-- Node3&#45;&gt;Node5 -->
<g id="edge5_Node000005_Node000003" class="edge">
<title>Node3&#45;&gt;Node5</title>
<g id="a_edge5_Node000005_Node000003"><a xlink:title=" ">
<path fill="none" stroke="orange" stroke-dasharray="5,2" d="M209.53,-235.78C273.07,-239.31 378.63,-245.19 447.46,-249.02"/>
<polygon fill="orange" stroke="orange" points="209.86,-232.29 199.68,-235.23 209.47,-239.28 209.86,-232.29"/>
</a>
</g>
<text text-anchor="start" x="219.55" y="-253.64" font-family="Helvetica,sans-Serif" font-size="10.00" fill="grey"> &lt; std::filesystem::</text>
<text text-anchor="middle" x="260.8" y="-242.39" font-family="Helvetica,sans-Serif" font-size="10.00" fill="grey">path &gt;</text>
</g>
<!-- Node8 -->
<g id="Node000008" class="node">
<title>Node8</title>
<g id="a_Node000008"><a xlink:title=" ">
<polygon fill="white" stroke="#666666" points="728.05,-173.4 604.05,-173.4 604.05,-154.15 728.05,-154.15 728.05,-173.4"/>
<text text-anchor="middle" x="666.05" y="-159.9" font-family="Helvetica,sans-Serif" font-size="10.00">std::vector&lt; std::string &gt;</text>
</a>
</g>
</g>
<!-- Node3&#45;&gt;Node8 -->
<g id="edge10_Node000008_Node000003" class="edge">
<title>Node3&#45;&gt;Node8</title>
<g id="a_edge10_Node000008_Node000003"><a xlink:title=" ">
<path fill="none" stroke="orange" stroke-dasharray="5,2" d="M209.31,-221.81C212.77,-221.11 216.21,-220.43 219.55,-219.77 320.75,-199.8 345.4,-190.15 447.8,-177.77 500.33,-171.42 560.38,-167.83 604.01,-165.88"/>
<polygon fill="orange" stroke="orange" points="208.82,-218.33 199.71,-223.74 210.2,-225.2 208.82,-218.33"/>
</a>
</g>
<text text-anchor="middle" x="374.92" y="-200.31" font-family="Helvetica,sans-Serif" font-size="10.00" fill="grey"> &lt; std::string &gt;</text>
</g>
<!-- Node9 -->
<g id="Node000009" class="node">
<title>Node9</title>
<g id="a_Node000009"><a xlink:title=" ">
<polygon fill="white" stroke="#666666" points="728.42,-211.4 603.67,-211.4 603.67,-192.15 728.42,-192.15 728.42,-211.4"/>
<text text-anchor="middle" x="666.05" y="-197.9" font-family="Helvetica,sans-Serif" font-size="10.00">std::vector&lt; Ark::Value &gt;</text>
</a>
</g>
</g>
<!-- Node3&#45;&gt;Node9 -->
<g id="edge13_Node000009_Node000003" class="edge">
<title>Node3&#45;&gt;Node9</title>
<g id="a_edge13_Node000009_Node000003"><a xlink:title=" ">
<path fill="none" stroke="orange" stroke-dasharray="5,2" d="M209.51,-229.49C304.97,-223.68 503.02,-211.63 603.59,-205.51"/>
<polygon fill="orange" stroke="orange" points="209.39,-225.99 199.62,-230.09 209.82,-232.98 209.39,-225.99"/>
</a>
</g>
<text text-anchor="middle" x="374.92" y="-224.1" font-family="Helvetica,sans-Serif" font-size="10.00" fill="grey"> &lt; Ark::Value &gt;</text>
</g>
<!-- Node3&#45;&gt;Node11 -->
<g id="edge16_Node000011_Node000003" class="edge">
<title>Node3&#45;&gt;Node11</title>
<g id="a_edge16_Node000011_Node000003"><a xlink:title=" ">
<path fill="none" stroke="orange" stroke-dasharray="5,2" d="M179.8,-248.74C191.36,-255.53 205.66,-262.78 219.55,-266.77 351.46,-304.71 513.93,-305.48 601.64,-302.35"/>
<polygon fill="orange" stroke="orange" points="181.69,-245.8 171.34,-243.54 178.03,-251.76 181.69,-245.8"/>
</a>
</g>
<text text-anchor="middle" x="374.92" y="-301.66" font-family="Helvetica,sans-Serif" font-size="10.00" fill="grey"> &lt; bytecode_t &gt;</text>
</g>
<!-- Node4 -->
<g id="Node000004" class="node">
<title>Node4</title>
<g id="a_Node000004"><a xlink:title=" ">
<polygon fill="white" stroke="#666666" points="28.8,-152.4 0,-152.4 0,-133.15 28.8,-133.15 28.8,-152.4"/>
<text text-anchor="middle" x="14.4" y="-138.9" font-family="Helvetica,sans-Serif" font-size="10.00">T</text>
</a>
</g>
</g>
<!-- Node4&#45;&gt;Node3 -->
<g id="edge3_Node000003_Node000004" class="edge">
<title>Node4&#45;&gt;Node3</title>
<g id="a_edge3_Node000003_Node000004"><a xlink:title=" ">
<path fill="none" stroke="#9a32cd" stroke-dasharray="5,2" d="M38.66,-157.93C66.98,-176.38 114.02,-207.02 138.18,-222.76"/>
<polygon fill="#9a32cd" stroke="#9a32cd" points="40.71,-155.08 30.42,-152.56 36.89,-160.95 40.71,-155.08"/>
</a>
</g>
<text text-anchor="middle" x="68.17" y="-192.22" font-family="Helvetica,sans-Serif" font-size="10.00" fill="grey"> elements</text>
</g>
<!-- Node13 -->
<g id="Node000013" class="node">
<title>Node13</title>
<g id="a_Node000013"><a xlink:title=" ">
<polygon fill="white" stroke="#666666" points="426.05,-84.02 323.8,-84.02 323.8,-53.52 426.05,-53.52 426.05,-84.02"/>
<text text-anchor="start" x="331.8" y="-70.52" font-family="Helvetica,sans-Serif" font-size="10.00">std::unordered_map</text>
<text text-anchor="middle" x="374.92" y="-59.27" font-family="Helvetica,sans-Serif" font-size="10.00">&lt; K, T &gt;</text>
</a>
</g>
</g>
<!-- Node4&#45;&gt;Node13 -->
<g id="edge22_Node000013_Node000004" class="edge">
<title>Node4&#45;&gt;Node13</title>
<g id="a_edge22_Node000013_Node000004"><a xlink:title=" ">
<path fill="none" stroke="#9a32cd" stroke-dasharray="5,2" d="M40.32,-137.67C90.07,-127.47 205.28,-103.83 302.05,-83.77 309.04,-82.32 316.41,-80.79 323.66,-79.28"/>
<polygon fill="#9a32cd" stroke="#9a32cd" points="39.7,-134.22 30.61,-139.66 41.11,-141.08 39.7,-134.22"/>
</a>
</g>
<text text-anchor="middle" x="154.55" y="-124.92" font-family="Helvetica,sans-Serif" font-size="10.00" fill="grey"> elements</text>
</g>
<!-- Node5&#45;&gt;Node1 -->
<g id="edge4_Node000001_Node000005" class="edge">
<title>Node5&#45;&gt;Node1</title>
<g id="a_edge4_Node000001_Node000005"><a xlink:title=" ">
<path fill="none" stroke="#9a32cd" stroke-dasharray="5,2" d="M595.54,-246.99C654.41,-241.71 736.63,-232.31 807.55,-216.77 813.59,-215.45 819.96,-213.68 825.99,-211.83"/>
<polygon fill="#9a32cd" stroke="#9a32cd" points="595.25,-243.5 585.59,-247.86 595.86,-250.48 595.25,-243.5"/>
</a>
</g>
<text text-anchor="middle" x="666.05" y="-247.88" font-family="Helvetica,sans-Serif" font-size="10.00" fill="grey"> m_libenv</text>
</g>
<!-- Node6 -->
<g id="Node000006" class="node">
<title>Node6</title>
<g id="a_Node000006"><a xlink:title=" ">
<polygon fill="white" stroke="#666666" points="404.67,-33.4 345.17,-33.4 345.17,-14.15 404.67,-14.15 404.67,-33.4"/>
<text text-anchor="middle" x="374.92" y="-19.9" font-family="Helvetica,sans-Serif" font-size="10.00">std::string</text>
</a>
</g>
</g>
<!-- Node6&#45;&gt;Node1 -->
<g id="edge6_Node000001_Node000006" class="edge">
<title>Node6&#45;&gt;Node1</title>
<g id="a_edge6_Node000001_Node000006"><a xlink:title=" ">
<path fill="none" stroke="#9a32cd" stroke-dasharray="5,2" d="M416.14,-14.59C484.76,-1.11 627.04,17.22 730.3,-34.52 798.88,-68.89 839.17,-161.03 850.99,-191.69"/>
<polygon fill="#9a32cd" stroke="#9a32cd" points="415.58,-11.14 406.48,-16.57 416.98,-18 415.58,-11.14"/>
</a>
</g>
<text text-anchor="middle" x="666.05" y="-36.27" font-family="Helvetica,sans-Serif" font-size="10.00" fill="grey"> m_filename</text>
</g>
<!-- Node6&#45;&gt;Node8 -->
<g id="edge9_Node000008_Node000006" class="edge">
<title>Node6&#45;&gt;Node8</title>
<g id="a_edge9_Node000008_Node000006"><a xlink:title=" ">
<path fill="none" stroke="#9a32cd" stroke-dasharray="5,2" d="M415.54,-34.04C420.88,-36.81 425.87,-40.33 429.8,-44.77 451.36,-69.17 423.85,-93.72 447.8,-115.77 492.89,-157.28 524.18,-124.34 583.8,-138.52 601.33,-142.69 620.61,-148.62 635.98,-153.69"/>
<polygon fill="#9a32cd" stroke="#9a32cd" points="416.96,-30.84 406.39,-30.16 414.23,-37.29 416.96,-30.84"/>
</a>
</g>
<text text-anchor="middle" x="515.8" y="-140.27" font-family="Helvetica,sans-Serif" font-size="10.00" fill="grey"> elements</text>
</g>
<!-- Node12 -->
<g id="Node000012" class="node">
<title>Node12</title>
<g id="a_Node000012"><a xlink:title=" ">
<polygon fill="white" stroke="#666666" points="717.17,-96.65 614.92,-96.65 614.92,-54.9 717.17,-54.9 717.17,-96.65"/>
<text text-anchor="start" x="622.92" y="-83.15" font-family="Helvetica,sans-Serif" font-size="10.00">std::unordered_map</text>
<text text-anchor="start" x="622.92" y="-71.9" font-family="Helvetica,sans-Serif" font-size="10.00">&lt; std::string, Ark::</text>
<text text-anchor="middle" x="666.05" y="-60.65" font-family="Helvetica,sans-Serif" font-size="10.00">Value &gt;</text>
</a>
</g>
</g>
<!-- Node6&#45;&gt;Node12 -->
<g id="edge18_Node000012_Node000006" class="edge">
<title>Node6&#45;&gt;Node12</title>
<g id="a_edge18_Node000012_Node000006"><a xlink:title=" ">
<path fill="none" stroke="#9a32cd" stroke-dasharray="5,2" d="M416.49,-23.14C458.85,-23.38 526.93,-26.31 583.8,-40.52 597.08,-43.84 610.94,-49.11 623.38,-54.58"/>
<polygon fill="#9a32cd" stroke="#9a32cd" points="416.5,-19.64 406.5,-23.14 416.5,-26.64 416.5,-19.64"/>
</a>
</g>
<text text-anchor="middle" x="515.8" y="-42.27" font-family="Helvetica,sans-Serif" font-size="10.00" fill="grey"> keys</text>
</g>
<!-- Node7 -->
<g id="Node000007" class="node">
<title>Node7</title>
<g id="a_Node000007"><a xlink:title=" ">
<polygon fill="white" stroke="#666666" points="201.55,-39.02 107.55,-39.02 107.55,-8.52 201.55,-8.52 201.55,-39.02"/>
<text text-anchor="start" x="115.55" y="-25.52" font-family="Helvetica,sans-Serif" font-size="10.00">std::basic_string&lt;</text>
<text text-anchor="middle" x="154.55" y="-14.27" font-family="Helvetica,sans-Serif" font-size="10.00"> Char &gt;</text>
</a>
</g>
</g>
<!-- Node7&#45;&gt;Node6 -->
<g id="edge7_Node000006_Node000007" class="edge">
<title>Node7&#45;&gt;Node6</title>
<g id="a_edge7_Node000006_Node000007"><a xlink:title=" ">
<path fill="none" stroke="#63b8ff" d="M213.14,-23.77C255.47,-23.77 311.23,-23.77 344.74,-23.77"/>
<polygon fill="#63b8ff" stroke="#63b8ff" points="213.38,-20.27 203.38,-23.77 213.38,-27.27 213.38,-20.27"/>
</a>
</g>
</g>
<!-- Node8&#45;&gt;Node1 -->
<g id="edge8_Node000001_Node000008" class="edge">
<title>Node8&#45;&gt;Node1</title>
<g id="a_edge8_Node000001_Node000008"><a xlink:title=" ">
<path fill="none" stroke="#9a32cd" stroke-dasharray="5,2" d="M739.58,-173.36C761.56,-176.84 785.66,-181.24 807.55,-186.52 813.57,-187.97 819.93,-189.82 825.96,-191.71"/>
<polygon fill="#9a32cd" stroke="#9a32cd" points="740.22,-169.91 729.81,-171.85 739.16,-176.83 740.22,-169.91"/>
</a>
</g>
<text text-anchor="middle" x="777.92" y="-188.27" font-family="Helvetica,sans-Serif" font-size="10.00" fill="grey"> m_symbols</text>
</g>
<!-- Node9&#45;&gt;Node1 -->
<g id="edge11_Node000001_Node000009" class="edge">
<title>Node9&#45;&gt;Node1</title>
<g id="a_edge11_Node000001_Node000009"><a xlink:title=" ">
<path fill="none" stroke="#9a32cd" stroke-dasharray="5,2" d="M739.98,-201.77C769.73,-201.77 802.44,-201.77 825.29,-201.77"/>
<polygon fill="#9a32cd" stroke="#9a32cd" points="740.26,-198.27 730.26,-201.77 740.26,-205.27 740.26,-198.27"/>
</a>
</g>
<text text-anchor="middle" x="777.92" y="-203.52" font-family="Helvetica,sans-Serif" font-size="10.00" fill="grey"> m_constants</text>
</g>
<!-- Node10 -->
<g id="Node000010" class="node">
<title>Node10</title>
<g id="a_Node000010"><a xlink:href="../../d3/d90/classArk_1_1Value.html" target="_top" xlink:title=" ">
<polygon fill="white" stroke="#666666" points="405.42,-125.4 344.42,-125.4 344.42,-106.15 405.42,-106.15 405.42,-125.4"/>
<text text-anchor="middle" x="374.92" y="-111.9" font-family="Helvetica,sans-Serif" font-size="10.00">Ark::Value</text>
</a>
</g>
</g>
<!-- Node10&#45;&gt;Node9 -->
<g id="edge12_Node000009_Node000010" class="edge">
<title>Node10&#45;&gt;Node9</title>
<g id="a_edge12_Node000009_Node000010"><a xlink:title=" ">
<path fill="none" stroke="#9a32cd" stroke-dasharray="5,2" d="M408.12,-130.67C415.32,-134.18 422.88,-138 429.8,-141.77 438.03,-146.26 439.11,-149.25 447.8,-152.77 498.32,-173.26 559.1,-186.04 603.5,-193.39"/>
<polygon fill="#9a32cd" stroke="#9a32cd" points="409.83,-127.6 399.3,-126.44 406.8,-133.92 409.83,-127.6"/>
</a>
</g>
<text text-anchor="middle" x="515.8" y="-191.05" font-family="Helvetica,sans-Serif" font-size="10.00" fill="grey"> elements</text>
</g>
<!-- Node10&#45;&gt;Node12 -->
<g id="edge19_Node000012_Node000010" class="edge">
<title>Node10&#45;&gt;Node12</title>
<g id="a_edge19_Node000012_Node000010"><a xlink:title=" ">
<path fill="none" stroke="#9a32cd" stroke-dasharray="5,2" d="M416.7,-109.22C426.86,-107.63 437.72,-105.98 447.8,-104.52 504.85,-96.28 570.46,-87.73 614.52,-82.11"/>
<polygon fill="#9a32cd" stroke="#9a32cd" points="416.45,-105.71 407.12,-110.73 417.54,-112.63 416.45,-105.71"/>
</a>
</g>
<text text-anchor="middle" x="515.8" y="-106.27" font-family="Helvetica,sans-Serif" font-size="10.00" fill="grey"> elements</text>
</g>
<!-- Node11&#45;&gt;Node1 -->
<g id="edge14_Node000001_Node000011" class="edge">
<title>Node11&#45;&gt;Node1</title>
<g id="a_edge14_Node000001_Node000011"><a xlink:title=" ">
<path fill="none" stroke="#9a32cd" stroke-dasharray="5,2" d="M741.78,-289.88C764.24,-284.74 788.07,-276.61 807.55,-263.77 827.65,-250.53 842.58,-225.73 849.81,-211.84"/>
<polygon fill="#9a32cd" stroke="#9a32cd" points="741.09,-286.45 732.03,-291.94 742.53,-293.3 741.09,-286.45"/>
</a>
</g>
<text text-anchor="middle" x="777.92" y="-289.7" font-family="Helvetica,sans-Serif" font-size="10.00" fill="grey"> m_pages</text>
</g>
<!-- Node12&#45;&gt;Node1 -->
<g id="edge17_Node000001_Node000012" class="edge">
<title>Node12&#45;&gt;Node1</title>
<g id="a_edge17_Node000001_Node000012"><a xlink:title=" ">
<path fill="none" stroke="#9a32cd" stroke-dasharray="5,2" d="M717.22,-102.55C744.72,-117.98 778.93,-138.47 807.55,-159.52 821.18,-169.55 835.47,-182.8 844.68,-191.77"/>
<polygon fill="#9a32cd" stroke="#9a32cd" points="719.18,-99.63 708.74,-97.83 715.78,-105.75 719.18,-99.63"/>
</a>
</g>
<text text-anchor="middle" x="777.92" y="-161.27" font-family="Helvetica,sans-Serif" font-size="10.00" fill="grey"> m_binded</text>
</g>
<!-- Node13&#45;&gt;Node12 -->
<g id="edge20_Node000012_Node000013" class="edge">
<title>Node13&#45;&gt;Node12</title>
<g id="a_edge20_Node000012_Node000013"><a xlink:title=" ">
<path fill="none" stroke="orange" stroke-dasharray="5,2" d="M437.9,-60.06C441.25,-59.75 444.56,-59.49 447.8,-59.27 508.11,-55.3 523.66,-53.23 583.8,-59.27 593.83,-60.28 604.44,-61.97 614.58,-63.89"/>
<polygon fill="orange" stroke="orange" points="437.59,-56.57 428,-61.08 438.31,-63.54 437.59,-56.57"/>
</a>
</g>
<text text-anchor="start" x="477.92" y="-72.27" font-family="Helvetica,sans-Serif" font-size="10.00" fill="grey"> &lt; std::string, Ark</text>
<text text-anchor="middle" x="515.8" y="-61.02" font-family="Helvetica,sans-Serif" font-size="10.00" fill="grey">::Value &gt;</text>
</g>
<!-- Node14 -->
<g id="Node000014" class="node">
<title>Node14</title>
<g id="a_Node000014"><a xlink:title=" ">
<polygon fill="white" stroke="#666666" points="168.95,-78.4 140.15,-78.4 140.15,-59.15 168.95,-59.15 168.95,-78.4"/>
<text text-anchor="middle" x="154.55" y="-64.9" font-family="Helvetica,sans-Serif" font-size="10.00">K</text>
</a>
</g>
</g>
<!-- Node14&#45;&gt;Node13 -->
<g id="edge21_Node000013_Node000014" class="edge">
<title>Node14&#45;&gt;Node13</title>
<g id="a_edge21_Node000013_Node000014"><a xlink:title=" ">
<path fill="none" stroke="#9a32cd" stroke-dasharray="5,2" d="M180.62,-68.77C215.35,-68.77 278.9,-68.77 323.63,-68.77"/>
<polygon fill="#9a32cd" stroke="#9a32cd" points="180.72,-65.27 170.72,-68.77 180.72,-72.27 180.72,-65.27"/>
</a>
</g>
<text text-anchor="middle" x="260.8" y="-70.52" font-family="Helvetica,sans-Serif" font-size="10.00" fill="grey"> keys</text>
</g>
</g>
</svg>
