<?xml version="1.0" encoding="UTF-8" standalone="no"?>
<!DOCTYPE svg PUBLIC "-//W3C//DTD SVG 1.1//EN"
 "http://www.w3.org/Graphics/SVG/1.1/DTD/svg11.dtd">
<!-- Generated by graphviz version 12.1.1 (20240910.0053)
 -->
<!-- Title: Ark::internal::ScopeResolver Pages: 1 -->
<svg width="372pt" height="472pt"
 viewBox="0.00 0.00 371.85 472.25" xmlns="http://www.w3.org/2000/svg" xmlns:xlink="http://www.w3.org/1999/xlink">
<g id="graph0" class="graph" transform="scale(1 1) rotate(0) translate(4 468.25)">
<title>Ark::internal::ScopeResolver</title>
<!-- Node1 -->
<g id="Node000001" class="node">
<title>Node1</title>
<g id="a_Node000001"><a xlink:title=" ">
<polygon fill="#999999" stroke="#666666" points="257.12,-19.25 115.88,-19.25 115.88,0 257.12,0 257.12,-19.25"/>
<text text-anchor="middle" x="186.5" y="-5.75" font-family="Helvetica,sans-Serif" font-size="10.00">Ark::internal::ScopeResolver</text>
</a>
</g>
</g>
<!-- Node2 -->
<g id="Node000002" class="node">
<title>Node2</title>
<g id="a_Node000002"><a xlink:title=" ">
<polygon fill="white" stroke="#666666" points="252.25,-97 120.75,-97 120.75,-66.5 252.25,-66.5 252.25,-97"/>
<text text-anchor="start" x="128.75" y="-83.5" font-family="Helvetica,sans-Serif" font-size="10.00">std::vector&lt; Ark::internal</text>
<text text-anchor="middle" x="186.5" y="-72.25" font-family="Helvetica,sans-Serif" font-size="10.00">::ScopeResolver::Scope &gt;</text>
</a>
</g>
</g>
<!-- Node2&#45;&gt;Node1 -->
<g id="edge1_Node000001_Node000002" class="edge">
<title>Node2&#45;&gt;Node1</title>
<g id="a_edge1_Node000001_Node000002"><a xlink:title=" ">
<path fill="none" stroke="#9a32cd" stroke-dasharray="5,2" d="M186.5,-54.98C186.5,-42.48 186.5,-28.27 186.5,-19.38"/>
<polygon fill="#9a32cd" stroke="#9a32cd" points="183,-54.71 186.5,-64.71 190,-54.71 183,-54.71"/>
</a>
</g>
<text text-anchor="middle" x="210.5" y="-39" font-family="Helvetica,sans-Serif" font-size="10.00" fill="grey"> m_scopes</text>
</g>
<!-- Node3 -->
<g id="Node000003" class="node">
<title>Node3</title>
<g id="a_Node000003"><a xlink:href="../../df/d51/classArk_1_1internal_1_1ScopeResolver_1_1Scope.html" target="_top" xlink:title=" ">
<polygon fill="white" stroke="#666666" points="191.12,-186 49.88,-186 49.88,-155.5 191.12,-155.5 191.12,-186"/>
<text text-anchor="start" x="57.88" y="-172.5" font-family="Helvetica,sans-Serif" font-size="10.00">Ark::internal::ScopeResolver</text>
<text text-anchor="middle" x="120.5" y="-161.25" font-family="Helvetica,sans-Serif" font-size="10.00">::Scope</text>
</a>
</g>
</g>
<!-- Node3&#45;&gt;Node2 -->
<g id="edge2_Node000002_Node000003" class="edge">
<title>Node3&#45;&gt;Node2</title>
<g id="a_edge2_Node000002_Node000003"><a xlink:title=" ">
<path fill="none" stroke="#9a32cd" stroke-dasharray="5,2" d="M138.25,-146.36C150.06,-130.78 165.22,-110.8 175.36,-97.43"/>
<polygon fill="#9a32cd" stroke="#9a32cd" points="135.57,-144.1 132.31,-154.18 141.15,-148.33 135.57,-144.1"/>
</a>
</g>
<text text-anchor="middle" x="182.73" y="-122.38" font-family="Helvetica,sans-Serif" font-size="10.00" fill="grey"> elements</text>
</g>
<!-- Node4 -->
<g id="Node000004" class="node">
<title>Node4</title>
<g id="a_Node000004"><a xlink:title=" ">
<polygon fill="white" stroke="#666666" points="183.62,-263.75 57.38,-263.75 57.38,-233.25 183.62,-233.25 183.62,-263.75"/>
<text text-anchor="start" x="65.38" y="-250.25" font-family="Helvetica,sans-Serif" font-size="10.00">std::unordered_set</text>
<text text-anchor="middle" x="120.5" y="-239" font-family="Helvetica,sans-Serif" font-size="10.00">&lt; Ark::internal::Variable &gt;</text>
</a>
</g>
</g>
<!-- Node4&#45;&gt;Node3 -->
<g id="edge3_Node000003_Node000004" class="edge">
<title>Node4&#45;&gt;Node3</title>
<g id="a_edge3_Node000003_Node000004"><a xlink:title=" ">
<path fill="none" stroke="#9a32cd" stroke-dasharray="5,2" d="M120.5,-221.47C120.5,-209.71 120.5,-196.26 120.5,-186.31"/>
<polygon fill="#9a32cd" stroke="#9a32cd" points="117,-221.38 120.5,-231.38 124,-221.38 117,-221.38"/>
</a>
</g>
<text text-anchor="middle" x="138.12" y="-205.75" font-family="Helvetica,sans-Serif" font-size="10.00" fill="grey"> m_vars</text>
</g>
<!-- Node5 -->
<g id="Node000005" class="node">
<title>Node5</title>
<g id="a_Node000005"><a xlink:href="../../df/da2/structArk_1_1internal_1_1Variable.html" target="_top" xlink:title=" ">
<polygon fill="white" stroke="#666666" points="109,-330.25 0,-330.25 0,-311 109,-311 109,-330.25"/>
<text text-anchor="middle" x="54.5" y="-316.75" font-family="Helvetica,sans-Serif" font-size="10.00">Ark::internal::Variable</text>
</a>
</g>
</g>
<!-- Node5&#45;&gt;Node4 -->
<g id="edge4_Node000004_Node000005" class="edge">
<title>Node5&#45;&gt;Node4</title>
<g id="a_edge4_Node000004_Node000005"><a xlink:title=" ">
<path fill="none" stroke="#9a32cd" stroke-dasharray="5,2" d="M70.51,-302.61C81.58,-290.86 96.14,-275.38 106.7,-264.17"/>
<polygon fill="#9a32cd" stroke="#9a32cd" points="68.2,-299.96 63.9,-309.64 73.3,-304.76 68.2,-299.96"/>
</a>
</g>
<text text-anchor="middle" x="101.48" y="-283.5" font-family="Helvetica,sans-Serif" font-size="10.00" fill="grey"> keys</text>
</g>
<!-- Node6 -->
<g id="Node000006" class="node">
<title>Node6</title>
<g id="a_Node000006"><a xlink:title=" ">
<polygon fill="white" stroke="#666666" points="84.25,-396.75 24.75,-396.75 24.75,-377.5 84.25,-377.5 84.25,-396.75"/>
<text text-anchor="middle" x="54.5" y="-383.25" font-family="Helvetica,sans-Serif" font-size="10.00">std::string</text>
</a>
</g>
</g>
<!-- Node6&#45;&gt;Node5 -->
<g id="edge5_Node000005_Node000006" class="edge">
<title>Node6&#45;&gt;Node5</title>
<g id="a_edge5_Node000005_Node000006"><a xlink:title=" ">
<path fill="none" stroke="#9a32cd" stroke-dasharray="5,2" d="M54.5,-365.65C54.5,-353.82 54.5,-339.54 54.5,-330.52"/>
<polygon fill="#9a32cd" stroke="#9a32cd" points="51,-365.64 54.5,-375.64 58,-365.64 51,-365.64"/>
</a>
</g>
<text text-anchor="middle" x="68" y="-350" font-family="Helvetica,sans-Serif" font-size="10.00" fill="grey"> name</text>
</g>
<!-- Node7 -->
<g id="Node000007" class="node">
<title>Node7</title>
<g id="a_Node000007"><a xlink:title=" ">
<polygon fill="white" stroke="#666666" points="101.5,-464.25 7.5,-464.25 7.5,-433.75 101.5,-433.75 101.5,-464.25"/>
<text text-anchor="start" x="15.5" y="-450.75" font-family="Helvetica,sans-Serif" font-size="10.00">std::basic_string&lt;</text>
<text text-anchor="middle" x="54.5" y="-439.5" font-family="Helvetica,sans-Serif" font-size="10.00"> Char &gt;</text>
</a>
</g>
</g>
<!-- Node7&#45;&gt;Node6 -->
<g id="edge6_Node000006_Node000007" class="edge">
<title>Node7&#45;&gt;Node6</title>
<g id="a_edge6_Node000006_Node000007"><a xlink:title=" ">
<path fill="none" stroke="#63b8ff" d="M54.5,-422.27C54.5,-413.29 54.5,-403.79 54.5,-397.1"/>
<polygon fill="#63b8ff" stroke="#63b8ff" points="51,-421.99 54.5,-431.99 58,-421.99 51,-421.99"/>
</a>
</g>
</g>
<!-- Node8 -->
<g id="Node000008" class="node">
<title>Node8</title>
<g id="a_Node000008"><a xlink:title=" ">
<polygon fill="white" stroke="#666666" points="248.38,-330.25 126.62,-330.25 126.62,-311 248.38,-311 248.38,-330.25"/>
<text text-anchor="middle" x="187.5" y="-316.75" font-family="Helvetica,sans-Serif" font-size="10.00">std::unordered_set&lt; K &gt;</text>
</a>
</g>
</g>
<!-- Node8&#45;&gt;Node4 -->
<g id="edge7_Node000004_Node000008" class="edge">
<title>Node8&#45;&gt;Node4</title>
<g id="a_edge7_Node000004_Node000008"><a xlink:title=" ">
<path fill="none" stroke="orange" stroke-dasharray="5,2" d="M171.24,-302.61C160.01,-290.86 145.23,-275.38 134.51,-264.17"/>
<polygon fill="orange" stroke="orange" points="168.53,-304.84 177.97,-309.65 173.59,-300 168.53,-304.84"/>
</a>
</g>
<text text-anchor="middle" x="218.6" y="-283.5" font-family="Helvetica,sans-Serif" font-size="10.00" fill="grey"> &lt; Ark::internal::Variable &gt;</text>
</g>
<!-- Node9 -->
<g id="Node000009" class="node">
<title>Node9</title>
<g id="a_Node000009"><a xlink:title=" ">
<polygon fill="white" stroke="#666666" points="201.9,-396.75 173.1,-396.75 173.1,-377.5 201.9,-377.5 201.9,-396.75"/>
<text text-anchor="middle" x="187.5" y="-383.25" font-family="Helvetica,sans-Serif" font-size="10.00">K</text>
</a>
</g>
</g>
<!-- Node9&#45;&gt;Node8 -->
<g id="edge8_Node000008_Node000009" class="edge">
<title>Node9&#45;&gt;Node8</title>
<g id="a_edge8_Node000008_Node000009"><a xlink:title=" ">
<path fill="none" stroke="#9a32cd" stroke-dasharray="5,2" d="M187.5,-365.65C187.5,-353.82 187.5,-339.54 187.5,-330.52"/>
<polygon fill="#9a32cd" stroke="#9a32cd" points="184,-365.64 187.5,-375.64 191,-365.64 184,-365.64"/>
</a>
</g>
<text text-anchor="middle" x="199.5" y="-350" font-family="Helvetica,sans-Serif" font-size="10.00" fill="grey"> keys</text>
</g>
<!-- Node10 -->
<g id="Node000010" class="node">
<title>Node10</title>
<g id="a_Node000010"><a xlink:title=" ">
<polygon fill="white" stroke="#666666" points="295.75,-180.38 209.25,-180.38 209.25,-161.12 295.75,-161.12 295.75,-180.38"/>
<text text-anchor="middle" x="252.5" y="-166.88" font-family="Helvetica,sans-Serif" font-size="10.00">std::vector&lt; T &gt;</text>
</a>
</g>
</g>
<!-- Node10&#45;&gt;Node2 -->
<g id="edge9_Node000002_Node000010" class="edge">
<title>Node10&#45;&gt;Node2</title>
<g id="a_edge9_Node000002_Node000010"><a xlink:title=" ">
<path fill="none" stroke="orange" stroke-dasharray="5,2" d="M238.89,-151.8C226.65,-135.68 208.91,-112.29 197.54,-97.3"/>
<polygon fill="orange" stroke="orange" points="235.94,-153.71 244.77,-159.56 241.52,-149.48 235.94,-153.71"/>
</a>
</g>
<text text-anchor="start" x="227.35" y="-128" font-family="Helvetica,sans-Serif" font-size="10.00" fill="grey"> &lt; Ark::internal::ScopeResolver</text>
<text text-anchor="middle" x="295.6" y="-116.75" font-family="Helvetica,sans-Serif" font-size="10.00" fill="grey">::Scope &gt;</text>
</g>
<!-- Node11 -->
<g id="Node000011" class="node">
<title>Node11</title>
<g id="a_Node000011"><a xlink:title=" ">
<polygon fill="white" stroke="#666666" points="266.9,-258.12 238.1,-258.12 238.1,-238.88 266.9,-238.88 266.9,-258.12"/>
<text text-anchor="middle" x="252.5" y="-244.62" font-family="Helvetica,sans-Serif" font-size="10.00">T</text>
</a>
</g>
</g>
<!-- Node11&#45;&gt;Node10 -->
<g id="edge10_Node000010_Node000011" class="edge">
<title>Node11&#45;&gt;Node10</title>
<g id="a_edge10_Node000010_Node000011"><a xlink:title=" ">
<path fill="none" stroke="#9a32cd" stroke-dasharray="5,2" d="M252.5,-227.22C252.5,-212.08 252.5,-192.11 252.5,-180.73"/>
<polygon fill="#9a32cd" stroke="#9a32cd" points="249,-227 252.5,-237 256,-227 249,-227"/>
</a>
</g>
<text text-anchor="middle" x="273.88" y="-205.75" font-family="Helvetica,sans-Serif" font-size="10.00" fill="grey"> elements</text>
</g>
</g>
</svg>
