<?xml version="1.0" encoding="UTF-8" standalone="no"?>
<!DOCTYPE svg PUBLIC "-//W3C//DTD SVG 1.1//EN"
 "http://www.w3.org/Graphics/SVG/1.1/DTD/svg11.dtd">
<!-- Generated by graphviz version 12.1.1 (20240910.0053)
 -->
<!-- Title: Ark::internal::ScopeResolver Pages: 1 -->
<!--zoomable 472 -->

<svg id="main" version="1.1" xmlns="http://www.w3.org/2000/svg" xmlns:xlink="http://www.w3.org/1999/xlink" xml:space="preserve" onload="init(evt)">

<style type="text/css"><![CDATA[
.node, .edge {opacity: 0.7;}
.node.selected, .edge.selected {opacity: 1;}
.edge:hover path { stroke: red; }
.edge:hover polygon { stroke: red; fill: red; }
]]></style>

<defs>
  <circle id="rim" cx="0" cy="0" r="7"/>
  <circle id="rim2" cx="0" cy="0" r="3.5"/>
  <g id="zoomPlus">
    <use xlink:href="#rim" fill="#404040"><set attributeName="fill" to="#808080" begin="zoomplus.mouseover" end="zoomplus.mouseout"/></use>
    <path d="M-4,0h8M0,-4v8" fill="none" stroke="white" stroke-width="1.5" pointer-events="none"/>
  </g>
  <g id="zoomMin">
    <use xlink:href="#rim" fill="#404040"><set attributeName="fill" to="#808080" begin="zoomminus.mouseover" end="zoomminus.mouseout"/></use>
    <path d="M-4,0h8" fill="none" stroke="white" stroke-width="1.5" pointer-events="none"/>
  </g>
  <g id="arrowUp" transform="translate(30 24)">
    <use xlink:href="#rim"/>
    <path pointer-events="none" fill="none" stroke="white" stroke-width="1.5" d="M0,-3.0v7 M-2.5,-0.5L0,-3.0L2.5,-0.5"/>
  </g>
  <g id="arrowRight" transform="rotate(90) translate(36 -43)">
    <use xlink:href="#rim"/>
    <path pointer-events="none" fill="none" stroke="white" stroke-width="1.5" d="M0,-3.0v7 M-2.5,-0.5L0,-3.0L2.5,-0.5"/>
  </g>
  <g id="arrowDown" transform="rotate(180) translate(-30 -48)">
    <use xlink:href="#rim"/>
    <path pointer-events="none" fill="none" stroke="white" stroke-width="1.5" d="M0,-3.0v7 M-2.5,-0.5L0,-3.0L2.5,-0.5"/>
  </g>
  <g id="arrowLeft" transform="rotate(270) translate(-36 17)">
    <use xlink:href="#rim"/>
    <path pointer-events="none" fill="none" stroke="white" stroke-width="1.5" d="M0,-3.0v7 M-2.5,-0.5L0,-3.0L2.5,-0.5"/>
  </g>
  <g id="resetDef">
    <use xlink:href="#rim2" fill="#404040"><set attributeName="fill" to="#808080" begin="reset.mouseover" end="reset.mouseout"/></use>
  </g>
</defs>
<script type="application/ecmascript">
var viewWidth = 372;
var viewHeight = 472;
var sectionId = 'dynsection-0';
</script>
<script type="application/ecmascript" xlink:href="../../svg.min.js"/>
<svg id="graph" class="graph">
<g id="viewport">
<title>Ark::internal::ScopeResolver</title>
<!-- Node1 -->
<g id="Node000001" class="node">
<title>Node1</title>
<g id="a_Node000001"><a xlink:title=" ">
<polygon fill="#999999" stroke="#666666" points="257.12,-19.25 115.88,-19.25 115.88,0 257.12,0 257.12,-19.25"/>
<text text-anchor="middle" x="186.5" y="-5.75" font-family="Helvetica,sans-Serif" font-size="10.00">Ark::internal::ScopeResolver</text>
</a>
</g>
</g>
<!-- Node2 -->
<g id="Node000002" class="node">
<title>Node2</title>
<g id="a_Node000002"><a xlink:title=" ">
<polygon fill="white" stroke="#666666" points="252.25,-97 120.75,-97 120.75,-66.5 252.25,-66.5 252.25,-97"/>
<text text-anchor="start" x="128.75" y="-83.5" font-family="Helvetica,sans-Serif" font-size="10.00">std::vector&lt; Ark::internal</text>
<text text-anchor="middle" x="186.5" y="-72.25" font-family="Helvetica,sans-Serif" font-size="10.00">::ScopeResolver::Scope &gt;</text>
</a>
</g>
</g>
<!-- Node2&#45;&gt;Node1 -->
<g id="edge1_Node000001_Node000002" class="edge">
<title>Node2&#45;&gt;Node1</title>
<g id="a_edge1_Node000001_Node000002"><a xlink:title=" ">
<path fill="none" stroke="#9a32cd" stroke-dasharray="5,2" d="M186.5,-54.98C186.5,-42.48 186.5,-28.27 186.5,-19.38"/>
<polygon fill="#9a32cd" stroke="#9a32cd" points="183,-54.71 186.5,-64.71 190,-54.71 183,-54.71"/>
</a>
</g>
<text text-anchor="middle" x="210.5" y="-39" font-family="Helvetica,sans-Serif" font-size="10.00" fill="grey"> m_scopes</text>
</g>
<!-- Node3 -->
<g id="Node000003" class="node">
<title>Node3</title>
<g id="a_Node000003"><a xlink:href="../../df/d51/classArk_1_1internal_1_1ScopeResolver_1_1Scope.html" target="_top" xlink:title=" ">
<polygon fill="white" stroke="#666666" points="191.12,-186 49.88,-186 49.88,-155.5 191.12,-155.5 191.12,-186"/>
<text text-anchor="start" x="57.88" y="-172.5" font-family="Helvetica,sans-Serif" font-size="10.00">Ark::internal::ScopeResolver</text>
<text text-anchor="middle" x="120.5" y="-161.25" font-family="Helvetica,sans-Serif" font-size="10.00">::Scope</text>
</a>
</g>
</g>
<!-- Node3&#45;&gt;Node2 -->
<g id="edge2_Node000002_Node000003" class="edge">
<title>Node3&#45;&gt;Node2</title>
<g id="a_edge2_Node000002_Node000003"><a xlink:title=" ">
<path fill="none" stroke="#9a32cd" stroke-dasharray="5,2" d="M138.25,-146.36C150.06,-130.78 165.22,-110.8 175.36,-97.43"/>
<polygon fill="#9a32cd" stroke="#9a32cd" points="135.57,-144.1 132.31,-154.18 141.15,-148.33 135.57,-144.1"/>
</a>
</g>
<text text-anchor="middle" x="182.73" y="-122.38" font-family="Helvetica,sans-Serif" font-size="10.00" fill="grey"> elements</text>
</g>
<!-- Node4 -->
<g id="Node000004" class="node">
<title>Node4</title>
<g id="a_Node000004"><a xlink:title=" ">
<polygon fill="white" stroke="#666666" points="183.62,-263.75 57.38,-263.75 57.38,-233.25 183.62,-233.25 183.62,-263.75"/>
<text text-anchor="start" x="65.38" y="-250.25" font-family="Helvetica,sans-Serif" font-size="10.00">std::unordered_set</text>
<text text-anchor="middle" x="120.5" y="-239" font-family="Helvetica,sans-Serif" font-size="10.00">&lt; Ark::internal::Variable &gt;</text>
</a>
</g>
</g>
<!-- Node4&#45;&gt;Node3 -->
<g id="edge3_Node000003_Node000004" class="edge">
<title>Node4&#45;&gt;Node3</title>
<g id="a_edge3_Node000003_Node000004"><a xlink:title=" ">
<path fill="none" stroke="#9a32cd" stroke-dasharray="5,2" d="M120.5,-221.47C120.5,-209.71 120.5,-196.26 120.5,-186.31"/>
<polygon fill="#9a32cd" stroke="#9a32cd" points="117,-221.38 120.5,-231.38 124,-221.38 117,-221.38"/>
</a>
</g>
<text text-anchor="middle" x="138.12" y="-205.75" font-family="Helvetica,sans-Serif" font-size="10.00" fill="grey"> m_vars</text>
</g>
<!-- Node5 -->
<g id="Node000005" class="node">
<title>Node5</title>
<g id="a_Node000005"><a xlink:href="../../df/da2/structArk_1_1internal_1_1Variable.html" target="_top" xlink:title=" ">
<polygon fill="white" stroke="#666666" points="109,-330.25 0,-330.25 0,-311 109,-311 109,-330.25"/>
<text text-anchor="middle" x="54.5" y="-316.75" font-family="Helvetica,sans-Serif" font-size="10.00">Ark::internal::Variable</text>
</a>
</g>
</g>
<!-- Node5&#45;&gt;Node4 -->
<g id="edge4_Node000004_Node000005" class="edge">
<title>Node5&#45;&gt;Node4</title>
<g id="a_edge4_Node000004_Node000005"><a xlink:title=" ">
<path fill="none" stroke="#9a32cd" stroke-dasharray="5,2" d="M70.51,-302.61C81.58,-290.86 96.14,-275.38 106.7,-264.17"/>
<polygon fill="#9a32cd" stroke="#9a32cd" points="68.2,-299.96 63.9,-309.64 73.3,-304.76 68.2,-299.96"/>
</a>
</g>
<text text-anchor="middle" x="101.48" y="-283.5" font-family="Helvetica,sans-Serif" font-size="10.00" fill="grey"> keys</text>
</g>
<!-- Node6 -->
<g id="Node000006" class="node">
<title>Node6</title>
<g id="a_Node000006"><a xlink:title=" ">
<polygon fill="white" stroke="#666666" points="84.25,-396.75 24.75,-396.75 24.75,-377.5 84.25,-377.5 84.25,-396.75"/>
<text text-anchor="middle" x="54.5" y="-383.25" font-family="Helvetica,sans-Serif" font-size="10.00">std::string</text>
</a>
</g>
</g>
<!-- Node6&#45;&gt;Node5 -->
<g id="edge5_Node000005_Node000006" class="edge">
<title>Node6&#45;&gt;Node5</title>
<g id="a_edge5_Node000005_Node000006"><a xlink:title=" ">
<path fill="none" stroke="#9a32cd" stroke-dasharray="5,2" d="M54.5,-365.65C54.5,-353.82 54.5,-339.54 54.5,-330.52"/>
<polygon fill="#9a32cd" stroke="#9a32cd" points="51,-365.64 54.5,-375.64 58,-365.64 51,-365.64"/>
</a>
</g>
<text text-anchor="middle" x="68" y="-350" font-family="Helvetica,sans-Serif" font-size="10.00" fill="grey"> name</text>
</g>
<!-- Node7 -->
<g id="Node000007" class="node">
<title>Node7</title>
<g id="a_Node000007"><a xlink:title=" ">
<polygon fill="white" stroke="#666666" points="101.5,-464.25 7.5,-464.25 7.5,-433.75 101.5,-433.75 101.5,-464.25"/>
<text text-anchor="start" x="15.5" y="-450.75" font-family="Helvetica,sans-Serif" font-size="10.00">std::basic_string&lt;</text>
<text text-anchor="middle" x="54.5" y="-439.5" font-family="Helvetica,sans-Serif" font-size="10.00"> Char &gt;</text>
</a>
</g>
</g>
<!-- Node7&#45;&gt;Node6 -->
<g id="edge6_Node000006_Node000007" class="edge">
<title>Node7&#45;&gt;Node6</title>
<g id="a_edge6_Node000006_Node000007"><a xlink:title=" ">
<path fill="none" stroke="#63b8ff" d="M54.5,-422.27C54.5,-413.29 54.5,-403.79 54.5,-397.1"/>
<polygon fill="#63b8ff" stroke="#63b8ff" points="51,-421.99 54.5,-431.99 58,-421.99 51,-421.99"/>
</a>
</g>
</g>
<!-- Node8 -->
<g id="Node000008" class="node">
<title>Node8</title>
<g id="a_Node000008"><a xlink:title=" ">
<polygon fill="white" stroke="#666666" points="248.38,-330.25 126.62,-330.25 126.62,-311 248.38,-311 248.38,-330.25"/>
<text text-anchor="middle" x="187.5" y="-316.75" font-family="Helvetica,sans-Serif" font-size="10.00">std::unordered_set&lt; K &gt;</text>
</a>
</g>
</g>
<!-- Node8&#45;&gt;Node4 -->
<g id="edge7_Node000004_Node000008" class="edge">
<title>Node8&#45;&gt;Node4</title>
<g id="a_edge7_Node000004_Node000008"><a xlink:title=" ">
<path fill="none" stroke="orange" stroke-dasharray="5,2" d="M171.24,-302.61C160.01,-290.86 145.23,-275.38 134.51,-264.17"/>
<polygon fill="orange" stroke="orange" points="168.53,-304.84 177.97,-309.65 173.59,-300 168.53,-304.84"/>
</a>
</g>
<text text-anchor="middle" x="218.6" y="-283.5" font-family="Helvetica,sans-Serif" font-size="10.00" fill="grey"> &lt; Ark::internal::Variable &gt;</text>
</g>
<!-- Node9 -->
<g id="Node000009" class="node">
<title>Node9</title>
<g id="a_Node000009"><a xlink:title=" ">
<polygon fill="white" stroke="#666666" points="201.9,-396.75 173.1,-396.75 173.1,-377.5 201.9,-377.5 201.9,-396.75"/>
<text text-anchor="middle" x="187.5" y="-383.25" font-family="Helvetica,sans-Serif" font-size="10.00">K</text>
</a>
</g>
</g>
<!-- Node9&#45;&gt;Node8 -->
<g id="edge8_Node000008_Node000009" class="edge">
<title>Node9&#45;&gt;Node8</title>
<g id="a_edge8_Node000008_Node000009"><a xlink:title=" ">
<path fill="none" stroke="#9a32cd" stroke-dasharray="5,2" d="M187.5,-365.65C187.5,-353.82 187.5,-339.54 187.5,-330.52"/>
<polygon fill="#9a32cd" stroke="#9a32cd" points="184,-365.64 187.5,-375.64 191,-365.64 184,-365.64"/>
</a>
</g>
<text text-anchor="middle" x="199.5" y="-350" font-family="Helvetica,sans-Serif" font-size="10.00" fill="grey"> keys</text>
</g>
<!-- Node10 -->
<g id="Node000010" class="node">
<title>Node10</title>
<g id="a_Node000010"><a xlink:title=" ">
<polygon fill="white" stroke="#666666" points="295.75,-180.38 209.25,-180.38 209.25,-161.12 295.75,-161.12 295.75,-180.38"/>
<text text-anchor="middle" x="252.5" y="-166.88" font-family="Helvetica,sans-Serif" font-size="10.00">std::vector&lt; T &gt;</text>
</a>
</g>
</g>
<!-- Node10&#45;&gt;Node2 -->
<g id="edge9_Node000002_Node000010" class="edge">
<title>Node10&#45;&gt;Node2</title>
<g id="a_edge9_Node000002_Node000010"><a xlink:title=" ">
<path fill="none" stroke="orange" stroke-dasharray="5,2" d="M238.89,-151.8C226.65,-135.68 208.91,-112.29 197.54,-97.3"/>
<polygon fill="orange" stroke="orange" points="235.94,-153.71 244.77,-159.56 241.52,-149.48 235.94,-153.71"/>
</a>
</g>
<text text-anchor="start" x="227.35" y="-128" font-family="Helvetica,sans-Serif" font-size="10.00" fill="grey"> &lt; Ark::internal::ScopeResolver</text>
<text text-anchor="middle" x="295.6" y="-116.75" font-family="Helvetica,sans-Serif" font-size="10.00" fill="grey">::Scope &gt;</text>
</g>
<!-- Node11 -->
<g id="Node000011" class="node">
<title>Node11</title>
<g id="a_Node000011"><a xlink:title=" ">
<polygon fill="white" stroke="#666666" points="266.9,-258.12 238.1,-258.12 238.1,-238.88 266.9,-238.88 266.9,-258.12"/>
<text text-anchor="middle" x="252.5" y="-244.62" font-family="Helvetica,sans-Serif" font-size="10.00">T</text>
</a>
</g>
</g>
<!-- Node11&#45;&gt;Node10 -->
<g id="edge10_Node000010_Node000011" class="edge">
<title>Node11&#45;&gt;Node10</title>
<g id="a_edge10_Node000010_Node000011"><a xlink:title=" ">
<path fill="none" stroke="#9a32cd" stroke-dasharray="5,2" d="M252.5,-227.22C252.5,-212.08 252.5,-192.11 252.5,-180.73"/>
<polygon fill="#9a32cd" stroke="#9a32cd" points="249,-227 252.5,-237 256,-227 249,-227"/>
</a>
</g>
<text text-anchor="middle" x="273.88" y="-205.75" font-family="Helvetica,sans-Serif" font-size="10.00" fill="grey"> elements</text>
</g>
</g>
</svg>

<g id="navigator" transform="translate(0 0)" fill="#404254">
  <rect fill="#f2f5e9" fill-opacity="0.5" stroke="#606060" stroke-width=".5" x="0" y="0" width="60" height="60"/>
  <use id="zoomplus" xlink:href="#zoomPlus" x="17" y="9" onmousedown="handleZoom(evt,'in')"/>
  <use id="zoomminus" xlink:href="#zoomMin" x="42" y="9" onmousedown="handleZoom(evt,'out')"/>
  <use id="reset" xlink:href="#resetDef" x="30" y="36" onmousedown="handleReset()"/>
   <use id="arrowup" xlink:href="#arrowUp" x="0" y="0" onmousedown="handlePan(0,-1)"/>
  <use id="arrowright" xlink:href="#arrowRight" x="0" y="0" onmousedown="handlePan(1,0)"/>
  <use id="arrowdown" xlink:href="#arrowDown" x="0" y="0" onmousedown="handlePan(0,1)"/>
  <use id="arrowleft" xlink:href="#arrowLeft" x="0" y="0" onmousedown="handlePan(-1,0)"/>
</g>
<svg viewBox="0 0 15 15" width="100%" height="30px" preserveAspectRatio="xMaxYMin meet">
 <g id="arrow_out" transform="scale(0.3 0.3)">
  <a xlink:href="classArk_1_1internal_1_1ScopeResolver__coll__graph_org.svg" target="_base">
   <rect id="button" ry="5" rx="5" y="6" x="6" height="38" width="38"
        fill="#f2f5e9" fill-opacity="0.5" stroke="#606060" stroke-width="1.0"/>
   <path id="arrow"
     d="M 11.500037,31.436501 C 11.940474,20.09759 22.043105,11.32322 32.158766,21.979434 L 37.068811,17.246167 C 37.068811,17.246167 37.088388,32 37.088388,32 L 22.160133,31.978069 C 22.160133,31.978069 26.997745,27.140456 26.997745,27.140456 C 18.528582,18.264221 13.291696,25.230495 11.500037,31.436501 z"
     style="fill:#404040;"/>
  </a>
 </g>
</svg>

<style type='text/css'>
<![CDATA[
[data-mouse-over-selected='false'] { opacity: 0.7; }
[data-mouse-over-selected='true']  { opacity: 1.0; }
]]>
</style>
<script type="application/ecmascript"><![CDATA[
document.addEventListener('DOMContentLoaded', (event) => {
  highlightEdges();
  highlightAdjacentNodes();
});
]]></script>
</svg>
