<?xml version="1.0" encoding="UTF-8" standalone="no"?>
<!DOCTYPE svg PUBLIC "-//W3C//DTD SVG 1.1//EN"
 "http://www.w3.org/Graphics/SVG/1.1/DTD/svg11.dtd">
<!-- Generated by graphviz version 2.43.0 (0)
 -->
<!-- Title: /home/fola/code/Ark/include/Ark/TypeChecker.hpp Pages: 1 -->
<svg width="554pt" height="173pt"
 viewBox="0.00 0.00 554.00 173.00" xmlns="http://www.w3.org/2000/svg" xmlns:xlink="http://www.w3.org/1999/xlink">
<g id="graph0" class="graph" transform="scale(1 1) rotate(0) translate(4 169)">
<title>/home/fola/code/Ark/include/Ark/TypeChecker.hpp</title>
<polygon fill="white" stroke="transparent" points="-4,4 -4,-169 550,-169 550,4 -4,4"/>
<!-- Node1 -->
<g id="node1" class="node">
<title>Node1</title>
<g id="a_node1"><a xlink:title=" ">
<polygon fill="#bfbfbf" stroke="black" points="218,-134.5 218,-164.5 377,-164.5 377,-134.5 218,-134.5"/>
<text text-anchor="start" x="226" y="-152.5" font-family="Helvetica,sans-Serif" font-size="10.00">/home/fola/code/Ark</text>
<text text-anchor="middle" x="297.5" y="-141.5" font-family="Helvetica,sans-Serif" font-size="10.00">/include/Ark/TypeChecker.hpp</text>
</a>
</g>
</g>
<!-- Node2 -->
<g id="node2" class="node">
<title>Node2</title>
<g id="a_node2"><a xlink:href="../../d3/d7e/Ark_8hpp.html" target="_top" xlink:title="Includes the needed files to start using ArkScript.">
<polygon fill="white" stroke="black" points="79,-67.5 79,-97.5 194,-97.5 194,-67.5 79,-67.5"/>
<text text-anchor="start" x="87" y="-85.5" font-family="Helvetica,sans-Serif" font-size="10.00">/home/fola/code/Ark</text>
<text text-anchor="middle" x="136.5" y="-74.5" font-family="Helvetica,sans-Serif" font-size="10.00">/include/Ark/Ark.hpp</text>
</a>
</g>
</g>
<!-- Node1&#45;&gt;Node2 -->
<g id="edge1" class="edge">
<title>Node1&#45;&gt;Node2</title>
<path fill="none" stroke="midnightblue" d="M253.02,-130.54C227.26,-120.14 195.3,-107.24 171.37,-97.58"/>
<polygon fill="midnightblue" stroke="midnightblue" points="251.98,-133.9 262.57,-134.4 254.6,-127.41 251.98,-133.9"/>
</g>
<!-- Node5 -->
<g id="node5" class="node">
<title>Node5</title>
<g id="a_node5"><a xlink:href="../../d6/d9a/TypeChecker_8cpp.html" target="_top" xlink:title=" ">
<polygon fill="white" stroke="black" points="212,-67.5 212,-97.5 383,-97.5 383,-67.5 212,-67.5"/>
<text text-anchor="start" x="220" y="-85.5" font-family="Helvetica,sans-Serif" font-size="10.00">/home/fola/code/Ark</text>
<text text-anchor="middle" x="297.5" y="-74.5" font-family="Helvetica,sans-Serif" font-size="10.00">/src/arkreactor/TypeChecker.cpp</text>
</a>
</g>
</g>
<!-- Node1&#45;&gt;Node5 -->
<g id="edge4" class="edge">
<title>Node1&#45;&gt;Node5</title>
<path fill="none" stroke="midnightblue" d="M297.5,-124.11C297.5,-115.15 297.5,-105.32 297.5,-97.58"/>
<polygon fill="midnightblue" stroke="midnightblue" points="294,-124.4 297.5,-134.4 301,-124.4 294,-124.4"/>
</g>
<!-- Node6 -->
<g id="node6" class="node">
<title>Node6</title>
<g id="a_node6"><a xlink:href="../../d2/d27/VM_8cpp.html" target="_top" xlink:title=" ">
<polygon fill="white" stroke="black" points="401,-67.5 401,-97.5 546,-97.5 546,-67.5 401,-67.5"/>
<text text-anchor="start" x="409" y="-85.5" font-family="Helvetica,sans-Serif" font-size="10.00">/home/fola/code/Ark</text>
<text text-anchor="middle" x="473.5" y="-74.5" font-family="Helvetica,sans-Serif" font-size="10.00">/src/arkreactor/VM/VM.cpp</text>
</a>
</g>
</g>
<!-- Node1&#45;&gt;Node6 -->
<g id="edge5" class="edge">
<title>Node1&#45;&gt;Node6</title>
<path fill="none" stroke="midnightblue" d="M345.38,-130.82C373.67,-120.37 408.99,-107.32 435.39,-97.58"/>
<polygon fill="midnightblue" stroke="midnightblue" points="343.86,-127.65 335.69,-134.4 346.28,-134.21 343.86,-127.65"/>
</g>
<!-- Node3 -->
<g id="node3" class="node">
<title>Node3</title>
<g id="a_node3"><a xlink:href="../../dc/d32/Ark_8cpp.html" target="_top" xlink:title=" ">
<polygon fill="white" stroke="black" points="0,-0.5 0,-30.5 127,-30.5 127,-0.5 0,-0.5"/>
<text text-anchor="start" x="8" y="-18.5" font-family="Helvetica,sans-Serif" font-size="10.00">/home/fola/code/Ark</text>
<text text-anchor="middle" x="63.5" y="-7.5" font-family="Helvetica,sans-Serif" font-size="10.00">/src/arkreactor/Ark.cpp</text>
</a>
</g>
</g>
<!-- Node2&#45;&gt;Node3 -->
<g id="edge2" class="edge">
<title>Node2&#45;&gt;Node3</title>
<path fill="none" stroke="midnightblue" d="M113.03,-60.6C102,-50.78 89.16,-39.34 79.31,-30.58"/>
<polygon fill="midnightblue" stroke="midnightblue" points="110.86,-63.36 120.66,-67.4 115.52,-58.13 110.86,-63.36"/>
</g>
<!-- Node4 -->
<g id="node4" class="node">
<title>Node4</title>
<g id="a_node4"><a xlink:href="../../df/d0a/main_8cpp.html" target="_top" xlink:title=" ">
<polygon fill="white" stroke="black" points="145.5,-0.5 145.5,-30.5 273.5,-30.5 273.5,-0.5 145.5,-0.5"/>
<text text-anchor="start" x="153.5" y="-18.5" font-family="Helvetica,sans-Serif" font-size="10.00">/home/fola/code/Ark</text>
<text text-anchor="middle" x="209.5" y="-7.5" font-family="Helvetica,sans-Serif" font-size="10.00">/src/arkscript/main.cpp</text>
</a>
</g>
</g>
<!-- Node2&#45;&gt;Node4 -->
<g id="edge3" class="edge">
<title>Node2&#45;&gt;Node4</title>
<path fill="none" stroke="midnightblue" d="M159.97,-60.6C171,-50.78 183.84,-39.34 193.69,-30.58"/>
<polygon fill="midnightblue" stroke="midnightblue" points="157.48,-58.13 152.34,-67.4 162.14,-63.36 157.48,-58.13"/>
</g>
</g>
</svg>
