<?xml version="1.0" encoding="UTF-8" standalone="no"?>
<!DOCTYPE svg PUBLIC "-//W3C//DTD SVG 1.1//EN"
 "http://www.w3.org/Graphics/SVG/1.1/DTD/svg11.dtd">
<!-- Generated by graphviz version 2.49.0 (20210828.1703)
 -->
<!-- Title: C:/Users/folae/Documents/Code/Big&#45;Projects/ArkScript/Ark/include/Ark/VM/Value/UserType.hpp Pages: 1 -->
<!--zoomable 718 -->
<svg id="main" version="1.1" xmlns="http://www.w3.org/2000/svg" xmlns:xlink="http://www.w3.org/1999/xlink" xml:space="preserve" onload="init(evt)">
<style type="text/css"><![CDATA[
.edge:hover path { stroke: red; }
.edge:hover polygon { stroke: red; fill: red; }
]]></style>
<script type="text/javascript"><![CDATA[
var edges = document.getElementsByTagName('g');
if (edges && edges.length) {
  for (var i=0;i<edges.length;i++) {
    if (edges[i].id.substr(0,4)=='edge') {
      edges[i].setAttribute('class','edge');
    }
  }
}
]]></script>
        <defs>
                <circle id="rim" cx="0" cy="0" r="7"/>
                <circle id="rim2" cx="0" cy="0" r="3.5"/>
                <g id="zoomPlus">
                        <use xlink:href="#rim" fill="#404040">
                                <set attributeName="fill" to="#808080" begin="zoomplus.mouseover" end="zoomplus.mouseout"/>
                        </use>
                        <path d="M-4,0h8M0,-4v8" fill="none" stroke="white" stroke-width="1.5" pointer-events="none"/>
                </g>
                <g id="zoomMin">
                        <use xlink:href="#rim" fill="#404040">
                                <set attributeName="fill" to="#808080" begin="zoomminus.mouseover" end="zoomminus.mouseout"/>
                        </use>
                        <path d="M-4,0h8" fill="none" stroke="white" stroke-width="1.5" pointer-events="none"/>
                </g>
                <g id="dirArrow">
                        <path fill="none" stroke="white" stroke-width="1.5" d="M0,-3.0v7 M-2.5,-0.5L0,-3.0L2.5,-0.5"/>
                </g>
               <g id="resetDef">
                       <use xlink:href="#rim2" fill="#404040">
                               <set attributeName="fill" to="#808080" begin="reset.mouseover" end="reset.mouseout"/>
                       </use>
               </g>
        </defs>

<script type="text/javascript">
var viewWidth = 1853;
var viewHeight = 718;
var sectionId = 'dynsection-1';
</script>
<script xlink:href="../../svgpan.js"/>
<svg id="graph" class="graph">
<g id="viewport">
<title>C:/Users/folae/Documents/Code/Big&#45;Projects/ArkScript/Ark/include/Ark/VM/Value/UserType.hpp</title>
<polygon fill="white" stroke="transparent" points="-4,4 -4,-714 1849.08,-714 1849.08,4 -4,4"/>
<!-- Node1 -->
<g id="node1" class="node">
<title>Node1</title>
<g id="a_node1"><a xlink:title="Subtype of the value, capable of handling any C++ type.">
<polygon fill="#bfbfbf" stroke="black" points="1196.08,-668.5 1196.08,-709.5 1391.08,-709.5 1391.08,-668.5 1196.08,-668.5"/>
<text text-anchor="start" x="1204.08" y="-697.5" font-family="Helvetica,sans-Serif" font-size="10.00">C:/Users/folae/Documents</text>
<text text-anchor="start" x="1204.08" y="-686.5" font-family="Helvetica,sans-Serif" font-size="10.00">/Code/Big&#45;Projects/ArkScript</text>
<text text-anchor="middle" x="1293.58" y="-675.5" font-family="Helvetica,sans-Serif" font-size="10.00">/Ark/include/Ark/VM/Value/UserType.hpp</text>
</a>
</g>
</g>
<!-- Node2 -->
<g id="node2" class="node">
<title>Node2</title>
<g id="a_node2"><a xlink:href="../../de/dfd/Value_8hpp.html" target="_top" xlink:title=" ">
<polygon fill="white" stroke="black" points="1136.08,-585 1136.08,-626 1287.08,-626 1287.08,-585 1136.08,-585"/>
<text text-anchor="start" x="1144.08" y="-614" font-family="Helvetica,sans-Serif" font-size="10.00">C:/Users/folae/Documents</text>
<text text-anchor="start" x="1144.08" y="-603" font-family="Helvetica,sans-Serif" font-size="10.00">/Code/Big&#45;Projects/ArkScript</text>
<text text-anchor="middle" x="1211.58" y="-592" font-family="Helvetica,sans-Serif" font-size="10.00">/Ark/include/Ark/VM/Value.hpp</text>
</a>
</g>
</g>
<!-- Node1&#45;&gt;Node2 -->
<g id="edge1" class="edge">
<title>Node1&#45;&gt;Node2</title>
<path fill="none" stroke="midnightblue" d="M1266.45,-661.04C1254.95,-649.6 1241.79,-636.53 1231.24,-626.05"/>
<polygon fill="midnightblue" stroke="midnightblue" points="1264.17,-663.7 1273.73,-668.27 1269.1,-658.74 1264.17,-663.7"/>
</g>
<!-- Node30 -->
<g id="node30" class="node">
<title>Node30</title>
<g id="a_node30"><a xlink:href="../../d6/d0f/UserType_8cpp.html" target="_top" xlink:title=" ">
<polygon fill="white" stroke="black" points="1305.08,-579.5 1305.08,-631.5 1448.08,-631.5 1448.08,-579.5 1305.08,-579.5"/>
<text text-anchor="start" x="1313.08" y="-619.5" font-family="Helvetica,sans-Serif" font-size="10.00">C:/Users/folae/Documents</text>
<text text-anchor="start" x="1313.08" y="-608.5" font-family="Helvetica,sans-Serif" font-size="10.00">/Code/Big&#45;Projects/ArkScript</text>
<text text-anchor="start" x="1313.08" y="-597.5" font-family="Helvetica,sans-Serif" font-size="10.00">/Ark/src/arkreactor/VM/Value</text>
<text text-anchor="middle" x="1376.58" y="-586.5" font-family="Helvetica,sans-Serif" font-size="10.00">/UserType.cpp</text>
</a>
</g>
</g>
<!-- Node1&#45;&gt;Node30 -->
<g id="edge46" class="edge">
<title>Node1&#45;&gt;Node30</title>
<path fill="none" stroke="midnightblue" d="M1320.83,-661.24C1330.54,-651.71 1341.44,-641 1351.01,-631.61"/>
<polygon fill="midnightblue" stroke="midnightblue" points="1318.35,-658.77 1313.67,-668.27 1323.26,-663.76 1318.35,-658.77"/>
</g>
<!-- Node3 -->
<g id="node3" class="node">
<title>Node3</title>
<g id="a_node3"><a xlink:href="../../da/d84/Builtins_8hpp.html" target="_top" xlink:title="Host the declaration of all the ArkScript builtins.">
<polygon fill="white" stroke="black" points="32.58,-418 32.58,-459 208.58,-459 208.58,-418 32.58,-418"/>
<text text-anchor="start" x="40.58" y="-447" font-family="Helvetica,sans-Serif" font-size="10.00">C:/Users/folae/Documents</text>
<text text-anchor="start" x="40.58" y="-436" font-family="Helvetica,sans-Serif" font-size="10.00">/Code/Big&#45;Projects/ArkScript</text>
<text text-anchor="middle" x="120.58" y="-425" font-family="Helvetica,sans-Serif" font-size="10.00">/Ark/include/Ark/Builtins/Builtins.hpp</text>
</a>
</g>
</g>
<!-- Node2&#45;&gt;Node3 -->
<g id="edge2" class="edge">
<title>Node2&#45;&gt;Node3</title>
<path fill="none" stroke="midnightblue" d="M1125.69,-605.47C977.44,-605.47 664.73,-598.14 407.58,-543 317.98,-523.79 218.41,-483.28 163.27,-459.03"/>
<polygon fill="midnightblue" stroke="midnightblue" points="1126.08,-608.97 1136.07,-605.45 1126.07,-601.97 1126.08,-608.97"/>
</g>
<!-- Node4 -->
<g id="node4" class="node">
<title>Node4</title>
<g id="a_node4"><a xlink:href="../../d1/d91/VM_8hpp.html" target="_top" xlink:title="The ArkScript virtual machine.">
<polygon fill="white" stroke="black" points="1165.58,-156.5 1165.58,-197.5 1307.58,-197.5 1307.58,-156.5 1165.58,-156.5"/>
<text text-anchor="start" x="1173.58" y="-185.5" font-family="Helvetica,sans-Serif" font-size="10.00">C:/Users/folae/Documents</text>
<text text-anchor="start" x="1173.58" y="-174.5" font-family="Helvetica,sans-Serif" font-size="10.00">/Code/Big&#45;Projects/ArkScript</text>
<text text-anchor="middle" x="1236.58" y="-163.5" font-family="Helvetica,sans-Serif" font-size="10.00">/Ark/include/Ark/VM/VM.hpp</text>
</a>
</g>
</g>
<!-- Node2&#45;&gt;Node4 -->
<g id="edge44" class="edge">
<title>Node2&#45;&gt;Node4</title>
<path fill="none" stroke="midnightblue" d="M1217.06,-574.89C1222.67,-541.95 1230.58,-487.12 1230.58,-439.5 1230.58,-439.5 1230.58,-439.5 1230.58,-348.5 1230.58,-293.85 1233.69,-229.41 1235.44,-197.68"/>
<polygon fill="midnightblue" stroke="midnightblue" points="1213.61,-574.32 1215.33,-584.77 1220.5,-575.53 1213.61,-574.32"/>
</g>
<!-- Node14 -->
<g id="node14" class="node">
<title>Node14</title>
<g id="a_node14"><a xlink:href="../../d2/de9/Exceptions_8hpp.html" target="_top" xlink:title="ArkScript homemade exceptions.">
<polygon fill="white" stroke="black" points="417.08,-501.5 417.08,-542.5 574.08,-542.5 574.08,-501.5 417.08,-501.5"/>
<text text-anchor="start" x="425.08" y="-530.5" font-family="Helvetica,sans-Serif" font-size="10.00">C:/Users/folae/Documents</text>
<text text-anchor="start" x="425.08" y="-519.5" font-family="Helvetica,sans-Serif" font-size="10.00">/Code/Big&#45;Projects/ArkScript</text>
<text text-anchor="middle" x="495.58" y="-508.5" font-family="Helvetica,sans-Serif" font-size="10.00">/Ark/include/Ark/Exceptions.hpp</text>
</a>
</g>
</g>
<!-- Node2&#45;&gt;Node14 -->
<g id="edge14" class="edge">
<title>Node2&#45;&gt;Node14</title>
<path fill="none" stroke="midnightblue" d="M1125.7,-594.72C985.46,-578.76 709.39,-547.34 574.09,-531.94"/>
<polygon fill="midnightblue" stroke="midnightblue" points="1125.64,-598.24 1135.97,-595.89 1126.43,-591.29 1125.64,-598.24"/>
</g>
<!-- Node17 -->
<g id="node17" class="node">
<title>Node17</title>
<g id="a_node17"><a xlink:href="../../d0/db5/State_8hpp.html" target="_top" xlink:title="State used by the virtual machine: it loads the bytecode, can compile it if needed,...">
<polygon fill="white" stroke="black" points="948.08,-240 948.08,-281 1097.08,-281 1097.08,-240 948.08,-240"/>
<text text-anchor="start" x="956.08" y="-269" font-family="Helvetica,sans-Serif" font-size="10.00">C:/Users/folae/Documents</text>
<text text-anchor="start" x="956.08" y="-258" font-family="Helvetica,sans-Serif" font-size="10.00">/Code/Big&#45;Projects/ArkScript</text>
<text text-anchor="middle" x="1022.58" y="-247" font-family="Helvetica,sans-Serif" font-size="10.00">/Ark/include/Ark/VM/State.hpp</text>
</a>
</g>
</g>
<!-- Node2&#45;&gt;Node17 -->
<g id="edge43" class="edge">
<title>Node2&#45;&gt;Node17</title>
<path fill="none" stroke="midnightblue" d="M1210.23,-574.66C1206.28,-519.36 1190.87,-399.62 1130.58,-323 1116.17,-304.69 1094.69,-290.88 1074.68,-281.04"/>
<polygon fill="midnightblue" stroke="midnightblue" points="1206.74,-575.07 1210.87,-584.83 1213.73,-574.63 1206.74,-575.07"/>
</g>
<!-- Node24 -->
<g id="node24" class="node">
<title>Node24</title>
<g id="a_node24"><a xlink:href="../../db/d5e/TypeChecker_8hpp.html" target="_top" xlink:title=" ">
<polygon fill="white" stroke="black" points="999.08,-501.5 999.08,-542.5 1164.08,-542.5 1164.08,-501.5 999.08,-501.5"/>
<text text-anchor="start" x="1007.08" y="-530.5" font-family="Helvetica,sans-Serif" font-size="10.00">C:/Users/folae/Documents</text>
<text text-anchor="start" x="1007.08" y="-519.5" font-family="Helvetica,sans-Serif" font-size="10.00">/Code/Big&#45;Projects/ArkScript</text>
<text text-anchor="middle" x="1081.58" y="-508.5" font-family="Helvetica,sans-Serif" font-size="10.00">/Ark/include/Ark/TypeChecker.hpp</text>
</a>
</g>
</g>
<!-- Node2&#45;&gt;Node24 -->
<g id="edge32" class="edge">
<title>Node2&#45;&gt;Node24</title>
<path fill="none" stroke="midnightblue" d="M1171.74,-579.53C1152.84,-567.68 1130.58,-553.72 1112.91,-542.64"/>
<polygon fill="midnightblue" stroke="midnightblue" points="1170.11,-582.63 1180.44,-584.98 1173.83,-576.7 1170.11,-582.63"/>
</g>
<!-- Node25 -->
<g id="node25" class="node">
<title>Node25</title>
<g id="a_node25"><a xlink:href="../../db/df6/ExecutionContext_8hpp.html" target="_top" xlink:title="Keeping track of the internal data needed by the VM.">
<polygon fill="white" stroke="black" points="1259.08,-418 1259.08,-459 1462.08,-459 1462.08,-418 1259.08,-418"/>
<text text-anchor="start" x="1267.08" y="-447" font-family="Helvetica,sans-Serif" font-size="10.00">C:/Users/folae/Documents</text>
<text text-anchor="start" x="1267.08" y="-436" font-family="Helvetica,sans-Serif" font-size="10.00">/Code/Big&#45;Projects/ArkScript</text>
<text text-anchor="middle" x="1360.58" y="-425" font-family="Helvetica,sans-Serif" font-size="10.00">/Ark/include/Ark/VM/ExecutionContext.hpp</text>
</a>
</g>
</g>
<!-- Node2&#45;&gt;Node25 -->
<g id="edge36" class="edge">
<title>Node2&#45;&gt;Node25</title>
<path fill="none" stroke="midnightblue" d="M1236.07,-577.37C1266.14,-544.08 1316.39,-488.43 1342.92,-459.05"/>
<polygon fill="midnightblue" stroke="midnightblue" points="1233.36,-575.16 1229.26,-584.92 1238.55,-579.85 1233.36,-575.16"/>
</g>
<!-- Node26 -->
<g id="node26" class="node">
<title>Node26</title>
<g id="a_node26"><a xlink:href="../../d8/dcd/Scope_8hpp.html" target="_top" xlink:title="The virtual machine scope system.">
<polygon fill="white" stroke="black" points="1377.58,-501.5 1377.58,-542.5 1531.58,-542.5 1531.58,-501.5 1377.58,-501.5"/>
<text text-anchor="start" x="1385.58" y="-530.5" font-family="Helvetica,sans-Serif" font-size="10.00">C:/Users/folae/Documents</text>
<text text-anchor="start" x="1385.58" y="-519.5" font-family="Helvetica,sans-Serif" font-size="10.00">/Code/Big&#45;Projects/ArkScript</text>
<text text-anchor="middle" x="1454.58" y="-508.5" font-family="Helvetica,sans-Serif" font-size="10.00">/Ark/include/Ark/VM/Scope.hpp</text>
</a>
</g>
</g>
<!-- Node2&#45;&gt;Node26 -->
<g id="edge38" class="edge">
<title>Node2&#45;&gt;Node26</title>
<path fill="none" stroke="midnightblue" d="M1279.44,-581.74C1316.24,-569.4 1361.25,-554.3 1396.43,-542.5"/>
<polygon fill="midnightblue" stroke="midnightblue" points="1278.15,-578.48 1269.78,-584.98 1280.38,-585.12 1278.15,-578.48"/>
</g>
<!-- Node29 -->
<g id="node29" class="node">
<title>Node29</title>
<g id="a_node29"><a xlink:href="../../d1/d74/Value_8cpp.html" target="_top" xlink:title=" ">
<polygon fill="white" stroke="black" points="1549.58,-501.5 1549.58,-542.5 1711.58,-542.5 1711.58,-501.5 1549.58,-501.5"/>
<text text-anchor="start" x="1557.58" y="-530.5" font-family="Helvetica,sans-Serif" font-size="10.00">C:/Users/folae/Documents</text>
<text text-anchor="start" x="1557.58" y="-519.5" font-family="Helvetica,sans-Serif" font-size="10.00">/Code/Big&#45;Projects/ArkScript</text>
<text text-anchor="middle" x="1630.58" y="-508.5" font-family="Helvetica,sans-Serif" font-size="10.00">/Ark/src/arkreactor/VM/Value.cpp</text>
</a>
</g>
</g>
<!-- Node2&#45;&gt;Node29 -->
<g id="edge45" class="edge">
<title>Node2&#45;&gt;Node29</title>
<path fill="none" stroke="midnightblue" d="M1282.19,-582.24C1286.7,-581.08 1291.19,-579.98 1295.58,-579 1402.98,-554.95 1432.34,-562.95 1540.58,-543 1543.41,-542.48 1546.29,-541.93 1549.2,-541.36"/>
<polygon fill="midnightblue" stroke="midnightblue" points="1281.06,-578.92 1272.31,-584.9 1282.88,-585.68 1281.06,-578.92"/>
</g>
<!-- Node3&#45;&gt;Node4 -->
<g id="edge3" class="edge">
<title>Node3&#45;&gt;Node4</title>
<path fill="none" stroke="midnightblue" d="M197.6,-415.74C204.32,-414.3 211.05,-413.02 217.58,-412 292.55,-400.29 833.01,-412.43 899.58,-376 925,-362.09 913.33,-338.88 937.58,-323 1001.45,-281.16 1036.9,-320.39 1105.58,-287 1151.61,-264.62 1195.25,-222.71 1218.71,-197.89"/>
<polygon fill="midnightblue" stroke="midnightblue" points="196.77,-412.33 187.78,-417.94 198.3,-419.16 196.77,-412.33"/>
</g>
<!-- Node11 -->
<g id="node11" class="node">
<title>Node11</title>
<g id="a_node11"><a xlink:href="../../d5/d36/BytecodeReader_8cpp.html" target="_top" xlink:title=" ">
<polygon fill="white" stroke="black" points="49.58,-323.5 49.58,-375.5 191.58,-375.5 191.58,-323.5 49.58,-323.5"/>
<text text-anchor="start" x="57.58" y="-363.5" font-family="Helvetica,sans-Serif" font-size="10.00">C:/Users/folae/Documents</text>
<text text-anchor="start" x="57.58" y="-352.5" font-family="Helvetica,sans-Serif" font-size="10.00">/Code/Big&#45;Projects/ArkScript</text>
<text text-anchor="start" x="57.58" y="-341.5" font-family="Helvetica,sans-Serif" font-size="10.00">/Ark/src/arkreactor/Compiler</text>
<text text-anchor="middle" x="120.58" y="-330.5" font-family="Helvetica,sans-Serif" font-size="10.00">/BytecodeReader.cpp</text>
</a>
</g>
</g>
<!-- Node3&#45;&gt;Node11 -->
<g id="edge11" class="edge">
<title>Node3&#45;&gt;Node11</title>
<path fill="none" stroke="midnightblue" d="M120.58,-407.51C120.58,-397.17 120.58,-385.71 120.58,-375.79"/>
<polygon fill="midnightblue" stroke="midnightblue" points="117.08,-407.76 120.58,-417.76 124.08,-407.76 117.08,-407.76"/>
</g>
<!-- Node12 -->
<g id="node12" class="node">
<title>Node12</title>
<g id="a_node12"><a xlink:href="../../de/dfa/Compiler_8cpp.html" target="_top" xlink:title=" ">
<polygon fill="white" stroke="black" points="407.58,-234.5 407.58,-286.5 549.58,-286.5 549.58,-234.5 407.58,-234.5"/>
<text text-anchor="start" x="415.58" y="-274.5" font-family="Helvetica,sans-Serif" font-size="10.00">C:/Users/folae/Documents</text>
<text text-anchor="start" x="415.58" y="-263.5" font-family="Helvetica,sans-Serif" font-size="10.00">/Code/Big&#45;Projects/ArkScript</text>
<text text-anchor="start" x="415.58" y="-252.5" font-family="Helvetica,sans-Serif" font-size="10.00">/Ark/src/arkreactor/Compiler</text>
<text text-anchor="middle" x="478.58" y="-241.5" font-family="Helvetica,sans-Serif" font-size="10.00">/Compiler.cpp</text>
</a>
</g>
</g>
<!-- Node3&#45;&gt;Node12 -->
<g id="edge12" class="edge">
<title>Node3&#45;&gt;Node12</title>
<path fill="none" stroke="midnightblue" d="M154.68,-411.79C189.27,-386.62 245.04,-348.43 297.58,-323 332.53,-306.08 373.34,-291.78 407.35,-281.24"/>
<polygon fill="midnightblue" stroke="midnightblue" points="152.35,-409.16 146.36,-417.9 156.49,-414.8 152.35,-409.16"/>
</g>
<!-- Node13 -->
<g id="node13" class="node">
<title>Node13</title>
<g id="a_node13"><a xlink:href="../../d6/d69/Processor_8cpp.html" target="_top" xlink:title=" ">
<polygon fill="white" stroke="black" points="306.58,-323.5 306.58,-375.5 448.58,-375.5 448.58,-323.5 306.58,-323.5"/>
<text text-anchor="start" x="314.58" y="-363.5" font-family="Helvetica,sans-Serif" font-size="10.00">C:/Users/folae/Documents</text>
<text text-anchor="start" x="314.58" y="-352.5" font-family="Helvetica,sans-Serif" font-size="10.00">/Code/Big&#45;Projects/ArkScript</text>
<text text-anchor="start" x="314.58" y="-341.5" font-family="Helvetica,sans-Serif" font-size="10.00">/Ark/src/arkreactor/Compiler</text>
<text text-anchor="middle" x="377.58" y="-330.5" font-family="Helvetica,sans-Serif" font-size="10.00">/Macros/Processor.cpp</text>
</a>
</g>
</g>
<!-- Node3&#45;&gt;Node13 -->
<g id="edge13" class="edge">
<title>Node3&#45;&gt;Node13</title>
<path fill="none" stroke="midnightblue" d="M187.81,-414.74C224.25,-402.4 269.28,-387.16 306.33,-374.62"/>
<polygon fill="midnightblue" stroke="midnightblue" points="186.6,-411.45 178.25,-417.98 188.85,-418.08 186.6,-411.45"/>
</g>
<!-- Node5 -->
<g id="node5" class="node">
<title>Node5</title>
<g id="a_node5"><a xlink:href="../../d3/d7e/Ark_8hpp.html" target="_top" xlink:title="Includes the needed files to start using ArkScript.">
<polygon fill="white" stroke="black" points="725.58,-78.5 725.58,-119.5 867.58,-119.5 867.58,-78.5 725.58,-78.5"/>
<text text-anchor="start" x="733.58" y="-107.5" font-family="Helvetica,sans-Serif" font-size="10.00">C:/Users/folae/Documents</text>
<text text-anchor="start" x="733.58" y="-96.5" font-family="Helvetica,sans-Serif" font-size="10.00">/Code/Big&#45;Projects/ArkScript</text>
<text text-anchor="middle" x="796.58" y="-85.5" font-family="Helvetica,sans-Serif" font-size="10.00">/Ark/include/Ark/Ark.hpp</text>
</a>
</g>
</g>
<!-- Node4&#45;&gt;Node5 -->
<g id="edge4" class="edge">
<title>Node4&#45;&gt;Node5</title>
<path fill="none" stroke="midnightblue" d="M1155.89,-156.06C1155.78,-156.04 1155.68,-156.02 1155.58,-156 1032.69,-132.98 999.43,-143.2 876.58,-120 873.62,-119.44 870.62,-118.84 867.58,-118.21"/>
<polygon fill="midnightblue" stroke="midnightblue" points="1155.07,-159.46 1165.56,-157.98 1156.43,-152.6 1155.07,-159.46"/>
</g>
<!-- Node8 -->
<g id="node8" class="node">
<title>Node8</title>
<g id="a_node8"><a xlink:href="../../d5/da5/Repl_8hpp.html" target="_top" xlink:title="ArkScript REPL &#45; Read Eval Print Loop.">
<polygon fill="white" stroke="black" points="885.58,-78.5 885.58,-119.5 1041.58,-119.5 1041.58,-78.5 885.58,-78.5"/>
<text text-anchor="start" x="893.58" y="-107.5" font-family="Helvetica,sans-Serif" font-size="10.00">C:/Users/folae/Documents</text>
<text text-anchor="start" x="893.58" y="-96.5" font-family="Helvetica,sans-Serif" font-size="10.00">/Code/Big&#45;Projects/ArkScript</text>
<text text-anchor="middle" x="963.58" y="-85.5" font-family="Helvetica,sans-Serif" font-size="10.00">/Ark/include/Ark/REPL/Repl.hpp</text>
</a>
</g>
</g>
<!-- Node4&#45;&gt;Node8 -->
<g id="edge7" class="edge">
<title>Node4&#45;&gt;Node8</title>
<path fill="none" stroke="midnightblue" d="M1156.54,-153.72C1117.59,-142.87 1071.18,-129.96 1033.64,-119.51"/>
<polygon fill="midnightblue" stroke="midnightblue" points="1155.7,-157.12 1166.27,-156.43 1157.58,-150.37 1155.7,-157.12"/>
</g>
<!-- Node10 -->
<g id="node10" class="node">
<title>Node10</title>
<g id="a_node10"><a xlink:href="../../d2/d27/VM_8cpp.html" target="_top" xlink:title=" ">
<polygon fill="white" stroke="black" points="1214.58,-78.5 1214.58,-119.5 1366.58,-119.5 1366.58,-78.5 1214.58,-78.5"/>
<text text-anchor="start" x="1222.58" y="-107.5" font-family="Helvetica,sans-Serif" font-size="10.00">C:/Users/folae/Documents</text>
<text text-anchor="start" x="1222.58" y="-96.5" font-family="Helvetica,sans-Serif" font-size="10.00">/Code/Big&#45;Projects/ArkScript</text>
<text text-anchor="middle" x="1290.58" y="-85.5" font-family="Helvetica,sans-Serif" font-size="10.00">/Ark/src/arkreactor/VM/VM.cpp</text>
</a>
</g>
</g>
<!-- Node4&#45;&gt;Node10 -->
<g id="edge10" class="edge">
<title>Node4&#45;&gt;Node10</title>
<path fill="none" stroke="midnightblue" d="M1256.44,-148.05C1263.18,-138.57 1270.55,-128.18 1276.72,-119.51"/>
<polygon fill="midnightblue" stroke="midnightblue" points="1253.42,-146.25 1250.48,-156.43 1259.13,-150.3 1253.42,-146.25"/>
</g>
<!-- Node6 -->
<g id="node6" class="node">
<title>Node6</title>
<g id="a_node6"><a xlink:href="../../dc/d32/Ark_8cpp.html" target="_top" xlink:title=" ">
<polygon fill="white" stroke="black" points="645.58,-0.5 645.58,-41.5 787.58,-41.5 787.58,-0.5 645.58,-0.5"/>
<text text-anchor="start" x="653.58" y="-29.5" font-family="Helvetica,sans-Serif" font-size="10.00">C:/Users/folae/Documents</text>
<text text-anchor="start" x="653.58" y="-18.5" font-family="Helvetica,sans-Serif" font-size="10.00">/Code/Big&#45;Projects/ArkScript</text>
<text text-anchor="middle" x="716.58" y="-7.5" font-family="Helvetica,sans-Serif" font-size="10.00">/Ark/src/arkreactor/Ark.cpp</text>
</a>
</g>
</g>
<!-- Node5&#45;&gt;Node6 -->
<g id="edge5" class="edge">
<title>Node5&#45;&gt;Node6</title>
<path fill="none" stroke="midnightblue" d="M768.67,-71.49C758.29,-61.63 746.71,-50.63 737.11,-41.51"/>
<polygon fill="midnightblue" stroke="midnightblue" points="766.32,-74.08 775.98,-78.43 771.14,-69 766.32,-74.08"/>
</g>
<!-- Node7 -->
<g id="node7" class="node">
<title>Node7</title>
<g id="a_node7"><a xlink:href="../../df/d0a/main_8cpp.html" target="_top" xlink:title=" ">
<polygon fill="white" stroke="black" points="805.58,-0.5 805.58,-41.5 947.58,-41.5 947.58,-0.5 805.58,-0.5"/>
<text text-anchor="start" x="813.58" y="-29.5" font-family="Helvetica,sans-Serif" font-size="10.00">C:/Users/folae/Documents</text>
<text text-anchor="start" x="813.58" y="-18.5" font-family="Helvetica,sans-Serif" font-size="10.00">/Code/Big&#45;Projects/ArkScript</text>
<text text-anchor="middle" x="876.58" y="-7.5" font-family="Helvetica,sans-Serif" font-size="10.00">/Ark/src/arkscript/main.cpp</text>
</a>
</g>
</g>
<!-- Node5&#45;&gt;Node7 -->
<g id="edge6" class="edge">
<title>Node5&#45;&gt;Node7</title>
<path fill="none" stroke="midnightblue" d="M824.48,-71.49C834.86,-61.63 846.44,-50.63 856.05,-41.51"/>
<polygon fill="midnightblue" stroke="midnightblue" points="822.02,-69 817.18,-78.43 826.84,-74.08 822.02,-69"/>
</g>
<!-- Node8&#45;&gt;Node7 -->
<g id="edge9" class="edge">
<title>Node8&#45;&gt;Node7</title>
<path fill="none" stroke="midnightblue" d="M933.56,-71.78C922.19,-61.84 909.45,-50.72 898.91,-41.51"/>
<polygon fill="midnightblue" stroke="midnightblue" points="931.34,-74.49 941.17,-78.43 935.94,-69.21 931.34,-74.49"/>
</g>
<!-- Node9 -->
<g id="node9" class="node">
<title>Node9</title>
<g id="a_node9"><a xlink:href="../../d7/d46/Repl_8cpp.html" target="_top" xlink:title=" ">
<polygon fill="white" stroke="black" points="966.08,-0.5 966.08,-41.5 1127.08,-41.5 1127.08,-0.5 966.08,-0.5"/>
<text text-anchor="start" x="974.08" y="-29.5" font-family="Helvetica,sans-Serif" font-size="10.00">C:/Users/folae/Documents</text>
<text text-anchor="start" x="974.08" y="-18.5" font-family="Helvetica,sans-Serif" font-size="10.00">/Code/Big&#45;Projects/ArkScript</text>
<text text-anchor="middle" x="1046.58" y="-7.5" font-family="Helvetica,sans-Serif" font-size="10.00">/Ark/src/arkscript/REPL/Repl.cpp</text>
</a>
</g>
</g>
<!-- Node8&#45;&gt;Node9 -->
<g id="edge8" class="edge">
<title>Node8&#45;&gt;Node9</title>
<path fill="none" stroke="midnightblue" d="M992.53,-71.49C1003.3,-61.63 1015.31,-50.63 1025.28,-41.51"/>
<polygon fill="midnightblue" stroke="midnightblue" points="989.96,-69.09 984.95,-78.43 994.69,-74.26 989.96,-69.09"/>
</g>
<!-- Node14&#45;&gt;Node3 -->
<g id="edge16" class="edge">
<title>Node14&#45;&gt;Node3</title>
<path fill="none" stroke="midnightblue" d="M406.81,-504.49C352.08,-493.97 280.56,-479.61 217.58,-465 209.61,-463.15 201.29,-461.12 193.03,-459.04"/>
<polygon fill="midnightblue" stroke="midnightblue" points="406.35,-507.96 416.83,-506.4 407.66,-501.09 406.35,-507.96"/>
</g>
<!-- Node14&#45;&gt;Node5 -->
<g id="edge15" class="edge">
<title>Node14&#45;&gt;Node5</title>
<path fill="none" stroke="midnightblue" d="M406.76,-516.16C277.71,-508.28 50.73,-490.92 23.58,-465 -13.73,-429.38 4.58,-402.08 4.58,-350.5 4.58,-350.5 4.58,-350.5 4.58,-259.5 4.58,-113.19 530.57,-99.42 725.25,-99.33"/>
<polygon fill="midnightblue" stroke="midnightblue" points="406.83,-519.67 417.02,-516.78 407.25,-512.68 406.83,-519.67"/>
</g>
<!-- Node14&#45;&gt;Node13 -->
<g id="edge30" class="edge">
<title>Node14&#45;&gt;Node13</title>
<path fill="none" stroke="midnightblue" d="M449.19,-495.92C436.89,-487.45 424.55,-477.04 415.58,-465 395.68,-438.29 385.84,-400.59 381.24,-375.86"/>
<polygon fill="midnightblue" stroke="midnightblue" points="447.37,-498.92 457.66,-501.47 451.21,-493.06 447.37,-498.92"/>
</g>
<!-- Node15 -->
<g id="node15" class="node">
<title>Node15</title>
<g id="a_node15"><a xlink:href="../../db/d93/Optimizer_8hpp.html" target="_top" xlink:title="Optimizes a given ArkScript AST.">
<polygon fill="white" stroke="black" points="745.08,-412.5 745.08,-464.5 894.08,-464.5 894.08,-412.5 745.08,-412.5"/>
<text text-anchor="start" x="753.08" y="-452.5" font-family="Helvetica,sans-Serif" font-size="10.00">C:/Users/folae/Documents</text>
<text text-anchor="start" x="753.08" y="-441.5" font-family="Helvetica,sans-Serif" font-size="10.00">/Code/Big&#45;Projects/ArkScript</text>
<text text-anchor="start" x="753.08" y="-430.5" font-family="Helvetica,sans-Serif" font-size="10.00">/Ark/include/Ark/Compiler/AST</text>
<text text-anchor="middle" x="819.58" y="-419.5" font-family="Helvetica,sans-Serif" font-size="10.00">/Optimizer.hpp</text>
</a>
</g>
</g>
<!-- Node14&#45;&gt;Node15 -->
<g id="edge17" class="edge">
<title>Node14&#45;&gt;Node15</title>
<path fill="none" stroke="midnightblue" d="M584.09,-501.8C629.55,-491.58 685.72,-478.37 735.58,-465 738.67,-464.17 741.82,-463.31 745,-462.42"/>
<polygon fill="midnightblue" stroke="midnightblue" points="583.26,-498.4 574.27,-504 584.79,-505.23 583.26,-498.4"/>
</g>
<!-- Node20 -->
<g id="node20" class="node">
<title>Node20</title>
<g id="a_node20"><a xlink:href="../../d2/d15/Lexer_8cpp.html" target="_top" xlink:title=" ">
<polygon fill="white" stroke="black" points="424.58,-412.5 424.58,-464.5 566.58,-464.5 566.58,-412.5 424.58,-412.5"/>
<text text-anchor="start" x="432.58" y="-452.5" font-family="Helvetica,sans-Serif" font-size="10.00">C:/Users/folae/Documents</text>
<text text-anchor="start" x="432.58" y="-441.5" font-family="Helvetica,sans-Serif" font-size="10.00">/Code/Big&#45;Projects/ArkScript</text>
<text text-anchor="start" x="432.58" y="-430.5" font-family="Helvetica,sans-Serif" font-size="10.00">/Ark/src/arkreactor/Compiler</text>
<text text-anchor="middle" x="495.58" y="-419.5" font-family="Helvetica,sans-Serif" font-size="10.00">/AST/Lexer.cpp</text>
</a>
</g>
</g>
<!-- Node14&#45;&gt;Node20 -->
<g id="edge27" class="edge">
<title>Node14&#45;&gt;Node20</title>
<path fill="none" stroke="midnightblue" d="M495.58,-491.12C495.58,-482.41 495.58,-472.99 495.58,-464.61"/>
<polygon fill="midnightblue" stroke="midnightblue" points="492.08,-491.27 495.58,-501.27 499.08,-491.27 492.08,-491.27"/>
</g>
<!-- Node21 -->
<g id="node21" class="node">
<title>Node21</title>
<g id="a_node21"><a xlink:href="../../dc/d73/Node_8cpp.html" target="_top" xlink:title=" ">
<polygon fill="white" stroke="black" points="584.58,-412.5 584.58,-464.5 726.58,-464.5 726.58,-412.5 584.58,-412.5"/>
<text text-anchor="start" x="592.58" y="-452.5" font-family="Helvetica,sans-Serif" font-size="10.00">C:/Users/folae/Documents</text>
<text text-anchor="start" x="592.58" y="-441.5" font-family="Helvetica,sans-Serif" font-size="10.00">/Code/Big&#45;Projects/ArkScript</text>
<text text-anchor="start" x="592.58" y="-430.5" font-family="Helvetica,sans-Serif" font-size="10.00">/Ark/src/arkreactor/Compiler</text>
<text text-anchor="middle" x="655.58" y="-419.5" font-family="Helvetica,sans-Serif" font-size="10.00">/AST/Node.cpp</text>
</a>
</g>
</g>
<!-- Node14&#45;&gt;Node21 -->
<g id="edge28" class="edge">
<title>Node14&#45;&gt;Node21</title>
<path fill="none" stroke="midnightblue" d="M542.84,-496.93C562.84,-486.74 586.14,-474.87 606.35,-464.58"/>
<polygon fill="midnightblue" stroke="midnightblue" points="541.22,-493.82 533.9,-501.48 544.4,-500.06 541.22,-493.82"/>
</g>
<!-- Node22 -->
<g id="node22" class="node">
<title>Node22</title>
<g id="a_node22"><a xlink:href="../../dc/df5/Parser_8cpp.html" target="_top" xlink:title=" ">
<polygon fill="white" stroke="black" points="226.58,-412.5 226.58,-464.5 368.58,-464.5 368.58,-412.5 226.58,-412.5"/>
<text text-anchor="start" x="234.58" y="-452.5" font-family="Helvetica,sans-Serif" font-size="10.00">C:/Users/folae/Documents</text>
<text text-anchor="start" x="234.58" y="-441.5" font-family="Helvetica,sans-Serif" font-size="10.00">/Code/Big&#45;Projects/ArkScript</text>
<text text-anchor="start" x="234.58" y="-430.5" font-family="Helvetica,sans-Serif" font-size="10.00">/Ark/src/arkreactor/Compiler</text>
<text text-anchor="middle" x="297.58" y="-419.5" font-family="Helvetica,sans-Serif" font-size="10.00">/AST/Parser.cpp</text>
</a>
</g>
</g>
<!-- Node14&#45;&gt;Node22 -->
<g id="edge29" class="edge">
<title>Node14&#45;&gt;Node22</title>
<path fill="none" stroke="midnightblue" d="M438.76,-497.61C413.65,-487.28 384.07,-475.1 358.5,-464.58"/>
<polygon fill="midnightblue" stroke="midnightblue" points="437.57,-500.91 448.15,-501.48 440.24,-494.44 437.57,-500.91"/>
</g>
<!-- Node23 -->
<g id="node23" class="node">
<title>Node23</title>
<g id="a_node23"><a xlink:href="../../d6/d9a/TypeChecker_8cpp.html" target="_top" xlink:title=" ">
<polygon fill="white" stroke="black" points="912.58,-418 912.58,-459 1088.58,-459 1088.58,-418 912.58,-418"/>
<text text-anchor="start" x="920.58" y="-447" font-family="Helvetica,sans-Serif" font-size="10.00">C:/Users/folae/Documents</text>
<text text-anchor="start" x="920.58" y="-436" font-family="Helvetica,sans-Serif" font-size="10.00">/Code/Big&#45;Projects/ArkScript</text>
<text text-anchor="middle" x="1000.58" y="-425" font-family="Helvetica,sans-Serif" font-size="10.00">/Ark/src/arkreactor/TypeChecker.cpp</text>
</a>
</g>
</g>
<!-- Node14&#45;&gt;Node23 -->
<g id="edge31" class="edge">
<title>Node14&#45;&gt;Node23</title>
<path fill="none" stroke="midnightblue" d="M584.57,-511.81C667.36,-502.54 793.94,-486.53 902.58,-465 911.37,-463.26 920.55,-461.2 929.62,-459.01"/>
<polygon fill="midnightblue" stroke="midnightblue" points="583.99,-508.36 574.44,-512.94 584.76,-515.31 583.99,-508.36"/>
</g>
<!-- Node16 -->
<g id="node16" class="node">
<title>Node16</title>
<g id="a_node16"><a xlink:href="../../d8/d0f/Compiler_8hpp.html" target="_top" xlink:title="ArkScript compiler is in charge of transforming the AST into bytecode.">
<polygon fill="white" stroke="black" points="702.58,-329 702.58,-370 890.58,-370 890.58,-329 702.58,-329"/>
<text text-anchor="start" x="710.58" y="-358" font-family="Helvetica,sans-Serif" font-size="10.00">C:/Users/folae/Documents</text>
<text text-anchor="start" x="710.58" y="-347" font-family="Helvetica,sans-Serif" font-size="10.00">/Code/Big&#45;Projects/ArkScript</text>
<text text-anchor="middle" x="796.58" y="-336" font-family="Helvetica,sans-Serif" font-size="10.00">/Ark/include/Ark/Compiler/Compiler.hpp</text>
</a>
</g>
</g>
<!-- Node15&#45;&gt;Node16 -->
<g id="edge18" class="edge">
<title>Node15&#45;&gt;Node16</title>
<path fill="none" stroke="midnightblue" d="M810.32,-402.49C807.4,-391.45 804.28,-379.65 801.75,-370.08"/>
<polygon fill="midnightblue" stroke="midnightblue" points="806.99,-403.56 812.93,-412.34 813.75,-401.77 806.99,-403.56"/>
</g>
<!-- Node19 -->
<g id="node19" class="node">
<title>Node19</title>
<g id="a_node19"><a xlink:href="../../d2/dc5/Optimizer_8cpp.html" target="_top" xlink:title=" ">
<polygon fill="white" stroke="black" points="946.58,-323.5 946.58,-375.5 1088.58,-375.5 1088.58,-323.5 946.58,-323.5"/>
<text text-anchor="start" x="954.58" y="-363.5" font-family="Helvetica,sans-Serif" font-size="10.00">C:/Users/folae/Documents</text>
<text text-anchor="start" x="954.58" y="-352.5" font-family="Helvetica,sans-Serif" font-size="10.00">/Code/Big&#45;Projects/ArkScript</text>
<text text-anchor="start" x="954.58" y="-341.5" font-family="Helvetica,sans-Serif" font-size="10.00">/Ark/src/arkreactor/Compiler</text>
<text text-anchor="middle" x="1017.58" y="-330.5" font-family="Helvetica,sans-Serif" font-size="10.00">/AST/Optimizer.cpp</text>
</a>
</g>
</g>
<!-- Node15&#45;&gt;Node19 -->
<g id="edge26" class="edge">
<title>Node15&#45;&gt;Node19</title>
<path fill="none" stroke="midnightblue" d="M886.05,-408.29C910.24,-397.67 937.34,-385.76 960.63,-375.52"/>
<polygon fill="midnightblue" stroke="midnightblue" points="884.33,-405.23 876.58,-412.45 887.15,-411.63 884.33,-405.23"/>
</g>
<!-- Node16&#45;&gt;Node5 -->
<g id="edge19" class="edge">
<title>Node16&#45;&gt;Node5</title>
<path fill="none" stroke="midnightblue" d="M796.58,-318.42C796.58,-266.86 796.58,-162.98 796.58,-119.67"/>
<polygon fill="midnightblue" stroke="midnightblue" points="793.08,-318.58 796.58,-328.58 800.08,-318.58 793.08,-318.58"/>
</g>
<!-- Node16&#45;&gt;Node8 -->
<g id="edge20" class="edge">
<title>Node16&#45;&gt;Node8</title>
<path fill="none" stroke="midnightblue" d="M815.72,-320.02C849.98,-269.04 920.95,-163.43 950.36,-119.67"/>
<polygon fill="midnightblue" stroke="midnightblue" points="812.63,-318.33 809.96,-328.58 818.44,-322.24 812.63,-318.33"/>
</g>
<!-- Node16&#45;&gt;Node12 -->
<g id="edge25" class="edge">
<title>Node16&#45;&gt;Node12</title>
<path fill="none" stroke="midnightblue" d="M715.5,-326.32C664.33,-312.32 598.85,-294.41 549.71,-280.96"/>
<polygon fill="midnightblue" stroke="midnightblue" points="714.64,-329.71 725.21,-328.98 716.49,-322.96 714.64,-329.71"/>
</g>
<!-- Node16&#45;&gt;Node17 -->
<g id="edge21" class="edge">
<title>Node16&#45;&gt;Node17</title>
<path fill="none" stroke="midnightblue" d="M856.67,-325.37C892.52,-311.57 937.54,-294.23 971.64,-281.11"/>
<polygon fill="midnightblue" stroke="midnightblue" points="855.37,-322.12 847.3,-328.98 857.89,-328.65 855.37,-322.12"/>
</g>
<!-- Node17&#45;&gt;Node4 -->
<g id="edge23" class="edge">
<title>Node17&#45;&gt;Node4</title>
<path fill="none" stroke="midnightblue" d="M1083.58,-236.27C1115.76,-224.01 1154.78,-209.15 1185.37,-197.5"/>
<polygon fill="midnightblue" stroke="midnightblue" points="1081.94,-233.15 1073.84,-239.98 1084.43,-239.69 1081.94,-233.15"/>
</g>
<!-- Node17&#45;&gt;Node8 -->
<g id="edge22" class="edge">
<title>Node17&#45;&gt;Node8</title>
<path fill="none" stroke="midnightblue" d="M997.19,-231.86C989.35,-221.87 981.49,-210.06 976.58,-198 966.08,-172.25 963.66,-139.85 963.3,-119.52"/>
<polygon fill="midnightblue" stroke="midnightblue" points="994.66,-234.29 1003.71,-239.79 1000.07,-229.84 994.66,-234.29"/>
</g>
<!-- Node18 -->
<g id="node18" class="node">
<title>Node18</title>
<g id="a_node18"><a xlink:href="../../d0/da0/State_8cpp.html" target="_top" xlink:title=" ">
<polygon fill="white" stroke="black" points="986.08,-156.5 986.08,-197.5 1147.08,-197.5 1147.08,-156.5 986.08,-156.5"/>
<text text-anchor="start" x="994.08" y="-185.5" font-family="Helvetica,sans-Serif" font-size="10.00">C:/Users/folae/Documents</text>
<text text-anchor="start" x="994.08" y="-174.5" font-family="Helvetica,sans-Serif" font-size="10.00">/Code/Big&#45;Projects/ArkScript</text>
<text text-anchor="middle" x="1066.58" y="-163.5" font-family="Helvetica,sans-Serif" font-size="10.00">/Ark/src/arkreactor/VM/State.cpp</text>
</a>
</g>
</g>
<!-- Node17&#45;&gt;Node18 -->
<g id="edge24" class="edge">
<title>Node17&#45;&gt;Node18</title>
<path fill="none" stroke="midnightblue" d="M1038.02,-230.89C1043.98,-219.87 1050.64,-207.53 1056.02,-197.55"/>
<polygon fill="midnightblue" stroke="midnightblue" points="1034.9,-229.31 1033.23,-239.77 1041.06,-232.63 1034.9,-229.31"/>
</g>
<!-- Node24&#45;&gt;Node5 -->
<g id="edge33" class="edge">
<title>Node24&#45;&gt;Node5</title>
<path fill="none" stroke="midnightblue" d="M1095.2,-491.88C1112.66,-449.74 1136.34,-371.52 1097.58,-323 1052.35,-266.39 999.5,-326.22 938.58,-287 871.91,-244.08 824.58,-158.43 805.68,-119.76"/>
<polygon fill="midnightblue" stroke="midnightblue" points="1091.89,-490.71 1091.15,-501.28 1098.32,-493.48 1091.89,-490.71"/>
</g>
<!-- Node24&#45;&gt;Node10 -->
<g id="edge35" class="edge">
<title>Node24&#45;&gt;Node10</title>
<path fill="none" stroke="midnightblue" d="M1110.77,-494.39C1164.38,-443.27 1276.68,-325.07 1316.58,-198 1322.17,-180.19 1320.6,-174.23 1316.58,-156 1313.78,-143.34 1307.82,-130.13 1302.31,-119.73"/>
<polygon fill="midnightblue" stroke="midnightblue" points="1108.17,-492.03 1103.3,-501.44 1112.98,-497.12 1108.17,-492.03"/>
</g>
<!-- Node24&#45;&gt;Node23 -->
<g id="edge34" class="edge">
<title>Node24&#45;&gt;Node23</title>
<path fill="none" stroke="midnightblue" d="M1054.78,-494.04C1043.42,-482.6 1030.42,-469.53 1020.01,-459.05"/>
<polygon fill="midnightblue" stroke="midnightblue" points="1052.44,-496.65 1061.97,-501.27 1057.4,-491.71 1052.44,-496.65"/>
</g>
<!-- Node25&#45;&gt;Node4 -->
<g id="edge37" class="edge">
<title>Node25&#45;&gt;Node4</title>
<path fill="none" stroke="midnightblue" d="M1346.86,-408.79C1321.47,-355.65 1267.75,-243.23 1246.01,-197.73"/>
<polygon fill="midnightblue" stroke="midnightblue" points="1343.79,-410.48 1351.26,-418 1350.1,-407.46 1343.79,-410.48"/>
</g>
<!-- Node26&#45;&gt;Node4 -->
<g id="edge40" class="edge">
<title>Node26&#45;&gt;Node4</title>
<path fill="none" stroke="midnightblue" d="M1467.33,-491.98C1475.32,-469.41 1482.27,-437.73 1471.58,-412 1430.05,-312.04 1322.78,-232.7 1268.72,-197.6"/>
<polygon fill="midnightblue" stroke="midnightblue" points="1464.05,-490.76 1463.76,-501.35 1470.59,-493.24 1464.05,-490.76"/>
</g>
<!-- Node26&#45;&gt;Node25 -->
<g id="edge39" class="edge">
<title>Node26&#45;&gt;Node25</title>
<path fill="none" stroke="midnightblue" d="M1424.23,-494.69C1410.87,-483.1 1395.44,-469.73 1383.12,-459.05"/>
<polygon fill="midnightblue" stroke="midnightblue" points="1421.97,-497.36 1431.82,-501.27 1426.56,-492.08 1421.97,-497.36"/>
</g>
<!-- Node27 -->
<g id="node27" class="node">
<title>Node27</title>
<g id="a_node27"><a xlink:href="../../d5/d04/Scope_8cpp.html" target="_top" xlink:title=" ">
<polygon fill="white" stroke="black" points="1519.08,-418 1519.08,-459 1684.08,-459 1684.08,-418 1519.08,-418"/>
<text text-anchor="start" x="1527.08" y="-447" font-family="Helvetica,sans-Serif" font-size="10.00">C:/Users/folae/Documents</text>
<text text-anchor="start" x="1527.08" y="-436" font-family="Helvetica,sans-Serif" font-size="10.00">/Code/Big&#45;Projects/ArkScript</text>
<text text-anchor="middle" x="1601.58" y="-425" font-family="Helvetica,sans-Serif" font-size="10.00">/Ark/src/arkreactor/VM/Scope.cpp</text>
</a>
</g>
</g>
<!-- Node26&#45;&gt;Node27 -->
<g id="edge41" class="edge">
<title>Node26&#45;&gt;Node27</title>
<path fill="none" stroke="midnightblue" d="M1498.79,-496.49C1520.43,-484.49 1546.12,-470.25 1566.4,-459"/>
<polygon fill="midnightblue" stroke="midnightblue" points="1496.84,-493.57 1489.79,-501.48 1500.23,-499.69 1496.84,-493.57"/>
</g>
<!-- Node28 -->
<g id="node28" class="node">
<title>Node28</title>
<g id="a_node28"><a xlink:href="../../d1/db2/Closure_8cpp.html" target="_top" xlink:title=" ">
<polygon fill="white" stroke="black" points="1702.08,-412.5 1702.08,-464.5 1845.08,-464.5 1845.08,-412.5 1702.08,-412.5"/>
<text text-anchor="start" x="1710.08" y="-452.5" font-family="Helvetica,sans-Serif" font-size="10.00">C:/Users/folae/Documents</text>
<text text-anchor="start" x="1710.08" y="-441.5" font-family="Helvetica,sans-Serif" font-size="10.00">/Code/Big&#45;Projects/ArkScript</text>
<text text-anchor="start" x="1710.08" y="-430.5" font-family="Helvetica,sans-Serif" font-size="10.00">/Ark/src/arkreactor/VM/Value</text>
<text text-anchor="middle" x="1773.58" y="-419.5" font-family="Helvetica,sans-Serif" font-size="10.00">/Closure.cpp</text>
</a>
</g>
</g>
<!-- Node26&#45;&gt;Node28 -->
<g id="edge42" class="edge">
<title>Node26&#45;&gt;Node28</title>
<path fill="none" stroke="midnightblue" d="M1541.85,-500.64C1608.54,-485.06 1689.73,-466.06 1693.58,-465 1696.25,-464.26 1698.96,-463.49 1701.7,-462.7"/>
<polygon fill="midnightblue" stroke="midnightblue" points="1540.64,-497.32 1531.7,-503 1542.24,-504.14 1540.64,-497.32"/>
</g>
</g>
</svg>
        <g id="navigator" transform="translate(0 0)" fill="#404254">
                <rect fill="#f2f5e9" fill-opacity="0.5" stroke="#606060" stroke-width=".5" x="0" y="0" width="60" height="60"/>
                <use id="zoomplus" xlink:href="#zoomPlus" x="17" y="9" onmousedown="handleZoom(evt,'in')"/>
                <use id="zoomminus" xlink:href="#zoomMin" x="42" y="9" onmousedown="handleZoom(evt,'out')"/>
                <use id="reset" xlink:href="#resetDef" x="30" y="36" onmousedown="handleReset()"/>
                <g id="arrowUp" xlink:href="#dirArrow" transform="translate(30 24)" onmousedown="handlePan(0,-1)">
                  <use xlink:href="#rim" fill="#404040">
                        <set attributeName="fill" to="#808080" begin="arrowUp.mouseover" end="arrowUp.mouseout"/>
                  </use>
                  <path fill="none" stroke="white" stroke-width="1.5" d="M0,-3.0v7 M-2.5,-0.5L0,-3.0L2.5,-0.5"/>
                </g>
                <g id="arrowRight" xlink:href="#dirArrow" transform="rotate(90) translate(36 -43)" onmousedown="handlePan(1,0)">
                  <use xlink:href="#rim" fill="#404040">
                        <set attributeName="fill" to="#808080" begin="arrowRight.mouseover" end="arrowRight.mouseout"/>
                  </use>
                  <path fill="none" stroke="white" stroke-width="1.5" d="M0,-3.0v7 M-2.5,-0.5L0,-3.0L2.5,-0.5"/>
                </g>
                <g id="arrowDown" xlink:href="#dirArrow" transform="rotate(180) translate(-30 -48)" onmousedown="handlePan(0,1)">
                  <use xlink:href="#rim" fill="#404040">
                        <set attributeName="fill" to="#808080" begin="arrowDown.mouseover" end="arrowDown.mouseout"/>
                  </use>
                  <path fill="none" stroke="white" stroke-width="1.5" d="M0,-3.0v7 M-2.5,-0.5L0,-3.0L2.5,-0.5"/>
                </g>
                <g id="arrowLeft" xlink:href="#dirArrow" transform="rotate(270) translate(-36 17)" onmousedown="handlePan(-1,0)">
                  <use xlink:href="#rim" fill="#404040">
                        <set attributeName="fill" to="#808080" begin="arrowLeft.mouseover" end="arrowLeft.mouseout"/>
                  </use>
                  <path fill="none" stroke="white" stroke-width="1.5" d="M0,-3.0v7 M-2.5,-0.5L0,-3.0L2.5,-0.5"/>
                </g>
        </g>
        <svg viewBox="0 0 15 15" width="100%" height="30px" preserveAspectRatio="xMaxYMin meet">
         <g id="arrow_out" transform="scale(0.3 0.3)">
          <a xlink:href="UserType_8hpp__dep__incl_org.svg" target="_base">
           <rect id="button" ry="5" rx="5" y="6" x="6" height="38" width="38"
                fill="#f2f5e9" fill-opacity="0.5" stroke="#606060" stroke-width="1.0"/>
           <path id="arrow"
             d="M 11.500037,31.436501 C 11.940474,20.09759 22.043105,11.32322 32.158766,21.979434 L 37.068811,17.246167 C 37.068811,17.246167 37.088388,32 37.088388,32 L 22.160133,31.978069 C 22.160133,31.978069 26.997745,27.140456 26.997745,27.140456 C 18.528582,18.264221 13.291696,25.230495 11.500037,31.436501 z"
             style="fill:#404040;"/>
          </a>
         </g>
        </svg>
</svg>
