<?xml version="1.0" encoding="UTF-8" standalone="no"?>
<!DOCTYPE svg PUBLIC "-//W3C//DTD SVG 1.1//EN"
 "http://www.w3.org/Graphics/SVG/1.1/DTD/svg11.dtd">
<!-- Generated by graphviz version 7.1.0 (20230121.1956)
 -->
<!-- Title: /Users/fola/Documents/ArkScript/Ark/src/arkreactor/Compiler/ValTableElem.cpp Pages: 1 -->
<svg width="465pt" height="269pt"
 viewBox="0.00 0.00 464.50 269.00" xmlns="http://www.w3.org/2000/svg" xmlns:xlink="http://www.w3.org/1999/xlink">
<g id="graph0" class="graph" transform="scale(1 1) rotate(0) translate(4 265)">
<title>/Users/fola/Documents/ArkScript/Ark/src/arkreactor/Compiler/ValTableElem.cpp</title>
<!-- Node1 -->
<g id="node1" class="node">
<title>Node1</title>
<g id="a_node1"><a xlink:title=" ">
<polygon fill="#999999" stroke="#666666" points="148,-261 7,-261 7,-220 148,-220 148,-261"/>
<text text-anchor="start" x="15" y="-249" font-family="Helvetica,sans-Serif" font-size="10.00">/Users/fola/Documents</text>
<text text-anchor="start" x="15" y="-238" font-family="Helvetica,sans-Serif" font-size="10.00">/ArkScript/Ark/src/arkreactor</text>
<text text-anchor="middle" x="77.5" y="-227" font-family="Helvetica,sans-Serif" font-size="10.00">/Compiler/ValTableElem.cpp</text>
</a>
</g>
</g>
<!-- Node2 -->
<g id="node2" class="node">
<title>Node2</title>
<g id="a_node2"><a xlink:href="../../dd/de7/ValTableElem_8hpp.html" target="_top" xlink:title="The basic value type handled by the compiler.">
<polygon fill="white" stroke="#666666" points="155,-184 0,-184 0,-165 155,-165 155,-184"/>
<text text-anchor="middle" x="77.5" y="-172" font-family="Helvetica,sans-Serif" font-size="10.00">Ark/Compiler/ValTableElem.hpp</text>
</a>
</g>
</g>
<!-- Node1&#45;&gt;Node2 -->
<g id="edge1" class="edge">
<title>Node1&#45;&gt;Node2</title>
<path fill="none" stroke="#63b8ff" d="M77.5,-219.6C77.5,-211.98 77.5,-203.3 77.5,-195.66"/>
<polygon fill="#63b8ff" stroke="#63b8ff" points="81,-195.68 77.5,-185.68 74,-195.68 81,-195.68"/>
</g>
<!-- Node3 -->
<g id="node3" class="node">
<title>Node3</title>
<g id="a_node3"><a xlink:title=" ">
<polygon fill="#e0e0e0" stroke="#999999" points="62.5,-74 16.5,-74 16.5,-55 62.5,-55 62.5,-74"/>
<text text-anchor="middle" x="39.5" y="-62" font-family="Helvetica,sans-Serif" font-size="10.00">variant</text>
</a>
</g>
</g>
<!-- Node2&#45;&gt;Node3 -->
<g id="edge2" class="edge">
<title>Node2&#45;&gt;Node3</title>
<path fill="none" stroke="#63b8ff" d="M74.39,-164.66C68.32,-147.42 54.77,-108.9 46.46,-85.27"/>
<polygon fill="#63b8ff" stroke="#63b8ff" points="49.78,-84.16 43.16,-75.89 43.17,-86.48 49.78,-84.16"/>
</g>
<!-- Node4 -->
<g id="node4" class="node">
<title>Node4</title>
<g id="a_node4"><a xlink:title=" ">
<polygon fill="#e0e0e0" stroke="#999999" points="122,-74 81,-74 81,-55 122,-55 122,-74"/>
<text text-anchor="middle" x="101.5" y="-62" font-family="Helvetica,sans-Serif" font-size="10.00">string</text>
</a>
</g>
</g>
<!-- Node2&#45;&gt;Node4 -->
<g id="edge3" class="edge">
<title>Node2&#45;&gt;Node4</title>
<path fill="none" stroke="#63b8ff" d="M79.46,-164.66C83.28,-147.5 91.78,-109.26 97.03,-85.6"/>
<polygon fill="#63b8ff" stroke="#63b8ff" points="100.43,-86.46 99.18,-75.94 93.59,-84.94 100.43,-86.46"/>
</g>
<!-- Node5 -->
<g id="node5" class="node">
<title>Node5</title>
<g id="a_node5"><a xlink:href="../../d7/dc6/Node_8hpp.html" target="_top" xlink:title="AST node used by the parser, optimizer and compiler.">
<polygon fill="white" stroke="#666666" points="247,-129 106,-129 106,-110 247,-110 247,-129"/>
<text text-anchor="middle" x="176.5" y="-117" font-family="Helvetica,sans-Serif" font-size="10.00">Ark/Compiler/AST/Node.hpp</text>
</a>
</g>
</g>
<!-- Node2&#45;&gt;Node5 -->
<g id="edge4" class="edge">
<title>Node2&#45;&gt;Node5</title>
<path fill="none" stroke="#63b8ff" d="M94.29,-164.51C109.6,-156.31 132.47,-144.07 150.2,-134.58"/>
<polygon fill="#63b8ff" stroke="#63b8ff" points="151.46,-137.88 158.62,-130.07 148.15,-131.71 151.46,-137.88"/>
</g>
<!-- Node5&#45;&gt;Node3 -->
<g id="edge5" class="edge">
<title>Node5&#45;&gt;Node3</title>
<path fill="none" stroke="#63b8ff" d="M153.26,-109.51C131.18,-100.97 97.75,-88.03 72.83,-78.4"/>
<polygon fill="#63b8ff" stroke="#63b8ff" points="74.4,-75.25 63.81,-74.9 71.87,-81.78 74.4,-75.25"/>
</g>
<!-- Node5&#45;&gt;Node4 -->
<g id="edge7" class="edge">
<title>Node5&#45;&gt;Node4</title>
<path fill="none" stroke="#63b8ff" d="M163.78,-109.51C152.72,-101.7 136.46,-90.21 123.33,-80.93"/>
<polygon fill="#63b8ff" stroke="#63b8ff" points="125.46,-78.14 115.27,-75.23 121.42,-83.86 125.46,-78.14"/>
</g>
<!-- Node6 -->
<g id="node6" class="node">
<title>Node6</title>
<g id="a_node6"><a xlink:title=" ">
<polygon fill="#e0e0e0" stroke="#999999" points="192.5,-74 140.5,-74 140.5,-55 192.5,-55 192.5,-74"/>
<text text-anchor="middle" x="166.5" y="-62" font-family="Helvetica,sans-Serif" font-size="10.00">ostream</text>
</a>
</g>
</g>
<!-- Node5&#45;&gt;Node6 -->
<g id="edge6" class="edge">
<title>Node5&#45;&gt;Node6</title>
<path fill="none" stroke="#63b8ff" d="M174.85,-109.75C173.61,-103.19 171.87,-93.95 170.29,-85.6"/>
<polygon fill="#63b8ff" stroke="#63b8ff" points="173.76,-85.11 168.47,-75.93 166.88,-86.4 173.76,-85.11"/>
</g>
<!-- Node7 -->
<g id="node7" class="node">
<title>Node7</title>
<g id="a_node7"><a xlink:title=" ">
<polygon fill="#e0e0e0" stroke="#999999" points="242.5,-19 198.5,-19 198.5,0 242.5,0 242.5,-19"/>
<text text-anchor="middle" x="220.5" y="-7" font-family="Helvetica,sans-Serif" font-size="10.00">vector</text>
</a>
</g>
</g>
<!-- Node5&#45;&gt;Node7 -->
<g id="edge8" class="edge">
<title>Node5&#45;&gt;Node7</title>
<path fill="none" stroke="#63b8ff" d="M182.28,-109.6C187.79,-100.82 196.03,-86.89 201.5,-74 207.5,-59.86 212.41,-43.2 215.73,-30.49"/>
<polygon fill="#63b8ff" stroke="#63b8ff" points="219.12,-31.36 218.15,-20.81 212.33,-29.67 219.12,-31.36"/>
</g>
<!-- Node8 -->
<g id="node8" class="node">
<title>Node8</title>
<g id="a_node8"><a xlink:href="../../d8/ddd/Common_8hpp.html" target="_top" xlink:title="Common code for the compiler.">
<polygon fill="white" stroke="#666666" points="384,-74 249,-74 249,-55 384,-55 384,-74"/>
<text text-anchor="middle" x="316.5" y="-62" font-family="Helvetica,sans-Serif" font-size="10.00">Ark/Compiler/Common.hpp</text>
</a>
</g>
</g>
<!-- Node5&#45;&gt;Node8 -->
<g id="edge9" class="edge">
<title>Node5&#45;&gt;Node8</title>
<path fill="none" stroke="#63b8ff" d="M200.25,-109.51C222.81,-100.97 256.97,-88.03 282.44,-78.4"/>
<polygon fill="#63b8ff" stroke="#63b8ff" points="283.57,-81.71 291.69,-74.89 281.09,-75.16 283.57,-81.71"/>
</g>
<!-- Node8&#45;&gt;Node7 -->
<g id="edge12" class="edge">
<title>Node8&#45;&gt;Node7</title>
<path fill="none" stroke="#63b8ff" d="M300.21,-54.51C285.51,-46.39 263.61,-34.3 246.48,-24.85"/>
<polygon fill="#63b8ff" stroke="#63b8ff" points="248.32,-21.86 237.87,-20.09 244.93,-27.99 248.32,-21.86"/>
</g>
<!-- Node9 -->
<g id="node9" class="node">
<title>Node9</title>
<g id="a_node9"><a xlink:title=" ">
<polygon fill="#e0e0e0" stroke="#999999" points="372.5,-19 334.5,-19 334.5,0 372.5,0 372.5,-19"/>
<text text-anchor="middle" x="353.5" y="-7" font-family="Helvetica,sans-Serif" font-size="10.00">array</text>
</a>
</g>
</g>
<!-- Node8&#45;&gt;Node9 -->
<g id="edge10" class="edge">
<title>Node8&#45;&gt;Node9</title>
<path fill="none" stroke="#63b8ff" d="M322.61,-54.75C327.51,-47.73 334.55,-37.64 340.67,-28.87"/>
<polygon fill="#63b8ff" stroke="#63b8ff" points="343.54,-30.89 346.39,-20.68 337.8,-26.88 343.54,-30.89"/>
</g>
<!-- Node10 -->
<g id="node10" class="node">
<title>Node10</title>
<g id="a_node10"><a xlink:title=" ">
<polygon fill="#e0e0e0" stroke="#999999" points="456.5,-19 390.5,-19 390.5,0 456.5,0 456.5,-19"/>
<text text-anchor="middle" x="423.5" y="-7" font-family="Helvetica,sans-Serif" font-size="10.00">string_view</text>
</a>
</g>
</g>
<!-- Node8&#45;&gt;Node10 -->
<g id="edge11" class="edge">
<title>Node8&#45;&gt;Node10</title>
<path fill="none" stroke="#63b8ff" d="M334.65,-54.51C351.28,-46.27 376.14,-33.96 395.35,-24.45"/>
<polygon fill="#63b8ff" stroke="#63b8ff" points="396.85,-27.6 404.26,-20.03 393.75,-21.33 396.85,-27.6"/>
</g>
<!-- Node11 -->
<g id="node11" class="node">
<title>Node11</title>
<g id="a_node11"><a xlink:title=" ">
<polygon fill="#e0e0e0" stroke="#999999" points="316.5,-19 260.5,-19 260.5,0 316.5,0 316.5,-19"/>
<text text-anchor="middle" x="288.5" y="-7" font-family="Helvetica,sans-Serif" font-size="10.00">cinttypes</text>
</a>
</g>
</g>
<!-- Node8&#45;&gt;Node11 -->
<g id="edge13" class="edge">
<title>Node8&#45;&gt;Node11</title>
<path fill="none" stroke="#63b8ff" d="M311.88,-54.75C308.25,-47.88 303.07,-38.08 298.51,-29.45"/>
<polygon fill="#63b8ff" stroke="#63b8ff" points="301.7,-27.99 293.93,-20.78 295.51,-31.26 301.7,-27.99"/>
</g>
</g>
</svg>
