<?xml version="1.0" encoding="UTF-8" standalone="no"?>
<!DOCTYPE svg PUBLIC "-//W3C//DTD SVG 1.1//EN"
 "http://www.w3.org/Graphics/SVG/1.1/DTD/svg11.dtd">
<!-- Generated by graphviz version 7.1.0 (20230121.1956)
 -->
<!-- Title: /Users/fola/Documents/ArkScript/Ark/src/arkreactor/Compiler/JsonCompiler.cpp Pages: 1 -->
<svg width="2441pt" height="412pt"
 viewBox="0.00 0.00 2441.00 412.00" xmlns="http://www.w3.org/2000/svg" xmlns:xlink="http://www.w3.org/1999/xlink">
<g id="graph0" class="graph" transform="scale(1 1) rotate(0) translate(4 408)">
<title>/Users/fola/Documents/ArkScript/Ark/src/arkreactor/Compiler/JsonCompiler.cpp</title>
<!-- Node1 -->
<g id="node1" class="node">
<title>Node1</title>
<g id="a_node1"><a xlink:title=" ">
<polygon fill="#999999" stroke="#666666" points="1164.5,-404 1023.5,-404 1023.5,-363 1164.5,-363 1164.5,-404"/>
<text text-anchor="start" x="1031.5" y="-392" font-family="Helvetica,sans-Serif" font-size="10.00">/Users/fola/Documents</text>
<text text-anchor="start" x="1031.5" y="-381" font-family="Helvetica,sans-Serif" font-size="10.00">/ArkScript/Ark/src/arkreactor</text>
<text text-anchor="middle" x="1094" y="-370" font-family="Helvetica,sans-Serif" font-size="10.00">/Compiler/JsonCompiler.cpp</text>
</a>
</g>
</g>
<!-- Node2 -->
<g id="node2" class="node">
<title>Node2</title>
<g id="a_node2"><a xlink:href="../../dc/dfd/JsonCompiler_8hpp.html" target="_top" xlink:title=" ">
<polygon fill="white" stroke="#666666" points="1224.5,-321.5 1069.5,-321.5 1069.5,-302.5 1224.5,-302.5 1224.5,-321.5"/>
<text text-anchor="middle" x="1147" y="-309.5" font-family="Helvetica,sans-Serif" font-size="10.00">Ark/Compiler/JsonCompiler.hpp</text>
</a>
</g>
</g>
<!-- Node1&#45;&gt;Node2 -->
<g id="edge1" class="edge">
<title>Node1&#45;&gt;Node2</title>
<path fill="none" stroke="#63b8ff" d="M1109.05,-362.77C1116.68,-352.76 1125.88,-340.7 1133.31,-330.95"/>
<polygon fill="#63b8ff" stroke="#63b8ff" points="1136.08,-333.1 1139.36,-323.02 1130.51,-328.85 1136.08,-333.1"/>
</g>
<!-- Node4 -->
<g id="node4" class="node">
<title>Node4</title>
<g id="a_node4"><a xlink:title=" ">
<polygon fill="#e0e0e0" stroke="#999999" points="1531.5,-74 1490.5,-74 1490.5,-55 1531.5,-55 1531.5,-74"/>
<text text-anchor="middle" x="1511" y="-62" font-family="Helvetica,sans-Serif" font-size="10.00">string</text>
</a>
</g>
</g>
<!-- Node1&#45;&gt;Node4 -->
<g id="edge92" class="edge">
<title>Node1&#45;&gt;Node4</title>
<path fill="none" stroke="#63b8ff" d="M1164.9,-376.66C1294.26,-364.37 1560.42,-331 1616,-261 1623.01,-252.18 1628.88,-196.81 1615,-165 1598.75,-127.76 1561.19,-97.69 1535.94,-80.7"/>
<polygon fill="#63b8ff" stroke="#63b8ff" points="1537.86,-77.77 1527.57,-75.26 1534.05,-83.64 1537.86,-77.77"/>
</g>
<!-- Node23 -->
<g id="node23" class="node">
<title>Node23</title>
<g id="a_node23"><a xlink:title=" ">
<polygon fill="#e0e0e0" stroke="#999999" points="1010.5,-129 951.5,-129 951.5,-110 1010.5,-110 1010.5,-129"/>
<text text-anchor="middle" x="981" y="-117" font-family="Helvetica,sans-Serif" font-size="10.00">exception</text>
</a>
</g>
</g>
<!-- Node1&#45;&gt;Node23 -->
<g id="edge90" class="edge">
<title>Node1&#45;&gt;Node23</title>
<path fill="none" stroke="#63b8ff" d="M1069.46,-362.63C1033.17,-331.46 966.81,-267.12 942,-195 937.66,-182.39 937.31,-177.48 942,-165 946.04,-154.27 953.97,-144.43 961.63,-136.76"/>
<polygon fill="#63b8ff" stroke="#63b8ff" points="963.58,-139.72 968.53,-130.36 958.82,-134.59 963.58,-139.72"/>
</g>
<!-- Node24 -->
<g id="node24" class="node">
<title>Node24</title>
<g id="a_node24"><a xlink:title=" ">
<polygon fill="#e0e0e0" stroke="#999999" points="1164.5,-129 1105.5,-129 1105.5,-110 1164.5,-110 1164.5,-129"/>
<text text-anchor="middle" x="1135" y="-117" font-family="Helvetica,sans-Serif" font-size="10.00">stdexcept</text>
</a>
</g>
</g>
<!-- Node1&#45;&gt;Node24 -->
<g id="edge91" class="edge">
<title>Node1&#45;&gt;Node24</title>
<path fill="none" stroke="#63b8ff" d="M1079.25,-362.65C1072.38,-352.48 1064.7,-339.6 1060,-327 1044.98,-286.77 1035.06,-271.62 1049,-231 1062.2,-192.55 1094.86,-157.17 1115.92,-137.27"/>
<polygon fill="#63b8ff" stroke="#63b8ff" points="1118.28,-139.85 1123.29,-130.51 1113.55,-134.69 1118.28,-139.85"/>
</g>
<!-- Node28 -->
<g id="node28" class="node">
<title>Node28</title>
<g id="a_node28"><a xlink:title=" ">
<polygon fill="#e0e0e0" stroke="#999999" points="174,-19 134,-19 134,0 174,0 174,-19"/>
<text text-anchor="middle" x="154" y="-7" font-family="Helvetica,sans-Serif" font-size="10.00">utility</text>
</a>
</g>
</g>
<!-- Node1&#45;&gt;Node28 -->
<g id="edge89" class="edge">
<title>Node1&#45;&gt;Node28</title>
<path fill="none" stroke="#63b8ff" d="M1023.06,-381.2C780.64,-375.82 0,-350.47 0,-247 0,-247 0,-247 0,-118.5 0,-59.17 77.57,-29.66 122.6,-17.52"/>
<polygon fill="#63b8ff" stroke="#63b8ff" points="123.25,-20.97 132.08,-15.11 121.53,-14.18 123.25,-20.97"/>
</g>
<!-- Node35 -->
<g id="node35" class="node">
<title>Node35</title>
<g id="a_node35"><a xlink:href="../../de/db1/Processor_8hpp.html" target="_top" xlink:title="Handles the macros and their expansion in ArkScript source code.">
<polygon fill="white" stroke="#666666" points="1924.5,-327 1815.5,-327 1815.5,-297 1924.5,-297 1924.5,-327"/>
<text text-anchor="start" x="1823.5" y="-315" font-family="Helvetica,sans-Serif" font-size="10.00">Ark/Compiler/Macros</text>
<text text-anchor="middle" x="1870" y="-304" font-family="Helvetica,sans-Serif" font-size="10.00">/Processor.hpp</text>
</a>
</g>
</g>
<!-- Node1&#45;&gt;Node35 -->
<g id="edge73" class="edge">
<title>Node1&#45;&gt;Node35</title>
<path fill="none" stroke="#63b8ff" d="M1164.92,-376.15C1314.19,-362.78 1658.92,-331.9 1803.88,-318.92"/>
<polygon fill="#63b8ff" stroke="#63b8ff" points="1804.06,-322.42 1813.71,-318.04 1803.43,-315.45 1804.06,-322.42"/>
</g>
<!-- Node3 -->
<g id="node3" class="node">
<title>Node3</title>
<g id="a_node3"><a xlink:title=" ">
<polygon fill="#e0e0e0" stroke="#999999" points="1066,-19 1022,-19 1022,0 1066,0 1066,-19"/>
<text text-anchor="middle" x="1044" y="-7" font-family="Helvetica,sans-Serif" font-size="10.00">vector</text>
</a>
</g>
</g>
<!-- Node2&#45;&gt;Node3 -->
<g id="edge2" class="edge">
<title>Node2&#45;&gt;Node3</title>
<path fill="none" stroke="#63b8ff" d="M1072.11,-302.04C1038.16,-295.1 998.99,-282.79 969,-261 940.48,-240.28 935.22,-228.74 925,-195 906.84,-135.01 901.82,-103.11 942,-55 959.29,-34.29 988.08,-22.93 1010.66,-16.89"/>
<polygon fill="#63b8ff" stroke="#63b8ff" points="1011.45,-20.3 1020.35,-14.54 1009.8,-13.49 1011.45,-20.3"/>
</g>
<!-- Node2&#45;&gt;Node4 -->
<g id="edge3" class="edge">
<title>Node2&#45;&gt;Node4</title>
<path fill="none" stroke="#63b8ff" d="M1108.05,-302.04C1058.92,-288.39 976.68,-257.13 942,-195 923.59,-162.01 916.35,-137.73 942,-110 951.2,-100.05 1360.09,-74.62 1478.93,-67.42"/>
<polygon fill="#63b8ff" stroke="#63b8ff" points="1478.84,-70.93 1488.61,-66.84 1478.41,-63.95 1478.84,-70.93"/>
</g>
<!-- Node5 -->
<g id="node5" class="node">
<title>Node5</title>
<g id="a_node5"><a xlink:href="../../d6/de9/Constants_8hpp.html" target="_top" xlink:title="Constants used by ArkScript.">
<polygon fill="white" stroke="#666666" points="1245,-189.5 1147,-189.5 1147,-170.5 1245,-170.5 1245,-189.5"/>
<text text-anchor="middle" x="1196" y="-177.5" font-family="Helvetica,sans-Serif" font-size="10.00">Ark/Constants.hpp</text>
</a>
</g>
</g>
<!-- Node2&#45;&gt;Node5 -->
<g id="edge4" class="edge">
<title>Node2&#45;&gt;Node5</title>
<path fill="none" stroke="#63b8ff" d="M1153.15,-302.18C1159.65,-292.48 1169.82,-276.25 1176,-261 1184.06,-241.12 1189.54,-217.11 1192.69,-200.62"/>
<polygon fill="#63b8ff" stroke="#63b8ff" points="1196.07,-201.61 1194.39,-191.15 1189.18,-200.37 1196.07,-201.61"/>
</g>
<!-- Node8 -->
<g id="node8" class="node">
<title>Node8</title>
<g id="a_node8"><a xlink:href="../../d5/d40/Platform_8hpp.html" target="_top" xlink:title="ArkScript configuration macros.">
<polygon fill="white" stroke="#666666" points="308,-19 218,-19 218,0 308,0 308,-19"/>
<text text-anchor="middle" x="263" y="-7" font-family="Helvetica,sans-Serif" font-size="10.00">Ark/Platform.hpp</text>
</a>
</g>
</g>
<!-- Node2&#45;&gt;Node8 -->
<g id="edge7" class="edge">
<title>Node2&#45;&gt;Node8</title>
<path fill="none" stroke="#63b8ff" d="M1069.02,-310.05C816.59,-305.97 38,-284.95 38,-181 38,-181 38,-181 38,-118.5 38,-89.04 35.37,-75 57,-55 78.4,-35.21 152.94,-22.82 206.2,-16.28"/>
<polygon fill="#63b8ff" stroke="#63b8ff" points="206.52,-19.77 216.04,-15.11 205.7,-12.81 206.52,-19.77"/>
</g>
<!-- Node9 -->
<g id="node9" class="node">
<title>Node9</title>
<g id="a_node9"><a xlink:href="../../d7/dc6/Node_8hpp.html" target="_top" xlink:title="AST node used by the parser, optimizer and compiler.">
<polygon fill="white" stroke="#666666" points="1781.5,-129 1640.5,-129 1640.5,-110 1781.5,-110 1781.5,-129"/>
<text text-anchor="middle" x="1711" y="-117" font-family="Helvetica,sans-Serif" font-size="10.00">Ark/Compiler/AST/Node.hpp</text>
</a>
</g>
</g>
<!-- Node2&#45;&gt;Node9 -->
<g id="edge8" class="edge">
<title>Node2&#45;&gt;Node9</title>
<path fill="none" stroke="#63b8ff" d="M1219.31,-302.03C1268.93,-294.48 1335.73,-281.56 1392,-261 1433.84,-245.71 1526.97,-182.37 1568,-165 1599.39,-151.71 1636.13,-140.36 1664.51,-132.45"/>
<polygon fill="#63b8ff" stroke="#63b8ff" points="1665.16,-135.9 1673.88,-129.89 1663.31,-129.15 1665.16,-135.9"/>
</g>
<!-- Node15 -->
<g id="node15" class="node">
<title>Node15</title>
<g id="a_node15"><a xlink:href="../../d7/ddd/Parser_8hpp.html" target="_top" xlink:title="Parses a token stream into an AST by using the Ark::Node.">
<polygon fill="white" stroke="#666666" points="1607,-255.5 1461,-255.5 1461,-236.5 1607,-236.5 1607,-255.5"/>
<text text-anchor="middle" x="1534" y="-243.5" font-family="Helvetica,sans-Serif" font-size="10.00">Ark/Compiler/AST/Parser.hpp</text>
</a>
</g>
</g>
<!-- Node2&#45;&gt;Node15 -->
<g id="edge18" class="edge">
<title>Node2&#45;&gt;Node15</title>
<path fill="none" stroke="#63b8ff" d="M1201.22,-302.03C1271.36,-290.43 1393.45,-270.24 1468.64,-257.81"/>
<polygon fill="#63b8ff" stroke="#63b8ff" points="1469.05,-261.29 1478.34,-256.2 1467.91,-254.38 1469.05,-261.29"/>
</g>
<!-- Node19 -->
<g id="node19" class="node">
<title>Node19</title>
<g id="a_node19"><a xlink:href="../../db/d93/Optimizer_8hpp.html" target="_top" xlink:title="Optimizes a given ArkScript AST.">
<polygon fill="white" stroke="#666666" points="1383.5,-255.5 1224.5,-255.5 1224.5,-236.5 1383.5,-236.5 1383.5,-255.5"/>
<text text-anchor="middle" x="1304" y="-243.5" font-family="Helvetica,sans-Serif" font-size="10.00">Ark/Compiler/AST/Optimizer.hpp</text>
</a>
</g>
</g>
<!-- Node2&#45;&gt;Node19 -->
<g id="edge33" class="edge">
<title>Node2&#45;&gt;Node19</title>
<path fill="none" stroke="#63b8ff" d="M1168.83,-302.1C1195.47,-291.24 1240.75,-272.78 1271.5,-260.25"/>
<polygon fill="#63b8ff" stroke="#63b8ff" points="1272.76,-263.51 1280.7,-256.5 1270.12,-257.03 1272.76,-263.51"/>
</g>
<!-- Node6 -->
<g id="node6" class="node">
<title>Node6</title>
<g id="a_node6"><a xlink:title=" ">
<polygon fill="#e0e0e0" stroke="#999999" points="2166,-19 2110,-19 2110,0 2166,0 2166,-19"/>
<text text-anchor="middle" x="2138" y="-7" font-family="Helvetica,sans-Serif" font-size="10.00">cinttypes</text>
</a>
</g>
</g>
<!-- Node5&#45;&gt;Node6 -->
<g id="edge5" class="edge">
<title>Node5&#45;&gt;Node6</title>
<path fill="none" stroke="#63b8ff" d="M1211.4,-170.02C1253.12,-146.2 1372.48,-81.44 1481,-55 1599.11,-26.22 1974.39,-14.55 2098.05,-11.42"/>
<polygon fill="#63b8ff" stroke="#63b8ff" points="2098.13,-14.92 2108.04,-11.17 2097.95,-7.92 2098.13,-14.92"/>
</g>
<!-- Node7 -->
<g id="node7" class="node">
<title>Node7</title>
<g id="a_node7"><a xlink:title=" ">
<polygon fill="#e0e0e0" stroke="#999999" points="1270.5,-129 1221.5,-129 1221.5,-110 1270.5,-110 1270.5,-129"/>
<text text-anchor="middle" x="1246" y="-117" font-family="Helvetica,sans-Serif" font-size="10.00">cstddef</text>
</a>
</g>
</g>
<!-- Node5&#45;&gt;Node7 -->
<g id="edge6" class="edge">
<title>Node5&#45;&gt;Node7</title>
<path fill="none" stroke="#63b8ff" d="M1203.38,-170.37C1210.69,-161.81 1222.09,-148.47 1231.26,-137.74"/>
<polygon fill="#63b8ff" stroke="#63b8ff" points="1233.77,-140.19 1237.61,-130.32 1228.45,-135.65 1233.77,-140.19"/>
</g>
<!-- Node9&#45;&gt;Node3 -->
<g id="edge12" class="edge">
<title>Node9&#45;&gt;Node3</title>
<path fill="none" stroke="#63b8ff" d="M1692.02,-109.54C1661,-95.33 1597.14,-67.93 1540,-55 1369.16,-16.34 1158.07,-11 1077.44,-10.46"/>
<polygon fill="#63b8ff" stroke="#63b8ff" points="1077.61,-6.96 1067.59,-10.41 1077.58,-13.96 1077.61,-6.96"/>
</g>
<!-- Node9&#45;&gt;Node4 -->
<g id="edge11" class="edge">
<title>Node9&#45;&gt;Node4</title>
<path fill="none" stroke="#63b8ff" d="M1677.07,-109.51C1639.56,-99.57 1579.6,-83.68 1542.92,-73.96"/>
<polygon fill="#63b8ff" stroke="#63b8ff" points="1543.91,-70.6 1533.35,-71.42 1542.12,-77.37 1543.91,-70.6"/>
</g>
<!-- Node10 -->
<g id="node10" class="node">
<title>Node10</title>
<g id="a_node10"><a xlink:title=" ">
<polygon fill="#e0e0e0" stroke="#999999" points="997,-74 951,-74 951,-55 997,-55 997,-74"/>
<text text-anchor="middle" x="974" y="-62" font-family="Helvetica,sans-Serif" font-size="10.00">variant</text>
</a>
</g>
</g>
<!-- Node9&#45;&gt;Node10 -->
<g id="edge9" class="edge">
<title>Node9&#45;&gt;Node10</title>
<path fill="none" stroke="#63b8ff" d="M1640.33,-113.42C1485.82,-102.31 1122.63,-76.19 1008.77,-68"/>
<polygon fill="#63b8ff" stroke="#63b8ff" points="1009.07,-64.51 998.85,-67.29 1008.57,-71.5 1009.07,-64.51"/>
</g>
<!-- Node11 -->
<g id="node11" class="node">
<title>Node11</title>
<g id="a_node11"><a xlink:title=" ">
<polygon fill="#e0e0e0" stroke="#999999" points="1922,-74 1870,-74 1870,-55 1922,-55 1922,-74"/>
<text text-anchor="middle" x="1896" y="-62" font-family="Helvetica,sans-Serif" font-size="10.00">ostream</text>
</a>
</g>
</g>
<!-- Node9&#45;&gt;Node11 -->
<g id="edge10" class="edge">
<title>Node9&#45;&gt;Node11</title>
<path fill="none" stroke="#63b8ff" d="M1742.38,-109.51C1774.52,-100.3 1824.48,-85.99 1858.64,-76.2"/>
<polygon fill="#63b8ff" stroke="#63b8ff" points="1859.46,-79.61 1868.11,-73.49 1857.53,-72.88 1859.46,-79.61"/>
</g>
<!-- Node12 -->
<g id="node12" class="node">
<title>Node12</title>
<g id="a_node12"><a xlink:href="../../d8/ddd/Common_8hpp.html" target="_top" xlink:title="Common code for the compiler.">
<polygon fill="white" stroke="#666666" points="2320.5,-74 2185.5,-74 2185.5,-55 2320.5,-55 2320.5,-74"/>
<text text-anchor="middle" x="2253" y="-62" font-family="Helvetica,sans-Serif" font-size="10.00">Ark/Compiler/Common.hpp</text>
</a>
</g>
</g>
<!-- Node9&#45;&gt;Node12 -->
<g id="edge13" class="edge">
<title>Node9&#45;&gt;Node12</title>
<path fill="none" stroke="#63b8ff" d="M1781.86,-111.57C1883.05,-101.68 2068.36,-83.56 2173.9,-73.23"/>
<polygon fill="#63b8ff" stroke="#63b8ff" points="2174,-76.74 2183.61,-72.29 2173.31,-69.78 2174,-76.74"/>
</g>
<!-- Node12&#45;&gt;Node3 -->
<g id="edge16" class="edge">
<title>Node12&#45;&gt;Node3</title>
<path fill="none" stroke="#63b8ff" d="M2185.35,-59.69C2157.38,-58.16 2124.63,-56.42 2095,-55 1694.33,-35.74 1207.52,-16.77 1077.33,-11.77"/>
<polygon fill="#63b8ff" stroke="#63b8ff" points="1077.83,-8.29 1067.7,-11.4 1077.56,-15.28 1077.83,-8.29"/>
</g>
<!-- Node12&#45;&gt;Node6 -->
<g id="edge17" class="edge">
<title>Node12&#45;&gt;Node6</title>
<path fill="none" stroke="#63b8ff" d="M2233.49,-54.51C2215.37,-46.16 2188.15,-33.61 2167.4,-24.05"/>
<polygon fill="#63b8ff" stroke="#63b8ff" points="2169.14,-21 2158.59,-19.99 2166.21,-27.36 2169.14,-21"/>
</g>
<!-- Node13 -->
<g id="node13" class="node">
<title>Node13</title>
<g id="a_node13"><a xlink:title=" ">
<polygon fill="#e0e0e0" stroke="#999999" points="2272,-19 2234,-19 2234,0 2272,0 2272,-19"/>
<text text-anchor="middle" x="2253" y="-7" font-family="Helvetica,sans-Serif" font-size="10.00">array</text>
</a>
</g>
</g>
<!-- Node12&#45;&gt;Node13 -->
<g id="edge14" class="edge">
<title>Node12&#45;&gt;Node13</title>
<path fill="none" stroke="#63b8ff" d="M2253,-54.75C2253,-48.27 2253,-39.16 2253,-30.9"/>
<polygon fill="#63b8ff" stroke="#63b8ff" points="2256.5,-30.96 2253,-20.96 2249.5,-30.96 2256.5,-30.96"/>
</g>
<!-- Node14 -->
<g id="node14" class="node">
<title>Node14</title>
<g id="a_node14"><a xlink:title=" ">
<polygon fill="#e0e0e0" stroke="#999999" points="2430,-19 2364,-19 2364,0 2430,0 2430,-19"/>
<text text-anchor="middle" x="2397" y="-7" font-family="Helvetica,sans-Serif" font-size="10.00">string_view</text>
</a>
</g>
</g>
<!-- Node12&#45;&gt;Node14 -->
<g id="edge15" class="edge">
<title>Node12&#45;&gt;Node14</title>
<path fill="none" stroke="#63b8ff" d="M2277.43,-54.51C2300.74,-45.93 2336.09,-32.92 2362.31,-23.27"/>
<polygon fill="#63b8ff" stroke="#63b8ff" points="2363.34,-26.62 2371.51,-19.88 2360.92,-20.05 2363.34,-26.62"/>
</g>
<!-- Node15&#45;&gt;Node3 -->
<g id="edge22" class="edge">
<title>Node15&#45;&gt;Node3</title>
<path fill="none" stroke="#63b8ff" d="M1460.8,-238.99C1398.24,-232.27 1314.82,-219.04 1292,-195 1265.69,-167.28 1302.46,-140.17 1279,-110 1229.04,-45.76 1129.78,-22.48 1077.7,-14.45"/>
<polygon fill="#63b8ff" stroke="#63b8ff" points="1078.32,-11.01 1067.93,-13.06 1077.33,-17.94 1078.32,-11.01"/>
</g>
<!-- Node15&#45;&gt;Node4 -->
<g id="edge19" class="edge">
<title>Node15&#45;&gt;Node4</title>
<path fill="none" stroke="#63b8ff" d="M1532.89,-236.34C1529.41,-209.16 1518.63,-125.02 1513.61,-85.89"/>
<polygon fill="#63b8ff" stroke="#63b8ff" points="1517.09,-85.47 1512.34,-75.99 1510.14,-86.36 1517.09,-85.47"/>
</g>
<!-- Node15&#45;&gt;Node5 -->
<g id="edge24" class="edge">
<title>Node15&#45;&gt;Node5</title>
<path fill="none" stroke="#63b8ff" d="M1481.16,-236.02C1425.71,-226.45 1336.06,-210.56 1259,-195 1254.92,-194.18 1250.69,-193.29 1246.45,-192.39"/>
<polygon fill="#63b8ff" stroke="#63b8ff" points="1247.26,-188.99 1236.75,-190.29 1245.78,-195.83 1247.26,-188.99"/>
</g>
<!-- Node15&#45;&gt;Node6 -->
<g id="edge23" class="edge">
<title>Node15&#45;&gt;Node6</title>
<path fill="none" stroke="#63b8ff" d="M1607.42,-244.24C1759.45,-241.9 2097.56,-232.49 2133,-195 2175.71,-149.83 2156.56,-67.16 2144.78,-29.77"/>
<polygon fill="#63b8ff" stroke="#63b8ff" points="2148.26,-29.15 2141.78,-20.77 2141.62,-31.36 2148.26,-29.15"/>
</g>
<!-- Node15&#45;&gt;Node9 -->
<g id="edge32" class="edge">
<title>Node15&#45;&gt;Node9</title>
<path fill="none" stroke="#63b8ff" d="M1549.54,-236.08C1566.08,-226.43 1592.87,-210.35 1615,-195 1642.31,-176.06 1672.36,-152.21 1691.44,-136.68"/>
<polygon fill="#63b8ff" stroke="#63b8ff" points="1693.66,-139.39 1699.17,-130.34 1689.22,-133.97 1693.66,-139.39"/>
</g>
<!-- Node15&#45;&gt;Node11 -->
<g id="edge21" class="edge">
<title>Node15&#45;&gt;Node11</title>
<path fill="none" stroke="#63b8ff" d="M1607.43,-242.83C1737.34,-238.22 1996.63,-225.3 2024,-195 2063.58,-151.18 1977.25,-102.36 1927.68,-79.17"/>
<polygon fill="#63b8ff" stroke="#63b8ff" points="1929.36,-76.08 1918.81,-75.12 1926.45,-82.45 1929.36,-76.08"/>
</g>
<!-- Node16 -->
<g id="node16" class="node">
<title>Node16</title>
<g id="a_node16"><a xlink:title=" ">
<polygon fill="#e0e0e0" stroke="#999999" points="1606.5,-189.5 1577.5,-189.5 1577.5,-170.5 1606.5,-170.5 1606.5,-189.5"/>
<text text-anchor="middle" x="1592" y="-177.5" font-family="Helvetica,sans-Serif" font-size="10.00">list</text>
</a>
</g>
</g>
<!-- Node15&#45;&gt;Node16 -->
<g id="edge20" class="edge">
<title>Node15&#45;&gt;Node16</title>
<path fill="none" stroke="#63b8ff" d="M1542.06,-236.1C1550.89,-226.36 1565.27,-210.5 1576.33,-198.29"/>
<polygon fill="#63b8ff" stroke="#63b8ff" points="1578.87,-200.71 1582.99,-190.94 1573.68,-196 1578.87,-200.71"/>
</g>
<!-- Node17 -->
<g id="node17" class="node">
<title>Node17</title>
<g id="a_node17"><a xlink:href="../../da/d79/Lexer_8hpp.html" target="_top" xlink:title="Tokenize ArkScript code.">
<polygon fill="white" stroke="#666666" points="2364.5,-189.5 2223.5,-189.5 2223.5,-170.5 2364.5,-170.5 2364.5,-189.5"/>
<text text-anchor="middle" x="2294" y="-177.5" font-family="Helvetica,sans-Serif" font-size="10.00">Ark/Compiler/AST/Lexer.hpp</text>
</a>
</g>
</g>
<!-- Node15&#45;&gt;Node17 -->
<g id="edge25" class="edge">
<title>Node15&#45;&gt;Node17</title>
<path fill="none" stroke="#63b8ff" d="M1607.16,-240.09C1725.68,-231.96 1967,-214.61 2171,-195 2184.2,-193.73 2198.19,-192.26 2211.81,-190.76"/>
<polygon fill="#63b8ff" stroke="#63b8ff" points="2212.09,-194.25 2221.64,-189.66 2211.32,-187.29 2212.09,-194.25"/>
</g>
<!-- Node17&#45;&gt;Node3 -->
<g id="edge26" class="edge">
<title>Node17&#45;&gt;Node3</title>
<path fill="none" stroke="#63b8ff" d="M2274.47,-170.1C2220.93,-146.19 2066.78,-80.67 1931,-55 1762.63,-23.17 1217.96,-13.07 1077.37,-10.96"/>
<polygon fill="#63b8ff" stroke="#63b8ff" points="1077.68,-7.46 1067.63,-10.81 1077.58,-14.46 1077.68,-7.46"/>
</g>
<!-- Node17&#45;&gt;Node12 -->
<g id="edge31" class="edge">
<title>Node17&#45;&gt;Node12</title>
<path fill="none" stroke="#63b8ff" d="M2282.94,-170.03C2272.69,-160.93 2258.13,-145.83 2252,-129 2246.96,-115.17 2247.45,-98.5 2249.07,-85.7"/>
<polygon fill="#63b8ff" stroke="#63b8ff" points="2252.51,-86.38 2250.66,-75.95 2245.6,-85.26 2252.51,-86.38"/>
</g>
<!-- Node18 -->
<g id="node18" class="node">
<title>Node18</title>
<g id="a_node18"><a xlink:href="../../d3/d6e/Token_8hpp.html" target="_top" xlink:title="Token definition for ArkScript.">
<polygon fill="white" stroke="#666666" points="2405,-129 2261,-129 2261,-110 2405,-110 2405,-129"/>
<text text-anchor="middle" x="2333" y="-117" font-family="Helvetica,sans-Serif" font-size="10.00">Ark/Compiler/AST/Token.hpp</text>
</a>
</g>
</g>
<!-- Node17&#45;&gt;Node18 -->
<g id="edge27" class="edge">
<title>Node17&#45;&gt;Node18</title>
<path fill="none" stroke="#63b8ff" d="M2299.75,-170.37C2305.28,-162.07 2313.82,-149.28 2320.85,-138.72"/>
<polygon fill="#63b8ff" stroke="#63b8ff" points="2323.75,-140.69 2326.38,-130.43 2317.92,-136.81 2323.75,-140.69"/>
</g>
<!-- Node18&#45;&gt;Node4 -->
<g id="edge29" class="edge">
<title>Node18&#45;&gt;Node4</title>
<path fill="none" stroke="#63b8ff" d="M2260.77,-113.84C2089.39,-102.79 1663.49,-75.33 1543.14,-67.57"/>
<polygon fill="#63b8ff" stroke="#63b8ff" points="1543.56,-64.09 1533.35,-66.94 1543.11,-71.08 1543.56,-64.09"/>
</g>
<!-- Node18&#45;&gt;Node13 -->
<g id="edge28" class="edge">
<title>Node18&#45;&gt;Node13</title>
<path fill="none" stroke="#63b8ff" d="M2335.1,-109.52C2337.62,-96.47 2340.33,-71.97 2330,-55 2319.53,-37.8 2299.74,-26.58 2282.84,-19.7"/>
<polygon fill="#63b8ff" stroke="#63b8ff" points="2284.3,-16.51 2273.71,-16.32 2281.87,-23.07 2284.3,-16.51"/>
</g>
<!-- Node18&#45;&gt;Node14 -->
<g id="edge30" class="edge">
<title>Node18&#45;&gt;Node14</title>
<path fill="none" stroke="#63b8ff" d="M2339.25,-109.81C2345.51,-100.96 2355.3,-86.77 2363,-74 2371.89,-59.25 2381.05,-42 2387.62,-29.21"/>
<polygon fill="#63b8ff" stroke="#63b8ff" points="2390.57,-31.13 2391.97,-20.63 2384.32,-27.97 2390.57,-31.13"/>
</g>
<!-- Node19&#45;&gt;Node4 -->
<g id="edge36" class="edge">
<title>Node19&#45;&gt;Node4</title>
<path fill="none" stroke="#63b8ff" d="M1224.33,-236.04C1172.23,-226.26 1117.34,-206.09 1138,-165 1147.2,-146.69 1193.08,-117.86 1212,-110 1259.9,-90.12 1412.04,-74.41 1478.93,-68.28"/>
<polygon fill="#63b8ff" stroke="#63b8ff" points="1478.86,-71.8 1488.51,-67.42 1478.23,-64.83 1478.86,-71.8"/>
</g>
<!-- Node19&#45;&gt;Node5 -->
<g id="edge68" class="edge">
<title>Node19&#45;&gt;Node5</title>
<path fill="none" stroke="#63b8ff" d="M1288.98,-236.1C1271.33,-225.64 1241.78,-208.13 1220.73,-195.66"/>
<polygon fill="#63b8ff" stroke="#63b8ff" points="1222.58,-192.68 1212.19,-190.59 1219.01,-198.7 1222.58,-192.68"/>
</g>
<!-- Node19&#45;&gt;Node6 -->
<g id="edge37" class="edge">
<title>Node19&#45;&gt;Node6</title>
<path fill="none" stroke="#63b8ff" d="M1383.84,-236.98C1405.91,-234.89 1429.87,-232.74 1452,-231 1515.48,-226 1969.38,-227.75 2024,-195 2087.23,-157.09 2120.43,-69.23 2132.54,-30.02"/>
<polygon fill="#63b8ff" stroke="#63b8ff" points="2135.86,-31.15 2135.32,-20.57 2129.14,-29.18 2135.86,-31.15"/>
</g>
<!-- Node19&#45;&gt;Node9 -->
<g id="edge38" class="edge">
<title>Node19&#45;&gt;Node9</title>
<path fill="none" stroke="#63b8ff" d="M1331.74,-236.06C1361.92,-226.26 1411.53,-209.94 1454,-195 1490.21,-182.26 1498.34,-176.39 1535,-165 1576.42,-152.13 1624.16,-140.24 1659.46,-131.99"/>
<polygon fill="#63b8ff" stroke="#63b8ff" points="1660.04,-135.45 1668.99,-129.79 1658.46,-128.63 1660.04,-135.45"/>
</g>
<!-- Node20 -->
<g id="node20" class="node">
<title>Node20</title>
<g id="a_node20"><a xlink:title=" ">
<polygon fill="#e0e0e0" stroke="#999999" points="125.5,-74 66.5,-74 66.5,-55 125.5,-55 125.5,-74"/>
<text text-anchor="middle" x="96" y="-62" font-family="Helvetica,sans-Serif" font-size="10.00">functional</text>
</a>
</g>
</g>
<!-- Node19&#45;&gt;Node20 -->
<g id="edge34" class="edge">
<title>Node19&#45;&gt;Node20</title>
<path fill="none" stroke="#63b8ff" d="M1236.91,-236.03C1164.2,-226.24 1044.81,-209.97 942,-195 632.19,-149.9 259.26,-91.31 136.99,-71.99"/>
<polygon fill="#63b8ff" stroke="#63b8ff" points="137.87,-68.59 127.44,-70.48 136.77,-75.5 137.87,-68.59"/>
</g>
<!-- Node21 -->
<g id="node21" class="node">
<title>Node21</title>
<g id="a_node21"><a xlink:title=" ">
<polygon fill="#e0e0e0" stroke="#999999" points="1921.5,-129 1838.5,-129 1838.5,-110 1921.5,-110 1921.5,-129"/>
<text text-anchor="middle" x="1880" y="-117" font-family="Helvetica,sans-Serif" font-size="10.00">unordered_map</text>
</a>
</g>
</g>
<!-- Node19&#45;&gt;Node21 -->
<g id="edge35" class="edge">
<title>Node19&#45;&gt;Node21</title>
<path fill="none" stroke="#63b8ff" d="M1383.87,-237.36C1405.94,-235.27 1429.9,-233.03 1452,-231 1497.1,-226.87 1822.96,-223.69 1858,-195 1873.96,-181.93 1878.7,-157.89 1879.93,-140.64"/>
<polygon fill="#63b8ff" stroke="#63b8ff" points="1883.43,-140.94 1880.27,-130.83 1876.43,-140.7 1883.43,-140.94"/>
</g>
<!-- Node22 -->
<g id="node22" class="node">
<title>Node22</title>
<g id="a_node22"><a xlink:href="../../d2/de9/Exceptions_8hpp.html" target="_top" xlink:title="ArkScript homemade exceptions.">
<polygon fill="white" stroke="#666666" points="1053,-189.5 951,-189.5 951,-170.5 1053,-170.5 1053,-189.5"/>
<text text-anchor="middle" x="1002" y="-177.5" font-family="Helvetica,sans-Serif" font-size="10.00">Ark/Exceptions.hpp</text>
</a>
</g>
</g>
<!-- Node19&#45;&gt;Node22 -->
<g id="edge39" class="edge">
<title>Node19&#45;&gt;Node22</title>
<path fill="none" stroke="#63b8ff" d="M1261.69,-236.03C1207.55,-224.56 1113.76,-204.68 1054.94,-192.22"/>
<polygon fill="#63b8ff" stroke="#63b8ff" points="1056.01,-188.87 1045.5,-190.22 1054.56,-195.72 1056.01,-188.87"/>
</g>
<!-- Node33 -->
<g id="node33" class="node">
<title>Node33</title>
<g id="a_node33"><a xlink:href="../../dc/dc5/makeErrorCtx_8hpp.html" target="_top" xlink:title="Create string error context for AST errors.">
<polygon fill="white" stroke="#666666" points="1445,-195 1301,-195 1301,-165 1445,-165 1445,-195"/>
<text text-anchor="start" x="1309" y="-183" font-family="Helvetica,sans-Serif" font-size="10.00">Ark/Compiler/AST/makeError</text>
<text text-anchor="middle" x="1373" y="-172" font-family="Helvetica,sans-Serif" font-size="10.00">Ctx.hpp</text>
</a>
</g>
</g>
<!-- Node19&#45;&gt;Node33 -->
<g id="edge69" class="edge">
<title>Node19&#45;&gt;Node33</title>
<path fill="none" stroke="#63b8ff" d="M1313.59,-236.1C1322.71,-227.64 1336.8,-214.58 1348.97,-203.29"/>
<polygon fill="#63b8ff" stroke="#63b8ff" points="1351.33,-205.87 1356.28,-196.51 1346.57,-200.74 1351.33,-205.87"/>
</g>
<!-- Node22&#45;&gt;Node3 -->
<g id="edge42" class="edge">
<title>Node22&#45;&gt;Node3</title>
<path fill="none" stroke="#63b8ff" d="M1005.97,-170.24C1013.81,-152.49 1031.19,-110.87 1039,-74 1042.03,-59.71 1043.26,-43.26 1043.75,-30.68"/>
<polygon fill="#63b8ff" stroke="#63b8ff" points="1047.24,-30.83 1043.99,-20.74 1040.25,-30.65 1047.24,-30.83"/>
</g>
<!-- Node22&#45;&gt;Node4 -->
<g id="edge41" class="edge">
<title>Node22&#45;&gt;Node4</title>
<path fill="none" stroke="#63b8ff" d="M1010.37,-170.38C1025.73,-155.18 1060.14,-123.91 1096,-110 1165.86,-82.9 1393.73,-70.54 1478.68,-66.8"/>
<polygon fill="#63b8ff" stroke="#63b8ff" points="1478.79,-70.29 1488.63,-66.37 1478.49,-63.3 1478.79,-70.29"/>
</g>
<!-- Node22&#45;&gt;Node23 -->
<g id="edge40" class="edge">
<title>Node22&#45;&gt;Node23</title>
<path fill="none" stroke="#63b8ff" d="M998.9,-170.37C996.02,-162.33 991.62,-150.07 987.9,-139.72"/>
<polygon fill="#63b8ff" stroke="#63b8ff" points="991.3,-138.82 984.62,-130.59 984.71,-141.19 991.3,-138.82"/>
</g>
<!-- Node22&#45;&gt;Node24 -->
<g id="edge43" class="edge">
<title>Node22&#45;&gt;Node24</title>
<path fill="none" stroke="#63b8ff" d="M1022.2,-170.12C1043.98,-160.54 1078.9,-145.18 1104.12,-134.08"/>
<polygon fill="#63b8ff" stroke="#63b8ff" points="1105.48,-137.31 1113.22,-130.08 1102.66,-130.9 1105.48,-137.31"/>
</g>
<!-- Node25 -->
<g id="node25" class="node">
<title>Node25</title>
<g id="a_node25"><a xlink:href="../../de/dfd/Value_8hpp.html" target="_top" xlink:title=" ">
<polygon fill="white" stroke="#666666" points="780.5,-129 685.5,-129 685.5,-110 780.5,-110 780.5,-129"/>
<text text-anchor="middle" x="733" y="-117" font-family="Helvetica,sans-Serif" font-size="10.00">Ark/VM/Value.hpp</text>
</a>
</g>
</g>
<!-- Node22&#45;&gt;Node25 -->
<g id="edge44" class="edge">
<title>Node22&#45;&gt;Node25</title>
<path fill="none" stroke="#63b8ff" d="M960.85,-170.05C913.78,-159.82 836.62,-143.03 785.31,-131.88"/>
<polygon fill="#63b8ff" stroke="#63b8ff" points="786.14,-128.47 775.62,-129.77 784.65,-135.31 786.14,-128.47"/>
</g>
<!-- Node25&#45;&gt;Node3 -->
<g id="edge45" class="edge">
<title>Node25&#45;&gt;Node3</title>
<path fill="none" stroke="#63b8ff" d="M749.59,-109.68C775.1,-96.39 825.77,-71.08 871,-55 918.52,-38.11 975.47,-24.72 1010.7,-17.2"/>
<polygon fill="#63b8ff" stroke="#63b8ff" points="1011.22,-20.67 1020.29,-15.19 1009.79,-13.82 1011.22,-20.67"/>
</g>
<!-- Node25&#45;&gt;Node4 -->
<g id="edge47" class="edge">
<title>Node25&#45;&gt;Node4</title>
<path fill="none" stroke="#63b8ff" d="M780.79,-115.24C925.58,-105.38 1356.95,-75.99 1478.69,-67.7"/>
<polygon fill="#63b8ff" stroke="#63b8ff" points="1478.86,-71.2 1488.6,-67.03 1478.39,-64.21 1478.86,-71.2"/>
</g>
<!-- Node25&#45;&gt;Node6 -->
<g id="edge48" class="edge">
<title>Node25&#45;&gt;Node6</title>
<path fill="none" stroke="#63b8ff" d="M759.3,-109.58C807,-93.56 906.19,-61 942,-55 1171.86,-16.47 1917.29,-11.3 2098.18,-10.61"/>
<polygon fill="#63b8ff" stroke="#63b8ff" points="2098.01,-14.11 2107.99,-10.57 2097.98,-7.11 2098.01,-14.11"/>
</g>
<!-- Node25&#45;&gt;Node8 -->
<g id="edge66" class="edge">
<title>Node25&#45;&gt;Node8</title>
<path fill="none" stroke="#63b8ff" d="M685.31,-111.68C680.48,-111.07 675.64,-110.5 671,-110 620.03,-104.52 245.81,-111.64 211,-74 196.27,-58.07 217.46,-38.62 237.05,-25.48"/>
<polygon fill="#63b8ff" stroke="#63b8ff" points="238.8,-28.52 245.38,-20.22 235.06,-22.6 238.8,-28.52"/>
</g>
<!-- Node25&#45;&gt;Node10 -->
<g id="edge46" class="edge">
<title>Node25&#45;&gt;Node10</title>
<path fill="none" stroke="#63b8ff" d="M773.88,-109.51C820.51,-99.26 895.91,-82.67 939.63,-73.06"/>
<polygon fill="#63b8ff" stroke="#63b8ff" points="940.32,-76.49 949.33,-70.93 938.81,-69.65 940.32,-76.49"/>
</g>
<!-- Node25&#45;&gt;Node13 -->
<g id="edge54" class="edge">
<title>Node25&#45;&gt;Node13</title>
<path fill="none" stroke="#63b8ff" d="M780.65,-113.91C899.03,-102.62 1216.07,-73.11 1481,-55 1789.14,-33.93 1867.13,-43.74 2175,-19 2190.7,-17.74 2208.13,-15.88 2222.52,-14.23"/>
<polygon fill="#63b8ff" stroke="#63b8ff" points="2222.77,-17.72 2232.29,-13.08 2221.95,-10.77 2222.77,-17.72"/>
</g>
<!-- Node25&#45;&gt;Node20 -->
<g id="edge51" class="edge">
<title>Node25&#45;&gt;Node20</title>
<path fill="none" stroke="#63b8ff" d="M685.31,-111.63C680.48,-111.03 675.65,-110.48 671,-110 435.69,-85.92 374.57,-104.49 140,-74 138.99,-73.87 137.96,-73.73 136.93,-73.58"/>
<polygon fill="#63b8ff" stroke="#63b8ff" points="137.67,-70.15 127.24,-72 136.54,-77.06 137.67,-70.15"/>
</g>
<!-- Node26 -->
<g id="node26" class="node">
<title>Node26</title>
<g id="a_node26"><a xlink:title=" ">
<polygon fill="#e0e0e0" stroke="#999999" points="415,-19 361,-19 361,0 415,0 415,-19"/>
<text text-anchor="middle" x="388" y="-7" font-family="Helvetica,sans-Serif" font-size="10.00">iostream</text>
</a>
</g>
</g>
<!-- Node25&#45;&gt;Node26 -->
<g id="edge49" class="edge">
<title>Node25&#45;&gt;Node26</title>
<path fill="none" stroke="#63b8ff" d="M685.27,-111.95C680.45,-111.29 675.63,-110.63 671,-110 612.34,-101.98 451.99,-112.5 407,-74 394.56,-63.35 390.08,-44.92 388.55,-30.65"/>
<polygon fill="#63b8ff" stroke="#63b8ff" points="392.06,-30.75 387.94,-20.99 385.08,-31.19 392.06,-30.75"/>
</g>
<!-- Node27 -->
<g id="node27" class="node">
<title>Node27</title>
<g id="a_node27"><a xlink:title=" ">
<polygon fill="#e0e0e0" stroke="#999999" points="555,-19 503,-19 503,0 555,0 555,-19"/>
<text text-anchor="middle" x="529" y="-7" font-family="Helvetica,sans-Serif" font-size="10.00">memory</text>
</a>
</g>
</g>
<!-- Node25&#45;&gt;Node27 -->
<g id="edge50" class="edge">
<title>Node25&#45;&gt;Node27</title>
<path fill="none" stroke="#63b8ff" d="M688.26,-109.53C660.13,-102.61 623.84,-91.25 595,-74 574.6,-61.8 555.52,-42.19 543.17,-27.99"/>
<polygon fill="#63b8ff" stroke="#63b8ff" points="545.85,-25.74 536.74,-20.34 540.49,-30.25 545.85,-25.74"/>
</g>
<!-- Node25&#45;&gt;Node28 -->
<g id="edge52" class="edge">
<title>Node25&#45;&gt;Node28</title>
<path fill="none" stroke="#63b8ff" d="M685.31,-111.67C680.48,-111.07 675.65,-110.5 671,-110 567.28,-98.91 294.78,-123.57 203,-74 184.84,-64.19 171.28,-44.46 163.09,-29.57"/>
<polygon fill="#63b8ff" stroke="#63b8ff" points="166.23,-28.04 158.56,-20.73 160,-31.23 166.23,-28.04"/>
</g>
<!-- Node29 -->
<g id="node29" class="node">
<title>Node29</title>
<g id="a_node29"><a xlink:title=" ">
<polygon fill="#e0e0e0" stroke="#999999" points="683.5,-74 604.5,-74 604.5,-55 683.5,-55 683.5,-74"/>
<text text-anchor="middle" x="644" y="-62" font-family="Helvetica,sans-Serif" font-size="10.00">Ark/String.hpp</text>
</a>
</g>
</g>
<!-- Node25&#45;&gt;Node29 -->
<g id="edge53" class="edge">
<title>Node25&#45;&gt;Node29</title>
<path fill="none" stroke="#63b8ff" d="M717.9,-109.51C704.4,-101.47 684.35,-89.53 668.54,-80.11"/>
<polygon fill="#63b8ff" stroke="#63b8ff" points="670.56,-77.24 660.18,-75.13 666.98,-83.26 670.56,-77.24"/>
</g>
<!-- Node30 -->
<g id="node30" class="node">
<title>Node30</title>
<g id="a_node30"><a xlink:href="../../dc/dd5/Closure_8hpp.html" target="_top" xlink:title="Subtype of the value type, handling closures.">
<polygon fill="white" stroke="#666666" points="548,-74 416,-74 416,-55 548,-55 548,-74"/>
<text text-anchor="middle" x="482" y="-62" font-family="Helvetica,sans-Serif" font-size="10.00">Ark/VM/Value/Closure.hpp</text>
</a>
</g>
</g>
<!-- Node25&#45;&gt;Node30 -->
<g id="edge55" class="edge">
<title>Node25&#45;&gt;Node30</title>
<path fill="none" stroke="#63b8ff" d="M690.42,-109.51C647.65,-100.48 581.63,-86.54 535.38,-76.77"/>
<polygon fill="#63b8ff" stroke="#63b8ff" points="536.36,-73.4 525.85,-74.76 534.91,-80.25 536.36,-73.4"/>
</g>
<!-- Node31 -->
<g id="node31" class="node">
<title>Node31</title>
<g id="a_node31"><a xlink:href="../../dc/d3d/UserType_8hpp.html" target="_top" xlink:title="Subtype of the value, capable of handling any C++ type.">
<polygon fill="white" stroke="#666666" points="360,-74 220,-74 220,-55 360,-55 360,-74"/>
<text text-anchor="middle" x="290" y="-62" font-family="Helvetica,sans-Serif" font-size="10.00">Ark/VM/Value/UserType.hpp</text>
</a>
</g>
</g>
<!-- Node25&#45;&gt;Node31 -->
<g id="edge60" class="edge">
<title>Node25&#45;&gt;Node31</title>
<path fill="none" stroke="#63b8ff" d="M685.29,-111.86C680.46,-111.22 675.63,-110.59 671,-110 567.73,-96.89 448.53,-83.2 371.35,-74.53"/>
<polygon fill="#63b8ff" stroke="#63b8ff" points="372.1,-71.09 361.78,-73.45 371.32,-78.04 372.1,-71.09"/>
</g>
<!-- Node32 -->
<g id="node32" class="node">
<title>Node32</title>
<g id="a_node32"><a xlink:title=" ">
<polygon fill="#e0e0e0" stroke="#999999" points="780.5,-74 701.5,-74 701.5,-55 780.5,-55 780.5,-74"/>
<text text-anchor="middle" x="741" y="-62" font-family="Helvetica,sans-Serif" font-size="10.00">inline/Value.inl</text>
</a>
</g>
</g>
<!-- Node25&#45;&gt;Node32 -->
<g id="edge67" class="edge">
<title>Node25&#45;&gt;Node32</title>
<path fill="none" stroke="#63b8ff" d="M734.32,-109.75C735.31,-103.19 736.71,-93.95 737.97,-85.6"/>
<polygon fill="#63b8ff" stroke="#63b8ff" points="741.39,-86.35 739.42,-75.94 734.47,-85.3 741.39,-86.35"/>
</g>
<!-- Node30&#45;&gt;Node3 -->
<g id="edge57" class="edge">
<title>Node30&#45;&gt;Node3</title>
<path fill="none" stroke="#63b8ff" d="M548.4,-57.24C668.9,-45.87 919.52,-22.24 1010.27,-13.68"/>
<polygon fill="#63b8ff" stroke="#63b8ff" points="1010.37,-17.19 1019.99,-12.76 1009.71,-10.22 1010.37,-17.19"/>
</g>
<!-- Node30&#45;&gt;Node8 -->
<g id="edge59" class="edge">
<title>Node30&#45;&gt;Node8</title>
<path fill="none" stroke="#63b8ff" d="M444.85,-54.51C408.01,-45.59 351.38,-31.89 311.12,-22.15"/>
<polygon fill="#63b8ff" stroke="#63b8ff" points="311.98,-18.75 301.44,-19.8 310.33,-25.56 311.98,-18.75"/>
</g>
<!-- Node30&#45;&gt;Node26 -->
<g id="edge58" class="edge">
<title>Node30&#45;&gt;Node26</title>
<path fill="none" stroke="#63b8ff" d="M466.05,-54.51C451.65,-46.39 430.21,-34.3 413.44,-24.85"/>
<polygon fill="#63b8ff" stroke="#63b8ff" points="415.46,-21.96 405.03,-20.1 412.02,-28.06 415.46,-21.96"/>
</g>
<!-- Node30&#45;&gt;Node27 -->
<g id="edge56" class="edge">
<title>Node30&#45;&gt;Node27</title>
<path fill="none" stroke="#63b8ff" d="M489.76,-54.75C496.19,-47.5 505.51,-36.98 513.46,-28.02"/>
<polygon fill="#63b8ff" stroke="#63b8ff" points="516.05,-30.38 520.07,-20.57 510.81,-25.73 516.05,-30.38"/>
</g>
<!-- Node31&#45;&gt;Node3 -->
<g id="edge62" class="edge">
<title>Node31&#45;&gt;Node3</title>
<path fill="none" stroke="#63b8ff" d="M360.22,-58.37C375.63,-57.25 391.87,-56.08 407,-55 637.68,-38.56 915.39,-19.37 1010.3,-12.82"/>
<polygon fill="#63b8ff" stroke="#63b8ff" points="1010.47,-16.32 1020.2,-12.14 1009.99,-9.33 1010.47,-16.32"/>
</g>
<!-- Node31&#45;&gt;Node8 -->
<g id="edge65" class="edge">
<title>Node31&#45;&gt;Node8</title>
<path fill="none" stroke="#63b8ff" d="M285.54,-54.75C282.05,-47.88 277.05,-38.08 272.65,-29.45"/>
<polygon fill="#63b8ff" stroke="#63b8ff" points="275.9,-28.11 268.24,-20.79 269.66,-31.29 275.9,-28.11"/>
</g>
<!-- Node31&#45;&gt;Node26 -->
<g id="edge61" class="edge">
<title>Node31&#45;&gt;Node26</title>
<path fill="none" stroke="#63b8ff" d="M306.62,-54.51C321.78,-46.31 344.42,-34.07 361.97,-24.58"/>
<polygon fill="#63b8ff" stroke="#63b8ff" points="363.16,-27.91 370.29,-20.08 359.83,-21.76 363.16,-27.91"/>
</g>
<!-- Node31&#45;&gt;Node27 -->
<g id="edge64" class="edge">
<title>Node31&#45;&gt;Node27</title>
<path fill="none" stroke="#63b8ff" d="M330.54,-54.51C375.65,-44.51 447.94,-28.48 491.7,-18.77"/>
<polygon fill="#63b8ff" stroke="#63b8ff" points="492.22,-22.24 501.23,-16.66 490.71,-15.41 492.22,-22.24"/>
</g>
<!-- Node31&#45;&gt;Node28 -->
<g id="edge63" class="edge">
<title>Node31&#45;&gt;Node28</title>
<path fill="none" stroke="#63b8ff" d="M266.93,-54.51C244.32,-45.7 209.72,-32.22 184.78,-22.49"/>
<polygon fill="#63b8ff" stroke="#63b8ff" points="186.08,-19.24 175.49,-18.87 183.53,-25.77 186.08,-19.24"/>
</g>
<!-- Node33&#45;&gt;Node4 -->
<g id="edge71" class="edge">
<title>Node33&#45;&gt;Node4</title>
<path fill="none" stroke="#63b8ff" d="M1390.48,-164.63C1416.32,-143.37 1464.55,-103.71 1491.5,-81.54"/>
<polygon fill="#63b8ff" stroke="#63b8ff" points="1493.72,-84.25 1499.22,-75.19 1489.27,-78.84 1493.72,-84.25"/>
</g>
<!-- Node33&#45;&gt;Node9 -->
<g id="edge72" class="edge">
<title>Node33&#45;&gt;Node9</title>
<path fill="none" stroke="#63b8ff" d="M1445.09,-166.52C1505.35,-156.09 1590.43,-141.37 1647.99,-131.41"/>
<polygon fill="#63b8ff" stroke="#63b8ff" points="1648.37,-134.89 1657.63,-129.74 1647.18,-127.99 1648.37,-134.89"/>
</g>
<!-- Node34 -->
<g id="node34" class="node">
<title>Node34</title>
<g id="a_node34"><a xlink:title=" ">
<polygon fill="#e0e0e0" stroke="#999999" points="1417,-129 1365,-129 1365,-110 1417,-110 1417,-129"/>
<text text-anchor="middle" x="1391" y="-117" font-family="Helvetica,sans-Serif" font-size="10.00">sstream</text>
</a>
</g>
</g>
<!-- Node33&#45;&gt;Node34 -->
<g id="edge70" class="edge">
<title>Node33&#45;&gt;Node34</title>
<path fill="none" stroke="#63b8ff" d="M1377.45,-164.54C1379.72,-157.17 1382.51,-148.1 1384.97,-140.11"/>
<polygon fill="#63b8ff" stroke="#63b8ff" points="1388.29,-141.21 1387.89,-130.62 1381.6,-139.15 1388.29,-141.21"/>
</g>
<!-- Node35&#45;&gt;Node4 -->
<g id="edge87" class="edge">
<title>Node35&#45;&gt;Node4</title>
<path fill="none" stroke="#63b8ff" d="M1924.78,-296.89C1948.11,-289.01 1974.59,-277.39 1995,-261 2031.75,-231.5 2062.84,-206.21 2040,-165 2017.64,-124.66 1995.64,-124.93 1952,-110 1876.12,-84.04 1631.43,-70.85 1543.14,-66.85"/>
<polygon fill="#63b8ff" stroke="#63b8ff" points="1543.41,-63.36 1533.27,-66.41 1543.1,-70.35 1543.41,-63.36"/>
</g>
<!-- Node35&#45;&gt;Node6 -->
<g id="edge88" class="edge">
<title>Node35&#45;&gt;Node6</title>
<path fill="none" stroke="#63b8ff" d="M1924.75,-309.92C2066.23,-305.67 2433,-284.64 2433,-181 2433,-181 2433,-181 2433,-118.5 2433,-64.7 2257.78,-29.68 2177.42,-16.45"/>
<polygon fill="#63b8ff" stroke="#63b8ff" points="2178.21,-13.03 2167.78,-14.89 2177.1,-19.94 2178.21,-13.03"/>
</g>
<!-- Node35&#45;&gt;Node9 -->
<g id="edge74" class="edge">
<title>Node35&#45;&gt;Node9</title>
<path fill="none" stroke="#63b8ff" d="M1844.05,-296.55C1812.25,-277.47 1759.04,-240.87 1730,-195 1719.52,-178.45 1714.81,-156.39 1712.7,-140.58"/>
<polygon fill="#63b8ff" stroke="#63b8ff" points="1716.22,-140.53 1711.67,-130.96 1709.26,-141.28 1716.22,-140.53"/>
</g>
<!-- Node35&#45;&gt;Node21 -->
<g id="edge86" class="edge">
<title>Node35&#45;&gt;Node21</title>
<path fill="none" stroke="#63b8ff" d="M1904.52,-296.51C1941.81,-278.74 1999.2,-244.72 2024,-195 2029.95,-183.07 2031.91,-175.73 2024,-165 2003.32,-136.96 1965.2,-126.05 1933.37,-122.04"/>
<polygon fill="#63b8ff" stroke="#63b8ff" points="1933.79,-118.56 1923.48,-121.01 1933.06,-125.52 1933.79,-118.56"/>
</g>
<!-- Node36 -->
<g id="node36" class="node">
<title>Node36</title>
<g id="a_node36"><a xlink:href="../../d7/dfb/MacroScope_8hpp.html" target="_top" xlink:title="Defines tools to handle macro definitions.">
<polygon fill="white" stroke="#666666" points="2014.5,-195 1905.5,-195 1905.5,-165 2014.5,-165 2014.5,-195"/>
<text text-anchor="start" x="1913.5" y="-183" font-family="Helvetica,sans-Serif" font-size="10.00">Ark/Compiler/Macros</text>
<text text-anchor="middle" x="1960" y="-172" font-family="Helvetica,sans-Serif" font-size="10.00">/MacroScope.hpp</text>
</a>
</g>
</g>
<!-- Node35&#45;&gt;Node36 -->
<g id="edge75" class="edge">
<title>Node35&#45;&gt;Node36</title>
<path fill="none" stroke="#63b8ff" d="M1879.98,-296.59C1895.32,-274.43 1924.87,-231.75 1943.45,-204.91"/>
<polygon fill="#63b8ff" stroke="#63b8ff" points="1946.3,-206.93 1949.12,-196.72 1940.55,-202.95 1946.3,-206.93"/>
</g>
<!-- Node37 -->
<g id="node37" class="node">
<title>Node37</title>
<g id="a_node37"><a xlink:href="../../d4/d1a/Executor_8hpp.html" target="_top" xlink:title="The base class for all MacroExecutors.">
<polygon fill="white" stroke="#666666" points="1848.5,-195 1739.5,-195 1739.5,-165 1848.5,-165 1848.5,-195"/>
<text text-anchor="start" x="1747.5" y="-183" font-family="Helvetica,sans-Serif" font-size="10.00">Ark/Compiler/Macros</text>
<text text-anchor="middle" x="1794" y="-172" font-family="Helvetica,sans-Serif" font-size="10.00">/Executor.hpp</text>
</a>
</g>
</g>
<!-- Node35&#45;&gt;Node37 -->
<g id="edge79" class="edge">
<title>Node35&#45;&gt;Node37</title>
<path fill="none" stroke="#63b8ff" d="M1861.58,-296.59C1848.68,-274.53 1823.89,-232.12 1808.19,-205.26"/>
<polygon fill="#63b8ff" stroke="#63b8ff" points="1811.29,-203.65 1803.23,-196.78 1805.25,-207.18 1811.29,-203.65"/>
</g>
<!-- Node38 -->
<g id="node38" class="node">
<title>Node38</title>
<g id="a_node38"><a xlink:href="../../d4/daa/Pipeline_8hpp.html" target="_top" xlink:title="The Chain of Responsibility class for running nodes through MacroExecutors.">
<polygon fill="white" stroke="#666666" points="1167.5,-261 1058.5,-261 1058.5,-231 1167.5,-231 1167.5,-261"/>
<text text-anchor="start" x="1066.5" y="-249" font-family="Helvetica,sans-Serif" font-size="10.00">Ark/Compiler/Macros</text>
<text text-anchor="middle" x="1113" y="-238" font-family="Helvetica,sans-Serif" font-size="10.00">/Pipeline.hpp</text>
</a>
</g>
</g>
<!-- Node35&#45;&gt;Node38 -->
<g id="edge82" class="edge">
<title>Node35&#45;&gt;Node38</title>
<path fill="none" stroke="#63b8ff" d="M1815.12,-307.93C1702.46,-301.38 1436.99,-284.69 1215,-261 1203.42,-259.76 1191.12,-258.25 1179.23,-256.68"/>
<polygon fill="#63b8ff" stroke="#63b8ff" points="1179.86,-253.23 1169.48,-255.37 1178.92,-260.17 1179.86,-253.23"/>
</g>
<!-- Node36&#45;&gt;Node4 -->
<g id="edge78" class="edge">
<title>Node36&#45;&gt;Node4</title>
<path fill="none" stroke="#63b8ff" d="M1958.29,-164.76C1955.53,-148.67 1948.52,-123.02 1931,-110 1869.74,-64.46 1630.31,-63.56 1543.04,-64.81"/>
<polygon fill="#63b8ff" stroke="#63b8ff" points="1543.23,-61.31 1533.29,-64.97 1543.35,-68.31 1543.23,-61.31"/>
</g>
<!-- Node36&#45;&gt;Node9 -->
<g id="edge76" class="edge">
<title>Node36&#45;&gt;Node9</title>
<path fill="none" stroke="#63b8ff" d="M1905.05,-166.09C1861.75,-155.92 1801.94,-141.87 1760.21,-132.06"/>
<polygon fill="#63b8ff" stroke="#63b8ff" points="1761.22,-128.7 1750.68,-129.82 1759.62,-135.52 1761.22,-128.7"/>
</g>
<!-- Node36&#45;&gt;Node21 -->
<g id="edge77" class="edge">
<title>Node36&#45;&gt;Node21</title>
<path fill="none" stroke="#63b8ff" d="M1940.22,-164.54C1928.25,-155.78 1912.99,-144.63 1900.83,-135.73"/>
<polygon fill="#63b8ff" stroke="#63b8ff" points="1903.22,-133.15 1893.09,-130.07 1899.09,-138.8 1903.22,-133.15"/>
</g>
<!-- Node37&#45;&gt;Node9 -->
<g id="edge81" class="edge">
<title>Node37&#45;&gt;Node9</title>
<path fill="none" stroke="#63b8ff" d="M1773.48,-164.54C1761.06,-155.78 1745.23,-144.63 1732.61,-135.73"/>
<polygon fill="#63b8ff" stroke="#63b8ff" points="1734.74,-132.95 1724.55,-130.05 1730.7,-138.67 1734.74,-132.95"/>
</g>
<!-- Node37&#45;&gt;Node21 -->
<g id="edge80" class="edge">
<title>Node37&#45;&gt;Node21</title>
<path fill="none" stroke="#63b8ff" d="M1815.26,-164.54C1828.18,-155.75 1844.66,-144.54 1857.75,-135.63"/>
<polygon fill="#63b8ff" stroke="#63b8ff" points="1859.44,-138.72 1865.74,-130.2 1855.51,-132.93 1859.44,-138.72"/>
</g>
<!-- Node38&#45;&gt;Node3 -->
<g id="edge83" class="edge">
<title>Node38&#45;&gt;Node3</title>
<path fill="none" stroke="#63b8ff" d="M1058.25,-236.26C1013.74,-227.91 956.1,-213.81 942,-195 919.34,-164.77 922.93,-142.61 942,-110 958.48,-81.83 982.62,-96.76 1006,-74 1019.09,-61.26 1029.36,-43.08 1035.91,-29.44"/>
<polygon fill="#63b8ff" stroke="#63b8ff" points="1038.95,-31.19 1039.89,-20.64 1032.58,-28.31 1038.95,-31.19"/>
</g>
<!-- Node38&#45;&gt;Node27 -->
<g id="edge84" class="edge">
<title>Node38&#45;&gt;Node27</title>
<path fill="none" stroke="#63b8ff" d="M1058.25,-238.54C1018.79,-232.04 965.41,-219.32 924,-195 849.47,-151.22 865.41,-95.42 789,-55 717.08,-16.96 619.76,-10.29 566.94,-9.76"/>
<polygon fill="#63b8ff" stroke="#63b8ff" points="566.95,-6.26 556.95,-9.74 566.94,-13.26 566.95,-6.26"/>
</g>
<!-- Node38&#45;&gt;Node37 -->
<g id="edge85" class="edge">
<title>Node38&#45;&gt;Node37</title>
<path fill="none" stroke="#63b8ff" d="M1167.99,-236.94C1183.2,-234.85 1199.72,-232.71 1215,-231 1312.82,-220.07 1597.86,-196.76 1727.92,-186.29"/>
<polygon fill="#63b8ff" stroke="#63b8ff" points="1728.07,-189.78 1737.75,-185.49 1727.5,-182.81 1728.07,-189.78"/>
</g>
</g>
</svg>
