<?xml version="1.0" encoding="UTF-8" standalone="no"?>
<!DOCTYPE svg PUBLIC "-//W3C//DTD SVG 1.1//EN"
 "http://www.w3.org/Graphics/SVG/1.1/DTD/svg11.dtd">
<!-- Generated by graphviz version 10.0.1 (20240210.2158)
 -->
<!-- Title: /Users/fola/Documents/ArkScript/Ark/include/Ark/Compiler/Compiler.hpp Pages: 1 -->
<!--zoomable 271 -->
<svg id="main" version="1.1" xmlns="http://www.w3.org/2000/svg" xmlns:xlink="http://www.w3.org/1999/xlink" xml:space="preserve" onload="init(evt)">
<style type="text/css"><![CDATA[
.edge:hover path { stroke: red; }
.edge:hover polygon { stroke: red; fill: red; }
]]></style>
<script type="text/javascript"><![CDATA[
var edges = document.getElementsByTagName('g');
if (edges && edges.length) {
  for (var i=0;i<edges.length;i++) {
    if (edges[i].id.substr(0,4)=='edge') {
      edges[i].setAttribute('class','edge');
    }
  }
}
]]></script>
        <defs>
                <circle id="rim" cx="0" cy="0" r="7"/>
                <circle id="rim2" cx="0" cy="0" r="3.5"/>
                <g id="zoomPlus">
                        <use xlink:href="#rim" fill="#404040">
                                <set attributeName="fill" to="#808080" begin="zoomplus.mouseover" end="zoomplus.mouseout"/>
                        </use>
                        <path d="M-4,0h8M0,-4v8" fill="none" stroke="white" stroke-width="1.5" pointer-events="none"/>
                </g>
                <g id="zoomMin">
                        <use xlink:href="#rim" fill="#404040">
                                <set attributeName="fill" to="#808080" begin="zoomminus.mouseover" end="zoomminus.mouseout"/>
                        </use>
                        <path d="M-4,0h8" fill="none" stroke="white" stroke-width="1.5" pointer-events="none"/>
                </g>
                <g id="dirArrow">
                        <path fill="none" stroke="white" stroke-width="1.5" d="M0,-3.0v7 M-2.5,-0.5L0,-3.0L2.5,-0.5"/>
                </g>
               <g id="resetDef">
                       <use xlink:href="#rim2" fill="#404040">
                               <set attributeName="fill" to="#808080" begin="reset.mouseover" end="reset.mouseout"/>
                       </use>
               </g>
        </defs>

<script type="text/javascript">
var viewWidth = 686;
var viewHeight = 271;
var sectionId = 'dynsection-0';
</script>
<script xlink:href="../../svgpan.js"/>
<svg id="graph" class="graph">
<g id="viewport">
<title>/Users/fola/Documents/ArkScript/Ark/include/Ark/Compiler/Compiler.hpp</title>
<!-- Node1 -->
<g id="node1" class="node">
<title>Node1</title>
<g id="a_node1"><a xlink:title="ArkScript compiler is in charge of transforming the AST into bytecode.">
<polygon fill="#999999" stroke="#666666" points="243.84,-262.75 107.84,-262.75 107.84,-221 243.84,-221 243.84,-262.75"/>
<text text-anchor="start" x="115.84" y="-249.25" font-family="Helvetica,sans-Serif" font-size="10.00">/Users/fola/Documents</text>
<text text-anchor="start" x="115.84" y="-238" font-family="Helvetica,sans-Serif" font-size="10.00">/ArkScript/Ark/include</text>
<text text-anchor="middle" x="175.84" y="-226.75" font-family="Helvetica,sans-Serif" font-size="10.00">/Ark/Compiler/Compiler.hpp</text>
</a>
</g>
</g>
<!-- Node2 -->
<g id="node2" class="node">
<title>Node2</title>
<g id="a_node2"><a xlink:title=" ">
<polygon fill="#e0e0e0" stroke="#999999" points="330.34,-19.25 287.34,-19.25 287.34,0 330.34,0 330.34,-19.25"/>
<text text-anchor="middle" x="308.84" y="-5.75" font-family="Helvetica,sans-Serif" font-size="10.00">vector</text>
</a>
</g>
</g>
<!-- Node1&#45;&gt;Node2 -->
<g id="edge1" class="edge">
<title>Node1&#45;&gt;Node2</title>
<path fill="none" stroke="#63b8ff" d="M107.56,-237.32C70.46,-231.48 27.46,-217.51 3.84,-185 -7.16,-169.87 8.38,-135.58 18.84,-110.5 29.76,-84.31 27.56,-71.47 50.84,-55.25 86.77,-30.22 214.74,-17.59 275.87,-12.87"/>
<polygon fill="#63b8ff" stroke="#63b8ff" points="275.93,-16.38 285.65,-12.14 275.41,-9.4 275.93,-16.38"/>
</g>
<!-- Node3 -->
<g id="node3" class="node">
<title>Node3</title>
<g id="a_node3"><a xlink:title=" ">
<polygon fill="#e0e0e0" stroke="#999999" points="280.84,-74.5 240.84,-74.5 240.84,-55.25 280.84,-55.25 280.84,-74.5"/>
<text text-anchor="middle" x="260.84" y="-61" font-family="Helvetica,sans-Serif" font-size="10.00">string</text>
</a>
</g>
</g>
<!-- Node1&#45;&gt;Node3 -->
<g id="edge2" class="edge">
<title>Node1&#45;&gt;Node3</title>
<path fill="none" stroke="#63b8ff" d="M179.01,-220.82C181.91,-205.33 186.96,-183.59 194.84,-165.75 208.49,-134.83 231.44,-102.88 246.36,-83.7"/>
<polygon fill="#63b8ff" stroke="#63b8ff" points="248.92,-86.09 252.4,-76.08 243.44,-81.74 248.92,-86.09"/>
</g>
<!-- Node4 -->
<g id="node4" class="node">
<title>Node4</title>
<g id="a_node4"><a xlink:title=" ">
<polygon fill="#e0e0e0" stroke="#999999" points="79.71,-185 23.96,-185 23.96,-165.75 79.71,-165.75 79.71,-185"/>
<text text-anchor="middle" x="51.84" y="-171.5" font-family="Helvetica,sans-Serif" font-size="10.00">cinttypes</text>
</a>
</g>
</g>
<!-- Node1&#45;&gt;Node4 -->
<g id="edge3" class="edge">
<title>Node1&#45;&gt;Node4</title>
<path fill="none" stroke="#63b8ff" d="M136.94,-220.64C118.12,-210.85 95.99,-199.34 79.01,-190.51"/>
<polygon fill="#63b8ff" stroke="#63b8ff" points="81.01,-187.6 70.52,-186.09 77.78,-193.81 81.01,-187.6"/>
</g>
<!-- Node5 -->
<g id="node5" class="node">
<title>Node5</title>
<g id="a_node5"><a xlink:title=" ">
<polygon fill="#e0e0e0" stroke="#999999" points="147.71,-185 97.96,-185 97.96,-165.75 147.71,-165.75 147.71,-185"/>
<text text-anchor="middle" x="122.84" y="-171.5" font-family="Helvetica,sans-Serif" font-size="10.00">optional</text>
</a>
</g>
</g>
<!-- Node1&#45;&gt;Node5 -->
<g id="edge4" class="edge">
<title>Node1&#45;&gt;Node5</title>
<path fill="none" stroke="#63b8ff" d="M159.36,-220.82C152.37,-212.31 144.29,-202.48 137.51,-194.23"/>
<polygon fill="#63b8ff" stroke="#63b8ff" points="140.31,-192.12 131.25,-186.61 134.9,-196.56 140.31,-192.12"/>
</g>
<!-- Node6 -->
<g id="node6" class="node">
<title>Node6</title>
<g id="a_node6"><a xlink:href="../../d5/d40/Platform_8hpp.html" target="_top" xlink:title="ArkScript configuration macros.">
<polygon fill="white" stroke="#666666" points="149.59,-74.5 60.09,-74.5 60.09,-55.25 149.59,-55.25 149.59,-74.5"/>
<text text-anchor="middle" x="104.84" y="-61" font-family="Helvetica,sans-Serif" font-size="10.00">Ark/Platform.hpp</text>
</a>
</g>
</g>
<!-- Node1&#45;&gt;Node6 -->
<g id="edge5" class="edge">
<title>Node1&#45;&gt;Node6</title>
<path fill="none" stroke="#63b8ff" d="M107.71,-235.31C73.93,-228.71 35.94,-214.65 14.84,-185 -12.31,-146.84 43.69,-103.21 78.99,-80.84"/>
<polygon fill="#63b8ff" stroke="#63b8ff" points="80.76,-83.86 87.45,-75.65 77.1,-77.89 80.76,-83.86"/>
</g>
<!-- Node7 -->
<g id="node7" class="node">
<title>Node7</title>
<g id="a_node7"><a xlink:href="../../d8/daa/Instructions_8hpp.html" target="_top" xlink:title="The different instructions used by the compiler and virtual machine.">
<polygon fill="white" stroke="#666666" points="349.71,-185 203.96,-185 203.96,-165.75 349.71,-165.75 349.71,-185"/>
<text text-anchor="middle" x="276.84" y="-171.5" font-family="Helvetica,sans-Serif" font-size="10.00">Ark/Compiler/Instructions.hpp</text>
</a>
</g>
</g>
<!-- Node1&#45;&gt;Node7 -->
<g id="edge6" class="edge">
<title>Node1&#45;&gt;Node7</title>
<path fill="none" stroke="#63b8ff" d="M207.52,-220.64C222.27,-211.22 239.52,-200.21 253.13,-191.52"/>
<polygon fill="#63b8ff" stroke="#63b8ff" points="254.9,-194.54 261.44,-186.21 251.13,-188.64 254.9,-194.54"/>
</g>
<!-- Node8 -->
<g id="node8" class="node">
<title>Node8</title>
<g id="a_node8"><a xlink:href="../../db/d53/Word_8hpp.html" target="_top" xlink:title="Describe an instruction and its immediate argument.">
<polygon fill="white" stroke="#666666" points="485.46,-185 368.21,-185 368.21,-165.75 485.46,-165.75 485.46,-185"/>
<text text-anchor="middle" x="426.84" y="-171.5" font-family="Helvetica,sans-Serif" font-size="10.00">Ark/Compiler/Word.hpp</text>
</a>
</g>
</g>
<!-- Node1&#45;&gt;Node8 -->
<g id="edge7" class="edge">
<title>Node1&#45;&gt;Node8</title>
<path fill="none" stroke="#63b8ff" d="M244.09,-223.34C287.43,-212.2 342.36,-198.08 380.63,-188.25"/>
<polygon fill="#63b8ff" stroke="#63b8ff" points="381.17,-191.73 389.98,-185.85 379.42,-184.95 381.17,-191.73"/>
</g>
<!-- Node9 -->
<g id="node9" class="node">
<title>Node9</title>
<g id="a_node9"><a xlink:href="../../d7/dc6/Node_8hpp.html" target="_top" xlink:title="AST node used by the parser, optimizer and compiler.">
<polygon fill="white" stroke="#666666" points="522.09,-129.75 381.59,-129.75 381.59,-110.5 522.09,-110.5 522.09,-129.75"/>
<text text-anchor="middle" x="451.84" y="-116.25" font-family="Helvetica,sans-Serif" font-size="10.00">Ark/Compiler/AST/Node.hpp</text>
</a>
</g>
</g>
<!-- Node1&#45;&gt;Node9 -->
<g id="edge8" class="edge">
<title>Node1&#45;&gt;Node9</title>
<path fill="none" stroke="#63b8ff" d="M243.91,-238.07C372.14,-232.08 639.17,-216 666.84,-185 708.98,-137.79 610.98,-124.78 533.78,-121.57"/>
<polygon fill="#63b8ff" stroke="#63b8ff" points="534.19,-118.08 524.07,-121.22 533.94,-125.08 534.19,-118.08"/>
</g>
<!-- Node15 -->
<g id="node15" class="node">
<title>Node15</title>
<g id="a_node15"><a xlink:href="../../dd/de7/ValTableElem_8hpp.html" target="_top" xlink:title="The basic value type handled by the compiler.">
<polygon fill="white" stroke="#666666" points="657.84,-185 503.84,-185 503.84,-165.75 657.84,-165.75 657.84,-185"/>
<text text-anchor="middle" x="580.84" y="-171.5" font-family="Helvetica,sans-Serif" font-size="10.00">Ark/Compiler/ValTableElem.hpp</text>
</a>
</g>
</g>
<!-- Node1&#45;&gt;Node15 -->
<g id="edge18" class="edge">
<title>Node1&#45;&gt;Node15</title>
<path fill="none" stroke="#63b8ff" d="M244.08,-230.01C318.81,-218.11 437.93,-199.13 512.64,-187.24"/>
<polygon fill="#63b8ff" stroke="#63b8ff" points="512.96,-190.73 522.29,-185.7 511.86,-183.82 512.96,-190.73"/>
</g>
<!-- Node9&#45;&gt;Node2 -->
<g id="edge12" class="edge">
<title>Node9&#45;&gt;Node2</title>
<path fill="none" stroke="#63b8ff" d="M394.03,-110.07C370.68,-103.7 345.21,-92.87 327.84,-74.5 316.76,-62.78 312.12,-44.9 310.18,-31.03"/>
<polygon fill="#63b8ff" stroke="#63b8ff" points="313.68,-30.83 309.21,-21.22 306.71,-31.52 313.68,-30.83"/>
</g>
<!-- Node9&#45;&gt;Node3 -->
<g id="edge11" class="edge">
<title>Node9&#45;&gt;Node3</title>
<path fill="none" stroke="#63b8ff" d="M419.44,-110.09C383.96,-100.2 327.46,-84.45 292.34,-74.66"/>
<polygon fill="#63b8ff" stroke="#63b8ff" points="293.35,-71.3 282.77,-71.99 291.47,-78.05 293.35,-71.3"/>
</g>
<!-- Node9&#45;&gt;Node6 -->
<g id="edge17" class="edge">
<title>Node9&#45;&gt;Node6</title>
<path fill="none" stroke="#63b8ff" d="M392.58,-110.03C327.76,-100.08 224.63,-84.26 161.04,-74.5"/>
<polygon fill="#63b8ff" stroke="#63b8ff" points="161.94,-71.1 151.53,-73.04 160.88,-78.02 161.94,-71.1"/>
</g>
<!-- Node10 -->
<g id="node10" class="node">
<title>Node10</title>
<g id="a_node10"><a xlink:title=" ">
<polygon fill="#e0e0e0" stroke="#999999" points="603.46,-74.5 558.21,-74.5 558.21,-55.25 603.46,-55.25 603.46,-74.5"/>
<text text-anchor="middle" x="580.84" y="-61" font-family="Helvetica,sans-Serif" font-size="10.00">variant</text>
</a>
</g>
</g>
<!-- Node9&#45;&gt;Node10 -->
<g id="edge9" class="edge">
<title>Node9&#45;&gt;Node10</title>
<path fill="none" stroke="#63b8ff" d="M473.72,-110.09C494.2,-101.64 525.05,-88.9 548.39,-79.27"/>
<polygon fill="#63b8ff" stroke="#63b8ff" points="549.54,-82.58 557.45,-75.53 546.87,-76.11 549.54,-82.58"/>
</g>
<!-- Node11 -->
<g id="node11" class="node">
<title>Node11</title>
<g id="a_node11"><a xlink:title=" ">
<polygon fill="#e0e0e0" stroke="#999999" points="540.46,-74.5 489.21,-74.5 489.21,-55.25 540.46,-55.25 540.46,-74.5"/>
<text text-anchor="middle" x="514.84" y="-61" font-family="Helvetica,sans-Serif" font-size="10.00">ostream</text>
</a>
</g>
</g>
<!-- Node9&#45;&gt;Node11 -->
<g id="edge10" class="edge">
<title>Node9&#45;&gt;Node11</title>
<path fill="none" stroke="#63b8ff" d="M462.53,-110.09C471.54,-102.47 484.67,-91.37 495.52,-82.2"/>
<polygon fill="#63b8ff" stroke="#63b8ff" points="497.78,-84.88 503.15,-75.75 493.26,-79.53 497.78,-84.88"/>
</g>
<!-- Node12 -->
<g id="node12" class="node">
<title>Node12</title>
<g id="a_node12"><a xlink:href="../../d8/ddd/Common_8hpp.html" target="_top" xlink:title="Common code for the compiler.">
<polygon fill="white" stroke="#666666" points="471.09,-74.5 336.59,-74.5 336.59,-55.25 471.09,-55.25 471.09,-74.5"/>
<text text-anchor="middle" x="403.84" y="-61" font-family="Helvetica,sans-Serif" font-size="10.00">Ark/Compiler/Common.hpp</text>
</a>
</g>
</g>
<!-- Node9&#45;&gt;Node12 -->
<g id="edge13" class="edge">
<title>Node9&#45;&gt;Node12</title>
<path fill="none" stroke="#63b8ff" d="M443.91,-110.33C437.28,-102.98 427.62,-92.26 419.45,-83.19"/>
<polygon fill="#63b8ff" stroke="#63b8ff" points="422.25,-81.07 412.95,-75.98 417.05,-85.75 422.25,-81.07"/>
</g>
<!-- Node12&#45;&gt;Node2 -->
<g id="edge16" class="edge">
<title>Node12&#45;&gt;Node2</title>
<path fill="none" stroke="#63b8ff" d="M387.72,-54.84C373.26,-46.73 351.76,-34.68 334.86,-25.21"/>
<polygon fill="#63b8ff" stroke="#63b8ff" points="336.79,-22.28 326.35,-20.44 333.37,-28.39 336.79,-22.28"/>
</g>
<!-- Node13 -->
<g id="node13" class="node">
<title>Node13</title>
<g id="a_node13"><a xlink:title=" ">
<polygon fill="#e0e0e0" stroke="#999999" points="403.71,-19.25 365.96,-19.25 365.96,0 403.71,0 403.71,-19.25"/>
<text text-anchor="middle" x="384.84" y="-5.75" font-family="Helvetica,sans-Serif" font-size="10.00">array</text>
</a>
</g>
</g>
<!-- Node12&#45;&gt;Node13 -->
<g id="edge14" class="edge">
<title>Node12&#45;&gt;Node13</title>
<path fill="none" stroke="#63b8ff" d="M400.7,-55.08C398.3,-48.34 394.88,-38.77 391.84,-30.24"/>
<polygon fill="#63b8ff" stroke="#63b8ff" points="395.21,-29.28 388.55,-21.03 388.62,-31.63 395.21,-29.28"/>
</g>
<!-- Node14 -->
<g id="node14" class="node">
<title>Node14</title>
<g id="a_node14"><a xlink:title=" ">
<polygon fill="#e0e0e0" stroke="#999999" points="487.59,-19.25 422.09,-19.25 422.09,0 487.59,0 487.59,-19.25"/>
<text text-anchor="middle" x="454.84" y="-5.75" font-family="Helvetica,sans-Serif" font-size="10.00">string_view</text>
</a>
</g>
</g>
<!-- Node12&#45;&gt;Node14 -->
<g id="edge15" class="edge">
<title>Node12&#45;&gt;Node14</title>
<path fill="none" stroke="#63b8ff" d="M412.26,-55.08C419.38,-47.65 429.78,-36.79 438.52,-27.66"/>
<polygon fill="#63b8ff" stroke="#63b8ff" points="440.8,-30.35 445.19,-20.7 435.74,-25.5 440.8,-30.35"/>
</g>
<!-- Node15&#45;&gt;Node3 -->
<g id="edge20" class="edge">
<title>Node15&#45;&gt;Node3</title>
<path fill="none" stroke="#63b8ff" d="M513.3,-165.27C471.85,-158.38 418.21,-147.08 372.84,-129.75 339.8,-117.13 304.89,-95.76 282.99,-81.25"/>
<polygon fill="#63b8ff" stroke="#63b8ff" points="285.13,-78.47 274.89,-75.78 281.22,-84.27 285.13,-78.47"/>
</g>
<!-- Node15&#45;&gt;Node9 -->
<g id="edge21" class="edge">
<title>Node15&#45;&gt;Node9</title>
<path fill="none" stroke="#63b8ff" d="M558.96,-165.34C538.48,-156.89 507.63,-144.15 484.28,-134.52"/>
<polygon fill="#63b8ff" stroke="#63b8ff" points="485.81,-131.36 475.23,-130.78 483.14,-137.83 485.81,-131.36"/>
</g>
<!-- Node15&#45;&gt;Node10 -->
<g id="edge19" class="edge">
<title>Node15&#45;&gt;Node10</title>
<path fill="none" stroke="#63b8ff" d="M580.84,-165.5C580.84,-148.25 580.84,-109.83 580.84,-86.06"/>
<polygon fill="#63b8ff" stroke="#63b8ff" points="584.34,-86.39 580.84,-76.39 577.34,-86.39 584.34,-86.39"/>
</g>
</g>
</svg>
        <g id="navigator" transform="translate(0 0)" fill="#404254">
                <rect fill="#f2f5e9" fill-opacity="0.5" stroke="#606060" stroke-width=".5" x="0" y="0" width="60" height="60"/>
                <use id="zoomplus" xlink:href="#zoomPlus" x="17" y="9" onmousedown="handleZoom(evt,'in')"/>
                <use id="zoomminus" xlink:href="#zoomMin" x="42" y="9" onmousedown="handleZoom(evt,'out')"/>
                <use id="reset" xlink:href="#resetDef" x="30" y="36" onmousedown="handleReset()"/>
                <g id="arrowUp" xlink:href="#dirArrow" transform="translate(30 24)" onmousedown="handlePan(0,-1)">
                  <use xlink:href="#rim" fill="#404040">
                        <set attributeName="fill" to="#808080" begin="arrowUp.mouseover" end="arrowUp.mouseout"/>
                  </use>
                  <path fill="none" stroke="white" stroke-width="1.5" d="M0,-3.0v7 M-2.5,-0.5L0,-3.0L2.5,-0.5"/>
                </g>
                <g id="arrowRight" xlink:href="#dirArrow" transform="rotate(90) translate(36 -43)" onmousedown="handlePan(1,0)">
                  <use xlink:href="#rim" fill="#404040">
                        <set attributeName="fill" to="#808080" begin="arrowRight.mouseover" end="arrowRight.mouseout"/>
                  </use>
                  <path fill="none" stroke="white" stroke-width="1.5" d="M0,-3.0v7 M-2.5,-0.5L0,-3.0L2.5,-0.5"/>
                </g>
                <g id="arrowDown" xlink:href="#dirArrow" transform="rotate(180) translate(-30 -48)" onmousedown="handlePan(0,1)">
                  <use xlink:href="#rim" fill="#404040">
                        <set attributeName="fill" to="#808080" begin="arrowDown.mouseover" end="arrowDown.mouseout"/>
                  </use>
                  <path fill="none" stroke="white" stroke-width="1.5" d="M0,-3.0v7 M-2.5,-0.5L0,-3.0L2.5,-0.5"/>
                </g>
                <g id="arrowLeft" xlink:href="#dirArrow" transform="rotate(270) translate(-36 17)" onmousedown="handlePan(-1,0)">
                  <use xlink:href="#rim" fill="#404040">
                        <set attributeName="fill" to="#808080" begin="arrowLeft.mouseover" end="arrowLeft.mouseout"/>
                  </use>
                  <path fill="none" stroke="white" stroke-width="1.5" d="M0,-3.0v7 M-2.5,-0.5L0,-3.0L2.5,-0.5"/>
                </g>
        </g>
        <svg viewBox="0 0 15 15" width="100%" height="30px" preserveAspectRatio="xMaxYMin meet">
         <g id="arrow_out" transform="scale(0.3 0.3)">
          <a xlink:href="Compiler_8hpp__incl_org.svg" target="_base">
           <rect id="button" ry="5" rx="5" y="6" x="6" height="38" width="38"
                fill="#f2f5e9" fill-opacity="0.5" stroke="#606060" stroke-width="1.0"/>
           <path id="arrow"
             d="M 11.500037,31.436501 C 11.940474,20.09759 22.043105,11.32322 32.158766,21.979434 L 37.068811,17.246167 C 37.068811,17.246167 37.088388,32 37.088388,32 L 22.160133,31.978069 C 22.160133,31.978069 26.997745,27.140456 26.997745,27.140456 C 18.528582,18.264221 13.291696,25.230495 11.500037,31.436501 z"
             style="fill:#404040;"/>
          </a>
         </g>
        </svg>
</svg>
