<?xml version="1.0" encoding="UTF-8" standalone="no"?>
<!DOCTYPE svg PUBLIC "-//W3C//DTD SVG 1.1//EN"
 "http://www.w3.org/Graphics/SVG/1.1/DTD/svg11.dtd">
<!-- Generated by graphviz version 7.1.0 (20230121.1956)
 -->
<!-- Title: Ark::internal::MacroProcessor Pages: 1 -->
<svg width="2711pt" height="341pt"
 viewBox="0.00 0.00 2711.00 340.50" xmlns="http://www.w3.org/2000/svg" xmlns:xlink="http://www.w3.org/1999/xlink">
<g id="graph0" class="graph" transform="scale(1 1) rotate(0) translate(4 336.5)">
<title>Ark::internal::MacroProcessor</title>
<!-- Node1 -->
<g id="node1" class="node">
<title>Node1</title>
<g id="a_node1"><a xlink:title="The class handling the macros definitions and calls, given an AST.">
<polygon fill="#999999" stroke="#666666" points="1753,-144 1607,-144 1607,-125 1753,-125 1753,-144"/>
<text text-anchor="middle" x="1680" y="-132" font-family="Helvetica,sans-Serif" font-size="10.00">Ark::internal::MacroProcessor</text>
</a>
</g>
</g>
<!-- Node16 -->
<g id="node16" class="node">
<title>Node16</title>
<g id="a_node16"><a xlink:href="../../d5/d8f/classArk_1_1internal_1_1MacroExecutor.html" target="_top" xlink:title="A class that applies macros in a Node.">
<polygon fill="white" stroke="#666666" points="2017,-104 1876,-104 1876,-85 2017,-85 2017,-104"/>
<text text-anchor="middle" x="1946.5" y="-92" font-family="Helvetica,sans-Serif" font-size="10.00">Ark::internal::MacroExecutor</text>
</a>
</g>
</g>
<!-- Node1&#45;&gt;Node16 -->
<g id="edge21" class="edge">
<title>Node1&#45;&gt;Node16</title>
<path fill="none" stroke="#9a32cd" stroke-dasharray="5,2" d="M1723.69,-121.53C1738.55,-117.44 1755.39,-113.28 1771,-110.5 1805.15,-104.43 1843.48,-100.59 1875.51,-98.2"/>
<polygon fill="#9a32cd" stroke="#9a32cd" points="1722.91,-118.12 1714.23,-124.21 1724.81,-124.85 1722.91,-118.12"/>
<text text-anchor="middle" x="1814.5" y="-113.5" font-family="Helvetica,sans-Serif" font-size="10.00"> m_macroprocessor</text>
</g>
<!-- Node2 -->
<g id="node2" class="node">
<title>Node2</title>
<g id="a_node2"><a xlink:href="../../dc/d9e/classArk_1_1internal_1_1Node.html" target="_top" xlink:title="A node of an Abstract Syntax Tree for ArkScript.">
<polygon fill="white" stroke="#666666" points="700.5,-203 602.5,-203 602.5,-184 700.5,-184 700.5,-203"/>
<text text-anchor="middle" x="651.5" y="-191" font-family="Helvetica,sans-Serif" font-size="10.00">Ark::internal::Node</text>
</a>
</g>
</g>
<!-- Node2&#45;&gt;Node1 -->
<g id="edge1" class="edge">
<title>Node2&#45;&gt;Node1</title>
<path fill="none" stroke="#9a32cd" stroke-dasharray="5,2" d="M712.17,-187.48C769.2,-182.24 857.62,-175.5 934.5,-175.5 934.5,-175.5 934.5,-175.5 1461,-175.5 1528.01,-175.5 1604.64,-156.56 1646.85,-144.42"/>
<polygon fill="#9a32cd" stroke="#9a32cd" points="711.98,-183.98 702.35,-188.39 712.63,-190.95 711.98,-183.98"/>
<text text-anchor="middle" x="1144.5" y="-178.5" font-family="Helvetica,sans-Serif" font-size="10.00"> m_ast</text>
</g>
<!-- Node3 -->
<g id="node3" class="node">
<title>Node3</title>
<g id="a_node3"><a xlink:title=" ">
<polygon fill="white" stroke="#666666" points="477,-184.5 353,-184.5 353,-154.5 477,-154.5 477,-184.5"/>
<text text-anchor="start" x="361" y="-172.5" font-family="Helvetica,sans-Serif" font-size="10.00">std::vector&lt; Ark::internal</text>
<text text-anchor="middle" x="415" y="-161.5" font-family="Helvetica,sans-Serif" font-size="10.00">::Node &gt;</text>
</a>
</g>
</g>
<!-- Node2&#45;&gt;Node3 -->
<g id="edge3" class="edge">
<title>Node2&#45;&gt;Node3</title>
<path fill="none" stroke="#9a32cd" stroke-dasharray="5,2" d="M620.76,-178.86C606.15,-172.47 588.05,-165.71 571,-162.5 540.42,-156.75 505.89,-157.61 477.19,-160.29"/>
<polygon fill="#9a32cd" stroke="#9a32cd" points="619.25,-182.02 629.8,-182.99 622.15,-175.65 619.25,-182.02"/>
<text text-anchor="middle" x="533" y="-165.5" font-family="Helvetica,sans-Serif" font-size="10.00"> elements</text>
</g>
<!-- Node10 -->
<g id="node10" class="node">
<title>Node10</title>
<g id="a_node10"><a xlink:title=" ">
<polygon fill="white" stroke="#666666" points="987,-273 884,-273 884,-232 987,-232 987,-273"/>
<text text-anchor="start" x="892" y="-261" font-family="Helvetica,sans-Serif" font-size="10.00">std::unordered_map</text>
<text text-anchor="start" x="892" y="-250" font-family="Helvetica,sans-Serif" font-size="10.00">&lt; std::string, Ark::</text>
<text text-anchor="middle" x="935.5" y="-239" font-family="Helvetica,sans-Serif" font-size="10.00">internal::Node &gt;</text>
</a>
</g>
</g>
<!-- Node2&#45;&gt;Node10 -->
<g id="edge12" class="edge">
<title>Node2&#45;&gt;Node10</title>
<path fill="none" stroke="#9a32cd" stroke-dasharray="5,2" d="M711.2,-205.78C762.24,-216.46 835.43,-231.77 883.93,-241.92"/>
<polygon fill="#9a32cd" stroke="#9a32cd" points="712,-202.37 701.5,-203.75 710.57,-209.23 712,-202.37"/>
<text text-anchor="middle" x="799" y="-239.5" font-family="Helvetica,sans-Serif" font-size="10.00"> elements</text>
</g>
<!-- Node3&#45;&gt;Node2 -->
<g id="edge2" class="edge">
<title>Node3&#45;&gt;Node2</title>
<path fill="none" stroke="#9a32cd" stroke-dasharray="5,2" d="M488.52,-176.92C525.45,-180.7 569.35,-185.19 602.12,-188.55"/>
<polygon fill="#9a32cd" stroke="#9a32cd" points="489.12,-173.46 478.81,-175.93 488.4,-180.43 489.12,-173.46"/>
<text text-anchor="middle" x="533" y="-187.5" font-family="Helvetica,sans-Serif" font-size="10.00"> m_list</text>
</g>
<!-- Node4 -->
<g id="node4" class="node">
<title>Node4</title>
<g id="a_node4"><a xlink:title=" ">
<polygon fill="white" stroke="#666666" points="203,-117 116,-117 116,-98 203,-98 203,-117"/>
<text text-anchor="middle" x="159.5" y="-105" font-family="Helvetica,sans-Serif" font-size="10.00">std::vector&lt; T &gt;</text>
</a>
</g>
</g>
<!-- Node4&#45;&gt;Node3 -->
<g id="edge4" class="edge">
<title>Node4&#45;&gt;Node3</title>
<path fill="none" stroke="orange" stroke-dasharray="5,2" d="M187.44,-122.74C199.76,-129.12 214.77,-136.06 229,-140.5 269.19,-153.03 316.06,-160.3 352.57,-164.43"/>
<polygon fill="orange" stroke="orange" points="189.19,-119.71 178.72,-118.08 185.88,-125.88 189.19,-119.71"/>
<text text-anchor="middle" x="282" y="-164.5" font-family="Helvetica,sans-Serif" font-size="10.00"> &lt; Ark::internal::Node &gt;</text>
</g>
<!-- Node8 -->
<g id="node8" class="node">
<title>Node8</title>
<g id="a_node8"><a xlink:title=" ">
<polygon fill="white" stroke="#666666" points="1522,-147.5 1398,-147.5 1398,-117.5 1522,-117.5 1522,-147.5"/>
<text text-anchor="start" x="1406" y="-135.5" font-family="Helvetica,sans-Serif" font-size="10.00">std::vector&lt; Ark::internal</text>
<text text-anchor="middle" x="1460" y="-124.5" font-family="Helvetica,sans-Serif" font-size="10.00">::MacroScope &gt;</text>
</a>
</g>
</g>
<!-- Node4&#45;&gt;Node8 -->
<g id="edge16" class="edge">
<title>Node4&#45;&gt;Node8</title>
<path fill="none" stroke="orange" stroke-dasharray="5,2" d="M214.62,-113.91C265.89,-119.43 345.07,-126.5 414,-126.5 414,-126.5 414,-126.5 1145.5,-126.5 1233.14,-126.5 1334.54,-128.87 1397.73,-130.63"/>
<polygon fill="orange" stroke="orange" points="215.31,-110.47 204.99,-112.86 214.55,-117.43 215.31,-110.47"/>
<text text-anchor="middle" x="799" y="-129.5" font-family="Helvetica,sans-Serif" font-size="10.00"> &lt; Ark::internal::MacroScope &gt;</text>
</g>
<!-- Node14 -->
<g id="node14" class="node">
<title>Node14</title>
<g id="a_node14"><a xlink:title=" ">
<polygon fill="white" stroke="#666666" points="2466,-99.5 2282,-99.5 2282,-69.5 2466,-69.5 2466,-99.5"/>
<text text-anchor="start" x="2290" y="-87.5" font-family="Helvetica,sans-Serif" font-size="10.00">std::vector&lt; std::shared</text>
<text text-anchor="middle" x="2374" y="-76.5" font-family="Helvetica,sans-Serif" font-size="10.00">_ptr&lt; Ark::internal::MacroExecutor &gt; &gt;</text>
</a>
</g>
</g>
<!-- Node4&#45;&gt;Node14 -->
<g id="edge24" class="edge">
<title>Node4&#45;&gt;Node14</title>
<path fill="none" stroke="orange" stroke-dasharray="5,2" d="M193.3,-93.22C240.95,-73.82 332.53,-41.5 414,-41.5 414,-41.5 414,-41.5 2136.5,-41.5 2200.14,-41.5 2271.89,-56.76 2319.49,-69.1"/>
<polygon fill="orange" stroke="orange" points="192.01,-89.97 184.11,-97.04 194.69,-96.44 192.01,-89.97"/>
<text text-anchor="start" x="1235" y="-55.5" font-family="Helvetica,sans-Serif" font-size="10.00"> &lt; std::shared_ptr&lt;</text>
<text text-anchor="middle" x="1307.5" y="-44.5" font-family="Helvetica,sans-Serif" font-size="10.00"> Ark::internal::MacroExecutor &gt; &gt;</text>
</g>
<!-- Node18 -->
<g id="node18" class="node">
<title>Node18</title>
<g id="a_node18"><a xlink:title=" ">
<polygon fill="white" stroke="#666666" points="714,-97 589,-97 589,-78 714,-78 714,-97"/>
<text text-anchor="middle" x="651.5" y="-85" font-family="Helvetica,sans-Serif" font-size="10.00">std::vector&lt; std::string &gt;</text>
</a>
</g>
</g>
<!-- Node4&#45;&gt;Node18 -->
<g id="edge27" class="edge">
<title>Node4&#45;&gt;Node18</title>
<path fill="none" stroke="orange" stroke-dasharray="5,2" d="M214.36,-105.3C306.03,-101.56 491.86,-93.98 588.69,-90.02"/>
<polygon fill="orange" stroke="orange" points="214.49,-101.79 204.64,-105.7 214.77,-108.79 214.49,-101.79"/>
<text text-anchor="middle" x="415" y="-101.5" font-family="Helvetica,sans-Serif" font-size="10.00"> &lt; std::string &gt;</text>
</g>
<!-- Node5 -->
<g id="node5" class="node">
<title>Node5</title>
<g id="a_node5"><a xlink:title=" ">
<polygon fill="white" stroke="#666666" points="29,-117 0,-117 0,-98 29,-98 29,-117"/>
<text text-anchor="middle" x="14.5" y="-105" font-family="Helvetica,sans-Serif" font-size="10.00">T</text>
</a>
</g>
</g>
<!-- Node5&#45;&gt;Node4 -->
<g id="edge5" class="edge">
<title>Node5&#45;&gt;Node4</title>
<path fill="none" stroke="#9a32cd" stroke-dasharray="5,2" d="M40.8,-107.5C61.54,-107.5 91.35,-107.5 115.78,-107.5"/>
<polygon fill="#9a32cd" stroke="#9a32cd" points="40.99,-104 30.99,-107.5 40.99,-111 40.99,-104"/>
<text text-anchor="middle" x="68.5" y="-110.5" font-family="Helvetica,sans-Serif" font-size="10.00"> elements</text>
</g>
<!-- Node11 -->
<g id="node11" class="node">
<title>Node11</title>
<g id="a_node11"><a xlink:title=" ">
<polygon fill="white" stroke="#666666" points="211,-332.5 108,-332.5 108,-302.5 211,-302.5 211,-332.5"/>
<text text-anchor="start" x="116" y="-320.5" font-family="Helvetica,sans-Serif" font-size="10.00">std::unordered_map</text>
<text text-anchor="middle" x="159.5" y="-309.5" font-family="Helvetica,sans-Serif" font-size="10.00">&lt; K, T &gt;</text>
</a>
</g>
</g>
<!-- Node5&#45;&gt;Node11 -->
<g id="edge15" class="edge">
<title>Node5&#45;&gt;Node11</title>
<path fill="none" stroke="#9a32cd" stroke-dasharray="5,2" d="M22.11,-127.92C34.39,-163.35 63.57,-237.09 108,-285.5 113.83,-291.85 121.18,-297.44 128.46,-302.11"/>
<polygon fill="#9a32cd" stroke="#9a32cd" points="25.58,-127.26 19.08,-118.89 18.94,-129.49 25.58,-127.26"/>
<text text-anchor="middle" x="68.5" y="-262.5" font-family="Helvetica,sans-Serif" font-size="10.00"> elements</text>
</g>
<!-- Node17 -->
<g id="node17" class="node">
<title>Node17</title>
<g id="a_node17"><a xlink:title=" ">
<polygon fill="white" stroke="#666666" points="335,-19 229,-19 229,0 335,0 335,-19"/>
<text text-anchor="middle" x="282" y="-7" font-family="Helvetica,sans-Serif" font-size="10.00">std::shared_ptr&lt; T &gt;</text>
</a>
</g>
</g>
<!-- Node5&#45;&gt;Node17 -->
<g id="edge23" class="edge">
<title>Node5&#45;&gt;Node17</title>
<path fill="none" stroke="#9a32cd" stroke-dasharray="5,2" d="M39.77,-95.64C42.2,-94.55 44.64,-93.48 47,-92.5 126.32,-59.55 147.97,-55.99 229,-27.5 236.48,-24.87 244.58,-22.05 252.1,-19.45"/>
<polygon fill="#9a32cd" stroke="#9a32cd" points="38.41,-92.41 30.85,-99.83 41.39,-98.75 38.41,-92.41"/>
<text text-anchor="middle" x="68.5" y="-95.5" font-family="Helvetica,sans-Serif" font-size="10.00"> ptr</text>
</g>
<!-- Node6 -->
<g id="node6" class="node">
<title>Node6</title>
<g id="a_node6"><a xlink:title=" ">
<polygon fill="white" stroke="#666666" points="445,-271 385,-271 385,-252 445,-252 445,-271"/>
<text text-anchor="middle" x="415" y="-259" font-family="Helvetica,sans-Serif" font-size="10.00">std::string</text>
</a>
</g>
</g>
<!-- Node6&#45;&gt;Node2 -->
<g id="edge6" class="edge">
<title>Node6&#45;&gt;Node2</title>
<path fill="none" stroke="#9a32cd" stroke-dasharray="5,2" d="M456.45,-259.99C488.32,-257.8 533.48,-252.47 571,-239.5 596.02,-230.85 622.02,-214.08 637.21,-203.35"/>
<polygon fill="#9a32cd" stroke="#9a32cd" points="456.62,-256.47 446.85,-260.57 457.05,-263.46 456.62,-256.47"/>
<text text-anchor="middle" x="533" y="-258.5" font-family="Helvetica,sans-Serif" font-size="10.00"> m_filename</text>
</g>
<!-- Node6&#45;&gt;Node10 -->
<g id="edge11" class="edge">
<title>Node6&#45;&gt;Node10</title>
<path fill="none" stroke="#9a32cd" stroke-dasharray="5,2" d="M456.55,-267.01C468.87,-268.45 482.47,-269.79 495,-270.5 635.67,-278.49 801.86,-265.61 883.72,-257.8"/>
<polygon fill="#9a32cd" stroke="#9a32cd" points="457.05,-263.55 446.7,-265.81 456.2,-270.5 457.05,-263.55"/>
<text text-anchor="middle" x="651.5" y="-275.5" font-family="Helvetica,sans-Serif" font-size="10.00"> keys</text>
</g>
<!-- Node6&#45;&gt;Node18 -->
<g id="edge26" class="edge">
<title>Node6&#45;&gt;Node18</title>
<path fill="none" stroke="#9a32cd" stroke-dasharray="5,2" d="M447.61,-246.84C461.97,-240.35 479.23,-232.78 495,-226.5 528.3,-213.23 542.41,-221.12 571,-199.5 573.48,-197.62 624.9,-124.16 643.7,-97.25"/>
<polygon fill="#9a32cd" stroke="#9a32cd" points="446.3,-243.59 438.65,-250.92 449.2,-249.96 446.3,-243.59"/>
<text text-anchor="middle" x="533" y="-229.5" font-family="Helvetica,sans-Serif" font-size="10.00"> elements</text>
</g>
<!-- Node7 -->
<g id="node7" class="node">
<title>Node7</title>
<g id="a_node7"><a xlink:title=" ">
<polygon fill="white" stroke="#666666" points="207,-276.5 112,-276.5 112,-246.5 207,-246.5 207,-276.5"/>
<text text-anchor="start" x="120" y="-264.5" font-family="Helvetica,sans-Serif" font-size="10.00">std::basic_string&lt;</text>
<text text-anchor="middle" x="159.5" y="-253.5" font-family="Helvetica,sans-Serif" font-size="10.00"> Char &gt;</text>
</a>
</g>
</g>
<!-- Node7&#45;&gt;Node6 -->
<g id="edge7" class="edge">
<title>Node7&#45;&gt;Node6</title>
<path fill="none" stroke="#63b8ff" d="M218.64,-261.5C270.41,-261.5 344.03,-261.5 384.5,-261.5"/>
<polygon fill="#63b8ff" stroke="#63b8ff" points="218.8,-258 208.8,-261.5 218.8,-265 218.8,-258"/>
</g>
<!-- Node8&#45;&gt;Node1 -->
<g id="edge8" class="edge">
<title>Node8&#45;&gt;Node1</title>
<path fill="none" stroke="#9a32cd" stroke-dasharray="5,2" d="M1533.61,-133.17C1557.09,-133.38 1583.11,-133.62 1606.58,-133.84"/>
<polygon fill="#9a32cd" stroke="#9a32cd" points="1533.85,-129.67 1523.82,-133.08 1533.79,-136.67 1533.85,-129.67"/>
<text text-anchor="middle" x="1564.5" y="-136.5" font-family="Helvetica,sans-Serif" font-size="10.00"> m_macros</text>
</g>
<!-- Node9 -->
<g id="node9" class="node">
<title>Node9</title>
<g id="a_node9"><a xlink:href="../../d6/d42/classArk_1_1internal_1_1MacroScope.html" target="_top" xlink:title=" ">
<polygon fill="white" stroke="#666666" points="1209.5,-224 1079.5,-224 1079.5,-205 1209.5,-205 1209.5,-224"/>
<text text-anchor="middle" x="1144.5" y="-212" font-family="Helvetica,sans-Serif" font-size="10.00">Ark::internal::MacroScope</text>
</a>
</g>
</g>
<!-- Node9&#45;&gt;Node8 -->
<g id="edge9" class="edge">
<title>Node9&#45;&gt;Node8</title>
<path fill="none" stroke="#9a32cd" stroke-dasharray="5,2" d="M1194.58,-201.66C1250.07,-187.15 1340.4,-163.52 1399.76,-147.99"/>
<polygon fill="#9a32cd" stroke="#9a32cd" points="1193.88,-198.23 1185.09,-204.14 1195.65,-205 1193.88,-198.23"/>
<text text-anchor="middle" x="1307.5" y="-192.5" font-family="Helvetica,sans-Serif" font-size="10.00"> elements</text>
</g>
<!-- Node10&#45;&gt;Node1 -->
<g id="edge28" class="edge">
<title>Node10&#45;&gt;Node1</title>
<path fill="none" stroke="#9a32cd" stroke-dasharray="5,2" d="M998.65,-256.01C1117.11,-260.66 1381.87,-261.17 1589,-189.5 1619.28,-179.02 1650.22,-157.17 1666.77,-144.39"/>
<polygon fill="#9a32cd" stroke="#9a32cd" points="998.96,-252.52 988.82,-255.6 998.66,-259.52 998.96,-252.52"/>
<text text-anchor="middle" x="1307.5" y="-255.5" font-family="Helvetica,sans-Serif" font-size="10.00"> m_defined_functions</text>
</g>
<!-- Node10&#45;&gt;Node9 -->
<g id="edge10" class="edge">
<title>Node10&#45;&gt;Node9</title>
<path fill="none" stroke="#9a32cd" stroke-dasharray="5,2" d="M998.13,-229.19C1000.44,-228.58 1002.73,-228.01 1005,-227.5 1028.91,-222.11 1055.64,-218.95 1079.18,-217.1"/>
<polygon fill="#9a32cd" stroke="#9a32cd" points="997.39,-225.76 988.77,-231.91 999.35,-232.48 997.39,-225.76"/>
<text text-anchor="middle" x="1029.5" y="-230.5" font-family="Helvetica,sans-Serif" font-size="10.00"> m_macros</text>
</g>
<!-- Node11&#45;&gt;Node10 -->
<g id="edge13" class="edge">
<title>Node11&#45;&gt;Node10</title>
<path fill="none" stroke="orange" stroke-dasharray="5,2" d="M222.61,-314.37C325.01,-309.15 535.71,-298.2 714,-287.5 781.58,-283.45 799.76,-291.47 866,-277.5 871.82,-276.27 877.82,-274.65 883.72,-272.83"/>
<polygon fill="orange" stroke="orange" points="222.58,-310.86 212.77,-314.87 222.94,-317.86 222.58,-310.86"/>
<text text-anchor="start" x="495" y="-313.5" font-family="Helvetica,sans-Serif" font-size="10.00"> &lt; std::string, Ark</text>
<text text-anchor="middle" x="533" y="-302.5" font-family="Helvetica,sans-Serif" font-size="10.00">::internal::Node &gt;</text>
</g>
<!-- Node12 -->
<g id="node12" class="node">
<title>Node12</title>
<g id="a_node12"><a xlink:title=" ">
<polygon fill="white" stroke="#666666" points="29,-327 0,-327 0,-308 29,-308 29,-327"/>
<text text-anchor="middle" x="14.5" y="-315" font-family="Helvetica,sans-Serif" font-size="10.00">K</text>
</a>
</g>
</g>
<!-- Node12&#45;&gt;Node11 -->
<g id="edge14" class="edge">
<title>Node12&#45;&gt;Node11</title>
<path fill="none" stroke="#9a32cd" stroke-dasharray="5,2" d="M40.76,-317.5C59.29,-317.5 85.08,-317.5 107.8,-317.5"/>
<polygon fill="#9a32cd" stroke="#9a32cd" points="40.99,-314 30.99,-317.5 40.99,-321 40.99,-314"/>
<text text-anchor="middle" x="68.5" y="-320.5" font-family="Helvetica,sans-Serif" font-size="10.00"> keys</text>
</g>
<!-- Node13 -->
<g id="node13" class="node">
<title>Node13</title>
<g id="a_node13"><a xlink:href="../../d7/d22/classArk_1_1internal_1_1MacroExecutorPipeline.html" target="_top" xlink:title="The class that initializes the MacroExecutors.">
<polygon fill="white" stroke="#666666" points="2703,-125.5 2562,-125.5 2562,-95.5 2703,-95.5 2703,-125.5"/>
<text text-anchor="start" x="2570" y="-113.5" font-family="Helvetica,sans-Serif" font-size="10.00">Ark::internal::MacroExecutor</text>
<text text-anchor="middle" x="2632.5" y="-102.5" font-family="Helvetica,sans-Serif" font-size="10.00">Pipeline</text>
</a>
</g>
</g>
<!-- Node13&#45;&gt;Node1 -->
<g id="edge17" class="edge">
<title>Node13&#45;&gt;Node1</title>
<path fill="none" stroke="#9a32cd" stroke-dasharray="5,2" d="M2550.58,-122.45C2500.19,-128.88 2433.96,-135.5 2375,-135.5 1945.5,-135.5 1945.5,-135.5 1945.5,-135.5 1880.52,-135.5 1806.57,-135.19 1753.41,-134.92"/>
<polygon fill="#9a32cd" stroke="#9a32cd" points="2550.77,-125.95 2560.23,-121.19 2549.86,-119.01 2550.77,-125.95"/>
<text text-anchor="middle" x="2135.5" y="-138.5" font-family="Helvetica,sans-Serif" font-size="10.00"> m_executor_pipeline</text>
</g>
<!-- Node14&#45;&gt;Node13 -->
<g id="edge18" class="edge">
<title>Node14&#45;&gt;Node13</title>
<path fill="none" stroke="#9a32cd" stroke-dasharray="5,2" d="M2477.31,-94.87C2505.59,-97.74 2535.63,-100.78 2561.61,-103.42"/>
<polygon fill="#9a32cd" stroke="#9a32cd" points="2477.96,-91.42 2467.66,-93.89 2477.26,-98.38 2477.96,-91.42"/>
<text text-anchor="middle" x="2514" y="-103.5" font-family="Helvetica,sans-Serif" font-size="10.00"> m_executors</text>
</g>
<!-- Node15 -->
<g id="node15" class="node">
<title>Node15</title>
<g id="a_node15"><a xlink:title=" ">
<polygon fill="white" stroke="#666666" points="2203,-99.5 2068,-99.5 2068,-69.5 2203,-69.5 2203,-99.5"/>
<text text-anchor="start" x="2076" y="-87.5" font-family="Helvetica,sans-Serif" font-size="10.00">std::shared_ptr&lt; Ark</text>
<text text-anchor="middle" x="2135.5" y="-76.5" font-family="Helvetica,sans-Serif" font-size="10.00">::internal::MacroExecutor &gt;</text>
</a>
</g>
</g>
<!-- Node15&#45;&gt;Node14 -->
<g id="edge19" class="edge">
<title>Node15&#45;&gt;Node14</title>
<path fill="none" stroke="#9a32cd" stroke-dasharray="5,2" d="M2214.67,-84.5C2236.1,-84.5 2259.53,-84.5 2281.63,-84.5"/>
<polygon fill="#9a32cd" stroke="#9a32cd" points="2214.84,-81 2204.84,-84.5 2214.84,-88 2214.84,-81"/>
<text text-anchor="middle" x="2242.5" y="-87.5" font-family="Helvetica,sans-Serif" font-size="10.00"> elements</text>
</g>
<!-- Node16&#45;&gt;Node15 -->
<g id="edge20" class="edge">
<title>Node16&#45;&gt;Node15</title>
<path fill="none" stroke="#9a32cd" stroke-dasharray="5,2" d="M2028.74,-90.16C2041.78,-89.46 2055.14,-88.74 2067.79,-88.07"/>
<polygon fill="#9a32cd" stroke="#9a32cd" points="2028.71,-86.65 2018.91,-90.68 2029.08,-93.64 2028.71,-86.65"/>
<text text-anchor="middle" x="2042.5" y="-92.5" font-family="Helvetica,sans-Serif" font-size="10.00"> ptr</text>
</g>
<!-- Node17&#45;&gt;Node15 -->
<g id="edge22" class="edge">
<title>Node17&#45;&gt;Node15</title>
<path fill="none" stroke="orange" stroke-dasharray="5,2" d="M346.8,-6.72C397.09,-4.77 469.01,-2.5 532,-2.5 532,-2.5 532,-2.5 1947.5,-2.5 2013.08,-2.5 2081.53,-45.32 2114.46,-69.08"/>
<polygon fill="orange" stroke="orange" points="346.82,-3.22 336.96,-7.11 347.09,-10.21 346.82,-3.22"/>
<text text-anchor="middle" x="1144.5" y="-5.5" font-family="Helvetica,sans-Serif" font-size="10.00"> &lt; Ark::internal::MacroExecutor &gt;</text>
</g>
<!-- Node18&#45;&gt;Node1 -->
<g id="edge25" class="edge">
<title>Node18&#45;&gt;Node1</title>
<path fill="none" stroke="#9a32cd" stroke-dasharray="5,2" d="M725.8,-87.5C782.72,-87.5 863.62,-87.5 934.5,-87.5 934.5,-87.5 934.5,-87.5 1461,-87.5 1530.69,-87.5 1610.15,-110.74 1651.19,-124.53"/>
<polygon fill="#9a32cd" stroke="#9a32cd" points="725.9,-84 715.9,-87.5 725.9,-91 725.9,-84"/>
<text text-anchor="middle" x="1144.5" y="-90.5" font-family="Helvetica,sans-Serif" font-size="10.00"> m_predefined_macros</text>
</g>
</g>
</svg>
