<?xml version="1.0" encoding="UTF-8" standalone="no"?>
<!DOCTYPE svg PUBLIC "-//W3C//DTD SVG 1.1//EN"
 "http://www.w3.org/Graphics/SVG/1.1/DTD/svg11.dtd">
<!-- Generated by graphviz version 12.1.1 (20240910.0053)
 -->
<!-- Title: Ark::internal::MacroProcessor Pages: 1 -->
<svg width="2284pt" height="268pt"
 viewBox="0.00 0.00 2283.50 267.63" xmlns="http://www.w3.org/2000/svg" xmlns:xlink="http://www.w3.org/1999/xlink">
<g id="graph0" class="graph" transform="scale(1 1) rotate(0) translate(4 263.63)">
<title>Ark::internal::MacroProcessor</title>
<!-- Node1 -->
<g id="Node000001" class="node">
<title>Node1</title>
<g id="a_Node000001"><a xlink:title="The class handling the macros definitions and calls, given an AST.">
<polygon fill="#999999" stroke="#666666" points="1462.5,-160.25 1316.75,-160.25 1316.75,-141 1462.5,-141 1462.5,-160.25"/>
<text text-anchor="middle" x="1389.62" y="-146.75" font-family="Helvetica,sans-Serif" font-size="10.00">Ark::internal::MacroProcessor</text>
</a>
</g>
</g>
<!-- Node16 -->
<g id="Node000016" class="node">
<title>Node16</title>
<g id="a_Node000016"><a xlink:href="../../d5/d8f/classArk_1_1internal_1_1MacroExecutor.html" target="_top" xlink:title="A class that applies macros in a Node.">
<polygon fill="white" stroke="#666666" points="1783.75,-151.25 1643.25,-151.25 1643.25,-132 1783.75,-132 1783.75,-151.25"/>
<text text-anchor="middle" x="1713.5" y="-137.75" font-family="Helvetica,sans-Serif" font-size="10.00">Ark::internal::MacroExecutor</text>
</a>
</g>
</g>
<!-- Node1&#45;&gt;Node16 -->
<g id="edge20_Node000016_Node000001" class="edge">
<title>Node1&#45;&gt;Node16</title>
<g id="a_edge20_Node000016_Node000001"><a xlink:title=" ">
<path fill="none" stroke="#9a32cd" stroke-dasharray="5,2" d="M1474.16,-148.29C1526.61,-146.82 1593.45,-144.95 1642.99,-143.57"/>
<polygon fill="#9a32cd" stroke="#9a32cd" points="1474.27,-144.78 1464.37,-148.56 1474.47,-151.78 1474.27,-144.78"/>
</a>
</g>
<text text-anchor="middle" x="1552.88" y="-149.72" font-family="Helvetica,sans-Serif" font-size="10.00" fill="grey"> m_processor</text>
</g>
<!-- Node2 -->
<g id="Node000002" class="node">
<title>Node2</title>
<g id="a_Node000002"><a xlink:href="../../da/d7b/classArk_1_1internal_1_1Pass.html" target="_top" xlink:title="An interface to describe compiler passes.">
<polygon fill="white" stroke="#666666" points="770.5,-248.25 673.5,-248.25 673.5,-229 770.5,-229 770.5,-248.25"/>
<text text-anchor="middle" x="722" y="-234.75" font-family="Helvetica,sans-Serif" font-size="10.00">Ark::internal::Pass</text>
</a>
</g>
</g>
<!-- Node2&#45;&gt;Node1 -->
<g id="edge1_Node000001_Node000002" class="edge">
<title>Node2&#45;&gt;Node1</title>
<g id="a_edge1_Node000001_Node000002"><a xlink:title=" ">
<path fill="none" stroke="#63b8ff" d="M782.09,-246.94C888.71,-259.61 1118.87,-276.29 1298.75,-214.62 1331.73,-203.32 1363.24,-175.74 1378.7,-160.74"/>
<polygon fill="#63b8ff" stroke="#63b8ff" points="782.79,-243.5 772.44,-245.76 781.94,-250.45 782.79,-243.5"/>
</a>
</g>
</g>
<!-- Node3 -->
<g id="Node000003" class="node">
<title>Node3</title>
<g id="a_Node000003"><a xlink:href="../../d6/d2f/classArk_1_1internal_1_1Logger.html" target="_top" xlink:title=" ">
<polygon fill="white" stroke="#666666" points="412,-248.25 308.25,-248.25 308.25,-229 412,-229 412,-248.25"/>
<text text-anchor="middle" x="360.12" y="-234.75" font-family="Helvetica,sans-Serif" font-size="10.00">Ark::internal::Logger</text>
</a>
</g>
</g>
<!-- Node3&#45;&gt;Node2 -->
<g id="edge2_Node000002_Node000003" class="edge">
<title>Node3&#45;&gt;Node2</title>
<g id="a_edge2_Node000002_Node000003"><a xlink:title=" ">
<path fill="none" stroke="#9a32cd" stroke-dasharray="5,2" d="M423.74,-238.62C494.74,-238.62 608.94,-238.62 673.16,-238.62"/>
<polygon fill="#9a32cd" stroke="#9a32cd" points="423.82,-235.13 413.82,-238.63 423.82,-242.13 423.82,-235.13"/>
</a>
</g>
<text text-anchor="middle" x="482.62" y="-240.38" font-family="Helvetica,sans-Serif" font-size="10.00" fill="grey"> m_logger</text>
</g>
<!-- Node4 -->
<g id="Node000004" class="node">
<title>Node4</title>
<g id="a_Node000004"><a xlink:title=" ">
<polygon fill="white" stroke="#666666" points="190.5,-190.25 131,-190.25 131,-171 190.5,-171 190.5,-190.25"/>
<text text-anchor="middle" x="160.75" y="-176.75" font-family="Helvetica,sans-Serif" font-size="10.00">std::string</text>
</a>
</g>
</g>
<!-- Node4&#45;&gt;Node3 -->
<g id="edge3_Node000003_Node000004" class="edge">
<title>Node4&#45;&gt;Node3</title>
<g id="a_edge3_Node000003_Node000004"><a xlink:title=" ">
<path fill="none" stroke="#9a32cd" stroke-dasharray="5,2" d="M180.48,-197.98C188.54,-204.52 198.42,-211.4 208.5,-215.62 239.97,-228.82 277.97,-234.56 307.93,-237"/>
<polygon fill="#9a32cd" stroke="#9a32cd" points="182.95,-195.49 173.09,-191.62 178.38,-200.8 182.95,-195.49"/>
</a>
</g>
<text text-anchor="middle" x="249.38" y="-236.78" font-family="Helvetica,sans-Serif" font-size="10.00" fill="grey"> m_name</text>
</g>
<!-- Node6 -->
<g id="Node000006" class="node">
<title>Node6</title>
<g id="a_Node000006"><a xlink:href="../../dc/d9e/classArk_1_1internal_1_1Node.html" target="_top" xlink:title="A node of an Abstract Syntax Tree for ArkScript.">
<polygon fill="white" stroke="#666666" points="409,-190.25 311.25,-190.25 311.25,-171 409,-171 409,-190.25"/>
<text text-anchor="middle" x="360.12" y="-176.75" font-family="Helvetica,sans-Serif" font-size="10.00">Ark::internal::Node</text>
</a>
</g>
</g>
<!-- Node4&#45;&gt;Node6 -->
<g id="edge6_Node000006_Node000004" class="edge">
<title>Node4&#45;&gt;Node6</title>
<g id="a_edge6_Node000006_Node000004"><a xlink:title=" ">
<path fill="none" stroke="#9a32cd" stroke-dasharray="5,2" d="M202.32,-180.62C233.9,-180.62 277.8,-180.62 311.12,-180.62"/>
<polygon fill="#9a32cd" stroke="#9a32cd" points="202.39,-177.13 192.39,-180.63 202.39,-184.13 202.39,-177.13"/>
</a>
</g>
<text text-anchor="middle" x="249.38" y="-204.88" font-family="Helvetica,sans-Serif" font-size="10.00" fill="grey"> m_after_comment</text>
<text text-anchor="middle" x="249.38" y="-193.62" font-family="Helvetica,sans-Serif" font-size="10.00" fill="grey">m_comment</text>
<text text-anchor="middle" x="249.38" y="-182.38" font-family="Helvetica,sans-Serif" font-size="10.00" fill="grey">m_filename</text>
</g>
<!-- Node9 -->
<g id="Node000009" class="node">
<title>Node9</title>
<g id="a_Node000009"><a xlink:title=" ">
<polygon fill="white" stroke="#666666" points="655.5,-162.5 553.25,-162.5 553.25,-120.75 655.5,-120.75 655.5,-162.5"/>
<text text-anchor="start" x="561.25" y="-149" font-family="Helvetica,sans-Serif" font-size="10.00">std::unordered_map</text>
<text text-anchor="start" x="561.25" y="-137.75" font-family="Helvetica,sans-Serif" font-size="10.00">&lt; std::string, Ark::</text>
<text text-anchor="middle" x="604.38" y="-126.5" font-family="Helvetica,sans-Serif" font-size="10.00">internal::Node &gt;</text>
</a>
</g>
</g>
<!-- Node4&#45;&gt;Node9 -->
<g id="edge10_Node000009_Node000004" class="edge">
<title>Node4&#45;&gt;Node9</title>
<g id="a_edge10_Node000009_Node000004"><a xlink:title=" ">
<path fill="none" stroke="#9a32cd" stroke-dasharray="5,2" d="M201.98,-170.35C231.24,-163.36 271.93,-154.63 308.25,-150.38 393.65,-140.37 493.85,-139.72 552.79,-140.46"/>
<polygon fill="#9a32cd" stroke="#9a32cd" points="201.33,-166.9 192.44,-172.67 202.98,-173.71 201.33,-166.9"/>
</a>
</g>
<text text-anchor="middle" x="360.12" y="-152.12" font-family="Helvetica,sans-Serif" font-size="10.00" fill="grey"> keys</text>
</g>
<!-- Node5 -->
<g id="Node000005" class="node">
<title>Node5</title>
<g id="a_Node000005"><a xlink:title=" ">
<polygon fill="white" stroke="#666666" points="94,-195.88 0,-195.88 0,-165.38 94,-165.38 94,-195.88"/>
<text text-anchor="start" x="8" y="-182.38" font-family="Helvetica,sans-Serif" font-size="10.00">std::basic_string&lt;</text>
<text text-anchor="middle" x="47" y="-171.12" font-family="Helvetica,sans-Serif" font-size="10.00"> Char &gt;</text>
</a>
</g>
</g>
<!-- Node5&#45;&gt;Node4 -->
<g id="edge4_Node000004_Node000005" class="edge">
<title>Node5&#45;&gt;Node4</title>
<g id="a_edge4_Node000004_Node000005"><a xlink:title=" ">
<path fill="none" stroke="#63b8ff" d="M105.71,-180.62C114.32,-180.62 122.87,-180.62 130.55,-180.62"/>
<polygon fill="#63b8ff" stroke="#63b8ff" points="105.93,-177.13 95.93,-180.63 105.93,-184.13 105.93,-177.13"/>
</a>
</g>
</g>
<!-- Node6&#45;&gt;Node1 -->
<g id="edge5_Node000001_Node000006" class="edge">
<title>Node6&#45;&gt;Node1</title>
<g id="a_edge5_Node000001_Node000006"><a xlink:title=" ">
<path fill="none" stroke="#9a32cd" stroke-dasharray="5,2" d="M420.62,-188.29C469.59,-193.93 540.87,-200.62 603.38,-200.62 603.38,-200.62 603.38,-200.62 1160.62,-200.62 1234.38,-200.62 1318.5,-175.35 1360.97,-160.74"/>
<polygon fill="#9a32cd" stroke="#9a32cd" points="421.13,-184.82 410.79,-187.13 420.31,-191.77 421.13,-184.82"/>
</a>
</g>
<text text-anchor="middle" x="853.12" y="-202.38" font-family="Helvetica,sans-Serif" font-size="10.00" fill="grey"> m_ast</text>
</g>
<!-- Node6&#45;&gt;Node9 -->
<g id="edge11_Node000009_Node000006" class="edge">
<title>Node6&#45;&gt;Node9</title>
<g id="a_edge11_Node000009_Node000006"><a xlink:title=" ">
<path fill="none" stroke="#9a32cd" stroke-dasharray="5,2" d="M420.22,-171.13C453.92,-165.72 496.96,-158.8 535.25,-152.62 540.93,-151.71 546.87,-150.75 552.78,-149.8"/>
<polygon fill="#9a32cd" stroke="#9a32cd" points="419.98,-167.63 410.66,-172.67 421.09,-174.54 419.98,-167.63"/>
</a>
</g>
<text text-anchor="middle" x="482.62" y="-171.03" font-family="Helvetica,sans-Serif" font-size="10.00" fill="grey"> elements</text>
</g>
<!-- Node7 -->
<g id="Node000007" class="node">
<title>Node7</title>
<g id="a_Node000007"><a xlink:title=" ">
<polygon fill="white" stroke="#666666" points="1221.25,-126.88 1098,-126.88 1098,-96.38 1221.25,-96.38 1221.25,-126.88"/>
<text text-anchor="start" x="1106" y="-113.38" font-family="Helvetica,sans-Serif" font-size="10.00">std::vector&lt; Ark::internal</text>
<text text-anchor="middle" x="1159.62" y="-102.12" font-family="Helvetica,sans-Serif" font-size="10.00">::MacroScope &gt;</text>
</a>
</g>
</g>
<!-- Node7&#45;&gt;Node1 -->
<g id="edge7_Node000001_Node000007" class="edge">
<title>Node7&#45;&gt;Node1</title>
<g id="a_edge7_Node000001_Node000007"><a xlink:title=" ">
<path fill="none" stroke="#9a32cd" stroke-dasharray="5,2" d="M1232.94,-119.47C1254.21,-122.17 1277.48,-125.5 1298.75,-129.38 1315.63,-132.45 1334.1,-136.66 1349.88,-140.53"/>
<polygon fill="#9a32cd" stroke="#9a32cd" points="1233.55,-116.02 1223.19,-118.27 1232.69,-122.97 1233.55,-116.02"/>
</a>
</g>
<text text-anchor="middle" x="1274.38" y="-131.12" font-family="Helvetica,sans-Serif" font-size="10.00" fill="grey"> m_macros</text>
</g>
<!-- Node8 -->
<g id="Node000008" class="node">
<title>Node8</title>
<g id="a_Node000008"><a xlink:href="../../d6/d42/classArk_1_1internal_1_1MacroScope.html" target="_top" xlink:title=" ">
<polygon fill="white" stroke="#666666" points="917.75,-126.25 788.5,-126.25 788.5,-107 917.75,-107 917.75,-126.25"/>
<text text-anchor="middle" x="853.12" y="-112.75" font-family="Helvetica,sans-Serif" font-size="10.00">Ark::internal::MacroScope</text>
</a>
</g>
</g>
<!-- Node8&#45;&gt;Node7 -->
<g id="edge8_Node000007_Node000008" class="edge">
<title>Node8&#45;&gt;Node7</title>
<g id="a_edge8_Node000007_Node000008"><a xlink:title=" ">
<path fill="none" stroke="#9a32cd" stroke-dasharray="5,2" d="M929.43,-115.39C981.29,-114.54 1049.29,-113.42 1097.73,-112.62"/>
<polygon fill="#9a32cd" stroke="#9a32cd" points="929.41,-111.89 919.47,-115.55 929.53,-118.89 929.41,-111.89"/>
</a>
</g>
<text text-anchor="middle" x="1002.5" y="-117.03" font-family="Helvetica,sans-Serif" font-size="10.00" fill="grey"> elements</text>
</g>
<!-- Node9&#45;&gt;Node1 -->
<g id="edge24_Node000001_Node000009" class="edge">
<title>Node9&#45;&gt;Node1</title>
<g id="a_edge24_Node000001_Node000009"><a xlink:title=" ">
<path fill="none" stroke="#9a32cd" stroke-dasharray="5,2" d="M667.01,-142.33C809.99,-143.98 1163.67,-148.04 1316.44,-149.8"/>
<polygon fill="#9a32cd" stroke="#9a32cd" points="667.42,-138.84 657.38,-142.22 667.33,-145.84 667.42,-138.84"/>
</a>
</g>
<text text-anchor="middle" x="1002.5" y="-148.7" font-family="Helvetica,sans-Serif" font-size="10.00" fill="grey"> m_defined_functions</text>
</g>
<!-- Node9&#45;&gt;Node8 -->
<g id="edge9_Node000008_Node000009" class="edge">
<title>Node9&#45;&gt;Node8</title>
<g id="a_edge9_Node000008_Node000009"><a xlink:title=" ">
<path fill="none" stroke="#9a32cd" stroke-dasharray="5,2" d="M667.25,-130.21C669.35,-129.91 671.44,-129.63 673.5,-129.38 711.44,-124.62 754.16,-121.49 788.31,-119.53"/>
<polygon fill="#9a32cd" stroke="#9a32cd" points="666.74,-126.74 657.37,-131.7 667.79,-133.66 666.74,-126.74"/>
</a>
</g>
<text text-anchor="middle" x="722" y="-131.12" font-family="Helvetica,sans-Serif" font-size="10.00" fill="grey"> m_macros</text>
</g>
<!-- Node10 -->
<g id="Node000010" class="node">
<title>Node10</title>
<g id="a_Node000010"><a xlink:title=" ">
<polygon fill="white" stroke="#666666" points="411.25,-105.88 309,-105.88 309,-75.38 411.25,-75.38 411.25,-105.88"/>
<text text-anchor="start" x="317" y="-92.38" font-family="Helvetica,sans-Serif" font-size="10.00">std::unordered_map</text>
<text text-anchor="middle" x="360.12" y="-81.12" font-family="Helvetica,sans-Serif" font-size="10.00">&lt; K, T &gt;</text>
</a>
</g>
</g>
<!-- Node10&#45;&gt;Node9 -->
<g id="edge12_Node000009_Node000010" class="edge">
<title>Node10&#45;&gt;Node9</title>
<g id="a_edge12_Node000009_Node000010"><a xlink:title=" ">
<path fill="none" stroke="orange" stroke-dasharray="5,2" d="M422.78,-89.69C456.6,-90.67 498.92,-94.38 535.25,-105.12 547.22,-108.66 559.48,-114.45 570.24,-120.38"/>
<polygon fill="orange" stroke="orange" points="423.24,-86.2 413.17,-89.48 423.09,-93.19 423.24,-86.2"/>
</a>
</g>
<text text-anchor="start" x="444.75" y="-118.12" font-family="Helvetica,sans-Serif" font-size="10.00" fill="grey"> &lt; std::string, Ark</text>
<text text-anchor="middle" x="482.62" y="-106.88" font-family="Helvetica,sans-Serif" font-size="10.00" fill="grey">::internal::Node &gt;</text>
</g>
<!-- Node11 -->
<g id="Node000011" class="node">
<title>Node11</title>
<g id="a_Node000011"><a xlink:title=" ">
<polygon fill="white" stroke="#666666" points="175.15,-125.25 146.35,-125.25 146.35,-106 175.15,-106 175.15,-125.25"/>
<text text-anchor="middle" x="160.75" y="-111.75" font-family="Helvetica,sans-Serif" font-size="10.00">K</text>
</a>
</g>
</g>
<!-- Node11&#45;&gt;Node10 -->
<g id="edge13_Node000010_Node000011" class="edge">
<title>Node11&#45;&gt;Node10</title>
<g id="a_edge13_Node000010_Node000011"><a xlink:title=" ">
<path fill="none" stroke="#9a32cd" stroke-dasharray="5,2" d="M186.93,-112.44C217.48,-108.57 269.73,-101.95 308.68,-97.01"/>
<polygon fill="#9a32cd" stroke="#9a32cd" points="186.61,-108.95 177.13,-113.68 187.49,-115.89 186.61,-108.95"/>
</a>
</g>
<text text-anchor="middle" x="249.38" y="-111.33" font-family="Helvetica,sans-Serif" font-size="10.00" fill="grey"> keys</text>
</g>
<!-- Node12 -->
<g id="Node000012" class="node">
<title>Node12</title>
<g id="a_Node000012"><a xlink:title=" ">
<polygon fill="white" stroke="#666666" points="175.15,-57.25 146.35,-57.25 146.35,-38 175.15,-38 175.15,-57.25"/>
<text text-anchor="middle" x="160.75" y="-43.75" font-family="Helvetica,sans-Serif" font-size="10.00">T</text>
</a>
</g>
</g>
<!-- Node12&#45;&gt;Node10 -->
<g id="edge14_Node000010_Node000012" class="edge">
<title>Node12&#45;&gt;Node10</title>
<g id="a_edge14_Node000010_Node000012"><a xlink:title=" ">
<path fill="none" stroke="#9a32cd" stroke-dasharray="5,2" d="M186.66,-54.26C193.7,-56.07 201.39,-57.98 208.5,-59.62 241.8,-67.32 279.45,-75.07 308.78,-80.9"/>
<polygon fill="#9a32cd" stroke="#9a32cd" points="187.64,-50.9 177.08,-51.75 185.87,-57.67 187.64,-50.9"/>
</a>
</g>
<text text-anchor="middle" x="249.38" y="-78.15" font-family="Helvetica,sans-Serif" font-size="10.00" fill="grey"> elements</text>
</g>
<!-- Node13 -->
<g id="Node000013" class="node">
<title>Node13</title>
<g id="a_Node000013"><a xlink:title=" ">
<polygon fill="white" stroke="#666666" points="896.38,-19.25 809.88,-19.25 809.88,0 896.38,0 896.38,-19.25"/>
<text text-anchor="middle" x="853.12" y="-5.75" font-family="Helvetica,sans-Serif" font-size="10.00">std::vector&lt; T &gt;</text>
</a>
</g>
</g>
<!-- Node12&#45;&gt;Node13 -->
<g id="edge16_Node000013_Node000012" class="edge">
<title>Node12&#45;&gt;Node13</title>
<g id="a_edge16_Node000013_Node000012"><a xlink:title=" ">
<path fill="none" stroke="#9a32cd" stroke-dasharray="5,2" d="M186.95,-44.24C193.92,-43.34 201.5,-42.41 208.5,-41.62 306.78,-30.61 331.28,-26.36 430,-20.38 568.67,-11.97 733.34,-10.12 809.54,-9.72"/>
<polygon fill="#9a32cd" stroke="#9a32cd" points="186.61,-40.76 177.15,-45.53 187.52,-47.7 186.61,-40.76"/>
</a>
</g>
<text text-anchor="middle" x="482.62" y="-22.12" font-family="Helvetica,sans-Serif" font-size="10.00" fill="grey"> elements</text>
</g>
<!-- Node17 -->
<g id="Node000017" class="node">
<title>Node17</title>
<g id="a_Node000017"><a xlink:title=" ">
<polygon fill="white" stroke="#666666" points="535.25,-60.25 430,-60.25 430,-41 535.25,-41 535.25,-60.25"/>
<text text-anchor="middle" x="482.62" y="-46.75" font-family="Helvetica,sans-Serif" font-size="10.00">std::shared_ptr&lt; T &gt;</text>
</a>
</g>
</g>
<!-- Node12&#45;&gt;Node17 -->
<g id="edge22_Node000017_Node000012" class="edge">
<title>Node12&#45;&gt;Node17</title>
<g id="a_edge22_Node000017_Node000012"><a xlink:title=" ">
<path fill="none" stroke="#9a32cd" stroke-dasharray="5,2" d="M186.66,-46.84C193.72,-46.65 201.41,-46.47 208.5,-46.38 285.44,-45.35 374.56,-47.33 429.52,-48.92"/>
<polygon fill="#9a32cd" stroke="#9a32cd" points="186.66,-43.33 176.76,-47.12 186.86,-50.33 186.66,-43.33"/>
</a>
</g>
<text text-anchor="middle" x="249.38" y="-48.12" font-family="Helvetica,sans-Serif" font-size="10.00" fill="grey"> ptr</text>
</g>
<!-- Node13&#45;&gt;Node7 -->
<g id="edge15_Node000007_Node000013" class="edge">
<title>Node13&#45;&gt;Node7</title>
<g id="a_edge15_Node000007_Node000013"><a xlink:title=" ">
<path fill="none" stroke="orange" stroke-dasharray="5,2" d="M894.78,-23.24C951.05,-42.09 1052.42,-76.05 1111.79,-95.94"/>
<polygon fill="orange" stroke="orange" points="896.18,-20.02 885.59,-20.17 893.96,-26.66 896.18,-20.02"/>
</a>
</g>
<text text-anchor="middle" x="1002.5" y="-83.24" font-family="Helvetica,sans-Serif" font-size="10.00" fill="grey"> &lt; Ark::internal::MacroScope &gt;</text>
</g>
<!-- Node14 -->
<g id="Node000014" class="node">
<title>Node14</title>
<g id="a_Node000014"><a xlink:title=" ">
<polygon fill="white" stroke="#666666" points="2275.5,-69.88 2092.25,-69.88 2092.25,-39.38 2275.5,-39.38 2275.5,-69.88"/>
<text text-anchor="start" x="2100.25" y="-56.38" font-family="Helvetica,sans-Serif" font-size="10.00">std::vector&lt; std::shared</text>
<text text-anchor="middle" x="2183.88" y="-45.12" font-family="Helvetica,sans-Serif" font-size="10.00">_ptr&lt; Ark::internal::MacroExecutor &gt; &gt;</text>
</a>
</g>
</g>
<!-- Node13&#45;&gt;Node14 -->
<g id="edge23_Node000014_Node000013" class="edge">
<title>Node13&#45;&gt;Node14</title>
<g id="a_edge23_Node000014_Node000013"><a xlink:title=" ">
<path fill="none" stroke="orange" stroke-dasharray="5,2" d="M907.72,-9.06C968.54,-8.47 1070.72,-7.63 1158.62,-7.62 1158.62,-7.62 1158.62,-7.62 1947.25,-7.62 2012.74,-7.62 2086.52,-25.3 2133.8,-38.97"/>
<polygon fill="orange" stroke="orange" points="907.97,-5.56 898,-9.16 908.04,-12.56 907.97,-5.56"/>
</a>
</g>
<text text-anchor="start" x="1480.5" y="-20.62" font-family="Helvetica,sans-Serif" font-size="10.00" fill="grey"> &lt; std::shared_ptr&lt;</text>
<text text-anchor="middle" x="1552.88" y="-9.38" font-family="Helvetica,sans-Serif" font-size="10.00" fill="grey"> Ark::internal::MacroExecutor &gt; &gt;</text>
</g>
<!-- Node14&#45;&gt;Node1 -->
<g id="edge17_Node000001_Node000014" class="edge">
<title>Node14&#45;&gt;Node1</title>
<g id="a_edge17_Node000001_Node000014"><a xlink:title=" ">
<path fill="none" stroke="#9a32cd" stroke-dasharray="5,2" d="M2080.73,-58.62C2021.67,-61.52 1946.01,-66.26 1879,-73.62 1719.88,-91.1 1533.4,-123.98 1443.88,-140.55"/>
<polygon fill="#9a32cd" stroke="#9a32cd" points="2080.6,-62.13 2090.42,-58.15 2080.26,-55.13 2080.6,-62.13"/>
</a>
</g>
<text text-anchor="middle" x="1831.38" y="-84.71" font-family="Helvetica,sans-Serif" font-size="10.00" fill="grey"> m_executors</text>
</g>
<!-- Node15 -->
<g id="Node000015" class="node">
<title>Node15</title>
<g id="a_Node000015"><a xlink:title=" ">
<polygon fill="white" stroke="#666666" points="2013.5,-112.88 1879,-112.88 1879,-82.38 2013.5,-82.38 2013.5,-112.88"/>
<text text-anchor="start" x="1887" y="-99.38" font-family="Helvetica,sans-Serif" font-size="10.00">std::shared_ptr&lt; Ark</text>
<text text-anchor="middle" x="1946.25" y="-88.12" font-family="Helvetica,sans-Serif" font-size="10.00">::internal::MacroExecutor &gt;</text>
</a>
</g>
</g>
<!-- Node15&#45;&gt;Node14 -->
<g id="edge18_Node000014_Node000015" class="edge">
<title>Node15&#45;&gt;Node14</title>
<g id="a_edge18_Node000014_Node000015"><a xlink:title=" ">
<path fill="none" stroke="#9a32cd" stroke-dasharray="5,2" d="M2024.9,-83.45C2047.87,-79.26 2073.16,-74.65 2096.63,-70.36"/>
<polygon fill="#9a32cd" stroke="#9a32cd" points="2024.52,-79.97 2015.31,-85.2 2025.78,-86.85 2024.52,-79.97"/>
</a>
</g>
<text text-anchor="middle" x="2052.88" y="-82.99" font-family="Helvetica,sans-Serif" font-size="10.00" fill="grey"> elements</text>
</g>
<!-- Node16&#45;&gt;Node15 -->
<g id="edge19_Node000015_Node000016" class="edge">
<title>Node16&#45;&gt;Node15</title>
<g id="a_edge19_Node000015_Node000016"><a xlink:title=" ">
<path fill="none" stroke="#9a32cd" stroke-dasharray="5,2" d="M1778.64,-129.39C1809.88,-123.44 1847.4,-116.28 1878.92,-110.27"/>
<polygon fill="#9a32cd" stroke="#9a32cd" points="1778.09,-125.94 1768.93,-131.25 1779.4,-132.81 1778.09,-125.94"/>
</a>
</g>
<text text-anchor="middle" x="1831.38" y="-126.61" font-family="Helvetica,sans-Serif" font-size="10.00" fill="grey"> ptr</text>
</g>
<!-- Node17&#45;&gt;Node15 -->
<g id="edge21_Node000015_Node000017" class="edge">
<title>Node17&#45;&gt;Node15</title>
<g id="a_edge21_Node000015_Node000017"><a xlink:title=" ">
<path fill="none" stroke="orange" stroke-dasharray="5,2" d="M546.9,-51.86C594.72,-52.69 661.98,-53.62 721,-53.62 721,-53.62 721,-53.62 1553.88,-53.62 1668.57,-53.63 1801,-72.52 1878.68,-85.54"/>
<polygon fill="orange" stroke="orange" points="547.06,-48.36 537,-51.68 546.94,-55.36 547.06,-48.36"/>
</a>
</g>
<text text-anchor="middle" x="1159.62" y="-55.38" font-family="Helvetica,sans-Serif" font-size="10.00" fill="grey"> &lt; Ark::internal::MacroExecutor &gt;</text>
</g>
</g>
</svg>
