<?xml version="1.0" encoding="UTF-8" standalone="no"?>
<!DOCTYPE svg PUBLIC "-//W3C//DTD SVG 1.1//EN"
 "http://www.w3.org/Graphics/SVG/1.1/DTD/svg11.dtd">
<!-- Generated by graphviz version 12.2.0 (20241103.1931)
 -->
<!-- Title: Ark::internal::MacroProcessor Pages: 1 -->
<!--zoomable 435 -->

<svg id="main" version="1.1" xmlns="http://www.w3.org/2000/svg" xmlns:xlink="http://www.w3.org/1999/xlink" xml:space="preserve" onload="init(evt)">

<style type="text/css"><![CDATA[
.node, .edge {opacity: 0.7;}
.node.selected, .edge.selected {opacity: 1;}
.edge:hover path { stroke: red; }
.edge:hover polygon { stroke: red; fill: red; }
]]></style>

<defs>
  <circle id="rim" cx="0" cy="0" r="7"/>
  <circle id="rim2" cx="0" cy="0" r="3.5"/>
  <g id="zoomPlus">
    <use xlink:href="#rim" fill="#404040"><set attributeName="fill" to="#808080" begin="zoomplus.mouseover" end="zoomplus.mouseout"/></use>
    <path d="M-4,0h8M0,-4v8" fill="none" stroke="white" stroke-width="1.5" pointer-events="none"/>
  </g>
  <g id="zoomMin">
    <use xlink:href="#rim" fill="#404040"><set attributeName="fill" to="#808080" begin="zoomminus.mouseover" end="zoomminus.mouseout"/></use>
    <path d="M-4,0h8" fill="none" stroke="white" stroke-width="1.5" pointer-events="none"/>
  </g>
  <g id="arrowUp" transform="translate(30 24)">
    <use xlink:href="#rim"/>
    <path pointer-events="none" fill="none" stroke="white" stroke-width="1.5" d="M0,-3.0v7 M-2.5,-0.5L0,-3.0L2.5,-0.5"/>
  </g>
  <g id="arrowRight" transform="rotate(90) translate(36 -43)">
    <use xlink:href="#rim"/>
    <path pointer-events="none" fill="none" stroke="white" stroke-width="1.5" d="M0,-3.0v7 M-2.5,-0.5L0,-3.0L2.5,-0.5"/>
  </g>
  <g id="arrowDown" transform="rotate(180) translate(-30 -48)">
    <use xlink:href="#rim"/>
    <path pointer-events="none" fill="none" stroke="white" stroke-width="1.5" d="M0,-3.0v7 M-2.5,-0.5L0,-3.0L2.5,-0.5"/>
  </g>
  <g id="arrowLeft" transform="rotate(270) translate(-36 17)">
    <use xlink:href="#rim"/>
    <path pointer-events="none" fill="none" stroke="white" stroke-width="1.5" d="M0,-3.0v7 M-2.5,-0.5L0,-3.0L2.5,-0.5"/>
  </g>
  <g id="resetDef">
    <use xlink:href="#rim2" fill="#404040"><set attributeName="fill" to="#808080" begin="reset.mouseover" end="reset.mouseout"/></use>
  </g>
</defs>
<script type="application/ecmascript">
var viewWidth = 2334;
var viewHeight = 435;
var sectionId = 'dynsection-1';
</script>
<script type="application/ecmascript" xlink:href="../../svg.min.js"/>
<svg id="graph" class="graph">
<g id="viewport">
<title>Ark::internal::MacroProcessor</title>
<!-- Node1 -->
<g id="Node000001" class="node">
<title>Node1</title>
<g id="a_Node000001"><a xlink:title="The class handling the macros definitions and calls, given an AST.">
<polygon fill="#999999" stroke="#666666" points="1598.5,-216.25 1452.75,-216.25 1452.75,-197 1598.5,-197 1598.5,-216.25"/>
<text text-anchor="middle" x="1525.62" y="-202.75" font-family="Helvetica,sans-Serif" font-size="10.00">Ark::internal::MacroProcessor</text>
</a>
</g>
</g>
<!-- Node17 -->
<g id="Node000017" class="node">
<title>Node17</title>
<g id="a_Node000017"><a xlink:href="../../d5/d8f/classArk_1_1internal_1_1MacroExecutor.html" target="_top" xlink:title="A class that applies macros in a Node.">
<polygon fill="white" stroke="#666666" points="1834.25,-131.25 1693.75,-131.25 1693.75,-112 1834.25,-112 1834.25,-131.25"/>
<text text-anchor="middle" x="1764" y="-117.75" font-family="Helvetica,sans-Serif" font-size="10.00">Ark::internal::MacroExecutor</text>
</a>
</g>
</g>
<!-- Node1&#45;&gt;Node17 -->
<g id="edge25_Node000017_Node000001" class="edge">
<title>Node1&#45;&gt;Node17</title>
<g id="a_edge25_Node000017_Node000001"><a xlink:title=" ">
<path fill="none" stroke="#9a32cd" stroke-dasharray="5,2" d="M1545.43,-189C1562.57,-174.02 1589.3,-153.26 1616.5,-142.38 1640.59,-132.74 1668.47,-127.47 1693.41,-124.63"/>
<polygon fill="#9a32cd" stroke="#9a32cd" points="1543.17,-186.33 1538.07,-195.62 1547.85,-191.53 1543.17,-186.33"/>
</a>
</g>
<text text-anchor="middle" x="1646.12" y="-144.12" font-family="Helvetica,sans-Serif" font-size="10.00" fill="grey"> m_processor</text>
</g>
<!-- Node2 -->
<g id="Node000002" class="node">
<title>Node2</title>
<g id="a_Node000002"><a xlink:href="../../da/d7b/classArk_1_1internal_1_1Pass.html" target="_top" xlink:title="An interface to describe compiler passes.">
<polygon fill="white" stroke="#666666" points="1248.12,-236.25 1151.12,-236.25 1151.12,-217 1248.12,-217 1248.12,-236.25"/>
<text text-anchor="middle" x="1199.62" y="-222.75" font-family="Helvetica,sans-Serif" font-size="10.00">Ark::internal::Pass</text>
</a>
</g>
</g>
<!-- Node2&#45;&gt;Node1 -->
<g id="edge1_Node000001_Node000002" class="edge">
<title>Node2&#45;&gt;Node1</title>
<g id="a_edge1_Node000001_Node000002"><a xlink:title=" ">
<path fill="none" stroke="#63b8ff" d="M1259.92,-222.96C1314.11,-219.62 1394.39,-214.66 1452.33,-211.09"/>
<polygon fill="#63b8ff" stroke="#63b8ff" points="1259.71,-219.47 1249.94,-223.58 1260.14,-226.46 1259.71,-219.47"/>
</a>
</g>
</g>
<!-- Node3 -->
<g id="Node000003" class="node">
<title>Node3</title>
<g id="a_Node000003"><a xlink:href="../../d6/d2f/classArk_1_1internal_1_1Logger.html" target="_top" xlink:title=" ">
<polygon fill="white" stroke="#666666" points="985.5,-236.25 881.75,-236.25 881.75,-217 985.5,-217 985.5,-236.25"/>
<text text-anchor="middle" x="933.62" y="-222.75" font-family="Helvetica,sans-Serif" font-size="10.00">Ark::internal::Logger</text>
</a>
</g>
</g>
<!-- Node3&#45;&gt;Node2 -->
<g id="edge2_Node000002_Node000003" class="edge">
<title>Node3&#45;&gt;Node2</title>
<g id="a_edge2_Node000002_Node000003"><a xlink:title=" ">
<path fill="none" stroke="#9a32cd" stroke-dasharray="5,2" d="M997.11,-226.62C1044.13,-226.62 1107.61,-226.62 1150.66,-226.62"/>
<polygon fill="#9a32cd" stroke="#9a32cd" points="997.35,-223.13 987.35,-226.63 997.35,-230.13 997.35,-223.13"/>
</a>
</g>
<text text-anchor="middle" x="1062.75" y="-228.38" font-family="Helvetica,sans-Serif" font-size="10.00" fill="grey"> m_logger</text>
</g>
<!-- Node4 -->
<g id="Node000004" class="node">
<title>Node4</title>
<g id="a_Node000004"><a xlink:title=" ">
<polygon fill="white" stroke="#666666" points="190.5,-321.25 131,-321.25 131,-302 190.5,-302 190.5,-321.25"/>
<text text-anchor="middle" x="160.75" y="-307.75" font-family="Helvetica,sans-Serif" font-size="10.00">std::string</text>
</a>
</g>
</g>
<!-- Node4&#45;&gt;Node3 -->
<g id="edge3_Node000003_Node000004" class="edge">
<title>Node4&#45;&gt;Node3</title>
<g id="a_edge3_Node000003_Node000004"><a xlink:title=" ">
<path fill="none" stroke="#9a32cd" stroke-dasharray="5,2" d="M201.89,-321.55C204.12,-321.95 206.33,-322.31 208.5,-322.62 305.43,-336.56 330.61,-331.96 428.5,-334.62 616.68,-339.75 706.66,-425.47 851,-304.62 870.07,-288.66 851.83,-269.62 869,-251.62 875.23,-245.1 883.36,-240.24 891.73,-236.64"/>
<polygon fill="#9a32cd" stroke="#9a32cd" points="202.76,-318.15 192.26,-319.59 201.36,-325.01 202.76,-318.15"/>
</a>
</g>
<text text-anchor="middle" x="493" y="-351.16" font-family="Helvetica,sans-Serif" font-size="10.00" fill="grey"> m_name</text>
</g>
<!-- Node6 -->
<g id="Node000006" class="node">
<title>Node6</title>
<g id="a_Node000006"><a xlink:title=" ">
<polygon fill="white" stroke="#666666" points="698.75,-258.75 576.25,-258.75 576.25,-194.5 698.75,-194.5 698.75,-258.75"/>
<text text-anchor="start" x="584.25" y="-245.25" font-family="Helvetica,sans-Serif" font-size="10.00">std::unordered_map</text>
<text text-anchor="start" x="584.25" y="-234" font-family="Helvetica,sans-Serif" font-size="10.00">&lt; std::string, std::</text>
<text text-anchor="start" x="584.25" y="-222.75" font-family="Helvetica,sans-Serif" font-size="10.00">chrono::time_point&lt; std</text>
<text text-anchor="start" x="584.25" y="-211.5" font-family="Helvetica,sans-Serif" font-size="10.00">::chrono::high_resolution</text>
<text text-anchor="middle" x="637.5" y="-200.25" font-family="Helvetica,sans-Serif" font-size="10.00">_clock &gt; &gt;</text>
</a>
</g>
</g>
<!-- Node4&#45;&gt;Node6 -->
<g id="edge6_Node000006_Node000004" class="edge">
<title>Node4&#45;&gt;Node6</title>
<g id="a_edge6_Node000006_Node000004"><a xlink:title=" ">
<path fill="none" stroke="#9a32cd" stroke-dasharray="5,2" d="M202.25,-304.65C204.36,-304.3 206.46,-303.96 208.5,-303.62 285.94,-291.12 480.99,-267.96 557.5,-250.62 563.51,-249.26 569.73,-247.68 575.92,-245.99"/>
<polygon fill="#9a32cd" stroke="#9a32cd" points="201.69,-301.19 192.41,-306.3 202.85,-308.09 201.69,-301.19"/>
</a>
</g>
<text text-anchor="middle" x="359.38" y="-290.52" font-family="Helvetica,sans-Serif" font-size="10.00" fill="grey"> keys</text>
</g>
<!-- Node10 -->
<g id="Node000010" class="node">
<title>Node10</title>
<g id="a_Node000010"><a xlink:title=" ">
<polygon fill="white" stroke="#666666" points="699.5,-176.25 575.5,-176.25 575.5,-157 699.5,-157 699.5,-176.25"/>
<text text-anchor="middle" x="637.5" y="-162.75" font-family="Helvetica,sans-Serif" font-size="10.00">std::vector&lt; std::string &gt;</text>
</a>
</g>
</g>
<!-- Node4&#45;&gt;Node10 -->
<g id="edge11_Node000010_Node000004" class="edge">
<title>Node4&#45;&gt;Node10</title>
<g id="a_edge11_Node000010_Node000004"><a xlink:title=" ">
<path fill="none" stroke="#9a32cd" stroke-dasharray="5,2" d="M190.27,-296.63C196.21,-293.78 202.49,-290.96 208.5,-288.62 251.55,-271.87 263.06,-269 308.25,-259.38 362.92,-247.73 512.71,-259.06 557.5,-225.62 573.12,-213.96 560.91,-198.55 575.5,-185.62 579.57,-182.02 584.31,-179.1 589.33,-176.73"/>
<polygon fill="#9a32cd" stroke="#9a32cd" points="188.83,-293.44 181.43,-301.02 191.94,-299.71 188.83,-293.44"/>
</a>
</g>
<text text-anchor="middle" x="359.38" y="-261.12" font-family="Helvetica,sans-Serif" font-size="10.00" fill="grey"> elements</text>
</g>
<!-- Node12 -->
<g id="Node000012" class="node">
<title>Node12</title>
<g id="a_Node000012"><a xlink:href="../../dc/d9e/classArk_1_1internal_1_1Node.html" target="_top" xlink:title="A node of an Abstract Syntax Tree for ArkScript.">
<polygon fill="white" stroke="#666666" points="408.25,-404.25 310.5,-404.25 310.5,-385 408.25,-385 408.25,-404.25"/>
<text text-anchor="middle" x="359.38" y="-390.75" font-family="Helvetica,sans-Serif" font-size="10.00">Ark::internal::Node</text>
</a>
</g>
</g>
<!-- Node4&#45;&gt;Node12 -->
<g id="edge15_Node000012_Node000004" class="edge">
<title>Node4&#45;&gt;Node12</title>
<g id="a_edge15_Node000012_Node000004"><a xlink:title=" ">
<path fill="none" stroke="#9a32cd" stroke-dasharray="5,2" d="M172.66,-331.64C180.8,-344.59 193.15,-360.65 208.5,-369.62 239.25,-387.59 279.24,-393.56 310.19,-395.19"/>
<polygon fill="#9a32cd" stroke="#9a32cd" points="175.68,-329.87 167.6,-323.02 169.64,-333.41 175.68,-329.87"/>
</a>
</g>
<text text-anchor="middle" x="249.38" y="-417.39" font-family="Helvetica,sans-Serif" font-size="10.00" fill="grey"> m_after_comment</text>
<text text-anchor="middle" x="249.38" y="-406.14" font-family="Helvetica,sans-Serif" font-size="10.00" fill="grey">m_comment</text>
<text text-anchor="middle" x="249.38" y="-394.89" font-family="Helvetica,sans-Serif" font-size="10.00" fill="grey">m_filename</text>
</g>
<!-- Node15 -->
<g id="Node000015" class="node">
<title>Node15</title>
<g id="a_Node000015"><a xlink:title=" ">
<polygon fill="white" stroke="#666666" points="688.62,-318.5 586.38,-318.5 586.38,-276.75 688.62,-276.75 688.62,-318.5"/>
<text text-anchor="start" x="594.38" y="-305" font-family="Helvetica,sans-Serif" font-size="10.00">std::unordered_map</text>
<text text-anchor="start" x="594.38" y="-293.75" font-family="Helvetica,sans-Serif" font-size="10.00">&lt; std::string, Ark::</text>
<text text-anchor="middle" x="637.5" y="-282.5" font-family="Helvetica,sans-Serif" font-size="10.00">internal::Node &gt;</text>
</a>
</g>
</g>
<!-- Node4&#45;&gt;Node15 -->
<g id="edge19_Node000015_Node000004" class="edge">
<title>Node4&#45;&gt;Node15</title>
<g id="a_edge19_Node000015_Node000004"><a xlink:title=" ">
<path fill="none" stroke="#9a32cd" stroke-dasharray="5,2" d="M202.4,-310.39C254.7,-308.81 348.37,-305.98 428.5,-303.62 482.3,-302.04 543.94,-300.27 586.06,-299.06"/>
<polygon fill="#9a32cd" stroke="#9a32cd" points="202.36,-306.89 192.47,-310.69 202.57,-313.89 202.36,-306.89"/>
</a>
</g>
<text text-anchor="middle" x="359.38" y="-308.88" font-family="Helvetica,sans-Serif" font-size="10.00" fill="grey"> keys</text>
</g>
<!-- Node5 -->
<g id="Node000005" class="node">
<title>Node5</title>
<g id="a_Node000005"><a xlink:title=" ">
<polygon fill="white" stroke="#666666" points="94,-326.88 0,-326.88 0,-296.38 94,-296.38 94,-326.88"/>
<text text-anchor="start" x="8" y="-313.38" font-family="Helvetica,sans-Serif" font-size="10.00">std::basic_string&lt;</text>
<text text-anchor="middle" x="47" y="-302.12" font-family="Helvetica,sans-Serif" font-size="10.00"> Char &gt;</text>
</a>
</g>
</g>
<!-- Node5&#45;&gt;Node4 -->
<g id="edge4_Node000004_Node000005" class="edge">
<title>Node5&#45;&gt;Node4</title>
<g id="a_edge4_Node000004_Node000005"><a xlink:title=" ">
<path fill="none" stroke="#63b8ff" d="M105.71,-311.62C114.32,-311.62 122.87,-311.62 130.55,-311.62"/>
<polygon fill="#63b8ff" stroke="#63b8ff" points="105.93,-308.13 95.93,-311.63 105.93,-315.13 105.93,-308.13"/>
</a>
</g>
</g>
<!-- Node6&#45;&gt;Node3 -->
<g id="edge5_Node000003_Node000006" class="edge">
<title>Node6&#45;&gt;Node3</title>
<g id="a_edge5_Node000003_Node000006"><a xlink:title=" ">
<path fill="none" stroke="#9a32cd" stroke-dasharray="5,2" d="M710.44,-226.62C763.41,-226.62 834.14,-226.62 881.43,-226.62"/>
<polygon fill="#9a32cd" stroke="#9a32cd" points="710.6,-223.13 700.6,-226.63 710.6,-230.13 710.6,-223.13"/>
</a>
</g>
<text text-anchor="middle" x="784.25" y="-228.38" font-family="Helvetica,sans-Serif" font-size="10.00" fill="grey"> m_trace_starts</text>
</g>
<!-- Node7 -->
<g id="Node000007" class="node">
<title>Node7</title>
<g id="a_Node000007"><a xlink:title=" ">
<polygon fill="white" stroke="#666666" points="410.5,-149.88 308.25,-149.88 308.25,-119.38 410.5,-119.38 410.5,-149.88"/>
<text text-anchor="start" x="316.25" y="-136.38" font-family="Helvetica,sans-Serif" font-size="10.00">std::unordered_map</text>
<text text-anchor="middle" x="359.38" y="-125.12" font-family="Helvetica,sans-Serif" font-size="10.00">&lt; K, T &gt;</text>
</a>
</g>
</g>
<!-- Node7&#45;&gt;Node6 -->
<g id="edge7_Node000006_Node000007" class="edge">
<title>Node7&#45;&gt;Node6</title>
<g id="a_edge7_Node000006_Node000007"><a xlink:title=" ">
<path fill="none" stroke="orange" stroke-dasharray="5,2" d="M422.13,-117.37C464.06,-109.5 518.73,-107.19 557.5,-134.62 577.12,-148.51 560.78,-166.62 575.5,-185.62 577.84,-188.65 580.48,-191.53 583.3,-194.26"/>
<polygon fill="orange" stroke="orange" points="421.52,-113.92 412.42,-119.35 422.92,-120.78 421.52,-113.92"/>
</a>
</g>
<text text-anchor="start" x="428.5" y="-170.12" font-family="Helvetica,sans-Serif" font-size="10.00" fill="grey"> &lt; std::string, std</text>
<text text-anchor="start" x="428.5" y="-158.88" font-family="Helvetica,sans-Serif" font-size="10.00" fill="grey">::chrono::time_point</text>
<text text-anchor="start" x="428.5" y="-147.62" font-family="Helvetica,sans-Serif" font-size="10.00" fill="grey">&lt; std::chrono::high_resolution</text>
<text text-anchor="middle" x="493" y="-136.38" font-family="Helvetica,sans-Serif" font-size="10.00" fill="grey">_clock &gt; &gt;</text>
</g>
<!-- Node7&#45;&gt;Node15 -->
<g id="edge21_Node000015_Node000007" class="edge">
<title>Node7&#45;&gt;Node15</title>
<g id="a_edge21_Node000015_Node000007"><a xlink:title=" ">
<path fill="none" stroke="orange" stroke-dasharray="5,2" d="M392.59,-156.53C403.85,-164.02 416.64,-172.34 428.5,-179.62 484.73,-214.16 502.96,-215.97 557.5,-253.12 565.99,-258.91 566.84,-262.1 575.5,-267.62 580.28,-270.67 585.41,-273.63 590.59,-276.42"/>
<polygon fill="orange" stroke="orange" points="394.67,-153.71 384.41,-151.05 390.77,-159.53 394.67,-153.71"/>
</a>
</g>
<text text-anchor="start" x="455.12" y="-266.12" font-family="Helvetica,sans-Serif" font-size="10.00" fill="grey"> &lt; std::string, Ark</text>
<text text-anchor="middle" x="493" y="-254.88" font-family="Helvetica,sans-Serif" font-size="10.00" fill="grey">::internal::Node &gt;</text>
</g>
<!-- Node8 -->
<g id="Node000008" class="node">
<title>Node8</title>
<g id="a_Node000008"><a xlink:title=" ">
<polygon fill="white" stroke="#666666" points="175.15,-144.25 146.35,-144.25 146.35,-125 175.15,-125 175.15,-144.25"/>
<text text-anchor="middle" x="160.75" y="-130.75" font-family="Helvetica,sans-Serif" font-size="10.00">K</text>
</a>
</g>
</g>
<!-- Node8&#45;&gt;Node7 -->
<g id="edge8_Node000007_Node000008" class="edge">
<title>Node8&#45;&gt;Node7</title>
<g id="a_edge8_Node000007_Node000008"><a xlink:title=" ">
<path fill="none" stroke="#9a32cd" stroke-dasharray="5,2" d="M186.83,-134.62C217.27,-134.62 269.32,-134.62 308.12,-134.62"/>
<polygon fill="#9a32cd" stroke="#9a32cd" points="187.09,-131.13 177.09,-134.63 187.09,-138.13 187.09,-131.13"/>
</a>
</g>
<text text-anchor="middle" x="249.38" y="-136.38" font-family="Helvetica,sans-Serif" font-size="10.00" fill="grey"> keys</text>
</g>
<!-- Node9 -->
<g id="Node000009" class="node">
<title>Node9</title>
<g id="a_Node000009"><a xlink:title=" ">
<polygon fill="white" stroke="#666666" points="175.15,-76.25 146.35,-76.25 146.35,-57 175.15,-57 175.15,-76.25"/>
<text text-anchor="middle" x="160.75" y="-62.75" font-family="Helvetica,sans-Serif" font-size="10.00">T</text>
</a>
</g>
</g>
<!-- Node9&#45;&gt;Node7 -->
<g id="edge9_Node000007_Node000009" class="edge">
<title>Node9&#45;&gt;Node7</title>
<g id="a_edge9_Node000007_Node000009"><a xlink:title=" ">
<path fill="none" stroke="#9a32cd" stroke-dasharray="5,2" d="M186.06,-75.03C217.71,-85.98 273.62,-105.32 313.17,-118.99"/>
<polygon fill="#9a32cd" stroke="#9a32cd" points="187.6,-71.86 177.01,-71.9 185.31,-78.48 187.6,-71.86"/>
</a>
</g>
<text text-anchor="middle" x="249.38" y="-112.44" font-family="Helvetica,sans-Serif" font-size="10.00" fill="grey"> elements</text>
</g>
<!-- Node11 -->
<g id="Node000011" class="node">
<title>Node11</title>
<g id="a_Node000011"><a xlink:title=" ">
<polygon fill="white" stroke="#666666" points="402.62,-76.25 316.12,-76.25 316.12,-57 402.62,-57 402.62,-76.25"/>
<text text-anchor="middle" x="359.38" y="-62.75" font-family="Helvetica,sans-Serif" font-size="10.00">std::vector&lt; T &gt;</text>
</a>
</g>
</g>
<!-- Node9&#45;&gt;Node11 -->
<g id="edge13_Node000011_Node000009" class="edge">
<title>Node9&#45;&gt;Node11</title>
<g id="a_edge13_Node000011_Node000009"><a xlink:title=" ">
<path fill="none" stroke="#9a32cd" stroke-dasharray="5,2" d="M186.71,-66.62C219.13,-66.62 276.24,-66.62 315.63,-66.62"/>
<polygon fill="#9a32cd" stroke="#9a32cd" points="187.09,-63.13 177.09,-66.63 187.09,-70.13 187.09,-63.13"/>
</a>
</g>
<text text-anchor="middle" x="249.38" y="-68.38" font-family="Helvetica,sans-Serif" font-size="10.00" fill="grey"> elements</text>
</g>
<!-- Node18 -->
<g id="Node000018" class="node">
<title>Node18</title>
<g id="a_Node000018"><a xlink:title=" ">
<polygon fill="white" stroke="#666666" points="545.62,-19.25 440.38,-19.25 440.38,0 545.62,0 545.62,-19.25"/>
<text text-anchor="middle" x="493" y="-5.75" font-family="Helvetica,sans-Serif" font-size="10.00">std::shared_ptr&lt; T &gt;</text>
</a>
</g>
</g>
<!-- Node9&#45;&gt;Node18 -->
<g id="edge27_Node000018_Node000009" class="edge">
<title>Node9&#45;&gt;Node18</title>
<g id="a_edge27_Node000018_Node000009"><a xlink:title=" ">
<path fill="none" stroke="#9a32cd" stroke-dasharray="5,2" d="M186.23,-57.78C193.34,-55.44 201.17,-53.1 208.5,-51.38 288.29,-32.63 382.8,-20.72 440.03,-14.61"/>
<polygon fill="#9a32cd" stroke="#9a32cd" points="185.24,-54.42 176.92,-60.97 187.51,-61.04 185.24,-54.42"/>
</a>
</g>
<text text-anchor="middle" x="249.38" y="-53.12" font-family="Helvetica,sans-Serif" font-size="10.00" fill="grey"> ptr</text>
</g>
<!-- Node10&#45;&gt;Node3 -->
<g id="edge10_Node000003_Node000010" class="edge">
<title>Node10&#45;&gt;Node3</title>
<g id="a_edge10_Node000003_Node000010"><a xlink:title=" ">
<path fill="none" stroke="#9a32cd" stroke-dasharray="5,2" d="M699.3,-179.03C753.79,-190.14 832.71,-206.24 883.35,-216.57"/>
<polygon fill="#9a32cd" stroke="#9a32cd" points="700.04,-175.61 689.54,-177.04 698.64,-182.47 700.04,-175.61"/>
</a>
</g>
<text text-anchor="middle" x="784.25" y="-210.65" font-family="Helvetica,sans-Serif" font-size="10.00" fill="grey"> m_active_traces</text>
</g>
<!-- Node11&#45;&gt;Node10 -->
<g id="edge12_Node000010_Node000011" class="edge">
<title>Node11&#45;&gt;Node10</title>
<g id="a_edge12_Node000010_Node000011"><a xlink:title=" ">
<path fill="none" stroke="orange" stroke-dasharray="5,2" d="M414.16,-75.31C419.01,-76.09 423.84,-76.87 428.5,-77.62 485.83,-86.86 504.86,-73.85 557.5,-98.38 587.57,-112.38 615.02,-141.24 628.23,-156.56"/>
<polygon fill="orange" stroke="orange" points="414.82,-71.87 404.39,-73.74 413.7,-78.78 414.82,-71.87"/>
</a>
</g>
<text text-anchor="middle" x="493" y="-100.12" font-family="Helvetica,sans-Serif" font-size="10.00" fill="grey"> &lt; std::string &gt;</text>
</g>
<!-- Node13 -->
<g id="Node000013" class="node">
<title>Node13</title>
<g id="a_Node000013"><a xlink:title=" ">
<polygon fill="white" stroke="#666666" points="1261.25,-198.88 1138,-198.88 1138,-168.38 1261.25,-168.38 1261.25,-198.88"/>
<text text-anchor="start" x="1146" y="-185.38" font-family="Helvetica,sans-Serif" font-size="10.00">std::vector&lt; Ark::internal</text>
<text text-anchor="middle" x="1199.62" y="-174.12" font-family="Helvetica,sans-Serif" font-size="10.00">::MacroScope &gt;</text>
</a>
</g>
</g>
<!-- Node11&#45;&gt;Node13 -->
<g id="edge22_Node000013_Node000011" class="edge">
<title>Node11&#45;&gt;Node13</title>
<g id="a_edge22_Node000013_Node000011"><a xlink:title=" ">
<path fill="none" stroke="orange" stroke-dasharray="5,2" d="M414.05,-69.15C453.76,-71.34 509.11,-75.03 557.5,-80.62 771.96,-105.42 1024.32,-150.75 1137.88,-172.03"/>
<polygon fill="orange" stroke="orange" points="414.46,-65.67 404.29,-68.63 414.08,-72.66 414.46,-65.67"/>
</a>
</g>
<text text-anchor="middle" x="784.25" y="-123.46" font-family="Helvetica,sans-Serif" font-size="10.00" fill="grey"> &lt; Ark::internal::MacroScope &gt;</text>
</g>
<!-- Node19 -->
<g id="Node000019" class="node">
<title>Node19</title>
<g id="a_Node000019"><a xlink:title=" ">
<polygon fill="white" stroke="#666666" points="2326,-136.88 2142.75,-136.88 2142.75,-106.38 2326,-106.38 2326,-136.88"/>
<text text-anchor="start" x="2150.75" y="-123.38" font-family="Helvetica,sans-Serif" font-size="10.00">std::vector&lt; std::shared</text>
<text text-anchor="middle" x="2234.38" y="-112.12" font-family="Helvetica,sans-Serif" font-size="10.00">_ptr&lt; Ark::internal::MacroExecutor &gt; &gt;</text>
</a>
</g>
</g>
<!-- Node11&#45;&gt;Node19 -->
<g id="edge30_Node000019_Node000011" class="edge">
<title>Node11&#45;&gt;Node19</title>
<g id="a_edge30_Node000019_Node000011"><a xlink:title=" ">
<path fill="none" stroke="orange" stroke-dasharray="5,2" d="M414.17,-58.86C469.72,-51.52 558.98,-41.62 636.5,-41.62 636.5,-41.62 636.5,-41.62 1997.75,-41.62 2077.02,-41.62 2163.71,-82.73 2206.46,-106.01"/>
<polygon fill="orange" stroke="orange" points="413.78,-55.38 404.34,-60.18 414.72,-62.32 413.78,-55.38"/>
</a>
</g>
<text text-anchor="start" x="1290" y="-54.62" font-family="Helvetica,sans-Serif" font-size="10.00" fill="grey"> &lt; std::shared_ptr&lt;</text>
<text text-anchor="middle" x="1362.38" y="-43.38" font-family="Helvetica,sans-Serif" font-size="10.00" fill="grey"> Ark::internal::MacroExecutor &gt; &gt;</text>
</g>
<!-- Node12&#45;&gt;Node1 -->
<g id="edge14_Node000001_Node000012" class="edge">
<title>Node12&#45;&gt;Node1</title>
<g id="a_edge14_Node000001_Node000012"><a xlink:title=" ">
<path fill="none" stroke="#9a32cd" stroke-dasharray="5,2" d="M419.72,-394.62C475.64,-394.62 561.76,-394.62 636.5,-394.62 636.5,-394.62 636.5,-394.62 1200.62,-394.62 1343.7,-394.62 1480.15,-255.78 1515.69,-216.73"/>
<polygon fill="#9a32cd" stroke="#9a32cd" points="419.78,-391.13 409.78,-394.63 419.78,-398.13 419.78,-391.13"/>
</a>
</g>
<text text-anchor="middle" x="933.62" y="-396.38" font-family="Helvetica,sans-Serif" font-size="10.00" fill="grey"> m_ast</text>
</g>
<!-- Node12&#45;&gt;Node15 -->
<g id="edge20_Node000015_Node000012" class="edge">
<title>Node12&#45;&gt;Node15</title>
<g id="a_edge20_Node000015_Node000012"><a xlink:title=" ">
<path fill="none" stroke="#9a32cd" stroke-dasharray="5,2" d="M373.17,-375.08C385.29,-358.34 405.07,-335.14 428.5,-323.38 455.24,-309.94 533.5,-303.14 586.03,-299.99"/>
<polygon fill="#9a32cd" stroke="#9a32cd" points="370.33,-373.04 367.52,-383.26 376.09,-377.02 370.33,-373.04"/>
</a>
</g>
<text text-anchor="middle" x="493" y="-325.12" font-family="Helvetica,sans-Serif" font-size="10.00" fill="grey"> elements</text>
</g>
<!-- Node13&#45;&gt;Node1 -->
<g id="edge16_Node000001_Node000013" class="edge">
<title>Node13&#45;&gt;Node1</title>
<g id="a_edge16_Node000001_Node000013"><a xlink:title=" ">
<path fill="none" stroke="#9a32cd" stroke-dasharray="5,2" d="M1272.75,-187.04C1319.07,-189.44 1380.5,-192.99 1434.75,-197.38 1440.53,-197.84 1446.52,-198.37 1452.54,-198.92"/>
<polygon fill="#9a32cd" stroke="#9a32cd" points="1272.99,-183.55 1262.82,-186.53 1272.63,-190.54 1272.99,-183.55"/>
</a>
</g>
<text text-anchor="middle" x="1362.38" y="-199.12" font-family="Helvetica,sans-Serif" font-size="10.00" fill="grey"> m_macros</text>
</g>
<!-- Node14 -->
<g id="Node000014" class="node">
<title>Node14</title>
<g id="a_Node000014"><a xlink:href="../../d6/d42/classArk_1_1internal_1_1MacroScope.html" target="_top" xlink:title=" ">
<polygon fill="white" stroke="#666666" points="998.25,-280.25 869,-280.25 869,-261 998.25,-261 998.25,-280.25"/>
<text text-anchor="middle" x="933.62" y="-266.75" font-family="Helvetica,sans-Serif" font-size="10.00">Ark::internal::MacroScope</text>
</a>
</g>
</g>
<!-- Node14&#45;&gt;Node13 -->
<g id="edge17_Node000013_Node000014" class="edge">
<title>Node14&#45;&gt;Node13</title>
<g id="a_edge17_Node000013_Node000014"><a xlink:title=" ">
<path fill="none" stroke="#9a32cd" stroke-dasharray="5,2" d="M983.54,-255.7C988.84,-252.87 993.89,-249.53 998.25,-245.62 1011.06,-234.15 1002.24,-221.35 1016.25,-211.38 1051.2,-186.48 1099.53,-180.04 1137.66,-179.56"/>
<polygon fill="#9a32cd" stroke="#9a32cd" points="982.09,-252.51 974.51,-259.9 985.05,-258.85 982.09,-252.51"/>
</a>
</g>
<text text-anchor="middle" x="1062.75" y="-213.12" font-family="Helvetica,sans-Serif" font-size="10.00" fill="grey"> elements</text>
</g>
<!-- Node15&#45;&gt;Node1 -->
<g id="edge31_Node000001_Node000015" class="edge">
<title>Node15&#45;&gt;Node1</title>
<g id="a_edge31_Node000001_Node000015"><a xlink:title=" ">
<path fill="none" stroke="#9a32cd" stroke-dasharray="5,2" d="M700.21,-303.62C706.05,-304.03 711.88,-304.38 717.5,-304.62 776.78,-307.25 791.74,-307.64 851,-304.62 1013.75,-296.36 1402.42,-237.1 1434.75,-230.62 1453.59,-226.85 1474.34,-221.4 1491.15,-216.65"/>
<polygon fill="#9a32cd" stroke="#9a32cd" points="700.77,-300.15 690.54,-302.89 700.24,-307.13 700.77,-300.15"/>
</a>
</g>
<text text-anchor="middle" x="1062.75" y="-290.63" font-family="Helvetica,sans-Serif" font-size="10.00" fill="grey"> m_defined_functions</text>
</g>
<!-- Node15&#45;&gt;Node14 -->
<g id="edge18_Node000014_Node000015" class="edge">
<title>Node15&#45;&gt;Node14</title>
<g id="a_edge18_Node000014_Node000015"><a xlink:title=" ">
<path fill="none" stroke="#9a32cd" stroke-dasharray="5,2" d="M700.23,-291.96C749.61,-287.42 818.64,-281.09 868.62,-276.5"/>
<polygon fill="#9a32cd" stroke="#9a32cd" points="700.21,-288.45 690.57,-292.85 700.85,-295.42 700.21,-288.45"/>
</a>
</g>
<text text-anchor="middle" x="784.25" y="-291.4" font-family="Helvetica,sans-Serif" font-size="10.00" fill="grey"> m_macros</text>
</g>
<!-- Node16 -->
<g id="Node000016" class="node">
<title>Node16</title>
<g id="a_Node000016"><a xlink:title=" ">
<polygon fill="white" stroke="#666666" points="2064,-136.88 1929.5,-136.88 1929.5,-106.38 2064,-106.38 2064,-136.88"/>
<text text-anchor="start" x="1937.5" y="-123.38" font-family="Helvetica,sans-Serif" font-size="10.00">std::shared_ptr&lt; Ark</text>
<text text-anchor="middle" x="1996.75" y="-112.12" font-family="Helvetica,sans-Serif" font-size="10.00">::internal::MacroExecutor &gt;</text>
</a>
</g>
</g>
<!-- Node16&#45;&gt;Node1 -->
<g id="edge23_Node000001_Node000016" class="edge">
<title>Node16&#45;&gt;Node1</title>
<g id="a_edge23_Node000001_Node000016"><a xlink:title=" ">
<path fill="none" stroke="#9a32cd" stroke-dasharray="5,2" d="M1918,-135.71C1823.29,-152.87 1665.66,-181.43 1582.28,-196.54"/>
<polygon fill="#9a32cd" stroke="#9a32cd" points="1918.52,-139.18 1927.74,-133.95 1917.27,-132.29 1918.52,-139.18"/>
</a>
</g>
<text text-anchor="middle" x="1764" y="-177.09" font-family="Helvetica,sans-Serif" font-size="10.00" fill="grey"> m_conditional_executor</text>
</g>
<!-- Node16&#45;&gt;Node19 -->
<g id="edge29_Node000019_Node000016" class="edge">
<title>Node16&#45;&gt;Node19</title>
<g id="a_edge29_Node000019_Node000016"><a xlink:title=" ">
<path fill="none" stroke="#9a32cd" stroke-dasharray="5,2" d="M2075.63,-121.62C2096.98,-121.62 2120.32,-121.62 2142.34,-121.62"/>
<polygon fill="#9a32cd" stroke="#9a32cd" points="2075.84,-118.13 2065.84,-121.63 2075.84,-125.13 2075.84,-118.13"/>
</a>
</g>
<text text-anchor="middle" x="2103.38" y="-123.38" font-family="Helvetica,sans-Serif" font-size="10.00" fill="grey"> elements</text>
</g>
<!-- Node17&#45;&gt;Node16 -->
<g id="edge24_Node000016_Node000017" class="edge">
<title>Node17&#45;&gt;Node16</title>
<g id="a_edge24_Node000016_Node000017"><a xlink:title=" ">
<path fill="none" stroke="#9a32cd" stroke-dasharray="5,2" d="M1846,-121.62C1873.18,-121.62 1903.17,-121.62 1929.12,-121.62"/>
<polygon fill="#9a32cd" stroke="#9a32cd" points="1846.06,-118.13 1836.06,-121.63 1846.06,-125.13 1846.06,-118.13"/>
</a>
</g>
<text text-anchor="middle" x="1881.88" y="-123.38" font-family="Helvetica,sans-Serif" font-size="10.00" fill="grey"> ptr</text>
</g>
<!-- Node18&#45;&gt;Node16 -->
<g id="edge26_Node000016_Node000018" class="edge">
<title>Node18&#45;&gt;Node16</title>
<g id="a_edge26_Node000016_Node000018"><a xlink:title=" ">
<path fill="none" stroke="orange" stroke-dasharray="5,2" d="M557.27,-7.21C615.87,-5.19 705.43,-2.63 783.25,-2.62 783.25,-2.62 783.25,-2.62 1526.62,-2.62 1692.78,-2.63 1882.17,-73.63 1959.75,-105.95"/>
<polygon fill="orange" stroke="orange" points="557.37,-3.71 547.49,-7.56 557.61,-10.7 557.37,-3.71"/>
</a>
</g>
<text text-anchor="middle" x="1199.62" y="-4.38" font-family="Helvetica,sans-Serif" font-size="10.00" fill="grey"> &lt; Ark::internal::MacroExecutor &gt;</text>
</g>
<!-- Node19&#45;&gt;Node1 -->
<g id="edge28_Node000001_Node000019" class="edge">
<title>Node19&#45;&gt;Node1</title>
<g id="a_edge28_Node000001_Node000019"><a xlink:title=" ">
<path fill="none" stroke="#9a32cd" stroke-dasharray="5,2" d="M2147.28,-139.57C2066.74,-155.63 1942.88,-178.45 1834.25,-190.62 1754,-199.62 1661.39,-203.57 1598.92,-205.3"/>
<polygon fill="#9a32cd" stroke="#9a32cd" points="2147.75,-143.04 2156.87,-137.65 2146.38,-136.18 2147.75,-143.04"/>
</a>
</g>
<text text-anchor="middle" x="1881.88" y="-189.94" font-family="Helvetica,sans-Serif" font-size="10.00" fill="grey"> m_executors</text>
</g>
</g>
</svg>

<g id="navigator" transform="translate(0 0)" fill="#404254">
  <rect fill="#f2f5e9" fill-opacity="0.5" stroke="#606060" stroke-width=".5" x="0" y="0" width="60" height="60"/>
  <use id="zoomplus" xlink:href="#zoomPlus" x="17" y="9" onmousedown="handleZoom(evt,'in')"/>
  <use id="zoomminus" xlink:href="#zoomMin" x="42" y="9" onmousedown="handleZoom(evt,'out')"/>
  <use id="reset" xlink:href="#resetDef" x="30" y="36" onmousedown="handleReset()"/>
   <use id="arrowup" xlink:href="#arrowUp" x="0" y="0" onmousedown="handlePan(0,-1)"/>
  <use id="arrowright" xlink:href="#arrowRight" x="0" y="0" onmousedown="handlePan(1,0)"/>
  <use id="arrowdown" xlink:href="#arrowDown" x="0" y="0" onmousedown="handlePan(0,1)"/>
  <use id="arrowleft" xlink:href="#arrowLeft" x="0" y="0" onmousedown="handlePan(-1,0)"/>
</g>
<svg viewBox="0 0 15 15" width="100%" height="30px" preserveAspectRatio="xMaxYMin meet">
 <g id="arrow_out" transform="scale(0.3 0.3)">
  <a xlink:href="classArk_1_1internal_1_1MacroProcessor__coll__graph_org.svg" target="_base">
   <rect id="button" ry="5" rx="5" y="6" x="6" height="38" width="38"
        fill="#f2f5e9" fill-opacity="0.5" stroke="#606060" stroke-width="1.0"/>
   <path id="arrow"
     d="M 11.500037,31.436501 C 11.940474,20.09759 22.043105,11.32322 32.158766,21.979434 L 37.068811,17.246167 C 37.068811,17.246167 37.088388,32 37.088388,32 L 22.160133,31.978069 C 22.160133,31.978069 26.997745,27.140456 26.997745,27.140456 C 18.528582,18.264221 13.291696,25.230495 11.500037,31.436501 z"
     style="fill:#404040;"/>
  </a>
 </g>
</svg>

<style type='text/css'>
<![CDATA[
[data-mouse-over-selected='false'] { opacity: 0.7; }
[data-mouse-over-selected='true']  { opacity: 1.0; }
]]>
</style>
<script type="application/ecmascript"><![CDATA[
document.addEventListener('DOMContentLoaded', (event) => {
  highlightEdges();
  highlightAdjacentNodes();
});
]]></script>
</svg>
