<?xml version="1.0" encoding="UTF-8" standalone="no"?>
<!DOCTYPE svg PUBLIC "-//W3C//DTD SVG 1.1//EN"
 "http://www.w3.org/Graphics/SVG/1.1/DTD/svg11.dtd">
<!-- Generated by graphviz version 2.43.0 (0)
 -->
<!-- Title: /home/fola/code/Ark/include/Ark/Compiler/Compiler.hpp Pages: 1 -->
<svg width="2166pt" height="341pt"
 viewBox="0.00 0.00 2165.50 341.00" xmlns="http://www.w3.org/2000/svg" xmlns:xlink="http://www.w3.org/1999/xlink">
<g id="graph0" class="graph" transform="scale(1 1) rotate(0) translate(4 337)">
<title>/home/fola/code/Ark/include/Ark/Compiler/Compiler.hpp</title>
<polygon fill="white" stroke="transparent" points="-4,4 -4,-337 2161.5,-337 2161.5,4 -4,4"/>
<!-- Node1 -->
<g id="node1" class="node">
<title>Node1</title>
<g id="a_node1"><a xlink:title="ArkScript compiler is in charge of transforming the AST into bytecode.">
<polygon fill="#bfbfbf" stroke="black" points="775.5,-291.5 775.5,-332.5 897.5,-332.5 897.5,-291.5 775.5,-291.5"/>
<text text-anchor="start" x="783.5" y="-320.5" font-family="Helvetica,sans-Serif" font-size="10.00">/home/fola/code/Ark</text>
<text text-anchor="start" x="783.5" y="-309.5" font-family="Helvetica,sans-Serif" font-size="10.00">/include/Ark/Compiler</text>
<text text-anchor="middle" x="836.5" y="-298.5" font-family="Helvetica,sans-Serif" font-size="10.00">/Compiler.hpp</text>
</a>
</g>
</g>
<!-- Node2 -->
<g id="node2" class="node">
<title>Node2</title>
<g id="a_node2"><a xlink:title=" ">
<polygon fill="white" stroke="#bfbfbf" points="1088,-0.5 1088,-19.5 1135,-19.5 1135,-0.5 1088,-0.5"/>
<text text-anchor="middle" x="1111.5" y="-7.5" font-family="Helvetica,sans-Serif" font-size="10.00">vector</text>
</a>
</g>
</g>
<!-- Node1&#45;&gt;Node2 -->
<g id="edge1" class="edge">
<title>Node1&#45;&gt;Node2</title>
<path fill="none" stroke="midnightblue" d="M897.52,-311.47C1152.49,-312.63 2119.5,-308.86 2119.5,-184.5 2119.5,-184.5 2119.5,-184.5 2119.5,-121 2119.5,-90.9 2124.17,-74.59 2100.5,-56 2081.31,-40.93 1317.67,-17.18 1145.67,-12.01"/>
<polygon fill="midnightblue" stroke="midnightblue" points="1145.53,-8.51 1135.43,-11.71 1145.32,-15.5 1145.53,-8.51"/>
</g>
<!-- Node3 -->
<g id="node3" class="node">
<title>Node3</title>
<g id="a_node3"><a xlink:title=" ">
<polygon fill="white" stroke="#bfbfbf" points="893.5,-56.5 893.5,-75.5 937.5,-75.5 937.5,-56.5 893.5,-56.5"/>
<text text-anchor="middle" x="915.5" y="-63.5" font-family="Helvetica,sans-Serif" font-size="10.00">string</text>
</a>
</g>
</g>
<!-- Node1&#45;&gt;Node3 -->
<g id="edge2" class="edge">
<title>Node1&#45;&gt;Node3</title>
<path fill="none" stroke="midnightblue" d="M891.37,-291.36C931.24,-273.85 982.28,-243.96 1006.5,-199 1030.98,-153.56 972.25,-104.69 938.01,-81.2"/>
<polygon fill="midnightblue" stroke="midnightblue" points="939.76,-78.16 929.5,-75.53 935.88,-83.99 939.76,-78.16"/>
</g>
<!-- Node4 -->
<g id="node4" class="node">
<title>Node4</title>
<g id="a_node4"><a xlink:title=" ">
<polygon fill="white" stroke="#bfbfbf" points="272.5,-0.5 272.5,-19.5 334.5,-19.5 334.5,-0.5 272.5,-0.5"/>
<text text-anchor="middle" x="303.5" y="-7.5" font-family="Helvetica,sans-Serif" font-size="10.00">cinttypes</text>
</a>
</g>
</g>
<!-- Node1&#45;&gt;Node4 -->
<g id="edge3" class="edge">
<title>Node1&#45;&gt;Node4</title>
<path fill="none" stroke="midnightblue" d="M775.34,-311.89C614.06,-312.59 189.5,-303.17 189.5,-184.5 189.5,-184.5 189.5,-184.5 189.5,-121 189.5,-74.11 240.05,-40.89 273.83,-23.93"/>
<polygon fill="midnightblue" stroke="midnightblue" points="275.37,-27.07 282.86,-19.58 272.33,-20.77 275.37,-27.07"/>
</g>
<!-- Node5 -->
<g id="node5" class="node">
<title>Node5</title>
<g id="a_node5"><a xlink:title=" ">
<polygon fill="white" stroke="#bfbfbf" points="677.5,-235.5 677.5,-254.5 733.5,-254.5 733.5,-235.5 677.5,-235.5"/>
<text text-anchor="middle" x="705.5" y="-242.5" font-family="Helvetica,sans-Serif" font-size="10.00">optional</text>
</a>
</g>
</g>
<!-- Node1&#45;&gt;Node5 -->
<g id="edge4" class="edge">
<title>Node1&#45;&gt;Node5</title>
<path fill="none" stroke="midnightblue" d="M797.2,-291.5C776.15,-281.05 750.77,-268.46 732.06,-259.18"/>
<polygon fill="midnightblue" stroke="midnightblue" points="733.45,-255.96 722.94,-254.65 730.34,-262.23 733.45,-255.96"/>
</g>
<!-- Node6 -->
<g id="node6" class="node">
<title>Node6</title>
<g id="a_node6"><a xlink:href="../../d5/d40/Platform_8hpp.html" target="_top" xlink:title="ArkScript configuration macros.">
<polygon fill="white" stroke="black" points="1810,-0.5 1810,-19.5 1909,-19.5 1909,-0.5 1810,-0.5"/>
<text text-anchor="middle" x="1859.5" y="-7.5" font-family="Helvetica,sans-Serif" font-size="10.00">Ark/Platform.hpp</text>
</a>
</g>
</g>
<!-- Node1&#45;&gt;Node6 -->
<g id="edge5" class="edge">
<title>Node1&#45;&gt;Node6</title>
<path fill="none" stroke="midnightblue" d="M897.76,-309.78C1126.52,-305.01 1923.15,-286.28 2032.5,-255 2093.82,-237.46 2157.5,-248.28 2157.5,-184.5 2157.5,-184.5 2157.5,-184.5 2157.5,-121 2157.5,-88.19 2149.14,-75.15 2122.5,-56 2106.2,-44.28 1991.38,-27.8 1918.95,-18.38"/>
<polygon fill="midnightblue" stroke="midnightblue" points="1919.39,-14.91 1909.02,-17.1 1918.49,-21.85 1919.39,-14.91"/>
</g>
<!-- Node7 -->
<g id="node7" class="node">
<title>Node7</title>
<g id="a_node7"><a xlink:href="../../d8/daa/Instructions_8hpp.html" target="_top" xlink:title="The different instructions used by the compiler and virtual machine.">
<polygon fill="white" stroke="black" points="0,-235.5 0,-254.5 161,-254.5 161,-235.5 0,-235.5"/>
<text text-anchor="middle" x="80.5" y="-242.5" font-family="Helvetica,sans-Serif" font-size="10.00">Ark/Compiler/Instructions.hpp</text>
</a>
</g>
</g>
<!-- Node1&#45;&gt;Node7 -->
<g id="edge6" class="edge">
<title>Node1&#45;&gt;Node7</title>
<path fill="none" stroke="midnightblue" d="M775.43,-306.03C658.79,-296.49 396.31,-274.81 175.5,-255 174.03,-254.87 172.55,-254.73 171.06,-254.6"/>
<polygon fill="midnightblue" stroke="midnightblue" points="171.36,-251.11 161.09,-253.69 170.73,-258.08 171.36,-251.11"/>
</g>
<!-- Node8 -->
<g id="node8" class="node">
<title>Node8</title>
<g id="a_node8"><a xlink:href="../../d7/dc6/Node_8hpp.html" target="_top" xlink:title="AST node used by the parser, optimizer and compiler.">
<polygon fill="white" stroke="black" points="730.5,-112.5 730.5,-131.5 882.5,-131.5 882.5,-112.5 730.5,-112.5"/>
<text text-anchor="middle" x="806.5" y="-119.5" font-family="Helvetica,sans-Serif" font-size="10.00">Ark/Compiler/AST/Node.hpp</text>
</a>
</g>
</g>
<!-- Node1&#45;&gt;Node8 -->
<g id="edge8" class="edge">
<title>Node1&#45;&gt;Node8</title>
<path fill="none" stroke="midnightblue" d="M828.07,-291.23C819.17,-269.2 805.72,-232.29 800.5,-199 798.37,-185.39 799.59,-181.75 800.5,-168 801.07,-159.34 802.27,-149.81 803.44,-141.75"/>
<polygon fill="midnightblue" stroke="midnightblue" points="806.94,-142.01 805.01,-131.59 800.02,-140.94 806.94,-142.01"/>
</g>
<!-- Node14 -->
<g id="node14" class="node">
<title>Node14</title>
<g id="a_node14"><a xlink:href="../../d7/ddd/Parser_8hpp.html" target="_top" xlink:title="Parses a token stream into an AST by using the Ark::Node.">
<polygon fill="white" stroke="black" points="446,-235.5 446,-254.5 601,-254.5 601,-235.5 446,-235.5"/>
<text text-anchor="middle" x="523.5" y="-242.5" font-family="Helvetica,sans-Serif" font-size="10.00">Ark/Compiler/AST/Parser.hpp</text>
</a>
</g>
</g>
<!-- Node1&#45;&gt;Node14 -->
<g id="edge18" class="edge">
<title>Node1&#45;&gt;Node14</title>
<path fill="none" stroke="midnightblue" d="M775.41,-298.31C716.79,-286.14 629.29,-267.97 574.36,-256.56"/>
<polygon fill="midnightblue" stroke="midnightblue" points="575,-253.12 564.5,-254.51 573.58,-259.97 575,-253.12"/>
</g>
<!-- Node20 -->
<g id="node20" class="node">
<title>Node20</title>
<g id="a_node20"><a xlink:href="../../db/d93/Optimizer_8hpp.html" target="_top" xlink:title="Optimizes a given ArkScript AST.">
<polygon fill="white" stroke="black" points="1151,-235.5 1151,-254.5 1324,-254.5 1324,-235.5 1151,-235.5"/>
<text text-anchor="middle" x="1237.5" y="-242.5" font-family="Helvetica,sans-Serif" font-size="10.00">Ark/Compiler/AST/Optimizer.hpp</text>
</a>
</g>
</g>
<!-- Node1&#45;&gt;Node20 -->
<g id="edge35" class="edge">
<title>Node1&#45;&gt;Node20</title>
<path fill="none" stroke="midnightblue" d="M897.84,-301.06C972.75,-288.91 1098.8,-268.48 1174.47,-256.22"/>
<polygon fill="midnightblue" stroke="midnightblue" points="1175.5,-259.6 1184.81,-254.54 1174.37,-252.69 1175.5,-259.6"/>
</g>
<!-- Node37 -->
<g id="node37" class="node">
<title>Node37</title>
<g id="a_node37"><a xlink:href="../../dd/de7/ValTableElem_8hpp.html" target="_top" xlink:title="The basic value type handled by the compiler.">
<polygon fill="white" stroke="black" points="827.5,-174 827.5,-193 997.5,-193 997.5,-174 827.5,-174"/>
<text text-anchor="middle" x="912.5" y="-181" font-family="Helvetica,sans-Serif" font-size="10.00">Ark/Compiler/ValTableElem.hpp</text>
</a>
</g>
</g>
<!-- Node1&#45;&gt;Node37 -->
<g id="edge76" class="edge">
<title>Node1&#45;&gt;Node37</title>
<path fill="none" stroke="midnightblue" d="M848.38,-291.23C863.06,-266.79 887.83,-225.56 901.9,-202.14"/>
<polygon fill="midnightblue" stroke="midnightblue" points="905.07,-203.67 907.22,-193.29 899.07,-200.06 905.07,-203.67"/>
</g>
<!-- Node7&#45;&gt;Node4 -->
<g id="edge7" class="edge">
<title>Node7&#45;&gt;Node4</title>
<path fill="none" stroke="midnightblue" d="M82.39,-235.48C89.32,-206.13 116.14,-108.11 175.5,-56 199.83,-34.64 234.93,-23.25 262.22,-17.27"/>
<polygon fill="midnightblue" stroke="midnightblue" points="263.16,-20.65 272.26,-15.24 261.77,-13.79 263.16,-20.65"/>
</g>
<!-- Node8&#45;&gt;Node2 -->
<g id="edge12" class="edge">
<title>Node8&#45;&gt;Node2</title>
<path fill="none" stroke="midnightblue" d="M814.17,-112.25C827.14,-98.03 854.91,-70.12 884.5,-56 948.42,-25.5 1031.93,-15.67 1077.76,-12.5"/>
<polygon fill="midnightblue" stroke="midnightblue" points="1077.99,-15.99 1087.75,-11.88 1077.55,-9.01 1077.99,-15.99"/>
</g>
<!-- Node8&#45;&gt;Node3 -->
<g id="edge11" class="edge">
<title>Node8&#45;&gt;Node3</title>
<path fill="none" stroke="midnightblue" d="M824.01,-112.32C841.57,-103.62 868.83,-90.12 889.03,-80.11"/>
<polygon fill="midnightblue" stroke="midnightblue" points="890.62,-83.23 898.03,-75.65 887.52,-76.96 890.62,-83.23"/>
</g>
<!-- Node9 -->
<g id="node9" class="node">
<title>Node9</title>
<g id="a_node9"><a xlink:title=" ">
<polygon fill="white" stroke="#bfbfbf" points="956,-56.5 956,-75.5 1007,-75.5 1007,-56.5 956,-56.5"/>
<text text-anchor="middle" x="981.5" y="-63.5" font-family="Helvetica,sans-Serif" font-size="10.00">variant</text>
</a>
</g>
</g>
<!-- Node8&#45;&gt;Node9 -->
<g id="edge9" class="edge">
<title>Node8&#45;&gt;Node9</title>
<path fill="none" stroke="midnightblue" d="M834.23,-112.44C864.54,-103.09 913.17,-88.08 946.19,-77.9"/>
<polygon fill="midnightblue" stroke="midnightblue" points="947.37,-81.19 955.89,-74.9 945.31,-74.51 947.37,-81.19"/>
</g>
<!-- Node10 -->
<g id="node10" class="node">
<title>Node10</title>
<g id="a_node10"><a xlink:title=" ">
<polygon fill="white" stroke="#bfbfbf" points="408,-56.5 408,-75.5 465,-75.5 465,-56.5 408,-56.5"/>
<text text-anchor="middle" x="436.5" y="-63.5" font-family="Helvetica,sans-Serif" font-size="10.00">ostream</text>
</a>
</g>
</g>
<!-- Node8&#45;&gt;Node10 -->
<g id="edge10" class="edge">
<title>Node8&#45;&gt;Node10</title>
<path fill="none" stroke="midnightblue" d="M730.42,-113.01C665.01,-105.61 567.97,-93.39 474.98,-76.13"/>
<polygon fill="midnightblue" stroke="midnightblue" points="475.59,-72.68 465.12,-74.27 474.3,-79.56 475.59,-72.68"/>
</g>
<!-- Node11 -->
<g id="node11" class="node">
<title>Node11</title>
<g id="a_node11"><a xlink:href="../../d8/ddd/Common_8hpp.html" target="_top" xlink:title="Common code for the compiler.">
<polygon fill="white" stroke="black" points="483,-56.5 483,-75.5 632,-75.5 632,-56.5 483,-56.5"/>
<text text-anchor="middle" x="557.5" y="-63.5" font-family="Helvetica,sans-Serif" font-size="10.00">Ark/Compiler/Common.hpp</text>
</a>
</g>
</g>
<!-- Node8&#45;&gt;Node11 -->
<g id="edge13" class="edge">
<title>Node8&#45;&gt;Node11</title>
<path fill="none" stroke="midnightblue" d="M767.05,-112.44C723.61,-103.02 653.71,-87.87 606.72,-77.68"/>
<polygon fill="midnightblue" stroke="midnightblue" points="607.28,-74.22 596.77,-75.52 605.8,-81.06 607.28,-74.22"/>
</g>
<!-- Node11&#45;&gt;Node2 -->
<g id="edge16" class="edge">
<title>Node11&#45;&gt;Node2</title>
<path fill="none" stroke="midnightblue" d="M632.39,-57.31C636.83,-56.87 641.22,-56.43 645.5,-56 807.33,-39.91 1000.87,-21.48 1077.68,-14.2"/>
<polygon fill="midnightblue" stroke="midnightblue" points="1078.11,-17.68 1087.73,-13.25 1077.45,-10.71 1078.11,-17.68"/>
</g>
<!-- Node11&#45;&gt;Node4 -->
<g id="edge17" class="edge">
<title>Node11&#45;&gt;Node4</title>
<path fill="none" stroke="midnightblue" d="M517.25,-56.44C470.08,-46.41 392.31,-29.88 344.72,-19.76"/>
<polygon fill="midnightblue" stroke="midnightblue" points="345.26,-16.3 334.75,-17.64 343.8,-23.15 345.26,-16.3"/>
</g>
<!-- Node12 -->
<g id="node12" class="node">
<title>Node12</title>
<g id="a_node12"><a xlink:title=" ">
<polygon fill="white" stroke="#bfbfbf" points="536.5,-0.5 536.5,-19.5 578.5,-19.5 578.5,-0.5 536.5,-0.5"/>
<text text-anchor="middle" x="557.5" y="-7.5" font-family="Helvetica,sans-Serif" font-size="10.00">array</text>
</a>
</g>
</g>
<!-- Node11&#45;&gt;Node12 -->
<g id="edge14" class="edge">
<title>Node11&#45;&gt;Node12</title>
<path fill="none" stroke="midnightblue" d="M557.5,-56.08C557.5,-49.01 557.5,-38.86 557.5,-29.99"/>
<polygon fill="midnightblue" stroke="midnightblue" points="561,-29.75 557.5,-19.75 554,-29.75 561,-29.75"/>
</g>
<!-- Node13 -->
<g id="node13" class="node">
<title>Node13</title>
<g id="a_node13"><a xlink:title=" ">
<polygon fill="white" stroke="#bfbfbf" points="399,-0.5 399,-19.5 472,-19.5 472,-0.5 399,-0.5"/>
<text text-anchor="middle" x="435.5" y="-7.5" font-family="Helvetica,sans-Serif" font-size="10.00">string_view</text>
</a>
</g>
</g>
<!-- Node11&#45;&gt;Node13 -->
<g id="edge15" class="edge">
<title>Node11&#45;&gt;Node13</title>
<path fill="none" stroke="midnightblue" d="M538.17,-56.44C518.18,-47.6 486.76,-33.69 463.94,-23.59"/>
<polygon fill="midnightblue" stroke="midnightblue" points="465.3,-20.36 454.74,-19.52 462.47,-26.76 465.3,-20.36"/>
</g>
<!-- Node14&#45;&gt;Node2 -->
<g id="edge22" class="edge">
<title>Node14&#45;&gt;Node2</title>
<path fill="none" stroke="midnightblue" d="M524.79,-235.36C527.31,-220.52 534,-189.72 548.5,-168 569.67,-136.29 579.53,-129.32 613.5,-112 773.68,-30.31 994.47,-14.68 1077.82,-11.7"/>
<polygon fill="midnightblue" stroke="midnightblue" points="1078.09,-15.19 1087.98,-11.37 1077.87,-8.19 1078.09,-15.19"/>
</g>
<!-- Node14&#45;&gt;Node3 -->
<g id="edge19" class="edge">
<title>Node14&#45;&gt;Node3</title>
<path fill="none" stroke="midnightblue" d="M528.21,-235.43C542.29,-210.78 586.84,-139.7 646.5,-112 725.89,-75.14 830.88,-68.05 883.11,-66.95"/>
<polygon fill="midnightblue" stroke="midnightblue" points="883.48,-70.45 893.43,-66.8 883.38,-63.45 883.48,-70.45"/>
</g>
<!-- Node14&#45;&gt;Node4 -->
<g id="edge23" class="edge">
<title>Node14&#45;&gt;Node4</title>
<path fill="none" stroke="midnightblue" d="M445.84,-240.82C379.92,-236.3 292.6,-225.37 270.5,-199 228.68,-149.08 270.51,-65.01 292.21,-28.64"/>
<polygon fill="midnightblue" stroke="midnightblue" points="295.44,-30.07 297.71,-19.72 289.49,-26.4 295.44,-30.07"/>
</g>
<!-- Node14&#45;&gt;Node8 -->
<g id="edge34" class="edge">
<title>Node14&#45;&gt;Node8</title>
<path fill="none" stroke="midnightblue" d="M582.15,-235.5C618.6,-228.76 665.72,-217.35 704.5,-199 709.05,-196.85 758.76,-159.28 787.07,-137.79"/>
<polygon fill="midnightblue" stroke="midnightblue" points="789.25,-140.53 795.09,-131.69 785.01,-134.95 789.25,-140.53"/>
</g>
<!-- Node14&#45;&gt;Node10 -->
<g id="edge21" class="edge">
<title>Node14&#45;&gt;Node10</title>
<path fill="none" stroke="midnightblue" d="M445.83,-239.86C384.08,-234.75 304.82,-223.5 284.5,-199 257.57,-166.52 289.57,-138.38 322.5,-112 344.59,-94.31 374.5,-82.85 398.14,-75.93"/>
<polygon fill="midnightblue" stroke="midnightblue" points="399.14,-79.28 407.84,-73.24 397.27,-72.54 399.14,-79.28"/>
</g>
<!-- Node15 -->
<g id="node15" class="node">
<title>Node15</title>
<g id="a_node15"><a xlink:title=" ">
<polygon fill="white" stroke="#bfbfbf" points="293.5,-174 293.5,-193 325.5,-193 325.5,-174 293.5,-174"/>
<text text-anchor="middle" x="309.5" y="-181" font-family="Helvetica,sans-Serif" font-size="10.00">list</text>
</a>
</g>
</g>
<!-- Node14&#45;&gt;Node15 -->
<g id="edge20" class="edge">
<title>Node14&#45;&gt;Node15</title>
<path fill="none" stroke="midnightblue" d="M469.27,-235.43C430.77,-228.32 378.36,-216.5 334.5,-199 333.62,-198.65 332.74,-198.27 331.86,-197.88"/>
<polygon fill="midnightblue" stroke="midnightblue" points="333.12,-194.59 322.63,-193.07 329.89,-200.8 333.12,-194.59"/>
</g>
<!-- Node16 -->
<g id="node16" class="node">
<title>Node16</title>
<g id="a_node16"><a xlink:href="../../d6/de9/Constants_8hpp.html" target="_top" xlink:title="Constants used by ArkScript.">
<polygon fill="white" stroke="black" points="589.5,-174 589.5,-193 695.5,-193 695.5,-174 589.5,-174"/>
<text text-anchor="middle" x="642.5" y="-181" font-family="Helvetica,sans-Serif" font-size="10.00">Ark/Constants.hpp</text>
</a>
</g>
</g>
<!-- Node14&#45;&gt;Node16 -->
<g id="edge24" class="edge">
<title>Node14&#45;&gt;Node16</title>
<path fill="none" stroke="midnightblue" d="M540.55,-235.48C560.34,-225.58 593.22,-209.14 616.27,-197.62"/>
<polygon fill="midnightblue" stroke="midnightblue" points="618.1,-200.61 625.48,-193.01 614.97,-194.35 618.1,-200.61"/>
</g>
<!-- Node18 -->
<g id="node18" class="node">
<title>Node18</title>
<g id="a_node18"><a xlink:href="../../da/d79/Lexer_8hpp.html" target="_top" xlink:title="Tokenize ArkScript code.">
<polygon fill="white" stroke="black" points="343.5,-174 343.5,-193 495.5,-193 495.5,-174 343.5,-174"/>
<text text-anchor="middle" x="419.5" y="-181" font-family="Helvetica,sans-Serif" font-size="10.00">Ark/Compiler/AST/Lexer.hpp</text>
</a>
</g>
</g>
<!-- Node14&#45;&gt;Node18 -->
<g id="edge27" class="edge">
<title>Node14&#45;&gt;Node18</title>
<path fill="none" stroke="midnightblue" d="M508.6,-235.48C491.53,-225.71 463.34,-209.58 443.24,-198.08"/>
<polygon fill="midnightblue" stroke="midnightblue" points="444.79,-194.94 434.37,-193.01 441.31,-201.01 444.79,-194.94"/>
</g>
<!-- Node16&#45;&gt;Node4 -->
<g id="edge25" class="edge">
<title>Node16&#45;&gt;Node4</title>
<path fill="none" stroke="midnightblue" d="M589.44,-175.77C500.94,-164.32 331.87,-141.37 322.5,-132 295.54,-105.02 297.03,-56.44 300.34,-29.78"/>
<polygon fill="midnightblue" stroke="midnightblue" points="303.81,-30.22 301.79,-19.82 296.89,-29.21 303.81,-30.22"/>
</g>
<!-- Node17 -->
<g id="node17" class="node">
<title>Node17</title>
<g id="a_node17"><a xlink:title=" ">
<polygon fill="white" stroke="#bfbfbf" points="656,-112.5 656,-131.5 709,-131.5 709,-112.5 656,-112.5"/>
<text text-anchor="middle" x="682.5" y="-119.5" font-family="Helvetica,sans-Serif" font-size="10.00">cstddef</text>
</a>
</g>
</g>
<!-- Node16&#45;&gt;Node17 -->
<g id="edge26" class="edge">
<title>Node16&#45;&gt;Node17</title>
<path fill="none" stroke="midnightblue" d="M648.23,-173.98C654.17,-165.14 663.62,-151.09 671.09,-139.98"/>
<polygon fill="midnightblue" stroke="midnightblue" points="674.11,-141.76 676.78,-131.51 668.3,-137.86 674.11,-141.76"/>
</g>
<!-- Node18&#45;&gt;Node2 -->
<g id="edge28" class="edge">
<title>Node18&#45;&gt;Node2</title>
<path fill="none" stroke="midnightblue" d="M437.39,-173.88C496.24,-145.52 680.21,-56.93 683.5,-56 826.02,-15.66 1004.48,-10.81 1077.74,-10.68"/>
<polygon fill="midnightblue" stroke="midnightblue" points="1077.77,-14.18 1087.77,-10.69 1077.78,-7.18 1077.77,-14.18"/>
</g>
<!-- Node18&#45;&gt;Node11 -->
<g id="edge33" class="edge">
<title>Node18&#45;&gt;Node11</title>
<path fill="none" stroke="midnightblue" d="M434.23,-173.85C449.84,-164.4 474.88,-148.42 494.5,-132 512.66,-116.8 531.28,-96.97 543.51,-83.23"/>
<polygon fill="midnightblue" stroke="midnightblue" points="546.28,-85.38 550.25,-75.55 541.02,-80.76 546.28,-85.38"/>
</g>
<!-- Node19 -->
<g id="node19" class="node">
<title>Node19</title>
<g id="a_node19"><a xlink:href="../../d3/d6e/Token_8hpp.html" target="_top" xlink:title="Token definition for ArkScript.">
<polygon fill="white" stroke="black" points="331.5,-112.5 331.5,-131.5 485.5,-131.5 485.5,-112.5 331.5,-112.5"/>
<text text-anchor="middle" x="408.5" y="-119.5" font-family="Helvetica,sans-Serif" font-size="10.00">Ark/Compiler/AST/Token.hpp</text>
</a>
</g>
</g>
<!-- Node18&#45;&gt;Node19 -->
<g id="edge29" class="edge">
<title>Node18&#45;&gt;Node19</title>
<path fill="none" stroke="midnightblue" d="M417.92,-173.98C416.37,-165.58 413.95,-152.48 411.95,-141.66"/>
<polygon fill="midnightblue" stroke="midnightblue" points="415.33,-140.71 410.07,-131.51 408.45,-141.98 415.33,-140.71"/>
</g>
<!-- Node19&#45;&gt;Node3 -->
<g id="edge31" class="edge">
<title>Node19&#45;&gt;Node3</title>
<path fill="none" stroke="midnightblue" d="M485.5,-112.8C598.21,-100.79 803.32,-78.95 882.81,-70.48"/>
<polygon fill="midnightblue" stroke="midnightblue" points="883.6,-73.92 893.17,-69.38 882.85,-66.96 883.6,-73.92"/>
</g>
<!-- Node19&#45;&gt;Node12 -->
<g id="edge30" class="edge">
<title>Node19&#45;&gt;Node12</title>
<path fill="none" stroke="midnightblue" d="M403.56,-112.44C396.54,-99 385.83,-72.76 398.5,-56 413.89,-35.64 484.69,-21.85 526.45,-15.32"/>
<polygon fill="midnightblue" stroke="midnightblue" points="527.02,-18.78 536.39,-13.82 525.97,-11.86 527.02,-18.78"/>
</g>
<!-- Node19&#45;&gt;Node13 -->
<g id="edge32" class="edge">
<title>Node19&#45;&gt;Node13</title>
<path fill="none" stroke="midnightblue" d="M395.74,-112.46C379.26,-100.31 353.96,-77.14 365.5,-56 373.32,-41.68 387.86,-31.24 401.68,-24.04"/>
<polygon fill="midnightblue" stroke="midnightblue" points="403.52,-27.03 411.03,-19.56 400.5,-20.72 403.52,-27.03"/>
</g>
<!-- Node20&#45;&gt;Node3 -->
<g id="edge38" class="edge">
<title>Node20&#45;&gt;Node3</title>
<path fill="none" stroke="midnightblue" d="M1236.67,-235.08C1235,-220.35 1230.34,-190.36 1218.5,-168 1202.89,-138.51 1197.75,-128.05 1168.5,-112 1083.97,-65.64 1047,-95.5 947.61,-75.69"/>
<polygon fill="midnightblue" stroke="midnightblue" points="948.31,-72.26 937.8,-73.62 946.86,-79.11 948.31,-72.26"/>
</g>
<!-- Node20&#45;&gt;Node4 -->
<g id="edge39" class="edge">
<title>Node20&#45;&gt;Node4</title>
<path fill="none" stroke="midnightblue" d="M1239.24,-235.28C1241.74,-220.85 1245.26,-191.28 1237.5,-168 1227.66,-138.49 1221.45,-129.17 1195.5,-112 1139.76,-75.12 1111.23,-101.61 1049.5,-76 1033.66,-69.43 1032.88,-61.09 1016.5,-56 883.22,-14.61 528.61,-31.27 389.5,-20 374.81,-18.81 358.74,-17.21 344.51,-15.69"/>
<polygon fill="midnightblue" stroke="midnightblue" points="344.84,-12.2 334.52,-14.6 344.08,-19.16 344.84,-12.2"/>
</g>
<!-- Node20&#45;&gt;Node8 -->
<g id="edge40" class="edge">
<title>Node20&#45;&gt;Node8</title>
<path fill="none" stroke="midnightblue" d="M1150.59,-240.24C1034.9,-234.4 842.05,-221.41 818.5,-199 803.26,-184.5 802.23,-159.07 803.69,-141.65"/>
<polygon fill="midnightblue" stroke="midnightblue" points="807.19,-141.9 804.89,-131.56 800.24,-141.08 807.19,-141.9"/>
</g>
<!-- Node20&#45;&gt;Node16 -->
<g id="edge71" class="edge">
<title>Node20&#45;&gt;Node16</title>
<path fill="none" stroke="midnightblue" d="M1151.26,-235.46C1060.31,-226.44 912.81,-211.79 785.5,-199 759.42,-196.38 730.67,-193.47 705.83,-190.95"/>
<polygon fill="midnightblue" stroke="midnightblue" points="706.11,-187.46 695.81,-189.93 705.4,-194.42 706.11,-187.46"/>
</g>
<!-- Node21 -->
<g id="node21" class="node">
<title>Node21</title>
<g id="a_node21"><a xlink:title=" ">
<polygon fill="white" stroke="#bfbfbf" points="2026,-56.5 2026,-75.5 2091,-75.5 2091,-56.5 2026,-56.5"/>
<text text-anchor="middle" x="2058.5" y="-63.5" font-family="Helvetica,sans-Serif" font-size="10.00">functional</text>
</a>
</g>
</g>
<!-- Node20&#45;&gt;Node21 -->
<g id="edge36" class="edge">
<title>Node20&#45;&gt;Node21</title>
<path fill="none" stroke="midnightblue" d="M1306.25,-235.5C1366.66,-227.57 1456.79,-214.64 1534.5,-199 1717.41,-162.19 1932.37,-102.91 2019.19,-78.29"/>
<polygon fill="midnightblue" stroke="midnightblue" points="2020.23,-81.63 2028.89,-75.53 2018.32,-74.9 2020.23,-81.63"/>
</g>
<!-- Node22 -->
<g id="node22" class="node">
<title>Node22</title>
<g id="a_node22"><a xlink:title=" ">
<polygon fill="white" stroke="#bfbfbf" points="1304,-174 1304,-193 1397,-193 1397,-174 1304,-174"/>
<text text-anchor="middle" x="1350.5" y="-181" font-family="Helvetica,sans-Serif" font-size="10.00">unordered_map</text>
</a>
</g>
</g>
<!-- Node20&#45;&gt;Node22 -->
<g id="edge37" class="edge">
<title>Node20&#45;&gt;Node22</title>
<path fill="none" stroke="midnightblue" d="M1253.69,-235.48C1272.4,-225.62 1303.42,-209.29 1325.3,-197.77"/>
<polygon fill="midnightblue" stroke="midnightblue" points="1327.12,-200.77 1334.34,-193.01 1323.86,-194.57 1327.12,-200.77"/>
</g>
<!-- Node23 -->
<g id="node23" class="node">
<title>Node23</title>
<g id="a_node23"><a xlink:href="../../d2/de9/Exceptions_8hpp.html" target="_top" xlink:title="ArkScript homemade exceptions.">
<polygon fill="white" stroke="black" points="1415.5,-174 1415.5,-193 1525.5,-193 1525.5,-174 1415.5,-174"/>
<text text-anchor="middle" x="1470.5" y="-181" font-family="Helvetica,sans-Serif" font-size="10.00">Ark/Exceptions.hpp</text>
</a>
</g>
</g>
<!-- Node20&#45;&gt;Node23 -->
<g id="edge41" class="edge">
<title>Node20&#45;&gt;Node23</title>
<path fill="none" stroke="midnightblue" d="M1270.88,-235.48C1312.06,-224.96 1382.15,-207.06 1427.37,-195.51"/>
<polygon fill="midnightblue" stroke="midnightblue" points="1428.36,-198.87 1437.18,-193.01 1426.62,-192.09 1428.36,-198.87"/>
</g>
<!-- Node35 -->
<g id="node35" class="node">
<title>Node35</title>
<g id="a_node35"><a xlink:href="../../dc/dc5/makeErrorCtx_8hpp.html" target="_top" xlink:title="Create string error context for AST errors.">
<polygon fill="white" stroke="black" points="1054,-168.5 1054,-198.5 1209,-198.5 1209,-168.5 1054,-168.5"/>
<text text-anchor="start" x="1062" y="-186.5" font-family="Helvetica,sans-Serif" font-size="10.00">Ark/Compiler/AST/makeError</text>
<text text-anchor="middle" x="1131.5" y="-175.5" font-family="Helvetica,sans-Serif" font-size="10.00">Ctx.hpp</text>
</a>
</g>
</g>
<!-- Node20&#45;&gt;Node35 -->
<g id="edge72" class="edge">
<title>Node20&#45;&gt;Node35</title>
<path fill="none" stroke="midnightblue" d="M1222.31,-235.48C1207.49,-227.15 1184.42,-214.21 1165.25,-203.45"/>
<polygon fill="midnightblue" stroke="midnightblue" points="1166.92,-200.37 1156.48,-198.52 1163.49,-206.47 1166.92,-200.37"/>
</g>
<!-- Node23&#45;&gt;Node2 -->
<g id="edge44" class="edge">
<title>Node23&#45;&gt;Node2</title>
<path fill="none" stroke="midnightblue" d="M1470.72,-173.99C1470.6,-158.94 1467.99,-127.72 1449.5,-112 1353.91,-30.73 1280.5,-134.5 1169.5,-76 1148.67,-65.02 1131.72,-43.36 1121.64,-28.06"/>
<polygon fill="midnightblue" stroke="midnightblue" points="1124.56,-26.13 1116.28,-19.52 1118.63,-29.85 1124.56,-26.13"/>
</g>
<!-- Node23&#45;&gt;Node3 -->
<g id="edge43" class="edge">
<title>Node23&#45;&gt;Node3</title>
<path fill="none" stroke="midnightblue" d="M1438.69,-173.94C1372.66,-156.21 1224.9,-116.71 1201.5,-112 1092.89,-90.15 1060.87,-98.95 947.88,-75.79"/>
<polygon fill="midnightblue" stroke="midnightblue" points="948.29,-72.3 937.79,-73.68 946.86,-79.15 948.29,-72.3"/>
</g>
<!-- Node24 -->
<g id="node24" class="node">
<title>Node24</title>
<g id="a_node24"><a xlink:title=" ">
<polygon fill="white" stroke="#bfbfbf" points="1292,-112.5 1292,-131.5 1357,-131.5 1357,-112.5 1292,-112.5"/>
<text text-anchor="middle" x="1324.5" y="-119.5" font-family="Helvetica,sans-Serif" font-size="10.00">exception</text>
</a>
</g>
</g>
<!-- Node23&#45;&gt;Node24 -->
<g id="edge42" class="edge">
<title>Node23&#45;&gt;Node24</title>
<path fill="none" stroke="midnightblue" d="M1449.58,-173.98C1424.75,-163.86 1383.16,-146.9 1354.81,-135.35"/>
<polygon fill="midnightblue" stroke="midnightblue" points="1355.96,-132.04 1345.38,-131.51 1353.32,-138.52 1355.96,-132.04"/>
</g>
<!-- Node25 -->
<g id="node25" class="node">
<title>Node25</title>
<g id="a_node25"><a xlink:title=" ">
<polygon fill="white" stroke="#bfbfbf" points="1375,-112.5 1375,-131.5 1440,-131.5 1440,-112.5 1375,-112.5"/>
<text text-anchor="middle" x="1407.5" y="-119.5" font-family="Helvetica,sans-Serif" font-size="10.00">stdexcept</text>
</a>
</g>
</g>
<!-- Node23&#45;&gt;Node25 -->
<g id="edge45" class="edge">
<title>Node23&#45;&gt;Node25</title>
<path fill="none" stroke="midnightblue" d="M1461.47,-173.98C1451.74,-164.78 1436.04,-149.96 1424.08,-138.66"/>
<polygon fill="midnightblue" stroke="midnightblue" points="1426.18,-135.83 1416.51,-131.51 1421.38,-140.92 1426.18,-135.83"/>
</g>
<!-- Node26 -->
<g id="node26" class="node">
<title>Node26</title>
<g id="a_node26"><a xlink:href="../../de/dfd/Value_8hpp.html" target="_top" xlink:title=" ">
<polygon fill="white" stroke="black" points="1497,-112.5 1497,-131.5 1600,-131.5 1600,-112.5 1497,-112.5"/>
<text text-anchor="middle" x="1548.5" y="-119.5" font-family="Helvetica,sans-Serif" font-size="10.00">Ark/VM/Value.hpp</text>
</a>
</g>
</g>
<!-- Node23&#45;&gt;Node26 -->
<g id="edge46" class="edge">
<title>Node23&#45;&gt;Node26</title>
<path fill="none" stroke="midnightblue" d="M1481.68,-173.98C1494.07,-164.52 1514.29,-149.1 1529.25,-137.69"/>
<polygon fill="midnightblue" stroke="midnightblue" points="1531.52,-140.36 1537.35,-131.51 1527.27,-134.79 1531.52,-140.36"/>
</g>
<!-- Node26&#45;&gt;Node2 -->
<g id="edge47" class="edge">
<title>Node26&#45;&gt;Node2</title>
<path fill="none" stroke="midnightblue" d="M1531.55,-112.43C1503.25,-98.49 1444.3,-70.95 1391.5,-56 1304.63,-31.4 1198.55,-18.96 1145.35,-13.87"/>
<polygon fill="midnightblue" stroke="midnightblue" points="1145.41,-10.36 1135.13,-12.92 1144.77,-17.33 1145.41,-10.36"/>
</g>
<!-- Node26&#45;&gt;Node3 -->
<g id="edge49" class="edge">
<title>Node26&#45;&gt;Node3</title>
<path fill="none" stroke="midnightblue" d="M1496.88,-116.12C1481.63,-114.73 1464.9,-113.25 1449.5,-112 1229.82,-94.14 1169.6,-113.88 947.75,-75.62"/>
<polygon fill="midnightblue" stroke="midnightblue" points="948.2,-72.15 937.75,-73.88 947,-79.05 948.2,-72.15"/>
</g>
<!-- Node26&#45;&gt;Node4 -->
<g id="edge50" class="edge">
<title>Node26&#45;&gt;Node4</title>
<path fill="none" stroke="midnightblue" d="M1496.92,-116.23C1378.63,-105.25 1097.23,-78.91 1087.5,-76 1069.22,-70.53 1067.9,-61.08 1049.5,-56 907.92,-16.89 535.92,-31.65 389.5,-20 374.81,-18.83 358.74,-17.24 344.51,-15.71"/>
<polygon fill="midnightblue" stroke="midnightblue" points="344.84,-12.23 334.51,-14.62 344.08,-19.19 344.84,-12.23"/>
</g>
<!-- Node26&#45;&gt;Node6 -->
<g id="edge68" class="edge">
<title>Node26&#45;&gt;Node6</title>
<path fill="none" stroke="midnightblue" d="M1600.18,-118.45C1696.98,-113.15 1897.74,-99.43 1918.5,-76 1934.4,-58.05 1908.47,-37.62 1886.13,-24.53"/>
<polygon fill="midnightblue" stroke="midnightblue" points="1887.65,-21.37 1877.21,-19.56 1884.24,-27.49 1887.65,-21.37"/>
</g>
<!-- Node26&#45;&gt;Node9 -->
<g id="edge48" class="edge">
<title>Node26&#45;&gt;Node9</title>
<path fill="none" stroke="midnightblue" d="M1496.62,-116.26C1375.17,-105.15 1080.99,-78.23 1059.5,-76 1045.7,-74.57 1030.54,-72.85 1017.29,-71.31"/>
<polygon fill="midnightblue" stroke="midnightblue" points="1017.47,-67.8 1007.13,-70.11 1016.65,-74.75 1017.47,-67.8"/>
</g>
<!-- Node26&#45;&gt;Node12 -->
<g id="edge56" class="edge">
<title>Node26&#45;&gt;Node12</title>
<path fill="none" stroke="midnightblue" d="M1496.87,-115.65C1408.33,-106.35 1231.12,-87.13 1169.5,-76 1132.58,-69.33 1124.52,-62.05 1087.5,-56 899.98,-25.36 671.51,-14.9 589.06,-11.98"/>
<polygon fill="midnightblue" stroke="midnightblue" points="588.97,-8.47 578.85,-11.63 588.73,-15.47 588.97,-8.47"/>
</g>
<!-- Node26&#45;&gt;Node21 -->
<g id="edge53" class="edge">
<title>Node26&#45;&gt;Node21</title>
<path fill="none" stroke="midnightblue" d="M1600.07,-117.55C1685.78,-111.47 1862.82,-97.41 2011.5,-76 2012.96,-75.79 2014.45,-75.56 2015.95,-75.33"/>
<polygon fill="midnightblue" stroke="midnightblue" points="2016.67,-78.76 2025.95,-73.64 2015.51,-71.85 2016.67,-78.76"/>
</g>
<!-- Node27 -->
<g id="node27" class="node">
<title>Node27</title>
<g id="a_node27"><a xlink:title=" ">
<polygon fill="white" stroke="#bfbfbf" points="1683.5,-0.5 1683.5,-19.5 1743.5,-19.5 1743.5,-0.5 1683.5,-0.5"/>
<text text-anchor="middle" x="1713.5" y="-7.5" font-family="Helvetica,sans-Serif" font-size="10.00">iostream</text>
</a>
</g>
</g>
<!-- Node26&#45;&gt;Node27 -->
<g id="edge51" class="edge">
<title>Node26&#45;&gt;Node27</title>
<path fill="none" stroke="midnightblue" d="M1600.13,-118.15C1693.55,-112.47 1882.84,-98.31 1902.5,-76 1908.38,-69.33 1908.01,-62.98 1902.5,-56 1884.35,-33.02 1803.86,-20.51 1753.96,-14.84"/>
<polygon fill="midnightblue" stroke="midnightblue" points="1754.12,-11.34 1743.8,-13.73 1753.37,-18.3 1754.12,-11.34"/>
</g>
<!-- Node28 -->
<g id="node28" class="node">
<title>Node28</title>
<g id="a_node28"><a xlink:title=" ">
<polygon fill="white" stroke="#bfbfbf" points="1519.5,-0.5 1519.5,-19.5 1577.5,-19.5 1577.5,-0.5 1519.5,-0.5"/>
<text text-anchor="middle" x="1548.5" y="-7.5" font-family="Helvetica,sans-Serif" font-size="10.00">memory</text>
</a>
</g>
</g>
<!-- Node26&#45;&gt;Node28 -->
<g id="edge52" class="edge">
<title>Node26&#45;&gt;Node28</title>
<path fill="none" stroke="midnightblue" d="M1521.26,-112.44C1492.52,-101.84 1453.32,-81.95 1468.5,-56 1477.56,-40.51 1494.13,-29.94 1509.85,-22.96"/>
<polygon fill="midnightblue" stroke="midnightblue" points="1511.51,-26.06 1519.46,-19.06 1508.87,-19.58 1511.51,-26.06"/>
</g>
<!-- Node29 -->
<g id="node29" class="node">
<title>Node29</title>
<g id="a_node29"><a xlink:title=" ">
<polygon fill="white" stroke="#bfbfbf" points="1951,-0.5 1951,-19.5 1996,-19.5 1996,-0.5 1951,-0.5"/>
<text text-anchor="middle" x="1973.5" y="-7.5" font-family="Helvetica,sans-Serif" font-size="10.00">utility</text>
</a>
</g>
</g>
<!-- Node26&#45;&gt;Node29 -->
<g id="edge54" class="edge">
<title>Node26&#45;&gt;Node29</title>
<path fill="none" stroke="midnightblue" d="M1600.05,-120.53C1692.14,-118.79 1880.37,-110.94 1934.5,-76 1951.05,-65.32 1961.58,-44.91 1967.47,-29.8"/>
<polygon fill="midnightblue" stroke="midnightblue" points="1970.92,-30.54 1970.96,-19.94 1964.32,-28.2 1970.92,-30.54"/>
</g>
<!-- Node30 -->
<g id="node30" class="node">
<title>Node30</title>
<g id="a_node30"><a xlink:title=" ">
<polygon fill="white" stroke="#bfbfbf" points="1807.5,-56.5 1807.5,-75.5 1893.5,-75.5 1893.5,-56.5 1807.5,-56.5"/>
<text text-anchor="middle" x="1850.5" y="-63.5" font-family="Helvetica,sans-Serif" font-size="10.00">Ark/String.hpp</text>
</a>
</g>
</g>
<!-- Node26&#45;&gt;Node30 -->
<g id="edge55" class="edge">
<title>Node26&#45;&gt;Node30</title>
<path fill="none" stroke="midnightblue" d="M1596.35,-112.44C1651.11,-102.65 1740.53,-86.66 1797.4,-76.49"/>
<polygon fill="midnightblue" stroke="midnightblue" points="1798.05,-79.93 1807.27,-74.73 1796.81,-73.04 1798.05,-79.93"/>
</g>
<!-- Node31 -->
<g id="node31" class="node">
<title>Node31</title>
<g id="a_node31"><a xlink:href="../../dc/dd5/Closure_8hpp.html" target="_top" xlink:title="Subtype of the value type, handling closures.">
<polygon fill="white" stroke="black" points="1477,-56.5 1477,-75.5 1620,-75.5 1620,-56.5 1477,-56.5"/>
<text text-anchor="middle" x="1548.5" y="-63.5" font-family="Helvetica,sans-Serif" font-size="10.00">Ark/VM/Value/Closure.hpp</text>
</a>
</g>
</g>
<!-- Node26&#45;&gt;Node31 -->
<g id="edge57" class="edge">
<title>Node26&#45;&gt;Node31</title>
<path fill="none" stroke="midnightblue" d="M1548.5,-112.08C1548.5,-105.01 1548.5,-94.86 1548.5,-85.99"/>
<polygon fill="midnightblue" stroke="midnightblue" points="1552,-85.75 1548.5,-75.75 1545,-85.75 1552,-85.75"/>
</g>
<!-- Node32 -->
<g id="node32" class="node">
<title>Node32</title>
<g id="a_node32"><a xlink:href="../../dc/d3d/UserType_8hpp.html" target="_top" xlink:title="Subtype of the value, capable of handling any C++ type.">
<polygon fill="white" stroke="black" points="1638,-56.5 1638,-75.5 1789,-75.5 1789,-56.5 1638,-56.5"/>
<text text-anchor="middle" x="1713.5" y="-63.5" font-family="Helvetica,sans-Serif" font-size="10.00">Ark/VM/Value/UserType.hpp</text>
</a>
</g>
</g>
<!-- Node26&#45;&gt;Node32 -->
<g id="edge62" class="edge">
<title>Node26&#45;&gt;Node32</title>
<path fill="none" stroke="midnightblue" d="M1574.64,-112.44C1602.52,-103.32 1646.85,-88.81 1677.9,-78.65"/>
<polygon fill="midnightblue" stroke="midnightblue" points="1679.06,-81.95 1687.48,-75.52 1676.88,-75.3 1679.06,-81.95"/>
</g>
<!-- Node33 -->
<g id="node33" class="node">
<title>Node33</title>
<g id="a_node33"><a xlink:href="../../d0/dd2/Profiling_8hpp.html" target="_top" xlink:title=" ">
<polygon fill="white" stroke="black" points="1178,-56.5 1178,-75.5 1275,-75.5 1275,-56.5 1178,-56.5"/>
<text text-anchor="middle" x="1226.5" y="-63.5" font-family="Helvetica,sans-Serif" font-size="10.00">Ark/Profiling.hpp</text>
</a>
</g>
</g>
<!-- Node26&#45;&gt;Node33 -->
<g id="edge69" class="edge">
<title>Node26&#45;&gt;Node33</title>
<path fill="none" stroke="midnightblue" d="M1497.48,-112.44C1439.81,-102.77 1346.09,-87.05 1285.37,-76.87"/>
<polygon fill="midnightblue" stroke="midnightblue" points="1285.62,-73.37 1275.18,-75.16 1284.46,-80.27 1285.62,-73.37"/>
</g>
<!-- Node34 -->
<g id="node34" class="node">
<title>Node34</title>
<g id="a_node34"><a xlink:title=" ">
<polygon fill="white" stroke="#bfbfbf" points="1293,-56.5 1293,-75.5 1382,-75.5 1382,-56.5 1293,-56.5"/>
<text text-anchor="middle" x="1337.5" y="-63.5" font-family="Helvetica,sans-Serif" font-size="10.00">inline/Value.inl</text>
</a>
</g>
</g>
<!-- Node26&#45;&gt;Node34 -->
<g id="edge70" class="edge">
<title>Node26&#45;&gt;Node34</title>
<path fill="none" stroke="midnightblue" d="M1515.07,-112.44C1478.64,-103.12 1420.27,-88.18 1380.47,-78"/>
<polygon fill="midnightblue" stroke="midnightblue" points="1381.33,-74.61 1370.78,-75.52 1379.6,-81.39 1381.33,-74.61"/>
</g>
<!-- Node31&#45;&gt;Node2 -->
<g id="edge59" class="edge">
<title>Node31&#45;&gt;Node2</title>
<path fill="none" stroke="midnightblue" d="M1479.26,-56.44C1384.26,-44.7 1217.15,-24.05 1145.59,-15.21"/>
<polygon fill="midnightblue" stroke="midnightblue" points="1145.7,-11.7 1135.34,-13.95 1144.84,-18.65 1145.7,-11.7"/>
</g>
<!-- Node31&#45;&gt;Node6 -->
<g id="edge61" class="edge">
<title>Node31&#45;&gt;Node6</title>
<path fill="none" stroke="midnightblue" d="M1597.78,-56.44C1652.83,-46.89 1741.9,-31.42 1800.58,-21.23"/>
<polygon fill="midnightblue" stroke="midnightblue" points="1801.2,-24.68 1810.45,-19.52 1800,-17.78 1801.2,-24.68"/>
</g>
<!-- Node31&#45;&gt;Node27 -->
<g id="edge60" class="edge">
<title>Node31&#45;&gt;Node27</title>
<path fill="none" stroke="midnightblue" d="M1574.64,-56.44C1602.52,-47.32 1646.85,-32.81 1677.9,-22.65"/>
<polygon fill="midnightblue" stroke="midnightblue" points="1679.06,-25.95 1687.48,-19.52 1676.88,-19.3 1679.06,-25.95"/>
</g>
<!-- Node31&#45;&gt;Node28 -->
<g id="edge58" class="edge">
<title>Node31&#45;&gt;Node28</title>
<path fill="none" stroke="midnightblue" d="M1548.5,-56.08C1548.5,-49.01 1548.5,-38.86 1548.5,-29.99"/>
<polygon fill="midnightblue" stroke="midnightblue" points="1552,-29.75 1548.5,-19.75 1545,-29.75 1552,-29.75"/>
</g>
<!-- Node32&#45;&gt;Node2 -->
<g id="edge64" class="edge">
<title>Node32&#45;&gt;Node2</title>
<path fill="none" stroke="midnightblue" d="M1637.95,-56.83C1635.1,-56.55 1632.27,-56.27 1629.5,-56 1446.81,-38.28 1227.53,-20.32 1145.05,-13.68"/>
<polygon fill="midnightblue" stroke="midnightblue" points="1145.25,-10.18 1135.01,-12.87 1144.69,-17.16 1145.25,-10.18"/>
</g>
<!-- Node32&#45;&gt;Node6 -->
<g id="edge67" class="edge">
<title>Node32&#45;&gt;Node6</title>
<path fill="none" stroke="midnightblue" d="M1736.63,-56.44C1760.98,-47.44 1799.51,-33.19 1826.92,-23.05"/>
<polygon fill="midnightblue" stroke="midnightblue" points="1828.31,-26.27 1836.47,-19.52 1825.88,-19.7 1828.31,-26.27"/>
</g>
<!-- Node32&#45;&gt;Node27 -->
<g id="edge63" class="edge">
<title>Node32&#45;&gt;Node27</title>
<path fill="none" stroke="midnightblue" d="M1713.5,-56.08C1713.5,-49.01 1713.5,-38.86 1713.5,-29.99"/>
<polygon fill="midnightblue" stroke="midnightblue" points="1717,-29.75 1713.5,-19.75 1710,-29.75 1717,-29.75"/>
</g>
<!-- Node32&#45;&gt;Node28 -->
<g id="edge66" class="edge">
<title>Node32&#45;&gt;Node28</title>
<path fill="none" stroke="midnightblue" d="M1687.36,-56.44C1659.48,-47.32 1615.15,-32.81 1584.1,-22.65"/>
<polygon fill="midnightblue" stroke="midnightblue" points="1585.12,-19.3 1574.52,-19.52 1582.94,-25.95 1585.12,-19.3"/>
</g>
<!-- Node32&#45;&gt;Node29 -->
<g id="edge65" class="edge">
<title>Node32&#45;&gt;Node29</title>
<path fill="none" stroke="midnightblue" d="M1754.7,-56.44C1806.35,-45.72 1893.83,-27.55 1941.01,-17.75"/>
<polygon fill="midnightblue" stroke="midnightblue" points="1941.91,-21.14 1950.99,-15.67 1940.49,-14.28 1941.91,-21.14"/>
</g>
<!-- Node35&#45;&gt;Node3 -->
<g id="edge74" class="edge">
<title>Node35&#45;&gt;Node3</title>
<path fill="none" stroke="midnightblue" d="M1109.29,-168.25C1085.88,-153.46 1047.71,-130.01 1013.5,-112 990.97,-100.14 964.71,-88.18 945.05,-79.57"/>
<polygon fill="midnightblue" stroke="midnightblue" points="946.27,-76.28 935.7,-75.51 943.48,-82.71 946.27,-76.28"/>
</g>
<!-- Node35&#45;&gt;Node8 -->
<g id="edge75" class="edge">
<title>Node35&#45;&gt;Node8</title>
<path fill="none" stroke="midnightblue" d="M1054.89,-168.47C996.01,-157.69 916.01,-143.05 862.89,-133.32"/>
<polygon fill="midnightblue" stroke="midnightblue" points="863.43,-129.86 852.96,-131.51 862.17,-136.75 863.43,-129.86"/>
</g>
<!-- Node36 -->
<g id="node36" class="node">
<title>Node36</title>
<g id="a_node36"><a xlink:title=" ">
<polygon fill="white" stroke="#bfbfbf" points="1103.5,-112.5 1103.5,-131.5 1159.5,-131.5 1159.5,-112.5 1103.5,-112.5"/>
<text text-anchor="middle" x="1131.5" y="-119.5" font-family="Helvetica,sans-Serif" font-size="10.00">sstream</text>
</a>
</g>
</g>
<!-- Node35&#45;&gt;Node36 -->
<g id="edge73" class="edge">
<title>Node35&#45;&gt;Node36</title>
<path fill="none" stroke="midnightblue" d="M1131.5,-168.4C1131.5,-160.47 1131.5,-150.46 1131.5,-141.86"/>
<polygon fill="midnightblue" stroke="midnightblue" points="1135,-141.66 1131.5,-131.66 1128,-141.66 1135,-141.66"/>
</g>
<!-- Node37&#45;&gt;Node3 -->
<g id="edge78" class="edge">
<title>Node37&#45;&gt;Node3</title>
<path fill="none" stroke="midnightblue" d="M912.73,-173.82C913.21,-155.26 914.35,-111.34 915.01,-85.97"/>
<polygon fill="midnightblue" stroke="midnightblue" points="918.51,-85.87 915.27,-75.78 911.51,-85.69 918.51,-85.87"/>
</g>
<!-- Node37&#45;&gt;Node8 -->
<g id="edge79" class="edge">
<title>Node37&#45;&gt;Node8</title>
<path fill="none" stroke="midnightblue" d="M897.31,-173.98C879.84,-164.17 850.92,-147.93 830.42,-136.42"/>
<polygon fill="midnightblue" stroke="midnightblue" points="832.09,-133.35 821.66,-131.51 828.67,-139.46 832.09,-133.35"/>
</g>
<!-- Node37&#45;&gt;Node9 -->
<g id="edge77" class="edge">
<title>Node37&#45;&gt;Node9</title>
<path fill="none" stroke="midnightblue" d="M917.69,-173.82C928.97,-154.92 955.96,-109.75 970.97,-84.62"/>
<polygon fill="midnightblue" stroke="midnightblue" points="974.13,-86.16 976.25,-75.78 968.12,-82.57 974.13,-86.16"/>
</g>
</g>
</svg>
