<?xml version="1.0" encoding="UTF-8" standalone="no"?>
<!DOCTYPE svg PUBLIC "-//W3C//DTD SVG 1.1//EN"
 "http://www.w3.org/Graphics/SVG/1.1/DTD/svg11.dtd">
<!-- Generated by graphviz version 2.49.0 (20210828.1703)
 -->
<!-- Title: C:/Users/folae/Documents/Code/Big&#45;Projects/ArkScript/Ark/include/Ark/Compiler/Compiler.hpp Pages: 1 -->
<!--zoomable 341 -->
<svg id="main" version="1.1" xmlns="http://www.w3.org/2000/svg" xmlns:xlink="http://www.w3.org/1999/xlink" xml:space="preserve" onload="init(evt)">
<style type="text/css"><![CDATA[
.edge:hover path { stroke: red; }
.edge:hover polygon { stroke: red; fill: red; }
]]></style>
<script type="text/javascript"><![CDATA[
var edges = document.getElementsByTagName('g');
if (edges && edges.length) {
  for (var i=0;i<edges.length;i++) {
    if (edges[i].id.substr(0,4)=='edge') {
      edges[i].setAttribute('class','edge');
    }
  }
}
]]></script>
        <defs>
                <circle id="rim" cx="0" cy="0" r="7"/>
                <circle id="rim2" cx="0" cy="0" r="3.5"/>
                <g id="zoomPlus">
                        <use xlink:href="#rim" fill="#404040">
                                <set attributeName="fill" to="#808080" begin="zoomplus.mouseover" end="zoomplus.mouseout"/>
                        </use>
                        <path d="M-4,0h8M0,-4v8" fill="none" stroke="white" stroke-width="1.5" pointer-events="none"/>
                </g>
                <g id="zoomMin">
                        <use xlink:href="#rim" fill="#404040">
                                <set attributeName="fill" to="#808080" begin="zoomminus.mouseover" end="zoomminus.mouseout"/>
                        </use>
                        <path d="M-4,0h8" fill="none" stroke="white" stroke-width="1.5" pointer-events="none"/>
                </g>
                <g id="dirArrow">
                        <path fill="none" stroke="white" stroke-width="1.5" d="M0,-3.0v7 M-2.5,-0.5L0,-3.0L2.5,-0.5"/>
                </g>
               <g id="resetDef">
                       <use xlink:href="#rim2" fill="#404040">
                               <set attributeName="fill" to="#808080" begin="reset.mouseover" end="reset.mouseout"/>
                       </use>
               </g>
        </defs>

<script type="text/javascript">
var viewWidth = 2055;
var viewHeight = 341;
var sectionId = 'dynsection-0';
</script>
<script xlink:href="../../svgpan.js"/>
<svg id="graph" class="graph">
<g id="viewport">
<title>C:/Users/folae/Documents/Code/Big&#45;Projects/ArkScript/Ark/include/Ark/Compiler/Compiler.hpp</title>
<polygon fill="white" stroke="transparent" points="-4,4 -4,-337 2050.5,-337 2050.5,4 -4,4"/>
<!-- Node1 -->
<g id="node1" class="node">
<title>Node1</title>
<g id="a_node1"><a xlink:title="ArkScript compiler is in charge of transforming the AST into bytecode.">
<polygon fill="#bfbfbf" stroke="black" points="701.5,-291.5 701.5,-332.5 889.5,-332.5 889.5,-291.5 701.5,-291.5"/>
<text text-anchor="start" x="709.5" y="-320.5" font-family="Helvetica,sans-Serif" font-size="10.00">C:/Users/folae/Documents</text>
<text text-anchor="start" x="709.5" y="-309.5" font-family="Helvetica,sans-Serif" font-size="10.00">/Code/Big&#45;Projects/ArkScript</text>
<text text-anchor="middle" x="795.5" y="-298.5" font-family="Helvetica,sans-Serif" font-size="10.00">/Ark/include/Ark/Compiler/Compiler.hpp</text>
</a>
</g>
</g>
<!-- Node2 -->
<g id="node2" class="node">
<title>Node2</title>
<g id="a_node2"><a xlink:title=" ">
<polygon fill="white" stroke="#bfbfbf" points="1035.5,-0.5 1035.5,-19.5 1077.5,-19.5 1077.5,-0.5 1035.5,-0.5"/>
<text text-anchor="middle" x="1056.5" y="-7.5" font-family="Helvetica,sans-Serif" font-size="10.00">vector</text>
</a>
</g>
</g>
<!-- Node1&#45;&gt;Node2 -->
<g id="edge1" class="edge">
<title>Node1&#45;&gt;Node2</title>
<path fill="none" stroke="midnightblue" d="M889.67,-311.02C1174.67,-309.86 2008.5,-296.85 2008.5,-184.5 2008.5,-184.5 2008.5,-184.5 2008.5,-121 2008.5,-90.9 2013.14,-74.63 1989.5,-56 1971.39,-41.73 1248.5,-17.28 1087.9,-12.02"/>
<polygon fill="midnightblue" stroke="midnightblue" points="1087.84,-8.51 1077.73,-11.68 1087.61,-15.51 1087.84,-8.51"/>
</g>
<!-- Node3 -->
<g id="node3" class="node">
<title>Node3</title>
<g id="a_node3"><a xlink:title=" ">
<polygon fill="white" stroke="#bfbfbf" points="849,-56.5 849,-75.5 890,-75.5 890,-56.5 849,-56.5"/>
<text text-anchor="middle" x="869.5" y="-63.5" font-family="Helvetica,sans-Serif" font-size="10.00">string</text>
</a>
</g>
</g>
<!-- Node1&#45;&gt;Node3 -->
<g id="edge2" class="edge">
<title>Node1&#45;&gt;Node3</title>
<path fill="none" stroke="midnightblue" d="M845,-291.34C882.61,-273.45 931.64,-243.06 954.5,-199 977.68,-154.33 923.2,-105.43 891.03,-81.64"/>
<polygon fill="midnightblue" stroke="midnightblue" points="892.8,-78.6 882.64,-75.62 888.72,-84.29 892.8,-78.6"/>
</g>
<!-- Node4 -->
<g id="node4" class="node">
<title>Node4</title>
<g id="a_node4"><a xlink:title=" ">
<polygon fill="white" stroke="#bfbfbf" points="259.5,-0.5 259.5,-19.5 315.5,-19.5 315.5,-0.5 259.5,-0.5"/>
<text text-anchor="middle" x="287.5" y="-7.5" font-family="Helvetica,sans-Serif" font-size="10.00">cinttypes</text>
</a>
</g>
</g>
<!-- Node1&#45;&gt;Node4 -->
<g id="edge3" class="edge">
<title>Node1&#45;&gt;Node4</title>
<path fill="none" stroke="midnightblue" d="M701.37,-311.11C527.49,-308.76 173.5,-290.91 173.5,-184.5 173.5,-184.5 173.5,-184.5 173.5,-121 173.5,-74.11 224.05,-40.89 257.83,-23.93"/>
<polygon fill="midnightblue" stroke="midnightblue" points="259.37,-27.07 266.86,-19.58 256.33,-20.77 259.37,-27.07"/>
</g>
<!-- Node5 -->
<g id="node5" class="node">
<title>Node5</title>
<g id="a_node5"><a xlink:title=" ">
<polygon fill="white" stroke="#bfbfbf" points="645.5,-235.5 645.5,-254.5 695.5,-254.5 695.5,-235.5 645.5,-235.5"/>
<text text-anchor="middle" x="670.5" y="-242.5" font-family="Helvetica,sans-Serif" font-size="10.00">optional</text>
</a>
</g>
</g>
<!-- Node1&#45;&gt;Node5 -->
<g id="edge4" class="edge">
<title>Node1&#45;&gt;Node5</title>
<path fill="none" stroke="midnightblue" d="M758,-291.5C738.09,-281.15 714.14,-268.69 696.34,-259.43"/>
<polygon fill="midnightblue" stroke="midnightblue" points="697.63,-256.16 687.14,-254.65 694.4,-262.37 697.63,-256.16"/>
</g>
<!-- Node6 -->
<g id="node6" class="node">
<title>Node6</title>
<g id="a_node6"><a xlink:href="../../d5/d40/Platform_8hpp.html" target="_top" xlink:title="ArkScript configuration macros.">
<polygon fill="white" stroke="black" points="1717,-0.5 1717,-19.5 1806,-19.5 1806,-0.5 1717,-0.5"/>
<text text-anchor="middle" x="1761.5" y="-7.5" font-family="Helvetica,sans-Serif" font-size="10.00">Ark/Platform.hpp</text>
</a>
</g>
</g>
<!-- Node1&#45;&gt;Node6 -->
<g id="edge5" class="edge">
<title>Node1&#45;&gt;Node6</title>
<path fill="none" stroke="midnightblue" d="M889.83,-311.04C1121.72,-310.36 1714.58,-303.77 1905.5,-255 1973.38,-237.66 2046.5,-254.56 2046.5,-184.5 2046.5,-184.5 2046.5,-184.5 2046.5,-121 2046.5,-88.19 2038.06,-75.26 2011.5,-56 1995.9,-44.69 1885.07,-27.85 1816.32,-18.3"/>
<polygon fill="midnightblue" stroke="midnightblue" points="1816.46,-14.79 1806.08,-16.89 1815.51,-21.72 1816.46,-14.79"/>
</g>
<!-- Node7 -->
<g id="node7" class="node">
<title>Node7</title>
<g id="a_node7"><a xlink:href="../../d8/daa/Instructions_8hpp.html" target="_top" xlink:title="The different instructions used by the compiler and virtual machine.">
<polygon fill="white" stroke="black" points="0,-235.5 0,-254.5 145,-254.5 145,-235.5 0,-235.5"/>
<text text-anchor="middle" x="72.5" y="-242.5" font-family="Helvetica,sans-Serif" font-size="10.00">Ark/Compiler/Instructions.hpp</text>
</a>
</g>
</g>
<!-- Node1&#45;&gt;Node7 -->
<g id="edge6" class="edge">
<title>Node1&#45;&gt;Node7</title>
<path fill="none" stroke="midnightblue" d="M701.44,-303.17C577.28,-292.73 351.9,-273.42 159.5,-255 158.18,-254.87 156.85,-254.75 155.52,-254.62"/>
<polygon fill="midnightblue" stroke="midnightblue" points="155.42,-251.09 145.12,-253.6 154.73,-258.06 155.42,-251.09"/>
</g>
<!-- Node8 -->
<g id="node8" class="node">
<title>Node8</title>
<g id="a_node8"><a xlink:href="../../d7/dc6/Node_8hpp.html" target="_top" xlink:title="AST node used by the parser, optimizer and compiler.">
<polygon fill="white" stroke="black" points="698,-112.5 698,-131.5 837,-131.5 837,-112.5 698,-112.5"/>
<text text-anchor="middle" x="767.5" y="-119.5" font-family="Helvetica,sans-Serif" font-size="10.00">Ark/Compiler/AST/Node.hpp</text>
</a>
</g>
</g>
<!-- Node1&#45;&gt;Node8 -->
<g id="edge8" class="edge">
<title>Node1&#45;&gt;Node8</title>
<path fill="none" stroke="midnightblue" d="M787.77,-291.15C779.6,-269.06 767.28,-232.1 762.5,-199 760.53,-185.36 761.74,-181.76 762.5,-168 762.98,-159.36 763.97,-149.83 764.95,-141.77"/>
<polygon fill="midnightblue" stroke="midnightblue" points="768.45,-141.97 766.26,-131.6 761.51,-141.07 768.45,-141.97"/>
</g>
<!-- Node14 -->
<g id="node14" class="node">
<title>Node14</title>
<g id="a_node14"><a xlink:href="../../d7/ddd/Parser_8hpp.html" target="_top" xlink:title="Parses a token stream into an AST by using the Ark::Node.">
<polygon fill="white" stroke="black" points="421,-235.5 421,-254.5 566,-254.5 566,-235.5 421,-235.5"/>
<text text-anchor="middle" x="493.5" y="-242.5" font-family="Helvetica,sans-Serif" font-size="10.00">Ark/Compiler/AST/Parser.hpp</text>
</a>
</g>
</g>
<!-- Node1&#45;&gt;Node14 -->
<g id="edge18" class="edge">
<title>Node1&#45;&gt;Node14</title>
<path fill="none" stroke="midnightblue" d="M704.89,-291.5C651.86,-280.08 586.93,-266.11 543.14,-256.68"/>
<polygon fill="midnightblue" stroke="midnightblue" points="543.82,-253.25 533.3,-254.57 542.34,-260.09 543.82,-253.25"/>
</g>
<!-- Node20 -->
<g id="node20" class="node">
<title>Node20</title>
<g id="a_node20"><a xlink:href="../../db/d93/Optimizer_8hpp.html" target="_top" xlink:title="Optimizes a given ArkScript AST.">
<polygon fill="white" stroke="black" points="1094.5,-235.5 1094.5,-254.5 1252.5,-254.5 1252.5,-235.5 1094.5,-235.5"/>
<text text-anchor="middle" x="1173.5" y="-242.5" font-family="Helvetica,sans-Serif" font-size="10.00">Ark/Compiler/AST/Optimizer.hpp</text>
</a>
</g>
</g>
<!-- Node1&#45;&gt;Node20 -->
<g id="edge35" class="edge">
<title>Node1&#45;&gt;Node20</title>
<path fill="none" stroke="midnightblue" d="M889.91,-294.77C960.09,-282.7 1053.71,-266.6 1113.82,-256.26"/>
<polygon fill="midnightblue" stroke="midnightblue" points="1114.64,-259.67 1123.9,-254.53 1113.45,-252.77 1114.64,-259.67"/>
</g>
<!-- Node37 -->
<g id="node37" class="node">
<title>Node37</title>
<g id="a_node37"><a xlink:href="../../dd/de7/ValTableElem_8hpp.html" target="_top" xlink:title="The basic value type handled by the compiler.">
<polygon fill="white" stroke="black" points="790,-174 790,-193 945,-193 945,-174 790,-174"/>
<text text-anchor="middle" x="867.5" y="-181" font-family="Helvetica,sans-Serif" font-size="10.00">Ark/Compiler/ValTableElem.hpp</text>
</a>
</g>
</g>
<!-- Node1&#45;&gt;Node37 -->
<g id="edge76" class="edge">
<title>Node1&#45;&gt;Node37</title>
<path fill="none" stroke="midnightblue" d="M806.75,-291.23C820.66,-266.79 844.13,-225.56 857.46,-202.14"/>
<polygon fill="midnightblue" stroke="midnightblue" points="860.59,-203.72 862.49,-193.29 854.51,-200.25 860.59,-203.72"/>
</g>
<!-- Node7&#45;&gt;Node4 -->
<g id="edge7" class="edge">
<title>Node7&#45;&gt;Node4</title>
<path fill="none" stroke="midnightblue" d="M74,-235.49C79.6,-206.17 102.01,-108.25 159.5,-56 184.39,-33.38 221.32,-22 249.13,-16.35"/>
<polygon fill="midnightblue" stroke="midnightblue" points="250.11,-19.73 259.3,-14.45 248.82,-12.85 250.11,-19.73"/>
</g>
<!-- Node8&#45;&gt;Node2 -->
<g id="edge12" class="edge">
<title>Node8&#45;&gt;Node2</title>
<path fill="none" stroke="midnightblue" d="M774.44,-112.26C786.21,-98.06 811.57,-70.17 839.5,-56 900.52,-25.05 981.48,-15.38 1025.23,-12.37"/>
<polygon fill="midnightblue" stroke="midnightblue" points="1025.5,-15.86 1035.26,-11.75 1025.07,-8.87 1025.5,-15.86"/>
</g>
<!-- Node8&#45;&gt;Node3 -->
<g id="edge11" class="edge">
<title>Node8&#45;&gt;Node3</title>
<path fill="none" stroke="midnightblue" d="M783.89,-112.32C800.17,-103.7 825.37,-90.36 844.22,-80.39"/>
<polygon fill="midnightblue" stroke="midnightblue" points="845.95,-83.43 853.15,-75.65 842.68,-77.24 845.95,-83.43"/>
</g>
<!-- Node9 -->
<g id="node9" class="node">
<title>Node9</title>
<g id="a_node9"><a xlink:title=" ">
<polygon fill="white" stroke="#bfbfbf" points="908.5,-56.5 908.5,-75.5 952.5,-75.5 952.5,-56.5 908.5,-56.5"/>
<text text-anchor="middle" x="930.5" y="-63.5" font-family="Helvetica,sans-Serif" font-size="10.00">variant</text>
</a>
</g>
</g>
<!-- Node8&#45;&gt;Node9 -->
<g id="edge9" class="edge">
<title>Node8&#45;&gt;Node9</title>
<path fill="none" stroke="midnightblue" d="M793.33,-112.44C821.88,-102.99 867.89,-87.74 898.65,-77.55"/>
<polygon fill="midnightblue" stroke="midnightblue" points="900.06,-80.77 908.45,-74.3 897.86,-74.13 900.06,-80.77"/>
</g>
<!-- Node10 -->
<g id="node10" class="node">
<title>Node10</title>
<g id="a_node10"><a xlink:title=" ">
<polygon fill="white" stroke="#bfbfbf" points="391.5,-56.5 391.5,-75.5 443.5,-75.5 443.5,-56.5 391.5,-56.5"/>
<text text-anchor="middle" x="417.5" y="-63.5" font-family="Helvetica,sans-Serif" font-size="10.00">ostream</text>
</a>
</g>
</g>
<!-- Node8&#45;&gt;Node10 -->
<g id="edge10" class="edge">
<title>Node8&#45;&gt;Node10</title>
<path fill="none" stroke="midnightblue" d="M698,-113.29C636.24,-105.94 543.35,-93.64 453.85,-76.09"/>
<polygon fill="midnightblue" stroke="midnightblue" points="454.29,-72.61 443.8,-74.09 452.93,-79.48 454.29,-72.61"/>
</g>
<!-- Node11 -->
<g id="node11" class="node">
<title>Node11</title>
<g id="a_node11"><a xlink:href="../../d8/ddd/Common_8hpp.html" target="_top" xlink:title="Common code for the compiler.">
<polygon fill="white" stroke="black" points="461.5,-56.5 461.5,-75.5 595.5,-75.5 595.5,-56.5 461.5,-56.5"/>
<text text-anchor="middle" x="528.5" y="-63.5" font-family="Helvetica,sans-Serif" font-size="10.00">Ark/Compiler/Common.hpp</text>
</a>
</g>
</g>
<!-- Node8&#45;&gt;Node11 -->
<g id="edge13" class="edge">
<title>Node8&#45;&gt;Node11</title>
<path fill="none" stroke="midnightblue" d="M729.63,-112.44C688.02,-103.04 621.13,-87.93 576.03,-77.74"/>
<polygon fill="midnightblue" stroke="midnightblue" points="576.72,-74.31 566.19,-75.52 575.18,-81.13 576.72,-74.31"/>
</g>
<!-- Node11&#45;&gt;Node2 -->
<g id="edge16" class="edge">
<title>Node11&#45;&gt;Node2</title>
<path fill="none" stroke="midnightblue" d="M595.68,-57.48C600.35,-56.97 605,-56.48 609.5,-56 765.17,-39.52 951.49,-21.22 1024.73,-14.09"/>
<polygon fill="midnightblue" stroke="midnightblue" points="1025.48,-17.53 1035.09,-13.08 1024.8,-10.56 1025.48,-17.53"/>
</g>
<!-- Node11&#45;&gt;Node4 -->
<g id="edge17" class="edge">
<title>Node11&#45;&gt;Node4</title>
<path fill="none" stroke="midnightblue" d="M490.31,-56.44C445.25,-46.35 370.75,-29.65 325.69,-19.56"/>
<polygon fill="midnightblue" stroke="midnightblue" points="326.24,-16.09 315.72,-17.32 324.71,-22.92 326.24,-16.09"/>
</g>
<!-- Node12 -->
<g id="node12" class="node">
<title>Node12</title>
<g id="a_node12"><a xlink:title=" ">
<polygon fill="white" stroke="#bfbfbf" points="509.5,-0.5 509.5,-19.5 547.5,-19.5 547.5,-0.5 509.5,-0.5"/>
<text text-anchor="middle" x="528.5" y="-7.5" font-family="Helvetica,sans-Serif" font-size="10.00">array</text>
</a>
</g>
</g>
<!-- Node11&#45;&gt;Node12 -->
<g id="edge14" class="edge">
<title>Node11&#45;&gt;Node12</title>
<path fill="none" stroke="midnightblue" d="M528.5,-56.08C528.5,-49.01 528.5,-38.86 528.5,-29.99"/>
<polygon fill="midnightblue" stroke="midnightblue" points="532,-29.75 528.5,-19.75 525,-29.75 532,-29.75"/>
</g>
<!-- Node13 -->
<g id="node13" class="node">
<title>Node13</title>
<g id="a_node13"><a xlink:title=" ">
<polygon fill="white" stroke="#bfbfbf" points="380.5,-0.5 380.5,-19.5 444.5,-19.5 444.5,-0.5 380.5,-0.5"/>
<text text-anchor="middle" x="412.5" y="-7.5" font-family="Helvetica,sans-Serif" font-size="10.00">string_view</text>
</a>
</g>
</g>
<!-- Node11&#45;&gt;Node13 -->
<g id="edge15" class="edge">
<title>Node11&#45;&gt;Node13</title>
<path fill="none" stroke="midnightblue" d="M510.12,-56.44C491.28,-47.68 461.77,-33.94 440.12,-23.86"/>
<polygon fill="midnightblue" stroke="midnightblue" points="441.34,-20.56 430.79,-19.52 438.38,-26.91 441.34,-20.56"/>
</g>
<!-- Node14&#45;&gt;Node2 -->
<g id="edge22" class="edge">
<title>Node14&#45;&gt;Node2</title>
<path fill="none" stroke="midnightblue" d="M495.04,-235.35C497.99,-220.5 505.54,-189.66 520.5,-168 542.36,-136.34 552.31,-129.62 586.5,-112 737.77,-34.03 946.25,-16.19 1024.83,-12.16"/>
<polygon fill="midnightblue" stroke="midnightblue" points="1025.21,-15.65 1035.04,-11.68 1024.88,-8.65 1025.21,-15.65"/>
</g>
<!-- Node14&#45;&gt;Node3 -->
<g id="edge19" class="edge">
<title>Node14&#45;&gt;Node3</title>
<path fill="none" stroke="midnightblue" d="M498.44,-235.42C513.19,-210.76 559.71,-139.64 620.5,-112 693.93,-78.61 790.12,-69.97 838.65,-67.75"/>
<polygon fill="midnightblue" stroke="midnightblue" points="838.95,-71.24 848.81,-67.35 838.68,-64.25 838.95,-71.24"/>
</g>
<!-- Node14&#45;&gt;Node4 -->
<g id="edge23" class="edge">
<title>Node14&#45;&gt;Node4</title>
<path fill="none" stroke="midnightblue" d="M420.7,-240.18C358.62,-235.23 276.23,-224.01 255.5,-199 213.98,-148.9 255.07,-64.93 276.4,-28.62"/>
<polygon fill="midnightblue" stroke="midnightblue" points="279.61,-30.07 281.81,-19.7 273.63,-26.44 279.61,-30.07"/>
</g>
<!-- Node14&#45;&gt;Node8 -->
<g id="edge34" class="edge">
<title>Node14&#45;&gt;Node8</title>
<path fill="none" stroke="midnightblue" d="M548.02,-235.48C583.07,-228.65 628.91,-217.15 666.5,-199 671,-196.83 720.23,-159.27 748.26,-137.78"/>
<polygon fill="midnightblue" stroke="midnightblue" points="750.4,-140.55 756.2,-131.68 746.14,-135 750.4,-140.55"/>
</g>
<!-- Node14&#45;&gt;Node10 -->
<g id="edge21" class="edge">
<title>Node14&#45;&gt;Node10</title>
<path fill="none" stroke="midnightblue" d="M420.91,-239.27C362.67,-233.77 287.6,-222.3 268.5,-199 241.75,-166.37 273.69,-138.53 306.5,-112 328.47,-94.23 358.4,-82.65 381.64,-75.69"/>
<polygon fill="midnightblue" stroke="midnightblue" points="382.8,-79 391.47,-72.9 380.89,-72.26 382.8,-79"/>
</g>
<!-- Node15 -->
<g id="node15" class="node">
<title>Node15</title>
<g id="a_node15"><a xlink:title=" ">
<polygon fill="white" stroke="#bfbfbf" points="278,-174 278,-193 307,-193 307,-174 278,-174"/>
<text text-anchor="middle" x="292.5" y="-181" font-family="Helvetica,sans-Serif" font-size="10.00">list</text>
</a>
</g>
</g>
<!-- Node14&#45;&gt;Node15 -->
<g id="edge20" class="edge">
<title>Node14&#45;&gt;Node15</title>
<path fill="none" stroke="midnightblue" d="M443.79,-235.44C407.6,-228.24 357.89,-216.31 316.5,-199 315.79,-198.7 315.08,-198.39 314.37,-198.06"/>
<polygon fill="midnightblue" stroke="midnightblue" points="315.8,-194.86 305.34,-193.2 312.49,-201.02 315.8,-194.86"/>
</g>
<!-- Node16 -->
<g id="node16" class="node">
<title>Node16</title>
<g id="a_node16"><a xlink:href="../../d6/de9/Constants_8hpp.html" target="_top" xlink:title="Constants used by ArkScript.">
<polygon fill="white" stroke="black" points="559.5,-174 559.5,-193 657.5,-193 657.5,-174 559.5,-174"/>
<text text-anchor="middle" x="608.5" y="-181" font-family="Helvetica,sans-Serif" font-size="10.00">Ark/Constants.hpp</text>
</a>
</g>
</g>
<!-- Node14&#45;&gt;Node16 -->
<g id="edge24" class="edge">
<title>Node14&#45;&gt;Node16</title>
<path fill="none" stroke="midnightblue" d="M509.98,-235.48C529.11,-225.58 560.87,-209.14 583.15,-197.62"/>
<polygon fill="midnightblue" stroke="midnightblue" points="584.78,-200.71 592.05,-193.01 581.56,-194.5 584.78,-200.71"/>
</g>
<!-- Node18 -->
<g id="node18" class="node">
<title>Node18</title>
<g id="a_node18"><a xlink:href="../../da/d79/Lexer_8hpp.html" target="_top" xlink:title="Tokenize ArkScript code.">
<polygon fill="white" stroke="black" points="325.5,-174 325.5,-193 465.5,-193 465.5,-174 325.5,-174"/>
<text text-anchor="middle" x="395.5" y="-181" font-family="Helvetica,sans-Serif" font-size="10.00">Ark/Compiler/AST/Lexer.hpp</text>
</a>
</g>
</g>
<!-- Node14&#45;&gt;Node18 -->
<g id="edge27" class="edge">
<title>Node14&#45;&gt;Node18</title>
<path fill="none" stroke="midnightblue" d="M479.46,-235.48C463.45,-225.75 437.05,-209.73 418.13,-198.24"/>
<polygon fill="midnightblue" stroke="midnightblue" points="419.88,-195.21 409.51,-193.01 416.25,-201.19 419.88,-195.21"/>
</g>
<!-- Node16&#45;&gt;Node4 -->
<g id="edge25" class="edge">
<title>Node16&#45;&gt;Node4</title>
<path fill="none" stroke="midnightblue" d="M559.29,-177.43C478.3,-168.62 324.06,-149.73 306.5,-132 279.66,-104.9 281.11,-56.37 284.37,-29.75"/>
<polygon fill="midnightblue" stroke="midnightblue" points="287.85,-30.2 285.81,-19.81 280.92,-29.2 287.85,-30.2"/>
</g>
<!-- Node17 -->
<g id="node17" class="node">
<title>Node17</title>
<g id="a_node17"><a xlink:title=" ">
<polygon fill="white" stroke="#bfbfbf" points="629.5,-112.5 629.5,-131.5 677.5,-131.5 677.5,-112.5 629.5,-112.5"/>
<text text-anchor="middle" x="653.5" y="-119.5" font-family="Helvetica,sans-Serif" font-size="10.00">cstddef</text>
</a>
</g>
</g>
<!-- Node16&#45;&gt;Node17 -->
<g id="edge26" class="edge">
<title>Node16&#45;&gt;Node17</title>
<path fill="none" stroke="midnightblue" d="M614.95,-173.98C621.7,-165.05 632.47,-150.81 640.91,-139.64"/>
<polygon fill="midnightblue" stroke="midnightblue" points="643.82,-141.6 647.06,-131.51 638.24,-137.37 643.82,-141.6"/>
</g>
<!-- Node18&#45;&gt;Node2 -->
<g id="edge28" class="edge">
<title>Node18&#45;&gt;Node2</title>
<path fill="none" stroke="midnightblue" d="M412.23,-173.9C466.5,-146.02 634.91,-59.72 647.5,-56 783.73,-15.73 955.11,-10.87 1024.83,-10.71"/>
<polygon fill="midnightblue" stroke="midnightblue" points="1025.12,-14.21 1035.12,-10.72 1025.13,-7.21 1025.12,-14.21"/>
</g>
<!-- Node18&#45;&gt;Node11 -->
<g id="edge33" class="edge">
<title>Node18&#45;&gt;Node11</title>
<path fill="none" stroke="midnightblue" d="M409.38,-173.98C424.35,-164.52 448.58,-148.41 467.5,-132 485.12,-116.72 503.14,-96.9 514.98,-83.18"/>
<polygon fill="midnightblue" stroke="midnightblue" points="517.68,-85.41 521.49,-75.53 512.34,-80.88 517.68,-85.41"/>
</g>
<!-- Node19 -->
<g id="node19" class="node">
<title>Node19</title>
<g id="a_node19"><a xlink:href="../../d3/d6e/Token_8hpp.html" target="_top" xlink:title="Token definition for ArkScript.">
<polygon fill="white" stroke="black" points="316,-112.5 316,-131.5 459,-131.5 459,-112.5 316,-112.5"/>
<text text-anchor="middle" x="387.5" y="-119.5" font-family="Helvetica,sans-Serif" font-size="10.00">Ark/Compiler/AST/Token.hpp</text>
</a>
</g>
</g>
<!-- Node18&#45;&gt;Node19 -->
<g id="edge29" class="edge">
<title>Node18&#45;&gt;Node19</title>
<path fill="none" stroke="midnightblue" d="M394.35,-173.98C393.23,-165.58 391.46,-152.48 390.01,-141.66"/>
<polygon fill="midnightblue" stroke="midnightblue" points="393.45,-140.95 388.64,-131.51 386.51,-141.89 393.45,-140.95"/>
</g>
<!-- Node19&#45;&gt;Node3 -->
<g id="edge31" class="edge">
<title>Node19&#45;&gt;Node3</title>
<path fill="none" stroke="midnightblue" d="M459.14,-112.97C565.87,-101.02 762.21,-79.02 838.26,-70.5"/>
<polygon fill="midnightblue" stroke="midnightblue" points="839.04,-73.93 848.58,-69.34 838.26,-66.98 839.04,-73.93"/>
</g>
<!-- Node19&#45;&gt;Node12 -->
<g id="edge30" class="edge">
<title>Node19&#45;&gt;Node12</title>
<path fill="none" stroke="midnightblue" d="M383.6,-112.44C378.13,-99 370.13,-72.75 382.5,-56 396.43,-37.13 460.8,-22.85 499.27,-15.83"/>
<polygon fill="midnightblue" stroke="midnightblue" points="500.13,-19.23 509.37,-14.05 498.91,-12.34 500.13,-19.23"/>
</g>
<!-- Node19&#45;&gt;Node13 -->
<g id="edge32" class="edge">
<title>Node19&#45;&gt;Node13</title>
<path fill="none" stroke="midnightblue" d="M376.1,-112.34C361.38,-100.03 338.85,-76.69 349.5,-56 356.58,-42.25 370.02,-31.77 382.68,-24.39"/>
<polygon fill="midnightblue" stroke="midnightblue" points="384.5,-27.39 391.65,-19.57 381.19,-21.22 384.5,-27.39"/>
</g>
<!-- Node20&#45;&gt;Node3 -->
<g id="edge38" class="edge">
<title>Node20&#45;&gt;Node3</title>
<path fill="none" stroke="midnightblue" d="M1172.67,-235.08C1171,-220.35 1166.34,-190.36 1154.5,-168 1138.89,-138.51 1133.65,-128.23 1104.5,-112 1026.43,-68.55 991.9,-95.34 900.04,-75.78"/>
<polygon fill="midnightblue" stroke="midnightblue" points="900.6,-72.31 890.07,-73.52 899.05,-79.14 900.6,-72.31"/>
</g>
<!-- Node20&#45;&gt;Node4 -->
<g id="edge39" class="edge">
<title>Node20&#45;&gt;Node4</title>
<path fill="none" stroke="midnightblue" d="M1175.24,-235.28C1177.74,-220.85 1181.26,-191.28 1173.5,-168 1163.66,-138.49 1157.31,-129.36 1131.5,-112 1079.26,-76.86 1052.46,-100.57 994.5,-76 978.71,-69.31 977.87,-61.12 961.5,-56 836.13,-16.82 502.39,-31 371.5,-20 356.56,-18.74 340.17,-17.06 325.85,-15.48"/>
<polygon fill="midnightblue" stroke="midnightblue" points="326.18,-12 315.85,-14.36 325.4,-18.95 326.18,-12"/>
</g>
<!-- Node20&#45;&gt;Node8 -->
<g id="edge40" class="edge">
<title>Node20&#45;&gt;Node8</title>
<path fill="none" stroke="midnightblue" d="M1094.28,-239.97C986.07,-233.71 802.82,-220.12 780.5,-199 765.18,-184.51 763.79,-159.08 764.99,-141.66"/>
<polygon fill="midnightblue" stroke="midnightblue" points="768.49,-141.87 766.03,-131.56 761.52,-141.15 768.49,-141.87"/>
</g>
<!-- Node20&#45;&gt;Node16 -->
<g id="edge71" class="edge">
<title>Node20&#45;&gt;Node16</title>
<path fill="none" stroke="midnightblue" d="M1094.34,-235.66C979.69,-223.59 769.96,-201.5 667.7,-190.73"/>
<polygon fill="midnightblue" stroke="midnightblue" points="667.87,-187.23 657.56,-189.67 667.14,-194.19 667.87,-187.23"/>
</g>
<!-- Node21 -->
<g id="node21" class="node">
<title>Node21</title>
<g id="a_node21"><a xlink:title=" ">
<polygon fill="white" stroke="#bfbfbf" points="1922.5,-56.5 1922.5,-75.5 1980.5,-75.5 1980.5,-56.5 1922.5,-56.5"/>
<text text-anchor="middle" x="1951.5" y="-63.5" font-family="Helvetica,sans-Serif" font-size="10.00">functional</text>
</a>
</g>
</g>
<!-- Node20&#45;&gt;Node21 -->
<g id="edge36" class="edge">
<title>Node20&#45;&gt;Node21</title>
<path fill="none" stroke="midnightblue" d="M1237.83,-235.46C1294.59,-227.49 1379.43,-214.52 1452.5,-199 1626.47,-162.05 1830.62,-103.05 1913.59,-78.4"/>
<polygon fill="midnightblue" stroke="midnightblue" points="1914.74,-81.71 1923.32,-75.5 1912.74,-75 1914.74,-81.71"/>
</g>
<!-- Node22 -->
<g id="node22" class="node">
<title>Node22</title>
<g id="a_node22"><a xlink:title=" ">
<polygon fill="white" stroke="#bfbfbf" points="1240,-174 1240,-193 1323,-193 1323,-174 1240,-174"/>
<text text-anchor="middle" x="1281.5" y="-181" font-family="Helvetica,sans-Serif" font-size="10.00">unordered_map</text>
</a>
</g>
</g>
<!-- Node20&#45;&gt;Node22 -->
<g id="edge37" class="edge">
<title>Node20&#45;&gt;Node22</title>
<path fill="none" stroke="midnightblue" d="M1188.97,-235.48C1206.78,-225.67 1236.24,-209.43 1257.13,-197.92"/>
<polygon fill="midnightblue" stroke="midnightblue" points="1258.99,-200.9 1266.05,-193.01 1255.61,-194.77 1258.99,-200.9"/>
</g>
<!-- Node23 -->
<g id="node23" class="node">
<title>Node23</title>
<g id="a_node23"><a xlink:href="../../d2/de9/Exceptions_8hpp.html" target="_top" xlink:title="ArkScript homemade exceptions.">
<polygon fill="white" stroke="black" points="1341.5,-174 1341.5,-193 1443.5,-193 1443.5,-174 1341.5,-174"/>
<text text-anchor="middle" x="1392.5" y="-181" font-family="Helvetica,sans-Serif" font-size="10.00">Ark/Exceptions.hpp</text>
</a>
</g>
</g>
<!-- Node20&#45;&gt;Node23 -->
<g id="edge41" class="edge">
<title>Node20&#45;&gt;Node23</title>
<path fill="none" stroke="midnightblue" d="M1204.88,-235.48C1243.42,-225 1308.91,-207.21 1351.42,-195.66"/>
<polygon fill="midnightblue" stroke="midnightblue" points="1352.45,-199.01 1361.18,-193.01 1350.61,-192.25 1352.45,-199.01"/>
</g>
<!-- Node35 -->
<g id="node35" class="node">
<title>Node35</title>
<g id="a_node35"><a xlink:href="../../dc/dc5/makeErrorCtx_8hpp.html" target="_top" xlink:title="Create string error context for AST errors.">
<polygon fill="white" stroke="black" points="1002,-168.5 1002,-198.5 1145,-198.5 1145,-168.5 1002,-168.5"/>
<text text-anchor="start" x="1010" y="-186.5" font-family="Helvetica,sans-Serif" font-size="10.00">Ark/Compiler/AST/makeError</text>
<text text-anchor="middle" x="1073.5" y="-175.5" font-family="Helvetica,sans-Serif" font-size="10.00">Ctx.hpp</text>
</a>
</g>
</g>
<!-- Node20&#45;&gt;Node35 -->
<g id="edge72" class="edge">
<title>Node20&#45;&gt;Node35</title>
<path fill="none" stroke="midnightblue" d="M1159.17,-235.48C1145.38,-227.27 1124.02,-214.56 1106.08,-203.88"/>
<polygon fill="midnightblue" stroke="midnightblue" points="1107.45,-200.63 1097.07,-198.52 1103.87,-206.64 1107.45,-200.63"/>
</g>
<!-- Node23&#45;&gt;Node2 -->
<g id="edge44" class="edge">
<title>Node23&#45;&gt;Node2</title>
<path fill="none" stroke="midnightblue" d="M1392.97,-173.56C1393.24,-158.39 1391.38,-127.76 1373.5,-112 1285.99,-34.85 1216.2,-131.34 1113.5,-76 1093.15,-65.03 1076.65,-43.73 1066.74,-28.5"/>
<polygon fill="midnightblue" stroke="midnightblue" points="1069.68,-26.61 1061.44,-19.95 1063.73,-30.3 1069.68,-26.61"/>
</g>
<!-- Node23&#45;&gt;Node3 -->
<g id="edge43" class="edge">
<title>Node23&#45;&gt;Node3</title>
<path fill="none" stroke="midnightblue" d="M1363.43,-173.99C1306.33,-157.35 1181.3,-121.33 1137.5,-112 1035.93,-90.36 1005.65,-98.89 899.85,-75.77"/>
<polygon fill="midnightblue" stroke="midnightblue" points="900.58,-72.34 890.06,-73.58 899.05,-79.18 900.58,-72.34"/>
</g>
<!-- Node24 -->
<g id="node24" class="node">
<title>Node24</title>
<g id="a_node24"><a xlink:title=" ">
<polygon fill="white" stroke="#bfbfbf" points="1228,-112.5 1228,-131.5 1287,-131.5 1287,-112.5 1228,-112.5"/>
<text text-anchor="middle" x="1257.5" y="-119.5" font-family="Helvetica,sans-Serif" font-size="10.00">exception</text>
</a>
</g>
</g>
<!-- Node23&#45;&gt;Node24 -->
<g id="edge42" class="edge">
<title>Node23&#45;&gt;Node24</title>
<path fill="none" stroke="midnightblue" d="M1373.16,-173.98C1350.4,-163.95 1312.41,-147.2 1286.21,-135.65"/>
<polygon fill="midnightblue" stroke="midnightblue" points="1287.37,-132.34 1276.81,-131.51 1284.55,-138.74 1287.37,-132.34"/>
</g>
<!-- Node25 -->
<g id="node25" class="node">
<title>Node25</title>
<g id="a_node25"><a xlink:title=" ">
<polygon fill="white" stroke="#bfbfbf" points="1305,-112.5 1305,-131.5 1364,-131.5 1364,-112.5 1305,-112.5"/>
<text text-anchor="middle" x="1334.5" y="-119.5" font-family="Helvetica,sans-Serif" font-size="10.00">stdexcept</text>
</a>
</g>
</g>
<!-- Node23&#45;&gt;Node25 -->
<g id="edge45" class="edge">
<title>Node23&#45;&gt;Node25</title>
<path fill="none" stroke="midnightblue" d="M1384.19,-173.98C1375.32,-164.87 1361.05,-150.24 1350.08,-138.98"/>
<polygon fill="midnightblue" stroke="midnightblue" points="1352.28,-136.23 1342.79,-131.51 1347.27,-141.11 1352.28,-136.23"/>
</g>
<!-- Node26 -->
<g id="node26" class="node">
<title>Node26</title>
<g id="a_node26"><a xlink:href="../../de/dfd/Value_8hpp.html" target="_top" xlink:title=" ">
<polygon fill="white" stroke="black" points="1420.5,-112.5 1420.5,-131.5 1516.5,-131.5 1516.5,-112.5 1420.5,-112.5"/>
<text text-anchor="middle" x="1468.5" y="-119.5" font-family="Helvetica,sans-Serif" font-size="10.00">Ark/VM/Value.hpp</text>
</a>
</g>
</g>
<!-- Node23&#45;&gt;Node26 -->
<g id="edge46" class="edge">
<title>Node23&#45;&gt;Node26</title>
<path fill="none" stroke="midnightblue" d="M1403.39,-173.98C1415.47,-164.52 1435.17,-149.1 1449.74,-137.69"/>
<polygon fill="midnightblue" stroke="midnightblue" points="1451.91,-140.43 1457.63,-131.51 1447.6,-134.92 1451.91,-140.43"/>
</g>
<!-- Node26&#45;&gt;Node2 -->
<g id="edge47" class="edge">
<title>Node26&#45;&gt;Node2</title>
<path fill="none" stroke="midnightblue" d="M1452.22,-112.47C1425.04,-98.58 1368.39,-71.11 1317.5,-56 1236.39,-31.92 1137.05,-19.21 1087.58,-13.96"/>
<polygon fill="midnightblue" stroke="midnightblue" points="1087.83,-10.47 1077.52,-12.93 1087.11,-17.43 1087.83,-10.47"/>
</g>
<!-- Node26&#45;&gt;Node3 -->
<g id="edge49" class="edge">
<title>Node26&#45;&gt;Node3</title>
<path fill="none" stroke="midnightblue" d="M1420.19,-116.25C1405.23,-114.82 1388.69,-113.3 1373.5,-112 1166.28,-94.32 1109,-113.95 900.08,-75.66"/>
<polygon fill="midnightblue" stroke="midnightblue" points="900.48,-72.17 890.01,-73.79 899.21,-79.06 900.48,-72.17"/>
</g>
<!-- Node26&#45;&gt;Node4 -->
<g id="edge50" class="edge">
<title>Node26&#45;&gt;Node4</title>
<path fill="none" stroke="midnightblue" d="M1420.13,-116.25C1308.5,-105.26 1041.71,-78.78 1032.5,-76 1014.23,-70.48 1012.89,-61.11 994.5,-56 860.89,-18.86 509.71,-31.39 371.5,-20 356.56,-18.77 340.16,-17.09 325.85,-15.51"/>
<polygon fill="midnightblue" stroke="midnightblue" points="326.18,-12.02 315.85,-14.39 325.4,-18.98 326.18,-12.02"/>
</g>
<!-- Node26&#45;&gt;Node6 -->
<g id="edge68" class="edge">
<title>Node26&#45;&gt;Node6</title>
<path fill="none" stroke="midnightblue" d="M1516.63,-118.23C1607.29,-112.53 1796.08,-98.1 1815.5,-76 1830.75,-58.64 1806.8,-38.04 1786.11,-24.75"/>
<polygon fill="midnightblue" stroke="midnightblue" points="1787.92,-21.76 1777.56,-19.54 1784.27,-27.74 1787.92,-21.76"/>
</g>
<!-- Node26&#45;&gt;Node9 -->
<g id="edge48" class="edge">
<title>Node26&#45;&gt;Node9</title>
<path fill="none" stroke="midnightblue" d="M1420.29,-116.39C1309.88,-105.83 1045.08,-80.43 1004.5,-76 990.83,-74.51 975.76,-72.7 962.81,-71.1"/>
<polygon fill="midnightblue" stroke="midnightblue" points="962.86,-67.58 952.5,-69.82 961.99,-74.53 962.86,-67.58"/>
</g>
<!-- Node26&#45;&gt;Node12 -->
<g id="edge56" class="edge">
<title>Node26&#45;&gt;Node12</title>
<path fill="none" stroke="midnightblue" d="M1420.28,-116.68C1351.74,-110.13 1222.37,-96.27 1113.5,-76 1077.05,-69.21 1069.07,-62.11 1032.5,-56 853.75,-26.13 635.8,-15.18 557.9,-12.05"/>
<polygon fill="midnightblue" stroke="midnightblue" points="557.99,-8.55 547.86,-11.66 557.72,-15.55 557.99,-8.55"/>
</g>
<!-- Node26&#45;&gt;Node21 -->
<g id="edge53" class="edge">
<title>Node26&#45;&gt;Node21</title>
<path fill="none" stroke="midnightblue" d="M1516.56,-117.74C1597.69,-111.86 1766.8,-98.01 1908.5,-76 1909.77,-75.8 1911.06,-75.59 1912.36,-75.37"/>
<polygon fill="midnightblue" stroke="midnightblue" points="1913.23,-78.77 1922.43,-73.51 1911.96,-71.89 1913.23,-78.77"/>
</g>
<!-- Node27 -->
<g id="node27" class="node">
<title>Node27</title>
<g id="a_node27"><a xlink:title=" ">
<polygon fill="white" stroke="#bfbfbf" points="1595.5,-0.5 1595.5,-19.5 1649.5,-19.5 1649.5,-0.5 1595.5,-0.5"/>
<text text-anchor="middle" x="1622.5" y="-7.5" font-family="Helvetica,sans-Serif" font-size="10.00">iostream</text>
</a>
</g>
</g>
<!-- Node26&#45;&gt;Node27 -->
<g id="edge51" class="edge">
<title>Node26&#45;&gt;Node27</title>
<path fill="none" stroke="midnightblue" d="M1516.59,-121.85C1599.35,-122.16 1763.36,-117.39 1799.5,-76 1805.35,-69.3 1804.96,-63.02 1799.5,-56 1782.54,-34.18 1706.61,-21.21 1659.88,-15.16"/>
<polygon fill="midnightblue" stroke="midnightblue" points="1660.17,-11.67 1649.82,-13.9 1659.31,-18.61 1660.17,-11.67"/>
</g>
<!-- Node28 -->
<g id="node28" class="node">
<title>Node28</title>
<g id="a_node28"><a xlink:title=" ">
<polygon fill="white" stroke="#bfbfbf" points="1442.5,-0.5 1442.5,-19.5 1494.5,-19.5 1494.5,-0.5 1442.5,-0.5"/>
<text text-anchor="middle" x="1468.5" y="-7.5" font-family="Helvetica,sans-Serif" font-size="10.00">memory</text>
</a>
</g>
</g>
<!-- Node26&#45;&gt;Node28 -->
<g id="edge52" class="edge">
<title>Node26&#45;&gt;Node28</title>
<path fill="none" stroke="midnightblue" d="M1443.43,-112.36C1416.43,-101.55 1379.15,-81.34 1393.5,-56 1402.03,-40.93 1417.84,-30.36 1432.75,-23.27"/>
<polygon fill="midnightblue" stroke="midnightblue" points="1434.57,-26.3 1442.34,-19.1 1431.77,-19.88 1434.57,-26.3"/>
</g>
<!-- Node29 -->
<g id="node29" class="node">
<title>Node29</title>
<g id="a_node29"><a xlink:title=" ">
<polygon fill="white" stroke="#bfbfbf" points="1849.5,-0.5 1849.5,-19.5 1889.5,-19.5 1889.5,-0.5 1849.5,-0.5"/>
<text text-anchor="middle" x="1869.5" y="-7.5" font-family="Helvetica,sans-Serif" font-size="10.00">utility</text>
</a>
</g>
</g>
<!-- Node26&#45;&gt;Node29 -->
<g id="edge54" class="edge">
<title>Node26&#45;&gt;Node29</title>
<path fill="none" stroke="midnightblue" d="M1516.69,-120.23C1603.25,-118.02 1780.79,-109.41 1831.5,-76 1847.84,-65.24 1858.06,-44.84 1863.73,-29.75"/>
<polygon fill="midnightblue" stroke="midnightblue" points="1867.17,-30.52 1867.08,-19.92 1860.55,-28.26 1867.17,-30.52"/>
</g>
<!-- Node30 -->
<g id="node30" class="node">
<title>Node30</title>
<g id="a_node30"><a xlink:title=" ">
<polygon fill="white" stroke="#bfbfbf" points="1711,-56.5 1711,-75.5 1790,-75.5 1790,-56.5 1711,-56.5"/>
<text text-anchor="middle" x="1750.5" y="-63.5" font-family="Helvetica,sans-Serif" font-size="10.00">Ark/String.hpp</text>
</a>
</g>
</g>
<!-- Node26&#45;&gt;Node30 -->
<g id="edge55" class="edge">
<title>Node26&#45;&gt;Node30</title>
<path fill="none" stroke="midnightblue" d="M1513.18,-112.44C1564.25,-102.66 1647.6,-86.7 1700.71,-76.53"/>
<polygon fill="midnightblue" stroke="midnightblue" points="1701.42,-79.96 1710.58,-74.64 1700.11,-73.09 1701.42,-79.96"/>
</g>
<!-- Node31 -->
<g id="node31" class="node">
<title>Node31</title>
<g id="a_node31"><a xlink:href="../../dc/dd5/Closure_8hpp.html" target="_top" xlink:title="Subtype of the value type, handling closures.">
<polygon fill="white" stroke="black" points="1402.5,-56.5 1402.5,-75.5 1534.5,-75.5 1534.5,-56.5 1402.5,-56.5"/>
<text text-anchor="middle" x="1468.5" y="-63.5" font-family="Helvetica,sans-Serif" font-size="10.00">Ark/VM/Value/Closure.hpp</text>
</a>
</g>
</g>
<!-- Node26&#45;&gt;Node31 -->
<g id="edge57" class="edge">
<title>Node26&#45;&gt;Node31</title>
<path fill="none" stroke="midnightblue" d="M1468.5,-112.08C1468.5,-105.01 1468.5,-94.86 1468.5,-85.99"/>
<polygon fill="midnightblue" stroke="midnightblue" points="1472,-85.75 1468.5,-75.75 1465,-85.75 1472,-85.75"/>
</g>
<!-- Node32 -->
<g id="node32" class="node">
<title>Node32</title>
<g id="a_node32"><a xlink:href="../../dc/d3d/UserType_8hpp.html" target="_top" xlink:title="Subtype of the value, capable of handling any C++ type.">
<polygon fill="white" stroke="black" points="1552.5,-56.5 1552.5,-75.5 1692.5,-75.5 1692.5,-56.5 1552.5,-56.5"/>
<text text-anchor="middle" x="1622.5" y="-63.5" font-family="Helvetica,sans-Serif" font-size="10.00">Ark/VM/Value/UserType.hpp</text>
</a>
</g>
</g>
<!-- Node26&#45;&gt;Node32 -->
<g id="edge62" class="edge">
<title>Node26&#45;&gt;Node32</title>
<path fill="none" stroke="midnightblue" d="M1492.9,-112.44C1518.7,-103.4 1559.58,-89.06 1588.52,-78.92"/>
<polygon fill="midnightblue" stroke="midnightblue" points="1589.93,-82.13 1598.21,-75.52 1587.62,-75.52 1589.93,-82.13"/>
</g>
<!-- Node33 -->
<g id="node33" class="node">
<title>Node33</title>
<g id="a_node33"><a xlink:href="../../d0/dd2/Profiling_8hpp.html" target="_top" xlink:title=" ">
<polygon fill="white" stroke="black" points="1122.5,-56.5 1122.5,-75.5 1210.5,-75.5 1210.5,-56.5 1122.5,-56.5"/>
<text text-anchor="middle" x="1166.5" y="-63.5" font-family="Helvetica,sans-Serif" font-size="10.00">Ark/Profiling.hpp</text>
</a>
</g>
</g>
<!-- Node26&#45;&gt;Node33 -->
<g id="edge69" class="edge">
<title>Node26&#45;&gt;Node33</title>
<path fill="none" stroke="midnightblue" d="M1420.65,-112.44C1366.2,-102.71 1277.49,-86.85 1220.58,-76.67"/>
<polygon fill="midnightblue" stroke="midnightblue" points="1221.15,-73.22 1210.69,-74.9 1219.92,-80.11 1221.15,-73.22"/>
</g>
<!-- Node34 -->
<g id="node34" class="node">
<title>Node34</title>
<g id="a_node34"><a xlink:title=" ">
<polygon fill="white" stroke="#bfbfbf" points="1228.5,-56.5 1228.5,-75.5 1308.5,-75.5 1308.5,-56.5 1228.5,-56.5"/>
<text text-anchor="middle" x="1268.5" y="-63.5" font-family="Helvetica,sans-Serif" font-size="10.00">inline/Value.inl</text>
</a>
</g>
</g>
<!-- Node26&#45;&gt;Node34 -->
<g id="edge70" class="edge">
<title>Node26&#45;&gt;Node34</title>
<path fill="none" stroke="midnightblue" d="M1436.81,-112.44C1402.43,-103.16 1347.42,-88.31 1309.71,-78.13"/>
<polygon fill="midnightblue" stroke="midnightblue" points="1310.61,-74.74 1300.04,-75.52 1308.78,-81.5 1310.61,-74.74"/>
</g>
<!-- Node31&#45;&gt;Node2 -->
<g id="edge59" class="edge">
<title>Node31&#45;&gt;Node2</title>
<path fill="none" stroke="midnightblue" d="M1403.22,-56.44C1313.19,-44.64 1154.48,-23.84 1087.6,-15.08"/>
<polygon fill="midnightblue" stroke="midnightblue" points="1088.05,-11.61 1077.68,-13.78 1087.14,-18.55 1088.05,-11.61"/>
</g>
<!-- Node31&#45;&gt;Node6 -->
<g id="edge61" class="edge">
<title>Node31&#45;&gt;Node6</title>
<path fill="none" stroke="midnightblue" d="M1514.93,-56.44C1567.03,-46.84 1651.49,-31.28 1706.76,-21.09"/>
<polygon fill="midnightblue" stroke="midnightblue" points="1707.53,-24.51 1716.73,-19.25 1706.26,-17.62 1707.53,-24.51"/>
</g>
<!-- Node31&#45;&gt;Node27 -->
<g id="edge60" class="edge">
<title>Node31&#45;&gt;Node27</title>
<path fill="none" stroke="midnightblue" d="M1492.9,-56.44C1518.7,-47.4 1559.58,-33.06 1588.52,-22.92"/>
<polygon fill="midnightblue" stroke="midnightblue" points="1589.93,-26.13 1598.21,-19.52 1587.62,-19.52 1589.93,-26.13"/>
</g>
<!-- Node31&#45;&gt;Node28 -->
<g id="edge58" class="edge">
<title>Node31&#45;&gt;Node28</title>
<path fill="none" stroke="midnightblue" d="M1468.5,-56.08C1468.5,-49.01 1468.5,-38.86 1468.5,-29.99"/>
<polygon fill="midnightblue" stroke="midnightblue" points="1472,-29.75 1468.5,-19.75 1465,-29.75 1472,-29.75"/>
</g>
<!-- Node32&#45;&gt;Node2 -->
<g id="edge64" class="edge">
<title>Node32&#45;&gt;Node2</title>
<path fill="none" stroke="midnightblue" d="M1552.3,-56.92C1549.33,-56.61 1546.38,-56.3 1543.5,-56 1371.68,-38.28 1165.41,-20.3 1087.94,-13.67"/>
<polygon fill="midnightblue" stroke="midnightblue" points="1088.14,-10.18 1077.88,-12.81 1087.54,-17.15 1088.14,-10.18"/>
</g>
<!-- Node32&#45;&gt;Node6 -->
<g id="edge67" class="edge">
<title>Node32&#45;&gt;Node6</title>
<path fill="none" stroke="midnightblue" d="M1644.52,-56.44C1667.6,-47.48 1704.06,-33.31 1730.14,-23.18"/>
<polygon fill="midnightblue" stroke="midnightblue" points="1731.52,-26.4 1739.58,-19.52 1728.99,-19.88 1731.52,-26.4"/>
</g>
<!-- Node32&#45;&gt;Node27 -->
<g id="edge63" class="edge">
<title>Node32&#45;&gt;Node27</title>
<path fill="none" stroke="midnightblue" d="M1622.5,-56.08C1622.5,-49.01 1622.5,-38.86 1622.5,-29.99"/>
<polygon fill="midnightblue" stroke="midnightblue" points="1626,-29.75 1622.5,-19.75 1619,-29.75 1626,-29.75"/>
</g>
<!-- Node32&#45;&gt;Node28 -->
<g id="edge66" class="edge">
<title>Node32&#45;&gt;Node28</title>
<path fill="none" stroke="midnightblue" d="M1598.1,-56.44C1572.3,-47.4 1531.42,-33.06 1502.48,-22.92"/>
<polygon fill="midnightblue" stroke="midnightblue" points="1503.38,-19.52 1492.79,-19.52 1501.07,-26.13 1503.38,-19.52"/>
</g>
<!-- Node32&#45;&gt;Node29 -->
<g id="edge65" class="edge">
<title>Node32&#45;&gt;Node29</title>
<path fill="none" stroke="midnightblue" d="M1661.64,-56.44C1711,-45.65 1794.82,-27.33 1839.45,-17.57"/>
<polygon fill="midnightblue" stroke="midnightblue" points="1840.36,-20.95 1849.39,-15.4 1838.87,-14.11 1840.36,-20.95"/>
</g>
<!-- Node35&#45;&gt;Node3 -->
<g id="edge74" class="edge">
<title>Node35&#45;&gt;Node3</title>
<path fill="none" stroke="midnightblue" d="M1050.2,-168.45C1026.14,-154.02 987.42,-131.04 953.5,-112 934.08,-101.1 911.87,-89.22 895.16,-80.41"/>
<polygon fill="midnightblue" stroke="midnightblue" points="896.5,-77.16 886.02,-75.61 893.24,-83.36 896.5,-77.16"/>
</g>
<!-- Node35&#45;&gt;Node8 -->
<g id="edge75" class="edge">
<title>Node35&#45;&gt;Node8</title>
<path fill="none" stroke="midnightblue" d="M1001.76,-168.55C946.56,-157.82 871.48,-143.22 821.35,-133.47"/>
<polygon fill="midnightblue" stroke="midnightblue" points="821.84,-130 811.36,-131.53 820.51,-136.87 821.84,-130"/>
</g>
<!-- Node36 -->
<g id="node36" class="node">
<title>Node36</title>
<g id="a_node36"><a xlink:title=" ">
<polygon fill="white" stroke="#bfbfbf" points="1043.5,-112.5 1043.5,-131.5 1095.5,-131.5 1095.5,-112.5 1043.5,-112.5"/>
<text text-anchor="middle" x="1069.5" y="-119.5" font-family="Helvetica,sans-Serif" font-size="10.00">sstream</text>
</a>
</g>
</g>
<!-- Node35&#45;&gt;Node36 -->
<g id="edge73" class="edge">
<title>Node35&#45;&gt;Node36</title>
<path fill="none" stroke="midnightblue" d="M1072.55,-168.4C1072.02,-160.47 1071.35,-150.46 1070.77,-141.86"/>
<polygon fill="midnightblue" stroke="midnightblue" points="1074.24,-141.4 1070.08,-131.66 1067.26,-141.87 1074.24,-141.4"/>
</g>
<!-- Node37&#45;&gt;Node3 -->
<g id="edge78" class="edge">
<title>Node37&#45;&gt;Node3</title>
<path fill="none" stroke="midnightblue" d="M867.65,-173.82C867.97,-155.26 868.73,-111.34 869.17,-85.97"/>
<polygon fill="midnightblue" stroke="midnightblue" points="872.67,-85.84 869.35,-75.78 865.68,-85.72 872.67,-85.84"/>
</g>
<!-- Node37&#45;&gt;Node8 -->
<g id="edge79" class="edge">
<title>Node37&#45;&gt;Node8</title>
<path fill="none" stroke="midnightblue" d="M853.17,-173.98C836.84,-164.25 809.9,-148.23 790.59,-136.74"/>
<polygon fill="midnightblue" stroke="midnightblue" points="792.18,-133.61 781.8,-131.51 788.61,-139.63 792.18,-133.61"/>
</g>
<!-- Node37&#45;&gt;Node9 -->
<g id="edge77" class="edge">
<title>Node37&#45;&gt;Node9</title>
<path fill="none" stroke="midnightblue" d="M872.24,-173.82C882.54,-154.92 907.18,-109.75 920.89,-84.62"/>
<polygon fill="midnightblue" stroke="midnightblue" points="923.99,-86.24 925.71,-75.78 917.85,-82.88 923.99,-86.24"/>
</g>
</g>
</svg>
        <g id="navigator" transform="translate(0 0)" fill="#404254">
                <rect fill="#f2f5e9" fill-opacity="0.5" stroke="#606060" stroke-width=".5" x="0" y="0" width="60" height="60"/>
                <use id="zoomplus" xlink:href="#zoomPlus" x="17" y="9" onmousedown="handleZoom(evt,'in')"/>
                <use id="zoomminus" xlink:href="#zoomMin" x="42" y="9" onmousedown="handleZoom(evt,'out')"/>
                <use id="reset" xlink:href="#resetDef" x="30" y="36" onmousedown="handleReset()"/>
                <g id="arrowUp" xlink:href="#dirArrow" transform="translate(30 24)" onmousedown="handlePan(0,-1)">
                  <use xlink:href="#rim" fill="#404040">
                        <set attributeName="fill" to="#808080" begin="arrowUp.mouseover" end="arrowUp.mouseout"/>
                  </use>
                  <path fill="none" stroke="white" stroke-width="1.5" d="M0,-3.0v7 M-2.5,-0.5L0,-3.0L2.5,-0.5"/>
                </g>
                <g id="arrowRight" xlink:href="#dirArrow" transform="rotate(90) translate(36 -43)" onmousedown="handlePan(1,0)">
                  <use xlink:href="#rim" fill="#404040">
                        <set attributeName="fill" to="#808080" begin="arrowRight.mouseover" end="arrowRight.mouseout"/>
                  </use>
                  <path fill="none" stroke="white" stroke-width="1.5" d="M0,-3.0v7 M-2.5,-0.5L0,-3.0L2.5,-0.5"/>
                </g>
                <g id="arrowDown" xlink:href="#dirArrow" transform="rotate(180) translate(-30 -48)" onmousedown="handlePan(0,1)">
                  <use xlink:href="#rim" fill="#404040">
                        <set attributeName="fill" to="#808080" begin="arrowDown.mouseover" end="arrowDown.mouseout"/>
                  </use>
                  <path fill="none" stroke="white" stroke-width="1.5" d="M0,-3.0v7 M-2.5,-0.5L0,-3.0L2.5,-0.5"/>
                </g>
                <g id="arrowLeft" xlink:href="#dirArrow" transform="rotate(270) translate(-36 17)" onmousedown="handlePan(-1,0)">
                  <use xlink:href="#rim" fill="#404040">
                        <set attributeName="fill" to="#808080" begin="arrowLeft.mouseover" end="arrowLeft.mouseout"/>
                  </use>
                  <path fill="none" stroke="white" stroke-width="1.5" d="M0,-3.0v7 M-2.5,-0.5L0,-3.0L2.5,-0.5"/>
                </g>
        </g>
        <svg viewBox="0 0 15 15" width="100%" height="30px" preserveAspectRatio="xMaxYMin meet">
         <g id="arrow_out" transform="scale(0.3 0.3)">
          <a xlink:href="Compiler_8hpp__incl_org.svg" target="_base">
           <rect id="button" ry="5" rx="5" y="6" x="6" height="38" width="38"
                fill="#f2f5e9" fill-opacity="0.5" stroke="#606060" stroke-width="1.0"/>
           <path id="arrow"
             d="M 11.500037,31.436501 C 11.940474,20.09759 22.043105,11.32322 32.158766,21.979434 L 37.068811,17.246167 C 37.068811,17.246167 37.088388,32 37.088388,32 L 22.160133,31.978069 C 22.160133,31.978069 26.997745,27.140456 26.997745,27.140456 C 18.528582,18.264221 13.291696,25.230495 11.500037,31.436501 z"
             style="fill:#404040;"/>
          </a>
         </g>
        </svg>
</svg>
