<?xml version="1.0" encoding="UTF-8" standalone="no"?>
<!DOCTYPE svg PUBLIC "-//W3C//DTD SVG 1.1//EN"
 "http://www.w3.org/Graphics/SVG/1.1/DTD/svg11.dtd">
<!-- Generated by graphviz version 2.49.0 (20210828.1703)
 -->
<!-- Title: C:/Users/folae/Documents/Code/Big&#45;Projects/ArkScript/Ark/src/arkreactor/Compiler/Optimizer.cpp Pages: 1 -->
<svg width="855pt" height="341pt"
 viewBox="0.00 0.00 854.50 341.00" xmlns="http://www.w3.org/2000/svg" xmlns:xlink="http://www.w3.org/1999/xlink">
<g id="graph0" class="graph" transform="scale(1 1) rotate(0) translate(4 337)">
<title>C:/Users/folae/Documents/Code/Big&#45;Projects/ArkScript/Ark/src/arkreactor/Compiler/Optimizer.cpp</title>
<polygon fill="white" stroke="transparent" points="-4,4 -4,-337 850.5,-337 850.5,4 -4,4"/>
<!-- Node1 -->
<g id="node1" class="node">
<title>Node1</title>
<g id="a_node1"><a xlink:title=" ">
<polygon fill="#bfbfbf" stroke="black" points="431,-280.5 431,-332.5 573,-332.5 573,-280.5 431,-280.5"/>
<text text-anchor="start" x="439" y="-320.5" font-family="Helvetica,sans-Serif" font-size="10.00">C:/Users/folae/Documents</text>
<text text-anchor="start" x="439" y="-309.5" font-family="Helvetica,sans-Serif" font-size="10.00">/Code/Big&#45;Projects/ArkScript</text>
<text text-anchor="start" x="439" y="-298.5" font-family="Helvetica,sans-Serif" font-size="10.00">/Ark/src/arkreactor/Compiler</text>
<text text-anchor="middle" x="502" y="-287.5" font-family="Helvetica,sans-Serif" font-size="10.00">/Optimizer.cpp</text>
</a>
</g>
</g>
<!-- Node2 -->
<g id="node2" class="node">
<title>Node2</title>
<g id="a_node2"><a xlink:href="../../db/d93/Optimizer_8hpp.html" target="_top" xlink:title="Optimizes a given ArkScript AST.">
<polygon fill="white" stroke="black" points="433.5,-224.5 433.5,-243.5 570.5,-243.5 570.5,-224.5 433.5,-224.5"/>
<text text-anchor="middle" x="502" y="-231.5" font-family="Helvetica,sans-Serif" font-size="10.00">Ark/Compiler/Optimizer.hpp</text>
</a>
</g>
</g>
<!-- Node1&#45;&gt;Node2 -->
<g id="edge1" class="edge">
<title>Node1&#45;&gt;Node2</title>
<path fill="none" stroke="midnightblue" d="M502,-280.45C502,-271.73 502,-262.1 502,-253.96"/>
<polygon fill="midnightblue" stroke="midnightblue" points="505.5,-253.7 502,-243.7 498.5,-253.7 505.5,-253.7"/>
</g>
<!-- Node3 -->
<g id="node3" class="node">
<title>Node3</title>
<g id="a_node3"><a xlink:title=" ">
<polygon fill="white" stroke="#bfbfbf" points="0,-168.5 0,-187.5 58,-187.5 58,-168.5 0,-168.5"/>
<text text-anchor="middle" x="29" y="-175.5" font-family="Helvetica,sans-Serif" font-size="10.00">functional</text>
</a>
</g>
</g>
<!-- Node2&#45;&gt;Node3 -->
<g id="edge2" class="edge">
<title>Node2&#45;&gt;Node3</title>
<path fill="none" stroke="midnightblue" d="M433.2,-227.98C348.07,-221.26 198.81,-207.85 72,-188 70.73,-187.8 69.44,-187.59 68.14,-187.37"/>
<polygon fill="midnightblue" stroke="midnightblue" points="68.54,-183.88 58.07,-185.5 67.27,-190.77 68.54,-183.88"/>
</g>
<!-- Node4 -->
<g id="node4" class="node">
<title>Node4</title>
<g id="a_node4"><a xlink:title=" ">
<polygon fill="white" stroke="#bfbfbf" points="763.5,-56.5 763.5,-75.5 846.5,-75.5 846.5,-56.5 763.5,-56.5"/>
<text text-anchor="middle" x="805" y="-63.5" font-family="Helvetica,sans-Serif" font-size="10.00">unordered_map</text>
</a>
</g>
</g>
<!-- Node2&#45;&gt;Node4 -->
<g id="edge3" class="edge">
<title>Node2&#45;&gt;Node4</title>
<path fill="none" stroke="midnightblue" d="M512.21,-224.43C522.92,-215.42 540.22,-200.8 555,-188 593.55,-154.6 596.13,-136.27 641,-112 660.85,-101.26 715.49,-87.3 756.28,-77.79"/>
<polygon fill="midnightblue" stroke="midnightblue" points="757.1,-81.2 766.06,-75.54 755.53,-74.38 757.1,-81.2"/>
</g>
<!-- Node5 -->
<g id="node5" class="node">
<title>Node5</title>
<g id="a_node5"><a xlink:title=" ">
<polygon fill="white" stroke="#bfbfbf" points="122.5,-0.5 122.5,-19.5 163.5,-19.5 163.5,-0.5 122.5,-0.5"/>
<text text-anchor="middle" x="143" y="-7.5" font-family="Helvetica,sans-Serif" font-size="10.00">string</text>
</a>
</g>
</g>
<!-- Node2&#45;&gt;Node5 -->
<g id="edge4" class="edge">
<title>Node2&#45;&gt;Node5</title>
<path fill="none" stroke="midnightblue" d="M453.39,-224.46C391.03,-211.85 281.32,-183.9 201,-132 171.7,-113.07 159.95,-107.98 146,-76 139.65,-61.44 139.37,-43.26 140.41,-29.83"/>
<polygon fill="midnightblue" stroke="midnightblue" points="143.89,-30.17 141.49,-19.86 136.93,-29.42 143.89,-30.17"/>
</g>
<!-- Node6 -->
<g id="node6" class="node">
<title>Node6</title>
<g id="a_node6"><a xlink:title=" ">
<polygon fill="white" stroke="#bfbfbf" points="650,-112.5 650,-131.5 706,-131.5 706,-112.5 650,-112.5"/>
<text text-anchor="middle" x="678" y="-119.5" font-family="Helvetica,sans-Serif" font-size="10.00">cinttypes</text>
</a>
</g>
</g>
<!-- Node2&#45;&gt;Node6 -->
<g id="edge5" class="edge">
<title>Node2&#45;&gt;Node6</title>
<path fill="none" stroke="midnightblue" d="M528.68,-224.39C550.67,-216.64 582.17,-204.02 607,-188 628.6,-174.06 649.87,-153.41 663.42,-139.14"/>
<polygon fill="midnightblue" stroke="midnightblue" points="666.2,-141.29 670.44,-131.58 661.07,-136.52 666.2,-141.29"/>
</g>
<!-- Node7 -->
<g id="node7" class="node">
<title>Node7</title>
<g id="a_node7"><a xlink:href="../../d7/dc6/Node_8hpp.html" target="_top" xlink:title="AST node used by the parser, optimizer and compiler.">
<polygon fill="white" stroke="black" points="313.5,-112.5 313.5,-131.5 430.5,-131.5 430.5,-112.5 313.5,-112.5"/>
<text text-anchor="middle" x="372" y="-119.5" font-family="Helvetica,sans-Serif" font-size="10.00">Ark/Compiler/Node.hpp</text>
</a>
</g>
</g>
<!-- Node2&#45;&gt;Node7 -->
<g id="edge6" class="edge">
<title>Node2&#45;&gt;Node7</title>
<path fill="none" stroke="midnightblue" d="M433.47,-227.93C406.72,-222.19 378.54,-210.69 362,-188 352.04,-174.34 356.95,-154.74 362.86,-140.64"/>
<polygon fill="midnightblue" stroke="midnightblue" points="366.06,-142.04 367.14,-131.5 359.72,-139.07 366.06,-142.04"/>
</g>
<!-- Node13 -->
<g id="node13" class="node">
<title>Node13</title>
<g id="a_node13"><a xlink:href="../../d2/de9/Exceptions_8hpp.html" target="_top" xlink:title="ArkScript homemade exceptions.">
<polygon fill="white" stroke="black" points="643,-56.5 643,-75.5 745,-75.5 745,-56.5 643,-56.5"/>
<text text-anchor="middle" x="694" y="-63.5" font-family="Helvetica,sans-Serif" font-size="10.00">Ark/Exceptions.hpp</text>
</a>
</g>
</g>
<!-- Node2&#45;&gt;Node13 -->
<g id="edge18" class="edge">
<title>Node2&#45;&gt;Node13</title>
<path fill="none" stroke="midnightblue" d="M508.86,-224.24C515.75,-215.31 526.52,-200.98 535,-188 556.35,-155.33 549.39,-137.43 579,-112 597.55,-96.07 622.39,-85.41 644.24,-78.47"/>
<polygon fill="midnightblue" stroke="midnightblue" points="645.46,-81.76 654.03,-75.55 643.45,-75.06 645.46,-81.76"/>
</g>
<!-- Node16 -->
<g id="node16" class="node">
<title>Node16</title>
<g id="a_node16"><a xlink:href="../../d6/de9/Constants_8hpp.html" target="_top" xlink:title="Constants used by ArkScript.">
<polygon fill="white" stroke="black" points="659,-168.5 659,-187.5 757,-187.5 757,-168.5 659,-168.5"/>
<text text-anchor="middle" x="708" y="-175.5" font-family="Helvetica,sans-Serif" font-size="10.00">Ark/Constants.hpp</text>
</a>
</g>
</g>
<!-- Node2&#45;&gt;Node16 -->
<g id="edge19" class="edge">
<title>Node2&#45;&gt;Node16</title>
<path fill="none" stroke="midnightblue" d="M534.64,-224.44C570.05,-215.16 626.71,-200.31 665.55,-190.13"/>
<polygon fill="midnightblue" stroke="midnightblue" points="666.73,-193.44 675.51,-187.52 664.95,-186.67 666.73,-193.44"/>
</g>
<!-- Node17 -->
<g id="node17" class="node">
<title>Node17</title>
<g id="a_node17"><a xlink:href="../../dc/dc5/makeErrorCtx_8hpp.html" target="_top" xlink:title=" ">
<polygon fill="white" stroke="black" points="371.5,-168.5 371.5,-187.5 526.5,-187.5 526.5,-168.5 371.5,-168.5"/>
<text text-anchor="middle" x="449" y="-175.5" font-family="Helvetica,sans-Serif" font-size="10.00">Ark/Compiler/makeErrorCtx.hpp</text>
</a>
</g>
</g>
<!-- Node2&#45;&gt;Node17 -->
<g id="edge21" class="edge">
<title>Node2&#45;&gt;Node17</title>
<path fill="none" stroke="midnightblue" d="M493.25,-224.08C485.53,-216.22 474.1,-204.57 464.78,-195.08"/>
<polygon fill="midnightblue" stroke="midnightblue" points="467.09,-192.44 457.59,-187.75 462.1,-197.34 467.09,-192.44"/>
</g>
<!-- Node7&#45;&gt;Node4 -->
<g id="edge12" class="edge">
<title>Node7&#45;&gt;Node4</title>
<path fill="none" stroke="midnightblue" d="M430.6,-113.18C433.78,-112.77 436.93,-112.38 440,-112 576.14,-95.19 613.27,-96.16 753.04,-76.06"/>
<polygon fill="midnightblue" stroke="midnightblue" points="753.89,-79.47 763.28,-74.57 752.89,-72.54 753.89,-79.47"/>
</g>
<!-- Node7&#45;&gt;Node5 -->
<g id="edge10" class="edge">
<title>Node7&#45;&gt;Node5</title>
<path fill="none" stroke="midnightblue" d="M313.08,-119.08C272.5,-115.07 219.22,-104.25 181,-76 165.27,-64.37 154.94,-44.12 149.08,-29.31"/>
<polygon fill="midnightblue" stroke="midnightblue" points="152.29,-27.89 145.58,-19.68 145.71,-30.27 152.29,-27.89"/>
</g>
<!-- Node8 -->
<g id="node8" class="node">
<title>Node8</title>
<g id="a_node8"><a xlink:title=" ">
<polygon fill="white" stroke="#bfbfbf" points="190,-56.5 190,-75.5 234,-75.5 234,-56.5 190,-56.5"/>
<text text-anchor="middle" x="212" y="-63.5" font-family="Helvetica,sans-Serif" font-size="10.00">variant</text>
</a>
</g>
</g>
<!-- Node7&#45;&gt;Node8 -->
<g id="edge7" class="edge">
<title>Node7&#45;&gt;Node8</title>
<path fill="none" stroke="midnightblue" d="M346.65,-112.44C318.78,-103.04 273.97,-87.91 243.78,-77.72"/>
<polygon fill="midnightblue" stroke="midnightblue" points="244.74,-74.35 234.14,-74.47 242.5,-80.99 244.74,-74.35"/>
</g>
<!-- Node9 -->
<g id="node9" class="node">
<title>Node9</title>
<g id="a_node9"><a xlink:title=" ">
<polygon fill="white" stroke="#bfbfbf" points="252,-56.5 252,-75.5 306,-75.5 306,-56.5 252,-56.5"/>
<text text-anchor="middle" x="279" y="-63.5" font-family="Helvetica,sans-Serif" font-size="10.00">iostream</text>
</a>
</g>
</g>
<!-- Node7&#45;&gt;Node9 -->
<g id="edge8" class="edge">
<title>Node7&#45;&gt;Node9</title>
<path fill="none" stroke="midnightblue" d="M357.06,-112.32C342.41,-103.82 319.87,-90.73 302.76,-80.8"/>
<polygon fill="midnightblue" stroke="midnightblue" points="304.31,-77.65 293.9,-75.65 300.8,-83.7 304.31,-77.65"/>
</g>
<!-- Node10 -->
<g id="node10" class="node">
<title>Node10</title>
<g id="a_node10"><a xlink:title=" ">
<polygon fill="white" stroke="#bfbfbf" points="324,-56.5 324,-75.5 362,-75.5 362,-56.5 324,-56.5"/>
<text text-anchor="middle" x="343" y="-63.5" font-family="Helvetica,sans-Serif" font-size="10.00">array</text>
</a>
</g>
</g>
<!-- Node7&#45;&gt;Node10 -->
<g id="edge9" class="edge">
<title>Node7&#45;&gt;Node10</title>
<path fill="none" stroke="midnightblue" d="M367.21,-112.08C363.24,-104.69 357.47,-93.95 352.57,-84.81"/>
<polygon fill="midnightblue" stroke="midnightblue" points="355.51,-82.91 347.7,-75.75 349.35,-86.22 355.51,-82.91"/>
</g>
<!-- Node11 -->
<g id="node11" class="node">
<title>Node11</title>
<g id="a_node11"><a xlink:title=" ">
<polygon fill="white" stroke="#bfbfbf" points="380,-56.5 380,-75.5 422,-75.5 422,-56.5 380,-56.5"/>
<text text-anchor="middle" x="401" y="-63.5" font-family="Helvetica,sans-Serif" font-size="10.00">vector</text>
</a>
</g>
</g>
<!-- Node7&#45;&gt;Node11 -->
<g id="edge11" class="edge">
<title>Node7&#45;&gt;Node11</title>
<path fill="none" stroke="midnightblue" d="M376.79,-112.08C380.76,-104.69 386.53,-93.95 391.43,-84.81"/>
<polygon fill="midnightblue" stroke="midnightblue" points="394.65,-86.22 396.3,-75.75 388.49,-82.91 394.65,-86.22"/>
</g>
<!-- Node12 -->
<g id="node12" class="node">
<title>Node12</title>
<g id="a_node12"><a xlink:href="../../d5/d40/Platform_8hpp.html" target="_top" xlink:title="ArkScript configuration macros.">
<polygon fill="white" stroke="black" points="440.5,-56.5 440.5,-75.5 529.5,-75.5 529.5,-56.5 440.5,-56.5"/>
<text text-anchor="middle" x="485" y="-63.5" font-family="Helvetica,sans-Serif" font-size="10.00">Ark/Platform.hpp</text>
</a>
</g>
</g>
<!-- Node7&#45;&gt;Node12 -->
<g id="edge13" class="edge">
<title>Node7&#45;&gt;Node12</title>
<path fill="none" stroke="midnightblue" d="M389.91,-112.44C408.25,-103.68 437.01,-89.94 458.09,-79.86"/>
<polygon fill="midnightblue" stroke="midnightblue" points="459.67,-82.99 467.18,-75.52 456.65,-76.67 459.67,-82.99"/>
</g>
<!-- Node7&#45;&gt;Node13 -->
<g id="edge14" class="edge">
<title>Node7&#45;&gt;Node13</title>
<path fill="none" stroke="midnightblue" d="M423.02,-112.44C480.02,-102.89 572.24,-87.42 633,-77.23"/>
<polygon fill="midnightblue" stroke="midnightblue" points="633.93,-80.62 643.22,-75.52 632.78,-73.72 633.93,-80.62"/>
</g>
<!-- Node15 -->
<g id="node15" class="node">
<title>Node15</title>
<g id="a_node15"><a xlink:title=" ">
<polygon fill="white" stroke="#bfbfbf" points="547.5,-56.5 547.5,-75.5 624.5,-75.5 624.5,-56.5 547.5,-56.5"/>
<text text-anchor="middle" x="586" y="-63.5" font-family="Helvetica,sans-Serif" font-size="10.00">inline/Node.inl</text>
</a>
</g>
</g>
<!-- Node7&#45;&gt;Node15 -->
<g id="edge17" class="edge">
<title>Node7&#45;&gt;Node15</title>
<path fill="none" stroke="midnightblue" d="M405.91,-112.44C442.85,-103.12 502.05,-88.18 542.42,-78"/>
<polygon fill="midnightblue" stroke="midnightblue" points="543.41,-81.36 552.25,-75.52 541.7,-74.57 543.41,-81.36"/>
</g>
<!-- Node13&#45;&gt;Node5 -->
<g id="edge16" class="edge">
<title>Node13&#45;&gt;Node5</title>
<path fill="none" stroke="midnightblue" d="M642.96,-57.14C639.93,-56.74 636.93,-56.35 634,-56 460.31,-35.03 250.99,-18.86 173.65,-13.19"/>
<polygon fill="midnightblue" stroke="midnightblue" points="173.85,-9.7 163.63,-12.46 173.35,-16.68 173.85,-9.7"/>
</g>
<!-- Node14 -->
<g id="node14" class="node">
<title>Node14</title>
<g id="a_node14"><a xlink:title=" ">
<polygon fill="white" stroke="#bfbfbf" points="664.5,-0.5 664.5,-19.5 723.5,-19.5 723.5,-0.5 664.5,-0.5"/>
<text text-anchor="middle" x="694" y="-7.5" font-family="Helvetica,sans-Serif" font-size="10.00">exception</text>
</a>
</g>
</g>
<!-- Node13&#45;&gt;Node14 -->
<g id="edge15" class="edge">
<title>Node13&#45;&gt;Node14</title>
<path fill="none" stroke="midnightblue" d="M694,-56.08C694,-49.01 694,-38.86 694,-29.99"/>
<polygon fill="midnightblue" stroke="midnightblue" points="697.5,-29.75 694,-19.75 690.5,-29.75 697.5,-29.75"/>
</g>
<!-- Node16&#45;&gt;Node6 -->
<g id="edge20" class="edge">
<title>Node16&#45;&gt;Node6</title>
<path fill="none" stroke="midnightblue" d="M703.05,-168.08C698.9,-160.61 692.85,-149.72 687.73,-140.52"/>
<polygon fill="midnightblue" stroke="midnightblue" points="690.78,-138.79 682.86,-131.75 684.66,-142.19 690.78,-138.79"/>
</g>
<!-- Node17&#45;&gt;Node5 -->
<g id="edge23" class="edge">
<title>Node17&#45;&gt;Node5</title>
<path fill="none" stroke="midnightblue" d="M371.27,-170.4C305.55,-160.61 213.75,-136.32 160,-76 148.73,-63.36 144.78,-44.15 143.47,-29.89"/>
<polygon fill="midnightblue" stroke="midnightblue" points="146.95,-29.52 142.89,-19.73 139.96,-29.91 146.95,-29.52"/>
</g>
<!-- Node17&#45;&gt;Node7 -->
<g id="edge24" class="edge">
<title>Node17&#45;&gt;Node7</title>
<path fill="none" stroke="midnightblue" d="M436.63,-168.32C424.84,-160.06 406.87,-147.45 392.86,-137.63"/>
<polygon fill="midnightblue" stroke="midnightblue" points="394.54,-134.53 384.34,-131.65 390.52,-140.26 394.54,-134.53"/>
</g>
<!-- Node18 -->
<g id="node18" class="node">
<title>Node18</title>
<g id="a_node18"><a xlink:title=" ">
<polygon fill="white" stroke="#bfbfbf" points="449,-112.5 449,-131.5 501,-131.5 501,-112.5 449,-112.5"/>
<text text-anchor="middle" x="475" y="-119.5" font-family="Helvetica,sans-Serif" font-size="10.00">sstream</text>
</a>
</g>
</g>
<!-- Node17&#45;&gt;Node18 -->
<g id="edge22" class="edge">
<title>Node17&#45;&gt;Node18</title>
<path fill="none" stroke="midnightblue" d="M453.29,-168.08C456.85,-160.69 462.02,-149.95 466.42,-140.81"/>
<polygon fill="midnightblue" stroke="midnightblue" points="469.6,-142.28 470.79,-131.75 463.29,-139.24 469.6,-142.28"/>
</g>
</g>
</svg>
