<?xml version="1.0" encoding="UTF-8" standalone="no"?>
<!DOCTYPE svg PUBLIC "-//W3C//DTD SVG 1.1//EN"
 "http://www.w3.org/Graphics/SVG/1.1/DTD/svg11.dtd">
<!-- Generated by graphviz version 12.1.1 (20240910.0053)
 -->
<!-- Title: /Users/fola/Documents/ArkScript/Ark/include/Ark/Compiler/BytecodeReader.hpp Pages: 1 -->
<!--zoomable 216 -->

<svg id="main" version="1.1" xmlns="http://www.w3.org/2000/svg" xmlns:xlink="http://www.w3.org/1999/xlink" xml:space="preserve" onload="init(evt)">

<style type="text/css"><![CDATA[
.node, .edge {opacity: 0.7;}
.node.selected, .edge.selected {opacity: 1;}
.edge:hover path { stroke: red; }
.edge:hover polygon { stroke: red; fill: red; }
]]></style>

<defs>
  <circle id="rim" cx="0" cy="0" r="7"/>
  <circle id="rim2" cx="0" cy="0" r="3.5"/>
  <g id="zoomPlus">
    <use xlink:href="#rim" fill="#404040"><set attributeName="fill" to="#808080" begin="zoomplus.mouseover" end="zoomplus.mouseout"/></use>
    <path d="M-4,0h8M0,-4v8" fill="none" stroke="white" stroke-width="1.5" pointer-events="none"/>
  </g>
  <g id="zoomMin">
    <use xlink:href="#rim" fill="#404040"><set attributeName="fill" to="#808080" begin="zoomminus.mouseover" end="zoomminus.mouseout"/></use>
    <path d="M-4,0h8" fill="none" stroke="white" stroke-width="1.5" pointer-events="none"/>
  </g>
  <g id="arrowUp" transform="translate(30 24)">
    <use xlink:href="#rim"/>
    <path pointer-events="none" fill="none" stroke="white" stroke-width="1.5" d="M0,-3.0v7 M-2.5,-0.5L0,-3.0L2.5,-0.5"/>
  </g>
  <g id="arrowRight" transform="rotate(90) translate(36 -43)">
    <use xlink:href="#rim"/>
    <path pointer-events="none" fill="none" stroke="white" stroke-width="1.5" d="M0,-3.0v7 M-2.5,-0.5L0,-3.0L2.5,-0.5"/>
  </g>
  <g id="arrowDown" transform="rotate(180) translate(-30 -48)">
    <use xlink:href="#rim"/>
    <path pointer-events="none" fill="none" stroke="white" stroke-width="1.5" d="M0,-3.0v7 M-2.5,-0.5L0,-3.0L2.5,-0.5"/>
  </g>
  <g id="arrowLeft" transform="rotate(270) translate(-36 17)">
    <use xlink:href="#rim"/>
    <path pointer-events="none" fill="none" stroke="white" stroke-width="1.5" d="M0,-3.0v7 M-2.5,-0.5L0,-3.0L2.5,-0.5"/>
  </g>
  <g id="resetDef">
    <use xlink:href="#rim2" fill="#404040"><set attributeName="fill" to="#808080" begin="reset.mouseover" end="reset.mouseout"/></use>
  </g>
</defs>
<script type="application/ecmascript">
var viewWidth = 710;
var viewHeight = 216;
var sectionId = 'dynsection-0';
</script>
<script type="application/ecmascript" xlink:href="../../svg.min.js"/>
<svg id="graph" class="graph">
<g id="viewport">
<title>/Users/fola/Documents/ArkScript/Ark/include/Ark/Compiler/BytecodeReader.hpp</title>
<!-- Node1 -->
<g id="Node000001" class="node">
<title>Node1</title>
<g id="a_Node000001"><a xlink:title="A bytecode disassembler for ArkScript.">
<polygon fill="#999999" stroke="#666666" points="345.14,-207.5 175.39,-207.5 175.39,-165.75 345.14,-165.75 345.14,-207.5"/>
<text text-anchor="start" x="183.39" y="-194" font-family="Helvetica,sans-Serif" font-size="10.00">/Users/fola/Documents</text>
<text text-anchor="start" x="183.39" y="-182.75" font-family="Helvetica,sans-Serif" font-size="10.00">/ArkScript/Ark/include</text>
<text text-anchor="middle" x="260.27" y="-171.5" font-family="Helvetica,sans-Serif" font-size="10.00">/Ark/Compiler/BytecodeReader.hpp</text>
</a>
</g>
</g>
<!-- Node2 -->
<g id="Node000002" class="node">
<title>Node2</title>
<g id="a_Node000002"><a xlink:title=" ">
<polygon fill="#e0e0e0" stroke="#999999" points="151.77,-74.5 108.77,-74.5 108.77,-55.25 151.77,-55.25 151.77,-74.5"/>
<text text-anchor="middle" x="130.27" y="-61" font-family="Helvetica,sans-Serif" font-size="10.00">vector</text>
</a>
</g>
</g>
<!-- Node1&#45;&gt;Node2 -->
<g id="edge1_Node000001_Node000002" class="edge">
<title>Node1&#45;&gt;Node2</title>
<g id="a_edge1_Node000001_Node000002"><a xlink:title=" ">
<path fill="none" stroke="#63b8ff" d="M242.39,-165.37C228.28,-149.77 207.77,-127.99 188.27,-110.5 176.86,-100.26 163.32,-89.76 152.19,-81.52"/>
<polygon fill="#63b8ff" stroke="#63b8ff" points="154.51,-78.88 144.37,-75.82 150.39,-84.54 154.51,-78.88"/>
</a>
</g>
</g>
<!-- Node3 -->
<g id="Node000003" class="node">
<title>Node3</title>
<g id="a_Node000003"><a xlink:title=" ">
<polygon fill="#e0e0e0" stroke="#999999" points="702.27,-19.25 662.27,-19.25 662.27,0 702.27,0 702.27,-19.25"/>
<text text-anchor="middle" x="682.27" y="-5.75" font-family="Helvetica,sans-Serif" font-size="10.00">string</text>
</a>
</g>
</g>
<!-- Node1&#45;&gt;Node3 -->
<g id="edge2_Node000001_Node000003" class="edge">
<title>Node1&#45;&gt;Node3</title>
<g id="a_edge2_Node000001_Node000003"><a xlink:title=" ">
<path fill="none" stroke="#63b8ff" d="M345.4,-181.37C414.95,-175.59 514.73,-161.95 596.27,-129.75 637.49,-113.48 657.43,-113.06 679.27,-74.5 686.73,-61.32 687.09,-44.05 685.8,-30.79"/>
<polygon fill="#63b8ff" stroke="#63b8ff" points="689.29,-30.49 684.44,-21.07 682.36,-31.46 689.29,-30.49"/>
</a>
</g>
</g>
<!-- Node4 -->
<g id="Node000004" class="node">
<title>Node4</title>
<g id="a_Node000004"><a xlink:title=" ">
<polygon fill="#e0e0e0" stroke="#999999" points="144.14,-19.25 88.39,-19.25 88.39,0 144.14,0 144.14,-19.25"/>
<text text-anchor="middle" x="116.27" y="-5.75" font-family="Helvetica,sans-Serif" font-size="10.00">cinttypes</text>
</a>
</g>
</g>
<!-- Node1&#45;&gt;Node4 -->
<g id="edge3_Node000001_Node000004" class="edge">
<title>Node1&#45;&gt;Node4</title>
<g id="a_edge3_Node000001_Node000004"><a xlink:title=" ">
<path fill="none" stroke="#63b8ff" d="M175.1,-181.24C129.77,-175.04 75.44,-160.98 36.27,-129.75 8.61,-107.7 -11.4,-84.65 8.27,-55.25 23.55,-32.39 52.93,-21.23 77.19,-15.79"/>
<polygon fill="#63b8ff" stroke="#63b8ff" points="77.63,-19.27 86.76,-13.9 76.28,-12.4 77.63,-19.27"/>
</a>
</g>
</g>
<!-- Node5 -->
<g id="Node000005" class="node">
<title>Node5</title>
<g id="a_Node000005"><a xlink:title=" ">
<polygon fill="#e0e0e0" stroke="#999999" points="285.14,-129.75 235.39,-129.75 235.39,-110.5 285.14,-110.5 285.14,-129.75"/>
<text text-anchor="middle" x="260.27" y="-116.25" font-family="Helvetica,sans-Serif" font-size="10.00">optional</text>
</a>
</g>
</g>
<!-- Node1&#45;&gt;Node5 -->
<g id="edge4_Node000001_Node000005" class="edge">
<title>Node1&#45;&gt;Node5</title>
<g id="a_edge4_Node000001_Node000005"><a xlink:title=" ">
<path fill="none" stroke="#63b8ff" d="M260.27,-165.57C260.27,-157.9 260.27,-149.14 260.27,-141.45"/>
<polygon fill="#63b8ff" stroke="#63b8ff" points="263.77,-141.71 260.27,-131.71 256.77,-141.71 263.77,-141.71"/>
</a>
</g>
</g>
<!-- Node6 -->
<g id="Node000006" class="node">
<title>Node6</title>
<g id="a_Node000006"><a xlink:href="../../d5/d40/Platform_8hpp.html" target="_top" xlink:title="ArkScript configuration macros.">
<polygon fill="white" stroke="#666666" points="510.02,-19.25 420.52,-19.25 420.52,0 510.02,0 510.02,-19.25"/>
<text text-anchor="middle" x="465.27" y="-5.75" font-family="Helvetica,sans-Serif" font-size="10.00">Ark/Platform.hpp</text>
</a>
</g>
</g>
<!-- Node1&#45;&gt;Node6 -->
<g id="edge5_Node000001_Node000006" class="edge">
<title>Node1&#45;&gt;Node6</title>
<g id="a_edge5_Node000001_Node000006"><a xlink:title=" ">
<path fill="none" stroke="#63b8ff" d="M345.59,-174.26C452.09,-158.11 624.96,-124.8 663.27,-74.5 668.45,-67.69 668.61,-61.93 663.27,-55.25 645.79,-33.39 573.77,-21.48 521.62,-15.58"/>
<polygon fill="#63b8ff" stroke="#63b8ff" points="522.32,-12.14 512,-14.55 521.57,-19.1 522.32,-12.14"/>
</a>
</g>
</g>
<!-- Node7 -->
<g id="Node000007" class="node">
<title>Node7</title>
<g id="a_Node000007"><a xlink:href="../../d8/ddd/Common_8hpp.html" target="_top" xlink:title="Common code for the compiler.">
<polygon fill="white" stroke="#666666" points="179.52,-129.75 45.02,-129.75 45.02,-110.5 179.52,-110.5 179.52,-129.75"/>
<text text-anchor="middle" x="112.27" y="-116.25" font-family="Helvetica,sans-Serif" font-size="10.00">Ark/Compiler/Common.hpp</text>
</a>
</g>
</g>
<!-- Node1&#45;&gt;Node7 -->
<g id="edge6_Node000001_Node000007" class="edge">
<title>Node1&#45;&gt;Node7</title>
<g id="a_edge6_Node000001_Node000007"><a xlink:title=" ">
<path fill="none" stroke="#63b8ff" d="M213.85,-165.39C190.85,-155.37 163.71,-143.54 143.27,-134.64"/>
<polygon fill="#63b8ff" stroke="#63b8ff" points="144.92,-131.54 134.35,-130.75 142.12,-137.95 144.92,-131.54"/>
</a>
</g>
</g>
<!-- Node10 -->
<g id="Node000010" class="node">
<title>Node10</title>
<g id="a_Node000010"><a xlink:href="../../de/dfd/Value_8hpp.html" target="_top" xlink:title=" ">
<polygon fill="white" stroke="#666666" points="397.64,-129.75 302.89,-129.75 302.89,-110.5 397.64,-110.5 397.64,-129.75"/>
<text text-anchor="middle" x="350.27" y="-116.25" font-family="Helvetica,sans-Serif" font-size="10.00">Ark/VM/Value.hpp</text>
</a>
</g>
</g>
<!-- Node1&#45;&gt;Node10 -->
<g id="edge11_Node000001_Node000010" class="edge">
<title>Node1&#45;&gt;Node10</title>
<g id="a_edge11_Node000001_Node000010"><a xlink:title=" ">
<path fill="none" stroke="#63b8ff" d="M288.25,-165.57C301.15,-156.33 316.24,-145.51 328.3,-136.87"/>
<polygon fill="#63b8ff" stroke="#63b8ff" points="330.29,-139.75 336.38,-131.08 326.21,-134.06 330.29,-139.75"/>
</a>
</g>
</g>
<!-- Node7&#45;&gt;Node2 -->
<g id="edge9_Node000007_Node000002" class="edge">
<title>Node7&#45;&gt;Node2</title>
<g id="a_edge9_Node000007_Node000002"><a xlink:title=" ">
<path fill="none" stroke="#63b8ff" d="M115.24,-110.33C117.52,-103.59 120.75,-94.02 123.64,-85.49"/>
<polygon fill="#63b8ff" stroke="#63b8ff" points="126.86,-86.89 126.75,-76.29 120.23,-84.65 126.86,-86.89"/>
</a>
</g>
</g>
<!-- Node7&#45;&gt;Node4 -->
<g id="edge10_Node000007_Node000004" class="edge">
<title>Node7&#45;&gt;Node4</title>
<g id="a_edge10_Node000007_Node000004"><a xlink:title=" ">
<path fill="none" stroke="#63b8ff" d="M73.9,-110.06C40.17,-100.13 -1.06,-81.95 16.27,-55.25 29.66,-34.61 55.08,-23.43 76.93,-17.42"/>
<polygon fill="#63b8ff" stroke="#63b8ff" points="77.6,-20.86 86.48,-15.09 75.94,-14.06 77.6,-20.86"/>
</a>
</g>
</g>
<!-- Node8 -->
<g id="Node000008" class="node">
<title>Node8</title>
<g id="a_Node000008"><a xlink:title=" ">
<polygon fill="#e0e0e0" stroke="#999999" points="207.14,-74.5 169.39,-74.5 169.39,-55.25 207.14,-55.25 207.14,-74.5"/>
<text text-anchor="middle" x="188.27" y="-61" font-family="Helvetica,sans-Serif" font-size="10.00">array</text>
</a>
</g>
</g>
<!-- Node7&#45;&gt;Node8 -->
<g id="edge7_Node000007_Node000008" class="edge">
<title>Node7&#45;&gt;Node8</title>
<g id="a_edge7_Node000007_Node000008"><a xlink:title=" ">
<path fill="none" stroke="#63b8ff" d="M125.16,-110.09C136.3,-102.29 152.64,-90.84 165.91,-81.54"/>
<polygon fill="#63b8ff" stroke="#63b8ff" points="167.89,-84.43 174.07,-75.82 163.87,-78.69 167.89,-84.43"/>
</a>
</g>
</g>
<!-- Node9 -->
<g id="Node000009" class="node">
<title>Node9</title>
<g id="a_Node000009"><a xlink:title=" ">
<polygon fill="#e0e0e0" stroke="#999999" points="91.02,-74.5 25.52,-74.5 25.52,-55.25 91.02,-55.25 91.02,-74.5"/>
<text text-anchor="middle" x="58.27" y="-61" font-family="Helvetica,sans-Serif" font-size="10.00">string_view</text>
</a>
</g>
</g>
<!-- Node7&#45;&gt;Node9 -->
<g id="edge8_Node000007_Node000009" class="edge">
<title>Node7&#45;&gt;Node9</title>
<g id="a_edge8_Node000007_Node000009"><a xlink:title=" ">
<path fill="none" stroke="#63b8ff" d="M103.35,-110.33C95.81,-102.9 84.8,-92.04 75.54,-82.91"/>
<polygon fill="#63b8ff" stroke="#63b8ff" points="78.03,-80.45 68.46,-75.92 73.12,-85.44 78.03,-80.45"/>
</a>
</g>
</g>
<!-- Node10&#45;&gt;Node2 -->
<g id="edge12_Node000010_Node000002" class="edge">
<title>Node10&#45;&gt;Node2</title>
<g id="a_edge12_Node000010_Node000002"><a xlink:title=" ">
<path fill="none" stroke="#63b8ff" d="M308.98,-110.04C272.81,-101.95 218.56,-89.49 163.26,-75.19"/>
<polygon fill="#63b8ff" stroke="#63b8ff" points="164.21,-71.83 153.65,-72.69 162.45,-78.6 164.21,-71.83"/>
</a>
</g>
</g>
<!-- Node10&#45;&gt;Node3 -->
<g id="edge14_Node000010_Node000003" class="edge">
<title>Node10&#45;&gt;Node3</title>
<g id="a_edge14_Node000010_Node000003"><a xlink:title=" ">
<path fill="none" stroke="#63b8ff" d="M398.07,-118.44C475.7,-116.36 624.45,-107.97 663.27,-74.5 675.74,-63.75 680.21,-45.21 681.73,-30.87"/>
<polygon fill="#63b8ff" stroke="#63b8ff" points="685.21,-31.35 682.34,-21.15 678.22,-30.92 685.21,-31.35"/>
</a>
</g>
</g>
<!-- Node10&#45;&gt;Node4 -->
<g id="edge15_Node000010_Node000004" class="edge">
<title>Node10&#45;&gt;Node4</title>
<g id="a_edge15_Node000010_Node000004"><a xlink:title=" ">
<path fill="none" stroke="#63b8ff" d="M330.32,-110.09C310.84,-101.21 280.39,-87.18 254.27,-74.5 237.24,-66.23 233.36,-63.39 216.27,-55.25 193.53,-44.42 167.55,-32.85 147.77,-24.21"/>
<polygon fill="#63b8ff" stroke="#63b8ff" points="149.43,-21.11 138.86,-20.33 146.64,-27.53 149.43,-21.11"/>
</a>
</g>
</g>
<!-- Node10&#45;&gt;Node6 -->
<g id="edge26_Node000010_Node000006" class="edge">
<title>Node10&#45;&gt;Node6</title>
<g id="a_edge26_Node000010_Node000006"><a xlink:title=" ">
<path fill="none" stroke="#63b8ff" d="M364.84,-110.15C377.93,-101.75 397.34,-88.44 412.27,-74.5 427.38,-60.4 442.19,-42.04 452.3,-28.63"/>
<polygon fill="#63b8ff" stroke="#63b8ff" points="455.03,-30.84 458.14,-20.71 449.39,-26.68 455.03,-30.84"/>
</a>
</g>
</g>
<!-- Node10&#45;&gt;Node8 -->
<g id="edge16_Node000010_Node000008" class="edge">
<title>Node10&#45;&gt;Node8</title>
<g id="a_edge16_Node000010_Node000008"><a xlink:title=" ">
<path fill="none" stroke="#63b8ff" d="M322.79,-110.09C293.65,-100.51 247.79,-85.44 217.87,-75.61"/>
<polygon fill="#63b8ff" stroke="#63b8ff" points="219.28,-72.39 208.69,-72.59 217.1,-79.04 219.28,-72.39"/>
</a>
</g>
</g>
<!-- Node11 -->
<g id="Node000011" class="node">
<title>Node11</title>
<g id="a_Node000011"><a xlink:title=" ">
<polygon fill="#e0e0e0" stroke="#999999" points="504.89,-74.5 459.64,-74.5 459.64,-55.25 504.89,-55.25 504.89,-74.5"/>
<text text-anchor="middle" x="482.27" y="-61" font-family="Helvetica,sans-Serif" font-size="10.00">variant</text>
</a>
</g>
</g>
<!-- Node10&#45;&gt;Node11 -->
<g id="edge13_Node000010_Node000011" class="edge">
<title>Node10&#45;&gt;Node11</title>
<g id="a_edge13_Node000010_Node000011"><a xlink:title=" ">
<path fill="none" stroke="#63b8ff" d="M372.66,-110.09C393.71,-101.6 425.47,-88.79 449.39,-79.14"/>
<polygon fill="#63b8ff" stroke="#63b8ff" points="450.4,-82.51 458.36,-75.52 447.78,-76.01 450.4,-82.51"/>
</a>
</g>
</g>
<!-- Node12 -->
<g id="Node000012" class="node">
<title>Node12</title>
<g id="a_Node000012"><a xlink:href="../../dc/dd5/Closure_8hpp.html" target="_top" xlink:title="Subtype of the value type, handling closures.">
<polygon fill="white" stroke="#666666" points="654.02,-74.5 522.52,-74.5 522.52,-55.25 654.02,-55.25 654.02,-74.5"/>
<text text-anchor="middle" x="588.27" y="-61" font-family="Helvetica,sans-Serif" font-size="10.00">Ark/VM/Value/Closure.hpp</text>
</a>
</g>
</g>
<!-- Node10&#45;&gt;Node12 -->
<g id="edge17_Node000010_Node000012" class="edge">
<title>Node10&#45;&gt;Node12</title>
<g id="a_edge17_Node000010_Node000012"><a xlink:title=" ">
<path fill="none" stroke="#63b8ff" d="M390.91,-110.03C431.22,-101.01 493.11,-87.17 536.82,-77.39"/>
<polygon fill="#63b8ff" stroke="#63b8ff" points="537.32,-80.86 546.32,-75.26 535.79,-74.03 537.32,-80.86"/>
</a>
</g>
</g>
<!-- Node15 -->
<g id="Node000015" class="node">
<title>Node15</title>
<g id="a_Node000015"><a xlink:href="../../dc/d3d/UserType_8hpp.html" target="_top" xlink:title="Subtype of the value, capable of handling any C++ type.">
<polygon fill="white" stroke="#666666" points="403.14,-74.5 263.39,-74.5 263.39,-55.25 403.14,-55.25 403.14,-74.5"/>
<text text-anchor="middle" x="333.27" y="-61" font-family="Helvetica,sans-Serif" font-size="10.00">Ark/VM/Value/UserType.hpp</text>
</a>
</g>
</g>
<!-- Node10&#45;&gt;Node15 -->
<g id="edge22_Node000010_Node000015" class="edge">
<title>Node10&#45;&gt;Node15</title>
<g id="a_edge22_Node000010_Node000015"><a xlink:title=" ">
<path fill="none" stroke="#63b8ff" d="M347.46,-110.33C345.33,-103.67 342.32,-94.24 339.62,-85.78"/>
<polygon fill="#63b8ff" stroke="#63b8ff" points="342.97,-84.76 336.6,-76.3 336.3,-86.89 342.97,-84.76"/>
</a>
</g>
</g>
<!-- Node12&#45;&gt;Node3 -->
<g id="edge20_Node000012_Node000003" class="edge">
<title>Node12&#45;&gt;Node3</title>
<g id="a_edge20_Node000012_Node000003"><a xlink:title=" ">
<path fill="none" stroke="#63b8ff" d="M604.21,-54.84C618.53,-46.73 639.8,-34.68 656.52,-25.21"/>
<polygon fill="#63b8ff" stroke="#63b8ff" points="657.95,-28.42 664.93,-20.45 654.5,-22.33 657.95,-28.42"/>
</a>
</g>
</g>
<!-- Node12&#45;&gt;Node6 -->
<g id="edge21_Node000012_Node000006" class="edge">
<title>Node12&#45;&gt;Node6</title>
<g id="a_edge21_Node000012_Node000006"><a xlink:title=" ">
<path fill="none" stroke="#63b8ff" d="M567.4,-54.84C547.97,-46.43 518.73,-33.77 496.51,-24.15"/>
<polygon fill="#63b8ff" stroke="#63b8ff" points="498.19,-21.06 487.62,-20.3 495.41,-27.49 498.19,-21.06"/>
</a>
</g>
</g>
<!-- Node13 -->
<g id="Node000013" class="node">
<title>Node13</title>
<g id="a_Node000013"><a xlink:title=" ">
<polygon fill="#e0e0e0" stroke="#999999" points="613.89,-19.25 562.64,-19.25 562.64,0 613.89,0 613.89,-19.25"/>
<text text-anchor="middle" x="588.27" y="-5.75" font-family="Helvetica,sans-Serif" font-size="10.00">memory</text>
</a>
</g>
</g>
<!-- Node12&#45;&gt;Node13 -->
<g id="edge18_Node000012_Node000013" class="edge">
<title>Node12&#45;&gt;Node13</title>
<g id="a_edge18_Node000012_Node000013"><a xlink:title=" ">
<path fill="none" stroke="#63b8ff" d="M588.27,-55.08C588.27,-48.57 588.27,-39.42 588.27,-31.12"/>
<polygon fill="#63b8ff" stroke="#63b8ff" points="591.77,-31.12 588.27,-21.12 584.77,-31.12 591.77,-31.12"/>
</a>
</g>
</g>
<!-- Node14 -->
<g id="Node000014" class="node">
<title>Node14</title>
<g id="a_Node000014"><a xlink:title=" ">
<polygon fill="#e0e0e0" stroke="#999999" points="364.02,-19.25 310.52,-19.25 310.52,0 364.02,0 364.02,-19.25"/>
<text text-anchor="middle" x="337.27" y="-5.75" font-family="Helvetica,sans-Serif" font-size="10.00">iostream</text>
</a>
</g>
</g>
<!-- Node12&#45;&gt;Node14 -->
<g id="edge19_Node000012_Node000014" class="edge">
<title>Node12&#45;&gt;Node14</title>
<g id="a_edge19_Node000012_Node000014"><a xlink:title=" ">
<path fill="none" stroke="#63b8ff" d="M545.4,-54.78C497.75,-44.67 421.47,-28.49 375.69,-18.78"/>
<polygon fill="#63b8ff" stroke="#63b8ff" points="376.45,-15.36 365.94,-16.71 375,-22.21 376.45,-15.36"/>
</a>
</g>
</g>
<!-- Node15&#45;&gt;Node4 -->
<g id="edge24_Node000015_Node000004" class="edge">
<title>Node15&#45;&gt;Node4</title>
<g id="a_edge24_Node000015_Node000004"><a xlink:title=" ">
<path fill="none" stroke="#63b8ff" d="M296.46,-54.84C257.3,-45.23 195.61,-30.09 155.54,-20.26"/>
<polygon fill="#63b8ff" stroke="#63b8ff" points="156.61,-16.92 146.07,-17.94 154.94,-23.72 156.61,-16.92"/>
</a>
</g>
</g>
<!-- Node15&#45;&gt;Node6 -->
<g id="edge25_Node000015_Node000006" class="edge">
<title>Node15&#45;&gt;Node6</title>
<g id="a_edge25_Node000015_Node000006"><a xlink:title=" ">
<path fill="none" stroke="#63b8ff" d="M355.66,-54.84C376.71,-46.35 408.47,-33.54 432.39,-23.89"/>
<polygon fill="#63b8ff" stroke="#63b8ff" points="433.4,-27.26 441.36,-20.27 430.78,-20.76 433.4,-27.26"/>
</a>
</g>
</g>
<!-- Node15&#45;&gt;Node14 -->
<g id="edge23_Node000015_Node000014" class="edge">
<title>Node15&#45;&gt;Node14</title>
<g id="a_edge23_Node000015_Node000014"><a xlink:title=" ">
<path fill="none" stroke="#63b8ff" d="M333.93,-55.08C334.42,-48.49 335.12,-39.21 335.75,-30.82"/>
<polygon fill="#63b8ff" stroke="#63b8ff" points="339.22,-31.35 336.48,-21.12 332.24,-30.83 339.22,-31.35"/>
</a>
</g>
</g>
</g>
</svg>

<g id="navigator" transform="translate(0 0)" fill="#404254">
  <rect fill="#f2f5e9" fill-opacity="0.5" stroke="#606060" stroke-width=".5" x="0" y="0" width="60" height="60"/>
  <use id="zoomplus" xlink:href="#zoomPlus" x="17" y="9" onmousedown="handleZoom(evt,'in')"/>
  <use id="zoomminus" xlink:href="#zoomMin" x="42" y="9" onmousedown="handleZoom(evt,'out')"/>
  <use id="reset" xlink:href="#resetDef" x="30" y="36" onmousedown="handleReset()"/>
   <use id="arrowup" xlink:href="#arrowUp" x="0" y="0" onmousedown="handlePan(0,-1)"/>
  <use id="arrowright" xlink:href="#arrowRight" x="0" y="0" onmousedown="handlePan(1,0)"/>
  <use id="arrowdown" xlink:href="#arrowDown" x="0" y="0" onmousedown="handlePan(0,1)"/>
  <use id="arrowleft" xlink:href="#arrowLeft" x="0" y="0" onmousedown="handlePan(-1,0)"/>
</g>
<svg viewBox="0 0 15 15" width="100%" height="30px" preserveAspectRatio="xMaxYMin meet">
 <g id="arrow_out" transform="scale(0.3 0.3)">
  <a xlink:href="BytecodeReader_8hpp__incl_org.svg" target="_base">
   <rect id="button" ry="5" rx="5" y="6" x="6" height="38" width="38"
        fill="#f2f5e9" fill-opacity="0.5" stroke="#606060" stroke-width="1.0"/>
   <path id="arrow"
     d="M 11.500037,31.436501 C 11.940474,20.09759 22.043105,11.32322 32.158766,21.979434 L 37.068811,17.246167 C 37.068811,17.246167 37.088388,32 37.088388,32 L 22.160133,31.978069 C 22.160133,31.978069 26.997745,27.140456 26.997745,27.140456 C 18.528582,18.264221 13.291696,25.230495 11.500037,31.436501 z"
     style="fill:#404040;"/>
  </a>
 </g>
</svg>

<style type='text/css'>
<![CDATA[
[data-mouse-over-selected='false'] { opacity: 0.7; }
[data-mouse-over-selected='true']  { opacity: 1.0; }
]]>
</style>
<script type="application/ecmascript"><![CDATA[
document.addEventListener('DOMContentLoaded', (event) => {
  highlightEdges();
  highlightAdjacentNodes();
});
]]></script>
</svg>
