<?xml version="1.0" encoding="UTF-8" standalone="no"?>
<!DOCTYPE svg PUBLIC "-//W3C//DTD SVG 1.1//EN"
 "http://www.w3.org/Graphics/SVG/1.1/DTD/svg11.dtd">
<!-- Generated by graphviz version 7.1.0 (20230121.1956)
 -->
<!-- Title: /Users/fola/Documents/ArkScript/Ark/include/Ark/VM/Plugin.hpp Pages: 1 -->
<svg width="328pt" height="104pt"
 viewBox="0.00 0.00 327.50 104.00" xmlns="http://www.w3.org/2000/svg" xmlns:xlink="http://www.w3.org/1999/xlink">
<g id="graph0" class="graph" transform="scale(1 1) rotate(0) translate(4 100)">
<title>/Users/fola/Documents/ArkScript/Ark/include/Ark/VM/Plugin.hpp</title>
<!-- Node1 -->
<g id="node1" class="node">
<title>Node1</title>
<g id="a_node1"><a xlink:title="Loads .dll/.so/.dynlib files.">
<polygon fill="#999999" stroke="#666666" points="226,-96 108,-96 108,-55 226,-55 226,-96"/>
<text text-anchor="start" x="116" y="-84" font-family="Helvetica,sans-Serif" font-size="10.00">/Users/fola/Documents</text>
<text text-anchor="start" x="116" y="-73" font-family="Helvetica,sans-Serif" font-size="10.00">/ArkScript/Ark/include</text>
<text text-anchor="middle" x="167" y="-62" font-family="Helvetica,sans-Serif" font-size="10.00">/Ark/VM/Plugin.hpp</text>
</a>
</g>
</g>
<!-- Node2 -->
<g id="node2" class="node">
<title>Node2</title>
<g id="a_node2"><a xlink:href="../../d5/d40/Platform_8hpp.html" target="_top" xlink:title="ArkScript configuration macros.">
<polygon fill="white" stroke="#666666" points="90,-19 0,-19 0,0 90,0 90,-19"/>
<text text-anchor="middle" x="45" y="-7" font-family="Helvetica,sans-Serif" font-size="10.00">Ark/Platform.hpp</text>
</a>
</g>
</g>
<!-- Node1&#45;&gt;Node2 -->
<g id="edge1" class="edge">
<title>Node1&#45;&gt;Node2</title>
<path fill="none" stroke="#63b8ff" d="M129.07,-54.6C110.42,-44.82 88.39,-33.26 71.56,-24.43"/>
<polygon fill="#63b8ff" stroke="#63b8ff" points="73.66,-21.58 63.17,-20.03 70.4,-27.78 73.66,-21.58"/>
</g>
<!-- Node3 -->
<g id="node3" class="node">
<title>Node3</title>
<g id="a_node3"><a xlink:title=" ">
<polygon fill="#e0e0e0" stroke="#999999" points="149.5,-19 108.5,-19 108.5,0 149.5,0 149.5,-19"/>
<text text-anchor="middle" x="129" y="-7" font-family="Helvetica,sans-Serif" font-size="10.00">string</text>
</a>
</g>
</g>
<!-- Node1&#45;&gt;Node3 -->
<g id="edge2" class="edge">
<title>Node1&#45;&gt;Node3</title>
<path fill="none" stroke="#63b8ff" d="M155.18,-54.6C150.33,-46.43 144.75,-37.02 139.98,-29"/>
<polygon fill="#63b8ff" stroke="#63b8ff" points="143.03,-27.28 134.92,-20.46 137.01,-30.85 143.03,-27.28"/>
</g>
<!-- Node4 -->
<g id="node4" class="node">
<title>Node4</title>
<g id="a_node4"><a xlink:title=" ">
<polygon fill="#e0e0e0" stroke="#999999" points="242,-19 168,-19 168,0 242,0 242,-19"/>
<text text-anchor="middle" x="205" y="-7" font-family="Helvetica,sans-Serif" font-size="10.00">system_error</text>
</a>
</g>
</g>
<!-- Node1&#45;&gt;Node4 -->
<g id="edge3" class="edge">
<title>Node1&#45;&gt;Node4</title>
<path fill="none" stroke="#63b8ff" d="M178.82,-54.6C183.67,-46.43 189.25,-37.02 194.02,-29"/>
<polygon fill="#63b8ff" stroke="#63b8ff" points="196.99,-30.85 199.08,-20.46 190.97,-27.28 196.99,-30.85"/>
</g>
<!-- Node5 -->
<g id="node5" class="node">
<title>Node5</title>
<g id="a_node5"><a xlink:title=" ">
<polygon fill="#e0e0e0" stroke="#999999" points="319.5,-19 260.5,-19 260.5,0 319.5,0 319.5,-19"/>
<text text-anchor="middle" x="290" y="-7" font-family="Helvetica,sans-Serif" font-size="10.00">exception</text>
</a>
</g>
</g>
<!-- Node1&#45;&gt;Node5 -->
<g id="edge4" class="edge">
<title>Node1&#45;&gt;Node5</title>
<path fill="none" stroke="#63b8ff" d="M205.24,-54.6C224.05,-44.82 246.26,-33.26 263.22,-24.43"/>
<polygon fill="#63b8ff" stroke="#63b8ff" points="264.43,-27.75 271.69,-20.03 261.2,-21.54 264.43,-27.75"/>
</g>
</g>
</svg>
