<?xml version="1.0" encoding="UTF-8" standalone="no"?>
<!DOCTYPE svg PUBLIC "-//W3C//DTD SVG 1.1//EN"
 "http://www.w3.org/Graphics/SVG/1.1/DTD/svg11.dtd">
<!-- Generated by graphviz version 7.1.0 (20230121.1956)
 -->
<!-- Title: Ark::internal::ExecutionContext Pages: 1 -->
<svg width="1307pt" height="214pt"
 viewBox="0.00 0.00 1307.00 214.00" xmlns="http://www.w3.org/2000/svg" xmlns:xlink="http://www.w3.org/1999/xlink">
<g id="graph0" class="graph" transform="scale(1 1) rotate(0) translate(4 210)">
<title>Ark::internal::ExecutionContext</title>
<!-- Node1 -->
<g id="node1" class="node">
<title>Node1</title>
<g id="a_node1"><a xlink:title=" ">
<polygon fill="#999999" stroke="#666666" points="1299,-151.5 1180,-151.5 1180,-121.5 1299,-121.5 1299,-151.5"/>
<text text-anchor="start" x="1188" y="-139.5" font-family="Helvetica,sans-Serif" font-size="10.00">Ark::internal::Execution</text>
<text text-anchor="middle" x="1239.5" y="-128.5" font-family="Helvetica,sans-Serif" font-size="10.00">Context</text>
</a>
</g>
</g>
<!-- Node2 -->
<g id="node2" class="node">
<title>Node2</title>
<g id="a_node2"><a xlink:title=" ">
<polygon fill="white" stroke="#666666" points="484,-198.5 370,-198.5 370,-168.5 484,-168.5 484,-198.5"/>
<text text-anchor="start" x="378" y="-186.5" font-family="Helvetica,sans-Serif" font-size="10.00">std::array&lt; Ark::Value,</text>
<text text-anchor="middle" x="427" y="-175.5" font-family="Helvetica,sans-Serif" font-size="10.00"> VMStackSize &gt;</text>
</a>
</g>
</g>
<!-- Node2&#45;&gt;Node1 -->
<g id="edge1" class="edge">
<title>Node2&#45;&gt;Node1</title>
<path fill="none" stroke="#9a32cd" stroke-dasharray="5,2" d="M495.93,-183.5C548.28,-183.5 622.47,-183.5 687.5,-183.5 687.5,-183.5 687.5,-183.5 1057.5,-183.5 1108.8,-183.5 1165.72,-165.6 1201.79,-151.89"/>
<polygon fill="#9a32cd" stroke="#9a32cd" points="495.96,-180 485.96,-183.5 495.96,-187 495.96,-180"/>
<text text-anchor="middle" x="855" y="-186.5" font-family="Helvetica,sans-Serif" font-size="10.00"> stack</text>
</g>
<!-- Node3 -->
<g id="node3" class="node">
<title>Node3</title>
<g id="a_node3"><a xlink:href="../../d3/d90/classArk_1_1Value.html" target="_top" xlink:title=" ">
<polygon fill="white" stroke="#666666" points="182.5,-206 120.5,-206 120.5,-187 182.5,-187 182.5,-206"/>
<text text-anchor="middle" x="151.5" y="-194" font-family="Helvetica,sans-Serif" font-size="10.00">Ark::Value</text>
</a>
</g>
</g>
<!-- Node3&#45;&gt;Node2 -->
<g id="edge2" class="edge">
<title>Node3&#45;&gt;Node2</title>
<path fill="none" stroke="#9a32cd" stroke-dasharray="5,2" d="M194.06,-194.52C240.95,-192.3 317.45,-188.66 369.68,-186.18"/>
<polygon fill="#9a32cd" stroke="#9a32cd" points="194.15,-191.02 184.33,-194.99 194.48,-198.01 194.15,-191.02"/>
<text text-anchor="middle" x="279" y="-195.5" font-family="Helvetica,sans-Serif" font-size="10.00"> elements</text>
</g>
<!-- Node4 -->
<g id="node4" class="node">
<title>Node4</title>
<g id="a_node4"><a xlink:title=" ">
<polygon fill="white" stroke="#666666" points="192.5,-160 110.5,-160 110.5,-141 192.5,-141 192.5,-160"/>
<text text-anchor="middle" x="151.5" y="-148" font-family="Helvetica,sans-Serif" font-size="10.00">std::array&lt; T &gt;</text>
</a>
</g>
</g>
<!-- Node4&#45;&gt;Node2 -->
<g id="edge3" class="edge">
<title>Node4&#45;&gt;Node2</title>
<path fill="none" stroke="orange" stroke-dasharray="5,2" d="M203.73,-156.06C242.53,-160.34 297.15,-166.52 345,-172.5 353.03,-173.5 361.49,-174.61 369.81,-175.71"/>
<polygon fill="orange" stroke="orange" points="204.54,-152.62 194.22,-155.01 203.78,-159.58 204.54,-152.62"/>
<text text-anchor="middle" x="279" y="-175.5" font-family="Helvetica,sans-Serif" font-size="10.00"> &lt; Ark::Value, VMStackSize &gt;</text>
</g>
<!-- Node5 -->
<g id="node5" class="node">
<title>Node5</title>
<g id="a_node5"><a xlink:title=" ">
<polygon fill="white" stroke="#666666" points="29,-100 0,-100 0,-81 29,-81 29,-100"/>
<text text-anchor="middle" x="14.5" y="-88" font-family="Helvetica,sans-Serif" font-size="10.00">T</text>
</a>
</g>
</g>
<!-- Node5&#45;&gt;Node4 -->
<g id="edge4" class="edge">
<title>Node5&#45;&gt;Node4</title>
<path fill="none" stroke="#9a32cd" stroke-dasharray="5,2" d="M39.41,-101.99C41.97,-103.19 44.53,-104.38 47,-105.5 74.28,-117.92 105.92,-131.57 126.97,-140.54"/>
<polygon fill="#9a32cd" stroke="#9a32cd" points="41.15,-98.94 30.62,-97.82 38.16,-105.27 41.15,-98.94"/>
<text text-anchor="middle" x="68.5" y="-126.5" font-family="Helvetica,sans-Serif" font-size="10.00"> elements</text>
</g>
<!-- Node7 -->
<g id="node7" class="node">
<title>Node7</title>
<g id="a_node7"><a xlink:title=" ">
<polygon fill="white" stroke="#666666" points="195,-100 108,-100 108,-81 195,-81 195,-100"/>
<text text-anchor="middle" x="151.5" y="-88" font-family="Helvetica,sans-Serif" font-size="10.00">std::vector&lt; T &gt;</text>
</a>
</g>
</g>
<!-- Node5&#45;&gt;Node7 -->
<g id="edge7" class="edge">
<title>Node5&#45;&gt;Node7</title>
<path fill="none" stroke="#9a32cd" stroke-dasharray="5,2" d="M40.89,-90.5C59.68,-90.5 85.73,-90.5 107.72,-90.5"/>
<polygon fill="#9a32cd" stroke="#9a32cd" points="40.95,-87 30.95,-90.5 40.95,-94 40.95,-87"/>
<text text-anchor="middle" x="68.5" y="-93.5" font-family="Helvetica,sans-Serif" font-size="10.00"> elements</text>
</g>
<!-- Node12 -->
<g id="node12" class="node">
<title>Node12</title>
<g id="a_node12"><a xlink:title=" ">
<polygon fill="white" stroke="#666666" points="332,-19 226,-19 226,0 332,0 332,-19"/>
<text text-anchor="middle" x="279" y="-7" font-family="Helvetica,sans-Serif" font-size="10.00">std::shared_ptr&lt; T &gt;</text>
</a>
</g>
</g>
<!-- Node5&#45;&gt;Node12 -->
<g id="edge14" class="edge">
<title>Node5&#45;&gt;Node12</title>
<path fill="none" stroke="#9a32cd" stroke-dasharray="5,2" d="M39.7,-78.48C42.14,-77.42 44.61,-76.4 47,-75.5 111.18,-51.24 188.26,-30.91 235.16,-19.47"/>
<polygon fill="#9a32cd" stroke="#9a32cd" points="38.36,-75.25 30.77,-82.63 41.31,-81.59 38.36,-75.25"/>
<text text-anchor="middle" x="68.5" y="-78.5" font-family="Helvetica,sans-Serif" font-size="10.00"> ptr</text>
</g>
<!-- Node6 -->
<g id="node6" class="node">
<title>Node6</title>
<g id="a_node6"><a xlink:title=" ">
<polygon fill="white" stroke="#666666" points="619,-142 509,-142 509,-123 619,-123 619,-142"/>
<text text-anchor="middle" x="564" y="-130" font-family="Helvetica,sans-Serif" font-size="10.00">std::vector&lt; uint8_t &gt;</text>
</a>
</g>
</g>
<!-- Node6&#45;&gt;Node1 -->
<g id="edge5" class="edge">
<title>Node6&#45;&gt;Node1</title>
<path fill="none" stroke="#9a32cd" stroke-dasharray="5,2" d="M630.62,-134.48C669.53,-135.48 719.82,-136.5 764.5,-136.5 764.5,-136.5 764.5,-136.5 1057.5,-136.5 1098.35,-136.5 1144.39,-136.5 1179.81,-136.5"/>
<polygon fill="#9a32cd" stroke="#9a32cd" points="630.79,-130.98 620.7,-134.21 630.6,-137.98 630.79,-130.98"/>
<text text-anchor="middle" x="855" y="-139.5" font-family="Helvetica,sans-Serif" font-size="10.00"> scope_count_to_delete</text>
</g>
<!-- Node7&#45;&gt;Node6 -->
<g id="edge6" class="edge">
<title>Node7&#45;&gt;Node6</title>
<path fill="none" stroke="orange" stroke-dasharray="5,2" d="M202.74,-102.72C206.2,-103.38 209.65,-103.98 213,-104.5 316.91,-120.59 439.7,-127.71 508.75,-130.64"/>
<polygon fill="orange" stroke="orange" points="203.7,-99.34 193.2,-100.76 202.29,-106.2 203.7,-99.34"/>
<text text-anchor="middle" x="279" y="-122.5" font-family="Helvetica,sans-Serif" font-size="10.00"> &lt; uint8_t &gt;</text>
</g>
<!-- Node8 -->
<g id="node8" class="node">
<title>Node8</title>
<g id="a_node8"><a xlink:title=" ">
<polygon fill="white" stroke="#666666" points="1115,-100 998,-100 998,-81 1115,-81 1115,-100"/>
<text text-anchor="middle" x="1056.5" y="-88" font-family="Helvetica,sans-Serif" font-size="10.00">std::vector&lt; Scope_t &gt;</text>
</a>
</g>
</g>
<!-- Node7&#45;&gt;Node8 -->
<g id="edge15" class="edge">
<title>Node7&#45;&gt;Node8</title>
<path fill="none" stroke="orange" stroke-dasharray="5,2" d="M206.39,-90.5C261.55,-90.5 349.75,-90.5 426,-90.5 426,-90.5 426,-90.5 856,-90.5 903.8,-90.5 958.04,-90.5 997.88,-90.5"/>
<polygon fill="orange" stroke="orange" points="206.65,-87 196.65,-90.5 206.65,-94 206.65,-87"/>
<text text-anchor="middle" x="688.5" y="-93.5" font-family="Helvetica,sans-Serif" font-size="10.00"> &lt; Scope_t &gt;</text>
</g>
<!-- Node11 -->
<g id="node11" class="node">
<title>Node11</title>
<g id="a_node11"><a xlink:title=" ">
<polygon fill="white" stroke="#666666" points="491,-62.5 363,-62.5 363,-32.5 491,-32.5 491,-62.5"/>
<text text-anchor="start" x="371" y="-50.5" font-family="Helvetica,sans-Serif" font-size="10.00">std::vector&lt; std::pair</text>
<text text-anchor="middle" x="427" y="-39.5" font-family="Helvetica,sans-Serif" font-size="10.00">&lt; uint16_t, Ark::Value &gt; &gt;</text>
</a>
</g>
</g>
<!-- Node7&#45;&gt;Node11 -->
<g id="edge12" class="edge">
<title>Node7&#45;&gt;Node11</title>
<path fill="none" stroke="orange" stroke-dasharray="5,2" d="M173.82,-74.2C184.88,-66.71 198.99,-58.6 213,-54.5 261.82,-40.21 319.65,-39.25 362.72,-41.42"/>
<polygon fill="orange" stroke="orange" points="171.95,-71.23 165.84,-79.89 176.01,-76.93 171.95,-71.23"/>
<text text-anchor="start" x="237.5" y="-68.5" font-family="Helvetica,sans-Serif" font-size="10.00"> &lt; std::pair&lt; uint16</text>
<text text-anchor="middle" x="279" y="-57.5" font-family="Helvetica,sans-Serif" font-size="10.00">_t, Ark::Value &gt; &gt;</text>
</g>
<!-- Node8&#45;&gt;Node1 -->
<g id="edge8" class="edge">
<title>Node8&#45;&gt;Node1</title>
<path fill="none" stroke="#9a32cd" stroke-dasharray="5,2" d="M1124.29,-102.7C1136.88,-105.35 1149.89,-108.32 1162,-111.5 1172.54,-114.27 1183.76,-117.67 1194.27,-121.07"/>
<polygon fill="#9a32cd" stroke="#9a32cd" points="1125.35,-99.35 1114.85,-100.77 1123.94,-106.21 1125.35,-99.35"/>
<text text-anchor="middle" x="1147.5" y="-114.5" font-family="Helvetica,sans-Serif" font-size="10.00"> locals</text>
</g>
<!-- Node9 -->
<g id="node9" class="node">
<title>Node9</title>
<g id="a_node9"><a xlink:title=" ">
<polygon fill="white" stroke="#666666" points="919,-54 791,-54 791,-35 919,-35 919,-54"/>
<text text-anchor="middle" x="855" y="-42" font-family="Helvetica,sans-Serif" font-size="10.00">std::shared_ptr&lt; Scope &gt;</text>
</a>
</g>
</g>
<!-- Node9&#45;&gt;Node8 -->
<g id="edge9" class="edge">
<title>Node9&#45;&gt;Node8</title>
<path fill="none" stroke="#9a32cd" stroke-dasharray="5,2" d="M930.64,-55.25C947,-58.13 964.16,-61.56 980,-65.5 996.48,-69.6 1014.55,-75.53 1028.88,-80.59"/>
<polygon fill="#9a32cd" stroke="#9a32cd" points="931.4,-51.83 920.96,-53.6 930.23,-58.73 931.4,-51.83"/>
<text text-anchor="middle" x="958.5" y="-68.5" font-family="Helvetica,sans-Serif" font-size="10.00"> elements</text>
</g>
<!-- Node10 -->
<g id="node10" class="node">
<title>Node10</title>
<g id="a_node10"><a xlink:href="../../d5/d74/classArk_1_1internal_1_1Scope.html" target="_top" xlink:title="A class to handle the VM scope more efficiently.">
<polygon fill="white" stroke="#666666" points="740,-54 637,-54 637,-35 740,-35 740,-54"/>
<text text-anchor="middle" x="688.5" y="-42" font-family="Helvetica,sans-Serif" font-size="10.00">Ark::internal::Scope</text>
</a>
</g>
</g>
<!-- Node10&#45;&gt;Node9 -->
<g id="edge10" class="edge">
<title>Node10&#45;&gt;Node9</title>
<path fill="none" stroke="#9a32cd" stroke-dasharray="5,2" d="M751.68,-44.5C764.44,-44.5 777.89,-44.5 790.69,-44.5"/>
<polygon fill="#9a32cd" stroke="#9a32cd" points="751.71,-41 741.71,-44.5 751.71,-48 751.71,-41"/>
<text text-anchor="middle" x="765.5" y="-47.5" font-family="Helvetica,sans-Serif" font-size="10.00"> ptr</text>
</g>
<!-- Node11&#45;&gt;Node10 -->
<g id="edge11" class="edge">
<title>Node11&#45;&gt;Node10</title>
<path fill="none" stroke="#9a32cd" stroke-dasharray="5,2" d="M502.76,-46.64C545.77,-46.14 598.67,-45.53 636.83,-45.09"/>
<polygon fill="#9a32cd" stroke="#9a32cd" points="502.95,-43.13 492.99,-46.75 503.03,-50.13 502.95,-43.13"/>
<text text-anchor="middle" x="564" y="-50.5" font-family="Helvetica,sans-Serif" font-size="10.00"> m_data</text>
</g>
<!-- Node12&#45;&gt;Node9 -->
<g id="edge13" class="edge">
<title>Node12&#45;&gt;Node9</title>
<path fill="none" stroke="orange" stroke-dasharray="5,2" d="M343.74,-9.1C432.7,-9.13 599.04,-11.36 740,-25.5 760.66,-27.57 783.25,-31.07 802.83,-34.51"/>
<polygon fill="orange" stroke="orange" points="343.74,-5.6 333.75,-9.1 343.75,-12.6 343.74,-5.6"/>
<text text-anchor="middle" x="564" y="-19.5" font-family="Helvetica,sans-Serif" font-size="10.00"> &lt; Scope &gt;</text>
</g>
</g>
</svg>
