<?xml version="1.0" encoding="UTF-8" standalone="no"?>
<!DOCTYPE svg PUBLIC "-//W3C//DTD SVG 1.1//EN"
 "http://www.w3.org/Graphics/SVG/1.1/DTD/svg11.dtd">
<!-- Generated by graphviz version 10.0.1 (20240210.2158)
 -->
<!-- Title: Ark::internal::ExecutionContext Pages: 1 -->
<!--zoomable 225 -->
<svg id="main" version="1.1" xmlns="http://www.w3.org/2000/svg" xmlns:xlink="http://www.w3.org/1999/xlink" xml:space="preserve" onload="init(evt)">
<style type="text/css"><![CDATA[
.edge:hover path { stroke: red; }
.edge:hover polygon { stroke: red; fill: red; }
]]></style>
<script type="text/javascript"><![CDATA[
var edges = document.getElementsByTagName('g');
if (edges && edges.length) {
  for (var i=0;i<edges.length;i++) {
    if (edges[i].id.substr(0,4)=='edge') {
      edges[i].setAttribute('class','edge');
    }
  }
}
]]></script>
        <defs>
                <circle id="rim" cx="0" cy="0" r="7"/>
                <circle id="rim2" cx="0" cy="0" r="3.5"/>
                <g id="zoomPlus">
                        <use xlink:href="#rim" fill="#404040">
                                <set attributeName="fill" to="#808080" begin="zoomplus.mouseover" end="zoomplus.mouseout"/>
                        </use>
                        <path d="M-4,0h8M0,-4v8" fill="none" stroke="white" stroke-width="1.5" pointer-events="none"/>
                </g>
                <g id="zoomMin">
                        <use xlink:href="#rim" fill="#404040">
                                <set attributeName="fill" to="#808080" begin="zoomminus.mouseover" end="zoomminus.mouseout"/>
                        </use>
                        <path d="M-4,0h8" fill="none" stroke="white" stroke-width="1.5" pointer-events="none"/>
                </g>
                <g id="dirArrow">
                        <path fill="none" stroke="white" stroke-width="1.5" d="M0,-3.0v7 M-2.5,-0.5L0,-3.0L2.5,-0.5"/>
                </g>
               <g id="resetDef">
                       <use xlink:href="#rim2" fill="#404040">
                               <set attributeName="fill" to="#808080" begin="reset.mouseover" end="reset.mouseout"/>
                       </use>
               </g>
        </defs>

<script type="text/javascript">
var viewWidth = 1437;
var viewHeight = 225;
var sectionId = 'dynsection-0';
</script>
<script xlink:href="../../svgpan.js"/>
<svg id="graph" class="graph">
<g id="viewport">
<title>Ark::internal::ExecutionContext</title>
<!-- Node1 -->
<g id="node1" class="node">
<title>Node1</title>
<g id="a_node1"><a xlink:title=" ">
<polygon fill="#999999" stroke="#666666" points="1428.8,-154.54 1310.8,-154.54 1310.8,-124.04 1428.8,-124.04 1428.8,-154.54"/>
<text text-anchor="start" x="1318.8" y="-141.04" font-family="Helvetica,sans-Serif" font-size="10.00">Ark::internal::Execution</text>
<text text-anchor="middle" x="1369.8" y="-129.79" font-family="Helvetica,sans-Serif" font-size="10.00">Context</text>
</a>
</g>
</g>
<!-- Node2 -->
<g id="node2" class="node">
<title>Node2</title>
<g id="a_node2"><a xlink:title=" ">
<polygon fill="white" stroke="#666666" points="481.93,-205.54 368.43,-205.54 368.43,-175.04 481.93,-175.04 481.93,-205.54"/>
<text text-anchor="start" x="376.43" y="-192.04" font-family="Helvetica,sans-Serif" font-size="10.00">std::array&lt; Ark::Value,</text>
<text text-anchor="middle" x="425.18" y="-180.79" font-family="Helvetica,sans-Serif" font-size="10.00"> VMStackSize &gt;</text>
</a>
</g>
</g>
<!-- Node2&#45;&gt;Node1 -->
<g id="edge1" class="edge">
<title>Node2&#45;&gt;Node1</title>
<path fill="none" stroke="#9a32cd" stroke-dasharray="5,2" d="M493.62,-190.29C545.59,-190.29 619.24,-190.29 683.8,-190.29 683.8,-190.29 683.8,-190.29 1092.3,-190.29 1171.13,-190.29 1260.54,-169.99 1315.81,-155.01"/>
<polygon fill="#9a32cd" stroke="#9a32cd" points="493.72,-186.79 483.72,-190.29 493.72,-193.79 493.72,-186.79"/>
<text text-anchor="middle" x="878.43" y="-192.04" font-family="Helvetica,sans-Serif" font-size="10.00"> stack</text>
</g>
<!-- Node3 -->
<g id="node3" class="node">
<title>Node3</title>
<g id="a_node3"><a xlink:href="../../d3/d90/classArk_1_1Value.html" target="_top" xlink:title=" ">
<polygon fill="white" stroke="#666666" points="181.3,-216.92 120.3,-216.92 120.3,-197.67 181.3,-197.67 181.3,-216.92"/>
<text text-anchor="middle" x="150.8" y="-203.42" font-family="Helvetica,sans-Serif" font-size="10.00">Ark::Value</text>
</a>
</g>
</g>
<!-- Node3&#45;&gt;Node2 -->
<g id="edge2" class="edge">
<title>Node3&#45;&gt;Node2</title>
<path fill="none" stroke="#9a32cd" stroke-dasharray="5,2" d="M193.21,-204.71C239.86,-201.79 315.96,-197.04 367.96,-193.8"/>
<polygon fill="#9a32cd" stroke="#9a32cd" points="193,-201.21 183.24,-205.33 193.44,-208.2 193,-201.21"/>
<text text-anchor="middle" x="277.68" y="-204.04" font-family="Helvetica,sans-Serif" font-size="10.00"> elements</text>
</g>
<!-- Node4 -->
<g id="node4" class="node">
<title>Node4</title>
<g id="a_node4"><a xlink:title=" ">
<polygon fill="white" stroke="#666666" points="191.43,-169.92 110.18,-169.92 110.18,-150.67 191.43,-150.67 191.43,-169.92"/>
<text text-anchor="middle" x="150.8" y="-156.42" font-family="Helvetica,sans-Serif" font-size="10.00">std::array&lt; T &gt;</text>
</a>
</g>
</g>
<!-- Node4&#45;&gt;Node2 -->
<g id="edge3" class="edge">
<title>Node4&#45;&gt;Node2</title>
<path fill="none" stroke="orange" stroke-dasharray="5,2" d="M203.26,-165.27C241.83,-169.08 295.91,-174.59 343.3,-180.04 351.31,-180.96 359.77,-181.98 368.07,-183.01"/>
<polygon fill="orange" stroke="orange" points="203.61,-161.79 193.31,-164.29 202.92,-168.75 203.61,-161.79"/>
<text text-anchor="middle" x="277.68" y="-181.04" font-family="Helvetica,sans-Serif" font-size="10.00"> &lt; Ark::Value, VMStackSize &gt;</text>
</g>
<!-- Node5 -->
<g id="node5" class="node">
<title>Node5</title>
<g id="a_node5"><a xlink:title=" ">
<polygon fill="white" stroke="#666666" points="28.8,-106.92 0,-106.92 0,-87.67 28.8,-87.67 28.8,-106.92"/>
<text text-anchor="middle" x="14.4" y="-93.42" font-family="Helvetica,sans-Serif" font-size="10.00">T</text>
</a>
</g>
</g>
<!-- Node5&#45;&gt;Node4 -->
<g id="edge4" class="edge">
<title>Node5&#45;&gt;Node4</title>
<path fill="none" stroke="#9a32cd" stroke-dasharray="5,2" d="M39.27,-108.72C41.81,-109.93 44.36,-111.14 46.8,-112.29 74.81,-125.51 107.21,-140.57 128.07,-150.24"/>
<polygon fill="#9a32cd" stroke="#9a32cd" points="41.04,-105.69 30.51,-104.54 38.03,-112.01 41.04,-105.69"/>
<text text-anchor="middle" x="68.18" y="-133.04" font-family="Helvetica,sans-Serif" font-size="10.00"> elements</text>
</g>
<!-- Node10 -->
<g id="node10" class="node">
<title>Node10</title>
<g id="a_node10"><a xlink:title=" ">
<polygon fill="white" stroke="#666666" points="194.05,-106.92 107.55,-106.92 107.55,-87.67 194.05,-87.67 194.05,-106.92"/>
<text text-anchor="middle" x="150.8" y="-93.42" font-family="Helvetica,sans-Serif" font-size="10.00">std::vector&lt; T &gt;</text>
</a>
</g>
</g>
<!-- Node5&#45;&gt;Node10 -->
<g id="edge10" class="edge">
<title>Node5&#45;&gt;Node10</title>
<path fill="none" stroke="#9a32cd" stroke-dasharray="5,2" d="M40.68,-97.29C59.39,-97.29 85.32,-97.29 107.21,-97.29"/>
<polygon fill="#9a32cd" stroke="#9a32cd" points="40.79,-93.79 30.79,-97.29 40.79,-100.79 40.79,-93.79"/>
<text text-anchor="middle" x="68.18" y="-99.04" font-family="Helvetica,sans-Serif" font-size="10.00"> elements</text>
</g>
<!-- Node11 -->
<g id="node11" class="node">
<title>Node11</title>
<g id="a_node11"><a xlink:title=" ">
<polygon fill="white" stroke="#666666" points="330.3,-21.92 225.05,-21.92 225.05,-2.67 330.3,-2.67 330.3,-21.92"/>
<text text-anchor="middle" x="277.68" y="-8.42" font-family="Helvetica,sans-Serif" font-size="10.00">std::shared_ptr&lt; T &gt;</text>
</a>
</g>
</g>
<!-- Node5&#45;&gt;Node11 -->
<g id="edge12" class="edge">
<title>Node5&#45;&gt;Node11</title>
<path fill="none" stroke="#9a32cd" stroke-dasharray="5,2" d="M39.53,-85.1C41.96,-84.02 44.42,-82.97 46.8,-82.04 111.84,-56.56 190.18,-34.56 236.57,-22.4"/>
<polygon fill="#9a32cd" stroke="#9a32cd" points="38.16,-81.88 30.62,-89.33 41.16,-88.2 38.16,-81.88"/>
<text text-anchor="middle" x="68.18" y="-84.04" font-family="Helvetica,sans-Serif" font-size="10.00"> ptr</text>
</g>
<!-- Node6 -->
<g id="node6" class="node">
<title>Node6</title>
<g id="a_node6"><a xlink:title=" ">
<polygon fill="white" stroke="#666666" points="1163.8,-103.54 1018.8,-103.54 1018.8,-73.04 1163.8,-73.04 1163.8,-103.54"/>
<text text-anchor="start" x="1026.8" y="-90.04" font-family="Helvetica,sans-Serif" font-size="10.00">std::vector&lt; std::shared</text>
<text text-anchor="middle" x="1091.3" y="-78.79" font-family="Helvetica,sans-Serif" font-size="10.00">_ptr&lt; Ark::internal::Scope &gt; &gt;</text>
</a>
</g>
</g>
<!-- Node6&#45;&gt;Node1 -->
<g id="edge5" class="edge">
<title>Node6&#45;&gt;Node1</title>
<path fill="none" stroke="#9a32cd" stroke-dasharray="5,2" d="M1174.95,-95.28C1211.37,-99.29 1254.5,-105.31 1292.8,-114.04 1303.92,-116.58 1315.71,-120.08 1326.6,-123.67"/>
<polygon fill="#9a32cd" stroke="#9a32cd" points="1175.69,-91.84 1165.38,-94.26 1174.95,-98.8 1175.69,-91.84"/>
<text text-anchor="middle" x="1237.3" y="-115.04" font-family="Helvetica,sans-Serif" font-size="10.00"> stacked_closure_scopes</text>
</g>
<!-- Node7 -->
<g id="node7" class="node">
<title>Node7</title>
<g id="a_node7"><a xlink:title=" ">
<polygon fill="white" stroke="#666666" points="930.68,-105.54 826.18,-105.54 826.18,-75.04 930.68,-75.04 930.68,-105.54"/>
<text text-anchor="start" x="834.18" y="-92.04" font-family="Helvetica,sans-Serif" font-size="10.00">std::shared_ptr&lt; Ark</text>
<text text-anchor="middle" x="878.43" y="-80.79" font-family="Helvetica,sans-Serif" font-size="10.00">::internal::Scope &gt;</text>
</a>
</g>
</g>
<!-- Node7&#45;&gt;Node6 -->
<g id="edge6" class="edge">
<title>Node7&#45;&gt;Node6</title>
<path fill="none" stroke="#9a32cd" stroke-dasharray="5,2" d="M942.46,-89.69C966.41,-89.47 993.85,-89.21 1018.55,-88.97"/>
<polygon fill="#9a32cd" stroke="#9a32cd" points="942.49,-86.19 932.52,-89.79 942.56,-93.19 942.49,-86.19"/>
<text text-anchor="middle" x="979.43" y="-92.04" font-family="Helvetica,sans-Serif" font-size="10.00"> elements</text>
</g>
<!-- Node8 -->
<g id="node8" class="node">
<title>Node8</title>
<g id="a_node8"><a xlink:href="../../d5/d74/classArk_1_1internal_1_1Scope.html" target="_top" xlink:title="A class to handle the VM scope more efficiently.">
<polygon fill="white" stroke="#666666" points="735.93,-106.92 633.68,-106.92 633.68,-87.67 735.93,-87.67 735.93,-106.92"/>
<text text-anchor="middle" x="684.8" y="-93.42" font-family="Helvetica,sans-Serif" font-size="10.00">Ark::internal::Scope</text>
</a>
</g>
</g>
<!-- Node8&#45;&gt;Node7 -->
<g id="edge7" class="edge">
<title>Node8&#45;&gt;Node7</title>
<path fill="none" stroke="#9a32cd" stroke-dasharray="5,2" d="M733.5,-84.73C741,-83.2 748.7,-81.88 756.05,-81.04 778.94,-78.43 804.34,-79.72 825.96,-82.06"/>
<polygon fill="#9a32cd" stroke="#9a32cd" points="732.84,-81.29 723.83,-86.86 734.35,-88.13 732.84,-81.29"/>
<text text-anchor="middle" x="777.43" y="-83.04" font-family="Helvetica,sans-Serif" font-size="10.00"> ptr</text>
</g>
<!-- Node12 -->
<g id="node12" class="node">
<title>Node12</title>
<g id="a_node12"><a xlink:title=" ">
<polygon fill="white" stroke="#666666" points="940.05,-154.54 816.8,-154.54 816.8,-124.04 940.05,-124.04 940.05,-154.54"/>
<text text-anchor="start" x="824.8" y="-141.04" font-family="Helvetica,sans-Serif" font-size="10.00">std::vector&lt; Ark::internal</text>
<text text-anchor="middle" x="878.43" y="-129.79" font-family="Helvetica,sans-Serif" font-size="10.00">::Scope &gt;</text>
</a>
</g>
</g>
<!-- Node8&#45;&gt;Node12 -->
<g id="edge15" class="edge">
<title>Node8&#45;&gt;Node12</title>
<path fill="none" stroke="#9a32cd" stroke-dasharray="5,2" d="M747.5,-105.35C764.24,-107.97 782.29,-111.22 798.8,-115.04 809.1,-117.42 820.01,-120.46 830.33,-123.56"/>
<polygon fill="#9a32cd" stroke="#9a32cd" points="748.07,-101.89 737.66,-103.85 747.02,-108.81 748.07,-101.89"/>
<text text-anchor="middle" x="777.43" y="-116.04" font-family="Helvetica,sans-Serif" font-size="10.00"> elements</text>
</g>
<!-- Node9 -->
<g id="node9" class="node">
<title>Node9</title>
<g id="a_node9"><a xlink:title=" ">
<polygon fill="white" stroke="#666666" points="489.05,-112.54 361.3,-112.54 361.3,-82.04 489.05,-82.04 489.05,-112.54"/>
<text text-anchor="start" x="369.3" y="-99.04" font-family="Helvetica,sans-Serif" font-size="10.00">std::vector&lt; std::pair</text>
<text text-anchor="middle" x="425.18" y="-87.79" font-family="Helvetica,sans-Serif" font-size="10.00">&lt; uint16_t, Ark::Value &gt; &gt;</text>
</a>
</g>
</g>
<!-- Node9&#45;&gt;Node8 -->
<g id="edge8" class="edge">
<title>Node9&#45;&gt;Node8</title>
<path fill="none" stroke="#9a32cd" stroke-dasharray="5,2" d="M500.95,-97.29C543.44,-97.29 595.52,-97.29 633.21,-97.29"/>
<polygon fill="#9a32cd" stroke="#9a32cd" points="501.04,-93.79 491.04,-97.29 501.04,-100.79 501.04,-93.79"/>
<text text-anchor="middle" x="560.3" y="-99.04" font-family="Helvetica,sans-Serif" font-size="10.00"> m_data</text>
</g>
<!-- Node10&#45;&gt;Node6 -->
<g id="edge13" class="edge">
<title>Node10&#45;&gt;Node6</title>
<path fill="none" stroke="orange" stroke-dasharray="5,2" d="M195.77,-84.13C249.24,-69.32 342.48,-47.29 424.18,-47.29 424.18,-47.29 424.18,-47.29 879.43,-47.29 934.62,-47.29 996.48,-60.99 1038.85,-72.56"/>
<polygon fill="orange" stroke="orange" points="195.12,-80.68 186.44,-86.76 197.02,-87.42 195.12,-80.68"/>
<text text-anchor="start" x="631.55" y="-60.29" font-family="Helvetica,sans-Serif" font-size="10.00"> &lt; std::shared_ptr&lt;</text>
<text text-anchor="middle" x="684.8" y="-49.04" font-family="Helvetica,sans-Serif" font-size="10.00"> Ark::internal::Scope &gt; &gt;</text>
</g>
<!-- Node10&#45;&gt;Node9 -->
<g id="edge9" class="edge">
<title>Node10&#45;&gt;Node9</title>
<path fill="none" stroke="orange" stroke-dasharray="5,2" d="M205.85,-97.29C250.49,-97.29 313.92,-97.29 360.92,-97.29"/>
<polygon fill="orange" stroke="orange" points="205.87,-93.79 195.87,-97.29 205.87,-100.79 205.87,-93.79"/>
<text text-anchor="start" x="236.43" y="-110.29" font-family="Helvetica,sans-Serif" font-size="10.00"> &lt; std::pair&lt; uint16</text>
<text text-anchor="middle" x="277.68" y="-99.04" font-family="Helvetica,sans-Serif" font-size="10.00">_t, Ark::Value &gt; &gt;</text>
</g>
<!-- Node10&#45;&gt;Node12 -->
<g id="edge16" class="edge">
<title>Node10&#45;&gt;Node12</title>
<path fill="none" stroke="orange" stroke-dasharray="5,2" d="M179.46,-112.46C189.43,-117.18 200.96,-121.79 212.05,-124.29 429.87,-173.44 697.99,-156.93 816.35,-145.89"/>
<polygon fill="orange" stroke="orange" points="181.2,-109.42 170.69,-108.08 178.07,-115.68 181.2,-109.42"/>
<text text-anchor="middle" x="560.3" y="-159.04" font-family="Helvetica,sans-Serif" font-size="10.00"> &lt; Ark::internal::Scope &gt;</text>
</g>
<!-- Node11&#45;&gt;Node7 -->
<g id="edge11" class="edge">
<title>Node11&#45;&gt;Node7</title>
<path fill="none" stroke="orange" stroke-dasharray="5,2" d="M341.85,-6.09C431.39,0.91 599.7,7.44 738.05,-25.29 780.4,-35.31 825.32,-58.92 852.38,-74.76"/>
<polygon fill="orange" stroke="orange" points="341.73,-2.59 332.05,-6.89 342.3,-9.57 341.73,-2.59"/>
<text text-anchor="middle" x="560.3" y="-8.04" font-family="Helvetica,sans-Serif" font-size="10.00"> &lt; Ark::internal::Scope &gt;</text>
</g>
<!-- Node12&#45;&gt;Node1 -->
<g id="edge14" class="edge">
<title>Node12&#45;&gt;Node1</title>
<path fill="none" stroke="#9a32cd" stroke-dasharray="5,2" d="M951.93,-139.29C1049.42,-139.29 1220.85,-139.29 1310.48,-139.29"/>
<polygon fill="#9a32cd" stroke="#9a32cd" points="951.93,-135.79 941.93,-139.29 951.93,-142.79 951.93,-135.79"/>
<text text-anchor="middle" x="1091.3" y="-141.04" font-family="Helvetica,sans-Serif" font-size="10.00"> locals</text>
</g>
</g>
</svg>
        <g id="navigator" transform="translate(0 0)" fill="#404254">
                <rect fill="#f2f5e9" fill-opacity="0.5" stroke="#606060" stroke-width=".5" x="0" y="0" width="60" height="60"/>
                <use id="zoomplus" xlink:href="#zoomPlus" x="17" y="9" onmousedown="handleZoom(evt,'in')"/>
                <use id="zoomminus" xlink:href="#zoomMin" x="42" y="9" onmousedown="handleZoom(evt,'out')"/>
                <use id="reset" xlink:href="#resetDef" x="30" y="36" onmousedown="handleReset()"/>
                <g id="arrowUp" xlink:href="#dirArrow" transform="translate(30 24)" onmousedown="handlePan(0,-1)">
                  <use xlink:href="#rim" fill="#404040">
                        <set attributeName="fill" to="#808080" begin="arrowUp.mouseover" end="arrowUp.mouseout"/>
                  </use>
                  <path fill="none" stroke="white" stroke-width="1.5" d="M0,-3.0v7 M-2.5,-0.5L0,-3.0L2.5,-0.5"/>
                </g>
                <g id="arrowRight" xlink:href="#dirArrow" transform="rotate(90) translate(36 -43)" onmousedown="handlePan(1,0)">
                  <use xlink:href="#rim" fill="#404040">
                        <set attributeName="fill" to="#808080" begin="arrowRight.mouseover" end="arrowRight.mouseout"/>
                  </use>
                  <path fill="none" stroke="white" stroke-width="1.5" d="M0,-3.0v7 M-2.5,-0.5L0,-3.0L2.5,-0.5"/>
                </g>
                <g id="arrowDown" xlink:href="#dirArrow" transform="rotate(180) translate(-30 -48)" onmousedown="handlePan(0,1)">
                  <use xlink:href="#rim" fill="#404040">
                        <set attributeName="fill" to="#808080" begin="arrowDown.mouseover" end="arrowDown.mouseout"/>
                  </use>
                  <path fill="none" stroke="white" stroke-width="1.5" d="M0,-3.0v7 M-2.5,-0.5L0,-3.0L2.5,-0.5"/>
                </g>
                <g id="arrowLeft" xlink:href="#dirArrow" transform="rotate(270) translate(-36 17)" onmousedown="handlePan(-1,0)">
                  <use xlink:href="#rim" fill="#404040">
                        <set attributeName="fill" to="#808080" begin="arrowLeft.mouseover" end="arrowLeft.mouseout"/>
                  </use>
                  <path fill="none" stroke="white" stroke-width="1.5" d="M0,-3.0v7 M-2.5,-0.5L0,-3.0L2.5,-0.5"/>
                </g>
        </g>
        <svg viewBox="0 0 15 15" width="100%" height="30px" preserveAspectRatio="xMaxYMin meet">
         <g id="arrow_out" transform="scale(0.3 0.3)">
          <a xlink:href="structArk_1_1internal_1_1ExecutionContext__coll__graph_org.svg" target="_base">
           <rect id="button" ry="5" rx="5" y="6" x="6" height="38" width="38"
                fill="#f2f5e9" fill-opacity="0.5" stroke="#606060" stroke-width="1.0"/>
           <path id="arrow"
             d="M 11.500037,31.436501 C 11.940474,20.09759 22.043105,11.32322 32.158766,21.979434 L 37.068811,17.246167 C 37.068811,17.246167 37.088388,32 37.088388,32 L 22.160133,31.978069 C 22.160133,31.978069 26.997745,27.140456 26.997745,27.140456 C 18.528582,18.264221 13.291696,25.230495 11.500037,31.436501 z"
             style="fill:#404040;"/>
          </a>
         </g>
        </svg>
</svg>
