<?xml version="1.0" encoding="UTF-8" standalone="no"?>
<!DOCTYPE svg PUBLIC "-//W3C//DTD SVG 1.1//EN"
 "http://www.w3.org/Graphics/SVG/1.1/DTD/svg11.dtd">
<!-- Generated by graphviz version 12.1.1 (20240910.0053)
 -->
<!-- Title: Ark::internal::ExecutionContext Pages: 1 -->
<!--zoomable 246 -->

<svg id="main" version="1.1" xmlns="http://www.w3.org/2000/svg" xmlns:xlink="http://www.w3.org/1999/xlink" xml:space="preserve" onload="init(evt)">

<style type="text/css"><![CDATA[
.node, .edge {opacity: 0.7;}
.node.selected, .edge.selected {opacity: 1;}
.edge:hover path { stroke: red; }
.edge:hover polygon { stroke: red; fill: red; }
]]></style>

<defs>
  <circle id="rim" cx="0" cy="0" r="7"/>
  <circle id="rim2" cx="0" cy="0" r="3.5"/>
  <g id="zoomPlus">
    <use xlink:href="#rim" fill="#404040"><set attributeName="fill" to="#808080" begin="zoomplus.mouseover" end="zoomplus.mouseout"/></use>
    <path d="M-4,0h8M0,-4v8" fill="none" stroke="white" stroke-width="1.5" pointer-events="none"/>
  </g>
  <g id="zoomMin">
    <use xlink:href="#rim" fill="#404040"><set attributeName="fill" to="#808080" begin="zoomminus.mouseover" end="zoomminus.mouseout"/></use>
    <path d="M-4,0h8" fill="none" stroke="white" stroke-width="1.5" pointer-events="none"/>
  </g>
  <g id="arrowUp" transform="translate(30 24)">
    <use xlink:href="#rim"/>
    <path pointer-events="none" fill="none" stroke="white" stroke-width="1.5" d="M0,-3.0v7 M-2.5,-0.5L0,-3.0L2.5,-0.5"/>
  </g>
  <g id="arrowRight" transform="rotate(90) translate(36 -43)">
    <use xlink:href="#rim"/>
    <path pointer-events="none" fill="none" stroke="white" stroke-width="1.5" d="M0,-3.0v7 M-2.5,-0.5L0,-3.0L2.5,-0.5"/>
  </g>
  <g id="arrowDown" transform="rotate(180) translate(-30 -48)">
    <use xlink:href="#rim"/>
    <path pointer-events="none" fill="none" stroke="white" stroke-width="1.5" d="M0,-3.0v7 M-2.5,-0.5L0,-3.0L2.5,-0.5"/>
  </g>
  <g id="arrowLeft" transform="rotate(270) translate(-36 17)">
    <use xlink:href="#rim"/>
    <path pointer-events="none" fill="none" stroke="white" stroke-width="1.5" d="M0,-3.0v7 M-2.5,-0.5L0,-3.0L2.5,-0.5"/>
  </g>
  <g id="resetDef">
    <use xlink:href="#rim2" fill="#404040"><set attributeName="fill" to="#808080" begin="reset.mouseover" end="reset.mouseout"/></use>
  </g>
</defs>
<script type="application/ecmascript">
var viewWidth = 1703;
var viewHeight = 246;
var sectionId = 'dynsection-0';
</script>
<script type="application/ecmascript" xlink:href="../../svg.min.js"/>
<svg id="graph" class="graph">
<g id="viewport">
<title>Ark::internal::ExecutionContext</title>
<!-- Node1 -->
<g id="Node000001" class="node">
<title>Node1</title>
<g id="a_Node000001"><a xlink:title=" ">
<polygon fill="#999999" stroke="#666666" points="1695.3,-121.88 1577.3,-121.88 1577.3,-91.38 1695.3,-91.38 1695.3,-121.88"/>
<text text-anchor="start" x="1585.3" y="-108.38" font-family="Helvetica,sans-Serif" font-size="10.00">Ark::internal::Execution</text>
<text text-anchor="middle" x="1636.3" y="-97.12" font-family="Helvetica,sans-Serif" font-size="10.00">Context</text>
</a>
</g>
</g>
<!-- Node2 -->
<g id="Node000002" class="node">
<title>Node2</title>
<g id="a_Node000002"><a xlink:title=" ">
<polygon fill="white" stroke="#666666" points="748.43,-186.88 634.93,-186.88 634.93,-156.38 748.43,-156.38 748.43,-186.88"/>
<text text-anchor="start" x="642.93" y="-173.38" font-family="Helvetica,sans-Serif" font-size="10.00">std::array&lt; Ark::Value,</text>
<text text-anchor="middle" x="691.68" y="-162.12" font-family="Helvetica,sans-Serif" font-size="10.00"> VMStackSize &gt;</text>
</a>
</g>
</g>
<!-- Node2&#45;&gt;Node1 -->
<g id="edge1_Node000001_Node000002" class="edge">
<title>Node2&#45;&gt;Node1</title>
<g id="a_edge1_Node000001_Node000002"><a xlink:title=" ">
<path fill="none" stroke="#9a32cd" stroke-dasharray="5,2" d="M760.12,-171.62C812.09,-171.62 885.74,-171.62 950.3,-171.62 950.3,-171.62 950.3,-171.62 1358.8,-171.62 1444.6,-171.62 1541.5,-141.6 1594.78,-122.36"/>
<polygon fill="#9a32cd" stroke="#9a32cd" points="760.22,-168.13 750.22,-171.63 760.22,-175.13 760.22,-168.13"/>
</a>
</g>
<text text-anchor="middle" x="1144.93" y="-173.38" font-family="Helvetica,sans-Serif" font-size="10.00" fill="grey"> stack</text>
</g>
<!-- Node3 -->
<g id="Node000003" class="node">
<title>Node3</title>
<g id="a_Node000003"><a xlink:href="../../d3/d90/classArk_1_1Value.html" target="_top" xlink:title=" ">
<polygon fill="white" stroke="#666666" points="202.68,-227.25 141.68,-227.25 141.68,-208 202.68,-208 202.68,-227.25"/>
<text text-anchor="middle" x="172.18" y="-213.75" font-family="Helvetica,sans-Serif" font-size="10.00">Ark::Value</text>
</a>
</g>
</g>
<!-- Node3&#45;&gt;Node2 -->
<g id="edge2_Node000002_Node000003" class="edge">
<title>Node3&#45;&gt;Node2</title>
<g id="a_edge2_Node000002_Node000003"><a xlink:title=" ">
<path fill="none" stroke="#9a32cd" stroke-dasharray="5,2" d="M214.26,-221.37C292.38,-227.4 467.25,-235.67 609.8,-204.62 626.84,-200.91 644.89,-193.88 659.61,-187.25"/>
<polygon fill="#9a32cd" stroke="#9a32cd" points="214.77,-217.9 204.53,-220.58 214.21,-224.88 214.77,-217.9"/>
</a>
</g>
<text text-anchor="middle" x="411.68" y="-228.83" font-family="Helvetica,sans-Serif" font-size="10.00" fill="grey"> elements</text>
</g>
<!-- Node10 -->
<g id="Node000010" class="node">
<title>Node10</title>
<g id="a_Node000010"><a xlink:title=" ">
<polygon fill="white" stroke="#666666" points="460.55,-193.88 362.8,-193.88 362.8,-163.38 460.55,-163.38 460.55,-193.88"/>
<text text-anchor="start" x="370.8" y="-180.38" font-family="Helvetica,sans-Serif" font-size="10.00">std::pair&lt; uint16_t,</text>
<text text-anchor="middle" x="411.68" y="-169.12" font-family="Helvetica,sans-Serif" font-size="10.00"> Ark::Value &gt;</text>
</a>
</g>
</g>
<!-- Node3&#45;&gt;Node10 -->
<g id="edge10_Node000010_Node000003" class="edge">
<title>Node3&#45;&gt;Node10</title>
<g id="a_edge10_Node000010_Node000003"><a xlink:title=" ">
<path fill="none" stroke="#9a32cd" stroke-dasharray="5,2" d="M214.23,-209.04C222.44,-207.42 231.01,-205.79 239.05,-204.38 280.6,-197.08 328.03,-190.07 362.49,-185.2"/>
<polygon fill="#9a32cd" stroke="#9a32cd" points="213.55,-205.61 204.44,-211.01 214.94,-212.47 213.55,-205.61"/>
</a>
</g>
<text text-anchor="middle" x="291.93" y="-206.12" font-family="Helvetica,sans-Serif" font-size="10.00" fill="grey"> second_type</text>
</g>
<!-- Node4 -->
<g id="Node000004" class="node">
<title>Node4</title>
<g id="a_Node000004"><a xlink:title=" ">
<polygon fill="white" stroke="#666666" points="452.3,-142.25 371.05,-142.25 371.05,-123 452.3,-123 452.3,-142.25"/>
<text text-anchor="middle" x="411.68" y="-128.75" font-family="Helvetica,sans-Serif" font-size="10.00">std::array&lt; T &gt;</text>
</a>
</g>
</g>
<!-- Node4&#45;&gt;Node2 -->
<g id="edge3_Node000002_Node000004" class="edge">
<title>Node4&#45;&gt;Node2</title>
<g id="a_edge3_Node000002_Node000004"><a xlink:title=" ">
<path fill="none" stroke="orange" stroke-dasharray="5,2" d="M464.03,-138.87C503.85,-143.82 560.39,-151.1 609.8,-158.38 617.82,-159.56 626.28,-160.87 634.59,-162.19"/>
<polygon fill="orange" stroke="orange" points="464.6,-135.41 454.25,-137.66 463.74,-142.36 464.6,-135.41"/>
</a>
</g>
<text text-anchor="middle" x="544.18" y="-160.12" font-family="Helvetica,sans-Serif" font-size="10.00" fill="grey"> &lt; Ark::Value, VMStackSize &gt;</text>
</g>
<!-- Node5 -->
<g id="Node000005" class="node">
<title>Node5</title>
<g id="a_Node000005"><a xlink:title=" ">
<polygon fill="white" stroke="#666666" points="186.58,-88.25 157.78,-88.25 157.78,-69 186.58,-69 186.58,-88.25"/>
<text text-anchor="middle" x="172.18" y="-74.75" font-family="Helvetica,sans-Serif" font-size="10.00">T</text>
</a>
</g>
</g>
<!-- Node5&#45;&gt;Node4 -->
<g id="edge4_Node000004_Node000005" class="edge">
<title>Node5&#45;&gt;Node4</title>
<g id="a_edge4_Node000004_Node000005"><a xlink:title=" ">
<path fill="none" stroke="#9a32cd" stroke-dasharray="5,2" d="M198.28,-84.34C210.57,-87.14 225.58,-90.56 239.05,-93.62 284.19,-103.89 336.01,-115.67 370.79,-123.57"/>
<polygon fill="#9a32cd" stroke="#9a32cd" points="199.06,-80.93 188.53,-82.12 197.5,-87.76 199.06,-80.93"/>
</a>
</g>
<text text-anchor="middle" x="291.93" y="-118.56" font-family="Helvetica,sans-Serif" font-size="10.00" fill="grey"> elements</text>
</g>
<!-- Node14 -->
<g id="Node000014" class="node">
<title>Node14</title>
<g id="a_Node000014"><a xlink:title=" ">
<polygon fill="white" stroke="#666666" points="454.93,-88.25 368.43,-88.25 368.43,-69 454.93,-69 454.93,-88.25"/>
<text text-anchor="middle" x="411.68" y="-74.75" font-family="Helvetica,sans-Serif" font-size="10.00">std::vector&lt; T &gt;</text>
</a>
</g>
</g>
<!-- Node5&#45;&gt;Node14 -->
<g id="edge15_Node000014_Node000005" class="edge">
<title>Node5&#45;&gt;Node14</title>
<g id="a_edge15_Node000014_Node000005"><a xlink:title=" ">
<path fill="none" stroke="#9a32cd" stroke-dasharray="5,2" d="M198.41,-78.62C238.85,-78.62 318.66,-78.62 368.07,-78.62"/>
<polygon fill="#9a32cd" stroke="#9a32cd" points="198.48,-75.13 188.48,-78.63 198.48,-82.13 198.48,-75.13"/>
</a>
</g>
<text text-anchor="middle" x="291.93" y="-80.38" font-family="Helvetica,sans-Serif" font-size="10.00" fill="grey"> elements</text>
</g>
<!-- Node15 -->
<g id="Node000015" class="node">
<title>Node15</title>
<g id="a_Node000015"><a xlink:title=" ">
<polygon fill="white" stroke="#666666" points="596.8,-19.25 491.55,-19.25 491.55,0 596.8,0 596.8,-19.25"/>
<text text-anchor="middle" x="544.18" y="-5.75" font-family="Helvetica,sans-Serif" font-size="10.00">std::shared_ptr&lt; T &gt;</text>
</a>
</g>
</g>
<!-- Node5&#45;&gt;Node15 -->
<g id="edge17_Node000015_Node000005" class="edge">
<title>Node5&#45;&gt;Node15</title>
<g id="a_edge17_Node000015_Node000005"><a xlink:title=" ">
<path fill="none" stroke="#9a32cd" stroke-dasharray="5,2" d="M197.83,-72.59C210.17,-69.66 225.37,-66.17 239.05,-63.38 327.18,-45.4 430.4,-27.9 491.09,-17.97"/>
<polygon fill="#9a32cd" stroke="#9a32cd" points="197.38,-69.1 188.48,-74.85 199.02,-75.91 197.38,-69.1"/>
</a>
</g>
<text text-anchor="middle" x="291.93" y="-65.12" font-family="Helvetica,sans-Serif" font-size="10.00" fill="grey"> ptr</text>
</g>
<!-- Node6 -->
<g id="Node000006" class="node">
<title>Node6</title>
<g id="a_Node000006"><a xlink:title=" ">
<polygon fill="white" stroke="#666666" points="1430.3,-63.88 1285.3,-63.88 1285.3,-33.38 1430.3,-33.38 1430.3,-63.88"/>
<text text-anchor="start" x="1293.3" y="-50.38" font-family="Helvetica,sans-Serif" font-size="10.00">std::vector&lt; std::shared</text>
<text text-anchor="middle" x="1357.8" y="-39.12" font-family="Helvetica,sans-Serif" font-size="10.00">_ptr&lt; Ark::internal::Scope &gt; &gt;</text>
</a>
</g>
</g>
<!-- Node6&#45;&gt;Node1 -->
<g id="edge5_Node000001_Node000006" class="edge">
<title>Node6&#45;&gt;Node1</title>
<g id="a_edge5_Node000001_Node000006"><a xlink:title=" ">
<path fill="none" stroke="#9a32cd" stroke-dasharray="5,2" d="M1441.42,-59.1C1477.83,-64.5 1520.97,-71.94 1559.3,-81.38 1570.1,-84.03 1581.57,-87.5 1592.24,-91"/>
<polygon fill="#9a32cd" stroke="#9a32cd" points="1442.24,-55.69 1431.84,-57.71 1441.23,-62.61 1442.24,-55.69"/>
</a>
</g>
<text text-anchor="middle" x="1503.8" y="-83.12" font-family="Helvetica,sans-Serif" font-size="10.00" fill="grey"> stacked_closure_scopes</text>
</g>
<!-- Node7 -->
<g id="Node000007" class="node">
<title>Node7</title>
<g id="a_Node000007"><a xlink:title=" ">
<polygon fill="white" stroke="#666666" points="1197.18,-63.88 1092.68,-63.88 1092.68,-33.38 1197.18,-33.38 1197.18,-63.88"/>
<text text-anchor="start" x="1100.68" y="-50.38" font-family="Helvetica,sans-Serif" font-size="10.00">std::shared_ptr&lt; Ark</text>
<text text-anchor="middle" x="1144.93" y="-39.12" font-family="Helvetica,sans-Serif" font-size="10.00">::internal::Scope &gt;</text>
</a>
</g>
</g>
<!-- Node7&#45;&gt;Node6 -->
<g id="edge6_Node000006_Node000007" class="edge">
<title>Node7&#45;&gt;Node6</title>
<g id="a_edge6_Node000006_Node000007"><a xlink:title=" ">
<path fill="none" stroke="#9a32cd" stroke-dasharray="5,2" d="M1208.96,-48.62C1232.91,-48.62 1260.35,-48.62 1285.05,-48.62"/>
<polygon fill="#9a32cd" stroke="#9a32cd" points="1209.02,-45.13 1199.02,-48.63 1209.02,-52.13 1209.02,-45.13"/>
</a>
</g>
<text text-anchor="middle" x="1245.93" y="-50.38" font-family="Helvetica,sans-Serif" font-size="10.00" fill="grey"> elements</text>
</g>
<!-- Node8 -->
<g id="Node000008" class="node">
<title>Node8</title>
<g id="a_Node000008"><a xlink:href="../../d5/d74/classArk_1_1internal_1_1Scope.html" target="_top" xlink:title="A class to handle the VM scope more efficiently.">
<polygon fill="white" stroke="#666666" points="1002.43,-132.25 900.18,-132.25 900.18,-113 1002.43,-113 1002.43,-132.25"/>
<text text-anchor="middle" x="951.3" y="-118.75" font-family="Helvetica,sans-Serif" font-size="10.00">Ark::internal::Scope</text>
</a>
</g>
</g>
<!-- Node8&#45;&gt;Node7 -->
<g id="edge7_Node000007_Node000008" class="edge">
<title>Node8&#45;&gt;Node7</title>
<g id="a_edge7_Node000007_Node000008"><a xlink:title=" ">
<path fill="none" stroke="#9a32cd" stroke-dasharray="5,2" d="M988.62,-108.6C1021.38,-95.95 1069.5,-77.37 1103.47,-64.25"/>
<polygon fill="#9a32cd" stroke="#9a32cd" points="987.62,-105.23 979.56,-112.1 990.14,-111.76 987.62,-105.23"/>
</a>
</g>
<text text-anchor="middle" x="1043.93" y="-96.18" font-family="Helvetica,sans-Serif" font-size="10.00" fill="grey"> ptr</text>
</g>
<!-- Node16 -->
<g id="Node000016" class="node">
<title>Node16</title>
<g id="a_Node000016"><a xlink:title=" ">
<polygon fill="white" stroke="#666666" points="1206.55,-121.88 1083.3,-121.88 1083.3,-91.38 1206.55,-91.38 1206.55,-121.88"/>
<text text-anchor="start" x="1091.3" y="-108.38" font-family="Helvetica,sans-Serif" font-size="10.00">std::vector&lt; Ark::internal</text>
<text text-anchor="middle" x="1144.93" y="-97.12" font-family="Helvetica,sans-Serif" font-size="10.00">::Scope &gt;</text>
</a>
</g>
</g>
<!-- Node8&#45;&gt;Node16 -->
<g id="edge20_Node000016_Node000008" class="edge">
<title>Node8&#45;&gt;Node16</title>
<g id="a_edge20_Node000016_Node000008"><a xlink:title=" ">
<path fill="none" stroke="#9a32cd" stroke-dasharray="5,2" d="M1013.91,-123.55C1016.83,-123.58 1019.72,-123.6 1022.55,-123.62 1041.55,-123.76 1046.41,-125.64 1065.3,-123.62 1071.13,-123 1077.17,-122.13 1083.18,-121.1"/>
<polygon fill="#9a32cd" stroke="#9a32cd" points="1014.12,-120.05 1004.08,-123.44 1014.04,-127.05 1014.12,-120.05"/>
</a>
</g>
<text text-anchor="middle" x="1043.93" y="-126.3" font-family="Helvetica,sans-Serif" font-size="10.00" fill="grey"> elements</text>
</g>
<!-- Node9 -->
<g id="Node000009" class="node">
<title>Node9</title>
<g id="a_Node000009"><a xlink:title=" ">
<polygon fill="white" stroke="#666666" points="755.55,-137.88 627.8,-137.88 627.8,-107.38 755.55,-107.38 755.55,-137.88"/>
<text text-anchor="start" x="635.8" y="-124.38" font-family="Helvetica,sans-Serif" font-size="10.00">std::vector&lt; std::pair</text>
<text text-anchor="middle" x="691.68" y="-113.12" font-family="Helvetica,sans-Serif" font-size="10.00">&lt; uint16_t, Ark::Value &gt; &gt;</text>
</a>
</g>
</g>
<!-- Node9&#45;&gt;Node8 -->
<g id="edge8_Node000008_Node000009" class="edge">
<title>Node9&#45;&gt;Node8</title>
<g id="a_edge8_Node000008_Node000009"><a xlink:title=" ">
<path fill="none" stroke="#9a32cd" stroke-dasharray="5,2" d="M767.45,-122.62C809.94,-122.62 862.02,-122.62 899.71,-122.62"/>
<polygon fill="#9a32cd" stroke="#9a32cd" points="767.54,-119.13 757.54,-122.63 767.54,-126.13 767.54,-119.13"/>
</a>
</g>
<text text-anchor="middle" x="826.8" y="-124.38" font-family="Helvetica,sans-Serif" font-size="10.00" fill="grey"> m_data</text>
</g>
<!-- Node10&#45;&gt;Node9 -->
<g id="edge9_Node000009_Node000010" class="edge">
<title>Node10&#45;&gt;Node9</title>
<g id="a_edge9_Node000009_Node000010"><a xlink:title=" ">
<path fill="none" stroke="#9a32cd" stroke-dasharray="5,2" d="M472.21,-188.12C513.07,-191.81 567.35,-190.94 609.8,-169.62 621.09,-163.96 617.6,-155.09 627.8,-147.62 632.63,-144.09 638.04,-140.97 643.59,-138.24"/>
<polygon fill="#9a32cd" stroke="#9a32cd" points="472.61,-184.65 462.31,-187.1 471.89,-191.61 472.61,-184.65"/>
</a>
</g>
<text text-anchor="middle" x="544.18" y="-191.54" font-family="Helvetica,sans-Serif" font-size="10.00" fill="grey"> elements</text>
</g>
<!-- Node11 -->
<g id="Node000011" class="node">
<title>Node11</title>
<g id="a_Node000011"><a xlink:title=" ">
<polygon fill="white" stroke="#666666" points="221.05,-179.25 123.3,-179.25 123.3,-160 221.05,-160 221.05,-179.25"/>
<text text-anchor="middle" x="172.18" y="-165.75" font-family="Helvetica,sans-Serif" font-size="10.00">std::pair&lt; T1, T2 &gt;</text>
</a>
</g>
</g>
<!-- Node11&#45;&gt;Node10 -->
<g id="edge11_Node000010_Node000011" class="edge">
<title>Node11&#45;&gt;Node10</title>
<g id="a_edge11_Node000010_Node000011"><a xlink:title=" ">
<path fill="none" stroke="orange" stroke-dasharray="5,2" d="M232.62,-168.13C265.69,-167.74 307.56,-167.97 344.8,-170.38 350.55,-170.75 356.57,-171.29 362.53,-171.92"/>
<polygon fill="orange" stroke="orange" points="232.78,-164.63 222.83,-168.27 232.88,-171.63 232.78,-164.63"/>
</a>
</g>
<text text-anchor="middle" x="291.93" y="-172.12" font-family="Helvetica,sans-Serif" font-size="10.00" fill="grey"> &lt; uint16_t, Ark::Value &gt;</text>
</g>
<!-- Node12 -->
<g id="Node000012" class="node">
<title>Node12</title>
<g id="a_Node000012"><a xlink:title=" ">
<polygon fill="white" stroke="#666666" points="28.8,-197.25 0,-197.25 0,-178 28.8,-178 28.8,-197.25"/>
<text text-anchor="middle" x="14.4" y="-183.75" font-family="Helvetica,sans-Serif" font-size="10.00">T1</text>
</a>
</g>
</g>
<!-- Node12&#45;&gt;Node11 -->
<g id="edge12_Node000011_Node000012" class="edge">
<title>Node12&#45;&gt;Node11</title>
<g id="a_edge12_Node000011_Node000012"><a xlink:title=" ">
<path fill="none" stroke="#9a32cd" stroke-dasharray="5,2" d="M40.64,-184.71C62.84,-182.14 95.76,-178.34 122.99,-175.19"/>
<polygon fill="#9a32cd" stroke="#9a32cd" points="40.26,-181.23 30.73,-185.85 41.06,-188.18 40.26,-181.23"/>
</a>
</g>
<text text-anchor="middle" x="76.05" y="-185.49" font-family="Helvetica,sans-Serif" font-size="10.00" fill="grey"> first_type</text>
</g>
<!-- Node13 -->
<g id="Node000013" class="node">
<title>Node13</title>
<g id="a_Node000013"><a xlink:title=" ">
<polygon fill="white" stroke="#666666" points="28.8,-160.25 0,-160.25 0,-141 28.8,-141 28.8,-160.25"/>
<text text-anchor="middle" x="14.4" y="-146.75" font-family="Helvetica,sans-Serif" font-size="10.00">T2</text>
</a>
</g>
</g>
<!-- Node13&#45;&gt;Node11 -->
<g id="edge13_Node000011_Node000013" class="edge">
<title>Node13&#45;&gt;Node11</title>
<g id="a_edge13_Node000011_Node000013"><a xlink:title=" ">
<path fill="none" stroke="#9a32cd" stroke-dasharray="5,2" d="M40.64,-153.7C62.84,-156.41 95.76,-160.43 122.99,-163.75"/>
<polygon fill="#9a32cd" stroke="#9a32cd" points="41.08,-150.23 30.73,-152.49 40.23,-157.18 41.08,-150.23"/>
</a>
</g>
<text text-anchor="middle" x="76.05" y="-163.01" font-family="Helvetica,sans-Serif" font-size="10.00" fill="grey"> second_type</text>
</g>
<!-- Node14&#45;&gt;Node6 -->
<g id="edge18_Node000006_Node000014" class="edge">
<title>Node14&#45;&gt;Node6</title>
<g id="a_edge18_Node000006_Node000014"><a xlink:title=" ">
<path fill="none" stroke="orange" stroke-dasharray="5,2" d="M466.33,-69.53C594.42,-49 928.17,-2.53 1206.55,-24.62 1232.22,-26.66 1260.14,-30.63 1284.86,-34.76"/>
<polygon fill="orange" stroke="orange" points="466.1,-66.02 456.79,-71.07 467.22,-72.93 466.1,-66.02"/>
</a>
</g>
<text text-anchor="start" x="898.05" y="-35.9" font-family="Helvetica,sans-Serif" font-size="10.00" fill="grey"> &lt; std::shared_ptr&lt;</text>
<text text-anchor="middle" x="951.3" y="-24.65" font-family="Helvetica,sans-Serif" font-size="10.00" fill="grey"> Ark::internal::Scope &gt; &gt;</text>
</g>
<!-- Node14&#45;&gt;Node9 -->
<g id="edge14_Node000009_Node000014" class="edge">
<title>Node14&#45;&gt;Node9</title>
<g id="a_edge14_Node000009_Node000014"><a xlink:title=" ">
<path fill="none" stroke="orange" stroke-dasharray="5,2" d="M466.21,-87.62C470.39,-88.3 474.54,-88.98 478.55,-89.62 528.59,-97.7 585.33,-106.5 627.53,-112.99"/>
<polygon fill="orange" stroke="orange" points="467.12,-84.22 456.68,-86.04 465.98,-91.12 467.12,-84.22"/>
</a>
</g>
<text text-anchor="start" x="502.93" y="-122.46" font-family="Helvetica,sans-Serif" font-size="10.00" fill="grey"> &lt; std::pair&lt; uint16</text>
<text text-anchor="middle" x="544.18" y="-111.21" font-family="Helvetica,sans-Serif" font-size="10.00" fill="grey">_t, Ark::Value &gt; &gt;</text>
</g>
<!-- Node14&#45;&gt;Node16 -->
<g id="edge21_Node000016_Node000014" class="edge">
<title>Node14&#45;&gt;Node16</title>
<g id="a_edge21_Node000016_Node000014"><a xlink:title=" ">
<path fill="none" stroke="orange" stroke-dasharray="5,2" d="M466.47,-76.97C578.31,-74.16 843.92,-70.67 1065.3,-92.62 1071.09,-93.2 1077.1,-93.96 1083.1,-94.84"/>
<polygon fill="orange" stroke="orange" points="466.61,-73.47 456.7,-77.23 466.79,-80.47 466.61,-73.47"/>
</a>
</g>
<text text-anchor="middle" x="826.8" y="-81.62" font-family="Helvetica,sans-Serif" font-size="10.00" fill="grey"> &lt; Ark::internal::Scope &gt;</text>
</g>
<!-- Node15&#45;&gt;Node7 -->
<g id="edge16_Node000007_Node000015" class="edge">
<title>Node15&#45;&gt;Node7</title>
<g id="a_edge16_Node000007_Node000015"><a xlink:title=" ">
<path fill="none" stroke="orange" stroke-dasharray="5,2" d="M608.71,-13.76C727.93,-21.53 983,-38.14 1092.38,-45.27"/>
<polygon fill="orange" stroke="orange" points="608.98,-10.27 598.77,-13.12 608.52,-17.26 608.98,-10.27"/>
</a>
</g>
<text text-anchor="middle" x="826.8" y="-33" font-family="Helvetica,sans-Serif" font-size="10.00" fill="grey"> &lt; Ark::internal::Scope &gt;</text>
</g>
<!-- Node16&#45;&gt;Node1 -->
<g id="edge19_Node000001_Node000016" class="edge">
<title>Node16&#45;&gt;Node1</title>
<g id="a_edge19_Node000001_Node000016"><a xlink:title=" ">
<path fill="none" stroke="#9a32cd" stroke-dasharray="5,2" d="M1218.43,-106.62C1315.92,-106.62 1487.35,-106.62 1576.98,-106.62"/>
<polygon fill="#9a32cd" stroke="#9a32cd" points="1218.43,-103.13 1208.43,-106.63 1218.43,-110.13 1218.43,-103.13"/>
</a>
</g>
<text text-anchor="middle" x="1357.8" y="-108.38" font-family="Helvetica,sans-Serif" font-size="10.00" fill="grey"> locals</text>
</g>
</g>
</svg>

<g id="navigator" transform="translate(0 0)" fill="#404254">
  <rect fill="#f2f5e9" fill-opacity="0.5" stroke="#606060" stroke-width=".5" x="0" y="0" width="60" height="60"/>
  <use id="zoomplus" xlink:href="#zoomPlus" x="17" y="9" onmousedown="handleZoom(evt,'in')"/>
  <use id="zoomminus" xlink:href="#zoomMin" x="42" y="9" onmousedown="handleZoom(evt,'out')"/>
  <use id="reset" xlink:href="#resetDef" x="30" y="36" onmousedown="handleReset()"/>
   <use id="arrowup" xlink:href="#arrowUp" x="0" y="0" onmousedown="handlePan(0,-1)"/>
  <use id="arrowright" xlink:href="#arrowRight" x="0" y="0" onmousedown="handlePan(1,0)"/>
  <use id="arrowdown" xlink:href="#arrowDown" x="0" y="0" onmousedown="handlePan(0,1)"/>
  <use id="arrowleft" xlink:href="#arrowLeft" x="0" y="0" onmousedown="handlePan(-1,0)"/>
</g>
<svg viewBox="0 0 15 15" width="100%" height="30px" preserveAspectRatio="xMaxYMin meet">
 <g id="arrow_out" transform="scale(0.3 0.3)">
  <a xlink:href="structArk_1_1internal_1_1ExecutionContext__coll__graph_org.svg" target="_base">
   <rect id="button" ry="5" rx="5" y="6" x="6" height="38" width="38"
        fill="#f2f5e9" fill-opacity="0.5" stroke="#606060" stroke-width="1.0"/>
   <path id="arrow"
     d="M 11.500037,31.436501 C 11.940474,20.09759 22.043105,11.32322 32.158766,21.979434 L 37.068811,17.246167 C 37.068811,17.246167 37.088388,32 37.088388,32 L 22.160133,31.978069 C 22.160133,31.978069 26.997745,27.140456 26.997745,27.140456 C 18.528582,18.264221 13.291696,25.230495 11.500037,31.436501 z"
     style="fill:#404040;"/>
  </a>
 </g>
</svg>

<style type='text/css'>
<![CDATA[
[data-mouse-over-selected='false'] { opacity: 0.7; }
[data-mouse-over-selected='true']  { opacity: 1.0; }
]]>
</style>
<script type="application/ecmascript"><![CDATA[
document.addEventListener('DOMContentLoaded', (event) => {
  highlightEdges();
  highlightAdjacentNodes();
});
]]></script>
</svg>
