<?xml version="1.0" encoding="UTF-8" standalone="no"?>
<!DOCTYPE svg PUBLIC "-//W3C//DTD SVG 1.1//EN"
 "http://www.w3.org/Graphics/SVG/1.1/DTD/svg11.dtd">
<!-- Generated by graphviz version 2.43.0 (0)
 -->
<!-- Title: Ark::internal::Future Pages: 1 -->
<svg width="1525pt" height="814pt"
 viewBox="0.00 0.00 1525.00 813.50" xmlns="http://www.w3.org/2000/svg" xmlns:xlink="http://www.w3.org/1999/xlink">
<g id="graph0" class="graph" transform="scale(1 1) rotate(0) translate(4 809.5)">
<title>Ark::internal::Future</title>
<polygon fill="white" stroke="transparent" points="-4,4 -4,-809.5 1521,-809.5 1521,4 -4,4"/>
<!-- Node1 -->
<g id="node1" class="node">
<title>Node1</title>
<g id="a_node1"><a xlink:title=" ">
<polygon fill="#bfbfbf" stroke="black" points="1404,-484 1404,-503 1517,-503 1517,-484 1404,-484"/>
<text text-anchor="middle" x="1460.5" y="-491" font-family="Helvetica,sans-Serif" font-size="10.00">Ark::internal::Future</text>
</a>
</g>
</g>
<!-- Node2 -->
<g id="node2" class="node">
<title>Node2</title>
<g id="a_node2"><a xlink:href="../../d0/daf/structArk_1_1internal_1_1ExecutionContext.html" target="_top" xlink:title=" ">
<polygon fill="white" stroke="black" points="1063,-654.5 1063,-684.5 1193,-684.5 1193,-654.5 1063,-654.5"/>
<text text-anchor="start" x="1071" y="-672.5" font-family="Helvetica,sans-Serif" font-size="10.00">Ark::internal::Execution</text>
<text text-anchor="middle" x="1128" y="-661.5" font-family="Helvetica,sans-Serif" font-size="10.00">Context</text>
</a>
</g>
</g>
<!-- Node2&#45;&gt;Node1 -->
<g id="edge1" class="edge">
<title>Node2&#45;&gt;Node1</title>
<path fill="none" stroke="#9a32cd" stroke-dasharray="5,2" d="M1186.58,-651.14C1210.13,-642.86 1237.35,-632.29 1261,-620.5 1334.97,-583.64 1415.79,-525.88 1446.6,-503.15"/>
<polygon fill="#9a32cd" stroke="#9a32cd" points="1185.38,-647.85 1177.07,-654.42 1187.67,-654.46 1185.38,-647.85"/>
<text text-anchor="middle" x="1306.5" y="-613.5" font-family="Helvetica,sans-Serif" font-size="10.00"> m_context</text>
</g>
<!-- Node3 -->
<g id="node3" class="node">
<title>Node3</title>
<g id="a_node3"><a xlink:title=" ">
<polygon fill="white" stroke="#bfbfbf" points="454.5,-417 454.5,-436 579.5,-436 579.5,-417 454.5,-417"/>
<text text-anchor="middle" x="517" y="-424" font-family="Helvetica,sans-Serif" font-size="10.00">std::vector&lt; uint8_t &gt;</text>
</a>
</g>
</g>
<!-- Node3&#45;&gt;Node2 -->
<g id="edge2" class="edge">
<title>Node3&#45;&gt;Node2</title>
<path fill="none" stroke="#9a32cd" stroke-dasharray="5,2" d="M555.72,-439.46C571.52,-445.3 589.91,-452.65 606,-460.5 662.79,-488.21 670.67,-506.94 728,-533.5 846.03,-588.18 992.52,-632.5 1071.04,-654.48"/>
<polygon fill="#9a32cd" stroke="#9a32cd" points="556.86,-436.15 546.26,-436.03 554.47,-442.73 556.86,-436.15"/>
<text text-anchor="middle" x="829.5" y="-614.5" font-family="Helvetica,sans-Serif" font-size="10.00"> scope_count_to_delete</text>
</g>
<!-- Node19 -->
<g id="node19" class="node">
<title>Node19</title>
<g id="a_node19"><a xlink:href="../../d1/d37/classArk_1_1State.html" target="_top" xlink:title="Ark state to handle the dirty job of loading and compiling ArkScript code.">
<polygon fill="white" stroke="black" points="1095.5,-369 1095.5,-388 1160.5,-388 1160.5,-369 1095.5,-369"/>
<text text-anchor="middle" x="1128" y="-376" font-family="Helvetica,sans-Serif" font-size="10.00">Ark::State</text>
</a>
</g>
</g>
<!-- Node3&#45;&gt;Node19 -->
<g id="edge40" class="edge">
<title>Node3&#45;&gt;Node19</title>
<path fill="none" stroke="#9a32cd" stroke-dasharray="5,2" d="M589.57,-415.61C601.06,-414.08 612.85,-412.65 624,-411.5 810.52,-392.35 857.94,-397.34 1045,-384.5 1061.66,-383.36 1080.22,-382 1095.46,-380.87"/>
<polygon fill="#9a32cd" stroke="#9a32cd" points="588.99,-412.16 579.56,-416.98 589.94,-419.09 588.99,-412.16"/>
<text text-anchor="middle" x="829.5" y="-404.5" font-family="Helvetica,sans-Serif" font-size="10.00"> m_bytecode</text>
</g>
<!-- Node20 -->
<g id="node20" class="node">
<title>Node20</title>
<g id="a_node20"><a xlink:title=" ">
<polygon fill="white" stroke="#bfbfbf" points="757,-455 757,-474 902,-474 902,-455 757,-455"/>
<text text-anchor="middle" x="829.5" y="-462" font-family="Helvetica,sans-Serif" font-size="10.00">std::vector&lt; bytecode_t &gt;</text>
</a>
</g>
</g>
<!-- Node3&#45;&gt;Node20 -->
<g id="edge28" class="edge">
<title>Node3&#45;&gt;Node20</title>
<path fill="none" stroke="#9a32cd" stroke-dasharray="5,2" d="M587.91,-437.48C599.94,-439.25 612.32,-440.99 624,-442.5 668.09,-448.2 717.66,-453.56 756.96,-457.56"/>
<polygon fill="#9a32cd" stroke="#9a32cd" points="588.33,-434.01 577.92,-436 587.3,-440.93 588.33,-434.01"/>
<text text-anchor="middle" x="667" y="-454.5" font-family="Helvetica,sans-Serif" font-size="10.00"> elements</text>
</g>
<!-- Node4 -->
<g id="node4" class="node">
<title>Node4</title>
<g id="a_node4"><a xlink:title=" ">
<polygon fill="white" stroke="#bfbfbf" points="124.5,-450 124.5,-469 221.5,-469 221.5,-450 124.5,-450"/>
<text text-anchor="middle" x="173" y="-457" font-family="Helvetica,sans-Serif" font-size="10.00">std::vector&lt; T &gt;</text>
</a>
</g>
</g>
<!-- Node4&#45;&gt;Node3 -->
<g id="edge3" class="edge">
<title>Node4&#45;&gt;Node3</title>
<path fill="none" stroke="orange" stroke-dasharray="5,2" d="M231.94,-449.87C238.03,-449 244.14,-448.19 250,-447.5 319.81,-439.25 400.32,-433.4 454.32,-430"/>
<polygon fill="orange" stroke="orange" points="231.14,-446.45 221.76,-451.38 232.16,-453.38 231.14,-446.45"/>
<text text-anchor="middle" x="330" y="-450.5" font-family="Helvetica,sans-Serif" font-size="10.00"> &lt; uint8_t &gt;</text>
</g>
<!-- Node9 -->
<g id="node9" class="node">
<title>Node9</title>
<g id="a_node9"><a xlink:title=" ">
<polygon fill="white" stroke="#bfbfbf" points="765,-703 765,-722 894,-722 894,-703 765,-703"/>
<text text-anchor="middle" x="829.5" y="-710" font-family="Helvetica,sans-Serif" font-size="10.00">std::vector&lt; Scope_t &gt;</text>
</a>
</g>
</g>
<!-- Node4&#45;&gt;Node9 -->
<g id="edge13" class="edge">
<title>Node4&#45;&gt;Node9</title>
<path fill="none" stroke="orange" stroke-dasharray="5,2" d="M179.17,-478.84C193.34,-531.15 232.86,-672.44 250,-685.5 329.11,-745.8 631.55,-729.01 764.81,-718.28"/>
<polygon fill="orange" stroke="orange" points="182.53,-477.85 176.55,-469.1 175.77,-479.67 182.53,-477.85"/>
<text text-anchor="middle" x="517" y="-731.5" font-family="Helvetica,sans-Serif" font-size="10.00"> &lt; Scope_t &gt;</text>
</g>
<!-- Node13 -->
<g id="node13" class="node">
<title>Node13</title>
<g id="a_node13"><a xlink:title=" ">
<polygon fill="white" stroke="#bfbfbf" points="749.5,-176 749.5,-217 909.5,-217 909.5,-176 749.5,-176"/>
<text text-anchor="start" x="757.5" y="-205" font-family="Helvetica,sans-Serif" font-size="10.00">std::vector&lt; std::unique</text>
<text text-anchor="start" x="757.5" y="-194" font-family="Helvetica,sans-Serif" font-size="10.00">_ptr&lt; Ark::internal::Execution</text>
<text text-anchor="middle" x="829.5" y="-183" font-family="Helvetica,sans-Serif" font-size="10.00">Context &gt; &gt;</text>
</a>
</g>
</g>
<!-- Node4&#45;&gt;Node13 -->
<g id="edge19" class="edge">
<title>Node4&#45;&gt;Node13</title>
<path fill="none" stroke="orange" stroke-dasharray="5,2" d="M189.41,-442.31C226.22,-402.51 323.95,-304.03 428,-259.5 533.15,-214.5 666.18,-201.24 749.33,-197.56"/>
<polygon fill="orange" stroke="orange" points="186.66,-440.13 182.5,-449.87 191.83,-444.85 186.66,-440.13"/>
<text text-anchor="start" x="428" y="-273.5" font-family="Helvetica,sans-Serif" font-size="10.00"> &lt; std::unique_ptr&lt;</text>
<text text-anchor="middle" x="517" y="-262.5" font-family="Helvetica,sans-Serif" font-size="10.00"> Ark::internal::ExecutionContext &gt; &gt;</text>
</g>
<!-- Node16 -->
<g id="node16" class="node">
<title>Node16</title>
<g id="a_node16"><a xlink:title=" ">
<polygon fill="white" stroke="#bfbfbf" points="746.5,-126.5 746.5,-156.5 912.5,-156.5 912.5,-126.5 746.5,-126.5"/>
<text text-anchor="start" x="754.5" y="-144.5" font-family="Helvetica,sans-Serif" font-size="10.00">std::vector&lt; std::unique</text>
<text text-anchor="middle" x="829.5" y="-133.5" font-family="Helvetica,sans-Serif" font-size="10.00">_ptr&lt; Ark::internal::Future &gt; &gt;</text>
</a>
</g>
</g>
<!-- Node4&#45;&gt;Node16 -->
<g id="edge24" class="edge">
<title>Node4&#45;&gt;Node16</title>
<path fill="none" stroke="orange" stroke-dasharray="5,2" d="M176.71,-439.74C182.94,-401.41 201.64,-316.29 250,-265.5 309.81,-202.69 344.31,-208.29 428,-185.5 535.48,-156.23 664.22,-146.35 746.18,-143.06"/>
<polygon fill="orange" stroke="orange" points="173.25,-439.23 175.22,-449.64 180.17,-440.28 173.25,-439.23"/>
<text text-anchor="start" x="455.5" y="-199.5" font-family="Helvetica,sans-Serif" font-size="10.00"> &lt; std::unique_ptr&lt;</text>
<text text-anchor="middle" x="517" y="-188.5" font-family="Helvetica,sans-Serif" font-size="10.00"> Ark::internal::Future &gt; &gt;</text>
</g>
<!-- Node4&#45;&gt;Node20 -->
<g id="edge29" class="edge">
<title>Node4&#45;&gt;Node20</title>
<path fill="none" stroke="orange" stroke-dasharray="5,2" d="M231.7,-461.07C329.91,-463.55 535.86,-467.97 710,-466.5 725.12,-466.37 741.33,-466.15 756.75,-465.91"/>
<polygon fill="orange" stroke="orange" points="231.77,-457.57 221.68,-460.81 231.59,-464.56 231.77,-457.57"/>
<text text-anchor="middle" x="517" y="-469.5" font-family="Helvetica,sans-Serif" font-size="10.00"> &lt; bytecode_t &gt;</text>
</g>
<!-- Node26 -->
<g id="node26" class="node">
<title>Node26</title>
<g id="a_node26"><a xlink:title=" ">
<polygon fill="white" stroke="#bfbfbf" points="759.5,-505 759.5,-524 899.5,-524 899.5,-505 759.5,-505"/>
<text text-anchor="middle" x="829.5" y="-512" font-family="Helvetica,sans-Serif" font-size="10.00">std::vector&lt; Ark::Value &gt;</text>
</a>
</g>
</g>
<!-- Node4&#45;&gt;Node26 -->
<g id="edge39" class="edge">
<title>Node4&#45;&gt;Node26</title>
<path fill="none" stroke="orange" stroke-dasharray="5,2" d="M221.32,-471.27C230.77,-473.28 240.66,-475.16 250,-476.5 432.56,-502.75 650.18,-510.89 759.13,-513.4"/>
<polygon fill="orange" stroke="orange" points="221.8,-467.79 211.28,-469.04 220.29,-474.63 221.8,-467.79"/>
<text text-anchor="middle" x="517" y="-510.5" font-family="Helvetica,sans-Serif" font-size="10.00"> &lt; Ark::Value &gt;</text>
</g>
<!-- Node27 -->
<g id="node27" class="node">
<title>Node27</title>
<g id="a_node27"><a xlink:title=" ">
<polygon fill="white" stroke="#bfbfbf" points="759.5,-343 759.5,-362 899.5,-362 899.5,-343 759.5,-343"/>
<text text-anchor="middle" x="829.5" y="-350" font-family="Helvetica,sans-Serif" font-size="10.00">std::vector&lt; std::string &gt;</text>
</a>
</g>
</g>
<!-- Node4&#45;&gt;Node27 -->
<g id="edge44" class="edge">
<title>Node4&#45;&gt;Node27</title>
<path fill="none" stroke="orange" stroke-dasharray="5,2" d="M203.71,-445.69C217.54,-439.7 234.36,-433.04 250,-428.5 428.99,-376.53 649.54,-360 759.44,-354.82"/>
<polygon fill="orange" stroke="orange" points="201.96,-442.64 194.23,-449.89 204.79,-449.04 201.96,-442.64"/>
<text text-anchor="middle" x="517" y="-390.5" font-family="Helvetica,sans-Serif" font-size="10.00"> &lt; std::string &gt;</text>
</g>
<!-- Node28 -->
<g id="node28" class="node">
<title>Node28</title>
<g id="a_node28"><a xlink:title=" ">
<polygon fill="white" stroke="#bfbfbf" points="728,-643.5 728,-673.5 931,-673.5 931,-643.5 728,-643.5"/>
<text text-anchor="start" x="736" y="-661.5" font-family="Helvetica,sans-Serif" font-size="10.00">std::vector&lt; std::shared</text>
<text text-anchor="middle" x="829.5" y="-650.5" font-family="Helvetica,sans-Serif" font-size="10.00">_ptr&lt; Ark::internal::SharedLibrary &gt; &gt;</text>
</a>
</g>
</g>
<!-- Node4&#45;&gt;Node28 -->
<g id="edge48" class="edge">
<title>Node4&#45;&gt;Node28</title>
<path fill="none" stroke="orange" stroke-dasharray="5,2" d="M200.69,-473.76C215.22,-481.47 233.55,-491.11 250,-499.5 328.61,-539.61 344.57,-558.73 428,-587.5 504.39,-613.84 535.94,-584.25 606,-624.5 616.37,-630.46 613.25,-639.26 624,-644.5 655.67,-659.92 693.43,-665.51 727.84,-666.57"/>
<polygon fill="orange" stroke="orange" points="202.22,-470.61 191.75,-469 198.93,-476.79 202.22,-470.61"/>
<text text-anchor="start" x="437" y="-638.5" font-family="Helvetica,sans-Serif" font-size="10.00"> &lt; std::shared_ptr&lt;</text>
<text text-anchor="middle" x="517" y="-627.5" font-family="Helvetica,sans-Serif" font-size="10.00"> Ark::internal::SharedLibrary &gt; &gt;</text>
</g>
<!-- Node5 -->
<g id="node5" class="node">
<title>Node5</title>
<g id="a_node5"><a xlink:title=" ">
<polygon fill="white" stroke="#bfbfbf" points="0,-450 0,-469 29,-469 29,-450 0,-450"/>
<text text-anchor="middle" x="14.5" y="-457" font-family="Helvetica,sans-Serif" font-size="10.00">T</text>
</a>
</g>
</g>
<!-- Node5&#45;&gt;Node4 -->
<g id="edge4" class="edge">
<title>Node5&#45;&gt;Node4</title>
<path fill="none" stroke="#9a32cd" stroke-dasharray="5,2" d="M39.12,-459.5C61.64,-459.5 96.21,-459.5 124.45,-459.5"/>
<polygon fill="#9a32cd" stroke="#9a32cd" points="39.11,-456 29.11,-459.5 39.11,-463 39.11,-456"/>
<text text-anchor="middle" x="71.5" y="-462.5" font-family="Helvetica,sans-Serif" font-size="10.00"> elements</text>
</g>
<!-- Node8 -->
<g id="node8" class="node">
<title>Node8</title>
<g id="a_node8"><a xlink:title=" ">
<polygon fill="white" stroke="#bfbfbf" points="284,-786 284,-805 376,-805 376,-786 284,-786"/>
<text text-anchor="middle" x="330" y="-793" font-family="Helvetica,sans-Serif" font-size="10.00">std::array&lt; T &gt;</text>
</a>
</g>
</g>
<!-- Node5&#45;&gt;Node8 -->
<g id="edge8" class="edge">
<title>Node5&#45;&gt;Node8</title>
<path fill="none" stroke="#9a32cd" stroke-dasharray="5,2" d="M18.85,-479.22C23.39,-503.48 32.6,-545.62 47,-579.5 69.39,-632.18 73.54,-649 114,-689.5 164.05,-739.59 185.22,-743.91 250,-772.5 262.15,-777.86 275.9,-782.37 288.48,-785.92"/>
<polygon fill="#9a32cd" stroke="#9a32cd" points="22.26,-478.37 17.05,-469.14 15.37,-479.6 22.26,-478.37"/>
<text text-anchor="middle" x="71.5" y="-671.5" font-family="Helvetica,sans-Serif" font-size="10.00"> elements</text>
</g>
<!-- Node11 -->
<g id="node11" class="node">
<title>Node11</title>
<g id="a_node11"><a xlink:title=" ">
<polygon fill="white" stroke="#bfbfbf" points="114,-661 114,-680 232,-680 232,-661 114,-661"/>
<text text-anchor="middle" x="173" y="-668" font-family="Helvetica,sans-Serif" font-size="10.00">std::shared_ptr&lt; T &gt;</text>
</a>
</g>
</g>
<!-- Node5&#45;&gt;Node11 -->
<g id="edge12" class="edge">
<title>Node5&#45;&gt;Node11</title>
<path fill="none" stroke="#9a32cd" stroke-dasharray="5,2" d="M28.63,-477.21C60.37,-520 140.42,-627.93 164.83,-660.83"/>
<polygon fill="#9a32cd" stroke="#9a32cd" points="31.4,-475.06 22.63,-469.11 25.78,-479.23 31.4,-475.06"/>
<text text-anchor="middle" x="71.5" y="-567.5" font-family="Helvetica,sans-Serif" font-size="10.00"> ptr</text>
</g>
<!-- Node15 -->
<g id="node15" class="node">
<title>Node15</title>
<g id="a_node15"><a xlink:title=" ">
<polygon fill="white" stroke="#bfbfbf" points="114,-44 114,-63 232,-63 232,-44 114,-44"/>
<text text-anchor="middle" x="173" y="-51" font-family="Helvetica,sans-Serif" font-size="10.00">std::unique_ptr&lt; T &gt;</text>
</a>
</g>
</g>
<!-- Node5&#45;&gt;Node15 -->
<g id="edge18" class="edge">
<title>Node5&#45;&gt;Node15</title>
<path fill="none" stroke="#9a32cd" stroke-dasharray="5,2" d="M15.02,-439.71C13.77,-374.87 12.71,-169.96 47,-115.5 64.68,-87.42 99.24,-71.63 127.54,-63.03"/>
<polygon fill="#9a32cd" stroke="#9a32cd" points="11.52,-439.88 15.23,-449.81 18.52,-439.73 11.52,-439.88"/>
<text text-anchor="middle" x="71.5" y="-118.5" font-family="Helvetica,sans-Serif" font-size="10.00"> ptr</text>
</g>
<!-- Node24 -->
<g id="node24" class="node">
<title>Node24</title>
<g id="a_node24"><a xlink:title=" ">
<polygon fill="white" stroke="#bfbfbf" points="460,-98.5 460,-128.5 574,-128.5 574,-98.5 460,-98.5"/>
<text text-anchor="start" x="468" y="-116.5" font-family="Helvetica,sans-Serif" font-size="10.00">std::unordered_map</text>
<text text-anchor="middle" x="517" y="-105.5" font-family="Helvetica,sans-Serif" font-size="10.00">&lt; K, T &gt;</text>
</a>
</g>
</g>
<!-- Node5&#45;&gt;Node24 -->
<g id="edge36" class="edge">
<title>Node5&#45;&gt;Node24</title>
<path fill="none" stroke="#9a32cd" stroke-dasharray="5,2" d="M15.4,-439.53C16.33,-385.33 26.98,-234.83 114,-163.5 127.22,-152.66 352.41,-129.43 459.84,-118.89"/>
<polygon fill="#9a32cd" stroke="#9a32cd" points="11.9,-439.8 15.33,-449.83 18.9,-439.85 11.9,-439.8"/>
<text text-anchor="middle" x="173" y="-166.5" font-family="Helvetica,sans-Serif" font-size="10.00"> elements</text>
</g>
<!-- Node6 -->
<g id="node6" class="node">
<title>Node6</title>
<g id="a_node6"><a xlink:title=" ">
<polygon fill="white" stroke="#bfbfbf" points="766,-741.5 766,-771.5 893,-771.5 893,-741.5 766,-741.5"/>
<text text-anchor="start" x="774" y="-759.5" font-family="Helvetica,sans-Serif" font-size="10.00">std::array&lt; Ark::Value,</text>
<text text-anchor="middle" x="829.5" y="-748.5" font-family="Helvetica,sans-Serif" font-size="10.00"> VMStackSize &gt;</text>
</a>
</g>
</g>
<!-- Node6&#45;&gt;Node2 -->
<g id="edge5" class="edge">
<title>Node6&#45;&gt;Node2</title>
<path fill="none" stroke="#9a32cd" stroke-dasharray="5,2" d="M902.97,-745.06C945.1,-737.32 998.83,-725.56 1045,-709.5 1064.15,-702.84 1084.65,-692.84 1100.36,-684.5"/>
<polygon fill="#9a32cd" stroke="#9a32cd" points="902.29,-741.63 893.07,-746.85 903.53,-748.52 902.29,-741.63"/>
<text text-anchor="middle" x="997" y="-737.5" font-family="Helvetica,sans-Serif" font-size="10.00"> stack</text>
</g>
<!-- Node7 -->
<g id="node7" class="node">
<title>Node7</title>
<g id="a_node7"><a xlink:href="../../d3/d90/classArk_1_1Value.html" target="_top" xlink:title=" ">
<polygon fill="white" stroke="black" points="484,-559 484,-578 550,-578 550,-559 484,-559"/>
<text text-anchor="middle" x="517" y="-566" font-family="Helvetica,sans-Serif" font-size="10.00">Ark::Value</text>
</a>
</g>
</g>
<!-- Node7&#45;&gt;Node6 -->
<g id="edge6" class="edge">
<title>Node7&#45;&gt;Node6</title>
<path fill="none" stroke="#9a32cd" stroke-dasharray="5,2" d="M560.25,-575.35C575.37,-578.98 592.09,-584.43 606,-592.5 615.79,-598.18 614.85,-603.84 624,-610.5 658.71,-635.77 683.55,-620.68 710,-654.5 731.65,-682.18 703.33,-706.47 728,-731.5 738.16,-741.81 751.87,-748.1 765.89,-751.89"/>
<polygon fill="#9a32cd" stroke="#9a32cd" points="560.62,-571.85 550.1,-573.12 559.11,-578.68 560.62,-571.85"/>
<text text-anchor="middle" x="667" y="-657.5" font-family="Helvetica,sans-Serif" font-size="10.00"> elements</text>
</g>
<!-- Node12 -->
<g id="node12" class="node">
<title>Node12</title>
<g id="a_node12"><a xlink:href="../../d2/d93/classArk_1_1VM.html" target="_top" xlink:title="The ArkScript virtual machine, executing ArkScript bytecode.">
<polygon fill="white" stroke="black" points="1279,-369 1279,-388 1334,-388 1334,-369 1279,-369"/>
<text text-anchor="middle" x="1306.5" y="-376" font-family="Helvetica,sans-Serif" font-size="10.00">Ark::VM</text>
</a>
</g>
</g>
<!-- Node7&#45;&gt;Node12 -->
<g id="edge20" class="edge">
<title>Node7&#45;&gt;Node12</title>
<path fill="none" stroke="#9a32cd" stroke-dasharray="5,2" d="M560.25,-573.33C651,-583.2 861.92,-603.32 931,-585.5 1087.81,-545.05 1249.13,-423.38 1293.56,-388.15"/>
<polygon fill="#9a32cd" stroke="#9a32cd" points="560.63,-569.85 550.3,-572.24 559.86,-576.81 560.63,-569.85"/>
<text text-anchor="middle" x="997" y="-593.5" font-family="Helvetica,sans-Serif" font-size="10.00"> m_no_value</text>
<text text-anchor="middle" x="997" y="-582.5" font-family="Helvetica,sans-Serif" font-size="10.00">m_undefined_value</text>
</g>
<!-- Node21 -->
<g id="node21" class="node">
<title>Node21</title>
<g id="a_node21"><a xlink:title=" ">
<polygon fill="white" stroke="#bfbfbf" points="772.5,-236 772.5,-277 886.5,-277 886.5,-236 772.5,-236"/>
<text text-anchor="start" x="780.5" y="-265" font-family="Helvetica,sans-Serif" font-size="10.00">std::unordered_map</text>
<text text-anchor="start" x="780.5" y="-254" font-family="Helvetica,sans-Serif" font-size="10.00">&lt; std::string, Ark::</text>
<text text-anchor="middle" x="829.5" y="-243" font-family="Helvetica,sans-Serif" font-size="10.00">Value &gt;</text>
</a>
</g>
</g>
<!-- Node7&#45;&gt;Node21 -->
<g id="edge31" class="edge">
<title>Node7&#45;&gt;Node21</title>
<path fill="none" stroke="#9a32cd" stroke-dasharray="5,2" d="M560.4,-561.45C576.96,-556.58 594.66,-548.35 606,-534.5 635.99,-497.86 601.09,-470.93 624,-429.5 648.83,-384.6 682.59,-395.87 710,-352.5 725.1,-328.61 708.5,-311.96 728,-291.5 739.79,-279.13 756.18,-271.13 772.31,-265.95"/>
<polygon fill="#9a32cd" stroke="#9a32cd" points="559.1,-558.17 550.3,-564.07 560.86,-564.95 559.1,-558.17"/>
<text text-anchor="middle" x="667" y="-432.5" font-family="Helvetica,sans-Serif" font-size="10.00"> elements</text>
</g>
<!-- Node7&#45;&gt;Node26 -->
<g id="edge38" class="edge">
<title>Node7&#45;&gt;Node26</title>
<path fill="none" stroke="#9a32cd" stroke-dasharray="5,2" d="M560.22,-561.16C615.58,-551.53 712.79,-534.62 773.75,-524.02"/>
<polygon fill="#9a32cd" stroke="#9a32cd" points="559.31,-557.76 550.06,-562.92 560.51,-564.66 559.31,-557.76"/>
<text text-anchor="middle" x="667" y="-551.5" font-family="Helvetica,sans-Serif" font-size="10.00"> elements</text>
</g>
<!-- Node8&#45;&gt;Node6 -->
<g id="edge7" class="edge">
<title>Node8&#45;&gt;Node6</title>
<path fill="none" stroke="orange" stroke-dasharray="5,2" d="M386.64,-793.33C442.23,-790.96 530.11,-786.66 606,-780.5 660.02,-776.12 721.24,-769.38 765.77,-764.16"/>
<polygon fill="orange" stroke="orange" points="386.15,-789.85 376.31,-793.76 386.44,-796.84 386.15,-789.85"/>
<text text-anchor="middle" x="517" y="-793.5" font-family="Helvetica,sans-Serif" font-size="10.00"> &lt; Ark::Value, VMStackSize &gt;</text>
</g>
<!-- Node9&#45;&gt;Node2 -->
<g id="edge9" class="edge">
<title>Node9&#45;&gt;Node2</title>
<path fill="none" stroke="#9a32cd" stroke-dasharray="5,2" d="M904.28,-701.8C953.05,-694.73 1016.34,-685.55 1062.99,-678.78"/>
<polygon fill="#9a32cd" stroke="#9a32cd" points="903.5,-698.38 894.11,-703.28 904.51,-705.3 903.5,-698.38"/>
<text text-anchor="middle" x="997" y="-697.5" font-family="Helvetica,sans-Serif" font-size="10.00"> locals</text>
</g>
<!-- Node10 -->
<g id="node10" class="node">
<title>Node10</title>
<g id="a_node10"><a xlink:title=" ">
<polygon fill="white" stroke="#bfbfbf" points="446.5,-752 446.5,-771 587.5,-771 587.5,-752 446.5,-752"/>
<text text-anchor="middle" x="517" y="-759" font-family="Helvetica,sans-Serif" font-size="10.00">std::shared_ptr&lt; Scope &gt;</text>
</a>
</g>
</g>
<!-- Node10&#45;&gt;Node9 -->
<g id="edge10" class="edge">
<title>Node10&#45;&gt;Node9</title>
<path fill="none" stroke="#9a32cd" stroke-dasharray="5,2" d="M597.61,-752.75C632.25,-748.52 673.24,-742.96 710,-736.5 718.07,-735.08 719.98,-734.19 728,-732.5 744.71,-728.98 763.02,-725.29 779.38,-722.05"/>
<polygon fill="#9a32cd" stroke="#9a32cd" points="597.06,-749.29 587.55,-753.96 597.89,-756.24 597.06,-749.29"/>
<text text-anchor="middle" x="667" y="-751.5" font-family="Helvetica,sans-Serif" font-size="10.00"> elements</text>
</g>
<!-- Node11&#45;&gt;Node10 -->
<g id="edge11" class="edge">
<title>Node11&#45;&gt;Node10</title>
<path fill="none" stroke="orange" stroke-dasharray="5,2" d="M188.46,-688.16C202.42,-703.82 225.06,-725.83 250,-736.5 284.11,-751.1 379.49,-757.22 446.23,-759.75"/>
<polygon fill="orange" stroke="orange" points="190.81,-685.53 181.64,-680.22 185.5,-690.09 190.81,-685.53"/>
<text text-anchor="middle" x="330" y="-760.5" font-family="Helvetica,sans-Serif" font-size="10.00"> &lt; Scope &gt;</text>
</g>
<!-- Node29 -->
<g id="node29" class="node">
<title>Node29</title>
<g id="a_node29"><a xlink:title=" ">
<polygon fill="white" stroke="#bfbfbf" points="444.5,-655.5 444.5,-685.5 589.5,-685.5 589.5,-655.5 444.5,-655.5"/>
<text text-anchor="start" x="452.5" y="-673.5" font-family="Helvetica,sans-Serif" font-size="10.00">std::shared_ptr&lt; Ark</text>
<text text-anchor="middle" x="517" y="-662.5" font-family="Helvetica,sans-Serif" font-size="10.00">::internal::SharedLibrary &gt;</text>
</a>
</g>
</g>
<!-- Node11&#45;&gt;Node29 -->
<g id="edge47" class="edge">
<title>Node11&#45;&gt;Node29</title>
<path fill="none" stroke="orange" stroke-dasharray="5,2" d="M242.27,-670.5C300.8,-670.5 384.83,-670.5 444.32,-670.5"/>
<polygon fill="orange" stroke="orange" points="242.02,-667 232.02,-670.5 242.02,-674 242.02,-667"/>
<text text-anchor="middle" x="330" y="-673.5" font-family="Helvetica,sans-Serif" font-size="10.00"> &lt; Ark::internal::SharedLibrary &gt;</text>
</g>
<!-- Node12&#45;&gt;Node1 -->
<g id="edge14" class="edge">
<title>Node12&#45;&gt;Node1</title>
<path fill="none" stroke="#9a32cd" stroke-dasharray="5,2" d="M1328.4,-394.31C1360.3,-418.44 1420.18,-463.75 1446.52,-483.68"/>
<polygon fill="#9a32cd" stroke="#9a32cd" points="1330.28,-391.35 1320.2,-388.11 1326.06,-396.93 1330.28,-391.35"/>
<text text-anchor="middle" x="1369" y="-438.5" font-family="Helvetica,sans-Serif" font-size="10.00"> m_vm</text>
</g>
<!-- Node13&#45;&gt;Node12 -->
<g id="edge15" class="edge">
<title>Node13&#45;&gt;Node12</title>
<path fill="none" stroke="#9a32cd" stroke-dasharray="5,2" d="M911.12,-220.08C917.86,-222.2 924.56,-224.35 931,-226.5 1068.81,-272.4 1228.61,-343.45 1284.74,-368.97"/>
<polygon fill="#9a32cd" stroke="#9a32cd" points="911.82,-216.63 901.23,-217 909.74,-223.32 911.82,-216.63"/>
<text text-anchor="middle" x="1128" y="-330.5" font-family="Helvetica,sans-Serif" font-size="10.00"> m_execution_contexts</text>
</g>
<!-- Node14 -->
<g id="node14" class="node">
<title>Node14</title>
<g id="a_node14"><a xlink:title=" ">
<polygon fill="white" stroke="#bfbfbf" points="435.5,-49.5 435.5,-79.5 598.5,-79.5 598.5,-49.5 435.5,-49.5"/>
<text text-anchor="start" x="443.5" y="-67.5" font-family="Helvetica,sans-Serif" font-size="10.00">std::unique_ptr&lt; Ark</text>
<text text-anchor="middle" x="517" y="-56.5" font-family="Helvetica,sans-Serif" font-size="10.00">::internal::ExecutionContext &gt;</text>
</a>
</g>
</g>
<!-- Node14&#45;&gt;Node13 -->
<g id="edge16" class="edge">
<title>Node14&#45;&gt;Node13</title>
<path fill="none" stroke="#9a32cd" stroke-dasharray="5,2" d="M591.71,-82.83C596.6,-84.59 601.41,-86.48 606,-88.5 664.69,-114.33 669.75,-138.71 728,-165.5 736.29,-169.31 745.18,-172.82 754.12,-176"/>
<polygon fill="#9a32cd" stroke="#9a32cd" points="592.82,-79.51 582.22,-79.61 590.57,-86.14 592.82,-79.51"/>
<text text-anchor="middle" x="667" y="-159.5" font-family="Helvetica,sans-Serif" font-size="10.00"> elements</text>
</g>
<!-- Node15&#45;&gt;Node14 -->
<g id="edge17" class="edge">
<title>Node15&#45;&gt;Node14</title>
<path fill="none" stroke="orange" stroke-dasharray="5,2" d="M242.32,-52.17C289.47,-51.65 353.57,-51.72 410,-54.5 418.22,-54.9 426.78,-55.47 435.32,-56.13"/>
<polygon fill="orange" stroke="orange" points="242.19,-48.67 232.23,-52.29 242.27,-55.67 242.19,-48.67"/>
<text text-anchor="start" x="266" y="-68.5" font-family="Helvetica,sans-Serif" font-size="10.00"> &lt; Ark::internal::Execution</text>
<text text-anchor="middle" x="330" y="-57.5" font-family="Helvetica,sans-Serif" font-size="10.00">Context &gt;</text>
</g>
<!-- Node17 -->
<g id="node17" class="node">
<title>Node17</title>
<g id="a_node17"><a xlink:title=" ">
<polygon fill="white" stroke="#bfbfbf" points="458.5,-0.5 458.5,-30.5 575.5,-30.5 575.5,-0.5 458.5,-0.5"/>
<text text-anchor="start" x="466.5" y="-18.5" font-family="Helvetica,sans-Serif" font-size="10.00">std::unique_ptr&lt; Ark</text>
<text text-anchor="middle" x="517" y="-7.5" font-family="Helvetica,sans-Serif" font-size="10.00">::internal::Future &gt;</text>
</a>
</g>
</g>
<!-- Node15&#45;&gt;Node17 -->
<g id="edge23" class="edge">
<title>Node15&#45;&gt;Node17</title>
<path fill="none" stroke="orange" stroke-dasharray="5,2" d="M224.89,-41.87C233.25,-40.23 241.84,-38.69 250,-37.5 321.41,-27.07 404.39,-21.19 458.43,-18.18"/>
<polygon fill="orange" stroke="orange" points="223.95,-38.49 214.85,-43.92 225.35,-45.35 223.95,-38.49"/>
<text text-anchor="middle" x="330" y="-40.5" font-family="Helvetica,sans-Serif" font-size="10.00"> &lt; Ark::internal::Future &gt;</text>
</g>
<!-- Node16&#45;&gt;Node12 -->
<g id="edge21" class="edge">
<title>Node16&#45;&gt;Node12</title>
<path fill="none" stroke="#9a32cd" stroke-dasharray="5,2" d="M917.63,-125.1C1016.77,-112.03 1175.94,-109.16 1261,-203.5 1305.3,-252.62 1306.8,-339.65 1305.96,-368.73"/>
<polygon fill="#9a32cd" stroke="#9a32cd" points="917.06,-121.64 907.63,-126.47 918.01,-128.58 917.06,-121.64"/>
<text text-anchor="middle" x="1128" y="-155.5" font-family="Helvetica,sans-Serif" font-size="10.00"> m_futures</text>
</g>
<!-- Node17&#45;&gt;Node16 -->
<g id="edge22" class="edge">
<title>Node17&#45;&gt;Node16</title>
<path fill="none" stroke="#9a32cd" stroke-dasharray="5,2" d="M585.29,-32.63C592.34,-34.78 599.35,-37.09 606,-39.5 677.5,-65.44 757.8,-104.97 799.63,-126.41"/>
<polygon fill="#9a32cd" stroke="#9a32cd" points="586.29,-29.27 575.7,-29.78 584.29,-35.98 586.29,-29.27"/>
<text text-anchor="middle" x="667" y="-84.5" font-family="Helvetica,sans-Serif" font-size="10.00"> elements</text>
</g>
<!-- Node18 -->
<g id="node18" class="node">
<title>Node18</title>
<g id="a_node18"><a xlink:title=" ">
<polygon fill="white" stroke="#bfbfbf" points="1093.5,-199 1093.5,-218 1162.5,-218 1162.5,-199 1093.5,-199"/>
<text text-anchor="middle" x="1128" y="-206" font-family="Helvetica,sans-Serif" font-size="10.00">std::mutex</text>
</a>
</g>
</g>
<!-- Node18&#45;&gt;Node12 -->
<g id="edge25" class="edge">
<title>Node18&#45;&gt;Node12</title>
<path fill="none" stroke="#9a32cd" stroke-dasharray="5,2" d="M1172.73,-204.32C1201.11,-204.04 1237.13,-208.6 1261,-229.5 1303.25,-266.49 1306.22,-341.74 1305.85,-368.65"/>
<polygon fill="#9a32cd" stroke="#9a32cd" points="1172.54,-200.82 1162.65,-204.62 1172.75,-207.82 1172.54,-200.82"/>
<text text-anchor="middle" x="1236" y="-232.5" font-family="Helvetica,sans-Serif" font-size="10.00"> m_mutex</text>
</g>
<!-- Node19&#45;&gt;Node12 -->
<g id="edge26" class="edge">
<title>Node19&#45;&gt;Node12</title>
<path fill="none" stroke="#9a32cd" stroke-dasharray="5,2" d="M1170.94,-378.5C1204.39,-378.5 1250.22,-378.5 1278.83,-378.5"/>
<polygon fill="#9a32cd" stroke="#9a32cd" points="1170.55,-375 1160.55,-378.5 1170.55,-382 1170.55,-375"/>
<text text-anchor="middle" x="1236" y="-381.5" font-family="Helvetica,sans-Serif" font-size="10.00"> m_state</text>
</g>
<!-- Node20&#45;&gt;Node19 -->
<g id="edge27" class="edge">
<title>Node20&#45;&gt;Node19</title>
<path fill="none" stroke="#9a32cd" stroke-dasharray="5,2" d="M889.08,-452.87C932.59,-443.61 993.12,-429.43 1045,-412.5 1066.39,-405.52 1090.05,-395.44 1106.44,-388.07"/>
<polygon fill="#9a32cd" stroke="#9a32cd" points="888.3,-449.46 879.23,-454.94 889.74,-456.31 888.3,-449.46"/>
<text text-anchor="middle" x="997" y="-441.5" font-family="Helvetica,sans-Serif" font-size="10.00"> m_pages</text>
</g>
<!-- Node21&#45;&gt;Node19 -->
<g id="edge30" class="edge">
<title>Node21&#45;&gt;Node19</title>
<path fill="none" stroke="#9a32cd" stroke-dasharray="5,2" d="M896.73,-261.5C950,-266.42 1019.95,-275.14 1045,-288.5 1081.37,-307.9 1109.91,-349.96 1121.45,-368.91"/>
<polygon fill="#9a32cd" stroke="#9a32cd" points="896.92,-258.01 886.65,-260.6 896.3,-264.98 896.92,-258.01"/>
<text text-anchor="middle" x="997" y="-291.5" font-family="Helvetica,sans-Serif" font-size="10.00"> m_binded</text>
</g>
<!-- Node22 -->
<g id="node22" class="node">
<title>Node22</title>
<g id="a_node22"><a xlink:title=" ">
<polygon fill="white" stroke="#bfbfbf" points="484.5,-291 484.5,-310 549.5,-310 549.5,-291 484.5,-291"/>
<text text-anchor="middle" x="517" y="-298" font-family="Helvetica,sans-Serif" font-size="10.00">std::string</text>
</a>
</g>
</g>
<!-- Node22&#45;&gt;Node19 -->
<g id="edge41" class="edge">
<title>Node22&#45;&gt;Node19</title>
<path fill="none" stroke="#9a32cd" stroke-dasharray="5,2" d="M559.96,-300.15C634.88,-300.09 796.45,-302.57 931,-322.5 982.61,-330.14 994.93,-335.83 1045,-350.5 1063.91,-356.04 1084.94,-363.24 1100.97,-368.95"/>
<polygon fill="#9a32cd" stroke="#9a32cd" points="559.54,-296.65 549.55,-300.17 559.55,-303.65 559.54,-296.65"/>
<text text-anchor="middle" x="829.5" y="-325.5" font-family="Helvetica,sans-Serif" font-size="10.00"> m_filename</text>
</g>
<!-- Node22&#45;&gt;Node21 -->
<g id="edge32" class="edge">
<title>Node22&#45;&gt;Node21</title>
<path fill="none" stroke="#9a32cd" stroke-dasharray="5,2" d="M559.85,-294.57C614.76,-286.79 711.31,-273.11 772.48,-264.44"/>
<polygon fill="#9a32cd" stroke="#9a32cd" points="559.18,-291.13 549.77,-296 560.16,-298.06 559.18,-291.13"/>
<text text-anchor="middle" x="667" y="-287.5" font-family="Helvetica,sans-Serif" font-size="10.00"> keys</text>
</g>
<!-- Node22&#45;&gt;Node27 -->
<g id="edge43" class="edge">
<title>Node22&#45;&gt;Node27</title>
<path fill="none" stroke="#9a32cd" stroke-dasharray="5,2" d="M559.64,-310.8C579.11,-315.4 602.66,-320.63 624,-324.5 668.78,-332.62 719.46,-339.57 759.16,-344.52"/>
<polygon fill="#9a32cd" stroke="#9a32cd" points="560.4,-307.39 549.86,-308.47 558.77,-314.2 560.4,-307.39"/>
<text text-anchor="middle" x="667" y="-340.5" font-family="Helvetica,sans-Serif" font-size="10.00"> elements</text>
</g>
<!-- Node23 -->
<g id="node23" class="node">
<title>Node23</title>
<g id="a_node23"><a xlink:title=" ">
<polygon fill="white" stroke="#bfbfbf" points="121,-183.5 121,-213.5 225,-213.5 225,-183.5 121,-183.5"/>
<text text-anchor="start" x="129" y="-201.5" font-family="Helvetica,sans-Serif" font-size="10.00">std::basic_string&lt;</text>
<text text-anchor="middle" x="173" y="-190.5" font-family="Helvetica,sans-Serif" font-size="10.00"> Char &gt;</text>
</a>
</g>
</g>
<!-- Node23&#45;&gt;Node22 -->
<g id="edge33" class="edge">
<title>Node23&#45;&gt;Node22</title>
<path fill="none" stroke="midnightblue" d="M234.44,-216.53C307.43,-238.3 427.47,-274.1 484.29,-291.04"/>
<polygon fill="midnightblue" stroke="midnightblue" points="235.05,-213.05 224.46,-213.55 233.05,-219.76 235.05,-213.05"/>
</g>
<!-- Node24&#45;&gt;Node21 -->
<g id="edge34" class="edge">
<title>Node24&#45;&gt;Node21</title>
<path fill="none" stroke="orange" stroke-dasharray="5,2" d="M583.78,-130.34C591.7,-133.94 599.33,-138.28 606,-143.5 617.65,-152.62 613.1,-161.49 624,-171.5 662.51,-206.87 679.6,-206.7 728,-226.5 742.07,-232.26 757.66,-237.45 772.27,-241.83"/>
<polygon fill="orange" stroke="orange" points="584.97,-127.04 574.39,-126.44 582.28,-133.51 584.97,-127.04"/>
<text text-anchor="start" x="624" y="-232.5" font-family="Helvetica,sans-Serif" font-size="10.00"> &lt; std::string, Ark</text>
<text text-anchor="middle" x="667" y="-221.5" font-family="Helvetica,sans-Serif" font-size="10.00">::Value &gt;</text>
</g>
<!-- Node25 -->
<g id="node25" class="node">
<title>Node25</title>
<g id="a_node25"><a xlink:title=" ">
<polygon fill="white" stroke="#bfbfbf" points="158.5,-85 158.5,-104 187.5,-104 187.5,-85 158.5,-85"/>
<text text-anchor="middle" x="173" y="-92" font-family="Helvetica,sans-Serif" font-size="10.00">K</text>
</a>
</g>
</g>
<!-- Node25&#45;&gt;Node24 -->
<g id="edge35" class="edge">
<title>Node25&#45;&gt;Node24</title>
<path fill="none" stroke="#9a32cd" stroke-dasharray="5,2" d="M198.13,-95.84C252.19,-98.84 384.18,-106.18 459.99,-110.39"/>
<polygon fill="#9a32cd" stroke="#9a32cd" points="198.01,-92.33 187.83,-95.27 197.62,-99.32 198.01,-92.33"/>
<text text-anchor="middle" x="330" y="-110.5" font-family="Helvetica,sans-Serif" font-size="10.00"> keys</text>
</g>
<!-- Node26&#45;&gt;Node19 -->
<g id="edge37" class="edge">
<title>Node26&#45;&gt;Node19</title>
<path fill="none" stroke="#9a32cd" stroke-dasharray="5,2" d="M901.57,-502.9C944.96,-493.78 1000.46,-478.35 1045,-453.5 1076.5,-435.92 1105.74,-404 1119.21,-388.08"/>
<polygon fill="#9a32cd" stroke="#9a32cd" points="900.76,-499.49 891.66,-504.92 902.16,-506.35 900.76,-499.49"/>
<text text-anchor="middle" x="997" y="-493.5" font-family="Helvetica,sans-Serif" font-size="10.00"> m_constants</text>
</g>
<!-- Node27&#45;&gt;Node19 -->
<g id="edge42" class="edge">
<title>Node27&#45;&gt;Node19</title>
<path fill="none" stroke="#9a32cd" stroke-dasharray="5,2" d="M909.88,-353.44C950.42,-354.62 1000.47,-357.15 1045,-362.5 1061.71,-364.51 1080.11,-367.98 1095.24,-371.18"/>
<polygon fill="#9a32cd" stroke="#9a32cd" points="909.87,-349.94 899.78,-353.17 909.68,-356.93 909.87,-349.94"/>
<text text-anchor="middle" x="997" y="-376.5" font-family="Helvetica,sans-Serif" font-size="10.00"> m_libenv</text>
<text text-anchor="middle" x="997" y="-365.5" font-family="Helvetica,sans-Serif" font-size="10.00">m_symbols</text>
</g>
<!-- Node28&#45;&gt;Node12 -->
<g id="edge45" class="edge">
<title>Node28&#45;&gt;Node12</title>
<path fill="none" stroke="#9a32cd" stroke-dasharray="5,2" d="M940.98,-643.3C1060.79,-625.82 1238.1,-596.71 1261,-574.5 1288.3,-548.02 1301.37,-424.51 1304.65,-388.42"/>
<polygon fill="#9a32cd" stroke="#9a32cd" points="940.41,-639.84 931.02,-644.74 941.42,-646.77 940.41,-639.84"/>
<text text-anchor="middle" x="1128" y="-625.5" font-family="Helvetica,sans-Serif" font-size="10.00"> m_shared_lib_objects</text>
</g>
<!-- Node29&#45;&gt;Node28 -->
<g id="edge46" class="edge">
<title>Node29&#45;&gt;Node28</title>
<path fill="none" stroke="#9a32cd" stroke-dasharray="5,2" d="M599.98,-671.65C634.03,-671.71 673.94,-671.26 710,-669.5 715.78,-669.22 721.71,-668.86 727.69,-668.46"/>
<polygon fill="#9a32cd" stroke="#9a32cd" points="599.63,-668.15 589.61,-671.61 599.6,-675.15 599.63,-668.15"/>
<text text-anchor="middle" x="667" y="-674.5" font-family="Helvetica,sans-Serif" font-size="10.00"> elements</text>
</g>
</g>
</svg>
