<?xml version="1.0" encoding="UTF-8" standalone="no"?>
<!DOCTYPE svg PUBLIC "-//W3C//DTD SVG 1.1//EN"
 "http://www.w3.org/Graphics/SVG/1.1/DTD/svg11.dtd">
<!-- Generated by graphviz version 2.43.0 (0)
 -->
<!-- Title: /home/fola/code/Ark/include/Ark/Utils.hpp Pages: 1 -->
<svg width="1473pt" height="184pt"
 viewBox="0.00 0.00 1473.00 184.00" xmlns="http://www.w3.org/2000/svg" xmlns:xlink="http://www.w3.org/1999/xlink">
<g id="graph0" class="graph" transform="scale(1 1) rotate(0) translate(4 180)">
<title>/home/fola/code/Ark/include/Ark/Utils.hpp</title>
<polygon fill="white" stroke="transparent" points="-4,4 -4,-180 1469,-180 1469,4 -4,4"/>
<!-- Node1 -->
<g id="node1" class="node">
<title>Node1</title>
<g id="a_node1"><a xlink:title="Lots of utilities about string, filesystem and more.">
<polygon fill="#bfbfbf" stroke="black" points="675,-145.5 675,-175.5 796,-175.5 796,-145.5 675,-145.5"/>
<text text-anchor="start" x="683" y="-163.5" font-family="Helvetica,sans-Serif" font-size="10.00">/home/fola/code/Ark</text>
<text text-anchor="middle" x="735.5" y="-152.5" font-family="Helvetica,sans-Serif" font-size="10.00">/include/Ark/Utils.hpp</text>
</a>
</g>
</g>
<!-- Node2 -->
<g id="node2" class="node">
<title>Node2</title>
<g id="a_node2"><a xlink:href="../../d3/d7e/Ark_8hpp.html" target="_top" xlink:title="Includes the needed files to start using ArkScript.">
<polygon fill="white" stroke="black" points="79,-73 79,-103 194,-103 194,-73 79,-73"/>
<text text-anchor="start" x="87" y="-91" font-family="Helvetica,sans-Serif" font-size="10.00">/home/fola/code/Ark</text>
<text text-anchor="middle" x="136.5" y="-80" font-family="Helvetica,sans-Serif" font-size="10.00">/include/Ark/Ark.hpp</text>
</a>
</g>
</g>
<!-- Node1&#45;&gt;Node2 -->
<g id="edge1" class="edge">
<title>Node1&#45;&gt;Node2</title>
<path fill="none" stroke="midnightblue" d="M664.48,-157.17C561.87,-152.8 366.6,-140.77 203.5,-109 195.52,-107.45 187.12,-105.33 179.08,-103.06"/>
<polygon fill="midnightblue" stroke="midnightblue" points="664.58,-160.67 674.71,-157.59 664.87,-153.68 664.58,-160.67"/>
</g>
<!-- Node5 -->
<g id="node5" class="node">
<title>Node5</title>
<g id="a_node5"><a xlink:href="../../d2/d15/Lexer_8cpp.html" target="_top" xlink:title=" ">
<polygon fill="white" stroke="black" points="212.5,-67.5 212.5,-108.5 346.5,-108.5 346.5,-67.5 212.5,-67.5"/>
<text text-anchor="start" x="220.5" y="-96.5" font-family="Helvetica,sans-Serif" font-size="10.00">/home/fola/code/Ark</text>
<text text-anchor="start" x="220.5" y="-85.5" font-family="Helvetica,sans-Serif" font-size="10.00">/src/arkreactor/Compiler</text>
<text text-anchor="middle" x="279.5" y="-74.5" font-family="Helvetica,sans-Serif" font-size="10.00">/AST/Lexer.cpp</text>
</a>
</g>
</g>
<!-- Node1&#45;&gt;Node5 -->
<g id="edge4" class="edge">
<title>Node1&#45;&gt;Node5</title>
<path fill="none" stroke="midnightblue" d="M664.88,-152.79C588.25,-144.88 462.51,-130.11 355.5,-109 352.56,-108.42 349.56,-107.79 346.53,-107.13"/>
<polygon fill="midnightblue" stroke="midnightblue" points="664.59,-156.28 674.9,-153.81 665.31,-149.31 664.59,-156.28"/>
</g>
<!-- Node6 -->
<g id="node6" class="node">
<title>Node6</title>
<g id="a_node6"><a xlink:href="../../d9/db7/makeErrorCtx_8cpp.html" target="_top" xlink:title=" ">
<polygon fill="white" stroke="black" points="364.5,-67.5 364.5,-108.5 498.5,-108.5 498.5,-67.5 364.5,-67.5"/>
<text text-anchor="start" x="372.5" y="-96.5" font-family="Helvetica,sans-Serif" font-size="10.00">/home/fola/code/Ark</text>
<text text-anchor="start" x="372.5" y="-85.5" font-family="Helvetica,sans-Serif" font-size="10.00">/src/arkreactor/Compiler</text>
<text text-anchor="middle" x="431.5" y="-74.5" font-family="Helvetica,sans-Serif" font-size="10.00">/AST/makeErrorCtx.cpp</text>
</a>
</g>
</g>
<!-- Node1&#45;&gt;Node6 -->
<g id="edge5" class="edge">
<title>Node1&#45;&gt;Node6</title>
<path fill="none" stroke="midnightblue" d="M664.89,-144.61C619.77,-134.91 560.07,-121.73 507.5,-109 504.58,-108.29 501.61,-107.56 498.6,-106.81"/>
<polygon fill="midnightblue" stroke="midnightblue" points="664.35,-148.07 674.86,-146.75 665.82,-141.23 664.35,-148.07"/>
</g>
<!-- Node7 -->
<g id="node7" class="node">
<title>Node7</title>
<g id="a_node7"><a xlink:href="../../d5/d36/BytecodeReader_8cpp.html" target="_top" xlink:title=" ">
<polygon fill="white" stroke="black" points="516.5,-67.5 516.5,-108.5 650.5,-108.5 650.5,-67.5 516.5,-67.5"/>
<text text-anchor="start" x="524.5" y="-96.5" font-family="Helvetica,sans-Serif" font-size="10.00">/home/fola/code/Ark</text>
<text text-anchor="start" x="524.5" y="-85.5" font-family="Helvetica,sans-Serif" font-size="10.00">/src/arkreactor/Compiler</text>
<text text-anchor="middle" x="583.5" y="-74.5" font-family="Helvetica,sans-Serif" font-size="10.00">/BytecodeReader.cpp</text>
</a>
</g>
</g>
<!-- Node1&#45;&gt;Node7 -->
<g id="edge6" class="edge">
<title>Node1&#45;&gt;Node7</title>
<path fill="none" stroke="midnightblue" d="M695.89,-141.13C674.31,-131.12 647.61,-118.73 625.64,-108.55"/>
<polygon fill="midnightblue" stroke="midnightblue" points="694.56,-144.37 705.11,-145.4 697.51,-138.02 694.56,-144.37"/>
</g>
<!-- Node8 -->
<g id="node8" class="node">
<title>Node8</title>
<g id="a_node8"><a xlink:href="../../de/dfa/Compiler_8cpp.html" target="_top" xlink:title=" ">
<polygon fill="white" stroke="black" points="668.5,-67.5 668.5,-108.5 802.5,-108.5 802.5,-67.5 668.5,-67.5"/>
<text text-anchor="start" x="676.5" y="-96.5" font-family="Helvetica,sans-Serif" font-size="10.00">/home/fola/code/Ark</text>
<text text-anchor="start" x="676.5" y="-85.5" font-family="Helvetica,sans-Serif" font-size="10.00">/src/arkreactor/Compiler</text>
<text text-anchor="middle" x="735.5" y="-74.5" font-family="Helvetica,sans-Serif" font-size="10.00">/Compiler.cpp</text>
</a>
</g>
</g>
<!-- Node1&#45;&gt;Node8 -->
<g id="edge7" class="edge">
<title>Node1&#45;&gt;Node8</title>
<path fill="none" stroke="midnightblue" d="M735.5,-134.98C735.5,-126.35 735.5,-116.76 735.5,-108.59"/>
<polygon fill="midnightblue" stroke="midnightblue" points="732,-135.23 735.5,-145.23 739,-135.23 732,-135.23"/>
</g>
<!-- Node9 -->
<g id="node9" class="node">
<title>Node9</title>
<g id="a_node9"><a xlink:href="../../de/d06/arkreactor_2Utils_8cpp.html" target="_top" xlink:title=" ">
<polygon fill="white" stroke="black" points="821,-73 821,-103 954,-103 954,-73 821,-73"/>
<text text-anchor="start" x="829" y="-91" font-family="Helvetica,sans-Serif" font-size="10.00">/home/fola/code/Ark</text>
<text text-anchor="middle" x="887.5" y="-80" font-family="Helvetica,sans-Serif" font-size="10.00">/src/arkreactor/Utils.cpp</text>
</a>
</g>
</g>
<!-- Node1&#45;&gt;Node9 -->
<g id="edge8" class="edge">
<title>Node1&#45;&gt;Node9</title>
<path fill="none" stroke="midnightblue" d="M774.98,-141.19C800.63,-129.29 833.56,-114.02 857.16,-103.07"/>
<polygon fill="midnightblue" stroke="midnightblue" points="773.49,-138.02 765.89,-145.4 776.44,-144.37 773.49,-138.02"/>
</g>
<!-- Node10 -->
<g id="node10" class="node">
<title>Node10</title>
<g id="a_node10"><a xlink:href="../../d0/da0/State_8cpp.html" target="_top" xlink:title=" ">
<polygon fill="white" stroke="black" points="972,-73 972,-103 1127,-103 1127,-73 972,-73"/>
<text text-anchor="start" x="980" y="-91" font-family="Helvetica,sans-Serif" font-size="10.00">/home/fola/code/Ark</text>
<text text-anchor="middle" x="1049.5" y="-80" font-family="Helvetica,sans-Serif" font-size="10.00">/src/arkreactor/VM/State.cpp</text>
</a>
</g>
</g>
<!-- Node1&#45;&gt;Node10 -->
<g id="edge9" class="edge">
<title>Node1&#45;&gt;Node10</title>
<path fill="none" stroke="midnightblue" d="M805.99,-144.09C851.06,-134.18 910.75,-120.97 963.5,-109 971.87,-107.1 980.7,-105.07 989.37,-103.07"/>
<polygon fill="midnightblue" stroke="midnightblue" points="805.04,-140.71 796.02,-146.28 806.54,-147.55 805.04,-140.71"/>
</g>
<!-- Node11 -->
<g id="node11" class="node">
<title>Node11</title>
<g id="a_node11"><a xlink:href="../../d1/d74/Value_8cpp.html" target="_top" xlink:title=" ">
<polygon fill="white" stroke="black" points="1145.5,-73 1145.5,-103 1301.5,-103 1301.5,-73 1145.5,-73"/>
<text text-anchor="start" x="1153.5" y="-91" font-family="Helvetica,sans-Serif" font-size="10.00">/home/fola/code/Ark</text>
<text text-anchor="middle" x="1223.5" y="-80" font-family="Helvetica,sans-Serif" font-size="10.00">/src/arkreactor/VM/Value.cpp</text>
</a>
</g>
</g>
<!-- Node1&#45;&gt;Node11 -->
<g id="edge10" class="edge">
<title>Node1&#45;&gt;Node11</title>
<path fill="none" stroke="midnightblue" d="M806.26,-152.77C886.63,-144.61 1021.55,-129.4 1136.5,-109 1146.11,-107.29 1156.26,-105.22 1166.11,-103.05"/>
<polygon fill="midnightblue" stroke="midnightblue" points="805.85,-149.29 796.25,-153.77 806.55,-156.25 805.85,-149.29"/>
</g>
<!-- Node12 -->
<g id="node12" class="node">
<title>Node12</title>
<g id="a_node12"><a xlink:href="../../d2/d27/VM_8cpp.html" target="_top" xlink:title=" ">
<polygon fill="white" stroke="black" points="1320,-73 1320,-103 1465,-103 1465,-73 1320,-73"/>
<text text-anchor="start" x="1328" y="-91" font-family="Helvetica,sans-Serif" font-size="10.00">/home/fola/code/Ark</text>
<text text-anchor="middle" x="1392.5" y="-80" font-family="Helvetica,sans-Serif" font-size="10.00">/src/arkreactor/VM/VM.cpp</text>
</a>
</g>
</g>
<!-- Node1&#45;&gt;Node12 -->
<g id="edge11" class="edge">
<title>Node1&#45;&gt;Node12</title>
<path fill="none" stroke="midnightblue" d="M806.53,-156.73C915.55,-151.7 1130.42,-138.69 1310.5,-109 1320.04,-107.43 1330.11,-105.34 1339.81,-103.1"/>
<polygon fill="midnightblue" stroke="midnightblue" points="806.14,-153.24 796.31,-157.19 806.46,-160.24 806.14,-153.24"/>
</g>
<!-- Node3 -->
<g id="node3" class="node">
<title>Node3</title>
<g id="a_node3"><a xlink:href="../../dc/d32/Ark_8cpp.html" target="_top" xlink:title=" ">
<polygon fill="white" stroke="black" points="0,-0.5 0,-30.5 127,-30.5 127,-0.5 0,-0.5"/>
<text text-anchor="start" x="8" y="-18.5" font-family="Helvetica,sans-Serif" font-size="10.00">/home/fola/code/Ark</text>
<text text-anchor="middle" x="63.5" y="-7.5" font-family="Helvetica,sans-Serif" font-size="10.00">/src/arkreactor/Ark.cpp</text>
</a>
</g>
</g>
<!-- Node2&#45;&gt;Node3 -->
<g id="edge2" class="edge">
<title>Node2&#45;&gt;Node3</title>
<path fill="none" stroke="midnightblue" d="M114.43,-65.69C102.72,-54.37 88.63,-40.77 78.25,-30.75"/>
<polygon fill="midnightblue" stroke="midnightblue" points="112.1,-68.3 121.73,-72.73 116.97,-63.27 112.1,-68.3"/>
</g>
<!-- Node4 -->
<g id="node4" class="node">
<title>Node4</title>
<g id="a_node4"><a xlink:href="../../df/d0a/main_8cpp.html" target="_top" xlink:title=" ">
<polygon fill="white" stroke="black" points="145.5,-0.5 145.5,-30.5 273.5,-30.5 273.5,-0.5 145.5,-0.5"/>
<text text-anchor="start" x="153.5" y="-18.5" font-family="Helvetica,sans-Serif" font-size="10.00">/home/fola/code/Ark</text>
<text text-anchor="middle" x="209.5" y="-7.5" font-family="Helvetica,sans-Serif" font-size="10.00">/src/arkscript/main.cpp</text>
</a>
</g>
</g>
<!-- Node2&#45;&gt;Node4 -->
<g id="edge3" class="edge">
<title>Node2&#45;&gt;Node4</title>
<path fill="none" stroke="midnightblue" d="M158.57,-65.69C170.28,-54.37 184.37,-40.77 194.75,-30.75"/>
<polygon fill="midnightblue" stroke="midnightblue" points="156.03,-63.27 151.27,-72.73 160.9,-68.3 156.03,-63.27"/>
</g>
</g>
</svg>
