<?xml version="1.0" encoding="UTF-8" standalone="no"?>
<!DOCTYPE svg PUBLIC "-//W3C//DTD SVG 1.1//EN"
 "http://www.w3.org/Graphics/SVG/1.1/DTD/svg11.dtd">
<!-- Generated by graphviz version 12.1.1 (20240910.0053)
 -->
<!-- Title: /Users/fola/Documents/ArkScript/Ark/include/Ark/VM/Future.hpp Pages: 1 -->
<!--zoomable 326 -->

<svg id="main" version="1.1" xmlns="http://www.w3.org/2000/svg" xmlns:xlink="http://www.w3.org/1999/xlink" xml:space="preserve" onload="init(evt)">

<style type="text/css"><![CDATA[
.node, .edge {opacity: 0.7;}
.node.selected, .edge.selected {opacity: 1;}
.edge:hover path { stroke: red; }
.edge:hover polygon { stroke: red; fill: red; }
]]></style>

<defs>
  <circle id="rim" cx="0" cy="0" r="7"/>
  <circle id="rim2" cx="0" cy="0" r="3.5"/>
  <g id="zoomPlus">
    <use xlink:href="#rim" fill="#404040"><set attributeName="fill" to="#808080" begin="zoomplus.mouseover" end="zoomplus.mouseout"/></use>
    <path d="M-4,0h8M0,-4v8" fill="none" stroke="white" stroke-width="1.5" pointer-events="none"/>
  </g>
  <g id="zoomMin">
    <use xlink:href="#rim" fill="#404040"><set attributeName="fill" to="#808080" begin="zoomminus.mouseover" end="zoomminus.mouseout"/></use>
    <path d="M-4,0h8" fill="none" stroke="white" stroke-width="1.5" pointer-events="none"/>
  </g>
  <g id="arrowUp" transform="translate(30 24)">
    <use xlink:href="#rim"/>
    <path pointer-events="none" fill="none" stroke="white" stroke-width="1.5" d="M0,-3.0v7 M-2.5,-0.5L0,-3.0L2.5,-0.5"/>
  </g>
  <g id="arrowRight" transform="rotate(90) translate(36 -43)">
    <use xlink:href="#rim"/>
    <path pointer-events="none" fill="none" stroke="white" stroke-width="1.5" d="M0,-3.0v7 M-2.5,-0.5L0,-3.0L2.5,-0.5"/>
  </g>
  <g id="arrowDown" transform="rotate(180) translate(-30 -48)">
    <use xlink:href="#rim"/>
    <path pointer-events="none" fill="none" stroke="white" stroke-width="1.5" d="M0,-3.0v7 M-2.5,-0.5L0,-3.0L2.5,-0.5"/>
  </g>
  <g id="arrowLeft" transform="rotate(270) translate(-36 17)">
    <use xlink:href="#rim"/>
    <path pointer-events="none" fill="none" stroke="white" stroke-width="1.5" d="M0,-3.0v7 M-2.5,-0.5L0,-3.0L2.5,-0.5"/>
  </g>
  <g id="resetDef">
    <use xlink:href="#rim2" fill="#404040"><set attributeName="fill" to="#808080" begin="reset.mouseover" end="reset.mouseout"/></use>
  </g>
</defs>
<script type="application/ecmascript">
var viewWidth = 800;
var viewHeight = 326;
var sectionId = 'dynsection-0';
</script>
<script type="application/ecmascript" xlink:href="../../svg.min.js"/>
<svg id="graph" class="graph">
<g id="viewport">
<title>/Users/fola/Documents/ArkScript/Ark/include/Ark/VM/Future.hpp</title>
<!-- Node1 -->
<g id="Node000001" class="node">
<title>Node1</title>
<g id="a_Node000001"><a xlink:title=" ">
<polygon fill="#999999" stroke="#666666" points="260,-318 142.75,-318 142.75,-276.25 260,-276.25 260,-318"/>
<text text-anchor="start" x="150.75" y="-304.5" font-family="Helvetica,sans-Serif" font-size="10.00">/Users/fola/Documents</text>
<text text-anchor="start" x="150.75" y="-293.25" font-family="Helvetica,sans-Serif" font-size="10.00">/ArkScript/Ark/include</text>
<text text-anchor="middle" x="201.38" y="-282" font-family="Helvetica,sans-Serif" font-size="10.00">/Ark/VM/Future.hpp</text>
</a>
</g>
</g>
<!-- Node2 -->
<g id="Node000002" class="node">
<title>Node2</title>
<g id="a_Node000002"><a xlink:title=" ">
<polygon fill="#e0e0e0" stroke="#999999" points="40.75,-240.25 0,-240.25 0,-221 40.75,-221 40.75,-240.25"/>
<text text-anchor="middle" x="20.38" y="-226.75" font-family="Helvetica,sans-Serif" font-size="10.00">future</text>
</a>
</g>
</g>
<!-- Node1&#45;&gt;Node2 -->
<g id="edge1_Node000001_Node000002" class="edge">
<title>Node1&#45;&gt;Node2</title>
<g id="a_edge1_Node000001_Node000002"><a xlink:title=" ">
<path fill="none" stroke="#63b8ff" d="M144.6,-275.89C113.9,-264.95 77.15,-251.86 51.62,-242.76"/>
<polygon fill="#63b8ff" stroke="#63b8ff" points="53.1,-239.57 42.51,-239.51 50.75,-246.17 53.1,-239.57"/>
</a>
</g>
</g>
<!-- Node3 -->
<g id="Node000003" class="node">
<title>Node3</title>
<g id="a_Node000003"><a xlink:title=" ">
<polygon fill="#e0e0e0" stroke="#999999" points="115.88,-74.5 72.88,-74.5 72.88,-55.25 115.88,-55.25 115.88,-74.5"/>
<text text-anchor="middle" x="94.38" y="-61" font-family="Helvetica,sans-Serif" font-size="10.00">vector</text>
</a>
</g>
</g>
<!-- Node1&#45;&gt;Node3 -->
<g id="edge2_Node000001_Node000003" class="edge">
<title>Node1&#45;&gt;Node3</title>
<g id="a_edge2_Node000001_Node000003"><a xlink:title=" ">
<path fill="none" stroke="#63b8ff" d="M183.59,-275.85C165.85,-254.61 139.04,-219.57 123.38,-185 108.48,-152.13 100.6,-110.55 96.97,-86.22"/>
<polygon fill="#63b8ff" stroke="#63b8ff" points="100.45,-85.84 95.62,-76.41 93.52,-86.8 100.45,-85.84"/>
</a>
</g>
</g>
<!-- Node4 -->
<g id="Node000004" class="node">
<title>Node4</title>
<g id="a_Node000004"><a xlink:href="../../de/dfd/Value_8hpp.html" target="_top" xlink:title=" ">
<polygon fill="white" stroke="#666666" points="531.75,-129.75 437,-129.75 437,-110.5 531.75,-110.5 531.75,-129.75"/>
<text text-anchor="middle" x="484.38" y="-116.25" font-family="Helvetica,sans-Serif" font-size="10.00">Ark/VM/Value.hpp</text>
</a>
</g>
</g>
<!-- Node1&#45;&gt;Node4 -->
<g id="edge3_Node000001_Node000004" class="edge">
<title>Node1&#45;&gt;Node4</title>
<g id="a_edge3_Node000001_Node000004"><a xlink:title=" ">
<path fill="none" stroke="#63b8ff" d="M260.16,-287.3C353.12,-271.89 526.71,-236.73 557.38,-185 569.87,-163.93 544.59,-146.18 520.43,-134.78"/>
<polygon fill="#63b8ff" stroke="#63b8ff" points="521.86,-131.58 511.29,-130.76 519.04,-137.99 521.86,-131.58"/>
</a>
</g>
</g>
<!-- Node14 -->
<g id="Node000014" class="node">
<title>Node14</title>
<g id="a_Node000014"><a xlink:href="../../db/df6/ExecutionContext_8hpp.html" target="_top" xlink:title="Keeping track of the internal data needed by the VM.">
<polygon fill="white" stroke="#666666" points="447.75,-240.25 299,-240.25 299,-221 447.75,-221 447.75,-240.25"/>
<text text-anchor="middle" x="373.38" y="-226.75" font-family="Helvetica,sans-Serif" font-size="10.00">Ark/VM/ExecutionContext.hpp</text>
</a>
</g>
</g>
<!-- Node1&#45;&gt;Node14 -->
<g id="edge19_Node000001_Node000014" class="edge">
<title>Node1&#45;&gt;Node14</title>
<g id="a_edge19_Node000001_Node000014"><a xlink:title=" ">
<path fill="none" stroke="#63b8ff" d="M255.32,-275.89C282.54,-265.69 314.75,-253.61 338.65,-244.65"/>
<polygon fill="#63b8ff" stroke="#63b8ff" points="339.77,-247.96 347.91,-241.18 337.31,-241.41 339.77,-247.96"/>
</a>
</g>
</g>
<!-- Node4&#45;&gt;Node3 -->
<g id="edge4_Node000004_Node000003" class="edge">
<title>Node4&#45;&gt;Node3</title>
<g id="a_edge4_Node000004_Node000003"><a xlink:title=" ">
<path fill="none" stroke="#63b8ff" d="M436.8,-111.86C433.61,-111.4 430.45,-110.94 427.38,-110.5 317.71,-94.86 187.49,-77.86 127.57,-70.13"/>
<polygon fill="#63b8ff" stroke="#63b8ff" points="128.08,-66.67 117.71,-68.86 127.18,-73.61 128.08,-66.67"/>
</a>
</g>
</g>
<!-- Node5 -->
<g id="Node000005" class="node">
<title>Node5</title>
<g id="a_Node000005"><a xlink:title=" ">
<polygon fill="#e0e0e0" stroke="#999999" points="733,-74.5 687.75,-74.5 687.75,-55.25 733,-55.25 733,-74.5"/>
<text text-anchor="middle" x="710.38" y="-61" font-family="Helvetica,sans-Serif" font-size="10.00">variant</text>
</a>
</g>
</g>
<!-- Node4&#45;&gt;Node5 -->
<g id="edge5_Node000004_Node000005" class="edge">
<title>Node4&#45;&gt;Node5</title>
<g id="a_edge5_Node000004_Node000005"><a xlink:title=" ">
<path fill="none" stroke="#63b8ff" d="M526.73,-110.03C563.93,-101.9 619.75,-89.4 676.42,-75.17"/>
<polygon fill="#63b8ff" stroke="#63b8ff" points="677.08,-78.61 685.92,-72.77 675.36,-71.83 677.08,-78.61"/>
</a>
</g>
</g>
<!-- Node6 -->
<g id="Node000006" class="node">
<title>Node6</title>
<g id="a_Node000006"><a xlink:title=" ">
<polygon fill="#e0e0e0" stroke="#999999" points="657.38,-19.25 617.38,-19.25 617.38,0 657.38,0 657.38,-19.25"/>
<text text-anchor="middle" x="637.38" y="-5.75" font-family="Helvetica,sans-Serif" font-size="10.00">string</text>
</a>
</g>
</g>
<!-- Node4&#45;&gt;Node6 -->
<g id="edge6_Node000004_Node000006" class="edge">
<title>Node4&#45;&gt;Node6</title>
<g id="a_edge6_Node000004_Node000006"><a xlink:title=" ">
<path fill="none" stroke="#63b8ff" d="M532.12,-117.94C599.18,-115.14 716.03,-105.8 742.38,-74.5 766.52,-45.81 708.04,-26.41 668.99,-17.07"/>
<polygon fill="#63b8ff" stroke="#63b8ff" points="669.85,-13.67 659.33,-14.87 668.3,-20.5 669.85,-13.67"/>
</a>
</g>
</g>
<!-- Node7 -->
<g id="Node000007" class="node">
<title>Node7</title>
<g id="a_Node000007"><a xlink:title=" ">
<polygon fill="#e0e0e0" stroke="#999999" points="284.25,-19.25 228.5,-19.25 228.5,0 284.25,0 284.25,-19.25"/>
<text text-anchor="middle" x="256.38" y="-5.75" font-family="Helvetica,sans-Serif" font-size="10.00">cinttypes</text>
</a>
</g>
</g>
<!-- Node4&#45;&gt;Node7 -->
<g id="edge7_Node000004_Node000007" class="edge">
<title>Node4&#45;&gt;Node7</title>
<g id="a_edge7_Node000004_Node000007"><a xlink:title=" ">
<path fill="none" stroke="#63b8ff" d="M454.64,-110.02C429.53,-101.92 392.89,-89.11 362.38,-74.5 332.23,-60.07 299.58,-39.59 278.61,-25.75"/>
<polygon fill="#63b8ff" stroke="#63b8ff" points="280.82,-23.02 270.56,-20.38 276.94,-28.84 280.82,-23.02"/>
</a>
</g>
</g>
<!-- Node8 -->
<g id="Node000008" class="node">
<title>Node8</title>
<g id="a_Node000008"><a xlink:title=" ">
<polygon fill="#e0e0e0" stroke="#999999" points="286.25,-74.5 248.5,-74.5 248.5,-55.25 286.25,-55.25 286.25,-74.5"/>
<text text-anchor="middle" x="267.38" y="-61" font-family="Helvetica,sans-Serif" font-size="10.00">array</text>
</a>
</g>
</g>
<!-- Node4&#45;&gt;Node8 -->
<g id="edge8_Node000004_Node000008" class="edge">
<title>Node4&#45;&gt;Node8</title>
<g id="a_edge8_Node000004_Node000008"><a xlink:title=" ">
<path fill="none" stroke="#63b8ff" d="M445.91,-110.01C408.65,-101.12 350.58,-87.15 300.38,-74.5 299.4,-74.25 298.4,-74 297.39,-73.75"/>
<polygon fill="#63b8ff" stroke="#63b8ff" points="298.58,-70.44 288.02,-71.33 296.83,-77.21 298.58,-70.44"/>
</a>
</g>
</g>
<!-- Node9 -->
<g id="Node000009" class="node">
<title>Node9</title>
<g id="a_Node000009"><a xlink:href="../../dc/dd5/Closure_8hpp.html" target="_top" xlink:title="Subtype of the value type, handling closures.">
<polygon fill="white" stroke="#666666" points="670.12,-74.5 538.62,-74.5 538.62,-55.25 670.12,-55.25 670.12,-74.5"/>
<text text-anchor="middle" x="604.38" y="-61" font-family="Helvetica,sans-Serif" font-size="10.00">Ark/VM/Value/Closure.hpp</text>
</a>
</g>
</g>
<!-- Node4&#45;&gt;Node9 -->
<g id="edge9_Node000004_Node000009" class="edge">
<title>Node4&#45;&gt;Node9</title>
<g id="a_edge9_Node000004_Node000009"><a xlink:title=" ">
<path fill="none" stroke="#63b8ff" d="M504.73,-110.09C523.61,-101.72 551.96,-89.13 573.6,-79.53"/>
<polygon fill="#63b8ff" stroke="#63b8ff" points="574.81,-82.82 582.54,-75.57 571.98,-76.42 574.81,-82.82"/>
</a>
</g>
</g>
<!-- Node12 -->
<g id="Node000012" class="node">
<title>Node12</title>
<g id="a_Node000012"><a xlink:href="../../d5/d40/Platform_8hpp.html" target="_top" xlink:title="ArkScript configuration macros.">
<polygon fill="white" stroke="#666666" points="431.12,-19.25 341.62,-19.25 341.62,0 431.12,0 431.12,-19.25"/>
<text text-anchor="middle" x="386.38" y="-5.75" font-family="Helvetica,sans-Serif" font-size="10.00">Ark/Platform.hpp</text>
</a>
</g>
</g>
<!-- Node4&#45;&gt;Node12 -->
<g id="edge18_Node000004_Node000012" class="edge">
<title>Node4&#45;&gt;Node12</title>
<g id="a_edge18_Node000004_Node000012"><a xlink:title=" ">
<path fill="none" stroke="#63b8ff" d="M436.67,-112.95C412.84,-107.18 386.03,-96.04 371.38,-74.5 362.28,-61.12 367.89,-42.93 374.69,-29.38"/>
<polygon fill="#63b8ff" stroke="#63b8ff" points="377.55,-31.44 379.4,-21.01 371.45,-28.01 377.55,-31.44"/>
</a>
</g>
</g>
<!-- Node13 -->
<g id="Node000013" class="node">
<title>Node13</title>
<g id="a_Node000013"><a xlink:href="../../dc/d3d/UserType_8hpp.html" target="_top" xlink:title="Subtype of the value, capable of handling any C++ type.">
<polygon fill="white" stroke="#666666" points="520.25,-74.5 380.5,-74.5 380.5,-55.25 520.25,-55.25 520.25,-74.5"/>
<text text-anchor="middle" x="450.38" y="-61" font-family="Helvetica,sans-Serif" font-size="10.00">Ark/VM/Value/UserType.hpp</text>
</a>
</g>
</g>
<!-- Node4&#45;&gt;Node13 -->
<g id="edge14_Node000004_Node000013" class="edge">
<title>Node4&#45;&gt;Node13</title>
<g id="a_edge14_Node000004_Node000013"><a xlink:title=" ">
<path fill="none" stroke="#63b8ff" d="M478.76,-110.33C474.26,-103.28 467.79,-93.15 462.16,-84.33"/>
<polygon fill="#63b8ff" stroke="#63b8ff" points="465.26,-82.68 456.93,-76.13 459.36,-86.45 465.26,-82.68"/>
</a>
</g>
</g>
<!-- Node9&#45;&gt;Node6 -->
<g id="edge12_Node000009_Node000006" class="edge">
<title>Node9&#45;&gt;Node6</title>
<g id="a_edge12_Node000009_Node000006"><a xlink:title=" ">
<path fill="none" stroke="#63b8ff" d="M609.82,-55.08C614.15,-48.11 620.34,-38.12 625.76,-29.37"/>
<polygon fill="#63b8ff" stroke="#63b8ff" points="628.72,-31.24 631.01,-20.9 622.77,-27.55 628.72,-31.24"/>
</a>
</g>
</g>
<!-- Node10 -->
<g id="Node000010" class="node">
<title>Node10</title>
<g id="a_Node000010"><a xlink:title=" ">
<polygon fill="#e0e0e0" stroke="#999999" points="792,-19.25 740.75,-19.25 740.75,0 792,0 792,-19.25"/>
<text text-anchor="middle" x="766.38" y="-5.75" font-family="Helvetica,sans-Serif" font-size="10.00">memory</text>
</a>
</g>
</g>
<!-- Node9&#45;&gt;Node10 -->
<g id="edge10_Node000009_Node000010" class="edge">
<title>Node9&#45;&gt;Node10</title>
<g id="a_edge10_Node000009_Node000010"><a xlink:title=" ">
<path fill="none" stroke="#63b8ff" d="M631.86,-54.84C658.75,-46 699.9,-32.48 729.6,-22.71"/>
<polygon fill="#63b8ff" stroke="#63b8ff" points="730.52,-26.09 738.93,-19.65 728.34,-19.44 730.52,-26.09"/>
</a>
</g>
</g>
<!-- Node11 -->
<g id="Node000011" class="node">
<title>Node11</title>
<g id="a_Node000011"><a xlink:title=" ">
<polygon fill="#e0e0e0" stroke="#999999" points="538.12,-19.25 484.62,-19.25 484.62,0 538.12,0 538.12,-19.25"/>
<text text-anchor="middle" x="511.38" y="-5.75" font-family="Helvetica,sans-Serif" font-size="10.00">iostream</text>
</a>
</g>
</g>
<!-- Node9&#45;&gt;Node11 -->
<g id="edge11_Node000009_Node000011" class="edge">
<title>Node9&#45;&gt;Node11</title>
<g id="a_edge11_Node000009_Node000011"><a xlink:title=" ">
<path fill="none" stroke="#63b8ff" d="M588.6,-54.84C574.44,-46.73 553.39,-34.68 536.85,-25.21"/>
<polygon fill="#63b8ff" stroke="#63b8ff" points="538.96,-22.39 528.54,-20.45 535.48,-28.46 538.96,-22.39"/>
</a>
</g>
</g>
<!-- Node9&#45;&gt;Node12 -->
<g id="edge13_Node000009_Node000012" class="edge">
<title>Node9&#45;&gt;Node12</title>
<g id="a_edge13_Node000009_Node000012"><a xlink:title=" ">
<path fill="none" stroke="#63b8ff" d="M567.39,-54.84C530.83,-45.91 474.7,-32.2 434.64,-22.41"/>
<polygon fill="#63b8ff" stroke="#63b8ff" points="435.55,-19.03 425.01,-20.06 433.89,-25.83 435.55,-19.03"/>
</a>
</g>
</g>
<!-- Node13&#45;&gt;Node7 -->
<g id="edge16_Node000013_Node000007" class="edge">
<title>Node13&#45;&gt;Node7</title>
<g id="a_edge16_Node000013_Node000007"><a xlink:title=" ">
<path fill="none" stroke="#63b8ff" d="M417.47,-54.84C383.81,-45.6 331.53,-31.25 295.71,-21.42"/>
<polygon fill="#63b8ff" stroke="#63b8ff" points="296.74,-18.07 286.17,-18.8 294.88,-24.82 296.74,-18.07"/>
</a>
</g>
</g>
<!-- Node13&#45;&gt;Node11 -->
<g id="edge15_Node000013_Node000011" class="edge">
<title>Node13&#45;&gt;Node11</title>
<g id="a_edge15_Node000013_Node000011"><a xlink:title=" ">
<path fill="none" stroke="#63b8ff" d="M460.72,-54.84C469.45,-47.22 482.16,-36.12 492.67,-26.95"/>
<polygon fill="#63b8ff" stroke="#63b8ff" points="494.81,-29.73 500.04,-20.52 490.2,-24.46 494.81,-29.73"/>
</a>
</g>
</g>
<!-- Node13&#45;&gt;Node12 -->
<g id="edge17_Node000013_Node000012" class="edge">
<title>Node13&#45;&gt;Node12</title>
<g id="a_edge17_Node000013_Node000012"><a xlink:title=" ">
<path fill="none" stroke="#63b8ff" d="M439.52,-54.84C430.27,-47.15 416.75,-35.9 405.67,-26.68"/>
<polygon fill="#63b8ff" stroke="#63b8ff" points="408.16,-24.2 398.23,-20.49 403.68,-29.58 408.16,-24.2"/>
</a>
</g>
</g>
<!-- Node14&#45;&gt;Node4 -->
<g id="edge28_Node000014_Node000004" class="edge">
<title>Node14&#45;&gt;Node4</title>
<g id="a_edge28_Node000014_Node000004"><a xlink:title=" ">
<path fill="none" stroke="#63b8ff" d="M380.9,-220.6C391.63,-207.9 412.17,-184.25 431.38,-165.75 441.75,-155.76 454.01,-145.35 464.13,-137.1"/>
<polygon fill="#63b8ff" stroke="#63b8ff" points="466.26,-139.88 471.86,-130.89 461.87,-134.43 466.26,-139.88"/>
</a>
</g>
</g>
<!-- Node14&#45;&gt;Node8 -->
<g id="edge20_Node000014_Node000008" class="edge">
<title>Node14&#45;&gt;Node8</title>
<g id="a_edge20_Node000014_Node000008"><a xlink:title=" ">
<path fill="none" stroke="#63b8ff" d="M331.57,-220.53C311.89,-214.02 290,-203.08 277.38,-185 256.84,-155.6 259.47,-111.61 263.35,-86.13"/>
<polygon fill="#63b8ff" stroke="#63b8ff" points="266.77,-86.9 265.06,-76.44 259.87,-85.68 266.77,-86.9"/>
</a>
</g>
</g>
<!-- Node14&#45;&gt;Node10 -->
<g id="edge22_Node000014_Node000010" class="edge">
<title>Node14&#45;&gt;Node10</title>
<g id="a_edge22_Node000014_Node000010"><a xlink:title=" ">
<path fill="none" stroke="#63b8ff" d="M426.84,-220.51C464.18,-213.23 514.76,-201.49 557.38,-185 652.81,-148.07 702.47,-159.55 759.38,-74.5 767.93,-61.71 769.3,-44.16 768.74,-30.69"/>
<polygon fill="#63b8ff" stroke="#63b8ff" points="772.24,-30.5 767.92,-20.83 765.26,-31.09 772.24,-30.5"/>
</a>
</g>
</g>
<!-- Node15 -->
<g id="Node000015" class="node">
<title>Node15</title>
<g id="a_Node000015"><a xlink:title=" ">
<polygon fill="#e0e0e0" stroke="#999999" points="480,-185 440.75,-185 440.75,-165.75 480,-165.75 480,-185"/>
<text text-anchor="middle" x="460.38" y="-171.5" font-family="Helvetica,sans-Serif" font-size="10.00">limits</text>
</a>
</g>
</g>
<!-- Node14&#45;&gt;Node15 -->
<g id="edge21_Node000014_Node000015" class="edge">
<title>Node14&#45;&gt;Node15</title>
<g id="a_edge21_Node000014_Node000015"><a xlink:title=" ">
<path fill="none" stroke="#63b8ff" d="M388.13,-220.59C401.26,-212.56 420.7,-200.66 436.11,-191.23"/>
<polygon fill="#63b8ff" stroke="#63b8ff" points="437.55,-194.45 444.25,-186.24 433.9,-188.48 437.55,-194.45"/>
</a>
</g>
</g>
<!-- Node16 -->
<g id="Node000016" class="node">
<title>Node16</title>
<g id="a_Node000016"><a xlink:title=" ">
<polygon fill="#e0e0e0" stroke="#999999" points="548.25,-185 498.5,-185 498.5,-165.75 548.25,-165.75 548.25,-185"/>
<text text-anchor="middle" x="523.38" y="-171.5" font-family="Helvetica,sans-Serif" font-size="10.00">optional</text>
</a>
</g>
</g>
<!-- Node14&#45;&gt;Node16 -->
<g id="edge23_Node000014_Node000016" class="edge">
<title>Node14&#45;&gt;Node16</title>
<g id="a_edge23_Node000014_Node000016"><a xlink:title=" ">
<path fill="none" stroke="#63b8ff" d="M398.82,-220.59C423.14,-211.96 460.03,-198.86 487.36,-189.16"/>
<polygon fill="#63b8ff" stroke="#63b8ff" points="488.38,-192.51 496.63,-185.87 486.03,-185.92 488.38,-192.51"/>
</a>
</g>
</g>
<!-- Node17 -->
<g id="Node000017" class="node">
<title>Node17</title>
<g id="a_Node000017"><a xlink:href="../../d6/de9/Constants_8hpp.html" target="_top" xlink:title="Constants used by ArkScript.">
<polygon fill="white" stroke="#666666" points="384.25,-185 286.5,-185 286.5,-165.75 384.25,-165.75 384.25,-185"/>
<text text-anchor="middle" x="335.38" y="-171.5" font-family="Helvetica,sans-Serif" font-size="10.00">Ark/Constants.hpp</text>
</a>
</g>
</g>
<!-- Node14&#45;&gt;Node17 -->
<g id="edge24_Node000014_Node000017" class="edge">
<title>Node14&#45;&gt;Node17</title>
<g id="a_edge24_Node000014_Node000017"><a xlink:title=" ">
<path fill="none" stroke="#63b8ff" d="M367.1,-220.83C362.02,-213.71 354.68,-203.43 348.34,-194.55"/>
<polygon fill="#63b8ff" stroke="#63b8ff" points="351.32,-192.7 342.67,-186.59 345.63,-196.76 351.32,-192.7"/>
</a>
</g>
</g>
<!-- Node20 -->
<g id="Node000020" class="node">
<title>Node20</title>
<g id="a_Node000020"><a xlink:href="../../d8/dcd/Scope_8hpp.html" target="_top" xlink:title="The virtual machine scope system.">
<polygon fill="white" stroke="#666666" points="230.62,-185 132.12,-185 132.12,-165.75 230.62,-165.75 230.62,-185"/>
<text text-anchor="middle" x="181.38" y="-171.5" font-family="Helvetica,sans-Serif" font-size="10.00">Ark/VM/Scope.hpp</text>
</a>
</g>
</g>
<!-- Node14&#45;&gt;Node20 -->
<g id="edge29_Node000014_Node000020" class="edge">
<title>Node14&#45;&gt;Node20</title>
<g id="a_edge29_Node000014_Node000020"><a xlink:title=" ">
<path fill="none" stroke="#63b8ff" d="M340.8,-220.59C308.95,-211.76 260.22,-198.24 225.02,-188.48"/>
<polygon fill="#63b8ff" stroke="#63b8ff" points="226.14,-185.16 215.56,-185.86 224.26,-191.9 226.14,-185.16"/>
</a>
</g>
</g>
<!-- Node17&#45;&gt;Node7 -->
<g id="edge26_Node000017_Node000007" class="edge">
<title>Node17&#45;&gt;Node7</title>
<g id="a_edge26_Node000017_Node000007"><a xlink:title=" ">
<path fill="none" stroke="#63b8ff" d="M320.36,-165.39C296.83,-150.23 252.58,-116.99 239.38,-74.5 234.69,-59.41 239.96,-42.08 245.83,-29.28"/>
<polygon fill="#63b8ff" stroke="#63b8ff" points="248.78,-31.21 250.22,-20.72 242.55,-28.02 248.78,-31.21"/>
</a>
</g>
</g>
<!-- Node18 -->
<g id="Node000018" class="node">
<title>Node18</title>
<g id="a_Node000018"><a xlink:title=" ">
<polygon fill="#e0e0e0" stroke="#999999" points="352.12,-129.75 286.62,-129.75 286.62,-110.5 352.12,-110.5 352.12,-129.75"/>
<text text-anchor="middle" x="319.38" y="-116.25" font-family="Helvetica,sans-Serif" font-size="10.00">string_view</text>
</a>
</g>
</g>
<!-- Node17&#45;&gt;Node18 -->
<g id="edge25_Node000017_Node000018" class="edge">
<title>Node17&#45;&gt;Node18</title>
<g id="a_edge25_Node000017_Node000018"><a xlink:title=" ">
<path fill="none" stroke="#63b8ff" d="M332.73,-165.58C330.73,-158.92 327.9,-149.49 325.36,-141.03"/>
<polygon fill="#63b8ff" stroke="#63b8ff" points="328.74,-140.13 322.51,-131.56 322.04,-142.14 328.74,-140.13"/>
</a>
</g>
</g>
<!-- Node19 -->
<g id="Node000019" class="node">
<title>Node19</title>
<g id="a_Node000019"><a xlink:title=" ">
<polygon fill="#e0e0e0" stroke="#999999" points="418.5,-129.75 370.25,-129.75 370.25,-110.5 418.5,-110.5 418.5,-129.75"/>
<text text-anchor="middle" x="394.38" y="-116.25" font-family="Helvetica,sans-Serif" font-size="10.00">cstddef</text>
</a>
</g>
</g>
<!-- Node17&#45;&gt;Node19 -->
<g id="edge27_Node000017_Node000019" class="edge">
<title>Node17&#45;&gt;Node19</title>
<g id="a_edge27_Node000017_Node000019"><a xlink:title=" ">
<path fill="none" stroke="#63b8ff" d="M345.38,-165.34C353.74,-157.8 365.87,-146.85 375.98,-137.73"/>
<polygon fill="#63b8ff" stroke="#63b8ff" points="378.31,-140.34 383.39,-131.04 373.62,-135.14 378.31,-140.34"/>
</a>
</g>
</g>
<!-- Node20&#45;&gt;Node3 -->
<g id="edge30_Node000020_Node000003" class="edge">
<title>Node20&#45;&gt;Node3</title>
<g id="a_edge30_Node000020_Node000003"><a xlink:title=" ">
<path fill="none" stroke="#63b8ff" d="M168.98,-165.46C157.94,-157.1 141.8,-143.81 130.38,-129.75 119.2,-116 109.53,-98.31 103.04,-85.04"/>
<polygon fill="#63b8ff" stroke="#63b8ff" points="106.25,-83.65 98.83,-76.09 99.92,-86.63 106.25,-83.65"/>
</a>
</g>
</g>
<!-- Node20&#45;&gt;Node4 -->
<g id="edge33_Node000020_Node000004" class="edge">
<title>Node20&#45;&gt;Node4</title>
<g id="a_edge33_Node000020_Node000004"><a xlink:title=" ">
<path fill="none" stroke="#63b8ff" d="M231.07,-165.64C284.32,-156.28 368.79,-141.44 425.37,-131.49"/>
<polygon fill="#63b8ff" stroke="#63b8ff" points="425.92,-134.95 435.16,-129.77 424.71,-128.06 425.92,-134.95"/>
</a>
</g>
</g>
<!-- Node20&#45;&gt;Node7 -->
<g id="edge31_Node000020_Node000007" class="edge">
<title>Node20&#45;&gt;Node7</title>
<g id="a_edge31_Node000020_Node000007"><a xlink:title=" ">
<path fill="none" stroke="#63b8ff" d="M176.95,-165.49C167.19,-144.53 146.38,-91.06 168.38,-55.25 179.19,-37.64 199.36,-26.72 217.66,-20.09"/>
<polygon fill="#63b8ff" stroke="#63b8ff" points="218.56,-23.48 226.98,-17.05 216.39,-16.82 218.56,-23.48"/>
</a>
</g>
</g>
<!-- Node20&#45;&gt;Node12 -->
<g id="edge32_Node000020_Node000012" class="edge">
<title>Node20&#45;&gt;Node12</title>
<g id="a_edge32_Node000020_Node000012"><a xlink:title=" ">
<path fill="none" stroke="#63b8ff" d="M183.16,-165.4C188.04,-143.27 203.67,-85.7 239.38,-55.25 264.75,-33.61 300.4,-22.46 330.24,-16.72"/>
<polygon fill="#63b8ff" stroke="#63b8ff" points="330.62,-20.21 339.86,-15.04 329.41,-13.31 330.62,-20.21"/>
</a>
</g>
</g>
</g>
</svg>

<g id="navigator" transform="translate(0 0)" fill="#404254">
  <rect fill="#f2f5e9" fill-opacity="0.5" stroke="#606060" stroke-width=".5" x="0" y="0" width="60" height="60"/>
  <use id="zoomplus" xlink:href="#zoomPlus" x="17" y="9" onmousedown="handleZoom(evt,'in')"/>
  <use id="zoomminus" xlink:href="#zoomMin" x="42" y="9" onmousedown="handleZoom(evt,'out')"/>
  <use id="reset" xlink:href="#resetDef" x="30" y="36" onmousedown="handleReset()"/>
   <use id="arrowup" xlink:href="#arrowUp" x="0" y="0" onmousedown="handlePan(0,-1)"/>
  <use id="arrowright" xlink:href="#arrowRight" x="0" y="0" onmousedown="handlePan(1,0)"/>
  <use id="arrowdown" xlink:href="#arrowDown" x="0" y="0" onmousedown="handlePan(0,1)"/>
  <use id="arrowleft" xlink:href="#arrowLeft" x="0" y="0" onmousedown="handlePan(-1,0)"/>
</g>
<svg viewBox="0 0 15 15" width="100%" height="30px" preserveAspectRatio="xMaxYMin meet">
 <g id="arrow_out" transform="scale(0.3 0.3)">
  <a xlink:href="Future_8hpp__incl_org.svg" target="_base">
   <rect id="button" ry="5" rx="5" y="6" x="6" height="38" width="38"
        fill="#f2f5e9" fill-opacity="0.5" stroke="#606060" stroke-width="1.0"/>
   <path id="arrow"
     d="M 11.500037,31.436501 C 11.940474,20.09759 22.043105,11.32322 32.158766,21.979434 L 37.068811,17.246167 C 37.068811,17.246167 37.088388,32 37.088388,32 L 22.160133,31.978069 C 22.160133,31.978069 26.997745,27.140456 26.997745,27.140456 C 18.528582,18.264221 13.291696,25.230495 11.500037,31.436501 z"
     style="fill:#404040;"/>
  </a>
 </g>
</svg>

<style type='text/css'>
<![CDATA[
[data-mouse-over-selected='false'] { opacity: 0.7; }
[data-mouse-over-selected='true']  { opacity: 1.0; }
]]>
</style>
<script type="application/ecmascript"><![CDATA[
document.addEventListener('DOMContentLoaded', (event) => {
  highlightEdges();
  highlightAdjacentNodes();
});
]]></script>
</svg>
