<?xml version="1.0" encoding="UTF-8" standalone="no"?>
<!DOCTYPE svg PUBLIC "-//W3C//DTD SVG 1.1//EN"
 "http://www.w3.org/Graphics/SVG/1.1/DTD/svg11.dtd">
<!-- Generated by graphviz version 7.1.0 (20230121.1956)
 -->
<!-- Title: Ark::Repl Pages: 1 -->
<svg width="193pt" height="236pt"
 viewBox="0.00 0.00 192.50 236.00" xmlns="http://www.w3.org/2000/svg" xmlns:xlink="http://www.w3.org/1999/xlink">
<g id="graph0" class="graph" transform="scale(1 1) rotate(0) translate(4 232)">
<title>Ark::Repl</title>
<!-- Node1 -->
<g id="node1" class="node">
<title>Node1</title>
<g id="a_node1"><a xlink:title=" ">
<polygon fill="#999999" stroke="#666666" points="122.5,-19 64.5,-19 64.5,0 122.5,0 122.5,-19"/>
<text text-anchor="middle" x="93.5" y="-7" font-family="Helvetica,sans-Serif" font-size="10.00">Ark::Repl</text>
</a>
</g>
</g>
<!-- Node2 -->
<g id="node2" class="node">
<title>Node2</title>
<g id="a_node2"><a xlink:title=" ">
<polygon fill="white" stroke="#666666" points="156,-85 31,-85 31,-66 156,-66 156,-85"/>
<text text-anchor="middle" x="93.5" y="-73" font-family="Helvetica,sans-Serif" font-size="10.00">std::vector&lt; std::string &gt;</text>
</a>
</g>
</g>
<!-- Node2&#45;&gt;Node1 -->
<g id="edge1" class="edge">
<title>Node2&#45;&gt;Node1</title>
<path fill="none" stroke="#9a32cd" stroke-dasharray="5,2" d="M93.5,-54.18C93.5,-42.44 93.5,-28.27 93.5,-19.32"/>
<polygon fill="#9a32cd" stroke="#9a32cd" points="90,-54.09 93.5,-64.09 97,-54.09 90,-54.09"/>
<text text-anchor="middle" x="115" y="-40" font-family="Helvetica,sans-Serif" font-size="10.00"> m_libenv</text>
</g>
<!-- Node3 -->
<g id="node3" class="node">
<title>Node3</title>
<g id="a_node3"><a xlink:title=" ">
<polygon fill="white" stroke="#666666" points="77.5,-151 17.5,-151 17.5,-132 77.5,-132 77.5,-151"/>
<text text-anchor="middle" x="47.5" y="-139" font-family="Helvetica,sans-Serif" font-size="10.00">std::string</text>
</a>
</g>
</g>
<!-- Node3&#45;&gt;Node2 -->
<g id="edge2" class="edge">
<title>Node3&#45;&gt;Node2</title>
<path fill="none" stroke="#9a32cd" stroke-dasharray="5,2" d="M56.24,-121.61C59.43,-115.45 63.3,-108.73 67.5,-103 72.15,-96.66 78.27,-90.34 83.41,-85.47"/>
<polygon fill="#9a32cd" stroke="#9a32cd" points="53.19,-119.86 51.96,-130.39 59.48,-122.93 53.19,-119.86"/>
<text text-anchor="middle" x="89" y="-106" font-family="Helvetica,sans-Serif" font-size="10.00"> elements</text>
</g>
<!-- Node4 -->
<g id="node4" class="node">
<title>Node4</title>
<g id="a_node4"><a xlink:title=" ">
<polygon fill="white" stroke="#666666" points="95,-228 0,-228 0,-198 95,-198 95,-228"/>
<text text-anchor="start" x="8" y="-216" font-family="Helvetica,sans-Serif" font-size="10.00">std::basic_string&lt;</text>
<text text-anchor="middle" x="47.5" y="-205" font-family="Helvetica,sans-Serif" font-size="10.00"> Char &gt;</text>
</a>
</g>
</g>
<!-- Node4&#45;&gt;Node3 -->
<g id="edge3" class="edge">
<title>Node4&#45;&gt;Node3</title>
<path fill="none" stroke="#63b8ff" d="M47.5,-186.46C47.5,-174.07 47.5,-159.99 47.5,-151.18"/>
<polygon fill="#63b8ff" stroke="#63b8ff" points="44,-186.09 47.5,-196.09 51,-186.09 44,-186.09"/>
</g>
<!-- Node5 -->
<g id="node5" class="node">
<title>Node5</title>
<g id="a_node5"><a xlink:title=" ">
<polygon fill="white" stroke="#666666" points="183,-151 96,-151 96,-132 183,-132 183,-151"/>
<text text-anchor="middle" x="139.5" y="-139" font-family="Helvetica,sans-Serif" font-size="10.00">std::vector&lt; T &gt;</text>
</a>
</g>
</g>
<!-- Node5&#45;&gt;Node2 -->
<g id="edge4" class="edge">
<title>Node5&#45;&gt;Node2</title>
<path fill="none" stroke="orange" stroke-dasharray="5,2" d="M126.49,-122.4C117.77,-110.27 106.69,-94.84 99.84,-85.32"/>
<polygon fill="orange" stroke="orange" points="123.54,-124.29 132.22,-130.37 129.23,-120.21 123.54,-124.29"/>
<text text-anchor="middle" x="152" y="-106" font-family="Helvetica,sans-Serif" font-size="10.00"> &lt; std::string &gt;</text>
</g>
<!-- Node6 -->
<g id="node6" class="node">
<title>Node6</title>
<g id="a_node6"><a xlink:title=" ">
<polygon fill="white" stroke="#666666" points="154,-222.5 125,-222.5 125,-203.5 154,-203.5 154,-222.5"/>
<text text-anchor="middle" x="139.5" y="-210.5" font-family="Helvetica,sans-Serif" font-size="10.00">T</text>
</a>
</g>
</g>
<!-- Node6&#45;&gt;Node5 -->
<g id="edge5" class="edge">
<title>Node6&#45;&gt;Node5</title>
<path fill="none" stroke="#9a32cd" stroke-dasharray="5,2" d="M139.5,-191.8C139.5,-178.44 139.5,-161.59 139.5,-151.45"/>
<polygon fill="#9a32cd" stroke="#9a32cd" points="136,-191.68 139.5,-201.68 143,-191.68 136,-191.68"/>
<text text-anchor="middle" x="161" y="-172" font-family="Helvetica,sans-Serif" font-size="10.00"> elements</text>
</g>
</g>
</svg>
