<?xml version="1.0" encoding="UTF-8" standalone="no"?>
<!DOCTYPE svg PUBLIC "-//W3C//DTD SVG 1.1//EN"
 "http://www.w3.org/Graphics/SVG/1.1/DTD/svg11.dtd">
<!-- Generated by graphviz version 10.0.1 (20240210.2158)
 -->
<!-- Title: Ark::internal::BaseParser Pages: 1 -->
<svg width="931pt" height="203pt"
 viewBox="0.00 0.00 931.30 202.88" xmlns="http://www.w3.org/2000/svg" xmlns:xlink="http://www.w3.org/1999/xlink">
<g id="graph0" class="graph" transform="scale(1 1) rotate(0) translate(4 198.88)">
<title>Ark::internal::BaseParser</title>
<!-- Node1 -->
<g id="node1" class="node">
<title>Node1</title>
<g id="a_node1"><a xlink:title=" ">
<polygon fill="#999999" stroke="#666666" points="923.3,-102.25 797.8,-102.25 797.8,-83 923.3,-83 923.3,-102.25"/>
<text text-anchor="middle" x="860.55" y="-88.75" font-family="Helvetica,sans-Serif" font-size="10.00">Ark::internal::BaseParser</text>
</a>
</g>
</g>
<!-- Node2 -->
<g id="node2" class="node">
<title>Node2</title>
<g id="a_node2"><a xlink:title=" ">
<polygon fill="white" stroke="#666666" points="675.55,-189.25 616.05,-189.25 616.05,-170 675.55,-170 675.55,-189.25"/>
<text text-anchor="middle" x="645.8" y="-175.75" font-family="Helvetica,sans-Serif" font-size="10.00">std::string</text>
</a>
</g>
</g>
<!-- Node2&#45;&gt;Node1 -->
<g id="edge1" class="edge">
<title>Node2&#45;&gt;Node1</title>
<path fill="none" stroke="#9a32cd" stroke-dasharray="5,2" d="M687.42,-177C714.55,-174.06 750.5,-167.82 779.8,-154.62 808.58,-141.66 836.32,-116.27 850.25,-102.34"/>
<polygon fill="#9a32cd" stroke="#9a32cd" points="687.12,-173.51 677.51,-177.95 687.79,-180.48 687.12,-173.51"/>
<text text-anchor="middle" x="753.17" y="-183.62" font-family="Helvetica,sans-Serif" font-size="10.00"> m_filename</text>
<text text-anchor="middle" x="753.17" y="-172.38" font-family="Helvetica,sans-Serif" font-size="10.00">m_str</text>
</g>
<!-- Node3 -->
<g id="node3" class="node">
<title>Node3</title>
<g id="a_node3"><a xlink:title=" ">
<polygon fill="white" stroke="#666666" points="434.67,-194.88 340.67,-194.88 340.67,-164.38 434.67,-164.38 434.67,-194.88"/>
<text text-anchor="start" x="348.67" y="-181.38" font-family="Helvetica,sans-Serif" font-size="10.00">std::basic_string&lt;</text>
<text text-anchor="middle" x="387.67" y="-170.12" font-family="Helvetica,sans-Serif" font-size="10.00"> Char &gt;</text>
</a>
</g>
</g>
<!-- Node3&#45;&gt;Node2 -->
<g id="edge2" class="edge">
<title>Node3&#45;&gt;Node2</title>
<path fill="none" stroke="#63b8ff" d="M446.27,-179.62C499,-179.62 574.87,-179.62 615.87,-179.62"/>
<polygon fill="#63b8ff" stroke="#63b8ff" points="446.57,-176.13 436.57,-179.63 446.57,-183.13 446.57,-176.13"/>
</g>
<!-- Node4 -->
<g id="node4" class="node">
<title>Node4</title>
<g id="a_node4"><a xlink:title=" ">
<polygon fill="white" stroke="#666666" points="565.05,-159.5 458.3,-159.5 458.3,-117.75 565.05,-117.75 565.05,-159.5"/>
<text text-anchor="start" x="466.3" y="-146" font-family="Helvetica,sans-Serif" font-size="10.00">std::vector&lt; std::pair</text>
<text text-anchor="start" x="466.3" y="-134.75" font-family="Helvetica,sans-Serif" font-size="10.00">&lt; std::string::iterator,</text>
<text text-anchor="middle" x="511.67" y="-123.5" font-family="Helvetica,sans-Serif" font-size="10.00"> std::size_t &gt; &gt;</text>
</a>
</g>
</g>
<!-- Node4&#45;&gt;Node1 -->
<g id="edge3" class="edge">
<title>Node4&#45;&gt;Node1</title>
<path fill="none" stroke="#9a32cd" stroke-dasharray="5,2" d="M576.66,-131.95C630.86,-126.06 710.56,-116.84 779.8,-106.62 787.73,-105.46 796.08,-104.11 804.27,-102.73"/>
<polygon fill="#9a32cd" stroke="#9a32cd" points="576.57,-128.44 567,-132.99 577.32,-135.4 576.57,-128.44"/>
<text text-anchor="middle" x="645.8" y="-132.38" font-family="Helvetica,sans-Serif" font-size="10.00"> m_it_to_row</text>
</g>
<!-- Node5 -->
<g id="node5" class="node">
<title>Node5</title>
<g id="a_node5"><a xlink:title=" ">
<polygon fill="white" stroke="#666666" points="194.05,-145.25 107.55,-145.25 107.55,-126 194.05,-126 194.05,-145.25"/>
<text text-anchor="middle" x="150.8" y="-131.75" font-family="Helvetica,sans-Serif" font-size="10.00">std::vector&lt; T &gt;</text>
</a>
</g>
</g>
<!-- Node5&#45;&gt;Node4 -->
<g id="edge4" class="edge">
<title>Node5&#45;&gt;Node4</title>
<path fill="none" stroke="orange" stroke-dasharray="5,2" d="M205.7,-136.08C273.85,-136.65 390.41,-137.62 457.98,-138.18"/>
<polygon fill="orange" stroke="orange" points="205.92,-132.58 195.89,-135.99 205.86,-139.58 205.92,-132.58"/>
<text text-anchor="start" x="212.05" y="-149.62" font-family="Helvetica,sans-Serif" font-size="10.00"> &lt; std::pair&lt; std::string</text>
<text text-anchor="middle" x="264.55" y="-138.38" font-family="Helvetica,sans-Serif" font-size="10.00">::iterator, std::size_t &gt; &gt;</text>
</g>
<!-- Node6 -->
<g id="node6" class="node">
<title>Node6</title>
<g id="a_node6"><a xlink:title=" ">
<polygon fill="white" stroke="#666666" points="28.8,-125.25 0,-125.25 0,-106 28.8,-106 28.8,-125.25"/>
<text text-anchor="middle" x="14.4" y="-111.75" font-family="Helvetica,sans-Serif" font-size="10.00">T</text>
</a>
</g>
</g>
<!-- Node6&#45;&gt;Node5 -->
<g id="edge5" class="edge">
<title>Node6&#45;&gt;Node5</title>
<path fill="none" stroke="#9a32cd" stroke-dasharray="5,2" d="M40.41,-119.35C59.14,-122.13 85.21,-126.01 107.21,-129.29"/>
<polygon fill="#9a32cd" stroke="#9a32cd" points="41.18,-115.92 30.77,-117.91 40.15,-122.85 41.18,-115.92"/>
<text text-anchor="middle" x="68.17" y="-127.38" font-family="Helvetica,sans-Serif" font-size="10.00"> elements</text>
</g>
<!-- Node10 -->
<g id="node10" class="node">
<title>Node10</title>
<g id="a_node10"><a xlink:title=" ">
<polygon fill="white" stroke="#666666" points="191.42,-107.25 110.17,-107.25 110.17,-88 191.42,-88 191.42,-107.25"/>
<text text-anchor="middle" x="150.8" y="-93.75" font-family="Helvetica,sans-Serif" font-size="10.00">std::array&lt; T &gt;</text>
</a>
</g>
</g>
<!-- Node6&#45;&gt;Node10 -->
<g id="edge10" class="edge">
<title>Node6&#45;&gt;Node10</title>
<path fill="none" stroke="#9a32cd" stroke-dasharray="5,2" d="M39.74,-102.59C42.08,-101.71 44.45,-100.95 46.8,-100.38 67.31,-95.37 90.79,-94.39 110.15,-94.8"/>
<polygon fill="#9a32cd" stroke="#9a32cd" points="38.36,-99.38 30.68,-106.68 41.23,-105.76 38.36,-99.38"/>
<text text-anchor="middle" x="68.17" y="-102.38" font-family="Helvetica,sans-Serif" font-size="10.00"> elements</text>
</g>
<!-- Node7 -->
<g id="node7" class="node">
<title>Node7</title>
<g id="a_node7"><a xlink:title=" ">
<polygon fill="white" stroke="#666666" points="693.55,-56.25 598.05,-56.25 598.05,-37 693.55,-37 693.55,-56.25"/>
<text text-anchor="middle" x="645.8" y="-42.75" font-family="Helvetica,sans-Serif" font-size="10.00">std::string::iterator</text>
</a>
</g>
</g>
<!-- Node7&#45;&gt;Node1 -->
<g id="edge6" class="edge">
<title>Node7&#45;&gt;Node1</title>
<path fill="none" stroke="#9a32cd" stroke-dasharray="5,2" d="M705.15,-52.26C728.55,-55.16 755.64,-59.34 779.8,-65.12 798.46,-69.59 818.9,-76.69 834.42,-82.56"/>
<polygon fill="#9a32cd" stroke="#9a32cd" points="705.84,-48.82 695.5,-51.12 705.01,-55.77 705.84,-48.82"/>
<text text-anchor="middle" x="753.17" y="-78.62" font-family="Helvetica,sans-Serif" font-size="10.00"> m_it</text>
<text text-anchor="middle" x="753.17" y="-67.38" font-family="Helvetica,sans-Serif" font-size="10.00">m_next_it</text>
</g>
<!-- Node8 -->
<g id="node8" class="node">
<title>Node8</title>
<g id="a_node8"><a xlink:href="../../df/d83/classArk_1_1internal_1_1utf8__char__t.html" target="_top" xlink:title=" ">
<polygon fill="white" stroke="#666666" points="691.3,-104.88 600.3,-104.88 600.3,-74.38 691.3,-74.38 691.3,-104.88"/>
<text text-anchor="start" x="608.3" y="-91.38" font-family="Helvetica,sans-Serif" font-size="10.00">Ark::internal::utf8</text>
<text text-anchor="middle" x="645.8" y="-80.12" font-family="Helvetica,sans-Serif" font-size="10.00">_char_t</text>
</a>
</g>
</g>
<!-- Node8&#45;&gt;Node1 -->
<g id="edge7" class="edge">
<title>Node8&#45;&gt;Node1</title>
<path fill="none" stroke="#9a32cd" stroke-dasharray="5,2" d="M702.86,-90.42C731.93,-90.83 767.5,-91.33 797.4,-91.75"/>
<polygon fill="#9a32cd" stroke="#9a32cd" points="703.22,-86.92 693.17,-90.28 703.12,-93.92 703.22,-86.92"/>
<text text-anchor="middle" x="753.17" y="-93.38" font-family="Helvetica,sans-Serif" font-size="10.00"> m_sym</text>
</g>
<!-- Node9 -->
<g id="node9" class="node">
<title>Node9</title>
<g id="a_node9"><a xlink:title=" ">
<polygon fill="white" stroke="#666666" points="440.3,-107.88 335.05,-107.88 335.05,-77.38 440.3,-77.38 440.3,-107.88"/>
<text text-anchor="start" x="343.05" y="-94.38" font-family="Helvetica,sans-Serif" font-size="10.00">std::array&lt; unsigned</text>
<text text-anchor="middle" x="387.67" y="-83.12" font-family="Helvetica,sans-Serif" font-size="10.00"> char, 5 &gt;</text>
</a>
</g>
</g>
<!-- Node9&#45;&gt;Node8 -->
<g id="edge8" class="edge">
<title>Node9&#45;&gt;Node8</title>
<path fill="none" stroke="#9a32cd" stroke-dasharray="5,2" d="M451.84,-91.89C497.78,-91.35 558.87,-90.63 599.89,-90.15"/>
<polygon fill="#9a32cd" stroke="#9a32cd" points="451.98,-88.38 442.02,-92 452.06,-95.38 451.98,-88.38"/>
<text text-anchor="middle" x="511.67" y="-94.38" font-family="Helvetica,sans-Serif" font-size="10.00"> m_repr</text>
</g>
<!-- Node10&#45;&gt;Node9 -->
<g id="edge9" class="edge">
<title>Node10&#45;&gt;Node9</title>
<path fill="none" stroke="orange" stroke-dasharray="5,2" d="M203.27,-96.53C242.29,-95.7 295.68,-94.56 334.8,-93.73"/>
<polygon fill="orange" stroke="orange" points="203.35,-93.03 193.42,-96.74 203.5,-100.03 203.35,-93.03"/>
<text text-anchor="middle" x="264.55" y="-98.38" font-family="Helvetica,sans-Serif" font-size="10.00"> &lt; unsigned char, 5 &gt;</text>
</g>
<!-- Node11 -->
<g id="node11" class="node">
<title>Node11</title>
<g id="a_node11"><a xlink:href="../../dd/d0e/structArk_1_1internal_1_1FilePosition.html" target="_top" xlink:title=" ">
<polygon fill="white" stroke="#666666" points="708.55,-19.25 583.05,-19.25 583.05,0 708.55,0 708.55,-19.25"/>
<text text-anchor="middle" x="645.8" y="-5.75" font-family="Helvetica,sans-Serif" font-size="10.00">Ark::internal::FilePosition</text>
</a>
</g>
</g>
<!-- Node11&#45;&gt;Node1 -->
<g id="edge11" class="edge">
<title>Node11&#45;&gt;Node1</title>
<path fill="none" stroke="#9a32cd" stroke-dasharray="5,2" d="M720,-21.69C739.85,-26.26 761.04,-32.36 779.8,-40.38 805.68,-51.43 832.35,-70.84 847.36,-82.64"/>
<polygon fill="#9a32cd" stroke="#9a32cd" points="720.81,-18.29 710.29,-19.57 719.31,-25.13 720.81,-18.29"/>
<text text-anchor="middle" x="753.17" y="-42.38" font-family="Helvetica,sans-Serif" font-size="10.00"> m_filepos</text>
</g>
</g>
</svg>
