<?xml version="1.0" encoding="UTF-8" standalone="no"?>
<!DOCTYPE svg PUBLIC "-//W3C//DTD SVG 1.1//EN"
 "http://www.w3.org/Graphics/SVG/1.1/DTD/svg11.dtd">
<!-- Generated by graphviz version 7.1.0 (20230121.1956)
 -->
<!-- Title: /Users/fola/Documents/ArkScript/Ark/include/Ark/VM/Scope.hpp Pages: 1 -->
<svg width="877pt" height="434pt"
 viewBox="0.00 0.00 877.00 434.00" xmlns="http://www.w3.org/2000/svg" xmlns:xlink="http://www.w3.org/1999/xlink">
<g id="graph0" class="graph" transform="scale(1 1) rotate(0) translate(4 430)">
<title>/Users/fola/Documents/ArkScript/Ark/include/Ark/VM/Scope.hpp</title>
<!-- Node1 -->
<g id="node1" class="node">
<title>Node1</title>
<g id="a_node1"><a xlink:title="The virtual machine scope system.">
<polygon fill="#999999" stroke="#666666" points="594.5,-426 476.5,-426 476.5,-385 594.5,-385 594.5,-426"/>
<text text-anchor="start" x="484.5" y="-414" font-family="Helvetica,sans-Serif" font-size="10.00">/Users/fola/Documents</text>
<text text-anchor="start" x="484.5" y="-403" font-family="Helvetica,sans-Serif" font-size="10.00">/ArkScript/Ark/include</text>
<text text-anchor="middle" x="535.5" y="-392" font-family="Helvetica,sans-Serif" font-size="10.00">/Ark/VM/Scope.hpp</text>
</a>
</g>
</g>
<!-- Node2 -->
<g id="node2" class="node">
<title>Node2</title>
<g id="a_node2"><a xlink:href="../../db/df6/ExecutionContext_8hpp.html" target="_top" xlink:title="Keeping track of the internal data needed by the VM.">
<polygon fill="white" stroke="#666666" points="488.5,-349 336.5,-349 336.5,-308 488.5,-308 488.5,-349"/>
<text text-anchor="start" x="344.5" y="-337" font-family="Helvetica,sans-Serif" font-size="10.00">/Users/fola/Documents</text>
<text text-anchor="start" x="344.5" y="-326" font-family="Helvetica,sans-Serif" font-size="10.00">/ArkScript/Ark/include</text>
<text text-anchor="middle" x="412.5" y="-315" font-family="Helvetica,sans-Serif" font-size="10.00">/Ark/VM/ExecutionContext.hpp</text>
</a>
</g>
</g>
<!-- Node1&#45;&gt;Node2 -->
<g id="edge1" class="edge">
<title>Node1&#45;&gt;Node2</title>
<path fill="none" stroke="#63b8ff" d="M493.36,-378.8C477.64,-369.22 460.05,-358.49 445.29,-349.49"/>
<polygon fill="#63b8ff" stroke="#63b8ff" points="491.21,-381.59 501.57,-383.81 494.85,-375.62 491.21,-381.59"/>
</g>
<!-- Node4 -->
<g id="node4" class="node">
<title>Node4</title>
<g id="a_node4"><a xlink:href="../../d1/d91/VM_8hpp.html" target="_top" xlink:title="The ArkScript virtual machine.">
<polygon fill="white" stroke="#666666" points="499.5,-195 381.5,-195 381.5,-154 499.5,-154 499.5,-195"/>
<text text-anchor="start" x="389.5" y="-183" font-family="Helvetica,sans-Serif" font-size="10.00">/Users/fola/Documents</text>
<text text-anchor="start" x="389.5" y="-172" font-family="Helvetica,sans-Serif" font-size="10.00">/ArkScript/Ark/include</text>
<text text-anchor="middle" x="440.5" y="-161" font-family="Helvetica,sans-Serif" font-size="10.00">/Ark/VM/VM.hpp</text>
</a>
</g>
</g>
<!-- Node1&#45;&gt;Node4 -->
<g id="edge16" class="edge">
<title>Node1&#45;&gt;Node4</title>
<path fill="none" stroke="#63b8ff" d="M523.81,-374.11C516.42,-355.06 506.57,-330.03 497.5,-308 480.91,-267.71 460.54,-220.98 449.19,-195.17"/>
<polygon fill="#63b8ff" stroke="#63b8ff" points="520.54,-375.36 527.42,-383.43 527.07,-372.84 520.54,-375.36"/>
</g>
<!-- Node13 -->
<g id="node13" class="node">
<title>Node13</title>
<g id="a_node13"><a xlink:href="../../d1/db2/Closure_8cpp.html" target="_top" xlink:title=" ">
<polygon fill="white" stroke="#666666" points="869,-118 728,-118 728,-77 869,-77 869,-118"/>
<text text-anchor="start" x="736" y="-106" font-family="Helvetica,sans-Serif" font-size="10.00">/Users/fola/Documents</text>
<text text-anchor="start" x="736" y="-95" font-family="Helvetica,sans-Serif" font-size="10.00">/ArkScript/Ark/src/arkreactor</text>
<text text-anchor="middle" x="798.5" y="-84" font-family="Helvetica,sans-Serif" font-size="10.00">/VM/Value/Closure.cpp</text>
</a>
</g>
</g>
<!-- Node1&#45;&gt;Node13 -->
<g id="edge18" class="edge">
<title>Node1&#45;&gt;Node13</title>
<path fill="none" stroke="#63b8ff" d="M544.09,-373.87C550.54,-354.01 560.65,-328.18 574.5,-308 630.69,-226.12 723.89,-152.35 770.36,-118.33"/>
<polygon fill="#63b8ff" stroke="#63b8ff" points="540.77,-372.75 541.16,-383.34 547.46,-374.82 540.77,-372.75"/>
</g>
<!-- Node14 -->
<g id="node14" class="node">
<title>Node14</title>
<g id="a_node14"><a xlink:href="../../d5/d04/Scope_8cpp.html" target="_top" xlink:title=" ">
<polygon fill="white" stroke="#666666" points="724,-349 583,-349 583,-308 724,-308 724,-349"/>
<text text-anchor="start" x="591" y="-337" font-family="Helvetica,sans-Serif" font-size="10.00">/Users/fola/Documents</text>
<text text-anchor="start" x="591" y="-326" font-family="Helvetica,sans-Serif" font-size="10.00">/ArkScript/Ark/src/arkreactor</text>
<text text-anchor="middle" x="653.5" y="-315" font-family="Helvetica,sans-Serif" font-size="10.00">/VM/Scope.cpp</text>
</a>
</g>
</g>
<!-- Node1&#45;&gt;Node14 -->
<g id="edge17" class="edge">
<title>Node1&#45;&gt;Node14</title>
<path fill="none" stroke="#63b8ff" d="M576.35,-378.53C591.32,-369.02 608.02,-358.41 622.04,-349.49"/>
<polygon fill="#63b8ff" stroke="#63b8ff" points="574.65,-375.47 568.09,-383.79 578.41,-381.38 574.65,-375.47"/>
</g>
<!-- Node3 -->
<g id="node3" class="node">
<title>Node3</title>
<g id="a_node3"><a xlink:href="../../d0/dda/Future_8hpp.html" target="_top" xlink:title=" ">
<polygon fill="white" stroke="#666666" points="412.5,-272 294.5,-272 294.5,-231 412.5,-231 412.5,-272"/>
<text text-anchor="start" x="302.5" y="-260" font-family="Helvetica,sans-Serif" font-size="10.00">/Users/fola/Documents</text>
<text text-anchor="start" x="302.5" y="-249" font-family="Helvetica,sans-Serif" font-size="10.00">/ArkScript/Ark/include</text>
<text text-anchor="middle" x="353.5" y="-238" font-family="Helvetica,sans-Serif" font-size="10.00">/Ark/VM/Future.hpp</text>
</a>
</g>
</g>
<!-- Node2&#45;&gt;Node3 -->
<g id="edge2" class="edge">
<title>Node2&#45;&gt;Node3</title>
<path fill="none" stroke="#63b8ff" d="M390,-298.9C383.03,-290.04 375.5,-280.47 369.1,-272.33"/>
<polygon fill="#63b8ff" stroke="#63b8ff" points="387.13,-300.91 396.06,-306.61 392.63,-296.58 387.13,-300.91"/>
</g>
<!-- Node2&#45;&gt;Node4 -->
<g id="edge15" class="edge">
<title>Node2&#45;&gt;Node4</title>
<path fill="none" stroke="#63b8ff" d="M418.22,-296.44C423.79,-266.19 432.1,-221.1 436.84,-195.38"/>
<polygon fill="#63b8ff" stroke="#63b8ff" points="414.8,-295.67 416.43,-306.14 421.69,-296.94 414.8,-295.67"/>
</g>
<!-- Node3&#45;&gt;Node4 -->
<g id="edge3" class="edge">
<title>Node3&#45;&gt;Node4</title>
<path fill="none" stroke="#63b8ff" d="M385.06,-223.29C395.79,-214.05 407.56,-203.89 417.49,-195.33"/>
<polygon fill="#63b8ff" stroke="#63b8ff" points="382.79,-220.63 377.5,-229.81 387.36,-225.93 382.79,-220.63"/>
</g>
<!-- Node11 -->
<g id="node11" class="node">
<title>Node11</title>
<g id="a_node11"><a xlink:href="../../d4/dc9/Future_8cpp.html" target="_top" xlink:title=" ">
<polygon fill="white" stroke="#666666" points="141,-118 0,-118 0,-77 141,-77 141,-118"/>
<text text-anchor="start" x="8" y="-106" font-family="Helvetica,sans-Serif" font-size="10.00">/Users/fola/Documents</text>
<text text-anchor="start" x="8" y="-95" font-family="Helvetica,sans-Serif" font-size="10.00">/ArkScript/Ark/src/arkreactor</text>
<text text-anchor="middle" x="70.5" y="-84" font-family="Helvetica,sans-Serif" font-size="10.00">/VM/Future.cpp</text>
</a>
</g>
</g>
<!-- Node3&#45;&gt;Node11 -->
<g id="edge14" class="edge">
<title>Node3&#45;&gt;Node11</title>
<path fill="none" stroke="#63b8ff" d="M306.51,-225.26C250.65,-195.26 158.57,-145.8 107.51,-118.38"/>
<polygon fill="#63b8ff" stroke="#63b8ff" points="304.7,-228.26 315.17,-229.91 308.02,-222.1 304.7,-228.26"/>
</g>
<!-- Node5 -->
<g id="node5" class="node">
<title>Node5</title>
<g id="a_node5"><a xlink:href="../../d3/d7e/Ark_8hpp.html" target="_top" xlink:title="Includes the needed files to start using ArkScript.">
<polygon fill="white" stroke="#666666" points="573.5,-118 455.5,-118 455.5,-77 573.5,-77 573.5,-118"/>
<text text-anchor="start" x="463.5" y="-106" font-family="Helvetica,sans-Serif" font-size="10.00">/Users/fola/Documents</text>
<text text-anchor="start" x="463.5" y="-95" font-family="Helvetica,sans-Serif" font-size="10.00">/ArkScript/Ark/include</text>
<text text-anchor="middle" x="514.5" y="-84" font-family="Helvetica,sans-Serif" font-size="10.00">/Ark/Ark.hpp</text>
</a>
</g>
</g>
<!-- Node4&#45;&gt;Node5 -->
<g id="edge4" class="edge">
<title>Node4&#45;&gt;Node5</title>
<path fill="none" stroke="#63b8ff" d="M467.89,-145.74C476.87,-136.64 486.65,-126.72 494.93,-118.33"/>
<polygon fill="#63b8ff" stroke="#63b8ff" points="465.54,-143.14 461.01,-152.72 470.52,-148.06 465.54,-143.14"/>
</g>
<!-- Node8 -->
<g id="node8" class="node">
<title>Node8</title>
<g id="a_node8"><a xlink:href="../../d5/d44/Module_8hpp.html" target="_top" xlink:title=" ">
<polygon fill="white" stroke="#666666" points="709.5,-118 591.5,-118 591.5,-77 709.5,-77 709.5,-118"/>
<text text-anchor="start" x="599.5" y="-106" font-family="Helvetica,sans-Serif" font-size="10.00">/Users/fola/Documents</text>
<text text-anchor="start" x="599.5" y="-95" font-family="Helvetica,sans-Serif" font-size="10.00">/ArkScript/Ark/include</text>
<text text-anchor="middle" x="650.5" y="-84" font-family="Helvetica,sans-Serif" font-size="10.00">/Ark/Module.hpp</text>
</a>
</g>
</g>
<!-- Node4&#45;&gt;Node8 -->
<g id="edge7" class="edge">
<title>Node4&#45;&gt;Node8</title>
<path fill="none" stroke="#63b8ff" d="M506.8,-149.82C535.01,-139.75 567.54,-128.13 594.51,-118.49"/>
<polygon fill="#63b8ff" stroke="#63b8ff" points="505.89,-146.43 497.65,-153.09 508.24,-153.02 505.89,-146.43"/>
</g>
<!-- Node9 -->
<g id="node9" class="node">
<title>Node9</title>
<g id="a_node9"><a xlink:href="../../d5/da5/Repl_8hpp.html" target="_top" xlink:title="ArkScript REPL &#45; Read Eval Print Loop.">
<polygon fill="white" stroke="#666666" points="277.5,-118 159.5,-118 159.5,-77 277.5,-77 277.5,-118"/>
<text text-anchor="start" x="167.5" y="-106" font-family="Helvetica,sans-Serif" font-size="10.00">/Users/fola/Documents</text>
<text text-anchor="start" x="167.5" y="-95" font-family="Helvetica,sans-Serif" font-size="10.00">/ArkScript/Ark/include</text>
<text text-anchor="middle" x="218.5" y="-84" font-family="Helvetica,sans-Serif" font-size="10.00">/Ark/REPL/Repl.hpp</text>
</a>
</g>
</g>
<!-- Node4&#45;&gt;Node9 -->
<g id="edge8" class="edge">
<title>Node4&#45;&gt;Node9</title>
<path fill="none" stroke="#63b8ff" d="M370.8,-149.95C340.9,-139.85 306.32,-128.17 277.68,-118.49"/>
<polygon fill="#63b8ff" stroke="#63b8ff" points="369.56,-153.23 380.16,-153.11 371.8,-146.6 369.56,-153.23"/>
</g>
<!-- Node4&#45;&gt;Node11 -->
<g id="edge11" class="edge">
<title>Node4&#45;&gt;Node11</title>
<path fill="none" stroke="#63b8ff" d="M370.14,-161.05C311.29,-150.4 225.2,-134.24 150.5,-118 147.43,-117.33 144.29,-116.63 141.13,-115.92"/>
<polygon fill="#63b8ff" stroke="#63b8ff" points="369.22,-164.44 379.68,-162.77 370.46,-157.55 369.22,-164.44"/>
</g>
<!-- Node12 -->
<g id="node12" class="node">
<title>Node12</title>
<g id="a_node12"><a xlink:href="../../d2/d27/VM_8cpp.html" target="_top" xlink:title=" ">
<polygon fill="white" stroke="#666666" points="437,-118 296,-118 296,-77 437,-77 437,-118"/>
<text text-anchor="start" x="304" y="-106" font-family="Helvetica,sans-Serif" font-size="10.00">/Users/fola/Documents</text>
<text text-anchor="start" x="304" y="-95" font-family="Helvetica,sans-Serif" font-size="10.00">/ArkScript/Ark/src/arkreactor</text>
<text text-anchor="middle" x="366.5" y="-84" font-family="Helvetica,sans-Serif" font-size="10.00">/VM/VM.cpp</text>
</a>
</g>
</g>
<!-- Node4&#45;&gt;Node12 -->
<g id="edge12" class="edge">
<title>Node4&#45;&gt;Node12</title>
<path fill="none" stroke="#63b8ff" d="M413.11,-145.74C404.13,-136.64 394.35,-126.72 386.07,-118.33"/>
<polygon fill="#63b8ff" stroke="#63b8ff" points="410.48,-148.06 419.99,-152.72 415.46,-143.14 410.48,-148.06"/>
</g>
<!-- Node4&#45;&gt;Node13 -->
<g id="edge13" class="edge">
<title>Node4&#45;&gt;Node13</title>
<path fill="none" stroke="#63b8ff" d="M510.91,-159.79C579.79,-146.32 679.81,-126.57 718.5,-118 721.57,-117.32 724.7,-116.61 727.87,-115.89"/>
<polygon fill="#63b8ff" stroke="#63b8ff" points="510.34,-156.34 501.2,-161.69 511.68,-163.21 510.34,-156.34"/>
</g>
<!-- Node6 -->
<g id="node6" class="node">
<title>Node6</title>
<g id="a_node6"><a xlink:href="../../dc/d32/Ark_8cpp.html" target="_top" xlink:title=" ">
<polygon fill="white" stroke="#666666" points="591,-41 450,-41 450,0 591,0 591,-41"/>
<text text-anchor="start" x="458" y="-29" font-family="Helvetica,sans-Serif" font-size="10.00">/Users/fola/Documents</text>
<text text-anchor="start" x="458" y="-18" font-family="Helvetica,sans-Serif" font-size="10.00">/ArkScript/Ark/src/arkreactor</text>
<text text-anchor="middle" x="520.5" y="-7" font-family="Helvetica,sans-Serif" font-size="10.00">/Ark.cpp</text>
</a>
</g>
</g>
<!-- Node5&#45;&gt;Node6 -->
<g id="edge5" class="edge">
<title>Node5&#45;&gt;Node6</title>
<path fill="none" stroke="#63b8ff" d="M516.99,-65.36C517.64,-57.24 518.32,-48.7 518.91,-41.33"/>
<polygon fill="#63b8ff" stroke="#63b8ff" points="513.51,-65.04 516.2,-75.29 520.48,-65.6 513.51,-65.04"/>
</g>
<!-- Node7 -->
<g id="node7" class="node">
<title>Node7</title>
<g id="a_node7"><a xlink:href="../../df/d0a/main_8cpp.html" target="_top" xlink:title=" ">
<polygon fill="white" stroke="#666666" points="432,-41 297,-41 297,0 432,0 432,-41"/>
<text text-anchor="start" x="305" y="-29" font-family="Helvetica,sans-Serif" font-size="10.00">/Users/fola/Documents</text>
<text text-anchor="start" x="305" y="-18" font-family="Helvetica,sans-Serif" font-size="10.00">/ArkScript/Ark/src/arkscript</text>
<text text-anchor="middle" x="364.5" y="-7" font-family="Helvetica,sans-Serif" font-size="10.00">/main.cpp</text>
</a>
</g>
</g>
<!-- Node5&#45;&gt;Node7 -->
<g id="edge6" class="edge">
<title>Node5&#45;&gt;Node7</title>
<path fill="none" stroke="#63b8ff" d="M464.46,-71.48C444.96,-61.73 422.91,-50.7 404.49,-41.49"/>
<polygon fill="#63b8ff" stroke="#63b8ff" points="462.83,-74.58 473.34,-75.92 465.96,-68.32 462.83,-74.58"/>
</g>
<!-- Node9&#45;&gt;Node7 -->
<g id="edge10" class="edge">
<title>Node9&#45;&gt;Node7</title>
<path fill="none" stroke="#63b8ff" d="M267.47,-71.35C286.39,-61.63 307.73,-50.66 325.58,-41.49"/>
<polygon fill="#63b8ff" stroke="#63b8ff" points="265.88,-68.22 258.59,-75.91 269.08,-74.45 265.88,-68.22"/>
</g>
<!-- Node10 -->
<g id="node10" class="node">
<title>Node10</title>
<g id="a_node10"><a xlink:href="../../d7/d46/Repl_8cpp.html" target="_top" xlink:title=" ">
<polygon fill="white" stroke="#666666" points="279,-41 144,-41 144,0 279,0 279,-41"/>
<text text-anchor="start" x="152" y="-29" font-family="Helvetica,sans-Serif" font-size="10.00">/Users/fola/Documents</text>
<text text-anchor="start" x="152" y="-18" font-family="Helvetica,sans-Serif" font-size="10.00">/ArkScript/Ark/src/arkscript</text>
<text text-anchor="middle" x="211.5" y="-7" font-family="Helvetica,sans-Serif" font-size="10.00">/REPL/Repl.cpp</text>
</a>
</g>
</g>
<!-- Node9&#45;&gt;Node10 -->
<g id="edge9" class="edge">
<title>Node9&#45;&gt;Node10</title>
<path fill="none" stroke="#63b8ff" d="M215.59,-65.36C214.84,-57.24 214.04,-48.7 213.35,-41.33"/>
<polygon fill="#63b8ff" stroke="#63b8ff" points="212.11,-65.66 216.52,-75.29 219.08,-65.01 212.11,-65.66"/>
</g>
</g>
</svg>
