<?xml version="1.0" encoding="UTF-8" standalone="no"?>
<!DOCTYPE svg PUBLIC "-//W3C//DTD SVG 1.1//EN"
 "http://www.w3.org/Graphics/SVG/1.1/DTD/svg11.dtd">
<!-- Generated by graphviz version 12.1.1 (20240910.0053)
 -->
<!-- Title: Ark::internal::Pass Pages: 1 -->
<svg width="112pt" height="228pt"
 viewBox="0.00 0.00 111.75 227.75" xmlns="http://www.w3.org/2000/svg" xmlns:xlink="http://www.w3.org/1999/xlink">
<g id="graph0" class="graph" transform="scale(1 1) rotate(0) translate(4 223.75)">
<title>Ark::internal::Pass</title>
<!-- Node1 -->
<g id="Node000001" class="node">
<title>Node1</title>
<g id="a_Node000001"><a xlink:title="An interface to describe compiler passes.">
<polygon fill="#999999" stroke="#666666" points="100.38,-19.25 3.38,-19.25 3.38,0 100.38,0 100.38,-19.25"/>
<text text-anchor="middle" x="51.88" y="-5.75" font-family="Helvetica,sans-Serif" font-size="10.00">Ark::internal::Pass</text>
</a>
</g>
</g>
<!-- Node2 -->
<g id="Node000002" class="node">
<title>Node2</title>
<g id="a_Node000002"><a xlink:href="../../d6/d2f/classArk_1_1internal_1_1Logger.html" target="_top" xlink:title=" ">
<polygon fill="white" stroke="#666666" points="103.75,-85.75 0,-85.75 0,-66.5 103.75,-66.5 103.75,-85.75"/>
<text text-anchor="middle" x="51.88" y="-72.25" font-family="Helvetica,sans-Serif" font-size="10.00">Ark::internal::Logger</text>
</a>
</g>
</g>
<!-- Node2&#45;&gt;Node1 -->
<g id="edge1_Node000001_Node000002" class="edge">
<title>Node2&#45;&gt;Node1</title>
<g id="a_edge1_Node000001_Node000002"><a xlink:title=" ">
<path fill="none" stroke="#9a32cd" stroke-dasharray="5,2" d="M51.88,-54.65C51.88,-42.82 51.88,-28.54 51.88,-19.52"/>
<polygon fill="#9a32cd" stroke="#9a32cd" points="48.38,-54.64 51.88,-64.64 55.38,-54.64 48.38,-54.64"/>
</a>
</g>
<text text-anchor="middle" x="73.25" y="-39" font-family="Helvetica,sans-Serif" font-size="10.00" fill="grey"> m_logger</text>
</g>
<!-- Node3 -->
<g id="Node000003" class="node">
<title>Node3</title>
<g id="a_Node000003"><a xlink:title=" ">
<polygon fill="white" stroke="#666666" points="81.62,-152.25 22.12,-152.25 22.12,-133 81.62,-133 81.62,-152.25"/>
<text text-anchor="middle" x="51.88" y="-138.75" font-family="Helvetica,sans-Serif" font-size="10.00">std::string</text>
</a>
</g>
</g>
<!-- Node3&#45;&gt;Node2 -->
<g id="edge2_Node000002_Node000003" class="edge">
<title>Node3&#45;&gt;Node2</title>
<g id="a_edge2_Node000002_Node000003"><a xlink:title=" ">
<path fill="none" stroke="#9a32cd" stroke-dasharray="5,2" d="M51.88,-121.15C51.88,-109.32 51.88,-95.04 51.88,-86.02"/>
<polygon fill="#9a32cd" stroke="#9a32cd" points="48.38,-121.14 51.88,-131.14 55.38,-121.14 48.38,-121.14"/>
</a>
</g>
<text text-anchor="middle" x="72.12" y="-105.5" font-family="Helvetica,sans-Serif" font-size="10.00" fill="grey"> m_name</text>
</g>
<!-- Node4 -->
<g id="Node000004" class="node">
<title>Node4</title>
<g id="a_Node000004"><a xlink:title=" ">
<polygon fill="white" stroke="#666666" points="98.88,-219.75 4.87,-219.75 4.87,-189.25 98.88,-189.25 98.88,-219.75"/>
<text text-anchor="start" x="12.88" y="-206.25" font-family="Helvetica,sans-Serif" font-size="10.00">std::basic_string&lt;</text>
<text text-anchor="middle" x="51.88" y="-195" font-family="Helvetica,sans-Serif" font-size="10.00"> Char &gt;</text>
</a>
</g>
</g>
<!-- Node4&#45;&gt;Node3 -->
<g id="edge3_Node000003_Node000004" class="edge">
<title>Node4&#45;&gt;Node3</title>
<g id="a_edge3_Node000003_Node000004"><a xlink:title=" ">
<path fill="none" stroke="#63b8ff" d="M51.88,-177.77C51.88,-168.79 51.88,-159.29 51.88,-152.6"/>
<polygon fill="#63b8ff" stroke="#63b8ff" points="48.38,-177.49 51.88,-187.49 55.38,-177.49 48.38,-177.49"/>
</a>
</g>
</g>
</g>
</svg>
