<?xml version="1.0" encoding="UTF-8" standalone="no"?>
<!DOCTYPE svg PUBLIC "-//W3C//DTD SVG 1.1//EN"
 "http://www.w3.org/Graphics/SVG/1.1/DTD/svg11.dtd">
<!-- Generated by graphviz version 2.43.0 (0)
 -->
<!-- Title: /home/fola/code/Ark/include/Ark/Profiling.hpp Pages: 1 -->
<svg width="1772pt" height="630pt"
 viewBox="0.00 0.00 1772.00 630.00" xmlns="http://www.w3.org/2000/svg" xmlns:xlink="http://www.w3.org/1999/xlink">
<g id="graph0" class="graph" transform="scale(1 1) rotate(0) translate(4 626)">
<title>/home/fola/code/Ark/include/Ark/Profiling.hpp</title>
<polygon fill="white" stroke="transparent" points="-4,4 -4,-626 1768,-626 1768,4 -4,4"/>
<!-- Node1 -->
<g id="node1" class="node">
<title>Node1</title>
<g id="a_node1"><a xlink:title=" ">
<polygon fill="#bfbfbf" stroke="black" points="1061,-591.5 1061,-621.5 1199,-621.5 1199,-591.5 1061,-591.5"/>
<text text-anchor="start" x="1069" y="-609.5" font-family="Helvetica,sans-Serif" font-size="10.00">/home/fola/code/Ark</text>
<text text-anchor="middle" x="1130" y="-598.5" font-family="Helvetica,sans-Serif" font-size="10.00">/include/Ark/Profiling.hpp</text>
</a>
</g>
</g>
<!-- Node2 -->
<g id="node2" class="node">
<title>Node2</title>
<g id="a_node2"><a xlink:href="../../de/dfd/Value_8hpp.html" target="_top" xlink:title=" ">
<polygon fill="white" stroke="black" points="500,-524.5 500,-554.5 644,-554.5 644,-524.5 500,-524.5"/>
<text text-anchor="start" x="508" y="-542.5" font-family="Helvetica,sans-Serif" font-size="10.00">/home/fola/code/Ark</text>
<text text-anchor="middle" x="572" y="-531.5" font-family="Helvetica,sans-Serif" font-size="10.00">/include/Ark/VM/Value.hpp</text>
</a>
</g>
</g>
<!-- Node1&#45;&gt;Node2 -->
<g id="edge1" class="edge">
<title>Node1&#45;&gt;Node2</title>
<path fill="none" stroke="midnightblue" d="M1050.5,-596.24C941.95,-583.59 748.92,-561.11 644.27,-548.92"/>
<polygon fill="midnightblue" stroke="midnightblue" points="1050.4,-599.75 1060.74,-597.43 1051.21,-592.8 1050.4,-599.75"/>
</g>
<!-- Node7 -->
<g id="node7" class="node">
<title>Node7</title>
<g id="a_node7"><a xlink:href="../../df/d0a/main_8cpp.html" target="_top" xlink:title=" ">
<polygon fill="white" stroke="black" points="1346,-6 1346,-36 1474,-36 1474,-6 1346,-6"/>
<text text-anchor="start" x="1354" y="-24" font-family="Helvetica,sans-Serif" font-size="10.00">/home/fola/code/Ark</text>
<text text-anchor="middle" x="1410" y="-13" font-family="Helvetica,sans-Serif" font-size="10.00">/src/arkscript/main.cpp</text>
</a>
</g>
</g>
<!-- Node1&#45;&gt;Node7 -->
<g id="edge53" class="edge">
<title>Node1&#45;&gt;Node7</title>
<path fill="none" stroke="midnightblue" d="M1209.2,-605.43C1379.25,-603.15 1764,-585.61 1764,-473.5 1764,-473.5 1764,-473.5 1764,-170.5 1764,-46.2 1576.12,-24.2 1474.11,-21.41"/>
<polygon fill="midnightblue" stroke="midnightblue" points="1209.01,-601.94 1199.06,-605.56 1209.1,-608.94 1209.01,-601.94"/>
</g>
<!-- Node3 -->
<g id="node3" class="node">
<title>Node3</title>
<g id="a_node3"><a xlink:href="../../da/d84/Builtins_8hpp.html" target="_top" xlink:title="Host the declaration of all the ArkScript builtins.">
<polygon fill="white" stroke="black" points="514.5,-379.5 514.5,-420.5 629.5,-420.5 629.5,-379.5 514.5,-379.5"/>
<text text-anchor="start" x="522.5" y="-408.5" font-family="Helvetica,sans-Serif" font-size="10.00">/home/fola/code/Ark</text>
<text text-anchor="start" x="522.5" y="-397.5" font-family="Helvetica,sans-Serif" font-size="10.00">/include/Ark/Builtins</text>
<text text-anchor="middle" x="572" y="-386.5" font-family="Helvetica,sans-Serif" font-size="10.00">/Builtins.hpp</text>
</a>
</g>
</g>
<!-- Node2&#45;&gt;Node3 -->
<g id="edge2" class="edge">
<title>Node2&#45;&gt;Node3</title>
<path fill="none" stroke="midnightblue" d="M572,-514.26C572,-487.6 572,-445.28 572,-420.62"/>
<polygon fill="midnightblue" stroke="midnightblue" points="568.5,-514.3 572,-524.3 575.5,-514.3 568.5,-514.3"/>
</g>
<!-- Node4 -->
<g id="node4" class="node">
<title>Node4</title>
<g id="a_node4"><a xlink:href="../../d1/d91/VM_8hpp.html" target="_top" xlink:title="The ArkScript virtual machine.">
<polygon fill="white" stroke="black" points="512.5,-156.5 512.5,-186.5 645.5,-186.5 645.5,-156.5 512.5,-156.5"/>
<text text-anchor="start" x="520.5" y="-174.5" font-family="Helvetica,sans-Serif" font-size="10.00">/home/fola/code/Ark</text>
<text text-anchor="middle" x="579" y="-163.5" font-family="Helvetica,sans-Serif" font-size="10.00">/include/Ark/VM/VM.hpp</text>
</a>
</g>
</g>
<!-- Node2&#45;&gt;Node4 -->
<g id="edge50" class="edge">
<title>Node2&#45;&gt;Node4</title>
<path fill="none" stroke="midnightblue" d="M554.52,-516.18C538.07,-493.63 514.56,-457.07 505,-421 500.22,-402.96 496.19,-395.46 505,-379 518.61,-353.57 543.93,-367.59 559,-343 589.99,-292.43 584.89,-217.45 581.08,-186.57"/>
<polygon fill="midnightblue" stroke="midnightblue" points="551.86,-518.47 560.65,-524.38 557.47,-514.28 551.86,-518.47"/>
</g>
<!-- Node11 -->
<g id="node11" class="node">
<title>Node11</title>
<g id="a_node11"><a xlink:href="../../d1/db2/Closure_8cpp.html" target="_top" xlink:title=" ">
<polygon fill="white" stroke="black" points="0,-78.5 0,-119.5 136,-119.5 136,-78.5 0,-78.5"/>
<text text-anchor="start" x="8" y="-107.5" font-family="Helvetica,sans-Serif" font-size="10.00">/home/fola/code/Ark</text>
<text text-anchor="start" x="8" y="-96.5" font-family="Helvetica,sans-Serif" font-size="10.00">/src/arkreactor/VM/Value</text>
<text text-anchor="middle" x="68" y="-85.5" font-family="Helvetica,sans-Serif" font-size="10.00">/Closure.cpp</text>
</a>
</g>
</g>
<!-- Node2&#45;&gt;Node11 -->
<g id="edge51" class="edge">
<title>Node2&#45;&gt;Node11</title>
<path fill="none" stroke="midnightblue" d="M489.54,-534.63C337.87,-525.24 30,-494.65 30,-401 30,-401 30,-401 30,-243 30,-197.79 47.96,-147.15 59.19,-119.92"/>
<polygon fill="midnightblue" stroke="midnightblue" points="489.55,-538.14 499.75,-535.24 489.97,-531.15 489.55,-538.14"/>
</g>
<!-- Node16 -->
<g id="node16" class="node">
<title>Node16</title>
<g id="a_node16"><a xlink:href="../../d2/de9/Exceptions_8hpp.html" target="_top" xlink:title="ArkScript homemade exceptions.">
<polygon fill="white" stroke="black" points="943,-457.5 943,-487.5 1095,-487.5 1095,-457.5 943,-457.5"/>
<text text-anchor="start" x="951" y="-475.5" font-family="Helvetica,sans-Serif" font-size="10.00">/home/fola/code/Ark</text>
<text text-anchor="middle" x="1019" y="-464.5" font-family="Helvetica,sans-Serif" font-size="10.00">/include/Ark/Exceptions.hpp</text>
</a>
</g>
</g>
<!-- Node2&#45;&gt;Node16 -->
<g id="edge16" class="edge">
<title>Node2&#45;&gt;Node16</title>
<path fill="none" stroke="midnightblue" d="M654.39,-526.52C736.79,-514.54 862.48,-496.26 942.67,-484.6"/>
<polygon fill="midnightblue" stroke="midnightblue" points="653.71,-523.08 644.32,-527.98 654.71,-530.01 653.71,-523.08"/>
</g>
<!-- Node19 -->
<g id="node19" class="node">
<title>Node19</title>
<g id="a_node19"><a xlink:href="../../d0/db5/State_8hpp.html" target="_top" xlink:title="State used by the virtual machine: it loads the bytecode, can compile it if needed,...">
<polygon fill="white" stroke="black" points="1085.5,-229 1085.5,-259 1228.5,-259 1228.5,-229 1085.5,-229"/>
<text text-anchor="start" x="1093.5" y="-247" font-family="Helvetica,sans-Serif" font-size="10.00">/home/fola/code/Ark</text>
<text text-anchor="middle" x="1157" y="-236" font-family="Helvetica,sans-Serif" font-size="10.00">/include/Ark/VM/State.hpp</text>
</a>
</g>
</g>
<!-- Node2&#45;&gt;Node19 -->
<g id="edge49" class="edge">
<title>Node2&#45;&gt;Node19</title>
<path fill="none" stroke="midnightblue" d="M654.22,-532.56C758.93,-524.56 945.33,-508.89 1104,-488 1148.35,-482.16 1472.12,-455.16 1501,-421 1583.61,-323.28 1352.12,-273.47 1228.75,-254.43"/>
<polygon fill="midnightblue" stroke="midnightblue" points="653.74,-529.08 644.04,-533.33 654.27,-536.06 653.74,-529.08"/>
</g>
<!-- Node26 -->
<g id="node26" class="node">
<title>Node26</title>
<g id="a_node26"><a xlink:href="../../db/d5e/TypeChecker_8hpp.html" target="_top" xlink:title=" ">
<polygon fill="white" stroke="black" points="1402.5,-457.5 1402.5,-487.5 1561.5,-487.5 1561.5,-457.5 1402.5,-457.5"/>
<text text-anchor="start" x="1410.5" y="-475.5" font-family="Helvetica,sans-Serif" font-size="10.00">/home/fola/code/Ark</text>
<text text-anchor="middle" x="1482" y="-464.5" font-family="Helvetica,sans-Serif" font-size="10.00">/include/Ark/TypeChecker.hpp</text>
</a>
</g>
</g>
<!-- Node2&#45;&gt;Node26 -->
<g id="edge34" class="edge">
<title>Node2&#45;&gt;Node26</title>
<path fill="none" stroke="midnightblue" d="M654.37,-535.94C801.98,-530.79 1121.17,-517.09 1389,-488 1393.39,-487.52 1397.88,-486.99 1402.41,-486.41"/>
<polygon fill="midnightblue" stroke="midnightblue" points="653.92,-532.45 644.05,-536.3 654.16,-539.45 653.92,-532.45"/>
</g>
<!-- Node27 -->
<g id="node27" class="node">
<title>Node27</title>
<g id="a_node27"><a xlink:href="../../db/df6/ExecutionContext_8hpp.html" target="_top" xlink:title="Keeping track of the internal data needed by the VM.">
<polygon fill="white" stroke="black" points="347.5,-307 347.5,-337 550.5,-337 550.5,-307 347.5,-307"/>
<text text-anchor="start" x="355.5" y="-325" font-family="Helvetica,sans-Serif" font-size="10.00">/home/fola/code/Ark</text>
<text text-anchor="middle" x="449" y="-314" font-family="Helvetica,sans-Serif" font-size="10.00">/include/Ark/VM/ExecutionContext.hpp</text>
</a>
</g>
</g>
<!-- Node2&#45;&gt;Node27 -->
<g id="edge38" class="edge">
<title>Node2&#45;&gt;Node27</title>
<path fill="none" stroke="midnightblue" d="M513.16,-520.26C497.52,-512.67 482.17,-502.22 472,-488 438.69,-441.42 443.15,-368.19 446.88,-337.4"/>
<polygon fill="midnightblue" stroke="midnightblue" points="511.81,-523.49 522.37,-524.4 514.68,-517.11 511.81,-523.49"/>
</g>
<!-- Node28 -->
<g id="node28" class="node">
<title>Node28</title>
<g id="a_node28"><a xlink:href="../../d0/dda/Future_8hpp.html" target="_top" xlink:title=" ">
<polygon fill="white" stroke="black" points="96,-229 96,-259 244,-259 244,-229 96,-229"/>
<text text-anchor="start" x="104" y="-247" font-family="Helvetica,sans-Serif" font-size="10.00">/home/fola/code/Ark</text>
<text text-anchor="middle" x="170" y="-236" font-family="Helvetica,sans-Serif" font-size="10.00">/include/Ark/VM/Future.hpp</text>
</a>
</g>
</g>
<!-- Node2&#45;&gt;Node28 -->
<g id="edge43" class="edge">
<title>Node2&#45;&gt;Node28</title>
<path fill="none" stroke="midnightblue" d="M489.85,-525.07C384.83,-506.2 211.48,-468.73 169,-421 133.19,-380.76 143.66,-354.22 152,-301 154.28,-286.47 159.69,-270.57 163.99,-259.44"/>
<polygon fill="midnightblue" stroke="midnightblue" points="489.33,-528.54 499.79,-526.84 490.56,-521.64 489.33,-528.54"/>
</g>
<!-- Node29 -->
<g id="node29" class="node">
<title>Node29</title>
<g id="a_node29"><a xlink:href="../../d8/dcd/Scope_8hpp.html" target="_top" xlink:title="The virtual machine scope system.">
<polygon fill="white" stroke="black" points="178,-385 178,-415 324,-415 324,-385 178,-385"/>
<text text-anchor="start" x="186" y="-403" font-family="Helvetica,sans-Serif" font-size="10.00">/home/fola/code/Ark</text>
<text text-anchor="middle" x="251" y="-392" font-family="Helvetica,sans-Serif" font-size="10.00">/include/Ark/VM/Scope.hpp</text>
</a>
</g>
</g>
<!-- Node2&#45;&gt;Node29 -->
<g id="edge44" class="edge">
<title>Node2&#45;&gt;Node29</title>
<path fill="none" stroke="midnightblue" d="M520.83,-521.05C494.63,-511.8 462.37,-499.9 434,-488 377.88,-464.45 314.04,-433 278.54,-415.08"/>
<polygon fill="midnightblue" stroke="midnightblue" points="519.96,-524.45 530.55,-524.46 522.27,-517.85 519.96,-524.45"/>
</g>
<!-- Node31 -->
<g id="node31" class="node">
<title>Node31</title>
<g id="a_node31"><a xlink:href="../../d1/d74/Value_8cpp.html" target="_top" xlink:title=" ">
<polygon fill="white" stroke="black" points="1580,-457.5 1580,-487.5 1736,-487.5 1736,-457.5 1580,-457.5"/>
<text text-anchor="start" x="1588" y="-475.5" font-family="Helvetica,sans-Serif" font-size="10.00">/home/fola/code/Ark</text>
<text text-anchor="middle" x="1658" y="-464.5" font-family="Helvetica,sans-Serif" font-size="10.00">/src/arkreactor/VM/Value.cpp</text>
</a>
</g>
</g>
<!-- Node2&#45;&gt;Node31 -->
<g id="edge52" class="edge">
<title>Node2&#45;&gt;Node31</title>
<path fill="none" stroke="midnightblue" d="M654.19,-537.53C825.28,-534.81 1231.98,-524.7 1571,-488 1573.89,-487.69 1576.83,-487.34 1579.8,-486.97"/>
<polygon fill="midnightblue" stroke="midnightblue" points="653.95,-534.03 644,-537.69 654.05,-541.03 653.95,-534.03"/>
</g>
<!-- Node3&#45;&gt;Node4 -->
<g id="edge3" class="edge">
<title>Node3&#45;&gt;Node4</title>
<path fill="none" stroke="midnightblue" d="M585.19,-369.83C588.4,-361.35 591.38,-351.96 593,-343 602.52,-290.52 600.19,-275.85 593,-223 591.31,-210.56 587.37,-196.86 584.1,-186.87"/>
<polygon fill="midnightblue" stroke="midnightblue" points="581.87,-368.69 581.38,-379.28 588.37,-371.31 581.87,-368.69"/>
</g>
<!-- Node13 -->
<g id="node13" class="node">
<title>Node13</title>
<g id="a_node13"><a xlink:href="../../d5/d36/BytecodeReader_8cpp.html" target="_top" xlink:title=" ">
<polygon fill="white" stroke="black" points="645,-301.5 645,-342.5 779,-342.5 779,-301.5 645,-301.5"/>
<text text-anchor="start" x="653" y="-330.5" font-family="Helvetica,sans-Serif" font-size="10.00">/home/fola/code/Ark</text>
<text text-anchor="start" x="653" y="-319.5" font-family="Helvetica,sans-Serif" font-size="10.00">/src/arkreactor/Compiler</text>
<text text-anchor="middle" x="712" y="-308.5" font-family="Helvetica,sans-Serif" font-size="10.00">/BytecodeReader.cpp</text>
</a>
</g>
</g>
<!-- Node3&#45;&gt;Node13 -->
<g id="edge13" class="edge">
<title>Node3&#45;&gt;Node13</title>
<path fill="none" stroke="midnightblue" d="M616.9,-374.63C636.03,-364.24 658.04,-352.29 676.07,-342.51"/>
<polygon fill="midnightblue" stroke="midnightblue" points="615.17,-371.58 608.05,-379.43 618.51,-377.73 615.17,-371.58"/>
</g>
<!-- Node14 -->
<g id="node14" class="node">
<title>Node14</title>
<g id="a_node14"><a xlink:href="../../de/dfa/Compiler_8cpp.html" target="_top" xlink:title=" ">
<polygon fill="white" stroke="black" points="796,-223.5 796,-264.5 930,-264.5 930,-223.5 796,-223.5"/>
<text text-anchor="start" x="804" y="-252.5" font-family="Helvetica,sans-Serif" font-size="10.00">/home/fola/code/Ark</text>
<text text-anchor="start" x="804" y="-241.5" font-family="Helvetica,sans-Serif" font-size="10.00">/src/arkreactor/Compiler</text>
<text text-anchor="middle" x="863" y="-230.5" font-family="Helvetica,sans-Serif" font-size="10.00">/Compiler.cpp</text>
</a>
</g>
</g>
<!-- Node3&#45;&gt;Node14 -->
<g id="edge14" class="edge">
<title>Node3&#45;&gt;Node14</title>
<path fill="none" stroke="midnightblue" d="M639.52,-379.06C707.19,-362.84 733.48,-378.51 788,-343 803.8,-332.71 833.32,-290.25 850.23,-264.71"/>
<polygon fill="midnightblue" stroke="midnightblue" points="638.51,-375.7 629.69,-381.57 640.24,-382.49 638.51,-375.7"/>
</g>
<!-- Node15 -->
<g id="node15" class="node">
<title>Node15</title>
<g id="a_node15"><a xlink:href="../../d6/d69/Processor_8cpp.html" target="_top" xlink:title=" ">
<polygon fill="white" stroke="black" points="838,-301.5 838,-342.5 972,-342.5 972,-301.5 838,-301.5"/>
<text text-anchor="start" x="846" y="-330.5" font-family="Helvetica,sans-Serif" font-size="10.00">/home/fola/code/Ark</text>
<text text-anchor="start" x="846" y="-319.5" font-family="Helvetica,sans-Serif" font-size="10.00">/src/arkreactor/Compiler</text>
<text text-anchor="middle" x="905" y="-308.5" font-family="Helvetica,sans-Serif" font-size="10.00">/Macros/Processor.cpp</text>
</a>
</g>
</g>
<!-- Node3&#45;&gt;Node15 -->
<g id="edge15" class="edge">
<title>Node3&#45;&gt;Node15</title>
<path fill="none" stroke="midnightblue" d="M639.42,-379.02C721.6,-359.17 744.63,-360.21 823,-343 827.87,-341.93 832.89,-340.79 837.93,-339.62"/>
<polygon fill="midnightblue" stroke="midnightblue" points="638.53,-375.63 629.65,-381.41 640.19,-382.43 638.53,-375.63"/>
</g>
<!-- Node5 -->
<g id="node5" class="node">
<title>Node5</title>
<g id="a_node5"><a xlink:href="../../d3/d7e/Ark_8hpp.html" target="_top" xlink:title="Includes the needed files to start using ArkScript.">
<polygon fill="white" stroke="black" points="1279.5,-84 1279.5,-114 1394.5,-114 1394.5,-84 1279.5,-84"/>
<text text-anchor="start" x="1287.5" y="-102" font-family="Helvetica,sans-Serif" font-size="10.00">/home/fola/code/Ark</text>
<text text-anchor="middle" x="1337" y="-91" font-family="Helvetica,sans-Serif" font-size="10.00">/include/Ark/Ark.hpp</text>
</a>
</g>
</g>
<!-- Node4&#45;&gt;Node5 -->
<g id="edge4" class="edge">
<title>Node4&#45;&gt;Node5</title>
<path fill="none" stroke="midnightblue" d="M655.69,-170.09C783.61,-168.24 1048.18,-159.47 1268,-120 1276.35,-118.5 1285.13,-116.39 1293.52,-114.09"/>
<polygon fill="midnightblue" stroke="midnightblue" points="655.56,-166.59 645.61,-170.22 655.65,-173.59 655.56,-166.59"/>
</g>
<!-- Node8 -->
<g id="node8" class="node">
<title>Node8</title>
<g id="a_node8"><a xlink:href="../../d5/da5/Repl_8hpp.html" target="_top" xlink:title="ArkScript REPL &#45; Read Eval Print Loop.">
<polygon fill="white" stroke="black" points="941.5,-84 941.5,-114 1088.5,-114 1088.5,-84 941.5,-84"/>
<text text-anchor="start" x="949.5" y="-102" font-family="Helvetica,sans-Serif" font-size="10.00">/home/fola/code/Ark</text>
<text text-anchor="middle" x="1015" y="-91" font-family="Helvetica,sans-Serif" font-size="10.00">/include/Ark/REPL/Repl.hpp</text>
</a>
</g>
</g>
<!-- Node4&#45;&gt;Node8 -->
<g id="edge7" class="edge">
<title>Node4&#45;&gt;Node8</title>
<path fill="none" stroke="midnightblue" d="M655.77,-158.09C736.33,-145.06 862.04,-124.73 941.39,-111.9"/>
<polygon fill="midnightblue" stroke="midnightblue" points="655.01,-154.66 645.69,-159.72 656.12,-161.57 655.01,-154.66"/>
</g>
<!-- Node10 -->
<g id="node10" class="node">
<title>Node10</title>
<g id="a_node10"><a xlink:href="../../d4/dc9/Future_8cpp.html" target="_top" xlink:title=" ">
<polygon fill="white" stroke="black" points="327,-84 327,-114 487,-114 487,-84 327,-84"/>
<text text-anchor="start" x="335" y="-102" font-family="Helvetica,sans-Serif" font-size="10.00">/home/fola/code/Ark</text>
<text text-anchor="middle" x="407" y="-91" font-family="Helvetica,sans-Serif" font-size="10.00">/src/arkreactor/VM/Future.cpp</text>
</a>
</g>
</g>
<!-- Node4&#45;&gt;Node10 -->
<g id="edge10" class="edge">
<title>Node4&#45;&gt;Node10</title>
<path fill="none" stroke="midnightblue" d="M535.08,-152.5C505.95,-140.56 468.27,-125.11 441.33,-114.07"/>
<polygon fill="midnightblue" stroke="midnightblue" points="534.03,-155.85 544.61,-156.4 536.68,-149.37 534.03,-155.85"/>
</g>
<!-- Node4&#45;&gt;Node11 -->
<g id="edge11" class="edge">
<title>Node4&#45;&gt;Node11</title>
<path fill="none" stroke="midnightblue" d="M502.48,-159.94C403.12,-146.23 231.18,-122.51 136.12,-109.4"/>
<polygon fill="midnightblue" stroke="midnightblue" points="502.07,-163.42 512.46,-161.32 503.03,-156.49 502.07,-163.42"/>
</g>
<!-- Node12 -->
<g id="node12" class="node">
<title>Node12</title>
<g id="a_node12"><a xlink:href="../../d2/d27/VM_8cpp.html" target="_top" xlink:title=" ">
<polygon fill="white" stroke="black" points="1113.5,-84 1113.5,-114 1258.5,-114 1258.5,-84 1113.5,-84"/>
<text text-anchor="start" x="1121.5" y="-102" font-family="Helvetica,sans-Serif" font-size="10.00">/home/fola/code/Ark</text>
<text text-anchor="middle" x="1186" y="-91" font-family="Helvetica,sans-Serif" font-size="10.00">/src/arkreactor/VM/VM.cpp</text>
</a>
</g>
</g>
<!-- Node4&#45;&gt;Node12 -->
<g id="edge12" class="edge">
<title>Node4&#45;&gt;Node12</title>
<path fill="none" stroke="midnightblue" d="M655.88,-166.07C757.54,-159.51 942.04,-145.21 1098,-120 1108.05,-118.38 1118.67,-116.29 1128.93,-114.07"/>
<polygon fill="midnightblue" stroke="midnightblue" points="655.46,-162.59 645.71,-166.72 655.91,-169.57 655.46,-162.59"/>
</g>
<!-- Node6 -->
<g id="node6" class="node">
<title>Node6</title>
<g id="a_node6"><a xlink:href="../../dc/d32/Ark_8cpp.html" target="_top" xlink:title=" ">
<polygon fill="white" stroke="black" points="1200.5,-6 1200.5,-36 1327.5,-36 1327.5,-6 1200.5,-6"/>
<text text-anchor="start" x="1208.5" y="-24" font-family="Helvetica,sans-Serif" font-size="10.00">/home/fola/code/Ark</text>
<text text-anchor="middle" x="1264" y="-13" font-family="Helvetica,sans-Serif" font-size="10.00">/src/arkreactor/Ark.cpp</text>
</a>
</g>
</g>
<!-- Node5&#45;&gt;Node6 -->
<g id="edge5" class="edge">
<title>Node5&#45;&gt;Node6</title>
<path fill="none" stroke="midnightblue" d="M1316.03,-76.17C1303.7,-63.33 1288.46,-47.47 1277.67,-36.23"/>
<polygon fill="midnightblue" stroke="midnightblue" points="1313.82,-78.92 1323.27,-83.7 1318.87,-74.07 1313.82,-78.92"/>
</g>
<!-- Node5&#45;&gt;Node7 -->
<g id="edge6" class="edge">
<title>Node5&#45;&gt;Node7</title>
<path fill="none" stroke="midnightblue" d="M1357.97,-76.17C1370.3,-63.33 1385.54,-47.47 1396.33,-36.23"/>
<polygon fill="midnightblue" stroke="midnightblue" points="1355.13,-74.07 1350.73,-83.7 1360.18,-78.92 1355.13,-74.07"/>
</g>
<!-- Node8&#45;&gt;Node7 -->
<g id="edge8" class="edge">
<title>Node8&#45;&gt;Node7</title>
<path fill="none" stroke="midnightblue" d="M1085.96,-81.78C1092.39,-80.45 1098.81,-79.17 1105,-78 1207.54,-58.67 1234.96,-63.82 1337,-42 1345.1,-40.27 1353.63,-38.18 1361.89,-36.01"/>
<polygon fill="midnightblue" stroke="midnightblue" points="1084.95,-78.42 1075.89,-83.91 1086.4,-85.27 1084.95,-78.42"/>
</g>
<!-- Node9 -->
<g id="node9" class="node">
<title>Node9</title>
<g id="a_node9"><a xlink:href="../../d7/d46/Repl_8cpp.html" target="_top" xlink:title=" ">
<polygon fill="white" stroke="black" points="957.5,-0.5 957.5,-41.5 1072.5,-41.5 1072.5,-0.5 957.5,-0.5"/>
<text text-anchor="start" x="965.5" y="-29.5" font-family="Helvetica,sans-Serif" font-size="10.00">/home/fola/code/Ark</text>
<text text-anchor="start" x="965.5" y="-18.5" font-family="Helvetica,sans-Serif" font-size="10.00">/src/arkscript/REPL</text>
<text text-anchor="middle" x="1015" y="-7.5" font-family="Helvetica,sans-Serif" font-size="10.00">/Repl.cpp</text>
</a>
</g>
</g>
<!-- Node8&#45;&gt;Node9 -->
<g id="edge9" class="edge">
<title>Node8&#45;&gt;Node9</title>
<path fill="none" stroke="midnightblue" d="M1015,-73.66C1015,-63.33 1015,-51.44 1015,-41.68"/>
<polygon fill="midnightblue" stroke="midnightblue" points="1011.5,-73.7 1015,-83.7 1018.5,-73.71 1011.5,-73.7"/>
</g>
<!-- Node16&#45;&gt;Node3 -->
<g id="edge18" class="edge">
<title>Node16&#45;&gt;Node3</title>
<path fill="none" stroke="midnightblue" d="M932.5,-463.93C855.04,-456.23 738.65,-442.35 639,-421 635.91,-420.34 632.76,-419.61 629.59,-418.82"/>
<polygon fill="midnightblue" stroke="midnightblue" points="932.4,-467.44 942.69,-464.93 933.08,-460.47 932.4,-467.44"/>
</g>
<!-- Node16&#45;&gt;Node5 -->
<g id="edge17" class="edge">
<title>Node16&#45;&gt;Node5</title>
<path fill="none" stroke="midnightblue" d="M1105.03,-455.55C1177.5,-441.93 1269.92,-424.08 1273,-421 1360.22,-333.83 1345.56,-163.79 1339.07,-114.01"/>
<polygon fill="midnightblue" stroke="midnightblue" points="1104.13,-452.16 1094.95,-457.44 1105.42,-459.04 1104.13,-452.16"/>
</g>
<!-- Node16&#45;&gt;Node15 -->
<g id="edge32" class="edge">
<title>Node16&#45;&gt;Node15</title>
<path fill="none" stroke="midnightblue" d="M1062.91,-452.46C1075.57,-444.65 1087.88,-434.27 1095,-421 1103.82,-404.55 1106.18,-393.95 1095,-379 1091.1,-373.78 1025.27,-355.13 972.18,-340.77"/>
<polygon fill="midnightblue" stroke="midnightblue" points="1061.1,-449.46 1054.14,-457.45 1064.56,-455.54 1061.1,-449.46"/>
</g>
<!-- Node17 -->
<g id="node17" class="node">
<title>Node17</title>
<g id="a_node17"><a xlink:href="../../db/d93/Optimizer_8hpp.html" target="_top" xlink:title="Optimizes a given ArkScript AST.">
<polygon fill="white" stroke="black" points="1142,-379.5 1142,-420.5 1264,-420.5 1264,-379.5 1142,-379.5"/>
<text text-anchor="start" x="1150" y="-408.5" font-family="Helvetica,sans-Serif" font-size="10.00">/home/fola/code/Ark</text>
<text text-anchor="start" x="1150" y="-397.5" font-family="Helvetica,sans-Serif" font-size="10.00">/include/Ark/Compiler</text>
<text text-anchor="middle" x="1203" y="-386.5" font-family="Helvetica,sans-Serif" font-size="10.00">/AST/Optimizer.hpp</text>
</a>
</g>
</g>
<!-- Node16&#45;&gt;Node17 -->
<g id="edge19" class="edge">
<title>Node16&#45;&gt;Node17</title>
<path fill="none" stroke="midnightblue" d="M1065.2,-453.8C1091.62,-443.68 1124.8,-430.96 1151.99,-420.55"/>
<polygon fill="midnightblue" stroke="midnightblue" points="1063.88,-450.56 1055.79,-457.4 1066.38,-457.09 1063.88,-450.56"/>
</g>
<!-- Node22 -->
<g id="node22" class="node">
<title>Node22</title>
<g id="a_node22"><a xlink:href="../../d2/d15/Lexer_8cpp.html" target="_top" xlink:title=" ">
<polygon fill="white" stroke="black" points="648,-379.5 648,-420.5 782,-420.5 782,-379.5 648,-379.5"/>
<text text-anchor="start" x="656" y="-408.5" font-family="Helvetica,sans-Serif" font-size="10.00">/home/fola/code/Ark</text>
<text text-anchor="start" x="656" y="-397.5" font-family="Helvetica,sans-Serif" font-size="10.00">/src/arkreactor/Compiler</text>
<text text-anchor="middle" x="715" y="-386.5" font-family="Helvetica,sans-Serif" font-size="10.00">/AST/Lexer.cpp</text>
</a>
</g>
</g>
<!-- Node16&#45;&gt;Node22 -->
<g id="edge29" class="edge">
<title>Node16&#45;&gt;Node22</title>
<path fill="none" stroke="midnightblue" d="M942.65,-455.37C898.29,-445.81 841.37,-433.2 791,-421 788.08,-420.29 785.11,-419.56 782.1,-418.81"/>
<polygon fill="midnightblue" stroke="midnightblue" points="941.98,-458.81 952.49,-457.49 943.45,-451.97 941.98,-458.81"/>
</g>
<!-- Node23 -->
<g id="node23" class="node">
<title>Node23</title>
<g id="a_node23"><a xlink:href="../../dc/d73/Node_8cpp.html" target="_top" xlink:title=" ">
<polygon fill="white" stroke="black" points="800,-379.5 800,-420.5 934,-420.5 934,-379.5 800,-379.5"/>
<text text-anchor="start" x="808" y="-408.5" font-family="Helvetica,sans-Serif" font-size="10.00">/home/fola/code/Ark</text>
<text text-anchor="start" x="808" y="-397.5" font-family="Helvetica,sans-Serif" font-size="10.00">/src/arkreactor/Compiler</text>
<text text-anchor="middle" x="867" y="-386.5" font-family="Helvetica,sans-Serif" font-size="10.00">/AST/Node.cpp</text>
</a>
</g>
</g>
<!-- Node16&#45;&gt;Node23 -->
<g id="edge30" class="edge">
<title>Node16&#45;&gt;Node23</title>
<path fill="none" stroke="midnightblue" d="M979.39,-453.13C957.81,-443.12 931.11,-430.73 909.14,-420.55"/>
<polygon fill="midnightblue" stroke="midnightblue" points="978.06,-456.37 988.61,-457.4 981.01,-450.02 978.06,-456.37"/>
</g>
<!-- Node24 -->
<g id="node24" class="node">
<title>Node24</title>
<g id="a_node24"><a xlink:href="../../dc/df5/Parser_8cpp.html" target="_top" xlink:title=" ">
<polygon fill="white" stroke="black" points="952,-379.5 952,-420.5 1086,-420.5 1086,-379.5 952,-379.5"/>
<text text-anchor="start" x="960" y="-408.5" font-family="Helvetica,sans-Serif" font-size="10.00">/home/fola/code/Ark</text>
<text text-anchor="start" x="960" y="-397.5" font-family="Helvetica,sans-Serif" font-size="10.00">/src/arkreactor/Compiler</text>
<text text-anchor="middle" x="1019" y="-386.5" font-family="Helvetica,sans-Serif" font-size="10.00">/AST/Parser.cpp</text>
</a>
</g>
</g>
<!-- Node16&#45;&gt;Node24 -->
<g id="edge31" class="edge">
<title>Node16&#45;&gt;Node24</title>
<path fill="none" stroke="midnightblue" d="M1019,-446.98C1019,-438.35 1019,-428.76 1019,-420.59"/>
<polygon fill="midnightblue" stroke="midnightblue" points="1015.5,-447.23 1019,-457.23 1022.5,-447.23 1015.5,-447.23"/>
</g>
<!-- Node25 -->
<g id="node25" class="node">
<title>Node25</title>
<g id="a_node25"><a xlink:href="../../d6/d9a/TypeChecker_8cpp.html" target="_top" xlink:title=" ">
<polygon fill="white" stroke="black" points="1320.5,-385 1320.5,-415 1491.5,-415 1491.5,-385 1320.5,-385"/>
<text text-anchor="start" x="1328.5" y="-403" font-family="Helvetica,sans-Serif" font-size="10.00">/home/fola/code/Ark</text>
<text text-anchor="middle" x="1406" y="-392" font-family="Helvetica,sans-Serif" font-size="10.00">/src/arkreactor/TypeChecker.cpp</text>
</a>
</g>
</g>
<!-- Node16&#45;&gt;Node25 -->
<g id="edge33" class="edge">
<title>Node16&#45;&gt;Node25</title>
<path fill="none" stroke="midnightblue" d="M1105.28,-456.86C1162.32,-447.04 1238.69,-433.65 1306,-421 1316.01,-419.12 1326.56,-417.07 1336.91,-415.03"/>
<polygon fill="midnightblue" stroke="midnightblue" points="1104.49,-453.44 1095.22,-458.58 1105.67,-460.34 1104.49,-453.44"/>
</g>
<!-- Node18 -->
<g id="node18" class="node">
<title>Node18</title>
<g id="a_node18"><a xlink:href="../../d8/d0f/Compiler_8hpp.html" target="_top" xlink:title="ArkScript compiler is in charge of transforming the AST into bytecode.">
<polygon fill="white" stroke="black" points="1142,-301.5 1142,-342.5 1264,-342.5 1264,-301.5 1142,-301.5"/>
<text text-anchor="start" x="1150" y="-330.5" font-family="Helvetica,sans-Serif" font-size="10.00">/home/fola/code/Ark</text>
<text text-anchor="start" x="1150" y="-319.5" font-family="Helvetica,sans-Serif" font-size="10.00">/include/Ark/Compiler</text>
<text text-anchor="middle" x="1203" y="-308.5" font-family="Helvetica,sans-Serif" font-size="10.00">/Compiler.hpp</text>
</a>
</g>
</g>
<!-- Node17&#45;&gt;Node18 -->
<g id="edge20" class="edge">
<title>Node17&#45;&gt;Node18</title>
<path fill="none" stroke="midnightblue" d="M1203,-369.3C1203,-360.3 1203,-350.65 1203,-342.51"/>
<polygon fill="midnightblue" stroke="midnightblue" points="1199.5,-369.43 1203,-379.43 1206.5,-369.43 1199.5,-369.43"/>
</g>
<!-- Node21 -->
<g id="node21" class="node">
<title>Node21</title>
<g id="a_node21"><a xlink:href="../../d2/dc5/Optimizer_8cpp.html" target="_top" xlink:title=" ">
<polygon fill="white" stroke="black" points="990,-301.5 990,-342.5 1124,-342.5 1124,-301.5 990,-301.5"/>
<text text-anchor="start" x="998" y="-330.5" font-family="Helvetica,sans-Serif" font-size="10.00">/home/fola/code/Ark</text>
<text text-anchor="start" x="998" y="-319.5" font-family="Helvetica,sans-Serif" font-size="10.00">/src/arkreactor/Compiler</text>
<text text-anchor="middle" x="1057" y="-308.5" font-family="Helvetica,sans-Serif" font-size="10.00">/AST/Optimizer.cpp</text>
</a>
</g>
</g>
<!-- Node17&#45;&gt;Node21 -->
<g id="edge28" class="edge">
<title>Node17&#45;&gt;Node21</title>
<path fill="none" stroke="midnightblue" d="M1156.45,-374.77C1136.44,-364.35 1113.36,-352.34 1094.47,-342.51"/>
<polygon fill="midnightblue" stroke="midnightblue" points="1154.92,-377.92 1165.4,-379.43 1158.15,-371.71 1154.92,-377.92"/>
</g>
<!-- Node18&#45;&gt;Node5 -->
<g id="edge21" class="edge">
<title>Node18&#45;&gt;Node5</title>
<path fill="none" stroke="midnightblue" d="M1220.73,-292.86C1226.29,-283.97 1232.43,-274.09 1238,-265 1272.02,-209.45 1311.65,-142.79 1328.61,-114.18"/>
<polygon fill="midnightblue" stroke="midnightblue" points="1217.75,-291.03 1215.4,-301.36 1223.68,-294.74 1217.75,-291.03"/>
</g>
<!-- Node18&#45;&gt;Node8 -->
<g id="edge22" class="edge">
<title>Node18&#45;&gt;Node8</title>
<path fill="none" stroke="midnightblue" d="M1132.44,-300.26C1112.65,-291.81 1092.37,-280.32 1077,-265 1033.65,-221.8 1020.19,-145.39 1016.38,-114.03"/>
<polygon fill="midnightblue" stroke="midnightblue" points="1131.2,-303.54 1141.79,-304.05 1133.84,-297.05 1131.2,-303.54"/>
</g>
<!-- Node18&#45;&gt;Node14 -->
<g id="edge27" class="edge">
<title>Node18&#45;&gt;Node14</title>
<path fill="none" stroke="midnightblue" d="M1131.97,-300.82C1057.55,-282.72 982.62,-267.59 930.16,-257.5"/>
<polygon fill="midnightblue" stroke="midnightblue" points="1131.44,-304.3 1141.99,-303.28 1133.11,-297.5 1131.44,-304.3"/>
</g>
<!-- Node18&#45;&gt;Node19 -->
<g id="edge23" class="edge">
<title>Node18&#45;&gt;Node19</title>
<path fill="none" stroke="midnightblue" d="M1185.84,-292.64C1178.94,-281.25 1171.29,-268.62 1165.61,-259.23"/>
<polygon fill="midnightblue" stroke="midnightblue" points="1182.98,-294.69 1191.15,-301.43 1188.97,-291.06 1182.98,-294.69"/>
</g>
<!-- Node19&#45;&gt;Node4 -->
<g id="edge25" class="edge">
<title>Node19&#45;&gt;Node4</title>
<path fill="none" stroke="midnightblue" d="M1075.08,-233.01C959.85,-218.95 752.13,-193.62 645.74,-180.64"/>
<polygon fill="midnightblue" stroke="midnightblue" points="1074.91,-236.51 1085.26,-234.25 1075.75,-229.56 1074.91,-236.51"/>
</g>
<!-- Node19&#45;&gt;Node8 -->
<g id="edge24" class="edge">
<title>Node19&#45;&gt;Node8</title>
<path fill="none" stroke="midnightblue" d="M1120.52,-223.91C1104.19,-214.25 1085.42,-201.49 1071,-187 1048.96,-164.84 1031.01,-132.61 1021.77,-114.24"/>
<polygon fill="midnightblue" stroke="midnightblue" points="1118.88,-227 1129.29,-228.95 1122.36,-220.93 1118.88,-227"/>
</g>
<!-- Node20 -->
<g id="node20" class="node">
<title>Node20</title>
<g id="a_node20"><a xlink:href="../../d0/da0/State_8cpp.html" target="_top" xlink:title=" ">
<polygon fill="white" stroke="black" points="1079.5,-156.5 1079.5,-186.5 1234.5,-186.5 1234.5,-156.5 1079.5,-156.5"/>
<text text-anchor="start" x="1087.5" y="-174.5" font-family="Helvetica,sans-Serif" font-size="10.00">/home/fola/code/Ark</text>
<text text-anchor="middle" x="1157" y="-163.5" font-family="Helvetica,sans-Serif" font-size="10.00">/src/arkreactor/VM/State.cpp</text>
</a>
</g>
</g>
<!-- Node19&#45;&gt;Node20 -->
<g id="edge26" class="edge">
<title>Node19&#45;&gt;Node20</title>
<path fill="none" stroke="midnightblue" d="M1157,-218.73C1157,-208.07 1157,-195.91 1157,-186.75"/>
<polygon fill="midnightblue" stroke="midnightblue" points="1153.5,-218.73 1157,-228.73 1160.5,-218.73 1153.5,-218.73"/>
</g>
<!-- Node26&#45;&gt;Node5 -->
<g id="edge35" class="edge">
<title>Node26&#45;&gt;Node5</title>
<path fill="none" stroke="midnightblue" d="M1531.69,-452.84C1546.58,-445.05 1561.68,-434.59 1572,-421 1599.13,-385.3 1596,-367.84 1596,-323 1596,-323 1596,-323 1596,-243 1596,-151.7 1471.14,-118.25 1394.8,-106.32"/>
<polygon fill="midnightblue" stroke="midnightblue" points="1529.93,-449.8 1522.49,-457.35 1533.01,-456.09 1529.93,-449.8"/>
</g>
<!-- Node26&#45;&gt;Node12 -->
<g id="edge37" class="edge">
<title>Node26&#45;&gt;Node12</title>
<path fill="none" stroke="midnightblue" d="M1504.91,-449.96C1512.14,-441.68 1519.22,-431.65 1523,-421 1542.1,-367.17 1515.92,-342.81 1477,-301 1395.63,-213.58 1269.93,-142.97 1214.23,-114.09"/>
<polygon fill="midnightblue" stroke="midnightblue" points="1502.3,-447.62 1498.03,-457.32 1507.41,-452.4 1502.3,-447.62"/>
</g>
<!-- Node26&#45;&gt;Node25 -->
<g id="edge36" class="edge">
<title>Node26&#45;&gt;Node25</title>
<path fill="none" stroke="midnightblue" d="M1458.97,-450.14C1446.69,-438.74 1431.92,-425.04 1421.1,-415"/>
<polygon fill="midnightblue" stroke="midnightblue" points="1456.91,-453 1466.62,-457.23 1461.67,-447.87 1456.91,-453"/>
</g>
<!-- Node27&#45;&gt;Node4 -->
<g id="edge42" class="edge">
<title>Node27&#45;&gt;Node4</title>
<path fill="none" stroke="midnightblue" d="M468.15,-299.13C495.11,-268.33 543.52,-213.03 566.38,-186.91"/>
<polygon fill="midnightblue" stroke="midnightblue" points="465.42,-296.93 461.46,-306.76 470.69,-301.54 465.42,-296.93"/>
</g>
<!-- Node27&#45;&gt;Node28 -->
<g id="edge39" class="edge">
<title>Node27&#45;&gt;Node28</title>
<path fill="none" stroke="midnightblue" d="M387.83,-304.34C338.08,-290.78 268.66,-271.88 221.67,-259.07"/>
<polygon fill="midnightblue" stroke="midnightblue" points="386.93,-307.72 397.5,-306.97 388.77,-300.97 386.93,-307.72"/>
</g>
<!-- Node28&#45;&gt;Node4 -->
<g id="edge40" class="edge">
<title>Node28&#45;&gt;Node4</title>
<path fill="none" stroke="midnightblue" d="M239.38,-226.77C245.67,-225.44 251.94,-224.16 258,-223 345.54,-206.19 447.29,-190.89 512.38,-181.64"/>
<polygon fill="midnightblue" stroke="midnightblue" points="238.57,-223.37 229.53,-228.9 240.04,-230.21 238.57,-223.37"/>
</g>
<!-- Node28&#45;&gt;Node10 -->
<g id="edge41" class="edge">
<title>Node28&#45;&gt;Node10</title>
<path fill="none" stroke="midnightblue" d="M202.41,-223.45C250.83,-194.23 340.9,-139.88 383.5,-114.18"/>
<polygon fill="midnightblue" stroke="midnightblue" points="200.34,-220.6 193.59,-228.77 203.96,-226.6 200.34,-220.6"/>
</g>
<!-- Node29&#45;&gt;Node4 -->
<g id="edge46" class="edge">
<title>Node29&#45;&gt;Node4</title>
<path fill="none" stroke="midnightblue" d="M203.42,-380.16C187.66,-371.37 171.89,-359.19 163,-343 154.02,-326.64 151.92,-316.02 163,-301 174.16,-285.87 419.34,-216.61 527.97,-186.52"/>
<polygon fill="midnightblue" stroke="midnightblue" points="202.16,-383.45 212.65,-384.95 205.39,-377.24 202.16,-383.45"/>
</g>
<!-- Node29&#45;&gt;Node11 -->
<g id="edge48" class="edge">
<title>Node29&#45;&gt;Node11</title>
<path fill="none" stroke="midnightblue" d="M210.31,-380.17C169.82,-358.82 110.44,-319.72 87,-265 66,-215.96 65.43,-151.63 66.73,-119.72"/>
<polygon fill="midnightblue" stroke="midnightblue" points="208.9,-383.38 219.4,-384.84 212.1,-377.16 208.9,-383.38"/>
</g>
<!-- Node29&#45;&gt;Node27 -->
<g id="edge45" class="edge">
<title>Node29&#45;&gt;Node27</title>
<path fill="none" stroke="midnightblue" d="M297.32,-381.22C332.42,-367.75 379.97,-349.5 412.42,-337.04"/>
<polygon fill="midnightblue" stroke="midnightblue" points="295.86,-378.03 287.78,-384.88 298.37,-384.57 295.86,-378.03"/>
</g>
<!-- Node30 -->
<g id="node30" class="node">
<title>Node30</title>
<g id="a_node30"><a xlink:href="../../d5/d04/Scope_8cpp.html" target="_top" xlink:title=" ">
<polygon fill="white" stroke="black" points="172,-307 172,-337 330,-337 330,-307 172,-307"/>
<text text-anchor="start" x="180" y="-325" font-family="Helvetica,sans-Serif" font-size="10.00">/home/fola/code/Ark</text>
<text text-anchor="middle" x="251" y="-314" font-family="Helvetica,sans-Serif" font-size="10.00">/src/arkreactor/VM/Scope.cpp</text>
</a>
</g>
</g>
<!-- Node29&#45;&gt;Node30 -->
<g id="edge47" class="edge">
<title>Node29&#45;&gt;Node30</title>
<path fill="none" stroke="midnightblue" d="M251,-374.59C251,-362.26 251,-347.72 251,-337.23"/>
<polygon fill="midnightblue" stroke="midnightblue" points="247.5,-374.7 251,-384.7 254.5,-374.71 247.5,-374.7"/>
</g>
</g>
</svg>
