<?xml version="1.0" encoding="UTF-8" standalone="no"?>
<!DOCTYPE svg PUBLIC "-//W3C//DTD SVG 1.1//EN"
 "http://www.w3.org/Graphics/SVG/1.1/DTD/svg11.dtd">
<!-- Generated by graphviz version 2.49.0 (20210828.1703)
 -->
<!-- Title: C:/Users/folae/Documents/Code/Big&#45;Projects/ArkScript/Ark/src/arkreactor/Compiler/Macros/Processor.cpp Pages: 1 -->
<!--zoomable 430 -->
<svg id="main" version="1.1" xmlns="http://www.w3.org/2000/svg" xmlns:xlink="http://www.w3.org/1999/xlink" xml:space="preserve" onload="init(evt)">
<style type="text/css"><![CDATA[
.edge:hover path { stroke: red; }
.edge:hover polygon { stroke: red; fill: red; }
]]></style>
<script type="text/javascript"><![CDATA[
var edges = document.getElementsByTagName('g');
if (edges && edges.length) {
  for (var i=0;i<edges.length;i++) {
    if (edges[i].id.substr(0,4)=='edge') {
      edges[i].setAttribute('class','edge');
    }
  }
}
]]></script>
        <defs>
                <circle id="rim" cx="0" cy="0" r="7"/>
                <circle id="rim2" cx="0" cy="0" r="3.5"/>
                <g id="zoomPlus">
                        <use xlink:href="#rim" fill="#404040">
                                <set attributeName="fill" to="#808080" begin="zoomplus.mouseover" end="zoomplus.mouseout"/>
                        </use>
                        <path d="M-4,0h8M0,-4v8" fill="none" stroke="white" stroke-width="1.5" pointer-events="none"/>
                </g>
                <g id="zoomMin">
                        <use xlink:href="#rim" fill="#404040">
                                <set attributeName="fill" to="#808080" begin="zoomminus.mouseover" end="zoomminus.mouseout"/>
                        </use>
                        <path d="M-4,0h8" fill="none" stroke="white" stroke-width="1.5" pointer-events="none"/>
                </g>
                <g id="dirArrow">
                        <path fill="none" stroke="white" stroke-width="1.5" d="M0,-3.0v7 M-2.5,-0.5L0,-3.0L2.5,-0.5"/>
                </g>
               <g id="resetDef">
                       <use xlink:href="#rim2" fill="#404040">
                               <set attributeName="fill" to="#808080" begin="reset.mouseover" end="reset.mouseout"/>
                       </use>
               </g>
        </defs>

<script type="text/javascript">
var viewWidth = 1618;
var viewHeight = 430;
var sectionId = 'dynsection-0';
</script>
<script xlink:href="../../svgpan.js"/>
<svg id="graph" class="graph">
<g id="viewport">
<title>C:/Users/folae/Documents/Code/Big&#45;Projects/ArkScript/Ark/src/arkreactor/Compiler/Macros/Processor.cpp</title>
<polygon fill="white" stroke="transparent" points="-4,4 -4,-426 1614,-426 1614,4 -4,4"/>
<!-- Node1 -->
<g id="node1" class="node">
<title>Node1</title>
<g id="a_node1"><a xlink:title=" ">
<polygon fill="#bfbfbf" stroke="black" points="763,-369.5 763,-421.5 905,-421.5 905,-369.5 763,-369.5"/>
<text text-anchor="start" x="771" y="-409.5" font-family="Helvetica,sans-Serif" font-size="10.00">C:/Users/folae/Documents</text>
<text text-anchor="start" x="771" y="-398.5" font-family="Helvetica,sans-Serif" font-size="10.00">/Code/Big&#45;Projects/ArkScript</text>
<text text-anchor="start" x="771" y="-387.5" font-family="Helvetica,sans-Serif" font-size="10.00">/Ark/src/arkreactor/Compiler</text>
<text text-anchor="middle" x="834" y="-376.5" font-family="Helvetica,sans-Serif" font-size="10.00">/Macros/Processor.cpp</text>
</a>
</g>
</g>
<!-- Node2 -->
<g id="node2" class="node">
<title>Node2</title>
<g id="a_node2"><a xlink:href="../../de/db1/Processor_8hpp.html" target="_top" xlink:title="Handles the macros and their expansion in ArkScript source code.">
<polygon fill="white" stroke="black" points="250,-302.5 250,-332.5 358,-332.5 358,-302.5 250,-302.5"/>
<text text-anchor="start" x="258" y="-320.5" font-family="Helvetica,sans-Serif" font-size="10.00">Ark/Compiler/Macros</text>
<text text-anchor="middle" x="304" y="-309.5" font-family="Helvetica,sans-Serif" font-size="10.00">/Processor.hpp</text>
</a>
</g>
</g>
<!-- Node1&#45;&gt;Node2 -->
<g id="edge1" class="edge">
<title>Node1&#45;&gt;Node2</title>
<path fill="none" stroke="midnightblue" d="M762.8,-384.29C659.08,-369.42 467.99,-342.01 368.31,-327.72"/>
<polygon fill="midnightblue" stroke="midnightblue" points="368.76,-324.25 358.37,-326.3 367.77,-331.18 368.76,-324.25"/>
</g>
<!-- Node16 -->
<g id="node16" class="node">
<title>Node16</title>
<g id="a_node16"><a xlink:title=" ">
<polygon fill="white" stroke="#bfbfbf" points="1554,-308 1554,-327 1610,-327 1610,-308 1554,-308"/>
<text text-anchor="middle" x="1582" y="-315" font-family="Helvetica,sans-Serif" font-size="10.00">algorithm</text>
</a>
</g>
</g>
<!-- Node1&#45;&gt;Node16 -->
<g id="edge22" class="edge">
<title>Node1&#45;&gt;Node16</title>
<path fill="none" stroke="midnightblue" d="M905.24,-394.04C1033.58,-391.95 1311.51,-381.62 1540,-333 1543.5,-332.25 1547.11,-331.3 1550.68,-330.25"/>
<polygon fill="midnightblue" stroke="midnightblue" points="1552.06,-333.48 1560.49,-327.06 1549.9,-326.82 1552.06,-333.48"/>
</g>
<!-- Node17 -->
<g id="node17" class="node">
<title>Node17</title>
<g id="a_node17"><a xlink:title=" ">
<polygon fill="white" stroke="#bfbfbf" points="1468,-0.5 1468,-19.5 1508,-19.5 1508,-0.5 1468,-0.5"/>
<text text-anchor="middle" x="1488" y="-7.5" font-family="Helvetica,sans-Serif" font-size="10.00">utility</text>
</a>
</g>
</g>
<!-- Node1&#45;&gt;Node17 -->
<g id="edge23" class="edge">
<title>Node1&#45;&gt;Node17</title>
<path fill="none" stroke="midnightblue" d="M905.13,-394.71C1081.71,-393.32 1526,-377.32 1526,-251.5 1526,-251.5 1526,-251.5 1526,-121 1526,-86.81 1509.4,-49.76 1498.14,-28.57"/>
<polygon fill="midnightblue" stroke="midnightblue" points="1501.18,-26.83 1493.28,-19.77 1495.05,-30.22 1501.18,-26.83"/>
</g>
<!-- Node18 -->
<g id="node18" class="node">
<title>Node18</title>
<g id="a_node18"><a xlink:href="../../d2/de9/Exceptions_8hpp.html" target="_top" xlink:title="ArkScript homemade exceptions.">
<polygon fill="white" stroke="black" points="960,-174 960,-193 1062,-193 1062,-174 960,-174"/>
<text text-anchor="middle" x="1011" y="-181" font-family="Helvetica,sans-Serif" font-size="10.00">Ark/Exceptions.hpp</text>
</a>
</g>
</g>
<!-- Node1&#45;&gt;Node18 -->
<g id="edge24" class="edge">
<title>Node1&#45;&gt;Node18</title>
<path fill="none" stroke="midnightblue" d="M879.1,-369.33C915.14,-346.88 964.08,-310.68 992,-266 1004.06,-246.7 1008.48,-220.49 1010.09,-203.07"/>
<polygon fill="midnightblue" stroke="midnightblue" points="1013.58,-203.26 1010.79,-193.04 1006.6,-202.77 1013.58,-203.26"/>
</g>
<!-- Node30 -->
<g id="node30" class="node">
<title>Node30</title>
<g id="a_node30"><a xlink:href="../../dc/dc5/makeErrorCtx_8hpp.html" target="_top" xlink:title="Create string error context for AST errors.">
<polygon fill="white" stroke="black" points="610.5,-168.5 610.5,-198.5 753.5,-198.5 753.5,-168.5 610.5,-168.5"/>
<text text-anchor="start" x="618.5" y="-186.5" font-family="Helvetica,sans-Serif" font-size="10.00">Ark/Compiler/AST/makeError</text>
<text text-anchor="middle" x="682" y="-175.5" font-family="Helvetica,sans-Serif" font-size="10.00">Ctx.hpp</text>
</a>
</g>
</g>
<!-- Node1&#45;&gt;Node30 -->
<g id="edge54" class="edge">
<title>Node1&#45;&gt;Node30</title>
<path fill="none" stroke="midnightblue" d="M838.37,-369.42C842.84,-335.25 845.39,-273.9 815,-235 802.06,-218.44 783.04,-207.31 763.39,-199.83"/>
<polygon fill="midnightblue" stroke="midnightblue" points="764.32,-196.45 753.73,-196.44 762.01,-203.05 764.32,-196.45"/>
</g>
<!-- Node32 -->
<g id="node32" class="node">
<title>Node32</title>
<g id="a_node32"><a xlink:href="../../da/d84/Builtins_8hpp.html" target="_top" xlink:title="Host the declaration of all the ArkScript builtins.">
<polygon fill="white" stroke="black" points="862.5,-241 862.5,-260 983.5,-260 983.5,-241 862.5,-241"/>
<text text-anchor="middle" x="923" y="-248" font-family="Helvetica,sans-Serif" font-size="10.00">Ark/Builtins/Builtins.hpp</text>
</a>
</g>
</g>
<!-- Node1&#45;&gt;Node32 -->
<g id="edge58" class="edge">
<title>Node1&#45;&gt;Node32</title>
<path fill="none" stroke="midnightblue" d="M849.71,-369.26C867.68,-340.38 896.64,-293.86 912.23,-268.8"/>
<polygon fill="midnightblue" stroke="midnightblue" points="915.36,-270.39 917.68,-260.05 909.42,-266.69 915.36,-270.39"/>
</g>
<!-- Node33 -->
<g id="node33" class="node">
<title>Node33</title>
<g id="a_node33"><a xlink:href="../../dc/dce/Symbol_8hpp.html" target="_top" xlink:title="Executor for Symbol Macros.">
<polygon fill="white" stroke="black" points="408.5,-235.5 408.5,-265.5 527.5,-265.5 527.5,-235.5 408.5,-235.5"/>
<text text-anchor="start" x="416.5" y="-253.5" font-family="Helvetica,sans-Serif" font-size="10.00">Ark/Compiler/Macros</text>
<text text-anchor="middle" x="468" y="-242.5" font-family="Helvetica,sans-Serif" font-size="10.00">/Executors/Symbol.hpp</text>
</a>
</g>
</g>
<!-- Node1&#45;&gt;Node33 -->
<g id="edge62" class="edge">
<title>Node1&#45;&gt;Node33</title>
<path fill="none" stroke="midnightblue" d="M769.83,-369.43C696.51,-340.78 578.35,-294.61 513.77,-269.38"/>
<polygon fill="midnightblue" stroke="midnightblue" points="514.85,-266.05 504.26,-265.67 512.3,-272.57 514.85,-266.05"/>
</g>
<!-- Node34 -->
<g id="node34" class="node">
<title>Node34</title>
<g id="a_node34"><a xlink:href="../../d2/d37/List_8hpp.html" target="_top" xlink:title="Executor for List Macros.">
<polygon fill="white" stroke="black" points="546,-235.5 546,-265.5 654,-265.5 654,-235.5 546,-235.5"/>
<text text-anchor="start" x="554" y="-253.5" font-family="Helvetica,sans-Serif" font-size="10.00">Ark/Compiler/Macros</text>
<text text-anchor="middle" x="600" y="-242.5" font-family="Helvetica,sans-Serif" font-size="10.00">/Executors/List.hpp</text>
</a>
</g>
</g>
<!-- Node1&#45;&gt;Node34 -->
<g id="edge65" class="edge">
<title>Node1&#45;&gt;Node34</title>
<path fill="none" stroke="midnightblue" d="M792.97,-369.43C747.06,-341.37 673.64,-296.5 631.85,-270.96"/>
<polygon fill="midnightblue" stroke="midnightblue" points="633.54,-267.89 623.18,-265.67 629.89,-273.87 633.54,-267.89"/>
</g>
<!-- Node35 -->
<g id="node35" class="node">
<title>Node35</title>
<g id="a_node35"><a xlink:href="../../da/dc2/Conditional_8hpp.html" target="_top" xlink:title="Executor for Conditional Macros.">
<polygon fill="white" stroke="black" points="672,-235.5 672,-265.5 806,-265.5 806,-235.5 672,-235.5"/>
<text text-anchor="start" x="680" y="-253.5" font-family="Helvetica,sans-Serif" font-size="10.00">Ark/Compiler/Macros</text>
<text text-anchor="middle" x="739" y="-242.5" font-family="Helvetica,sans-Serif" font-size="10.00">/Executors/Conditional.hpp</text>
</a>
</g>
</g>
<!-- Node1&#45;&gt;Node35 -->
<g id="edge68" class="edge">
<title>Node1&#45;&gt;Node35</title>
<path fill="none" stroke="midnightblue" d="M817.23,-369.26C799.32,-342.3 771.18,-299.94 753.98,-274.05"/>
<polygon fill="midnightblue" stroke="midnightblue" points="756.84,-272.02 748.39,-265.63 751.01,-275.9 756.84,-272.02"/>
</g>
<!-- Node3 -->
<g id="node3" class="node">
<title>Node3</title>
<g id="a_node3"><a xlink:href="../../d7/dc6/Node_8hpp.html" target="_top" xlink:title="AST node used by the parser, optimizer and compiler.">
<polygon fill="white" stroke="black" points="395.5,-112.5 395.5,-131.5 534.5,-131.5 534.5,-112.5 395.5,-112.5"/>
<text text-anchor="middle" x="465" y="-119.5" font-family="Helvetica,sans-Serif" font-size="10.00">Ark/Compiler/AST/Node.hpp</text>
</a>
</g>
</g>
<!-- Node2&#45;&gt;Node3 -->
<g id="edge2" class="edge">
<title>Node2&#45;&gt;Node3</title>
<path fill="none" stroke="midnightblue" d="M311.4,-302.12C316.4,-292.12 322.98,-278.42 328,-266 345.23,-223.39 329.89,-201.83 361,-168 375.64,-152.08 396.88,-141.54 416.36,-134.69"/>
<polygon fill="midnightblue" stroke="midnightblue" points="417.62,-137.96 426.04,-131.52 415.45,-131.3 417.62,-137.96"/>
</g>
<!-- Node6 -->
<g id="node6" class="node">
<title>Node6</title>
<g id="a_node6"><a xlink:title=" ">
<polygon fill="white" stroke="#bfbfbf" points="366.5,-56.5 366.5,-75.5 407.5,-75.5 407.5,-56.5 366.5,-56.5"/>
<text text-anchor="middle" x="387" y="-63.5" font-family="Helvetica,sans-Serif" font-size="10.00">string</text>
</a>
</g>
</g>
<!-- Node2&#45;&gt;Node6 -->
<g id="edge20" class="edge">
<title>Node2&#45;&gt;Node6</title>
<path fill="none" stroke="midnightblue" d="M297.17,-302.42C281.1,-267.07 245.18,-173.09 285,-112 300.65,-87.99 332.33,-76.7 356.25,-71.45"/>
<polygon fill="midnightblue" stroke="midnightblue" points="357.14,-74.84 366.28,-69.49 355.8,-67.97 357.14,-74.84"/>
</g>
<!-- Node11 -->
<g id="node11" class="node">
<title>Node11</title>
<g id="a_node11"><a xlink:title=" ">
<polygon fill="white" stroke="#bfbfbf" points="28,-0.5 28,-19.5 84,-19.5 84,-0.5 28,-0.5"/>
<text text-anchor="middle" x="56" y="-7.5" font-family="Helvetica,sans-Serif" font-size="10.00">cinttypes</text>
</a>
</g>
</g>
<!-- Node2&#45;&gt;Node11 -->
<g id="edge21" class="edge">
<title>Node2&#45;&gt;Node11</title>
<path fill="none" stroke="midnightblue" d="M249.65,-316.35C162.21,-312.93 0,-292.1 0,-184.5 0,-184.5 0,-184.5 0,-121 0,-90.9 4.93,-82.61 19,-56 24.6,-45.4 32.94,-34.98 40.29,-26.83"/>
<polygon fill="midnightblue" stroke="midnightblue" points="42.86,-29.2 47.17,-19.52 37.77,-24.41 42.86,-29.2"/>
</g>
<!-- Node12 -->
<g id="node12" class="node">
<title>Node12</title>
<g id="a_node12"><a xlink:href="../../d4/d1a/Executor_8hpp.html" target="_top" xlink:title="The base class for all MacroExecutors.">
<polygon fill="white" stroke="black" points="370,-168.5 370,-198.5 478,-198.5 478,-168.5 370,-168.5"/>
<text text-anchor="start" x="378" y="-186.5" font-family="Helvetica,sans-Serif" font-size="10.00">Ark/Compiler/Macros</text>
<text text-anchor="middle" x="424" y="-175.5" font-family="Helvetica,sans-Serif" font-size="10.00">/Executor.hpp</text>
</a>
</g>
</g>
<!-- Node2&#45;&gt;Node12 -->
<g id="edge12" class="edge">
<title>Node2&#45;&gt;Node12</title>
<path fill="none" stroke="midnightblue" d="M319.43,-302.32C330,-292.41 344.19,-278.73 356,-266 373.93,-246.67 393.05,-223.49 406.44,-206.8"/>
<polygon fill="midnightblue" stroke="midnightblue" points="409.38,-208.72 412.88,-198.72 403.91,-204.36 409.38,-208.72"/>
</g>
<!-- Node13 -->
<g id="node13" class="node">
<title>Node13</title>
<g id="a_node13"><a xlink:title=" ">
<polygon fill="white" stroke="#bfbfbf" points="294.5,-112.5 294.5,-131.5 377.5,-131.5 377.5,-112.5 294.5,-112.5"/>
<text text-anchor="middle" x="336" y="-119.5" font-family="Helvetica,sans-Serif" font-size="10.00">unordered_map</text>
</a>
</g>
</g>
<!-- Node2&#45;&gt;Node13 -->
<g id="edge19" class="edge">
<title>Node2&#45;&gt;Node13</title>
<path fill="none" stroke="midnightblue" d="M306.24,-302.15C310.4,-275.64 319.66,-217.18 328,-168 329.48,-159.29 331.18,-149.64 332.64,-141.52"/>
<polygon fill="midnightblue" stroke="midnightblue" points="336.1,-142.08 334.43,-131.62 329.21,-140.84 336.1,-142.08"/>
</g>
<!-- Node14 -->
<g id="node14" class="node">
<title>Node14</title>
<g id="a_node14"><a xlink:href="../../d4/daa/Pipeline_8hpp.html" target="_top" xlink:title="The Chain of Responsibility class for running nodes through MacroExecutors.">
<polygon fill="white" stroke="black" points="130,-235.5 130,-265.5 238,-265.5 238,-235.5 130,-235.5"/>
<text text-anchor="start" x="138" y="-253.5" font-family="Helvetica,sans-Serif" font-size="10.00">Ark/Compiler/Macros</text>
<text text-anchor="middle" x="184" y="-242.5" font-family="Helvetica,sans-Serif" font-size="10.00">/Pipeline.hpp</text>
</a>
</g>
</g>
<!-- Node2&#45;&gt;Node14 -->
<g id="edge15" class="edge">
<title>Node2&#45;&gt;Node14</title>
<path fill="none" stroke="midnightblue" d="M277.96,-302.4C260.66,-293.03 237.75,-280.62 218.88,-270.39"/>
<polygon fill="midnightblue" stroke="midnightblue" points="220.45,-267.26 209.99,-265.58 217.11,-273.42 220.45,-267.26"/>
</g>
<!-- Node4 -->
<g id="node4" class="node">
<title>Node4</title>
<g id="a_node4"><a xlink:title=" ">
<polygon fill="white" stroke="#bfbfbf" points="464,-56.5 464,-75.5 508,-75.5 508,-56.5 464,-56.5"/>
<text text-anchor="middle" x="486" y="-63.5" font-family="Helvetica,sans-Serif" font-size="10.00">variant</text>
</a>
</g>
</g>
<!-- Node3&#45;&gt;Node4 -->
<g id="edge3" class="edge">
<title>Node3&#45;&gt;Node4</title>
<path fill="none" stroke="midnightblue" d="M468.47,-112.08C471.31,-104.77 475.43,-94.18 478.96,-85.1"/>
<polygon fill="midnightblue" stroke="midnightblue" points="482.23,-86.34 482.6,-75.75 475.71,-83.8 482.23,-86.34"/>
</g>
<!-- Node5 -->
<g id="node5" class="node">
<title>Node5</title>
<g id="a_node5"><a xlink:title=" ">
<polygon fill="white" stroke="#bfbfbf" points="258,-56.5 258,-75.5 310,-75.5 310,-56.5 258,-56.5"/>
<text text-anchor="middle" x="284" y="-63.5" font-family="Helvetica,sans-Serif" font-size="10.00">ostream</text>
</a>
</g>
</g>
<!-- Node3&#45;&gt;Node5 -->
<g id="edge4" class="edge">
<title>Node3&#45;&gt;Node5</title>
<path fill="none" stroke="midnightblue" d="M436.32,-112.44C404.75,-103.02 353.95,-87.87 319.79,-77.68"/>
<polygon fill="midnightblue" stroke="midnightblue" points="320.78,-74.32 310.2,-74.82 318.78,-81.03 320.78,-74.32"/>
</g>
<!-- Node3&#45;&gt;Node6 -->
<g id="edge5" class="edge">
<title>Node3&#45;&gt;Node6</title>
<path fill="none" stroke="midnightblue" d="M452.47,-112.32C440.41,-103.98 421.97,-91.21 407.73,-81.35"/>
<polygon fill="midnightblue" stroke="midnightblue" points="409.72,-78.47 399.5,-75.65 405.73,-84.22 409.72,-78.47"/>
</g>
<!-- Node7 -->
<g id="node7" class="node">
<title>Node7</title>
<g id="a_node7"><a xlink:title=" ">
<polygon fill="white" stroke="#bfbfbf" points="566,-0.5 566,-19.5 608,-19.5 608,-0.5 566,-0.5"/>
<text text-anchor="middle" x="587" y="-7.5" font-family="Helvetica,sans-Serif" font-size="10.00">vector</text>
</a>
</g>
</g>
<!-- Node3&#45;&gt;Node7 -->
<g id="edge6" class="edge">
<title>Node3&#45;&gt;Node7</title>
<path fill="none" stroke="midnightblue" d="M423.98,-112.49C384.62,-102.48 334.26,-83.62 357,-56 381.78,-25.9 498.36,-15.65 555.4,-12.4"/>
<polygon fill="midnightblue" stroke="midnightblue" points="555.85,-15.88 565.65,-11.85 555.48,-8.89 555.85,-15.88"/>
</g>
<!-- Node8 -->
<g id="node8" class="node">
<title>Node8</title>
<g id="a_node8"><a xlink:href="../../d8/ddd/Common_8hpp.html" target="_top" xlink:title="Common code for the compiler.">
<polygon fill="white" stroke="black" points="28,-56.5 28,-75.5 162,-75.5 162,-56.5 28,-56.5"/>
<text text-anchor="middle" x="95" y="-63.5" font-family="Helvetica,sans-Serif" font-size="10.00">Ark/Compiler/Common.hpp</text>
</a>
</g>
</g>
<!-- Node3&#45;&gt;Node8 -->
<g id="edge7" class="edge">
<title>Node3&#45;&gt;Node8</title>
<path fill="none" stroke="midnightblue" d="M406.37,-112.44C340.34,-102.81 233.16,-87.16 163.37,-76.98"/>
<polygon fill="midnightblue" stroke="midnightblue" points="163.75,-73.5 153.35,-75.52 162.74,-80.42 163.75,-73.5"/>
</g>
<!-- Node8&#45;&gt;Node7 -->
<g id="edge10" class="edge">
<title>Node8&#45;&gt;Node7</title>
<path fill="none" stroke="midnightblue" d="M162.18,-57.53C166.86,-57.01 171.5,-56.5 176,-56 317.54,-40.39 486.53,-21.95 555.43,-14.44"/>
<polygon fill="midnightblue" stroke="midnightblue" points="556.04,-17.89 565.61,-13.33 555.28,-10.93 556.04,-17.89"/>
</g>
<!-- Node9 -->
<g id="node9" class="node">
<title>Node9</title>
<g id="a_node9"><a xlink:title=" ">
<polygon fill="white" stroke="#bfbfbf" points="403,-0.5 403,-19.5 441,-19.5 441,-0.5 403,-0.5"/>
<text text-anchor="middle" x="422" y="-7.5" font-family="Helvetica,sans-Serif" font-size="10.00">array</text>
</a>
</g>
</g>
<!-- Node8&#45;&gt;Node9 -->
<g id="edge8" class="edge">
<title>Node8&#45;&gt;Node9</title>
<path fill="none" stroke="midnightblue" d="M146.81,-56.44C216.2,-44.98 337.01,-25.04 392.54,-15.87"/>
<polygon fill="midnightblue" stroke="midnightblue" points="393.44,-19.26 402.74,-14.18 392.3,-12.36 393.44,-19.26"/>
</g>
<!-- Node10 -->
<g id="node10" class="node">
<title>Node10</title>
<g id="a_node10"><a xlink:title=" ">
<polygon fill="white" stroke="#bfbfbf" points="102,-0.5 102,-19.5 166,-19.5 166,-0.5 102,-0.5"/>
<text text-anchor="middle" x="134" y="-7.5" font-family="Helvetica,sans-Serif" font-size="10.00">string_view</text>
</a>
</g>
</g>
<!-- Node8&#45;&gt;Node10 -->
<g id="edge9" class="edge">
<title>Node8&#45;&gt;Node10</title>
<path fill="none" stroke="midnightblue" d="M101.44,-56.08C106.95,-48.46 115.03,-37.26 121.76,-27.94"/>
<polygon fill="midnightblue" stroke="midnightblue" points="124.66,-29.91 127.68,-19.75 118.99,-25.81 124.66,-29.91"/>
</g>
<!-- Node8&#45;&gt;Node11 -->
<g id="edge11" class="edge">
<title>Node8&#45;&gt;Node11</title>
<path fill="none" stroke="midnightblue" d="M88.56,-56.08C83.05,-48.46 74.97,-37.26 68.24,-27.94"/>
<polygon fill="midnightblue" stroke="midnightblue" points="71.01,-25.81 62.32,-19.75 65.34,-29.91 71.01,-25.81"/>
</g>
<!-- Node12&#45;&gt;Node3 -->
<g id="edge14" class="edge">
<title>Node12&#45;&gt;Node3</title>
<path fill="none" stroke="midnightblue" d="M433.72,-168.4C439.55,-159.93 447.02,-149.1 453.19,-140.14"/>
<polygon fill="midnightblue" stroke="midnightblue" points="456.24,-141.88 459.03,-131.66 450.48,-137.91 456.24,-141.88"/>
</g>
<!-- Node12&#45;&gt;Node13 -->
<g id="edge13" class="edge">
<title>Node12&#45;&gt;Node13</title>
<path fill="none" stroke="midnightblue" d="M403.15,-168.4C389.3,-159.04 371.19,-146.79 357.26,-137.38"/>
<polygon fill="midnightblue" stroke="midnightblue" points="359.05,-134.36 348.8,-131.66 355.13,-140.16 359.05,-134.36"/>
</g>
<!-- Node14&#45;&gt;Node7 -->
<g id="edge16" class="edge">
<title>Node14&#45;&gt;Node7</title>
<path fill="none" stroke="midnightblue" d="M181.13,-235.29C174.8,-199.38 163.9,-104.44 214,-56 226.28,-44.13 468.29,-21.55 555.78,-13.74"/>
<polygon fill="midnightblue" stroke="midnightblue" points="556.24,-17.21 565.89,-12.84 555.62,-10.24 556.24,-17.21"/>
</g>
<!-- Node14&#45;&gt;Node12 -->
<g id="edge18" class="edge">
<title>Node14&#45;&gt;Node12</title>
<path fill="none" stroke="midnightblue" d="M235.78,-235.48C272.87,-225.43 322.99,-211.86 362.18,-201.24"/>
<polygon fill="midnightblue" stroke="midnightblue" points="363.16,-204.6 371.9,-198.61 361.33,-197.85 363.16,-204.6"/>
</g>
<!-- Node15 -->
<g id="node15" class="node">
<title>Node15</title>
<g id="a_node15"><a xlink:title=" ">
<polygon fill="white" stroke="#bfbfbf" points="973,-0.5 973,-19.5 1025,-19.5 1025,-0.5 973,-0.5"/>
<text text-anchor="middle" x="999" y="-7.5" font-family="Helvetica,sans-Serif" font-size="10.00">memory</text>
</a>
</g>
</g>
<!-- Node14&#45;&gt;Node15 -->
<g id="edge17" class="edge">
<title>Node14&#45;&gt;Node15</title>
<path fill="none" stroke="midnightblue" d="M186.62,-235.48C194.52,-194.89 219.38,-78.67 249,-56 277.61,-34.1 815.62,-16.48 962.32,-12.07"/>
<polygon fill="midnightblue" stroke="midnightblue" points="962.69,-15.56 972.59,-11.76 962.49,-8.56 962.69,-15.56"/>
</g>
<!-- Node18&#45;&gt;Node6 -->
<g id="edge26" class="edge">
<title>Node18&#45;&gt;Node6</title>
<path fill="none" stroke="midnightblue" d="M979.89,-173.96C926.48,-159.53 813.73,-130.15 717,-112 702.35,-109.25 497.01,-81.71 417.83,-71.12"/>
<polygon fill="midnightblue" stroke="midnightblue" points="417.9,-67.6 407.53,-69.74 416.98,-74.54 417.9,-67.6"/>
</g>
<!-- Node18&#45;&gt;Node7 -->
<g id="edge27" class="edge">
<title>Node18&#45;&gt;Node7</title>
<path fill="none" stroke="midnightblue" d="M1062.22,-182.95C1196.26,-182.56 1539.72,-170.67 1431,-56 1416.73,-40.95 769.45,-17.39 618.32,-12.08"/>
<polygon fill="midnightblue" stroke="midnightblue" points="618.43,-8.59 608.31,-11.73 618.18,-15.58 618.43,-8.59"/>
</g>
<!-- Node19 -->
<g id="node19" class="node">
<title>Node19</title>
<g id="a_node19"><a xlink:title=" ">
<polygon fill="white" stroke="#bfbfbf" points="981.5,-112.5 981.5,-131.5 1040.5,-131.5 1040.5,-112.5 981.5,-112.5"/>
<text text-anchor="middle" x="1011" y="-119.5" font-family="Helvetica,sans-Serif" font-size="10.00">exception</text>
</a>
</g>
</g>
<!-- Node18&#45;&gt;Node19 -->
<g id="edge25" class="edge">
<title>Node18&#45;&gt;Node19</title>
<path fill="none" stroke="midnightblue" d="M1011,-173.98C1011,-165.58 1011,-152.48 1011,-141.66"/>
<polygon fill="midnightblue" stroke="midnightblue" points="1014.5,-141.51 1011,-131.51 1007.5,-141.51 1014.5,-141.51"/>
</g>
<!-- Node20 -->
<g id="node20" class="node">
<title>Node20</title>
<g id="a_node20"><a xlink:title=" ">
<polygon fill="white" stroke="#bfbfbf" points="1058.5,-112.5 1058.5,-131.5 1117.5,-131.5 1117.5,-112.5 1058.5,-112.5"/>
<text text-anchor="middle" x="1088" y="-119.5" font-family="Helvetica,sans-Serif" font-size="10.00">stdexcept</text>
</a>
</g>
</g>
<!-- Node18&#45;&gt;Node20 -->
<g id="edge28" class="edge">
<title>Node18&#45;&gt;Node20</title>
<path fill="none" stroke="midnightblue" d="M1022.03,-173.98C1034.27,-164.52 1054.23,-149.1 1068.99,-137.69"/>
<polygon fill="midnightblue" stroke="midnightblue" points="1071.22,-140.39 1076.99,-131.51 1066.94,-134.85 1071.22,-140.39"/>
</g>
<!-- Node21 -->
<g id="node21" class="node">
<title>Node21</title>
<g id="a_node21"><a xlink:href="../../de/dfd/Value_8hpp.html" target="_top" xlink:title=" ">
<polygon fill="white" stroke="black" points="867,-112.5 867,-131.5 963,-131.5 963,-112.5 867,-112.5"/>
<text text-anchor="middle" x="915" y="-119.5" font-family="Helvetica,sans-Serif" font-size="10.00">Ark/VM/Value.hpp</text>
</a>
</g>
</g>
<!-- Node18&#45;&gt;Node21 -->
<g id="edge29" class="edge">
<title>Node18&#45;&gt;Node21</title>
<path fill="none" stroke="midnightblue" d="M997.25,-173.98C981.63,-164.3 955.94,-148.37 937.42,-136.89"/>
<polygon fill="midnightblue" stroke="midnightblue" points="939.07,-133.8 928.73,-131.51 935.38,-139.75 939.07,-133.8"/>
</g>
<!-- Node21&#45;&gt;Node4 -->
<g id="edge31" class="edge">
<title>Node21&#45;&gt;Node4</title>
<path fill="none" stroke="midnightblue" d="M866.81,-114.7C859.51,-113.77 852.06,-112.85 845,-112 701.58,-94.79 664.16,-101.57 522,-76 520.75,-75.78 519.48,-75.53 518.2,-75.27"/>
<polygon fill="midnightblue" stroke="midnightblue" points="518.89,-71.84 508.37,-73.08 517.37,-78.67 518.89,-71.84"/>
</g>
<!-- Node21&#45;&gt;Node6 -->
<g id="edge32" class="edge">
<title>Node21&#45;&gt;Node6</title>
<path fill="none" stroke="midnightblue" d="M866.83,-114.58C859.52,-113.67 852.06,-112.78 845,-112 671.98,-92.9 627.98,-95.42 455,-76 442.77,-74.63 429.33,-72.9 417.65,-71.32"/>
<polygon fill="midnightblue" stroke="midnightblue" points="417.89,-67.82 407.51,-69.93 416.94,-74.75 417.89,-67.82"/>
</g>
<!-- Node21&#45;&gt;Node7 -->
<g id="edge30" class="edge">
<title>Node21&#45;&gt;Node7</title>
<path fill="none" stroke="midnightblue" d="M915.07,-112.28C914.68,-98.13 911.67,-70.29 895,-56 853.91,-20.78 688.59,-13.12 618.58,-11.46"/>
<polygon fill="midnightblue" stroke="midnightblue" points="618.26,-7.95 608.19,-11.24 618.12,-14.95 618.26,-7.95"/>
</g>
<!-- Node21&#45;&gt;Node9 -->
<g id="edge39" class="edge">
<title>Node21&#45;&gt;Node9</title>
<path fill="none" stroke="midnightblue" d="M866.79,-114.64C780.17,-103.17 605.98,-79.83 593,-76 572.79,-70.03 569.52,-63.95 550,-56 516.49,-42.35 477.11,-28.88 450.97,-20.29"/>
<polygon fill="midnightblue" stroke="midnightblue" points="451.89,-16.91 441.3,-17.14 449.72,-23.56 451.89,-16.91"/>
</g>
<!-- Node21&#45;&gt;Node11 -->
<g id="edge33" class="edge">
<title>Node21&#45;&gt;Node11</title>
<path fill="none" stroke="midnightblue" d="M866.83,-117.58C781.52,-111.11 607.46,-95.92 550,-76 533.8,-70.38 533.31,-61.31 517,-56 340.24,1.55 281.66,-48.66 94.09,-19.9"/>
<polygon fill="midnightblue" stroke="midnightblue" points="94.62,-16.44 84.19,-18.33 93.52,-23.36 94.62,-16.44"/>
</g>
<!-- Node21&#45;&gt;Node15 -->
<g id="edge35" class="edge">
<title>Node21&#45;&gt;Node15</title>
<path fill="none" stroke="midnightblue" d="M921.59,-112.37C935.52,-94.14 968.13,-51.43 986.27,-27.68"/>
<polygon fill="midnightblue" stroke="midnightblue" points="989.15,-29.66 992.44,-19.59 983.59,-25.41 989.15,-29.66"/>
</g>
<!-- Node21&#45;&gt;Node17 -->
<g id="edge37" class="edge">
<title>Node21&#45;&gt;Node17</title>
<path fill="none" stroke="midnightblue" d="M963.17,-113.12C966.15,-112.72 969.11,-112.34 972,-112 1073.61,-100.01 1339.53,-121.84 1431,-76 1451.89,-65.53 1468.45,-43.75 1478.23,-28.3"/>
<polygon fill="midnightblue" stroke="midnightblue" points="1481.27,-30.02 1483.41,-19.65 1475.27,-26.42 1481.27,-30.02"/>
</g>
<!-- Node22 -->
<g id="node22" class="node">
<title>Node22</title>
<g id="a_node22"><a xlink:title=" ">
<polygon fill="white" stroke="#bfbfbf" points="1113,-0.5 1113,-19.5 1167,-19.5 1167,-0.5 1113,-0.5"/>
<text text-anchor="middle" x="1140" y="-7.5" font-family="Helvetica,sans-Serif" font-size="10.00">iostream</text>
</a>
</g>
</g>
<!-- Node21&#45;&gt;Node22 -->
<g id="edge34" class="edge">
<title>Node21&#45;&gt;Node22</title>
<path fill="none" stroke="midnightblue" d="M963.26,-113.11C1020.46,-103.36 1109.49,-86.74 1121,-76 1133.62,-64.23 1138.01,-44.59 1139.47,-29.97"/>
<polygon fill="midnightblue" stroke="midnightblue" points="1142.98,-29.77 1140.1,-19.58 1136,-29.34 1142.98,-29.77"/>
</g>
<!-- Node23 -->
<g id="node23" class="node">
<title>Node23</title>
<g id="a_node23"><a xlink:title=" ">
<polygon fill="white" stroke="#bfbfbf" points="1364,-56.5 1364,-75.5 1422,-75.5 1422,-56.5 1364,-56.5"/>
<text text-anchor="middle" x="1393" y="-63.5" font-family="Helvetica,sans-Serif" font-size="10.00">functional</text>
</a>
</g>
</g>
<!-- Node21&#45;&gt;Node23 -->
<g id="edge36" class="edge">
<title>Node21&#45;&gt;Node23</title>
<path fill="none" stroke="midnightblue" d="M963.17,-113.18C966.16,-112.76 969.12,-112.36 972,-112 1139.43,-90.83 1183.15,-101.33 1350,-76 1351.27,-75.81 1352.56,-75.6 1353.87,-75.38"/>
<polygon fill="midnightblue" stroke="midnightblue" points="1354.73,-78.78 1363.94,-73.54 1353.47,-71.9 1354.73,-78.78"/>
</g>
<!-- Node24 -->
<g id="node24" class="node">
<title>Node24</title>
<g id="a_node24"><a xlink:title=" ">
<polygon fill="white" stroke="#bfbfbf" points="602.5,-56.5 602.5,-75.5 681.5,-75.5 681.5,-56.5 602.5,-56.5"/>
<text text-anchor="middle" x="642" y="-63.5" font-family="Helvetica,sans-Serif" font-size="10.00">Ark/String.hpp</text>
</a>
</g>
</g>
<!-- Node21&#45;&gt;Node24 -->
<g id="edge38" class="edge">
<title>Node21&#45;&gt;Node24</title>
<path fill="none" stroke="midnightblue" d="M871.74,-112.44C822.69,-102.74 742.87,-86.95 691.41,-76.77"/>
<polygon fill="midnightblue" stroke="midnightblue" points="692,-73.32 681.51,-74.82 690.64,-80.19 692,-73.32"/>
</g>
<!-- Node25 -->
<g id="node25" class="node">
<title>Node25</title>
<g id="a_node25"><a xlink:href="../../dc/dd5/Closure_8hpp.html" target="_top" xlink:title="Subtype of the value type, handling closures.">
<polygon fill="white" stroke="black" points="980,-56.5 980,-75.5 1112,-75.5 1112,-56.5 980,-56.5"/>
<text text-anchor="middle" x="1046" y="-63.5" font-family="Helvetica,sans-Serif" font-size="10.00">Ark/VM/Value/Closure.hpp</text>
</a>
</g>
</g>
<!-- Node21&#45;&gt;Node25 -->
<g id="edge40" class="edge">
<title>Node21&#45;&gt;Node25</title>
<path fill="none" stroke="midnightblue" d="M935.76,-112.44C957.32,-103.56 991.26,-89.56 1015.79,-79.45"/>
<polygon fill="midnightblue" stroke="midnightblue" points="1017.43,-82.56 1025.34,-75.52 1014.76,-76.09 1017.43,-82.56"/>
</g>
<!-- Node26 -->
<g id="node26" class="node">
<title>Node26</title>
<g id="a_node26"><a xlink:href="../../d5/d40/Platform_8hpp.html" target="_top" xlink:title="ArkScript configuration macros.">
<polygon fill="white" stroke="black" points="1193.5,-0.5 1193.5,-19.5 1282.5,-19.5 1282.5,-0.5 1193.5,-0.5"/>
<text text-anchor="middle" x="1238" y="-7.5" font-family="Helvetica,sans-Serif" font-size="10.00">Ark/Platform.hpp</text>
</a>
</g>
</g>
<!-- Node21&#45;&gt;Node26 -->
<g id="edge51" class="edge">
<title>Node21&#45;&gt;Node26</title>
<path fill="none" stroke="midnightblue" d="M963.18,-113.21C966.16,-112.78 969.12,-112.38 972,-112 1048.43,-101.99 1265.4,-133.26 1317,-76 1335.64,-55.31 1301.82,-35.59 1272.8,-23.4"/>
<polygon fill="midnightblue" stroke="midnightblue" points="1273.82,-20.04 1263.23,-19.57 1271.21,-26.53 1273.82,-20.04"/>
</g>
<!-- Node27 -->
<g id="node27" class="node">
<title>Node27</title>
<g id="a_node27"><a xlink:href="../../dc/d3d/UserType_8hpp.html" target="_top" xlink:title="Subtype of the value, capable of handling any C++ type.">
<polygon fill="white" stroke="black" points="1168,-56.5 1168,-75.5 1308,-75.5 1308,-56.5 1168,-56.5"/>
<text text-anchor="middle" x="1238" y="-63.5" font-family="Helvetica,sans-Serif" font-size="10.00">Ark/VM/Value/UserType.hpp</text>
</a>
</g>
</g>
<!-- Node21&#45;&gt;Node27 -->
<g id="edge45" class="edge">
<title>Node21&#45;&gt;Node27</title>
<path fill="none" stroke="midnightblue" d="M963.01,-112.97C1019.94,-103.46 1114.92,-87.58 1177.01,-77.2"/>
<polygon fill="midnightblue" stroke="midnightblue" points="1177.77,-80.62 1187.06,-75.52 1176.62,-73.71 1177.77,-80.62"/>
</g>
<!-- Node28 -->
<g id="node28" class="node">
<title>Node28</title>
<g id="a_node28"><a xlink:href="../../d0/dd2/Profiling_8hpp.html" target="_top" xlink:title=" ">
<polygon fill="white" stroke="black" points="700,-56.5 700,-75.5 788,-75.5 788,-56.5 700,-56.5"/>
<text text-anchor="middle" x="744" y="-63.5" font-family="Helvetica,sans-Serif" font-size="10.00">Ark/Profiling.hpp</text>
</a>
</g>
</g>
<!-- Node21&#45;&gt;Node28 -->
<g id="edge52" class="edge">
<title>Node21&#45;&gt;Node28</title>
<path fill="none" stroke="midnightblue" d="M887.9,-112.44C859.01,-103.32 813.08,-88.81 780.89,-78.65"/>
<polygon fill="midnightblue" stroke="midnightblue" points="781.56,-75.19 770.97,-75.52 779.45,-81.87 781.56,-75.19"/>
</g>
<!-- Node29 -->
<g id="node29" class="node">
<title>Node29</title>
<g id="a_node29"><a xlink:title=" ">
<polygon fill="white" stroke="#bfbfbf" points="806,-56.5 806,-75.5 886,-75.5 886,-56.5 806,-56.5"/>
<text text-anchor="middle" x="846" y="-63.5" font-family="Helvetica,sans-Serif" font-size="10.00">inline/Value.inl</text>
</a>
</g>
</g>
<!-- Node21&#45;&gt;Node29 -->
<g id="edge53" class="edge">
<title>Node21&#45;&gt;Node29</title>
<path fill="none" stroke="midnightblue" d="M903.91,-112.32C893.51,-104.18 877.74,-91.84 865.28,-82.09"/>
<polygon fill="midnightblue" stroke="midnightblue" points="867.32,-79.24 857.29,-75.83 863.01,-84.75 867.32,-79.24"/>
</g>
<!-- Node25&#45;&gt;Node7 -->
<g id="edge42" class="edge">
<title>Node25&#45;&gt;Node7</title>
<path fill="none" stroke="midnightblue" d="M979.75,-57.21C879.18,-45.37 691.91,-23.34 618.07,-14.66"/>
<polygon fill="midnightblue" stroke="midnightblue" points="618.37,-11.17 608.03,-13.47 617.55,-18.12 618.37,-11.17"/>
</g>
<!-- Node25&#45;&gt;Node15 -->
<g id="edge41" class="edge">
<title>Node25&#45;&gt;Node15</title>
<path fill="none" stroke="midnightblue" d="M1038.24,-56.08C1031.46,-48.3 1021.46,-36.8 1013.24,-27.37"/>
<polygon fill="midnightblue" stroke="midnightblue" points="1015.82,-25 1006.62,-19.75 1010.54,-29.59 1015.82,-25"/>
</g>
<!-- Node25&#45;&gt;Node22 -->
<g id="edge43" class="edge">
<title>Node25&#45;&gt;Node22</title>
<path fill="none" stroke="midnightblue" d="M1061.1,-56.32C1075.9,-47.82 1098.69,-34.73 1115.98,-24.8"/>
<polygon fill="midnightblue" stroke="midnightblue" points="1118.01,-27.67 1124.93,-19.65 1114.52,-21.6 1118.01,-27.67"/>
</g>
<!-- Node25&#45;&gt;Node26 -->
<g id="edge44" class="edge">
<title>Node25&#45;&gt;Node26</title>
<path fill="none" stroke="midnightblue" d="M1076.42,-56.44C1109.28,-47.2 1161.78,-32.44 1197.97,-22.26"/>
<polygon fill="midnightblue" stroke="midnightblue" points="1199.04,-25.59 1207.72,-19.52 1197.15,-18.85 1199.04,-25.59"/>
</g>
<!-- Node27&#45;&gt;Node7 -->
<g id="edge47" class="edge">
<title>Node27&#45;&gt;Node7</title>
<path fill="none" stroke="midnightblue" d="M1167.71,-59.17C1027.34,-47.53 717.28,-21.81 618.13,-13.58"/>
<polygon fill="midnightblue" stroke="midnightblue" points="618.41,-10.09 608.15,-12.75 617.83,-17.07 618.41,-10.09"/>
</g>
<!-- Node27&#45;&gt;Node15 -->
<g id="edge49" class="edge">
<title>Node27&#45;&gt;Node15</title>
<path fill="none" stroke="midnightblue" d="M1200.13,-56.44C1154.83,-46.21 1079.54,-29.2 1035.06,-19.15"/>
<polygon fill="midnightblue" stroke="midnightblue" points="1035.77,-15.72 1025.25,-16.93 1034.23,-22.55 1035.77,-15.72"/>
</g>
<!-- Node27&#45;&gt;Node17 -->
<g id="edge48" class="edge">
<title>Node27&#45;&gt;Node17</title>
<path fill="none" stroke="midnightblue" d="M1277.61,-56.44C1327.71,-45.62 1412.84,-27.23 1457.93,-17.5"/>
<polygon fill="midnightblue" stroke="midnightblue" points="1458.92,-20.86 1467.96,-15.33 1457.44,-14.02 1458.92,-20.86"/>
</g>
<!-- Node27&#45;&gt;Node22 -->
<g id="edge46" class="edge">
<title>Node27&#45;&gt;Node22</title>
<path fill="none" stroke="midnightblue" d="M1222.25,-56.32C1206.68,-47.74 1182.62,-34.49 1164.54,-24.52"/>
<polygon fill="midnightblue" stroke="midnightblue" points="1166.15,-21.42 1155.71,-19.65 1162.78,-27.55 1166.15,-21.42"/>
</g>
<!-- Node27&#45;&gt;Node26 -->
<g id="edge50" class="edge">
<title>Node27&#45;&gt;Node26</title>
<path fill="none" stroke="midnightblue" d="M1238,-56.08C1238,-49.01 1238,-38.86 1238,-29.99"/>
<polygon fill="midnightblue" stroke="midnightblue" points="1241.5,-29.75 1238,-19.75 1234.5,-29.75 1241.5,-29.75"/>
</g>
<!-- Node30&#45;&gt;Node3 -->
<g id="edge57" class="edge">
<title>Node30&#45;&gt;Node3</title>
<path fill="none" stroke="midnightblue" d="M630.85,-168.47C592.76,-158.03 541.43,-143.96 506.02,-134.25"/>
<polygon fill="midnightblue" stroke="midnightblue" points="506.59,-130.78 496.02,-131.51 504.74,-137.53 506.59,-130.78"/>
</g>
<!-- Node30&#45;&gt;Node6 -->
<g id="edge56" class="edge">
<title>Node30&#45;&gt;Node6</title>
<path fill="none" stroke="midnightblue" d="M657.54,-168.31C630.28,-152.92 584.54,-128.36 543,-112 520.17,-103.01 456.22,-85.43 417.65,-75.1"/>
<polygon fill="midnightblue" stroke="midnightblue" points="418.07,-71.59 407.51,-72.4 416.27,-78.36 418.07,-71.59"/>
</g>
<!-- Node31 -->
<g id="node31" class="node">
<title>Node31</title>
<g id="a_node31"><a xlink:title=" ">
<polygon fill="white" stroke="#bfbfbf" points="656,-112.5 656,-131.5 708,-131.5 708,-112.5 656,-112.5"/>
<text text-anchor="middle" x="682" y="-119.5" font-family="Helvetica,sans-Serif" font-size="10.00">sstream</text>
</a>
</g>
</g>
<!-- Node30&#45;&gt;Node31 -->
<g id="edge55" class="edge">
<title>Node30&#45;&gt;Node31</title>
<path fill="none" stroke="midnightblue" d="M682,-168.4C682,-160.47 682,-150.46 682,-141.86"/>
<polygon fill="midnightblue" stroke="midnightblue" points="685.5,-141.66 682,-131.66 678.5,-141.66 685.5,-141.66"/>
</g>
<!-- Node32&#45;&gt;Node7 -->
<g id="edge59" class="edge">
<title>Node32&#45;&gt;Node7</title>
<path fill="none" stroke="midnightblue" d="M913.61,-240.88C885.96,-216.03 801.43,-144.03 717,-112 662.05,-91.16 493.62,-120.29 455,-76 423.72,-40.13 507.9,-22.04 556.04,-14.85"/>
<polygon fill="midnightblue" stroke="midnightblue" points="556.58,-18.31 565.99,-13.44 555.6,-11.38 556.58,-18.31"/>
</g>
<!-- Node32&#45;&gt;Node18 -->
<g id="edge61" class="edge">
<title>Node32&#45;&gt;Node18</title>
<path fill="none" stroke="midnightblue" d="M934.87,-240.73C949.25,-230.11 973.7,-212.05 991.01,-199.26"/>
<polygon fill="midnightblue" stroke="midnightblue" points="993.36,-201.88 999.32,-193.13 989.2,-196.25 993.36,-201.88"/>
</g>
<!-- Node32&#45;&gt;Node21 -->
<g id="edge60" class="edge">
<title>Node32&#45;&gt;Node21</title>
<path fill="none" stroke="midnightblue" d="M922.45,-240.81C921.17,-220.49 917.94,-169.55 916.19,-141.78"/>
<polygon fill="midnightblue" stroke="midnightblue" points="919.68,-141.51 915.55,-131.76 912.69,-141.96 919.68,-141.51"/>
</g>
<!-- Node33&#45;&gt;Node3 -->
<g id="edge64" class="edge">
<title>Node33&#45;&gt;Node3</title>
<path fill="none" stroke="midnightblue" d="M475.28,-235.37C482.72,-219.12 492.47,-191.64 487,-168 484.77,-158.36 480.18,-148.41 475.76,-140.31"/>
<polygon fill="midnightblue" stroke="midnightblue" points="478.7,-138.4 470.64,-131.52 472.65,-141.92 478.7,-138.4"/>
</g>
<!-- Node33&#45;&gt;Node12 -->
<g id="edge63" class="edge">
<title>Node33&#45;&gt;Node12</title>
<path fill="none" stroke="midnightblue" d="M458.45,-235.4C452.86,-227.13 445.67,-216.51 439.3,-207.1"/>
<polygon fill="midnightblue" stroke="midnightblue" points="442.03,-204.9 433.53,-198.58 436.24,-208.82 442.03,-204.9"/>
</g>
<!-- Node34&#45;&gt;Node3 -->
<g id="edge67" class="edge">
<title>Node34&#45;&gt;Node3</title>
<path fill="none" stroke="midnightblue" d="M585.04,-235.48C559.65,-211.69 508.33,-163.6 481.77,-138.71"/>
<polygon fill="midnightblue" stroke="midnightblue" points="484.07,-136.07 474.38,-131.79 479.28,-141.18 484.07,-136.07"/>
</g>
<!-- Node34&#45;&gt;Node12 -->
<g id="edge66" class="edge">
<title>Node34&#45;&gt;Node12</title>
<path fill="none" stroke="midnightblue" d="M561.81,-235.4C535.4,-225.64 500.07,-212.59 471.8,-202.15"/>
<polygon fill="midnightblue" stroke="midnightblue" points="472.71,-198.76 462.11,-198.58 470.28,-205.32 472.71,-198.76"/>
</g>
<!-- Node35&#45;&gt;Node3 -->
<g id="edge70" class="edge">
<title>Node35&#45;&gt;Node3</title>
<path fill="none" stroke="midnightblue" d="M695.09,-235.42C667.61,-226.13 631.72,-213.1 601,-199 598.14,-197.69 527.48,-158.07 489.17,-136.57"/>
<polygon fill="midnightblue" stroke="midnightblue" points="490.62,-133.37 480.19,-131.53 487.19,-139.47 490.62,-133.37"/>
</g>
<!-- Node35&#45;&gt;Node12 -->
<g id="edge69" class="edge">
<title>Node35&#45;&gt;Node12</title>
<path fill="none" stroke="midnightblue" d="M671.81,-235.64C617.49,-224.43 541.53,-208.75 488.06,-197.72"/>
<polygon fill="midnightblue" stroke="midnightblue" points="488.52,-194.24 478.02,-195.65 487.1,-201.09 488.52,-194.24"/>
</g>
</g>
</svg>
        <g id="navigator" transform="translate(0 0)" fill="#404254">
                <rect fill="#f2f5e9" fill-opacity="0.5" stroke="#606060" stroke-width=".5" x="0" y="0" width="60" height="60"/>
                <use id="zoomplus" xlink:href="#zoomPlus" x="17" y="9" onmousedown="handleZoom(evt,'in')"/>
                <use id="zoomminus" xlink:href="#zoomMin" x="42" y="9" onmousedown="handleZoom(evt,'out')"/>
                <use id="reset" xlink:href="#resetDef" x="30" y="36" onmousedown="handleReset()"/>
                <g id="arrowUp" xlink:href="#dirArrow" transform="translate(30 24)" onmousedown="handlePan(0,-1)">
                  <use xlink:href="#rim" fill="#404040">
                        <set attributeName="fill" to="#808080" begin="arrowUp.mouseover" end="arrowUp.mouseout"/>
                  </use>
                  <path fill="none" stroke="white" stroke-width="1.5" d="M0,-3.0v7 M-2.5,-0.5L0,-3.0L2.5,-0.5"/>
                </g>
                <g id="arrowRight" xlink:href="#dirArrow" transform="rotate(90) translate(36 -43)" onmousedown="handlePan(1,0)">
                  <use xlink:href="#rim" fill="#404040">
                        <set attributeName="fill" to="#808080" begin="arrowRight.mouseover" end="arrowRight.mouseout"/>
                  </use>
                  <path fill="none" stroke="white" stroke-width="1.5" d="M0,-3.0v7 M-2.5,-0.5L0,-3.0L2.5,-0.5"/>
                </g>
                <g id="arrowDown" xlink:href="#dirArrow" transform="rotate(180) translate(-30 -48)" onmousedown="handlePan(0,1)">
                  <use xlink:href="#rim" fill="#404040">
                        <set attributeName="fill" to="#808080" begin="arrowDown.mouseover" end="arrowDown.mouseout"/>
                  </use>
                  <path fill="none" stroke="white" stroke-width="1.5" d="M0,-3.0v7 M-2.5,-0.5L0,-3.0L2.5,-0.5"/>
                </g>
                <g id="arrowLeft" xlink:href="#dirArrow" transform="rotate(270) translate(-36 17)" onmousedown="handlePan(-1,0)">
                  <use xlink:href="#rim" fill="#404040">
                        <set attributeName="fill" to="#808080" begin="arrowLeft.mouseover" end="arrowLeft.mouseout"/>
                  </use>
                  <path fill="none" stroke="white" stroke-width="1.5" d="M0,-3.0v7 M-2.5,-0.5L0,-3.0L2.5,-0.5"/>
                </g>
        </g>
        <svg viewBox="0 0 15 15" width="100%" height="30px" preserveAspectRatio="xMaxYMin meet">
         <g id="arrow_out" transform="scale(0.3 0.3)">
          <a xlink:href="Processor_8cpp__incl_org.svg" target="_base">
           <rect id="button" ry="5" rx="5" y="6" x="6" height="38" width="38"
                fill="#f2f5e9" fill-opacity="0.5" stroke="#606060" stroke-width="1.0"/>
           <path id="arrow"
             d="M 11.500037,31.436501 C 11.940474,20.09759 22.043105,11.32322 32.158766,21.979434 L 37.068811,17.246167 C 37.068811,17.246167 37.088388,32 37.088388,32 L 22.160133,31.978069 C 22.160133,31.978069 26.997745,27.140456 26.997745,27.140456 C 18.528582,18.264221 13.291696,25.230495 11.500037,31.436501 z"
             style="fill:#404040;"/>
          </a>
         </g>
        </svg>
</svg>
