<?xml version="1.0" encoding="UTF-8" standalone="no"?>
<!DOCTYPE svg PUBLIC "-//W3C//DTD SVG 1.1//EN"
 "http://www.w3.org/Graphics/SVG/1.1/DTD/svg11.dtd">
<!-- Generated by graphviz version 10.0.1 (20240210.2158)
 -->
<!-- Title: /Users/fola/Documents/ArkScript/Ark/include/Ark/VM/VM.hpp Pages: 1 -->
<!--zoomable 393 -->
<svg id="main" version="1.1" xmlns="http://www.w3.org/2000/svg" xmlns:xlink="http://www.w3.org/1999/xlink" xml:space="preserve" onload="init(evt)">
<style type="text/css"><![CDATA[
.edge:hover path { stroke: red; }
.edge:hover polygon { stroke: red; fill: red; }
]]></style>
<script type="text/javascript"><![CDATA[
var edges = document.getElementsByTagName('g');
if (edges && edges.length) {
  for (var i=0;i<edges.length;i++) {
    if (edges[i].id.substr(0,4)=='edge') {
      edges[i].setAttribute('class','edge');
    }
  }
}
]]></script>
        <defs>
                <circle id="rim" cx="0" cy="0" r="7"/>
                <circle id="rim2" cx="0" cy="0" r="3.5"/>
                <g id="zoomPlus">
                        <use xlink:href="#rim" fill="#404040">
                                <set attributeName="fill" to="#808080" begin="zoomplus.mouseover" end="zoomplus.mouseout"/>
                        </use>
                        <path d="M-4,0h8M0,-4v8" fill="none" stroke="white" stroke-width="1.5" pointer-events="none"/>
                </g>
                <g id="zoomMin">
                        <use xlink:href="#rim" fill="#404040">
                                <set attributeName="fill" to="#808080" begin="zoomminus.mouseover" end="zoomminus.mouseout"/>
                        </use>
                        <path d="M-4,0h8" fill="none" stroke="white" stroke-width="1.5" pointer-events="none"/>
                </g>
                <g id="dirArrow">
                        <path fill="none" stroke="white" stroke-width="1.5" d="M0,-3.0v7 M-2.5,-0.5L0,-3.0L2.5,-0.5"/>
                </g>
               <g id="resetDef">
                       <use xlink:href="#rim2" fill="#404040">
                               <set attributeName="fill" to="#808080" begin="reset.mouseover" end="reset.mouseout"/>
                       </use>
               </g>
        </defs>

<script type="text/javascript">
var viewWidth = 2316;
var viewHeight = 393;
var sectionId = 'dynsection-0';
</script>
<script xlink:href="../../svgpan.js"/>
<svg id="graph" class="graph">
<g id="viewport">
<title>/Users/fola/Documents/ArkScript/Ark/include/Ark/VM/VM.hpp</title>
<!-- Node1 -->
<g id="node1" class="node">
<title>Node1</title>
<g id="a_node1"><a xlink:title="The ArkScript virtual machine.">
<polygon fill="#999999" stroke="#666666" points="1268.62,-384.5 1151.38,-384.5 1151.38,-342.75 1268.62,-342.75 1268.62,-384.5"/>
<text text-anchor="start" x="1159.38" y="-371" font-family="Helvetica,sans-Serif" font-size="10.00">/Users/fola/Documents</text>
<text text-anchor="start" x="1159.38" y="-359.75" font-family="Helvetica,sans-Serif" font-size="10.00">/ArkScript/Ark/include</text>
<text text-anchor="middle" x="1210" y="-348.5" font-family="Helvetica,sans-Serif" font-size="10.00">/Ark/VM/VM.hpp</text>
</a>
</g>
</g>
<!-- Node2 -->
<g id="node2" class="node">
<title>Node2</title>
<g id="a_node2"><a xlink:title=" ">
<polygon fill="#e0e0e0" stroke="#999999" points="224.88,-19.25 187.12,-19.25 187.12,0 224.88,0 224.88,-19.25"/>
<text text-anchor="middle" x="206" y="-5.75" font-family="Helvetica,sans-Serif" font-size="10.00">array</text>
</a>
</g>
</g>
<!-- Node1&#45;&gt;Node2 -->
<g id="edge1" class="edge">
<title>Node1&#45;&gt;Node2</title>
<path fill="none" stroke="#63b8ff" d="M1151.23,-363.05C908.91,-364.04 0,-359.97 0,-242.88 0,-242.88 0,-242.88 0,-130.38 0,-50.04 118.53,-22.68 175.77,-14.15"/>
<polygon fill="#63b8ff" stroke="#63b8ff" points="176.06,-17.64 185.49,-12.81 175.11,-10.71 176.06,-17.64"/>
</g>
<!-- Node3 -->
<g id="node3" class="node">
<title>Node3</title>
<g id="a_node3"><a xlink:title=" ">
<polygon fill="#e0e0e0" stroke="#999999" points="1143.5,-19.25 1100.5,-19.25 1100.5,0 1143.5,0 1143.5,-19.25"/>
<text text-anchor="middle" x="1122" y="-5.75" font-family="Helvetica,sans-Serif" font-size="10.00">vector</text>
</a>
</g>
</g>
<!-- Node1&#45;&gt;Node3 -->
<g id="edge2" class="edge">
<title>Node1&#45;&gt;Node3</title>
<path fill="none" stroke="#63b8ff" d="M1151.11,-358.71C1079.48,-350.37 968,-324.32 968,-242.88 968,-242.88 968,-242.88 968,-185.62 968,-120.07 987.06,-97.72 1037,-55.25 1052.62,-41.96 1072.86,-31.14 1089.68,-23.48"/>
<polygon fill="#63b8ff" stroke="#63b8ff" points="1090.99,-26.72 1098.76,-19.52 1088.19,-20.31 1090.99,-26.72"/>
</g>
<!-- Node4 -->
<g id="node4" class="node">
<title>Node4</title>
<g id="a_node4"><a xlink:title=" ">
<polygon fill="#e0e0e0" stroke="#999999" points="856,-19.25 816,-19.25 816,0 856,0 856,-19.25"/>
<text text-anchor="middle" x="836" y="-5.75" font-family="Helvetica,sans-Serif" font-size="10.00">string</text>
</a>
</g>
</g>
<!-- Node1&#45;&gt;Node4 -->
<g id="edge3" class="edge">
<title>Node1&#45;&gt;Node4</title>
<path fill="none" stroke="#63b8ff" d="M1151.03,-361.55C941.29,-356.95 244,-334.76 244,-242.88 244,-242.88 244,-242.88 244,-185.62 244,-156.01 240.56,-141.08 263,-121.75 349.73,-47.06 413.25,-131.88 518,-85.75 537.5,-77.16 535.57,-64.01 555,-55.25 639.18,-17.31 750.26,-10.98 804.06,-10.33"/>
<polygon fill="#63b8ff" stroke="#63b8ff" points="804.06,-13.83 814.04,-10.28 804.02,-6.83 804.06,-13.83"/>
</g>
<!-- Node5 -->
<g id="node5" class="node">
<title>Node5</title>
<g id="a_node5"><a xlink:title=" ">
<polygon fill="#e0e0e0" stroke="#999999" points="1842.88,-80.12 1787.12,-80.12 1787.12,-60.88 1842.88,-60.88 1842.88,-80.12"/>
<text text-anchor="middle" x="1815" y="-66.62" font-family="Helvetica,sans-Serif" font-size="10.00">cinttypes</text>
</a>
</g>
</g>
<!-- Node1&#45;&gt;Node5 -->
<g id="edge4" class="edge">
<title>Node1&#45;&gt;Node5</title>
<path fill="none" stroke="#63b8ff" d="M1268.89,-359.79C1394.02,-352.17 1675,-325.82 1675,-242.88 1675,-242.88 1675,-242.88 1675,-185.62 1675,-133.23 1734.63,-100.62 1776.05,-84.28"/>
<polygon fill="#63b8ff" stroke="#63b8ff" points="1777.12,-87.62 1785.25,-80.82 1774.66,-81.07 1777.12,-87.62"/>
</g>
<!-- Node6 -->
<g id="node6" class="node">
<title>Node6</title>
<g id="a_node6"><a xlink:title=" ">
<polygon fill="#e0e0e0" stroke="#999999" points="354.38,-141 271.62,-141 271.62,-121.75 354.38,-121.75 354.38,-141"/>
<text text-anchor="middle" x="313" y="-127.5" font-family="Helvetica,sans-Serif" font-size="10.00">unordered_map</text>
</a>
</g>
</g>
<!-- Node1&#45;&gt;Node6 -->
<g id="edge5" class="edge">
<title>Node1&#45;&gt;Node6</title>
<path fill="none" stroke="#63b8ff" d="M1151.15,-354.37C1087.19,-344.91 982.17,-327.93 893,-306.75 685.02,-257.34 441.58,-176.43 350.17,-145.22"/>
<polygon fill="#63b8ff" stroke="#63b8ff" points="351.32,-141.91 340.72,-141.98 349.05,-148.53 351.32,-141.91"/>
</g>
<!-- Node7 -->
<g id="node7" class="node">
<title>Node7</title>
<g id="a_node7"><a xlink:title=" ">
<polygon fill="#e0e0e0" stroke="#999999" points="2056.12,-306.75 1995.88,-306.75 1995.88,-287.5 2056.12,-287.5 2056.12,-306.75"/>
<text text-anchor="middle" x="2026" y="-293.25" font-family="Helvetica,sans-Serif" font-size="10.00">fmt/core.h</text>
</a>
</g>
</g>
<!-- Node1&#45;&gt;Node7 -->
<g id="edge6" class="edge">
<title>Node1&#45;&gt;Node7</title>
<path fill="none" stroke="#63b8ff" d="M1268.84,-360.8C1398.28,-356.26 1717.28,-342.14 1982,-306.75 1982.84,-306.64 1983.69,-306.52 1984.54,-306.4"/>
<polygon fill="#63b8ff" stroke="#63b8ff" points="1984.99,-309.87 1994.29,-304.79 1983.85,-302.96 1984.99,-309.87"/>
</g>
<!-- Node8 -->
<g id="node8" class="node">
<title>Node8</title>
<g id="a_node8"><a xlink:href="../../d8/daa/Instructions_8hpp.html" target="_top" xlink:title="The different instructions used by the compiler and virtual machine.">
<polygon fill="white" stroke="#666666" points="2219.88,-306.75 2074.12,-306.75 2074.12,-287.5 2219.88,-287.5 2219.88,-306.75"/>
<text text-anchor="middle" x="2147" y="-293.25" font-family="Helvetica,sans-Serif" font-size="10.00">Ark/Compiler/Instructions.hpp</text>
</a>
</g>
</g>
<!-- Node1&#45;&gt;Node8 -->
<g id="edge7" class="edge">
<title>Node1&#45;&gt;Node8</title>
<path fill="none" stroke="#63b8ff" d="M1268.89,-359.58C1405.99,-352.32 1757.44,-332.71 2062.41,-306.94"/>
<polygon fill="#63b8ff" stroke="#63b8ff" points="2062.52,-310.44 2072.19,-306.11 2061.93,-303.47 2062.52,-310.44"/>
</g>
<!-- Node9 -->
<g id="node9" class="node">
<title>Node9</title>
<g id="a_node9"><a xlink:href="../../de/dfd/Value_8hpp.html" target="_top" xlink:title=" ">
<polygon fill="white" stroke="#666666" points="1353.38,-141 1258.62,-141 1258.62,-121.75 1353.38,-121.75 1353.38,-141"/>
<text text-anchor="middle" x="1306" y="-127.5" font-family="Helvetica,sans-Serif" font-size="10.00">Ark/VM/Value.hpp</text>
</a>
</g>
</g>
<!-- Node1&#45;&gt;Node9 -->
<g id="edge8" class="edge">
<title>Node1&#45;&gt;Node9</title>
<path fill="none" stroke="#63b8ff" d="M1265.46,-342.25C1281.37,-333.7 1297.08,-322.09 1307,-306.75 1338.02,-258.74 1322.74,-186.69 1312.58,-152.18"/>
<polygon fill="#63b8ff" stroke="#63b8ff" points="1315.95,-151.22 1309.62,-142.72 1309.27,-153.31 1315.95,-151.22"/>
</g>
<!-- Node14 -->
<g id="node14" class="node">
<title>Node14</title>
<g id="a_node14"><a xlink:href="../../d5/d40/Platform_8hpp.html" target="_top" xlink:title="ArkScript configuration macros.">
<polygon fill="white" stroke="#666666" points="1765.75,-19.25 1676.25,-19.25 1676.25,0 1765.75,0 1765.75,-19.25"/>
<text text-anchor="middle" x="1721" y="-5.75" font-family="Helvetica,sans-Serif" font-size="10.00">Ark/Platform.hpp</text>
</a>
</g>
</g>
<!-- Node1&#45;&gt;Node14 -->
<g id="edge68" class="edge">
<title>Node1&#45;&gt;Node14</title>
<path fill="none" stroke="#63b8ff" d="M1269.07,-359.64C1398.79,-352.66 1704.97,-333.81 1805,-306.75 1861.29,-291.53 1882.26,-292.22 1924,-251.5 1991.66,-185.49 2067.46,-127.08 2006,-55.25 1977.16,-21.54 1851.75,-13.12 1777.24,-11.12"/>
<polygon fill="#63b8ff" stroke="#63b8ff" points="1777.78,-7.64 1767.7,-10.9 1777.62,-14.63 1777.78,-7.64"/>
</g>
<!-- Node16 -->
<g id="node16" class="node">
<title>Node16</title>
<g id="a_node16"><a xlink:href="../../d0/db5/State_8hpp.html" target="_top" xlink:title="State used by the virtual machine: it loads the bytecode, can compile it if needed,...">
<polygon fill="white" stroke="#666666" points="681,-196.25 587,-196.25 587,-177 681,-177 681,-196.25"/>
<text text-anchor="middle" x="634" y="-182.75" font-family="Helvetica,sans-Serif" font-size="10.00">Ark/VM/State.hpp</text>
</a>
</g>
</g>
<!-- Node1&#45;&gt;Node16 -->
<g id="edge24" class="edge">
<title>Node1&#45;&gt;Node16</title>
<path fill="none" stroke="#63b8ff" d="M1150.94,-352.2C1098.67,-342.38 1020.56,-326.3 954,-306.75 846.02,-275.04 722.21,-224.85 665.43,-201.03"/>
<polygon fill="#63b8ff" stroke="#63b8ff" points="666.96,-197.87 656.39,-197.21 664.24,-204.32 666.96,-197.87"/>
</g>
<!-- Node26 -->
<g id="node26" class="node">
<title>Node26</title>
<g id="a_node26"><a xlink:href="../../de/df9/ErrorKind_8hpp.html" target="_top" xlink:title=" ">
<polygon fill="white" stroke="#666666" points="139.62,-141 28.38,-141 28.38,-121.75 139.62,-121.75 139.62,-141"/>
<text text-anchor="middle" x="84" y="-127.5" font-family="Helvetica,sans-Serif" font-size="10.00">Ark/VM/ErrorKind.hpp</text>
</a>
</g>
</g>
<!-- Node1&#45;&gt;Node26 -->
<g id="edge46" class="edge">
<title>Node1&#45;&gt;Node26</title>
<path fill="none" stroke="#63b8ff" d="M1151.03,-361.97C951.89,-359.41 312.14,-348 230,-306.75 161.25,-272.23 112.58,-189.24 93.24,-151.56"/>
<polygon fill="#63b8ff" stroke="#63b8ff" points="96.46,-150.18 88.87,-142.78 90.2,-153.3 96.46,-150.18"/>
</g>
<!-- Node27 -->
<g id="node27" class="node">
<title>Node27</title>
<g id="a_node27"><a xlink:href="../../db/df6/ExecutionContext_8hpp.html" target="_top" xlink:title="Keeping track of the internal data needed by the VM.">
<polygon fill="white" stroke="#666666" points="1144.38,-251.5 995.62,-251.5 995.62,-232.25 1144.38,-232.25 1144.38,-251.5"/>
<text text-anchor="middle" x="1070" y="-238" font-family="Helvetica,sans-Serif" font-size="10.00">Ark/VM/ExecutionContext.hpp</text>
</a>
</g>
</g>
<!-- Node1&#45;&gt;Node27 -->
<g id="edge49" class="edge">
<title>Node1&#45;&gt;Node27</title>
<path fill="none" stroke="#63b8ff" d="M1186.25,-342.31C1158.86,-318.88 1114.36,-280.82 1089.1,-259.21"/>
<polygon fill="#63b8ff" stroke="#63b8ff" points="1091.47,-256.63 1081.59,-252.79 1086.91,-261.95 1091.47,-256.63"/>
</g>
<!-- Node31 -->
<g id="node31" class="node">
<title>Node31</title>
<g id="a_node31"><a xlink:href="../../da/d84/Builtins_8hpp.html" target="_top" xlink:title="Host the declaration of all the ArkScript builtins.">
<polygon fill="white" stroke="#666666" points="1182.12,-196.25 1061.88,-196.25 1061.88,-177 1182.12,-177 1182.12,-196.25"/>
<text text-anchor="middle" x="1122" y="-182.75" font-family="Helvetica,sans-Serif" font-size="10.00">Ark/Builtins/Builtins.hpp</text>
</a>
</g>
</g>
<!-- Node1&#45;&gt;Node31 -->
<g id="edge64" class="edge">
<title>Node1&#45;&gt;Node31</title>
<path fill="none" stroke="#63b8ff" d="M1202.66,-342.61C1192.77,-316.52 1173.97,-269.77 1153,-232.25 1147.89,-223.1 1141.37,-213.49 1135.64,-205.54"/>
<polygon fill="#63b8ff" stroke="#63b8ff" points="1138.62,-203.68 1129.85,-197.73 1133,-207.85 1138.62,-203.68"/>
</g>
<!-- Node32 -->
<g id="node32" class="node">
<title>Node32</title>
<g id="a_node32"><a xlink:href="../../db/d0e/Plugin_8hpp.html" target="_top" xlink:title="Loads .dll/.so/.dynlib files.">
<polygon fill="white" stroke="#666666" points="1996.88,-80.12 1899.12,-80.12 1899.12,-60.88 1996.88,-60.88 1996.88,-80.12"/>
<text text-anchor="middle" x="1948" y="-66.62" font-family="Helvetica,sans-Serif" font-size="10.00">Ark/VM/Plugin.hpp</text>
</a>
</g>
</g>
<!-- Node1&#45;&gt;Node32 -->
<g id="edge69" class="edge">
<title>Node1&#45;&gt;Node32</title>
<path fill="none" stroke="#63b8ff" d="M1268.86,-358.76C1437.6,-346.89 1911,-307.81 1911,-242.88 1911,-242.88 1911,-242.88 1911,-185.62 1911,-150.68 1926.89,-112.53 1937.84,-90.38"/>
<polygon fill="#63b8ff" stroke="#63b8ff" points="1940.84,-92.19 1942.32,-81.7 1934.62,-88.98 1940.84,-92.19"/>
</g>
<!-- Node34 -->
<g id="node34" class="node">
<title>Node34</title>
<g id="a_node34"><a xlink:href="../../d0/dda/Future_8hpp.html" target="_top" xlink:title=" ">
<polygon fill="white" stroke="#666666" points="1298.25,-306.75 1199.75,-306.75 1199.75,-287.5 1298.25,-287.5 1298.25,-306.75"/>
<text text-anchor="middle" x="1249" y="-293.25" font-family="Helvetica,sans-Serif" font-size="10.00">Ark/VM/Future.hpp</text>
</a>
</g>
</g>
<!-- Node1&#45;&gt;Node34 -->
<g id="edge73" class="edge">
<title>Node1&#45;&gt;Node34</title>
<path fill="none" stroke="#63b8ff" d="M1222.13,-342.57C1227.1,-334.34 1232.83,-324.87 1237.71,-316.79"/>
<polygon fill="#63b8ff" stroke="#63b8ff" points="1240.55,-318.86 1242.73,-308.49 1234.56,-315.24 1240.55,-318.86"/>
</g>
<!-- Node36 -->
<g id="node36" class="node">
<title>Node36</title>
<g id="a_node36"><a xlink:title=" ">
<polygon fill="#e0e0e0" stroke="#999999" points="2307.62,-306.75 2238.38,-306.75 2238.38,-287.5 2307.62,-287.5 2307.62,-306.75"/>
<text text-anchor="middle" x="2273" y="-293.25" font-family="Helvetica,sans-Serif" font-size="10.00">inline/VM.inl</text>
</a>
</g>
</g>
<!-- Node1&#45;&gt;Node36 -->
<g id="edge78" class="edge">
<title>Node1&#45;&gt;Node36</title>
<path fill="none" stroke="#63b8ff" d="M1268.84,-362.25C1424,-360.65 1857.16,-352.24 2226.81,-306.83"/>
<polygon fill="#63b8ff" stroke="#63b8ff" points="2227.01,-310.33 2236.5,-305.63 2226.15,-303.38 2227.01,-310.33"/>
</g>
<!-- Node9&#45;&gt;Node2 -->
<g id="edge13" class="edge">
<title>Node9&#45;&gt;Node2</title>
<path fill="none" stroke="#63b8ff" d="M1258.37,-128.26C1071.14,-119.94 395.31,-89.66 385,-85.75 364.75,-78.07 366.09,-65.47 347,-55.25 311.19,-36.08 265.79,-23.56 236.33,-16.79"/>
<polygon fill="#63b8ff" stroke="#63b8ff" points="237.13,-13.39 226.61,-14.65 235.62,-20.22 237.13,-13.39"/>
</g>
<!-- Node9&#45;&gt;Node3 -->
<g id="edge9" class="edge">
<title>Node9&#45;&gt;Node3</title>
<path fill="none" stroke="#63b8ff" d="M1296.11,-121.28C1279.54,-106.33 1244.77,-76.13 1212,-55.25 1193.49,-43.45 1171.42,-32.47 1153.77,-24.35"/>
<polygon fill="#63b8ff" stroke="#63b8ff" points="1155.36,-21.23 1144.8,-20.31 1152.48,-27.61 1155.36,-21.23"/>
</g>
<!-- Node9&#45;&gt;Node4 -->
<g id="edge11" class="edge">
<title>Node9&#45;&gt;Node4</title>
<path fill="none" stroke="#63b8ff" d="M1285.38,-121.26C1249.16,-105.59 1171.46,-73.46 1103,-55.25 1019.5,-33.04 918.23,-19.71 867.78,-13.97"/>
<polygon fill="#63b8ff" stroke="#63b8ff" points="868.2,-10.49 857.88,-12.87 867.43,-17.45 868.2,-10.49"/>
</g>
<!-- Node9&#45;&gt;Node5 -->
<g id="edge12" class="edge">
<title>Node9&#45;&gt;Node5</title>
<path fill="none" stroke="#63b8ff" d="M1353.75,-126.55C1433.11,-119.93 1597.08,-105.18 1735,-85.75 1748.4,-83.86 1762.98,-81.39 1775.99,-79.03"/>
<polygon fill="#63b8ff" stroke="#63b8ff" points="1776.26,-82.54 1785.45,-77.29 1774.98,-75.66 1776.26,-82.54"/>
</g>
<!-- Node10 -->
<g id="node10" class="node">
<title>Node10</title>
<g id="a_node10"><a xlink:title=" ">
<polygon fill="#e0e0e0" stroke="#999999" points="1505.62,-80.12 1460.38,-80.12 1460.38,-60.88 1505.62,-60.88 1505.62,-80.12"/>
<text text-anchor="middle" x="1483" y="-66.62" font-family="Helvetica,sans-Serif" font-size="10.00">variant</text>
</a>
</g>
</g>
<!-- Node9&#45;&gt;Node10 -->
<g id="edge10" class="edge">
<title>Node9&#45;&gt;Node10</title>
<path fill="none" stroke="#63b8ff" d="M1339.5,-121.31C1369.13,-112.99 1413.39,-99.85 1451,-85.75 1451.64,-85.51 1452.29,-85.26 1452.94,-85.01"/>
<polygon fill="#63b8ff" stroke="#63b8ff" points="1454.23,-88.26 1462.13,-81.2 1451.55,-81.8 1454.23,-88.26"/>
</g>
<!-- Node11 -->
<g id="node11" class="node">
<title>Node11</title>
<g id="a_node11"><a xlink:href="../../dc/dd5/Closure_8hpp.html" target="_top" xlink:title="Subtype of the value type, handling closures.">
<polygon fill="white" stroke="#666666" points="1654.75,-80.12 1523.25,-80.12 1523.25,-60.88 1654.75,-60.88 1654.75,-80.12"/>
<text text-anchor="middle" x="1589" y="-66.62" font-family="Helvetica,sans-Serif" font-size="10.00">Ark/VM/Value/Closure.hpp</text>
</a>
</g>
</g>
<!-- Node9&#45;&gt;Node11 -->
<g id="edge14" class="edge">
<title>Node9&#45;&gt;Node11</title>
<path fill="none" stroke="#63b8ff" d="M1349.6,-121.3C1399.25,-110.98 1480.44,-94.08 1534.3,-82.88"/>
<polygon fill="#63b8ff" stroke="#63b8ff" points="1534.79,-86.35 1543.87,-80.89 1533.37,-79.5 1534.79,-86.35"/>
</g>
<!-- Node9&#45;&gt;Node14 -->
<g id="edge23" class="edge">
<title>Node9&#45;&gt;Node14</title>
<path fill="none" stroke="#63b8ff" d="M1353.61,-131.19C1446.12,-131.78 1645.59,-127.98 1697,-85.75 1713.1,-72.53 1718.54,-48.49 1720.3,-31.16"/>
<polygon fill="#63b8ff" stroke="#63b8ff" points="1723.79,-31.45 1720.95,-21.25 1716.81,-31 1723.79,-31.45"/>
</g>
<!-- Node15 -->
<g id="node15" class="node">
<title>Node15</title>
<g id="a_node15"><a xlink:href="../../dc/d3d/UserType_8hpp.html" target="_top" xlink:title="Subtype of the value, capable of handling any C++ type.">
<polygon fill="white" stroke="#666666" points="1441.88,-80.12 1302.12,-80.12 1302.12,-60.88 1441.88,-60.88 1441.88,-80.12"/>
<text text-anchor="middle" x="1372" y="-66.62" font-family="Helvetica,sans-Serif" font-size="10.00">Ark/VM/Value/UserType.hpp</text>
</a>
</g>
</g>
<!-- Node9&#45;&gt;Node15 -->
<g id="edge19" class="edge">
<title>Node9&#45;&gt;Node15</title>
<path fill="none" stroke="#63b8ff" d="M1316.02,-121.43C1325.91,-112.62 1341.26,-98.93 1353.38,-88.11"/>
<polygon fill="#63b8ff" stroke="#63b8ff" points="1355.62,-90.8 1360.75,-81.53 1350.96,-85.58 1355.62,-90.8"/>
</g>
<!-- Node11&#45;&gt;Node4 -->
<g id="edge17" class="edge">
<title>Node11&#45;&gt;Node4</title>
<path fill="none" stroke="#63b8ff" d="M1546.88,-60.45C1536.5,-58.48 1525.38,-56.59 1515,-55.25 1266.95,-23.34 964.83,-13.69 867.68,-11.31"/>
<polygon fill="#63b8ff" stroke="#63b8ff" points="867.96,-7.81 857.88,-11.07 867.79,-14.81 867.96,-7.81"/>
</g>
<!-- Node12 -->
<g id="node12" class="node">
<title>Node12</title>
<g id="a_node12"><a xlink:title=" ">
<polygon fill="#e0e0e0" stroke="#999999" points="1636.62,-19.25 1585.38,-19.25 1585.38,0 1636.62,0 1636.62,-19.25"/>
<text text-anchor="middle" x="1611" y="-5.75" font-family="Helvetica,sans-Serif" font-size="10.00">memory</text>
</a>
</g>
</g>
<!-- Node11&#45;&gt;Node12 -->
<g id="edge15" class="edge">
<title>Node11&#45;&gt;Node12</title>
<path fill="none" stroke="#63b8ff" d="M1592.34,-60.56C1595.35,-52.52 1599.86,-40.43 1603.7,-30.16"/>
<polygon fill="#63b8ff" stroke="#63b8ff" points="1606.88,-31.66 1607.1,-21.07 1600.32,-29.21 1606.88,-31.66"/>
</g>
<!-- Node13 -->
<g id="node13" class="node">
<title>Node13</title>
<g id="a_node13"><a xlink:title=" ">
<polygon fill="#e0e0e0" stroke="#999999" points="1398.75,-19.25 1345.25,-19.25 1345.25,0 1398.75,0 1398.75,-19.25"/>
<text text-anchor="middle" x="1372" y="-5.75" font-family="Helvetica,sans-Serif" font-size="10.00">iostream</text>
</a>
</g>
</g>
<!-- Node11&#45;&gt;Node13 -->
<g id="edge16" class="edge">
<title>Node11&#45;&gt;Node13</title>
<path fill="none" stroke="#63b8ff" d="M1555.57,-60.43C1516.23,-49.76 1451.07,-32.08 1409.89,-20.91"/>
<polygon fill="#63b8ff" stroke="#63b8ff" points="1410.98,-17.57 1400.41,-18.33 1409.15,-24.33 1410.98,-17.57"/>
</g>
<!-- Node11&#45;&gt;Node14 -->
<g id="edge18" class="edge">
<title>Node11&#45;&gt;Node14</title>
<path fill="none" stroke="#63b8ff" d="M1609.34,-60.43C1631.01,-50.76 1665.56,-35.35 1690.49,-24.23"/>
<polygon fill="#63b8ff" stroke="#63b8ff" points="1691.77,-27.5 1699.48,-20.23 1688.92,-21.1 1691.77,-27.5"/>
</g>
<!-- Node15&#45;&gt;Node3 -->
<g id="edge21" class="edge">
<title>Node15&#45;&gt;Node3</title>
<path fill="none" stroke="#63b8ff" d="M1333.49,-60.43C1284.6,-48.92 1201.09,-29.25 1154.99,-18.4"/>
<polygon fill="#63b8ff" stroke="#63b8ff" points="1155.86,-15 1145.33,-16.12 1154.26,-21.82 1155.86,-15"/>
</g>
<!-- Node15&#45;&gt;Node13 -->
<g id="edge20" class="edge">
<title>Node15&#45;&gt;Node13</title>
<path fill="none" stroke="#63b8ff" d="M1372,-60.56C1372,-52.78 1372,-41.2 1372,-31.16"/>
<polygon fill="#63b8ff" stroke="#63b8ff" points="1375.5,-31.16 1372,-21.16 1368.5,-31.16 1375.5,-31.16"/>
</g>
<!-- Node15&#45;&gt;Node14 -->
<g id="edge22" class="edge">
<title>Node15&#45;&gt;Node14</title>
<path fill="none" stroke="#63b8ff" d="M1421.71,-60.42C1431.42,-58.68 1441.52,-56.89 1451,-55.25 1524.87,-42.48 1610.24,-28.5 1664.88,-19.65"/>
<polygon fill="#63b8ff" stroke="#63b8ff" points="1665.25,-23.14 1674.56,-18.09 1664.13,-16.23 1665.25,-23.14"/>
</g>
<!-- Node16&#45;&gt;Node3 -->
<g id="edge26" class="edge">
<title>Node16&#45;&gt;Node3</title>
<path fill="none" stroke="#63b8ff" d="M635.21,-176.81C639.05,-150.16 651.87,-71.25 671,-55.25 702.9,-28.57 989.74,-15.52 1088.65,-11.79"/>
<polygon fill="#63b8ff" stroke="#63b8ff" points="1088.64,-15.29 1098.5,-11.42 1088.38,-8.29 1088.64,-15.29"/>
</g>
<!-- Node16&#45;&gt;Node4 -->
<g id="edge25" class="edge">
<title>Node16&#45;&gt;Node4</title>
<path fill="none" stroke="#63b8ff" d="M631,-176.77C623.81,-153.73 608.31,-91.23 638,-55.25 658.87,-29.96 754.01,-17.86 804.43,-13.13"/>
<polygon fill="#63b8ff" stroke="#63b8ff" points="804.47,-16.64 814.12,-12.27 803.85,-9.67 804.47,-16.64"/>
</g>
<!-- Node16&#45;&gt;Node6 -->
<g id="edge27" class="edge">
<title>Node16&#45;&gt;Node6</title>
<path fill="none" stroke="#63b8ff" d="M586.68,-177.86C535.08,-169.38 449.75,-155.32 366.01,-141.33"/>
<polygon fill="#63b8ff" stroke="#63b8ff" points="366.68,-137.89 356.24,-139.7 365.53,-144.8 366.68,-137.89"/>
</g>
<!-- Node16&#45;&gt;Node9 -->
<g id="edge29" class="edge">
<title>Node16&#45;&gt;Node9</title>
<path fill="none" stroke="#63b8ff" d="M681.25,-181.88C800.88,-172.4 1115.5,-147.47 1246.96,-137.05"/>
<polygon fill="#63b8ff" stroke="#63b8ff" points="1247.15,-140.55 1256.84,-136.27 1246.6,-133.57 1247.15,-140.55"/>
</g>
<!-- Node17 -->
<g id="node17" class="node">
<title>Node17</title>
<g id="a_node17"><a xlink:title=" ">
<polygon fill="#e0e0e0" stroke="#999999" points="586.5,-141 525.5,-141 525.5,-121.75 586.5,-121.75 586.5,-141"/>
<text text-anchor="middle" x="556" y="-127.5" font-family="Helvetica,sans-Serif" font-size="10.00">filesystem</text>
</a>
</g>
</g>
<!-- Node16&#45;&gt;Node17 -->
<g id="edge28" class="edge">
<title>Node16&#45;&gt;Node17</title>
<path fill="none" stroke="#63b8ff" d="M620.77,-176.59C609.23,-168.71 592.23,-157.11 578.55,-147.77"/>
<polygon fill="#63b8ff" stroke="#63b8ff" points="580.78,-145.05 570.55,-142.31 576.83,-150.83 580.78,-145.05"/>
</g>
<!-- Node18 -->
<g id="node18" class="node">
<title>Node18</title>
<g id="a_node18"><a xlink:href="../../d8/ddd/Common_8hpp.html" target="_top" xlink:title="Common code for the compiler.">
<polygon fill="white" stroke="#666666" points="507.25,-141 372.75,-141 372.75,-121.75 507.25,-121.75 507.25,-141"/>
<text text-anchor="middle" x="440" y="-127.5" font-family="Helvetica,sans-Serif" font-size="10.00">Ark/Compiler/Common.hpp</text>
</a>
</g>
</g>
<!-- Node16&#45;&gt;Node18 -->
<g id="edge30" class="edge">
<title>Node16&#45;&gt;Node18</title>
<path fill="none" stroke="#63b8ff" d="M601.09,-176.59C568.9,-167.76 519.66,-154.24 484.1,-144.48"/>
<polygon fill="#63b8ff" stroke="#63b8ff" points="485.1,-141.12 474.53,-141.85 483.25,-147.88 485.1,-141.12"/>
</g>
<!-- Node20 -->
<g id="node20" class="node">
<title>Node20</title>
<g id="a_node20"><a xlink:href="../../d2/de9/Exceptions_8hpp.html" target="_top" xlink:title="ArkScript homemade exceptions.">
<polygon fill="white" stroke="#666666" points="893.75,-141 792.25,-141 792.25,-121.75 893.75,-121.75 893.75,-141"/>
<text text-anchor="middle" x="843" y="-127.5" font-family="Helvetica,sans-Serif" font-size="10.00">Ark/Exceptions.hpp</text>
</a>
</g>
</g>
<!-- Node16&#45;&gt;Node20 -->
<g id="edge34" class="edge">
<title>Node16&#45;&gt;Node20</title>
<path fill="none" stroke="#63b8ff" d="M669.45,-176.59C704.43,-167.68 758.1,-154.01 796.48,-144.23"/>
<polygon fill="#63b8ff" stroke="#63b8ff" points="797.08,-147.69 805.91,-141.83 795.35,-140.9 797.08,-147.69"/>
</g>
<!-- Node18&#45;&gt;Node2 -->
<g id="edge31" class="edge">
<title>Node18&#45;&gt;Node2</title>
<path fill="none" stroke="#63b8ff" d="M388.22,-121.26C343.66,-112.71 283.42,-99.26 263,-85.75 241.72,-71.67 225.22,-46.89 215.57,-29.66"/>
<polygon fill="#63b8ff" stroke="#63b8ff" points="218.73,-28.14 210.95,-20.95 212.55,-31.42 218.73,-28.14"/>
</g>
<!-- Node18&#45;&gt;Node3 -->
<g id="edge33" class="edge">
<title>Node18&#45;&gt;Node3</title>
<path fill="none" stroke="#63b8ff" d="M462.79,-121.33C510.97,-102.26 620.22,-59.36 638,-55.25 804.56,-16.73 1010.63,-11.23 1089.35,-10.61"/>
<polygon fill="#63b8ff" stroke="#63b8ff" points="1088.95,-14.11 1098.93,-10.56 1088.91,-7.11 1088.95,-14.11"/>
</g>
<!-- Node19 -->
<g id="node19" class="node">
<title>Node19</title>
<g id="a_node19"><a xlink:title=" ">
<polygon fill="#e0e0e0" stroke="#999999" points="337.75,-80.12 272.25,-80.12 272.25,-60.88 337.75,-60.88 337.75,-80.12"/>
<text text-anchor="middle" x="305" y="-66.62" font-family="Helvetica,sans-Serif" font-size="10.00">string_view</text>
</a>
</g>
</g>
<!-- Node18&#45;&gt;Node19 -->
<g id="edge32" class="edge">
<title>Node18&#45;&gt;Node19</title>
<path fill="none" stroke="#63b8ff" d="M419.2,-121.3C396.94,-111.6 361.38,-96.09 335.86,-84.96"/>
<polygon fill="#63b8ff" stroke="#63b8ff" points="337.55,-81.88 326.99,-81.09 334.75,-88.29 337.55,-81.88"/>
</g>
<!-- Node20&#45;&gt;Node3 -->
<g id="edge36" class="edge">
<title>Node20&#45;&gt;Node3</title>
<path fill="none" stroke="#63b8ff" d="M846.92,-121.26C854.35,-105.15 872.11,-71.76 898,-55.25 957.38,-17.38 1042.2,-10.58 1088.57,-9.96"/>
<polygon fill="#63b8ff" stroke="#63b8ff" points="1088.53,-13.46 1098.52,-9.93 1088.51,-6.46 1088.53,-13.46"/>
</g>
<!-- Node20&#45;&gt;Node4 -->
<g id="edge35" class="edge">
<title>Node20&#45;&gt;Node4</title>
<path fill="none" stroke="#63b8ff" d="M842.47,-121.37C841.36,-102.3 838.74,-57.41 837.19,-31.01"/>
<polygon fill="#63b8ff" stroke="#63b8ff" points="840.7,-31.02 836.62,-21.24 833.71,-31.43 840.7,-31.02"/>
</g>
<!-- Node20&#45;&gt;Node13 -->
<g id="edge40" class="edge">
<title>Node20&#45;&gt;Node13</title>
<path fill="none" stroke="#63b8ff" d="M854.28,-121.28C865.28,-112.35 882.44,-98.29 897,-85.75 912.38,-72.5 912.43,-63.45 931,-55.25 1002.73,-23.56 1239.78,-14.04 1333.44,-11.48"/>
<polygon fill="#63b8ff" stroke="#63b8ff" points="1333.48,-14.98 1343.39,-11.22 1333.3,-7.98 1333.48,-14.98"/>
</g>
<!-- Node20&#45;&gt;Node14 -->
<g id="edge45" class="edge">
<title>Node20&#45;&gt;Node14</title>
<path fill="none" stroke="#63b8ff" d="M893.98,-127.24C921.52,-125.56 956.12,-123.5 987,-121.75 1062.21,-117.5 1597.44,-121.03 1664,-85.75 1686.89,-73.62 1703.26,-47.78 1712.43,-29.81"/>
<polygon fill="#63b8ff" stroke="#63b8ff" points="1715.5,-31.5 1716.65,-20.97 1709.18,-28.49 1715.5,-31.5"/>
</g>
<!-- Node21 -->
<g id="node21" class="node">
<title>Node21</title>
<g id="a_node21"><a xlink:title=" ">
<polygon fill="#e0e0e0" stroke="#999999" points="738.38,-80.12 679.62,-80.12 679.62,-60.88 738.38,-60.88 738.38,-80.12"/>
<text text-anchor="middle" x="709" y="-66.62" font-family="Helvetica,sans-Serif" font-size="10.00">stdexcept</text>
</a>
</g>
</g>
<!-- Node20&#45;&gt;Node21 -->
<g id="edge37" class="edge">
<title>Node20&#45;&gt;Node21</title>
<path fill="none" stroke="#63b8ff" d="M822.36,-121.3C800.36,-111.64 765.28,-96.23 739.97,-85.11"/>
<polygon fill="#63b8ff" stroke="#63b8ff" points="741.4,-81.91 730.83,-81.09 738.58,-88.32 741.4,-81.91"/>
</g>
<!-- Node22 -->
<g id="node22" class="node">
<title>Node22</title>
<g id="a_node22"><a xlink:title=" ">
<polygon fill="#e0e0e0" stroke="#999999" points="989.88,-80.12 940.12,-80.12 940.12,-60.88 989.88,-60.88 989.88,-80.12"/>
<text text-anchor="middle" x="965" y="-66.62" font-family="Helvetica,sans-Serif" font-size="10.00">optional</text>
</a>
</g>
</g>
<!-- Node20&#45;&gt;Node22 -->
<g id="edge38" class="edge">
<title>Node20&#45;&gt;Node22</title>
<path fill="none" stroke="#63b8ff" d="M861.8,-121.3C881.64,-111.73 913.19,-96.5 936.18,-85.41"/>
<polygon fill="#63b8ff" stroke="#63b8ff" points="937.54,-88.64 945.02,-81.14 934.49,-82.34 937.54,-88.64"/>
</g>
<!-- Node23 -->
<g id="node23" class="node">
<title>Node23</title>
<g id="a_node23"><a xlink:title=" ">
<polygon fill="#e0e0e0" stroke="#999999" points="807.62,-80.12 756.38,-80.12 756.38,-60.88 807.62,-60.88 807.62,-80.12"/>
<text text-anchor="middle" x="782" y="-66.62" font-family="Helvetica,sans-Serif" font-size="10.00">ostream</text>
</a>
</g>
</g>
<!-- Node20&#45;&gt;Node23 -->
<g id="edge39" class="edge">
<title>Node20&#45;&gt;Node23</title>
<path fill="none" stroke="#63b8ff" d="M833.74,-121.43C824.69,-112.7 810.69,-99.19 799.54,-88.43"/>
<polygon fill="#63b8ff" stroke="#63b8ff" points="802.07,-86 792.44,-81.58 797.21,-91.04 802.07,-86"/>
</g>
<!-- Node24 -->
<g id="node24" class="node">
<title>Node24</title>
<g id="a_node24"><a xlink:href="../../db/d4e/utf8__char_8hpp.html" target="_top" xlink:title=" ">
<polygon fill="white" stroke="#666666" points="509.5,-85.75 394.5,-85.75 394.5,-55.25 509.5,-55.25 509.5,-85.75"/>
<text text-anchor="start" x="402.5" y="-72.25" font-family="Helvetica,sans-Serif" font-size="10.00">Ark/Compiler/AST/utf8</text>
<text text-anchor="middle" x="452" y="-61" font-family="Helvetica,sans-Serif" font-size="10.00">_char.hpp</text>
</a>
</g>
</g>
<!-- Node20&#45;&gt;Node24 -->
<g id="edge41" class="edge">
<title>Node20&#45;&gt;Node24</title>
<path fill="none" stroke="#63b8ff" d="M791.88,-122.68C722.53,-112.24 598.41,-93.55 520.9,-81.87"/>
<polygon fill="#63b8ff" stroke="#63b8ff" points="521.71,-78.46 511.31,-80.43 520.67,-85.38 521.71,-78.46"/>
</g>
<!-- Node24&#45;&gt;Node2 -->
<g id="edge42" class="edge">
<title>Node24&#45;&gt;Node2</title>
<path fill="none" stroke="#63b8ff" d="M394.01,-55.62C344.58,-43.79 275.49,-27.26 236.3,-17.88"/>
<polygon fill="#63b8ff" stroke="#63b8ff" points="237.16,-14.48 226.62,-15.56 235.53,-21.29 237.16,-14.48"/>
</g>
<!-- Node24&#45;&gt;Node4 -->
<g id="edge43" class="edge">
<title>Node24&#45;&gt;Node4</title>
<path fill="none" stroke="#63b8ff" d="M509.72,-57.8C514.54,-56.9 519.35,-56.04 524,-55.25 626.27,-37.83 748.18,-21.74 804.55,-14.56"/>
<polygon fill="#63b8ff" stroke="#63b8ff" points="804.88,-18.04 814.36,-13.32 804,-11.1 804.88,-18.04"/>
</g>
<!-- Node25 -->
<g id="node25" class="node">
<title>Node25</title>
<g id="a_node25"><a xlink:title=" ">
<polygon fill="#e0e0e0" stroke="#999999" points="395.62,-19.25 356.38,-19.25 356.38,0 395.62,0 395.62,-19.25"/>
<text text-anchor="middle" x="376" y="-5.75" font-family="Helvetica,sans-Serif" font-size="10.00">limits</text>
</a>
</g>
</g>
<!-- Node24&#45;&gt;Node25 -->
<g id="edge44" class="edge">
<title>Node24&#45;&gt;Node25</title>
<path fill="none" stroke="#63b8ff" d="M433.21,-54.95C422.09,-46.33 407.98,-35.4 396.56,-26.55"/>
<polygon fill="#63b8ff" stroke="#63b8ff" points="398.96,-23.99 388.91,-20.63 394.67,-29.52 398.96,-23.99"/>
</g>
<!-- Node26&#45;&gt;Node2 -->
<g id="edge47" class="edge">
<title>Node26&#45;&gt;Node2</title>
<path fill="none" stroke="#63b8ff" d="M91.88,-121.28C104.53,-106.84 130.34,-77.97 154,-55.25 164.28,-45.39 176.31,-34.99 186.22,-26.71"/>
<polygon fill="#63b8ff" stroke="#63b8ff" points="188.29,-29.54 193.77,-20.48 183.83,-24.15 188.29,-29.54"/>
</g>
<!-- Node26&#45;&gt;Node19 -->
<g id="edge48" class="edge">
<title>Node26&#45;&gt;Node19</title>
<path fill="none" stroke="#63b8ff" d="M118.05,-121.3C156.42,-111.08 218.93,-94.43 260.98,-83.23"/>
<polygon fill="#63b8ff" stroke="#63b8ff" points="261.77,-86.64 270.54,-80.68 259.97,-79.87 261.77,-86.64"/>
</g>
<!-- Node27&#45;&gt;Node2 -->
<g id="edge50" class="edge">
<title>Node27&#45;&gt;Node2</title>
<path fill="none" stroke="#63b8ff" d="M995.17,-239.62C839.03,-236.44 483.28,-226.07 366,-196.25 309.49,-181.88 285.47,-184.82 247,-141 219.3,-109.44 210.3,-59.21 207.39,-31.2"/>
<polygon fill="#63b8ff" stroke="#63b8ff" points="210.88,-30.91 206.54,-21.24 203.9,-31.5 210.88,-30.91"/>
</g>
<!-- Node27&#45;&gt;Node9 -->
<g id="edge58" class="edge">
<title>Node27&#45;&gt;Node9</title>
<path fill="none" stroke="#63b8ff" d="M1098.37,-231.79C1123.21,-223.51 1160.07,-210.44 1191,-196.25 1223.4,-181.38 1259.05,-160.9 1281.93,-147.17"/>
<polygon fill="#63b8ff" stroke="#63b8ff" points="1283.45,-150.34 1290.2,-142.17 1279.83,-144.36 1283.45,-150.34"/>
</g>
<!-- Node27&#45;&gt;Node12 -->
<g id="edge52" class="edge">
<title>Node27&#45;&gt;Node12</title>
<path fill="none" stroke="#63b8ff" d="M1118.3,-231.75C1253.79,-205.69 1629.88,-129.93 1664,-85.75 1672.29,-75.02 1669.72,-67.54 1664,-55.25 1658.42,-43.27 1647.87,-33.35 1637.64,-25.93"/>
<polygon fill="#63b8ff" stroke="#63b8ff" points="1639.63,-23.05 1629.36,-20.44 1635.76,-28.88 1639.63,-23.05"/>
</g>
<!-- Node27&#45;&gt;Node22 -->
<g id="edge53" class="edge">
<title>Node27&#45;&gt;Node22</title>
<path fill="none" stroke="#63b8ff" d="M1060.39,-231.88C1043.31,-215.4 1007.54,-178.59 987,-141 978.46,-125.37 972.66,-105.91 969.17,-91.56"/>
<polygon fill="#63b8ff" stroke="#63b8ff" points="972.62,-90.96 967.02,-81.97 965.79,-92.5 972.62,-90.96"/>
</g>
<!-- Node27&#45;&gt;Node25 -->
<g id="edge51" class="edge">
<title>Node27&#45;&gt;Node25</title>
<path fill="none" stroke="#63b8ff" d="M995.37,-237.32C804.41,-227.46 309.79,-196.71 263,-141 238.49,-111.82 241.56,-86.76 263,-55.25 281.19,-28.51 318.12,-17.79 344.82,-13.5"/>
<polygon fill="#63b8ff" stroke="#63b8ff" points="344.98,-17.01 354.41,-12.19 344.03,-10.08 344.98,-17.01"/>
</g>
<!-- Node28 -->
<g id="node28" class="node">
<title>Node28</title>
<g id="a_node28"><a xlink:href="../../d6/de9/Constants_8hpp.html" target="_top" xlink:title="Constants used by ArkScript.">
<polygon fill="white" stroke="#666666" points="1093.88,-141 996.12,-141 996.12,-121.75 1093.88,-121.75 1093.88,-141"/>
<text text-anchor="middle" x="1045" y="-127.5" font-family="Helvetica,sans-Serif" font-size="10.00">Ark/Constants.hpp</text>
</a>
</g>
</g>
<!-- Node27&#45;&gt;Node28 -->
<g id="edge54" class="edge">
<title>Node27&#45;&gt;Node28</title>
<path fill="none" stroke="#63b8ff" d="M1065.83,-231.85C1061.9,-222.98 1056.17,-208.96 1053,-196.25 1049.39,-181.77 1047.37,-165.02 1046.26,-152.31"/>
<polygon fill="#63b8ff" stroke="#63b8ff" points="1049.78,-152.4 1045.55,-142.68 1042.8,-152.92 1049.78,-152.4"/>
</g>
<!-- Node30 -->
<g id="node30" class="node">
<title>Node30</title>
<g id="a_node30"><a xlink:href="../../d8/dcd/Scope_8hpp.html" target="_top" xlink:title="The virtual machine scope system.">
<polygon fill="white" stroke="#666666" points="1508.25,-196.25 1409.75,-196.25 1409.75,-177 1508.25,-177 1508.25,-196.25"/>
<text text-anchor="middle" x="1459" y="-182.75" font-family="Helvetica,sans-Serif" font-size="10.00">Ark/VM/Scope.hpp</text>
</a>
</g>
</g>
<!-- Node27&#45;&gt;Node30 -->
<g id="edge59" class="edge">
<title>Node27&#45;&gt;Node30</title>
<path fill="none" stroke="#63b8ff" d="M1136.43,-231.78C1209.96,-221.72 1327.46,-205.63 1398.52,-195.9"/>
<polygon fill="#63b8ff" stroke="#63b8ff" points="1398.58,-199.43 1408.01,-194.6 1397.63,-192.49 1398.58,-199.43"/>
</g>
<!-- Node28&#45;&gt;Node5 -->
<g id="edge56" class="edge">
<title>Node28&#45;&gt;Node5</title>
<path fill="none" stroke="#63b8ff" d="M1094.15,-127.88C1202.92,-122.18 1472.22,-107 1697,-85.75 1723.24,-83.27 1752.67,-79.72 1775.58,-76.78"/>
<polygon fill="#63b8ff" stroke="#63b8ff" points="1775.94,-80.26 1785.41,-75.5 1775.04,-73.32 1775.94,-80.26"/>
</g>
<!-- Node28&#45;&gt;Node19 -->
<g id="edge55" class="edge">
<title>Node28&#45;&gt;Node19</title>
<path fill="none" stroke="#63b8ff" d="M995.9,-127.36C840.36,-117.81 367.85,-88.62 352,-85.75 348.78,-85.17 345.46,-84.44 342.15,-83.62"/>
<polygon fill="#63b8ff" stroke="#63b8ff" points="343.12,-80.25 332.55,-80.97 341.26,-87 343.12,-80.25"/>
</g>
<!-- Node29 -->
<g id="node29" class="node">
<title>Node29</title>
<g id="a_node29"><a xlink:title=" ">
<polygon fill="#e0e0e0" stroke="#999999" points="1094.12,-80.12 1045.88,-80.12 1045.88,-60.88 1094.12,-60.88 1094.12,-80.12"/>
<text text-anchor="middle" x="1070" y="-66.62" font-family="Helvetica,sans-Serif" font-size="10.00">cstddef</text>
</a>
</g>
</g>
<!-- Node28&#45;&gt;Node29 -->
<g id="edge57" class="edge">
<title>Node28&#45;&gt;Node29</title>
<path fill="none" stroke="#63b8ff" d="M1048.8,-121.43C1052.21,-113.39 1057.34,-101.3 1061.71,-91.03"/>
<polygon fill="#63b8ff" stroke="#63b8ff" points="1064.89,-92.49 1065.58,-81.92 1058.45,-89.76 1064.89,-92.49"/>
</g>
<!-- Node30&#45;&gt;Node3 -->
<g id="edge60" class="edge">
<title>Node30&#45;&gt;Node3</title>
<path fill="none" stroke="#63b8ff" d="M1446.09,-176.52C1427.75,-163.72 1392.94,-139.94 1362,-121.75 1332.18,-104.22 1322.79,-103.33 1293,-85.75 1271.87,-73.28 1268.93,-66.23 1247,-55.25 1216.98,-40.22 1180.65,-27.84 1154.91,-19.97"/>
<polygon fill="#63b8ff" stroke="#63b8ff" points="1155.92,-16.62 1145.34,-17.11 1153.91,-23.33 1155.92,-16.62"/>
</g>
<!-- Node30&#45;&gt;Node5 -->
<g id="edge61" class="edge">
<title>Node30&#45;&gt;Node5</title>
<path fill="none" stroke="#63b8ff" d="M1487.69,-176.58C1554.34,-155.54 1718.11,-103.79 1773,-85.75 1774.55,-85.24 1776.14,-84.71 1777.74,-84.18"/>
<polygon fill="#63b8ff" stroke="#63b8ff" points="1778.56,-87.6 1786.93,-81.1 1776.33,-80.96 1778.56,-87.6"/>
</g>
<!-- Node30&#45;&gt;Node9 -->
<g id="edge63" class="edge">
<title>Node30&#45;&gt;Node9</title>
<path fill="none" stroke="#63b8ff" d="M1433.05,-176.59C1408.21,-167.95 1370.5,-154.82 1342.62,-145.12"/>
<polygon fill="#63b8ff" stroke="#63b8ff" points="1344.11,-141.93 1333.51,-141.95 1341.81,-148.54 1344.11,-141.93"/>
</g>
<!-- Node30&#45;&gt;Node14 -->
<g id="edge62" class="edge">
<title>Node30&#45;&gt;Node14</title>
<path fill="none" stroke="#63b8ff" d="M1508.56,-180.55C1604.59,-169.58 1810.28,-140.14 1852,-85.75 1876.84,-53.37 1823.04,-32.59 1777.04,-21.28"/>
<polygon fill="#63b8ff" stroke="#63b8ff" points="1777.88,-17.88 1767.35,-19.01 1776.29,-24.7 1777.88,-17.88"/>
</g>
<!-- Node31&#45;&gt;Node3 -->
<g id="edge65" class="edge">
<title>Node31&#45;&gt;Node3</title>
<path fill="none" stroke="#63b8ff" d="M1122,-176.71C1122,-149.8 1122,-68.94 1122,-30.87"/>
<polygon fill="#63b8ff" stroke="#63b8ff" points="1125.5,-31.25 1122,-21.25 1118.5,-31.25 1125.5,-31.25"/>
</g>
<!-- Node31&#45;&gt;Node9 -->
<g id="edge66" class="edge">
<title>Node31&#45;&gt;Node9</title>
<path fill="none" stroke="#63b8ff" d="M1153.21,-176.59C1183.61,-167.79 1230.04,-154.36 1263.74,-144.61"/>
<polygon fill="#63b8ff" stroke="#63b8ff" points="1264.55,-148.02 1273.18,-141.87 1262.6,-141.29 1264.55,-148.02"/>
</g>
<!-- Node31&#45;&gt;Node20 -->
<g id="edge67" class="edge">
<title>Node31&#45;&gt;Node20</title>
<path fill="none" stroke="#63b8ff" d="M1074.36,-176.53C1026.61,-167.42 953.01,-153.37 901.69,-143.58"/>
<polygon fill="#63b8ff" stroke="#63b8ff" points="902.41,-140.15 891.93,-141.71 901.1,-147.03 902.41,-140.15"/>
</g>
<!-- Node32&#45;&gt;Node4 -->
<g id="edge71" class="edge">
<title>Node32&#45;&gt;Node4</title>
<path fill="none" stroke="#63b8ff" d="M1898.79,-61.2C1883.81,-58.94 1867.26,-56.71 1852,-55.25 1752.12,-45.67 1028.47,-17.92 867.62,-11.82"/>
<polygon fill="#63b8ff" stroke="#63b8ff" points="867.85,-8.32 857.73,-11.44 867.59,-15.32 867.85,-8.32"/>
</g>
<!-- Node32&#45;&gt;Node14 -->
<g id="edge70" class="edge">
<title>Node32&#45;&gt;Node14</title>
<path fill="none" stroke="#63b8ff" d="M1913.03,-60.43C1873.87,-50.27 1810.25,-33.77 1767.07,-22.57"/>
<polygon fill="#63b8ff" stroke="#63b8ff" points="1768.03,-19.21 1757.48,-20.09 1766.28,-25.98 1768.03,-19.21"/>
</g>
<!-- Node33 -->
<g id="node33" class="node">
<title>Node33</title>
<g id="a_node33"><a xlink:title=" ">
<polygon fill="#e0e0e0" stroke="#999999" points="1984.5,-19.25 1911.5,-19.25 1911.5,0 1984.5,0 1984.5,-19.25"/>
<text text-anchor="middle" x="1948" y="-5.75" font-family="Helvetica,sans-Serif" font-size="10.00">system_error</text>
</a>
</g>
</g>
<!-- Node32&#45;&gt;Node33 -->
<g id="edge72" class="edge">
<title>Node32&#45;&gt;Node33</title>
<path fill="none" stroke="#63b8ff" d="M1948,-60.56C1948,-52.78 1948,-41.2 1948,-31.16"/>
<polygon fill="#63b8ff" stroke="#63b8ff" points="1951.5,-31.16 1948,-21.16 1944.5,-31.16 1951.5,-31.16"/>
</g>
<!-- Node34&#45;&gt;Node3 -->
<g id="edge75" class="edge">
<title>Node34&#45;&gt;Node3</title>
<path fill="none" stroke="#63b8ff" d="M1245.01,-287.24C1240.96,-278.24 1234.54,-263.91 1229,-251.5 1192.17,-168.97 1148.48,-70.41 1130.44,-29.68"/>
<polygon fill="#63b8ff" stroke="#63b8ff" points="1133.74,-28.49 1126.49,-20.76 1127.34,-31.32 1133.74,-28.49"/>
</g>
<!-- Node34&#45;&gt;Node9 -->
<g id="edge76" class="edge">
<title>Node34&#45;&gt;Node9</title>
<path fill="none" stroke="#63b8ff" d="M1259.17,-287.3C1268.02,-278.99 1280.44,-265.73 1287,-251.5 1301.93,-219.09 1305.4,-177.06 1306.06,-152.56"/>
<polygon fill="#63b8ff" stroke="#63b8ff" points="1309.55,-152.77 1306.17,-142.73 1302.55,-152.69 1309.55,-152.77"/>
</g>
<!-- Node34&#45;&gt;Node27 -->
<g id="edge77" class="edge">
<title>Node34&#45;&gt;Node27</title>
<path fill="none" stroke="#63b8ff" d="M1218.64,-287.09C1189.19,-278.33 1144.29,-264.98 1111.54,-255.23"/>
<polygon fill="#63b8ff" stroke="#63b8ff" points="1112.55,-251.88 1101.96,-252.38 1110.55,-258.59 1112.55,-251.88"/>
</g>
<!-- Node35 -->
<g id="node35" class="node">
<title>Node35</title>
<g id="a_node35"><a xlink:title=" ">
<polygon fill="#e0e0e0" stroke="#999999" points="1278.38,-251.5 1237.62,-251.5 1237.62,-232.25 1278.38,-232.25 1278.38,-251.5"/>
<text text-anchor="middle" x="1258" y="-238" font-family="Helvetica,sans-Serif" font-size="10.00">future</text>
</a>
</g>
</g>
<!-- Node34&#45;&gt;Node35 -->
<g id="edge74" class="edge">
<title>Node34&#45;&gt;Node35</title>
<path fill="none" stroke="#63b8ff" d="M1250.49,-287.33C1251.6,-280.74 1253.17,-271.46 1254.59,-263.07"/>
<polygon fill="#63b8ff" stroke="#63b8ff" points="1258.01,-263.8 1256.23,-253.35 1251.11,-262.63 1258.01,-263.8"/>
</g>
</g>
</svg>
        <g id="navigator" transform="translate(0 0)" fill="#404254">
                <rect fill="#f2f5e9" fill-opacity="0.5" stroke="#606060" stroke-width=".5" x="0" y="0" width="60" height="60"/>
                <use id="zoomplus" xlink:href="#zoomPlus" x="17" y="9" onmousedown="handleZoom(evt,'in')"/>
                <use id="zoomminus" xlink:href="#zoomMin" x="42" y="9" onmousedown="handleZoom(evt,'out')"/>
                <use id="reset" xlink:href="#resetDef" x="30" y="36" onmousedown="handleReset()"/>
                <g id="arrowUp" xlink:href="#dirArrow" transform="translate(30 24)" onmousedown="handlePan(0,-1)">
                  <use xlink:href="#rim" fill="#404040">
                        <set attributeName="fill" to="#808080" begin="arrowUp.mouseover" end="arrowUp.mouseout"/>
                  </use>
                  <path fill="none" stroke="white" stroke-width="1.5" d="M0,-3.0v7 M-2.5,-0.5L0,-3.0L2.5,-0.5"/>
                </g>
                <g id="arrowRight" xlink:href="#dirArrow" transform="rotate(90) translate(36 -43)" onmousedown="handlePan(1,0)">
                  <use xlink:href="#rim" fill="#404040">
                        <set attributeName="fill" to="#808080" begin="arrowRight.mouseover" end="arrowRight.mouseout"/>
                  </use>
                  <path fill="none" stroke="white" stroke-width="1.5" d="M0,-3.0v7 M-2.5,-0.5L0,-3.0L2.5,-0.5"/>
                </g>
                <g id="arrowDown" xlink:href="#dirArrow" transform="rotate(180) translate(-30 -48)" onmousedown="handlePan(0,1)">
                  <use xlink:href="#rim" fill="#404040">
                        <set attributeName="fill" to="#808080" begin="arrowDown.mouseover" end="arrowDown.mouseout"/>
                  </use>
                  <path fill="none" stroke="white" stroke-width="1.5" d="M0,-3.0v7 M-2.5,-0.5L0,-3.0L2.5,-0.5"/>
                </g>
                <g id="arrowLeft" xlink:href="#dirArrow" transform="rotate(270) translate(-36 17)" onmousedown="handlePan(-1,0)">
                  <use xlink:href="#rim" fill="#404040">
                        <set attributeName="fill" to="#808080" begin="arrowLeft.mouseover" end="arrowLeft.mouseout"/>
                  </use>
                  <path fill="none" stroke="white" stroke-width="1.5" d="M0,-3.0v7 M-2.5,-0.5L0,-3.0L2.5,-0.5"/>
                </g>
        </g>
        <svg viewBox="0 0 15 15" width="100%" height="30px" preserveAspectRatio="xMaxYMin meet">
         <g id="arrow_out" transform="scale(0.3 0.3)">
          <a xlink:href="VM_8hpp__incl_org.svg" target="_base">
           <rect id="button" ry="5" rx="5" y="6" x="6" height="38" width="38"
                fill="#f2f5e9" fill-opacity="0.5" stroke="#606060" stroke-width="1.0"/>
           <path id="arrow"
             d="M 11.500037,31.436501 C 11.940474,20.09759 22.043105,11.32322 32.158766,21.979434 L 37.068811,17.246167 C 37.068811,17.246167 37.088388,32 37.088388,32 L 22.160133,31.978069 C 22.160133,31.978069 26.997745,27.140456 26.997745,27.140456 C 18.528582,18.264221 13.291696,25.230495 11.500037,31.436501 z"
             style="fill:#404040;"/>
          </a>
         </g>
        </svg>
</svg>
