<?xml version="1.0" encoding="UTF-8" standalone="no"?>
<!DOCTYPE svg PUBLIC "-//W3C//DTD SVG 1.1//EN"
 "http://www.w3.org/Graphics/SVG/1.1/DTD/svg11.dtd">
<!-- Generated by graphviz version 2.43.0 (0)
 -->
<!-- Title: /home/fola/code/Ark/include/Ark/Constants.hpp Pages: 1 -->
<svg width="155pt" height="95pt"
 viewBox="0.00 0.00 155.00 95.00" xmlns="http://www.w3.org/2000/svg" xmlns:xlink="http://www.w3.org/1999/xlink">
<g id="graph0" class="graph" transform="scale(1 1) rotate(0) translate(4 91)">
<title>/home/fola/code/Ark/include/Ark/Constants.hpp</title>
<polygon fill="white" stroke="transparent" points="-4,4 -4,-91 151,-91 151,4 -4,4"/>
<!-- Node1 -->
<g id="node1" class="node">
<title>Node1</title>
<g id="a_node1"><a xlink:title="Constants used by ArkScript.">
<polygon fill="#bfbfbf" stroke="black" points="0,-56.5 0,-86.5 147,-86.5 147,-56.5 0,-56.5"/>
<text text-anchor="start" x="8" y="-74.5" font-family="Helvetica,sans-Serif" font-size="10.00">/home/fola/code/Ark</text>
<text text-anchor="middle" x="73.5" y="-63.5" font-family="Helvetica,sans-Serif" font-size="10.00">/include/Ark/Constants.hpp</text>
</a>
</g>
</g>
<!-- Node2 -->
<g id="node2" class="node">
<title>Node2</title>
<g id="a_node2"><a xlink:title=" ">
<polygon fill="white" stroke="#bfbfbf" points="4.5,-0.5 4.5,-19.5 66.5,-19.5 66.5,-0.5 4.5,-0.5"/>
<text text-anchor="middle" x="35.5" y="-7.5" font-family="Helvetica,sans-Serif" font-size="10.00">cinttypes</text>
</a>
</g>
</g>
<!-- Node1&#45;&gt;Node2 -->
<g id="edge1" class="edge">
<title>Node1&#45;&gt;Node2</title>
<path fill="none" stroke="midnightblue" d="M64.49,-56.4C59.09,-47.93 52.17,-37.1 46.45,-28.14"/>
<polygon fill="midnightblue" stroke="midnightblue" points="49.36,-26.2 41.03,-19.66 43.46,-29.97 49.36,-26.2"/>
</g>
<!-- Node3 -->
<g id="node3" class="node">
<title>Node3</title>
<g id="a_node3"><a xlink:title=" ">
<polygon fill="white" stroke="#bfbfbf" points="85,-0.5 85,-19.5 138,-19.5 138,-0.5 85,-0.5"/>
<text text-anchor="middle" x="111.5" y="-7.5" font-family="Helvetica,sans-Serif" font-size="10.00">cstddef</text>
</a>
</g>
</g>
<!-- Node1&#45;&gt;Node3 -->
<g id="edge2" class="edge">
<title>Node1&#45;&gt;Node3</title>
<path fill="none" stroke="midnightblue" d="M82.51,-56.4C87.91,-47.93 94.83,-37.1 100.55,-28.14"/>
<polygon fill="midnightblue" stroke="midnightblue" points="103.54,-29.97 105.97,-19.66 97.64,-26.2 103.54,-29.97"/>
</g>
</g>
</svg>
