<?xml version="1.0" encoding="UTF-8" standalone="no"?>
<!DOCTYPE svg PUBLIC "-//W3C//DTD SVG 1.1//EN"
 "http://www.w3.org/Graphics/SVG/1.1/DTD/svg11.dtd">
<!-- Generated by graphviz version 2.49.0 (20210828.1703)
 -->
<!-- Title: C:/Users/folae/Documents/Code/Big&#45;Projects/ArkScript/Ark/src/arkreactor/VM/Plugin.cpp Pages: 1 -->
<svg width="433pt" height="162pt"
 viewBox="0.00 0.00 432.50 162.00" xmlns="http://www.w3.org/2000/svg" xmlns:xlink="http://www.w3.org/1999/xlink">
<g id="graph0" class="graph" transform="scale(1 1) rotate(0) translate(4 158)">
<title>C:/Users/folae/Documents/Code/Big&#45;Projects/ArkScript/Ark/src/arkreactor/VM/Plugin.cpp</title>
<polygon fill="white" stroke="transparent" points="-4,4 -4,-158 428.5,-158 428.5,4 -4,4"/>
<!-- Node1 -->
<g id="node1" class="node">
<title>Node1</title>
<g id="a_node1"><a xlink:title=" ">
<polygon fill="#bfbfbf" stroke="black" points="210.5,-112.5 210.5,-153.5 374.5,-153.5 374.5,-112.5 210.5,-112.5"/>
<text text-anchor="start" x="218.5" y="-141.5" font-family="Helvetica,sans-Serif" font-size="10.00">C:/Users/folae/Documents</text>
<text text-anchor="start" x="218.5" y="-130.5" font-family="Helvetica,sans-Serif" font-size="10.00">/Code/Big&#45;Projects/ArkScript</text>
<text text-anchor="middle" x="292.5" y="-119.5" font-family="Helvetica,sans-Serif" font-size="10.00">/Ark/src/arkreactor/VM/Plugin.cpp</text>
</a>
</g>
</g>
<!-- Node2 -->
<g id="node2" class="node">
<title>Node2</title>
<g id="a_node2"><a xlink:href="../../db/d0e/Plugin_8hpp.html" target="_top" xlink:title="Loads .dll/.so/.dynlib files.">
<polygon fill="white" stroke="black" points="116.5,-56.5 116.5,-75.5 214.5,-75.5 214.5,-56.5 116.5,-56.5"/>
<text text-anchor="middle" x="165.5" y="-63.5" font-family="Helvetica,sans-Serif" font-size="10.00">Ark/VM/Plugin.hpp</text>
</a>
</g>
</g>
<!-- Node1&#45;&gt;Node2 -->
<g id="edge1" class="edge">
<title>Node1&#45;&gt;Node2</title>
<path fill="none" stroke="midnightblue" d="M254.4,-112.5C234.18,-102.15 209.84,-89.69 191.75,-80.43"/>
<polygon fill="midnightblue" stroke="midnightblue" points="192.9,-77.09 182.41,-75.65 189.71,-83.32 192.9,-77.09"/>
</g>
<!-- Node7 -->
<g id="node7" class="node">
<title>Node7</title>
<g id="a_node7"><a xlink:title=" ">
<polygon fill="white" stroke="#bfbfbf" points="232.5,-56.5 232.5,-75.5 284.5,-75.5 284.5,-56.5 232.5,-56.5"/>
<text text-anchor="middle" x="258.5" y="-63.5" font-family="Helvetica,sans-Serif" font-size="10.00">sstream</text>
</a>
</g>
</g>
<!-- Node1&#45;&gt;Node7 -->
<g id="edge6" class="edge">
<title>Node1&#45;&gt;Node7</title>
<path fill="none" stroke="midnightblue" d="M282.3,-112.5C277.69,-103.68 272.28,-93.34 267.78,-84.74"/>
<polygon fill="midnightblue" stroke="midnightblue" points="270.76,-82.89 263.03,-75.65 264.56,-86.14 270.76,-82.89"/>
</g>
<!-- Node8 -->
<g id="node8" class="node">
<title>Node8</title>
<g id="a_node8"><a xlink:title=" ">
<polygon fill="white" stroke="#bfbfbf" points="302.5,-56.5 302.5,-75.5 352.5,-75.5 352.5,-56.5 302.5,-56.5"/>
<text text-anchor="middle" x="327.5" y="-63.5" font-family="Helvetica,sans-Serif" font-size="10.00">iomanip</text>
</a>
</g>
</g>
<!-- Node1&#45;&gt;Node8 -->
<g id="edge7" class="edge">
<title>Node1&#45;&gt;Node8</title>
<path fill="none" stroke="midnightblue" d="M303,-112.5C307.8,-103.59 313.44,-93.11 318.1,-84.46"/>
<polygon fill="midnightblue" stroke="midnightblue" points="321.18,-86.12 322.84,-75.65 315.02,-82.8 321.18,-86.12"/>
</g>
<!-- Node9 -->
<g id="node9" class="node">
<title>Node9</title>
<g id="a_node9"><a xlink:title=" ">
<polygon fill="white" stroke="#bfbfbf" points="370.5,-56.5 370.5,-75.5 424.5,-75.5 424.5,-56.5 370.5,-56.5"/>
<text text-anchor="middle" x="397.5" y="-63.5" font-family="Helvetica,sans-Serif" font-size="10.00">iostream</text>
</a>
</g>
</g>
<!-- Node1&#45;&gt;Node9 -->
<g id="edge8" class="edge">
<title>Node1&#45;&gt;Node9</title>
<path fill="none" stroke="midnightblue" d="M324,-112.5C340.41,-102.34 360.1,-90.16 374.96,-80.95"/>
<polygon fill="midnightblue" stroke="midnightblue" points="376.86,-83.89 383.52,-75.65 373.18,-77.94 376.86,-83.89"/>
</g>
<!-- Node3 -->
<g id="node3" class="node">
<title>Node3</title>
<g id="a_node3"><a xlink:href="../../d5/d40/Platform_8hpp.html" target="_top" xlink:title="ArkScript configuration macros.">
<polygon fill="white" stroke="black" points="0,-0.5 0,-19.5 89,-19.5 89,-0.5 0,-0.5"/>
<text text-anchor="middle" x="44.5" y="-7.5" font-family="Helvetica,sans-Serif" font-size="10.00">Ark/Platform.hpp</text>
</a>
</g>
</g>
<!-- Node2&#45;&gt;Node3 -->
<g id="edge2" class="edge">
<title>Node2&#45;&gt;Node3</title>
<path fill="none" stroke="midnightblue" d="M146.33,-56.44C126.59,-47.64 95.61,-33.81 73.01,-23.72"/>
<polygon fill="midnightblue" stroke="midnightblue" points="74.14,-20.4 63.58,-19.52 71.29,-26.79 74.14,-20.4"/>
</g>
<!-- Node4 -->
<g id="node4" class="node">
<title>Node4</title>
<g id="a_node4"><a xlink:title=" ">
<polygon fill="white" stroke="#bfbfbf" points="107,-0.5 107,-19.5 148,-19.5 148,-0.5 107,-0.5"/>
<text text-anchor="middle" x="127.5" y="-7.5" font-family="Helvetica,sans-Serif" font-size="10.00">string</text>
</a>
</g>
</g>
<!-- Node2&#45;&gt;Node4 -->
<g id="edge3" class="edge">
<title>Node2&#45;&gt;Node4</title>
<path fill="none" stroke="midnightblue" d="M159.23,-56.08C153.86,-48.46 145.98,-37.26 139.42,-27.94"/>
<polygon fill="midnightblue" stroke="midnightblue" points="142.28,-25.91 133.66,-19.75 136.55,-29.94 142.28,-25.91"/>
</g>
<!-- Node5 -->
<g id="node5" class="node">
<title>Node5</title>
<g id="a_node5"><a xlink:title=" ">
<polygon fill="white" stroke="#bfbfbf" points="166.5,-0.5 166.5,-19.5 240.5,-19.5 240.5,-0.5 166.5,-0.5"/>
<text text-anchor="middle" x="203.5" y="-7.5" font-family="Helvetica,sans-Serif" font-size="10.00">system_error</text>
</a>
</g>
</g>
<!-- Node2&#45;&gt;Node5 -->
<g id="edge4" class="edge">
<title>Node2&#45;&gt;Node5</title>
<path fill="none" stroke="midnightblue" d="M171.77,-56.08C177.14,-48.46 185.02,-37.26 191.58,-27.94"/>
<polygon fill="midnightblue" stroke="midnightblue" points="194.45,-29.94 197.34,-19.75 188.72,-25.91 194.45,-29.94"/>
</g>
<!-- Node6 -->
<g id="node6" class="node">
<title>Node6</title>
<g id="a_node6"><a xlink:title=" ">
<polygon fill="white" stroke="#bfbfbf" points="259,-0.5 259,-19.5 318,-19.5 318,-0.5 259,-0.5"/>
<text text-anchor="middle" x="288.5" y="-7.5" font-family="Helvetica,sans-Serif" font-size="10.00">exception</text>
</a>
</g>
</g>
<!-- Node2&#45;&gt;Node6 -->
<g id="edge5" class="edge">
<title>Node2&#45;&gt;Node6</title>
<path fill="none" stroke="midnightblue" d="M184.99,-56.44C205.14,-47.6 236.82,-33.69 259.83,-23.59"/>
<polygon fill="midnightblue" stroke="midnightblue" points="261.35,-26.74 269.1,-19.52 258.54,-20.33 261.35,-26.74"/>
</g>
</g>
</svg>
