<?xml version="1.0" encoding="UTF-8" standalone="no"?>
<!DOCTYPE svg PUBLIC "-//W3C//DTD SVG 1.1//EN"
 "http://www.w3.org/Graphics/SVG/1.1/DTD/svg11.dtd">
<!-- Generated by graphviz version 2.49.0 (20210828.1703)
 -->
<!-- Title: C:/Users/folae/Documents/Code/Big&#45;Projects/ArkScript/Ark/include/Ark/VM/Value.hpp Pages: 1 -->
<svg width="1063pt" height="162pt"
 viewBox="0.00 0.00 1063.38 162.00" xmlns="http://www.w3.org/2000/svg" xmlns:xlink="http://www.w3.org/1999/xlink">
<g id="graph0" class="graph" transform="scale(1 1) rotate(0) translate(4 158)">
<title>C:/Users/folae/Documents/Code/Big&#45;Projects/ArkScript/Ark/include/Ark/VM/Value.hpp</title>
<polygon fill="white" stroke="transparent" points="-4,4 -4,-158 1059.38,-158 1059.38,4 -4,4"/>
<!-- Node1 -->
<g id="node1" class="node">
<title>Node1</title>
<g id="a_node1"><a xlink:title=" ">
<polygon fill="#bfbfbf" stroke="black" points="389.88,-112.5 389.88,-153.5 540.88,-153.5 540.88,-112.5 389.88,-112.5"/>
<text text-anchor="start" x="397.88" y="-141.5" font-family="Helvetica,sans-Serif" font-size="10.00">C:/Users/folae/Documents</text>
<text text-anchor="start" x="397.88" y="-130.5" font-family="Helvetica,sans-Serif" font-size="10.00">/Code/Big&#45;Projects/ArkScript</text>
<text text-anchor="middle" x="465.38" y="-119.5" font-family="Helvetica,sans-Serif" font-size="10.00">/Ark/include/Ark/VM/Value.hpp</text>
</a>
</g>
</g>
<!-- Node2 -->
<g id="node2" class="node">
<title>Node2</title>
<g id="a_node2"><a xlink:title=" ">
<polygon fill="white" stroke="#bfbfbf" points="80.38,-0.5 80.38,-19.5 122.38,-19.5 122.38,-0.5 80.38,-0.5"/>
<text text-anchor="middle" x="101.38" y="-7.5" font-family="Helvetica,sans-Serif" font-size="10.00">vector</text>
</a>
</g>
</g>
<!-- Node1&#45;&gt;Node2 -->
<g id="edge1" class="edge">
<title>Node1&#45;&gt;Node2</title>
<path fill="none" stroke="midnightblue" d="M389.74,-128.04C267.32,-120.84 36.91,-103.76 12.38,-76 6.49,-69.34 7.72,-63.57 12.38,-56 19.08,-45.1 47.74,-31.77 70.75,-22.47"/>
<polygon fill="midnightblue" stroke="midnightblue" points="72.17,-25.67 80.18,-18.74 69.6,-19.16 72.17,-25.67"/>
</g>
<!-- Node3 -->
<g id="node3" class="node">
<title>Node3</title>
<g id="a_node3"><a xlink:title=" ">
<polygon fill="white" stroke="#bfbfbf" points="443.38,-56.5 443.38,-75.5 487.38,-75.5 487.38,-56.5 443.38,-56.5"/>
<text text-anchor="middle" x="465.38" y="-63.5" font-family="Helvetica,sans-Serif" font-size="10.00">variant</text>
</a>
</g>
</g>
<!-- Node1&#45;&gt;Node3 -->
<g id="edge2" class="edge">
<title>Node1&#45;&gt;Node3</title>
<path fill="none" stroke="midnightblue" d="M465.38,-112.5C465.38,-104.07 465.38,-94.24 465.38,-85.87"/>
<polygon fill="midnightblue" stroke="midnightblue" points="468.88,-85.65 465.38,-75.65 461.88,-85.65 468.88,-85.65"/>
</g>
<!-- Node4 -->
<g id="node4" class="node">
<title>Node4</title>
<g id="a_node4"><a xlink:title=" ">
<polygon fill="white" stroke="#bfbfbf" points="505.88,-56.5 505.88,-75.5 546.88,-75.5 546.88,-56.5 505.88,-56.5"/>
<text text-anchor="middle" x="526.38" y="-63.5" font-family="Helvetica,sans-Serif" font-size="10.00">string</text>
</a>
</g>
</g>
<!-- Node1&#45;&gt;Node4 -->
<g id="edge3" class="edge">
<title>Node1&#45;&gt;Node4</title>
<path fill="none" stroke="midnightblue" d="M483.68,-112.5C492.49,-103.11 502.93,-91.98 511.28,-83.08"/>
<polygon fill="midnightblue" stroke="midnightblue" points="513.97,-85.34 518.26,-75.65 508.86,-80.55 513.97,-85.34"/>
</g>
<!-- Node5 -->
<g id="node5" class="node">
<title>Node5</title>
<g id="a_node5"><a xlink:title=" ">
<polygon fill="white" stroke="#bfbfbf" points="565.38,-56.5 565.38,-75.5 621.38,-75.5 621.38,-56.5 565.38,-56.5"/>
<text text-anchor="middle" x="593.38" y="-63.5" font-family="Helvetica,sans-Serif" font-size="10.00">cinttypes</text>
</a>
</g>
</g>
<!-- Node1&#45;&gt;Node5 -->
<g id="edge4" class="edge">
<title>Node1&#45;&gt;Node5</title>
<path fill="none" stroke="midnightblue" d="M503.78,-112.5C524.26,-102.1 548.91,-89.58 567.17,-80.31"/>
<polygon fill="midnightblue" stroke="midnightblue" points="569.01,-83.3 576.34,-75.65 565.84,-77.06 569.01,-83.3"/>
</g>
<!-- Node6 -->
<g id="node6" class="node">
<title>Node6</title>
<g id="a_node6"><a xlink:title=" ">
<polygon fill="white" stroke="#bfbfbf" points="8.38,-0.5 8.38,-19.5 62.38,-19.5 62.38,-0.5 8.38,-0.5"/>
<text text-anchor="middle" x="35.38" y="-7.5" font-family="Helvetica,sans-Serif" font-size="10.00">iostream</text>
</a>
</g>
</g>
<!-- Node1&#45;&gt;Node6 -->
<g id="edge5" class="edge">
<title>Node1&#45;&gt;Node6</title>
<path fill="none" stroke="midnightblue" d="M389.57,-128.18C265.52,-121.15 30.38,-104.23 5.38,-76 -7.16,-61.84 5.8,-41.56 18.38,-27.43"/>
<polygon fill="midnightblue" stroke="midnightblue" points="21.18,-29.56 25.55,-19.91 16.11,-24.73 21.18,-29.56"/>
</g>
<!-- Node7 -->
<g id="node7" class="node">
<title>Node7</title>
<g id="a_node7"><a xlink:title=" ">
<polygon fill="white" stroke="#bfbfbf" points="155.38,-0.5 155.38,-19.5 207.38,-19.5 207.38,-0.5 155.38,-0.5"/>
<text text-anchor="middle" x="181.38" y="-7.5" font-family="Helvetica,sans-Serif" font-size="10.00">memory</text>
</a>
</g>
</g>
<!-- Node1&#45;&gt;Node7 -->
<g id="edge6" class="edge">
<title>Node1&#45;&gt;Node7</title>
<path fill="none" stroke="midnightblue" d="M389.61,-124.65C321.29,-116.52 227.5,-101.13 200.38,-76 187.72,-64.27 183.33,-44.63 181.89,-30"/>
<polygon fill="midnightblue" stroke="midnightblue" points="185.36,-29.36 181.26,-19.59 178.37,-29.78 185.36,-29.36"/>
</g>
<!-- Node8 -->
<g id="node8" class="node">
<title>Node8</title>
<g id="a_node8"><a xlink:title=" ">
<polygon fill="white" stroke="#bfbfbf" points="639.38,-56.5 639.38,-75.5 697.38,-75.5 697.38,-56.5 639.38,-56.5"/>
<text text-anchor="middle" x="668.38" y="-63.5" font-family="Helvetica,sans-Serif" font-size="10.00">functional</text>
</a>
</g>
</g>
<!-- Node1&#45;&gt;Node8 -->
<g id="edge7" class="edge">
<title>Node1&#45;&gt;Node8</title>
<path fill="none" stroke="midnightblue" d="M526.28,-112.5C560.65,-101.49 602.46,-88.11 631.8,-78.71"/>
<polygon fill="midnightblue" stroke="midnightblue" points="633.17,-81.95 641.62,-75.57 631.03,-75.28 633.17,-81.95"/>
</g>
<!-- Node9 -->
<g id="node9" class="node">
<title>Node9</title>
<g id="a_node9"><a xlink:title=" ">
<polygon fill="white" stroke="#bfbfbf" points="368.38,-0.5 368.38,-19.5 408.38,-19.5 408.38,-0.5 368.38,-0.5"/>
<text text-anchor="middle" x="388.38" y="-7.5" font-family="Helvetica,sans-Serif" font-size="10.00">utility</text>
</a>
</g>
</g>
<!-- Node1&#45;&gt;Node9 -->
<g id="edge8" class="edge">
<title>Node1&#45;&gt;Node9</title>
<path fill="none" stroke="midnightblue" d="M452.83,-112.29C437.99,-88.96 413.5,-50.47 399.36,-28.26"/>
<polygon fill="midnightblue" stroke="midnightblue" points="402.16,-26.13 393.83,-19.57 396.25,-29.89 402.16,-26.13"/>
</g>
<!-- Node10 -->
<g id="node10" class="node">
<title>Node10</title>
<g id="a_node10"><a xlink:title=" ">
<polygon fill="white" stroke="#bfbfbf" points="715.88,-56.5 715.88,-75.5 794.88,-75.5 794.88,-56.5 715.88,-56.5"/>
<text text-anchor="middle" x="755.38" y="-63.5" font-family="Helvetica,sans-Serif" font-size="10.00">Ark/String.hpp</text>
</a>
</g>
</g>
<!-- Node1&#45;&gt;Node10 -->
<g id="edge9" class="edge">
<title>Node1&#45;&gt;Node10</title>
<path fill="none" stroke="midnightblue" d="M541.19,-115.01C593.77,-103.22 662.2,-87.88 707.4,-77.75"/>
<polygon fill="midnightblue" stroke="midnightblue" points="708.25,-81.15 717.24,-75.55 706.71,-74.32 708.25,-81.15"/>
</g>
<!-- Node11 -->
<g id="node11" class="node">
<title>Node11</title>
<g id="a_node11"><a xlink:title=" ">
<polygon fill="white" stroke="#bfbfbf" points="813.38,-56.5 813.38,-75.5 851.38,-75.5 851.38,-56.5 813.38,-56.5"/>
<text text-anchor="middle" x="832.38" y="-63.5" font-family="Helvetica,sans-Serif" font-size="10.00">array</text>
</a>
</g>
</g>
<!-- Node1&#45;&gt;Node11 -->
<g id="edge10" class="edge">
<title>Node1&#45;&gt;Node11</title>
<path fill="none" stroke="midnightblue" d="M541.08,-122.75C607.92,-113.84 708.03,-98.68 803.4,-75.94"/>
<polygon fill="midnightblue" stroke="midnightblue" points="804.31,-79.32 813.2,-73.57 802.66,-72.52 804.31,-79.32"/>
</g>
<!-- Node12 -->
<g id="node12" class="node">
<title>Node12</title>
<g id="a_node12"><a xlink:href="../../dc/dd5/Closure_8hpp.html" target="_top" xlink:title="Subtype of the value type, handling closures.">
<polygon fill="white" stroke="black" points="21.38,-56.5 21.38,-75.5 153.38,-75.5 153.38,-56.5 21.38,-56.5"/>
<text text-anchor="middle" x="87.38" y="-63.5" font-family="Helvetica,sans-Serif" font-size="10.00">Ark/VM/Value/Closure.hpp</text>
</a>
</g>
</g>
<!-- Node1&#45;&gt;Node12 -->
<g id="edge11" class="edge">
<title>Node1&#45;&gt;Node12</title>
<path fill="none" stroke="midnightblue" d="M389.79,-119C318.42,-106.73 212.8,-88.57 147.14,-77.28"/>
<polygon fill="midnightblue" stroke="midnightblue" points="147.4,-73.77 136.95,-75.52 146.21,-80.67 147.4,-73.77"/>
</g>
<!-- Node13 -->
<g id="node13" class="node">
<title>Node13</title>
<g id="a_node13"><a xlink:href="../../d5/d40/Platform_8hpp.html" target="_top" xlink:title="ArkScript configuration macros.">
<polygon fill="white" stroke="black" points="234.88,-0.5 234.88,-19.5 323.88,-19.5 323.88,-0.5 234.88,-0.5"/>
<text text-anchor="middle" x="279.38" y="-7.5" font-family="Helvetica,sans-Serif" font-size="10.00">Ark/Platform.hpp</text>
</a>
</g>
</g>
<!-- Node1&#45;&gt;Node13 -->
<g id="edge22" class="edge">
<title>Node1&#45;&gt;Node13</title>
<path fill="none" stroke="midnightblue" d="M439.06,-112.19C417.71,-96.4 386.62,-74.01 358.38,-56 340.74,-44.75 320.2,-33.1 304.48,-24.46"/>
<polygon fill="midnightblue" stroke="midnightblue" points="305.85,-21.22 295.39,-19.51 302.5,-27.37 305.85,-21.22"/>
</g>
<!-- Node14 -->
<g id="node14" class="node">
<title>Node14</title>
<g id="a_node14"><a xlink:href="../../dc/d3d/UserType_8hpp.html" target="_top" xlink:title="Subtype of the value, capable of handling any C++ type.">
<polygon fill="white" stroke="black" points="209.38,-56.5 209.38,-75.5 349.38,-75.5 349.38,-56.5 209.38,-56.5"/>
<text text-anchor="middle" x="279.38" y="-63.5" font-family="Helvetica,sans-Serif" font-size="10.00">Ark/VM/Value/UserType.hpp</text>
</a>
</g>
</g>
<!-- Node1&#45;&gt;Node14 -->
<g id="edge16" class="edge">
<title>Node1&#45;&gt;Node14</title>
<path fill="none" stroke="midnightblue" d="M409.57,-112.5C378.45,-101.62 340.67,-88.42 313.85,-79.05"/>
<polygon fill="midnightblue" stroke="midnightblue" points="314.73,-75.65 304.14,-75.65 312.42,-82.26 314.73,-75.65"/>
</g>
<!-- Node15 -->
<g id="node15" class="node">
<title>Node15</title>
<g id="a_node15"><a xlink:href="../../d0/dd2/Profiling_8hpp.html" target="_top" xlink:title=" ">
<polygon fill="white" stroke="black" points="869.38,-56.5 869.38,-75.5 957.38,-75.5 957.38,-56.5 869.38,-56.5"/>
<text text-anchor="middle" x="913.38" y="-63.5" font-family="Helvetica,sans-Serif" font-size="10.00">Ark/Profiling.hpp</text>
</a>
</g>
</g>
<!-- Node1&#45;&gt;Node15 -->
<g id="edge23" class="edge">
<title>Node1&#45;&gt;Node15</title>
<path fill="none" stroke="midnightblue" d="M541.19,-121.88C618.53,-111.41 742.26,-94.27 858.96,-76.19"/>
<polygon fill="midnightblue" stroke="midnightblue" points="859.8,-79.6 869.15,-74.6 858.73,-72.68 859.8,-79.6"/>
</g>
<!-- Node16 -->
<g id="node16" class="node">
<title>Node16</title>
<g id="a_node16"><a xlink:title=" ">
<polygon fill="white" stroke="#bfbfbf" points="975.38,-56.5 975.38,-75.5 1055.38,-75.5 1055.38,-56.5 975.38,-56.5"/>
<text text-anchor="middle" x="1015.38" y="-63.5" font-family="Helvetica,sans-Serif" font-size="10.00">inline/Value.inl</text>
</a>
</g>
</g>
<!-- Node1&#45;&gt;Node16 -->
<g id="edge24" class="edge">
<title>Node1&#45;&gt;Node16</title>
<path fill="none" stroke="midnightblue" d="M541.13,-125.21C637.32,-116.2 808.6,-98.93 965.02,-76.11"/>
<polygon fill="midnightblue" stroke="midnightblue" points="965.92,-79.51 975.3,-74.6 964.9,-72.59 965.92,-79.51"/>
</g>
<!-- Node12&#45;&gt;Node2 -->
<g id="edge13" class="edge">
<title>Node12&#45;&gt;Node2</title>
<path fill="none" stroke="midnightblue" d="M89.69,-56.08C91.54,-48.93 94.21,-38.64 96.53,-29.69"/>
<polygon fill="midnightblue" stroke="midnightblue" points="99.99,-30.31 99.11,-19.75 93.21,-28.55 99.99,-30.31"/>
</g>
<!-- Node12&#45;&gt;Node6 -->
<g id="edge14" class="edge">
<title>Node12&#45;&gt;Node6</title>
<path fill="none" stroke="midnightblue" d="M78.79,-56.08C71.22,-48.22 60,-36.57 50.86,-27.08"/>
<polygon fill="midnightblue" stroke="midnightblue" points="53.26,-24.53 43.8,-19.75 48.22,-29.38 53.26,-24.53"/>
</g>
<!-- Node12&#45;&gt;Node7 -->
<g id="edge12" class="edge">
<title>Node12&#45;&gt;Node7</title>
<path fill="none" stroke="midnightblue" d="M102.48,-56.32C117.28,-47.82 140.07,-34.73 157.36,-24.8"/>
<polygon fill="midnightblue" stroke="midnightblue" points="159.38,-27.67 166.31,-19.65 155.9,-21.6 159.38,-27.67"/>
</g>
<!-- Node12&#45;&gt;Node13 -->
<g id="edge15" class="edge">
<title>Node12&#45;&gt;Node13</title>
<path fill="none" stroke="midnightblue" d="M117.8,-56.44C150.66,-47.2 203.16,-32.44 239.35,-22.26"/>
<polygon fill="midnightblue" stroke="midnightblue" points="240.42,-25.59 249.1,-19.52 238.52,-18.85 240.42,-25.59"/>
</g>
<!-- Node14&#45;&gt;Node2 -->
<g id="edge18" class="edge">
<title>Node14&#45;&gt;Node2</title>
<path fill="none" stroke="midnightblue" d="M251.17,-56.44C218.75,-46.61 165.7,-30.51 132.2,-20.35"/>
<polygon fill="midnightblue" stroke="midnightblue" points="133.07,-16.96 122.48,-17.4 131.04,-23.66 133.07,-16.96"/>
</g>
<!-- Node14&#45;&gt;Node6 -->
<g id="edge17" class="edge">
<title>Node14&#45;&gt;Node6</title>
<path fill="none" stroke="midnightblue" d="M237.85,-56.42C197.94,-48.09 135.67,-34.85 72.61,-20.23"/>
<polygon fill="midnightblue" stroke="midnightblue" points="73.02,-16.73 62.48,-17.87 71.43,-23.55 73.02,-16.73"/>
</g>
<!-- Node14&#45;&gt;Node7 -->
<g id="edge20" class="edge">
<title>Node14&#45;&gt;Node7</title>
<path fill="none" stroke="midnightblue" d="M263.63,-56.32C248.06,-47.74 224,-34.49 205.92,-24.52"/>
<polygon fill="midnightblue" stroke="midnightblue" points="207.53,-21.42 197.08,-19.65 204.15,-27.55 207.53,-21.42"/>
</g>
<!-- Node14&#45;&gt;Node9 -->
<g id="edge19" class="edge">
<title>Node14&#45;&gt;Node9</title>
<path fill="none" stroke="midnightblue" d="M296.89,-56.32C314.45,-47.62 341.71,-34.12 361.91,-24.11"/>
<polygon fill="midnightblue" stroke="midnightblue" points="363.5,-27.23 370.91,-19.65 360.39,-20.96 363.5,-27.23"/>
</g>
<!-- Node14&#45;&gt;Node13 -->
<g id="edge21" class="edge">
<title>Node14&#45;&gt;Node13</title>
<path fill="none" stroke="midnightblue" d="M279.38,-56.08C279.38,-49.01 279.38,-38.86 279.38,-29.99"/>
<polygon fill="midnightblue" stroke="midnightblue" points="282.88,-29.75 279.38,-19.75 275.88,-29.75 282.88,-29.75"/>
</g>
</g>
</svg>
