<?xml version="1.0" encoding="UTF-8" standalone="no"?>
<!DOCTYPE svg PUBLIC "-//W3C//DTD SVG 1.1//EN"
 "http://www.w3.org/Graphics/SVG/1.1/DTD/svg11.dtd">
<!-- Generated by graphviz version 2.49.0 (20210828.1703)
 -->
<!-- Title: C:/Users/folae/Documents/Code/Big&#45;Projects/ArkScript/Ark/src/arkreactor/Compiler/Node.cpp Pages: 1 -->
<svg width="703pt" height="229pt"
 viewBox="0.00 0.00 702.50 229.00" xmlns="http://www.w3.org/2000/svg" xmlns:xlink="http://www.w3.org/1999/xlink">
<g id="graph0" class="graph" transform="scale(1 1) rotate(0) translate(4 225)">
<title>C:/Users/folae/Documents/Code/Big&#45;Projects/ArkScript/Ark/src/arkreactor/Compiler/Node.cpp</title>
<polygon fill="white" stroke="transparent" points="-4,4 -4,-225 698.5,-225 698.5,4 -4,4"/>
<!-- Node1 -->
<g id="node1" class="node">
<title>Node1</title>
<g id="a_node1"><a xlink:title=" ">
<polygon fill="#bfbfbf" stroke="black" points="246,-168.5 246,-220.5 388,-220.5 388,-168.5 246,-168.5"/>
<text text-anchor="start" x="254" y="-208.5" font-family="Helvetica,sans-Serif" font-size="10.00">C:/Users/folae/Documents</text>
<text text-anchor="start" x="254" y="-197.5" font-family="Helvetica,sans-Serif" font-size="10.00">/Code/Big&#45;Projects/ArkScript</text>
<text text-anchor="start" x="254" y="-186.5" font-family="Helvetica,sans-Serif" font-size="10.00">/Ark/src/arkreactor/Compiler</text>
<text text-anchor="middle" x="317" y="-175.5" font-family="Helvetica,sans-Serif" font-size="10.00">/Node.cpp</text>
</a>
</g>
</g>
<!-- Node2 -->
<g id="node2" class="node">
<title>Node2</title>
<g id="a_node2"><a xlink:href="../../d7/dc6/Node_8hpp.html" target="_top" xlink:title="AST node used by the parser, optimizer and compiler.">
<polygon fill="white" stroke="black" points="190.5,-112.5 190.5,-131.5 307.5,-131.5 307.5,-112.5 190.5,-112.5"/>
<text text-anchor="middle" x="249" y="-119.5" font-family="Helvetica,sans-Serif" font-size="10.00">Ark/Compiler/Node.hpp</text>
</a>
</g>
</g>
<!-- Node1&#45;&gt;Node2 -->
<g id="edge1" class="edge">
<title>Node1&#45;&gt;Node2</title>
<path fill="none" stroke="midnightblue" d="M292.83,-168.45C283.36,-158.63 272.78,-147.66 264.39,-138.95"/>
<polygon fill="midnightblue" stroke="midnightblue" points="266.85,-136.46 257.39,-131.7 261.81,-141.32 266.85,-136.46"/>
</g>
<!-- Node13 -->
<g id="node13" class="node">
<title>Node13</title>
<g id="a_node13"><a xlink:title=" ">
<polygon fill="white" stroke="#bfbfbf" points="325.5,-112.5 325.5,-131.5 444.5,-131.5 444.5,-112.5 325.5,-112.5"/>
<text text-anchor="middle" x="385" y="-119.5" font-family="Helvetica,sans-Serif" font-size="10.00">termcolor/termcolor.hpp</text>
</a>
</g>
</g>
<!-- Node1&#45;&gt;Node13 -->
<g id="edge13" class="edge">
<title>Node1&#45;&gt;Node13</title>
<path fill="none" stroke="midnightblue" d="M341.17,-168.45C350.64,-158.63 361.22,-147.66 369.61,-138.95"/>
<polygon fill="midnightblue" stroke="midnightblue" points="372.19,-141.32 376.61,-131.7 367.15,-136.46 372.19,-141.32"/>
</g>
<!-- Node3 -->
<g id="node3" class="node">
<title>Node3</title>
<g id="a_node3"><a xlink:title=" ">
<polygon fill="white" stroke="#bfbfbf" points="0,-56.5 0,-75.5 44,-75.5 44,-56.5 0,-56.5"/>
<text text-anchor="middle" x="22" y="-63.5" font-family="Helvetica,sans-Serif" font-size="10.00">variant</text>
</a>
</g>
</g>
<!-- Node2&#45;&gt;Node3 -->
<g id="edge2" class="edge">
<title>Node2&#45;&gt;Node3</title>
<path fill="none" stroke="midnightblue" d="M208.67,-112.44C171.03,-104.3 113.08,-91.37 54.16,-76.2"/>
<polygon fill="midnightblue" stroke="midnightblue" points="54.87,-72.76 44.31,-73.64 53.11,-79.54 54.87,-72.76"/>
</g>
<!-- Node4 -->
<g id="node4" class="node">
<title>Node4</title>
<g id="a_node4"><a xlink:title=" ">
<polygon fill="white" stroke="#bfbfbf" points="62,-56.5 62,-75.5 116,-75.5 116,-56.5 62,-56.5"/>
<text text-anchor="middle" x="89" y="-63.5" font-family="Helvetica,sans-Serif" font-size="10.00">iostream</text>
</a>
</g>
</g>
<!-- Node2&#45;&gt;Node4 -->
<g id="edge3" class="edge">
<title>Node2&#45;&gt;Node4</title>
<path fill="none" stroke="midnightblue" d="M223.65,-112.44C196.73,-103.36 154,-88.94 123.91,-78.78"/>
<polygon fill="midnightblue" stroke="midnightblue" points="124.83,-75.4 114.23,-75.52 122.59,-82.03 124.83,-75.4"/>
</g>
<!-- Node5 -->
<g id="node5" class="node">
<title>Node5</title>
<g id="a_node5"><a xlink:title=" ">
<polygon fill="white" stroke="#bfbfbf" points="134,-56.5 134,-75.5 172,-75.5 172,-56.5 134,-56.5"/>
<text text-anchor="middle" x="153" y="-63.5" font-family="Helvetica,sans-Serif" font-size="10.00">array</text>
</a>
</g>
</g>
<!-- Node2&#45;&gt;Node5 -->
<g id="edge4" class="edge">
<title>Node2&#45;&gt;Node5</title>
<path fill="none" stroke="midnightblue" d="M233.58,-112.32C218.46,-103.82 195.18,-90.73 177.53,-80.8"/>
<polygon fill="midnightblue" stroke="midnightblue" points="178.82,-77.51 168.39,-75.65 175.39,-83.61 178.82,-77.51"/>
</g>
<!-- Node6 -->
<g id="node6" class="node">
<title>Node6</title>
<g id="a_node6"><a xlink:title=" ">
<polygon fill="white" stroke="#bfbfbf" points="319.5,-0.5 319.5,-19.5 360.5,-19.5 360.5,-0.5 319.5,-0.5"/>
<text text-anchor="middle" x="340" y="-7.5" font-family="Helvetica,sans-Serif" font-size="10.00">string</text>
</a>
</g>
</g>
<!-- Node2&#45;&gt;Node6 -->
<g id="edge5" class="edge">
<title>Node2&#45;&gt;Node6</title>
<path fill="none" stroke="midnightblue" d="M239.26,-112.07C226.25,-99.04 206.23,-74.37 219,-56 239.19,-26.95 280.48,-16.62 309.18,-12.96"/>
<polygon fill="midnightblue" stroke="midnightblue" points="309.91,-16.4 319.49,-11.86 309.17,-9.44 309.91,-16.4"/>
</g>
<!-- Node7 -->
<g id="node7" class="node">
<title>Node7</title>
<g id="a_node7"><a xlink:title=" ">
<polygon fill="white" stroke="#bfbfbf" points="228,-56.5 228,-75.5 270,-75.5 270,-56.5 228,-56.5"/>
<text text-anchor="middle" x="249" y="-63.5" font-family="Helvetica,sans-Serif" font-size="10.00">vector</text>
</a>
</g>
</g>
<!-- Node2&#45;&gt;Node7 -->
<g id="edge6" class="edge">
<title>Node2&#45;&gt;Node7</title>
<path fill="none" stroke="midnightblue" d="M249,-112.08C249,-105.01 249,-94.86 249,-85.99"/>
<polygon fill="midnightblue" stroke="midnightblue" points="252.5,-85.75 249,-75.75 245.5,-85.75 252.5,-85.75"/>
</g>
<!-- Node8 -->
<g id="node8" class="node">
<title>Node8</title>
<g id="a_node8"><a xlink:title=" ">
<polygon fill="white" stroke="#bfbfbf" points="288.5,-56.5 288.5,-75.5 371.5,-75.5 371.5,-56.5 288.5,-56.5"/>
<text text-anchor="middle" x="330" y="-63.5" font-family="Helvetica,sans-Serif" font-size="10.00">unordered_map</text>
</a>
</g>
</g>
<!-- Node2&#45;&gt;Node8 -->
<g id="edge7" class="edge">
<title>Node2&#45;&gt;Node8</title>
<path fill="none" stroke="midnightblue" d="M262.01,-112.32C274.53,-103.98 293.68,-91.21 308.47,-81.35"/>
<polygon fill="midnightblue" stroke="midnightblue" points="310.64,-84.11 317.02,-75.65 306.76,-78.29 310.64,-84.11"/>
</g>
<!-- Node9 -->
<g id="node9" class="node">
<title>Node9</title>
<g id="a_node9"><a xlink:href="../../d5/d40/Platform_8hpp.html" target="_top" xlink:title="ArkScript configuration macros.">
<polygon fill="white" stroke="black" points="389.5,-56.5 389.5,-75.5 478.5,-75.5 478.5,-56.5 389.5,-56.5"/>
<text text-anchor="middle" x="434" y="-63.5" font-family="Helvetica,sans-Serif" font-size="10.00">Ark/Platform.hpp</text>
</a>
</g>
</g>
<!-- Node2&#45;&gt;Node9 -->
<g id="edge8" class="edge">
<title>Node2&#45;&gt;Node9</title>
<path fill="none" stroke="midnightblue" d="M278.31,-112.44C309.84,-103.24 360.13,-88.56 394.99,-78.39"/>
<polygon fill="midnightblue" stroke="midnightblue" points="396.2,-81.68 404.82,-75.52 394.24,-74.96 396.2,-81.68"/>
</g>
<!-- Node10 -->
<g id="node10" class="node">
<title>Node10</title>
<g id="a_node10"><a xlink:href="../../d2/de9/Exceptions_8hpp.html" target="_top" xlink:title="ArkScript homemade exceptions.">
<polygon fill="white" stroke="black" points="497,-56.5 497,-75.5 599,-75.5 599,-56.5 497,-56.5"/>
<text text-anchor="middle" x="548" y="-63.5" font-family="Helvetica,sans-Serif" font-size="10.00">Ark/Exceptions.hpp</text>
</a>
</g>
</g>
<!-- Node2&#45;&gt;Node10 -->
<g id="edge9" class="edge">
<title>Node2&#45;&gt;Node10</title>
<path fill="none" stroke="midnightblue" d="M296.38,-112.44C349.08,-102.92 434.23,-87.55 490.66,-77.36"/>
<polygon fill="midnightblue" stroke="midnightblue" points="491.63,-80.74 500.84,-75.52 490.38,-73.85 491.63,-80.74"/>
</g>
<!-- Node12 -->
<g id="node12" class="node">
<title>Node12</title>
<g id="a_node12"><a xlink:title=" ">
<polygon fill="white" stroke="#bfbfbf" points="617.5,-56.5 617.5,-75.5 694.5,-75.5 694.5,-56.5 617.5,-56.5"/>
<text text-anchor="middle" x="656" y="-63.5" font-family="Helvetica,sans-Serif" font-size="10.00">inline/Node.inl</text>
</a>
</g>
</g>
<!-- Node2&#45;&gt;Node12 -->
<g id="edge12" class="edge">
<title>Node2&#45;&gt;Node12</title>
<path fill="none" stroke="midnightblue" d="M307.82,-113.06C310.59,-112.7 313.32,-112.34 316,-112 442.52,-95.7 477.11,-96.03 607.31,-76.02"/>
<polygon fill="midnightblue" stroke="midnightblue" points="607.92,-79.47 617.26,-74.48 606.85,-72.55 607.92,-79.47"/>
</g>
<!-- Node10&#45;&gt;Node6 -->
<g id="edge11" class="edge">
<title>Node10&#45;&gt;Node6</title>
<path fill="none" stroke="midnightblue" d="M515.04,-56.44C475.36,-46.14 409.24,-28.98 370.63,-18.95"/>
<polygon fill="midnightblue" stroke="midnightblue" points="371.07,-15.45 360.51,-16.32 369.31,-22.23 371.07,-15.45"/>
</g>
<!-- Node11 -->
<g id="node11" class="node">
<title>Node11</title>
<g id="a_node11"><a xlink:title=" ">
<polygon fill="white" stroke="#bfbfbf" points="518.5,-0.5 518.5,-19.5 577.5,-19.5 577.5,-0.5 518.5,-0.5"/>
<text text-anchor="middle" x="548" y="-7.5" font-family="Helvetica,sans-Serif" font-size="10.00">exception</text>
</a>
</g>
</g>
<!-- Node10&#45;&gt;Node11 -->
<g id="edge10" class="edge">
<title>Node10&#45;&gt;Node11</title>
<path fill="none" stroke="midnightblue" d="M548,-56.08C548,-49.01 548,-38.86 548,-29.99"/>
<polygon fill="midnightblue" stroke="midnightblue" points="551.5,-29.75 548,-19.75 544.5,-29.75 551.5,-29.75"/>
</g>
</g>
</svg>
