<?xml version="1.0" encoding="UTF-8" standalone="no"?>
<!DOCTYPE svg PUBLIC "-//W3C//DTD SVG 1.1//EN"
 "http://www.w3.org/Graphics/SVG/1.1/DTD/svg11.dtd">
<!-- Generated by graphviz version 2.43.0 (0)
 -->
<!-- Title: /home/fola/code/Ark/include/Ark/Compiler/Common.hpp Pages: 1 -->
<svg width="287pt" height="106pt"
 viewBox="0.00 0.00 287.00 106.00" xmlns="http://www.w3.org/2000/svg" xmlns:xlink="http://www.w3.org/1999/xlink">
<g id="graph0" class="graph" transform="scale(1 1) rotate(0) translate(4 102)">
<title>/home/fola/code/Ark/include/Ark/Compiler/Common.hpp</title>
<polygon fill="white" stroke="transparent" points="-4,4 -4,-102 283,-102 283,4 -4,4"/>
<!-- Node1 -->
<g id="node1" class="node">
<title>Node1</title>
<g id="a_node1"><a xlink:title="Common code for the compiler.">
<polygon fill="#bfbfbf" stroke="black" points="75,-56.5 75,-97.5 197,-97.5 197,-56.5 75,-56.5"/>
<text text-anchor="start" x="83" y="-85.5" font-family="Helvetica,sans-Serif" font-size="10.00">/home/fola/code/Ark</text>
<text text-anchor="start" x="83" y="-74.5" font-family="Helvetica,sans-Serif" font-size="10.00">/include/Ark/Compiler</text>
<text text-anchor="middle" x="136" y="-63.5" font-family="Helvetica,sans-Serif" font-size="10.00">/Common.hpp</text>
</a>
</g>
</g>
<!-- Node2 -->
<g id="node2" class="node">
<title>Node2</title>
<g id="a_node2"><a xlink:title=" ">
<polygon fill="white" stroke="#bfbfbf" points="0,-0.5 0,-19.5 42,-19.5 42,-0.5 0,-0.5"/>
<text text-anchor="middle" x="21" y="-7.5" font-family="Helvetica,sans-Serif" font-size="10.00">array</text>
</a>
</g>
</g>
<!-- Node1&#45;&gt;Node2 -->
<g id="edge1" class="edge">
<title>Node1&#45;&gt;Node2</title>
<path fill="none" stroke="midnightblue" d="M101.5,-56.5C83.36,-46.24 61.56,-33.93 45.23,-24.69"/>
<polygon fill="midnightblue" stroke="midnightblue" points="46.74,-21.53 36.31,-19.65 43.29,-27.62 46.74,-21.53"/>
</g>
<!-- Node3 -->
<g id="node3" class="node">
<title>Node3</title>
<g id="a_node3"><a xlink:title=" ">
<polygon fill="white" stroke="#bfbfbf" points="60.5,-0.5 60.5,-19.5 133.5,-19.5 133.5,-0.5 60.5,-0.5"/>
<text text-anchor="middle" x="97" y="-7.5" font-family="Helvetica,sans-Serif" font-size="10.00">string_view</text>
</a>
</g>
</g>
<!-- Node1&#45;&gt;Node3 -->
<g id="edge2" class="edge">
<title>Node1&#45;&gt;Node3</title>
<path fill="none" stroke="midnightblue" d="M124.3,-56.5C118.95,-47.59 112.67,-37.11 107.48,-28.46"/>
<polygon fill="midnightblue" stroke="midnightblue" points="110.34,-26.43 102.19,-19.65 104.34,-30.03 110.34,-26.43"/>
</g>
<!-- Node4 -->
<g id="node4" class="node">
<title>Node4</title>
<g id="a_node4"><a xlink:title=" ">
<polygon fill="white" stroke="#bfbfbf" points="151.5,-0.5 151.5,-19.5 198.5,-19.5 198.5,-0.5 151.5,-0.5"/>
<text text-anchor="middle" x="175" y="-7.5" font-family="Helvetica,sans-Serif" font-size="10.00">vector</text>
</a>
</g>
</g>
<!-- Node1&#45;&gt;Node4 -->
<g id="edge3" class="edge">
<title>Node1&#45;&gt;Node4</title>
<path fill="none" stroke="midnightblue" d="M147.7,-56.5C153.05,-47.59 159.33,-37.11 164.52,-28.46"/>
<polygon fill="midnightblue" stroke="midnightblue" points="167.66,-30.03 169.81,-19.65 161.66,-26.43 167.66,-30.03"/>
</g>
<!-- Node5 -->
<g id="node5" class="node">
<title>Node5</title>
<g id="a_node5"><a xlink:title=" ">
<polygon fill="white" stroke="#bfbfbf" points="217,-0.5 217,-19.5 279,-19.5 279,-0.5 217,-0.5"/>
<text text-anchor="middle" x="248" y="-7.5" font-family="Helvetica,sans-Serif" font-size="10.00">cinttypes</text>
</a>
</g>
</g>
<!-- Node1&#45;&gt;Node5 -->
<g id="edge4" class="edge">
<title>Node1&#45;&gt;Node5</title>
<path fill="none" stroke="midnightblue" d="M169.6,-56.5C187.27,-46.24 208.5,-33.93 224.41,-24.69"/>
<polygon fill="midnightblue" stroke="midnightblue" points="226.2,-27.7 233.09,-19.65 222.69,-21.64 226.2,-27.7"/>
</g>
</g>
</svg>
