<?xml version="1.0" encoding="UTF-8" standalone="no"?>
<!DOCTYPE svg PUBLIC "-//W3C//DTD SVG 1.1//EN"
 "http://www.w3.org/Graphics/SVG/1.1/DTD/svg11.dtd">
<!-- Generated by graphviz version 10.0.1 (20240210.2158)
 -->
<!-- Title: /Users/fola/Documents/ArkScript/Ark/include/Ark/Compiler/AST/Node.hpp Pages: 1 -->
<svg width="1972pt" height="539pt"
 viewBox="0.00 0.00 1972.12 538.75" xmlns="http://www.w3.org/2000/svg" xmlns:xlink="http://www.w3.org/1999/xlink">
<g id="graph0" class="graph" transform="scale(1 1) rotate(0) translate(4 534.75)">
<title>/Users/fola/Documents/ArkScript/Ark/include/Ark/Compiler/AST/Node.hpp</title>
<!-- Node1 -->
<g id="node1" class="node">
<title>Node1</title>
<g id="a_node1"><a xlink:title="AST node used by the parser, optimizer and compiler.">
<polygon fill="#999999" stroke="#666666" points="954.72,-530.75 811.22,-530.75 811.22,-489 954.72,-489 954.72,-530.75"/>
<text text-anchor="start" x="819.22" y="-517.25" font-family="Helvetica,sans-Serif" font-size="10.00">/Users/fola/Documents</text>
<text text-anchor="start" x="819.22" y="-506" font-family="Helvetica,sans-Serif" font-size="10.00">/ArkScript/Ark/include</text>
<text text-anchor="middle" x="882.97" y="-494.75" font-family="Helvetica,sans-Serif" font-size="10.00">/Ark/Compiler/AST/Node.hpp</text>
</a>
</g>
</g>
<!-- Node2 -->
<g id="node2" class="node">
<title>Node2</title>
<g id="a_node2"><a xlink:href="../../d9/da7/Compiler_2AST_2Module_8hpp.html" target="_top" xlink:title=" ">
<polygon fill="white" stroke="#666666" points="183.84,-453 32.09,-453 32.09,-411.25 183.84,-411.25 183.84,-453"/>
<text text-anchor="start" x="40.09" y="-439.5" font-family="Helvetica,sans-Serif" font-size="10.00">/Users/fola/Documents</text>
<text text-anchor="start" x="40.09" y="-428.25" font-family="Helvetica,sans-Serif" font-size="10.00">/ArkScript/Ark/include</text>
<text text-anchor="middle" x="107.97" y="-417" font-family="Helvetica,sans-Serif" font-size="10.00">/Ark/Compiler/AST/Module.hpp</text>
</a>
</g>
</g>
<!-- Node1&#45;&gt;Node2 -->
<g id="edge1" class="edge">
<title>Node1&#45;&gt;Node2</title>
<path fill="none" stroke="#63b8ff" d="M799.74,-505.74C670.4,-500.04 413.58,-485.45 197.97,-453 193.38,-452.31 188.67,-451.52 183.94,-450.66"/>
<polygon fill="#63b8ff" stroke="#63b8ff" points="799.45,-509.23 809.59,-506.16 799.75,-502.23 799.45,-509.23"/>
</g>
<!-- Node3 -->
<g id="node3" class="node">
<title>Node3</title>
<g id="a_node3"><a xlink:href="../../d1/db0/ImportSolver_8hpp.html" target="_top" xlink:title=" ">
<polygon fill="white" stroke="#666666" points="188.22,-369.62 35.72,-369.62 35.72,-327.88 188.22,-327.88 188.22,-369.62"/>
<text text-anchor="start" x="43.72" y="-356.12" font-family="Helvetica,sans-Serif" font-size="10.00">/Users/fola/Documents</text>
<text text-anchor="start" x="43.72" y="-344.88" font-family="Helvetica,sans-Serif" font-size="10.00">/ArkScript/Ark/include</text>
<text text-anchor="middle" x="111.97" y="-333.62" font-family="Helvetica,sans-Serif" font-size="10.00">/Ark/Compiler/ImportSolver.hpp</text>
</a>
</g>
</g>
<!-- Node1&#45;&gt;Node3 -->
<g id="edge25" class="edge">
<title>Node1&#45;&gt;Node3</title>
<path fill="none" stroke="#63b8ff" d="M799.59,-509.2C646.83,-508.59 328.78,-501.33 230.97,-453 208.47,-441.88 211.48,-428.18 192.97,-411.25 176.68,-396.35 156.99,-381.34 141.1,-369.88"/>
<polygon fill="#63b8ff" stroke="#63b8ff" points="799.22,-512.7 809.23,-509.23 799.24,-505.7 799.22,-512.7"/>
</g>
<!-- Node4 -->
<g id="node4" class="node">
<title>Node4</title>
<g id="a_node4"><a xlink:href="../../de/d8e/Welder_8hpp.html" target="_top" xlink:title="In charge of welding everything needed to compile code.">
<polygon fill="white" stroke="#666666" points="484.47,-197.25 357.47,-197.25 357.47,-155.5 484.47,-155.5 484.47,-197.25"/>
<text text-anchor="start" x="365.47" y="-183.75" font-family="Helvetica,sans-Serif" font-size="10.00">/Users/fola/Documents</text>
<text text-anchor="start" x="365.47" y="-172.5" font-family="Helvetica,sans-Serif" font-size="10.00">/ArkScript/Ark/include</text>
<text text-anchor="middle" x="420.97" y="-161.25" font-family="Helvetica,sans-Serif" font-size="10.00">/Ark/Compiler/Welder.hpp</text>
</a>
</g>
</g>
<!-- Node1&#45;&gt;Node4 -->
<g id="edge54" class="edge">
<title>Node1&#45;&gt;Node4</title>
<path fill="none" stroke="#63b8ff" d="M799.8,-495.92C683.68,-475.93 482.41,-433.66 439.97,-375.25 400.81,-321.37 409.9,-236.26 416.74,-197.64"/>
<polygon fill="#63b8ff" stroke="#63b8ff" points="799.17,-499.37 809.61,-497.59 800.34,-492.46 799.17,-499.37"/>
</g>
<!-- Node5 -->
<g id="node5" class="node">
<title>Node5</title>
<g id="a_node5"><a xlink:href="../../dc/dfd/JsonCompiler_8hpp.html" target="_top" xlink:title=" ">
<polygon fill="white" stroke="#666666" points="301.59,-119.5 184.34,-119.5 184.34,-77.75 301.59,-77.75 301.59,-119.5"/>
<text text-anchor="start" x="192.34" y="-106" font-family="Helvetica,sans-Serif" font-size="10.00">/Users/fola/Documents</text>
<text text-anchor="start" x="192.34" y="-94.75" font-family="Helvetica,sans-Serif" font-size="10.00">/ArkScript/Ark/include</text>
<text text-anchor="middle" x="242.97" y="-83.5" font-family="Helvetica,sans-Serif" font-size="10.00">/CLI/JsonCompiler.hpp</text>
</a>
</g>
</g>
<!-- Node1&#45;&gt;Node5 -->
<g id="edge55" class="edge">
<title>Node1&#45;&gt;Node5</title>
<path fill="none" stroke="#63b8ff" d="M799.52,-509.17C594.8,-509.11 80.13,-503.83 22.97,-453 -11.9,-421.99 3.97,-396.41 3.97,-349.75 3.97,-349.75 3.97,-349.75 3.97,-258.75 3.97,-172.51 113.11,-130.16 183.89,-111.76"/>
<polygon fill="#63b8ff" stroke="#63b8ff" points="799.28,-512.67 809.28,-509.17 799.28,-505.67 799.28,-512.67"/>
</g>
<!-- Node11 -->
<g id="node11" class="node">
<title>Node11</title>
<g id="a_node11"><a xlink:href="../../db/d93/Optimizer_8hpp.html" target="_top" xlink:title="Optimizes a given ArkScript AST.">
<polygon fill="white" stroke="#666666" points="401.72,-453 240.22,-453 240.22,-411.25 401.72,-411.25 401.72,-453"/>
<text text-anchor="start" x="248.22" y="-439.5" font-family="Helvetica,sans-Serif" font-size="10.00">/Users/fola/Documents</text>
<text text-anchor="start" x="248.22" y="-428.25" font-family="Helvetica,sans-Serif" font-size="10.00">/ArkScript/Ark/include</text>
<text text-anchor="middle" x="320.97" y="-417" font-family="Helvetica,sans-Serif" font-size="10.00">/Ark/Compiler/AST/Optimizer.hpp</text>
</a>
</g>
</g>
<!-- Node1&#45;&gt;Node11 -->
<g id="edge10" class="edge">
<title>Node1&#45;&gt;Node11</title>
<path fill="none" stroke="#63b8ff" d="M799.71,-501.12C706.06,-491.89 549.59,-474.93 415.97,-453 411.39,-452.25 406.71,-451.43 401.98,-450.57"/>
<polygon fill="#63b8ff" stroke="#63b8ff" points="799.29,-504.6 809.58,-502.09 799.97,-497.63 799.29,-504.6"/>
</g>
<!-- Node13 -->
<g id="node13" class="node">
<title>Node13</title>
<g id="a_node13"><a xlink:href="../../d7/ddd/Parser_8hpp.html" target="_top" xlink:title="Parse ArkScript code, but do not handle any import declarations.">
<polygon fill="white" stroke="#666666" points="596.97,-369.62 448.97,-369.62 448.97,-327.88 596.97,-327.88 596.97,-369.62"/>
<text text-anchor="start" x="456.97" y="-356.12" font-family="Helvetica,sans-Serif" font-size="10.00">/Users/fola/Documents</text>
<text text-anchor="start" x="456.97" y="-344.88" font-family="Helvetica,sans-Serif" font-size="10.00">/ArkScript/Ark/include</text>
<text text-anchor="middle" x="522.97" y="-333.62" font-family="Helvetica,sans-Serif" font-size="10.00">/Ark/Compiler/AST/Parser.hpp</text>
</a>
</g>
</g>
<!-- Node1&#45;&gt;Node13 -->
<g id="edge13" class="edge">
<title>Node1&#45;&gt;Node13</title>
<path fill="none" stroke="#63b8ff" d="M800.18,-486.63C770.02,-477.52 735.98,-466.03 705.97,-453 650.42,-428.88 589.97,-392.62 554.32,-370.12"/>
<polygon fill="#63b8ff" stroke="#63b8ff" points="799.07,-489.95 809.66,-489.45 801.07,-483.24 799.07,-489.95"/>
</g>
<!-- Node17 -->
<g id="node17" class="node">
<title>Node17</title>
<g id="a_node17"><a xlink:href="../../d8/d0f/Compiler_8hpp.html" target="_top" xlink:title="ArkScript compiler is in charge of transforming the AST into bytecode.">
<polygon fill="white" stroke="#666666" points="750.97,-369.62 614.97,-369.62 614.97,-327.88 750.97,-327.88 750.97,-369.62"/>
<text text-anchor="start" x="622.97" y="-356.12" font-family="Helvetica,sans-Serif" font-size="10.00">/Users/fola/Documents</text>
<text text-anchor="start" x="622.97" y="-344.88" font-family="Helvetica,sans-Serif" font-size="10.00">/ArkScript/Ark/include</text>
<text text-anchor="middle" x="682.97" y="-333.62" font-family="Helvetica,sans-Serif" font-size="10.00">/Ark/Compiler/Compiler.hpp</text>
</a>
</g>
</g>
<!-- Node1&#45;&gt;Node17 -->
<g id="edge20" class="edge">
<title>Node1&#45;&gt;Node17</title>
<path fill="none" stroke="#63b8ff" d="M800.43,-486.39C780.13,-478.17 759.5,-467.27 742.97,-453 716.6,-430.24 699,-392.89 690.02,-369.9"/>
<polygon fill="#63b8ff" stroke="#63b8ff" points="798.99,-489.59 809.58,-489.9 801.5,-483.05 798.99,-489.59"/>
</g>
<!-- Node21 -->
<g id="node21" class="node">
<title>Node21</title>
<g id="a_node21"><a xlink:href="../../d4/d1a/Executor_8hpp.html" target="_top" xlink:title="The base class for all MacroExecutors.">
<polygon fill="white" stroke="#666666" points="1412.59,-453 1241.34,-453 1241.34,-411.25 1412.59,-411.25 1412.59,-453"/>
<text text-anchor="start" x="1249.34" y="-439.5" font-family="Helvetica,sans-Serif" font-size="10.00">/Users/fola/Documents</text>
<text text-anchor="start" x="1249.34" y="-428.25" font-family="Helvetica,sans-Serif" font-size="10.00">/ArkScript/Ark/include</text>
<text text-anchor="middle" x="1326.97" y="-417" font-family="Helvetica,sans-Serif" font-size="10.00">/Ark/Compiler/Macros/Executor.hpp</text>
</a>
</g>
</g>
<!-- Node1&#45;&gt;Node21 -->
<g id="edge26" class="edge">
<title>Node1&#45;&gt;Node21</title>
<path fill="none" stroke="#63b8ff" d="M966.09,-494.69C1044.59,-481.3 1161.8,-461.3 1241.17,-447.76"/>
<polygon fill="#63b8ff" stroke="#63b8ff" points="965.56,-491.23 956.29,-496.37 966.73,-498.13 965.56,-491.23"/>
</g>
<!-- Node22 -->
<g id="node22" class="node">
<title>Node22</title>
<g id="a_node22"><a xlink:href="../../da/dc2/Conditional_8hpp.html" target="_top" xlink:title="Executor for Conditional Macros.">
<polygon fill="white" stroke="#666666" points="1573.22,-375.25 1414.72,-375.25 1414.72,-322.25 1573.22,-322.25 1573.22,-375.25"/>
<text text-anchor="start" x="1422.72" y="-361.75" font-family="Helvetica,sans-Serif" font-size="10.00">/Users/fola/Documents</text>
<text text-anchor="start" x="1422.72" y="-350.5" font-family="Helvetica,sans-Serif" font-size="10.00">/ArkScript/Ark/include</text>
<text text-anchor="start" x="1422.72" y="-339.25" font-family="Helvetica,sans-Serif" font-size="10.00">/Ark/Compiler/Macros/Executors</text>
<text text-anchor="middle" x="1493.97" y="-328" font-family="Helvetica,sans-Serif" font-size="10.00">/Conditional.hpp</text>
</a>
</g>
</g>
<!-- Node1&#45;&gt;Node22 -->
<g id="edge44" class="edge">
<title>Node1&#45;&gt;Node22</title>
<path fill="none" stroke="#63b8ff" d="M966.31,-508.57C1097.97,-506.72 1346.86,-497.27 1421.97,-453 1451.9,-435.36 1472.43,-399.8 1483.68,-375.39"/>
<polygon fill="#63b8ff" stroke="#63b8ff" points="966.57,-505.07 956.61,-508.7 966.66,-512.07 966.57,-505.07"/>
</g>
<!-- Node25 -->
<g id="node25" class="node">
<title>Node25</title>
<g id="a_node25"><a xlink:href="../../d4/d59/Function_8hpp.html" target="_top" xlink:title="Executor for List Macros.">
<polygon fill="white" stroke="#666666" points="1942.22,-375.25 1783.72,-375.25 1783.72,-322.25 1942.22,-322.25 1942.22,-375.25"/>
<text text-anchor="start" x="1791.72" y="-361.75" font-family="Helvetica,sans-Serif" font-size="10.00">/Users/fola/Documents</text>
<text text-anchor="start" x="1791.72" y="-350.5" font-family="Helvetica,sans-Serif" font-size="10.00">/ArkScript/Ark/include</text>
<text text-anchor="start" x="1791.72" y="-339.25" font-family="Helvetica,sans-Serif" font-size="10.00">/Ark/Compiler/Macros/Executors</text>
<text text-anchor="middle" x="1862.97" y="-328" font-family="Helvetica,sans-Serif" font-size="10.00">/Function.hpp</text>
</a>
</g>
</g>
<!-- Node1&#45;&gt;Node25 -->
<g id="edge45" class="edge">
<title>Node1&#45;&gt;Node25</title>
<path fill="none" stroke="#63b8ff" d="M966.55,-508.04C1111.18,-505.49 1401.42,-495.09 1492.97,-453 1517.17,-441.87 1512.16,-423.2 1535.97,-411.25 1625.69,-366.2 1660.58,-395.22 1758.97,-375.25 1766.89,-373.64 1775.13,-371.84 1783.34,-369.97"/>
<polygon fill="#63b8ff" stroke="#63b8ff" points="966.58,-504.54 956.64,-508.21 966.7,-511.54 966.58,-504.54"/>
</g>
<!-- Node27 -->
<g id="node27" class="node">
<title>Node27</title>
<g id="a_node27"><a xlink:href="../../dc/dce/Symbol_8hpp.html" target="_top" xlink:title="Executor for Symbol Macros.">
<polygon fill="white" stroke="#666666" points="1750.22,-375.25 1591.72,-375.25 1591.72,-322.25 1750.22,-322.25 1750.22,-375.25"/>
<text text-anchor="start" x="1599.72" y="-361.75" font-family="Helvetica,sans-Serif" font-size="10.00">/Users/fola/Documents</text>
<text text-anchor="start" x="1599.72" y="-350.5" font-family="Helvetica,sans-Serif" font-size="10.00">/ArkScript/Ark/include</text>
<text text-anchor="start" x="1599.72" y="-339.25" font-family="Helvetica,sans-Serif" font-size="10.00">/Ark/Compiler/Macros/Executors</text>
<text text-anchor="middle" x="1670.97" y="-328" font-family="Helvetica,sans-Serif" font-size="10.00">/Symbol.hpp</text>
</a>
</g>
</g>
<!-- Node1&#45;&gt;Node27 -->
<g id="edge46" class="edge">
<title>Node1&#45;&gt;Node27</title>
<path fill="none" stroke="#63b8ff" d="M966.22,-507.05C1103.38,-503.01 1370.22,-490.45 1455.97,-453 1481.57,-441.82 1478.98,-425.58 1502.97,-411.25 1530.16,-395 1562.36,-381.94 1591.25,-372.1"/>
<polygon fill="#63b8ff" stroke="#63b8ff" points="966.38,-503.55 956.48,-507.33 966.58,-510.54 966.38,-503.55"/>
</g>
<!-- Node30 -->
<g id="node30" class="node">
<title>Node30</title>
<g id="a_node30"><a xlink:href="../../de/db1/Processor_8hpp.html" target="_top" xlink:title="Handles the macros and their expansion in ArkScript source code.">
<polygon fill="white" stroke="#666666" points="1184.22,-280.62 1007.72,-280.62 1007.72,-238.88 1184.22,-238.88 1184.22,-280.62"/>
<text text-anchor="start" x="1015.72" y="-267.12" font-family="Helvetica,sans-Serif" font-size="10.00">/Users/fola/Documents</text>
<text text-anchor="start" x="1015.72" y="-255.88" font-family="Helvetica,sans-Serif" font-size="10.00">/ArkScript/Ark/include</text>
<text text-anchor="middle" x="1095.97" y="-244.62" font-family="Helvetica,sans-Serif" font-size="10.00">/Ark/Compiler/Macros/Processor.hpp</text>
</a>
</g>
</g>
<!-- Node1&#45;&gt;Node30 -->
<g id="edge50" class="edge">
<title>Node1&#45;&gt;Node30</title>
<path fill="none" stroke="#63b8ff" d="M903.7,-479.16C908.84,-470.94 914.01,-461.84 917.97,-453 942.71,-397.77 916.07,-367.75 955.97,-322.25 972.33,-303.59 995.42,-290.35 1018.13,-281.07"/>
<polygon fill="#63b8ff" stroke="#63b8ff" points="900.86,-477.11 898.35,-487.41 906.73,-480.92 900.86,-477.11"/>
</g>
<!-- Node33 -->
<g id="node33" class="node">
<title>Node33</title>
<g id="a_node33"><a xlink:href="../../d7/dfb/MacroScope_8hpp.html" target="_top" xlink:title="Defines tools to handle macro definitions.">
<polygon fill="white" stroke="#666666" points="1152.84,-453 965.09,-453 965.09,-411.25 1152.84,-411.25 1152.84,-453"/>
<text text-anchor="start" x="973.09" y="-439.5" font-family="Helvetica,sans-Serif" font-size="10.00">/Users/fola/Documents</text>
<text text-anchor="start" x="973.09" y="-428.25" font-family="Helvetica,sans-Serif" font-size="10.00">/ArkScript/Ark/include</text>
<text text-anchor="middle" x="1058.97" y="-417" font-family="Helvetica,sans-Serif" font-size="10.00">/Ark/Compiler/Macros/MacroScope.hpp</text>
</a>
</g>
</g>
<!-- Node1&#45;&gt;Node33 -->
<g id="edge47" class="edge">
<title>Node1&#45;&gt;Node33</title>
<path fill="none" stroke="#63b8ff" d="M940.47,-484.13C963.52,-474.2 989.76,-462.91 1011.67,-453.48"/>
<polygon fill="#63b8ff" stroke="#63b8ff" points="939.32,-480.81 931.52,-487.98 942.09,-487.24 939.32,-480.81"/>
</g>
<!-- Node35 -->
<g id="node35" class="node">
<title>Node35</title>
<g id="a_node35"><a xlink:href="../../dd/de7/ValTableElem_8hpp.html" target="_top" xlink:title="The basic value type handled by the compiler.">
<polygon fill="white" stroke="#666666" points="908.47,-453 751.47,-453 751.47,-411.25 908.47,-411.25 908.47,-453"/>
<text text-anchor="start" x="759.47" y="-439.5" font-family="Helvetica,sans-Serif" font-size="10.00">/Users/fola/Documents</text>
<text text-anchor="start" x="759.47" y="-428.25" font-family="Helvetica,sans-Serif" font-size="10.00">/ArkScript/Ark/include</text>
<text text-anchor="middle" x="829.97" y="-417" font-family="Helvetica,sans-Serif" font-size="10.00">/Ark/Compiler/ValTableElem.hpp</text>
</a>
</g>
</g>
<!-- Node1&#45;&gt;Node35 -->
<g id="edge51" class="edge">
<title>Node1&#45;&gt;Node35</title>
<path fill="none" stroke="#63b8ff" d="M862.21,-479.2C856.18,-470.59 849.74,-461.38 844.21,-453.48"/>
<polygon fill="#63b8ff" stroke="#63b8ff" points="859.3,-481.15 867.9,-487.34 865.03,-477.14 859.3,-481.15"/>
</g>
<!-- Node37 -->
<g id="node37" class="node">
<title>Node37</title>
<g id="a_node37"><a xlink:href="../../dc/d73/Node_8cpp.html" target="_top" xlink:title=" ">
<polygon fill="white" stroke="#666666" points="1685.22,-453 1544.72,-453 1544.72,-411.25 1685.22,-411.25 1685.22,-453"/>
<text text-anchor="start" x="1552.72" y="-439.5" font-family="Helvetica,sans-Serif" font-size="10.00">/Users/fola/Documents</text>
<text text-anchor="start" x="1552.72" y="-428.25" font-family="Helvetica,sans-Serif" font-size="10.00">/ArkScript/Ark/src/arkreactor</text>
<text text-anchor="middle" x="1614.97" y="-417" font-family="Helvetica,sans-Serif" font-size="10.00">/Compiler/AST/Node.cpp</text>
</a>
</g>
</g>
<!-- Node1&#45;&gt;Node37 -->
<g id="edge56" class="edge">
<title>Node1&#45;&gt;Node37</title>
<path fill="none" stroke="#63b8ff" d="M966.07,-505.6C1089.83,-499.85 1329.6,-485.33 1530.97,-453 1535.41,-452.29 1539.96,-451.47 1544.54,-450.58"/>
<polygon fill="#63b8ff" stroke="#63b8ff" points="966.16,-502.09 956.33,-506.05 966.48,-509.09 966.16,-502.09"/>
</g>
<!-- Node38 -->
<g id="node38" class="node">
<title>Node38</title>
<g id="a_node38"><a xlink:href="../../d6/dd1/Exceptions_8cpp.html" target="_top" xlink:title=" ">
<polygon fill="white" stroke="#666666" points="1844.22,-453 1703.72,-453 1703.72,-411.25 1844.22,-411.25 1844.22,-453"/>
<text text-anchor="start" x="1711.72" y="-439.5" font-family="Helvetica,sans-Serif" font-size="10.00">/Users/fola/Documents</text>
<text text-anchor="start" x="1711.72" y="-428.25" font-family="Helvetica,sans-Serif" font-size="10.00">/ArkScript/Ark/src/arkreactor</text>
<text text-anchor="middle" x="1773.97" y="-417" font-family="Helvetica,sans-Serif" font-size="10.00">/Exceptions.cpp</text>
</a>
</g>
</g>
<!-- Node1&#45;&gt;Node38 -->
<g id="edge57" class="edge">
<title>Node1&#45;&gt;Node38</title>
<path fill="none" stroke="#63b8ff" d="M966.22,-507.92C1113.75,-505.18 1430.37,-494.5 1693.97,-453 1697.08,-452.51 1700.24,-451.96 1703.43,-451.36"/>
<polygon fill="#63b8ff" stroke="#63b8ff" points="966.49,-504.42 956.55,-508.1 966.61,-511.42 966.49,-504.42"/>
</g>
<!-- Node2&#45;&gt;Node3 -->
<g id="edge2" class="edge">
<title>Node2&#45;&gt;Node3</title>
<path fill="none" stroke="#63b8ff" d="M109.51,-399.77C110,-389.74 110.53,-378.92 110.98,-369.92"/>
<polygon fill="#63b8ff" stroke="#63b8ff" points="106.03,-399.34 109.03,-409.5 113.02,-399.68 106.03,-399.34"/>
</g>
<!-- Node3&#45;&gt;Node4 -->
<g id="edge3" class="edge">
<title>Node3&#45;&gt;Node4</title>
<path fill="none" stroke="#63b8ff" d="M83.31,-319.32C61.74,-294.48 39.31,-258.53 60.97,-233.25 98.36,-189.6 264.12,-179.77 357.12,-177.73"/>
<polygon fill="#63b8ff" stroke="#63b8ff" points="80.5,-321.43 89.81,-326.49 85.68,-316.73 80.5,-321.43"/>
</g>
<!-- Node10 -->
<g id="node10" class="node">
<title>Node10</title>
<g id="a_node10"><a xlink:href="../../d6/d41/ImportSolver_8cpp.html" target="_top" xlink:title=" ">
<polygon fill="white" stroke="#666666" points="210.22,-280.62 69.72,-280.62 69.72,-238.88 210.22,-238.88 210.22,-280.62"/>
<text text-anchor="start" x="77.72" y="-267.12" font-family="Helvetica,sans-Serif" font-size="10.00">/Users/fola/Documents</text>
<text text-anchor="start" x="77.72" y="-255.88" font-family="Helvetica,sans-Serif" font-size="10.00">/ArkScript/Ark/src/arkreactor</text>
<text text-anchor="middle" x="139.97" y="-244.62" font-family="Helvetica,sans-Serif" font-size="10.00">/Compiler/ImportSolver.cpp</text>
</a>
</g>
</g>
<!-- Node3&#45;&gt;Node10 -->
<g id="edge9" class="edge">
<title>Node3&#45;&gt;Node10</title>
<path fill="none" stroke="#63b8ff" d="M121.94,-316.76C125.75,-304.92 130,-291.73 133.41,-281.12"/>
<polygon fill="#63b8ff" stroke="#63b8ff" points="118.66,-315.54 118.92,-326.13 125.32,-317.68 118.66,-315.54"/>
</g>
<!-- Node4&#45;&gt;Node5 -->
<g id="edge4" class="edge">
<title>Node4&#45;&gt;Node5</title>
<path fill="none" stroke="#63b8ff" d="M362.81,-150.63C339.5,-140.7 312.96,-129.41 290.8,-119.98"/>
<polygon fill="#63b8ff" stroke="#63b8ff" points="361.3,-153.79 371.87,-154.48 364.04,-147.35 361.3,-153.79"/>
</g>
<!-- Node8 -->
<g id="node8" class="node">
<title>Node8</title>
<g id="a_node8"><a xlink:href="../../d3/df1/Welder_8cpp.html" target="_top" xlink:title=" ">
<polygon fill="white" stroke="#666666" points="460.22,-119.5 319.72,-119.5 319.72,-77.75 460.22,-77.75 460.22,-119.5"/>
<text text-anchor="start" x="327.72" y="-106" font-family="Helvetica,sans-Serif" font-size="10.00">/Users/fola/Documents</text>
<text text-anchor="start" x="327.72" y="-94.75" font-family="Helvetica,sans-Serif" font-size="10.00">/ArkScript/Ark/src/arkreactor</text>
<text text-anchor="middle" x="389.97" y="-83.5" font-family="Helvetica,sans-Serif" font-size="10.00">/Compiler/Welder.cpp</text>
</a>
</g>
</g>
<!-- Node4&#45;&gt;Node8 -->
<g id="edge7" class="edge">
<title>Node4&#45;&gt;Node8</title>
<path fill="none" stroke="#63b8ff" d="M408.37,-144.59C404.98,-136.3 401.39,-127.54 398.3,-119.98"/>
<polygon fill="#63b8ff" stroke="#63b8ff" points="405.06,-145.75 412.09,-153.67 411.54,-143.09 405.06,-145.75"/>
</g>
<!-- Node9 -->
<g id="node9" class="node">
<title>Node9</title>
<g id="a_node9"><a xlink:href="../../d0/da0/State_8cpp.html" target="_top" xlink:title=" ">
<polygon fill="white" stroke="#666666" points="619.22,-119.5 478.72,-119.5 478.72,-77.75 619.22,-77.75 619.22,-119.5"/>
<text text-anchor="start" x="486.72" y="-106" font-family="Helvetica,sans-Serif" font-size="10.00">/Users/fola/Documents</text>
<text text-anchor="start" x="486.72" y="-94.75" font-family="Helvetica,sans-Serif" font-size="10.00">/ArkScript/Ark/src/arkreactor</text>
<text text-anchor="middle" x="548.97" y="-83.5" font-family="Helvetica,sans-Serif" font-size="10.00">/VM/State.cpp</text>
</a>
</g>
</g>
<!-- Node4&#45;&gt;Node9 -->
<g id="edge8" class="edge">
<title>Node4&#45;&gt;Node9</title>
<path fill="none" stroke="#63b8ff" d="M465.07,-149.28C481.26,-139.69 499.35,-128.99 514.57,-119.98"/>
<polygon fill="#63b8ff" stroke="#63b8ff" points="463.39,-146.2 456.57,-154.3 466.96,-152.22 463.39,-146.2"/>
</g>
<!-- Node6 -->
<g id="node6" class="node">
<title>Node6</title>
<g id="a_node6"><a xlink:href="../../db/d71/JsonCompiler_8cpp.html" target="_top" xlink:title=" ">
<polygon fill="white" stroke="#666666" points="310.22,-41.75 175.72,-41.75 175.72,0 310.22,0 310.22,-41.75"/>
<text text-anchor="start" x="183.72" y="-28.25" font-family="Helvetica,sans-Serif" font-size="10.00">/Users/fola/Documents</text>
<text text-anchor="start" x="183.72" y="-17" font-family="Helvetica,sans-Serif" font-size="10.00">/ArkScript/Ark/src/arkscript</text>
<text text-anchor="middle" x="242.97" y="-5.75" font-family="Helvetica,sans-Serif" font-size="10.00">/JsonCompiler.cpp</text>
</a>
</g>
</g>
<!-- Node5&#45;&gt;Node6 -->
<g id="edge5" class="edge">
<title>Node5&#45;&gt;Node6</title>
<path fill="none" stroke="#63b8ff" d="M242.97,-66C242.97,-57.96 242.97,-49.54 242.97,-42.23"/>
<polygon fill="#63b8ff" stroke="#63b8ff" points="239.47,-65.81 242.97,-75.81 246.47,-65.81 239.47,-65.81"/>
</g>
<!-- Node7 -->
<g id="node7" class="node">
<title>Node7</title>
<g id="a_node7"><a xlink:href="../../df/d0a/main_8cpp.html" target="_top" xlink:title=" ">
<polygon fill="white" stroke="#666666" points="588.22,-41.75 453.72,-41.75 453.72,0 588.22,0 588.22,-41.75"/>
<text text-anchor="start" x="461.72" y="-28.25" font-family="Helvetica,sans-Serif" font-size="10.00">/Users/fola/Documents</text>
<text text-anchor="start" x="461.72" y="-17" font-family="Helvetica,sans-Serif" font-size="10.00">/ArkScript/Ark/src/arkscript</text>
<text text-anchor="middle" x="520.97" y="-5.75" font-family="Helvetica,sans-Serif" font-size="10.00">/main.cpp</text>
</a>
</g>
</g>
<!-- Node5&#45;&gt;Node7 -->
<g id="edge6" class="edge">
<title>Node5&#45;&gt;Node7</title>
<path fill="none" stroke="#63b8ff" d="M312.8,-77.27C365.25,-62.69 414.69,-49.56 453.23,-39.45"/>
<polygon fill="#63b8ff" stroke="#63b8ff" points="312.06,-73.84 303.37,-79.89 313.94,-80.58 312.06,-73.84"/>
</g>
<!-- Node11&#45;&gt;Node4 -->
<g id="edge11" class="edge">
<title>Node11&#45;&gt;Node4</title>
<path fill="none" stroke="#63b8ff" d="M266.33,-404.32C255.74,-396.48 246.05,-386.83 239.97,-375.25 229.02,-354.39 229.77,-343.48 239.97,-322.25 268.29,-263.3 333.59,-220.81 377.51,-197.64"/>
<polygon fill="#63b8ff" stroke="#63b8ff" points="264.32,-407.19 274.56,-409.9 268.25,-401.39 264.32,-407.19"/>
</g>
<!-- Node12 -->
<g id="node12" class="node">
<title>Node12</title>
<g id="a_node12"><a xlink:href="../../d2/dc5/Optimizer_8cpp.html" target="_top" xlink:title=" ">
<polygon fill="white" stroke="#666666" points="392.72,-369.62 249.22,-369.62 249.22,-327.88 392.72,-327.88 392.72,-369.62"/>
<text text-anchor="start" x="257.22" y="-356.12" font-family="Helvetica,sans-Serif" font-size="10.00">/Users/fola/Documents</text>
<text text-anchor="start" x="257.22" y="-344.88" font-family="Helvetica,sans-Serif" font-size="10.00">/ArkScript/Ark/src/arkreactor</text>
<text text-anchor="middle" x="320.97" y="-333.62" font-family="Helvetica,sans-Serif" font-size="10.00">/Compiler/AST/Optimizer.cpp</text>
</a>
</g>
</g>
<!-- Node11&#45;&gt;Node12 -->
<g id="edge12" class="edge">
<title>Node11&#45;&gt;Node12</title>
<path fill="none" stroke="#63b8ff" d="M320.97,-399.77C320.97,-389.74 320.97,-378.92 320.97,-369.92"/>
<polygon fill="#63b8ff" stroke="#63b8ff" points="317.47,-399.5 320.97,-409.5 324.47,-399.5 317.47,-399.5"/>
</g>
<!-- Node13&#45;&gt;Node4 -->
<g id="edge14" class="edge">
<title>Node13&#45;&gt;Node4</title>
<path fill="none" stroke="#63b8ff" d="M568.79,-320.75C580.48,-311.42 591.54,-299.83 597.97,-286.25 608.04,-264.96 611.89,-252.25 597.97,-233.25 572.15,-198.03 524.08,-184.44 484.54,-179.45"/>
<polygon fill="#63b8ff" stroke="#63b8ff" points="566.95,-317.76 561.02,-326.54 571.13,-323.38 566.95,-317.76"/>
</g>
<!-- Node13&#45;&gt;Node10 -->
<g id="edge19" class="edge">
<title>Node13&#45;&gt;Node10</title>
<path fill="none" stroke="#63b8ff" d="M437.51,-328.34C369.19,-312.82 274.56,-291.32 210.5,-276.77"/>
<polygon fill="#63b8ff" stroke="#63b8ff" points="436.66,-331.73 447.19,-330.54 438.21,-324.91 436.66,-331.73"/>
</g>
<!-- Node14 -->
<g id="node14" class="node">
<title>Node14</title>
<g id="a_node14"><a xlink:href="../../d9/d2e/Formatter_8hpp.html" target="_top" xlink:title=" ">
<polygon fill="white" stroke="#666666" points="800.59,-280.62 683.34,-280.62 683.34,-238.88 800.59,-238.88 800.59,-280.62"/>
<text text-anchor="start" x="691.34" y="-267.12" font-family="Helvetica,sans-Serif" font-size="10.00">/Users/fola/Documents</text>
<text text-anchor="start" x="691.34" y="-255.88" font-family="Helvetica,sans-Serif" font-size="10.00">/ArkScript/Ark/include</text>
<text text-anchor="middle" x="741.97" y="-244.62" font-family="Helvetica,sans-Serif" font-size="10.00">/CLI/Formatter.hpp</text>
</a>
</g>
</g>
<!-- Node13&#45;&gt;Node14 -->
<g id="edge15" class="edge">
<title>Node13&#45;&gt;Node14</title>
<path fill="none" stroke="#63b8ff" d="M584.63,-323.25C618.14,-309.94 659.1,-293.67 690.82,-281.07"/>
<polygon fill="#63b8ff" stroke="#63b8ff" points="583.44,-319.96 575.44,-326.9 586.03,-326.46 583.44,-319.96"/>
</g>
<!-- Node16 -->
<g id="node16" class="node">
<title>Node16</title>
<g id="a_node16"><a xlink:href="../../dc/df5/Parser_8cpp.html" target="_top" xlink:title=" ">
<polygon fill="white" stroke="#666666" points="589.22,-280.62 448.72,-280.62 448.72,-238.88 589.22,-238.88 589.22,-280.62"/>
<text text-anchor="start" x="456.72" y="-267.12" font-family="Helvetica,sans-Serif" font-size="10.00">/Users/fola/Documents</text>
<text text-anchor="start" x="456.72" y="-255.88" font-family="Helvetica,sans-Serif" font-size="10.00">/ArkScript/Ark/src/arkreactor</text>
<text text-anchor="middle" x="518.97" y="-244.62" font-family="Helvetica,sans-Serif" font-size="10.00">/Compiler/AST/Parser.cpp</text>
</a>
</g>
</g>
<!-- Node13&#45;&gt;Node16 -->
<g id="edge18" class="edge">
<title>Node13&#45;&gt;Node16</title>
<path fill="none" stroke="#63b8ff" d="M521.53,-316.39C520.99,-304.65 520.39,-291.62 519.9,-281.12"/>
<polygon fill="#63b8ff" stroke="#63b8ff" points="518.01,-316.23 521.97,-326.06 525.01,-315.91 518.01,-316.23"/>
</g>
<!-- Node14&#45;&gt;Node7 -->
<g id="edge17" class="edge">
<title>Node14&#45;&gt;Node7</title>
<path fill="none" stroke="#63b8ff" d="M700.05,-231.91C687.64,-222.25 674.98,-210.45 665.97,-197.25 634.54,-151.23 663.82,-120.42 627.97,-77.75 615.09,-62.43 596.93,-50.76 579.22,-42.15"/>
<polygon fill="#63b8ff" stroke="#63b8ff" points="697.66,-234.49 707.77,-237.65 701.83,-228.87 697.66,-234.49"/>
</g>
<!-- Node15 -->
<g id="node15" class="node">
<title>Node15</title>
<g id="a_node15"><a xlink:href="../../d2/d56/Formatter_8cpp.html" target="_top" xlink:title=" ">
<polygon fill="white" stroke="#666666" points="809.22,-197.25 674.72,-197.25 674.72,-155.5 809.22,-155.5 809.22,-197.25"/>
<text text-anchor="start" x="682.72" y="-183.75" font-family="Helvetica,sans-Serif" font-size="10.00">/Users/fola/Documents</text>
<text text-anchor="start" x="682.72" y="-172.5" font-family="Helvetica,sans-Serif" font-size="10.00">/ArkScript/Ark/src/arkscript</text>
<text text-anchor="middle" x="741.97" y="-161.25" font-family="Helvetica,sans-Serif" font-size="10.00">/Formatter.cpp</text>
</a>
</g>
</g>
<!-- Node14&#45;&gt;Node15 -->
<g id="edge16" class="edge">
<title>Node14&#45;&gt;Node15</title>
<path fill="none" stroke="#63b8ff" d="M741.97,-227.39C741.97,-217.37 741.97,-206.55 741.97,-197.54"/>
<polygon fill="#63b8ff" stroke="#63b8ff" points="738.47,-227.12 741.97,-237.12 745.47,-227.12 738.47,-227.12"/>
</g>
<!-- Node17&#45;&gt;Node4 -->
<g id="edge23" class="edge">
<title>Node17&#45;&gt;Node4</title>
<path fill="none" stroke="#63b8ff" d="M672.66,-316.82C662.47,-290.85 644.38,-254.65 616.97,-233.25 579.03,-203.64 526.09,-189.72 484.79,-183.18"/>
<polygon fill="#63b8ff" stroke="#63b8ff" points="669.38,-318.03 676.15,-326.18 675.94,-315.58 669.38,-318.03"/>
</g>
<!-- Node18 -->
<g id="node18" class="node">
<title>Node18</title>
<g id="a_node18"><a xlink:href="../../d3/d7e/Ark_8hpp.html" target="_top" xlink:title="Includes the needed files to start using ArkScript.">
<polygon fill="white" stroke="#666666" points="942.59,-280.62 825.34,-280.62 825.34,-238.88 942.59,-238.88 942.59,-280.62"/>
<text text-anchor="start" x="833.34" y="-267.12" font-family="Helvetica,sans-Serif" font-size="10.00">/Users/fola/Documents</text>
<text text-anchor="start" x="833.34" y="-255.88" font-family="Helvetica,sans-Serif" font-size="10.00">/ArkScript/Ark/include</text>
<text text-anchor="middle" x="883.97" y="-244.62" font-family="Helvetica,sans-Serif" font-size="10.00">/Ark/Ark.hpp</text>
</a>
</g>
</g>
<!-- Node17&#45;&gt;Node18 -->
<g id="edge21" class="edge">
<title>Node17&#45;&gt;Node18</title>
<path fill="none" stroke="#63b8ff" d="M740.37,-322.91C770.97,-309.66 808.16,-293.56 837.02,-281.07"/>
<polygon fill="#63b8ff" stroke="#63b8ff" points="739.01,-319.68 731.23,-326.86 741.8,-326.1 739.01,-319.68"/>
</g>
<!-- Node20 -->
<g id="node20" class="node">
<title>Node20</title>
<g id="a_node20"><a xlink:href="../../de/dfa/Compiler_8cpp.html" target="_top" xlink:title=" ">
<polygon fill="white" stroke="#666666" points="1148.22,-197.25 1007.72,-197.25 1007.72,-155.5 1148.22,-155.5 1148.22,-197.25"/>
<text text-anchor="start" x="1015.72" y="-183.75" font-family="Helvetica,sans-Serif" font-size="10.00">/Users/fola/Documents</text>
<text text-anchor="start" x="1015.72" y="-172.5" font-family="Helvetica,sans-Serif" font-size="10.00">/ArkScript/Ark/src/arkreactor</text>
<text text-anchor="middle" x="1077.97" y="-161.25" font-family="Helvetica,sans-Serif" font-size="10.00">/Compiler/Compiler.cpp</text>
</a>
</g>
</g>
<!-- Node17&#45;&gt;Node20 -->
<g id="edge24" class="edge">
<title>Node17&#45;&gt;Node20</title>
<path fill="none" stroke="#63b8ff" d="M752.57,-324.24C755.06,-323.54 757.53,-322.88 759.97,-322.25 844.03,-300.55 876.42,-329.04 951.97,-286.25 979.36,-270.73 975.52,-254.26 998.97,-233.25 1013.48,-220.25 1031.06,-207.56 1045.95,-197.56"/>
<polygon fill="#63b8ff" stroke="#63b8ff" points="751.66,-320.86 743.03,-327.01 753.61,-327.58 751.66,-320.86"/>
</g>
<!-- Node19 -->
<g id="node19" class="node">
<title>Node19</title>
<g id="a_node19"><a xlink:href="../../dc/d32/Ark_8cpp.html" target="_top" xlink:title=" ">
<polygon fill="white" stroke="#666666" points="968.22,-197.25 827.72,-197.25 827.72,-155.5 968.22,-155.5 968.22,-197.25"/>
<text text-anchor="start" x="835.72" y="-183.75" font-family="Helvetica,sans-Serif" font-size="10.00">/Users/fola/Documents</text>
<text text-anchor="start" x="835.72" y="-172.5" font-family="Helvetica,sans-Serif" font-size="10.00">/ArkScript/Ark/src/arkreactor</text>
<text text-anchor="middle" x="897.97" y="-161.25" font-family="Helvetica,sans-Serif" font-size="10.00">/Ark.cpp</text>
</a>
</g>
</g>
<!-- Node18&#45;&gt;Node19 -->
<g id="edge22" class="edge">
<title>Node18&#45;&gt;Node19</title>
<path fill="none" stroke="#63b8ff" d="M889.36,-227.39C891.09,-217.37 892.95,-206.55 894.5,-197.54"/>
<polygon fill="#63b8ff" stroke="#63b8ff" points="885.93,-226.69 887.68,-237.14 892.83,-227.88 885.93,-226.69"/>
</g>
<!-- Node21&#45;&gt;Node22 -->
<g id="edge27" class="edge">
<title>Node21&#45;&gt;Node22</title>
<path fill="none" stroke="#63b8ff" d="M1378.98,-405.78C1398.64,-396.2 1421.03,-385.29 1440.8,-375.66"/>
<polygon fill="#63b8ff" stroke="#63b8ff" points="1377.49,-402.61 1370.04,-410.14 1380.56,-408.9 1377.49,-402.61"/>
</g>
<!-- Node21&#45;&gt;Node25 -->
<g id="edge30" class="edge">
<title>Node21&#45;&gt;Node25</title>
<path fill="none" stroke="#63b8ff" d="M1424.16,-419.84C1531.32,-407.16 1696.77,-386.86 1758.97,-375.25 1766.92,-373.77 1775.17,-372.05 1783.39,-370.22"/>
<polygon fill="#63b8ff" stroke="#63b8ff" points="1424.04,-416.33 1414.52,-420.98 1424.86,-423.28 1424.04,-416.33"/>
</g>
<!-- Node21&#45;&gt;Node27 -->
<g id="edge33" class="edge">
<title>Node21&#45;&gt;Node27</title>
<path fill="none" stroke="#63b8ff" d="M1424.13,-411.35C1471.85,-401.25 1530.1,-388.35 1581.97,-375.25 1585.08,-374.46 1588.26,-373.64 1591.46,-372.8"/>
<polygon fill="#63b8ff" stroke="#63b8ff" points="1423.41,-407.92 1414.35,-413.41 1424.85,-414.77 1423.41,-407.92"/>
</g>
<!-- Node29 -->
<g id="node29" class="node">
<title>Node29</title>
<g id="a_node29"><a xlink:href="../../d4/daa/Pipeline_8hpp.html" target="_top" xlink:title="The Chain of Responsibility class for running nodes through MacroExecutors.">
<polygon fill="white" stroke="#666666" points="1358.72,-369.62 1191.22,-369.62 1191.22,-327.88 1358.72,-327.88 1358.72,-369.62"/>
<text text-anchor="start" x="1199.22" y="-356.12" font-family="Helvetica,sans-Serif" font-size="10.00">/Users/fola/Documents</text>
<text text-anchor="start" x="1199.22" y="-344.88" font-family="Helvetica,sans-Serif" font-size="10.00">/ArkScript/Ark/include</text>
<text text-anchor="middle" x="1274.97" y="-333.62" font-family="Helvetica,sans-Serif" font-size="10.00">/Ark/Compiler/Macros/Pipeline.hpp</text>
</a>
</g>
</g>
<!-- Node21&#45;&gt;Node29 -->
<g id="edge36" class="edge">
<title>Node21&#45;&gt;Node29</title>
<path fill="none" stroke="#63b8ff" d="M1307.97,-401.39C1301.28,-390.92 1293.92,-379.41 1287.85,-369.92"/>
<polygon fill="#63b8ff" stroke="#63b8ff" points="1304.96,-403.19 1313.3,-409.73 1310.86,-399.42 1304.96,-403.19"/>
</g>
<!-- Node31 -->
<g id="node31" class="node">
<title>Node31</title>
<g id="a_node31"><a xlink:href="../../d1/da9/Executor_8cpp.html" target="_top" xlink:title=" ">
<polygon fill="white" stroke="#666666" points="1392.59,-197.25 1239.34,-197.25 1239.34,-155.5 1392.59,-155.5 1392.59,-197.25"/>
<text text-anchor="start" x="1247.34" y="-183.75" font-family="Helvetica,sans-Serif" font-size="10.00">/Users/fola/Documents</text>
<text text-anchor="start" x="1247.34" y="-172.5" font-family="Helvetica,sans-Serif" font-size="10.00">/ArkScript/Ark/src/arkreactor</text>
<text text-anchor="middle" x="1315.97" y="-161.25" font-family="Helvetica,sans-Serif" font-size="10.00">/Compiler/Macros/Executor.cpp</text>
</a>
</g>
</g>
<!-- Node21&#45;&gt;Node31 -->
<g id="edge43" class="edge">
<title>Node21&#45;&gt;Node31</title>
<path fill="none" stroke="#63b8ff" d="M1353.65,-401.96C1359.5,-393.87 1364.87,-384.7 1367.97,-375.25 1375.63,-351.87 1362.69,-237.58 1360.97,-233.25 1355.72,-220.05 1346.23,-207.53 1337.3,-197.7"/>
<polygon fill="#63b8ff" stroke="#63b8ff" points="1350.99,-399.68 1347.59,-409.72 1356.5,-403.99 1350.99,-399.68"/>
</g>
<!-- Node23 -->
<g id="node23" class="node">
<title>Node23</title>
<g id="a_node23"><a xlink:href="../../de/d04/Conditional_8cpp.html" target="_top" xlink:title=" ">
<polygon fill="white" stroke="#666666" points="1552.22,-286.25 1411.72,-286.25 1411.72,-233.25 1552.22,-233.25 1552.22,-286.25"/>
<text text-anchor="start" x="1419.72" y="-272.75" font-family="Helvetica,sans-Serif" font-size="10.00">/Users/fola/Documents</text>
<text text-anchor="start" x="1419.72" y="-261.5" font-family="Helvetica,sans-Serif" font-size="10.00">/ArkScript/Ark/src/arkreactor</text>
<text text-anchor="start" x="1419.72" y="-250.25" font-family="Helvetica,sans-Serif" font-size="10.00">/Compiler/Macros/Executors</text>
<text text-anchor="middle" x="1481.97" y="-239" font-family="Helvetica,sans-Serif" font-size="10.00">/Conditional.cpp</text>
</a>
</g>
</g>
<!-- Node22&#45;&gt;Node23 -->
<g id="edge28" class="edge">
<title>Node22&#45;&gt;Node23</title>
<path fill="none" stroke="#63b8ff" d="M1488.88,-310.86C1487.75,-302.66 1486.57,-294.14 1485.52,-286.5"/>
<polygon fill="#63b8ff" stroke="#63b8ff" points="1485.39,-311.19 1490.22,-320.62 1492.33,-310.23 1485.39,-311.19"/>
</g>
<!-- Node24 -->
<g id="node24" class="node">
<title>Node24</title>
<g id="a_node24"><a xlink:href="../../d6/d69/Processor_8cpp.html" target="_top" xlink:title=" ">
<polygon fill="white" stroke="#666666" points="1678.22,-197.25 1519.72,-197.25 1519.72,-155.5 1678.22,-155.5 1678.22,-197.25"/>
<text text-anchor="start" x="1527.72" y="-183.75" font-family="Helvetica,sans-Serif" font-size="10.00">/Users/fola/Documents</text>
<text text-anchor="start" x="1527.72" y="-172.5" font-family="Helvetica,sans-Serif" font-size="10.00">/ArkScript/Ark/src/arkreactor</text>
<text text-anchor="middle" x="1598.97" y="-161.25" font-family="Helvetica,sans-Serif" font-size="10.00">/Compiler/Macros/Processor.cpp</text>
</a>
</g>
</g>
<!-- Node22&#45;&gt;Node24 -->
<g id="edge29" class="edge">
<title>Node22&#45;&gt;Node24</title>
<path fill="none" stroke="#63b8ff" d="M1537.05,-314.09C1545.84,-305.71 1554.39,-296.25 1560.97,-286.25 1579.34,-258.32 1589.92,-220.5 1595.05,-197.58"/>
<polygon fill="#63b8ff" stroke="#63b8ff" points="1534.77,-311.43 1529.73,-320.75 1539.49,-316.6 1534.77,-311.43"/>
</g>
<!-- Node25&#45;&gt;Node24 -->
<g id="edge32" class="edge">
<title>Node25&#45;&gt;Node24</title>
<path fill="none" stroke="#63b8ff" d="M1928.6,-315.24C1938.81,-307.21 1947.95,-297.58 1953.97,-286.25 1965.02,-265.45 1969.27,-251.15 1953.97,-233.25 1919.25,-192.64 1772.12,-181.36 1678.51,-178.34"/>
<polygon fill="#63b8ff" stroke="#63b8ff" points="1926.68,-312.3 1920.63,-321 1930.79,-317.97 1926.68,-312.3"/>
</g>
<!-- Node26 -->
<g id="node26" class="node">
<title>Node26</title>
<g id="a_node26"><a xlink:href="../../dc/dd4/Function_8cpp.html" target="_top" xlink:title=" ">
<polygon fill="white" stroke="#666666" points="1945.22,-286.25 1804.72,-286.25 1804.72,-233.25 1945.22,-233.25 1945.22,-286.25"/>
<text text-anchor="start" x="1812.72" y="-272.75" font-family="Helvetica,sans-Serif" font-size="10.00">/Users/fola/Documents</text>
<text text-anchor="start" x="1812.72" y="-261.5" font-family="Helvetica,sans-Serif" font-size="10.00">/ArkScript/Ark/src/arkreactor</text>
<text text-anchor="start" x="1812.72" y="-250.25" font-family="Helvetica,sans-Serif" font-size="10.00">/Compiler/Macros/Executors</text>
<text text-anchor="middle" x="1874.97" y="-239" font-family="Helvetica,sans-Serif" font-size="10.00">/Function.cpp</text>
</a>
</g>
</g>
<!-- Node25&#45;&gt;Node26 -->
<g id="edge31" class="edge">
<title>Node25&#45;&gt;Node26</title>
<path fill="none" stroke="#63b8ff" d="M1868.05,-310.86C1869.19,-302.66 1870.36,-294.14 1871.42,-286.5"/>
<polygon fill="#63b8ff" stroke="#63b8ff" points="1864.61,-310.23 1866.71,-320.62 1871.54,-311.19 1864.61,-310.23"/>
</g>
<!-- Node27&#45;&gt;Node24 -->
<g id="edge35" class="edge">
<title>Node27&#45;&gt;Node24</title>
<path fill="none" stroke="#63b8ff" d="M1649.93,-312.1C1645.38,-303.76 1640.79,-294.8 1636.97,-286.25 1623.48,-256.09 1611.6,-219.58 1604.85,-197.43"/>
<polygon fill="#63b8ff" stroke="#63b8ff" points="1646.74,-313.57 1654.67,-320.59 1652.85,-310.15 1646.74,-313.57"/>
</g>
<!-- Node28 -->
<g id="node28" class="node">
<title>Node28</title>
<g id="a_node28"><a xlink:href="../../d8/d0b/Symbol_8cpp.html" target="_top" xlink:title=" ">
<polygon fill="white" stroke="#666666" points="1786.22,-286.25 1645.72,-286.25 1645.72,-233.25 1786.22,-233.25 1786.22,-286.25"/>
<text text-anchor="start" x="1653.72" y="-272.75" font-family="Helvetica,sans-Serif" font-size="10.00">/Users/fola/Documents</text>
<text text-anchor="start" x="1653.72" y="-261.5" font-family="Helvetica,sans-Serif" font-size="10.00">/ArkScript/Ark/src/arkreactor</text>
<text text-anchor="start" x="1653.72" y="-250.25" font-family="Helvetica,sans-Serif" font-size="10.00">/Compiler/Macros/Executors</text>
<text text-anchor="middle" x="1715.97" y="-239" font-family="Helvetica,sans-Serif" font-size="10.00">/Symbol.cpp</text>
</a>
</g>
</g>
<!-- Node27&#45;&gt;Node28 -->
<g id="edge34" class="edge">
<title>Node27&#45;&gt;Node28</title>
<path fill="none" stroke="#63b8ff" d="M1689.46,-311.99C1693.88,-303.45 1698.51,-294.49 1702.65,-286.5"/>
<polygon fill="#63b8ff" stroke="#63b8ff" points="1686.41,-310.28 1684.92,-320.77 1692.62,-313.5 1686.41,-310.28"/>
</g>
<!-- Node29&#45;&gt;Node30 -->
<g id="edge37" class="edge">
<title>Node29&#45;&gt;Node30</title>
<path fill="none" stroke="#63b8ff" d="M1223.36,-322.67C1196.23,-309.48 1163.41,-293.53 1137.88,-281.12"/>
<polygon fill="#63b8ff" stroke="#63b8ff" points="1221.57,-325.69 1232.09,-326.91 1224.63,-319.39 1221.57,-325.69"/>
</g>
<!-- Node32 -->
<g id="node32" class="node">
<title>Node32</title>
<g id="a_node32"><a xlink:href="../../dd/d19/Pipeline_8cpp.html" target="_top" xlink:title=" ">
<polygon fill="white" stroke="#666666" points="1351.72,-280.62 1202.22,-280.62 1202.22,-238.88 1351.72,-238.88 1351.72,-280.62"/>
<text text-anchor="start" x="1210.22" y="-267.12" font-family="Helvetica,sans-Serif" font-size="10.00">/Users/fola/Documents</text>
<text text-anchor="start" x="1210.22" y="-255.88" font-family="Helvetica,sans-Serif" font-size="10.00">/ArkScript/Ark/src/arkreactor</text>
<text text-anchor="middle" x="1276.97" y="-244.62" font-family="Helvetica,sans-Serif" font-size="10.00">/Compiler/Macros/Pipeline.cpp</text>
</a>
</g>
</g>
<!-- Node29&#45;&gt;Node32 -->
<g id="edge42" class="edge">
<title>Node29&#45;&gt;Node32</title>
<path fill="none" stroke="#63b8ff" d="M1275.69,-316.39C1275.96,-304.65 1276.26,-291.62 1276.5,-281.12"/>
<polygon fill="#63b8ff" stroke="#63b8ff" points="1272.2,-315.98 1275.47,-326.06 1279.19,-316.14 1272.2,-315.98"/>
</g>
<!-- Node30&#45;&gt;Node4 -->
<g id="edge38" class="edge">
<title>Node30&#45;&gt;Node4</title>
<path fill="none" stroke="#63b8ff" d="M996.16,-240.14C981.37,-237.65 966.29,-235.27 951.97,-233.25 783.99,-209.57 584.83,-191.19 484.9,-182.64"/>
<polygon fill="#63b8ff" stroke="#63b8ff" points="995.46,-243.57 1005.91,-241.8 996.64,-236.67 995.46,-243.57"/>
</g>
<!-- Node30&#45;&gt;Node20 -->
<g id="edge39" class="edge">
<title>Node30&#45;&gt;Node20</title>
<path fill="none" stroke="#63b8ff" d="M1089.1,-227.72C1086.87,-217.6 1084.44,-206.64 1082.43,-197.54"/>
<polygon fill="#63b8ff" stroke="#63b8ff" points="1085.61,-228.15 1091.19,-237.16 1092.45,-226.64 1085.61,-228.15"/>
</g>
<!-- Node30&#45;&gt;Node24 -->
<g id="edge41" class="edge">
<title>Node30&#45;&gt;Node24</title>
<path fill="none" stroke="#63b8ff" d="M1180.66,-235.85C1184.81,-234.93 1188.93,-234.06 1192.97,-233.25 1305.48,-210.8 1437.33,-194.47 1519.52,-185.45"/>
<polygon fill="#63b8ff" stroke="#63b8ff" points="1180.06,-232.4 1171.11,-238.06 1181.64,-239.22 1180.06,-232.4"/>
</g>
<!-- Node30&#45;&gt;Node31 -->
<g id="edge40" class="edge">
<title>Node30&#45;&gt;Node31</title>
<path fill="none" stroke="#63b8ff" d="M1161.42,-234.54C1193.12,-222.81 1230.76,-208.89 1260.96,-197.72"/>
<polygon fill="#63b8ff" stroke="#63b8ff" points="1160.5,-231.15 1152.33,-237.9 1162.93,-237.71 1160.5,-231.15"/>
</g>
<!-- Node33&#45;&gt;Node30 -->
<g id="edge48" class="edge">
<title>Node33&#45;&gt;Node30</title>
<path fill="none" stroke="#63b8ff" d="M1116.25,-404.79C1127.37,-396.93 1137.55,-387.15 1143.97,-375.25 1155.15,-354.52 1151.63,-344.52 1143.97,-322.25 1138.64,-306.75 1127.62,-292.17 1117.49,-281.09"/>
<polygon fill="#63b8ff" stroke="#63b8ff" points="1114.5,-401.75 1108.02,-410.13 1118.31,-407.63 1114.5,-401.75"/>
</g>
<!-- Node34 -->
<g id="node34" class="node">
<title>Node34</title>
<g id="a_node34"><a xlink:href="../../df/d82/MacroScope_8cpp.html" target="_top" xlink:title=" ">
<polygon fill="white" stroke="#666666" points="1134.84,-369.62 965.09,-369.62 965.09,-327.88 1134.84,-327.88 1134.84,-369.62"/>
<text text-anchor="start" x="973.09" y="-356.12" font-family="Helvetica,sans-Serif" font-size="10.00">/Users/fola/Documents</text>
<text text-anchor="start" x="973.09" y="-344.88" font-family="Helvetica,sans-Serif" font-size="10.00">/ArkScript/Ark/src/arkreactor</text>
<text text-anchor="middle" x="1049.97" y="-333.62" font-family="Helvetica,sans-Serif" font-size="10.00">/Compiler/Macros/MacroScope.cpp</text>
</a>
</g>
</g>
<!-- Node33&#45;&gt;Node34 -->
<g id="edge49" class="edge">
<title>Node33&#45;&gt;Node34</title>
<path fill="none" stroke="#63b8ff" d="M1055.5,-399.77C1054.39,-389.74 1053.19,-378.92 1052.2,-369.92"/>
<polygon fill="#63b8ff" stroke="#63b8ff" points="1052,-399.95 1056.58,-409.51 1058.96,-399.18 1052,-399.95"/>
</g>
<!-- Node35&#45;&gt;Node17 -->
<g id="edge52" class="edge">
<title>Node35&#45;&gt;Node17</title>
<path fill="none" stroke="#63b8ff" d="M783.45,-405.37C762.87,-393.98 739.02,-380.78 719.72,-370.1"/>
<polygon fill="#63b8ff" stroke="#63b8ff" points="781.48,-408.29 791.93,-410.07 784.87,-402.16 781.48,-408.29"/>
</g>
<!-- Node36 -->
<g id="node36" class="node">
<title>Node36</title>
<g id="a_node36"><a xlink:href="../../d9/d93/ValTableElem_8cpp.html" target="_top" xlink:title=" ">
<polygon fill="white" stroke="#666666" points="909.22,-369.62 768.72,-369.62 768.72,-327.88 909.22,-327.88 909.22,-369.62"/>
<text text-anchor="start" x="776.72" y="-356.12" font-family="Helvetica,sans-Serif" font-size="10.00">/Users/fola/Documents</text>
<text text-anchor="start" x="776.72" y="-344.88" font-family="Helvetica,sans-Serif" font-size="10.00">/ArkScript/Ark/src/arkreactor</text>
<text text-anchor="middle" x="838.97" y="-333.62" font-family="Helvetica,sans-Serif" font-size="10.00">/Compiler/ValTableElem.cpp</text>
</a>
</g>
</g>
<!-- Node35&#45;&gt;Node36 -->
<g id="edge53" class="edge">
<title>Node35&#45;&gt;Node36</title>
<path fill="none" stroke="#63b8ff" d="M833.44,-399.77C834.54,-389.74 835.74,-378.92 836.74,-369.92"/>
<polygon fill="#63b8ff" stroke="#63b8ff" points="829.98,-399.18 832.36,-409.51 836.94,-399.95 829.98,-399.18"/>
</g>
</g>
</svg>
