<?xml version="1.0" encoding="UTF-8" standalone="no"?>
<!DOCTYPE svg PUBLIC "-//W3C//DTD SVG 1.1//EN"
 "http://www.w3.org/Graphics/SVG/1.1/DTD/svg11.dtd">
<!-- Generated by graphviz version 2.43.0 (0)
 -->
<!-- Title: /home/fola/code/Ark/include/Ark/Compiler/AST/Node.hpp Pages: 1 -->
<svg width="1870pt" height="585pt"
 viewBox="0.00 0.00 1869.50 585.00" xmlns="http://www.w3.org/2000/svg" xmlns:xlink="http://www.w3.org/1999/xlink">
<g id="graph0" class="graph" transform="scale(1 1) rotate(0) translate(4 581)">
<title>/home/fola/code/Ark/include/Ark/Compiler/AST/Node.hpp</title>
<polygon fill="white" stroke="transparent" points="-4,4 -4,-581 1865.5,-581 1865.5,4 -4,4"/>
<!-- Node1 -->
<g id="node1" class="node">
<title>Node1</title>
<g id="a_node1"><a xlink:title="AST node used by the parser, optimizer and compiler.">
<polygon fill="#bfbfbf" stroke="black" points="991.5,-535.5 991.5,-576.5 1113.5,-576.5 1113.5,-535.5 991.5,-535.5"/>
<text text-anchor="start" x="999.5" y="-564.5" font-family="Helvetica,sans-Serif" font-size="10.00">/home/fola/code/Ark</text>
<text text-anchor="start" x="999.5" y="-553.5" font-family="Helvetica,sans-Serif" font-size="10.00">/include/Ark/Compiler</text>
<text text-anchor="middle" x="1052.5" y="-542.5" font-family="Helvetica,sans-Serif" font-size="10.00">/AST/Node.hpp</text>
</a>
</g>
</g>
<!-- Node2 -->
<g id="node2" class="node">
<title>Node2</title>
<g id="a_node2"><a xlink:href="../../dc/dc5/makeErrorCtx_8hpp.html" target="_top" xlink:title="Create string error context for AST errors.">
<polygon fill="white" stroke="black" points="399,-457.5 399,-498.5 528,-498.5 528,-457.5 399,-457.5"/>
<text text-anchor="start" x="407" y="-486.5" font-family="Helvetica,sans-Serif" font-size="10.00">/home/fola/code/Ark</text>
<text text-anchor="start" x="407" y="-475.5" font-family="Helvetica,sans-Serif" font-size="10.00">/include/Ark/Compiler</text>
<text text-anchor="middle" x="463.5" y="-464.5" font-family="Helvetica,sans-Serif" font-size="10.00">/AST/makeErrorCtx.hpp</text>
</a>
</g>
</g>
<!-- Node1&#45;&gt;Node2 -->
<g id="edge1" class="edge">
<title>Node1&#45;&gt;Node2</title>
<path fill="none" stroke="midnightblue" d="M981.1,-547.57C888.87,-537.72 723.43,-519.23 582.5,-499 564.87,-496.47 545.83,-493.42 528.26,-490.46"/>
<polygon fill="midnightblue" stroke="midnightblue" points="980.85,-551.06 991.16,-548.64 981.59,-544.1 980.85,-551.06"/>
</g>
<!-- Node3 -->
<g id="node3" class="node">
<title>Node3</title>
<g id="a_node3"><a xlink:href="../../db/d93/Optimizer_8hpp.html" target="_top" xlink:title="Optimizes a given ArkScript AST.">
<polygon fill="white" stroke="black" points="59.5,-379.5 59.5,-420.5 181.5,-420.5 181.5,-379.5 59.5,-379.5"/>
<text text-anchor="start" x="67.5" y="-408.5" font-family="Helvetica,sans-Serif" font-size="10.00">/home/fola/code/Ark</text>
<text text-anchor="start" x="67.5" y="-397.5" font-family="Helvetica,sans-Serif" font-size="10.00">/include/Ark/Compiler</text>
<text text-anchor="middle" x="120.5" y="-386.5" font-family="Helvetica,sans-Serif" font-size="10.00">/AST/Optimizer.hpp</text>
</a>
</g>
</g>
<!-- Node1&#45;&gt;Node3 -->
<g id="edge25" class="edge">
<title>Node1&#45;&gt;Node3</title>
<path fill="none" stroke="midnightblue" d="M980.99,-555.13C858.45,-553.98 601.06,-545.6 389.5,-499 306.98,-480.82 215.43,-443.57 163.24,-420.59"/>
<polygon fill="midnightblue" stroke="midnightblue" points="981.33,-558.63 991.36,-555.21 981.39,-551.63 981.33,-558.63"/>
</g>
<!-- Node4 -->
<g id="node4" class="node">
<title>Node4</title>
<g id="a_node4"><a xlink:href="../../d8/d0f/Compiler_8hpp.html" target="_top" xlink:title="ArkScript compiler is in charge of transforming the AST into bytecode.">
<polygon fill="white" stroke="black" points="427.5,-301.5 427.5,-342.5 549.5,-342.5 549.5,-301.5 427.5,-301.5"/>
<text text-anchor="start" x="435.5" y="-330.5" font-family="Helvetica,sans-Serif" font-size="10.00">/home/fola/code/Ark</text>
<text text-anchor="start" x="435.5" y="-319.5" font-family="Helvetica,sans-Serif" font-size="10.00">/include/Ark/Compiler</text>
<text text-anchor="middle" x="488.5" y="-308.5" font-family="Helvetica,sans-Serif" font-size="10.00">/Compiler.hpp</text>
</a>
</g>
</g>
<!-- Node1&#45;&gt;Node4 -->
<g id="edge29" class="edge">
<title>Node1&#45;&gt;Node4</title>
<path fill="none" stroke="midnightblue" d="M981.26,-550.86C929.13,-545.11 858.39,-531.43 804.5,-499 744.28,-462.76 761.08,-416.29 701.5,-379 655.32,-350.09 594.55,-336.01 549.75,-329.21"/>
<polygon fill="midnightblue" stroke="midnightblue" points="981.12,-554.37 991.43,-551.91 981.84,-547.41 981.12,-554.37"/>
</g>
<!-- Node22 -->
<g id="node22" class="node">
<title>Node22</title>
<g id="a_node22"><a xlink:href="../../d7/ddd/Parser_8hpp.html" target="_top" xlink:title="Parses a token stream into an AST by using the Ark::Node.">
<polygon fill="white" stroke="black" points="591.5,-457.5 591.5,-498.5 713.5,-498.5 713.5,-457.5 591.5,-457.5"/>
<text text-anchor="start" x="599.5" y="-486.5" font-family="Helvetica,sans-Serif" font-size="10.00">/home/fola/code/Ark</text>
<text text-anchor="start" x="599.5" y="-475.5" font-family="Helvetica,sans-Serif" font-size="10.00">/include/Ark/Compiler</text>
<text text-anchor="middle" x="652.5" y="-464.5" font-family="Helvetica,sans-Serif" font-size="10.00">/AST/Parser.hpp</text>
</a>
</g>
</g>
<!-- Node1&#45;&gt;Node22 -->
<g id="edge26" class="edge">
<title>Node1&#45;&gt;Node22</title>
<path fill="none" stroke="midnightblue" d="M981.49,-544.65C915.41,-534.57 814.35,-518.02 727.5,-499 723.02,-498.02 718.41,-496.95 713.79,-495.82"/>
<polygon fill="midnightblue" stroke="midnightblue" points="980.97,-548.11 991.38,-546.15 982.02,-541.19 980.97,-548.11"/>
</g>
<!-- Node23 -->
<g id="node23" class="node">
<title>Node23</title>
<g id="a_node23"><a xlink:href="../../d4/d1a/Executor_8hpp.html" target="_top" xlink:title="The base class for all MacroExecutors.">
<polygon fill="white" stroke="black" points="1349.5,-457.5 1349.5,-498.5 1471.5,-498.5 1471.5,-457.5 1349.5,-457.5"/>
<text text-anchor="start" x="1357.5" y="-486.5" font-family="Helvetica,sans-Serif" font-size="10.00">/home/fola/code/Ark</text>
<text text-anchor="start" x="1357.5" y="-475.5" font-family="Helvetica,sans-Serif" font-size="10.00">/include/Ark/Compiler</text>
<text text-anchor="middle" x="1410.5" y="-464.5" font-family="Helvetica,sans-Serif" font-size="10.00">/Macros/Executor.hpp</text>
</a>
</g>
</g>
<!-- Node1&#45;&gt;Node23 -->
<g id="edge30" class="edge">
<title>Node1&#45;&gt;Node23</title>
<path fill="none" stroke="midnightblue" d="M1123.54,-539.92C1189.51,-525.91 1286.71,-505.28 1349.32,-491.99"/>
<polygon fill="midnightblue" stroke="midnightblue" points="1122.69,-536.52 1113.64,-542.02 1124.14,-543.37 1122.69,-536.52"/>
</g>
<!-- Node24 -->
<g id="node24" class="node">
<title>Node24</title>
<g id="a_node24"><a xlink:href="../../da/dc2/Conditional_8hpp.html" target="_top" xlink:title="Executor for Conditional Macros.">
<polygon fill="white" stroke="black" points="960,-379.5 960,-420.5 1145,-420.5 1145,-379.5 960,-379.5"/>
<text text-anchor="start" x="968" y="-408.5" font-family="Helvetica,sans-Serif" font-size="10.00">/home/fola/code/Ark</text>
<text text-anchor="start" x="968" y="-397.5" font-family="Helvetica,sans-Serif" font-size="10.00">/include/Ark/Compiler</text>
<text text-anchor="middle" x="1052.5" y="-386.5" font-family="Helvetica,sans-Serif" font-size="10.00">/Macros/Executors/Conditional.hpp</text>
</a>
</g>
</g>
<!-- Node1&#45;&gt;Node24 -->
<g id="edge48" class="edge">
<title>Node1&#45;&gt;Node24</title>
<path fill="none" stroke="midnightblue" d="M1052.5,-525.36C1052.5,-494.61 1052.5,-447.36 1052.5,-420.83"/>
<polygon fill="midnightblue" stroke="midnightblue" points="1049,-525.5 1052.5,-535.5 1056,-525.5 1049,-525.5"/>
</g>
<!-- Node26 -->
<g id="node26" class="node">
<title>Node26</title>
<g id="a_node26"><a xlink:href="../../d2/d37/List_8hpp.html" target="_top" xlink:title="Executor for List Macros.">
<polygon fill="white" stroke="black" points="1163.5,-379.5 1163.5,-420.5 1309.5,-420.5 1309.5,-379.5 1163.5,-379.5"/>
<text text-anchor="start" x="1171.5" y="-408.5" font-family="Helvetica,sans-Serif" font-size="10.00">/home/fola/code/Ark</text>
<text text-anchor="start" x="1171.5" y="-397.5" font-family="Helvetica,sans-Serif" font-size="10.00">/include/Ark/Compiler</text>
<text text-anchor="middle" x="1236.5" y="-386.5" font-family="Helvetica,sans-Serif" font-size="10.00">/Macros/Executors/List.hpp</text>
</a>
</g>
</g>
<!-- Node1&#45;&gt;Node26 -->
<g id="edge49" class="edge">
<title>Node1&#45;&gt;Node26</title>
<path fill="none" stroke="midnightblue" d="M1083.69,-528.89C1120.32,-498.24 1180.23,-448.1 1213.1,-420.59"/>
<polygon fill="midnightblue" stroke="midnightblue" points="1081.23,-526.39 1075.8,-535.5 1085.72,-531.76 1081.23,-526.39"/>
</g>
<!-- Node28 -->
<g id="node28" class="node">
<title>Node28</title>
<g id="a_node28"><a xlink:href="../../dc/dce/Symbol_8hpp.html" target="_top" xlink:title="Executor for Symbol Macros.">
<polygon fill="white" stroke="black" points="1327.5,-379.5 1327.5,-420.5 1493.5,-420.5 1493.5,-379.5 1327.5,-379.5"/>
<text text-anchor="start" x="1335.5" y="-408.5" font-family="Helvetica,sans-Serif" font-size="10.00">/home/fola/code/Ark</text>
<text text-anchor="start" x="1335.5" y="-397.5" font-family="Helvetica,sans-Serif" font-size="10.00">/include/Ark/Compiler</text>
<text text-anchor="middle" x="1410.5" y="-386.5" font-family="Helvetica,sans-Serif" font-size="10.00">/Macros/Executors/Symbol.hpp</text>
</a>
</g>
</g>
<!-- Node1&#45;&gt;Node28 -->
<g id="edge50" class="edge">
<title>Node1&#45;&gt;Node28</title>
<path fill="none" stroke="midnightblue" d="M1107.45,-531.36C1178.04,-501 1299.26,-448.85 1364.96,-420.59"/>
<polygon fill="midnightblue" stroke="midnightblue" points="1105.64,-528.33 1097.84,-535.5 1108.41,-534.76 1105.64,-528.33"/>
</g>
<!-- Node31 -->
<g id="node31" class="node">
<title>Node31</title>
<g id="a_node31"><a xlink:href="../../de/db1/Processor_8hpp.html" target="_top" xlink:title="Handles the macros and their expansion in ArkScript source code.">
<polygon fill="white" stroke="black" points="1658,-301.5 1658,-342.5 1783,-342.5 1783,-301.5 1658,-301.5"/>
<text text-anchor="start" x="1666" y="-330.5" font-family="Helvetica,sans-Serif" font-size="10.00">/home/fola/code/Ark</text>
<text text-anchor="start" x="1666" y="-319.5" font-family="Helvetica,sans-Serif" font-size="10.00">/include/Ark/Compiler</text>
<text text-anchor="middle" x="1720.5" y="-308.5" font-family="Helvetica,sans-Serif" font-size="10.00">/Macros/Processor.hpp</text>
</a>
</g>
</g>
<!-- Node1&#45;&gt;Node31 -->
<g id="edge51" class="edge">
<title>Node1&#45;&gt;Node31</title>
<path fill="none" stroke="midnightblue" d="M1123.83,-551.18C1209.65,-545.32 1357.55,-531.21 1480.5,-499 1570.4,-475.45 1606.96,-484.83 1674.5,-421 1697.18,-399.57 1709.79,-364.73 1715.85,-342.88"/>
<polygon fill="midnightblue" stroke="midnightblue" points="1123.42,-547.69 1113.67,-551.85 1123.88,-554.68 1123.42,-547.69"/>
</g>
<!-- Node34 -->
<g id="node34" class="node">
<title>Node34</title>
<g id="a_node34"><a xlink:href="../../dd/de7/ValTableElem_8hpp.html" target="_top" xlink:title="The basic value type handled by the compiler.">
<polygon fill="white" stroke="black" points="813.5,-457.5 813.5,-498.5 935.5,-498.5 935.5,-457.5 813.5,-457.5"/>
<text text-anchor="start" x="821.5" y="-486.5" font-family="Helvetica,sans-Serif" font-size="10.00">/home/fola/code/Ark</text>
<text text-anchor="start" x="821.5" y="-475.5" font-family="Helvetica,sans-Serif" font-size="10.00">/include/Ark/Compiler</text>
<text text-anchor="middle" x="874.5" y="-464.5" font-family="Helvetica,sans-Serif" font-size="10.00">/ValTableElem.hpp</text>
</a>
</g>
</g>
<!-- Node1&#45;&gt;Node34 -->
<g id="edge52" class="edge">
<title>Node1&#45;&gt;Node34</title>
<path fill="none" stroke="midnightblue" d="M997.39,-531.47C972.62,-520.89 943.73,-508.56 920.18,-498.51"/>
<polygon fill="midnightblue" stroke="midnightblue" points="996.09,-534.72 1006.66,-535.43 998.84,-528.28 996.09,-534.72"/>
</g>
<!-- Node36 -->
<g id="node36" class="node">
<title>Node36</title>
<g id="a_node36"><a xlink:href="../../dc/d73/Node_8cpp.html" target="_top" xlink:title=" ">
<polygon fill="white" stroke="black" points="1727.5,-457.5 1727.5,-498.5 1861.5,-498.5 1861.5,-457.5 1727.5,-457.5"/>
<text text-anchor="start" x="1735.5" y="-486.5" font-family="Helvetica,sans-Serif" font-size="10.00">/home/fola/code/Ark</text>
<text text-anchor="start" x="1735.5" y="-475.5" font-family="Helvetica,sans-Serif" font-size="10.00">/src/arkreactor/Compiler</text>
<text text-anchor="middle" x="1794.5" y="-464.5" font-family="Helvetica,sans-Serif" font-size="10.00">/AST/Node.cpp</text>
</a>
</g>
</g>
<!-- Node1&#45;&gt;Node36 -->
<g id="edge55" class="edge">
<title>Node1&#45;&gt;Node36</title>
<path fill="none" stroke="midnightblue" d="M1124.27,-552.62C1246.12,-547.76 1500.95,-534.02 1713.5,-499 1718.07,-498.25 1722.77,-497.37 1727.49,-496.41"/>
<polygon fill="midnightblue" stroke="midnightblue" points="1123.81,-549.14 1113.96,-553.03 1124.08,-556.13 1123.81,-549.14"/>
</g>
<!-- Node2&#45;&gt;Node3 -->
<g id="edge2" class="edge">
<title>Node2&#45;&gt;Node3</title>
<path fill="none" stroke="midnightblue" d="M388.91,-463.28C333.84,-452.78 257.19,-437.34 190.5,-421 187.55,-420.28 184.54,-419.52 181.51,-418.73"/>
<polygon fill="midnightblue" stroke="midnightblue" points="388.45,-466.76 398.93,-465.19 389.76,-459.88 388.45,-466.76"/>
</g>
<!-- Node18 -->
<g id="node18" class="node">
<title>Node18</title>
<g id="a_node18"><a xlink:href="../../d2/d15/Lexer_8cpp.html" target="_top" xlink:title=" ">
<polygon fill="white" stroke="black" points="199.5,-379.5 199.5,-420.5 333.5,-420.5 333.5,-379.5 199.5,-379.5"/>
<text text-anchor="start" x="207.5" y="-408.5" font-family="Helvetica,sans-Serif" font-size="10.00">/home/fola/code/Ark</text>
<text text-anchor="start" x="207.5" y="-397.5" font-family="Helvetica,sans-Serif" font-size="10.00">/src/arkreactor/Compiler</text>
<text text-anchor="middle" x="266.5" y="-386.5" font-family="Helvetica,sans-Serif" font-size="10.00">/AST/Lexer.cpp</text>
</a>
</g>
</g>
<!-- Node2&#45;&gt;Node18 -->
<g id="edge21" class="edge">
<title>Node2&#45;&gt;Node18</title>
<path fill="none" stroke="midnightblue" d="M403.23,-453.75C375.65,-443.11 343.34,-430.65 317.06,-420.51"/>
<polygon fill="midnightblue" stroke="midnightblue" points="402.18,-457.09 412.77,-457.43 404.7,-450.56 402.18,-457.09"/>
</g>
<!-- Node19 -->
<g id="node19" class="node">
<title>Node19</title>
<g id="a_node19"><a xlink:href="../../d9/db7/makeErrorCtx_8cpp.html" target="_top" xlink:title=" ">
<polygon fill="white" stroke="black" points="351.5,-379.5 351.5,-420.5 485.5,-420.5 485.5,-379.5 351.5,-379.5"/>
<text text-anchor="start" x="359.5" y="-408.5" font-family="Helvetica,sans-Serif" font-size="10.00">/home/fola/code/Ark</text>
<text text-anchor="start" x="359.5" y="-397.5" font-family="Helvetica,sans-Serif" font-size="10.00">/src/arkreactor/Compiler</text>
<text text-anchor="middle" x="418.5" y="-386.5" font-family="Helvetica,sans-Serif" font-size="10.00">/AST/makeErrorCtx.cpp</text>
</a>
</g>
</g>
<!-- Node2&#45;&gt;Node19 -->
<g id="edge22" class="edge">
<title>Node2&#45;&gt;Node19</title>
<path fill="none" stroke="midnightblue" d="M446.78,-448.76C441.21,-439.35 435.14,-429.1 430.05,-420.51"/>
<polygon fill="midnightblue" stroke="midnightblue" points="443.8,-450.61 451.91,-457.43 449.83,-447.04 443.8,-450.61"/>
</g>
<!-- Node20 -->
<g id="node20" class="node">
<title>Node20</title>
<g id="a_node20"><a xlink:href="../../dc/df5/Parser_8cpp.html" target="_top" xlink:title=" ">
<polygon fill="white" stroke="black" points="541.5,-379.5 541.5,-420.5 675.5,-420.5 675.5,-379.5 541.5,-379.5"/>
<text text-anchor="start" x="549.5" y="-408.5" font-family="Helvetica,sans-Serif" font-size="10.00">/home/fola/code/Ark</text>
<text text-anchor="start" x="549.5" y="-397.5" font-family="Helvetica,sans-Serif" font-size="10.00">/src/arkreactor/Compiler</text>
<text text-anchor="middle" x="608.5" y="-386.5" font-family="Helvetica,sans-Serif" font-size="10.00">/AST/Parser.cpp</text>
</a>
</g>
</g>
<!-- Node2&#45;&gt;Node20 -->
<g id="edge23" class="edge">
<title>Node2&#45;&gt;Node20</title>
<path fill="none" stroke="midnightblue" d="M509.73,-452.77C529.61,-442.35 552.53,-430.34 571.29,-420.51"/>
<polygon fill="midnightblue" stroke="midnightblue" points="508.07,-449.69 500.84,-457.43 511.32,-455.89 508.07,-449.69"/>
</g>
<!-- Node21 -->
<g id="node21" class="node">
<title>Node21</title>
<g id="a_node21"><a xlink:href="../../d6/d69/Processor_8cpp.html" target="_top" xlink:title=" ">
<polygon fill="white" stroke="black" points="1024.5,-223.5 1024.5,-264.5 1158.5,-264.5 1158.5,-223.5 1024.5,-223.5"/>
<text text-anchor="start" x="1032.5" y="-252.5" font-family="Helvetica,sans-Serif" font-size="10.00">/home/fola/code/Ark</text>
<text text-anchor="start" x="1032.5" y="-241.5" font-family="Helvetica,sans-Serif" font-size="10.00">/src/arkreactor/Compiler</text>
<text text-anchor="middle" x="1091.5" y="-230.5" font-family="Helvetica,sans-Serif" font-size="10.00">/Macros/Processor.cpp</text>
</a>
</g>
</g>
<!-- Node2&#45;&gt;Node21 -->
<g id="edge24" class="edge">
<title>Node2&#45;&gt;Node21</title>
<path fill="none" stroke="midnightblue" d="M480.28,-448.7C495.97,-423.15 518.95,-388.2 532.5,-379 612.85,-324.45 894.12,-275.39 1024.37,-255.01"/>
<polygon fill="midnightblue" stroke="midnightblue" points="477.27,-446.92 475.07,-457.28 483.25,-450.55 477.27,-446.92"/>
</g>
<!-- Node3&#45;&gt;Node4 -->
<g id="edge3" class="edge">
<title>Node3&#45;&gt;Node4</title>
<path fill="none" stroke="midnightblue" d="M191.64,-378.82C278.65,-358.57 369.07,-342.5 427.37,-332.78"/>
<polygon fill="midnightblue" stroke="midnightblue" points="190.81,-375.42 181.88,-381.12 192.41,-382.24 190.81,-375.42"/>
</g>
<!-- Node17 -->
<g id="node17" class="node">
<title>Node17</title>
<g id="a_node17"><a xlink:href="../../d2/dc5/Optimizer_8cpp.html" target="_top" xlink:title=" ">
<polygon fill="white" stroke="black" points="53.5,-301.5 53.5,-342.5 187.5,-342.5 187.5,-301.5 53.5,-301.5"/>
<text text-anchor="start" x="61.5" y="-330.5" font-family="Helvetica,sans-Serif" font-size="10.00">/home/fola/code/Ark</text>
<text text-anchor="start" x="61.5" y="-319.5" font-family="Helvetica,sans-Serif" font-size="10.00">/src/arkreactor/Compiler</text>
<text text-anchor="middle" x="120.5" y="-308.5" font-family="Helvetica,sans-Serif" font-size="10.00">/AST/Optimizer.cpp</text>
</a>
</g>
</g>
<!-- Node3&#45;&gt;Node17 -->
<g id="edge20" class="edge">
<title>Node3&#45;&gt;Node17</title>
<path fill="none" stroke="midnightblue" d="M120.5,-369.3C120.5,-360.3 120.5,-350.65 120.5,-342.51"/>
<polygon fill="midnightblue" stroke="midnightblue" points="117,-369.43 120.5,-379.43 124,-369.43 117,-369.43"/>
</g>
<!-- Node5 -->
<g id="node5" class="node">
<title>Node5</title>
<g id="a_node5"><a xlink:href="../../d3/d7e/Ark_8hpp.html" target="_top" xlink:title="Includes the needed files to start using ArkScript.">
<polygon fill="white" stroke="black" points="6,-84 6,-114 121,-114 121,-84 6,-84"/>
<text text-anchor="start" x="14" y="-102" font-family="Helvetica,sans-Serif" font-size="10.00">/home/fola/code/Ark</text>
<text text-anchor="middle" x="63.5" y="-91" font-family="Helvetica,sans-Serif" font-size="10.00">/include/Ark/Ark.hpp</text>
</a>
</g>
</g>
<!-- Node4&#45;&gt;Node5 -->
<g id="edge4" class="edge">
<title>Node4&#45;&gt;Node5</title>
<path fill="none" stroke="midnightblue" d="M441.72,-296.68C352.69,-250.38 161.41,-150.91 90.59,-114.09"/>
<polygon fill="midnightblue" stroke="midnightblue" points="440.3,-299.88 450.78,-301.39 443.53,-293.67 440.3,-299.88"/>
</g>
<!-- Node8 -->
<g id="node8" class="node">
<title>Node8</title>
<g id="a_node8"><a xlink:href="../../d5/da5/Repl_8hpp.html" target="_top" xlink:title="ArkScript REPL &#45; Read Eval Print Loop.">
<polygon fill="white" stroke="black" points="635,-84 635,-114 782,-114 782,-84 635,-84"/>
<text text-anchor="start" x="643" y="-102" font-family="Helvetica,sans-Serif" font-size="10.00">/home/fola/code/Ark</text>
<text text-anchor="middle" x="708.5" y="-91" font-family="Helvetica,sans-Serif" font-size="10.00">/include/Ark/REPL/Repl.hpp</text>
</a>
</g>
</g>
<!-- Node4&#45;&gt;Node8 -->
<g id="edge7" class="edge">
<title>Node4&#45;&gt;Node8</title>
<path fill="none" stroke="midnightblue" d="M482.85,-291.27C477.77,-254.92 475.37,-193.62 507.5,-156 512.35,-150.32 594.45,-128.7 652.2,-114.04"/>
<polygon fill="midnightblue" stroke="midnightblue" points="479.41,-291.91 484.4,-301.26 486.33,-290.84 479.41,-291.91"/>
</g>
<!-- Node10 -->
<g id="node10" class="node">
<title>Node10</title>
<g id="a_node10"><a xlink:href="../../d0/db5/State_8hpp.html" target="_top" xlink:title="State used by the virtual machine: it loads the bytecode, can compile it if needed,...">
<polygon fill="white" stroke="black" points="520,-229 520,-259 663,-259 663,-229 520,-229"/>
<text text-anchor="start" x="528" y="-247" font-family="Helvetica,sans-Serif" font-size="10.00">/home/fola/code/Ark</text>
<text text-anchor="middle" x="591.5" y="-236" font-family="Helvetica,sans-Serif" font-size="10.00">/include/Ark/VM/State.hpp</text>
</a>
</g>
</g>
<!-- Node4&#45;&gt;Node10 -->
<g id="edge10" class="edge">
<title>Node4&#45;&gt;Node10</title>
<path fill="none" stroke="midnightblue" d="M523.3,-295.32C539.63,-283.27 558.48,-269.36 572.22,-259.23"/>
<polygon fill="midnightblue" stroke="midnightblue" points="520.99,-292.67 515.03,-301.43 525.15,-298.31 520.99,-292.67"/>
</g>
<!-- Node16 -->
<g id="node16" class="node">
<title>Node16</title>
<g id="a_node16"><a xlink:href="../../de/dfa/Compiler_8cpp.html" target="_top" xlink:title=" ">
<polygon fill="white" stroke="black" points="808.5,-223.5 808.5,-264.5 942.5,-264.5 942.5,-223.5 808.5,-223.5"/>
<text text-anchor="start" x="816.5" y="-252.5" font-family="Helvetica,sans-Serif" font-size="10.00">/home/fola/code/Ark</text>
<text text-anchor="start" x="816.5" y="-241.5" font-family="Helvetica,sans-Serif" font-size="10.00">/src/arkreactor/Compiler</text>
<text text-anchor="middle" x="875.5" y="-230.5" font-family="Helvetica,sans-Serif" font-size="10.00">/Compiler.cpp</text>
</a>
</g>
</g>
<!-- Node4&#45;&gt;Node16 -->
<g id="edge19" class="edge">
<title>Node4&#45;&gt;Node16</title>
<path fill="none" stroke="midnightblue" d="M559.7,-301.86C560.97,-301.57 562.24,-301.28 563.5,-301 647.3,-282.34 744.82,-265.63 808.23,-255.42"/>
<polygon fill="midnightblue" stroke="midnightblue" points="558.71,-298.5 549.79,-304.21 560.33,-305.31 558.71,-298.5"/>
</g>
<!-- Node6 -->
<g id="node6" class="node">
<title>Node6</title>
<g id="a_node6"><a xlink:href="../../dc/d32/Ark_8cpp.html" target="_top" xlink:title=" ">
<polygon fill="white" stroke="black" points="0,-6 0,-36 127,-36 127,-6 0,-6"/>
<text text-anchor="start" x="8" y="-24" font-family="Helvetica,sans-Serif" font-size="10.00">/home/fola/code/Ark</text>
<text text-anchor="middle" x="63.5" y="-13" font-family="Helvetica,sans-Serif" font-size="10.00">/src/arkreactor/Ark.cpp</text>
</a>
</g>
</g>
<!-- Node5&#45;&gt;Node6 -->
<g id="edge5" class="edge">
<title>Node5&#45;&gt;Node6</title>
<path fill="none" stroke="midnightblue" d="M63.5,-73.59C63.5,-61.26 63.5,-46.72 63.5,-36.23"/>
<polygon fill="midnightblue" stroke="midnightblue" points="60,-73.7 63.5,-83.7 67,-73.71 60,-73.7"/>
</g>
<!-- Node7 -->
<g id="node7" class="node">
<title>Node7</title>
<g id="a_node7"><a xlink:href="../../df/d0a/main_8cpp.html" target="_top" xlink:title=" ">
<polygon fill="white" stroke="black" points="325.5,-6 325.5,-36 453.5,-36 453.5,-6 325.5,-6"/>
<text text-anchor="start" x="333.5" y="-24" font-family="Helvetica,sans-Serif" font-size="10.00">/home/fola/code/Ark</text>
<text text-anchor="middle" x="389.5" y="-13" font-family="Helvetica,sans-Serif" font-size="10.00">/src/arkscript/main.cpp</text>
</a>
</g>
</g>
<!-- Node5&#45;&gt;Node7 -->
<g id="edge6" class="edge">
<title>Node5&#45;&gt;Node7</title>
<path fill="none" stroke="midnightblue" d="M117.85,-81.15C121.78,-80.04 125.7,-78.98 129.5,-78 195.77,-60.85 272.48,-44.79 325.31,-34.3"/>
<polygon fill="midnightblue" stroke="midnightblue" points="116.74,-77.82 108.09,-83.95 118.67,-84.55 116.74,-77.82"/>
</g>
<!-- Node8&#45;&gt;Node7 -->
<g id="edge8" class="edge">
<title>Node8&#45;&gt;Node7</title>
<path fill="none" stroke="midnightblue" d="M640.62,-81.62C635.5,-80.39 630.42,-79.18 625.5,-78 565.5,-63.65 496.89,-47.39 449.16,-36.1"/>
<polygon fill="midnightblue" stroke="midnightblue" points="639.92,-85.05 650.46,-83.99 641.55,-78.25 639.92,-85.05"/>
</g>
<!-- Node9 -->
<g id="node9" class="node">
<title>Node9</title>
<g id="a_node9"><a xlink:href="../../d7/d46/Repl_8cpp.html" target="_top" xlink:title=" ">
<polygon fill="white" stroke="black" points="651,-0.5 651,-41.5 766,-41.5 766,-0.5 651,-0.5"/>
<text text-anchor="start" x="659" y="-29.5" font-family="Helvetica,sans-Serif" font-size="10.00">/home/fola/code/Ark</text>
<text text-anchor="start" x="659" y="-18.5" font-family="Helvetica,sans-Serif" font-size="10.00">/src/arkscript/REPL</text>
<text text-anchor="middle" x="708.5" y="-7.5" font-family="Helvetica,sans-Serif" font-size="10.00">/Repl.cpp</text>
</a>
</g>
</g>
<!-- Node8&#45;&gt;Node9 -->
<g id="edge9" class="edge">
<title>Node8&#45;&gt;Node9</title>
<path fill="none" stroke="midnightblue" d="M708.5,-73.66C708.5,-63.33 708.5,-51.44 708.5,-41.68"/>
<polygon fill="midnightblue" stroke="midnightblue" points="705,-73.7 708.5,-83.7 712,-73.71 705,-73.7"/>
</g>
<!-- Node10&#45;&gt;Node8 -->
<g id="edge11" class="edge">
<title>Node10&#45;&gt;Node8</title>
<path fill="none" stroke="midnightblue" d="M634.78,-224.26C651.44,-215.16 669.35,-202.73 681.5,-187 698.42,-165.09 704.82,-132.48 707.18,-114.04"/>
<polygon fill="midnightblue" stroke="midnightblue" points="632.96,-221.27 625.7,-228.98 636.19,-227.48 632.96,-221.27"/>
</g>
<!-- Node11 -->
<g id="node11" class="node">
<title>Node11</title>
<g id="a_node11"><a xlink:href="../../d1/d91/VM_8hpp.html" target="_top" xlink:title="The ArkScript virtual machine.">
<polygon fill="white" stroke="black" points="318,-156.5 318,-186.5 451,-186.5 451,-156.5 318,-156.5"/>
<text text-anchor="start" x="326" y="-174.5" font-family="Helvetica,sans-Serif" font-size="10.00">/home/fola/code/Ark</text>
<text text-anchor="middle" x="384.5" y="-163.5" font-family="Helvetica,sans-Serif" font-size="10.00">/include/Ark/VM/VM.hpp</text>
</a>
</g>
</g>
<!-- Node10&#45;&gt;Node11 -->
<g id="edge12" class="edge">
<title>Node10&#45;&gt;Node11</title>
<path fill="none" stroke="midnightblue" d="M540.47,-225.62C505.17,-213.6 458.8,-197.81 425.82,-186.57"/>
<polygon fill="midnightblue" stroke="midnightblue" points="539.51,-228.99 550.11,-228.9 541.77,-222.37 539.51,-228.99"/>
</g>
<!-- Node15 -->
<g id="node15" class="node">
<title>Node15</title>
<g id="a_node15"><a xlink:href="../../d0/da0/State_8cpp.html" target="_top" xlink:title=" ">
<polygon fill="white" stroke="black" points="517,-156.5 517,-186.5 672,-186.5 672,-156.5 517,-156.5"/>
<text text-anchor="start" x="525" y="-174.5" font-family="Helvetica,sans-Serif" font-size="10.00">/home/fola/code/Ark</text>
<text text-anchor="middle" x="594.5" y="-163.5" font-family="Helvetica,sans-Serif" font-size="10.00">/src/arkreactor/VM/State.cpp</text>
</a>
</g>
</g>
<!-- Node10&#45;&gt;Node15 -->
<g id="edge18" class="edge">
<title>Node10&#45;&gt;Node15</title>
<path fill="none" stroke="midnightblue" d="M592.53,-218.73C592.99,-208.07 593.5,-195.91 593.89,-186.75"/>
<polygon fill="midnightblue" stroke="midnightblue" points="589.04,-218.59 592.11,-228.73 596.03,-218.89 589.04,-218.59"/>
</g>
<!-- Node11&#45;&gt;Node5 -->
<g id="edge13" class="edge">
<title>Node11&#45;&gt;Node5</title>
<path fill="none" stroke="midnightblue" d="M307.86,-157.36C256.99,-148.14 188.92,-134.85 129.5,-120 122.41,-118.23 114.96,-116.17 107.71,-114.05"/>
<polygon fill="midnightblue" stroke="midnightblue" points="307.33,-160.82 317.79,-159.15 308.57,-153.93 307.33,-160.82"/>
</g>
<!-- Node11&#45;&gt;Node8 -->
<g id="edge14" class="edge">
<title>Node11&#45;&gt;Node8</title>
<path fill="none" stroke="midnightblue" d="M461,-155.08C508.44,-145.36 570.6,-132.36 625.5,-120 633.74,-118.14 642.43,-116.12 650.95,-114.1"/>
<polygon fill="midnightblue" stroke="midnightblue" points="460.2,-151.67 451.11,-157.1 461.6,-158.53 460.2,-151.67"/>
</g>
<!-- Node12 -->
<g id="node12" class="node">
<title>Node12</title>
<g id="a_node12"><a xlink:href="../../d4/dc9/Future_8cpp.html" target="_top" xlink:title=" ">
<polygon fill="white" stroke="black" points="302.5,-84 302.5,-114 462.5,-114 462.5,-84 302.5,-84"/>
<text text-anchor="start" x="310.5" y="-102" font-family="Helvetica,sans-Serif" font-size="10.00">/home/fola/code/Ark</text>
<text text-anchor="middle" x="382.5" y="-91" font-family="Helvetica,sans-Serif" font-size="10.00">/src/arkreactor/VM/Future.cpp</text>
</a>
</g>
</g>
<!-- Node11&#45;&gt;Node12 -->
<g id="edge15" class="edge">
<title>Node11&#45;&gt;Node12</title>
<path fill="none" stroke="midnightblue" d="M383.81,-146.23C383.51,-135.57 383.16,-123.41 382.9,-114.25"/>
<polygon fill="midnightblue" stroke="midnightblue" points="380.31,-146.34 384.1,-156.23 387.31,-146.14 380.31,-146.34"/>
</g>
<!-- Node13 -->
<g id="node13" class="node">
<title>Node13</title>
<g id="a_node13"><a xlink:href="../../d1/db2/Closure_8cpp.html" target="_top" xlink:title=" ">
<polygon fill="white" stroke="black" points="480.5,-78.5 480.5,-119.5 616.5,-119.5 616.5,-78.5 480.5,-78.5"/>
<text text-anchor="start" x="488.5" y="-107.5" font-family="Helvetica,sans-Serif" font-size="10.00">/home/fola/code/Ark</text>
<text text-anchor="start" x="488.5" y="-96.5" font-family="Helvetica,sans-Serif" font-size="10.00">/src/arkreactor/VM/Value</text>
<text text-anchor="middle" x="548.5" y="-85.5" font-family="Helvetica,sans-Serif" font-size="10.00">/Closure.cpp</text>
</a>
</g>
</g>
<!-- Node11&#45;&gt;Node13 -->
<g id="edge16" class="edge">
<title>Node11&#45;&gt;Node13</title>
<path fill="none" stroke="midnightblue" d="M426.61,-152.4C450,-142.34 479.12,-129.83 503.03,-119.55"/>
<polygon fill="midnightblue" stroke="midnightblue" points="425.1,-149.24 417.29,-156.4 427.86,-155.67 425.1,-149.24"/>
</g>
<!-- Node14 -->
<g id="node14" class="node">
<title>Node14</title>
<g id="a_node14"><a xlink:href="../../d2/d27/VM_8cpp.html" target="_top" xlink:title=" ">
<polygon fill="white" stroke="black" points="139,-84 139,-114 284,-114 284,-84 139,-84"/>
<text text-anchor="start" x="147" y="-102" font-family="Helvetica,sans-Serif" font-size="10.00">/home/fola/code/Ark</text>
<text text-anchor="middle" x="211.5" y="-91" font-family="Helvetica,sans-Serif" font-size="10.00">/src/arkreactor/VM/VM.cpp</text>
</a>
</g>
</g>
<!-- Node11&#45;&gt;Node14 -->
<g id="edge17" class="edge">
<title>Node11&#45;&gt;Node14</title>
<path fill="none" stroke="midnightblue" d="M340.33,-152.5C311.03,-140.56 273.13,-125.11 246.03,-114.07"/>
<polygon fill="midnightblue" stroke="midnightblue" points="339.33,-155.87 349.91,-156.4 341.97,-149.39 339.33,-155.87"/>
</g>
<!-- Node22&#45;&gt;Node4 -->
<g id="edge27" class="edge">
<title>Node22&#45;&gt;Node4</title>
<path fill="none" stroke="midnightblue" d="M674.57,-448.74C688.04,-427.81 699.97,-399.5 684.5,-379 668.14,-357.32 600.93,-341.5 549.74,-332.31"/>
<polygon fill="midnightblue" stroke="midnightblue" points="671.53,-446.98 668.78,-457.21 677.31,-450.93 671.53,-446.98"/>
</g>
<!-- Node22&#45;&gt;Node20 -->
<g id="edge28" class="edge">
<title>Node22&#45;&gt;Node20</title>
<path fill="none" stroke="midnightblue" d="M636.15,-448.76C630.7,-439.35 624.77,-429.1 619.79,-420.51"/>
<polygon fill="midnightblue" stroke="midnightblue" points="633.13,-450.53 641.17,-457.43 639.19,-447.02 633.13,-450.53"/>
</g>
<!-- Node23&#45;&gt;Node24 -->
<g id="edge31" class="edge">
<title>Node23&#45;&gt;Node24</title>
<path fill="none" stroke="midnightblue" d="M1339.55,-461.94C1283.68,-450.08 1205.36,-433.45 1144.65,-420.56"/>
<polygon fill="midnightblue" stroke="midnightblue" points="1338.86,-465.37 1349.36,-464.02 1340.31,-458.52 1338.86,-465.37"/>
</g>
<!-- Node23&#45;&gt;Node26 -->
<g id="edge34" class="edge">
<title>Node23&#45;&gt;Node26</title>
<path fill="none" stroke="midnightblue" d="M1356.31,-453.33C1332.16,-442.78 1304.07,-430.51 1281.16,-420.51"/>
<polygon fill="midnightblue" stroke="midnightblue" points="1355.13,-456.63 1365.69,-457.43 1357.93,-450.22 1355.13,-456.63"/>
</g>
<!-- Node23&#45;&gt;Node28 -->
<g id="edge37" class="edge">
<title>Node23&#45;&gt;Node28</title>
<path fill="none" stroke="midnightblue" d="M1410.5,-447.3C1410.5,-438.3 1410.5,-428.65 1410.5,-420.51"/>
<polygon fill="midnightblue" stroke="midnightblue" points="1407,-447.43 1410.5,-457.43 1414,-447.43 1407,-447.43"/>
</g>
<!-- Node30 -->
<g id="node30" class="node">
<title>Node30</title>
<g id="a_node30"><a xlink:href="../../d4/daa/Pipeline_8hpp.html" target="_top" xlink:title="The Chain of Responsibility class for running nodes through MacroExecutors.">
<polygon fill="white" stroke="black" points="1511.5,-379.5 1511.5,-420.5 1633.5,-420.5 1633.5,-379.5 1511.5,-379.5"/>
<text text-anchor="start" x="1519.5" y="-408.5" font-family="Helvetica,sans-Serif" font-size="10.00">/home/fola/code/Ark</text>
<text text-anchor="start" x="1519.5" y="-397.5" font-family="Helvetica,sans-Serif" font-size="10.00">/include/Ark/Compiler</text>
<text text-anchor="middle" x="1572.5" y="-386.5" font-family="Helvetica,sans-Serif" font-size="10.00">/Macros/Pipeline.hpp</text>
</a>
</g>
</g>
<!-- Node23&#45;&gt;Node30 -->
<g id="edge40" class="edge">
<title>Node23&#45;&gt;Node30</title>
<path fill="none" stroke="midnightblue" d="M1461.55,-453.05C1483.9,-442.57 1509.78,-430.42 1530.92,-420.51"/>
<polygon fill="midnightblue" stroke="midnightblue" points="1459.79,-450.01 1452.22,-457.43 1462.76,-456.35 1459.79,-450.01"/>
</g>
<!-- Node23&#45;&gt;Node31 -->
<g id="edge46" class="edge">
<title>Node23&#45;&gt;Node31</title>
<path fill="none" stroke="midnightblue" d="M1482.02,-471.89C1530.48,-465.65 1594.23,-451.78 1642.5,-421 1658.63,-410.71 1689.45,-368.25 1707.14,-342.72"/>
<polygon fill="midnightblue" stroke="midnightblue" points="1481.44,-468.44 1471.93,-473.11 1482.27,-475.39 1481.44,-468.44"/>
</g>
<!-- Node32 -->
<g id="node32" class="node">
<title>Node32</title>
<g id="a_node32"><a xlink:href="../../d1/da9/Executor_8cpp.html" target="_top" xlink:title=" ">
<polygon fill="white" stroke="black" points="1698.5,-223.5 1698.5,-264.5 1832.5,-264.5 1832.5,-223.5 1698.5,-223.5"/>
<text text-anchor="start" x="1706.5" y="-252.5" font-family="Helvetica,sans-Serif" font-size="10.00">/home/fola/code/Ark</text>
<text text-anchor="start" x="1706.5" y="-241.5" font-family="Helvetica,sans-Serif" font-size="10.00">/src/arkreactor/Compiler</text>
<text text-anchor="middle" x="1765.5" y="-230.5" font-family="Helvetica,sans-Serif" font-size="10.00">/Macros/Executor.cpp</text>
</a>
</g>
</g>
<!-- Node23&#45;&gt;Node32 -->
<g id="edge47" class="edge">
<title>Node23&#45;&gt;Node32</title>
<path fill="none" stroke="midnightblue" d="M1481.91,-469.22C1536.3,-461.56 1612.18,-447.1 1674.5,-421 1732.49,-396.72 1762.73,-398.37 1792.5,-343 1806.04,-317.82 1791.63,-285.26 1779.22,-264.75"/>
<polygon fill="midnightblue" stroke="midnightblue" points="1481.11,-465.8 1471.67,-470.62 1482.05,-472.73 1481.11,-465.8"/>
</g>
<!-- Node24&#45;&gt;Node21 -->
<g id="edge33" class="edge">
<title>Node24&#45;&gt;Node21</title>
<path fill="none" stroke="midnightblue" d="M949.93,-378.62C914.49,-369.33 881,-357.22 870.5,-343 859.41,-327.98 859.04,-315.73 870.5,-301 889.34,-276.79 966.38,-261.37 1024.24,-252.97"/>
<polygon fill="midnightblue" stroke="midnightblue" points="949.41,-382.09 959.96,-381.16 951.13,-375.31 949.41,-382.09"/>
</g>
<!-- Node25 -->
<g id="node25" class="node">
<title>Node25</title>
<g id="a_node25"><a xlink:href="../../de/d04/Conditional_8cpp.html" target="_top" xlink:title=" ">
<polygon fill="white" stroke="black" points="879.5,-301.5 879.5,-342.5 1063.5,-342.5 1063.5,-301.5 879.5,-301.5"/>
<text text-anchor="start" x="887.5" y="-330.5" font-family="Helvetica,sans-Serif" font-size="10.00">/home/fola/code/Ark</text>
<text text-anchor="start" x="887.5" y="-319.5" font-family="Helvetica,sans-Serif" font-size="10.00">/src/arkreactor/Compiler</text>
<text text-anchor="middle" x="971.5" y="-308.5" font-family="Helvetica,sans-Serif" font-size="10.00">/Macros/Executors/Conditional.cpp</text>
</a>
</g>
</g>
<!-- Node24&#45;&gt;Node25 -->
<g id="edge32" class="edge">
<title>Node24&#45;&gt;Node25</title>
<path fill="none" stroke="midnightblue" d="M1024.25,-372.49C1013.74,-362.63 1002.01,-351.63 992.29,-342.51"/>
<polygon fill="midnightblue" stroke="midnightblue" points="1021.95,-375.14 1031.64,-379.43 1026.74,-370.03 1021.95,-375.14"/>
</g>
<!-- Node26&#45;&gt;Node21 -->
<g id="edge36" class="edge">
<title>Node26&#45;&gt;Node21</title>
<path fill="none" stroke="midnightblue" d="M1153.98,-375.97C1137.51,-367.94 1121.82,-357.23 1110.5,-343 1092.7,-320.62 1089.95,-286.38 1090.25,-264.86"/>
<polygon fill="midnightblue" stroke="midnightblue" points="1152.64,-379.21 1163.19,-380.16 1155.54,-372.84 1152.64,-379.21"/>
</g>
<!-- Node27 -->
<g id="node27" class="node">
<title>Node27</title>
<g id="a_node27"><a xlink:href="../../d6/df2/List_8cpp.html" target="_top" xlink:title=" ">
<polygon fill="white" stroke="black" points="1119.5,-301.5 1119.5,-342.5 1265.5,-342.5 1265.5,-301.5 1119.5,-301.5"/>
<text text-anchor="start" x="1127.5" y="-330.5" font-family="Helvetica,sans-Serif" font-size="10.00">/home/fola/code/Ark</text>
<text text-anchor="start" x="1127.5" y="-319.5" font-family="Helvetica,sans-Serif" font-size="10.00">/src/arkreactor/Compiler</text>
<text text-anchor="middle" x="1192.5" y="-308.5" font-family="Helvetica,sans-Serif" font-size="10.00">/Macros/Executors/List.cpp</text>
</a>
</g>
</g>
<!-- Node26&#45;&gt;Node27 -->
<g id="edge35" class="edge">
<title>Node26&#45;&gt;Node27</title>
<path fill="none" stroke="midnightblue" d="M1220.15,-370.76C1214.7,-361.35 1208.77,-351.1 1203.79,-342.51"/>
<polygon fill="midnightblue" stroke="midnightblue" points="1217.13,-372.53 1225.17,-379.43 1223.19,-369.02 1217.13,-372.53"/>
</g>
<!-- Node28&#45;&gt;Node21 -->
<g id="edge39" class="edge">
<title>Node28&#45;&gt;Node21</title>
<path fill="none" stroke="midnightblue" d="M1361.36,-374.39C1345.43,-365.45 1328.12,-354.65 1313.5,-343 1293.58,-327.12 1296.09,-314.52 1274.5,-301 1239.31,-278.95 1194.85,-265.08 1158.57,-256.66"/>
<polygon fill="midnightblue" stroke="midnightblue" points="1360.1,-377.69 1370.55,-379.43 1363.47,-371.55 1360.1,-377.69"/>
</g>
<!-- Node29 -->
<g id="node29" class="node">
<title>Node29</title>
<g id="a_node29"><a xlink:href="../../d8/d0b/Symbol_8cpp.html" target="_top" xlink:title=" ">
<polygon fill="white" stroke="black" points="1322,-301.5 1322,-342.5 1487,-342.5 1487,-301.5 1322,-301.5"/>
<text text-anchor="start" x="1330" y="-330.5" font-family="Helvetica,sans-Serif" font-size="10.00">/home/fola/code/Ark</text>
<text text-anchor="start" x="1330" y="-319.5" font-family="Helvetica,sans-Serif" font-size="10.00">/src/arkreactor/Compiler</text>
<text text-anchor="middle" x="1404.5" y="-308.5" font-family="Helvetica,sans-Serif" font-size="10.00">/Macros/Executors/Symbol.cpp</text>
</a>
</g>
</g>
<!-- Node28&#45;&gt;Node29 -->
<g id="edge38" class="edge">
<title>Node28&#45;&gt;Node29</title>
<path fill="none" stroke="midnightblue" d="M1408.15,-369.3C1407.44,-360.3 1406.68,-350.65 1406.04,-342.51"/>
<polygon fill="midnightblue" stroke="midnightblue" points="1404.68,-369.73 1408.95,-379.43 1411.66,-369.18 1404.68,-369.73"/>
</g>
<!-- Node30&#45;&gt;Node31 -->
<g id="edge41" class="edge">
<title>Node30&#45;&gt;Node31</title>
<path fill="none" stroke="midnightblue" d="M1619.69,-374.77C1639.98,-364.35 1663.37,-352.34 1682.52,-342.51"/>
<polygon fill="midnightblue" stroke="midnightblue" points="1617.91,-371.75 1610.61,-379.43 1621.11,-377.97 1617.91,-371.75"/>
</g>
<!-- Node33 -->
<g id="node33" class="node">
<title>Node33</title>
<g id="a_node33"><a xlink:href="../../dd/d19/Pipeline_8cpp.html" target="_top" xlink:title=" ">
<polygon fill="white" stroke="black" points="1505.5,-301.5 1505.5,-342.5 1639.5,-342.5 1639.5,-301.5 1505.5,-301.5"/>
<text text-anchor="start" x="1513.5" y="-330.5" font-family="Helvetica,sans-Serif" font-size="10.00">/home/fola/code/Ark</text>
<text text-anchor="start" x="1513.5" y="-319.5" font-family="Helvetica,sans-Serif" font-size="10.00">/src/arkreactor/Compiler</text>
<text text-anchor="middle" x="1572.5" y="-308.5" font-family="Helvetica,sans-Serif" font-size="10.00">/Macros/Pipeline.cpp</text>
</a>
</g>
</g>
<!-- Node30&#45;&gt;Node33 -->
<g id="edge45" class="edge">
<title>Node30&#45;&gt;Node33</title>
<path fill="none" stroke="midnightblue" d="M1572.5,-369.3C1572.5,-360.3 1572.5,-350.65 1572.5,-342.51"/>
<polygon fill="midnightblue" stroke="midnightblue" points="1569,-369.43 1572.5,-379.43 1576,-369.43 1569,-369.43"/>
</g>
<!-- Node31&#45;&gt;Node16 -->
<g id="edge42" class="edge">
<title>Node31&#45;&gt;Node16</title>
<path fill="none" stroke="midnightblue" d="M1647.83,-301.1C1368.71,-255.91 1292.61,-292.62 1015.5,-265 991.68,-262.63 965.7,-259.16 942.65,-255.78"/>
<polygon fill="midnightblue" stroke="midnightblue" points="1647.41,-304.58 1657.85,-302.75 1648.55,-297.67 1647.41,-304.58"/>
</g>
<!-- Node31&#45;&gt;Node21 -->
<g id="edge44" class="edge">
<title>Node31&#45;&gt;Node21</title>
<path fill="none" stroke="midnightblue" d="M1647.82,-301.05C1466.16,-267.66 1262.28,-253.57 1158.9,-248.06"/>
<polygon fill="midnightblue" stroke="midnightblue" points="1647.35,-304.52 1657.82,-302.91 1648.63,-297.64 1647.35,-304.52"/>
</g>
<!-- Node31&#45;&gt;Node32 -->
<g id="edge43" class="edge">
<title>Node31&#45;&gt;Node32</title>
<path fill="none" stroke="midnightblue" d="M1737.22,-292.76C1742.79,-283.35 1748.86,-273.1 1753.95,-264.51"/>
<polygon fill="midnightblue" stroke="midnightblue" points="1734.17,-291.04 1732.09,-301.43 1740.2,-294.61 1734.17,-291.04"/>
</g>
<!-- Node34&#45;&gt;Node4 -->
<g id="edge53" class="edge">
<title>Node34&#45;&gt;Node4</title>
<path fill="none" stroke="midnightblue" d="M837.86,-451.57C825.11,-442.32 810.9,-431.53 798.5,-421 778.14,-403.7 779.07,-391.58 755.5,-379 690.52,-344.33 605.97,-331.11 549.6,-326.08"/>
<polygon fill="midnightblue" stroke="midnightblue" points="835.83,-454.43 845.99,-457.42 839.91,-448.74 835.83,-454.43"/>
</g>
<!-- Node35 -->
<g id="node35" class="node">
<title>Node35</title>
<g id="a_node35"><a xlink:href="../../d9/d93/ValTableElem_8cpp.html" target="_top" xlink:title=" ">
<polygon fill="white" stroke="black" points="807.5,-379.5 807.5,-420.5 941.5,-420.5 941.5,-379.5 807.5,-379.5"/>
<text text-anchor="start" x="815.5" y="-408.5" font-family="Helvetica,sans-Serif" font-size="10.00">/home/fola/code/Ark</text>
<text text-anchor="start" x="815.5" y="-397.5" font-family="Helvetica,sans-Serif" font-size="10.00">/src/arkreactor/Compiler</text>
<text text-anchor="middle" x="874.5" y="-386.5" font-family="Helvetica,sans-Serif" font-size="10.00">/ValTableElem.cpp</text>
</a>
</g>
</g>
<!-- Node34&#45;&gt;Node35 -->
<g id="edge54" class="edge">
<title>Node34&#45;&gt;Node35</title>
<path fill="none" stroke="midnightblue" d="M874.5,-447.3C874.5,-438.3 874.5,-428.65 874.5,-420.51"/>
<polygon fill="midnightblue" stroke="midnightblue" points="871,-447.43 874.5,-457.43 878,-447.43 871,-447.43"/>
</g>
</g>
</svg>
