<?xml version="1.0" encoding="UTF-8" standalone="no"?>
<!DOCTYPE svg PUBLIC "-//W3C//DTD SVG 1.1//EN"
 "http://www.w3.org/Graphics/SVG/1.1/DTD/svg11.dtd">
<!-- Generated by graphviz version 2.49.0 (20210828.1703)
 -->
<!-- Title: C:/Users/folae/Documents/Code/Big&#45;Projects/ArkScript/Ark/include/Ark/VM/Value.hpp Pages: 1 -->
<svg width="1815pt" height="629pt"
 viewBox="0.00 0.00 1815.18 629.00" xmlns="http://www.w3.org/2000/svg" xmlns:xlink="http://www.w3.org/1999/xlink">
<g id="graph0" class="graph" transform="scale(1 1) rotate(0) translate(4 625)">
<title>C:/Users/folae/Documents/Code/Big&#45;Projects/ArkScript/Ark/include/Ark/VM/Value.hpp</title>
<polygon fill="white" stroke="transparent" points="-4,4 -4,-625 1811.18,-625 1811.18,4 -4,4"/>
<!-- Node1 -->
<g id="node1" class="node">
<title>Node1</title>
<g id="a_node1"><a xlink:title=" ">
<polygon fill="#bfbfbf" stroke="black" points="1086.18,-579.5 1086.18,-620.5 1237.18,-620.5 1237.18,-579.5 1086.18,-579.5"/>
<text text-anchor="start" x="1094.18" y="-608.5" font-family="Helvetica,sans-Serif" font-size="10.00">C:/Users/folae/Documents</text>
<text text-anchor="start" x="1094.18" y="-597.5" font-family="Helvetica,sans-Serif" font-size="10.00">/Code/Big&#45;Projects/ArkScript</text>
<text text-anchor="middle" x="1161.68" y="-586.5" font-family="Helvetica,sans-Serif" font-size="10.00">/Ark/include/Ark/VM/Value.hpp</text>
</a>
</g>
</g>
<!-- Node2 -->
<g id="node2" class="node">
<title>Node2</title>
<g id="a_node2"><a xlink:href="../../da/d84/Builtins_8hpp.html" target="_top" xlink:title="Host the declaration of all the ArkScript builtins.">
<polygon fill="white" stroke="black" points="32.68,-418 32.68,-459 208.68,-459 208.68,-418 32.68,-418"/>
<text text-anchor="start" x="40.68" y="-447" font-family="Helvetica,sans-Serif" font-size="10.00">C:/Users/folae/Documents</text>
<text text-anchor="start" x="40.68" y="-436" font-family="Helvetica,sans-Serif" font-size="10.00">/Code/Big&#45;Projects/ArkScript</text>
<text text-anchor="middle" x="120.68" y="-425" font-family="Helvetica,sans-Serif" font-size="10.00">/Ark/include/Ark/Builtins/Builtins.hpp</text>
</a>
</g>
</g>
<!-- Node1&#45;&gt;Node2 -->
<g id="edge1" class="edge">
<title>Node1&#45;&gt;Node2</title>
<path fill="none" stroke="midnightblue" d="M1075.77,-595.65C953.67,-589.93 723.3,-575.57 529.68,-543 388.73,-519.29 356.14,-500.5 217.68,-465 210.18,-463.08 202.35,-461.05 194.54,-459.02"/>
<polygon fill="midnightblue" stroke="midnightblue" points="1075.65,-599.15 1085.8,-596.12 1075.97,-592.16 1075.65,-599.15"/>
</g>
<!-- Node3 -->
<g id="node3" class="node">
<title>Node3</title>
<g id="a_node3"><a xlink:href="../../d1/d91/VM_8hpp.html" target="_top" xlink:title="The ArkScript virtual machine.">
<polygon fill="white" stroke="black" points="991.68,-156.5 991.68,-197.5 1133.68,-197.5 1133.68,-156.5 991.68,-156.5"/>
<text text-anchor="start" x="999.68" y="-185.5" font-family="Helvetica,sans-Serif" font-size="10.00">C:/Users/folae/Documents</text>
<text text-anchor="start" x="999.68" y="-174.5" font-family="Helvetica,sans-Serif" font-size="10.00">/Code/Big&#45;Projects/ArkScript</text>
<text text-anchor="middle" x="1062.68" y="-163.5" font-family="Helvetica,sans-Serif" font-size="10.00">/Ark/include/Ark/VM/VM.hpp</text>
</a>
</g>
</g>
<!-- Node1&#45;&gt;Node3 -->
<g id="edge42" class="edge">
<title>Node1&#45;&gt;Node3</title>
<path fill="none" stroke="midnightblue" d="M1139.28,-571C1133.74,-562.5 1128.56,-552.79 1125.68,-543 1120.42,-525.09 1123.16,-519.5 1125.68,-501 1127.93,-484.55 1133.44,-481.45 1135.68,-465 1138.87,-441.66 1139.23,-435.29 1135.68,-412 1123.19,-329.96 1087.37,-237.13 1071.01,-197.55"/>
<polygon fill="midnightblue" stroke="midnightblue" points="1136.54,-573.18 1145.12,-579.39 1142.28,-569.18 1136.54,-573.18"/>
</g>
<!-- Node13 -->
<g id="node13" class="node">
<title>Node13</title>
<g id="a_node13"><a xlink:href="../../d2/de9/Exceptions_8hpp.html" target="_top" xlink:title="ArkScript homemade exceptions.">
<polygon fill="white" stroke="black" points="539.18,-501.5 539.18,-542.5 696.18,-542.5 696.18,-501.5 539.18,-501.5"/>
<text text-anchor="start" x="547.18" y="-530.5" font-family="Helvetica,sans-Serif" font-size="10.00">C:/Users/folae/Documents</text>
<text text-anchor="start" x="547.18" y="-519.5" font-family="Helvetica,sans-Serif" font-size="10.00">/Code/Big&#45;Projects/ArkScript</text>
<text text-anchor="middle" x="617.68" y="-508.5" font-family="Helvetica,sans-Serif" font-size="10.00">/Ark/include/Ark/Exceptions.hpp</text>
</a>
</g>
</g>
<!-- Node1&#45;&gt;Node13 -->
<g id="edge13" class="edge">
<title>Node1&#45;&gt;Node13</title>
<path fill="none" stroke="midnightblue" d="M1075.86,-587.01C971.58,-572.44 797.08,-548.06 696.21,-533.97"/>
<polygon fill="midnightblue" stroke="midnightblue" points="1075.66,-590.52 1086.04,-588.43 1076.62,-583.58 1075.66,-590.52"/>
</g>
<!-- Node16 -->
<g id="node16" class="node">
<title>Node16</title>
<g id="a_node16"><a xlink:href="../../d0/db5/State_8hpp.html" target="_top" xlink:title="State used by the virtual machine: it loads the bytecode, can compile it if needed,...">
<polygon fill="white" stroke="black" points="618.18,-240 618.18,-281 767.18,-281 767.18,-240 618.18,-240"/>
<text text-anchor="start" x="626.18" y="-269" font-family="Helvetica,sans-Serif" font-size="10.00">C:/Users/folae/Documents</text>
<text text-anchor="start" x="626.18" y="-258" font-family="Helvetica,sans-Serif" font-size="10.00">/Code/Big&#45;Projects/ArkScript</text>
<text text-anchor="middle" x="692.68" y="-247" font-family="Helvetica,sans-Serif" font-size="10.00">/Ark/include/Ark/VM/State.hpp</text>
</a>
</g>
</g>
<!-- Node1&#45;&gt;Node16 -->
<g id="edge41" class="edge">
<title>Node1&#45;&gt;Node16</title>
<path fill="none" stroke="midnightblue" d="M1097.45,-575.44C1047.8,-554.01 981.09,-517.64 941.68,-465 902.53,-412.7 949.37,-369.7 903.68,-323 868.2,-286.72 812.63,-271.54 767.43,-265.32"/>
<polygon fill="midnightblue" stroke="midnightblue" points="1096.25,-578.74 1106.82,-579.4 1098.97,-572.29 1096.25,-578.74"/>
</g>
<!-- Node23 -->
<g id="node23" class="node">
<title>Node23</title>
<g id="a_node23"><a xlink:href="../../db/d5e/TypeChecker_8hpp.html" target="_top" xlink:title=" ">
<polygon fill="white" stroke="black" points="1135.18,-501.5 1135.18,-542.5 1300.18,-542.5 1300.18,-501.5 1135.18,-501.5"/>
<text text-anchor="start" x="1143.18" y="-530.5" font-family="Helvetica,sans-Serif" font-size="10.00">C:/Users/folae/Documents</text>
<text text-anchor="start" x="1143.18" y="-519.5" font-family="Helvetica,sans-Serif" font-size="10.00">/Code/Big&#45;Projects/ArkScript</text>
<text text-anchor="middle" x="1217.68" y="-508.5" font-family="Helvetica,sans-Serif" font-size="10.00">/Ark/include/Ark/TypeChecker.hpp</text>
</a>
</g>
</g>
<!-- Node1&#45;&gt;Node23 -->
<g id="edge31" class="edge">
<title>Node1&#45;&gt;Node23</title>
<path fill="none" stroke="midnightblue" d="M1182.07,-571.34C1189.11,-561.78 1196.85,-551.27 1203.31,-542.51"/>
<polygon fill="midnightblue" stroke="midnightblue" points="1179.22,-569.3 1176.11,-579.43 1184.86,-573.45 1179.22,-569.3"/>
</g>
<!-- Node24 -->
<g id="node24" class="node">
<title>Node24</title>
<g id="a_node24"><a xlink:href="../../db/df6/ExecutionContext_8hpp.html" target="_top" xlink:title="Keeping track of the internal data needed by the VM.">
<polygon fill="white" stroke="black" points="1221.18,-418 1221.18,-459 1424.18,-459 1424.18,-418 1221.18,-418"/>
<text text-anchor="start" x="1229.18" y="-447" font-family="Helvetica,sans-Serif" font-size="10.00">C:/Users/folae/Documents</text>
<text text-anchor="start" x="1229.18" y="-436" font-family="Helvetica,sans-Serif" font-size="10.00">/Code/Big&#45;Projects/ArkScript</text>
<text text-anchor="middle" x="1322.68" y="-425" font-family="Helvetica,sans-Serif" font-size="10.00">/Ark/include/Ark/VM/ExecutionContext.hpp</text>
</a>
</g>
</g>
<!-- Node1&#45;&gt;Node24 -->
<g id="edge34" class="edge">
<title>Node1&#45;&gt;Node24</title>
<path fill="none" stroke="midnightblue" d="M1247.29,-583.79C1270.84,-575.51 1294.15,-562.73 1309.68,-543 1328.51,-519.1 1328.22,-481.99 1325.8,-459.31"/>
<polygon fill="midnightblue" stroke="midnightblue" points="1245.98,-580.53 1237.56,-586.96 1248.15,-587.19 1245.98,-580.53"/>
</g>
<!-- Node25 -->
<g id="node25" class="node">
<title>Node25</title>
<g id="a_node25"><a xlink:href="../../d8/dcd/Scope_8hpp.html" target="_top" xlink:title="The virtual machine scope system.">
<polygon fill="white" stroke="black" points="1368.68,-501.5 1368.68,-542.5 1522.68,-542.5 1522.68,-501.5 1368.68,-501.5"/>
<text text-anchor="start" x="1376.68" y="-530.5" font-family="Helvetica,sans-Serif" font-size="10.00">C:/Users/folae/Documents</text>
<text text-anchor="start" x="1376.68" y="-519.5" font-family="Helvetica,sans-Serif" font-size="10.00">/Code/Big&#45;Projects/ArkScript</text>
<text text-anchor="middle" x="1445.68" y="-508.5" font-family="Helvetica,sans-Serif" font-size="10.00">/Ark/include/Ark/VM/Scope.hpp</text>
</a>
</g>
</g>
<!-- Node1&#45;&gt;Node25 -->
<g id="edge36" class="edge">
<title>Node1&#45;&gt;Node25</title>
<path fill="none" stroke="midnightblue" d="M1244.69,-576.79C1285.27,-565.93 1333.66,-552.98 1372.8,-542.51"/>
<polygon fill="midnightblue" stroke="midnightblue" points="1243.58,-573.46 1234.82,-579.43 1245.39,-580.22 1243.58,-573.46"/>
</g>
<!-- Node28 -->
<g id="node28" class="node">
<title>Node28</title>
<g id="a_node28"><a xlink:href="../../d1/d74/Value_8cpp.html" target="_top" xlink:title=" ">
<polygon fill="white" stroke="black" points="1540.68,-501.5 1540.68,-542.5 1702.68,-542.5 1702.68,-501.5 1540.68,-501.5"/>
<text text-anchor="start" x="1548.68" y="-530.5" font-family="Helvetica,sans-Serif" font-size="10.00">C:/Users/folae/Documents</text>
<text text-anchor="start" x="1548.68" y="-519.5" font-family="Helvetica,sans-Serif" font-size="10.00">/Code/Big&#45;Projects/ArkScript</text>
<text text-anchor="middle" x="1621.68" y="-508.5" font-family="Helvetica,sans-Serif" font-size="10.00">/Ark/src/arkreactor/VM/Value.cpp</text>
</a>
</g>
</g>
<!-- Node1&#45;&gt;Node28 -->
<g id="edge43" class="edge">
<title>Node1&#45;&gt;Node28</title>
<path fill="none" stroke="midnightblue" d="M1247.77,-587.67C1322.93,-577.37 1434.85,-561.07 1531.68,-543 1534.52,-542.47 1537.4,-541.92 1540.3,-541.35"/>
<polygon fill="midnightblue" stroke="midnightblue" points="1246.84,-584.27 1237.41,-589.08 1247.79,-591.2 1246.84,-584.27"/>
</g>
<!-- Node2&#45;&gt;Node3 -->
<g id="edge2" class="edge">
<title>Node2&#45;&gt;Node3</title>
<path fill="none" stroke="midnightblue" d="M198.72,-415.68C205.11,-414.29 211.49,-413.04 217.68,-412 322.08,-394.47 596.92,-421.1 692.68,-376 722.26,-362.07 717,-341.88 743.68,-323 826.13,-264.68 935.78,-221.03 1002.7,-197.54"/>
<polygon fill="midnightblue" stroke="midnightblue" points="197.68,-412.33 188.71,-417.96 199.24,-419.15 197.68,-412.33"/>
</g>
<!-- Node10 -->
<g id="node10" class="node">
<title>Node10</title>
<g id="a_node10"><a xlink:href="../../d5/d36/BytecodeReader_8cpp.html" target="_top" xlink:title=" ">
<polygon fill="white" stroke="black" points="49.68,-323.5 49.68,-375.5 191.68,-375.5 191.68,-323.5 49.68,-323.5"/>
<text text-anchor="start" x="57.68" y="-363.5" font-family="Helvetica,sans-Serif" font-size="10.00">C:/Users/folae/Documents</text>
<text text-anchor="start" x="57.68" y="-352.5" font-family="Helvetica,sans-Serif" font-size="10.00">/Code/Big&#45;Projects/ArkScript</text>
<text text-anchor="start" x="57.68" y="-341.5" font-family="Helvetica,sans-Serif" font-size="10.00">/Ark/src/arkreactor/Compiler</text>
<text text-anchor="middle" x="120.68" y="-330.5" font-family="Helvetica,sans-Serif" font-size="10.00">/BytecodeReader.cpp</text>
</a>
</g>
</g>
<!-- Node2&#45;&gt;Node10 -->
<g id="edge10" class="edge">
<title>Node2&#45;&gt;Node10</title>
<path fill="none" stroke="midnightblue" d="M120.68,-407.51C120.68,-397.17 120.68,-385.71 120.68,-375.79"/>
<polygon fill="midnightblue" stroke="midnightblue" points="117.18,-407.76 120.68,-417.76 124.18,-407.76 117.18,-407.76"/>
</g>
<!-- Node11 -->
<g id="node11" class="node">
<title>Node11</title>
<g id="a_node11"><a xlink:href="../../de/dfa/Compiler_8cpp.html" target="_top" xlink:title=" ">
<polygon fill="white" stroke="black" points="265.68,-234.5 265.68,-286.5 407.68,-286.5 407.68,-234.5 265.68,-234.5"/>
<text text-anchor="start" x="273.68" y="-274.5" font-family="Helvetica,sans-Serif" font-size="10.00">C:/Users/folae/Documents</text>
<text text-anchor="start" x="273.68" y="-263.5" font-family="Helvetica,sans-Serif" font-size="10.00">/Code/Big&#45;Projects/ArkScript</text>
<text text-anchor="start" x="273.68" y="-252.5" font-family="Helvetica,sans-Serif" font-size="10.00">/Ark/src/arkreactor/Compiler</text>
<text text-anchor="middle" x="336.68" y="-241.5" font-family="Helvetica,sans-Serif" font-size="10.00">/Compiler.cpp</text>
</a>
</g>
</g>
<!-- Node2&#45;&gt;Node11 -->
<g id="edge11" class="edge">
<title>Node2&#45;&gt;Node11</title>
<path fill="none" stroke="midnightblue" d="M154.94,-411.7C169.2,-400.82 185.85,-387.94 200.68,-376 238.08,-345.91 280.22,-310.13 307.55,-286.67"/>
<polygon fill="midnightblue" stroke="midnightblue" points="152.69,-409.01 146.85,-417.85 156.93,-414.58 152.69,-409.01"/>
</g>
<!-- Node12 -->
<g id="node12" class="node">
<title>Node12</title>
<g id="a_node12"><a xlink:href="../../d6/d69/Processor_8cpp.html" target="_top" xlink:title=" ">
<polygon fill="white" stroke="black" points="310.68,-323.5 310.68,-375.5 452.68,-375.5 452.68,-323.5 310.68,-323.5"/>
<text text-anchor="start" x="318.68" y="-363.5" font-family="Helvetica,sans-Serif" font-size="10.00">C:/Users/folae/Documents</text>
<text text-anchor="start" x="318.68" y="-352.5" font-family="Helvetica,sans-Serif" font-size="10.00">/Code/Big&#45;Projects/ArkScript</text>
<text text-anchor="start" x="318.68" y="-341.5" font-family="Helvetica,sans-Serif" font-size="10.00">/Ark/src/arkreactor/Compiler</text>
<text text-anchor="middle" x="381.68" y="-330.5" font-family="Helvetica,sans-Serif" font-size="10.00">/Macros/Processor.cpp</text>
</a>
</g>
</g>
<!-- Node2&#45;&gt;Node12 -->
<g id="edge12" class="edge">
<title>Node2&#45;&gt;Node12</title>
<path fill="none" stroke="midnightblue" d="M189.04,-414.72C226.35,-402.28 272.51,-386.89 310.29,-374.3"/>
<polygon fill="midnightblue" stroke="midnightblue" points="187.64,-411.49 179.26,-417.98 189.85,-418.13 187.64,-411.49"/>
</g>
<!-- Node4 -->
<g id="node4" class="node">
<title>Node4</title>
<g id="a_node4"><a xlink:href="../../d3/d7e/Ark_8hpp.html" target="_top" xlink:title="Includes the needed files to start using ArkScript.">
<polygon fill="white" stroke="black" points="461.68,-78.5 461.68,-119.5 603.68,-119.5 603.68,-78.5 461.68,-78.5"/>
<text text-anchor="start" x="469.68" y="-107.5" font-family="Helvetica,sans-Serif" font-size="10.00">C:/Users/folae/Documents</text>
<text text-anchor="start" x="469.68" y="-96.5" font-family="Helvetica,sans-Serif" font-size="10.00">/Code/Big&#45;Projects/ArkScript</text>
<text text-anchor="middle" x="532.68" y="-85.5" font-family="Helvetica,sans-Serif" font-size="10.00">/Ark/include/Ark/Ark.hpp</text>
</a>
</g>
</g>
<!-- Node3&#45;&gt;Node4 -->
<g id="edge3" class="edge">
<title>Node3&#45;&gt;Node4</title>
<path fill="none" stroke="midnightblue" d="M981.3,-166.42C861.5,-152.22 647.98,-126.58 612.68,-120 609.73,-119.45 606.72,-118.85 603.69,-118.22"/>
<polygon fill="midnightblue" stroke="midnightblue" points="981.19,-169.93 991.53,-167.63 982.01,-162.97 981.19,-169.93"/>
</g>
<!-- Node7 -->
<g id="node7" class="node">
<title>Node7</title>
<g id="a_node7"><a xlink:href="../../d5/da5/Repl_8hpp.html" target="_top" xlink:title="ArkScript REPL &#45; Read Eval Print Loop.">
<polygon fill="white" stroke="black" points="621.68,-78.5 621.68,-119.5 777.68,-119.5 777.68,-78.5 621.68,-78.5"/>
<text text-anchor="start" x="629.68" y="-107.5" font-family="Helvetica,sans-Serif" font-size="10.00">C:/Users/folae/Documents</text>
<text text-anchor="start" x="629.68" y="-96.5" font-family="Helvetica,sans-Serif" font-size="10.00">/Code/Big&#45;Projects/ArkScript</text>
<text text-anchor="middle" x="699.68" y="-85.5" font-family="Helvetica,sans-Serif" font-size="10.00">/Ark/include/Ark/REPL/Repl.hpp</text>
</a>
</g>
</g>
<!-- Node3&#45;&gt;Node7 -->
<g id="edge6" class="edge">
<title>Node3&#45;&gt;Node7</title>
<path fill="none" stroke="midnightblue" d="M981.45,-158.99C920.58,-146.25 837.8,-128.92 777.72,-116.34"/>
<polygon fill="midnightblue" stroke="midnightblue" points="980.9,-162.45 991.4,-161.08 982.33,-155.6 980.9,-162.45"/>
</g>
<!-- Node9 -->
<g id="node9" class="node">
<title>Node9</title>
<g id="a_node9"><a xlink:href="../../d2/d27/VM_8cpp.html" target="_top" xlink:title=" ">
<polygon fill="white" stroke="black" points="1089.68,-78.5 1089.68,-119.5 1241.68,-119.5 1241.68,-78.5 1089.68,-78.5"/>
<text text-anchor="start" x="1097.68" y="-107.5" font-family="Helvetica,sans-Serif" font-size="10.00">C:/Users/folae/Documents</text>
<text text-anchor="start" x="1097.68" y="-96.5" font-family="Helvetica,sans-Serif" font-size="10.00">/Code/Big&#45;Projects/ArkScript</text>
<text text-anchor="middle" x="1165.68" y="-85.5" font-family="Helvetica,sans-Serif" font-size="10.00">/Ark/src/arkreactor/VM/VM.cpp</text>
</a>
</g>
</g>
<!-- Node3&#45;&gt;Node9 -->
<g id="edge9" class="edge">
<title>Node3&#45;&gt;Node9</title>
<path fill="none" stroke="midnightblue" d="M1097.45,-150.35C1111.11,-140.27 1126.53,-128.89 1139.25,-119.51"/>
<polygon fill="midnightblue" stroke="midnightblue" points="1095.18,-147.67 1089.21,-156.43 1099.33,-153.31 1095.18,-147.67"/>
</g>
<!-- Node5 -->
<g id="node5" class="node">
<title>Node5</title>
<g id="a_node5"><a xlink:href="../../dc/d32/Ark_8cpp.html" target="_top" xlink:title=" ">
<polygon fill="white" stroke="black" points="381.68,-0.5 381.68,-41.5 523.68,-41.5 523.68,-0.5 381.68,-0.5"/>
<text text-anchor="start" x="389.68" y="-29.5" font-family="Helvetica,sans-Serif" font-size="10.00">C:/Users/folae/Documents</text>
<text text-anchor="start" x="389.68" y="-18.5" font-family="Helvetica,sans-Serif" font-size="10.00">/Code/Big&#45;Projects/ArkScript</text>
<text text-anchor="middle" x="452.68" y="-7.5" font-family="Helvetica,sans-Serif" font-size="10.00">/Ark/src/arkreactor/Ark.cpp</text>
</a>
</g>
</g>
<!-- Node4&#45;&gt;Node5 -->
<g id="edge4" class="edge">
<title>Node4&#45;&gt;Node5</title>
<path fill="none" stroke="midnightblue" d="M504.78,-71.49C494.4,-61.63 482.82,-50.63 473.22,-41.51"/>
<polygon fill="midnightblue" stroke="midnightblue" points="502.42,-74.08 512.08,-78.43 507.24,-69 502.42,-74.08"/>
</g>
<!-- Node6 -->
<g id="node6" class="node">
<title>Node6</title>
<g id="a_node6"><a xlink:href="../../df/d0a/main_8cpp.html" target="_top" xlink:title=" ">
<polygon fill="white" stroke="black" points="541.68,-0.5 541.68,-41.5 683.68,-41.5 683.68,-0.5 541.68,-0.5"/>
<text text-anchor="start" x="549.68" y="-29.5" font-family="Helvetica,sans-Serif" font-size="10.00">C:/Users/folae/Documents</text>
<text text-anchor="start" x="549.68" y="-18.5" font-family="Helvetica,sans-Serif" font-size="10.00">/Code/Big&#45;Projects/ArkScript</text>
<text text-anchor="middle" x="612.68" y="-7.5" font-family="Helvetica,sans-Serif" font-size="10.00">/Ark/src/arkscript/main.cpp</text>
</a>
</g>
</g>
<!-- Node4&#45;&gt;Node6 -->
<g id="edge5" class="edge">
<title>Node4&#45;&gt;Node6</title>
<path fill="none" stroke="midnightblue" d="M560.59,-71.49C570.97,-61.63 582.55,-50.63 592.15,-41.51"/>
<polygon fill="midnightblue" stroke="midnightblue" points="558.13,-69 553.29,-78.43 562.95,-74.08 558.13,-69"/>
</g>
<!-- Node7&#45;&gt;Node6 -->
<g id="edge8" class="edge">
<title>Node7&#45;&gt;Node6</title>
<path fill="none" stroke="midnightblue" d="M669.67,-71.78C658.29,-61.84 645.56,-50.72 635.01,-41.51"/>
<polygon fill="midnightblue" stroke="midnightblue" points="667.45,-74.49 677.28,-78.43 672.05,-69.21 667.45,-74.49"/>
</g>
<!-- Node8 -->
<g id="node8" class="node">
<title>Node8</title>
<g id="a_node8"><a xlink:href="../../d7/d46/Repl_8cpp.html" target="_top" xlink:title=" ">
<polygon fill="white" stroke="black" points="702.18,-0.5 702.18,-41.5 863.18,-41.5 863.18,-0.5 702.18,-0.5"/>
<text text-anchor="start" x="710.18" y="-29.5" font-family="Helvetica,sans-Serif" font-size="10.00">C:/Users/folae/Documents</text>
<text text-anchor="start" x="710.18" y="-18.5" font-family="Helvetica,sans-Serif" font-size="10.00">/Code/Big&#45;Projects/ArkScript</text>
<text text-anchor="middle" x="782.68" y="-7.5" font-family="Helvetica,sans-Serif" font-size="10.00">/Ark/src/arkscript/REPL/Repl.cpp</text>
</a>
</g>
</g>
<!-- Node7&#45;&gt;Node8 -->
<g id="edge7" class="edge">
<title>Node7&#45;&gt;Node8</title>
<path fill="none" stroke="midnightblue" d="M728.63,-71.49C739.4,-61.63 751.42,-50.63 761.38,-41.51"/>
<polygon fill="midnightblue" stroke="midnightblue" points="726.07,-69.09 721.06,-78.43 730.8,-74.26 726.07,-69.09"/>
</g>
<!-- Node13&#45;&gt;Node2 -->
<g id="edge15" class="edge">
<title>Node13&#45;&gt;Node2</title>
<path fill="none" stroke="midnightblue" d="M528.84,-511.61C447.44,-502.28 323.83,-486.31 217.68,-465 208.98,-463.25 199.89,-461.19 190.92,-459.01"/>
<polygon fill="midnightblue" stroke="midnightblue" points="528.71,-515.12 539.04,-512.77 529.5,-508.16 528.71,-515.12"/>
</g>
<!-- Node13&#45;&gt;Node4 -->
<g id="edge14" class="edge">
<title>Node13&#45;&gt;Node4</title>
<path fill="none" stroke="midnightblue" d="M529.08,-518.52C372.49,-513.29 59.86,-498.71 23.68,-465 -14.05,-429.83 4.68,-402.08 4.68,-350.5 4.68,-350.5 4.68,-350.5 4.68,-259.5 4.68,-165.18 317.35,-121.57 461.48,-106.48"/>
<polygon fill="midnightblue" stroke="midnightblue" points="529.06,-522.02 539.17,-518.85 529.29,-515.02 529.06,-522.02"/>
</g>
<!-- Node13&#45;&gt;Node12 -->
<g id="edge29" class="edge">
<title>Node13&#45;&gt;Node12</title>
<path fill="none" stroke="midnightblue" d="M669.05,-495.91C680.52,-487.73 691.2,-477.46 697.68,-465 708.56,-444.11 712.88,-430 697.68,-412 667.01,-375.65 533.27,-385.62 486.68,-376 475.66,-373.72 464.04,-371.11 452.7,-368.45"/>
<polygon fill="midnightblue" stroke="midnightblue" points="667.02,-493.06 660.61,-501.5 670.88,-498.89 667.02,-493.06"/>
</g>
<!-- Node14 -->
<g id="node14" class="node">
<title>Node14</title>
<g id="a_node14"><a xlink:href="../../db/d93/Optimizer_8hpp.html" target="_top" xlink:title="Optimizes a given ArkScript AST.">
<polygon fill="white" stroke="black" points="745.18,-412.5 745.18,-464.5 894.18,-464.5 894.18,-412.5 745.18,-412.5"/>
<text text-anchor="start" x="753.18" y="-452.5" font-family="Helvetica,sans-Serif" font-size="10.00">C:/Users/folae/Documents</text>
<text text-anchor="start" x="753.18" y="-441.5" font-family="Helvetica,sans-Serif" font-size="10.00">/Code/Big&#45;Projects/ArkScript</text>
<text text-anchor="start" x="753.18" y="-430.5" font-family="Helvetica,sans-Serif" font-size="10.00">/Ark/include/Ark/Compiler/AST</text>
<text text-anchor="middle" x="819.68" y="-419.5" font-family="Helvetica,sans-Serif" font-size="10.00">/Optimizer.hpp</text>
</a>
</g>
</g>
<!-- Node13&#45;&gt;Node14 -->
<g id="edge16" class="edge">
<title>Node13&#45;&gt;Node14</title>
<path fill="none" stroke="midnightblue" d="M675.65,-497.61C701.27,-487.28 731.44,-475.1 757.53,-464.58"/>
<polygon fill="midnightblue" stroke="midnightblue" points="674.03,-494.49 666.07,-501.48 676.65,-500.98 674.03,-494.49"/>
</g>
<!-- Node19 -->
<g id="node19" class="node">
<title>Node19</title>
<g id="a_node19"><a xlink:href="../../d2/d15/Lexer_8cpp.html" target="_top" xlink:title=" ">
<polygon fill="white" stroke="black" points="226.68,-412.5 226.68,-464.5 368.68,-464.5 368.68,-412.5 226.68,-412.5"/>
<text text-anchor="start" x="234.68" y="-452.5" font-family="Helvetica,sans-Serif" font-size="10.00">C:/Users/folae/Documents</text>
<text text-anchor="start" x="234.68" y="-441.5" font-family="Helvetica,sans-Serif" font-size="10.00">/Code/Big&#45;Projects/ArkScript</text>
<text text-anchor="start" x="234.68" y="-430.5" font-family="Helvetica,sans-Serif" font-size="10.00">/Ark/src/arkreactor/Compiler</text>
<text text-anchor="middle" x="297.68" y="-419.5" font-family="Helvetica,sans-Serif" font-size="10.00">/AST/Lexer.cpp</text>
</a>
</g>
</g>
<!-- Node13&#45;&gt;Node19 -->
<g id="edge26" class="edge">
<title>Node13&#45;&gt;Node19</title>
<path fill="none" stroke="midnightblue" d="M529.09,-502.09C483.61,-491.94 427.45,-478.71 377.68,-465 374.73,-464.19 371.73,-463.34 368.7,-462.46"/>
<polygon fill="midnightblue" stroke="midnightblue" points="528.4,-505.52 538.92,-504.28 529.92,-498.69 528.4,-505.52"/>
</g>
<!-- Node20 -->
<g id="node20" class="node">
<title>Node20</title>
<g id="a_node20"><a xlink:href="../../dc/d73/Node_8cpp.html" target="_top" xlink:title=" ">
<polygon fill="white" stroke="black" points="386.68,-412.5 386.68,-464.5 528.68,-464.5 528.68,-412.5 386.68,-412.5"/>
<text text-anchor="start" x="394.68" y="-452.5" font-family="Helvetica,sans-Serif" font-size="10.00">C:/Users/folae/Documents</text>
<text text-anchor="start" x="394.68" y="-441.5" font-family="Helvetica,sans-Serif" font-size="10.00">/Code/Big&#45;Projects/ArkScript</text>
<text text-anchor="start" x="394.68" y="-430.5" font-family="Helvetica,sans-Serif" font-size="10.00">/Ark/src/arkreactor/Compiler</text>
<text text-anchor="middle" x="457.68" y="-419.5" font-family="Helvetica,sans-Serif" font-size="10.00">/AST/Node.cpp</text>
</a>
</g>
</g>
<!-- Node13&#45;&gt;Node20 -->
<g id="edge27" class="edge">
<title>Node13&#45;&gt;Node20</title>
<path fill="none" stroke="midnightblue" d="M570.43,-496.93C550.42,-486.74 527.12,-474.87 506.91,-464.58"/>
<polygon fill="midnightblue" stroke="midnightblue" points="568.86,-500.06 579.36,-501.48 572.04,-493.82 568.86,-500.06"/>
</g>
<!-- Node21 -->
<g id="node21" class="node">
<title>Node21</title>
<g id="a_node21"><a xlink:href="../../dc/df5/Parser_8cpp.html" target="_top" xlink:title=" ">
<polygon fill="white" stroke="black" points="546.68,-412.5 546.68,-464.5 688.68,-464.5 688.68,-412.5 546.68,-412.5"/>
<text text-anchor="start" x="554.68" y="-452.5" font-family="Helvetica,sans-Serif" font-size="10.00">C:/Users/folae/Documents</text>
<text text-anchor="start" x="554.68" y="-441.5" font-family="Helvetica,sans-Serif" font-size="10.00">/Code/Big&#45;Projects/ArkScript</text>
<text text-anchor="start" x="554.68" y="-430.5" font-family="Helvetica,sans-Serif" font-size="10.00">/Ark/src/arkreactor/Compiler</text>
<text text-anchor="middle" x="617.68" y="-419.5" font-family="Helvetica,sans-Serif" font-size="10.00">/AST/Parser.cpp</text>
</a>
</g>
</g>
<!-- Node13&#45;&gt;Node21 -->
<g id="edge28" class="edge">
<title>Node13&#45;&gt;Node21</title>
<path fill="none" stroke="midnightblue" d="M617.68,-491.12C617.68,-482.41 617.68,-472.99 617.68,-464.61"/>
<polygon fill="midnightblue" stroke="midnightblue" points="614.18,-491.27 617.68,-501.27 621.18,-491.27 614.18,-491.27"/>
</g>
<!-- Node22 -->
<g id="node22" class="node">
<title>Node22</title>
<g id="a_node22"><a xlink:href="../../d6/d9a/TypeChecker_8cpp.html" target="_top" xlink:title=" ">
<polygon fill="white" stroke="black" points="950.68,-418 950.68,-459 1126.68,-459 1126.68,-418 950.68,-418"/>
<text text-anchor="start" x="958.68" y="-447" font-family="Helvetica,sans-Serif" font-size="10.00">C:/Users/folae/Documents</text>
<text text-anchor="start" x="958.68" y="-436" font-family="Helvetica,sans-Serif" font-size="10.00">/Code/Big&#45;Projects/ArkScript</text>
<text text-anchor="middle" x="1038.68" y="-425" font-family="Helvetica,sans-Serif" font-size="10.00">/Ark/src/arkreactor/TypeChecker.cpp</text>
</a>
</g>
</g>
<!-- Node13&#45;&gt;Node22 -->
<g id="edge30" class="edge">
<title>Node13&#45;&gt;Node22</title>
<path fill="none" stroke="midnightblue" d="M706.32,-503.84C778.15,-489.94 878.86,-470.44 950.55,-456.56"/>
<polygon fill="midnightblue" stroke="midnightblue" points="705.53,-500.43 696.38,-505.77 706.86,-507.3 705.53,-500.43"/>
</g>
<!-- Node15 -->
<g id="node15" class="node">
<title>Node15</title>
<g id="a_node15"><a xlink:href="../../d8/d0f/Compiler_8hpp.html" target="_top" xlink:title="ArkScript compiler is in charge of transforming the AST into bytecode.">
<polygon fill="white" stroke="black" points="495.68,-329 495.68,-370 683.68,-370 683.68,-329 495.68,-329"/>
<text text-anchor="start" x="503.68" y="-358" font-family="Helvetica,sans-Serif" font-size="10.00">C:/Users/folae/Documents</text>
<text text-anchor="start" x="503.68" y="-347" font-family="Helvetica,sans-Serif" font-size="10.00">/Code/Big&#45;Projects/ArkScript</text>
<text text-anchor="middle" x="589.68" y="-336" font-family="Helvetica,sans-Serif" font-size="10.00">/Ark/include/Ark/Compiler/Compiler.hpp</text>
</a>
</g>
</g>
<!-- Node14&#45;&gt;Node15 -->
<g id="edge17" class="edge">
<title>Node14&#45;&gt;Node15</title>
<path fill="none" stroke="midnightblue" d="M743.71,-408.76C710.22,-396.09 671.72,-381.53 641.59,-370.13"/>
<polygon fill="midnightblue" stroke="midnightblue" points="742.88,-412.19 753.47,-412.45 745.35,-405.64 742.88,-412.19"/>
</g>
<!-- Node18 -->
<g id="node18" class="node">
<title>Node18</title>
<g id="a_node18"><a xlink:href="../../d2/dc5/Optimizer_8cpp.html" target="_top" xlink:title=" ">
<polygon fill="white" stroke="black" points="752.68,-323.5 752.68,-375.5 894.68,-375.5 894.68,-323.5 752.68,-323.5"/>
<text text-anchor="start" x="760.68" y="-363.5" font-family="Helvetica,sans-Serif" font-size="10.00">C:/Users/folae/Documents</text>
<text text-anchor="start" x="760.68" y="-352.5" font-family="Helvetica,sans-Serif" font-size="10.00">/Code/Big&#45;Projects/ArkScript</text>
<text text-anchor="start" x="760.68" y="-341.5" font-family="Helvetica,sans-Serif" font-size="10.00">/Ark/src/arkreactor/Compiler</text>
<text text-anchor="middle" x="823.68" y="-330.5" font-family="Helvetica,sans-Serif" font-size="10.00">/AST/Optimizer.cpp</text>
</a>
</g>
</g>
<!-- Node14&#45;&gt;Node18 -->
<g id="edge25" class="edge">
<title>Node14&#45;&gt;Node18</title>
<path fill="none" stroke="midnightblue" d="M821.31,-402.19C821.72,-393.28 822.15,-383.9 822.53,-375.61"/>
<polygon fill="midnightblue" stroke="midnightblue" points="817.8,-402.19 820.84,-412.34 824.8,-402.51 817.8,-402.19"/>
</g>
<!-- Node15&#45;&gt;Node4 -->
<g id="edge18" class="edge">
<title>Node15&#45;&gt;Node4</title>
<path fill="none" stroke="midnightblue" d="M582.86,-318.74C571.06,-267.29 547.15,-163.07 537.2,-119.67"/>
<polygon fill="midnightblue" stroke="midnightblue" points="579.47,-319.62 585.12,-328.58 586.29,-318.05 579.47,-319.62"/>
</g>
<!-- Node15&#45;&gt;Node7 -->
<g id="edge19" class="edge">
<title>Node15&#45;&gt;Node7</title>
<path fill="none" stroke="midnightblue" d="M591.12,-318.65C593.08,-294.97 597.72,-261.42 608.68,-234 626.54,-189.35 661.15,-144.56 682.16,-119.74"/>
<polygon fill="midnightblue" stroke="midnightblue" points="587.62,-318.55 590.39,-328.77 594.6,-319.05 587.62,-318.55"/>
</g>
<!-- Node15&#45;&gt;Node11 -->
<g id="edge24" class="edge">
<title>Node15&#45;&gt;Node11</title>
<path fill="none" stroke="midnightblue" d="M523.12,-325.61C487.62,-313.4 443.92,-298.38 407.76,-285.94"/>
<polygon fill="midnightblue" stroke="midnightblue" points="522.31,-329.03 532.91,-328.98 524.59,-322.41 522.31,-329.03"/>
</g>
<!-- Node15&#45;&gt;Node16 -->
<g id="edge20" class="edge">
<title>Node15&#45;&gt;Node16</title>
<path fill="none" stroke="midnightblue" d="M620.65,-322.34C636.27,-309.15 654.89,-293.42 669.29,-281.26"/>
<polygon fill="midnightblue" stroke="midnightblue" points="618.18,-319.85 612.8,-328.98 622.7,-325.2 618.18,-319.85"/>
</g>
<!-- Node16&#45;&gt;Node3 -->
<g id="edge22" class="edge">
<title>Node16&#45;&gt;Node3</title>
<path fill="none" stroke="midnightblue" d="M768.44,-237.34C772.91,-236.17 777.35,-235.05 781.68,-234 852.63,-216.8 934.57,-200.92 991.6,-190.49"/>
<polygon fill="midnightblue" stroke="midnightblue" points="767.38,-234 758.62,-239.95 769.19,-240.76 767.38,-234"/>
</g>
<!-- Node16&#45;&gt;Node7 -->
<g id="edge21" class="edge">
<title>Node16&#45;&gt;Node7</title>
<path fill="none" stroke="midnightblue" d="M693.99,-229.8C695.4,-197.66 697.61,-147.31 698.82,-119.72"/>
<polygon fill="midnightblue" stroke="midnightblue" points="690.48,-229.8 693.54,-239.94 697.48,-230.11 690.48,-229.8"/>
</g>
<!-- Node17 -->
<g id="node17" class="node">
<title>Node17</title>
<g id="a_node17"><a xlink:href="../../d0/da0/State_8cpp.html" target="_top" xlink:title=" ">
<polygon fill="white" stroke="black" points="721.18,-156.5 721.18,-197.5 882.18,-197.5 882.18,-156.5 721.18,-156.5"/>
<text text-anchor="start" x="729.18" y="-185.5" font-family="Helvetica,sans-Serif" font-size="10.00">C:/Users/folae/Documents</text>
<text text-anchor="start" x="729.18" y="-174.5" font-family="Helvetica,sans-Serif" font-size="10.00">/Code/Big&#45;Projects/ArkScript</text>
<text text-anchor="middle" x="801.68" y="-163.5" font-family="Helvetica,sans-Serif" font-size="10.00">/Ark/src/arkreactor/VM/State.cpp</text>
</a>
</g>
</g>
<!-- Node16&#45;&gt;Node17 -->
<g id="edge23" class="edge">
<title>Node16&#45;&gt;Node17</title>
<path fill="none" stroke="midnightblue" d="M727.16,-233.72C742.77,-222.05 760.93,-208.47 775.41,-197.64"/>
<polygon fill="midnightblue" stroke="midnightblue" points="724.71,-231.19 718.79,-239.98 728.9,-236.79 724.71,-231.19"/>
</g>
<!-- Node23&#45;&gt;Node9 -->
<g id="edge33" class="edge">
<title>Node23&#45;&gt;Node9</title>
<path fill="none" stroke="midnightblue" d="M1214.01,-491.23C1204,-410.21 1176.47,-187.31 1168.12,-119.7"/>
<polygon fill="midnightblue" stroke="midnightblue" points="1210.55,-491.76 1215.25,-501.26 1217.49,-490.91 1210.55,-491.76"/>
</g>
<!-- Node23&#45;&gt;Node22 -->
<g id="edge32" class="edge">
<title>Node23&#45;&gt;Node22</title>
<path fill="none" stroke="midnightblue" d="M1165.61,-497.29C1138.9,-485.13 1106.77,-470.5 1081.52,-459"/>
<polygon fill="midnightblue" stroke="midnightblue" points="1164.26,-500.52 1174.81,-501.48 1167.16,-494.15 1164.26,-500.52"/>
</g>
<!-- Node24&#45;&gt;Node3 -->
<g id="edge35" class="edge">
<title>Node24&#45;&gt;Node3</title>
<path fill="none" stroke="midnightblue" d="M1303.7,-409.4C1270.11,-360.24 1200.77,-261.27 1168.68,-234 1151.32,-219.24 1129.42,-206.86 1110.03,-197.53"/>
<polygon fill="midnightblue" stroke="midnightblue" points="1300.82,-411.39 1309.34,-417.69 1306.6,-407.45 1300.82,-411.39"/>
</g>
<!-- Node25&#45;&gt;Node3 -->
<g id="edge38" class="edge">
<title>Node25&#45;&gt;Node3</title>
<path fill="none" stroke="midnightblue" d="M1448.44,-490.91C1449.17,-467.9 1447.11,-436.13 1433.68,-412 1368.24,-294.38 1216.31,-227.63 1128.52,-197.58"/>
<polygon fill="midnightblue" stroke="midnightblue" points="1444.94,-490.96 1447.92,-501.12 1451.93,-491.32 1444.94,-490.96"/>
</g>
<!-- Node25&#45;&gt;Node24 -->
<g id="edge37" class="edge">
<title>Node25&#45;&gt;Node24</title>
<path fill="none" stroke="midnightblue" d="M1407.75,-495.87C1389.92,-484.05 1368.98,-470.17 1352.33,-459.14"/>
<polygon fill="midnightblue" stroke="midnightblue" points="1405.95,-498.87 1416.22,-501.48 1409.82,-493.04 1405.95,-498.87"/>
</g>
<!-- Node26 -->
<g id="node26" class="node">
<title>Node26</title>
<g id="a_node26"><a xlink:href="../../d5/d04/Scope_8cpp.html" target="_top" xlink:title=" ">
<polygon fill="white" stroke="black" points="1481.18,-418 1481.18,-459 1646.18,-459 1646.18,-418 1481.18,-418"/>
<text text-anchor="start" x="1489.18" y="-447" font-family="Helvetica,sans-Serif" font-size="10.00">C:/Users/folae/Documents</text>
<text text-anchor="start" x="1489.18" y="-436" font-family="Helvetica,sans-Serif" font-size="10.00">/Code/Big&#45;Projects/ArkScript</text>
<text text-anchor="middle" x="1563.68" y="-425" font-family="Helvetica,sans-Serif" font-size="10.00">/Ark/src/arkreactor/VM/Scope.cpp</text>
</a>
</g>
</g>
<!-- Node25&#45;&gt;Node26 -->
<g id="edge39" class="edge">
<title>Node25&#45;&gt;Node26</title>
<path fill="none" stroke="midnightblue" d="M1482.54,-495.54C1499.55,-483.8 1519.42,-470.07 1535.24,-459.14"/>
<polygon fill="midnightblue" stroke="midnightblue" points="1480.19,-492.92 1473.95,-501.48 1484.17,-498.68 1480.19,-492.92"/>
</g>
<!-- Node27 -->
<g id="node27" class="node">
<title>Node27</title>
<g id="a_node27"><a xlink:href="../../d1/db2/Closure_8cpp.html" target="_top" xlink:title=" ">
<polygon fill="white" stroke="black" points="1664.18,-412.5 1664.18,-464.5 1807.18,-464.5 1807.18,-412.5 1664.18,-412.5"/>
<text text-anchor="start" x="1672.18" y="-452.5" font-family="Helvetica,sans-Serif" font-size="10.00">C:/Users/folae/Documents</text>
<text text-anchor="start" x="1672.18" y="-441.5" font-family="Helvetica,sans-Serif" font-size="10.00">/Code/Big&#45;Projects/ArkScript</text>
<text text-anchor="start" x="1672.18" y="-430.5" font-family="Helvetica,sans-Serif" font-size="10.00">/Ark/src/arkreactor/VM/Value</text>
<text text-anchor="middle" x="1735.68" y="-419.5" font-family="Helvetica,sans-Serif" font-size="10.00">/Closure.cpp</text>
</a>
</g>
</g>
<!-- Node25&#45;&gt;Node27 -->
<g id="edge40" class="edge">
<title>Node25&#45;&gt;Node27</title>
<path fill="none" stroke="midnightblue" d="M1532.71,-498.79C1570.61,-488.87 1615.46,-476.77 1655.68,-465 1658.34,-464.22 1661.05,-463.42 1663.78,-462.6"/>
<polygon fill="midnightblue" stroke="midnightblue" points="1531.52,-495.49 1522.73,-501.4 1533.29,-502.26 1531.52,-495.49"/>
</g>
</g>
</svg>
