<?xml version="1.0" encoding="UTF-8" standalone="no"?>
<!DOCTYPE svg PUBLIC "-//W3C//DTD SVG 1.1//EN"
 "http://www.w3.org/Graphics/SVG/1.1/DTD/svg11.dtd">
<!-- Generated by graphviz version 2.43.0 (0)
 -->
<!-- Title: Ark::internal::Optimizer Pages: 1 -->
<svg width="496pt" height="282pt"
 viewBox="0.00 0.00 496.00 282.00" xmlns="http://www.w3.org/2000/svg" xmlns:xlink="http://www.w3.org/1999/xlink">
<g id="graph0" class="graph" transform="scale(1 1) rotate(0) translate(4 278)">
<title>Ark::internal::Optimizer</title>
<polygon fill="white" stroke="transparent" points="-4,4 -4,-278 492,-278 492,4 -4,4"/>
<!-- Node1 -->
<g id="node1" class="node">
<title>Node1</title>
<g id="a_node1"><a xlink:title="The ArkScript AST optimizer.">
<polygon fill="#bfbfbf" stroke="black" points="56.5,-6 56.5,-25 187.5,-25 187.5,-6 56.5,-6"/>
<text text-anchor="middle" x="122" y="-13" font-family="Helvetica,sans-Serif" font-size="10.00">Ark::internal::Optimizer</text>
</a>
</g>
</g>
<!-- Node2 -->
<g id="node2" class="node">
<title>Node2</title>
<g id="a_node2"><a xlink:title=" ">
<polygon fill="white" stroke="#bfbfbf" points="0,-78.5 0,-108.5 138,-108.5 138,-78.5 0,-78.5"/>
<text text-anchor="start" x="8" y="-96.5" font-family="Helvetica,sans-Serif" font-size="10.00">std::unordered_map</text>
<text text-anchor="middle" x="69" y="-85.5" font-family="Helvetica,sans-Serif" font-size="10.00">&lt; std::string, unsigned &gt;</text>
</a>
</g>
</g>
<!-- Node2&#45;&gt;Node1 -->
<g id="edge1" class="edge">
<title>Node2&#45;&gt;Node1</title>
<path fill="none" stroke="#9a32cd" stroke-dasharray="5,2" d="M65.49,-67.86C65.62,-61.38 66.79,-54.64 70,-49 76.27,-37.99 87.95,-30.19 98.65,-25"/>
<polygon fill="#9a32cd" stroke="#9a32cd" points="62.01,-68.48 66.05,-78.27 69,-68.1 62.01,-68.48"/>
<text text-anchor="middle" x="123.5" y="-52" font-family="Helvetica,sans-Serif" font-size="10.00"> m_sym_appearances</text>
</g>
<!-- Node3 -->
<g id="node3" class="node">
<title>Node3</title>
<g id="a_node3"><a xlink:title=" ">
<polygon fill="white" stroke="#bfbfbf" points="69.5,-171 69.5,-190 134.5,-190 134.5,-171 69.5,-171"/>
<text text-anchor="middle" x="102" y="-178" font-family="Helvetica,sans-Serif" font-size="10.00">std::string</text>
</a>
</g>
</g>
<!-- Node3&#45;&gt;Node2 -->
<g id="edge2" class="edge">
<title>Node3&#45;&gt;Node2</title>
<path fill="none" stroke="#9a32cd" stroke-dasharray="5,2" d="M77.02,-164.84C70.99,-159.98 65.33,-154 62,-147 56.23,-134.88 59.32,-119.51 63.04,-108.54"/>
<polygon fill="#9a32cd" stroke="#9a32cd" points="75.11,-167.78 85.28,-170.74 79.18,-162.08 75.11,-167.78"/>
<text text-anchor="middle" x="75" y="-134.5" font-family="Helvetica,sans-Serif" font-size="10.00"> keys</text>
</g>
<!-- Node8 -->
<g id="node8" class="node">
<title>Node8</title>
<g id="a_node8"><a xlink:href="../../dc/d9e/classArk_1_1internal_1_1Node.html" target="_top" xlink:title="A node of an Abstract Syntax Tree for ArkScript.">
<polygon fill="white" stroke="black" points="203,-84 203,-103 311,-103 311,-84 203,-84"/>
<text text-anchor="middle" x="257" y="-91" font-family="Helvetica,sans-Serif" font-size="10.00">Ark::internal::Node</text>
</a>
</g>
</g>
<!-- Node3&#45;&gt;Node8 -->
<g id="edge8" class="edge">
<title>Node3&#45;&gt;Node8</title>
<path fill="none" stroke="#9a32cd" stroke-dasharray="5,2" d="M144.5,-169.68C183.07,-160.69 234.2,-148.56 236,-147 249.06,-135.68 254.09,-115.11 255.95,-103.36"/>
<polygon fill="#9a32cd" stroke="#9a32cd" points="143.45,-166.33 134.51,-172 145.04,-173.14 143.45,-166.33"/>
<text text-anchor="middle" x="279.5" y="-134.5" font-family="Helvetica,sans-Serif" font-size="10.00"> m_filename</text>
</g>
<!-- Node4 -->
<g id="node4" class="node">
<title>Node4</title>
<g id="a_node4"><a xlink:title=" ">
<polygon fill="white" stroke="#bfbfbf" points="50,-243.5 50,-273.5 154,-273.5 154,-243.5 50,-243.5"/>
<text text-anchor="start" x="58" y="-261.5" font-family="Helvetica,sans-Serif" font-size="10.00">std::basic_string&lt;</text>
<text text-anchor="middle" x="102" y="-250.5" font-family="Helvetica,sans-Serif" font-size="10.00"> Char &gt;</text>
</a>
</g>
</g>
<!-- Node4&#45;&gt;Node3 -->
<g id="edge3" class="edge">
<title>Node4&#45;&gt;Node3</title>
<path fill="none" stroke="midnightblue" d="M102,-233.17C102,-218.4 102,-200.45 102,-190.06"/>
<polygon fill="midnightblue" stroke="midnightblue" points="98.5,-233.2 102,-243.2 105.5,-233.21 98.5,-233.2"/>
</g>
<!-- Node5 -->
<g id="node5" class="node">
<title>Node5</title>
<g id="a_node5"><a xlink:title=" ">
<polygon fill="white" stroke="#bfbfbf" points="175,-165.5 175,-195.5 289,-195.5 289,-165.5 175,-165.5"/>
<text text-anchor="start" x="183" y="-183.5" font-family="Helvetica,sans-Serif" font-size="10.00">std::unordered_map</text>
<text text-anchor="middle" x="232" y="-172.5" font-family="Helvetica,sans-Serif" font-size="10.00">&lt; K, T &gt;</text>
</a>
</g>
</g>
<!-- Node5&#45;&gt;Node2 -->
<g id="edge4" class="edge">
<title>Node5&#45;&gt;Node2</title>
<path fill="none" stroke="orange" stroke-dasharray="5,2" d="M164.78,-170.9C144.95,-166.1 124.03,-158.63 107,-147 99.52,-141.89 86.42,-122.44 77.73,-108.71"/>
<polygon fill="orange" stroke="orange" points="164.18,-174.35 174.71,-173.11 165.7,-167.52 164.18,-174.35"/>
<text text-anchor="middle" x="169.5" y="-134.5" font-family="Helvetica,sans-Serif" font-size="10.00"> &lt; std::string, unsigned &gt;</text>
</g>
<!-- Node6 -->
<g id="node6" class="node">
<title>Node6</title>
<g id="a_node6"><a xlink:title=" ">
<polygon fill="white" stroke="#bfbfbf" points="217.5,-249 217.5,-268 246.5,-268 246.5,-249 217.5,-249"/>
<text text-anchor="middle" x="232" y="-256" font-family="Helvetica,sans-Serif" font-size="10.00">K</text>
</a>
</g>
</g>
<!-- Node6&#45;&gt;Node5 -->
<g id="edge5" class="edge">
<title>Node6&#45;&gt;Node5</title>
<path fill="none" stroke="#9a32cd" stroke-dasharray="5,2" d="M232,-238.78C232,-225.4 232,-207.69 232,-195.52"/>
<polygon fill="#9a32cd" stroke="#9a32cd" points="228.5,-238.78 232,-248.78 235.5,-238.78 228.5,-238.78"/>
<text text-anchor="middle" x="245" y="-217" font-family="Helvetica,sans-Serif" font-size="10.00"> keys</text>
</g>
<!-- Node7 -->
<g id="node7" class="node">
<title>Node7</title>
<g id="a_node7"><a xlink:title=" ">
<polygon fill="white" stroke="#bfbfbf" points="313.5,-249 313.5,-268 342.5,-268 342.5,-249 313.5,-249"/>
<text text-anchor="middle" x="328" y="-256" font-family="Helvetica,sans-Serif" font-size="10.00">T</text>
</a>
</g>
</g>
<!-- Node7&#45;&gt;Node5 -->
<g id="edge6" class="edge">
<title>Node7&#45;&gt;Node5</title>
<path fill="none" stroke="#9a32cd" stroke-dasharray="5,2" d="M308.78,-242.28C291.54,-228.64 266.46,-208.78 249.71,-195.52"/>
<polygon fill="#9a32cd" stroke="#9a32cd" points="306.97,-245.32 316.99,-248.78 311.32,-239.83 306.97,-245.32"/>
<text text-anchor="middle" x="309.5" y="-217" font-family="Helvetica,sans-Serif" font-size="10.00"> elements</text>
</g>
<!-- Node10 -->
<g id="node10" class="node">
<title>Node10</title>
<g id="a_node10"><a xlink:title=" ">
<polygon fill="white" stroke="#bfbfbf" points="327.5,-127.5 327.5,-146.5 424.5,-146.5 424.5,-127.5 327.5,-127.5"/>
<text text-anchor="middle" x="376" y="-134.5" font-family="Helvetica,sans-Serif" font-size="10.00">std::vector&lt; T &gt;</text>
</a>
</g>
</g>
<!-- Node7&#45;&gt;Node10 -->
<g id="edge12" class="edge">
<title>Node7&#45;&gt;Node10</title>
<path fill="none" stroke="#9a32cd" stroke-dasharray="5,2" d="M335.26,-239.43C345.77,-213.25 364.83,-165.82 372.58,-146.52"/>
<polygon fill="#9a32cd" stroke="#9a32cd" points="331.93,-238.32 331.45,-248.91 338.43,-240.93 331.93,-238.32"/>
<text text-anchor="middle" x="368.5" y="-217" font-family="Helvetica,sans-Serif" font-size="10.00"> elements</text>
</g>
<!-- Node8&#45;&gt;Node1 -->
<g id="edge7" class="edge">
<title>Node8&#45;&gt;Node1</title>
<path fill="none" stroke="#9a32cd" stroke-dasharray="5,2" d="M232.75,-78.85C205.08,-63.27 160.66,-38.26 137.38,-25.16"/>
<polygon fill="#9a32cd" stroke="#9a32cd" points="231.35,-82.07 241.78,-83.93 234.78,-75.97 231.35,-82.07"/>
<text text-anchor="middle" x="214" y="-52" font-family="Helvetica,sans-Serif" font-size="10.00"> m_ast</text>
</g>
<!-- Node9 -->
<g id="node9" class="node">
<title>Node9</title>
<g id="a_node9"><a xlink:title=" ">
<polygon fill="white" stroke="#bfbfbf" points="258,-0.5 258,-30.5 398,-30.5 398,-0.5 258,-0.5"/>
<text text-anchor="start" x="266" y="-18.5" font-family="Helvetica,sans-Serif" font-size="10.00">std::vector&lt; Ark::internal</text>
<text text-anchor="middle" x="328" y="-7.5" font-family="Helvetica,sans-Serif" font-size="10.00">::Node &gt;</text>
</a>
</g>
</g>
<!-- Node8&#45;&gt;Node9 -->
<g id="edge10" class="edge">
<title>Node8&#45;&gt;Node9</title>
<path fill="none" stroke="#9a32cd" stroke-dasharray="5,2" d="M250.29,-73.87C248.53,-65.65 248.25,-56.23 253,-49 258.14,-41.17 265.61,-35.22 273.88,-30.7"/>
<polygon fill="#9a32cd" stroke="#9a32cd" points="247.01,-75.1 253.18,-83.71 253.72,-73.13 247.01,-75.1"/>
<text text-anchor="middle" x="277.5" y="-52" font-family="Helvetica,sans-Serif" font-size="10.00"> elements</text>
</g>
<!-- Node9&#45;&gt;Node8 -->
<g id="edge9" class="edge">
<title>Node9&#45;&gt;Node8</title>
<path fill="none" stroke="#9a32cd" stroke-dasharray="5,2" d="M318.78,-40.16C315.41,-47.02 311.14,-54.22 306,-60 297.18,-69.92 284.69,-78.14 274.52,-83.84"/>
<polygon fill="#9a32cd" stroke="#9a32cd" points="322.19,-41.1 323.07,-30.54 315.8,-38.25 322.19,-41.1"/>
<text text-anchor="middle" x="330" y="-52" font-family="Helvetica,sans-Serif" font-size="10.00"> m_list</text>
</g>
<!-- Node10&#45;&gt;Node9 -->
<g id="edge11" class="edge">
<title>Node10&#45;&gt;Node9</title>
<path fill="none" stroke="orange" stroke-dasharray="5,2" d="M372.55,-117.41C368.77,-99.34 361.76,-71.41 351,-49 347.95,-42.64 343.68,-36.19 339.64,-30.73"/>
<polygon fill="orange" stroke="orange" points="369.13,-118.12 374.5,-127.25 375.99,-116.77 369.13,-118.12"/>
<text text-anchor="middle" x="429" y="-91" font-family="Helvetica,sans-Serif" font-size="10.00"> &lt; Ark::internal::Node &gt;</text>
</g>
</g>
</svg>
