<?xml version="1.0" encoding="UTF-8" standalone="no"?>
<!DOCTYPE svg PUBLIC "-//W3C//DTD SVG 1.1//EN"
 "http://www.w3.org/Graphics/SVG/1.1/DTD/svg11.dtd">
<!-- Generated by graphviz version 2.49.0 (20210828.1703)
 -->
<!-- Title: C:/Users/folae/Documents/Code/Big&#45;Projects/ArkScript/Ark/include/Ark/Compiler/Macros/Pipeline.hpp Pages: 1 -->
<svg width="481pt" height="239pt"
 viewBox="0.00 0.00 481.00 239.00" xmlns="http://www.w3.org/2000/svg" xmlns:xlink="http://www.w3.org/1999/xlink">
<g id="graph0" class="graph" transform="scale(1 1) rotate(0) translate(4 235)">
<title>C:/Users/folae/Documents/Code/Big&#45;Projects/ArkScript/Ark/include/Ark/Compiler/Macros/Pipeline.hpp</title>
<polygon fill="white" stroke="transparent" points="-4,4 -4,-235 477,-235 477,4 -4,4"/>
<!-- Node1 -->
<g id="node1" class="node">
<title>Node1</title>
<g id="a_node1"><a xlink:title="The Chain of Responsibility class for running nodes through MacroExecutors.">
<polygon fill="#bfbfbf" stroke="black" points="234.5,-178.5 234.5,-230.5 397.5,-230.5 397.5,-178.5 234.5,-178.5"/>
<text text-anchor="start" x="242.5" y="-218.5" font-family="Helvetica,sans-Serif" font-size="10.00">C:/Users/folae/Documents</text>
<text text-anchor="start" x="242.5" y="-207.5" font-family="Helvetica,sans-Serif" font-size="10.00">/Code/Big&#45;Projects/ArkScript</text>
<text text-anchor="start" x="242.5" y="-196.5" font-family="Helvetica,sans-Serif" font-size="10.00">/Ark/include/Ark/Compiler/Macros</text>
<text text-anchor="middle" x="316" y="-185.5" font-family="Helvetica,sans-Serif" font-size="10.00">/Pipeline.hpp</text>
</a>
</g>
</g>
<!-- Node2 -->
<g id="node2" class="node">
<title>Node2</title>
<g id="a_node2"><a xlink:href="../../de/db1/Processor_8hpp.html" target="_top" xlink:title="Handles the macros and their expansion in ArkScript source code.">
<polygon fill="white" stroke="black" points="149.5,-89.5 149.5,-141.5 312.5,-141.5 312.5,-89.5 149.5,-89.5"/>
<text text-anchor="start" x="157.5" y="-129.5" font-family="Helvetica,sans-Serif" font-size="10.00">C:/Users/folae/Documents</text>
<text text-anchor="start" x="157.5" y="-118.5" font-family="Helvetica,sans-Serif" font-size="10.00">/Code/Big&#45;Projects/ArkScript</text>
<text text-anchor="start" x="157.5" y="-107.5" font-family="Helvetica,sans-Serif" font-size="10.00">/Ark/include/Ark/Compiler/Macros</text>
<text text-anchor="middle" x="231" y="-96.5" font-family="Helvetica,sans-Serif" font-size="10.00">/Processor.hpp</text>
</a>
</g>
</g>
<!-- Node1&#45;&gt;Node2 -->
<g id="edge1" class="edge">
<title>Node1&#45;&gt;Node2</title>
<path fill="none" stroke="midnightblue" d="M284.32,-171.08C274.8,-161.34 264.51,-150.8 255.53,-141.61"/>
<polygon fill="midnightblue" stroke="midnightblue" points="281.92,-173.63 291.41,-178.34 286.93,-168.74 281.92,-173.63"/>
</g>
<!-- Node6 -->
<g id="node6" class="node">
<title>Node6</title>
<g id="a_node6"><a xlink:href="../../dd/d19/Pipeline_8cpp.html" target="_top" xlink:title=" ">
<polygon fill="white" stroke="black" points="331,-89.5 331,-141.5 473,-141.5 473,-89.5 331,-89.5"/>
<text text-anchor="start" x="339" y="-129.5" font-family="Helvetica,sans-Serif" font-size="10.00">C:/Users/folae/Documents</text>
<text text-anchor="start" x="339" y="-118.5" font-family="Helvetica,sans-Serif" font-size="10.00">/Code/Big&#45;Projects/ArkScript</text>
<text text-anchor="start" x="339" y="-107.5" font-family="Helvetica,sans-Serif" font-size="10.00">/Ark/src/arkreactor/Compiler</text>
<text text-anchor="middle" x="402" y="-96.5" font-family="Helvetica,sans-Serif" font-size="10.00">/Macros/Pipeline.cpp</text>
</a>
</g>
</g>
<!-- Node1&#45;&gt;Node6 -->
<g id="edge5" class="edge">
<title>Node1&#45;&gt;Node6</title>
<path fill="none" stroke="midnightblue" d="M348.05,-171.08C357.68,-161.34 368.09,-150.8 377.18,-141.61"/>
<polygon fill="midnightblue" stroke="midnightblue" points="345.42,-168.76 340.87,-178.34 350.39,-173.68 345.42,-168.76"/>
</g>
<!-- Node3 -->
<g id="node3" class="node">
<title>Node3</title>
<g id="a_node3"><a xlink:href="../../de/dfa/Compiler_8cpp.html" target="_top" xlink:title=" ">
<polygon fill="white" stroke="black" points="0,-0.5 0,-52.5 142,-52.5 142,-0.5 0,-0.5"/>
<text text-anchor="start" x="8" y="-40.5" font-family="Helvetica,sans-Serif" font-size="10.00">C:/Users/folae/Documents</text>
<text text-anchor="start" x="8" y="-29.5" font-family="Helvetica,sans-Serif" font-size="10.00">/Code/Big&#45;Projects/ArkScript</text>
<text text-anchor="start" x="8" y="-18.5" font-family="Helvetica,sans-Serif" font-size="10.00">/Ark/src/arkreactor/Compiler</text>
<text text-anchor="middle" x="71" y="-7.5" font-family="Helvetica,sans-Serif" font-size="10.00">/Compiler.cpp</text>
</a>
</g>
</g>
<!-- Node2&#45;&gt;Node3 -->
<g id="edge2" class="edge">
<title>Node2&#45;&gt;Node3</title>
<path fill="none" stroke="midnightblue" d="M175.82,-84.49C156.7,-74.1 135.49,-62.57 117.17,-52.61"/>
<polygon fill="midnightblue" stroke="midnightblue" points="174.26,-87.63 184.72,-89.34 177.61,-81.48 174.26,-87.63"/>
</g>
<!-- Node4 -->
<g id="node4" class="node">
<title>Node4</title>
<g id="a_node4"><a xlink:href="../../d1/da9/Executor_8cpp.html" target="_top" xlink:title=" ">
<polygon fill="white" stroke="black" points="160,-0.5 160,-52.5 302,-52.5 302,-0.5 160,-0.5"/>
<text text-anchor="start" x="168" y="-40.5" font-family="Helvetica,sans-Serif" font-size="10.00">C:/Users/folae/Documents</text>
<text text-anchor="start" x="168" y="-29.5" font-family="Helvetica,sans-Serif" font-size="10.00">/Code/Big&#45;Projects/ArkScript</text>
<text text-anchor="start" x="168" y="-18.5" font-family="Helvetica,sans-Serif" font-size="10.00">/Ark/src/arkreactor/Compiler</text>
<text text-anchor="middle" x="231" y="-7.5" font-family="Helvetica,sans-Serif" font-size="10.00">/Macros/Executor.cpp</text>
</a>
</g>
</g>
<!-- Node2&#45;&gt;Node4 -->
<g id="edge3" class="edge">
<title>Node2&#45;&gt;Node4</title>
<path fill="none" stroke="midnightblue" d="M231,-79.19C231,-70.28 231,-60.9 231,-52.61"/>
<polygon fill="midnightblue" stroke="midnightblue" points="227.5,-79.34 231,-89.34 234.5,-79.34 227.5,-79.34"/>
</g>
<!-- Node5 -->
<g id="node5" class="node">
<title>Node5</title>
<g id="a_node5"><a xlink:href="../../d6/d69/Processor_8cpp.html" target="_top" xlink:title=" ">
<polygon fill="white" stroke="black" points="320,-0.5 320,-52.5 462,-52.5 462,-0.5 320,-0.5"/>
<text text-anchor="start" x="328" y="-40.5" font-family="Helvetica,sans-Serif" font-size="10.00">C:/Users/folae/Documents</text>
<text text-anchor="start" x="328" y="-29.5" font-family="Helvetica,sans-Serif" font-size="10.00">/Code/Big&#45;Projects/ArkScript</text>
<text text-anchor="start" x="328" y="-18.5" font-family="Helvetica,sans-Serif" font-size="10.00">/Ark/src/arkreactor/Compiler</text>
<text text-anchor="middle" x="391" y="-7.5" font-family="Helvetica,sans-Serif" font-size="10.00">/Macros/Processor.cpp</text>
</a>
</g>
</g>
<!-- Node2&#45;&gt;Node5 -->
<g id="edge4" class="edge">
<title>Node2&#45;&gt;Node5</title>
<path fill="none" stroke="midnightblue" d="M286.18,-84.49C305.3,-74.1 326.51,-62.57 344.83,-52.61"/>
<polygon fill="midnightblue" stroke="midnightblue" points="284.39,-81.48 277.28,-89.34 287.74,-87.63 284.39,-81.48"/>
</g>
</g>
</svg>
