<?xml version="1.0" encoding="UTF-8" standalone="no"?>
<!DOCTYPE svg PUBLIC "-//W3C//DTD SVG 1.1//EN"
 "http://www.w3.org/Graphics/SVG/1.1/DTD/svg11.dtd">
<!-- Generated by graphviz version 10.0.1 (20240210.2158)
 -->
<!-- Title: /Users/fola/Documents/ArkScript/Ark/src/arkreactor/Compiler/AST/BaseParser.cpp Pages: 1 -->
<!--zoomable 282 -->
<svg id="main" version="1.1" xmlns="http://www.w3.org/2000/svg" xmlns:xlink="http://www.w3.org/1999/xlink" xml:space="preserve" onload="init(evt)">
<style type="text/css"><![CDATA[
.edge:hover path { stroke: red; }
.edge:hover polygon { stroke: red; fill: red; }
]]></style>
<script type="text/javascript"><![CDATA[
var edges = document.getElementsByTagName('g');
if (edges && edges.length) {
  for (var i=0;i<edges.length;i++) {
    if (edges[i].id.substr(0,4)=='edge') {
      edges[i].setAttribute('class','edge');
    }
  }
}
]]></script>
        <defs>
                <circle id="rim" cx="0" cy="0" r="7"/>
                <circle id="rim2" cx="0" cy="0" r="3.5"/>
                <g id="zoomPlus">
                        <use xlink:href="#rim" fill="#404040">
                                <set attributeName="fill" to="#808080" begin="zoomplus.mouseover" end="zoomplus.mouseout"/>
                        </use>
                        <path d="M-4,0h8M0,-4v8" fill="none" stroke="white" stroke-width="1.5" pointer-events="none"/>
                </g>
                <g id="zoomMin">
                        <use xlink:href="#rim" fill="#404040">
                                <set attributeName="fill" to="#808080" begin="zoomminus.mouseover" end="zoomminus.mouseout"/>
                        </use>
                        <path d="M-4,0h8" fill="none" stroke="white" stroke-width="1.5" pointer-events="none"/>
                </g>
                <g id="dirArrow">
                        <path fill="none" stroke="white" stroke-width="1.5" d="M0,-3.0v7 M-2.5,-0.5L0,-3.0L2.5,-0.5"/>
                </g>
               <g id="resetDef">
                       <use xlink:href="#rim2" fill="#404040">
                               <set attributeName="fill" to="#808080" begin="reset.mouseover" end="reset.mouseout"/>
                       </use>
               </g>
        </defs>

<script type="text/javascript">
var viewWidth = 843;
var viewHeight = 282;
var sectionId = 'dynsection-0';
</script>
<script xlink:href="../../svgpan.js"/>
<svg id="graph" class="graph">
<g id="viewport">
<title>/Users/fola/Documents/ArkScript/Ark/src/arkreactor/Compiler/AST/BaseParser.cpp</title>
<!-- Node1 -->
<g id="node1" class="node">
<title>Node1</title>
<g id="a_node1"><a xlink:title=" ">
<polygon fill="#999999" stroke="#666666" points="493.2,-274 340.7,-274 340.7,-232.25 493.2,-232.25 493.2,-274"/>
<text text-anchor="start" x="348.7" y="-260.5" font-family="Helvetica,sans-Serif" font-size="10.00">/Users/fola/Documents</text>
<text text-anchor="start" x="348.7" y="-249.25" font-family="Helvetica,sans-Serif" font-size="10.00">/ArkScript/Ark/src/arkreactor</text>
<text text-anchor="middle" x="416.95" y="-238" font-family="Helvetica,sans-Serif" font-size="10.00">/Compiler/AST/BaseParser.cpp</text>
</a>
</g>
</g>
<!-- Node2 -->
<g id="node2" class="node">
<title>Node2</title>
<g id="a_node2"><a xlink:href="../../d3/d70/BaseParser_8hpp.html" target="_top" xlink:title=" ">
<polygon fill="white" stroke="#666666" points="378.7,-196.25 211.2,-196.25 211.2,-177 378.7,-177 378.7,-196.25"/>
<text text-anchor="middle" x="294.95" y="-182.75" font-family="Helvetica,sans-Serif" font-size="10.00">Ark/Compiler/AST/BaseParser.hpp</text>
</a>
</g>
</g>
<!-- Node1&#45;&gt;Node2 -->
<g id="edge1" class="edge">
<title>Node1&#45;&gt;Node2</title>
<path fill="none" stroke="#63b8ff" d="M378.68,-231.89C360.34,-222.2 338.8,-210.81 322.15,-202.01"/>
<polygon fill="#63b8ff" stroke="#63b8ff" points="323.82,-198.93 313.35,-197.35 320.55,-205.12 323.82,-198.93"/>
</g>
<!-- Node12 -->
<g id="node12" class="node">
<title>Node12</title>
<g id="a_node12"><a xlink:href="../../d2/de9/Exceptions_8hpp.html" target="_top" xlink:title="ArkScript homemade exceptions.">
<polygon fill="white" stroke="#666666" points="590.7,-196.25 489.2,-196.25 489.2,-177 590.7,-177 590.7,-196.25"/>
<text text-anchor="middle" x="539.95" y="-182.75" font-family="Helvetica,sans-Serif" font-size="10.00">Ark/Exceptions.hpp</text>
</a>
</g>
</g>
<!-- Node1&#45;&gt;Node12 -->
<g id="edge14" class="edge">
<title>Node1&#45;&gt;Node12</title>
<path fill="none" stroke="#63b8ff" d="M455.53,-231.89C474.2,-222.1 496.16,-210.59 513,-201.76"/>
<polygon fill="#63b8ff" stroke="#63b8ff" points="514.18,-205.09 521.41,-197.35 510.93,-198.89 514.18,-205.09"/>
</g>
<!-- Node3 -->
<g id="node3" class="node">
<title>Node3</title>
<g id="a_node3"><a xlink:title=" ">
<polygon fill="#e0e0e0" stroke="#999999" points="423.95,-19.25 383.95,-19.25 383.95,0 423.95,0 423.95,-19.25"/>
<text text-anchor="middle" x="403.95" y="-5.75" font-family="Helvetica,sans-Serif" font-size="10.00">string</text>
</a>
</g>
</g>
<!-- Node2&#45;&gt;Node3 -->
<g id="edge2" class="edge">
<title>Node2&#45;&gt;Node3</title>
<path fill="none" stroke="#63b8ff" d="M210.87,-184.47C134.6,-181.43 30.21,-171.59 3.95,-141 -1.62,-134.51 -0.71,-128.93 3.95,-121.75 44.88,-58.66 284.88,-24.59 372.2,-14.14"/>
<polygon fill="#63b8ff" stroke="#63b8ff" points="372.44,-17.64 381.97,-13 371.63,-10.69 372.44,-17.64"/>
</g>
<!-- Node4 -->
<g id="node4" class="node">
<title>Node4</title>
<g id="a_node4"><a xlink:title=" ">
<polygon fill="#e0e0e0" stroke="#999999" points="473.45,-141 430.45,-141 430.45,-121.75 473.45,-121.75 473.45,-141"/>
<text text-anchor="middle" x="451.95" y="-127.5" font-family="Helvetica,sans-Serif" font-size="10.00">vector</text>
</a>
</g>
</g>
<!-- Node2&#45;&gt;Node4 -->
<g id="edge3" class="edge">
<title>Node2&#45;&gt;Node4</title>
<path fill="none" stroke="#63b8ff" d="M321.58,-176.59C348.61,-167.42 390.5,-153.22 419.46,-143.39"/>
<polygon fill="#63b8ff" stroke="#63b8ff" points="420.47,-146.75 428.82,-140.22 418.22,-140.12 420.47,-146.75"/>
</g>
<!-- Node5 -->
<g id="node5" class="node">
<title>Node5</title>
<g id="a_node5"><a xlink:title=" ">
<polygon fill="#e0e0e0" stroke="#999999" points="85.08,-141 12.83,-141 12.83,-121.75 85.08,-121.75 85.08,-141"/>
<text text-anchor="middle" x="48.95" y="-127.5" font-family="Helvetica,sans-Serif" font-size="10.00">initializer_list</text>
</a>
</g>
</g>
<!-- Node2&#45;&gt;Node5 -->
<g id="edge4" class="edge">
<title>Node2&#45;&gt;Node5</title>
<path fill="none" stroke="#63b8ff" d="M252.94,-176.53C209.55,-167.14 141.95,-152.51 96.59,-142.69"/>
<polygon fill="#63b8ff" stroke="#63b8ff" points="97.56,-139.32 87.05,-140.62 96.08,-146.16 97.56,-139.32"/>
</g>
<!-- Node6 -->
<g id="node6" class="node">
<title>Node6</title>
<g id="a_node6"><a xlink:href="../../d5/d40/Platform_8hpp.html" target="_top" xlink:title="ArkScript configuration macros.">
<polygon fill="white" stroke="#666666" points="412.7,-141 323.2,-141 323.2,-121.75 412.7,-121.75 412.7,-141"/>
<text text-anchor="middle" x="367.95" y="-127.5" font-family="Helvetica,sans-Serif" font-size="10.00">Ark/Platform.hpp</text>
</a>
</g>
</g>
<!-- Node2&#45;&gt;Node6 -->
<g id="edge5" class="edge">
<title>Node2&#45;&gt;Node6</title>
<path fill="none" stroke="#63b8ff" d="M307.33,-176.59C318.1,-168.74 333.92,-157.2 346.7,-147.87"/>
<polygon fill="#63b8ff" stroke="#63b8ff" points="348.51,-150.89 354.53,-142.17 344.39,-145.23 348.51,-150.89"/>
</g>
<!-- Node7 -->
<g id="node7" class="node">
<title>Node7</title>
<g id="a_node7"><a xlink:href="../../dc/d59/Predicates_8hpp.html" target="_top" xlink:title=" ">
<polygon fill="white" stroke="#666666" points="266.83,-141 103.08,-141 103.08,-121.75 266.83,-121.75 266.83,-141"/>
<text text-anchor="middle" x="184.95" y="-127.5" font-family="Helvetica,sans-Serif" font-size="10.00">Ark/Compiler/AST/Predicates.hpp</text>
</a>
</g>
</g>
<!-- Node2&#45;&gt;Node7 -->
<g id="edge6" class="edge">
<title>Node2&#45;&gt;Node7</title>
<path fill="none" stroke="#63b8ff" d="M276.29,-176.59C259.22,-168.33 233.71,-155.98 213.98,-146.43"/>
<polygon fill="#63b8ff" stroke="#63b8ff" points="215.59,-143.32 205.06,-142.11 212.54,-149.62 215.59,-143.32"/>
</g>
<!-- Node9 -->
<g id="node9" class="node">
<title>Node9</title>
<g id="a_node9"><a xlink:href="../../db/d4e/utf8__char_8hpp.html" target="_top" xlink:title=" ">
<polygon fill="white" stroke="#666666" points="597.45,-85.75 482.45,-85.75 482.45,-55.25 597.45,-55.25 597.45,-85.75"/>
<text text-anchor="start" x="490.45" y="-72.25" font-family="Helvetica,sans-Serif" font-size="10.00">Ark/Compiler/AST/utf8</text>
<text text-anchor="middle" x="539.95" y="-61" font-family="Helvetica,sans-Serif" font-size="10.00">_char.hpp</text>
</a>
</g>
</g>
<!-- Node2&#45;&gt;Node9 -->
<g id="edge13" class="edge">
<title>Node2&#45;&gt;Node9</title>
<path fill="none" stroke="#63b8ff" d="M294.92,-176.75C295.38,-162.91 298.38,-136.26 313.95,-121.75 336.49,-100.75 413.06,-86.88 470.88,-79.13"/>
<polygon fill="#63b8ff" stroke="#63b8ff" points="471.2,-82.62 480.67,-77.86 470.3,-75.68 471.2,-82.62"/>
</g>
<!-- Node7&#45;&gt;Node3 -->
<g id="edge7" class="edge">
<title>Node7&#45;&gt;Node3</title>
<path fill="none" stroke="#63b8ff" d="M201.41,-121.37C238.98,-100.83 331.35,-50.32 377.22,-25.24"/>
<polygon fill="#63b8ff" stroke="#63b8ff" points="378.88,-28.32 385.97,-20.46 375.52,-22.18 378.88,-28.32"/>
</g>
<!-- Node8 -->
<g id="node8" class="node">
<title>Node8</title>
<g id="a_node8"><a xlink:title=" ">
<polygon fill="#e0e0e0" stroke="#999999" points="207.58,-80.12 162.33,-80.12 162.33,-60.88 207.58,-60.88 207.58,-80.12"/>
<text text-anchor="middle" x="184.95" y="-66.62" font-family="Helvetica,sans-Serif" font-size="10.00">cctype</text>
</a>
</g>
</g>
<!-- Node7&#45;&gt;Node8 -->
<g id="edge8" class="edge">
<title>Node7&#45;&gt;Node8</title>
<path fill="none" stroke="#63b8ff" d="M184.95,-121.43C184.95,-113.65 184.95,-102.08 184.95,-92.03"/>
<polygon fill="#63b8ff" stroke="#63b8ff" points="188.45,-92.04 184.95,-82.04 181.45,-92.04 188.45,-92.04"/>
</g>
<!-- Node7&#45;&gt;Node9 -->
<g id="edge9" class="edge">
<title>Node7&#45;&gt;Node9</title>
<path fill="none" stroke="#63b8ff" d="M239.64,-121.3C301.82,-110.99 403.44,-94.14 471,-82.94"/>
<polygon fill="#63b8ff" stroke="#63b8ff" points="471.17,-86.46 480.46,-81.37 470.02,-79.55 471.17,-86.46"/>
</g>
<!-- Node9&#45;&gt;Node3 -->
<g id="edge11" class="edge">
<title>Node9&#45;&gt;Node3</title>
<path fill="none" stroke="#63b8ff" d="M505.98,-54.8C484.14,-45.34 455.99,-33.15 434.79,-23.98"/>
<polygon fill="#63b8ff" stroke="#63b8ff" points="436.37,-20.84 425.8,-20.08 433.58,-27.27 436.37,-20.84"/>
</g>
<!-- Node10 -->
<g id="node10" class="node">
<title>Node10</title>
<g id="a_node10"><a xlink:title=" ">
<polygon fill="#e0e0e0" stroke="#999999" points="586.83,-19.25 549.08,-19.25 549.08,0 586.83,0 586.83,-19.25"/>
<text text-anchor="middle" x="567.95" y="-5.75" font-family="Helvetica,sans-Serif" font-size="10.00">array</text>
</a>
</g>
</g>
<!-- Node9&#45;&gt;Node10 -->
<g id="edge10" class="edge">
<title>Node9&#45;&gt;Node10</title>
<path fill="none" stroke="#63b8ff" d="M546.87,-54.95C550.44,-47.45 554.84,-38.2 558.69,-30.1"/>
<polygon fill="#63b8ff" stroke="#63b8ff" points="561.85,-31.6 562.98,-21.07 555.53,-28.6 561.85,-31.6"/>
</g>
<!-- Node11 -->
<g id="node11" class="node">
<title>Node11</title>
<g id="a_node11"><a xlink:title=" ">
<polygon fill="#e0e0e0" stroke="#999999" points="530.58,-19.25 491.33,-19.25 491.33,0 530.58,0 530.58,-19.25"/>
<text text-anchor="middle" x="510.95" y="-5.75" font-family="Helvetica,sans-Serif" font-size="10.00">limits</text>
</a>
</g>
</g>
<!-- Node9&#45;&gt;Node11 -->
<g id="edge12" class="edge">
<title>Node9&#45;&gt;Node11</title>
<path fill="none" stroke="#63b8ff" d="M532.78,-54.95C529.05,-47.36 524.43,-37.99 520.4,-29.82"/>
<polygon fill="#63b8ff" stroke="#63b8ff" points="523.65,-28.48 516.09,-21.06 517.37,-31.58 523.65,-28.48"/>
</g>
<!-- Node12&#45;&gt;Node3 -->
<g id="edge15" class="edge">
<title>Node12&#45;&gt;Node3</title>
<path fill="none" stroke="#63b8ff" d="M533.02,-176.71C511.65,-149.21 446.52,-65.4 417.8,-28.45"/>
<polygon fill="#63b8ff" stroke="#63b8ff" points="420.86,-26.68 411.96,-20.93 415.33,-30.97 420.86,-26.68"/>
</g>
<!-- Node12&#45;&gt;Node4 -->
<g id="edge16" class="edge">
<title>Node12&#45;&gt;Node4</title>
<path fill="none" stroke="#63b8ff" d="M525.02,-176.59C511.75,-168.56 492.08,-156.66 476.5,-147.23"/>
<polygon fill="#63b8ff" stroke="#63b8ff" points="478.61,-144.42 468.25,-142.24 474.99,-150.41 478.61,-144.42"/>
</g>
<!-- Node12&#45;&gt;Node6 -->
<g id="edge22" class="edge">
<title>Node12&#45;&gt;Node6</title>
<path fill="none" stroke="#63b8ff" d="M510.77,-176.59C482.48,-167.83 439.34,-154.48 407.87,-144.73"/>
<polygon fill="#63b8ff" stroke="#63b8ff" points="409.3,-141.51 398.72,-141.9 407.23,-148.2 409.3,-141.51"/>
</g>
<!-- Node12&#45;&gt;Node9 -->
<g id="edge21" class="edge">
<title>Node12&#45;&gt;Node9</title>
<path fill="none" stroke="#63b8ff" d="M539.95,-176.67C539.95,-159.78 539.95,-122.65 539.95,-97.35"/>
<polygon fill="#63b8ff" stroke="#63b8ff" points="543.45,-97.53 539.95,-87.53 536.45,-97.53 543.45,-97.53"/>
</g>
<!-- Node13 -->
<g id="node13" class="node">
<title>Node13</title>
<g id="a_node13"><a xlink:title=" ">
<polygon fill="#e0e0e0" stroke="#999999" points="626.33,-141 567.58,-141 567.58,-121.75 626.33,-121.75 626.33,-141"/>
<text text-anchor="middle" x="596.95" y="-127.5" font-family="Helvetica,sans-Serif" font-size="10.00">stdexcept</text>
</a>
</g>
</g>
<!-- Node12&#45;&gt;Node13 -->
<g id="edge17" class="edge">
<title>Node12&#45;&gt;Node13</title>
<path fill="none" stroke="#63b8ff" d="M549.62,-176.59C557.69,-169.05 569.42,-158.1 579.17,-148.98"/>
<polygon fill="#63b8ff" stroke="#63b8ff" points="581.4,-151.69 586.32,-142.31 576.62,-146.58 581.4,-151.69"/>
</g>
<!-- Node14 -->
<g id="node14" class="node">
<title>Node14</title>
<g id="a_node14"><a xlink:title=" ">
<polygon fill="#e0e0e0" stroke="#999999" points="693.83,-141 644.08,-141 644.08,-121.75 693.83,-121.75 693.83,-141"/>
<text text-anchor="middle" x="668.95" y="-127.5" font-family="Helvetica,sans-Serif" font-size="10.00">optional</text>
</a>
</g>
</g>
<!-- Node12&#45;&gt;Node14 -->
<g id="edge18" class="edge">
<title>Node12&#45;&gt;Node14</title>
<path fill="none" stroke="#63b8ff" d="M561.83,-176.59C582.31,-168.14 613.16,-155.4 636.51,-145.77"/>
<polygon fill="#63b8ff" stroke="#63b8ff" points="637.65,-149.08 645.56,-142.03 634.98,-142.61 637.65,-149.08"/>
</g>
<!-- Node15 -->
<g id="node15" class="node">
<title>Node15</title>
<g id="a_node15"><a xlink:title=" ">
<polygon fill="#e0e0e0" stroke="#999999" points="763.58,-141 712.33,-141 712.33,-121.75 763.58,-121.75 763.58,-141"/>
<text text-anchor="middle" x="737.95" y="-127.5" font-family="Helvetica,sans-Serif" font-size="10.00">ostream</text>
</a>
</g>
</g>
<!-- Node12&#45;&gt;Node15 -->
<g id="edge19" class="edge">
<title>Node12&#45;&gt;Node15</title>
<path fill="none" stroke="#63b8ff" d="M573.54,-176.59C609.03,-167.05 664.84,-152.04 701.41,-142.2"/>
<polygon fill="#63b8ff" stroke="#63b8ff" points="701.89,-145.7 710.64,-139.72 700.07,-138.94 701.89,-145.7"/>
</g>
<!-- Node16 -->
<g id="node16" class="node">
<title>Node16</title>
<g id="a_node16"><a xlink:title=" ">
<polygon fill="#e0e0e0" stroke="#999999" points="834.7,-141 781.2,-141 781.2,-121.75 834.7,-121.75 834.7,-141"/>
<text text-anchor="middle" x="807.95" y="-127.5" font-family="Helvetica,sans-Serif" font-size="10.00">iostream</text>
</a>
</g>
</g>
<!-- Node12&#45;&gt;Node16 -->
<g id="edge20" class="edge">
<title>Node12&#45;&gt;Node16</title>
<path fill="none" stroke="#63b8ff" d="M591.01,-176.64C635.83,-168.58 703.03,-156.05 769.72,-141.63"/>
<polygon fill="#63b8ff" stroke="#63b8ff" points="770.35,-145.07 779.37,-139.52 768.86,-138.24 770.35,-145.07"/>
</g>
</g>
</svg>
        <g id="navigator" transform="translate(0 0)" fill="#404254">
                <rect fill="#f2f5e9" fill-opacity="0.5" stroke="#606060" stroke-width=".5" x="0" y="0" width="60" height="60"/>
                <use id="zoomplus" xlink:href="#zoomPlus" x="17" y="9" onmousedown="handleZoom(evt,'in')"/>
                <use id="zoomminus" xlink:href="#zoomMin" x="42" y="9" onmousedown="handleZoom(evt,'out')"/>
                <use id="reset" xlink:href="#resetDef" x="30" y="36" onmousedown="handleReset()"/>
                <g id="arrowUp" xlink:href="#dirArrow" transform="translate(30 24)" onmousedown="handlePan(0,-1)">
                  <use xlink:href="#rim" fill="#404040">
                        <set attributeName="fill" to="#808080" begin="arrowUp.mouseover" end="arrowUp.mouseout"/>
                  </use>
                  <path fill="none" stroke="white" stroke-width="1.5" d="M0,-3.0v7 M-2.5,-0.5L0,-3.0L2.5,-0.5"/>
                </g>
                <g id="arrowRight" xlink:href="#dirArrow" transform="rotate(90) translate(36 -43)" onmousedown="handlePan(1,0)">
                  <use xlink:href="#rim" fill="#404040">
                        <set attributeName="fill" to="#808080" begin="arrowRight.mouseover" end="arrowRight.mouseout"/>
                  </use>
                  <path fill="none" stroke="white" stroke-width="1.5" d="M0,-3.0v7 M-2.5,-0.5L0,-3.0L2.5,-0.5"/>
                </g>
                <g id="arrowDown" xlink:href="#dirArrow" transform="rotate(180) translate(-30 -48)" onmousedown="handlePan(0,1)">
                  <use xlink:href="#rim" fill="#404040">
                        <set attributeName="fill" to="#808080" begin="arrowDown.mouseover" end="arrowDown.mouseout"/>
                  </use>
                  <path fill="none" stroke="white" stroke-width="1.5" d="M0,-3.0v7 M-2.5,-0.5L0,-3.0L2.5,-0.5"/>
                </g>
                <g id="arrowLeft" xlink:href="#dirArrow" transform="rotate(270) translate(-36 17)" onmousedown="handlePan(-1,0)">
                  <use xlink:href="#rim" fill="#404040">
                        <set attributeName="fill" to="#808080" begin="arrowLeft.mouseover" end="arrowLeft.mouseout"/>
                  </use>
                  <path fill="none" stroke="white" stroke-width="1.5" d="M0,-3.0v7 M-2.5,-0.5L0,-3.0L2.5,-0.5"/>
                </g>
        </g>
        <svg viewBox="0 0 15 15" width="100%" height="30px" preserveAspectRatio="xMaxYMin meet">
         <g id="arrow_out" transform="scale(0.3 0.3)">
          <a xlink:href="BaseParser_8cpp__incl_org.svg" target="_base">
           <rect id="button" ry="5" rx="5" y="6" x="6" height="38" width="38"
                fill="#f2f5e9" fill-opacity="0.5" stroke="#606060" stroke-width="1.0"/>
           <path id="arrow"
             d="M 11.500037,31.436501 C 11.940474,20.09759 22.043105,11.32322 32.158766,21.979434 L 37.068811,17.246167 C 37.068811,17.246167 37.088388,32 37.088388,32 L 22.160133,31.978069 C 22.160133,31.978069 26.997745,27.140456 26.997745,27.140456 C 18.528582,18.264221 13.291696,25.230495 11.500037,31.436501 z"
             style="fill:#404040;"/>
          </a>
         </g>
        </svg>
</svg>
