<?xml version="1.0" encoding="UTF-8" standalone="no"?>
<!DOCTYPE svg PUBLIC "-//W3C//DTD SVG 1.1//EN"
 "http://www.w3.org/Graphics/SVG/1.1/DTD/svg11.dtd">
<!-- Generated by graphviz version 12.1.1 (20240910.0053)
 -->
<!-- Title: /Users/fola/Documents/ArkScript/Ark/include/Ark/Exceptions.hpp Pages: 1 -->
<!--zoomable 361 -->

<svg id="main" version="1.1" xmlns="http://www.w3.org/2000/svg" xmlns:xlink="http://www.w3.org/1999/xlink" xml:space="preserve" onload="init(evt)">

<style type="text/css"><![CDATA[
.node, .edge {opacity: 0.7;}
.node.selected, .edge.selected {opacity: 1;}
.edge:hover path { stroke: red; }
.edge:hover polygon { stroke: red; fill: red; }
]]></style>

<defs>
  <circle id="rim" cx="0" cy="0" r="7"/>
  <circle id="rim2" cx="0" cy="0" r="3.5"/>
  <g id="zoomPlus">
    <use xlink:href="#rim" fill="#404040"><set attributeName="fill" to="#808080" begin="zoomplus.mouseover" end="zoomplus.mouseout"/></use>
    <path d="M-4,0h8M0,-4v8" fill="none" stroke="white" stroke-width="1.5" pointer-events="none"/>
  </g>
  <g id="zoomMin">
    <use xlink:href="#rim" fill="#404040"><set attributeName="fill" to="#808080" begin="zoomminus.mouseover" end="zoomminus.mouseout"/></use>
    <path d="M-4,0h8" fill="none" stroke="white" stroke-width="1.5" pointer-events="none"/>
  </g>
  <g id="arrowUp" transform="translate(30 24)">
    <use xlink:href="#rim"/>
    <path pointer-events="none" fill="none" stroke="white" stroke-width="1.5" d="M0,-3.0v7 M-2.5,-0.5L0,-3.0L2.5,-0.5"/>
  </g>
  <g id="arrowRight" transform="rotate(90) translate(36 -43)">
    <use xlink:href="#rim"/>
    <path pointer-events="none" fill="none" stroke="white" stroke-width="1.5" d="M0,-3.0v7 M-2.5,-0.5L0,-3.0L2.5,-0.5"/>
  </g>
  <g id="arrowDown" transform="rotate(180) translate(-30 -48)">
    <use xlink:href="#rim"/>
    <path pointer-events="none" fill="none" stroke="white" stroke-width="1.5" d="M0,-3.0v7 M-2.5,-0.5L0,-3.0L2.5,-0.5"/>
  </g>
  <g id="arrowLeft" transform="rotate(270) translate(-36 17)">
    <use xlink:href="#rim"/>
    <path pointer-events="none" fill="none" stroke="white" stroke-width="1.5" d="M0,-3.0v7 M-2.5,-0.5L0,-3.0L2.5,-0.5"/>
  </g>
  <g id="resetDef">
    <use xlink:href="#rim2" fill="#404040"><set attributeName="fill" to="#808080" begin="reset.mouseover" end="reset.mouseout"/></use>
  </g>
</defs>
<script type="application/ecmascript">
var viewWidth = 2494;
var viewHeight = 361;
var sectionId = 'dynsection-1';
</script>
<script type="application/ecmascript" xlink:href="../../svg.min.js"/>
<svg id="graph" class="graph">
<g id="viewport">
<title>/Users/fola/Documents/ArkScript/Ark/include/Ark/Exceptions.hpp</title>
<!-- Node1 -->
<g id="Node000001" class="node">
<title>Node1</title>
<g id="a_Node000001"><a xlink:title="ArkScript homemade exceptions.">
<polygon fill="#999999" stroke="#666666" points="1521.88,-352.75 1404.63,-352.75 1404.63,-311 1521.88,-311 1521.88,-352.75"/>
<text text-anchor="start" x="1412.63" y="-339.25" font-family="Helvetica,sans-Serif" font-size="10.00">/Users/fola/Documents</text>
<text text-anchor="start" x="1412.63" y="-328" font-family="Helvetica,sans-Serif" font-size="10.00">/ArkScript/Ark/include</text>
<text text-anchor="middle" x="1463.25" y="-316.75" font-family="Helvetica,sans-Serif" font-size="10.00">/Ark/Exceptions.hpp</text>
</a>
</g>
</g>
<!-- Node2 -->
<g id="Node000002" class="node">
<title>Node2</title>
<g id="a_Node000002"><a xlink:href="../../d3/d7e/Ark_8hpp.html" target="_top" xlink:title="Includes the needed files to start using ArkScript.">
<polygon fill="white" stroke="#666666" points="186.88,-119.5 69.63,-119.5 69.63,-77.75 186.88,-77.75 186.88,-119.5"/>
<text text-anchor="start" x="77.63" y="-106" font-family="Helvetica,sans-Serif" font-size="10.00">/Users/fola/Documents</text>
<text text-anchor="start" x="77.63" y="-94.75" font-family="Helvetica,sans-Serif" font-size="10.00">/ArkScript/Ark/include</text>
<text text-anchor="middle" x="128.25" y="-83.5" font-family="Helvetica,sans-Serif" font-size="10.00">/Ark/Ark.hpp</text>
</a>
</g>
</g>
<!-- Node1&#45;&gt;Node2 -->
<g id="edge1_Node000001_Node000002" class="edge">
<title>Node1&#45;&gt;Node2</title>
<g id="a_edge1_Node000001_Node000002"><a xlink:title=" ">
<path fill="none" stroke="#63b8ff" d="M1393.37,-330.14C1115.14,-326.47 96.88,-305.67 8.25,-197.25 -3.49,-182.88 -1.72,-171.15 8.25,-155.5 21.9,-134.09 46.13,-120.75 69.26,-112.5"/>
<polygon fill="#63b8ff" stroke="#63b8ff" points="1392.96,-333.64 1403,-330.26 1393.05,-326.64 1392.96,-333.64"/>
</a>
</g>
</g>
<!-- Node4 -->
<g id="Node000004" class="node">
<title>Node4</title>
<g id="a_Node000004"><a xlink:href="../../da/d84/Builtins_8hpp.html" target="_top" xlink:title="Host the declaration of all the ArkScript builtins.">
<polygon fill="white" stroke="#666666" points="523.88,-275 400.63,-275 400.63,-233.25 523.88,-233.25 523.88,-275"/>
<text text-anchor="start" x="408.63" y="-261.5" font-family="Helvetica,sans-Serif" font-size="10.00">/Users/fola/Documents</text>
<text text-anchor="start" x="408.63" y="-250.25" font-family="Helvetica,sans-Serif" font-size="10.00">/ArkScript/Ark/include</text>
<text text-anchor="middle" x="462.25" y="-239" font-family="Helvetica,sans-Serif" font-size="10.00">/Ark/Builtins/Builtins.hpp</text>
</a>
</g>
</g>
<!-- Node1&#45;&gt;Node4 -->
<g id="edge3_Node000001_Node000004" class="edge">
<title>Node1&#45;&gt;Node4</title>
<g id="a_edge3_Node000001_Node000004"><a xlink:title=" ">
<path fill="none" stroke="#63b8ff" d="M1393.12,-326.56C1254.52,-317.9 935.81,-297.31 668.25,-275 619.74,-270.96 564.87,-265.62 523.96,-261.5"/>
<polygon fill="#63b8ff" stroke="#63b8ff" points="1392.66,-330.04 1402.86,-327.17 1393.1,-323.05 1392.66,-330.04"/>
</a>
</g>
</g>
<!-- Node15 -->
<g id="Node000015" class="node">
<title>Node15</title>
<g id="a_Node000015"><a xlink:href="../../d6/d69/Processor_8cpp.html" target="_top" xlink:title=" ">
<polygon fill="white" stroke="#666666" points="541.5,-197.25 383,-197.25 383,-155.5 541.5,-155.5 541.5,-197.25"/>
<text text-anchor="start" x="391" y="-183.75" font-family="Helvetica,sans-Serif" font-size="10.00">/Users/fola/Documents</text>
<text text-anchor="start" x="391" y="-172.5" font-family="Helvetica,sans-Serif" font-size="10.00">/ArkScript/Ark/src/arkreactor</text>
<text text-anchor="middle" x="462.25" y="-161.25" font-family="Helvetica,sans-Serif" font-size="10.00">/Compiler/Macros/Processor.cpp</text>
</a>
</g>
</g>
<!-- Node1&#45;&gt;Node15 -->
<g id="edge33_Node000001_Node000015" class="edge">
<title>Node1&#45;&gt;Node15</title>
<g id="a_edge33_Node000001_Node000015"><a xlink:title=" ">
<path fill="none" stroke="#63b8ff" d="M1393.12,-329.16C1273.06,-325.28 1020.81,-312.94 811.25,-275 707.71,-256.25 590.5,-220.33 521.67,-197.68"/>
<polygon fill="#63b8ff" stroke="#63b8ff" points="1392.71,-332.65 1402.81,-329.47 1392.93,-325.66 1392.71,-332.65"/>
</a>
</g>
</g>
<!-- Node16 -->
<g id="Node000016" class="node">
<title>Node16</title>
<g id="a_Node000016"><a xlink:href="../../de/dd7/NameResolutionPass_8cpp.html" target="_top" xlink:title=" ">
<polygon fill="white" stroke="#666666" points="734.75,-197.25 559.75,-197.25 559.75,-155.5 734.75,-155.5 734.75,-197.25"/>
<text text-anchor="start" x="567.75" y="-183.75" font-family="Helvetica,sans-Serif" font-size="10.00">/Users/fola/Documents</text>
<text text-anchor="start" x="567.75" y="-172.5" font-family="Helvetica,sans-Serif" font-size="10.00">/ArkScript/Ark/src/arkreactor</text>
<text text-anchor="middle" x="647.25" y="-161.25" font-family="Helvetica,sans-Serif" font-size="10.00">/Compiler/NameResolutionPass.cpp</text>
</a>
</g>
</g>
<!-- Node1&#45;&gt;Node16 -->
<g id="edge34_Node000001_Node000016" class="edge">
<title>Node1&#45;&gt;Node16</title>
<g id="a_edge34_Node000001_Node000016"><a xlink:title=" ">
<path fill="none" stroke="#63b8ff" d="M1392.87,-327.16C1295.65,-321.08 1115.16,-306.4 964.25,-275 870.39,-255.47 764.53,-220.05 701.98,-197.67"/>
<polygon fill="#63b8ff" stroke="#63b8ff" points="1392.6,-330.65 1402.8,-327.76 1393.03,-323.66 1392.6,-330.65"/>
</a>
</g>
</g>
<!-- Node17 -->
<g id="Node000017" class="node">
<title>Node17</title>
<g id="a_Node000017"><a xlink:href="../../db/d93/Optimizer_8hpp.html" target="_top" xlink:title="Optimizes a given ArkScript AST.">
<polygon fill="white" stroke="#666666" points="1405,-275 1243.5,-275 1243.5,-233.25 1405,-233.25 1405,-275"/>
<text text-anchor="start" x="1251.5" y="-261.5" font-family="Helvetica,sans-Serif" font-size="10.00">/Users/fola/Documents</text>
<text text-anchor="start" x="1251.5" y="-250.25" font-family="Helvetica,sans-Serif" font-size="10.00">/ArkScript/Ark/include</text>
<text text-anchor="middle" x="1324.25" y="-239" font-family="Helvetica,sans-Serif" font-size="10.00">/Ark/Compiler/AST/Optimizer.hpp</text>
</a>
</g>
</g>
<!-- Node1&#45;&gt;Node17 -->
<g id="edge18_Node000001_Node000017" class="edge">
<title>Node1&#45;&gt;Node17</title>
<g id="a_edge18_Node000001_Node000017"><a xlink:title=" ">
<path fill="none" stroke="#63b8ff" d="M1416.36,-305.32C1398.52,-295.6 1378.45,-284.66 1361.61,-275.48"/>
<polygon fill="#63b8ff" stroke="#63b8ff" points="1414.22,-308.14 1424.68,-309.85 1417.57,-301.99 1414.22,-308.14"/>
</a>
</g>
</g>
<!-- Node20 -->
<g id="Node000020" class="node">
<title>Node20</title>
<g id="a_Node000020"><a xlink:href="../../db/d71/JsonCompiler_8cpp.html" target="_top" xlink:title=" ">
<polygon fill="white" stroke="#666666" points="1488.5,-41.75 1354,-41.75 1354,0 1488.5,0 1488.5,-41.75"/>
<text text-anchor="start" x="1362" y="-28.25" font-family="Helvetica,sans-Serif" font-size="10.00">/Users/fola/Documents</text>
<text text-anchor="start" x="1362" y="-17" font-family="Helvetica,sans-Serif" font-size="10.00">/ArkScript/Ark/src/arkscript</text>
<text text-anchor="middle" x="1421.25" y="-5.75" font-family="Helvetica,sans-Serif" font-size="10.00">/JsonCompiler.cpp</text>
</a>
</g>
</g>
<!-- Node1&#45;&gt;Node20 -->
<g id="edge40_Node000001_Node000020" class="edge">
<title>Node1&#45;&gt;Node20</title>
<g id="a_edge40_Node000001_Node000020"><a xlink:title=" ">
<path fill="none" stroke="#63b8ff" d="M1475.32,-300.07C1490.51,-259.46 1515.79,-185.42 1525.25,-119.5 1527.89,-101.13 1534.78,-93.68 1525.25,-77.75 1515.89,-62.09 1500.47,-50.57 1484.33,-42.2"/>
<polygon fill="#63b8ff" stroke="#63b8ff" points="1472.13,-298.6 1471.86,-309.19 1478.68,-301.08 1472.13,-298.6"/>
</a>
</g>
</g>
<!-- Node21 -->
<g id="Node000021" class="node">
<title>Node21</title>
<g id="a_Node000021"><a xlink:href="../../d3/df1/Welder_8cpp.html" target="_top" xlink:title=" ">
<polygon fill="white" stroke="#666666" points="1516.5,-119.5 1376,-119.5 1376,-77.75 1516.5,-77.75 1516.5,-119.5"/>
<text text-anchor="start" x="1384" y="-106" font-family="Helvetica,sans-Serif" font-size="10.00">/Users/fola/Documents</text>
<text text-anchor="start" x="1384" y="-94.75" font-family="Helvetica,sans-Serif" font-size="10.00">/ArkScript/Ark/src/arkreactor</text>
<text text-anchor="middle" x="1446.25" y="-83.5" font-family="Helvetica,sans-Serif" font-size="10.00">/Compiler/Welder.cpp</text>
</a>
</g>
</g>
<!-- Node1&#45;&gt;Node21 -->
<g id="edge36_Node000001_Node000021" class="edge">
<title>Node1&#45;&gt;Node21</title>
<g id="a_edge36_Node000001_Node000021"><a xlink:title=" ">
<path fill="none" stroke="#63b8ff" d="M1460.95,-299.47C1457.4,-251.24 1450.71,-160.28 1447.74,-119.86"/>
<polygon fill="#63b8ff" stroke="#63b8ff" points="1457.44,-299.53 1461.66,-309.25 1464.42,-299.02 1457.44,-299.53"/>
</a>
</g>
</g>
<!-- Node24 -->
<g id="Node000024" class="node">
<title>Node24</title>
<g id="a_Node000024"><a xlink:href="../../d0/db5/State_8hpp.html" target="_top" xlink:title="State used by the virtual machine: it loads the bytecode, can compile it if needed,...">
<polygon fill="white" stroke="#666666" points="1090.88,-275 973.63,-275 973.63,-233.25 1090.88,-233.25 1090.88,-275"/>
<text text-anchor="start" x="981.63" y="-261.5" font-family="Helvetica,sans-Serif" font-size="10.00">/Users/fola/Documents</text>
<text text-anchor="start" x="981.63" y="-250.25" font-family="Helvetica,sans-Serif" font-size="10.00">/ArkScript/Ark/include</text>
<text text-anchor="middle" x="1032.25" y="-239" font-family="Helvetica,sans-Serif" font-size="10.00">/Ark/VM/State.hpp</text>
</a>
</g>
</g>
<!-- Node1&#45;&gt;Node24 -->
<g id="edge27_Node000001_Node000024" class="edge">
<title>Node1&#45;&gt;Node24</title>
<g id="a_edge27_Node000001_Node000024"><a xlink:title=" ">
<path fill="none" stroke="#63b8ff" d="M1393.01,-318.53C1309.01,-303.77 1169.93,-279.32 1091.26,-265.49"/>
<polygon fill="#63b8ff" stroke="#63b8ff" points="1392.28,-321.96 1402.74,-320.24 1393.5,-315.06 1392.28,-321.96"/>
</a>
</g>
</g>
<!-- Node25 -->
<g id="Node000025" class="node">
<title>Node25</title>
<g id="a_Node000025"><a xlink:href="../../d9/d79/BaseParser_8cpp.html" target="_top" xlink:title=" ">
<polygon fill="white" stroke="#666666" points="1662.5,-275 1510,-275 1510,-233.25 1662.5,-233.25 1662.5,-275"/>
<text text-anchor="start" x="1518" y="-261.5" font-family="Helvetica,sans-Serif" font-size="10.00">/Users/fola/Documents</text>
<text text-anchor="start" x="1518" y="-250.25" font-family="Helvetica,sans-Serif" font-size="10.00">/ArkScript/Ark/src/arkreactor</text>
<text text-anchor="middle" x="1586.25" y="-239" font-family="Helvetica,sans-Serif" font-size="10.00">/Compiler/AST/BaseParser.cpp</text>
</a>
</g>
</g>
<!-- Node1&#45;&gt;Node25 -->
<g id="edge31_Node000001_Node000025" class="edge">
<title>Node1&#45;&gt;Node25</title>
<g id="a_edge31_Node000001_Node000025"><a xlink:title=" ">
<path fill="none" stroke="#63b8ff" d="M1505.63,-304.78C1521.2,-295.19 1538.58,-284.49 1553.2,-275.48"/>
<polygon fill="#63b8ff" stroke="#63b8ff" points="1504.18,-301.56 1497.51,-309.78 1507.86,-307.52 1504.18,-301.56"/>
</a>
</g>
</g>
<!-- Node26 -->
<g id="Node000026" class="node">
<title>Node26</title>
<g id="a_Node000026"><a xlink:href="../../dc/d73/Node_8cpp.html" target="_top" xlink:title=" ">
<polygon fill="white" stroke="#666666" points="1821.5,-275 1681,-275 1681,-233.25 1821.5,-233.25 1821.5,-275"/>
<text text-anchor="start" x="1689" y="-261.5" font-family="Helvetica,sans-Serif" font-size="10.00">/Users/fola/Documents</text>
<text text-anchor="start" x="1689" y="-250.25" font-family="Helvetica,sans-Serif" font-size="10.00">/ArkScript/Ark/src/arkreactor</text>
<text text-anchor="middle" x="1751.25" y="-239" font-family="Helvetica,sans-Serif" font-size="10.00">/Compiler/AST/Node.cpp</text>
</a>
</g>
</g>
<!-- Node1&#45;&gt;Node26 -->
<g id="edge32_Node000001_Node000026" class="edge">
<title>Node1&#45;&gt;Node26</title>
<g id="a_edge32_Node000001_Node000026"><a xlink:title=" ">
<path fill="none" stroke="#63b8ff" d="M1533.3,-312.45C1578.03,-300.69 1635.83,-285.49 1680.66,-273.69"/>
<polygon fill="#63b8ff" stroke="#63b8ff" points="1532.48,-309.05 1523.69,-314.98 1534.26,-315.82 1532.48,-309.05"/>
</a>
</g>
</g>
<!-- Node27 -->
<g id="Node000027" class="node">
<title>Node27</title>
<g id="a_Node000027"><a xlink:href="../../d6/d41/ImportSolver_8cpp.html" target="_top" xlink:title=" ">
<polygon fill="white" stroke="#666666" points="2015.13,-275 1839.38,-275 1839.38,-233.25 2015.13,-233.25 2015.13,-275"/>
<text text-anchor="start" x="1847.38" y="-261.5" font-family="Helvetica,sans-Serif" font-size="10.00">/Users/fola/Documents</text>
<text text-anchor="start" x="1847.38" y="-250.25" font-family="Helvetica,sans-Serif" font-size="10.00">/ArkScript/Ark/src/arkreactor</text>
<text text-anchor="middle" x="1927.25" y="-239" font-family="Helvetica,sans-Serif" font-size="10.00">/Compiler/Package/ImportSolver.cpp</text>
</a>
</g>
</g>
<!-- Node1&#45;&gt;Node27 -->
<g id="edge35_Node000001_Node000027" class="edge">
<title>Node1&#45;&gt;Node27</title>
<g id="a_edge35_Node000001_Node000027"><a xlink:title=" ">
<path fill="none" stroke="#63b8ff" d="M1533.22,-321.31C1607.2,-310.93 1727.21,-293.39 1830.25,-275 1833.13,-274.49 1836.05,-273.95 1839,-273.41"/>
<polygon fill="#63b8ff" stroke="#63b8ff" points="1533.12,-317.79 1523.7,-322.64 1534.09,-324.72 1533.12,-317.79"/>
</a>
</g>
</g>
<!-- Node28 -->
<g id="Node000028" class="node">
<title>Node28</title>
<g id="a_Node000028"><a xlink:href="../../d6/dd1/Exceptions_8cpp.html" target="_top" xlink:title=" ">
<polygon fill="white" stroke="#666666" points="2173.5,-275 2033,-275 2033,-233.25 2173.5,-233.25 2173.5,-275"/>
<text text-anchor="start" x="2041" y="-261.5" font-family="Helvetica,sans-Serif" font-size="10.00">/Users/fola/Documents</text>
<text text-anchor="start" x="2041" y="-250.25" font-family="Helvetica,sans-Serif" font-size="10.00">/ArkScript/Ark/src/arkreactor</text>
<text text-anchor="middle" x="2103.25" y="-239" font-family="Helvetica,sans-Serif" font-size="10.00">/Exceptions.cpp</text>
</a>
</g>
</g>
<!-- Node1&#45;&gt;Node28 -->
<g id="edge37_Node000001_Node000028" class="edge">
<title>Node1&#45;&gt;Node28</title>
<g id="a_edge37_Node000001_Node000028"><a xlink:title=" ">
<path fill="none" stroke="#63b8ff" d="M1533.44,-327.21C1640.1,-320.89 1849.13,-305.58 2024.25,-275 2027.04,-274.51 2029.87,-273.98 2032.73,-273.41"/>
<polygon fill="#63b8ff" stroke="#63b8ff" points="1533.49,-323.7 1523.71,-327.78 1533.89,-330.69 1533.49,-323.7"/>
</a>
</g>
</g>
<!-- Node29 -->
<g id="Node000029" class="node">
<title>Node29</title>
<g id="a_Node000029"><a xlink:href="../../d6/d9a/TypeChecker_8cpp.html" target="_top" xlink:title=" ">
<polygon fill="white" stroke="#666666" points="2332.5,-275 2192,-275 2192,-233.25 2332.5,-233.25 2332.5,-275"/>
<text text-anchor="start" x="2200" y="-261.5" font-family="Helvetica,sans-Serif" font-size="10.00">/Users/fola/Documents</text>
<text text-anchor="start" x="2200" y="-250.25" font-family="Helvetica,sans-Serif" font-size="10.00">/ArkScript/Ark/src/arkreactor</text>
<text text-anchor="middle" x="2262.25" y="-239" font-family="Helvetica,sans-Serif" font-size="10.00">/TypeChecker.cpp</text>
</a>
</g>
</g>
<!-- Node1&#45;&gt;Node29 -->
<g id="edge38_Node000001_Node000029" class="edge">
<title>Node1&#45;&gt;Node29</title>
<g id="a_edge38_Node000001_Node000029"><a xlink:title=" ">
<path fill="none" stroke="#63b8ff" d="M1533.64,-329.28C1662.91,-325.48 1946.51,-313.17 2182.25,-275 2185.36,-274.5 2188.53,-273.93 2191.72,-273.32"/>
<polygon fill="#63b8ff" stroke="#63b8ff" points="1533.77,-325.77 1523.88,-329.55 1533.97,-332.77 1533.77,-325.77"/>
</a>
</g>
</g>
<!-- Node30 -->
<g id="Node000030" class="node">
<title>Node30</title>
<g id="a_Node000030"><a xlink:href="../../d2/d56/Formatter_8cpp.html" target="_top" xlink:title=" ">
<polygon fill="white" stroke="#666666" points="2485.5,-275 2351,-275 2351,-233.25 2485.5,-233.25 2485.5,-275"/>
<text text-anchor="start" x="2359" y="-261.5" font-family="Helvetica,sans-Serif" font-size="10.00">/Users/fola/Documents</text>
<text text-anchor="start" x="2359" y="-250.25" font-family="Helvetica,sans-Serif" font-size="10.00">/ArkScript/Ark/src/arkscript</text>
<text text-anchor="middle" x="2418.25" y="-239" font-family="Helvetica,sans-Serif" font-size="10.00">/Formatter.cpp</text>
</a>
</g>
</g>
<!-- Node1&#45;&gt;Node30 -->
<g id="edge39_Node000001_Node000030" class="edge">
<title>Node1&#45;&gt;Node30</title>
<g id="a_edge39_Node000001_Node000030"><a xlink:title=" ">
<path fill="none" stroke="#63b8ff" d="M1533.5,-330.89C1683.05,-329.95 2043.57,-322.45 2341.25,-275 2344.39,-274.5 2347.58,-273.93 2350.8,-273.31"/>
<polygon fill="#63b8ff" stroke="#63b8ff" points="1533.74,-327.39 1523.76,-330.95 1533.78,-334.39 1533.74,-327.39"/>
</a>
</g>
</g>
<!-- Node3 -->
<g id="Node000003" class="node">
<title>Node3</title>
<g id="a_Node000003"><a xlink:href="../../dc/d32/Ark_8cpp.html" target="_top" xlink:title=" ">
<polygon fill="white" stroke="#666666" points="198.5,-41.75 58,-41.75 58,0 198.5,0 198.5,-41.75"/>
<text text-anchor="start" x="66" y="-28.25" font-family="Helvetica,sans-Serif" font-size="10.00">/Users/fola/Documents</text>
<text text-anchor="start" x="66" y="-17" font-family="Helvetica,sans-Serif" font-size="10.00">/ArkScript/Ark/src/arkreactor</text>
<text text-anchor="middle" x="128.25" y="-5.75" font-family="Helvetica,sans-Serif" font-size="10.00">/Ark.cpp</text>
</a>
</g>
</g>
<!-- Node2&#45;&gt;Node3 -->
<g id="edge2_Node000002_Node000003" class="edge">
<title>Node2&#45;&gt;Node3</title>
<g id="a_edge2_Node000002_Node000003"><a xlink:title=" ">
<path fill="none" stroke="#63b8ff" d="M128.25,-66C128.25,-57.96 128.25,-49.54 128.25,-42.23"/>
<polygon fill="#63b8ff" stroke="#63b8ff" points="124.75,-65.81 128.25,-75.81 131.75,-65.81 124.75,-65.81"/>
</a>
</g>
</g>
<!-- Node5 -->
<g id="Node000005" class="node">
<title>Node5</title>
<g id="a_Node000005"><a xlink:href="../../d1/d91/VM_8hpp.html" target="_top" xlink:title="The ArkScript virtual machine.">
<polygon fill="white" stroke="#666666" points="869.88,-197.25 752.63,-197.25 752.63,-155.5 869.88,-155.5 869.88,-197.25"/>
<text text-anchor="start" x="760.63" y="-183.75" font-family="Helvetica,sans-Serif" font-size="10.00">/Users/fola/Documents</text>
<text text-anchor="start" x="760.63" y="-172.5" font-family="Helvetica,sans-Serif" font-size="10.00">/ArkScript/Ark/include</text>
<text text-anchor="middle" x="811.25" y="-161.25" font-family="Helvetica,sans-Serif" font-size="10.00">/Ark/VM/VM.hpp</text>
</a>
</g>
</g>
<!-- Node4&#45;&gt;Node5 -->
<g id="edge4_Node000004_Node000005" class="edge">
<title>Node4&#45;&gt;Node5</title>
<g id="a_edge4_Node000004_Node000005"><a xlink:title=" ">
<path fill="none" stroke="#63b8ff" d="M535.33,-240.57C592.51,-230.28 673.84,-214.63 744.25,-197.25 746.85,-196.61 749.49,-195.93 752.15,-195.23"/>
<polygon fill="#63b8ff" stroke="#63b8ff" points="534.95,-237.08 525.72,-242.29 536.18,-243.97 534.95,-237.08"/>
</a>
</g>
</g>
<!-- Node8 -->
<g id="Node000008" class="node">
<title>Node8</title>
<g id="a_Node000008"><a xlink:href="../../d7/d46/Repl_8cpp.html" target="_top" xlink:title=" ">
<polygon fill="white" stroke="#666666" points="751.5,-41.75 617,-41.75 617,0 751.5,0 751.5,-41.75"/>
<text text-anchor="start" x="625" y="-28.25" font-family="Helvetica,sans-Serif" font-size="10.00">/Users/fola/Documents</text>
<text text-anchor="start" x="625" y="-17" font-family="Helvetica,sans-Serif" font-size="10.00">/ArkScript/Ark/src/arkscript</text>
<text text-anchor="middle" x="684.25" y="-5.75" font-family="Helvetica,sans-Serif" font-size="10.00">/REPL/Repl.cpp</text>
</a>
</g>
</g>
<!-- Node4&#45;&gt;Node8 -->
<g id="edge17_Node000004_Node000008" class="edge">
<title>Node4&#45;&gt;Node8</title>
<g id="a_edge17_Node000004_Node000008"><a xlink:title=" ">
<path fill="none" stroke="#63b8ff" d="M412.63,-227.08C399.25,-218.66 385.41,-208.54 374.25,-197.25 345.72,-168.35 337.34,-158.57 326.25,-119.5 321.19,-101.65 314.19,-91.85 326.25,-77.75 362.87,-34.98 523.31,-24.7 616.51,-22.39"/>
<polygon fill="#63b8ff" stroke="#63b8ff" points="410.58,-229.93 420.95,-232.11 414.2,-223.94 410.58,-229.93"/>
</a>
</g>
</g>
<!-- Node13 -->
<g id="Node000013" class="node">
<title>Node13</title>
<g id="a_Node000013"><a xlink:href="../../d5/d36/BytecodeReader_8cpp.html" target="_top" xlink:title=" ">
<polygon fill="white" stroke="#666666" points="169.13,-197.25 17.38,-197.25 17.38,-155.5 169.13,-155.5 169.13,-197.25"/>
<text text-anchor="start" x="25.38" y="-183.75" font-family="Helvetica,sans-Serif" font-size="10.00">/Users/fola/Documents</text>
<text text-anchor="start" x="25.38" y="-172.5" font-family="Helvetica,sans-Serif" font-size="10.00">/ArkScript/Ark/src/arkreactor</text>
<text text-anchor="middle" x="93.25" y="-161.25" font-family="Helvetica,sans-Serif" font-size="10.00">/Compiler/BytecodeReader.cpp</text>
</a>
</g>
</g>
<!-- Node4&#45;&gt;Node13 -->
<g id="edge13_Node000004_Node000013" class="edge">
<title>Node4&#45;&gt;Node13</title>
<g id="a_edge13_Node000004_Node000013"><a xlink:title=" ">
<path fill="none" stroke="#63b8ff" d="M389.2,-239.49C331.75,-228.59 249.76,-212.64 178.25,-197.25 175.29,-196.61 172.27,-195.95 169.22,-195.28"/>
<polygon fill="#63b8ff" stroke="#63b8ff" points="388.39,-242.9 398.87,-241.32 389.69,-236.02 388.39,-242.9"/>
</a>
</g>
</g>
<!-- Node14 -->
<g id="Node000014" class="node">
<title>Node14</title>
<g id="a_Node000014"><a xlink:href="../../de/dfa/Compiler_8cpp.html" target="_top" xlink:title=" ">
<polygon fill="white" stroke="#666666" points="327.5,-197.25 187,-197.25 187,-155.5 327.5,-155.5 327.5,-197.25"/>
<text text-anchor="start" x="195" y="-183.75" font-family="Helvetica,sans-Serif" font-size="10.00">/Users/fola/Documents</text>
<text text-anchor="start" x="195" y="-172.5" font-family="Helvetica,sans-Serif" font-size="10.00">/ArkScript/Ark/src/arkreactor</text>
<text text-anchor="middle" x="257.25" y="-161.25" font-family="Helvetica,sans-Serif" font-size="10.00">/Compiler/Compiler.cpp</text>
</a>
</g>
</g>
<!-- Node4&#45;&gt;Node14 -->
<g id="edge14_Node000004_Node000014" class="edge">
<title>Node4&#45;&gt;Node14</title>
<g id="a_edge14_Node000004_Node000014"><a xlink:title=" ">
<path fill="none" stroke="#63b8ff" d="M396.72,-228.91C369.53,-218.86 338.33,-207.33 312.34,-197.73"/>
<polygon fill="#63b8ff" stroke="#63b8ff" points="395.31,-232.12 405.9,-232.3 397.73,-225.55 395.31,-232.12"/>
</a>
</g>
</g>
<!-- Node4&#45;&gt;Node15 -->
<g id="edge15_Node000004_Node000015" class="edge">
<title>Node4&#45;&gt;Node15</title>
<g id="a_edge15_Node000004_Node000015"><a xlink:title=" ">
<path fill="none" stroke="#63b8ff" d="M462.25,-221.5C462.25,-213.46 462.25,-205.04 462.25,-197.73"/>
<polygon fill="#63b8ff" stroke="#63b8ff" points="458.75,-221.31 462.25,-231.31 465.75,-221.31 458.75,-221.31"/>
</a>
</g>
</g>
<!-- Node4&#45;&gt;Node16 -->
<g id="edge16_Node000004_Node000016" class="edge">
<title>Node4&#45;&gt;Node16</title>
<g id="a_edge16_Node000004_Node000016"><a xlink:title=" ">
<path fill="none" stroke="#63b8ff" d="M522.37,-228.51C546.68,-218.56 574.4,-207.21 597.54,-197.73"/>
<polygon fill="#63b8ff" stroke="#63b8ff" points="521.16,-225.22 513.23,-232.25 523.81,-231.7 521.16,-225.22"/>
</a>
</g>
</g>
<!-- Node5&#45;&gt;Node2 -->
<g id="edge5_Node000005_Node000002" class="edge">
<title>Node5&#45;&gt;Node2</title>
<g id="a_edge5_Node000005_Node000002"><a xlink:title=" ">
<path fill="none" stroke="#63b8ff" d="M740.91,-155.04C559.02,-121.44 508.2,-136.47 326.25,-119.5 279.47,-115.14 226.52,-109.8 187.15,-105.76"/>
<polygon fill="#63b8ff" stroke="#63b8ff" points="740.27,-158.48 750.74,-156.88 741.56,-151.6 740.27,-158.48"/>
</a>
</g>
</g>
<!-- Node6 -->
<g id="Node000006" class="node">
<title>Node6</title>
<g id="a_Node000006"><a xlink:href="../../d5/d44/Module_8hpp.html" target="_top" xlink:title=" ">
<polygon fill="white" stroke="#666666" points="610.88,-119.5 493.63,-119.5 493.63,-77.75 610.88,-77.75 610.88,-119.5"/>
<text text-anchor="start" x="501.63" y="-106" font-family="Helvetica,sans-Serif" font-size="10.00">/Users/fola/Documents</text>
<text text-anchor="start" x="501.63" y="-94.75" font-family="Helvetica,sans-Serif" font-size="10.00">/ArkScript/Ark/include</text>
<text text-anchor="middle" x="552.25" y="-83.5" font-family="Helvetica,sans-Serif" font-size="10.00">/Ark/Module.hpp</text>
</a>
</g>
</g>
<!-- Node5&#45;&gt;Node6 -->
<g id="edge6_Node000005_Node000006" class="edge">
<title>Node5&#45;&gt;Node6</title>
<g id="a_edge6_Node000005_Node000006"><a xlink:title=" ">
<path fill="none" stroke="#63b8ff" d="M741.47,-154.69C687.36,-138.84 672.02,-134.58 620.25,-119.5 617.3,-118.64 614.28,-117.76 611.22,-116.87"/>
<polygon fill="#63b8ff" stroke="#63b8ff" points="740.4,-158.02 750.98,-157.48 742.37,-151.31 740.4,-158.02"/>
</a>
</g>
</g>
<!-- Node7 -->
<g id="Node000007" class="node">
<title>Node7</title>
<g id="a_Node000007"><a xlink:href="../../d5/da5/Repl_8hpp.html" target="_top" xlink:title="ArkScript REPL &#45; Read Eval Print Loop.">
<polygon fill="white" stroke="#666666" points="1063.88,-119.5 946.63,-119.5 946.63,-77.75 1063.88,-77.75 1063.88,-119.5"/>
<text text-anchor="start" x="954.63" y="-106" font-family="Helvetica,sans-Serif" font-size="10.00">/Users/fola/Documents</text>
<text text-anchor="start" x="954.63" y="-94.75" font-family="Helvetica,sans-Serif" font-size="10.00">/ArkScript/Ark/include</text>
<text text-anchor="middle" x="1005.25" y="-83.5" font-family="Helvetica,sans-Serif" font-size="10.00">/CLI/REPL/Repl.hpp</text>
</a>
</g>
</g>
<!-- Node5&#45;&gt;Node7 -->
<g id="edge7_Node000005_Node000007" class="edge">
<title>Node5&#45;&gt;Node7</title>
<g id="a_edge7_Node000005_Node000007"><a xlink:title=" ">
<path fill="none" stroke="#63b8ff" d="M873.95,-150.89C899.53,-140.91 928.75,-129.5 953.12,-119.98"/>
<polygon fill="#63b8ff" stroke="#63b8ff" points="872.7,-147.63 864.65,-154.52 875.24,-154.15 872.7,-147.63"/>
</a>
</g>
</g>
<!-- Node10 -->
<g id="Node000010" class="node">
<title>Node10</title>
<g id="a_Node000010"><a xlink:href="../../d4/dc9/Future_8cpp.html" target="_top" xlink:title=" ">
<polygon fill="white" stroke="#666666" points="769.5,-119.5 629,-119.5 629,-77.75 769.5,-77.75 769.5,-119.5"/>
<text text-anchor="start" x="637" y="-106" font-family="Helvetica,sans-Serif" font-size="10.00">/Users/fola/Documents</text>
<text text-anchor="start" x="637" y="-94.75" font-family="Helvetica,sans-Serif" font-size="10.00">/ArkScript/Ark/src/arkreactor</text>
<text text-anchor="middle" x="699.25" y="-83.5" font-family="Helvetica,sans-Serif" font-size="10.00">/VM/Future.cpp</text>
</a>
</g>
</g>
<!-- Node5&#45;&gt;Node10 -->
<g id="edge10_Node000005_Node000010" class="edge">
<title>Node5&#45;&gt;Node10</title>
<g id="a_edge10_Node000005_Node000010"><a xlink:title=" ">
<path fill="none" stroke="#63b8ff" d="M771.86,-148.73C757.9,-139.29 742.42,-128.82 729.35,-119.98"/>
<polygon fill="#63b8ff" stroke="#63b8ff" points="769.74,-151.52 779.99,-154.23 773.66,-145.73 769.74,-151.52"/>
</a>
</g>
</g>
<!-- Node11 -->
<g id="Node000011" class="node">
<title>Node11</title>
<g id="a_Node000011"><a xlink:href="../../d2/d27/VM_8cpp.html" target="_top" xlink:title=" ">
<polygon fill="white" stroke="#666666" points="928.5,-119.5 788,-119.5 788,-77.75 928.5,-77.75 928.5,-119.5"/>
<text text-anchor="start" x="796" y="-106" font-family="Helvetica,sans-Serif" font-size="10.00">/Users/fola/Documents</text>
<text text-anchor="start" x="796" y="-94.75" font-family="Helvetica,sans-Serif" font-size="10.00">/ArkScript/Ark/src/arkreactor</text>
<text text-anchor="middle" x="858.25" y="-83.5" font-family="Helvetica,sans-Serif" font-size="10.00">/VM/VM.cpp</text>
</a>
</g>
</g>
<!-- Node5&#45;&gt;Node11 -->
<g id="edge11_Node000005_Node000011" class="edge">
<title>Node5&#45;&gt;Node11</title>
<g id="a_edge11_Node000005_Node000011"><a xlink:title=" ">
<path fill="none" stroke="#63b8ff" d="M829.84,-145.43C835.13,-136.89 840.77,-127.8 845.62,-119.98"/>
<polygon fill="#63b8ff" stroke="#63b8ff" points="826.95,-143.45 824.65,-153.79 832.89,-147.14 826.95,-143.45"/>
</a>
</g>
</g>
<!-- Node12 -->
<g id="Node000012" class="node">
<title>Node12</title>
<g id="a_Node000012"><a xlink:href="../../d1/db2/Closure_8cpp.html" target="_top" xlink:title=" ">
<polygon fill="white" stroke="#666666" points="475.5,-119.5 335,-119.5 335,-77.75 475.5,-77.75 475.5,-119.5"/>
<text text-anchor="start" x="343" y="-106" font-family="Helvetica,sans-Serif" font-size="10.00">/Users/fola/Documents</text>
<text text-anchor="start" x="343" y="-94.75" font-family="Helvetica,sans-Serif" font-size="10.00">/ArkScript/Ark/src/arkreactor</text>
<text text-anchor="middle" x="405.25" y="-83.5" font-family="Helvetica,sans-Serif" font-size="10.00">/VM/Value/Closure.cpp</text>
</a>
</g>
</g>
<!-- Node5&#45;&gt;Node12 -->
<g id="edge12_Node000005_Node000012" class="edge">
<title>Node5&#45;&gt;Node12</title>
<g id="a_edge12_Node000005_Node000012"><a xlink:title=" ">
<path fill="none" stroke="#63b8ff" d="M741.02,-154.95C628.18,-131.49 595.19,-141.07 484.25,-119.5 481.48,-118.96 478.65,-118.38 475.8,-117.78"/>
<polygon fill="#63b8ff" stroke="#63b8ff" points="740.2,-158.36 750.71,-157.01 741.66,-151.51 740.2,-158.36"/>
</a>
</g>
</g>
<!-- Node7&#45;&gt;Node8 -->
<g id="edge8_Node000007_Node000008" class="edge">
<title>Node7&#45;&gt;Node8</title>
<g id="a_edge8_Node000007_Node000008"><a xlink:title=" ">
<path fill="none" stroke="#63b8ff" d="M935.46,-77.37C867.6,-60.18 800.46,-45.62 751.93,-35.53"/>
<polygon fill="#63b8ff" stroke="#63b8ff" points="934.33,-80.69 944.88,-79.77 936.06,-73.91 934.33,-80.69"/>
</a>
</g>
</g>
<!-- Node9 -->
<g id="Node000009" class="node">
<title>Node9</title>
<g id="a_Node000009"><a xlink:href="../../df/d0a/main_8cpp.html" target="_top" xlink:title=" ">
<polygon fill="white" stroke="#666666" points="1142.5,-41.75 1008,-41.75 1008,0 1142.5,0 1142.5,-41.75"/>
<text text-anchor="start" x="1016" y="-28.25" font-family="Helvetica,sans-Serif" font-size="10.00">/Users/fola/Documents</text>
<text text-anchor="start" x="1016" y="-17" font-family="Helvetica,sans-Serif" font-size="10.00">/ArkScript/Ark/src/arkscript</text>
<text text-anchor="middle" x="1075.25" y="-5.75" font-family="Helvetica,sans-Serif" font-size="10.00">/main.cpp</text>
</a>
</g>
</g>
<!-- Node7&#45;&gt;Node9 -->
<g id="edge9_Node000007_Node000009" class="edge">
<title>Node7&#45;&gt;Node9</title>
<g id="a_edge9_Node000007_Node000009"><a xlink:title=" ">
<path fill="none" stroke="#63b8ff" d="M1031.65,-69.06C1039.9,-60.14 1048.83,-50.47 1056.44,-42.23"/>
<polygon fill="#63b8ff" stroke="#63b8ff" points="1029.26,-66.49 1025.04,-76.21 1034.4,-71.24 1029.26,-66.49"/>
</a>
</g>
</g>
<!-- Node18 -->
<g id="Node000018" class="node">
<title>Node18</title>
<g id="a_Node000018"><a xlink:href="../../de/d8e/Welder_8hpp.html" target="_top" xlink:title="In charge of welding everything needed to compile code.">
<polygon fill="white" stroke="#666666" points="1377.75,-197.25 1250.75,-197.25 1250.75,-155.5 1377.75,-155.5 1377.75,-197.25"/>
<text text-anchor="start" x="1258.75" y="-183.75" font-family="Helvetica,sans-Serif" font-size="10.00">/Users/fola/Documents</text>
<text text-anchor="start" x="1258.75" y="-172.5" font-family="Helvetica,sans-Serif" font-size="10.00">/ArkScript/Ark/include</text>
<text text-anchor="middle" x="1314.25" y="-161.25" font-family="Helvetica,sans-Serif" font-size="10.00">/Ark/Compiler/Welder.hpp</text>
</a>
</g>
</g>
<!-- Node17&#45;&gt;Node18 -->
<g id="edge19_Node000017_Node000018" class="edge">
<title>Node17&#45;&gt;Node18</title>
<g id="a_edge19_Node000017_Node000018"><a xlink:title=" ">
<path fill="none" stroke="#63b8ff" d="M1320.08,-221.5C1319.02,-213.46 1317.91,-205.04 1316.94,-197.73"/>
<polygon fill="#63b8ff" stroke="#63b8ff" points="1316.6,-221.87 1321.38,-231.32 1323.54,-220.95 1316.6,-221.87"/>
</a>
</g>
</g>
<!-- Node17&#45;&gt;Node21 -->
<g id="edge26_Node000017_Node000021" class="edge">
<title>Node17&#45;&gt;Node21</title>
<g id="a_edge26_Node000017_Node000021"><a xlink:title=" ">
<path fill="none" stroke="#63b8ff" d="M1359.14,-225.52C1368.82,-217.01 1378.95,-207.23 1387.25,-197.25 1407.66,-172.75 1425.73,-140.45 1436.34,-119.86"/>
<polygon fill="#63b8ff" stroke="#63b8ff" points="1356.91,-222.82 1351.58,-231.98 1361.46,-228.14 1356.91,-222.82"/>
</a>
</g>
</g>
<!-- Node23 -->
<g id="Node000023" class="node">
<title>Node23</title>
<g id="a_Node000023"><a xlink:href="../../d2/dc5/Optimizer_8cpp.html" target="_top" xlink:title=" ">
<polygon fill="white" stroke="#666666" points="1233,-197.25 1089.5,-197.25 1089.5,-155.5 1233,-155.5 1233,-197.25"/>
<text text-anchor="start" x="1097.5" y="-183.75" font-family="Helvetica,sans-Serif" font-size="10.00">/Users/fola/Documents</text>
<text text-anchor="start" x="1097.5" y="-172.5" font-family="Helvetica,sans-Serif" font-size="10.00">/ArkScript/Ark/src/arkreactor</text>
<text text-anchor="middle" x="1161.25" y="-161.25" font-family="Helvetica,sans-Serif" font-size="10.00">/Compiler/AST/Optimizer.cpp</text>
</a>
</g>
</g>
<!-- Node17&#45;&gt;Node23 -->
<g id="edge25_Node000017_Node000023" class="edge">
<title>Node17&#45;&gt;Node23</title>
<g id="a_edge25_Node000017_Node000023"><a xlink:title=" ">
<path fill="none" stroke="#63b8ff" d="M1270.42,-228.11C1249.21,-218.25 1225.17,-207.08 1205.06,-197.73"/>
<polygon fill="#63b8ff" stroke="#63b8ff" points="1268.66,-231.15 1279.2,-232.19 1271.61,-224.8 1268.66,-231.15"/>
</a>
</g>
</g>
<!-- Node19 -->
<g id="Node000019" class="node">
<title>Node19</title>
<g id="a_Node000019"><a xlink:href="../../dc/dfd/JsonCompiler_8hpp.html" target="_top" xlink:title=" ">
<polygon fill="white" stroke="#666666" points="1357.88,-119.5 1240.63,-119.5 1240.63,-77.75 1357.88,-77.75 1357.88,-119.5"/>
<text text-anchor="start" x="1248.63" y="-106" font-family="Helvetica,sans-Serif" font-size="10.00">/Users/fola/Documents</text>
<text text-anchor="start" x="1248.63" y="-94.75" font-family="Helvetica,sans-Serif" font-size="10.00">/ArkScript/Ark/include</text>
<text text-anchor="middle" x="1299.25" y="-83.5" font-family="Helvetica,sans-Serif" font-size="10.00">/CLI/JsonCompiler.hpp</text>
</a>
</g>
</g>
<!-- Node18&#45;&gt;Node19 -->
<g id="edge20_Node000018_Node000019" class="edge">
<title>Node18&#45;&gt;Node19</title>
<g id="a_edge20_Node000018_Node000019"><a xlink:title=" ">
<path fill="none" stroke="#63b8ff" d="M1308.05,-144.03C1306.44,-135.91 1304.75,-127.37 1303.29,-119.98"/>
<polygon fill="#63b8ff" stroke="#63b8ff" points="1304.57,-144.46 1309.94,-153.59 1311.43,-143.1 1304.57,-144.46"/>
</a>
</g>
</g>
<!-- Node18&#45;&gt;Node21 -->
<g id="edge23_Node000018_Node000021" class="edge">
<title>Node18&#45;&gt;Node21</title>
<g id="a_edge23_Node000018_Node000021"><a xlink:title=" ">
<path fill="none" stroke="#63b8ff" d="M1359.26,-149.55C1376.08,-139.89 1394.94,-129.07 1410.78,-119.98"/>
<polygon fill="#63b8ff" stroke="#63b8ff" points="1357.87,-146.31 1350.94,-154.32 1361.36,-152.38 1357.87,-146.31"/>
</a>
</g>
</g>
<!-- Node22 -->
<g id="Node000022" class="node">
<title>Node22</title>
<g id="a_Node000022"><a xlink:href="../../d0/da0/State_8cpp.html" target="_top" xlink:title=" ">
<polygon fill="white" stroke="#666666" points="1222.5,-119.5 1082,-119.5 1082,-77.75 1222.5,-77.75 1222.5,-119.5"/>
<text text-anchor="start" x="1090" y="-106" font-family="Helvetica,sans-Serif" font-size="10.00">/Users/fola/Documents</text>
<text text-anchor="start" x="1090" y="-94.75" font-family="Helvetica,sans-Serif" font-size="10.00">/ArkScript/Ark/src/arkreactor</text>
<text text-anchor="middle" x="1152.25" y="-83.5" font-family="Helvetica,sans-Serif" font-size="10.00">/VM/State.cpp</text>
</a>
</g>
</g>
<!-- Node18&#45;&gt;Node22 -->
<g id="edge24_Node000018_Node000022" class="edge">
<title>Node18&#45;&gt;Node22</title>
<g id="a_edge24_Node000018_Node000022"><a xlink:title=" ">
<path fill="none" stroke="#63b8ff" d="M1260.46,-150.22C1239.46,-140.4 1215.69,-129.29 1195.79,-119.98"/>
<polygon fill="#63b8ff" stroke="#63b8ff" points="1258.93,-153.37 1269.47,-154.43 1261.89,-147.03 1258.93,-153.37"/>
</a>
</g>
</g>
<!-- Node19&#45;&gt;Node9 -->
<g id="edge22_Node000019_Node000009" class="edge">
<title>Node19&#45;&gt;Node9</title>
<g id="a_edge22_Node000019_Node000009"><a xlink:title=" ">
<path fill="none" stroke="#63b8ff" d="M1229.51,-74.04C1199.31,-63.83 1164.3,-51.99 1135.27,-42.17"/>
<polygon fill="#63b8ff" stroke="#63b8ff" points="1228.37,-77.35 1238.97,-77.24 1230.62,-70.72 1228.37,-77.35"/>
</a>
</g>
</g>
<!-- Node19&#45;&gt;Node20 -->
<g id="edge21_Node000019_Node000020" class="edge">
<title>Node19&#45;&gt;Node20</title>
<g id="a_edge21_Node000019_Node000020"><a xlink:title=" ">
<path fill="none" stroke="#63b8ff" d="M1341.73,-71.26C1357.05,-61.74 1374.1,-51.15 1388.47,-42.23"/>
<polygon fill="#63b8ff" stroke="#63b8ff" points="1339.88,-68.28 1333.23,-76.53 1343.58,-74.23 1339.88,-68.28"/>
</a>
</g>
</g>
<!-- Node24&#45;&gt;Node5 -->
<g id="edge28_Node000024_Node000005" class="edge">
<title>Node24&#45;&gt;Node5</title>
<g id="a_edge28_Node000024_Node000005"><a xlink:title=" ">
<path fill="none" stroke="#63b8ff" d="M962.59,-229.25C932.83,-219.05 898.47,-207.27 870.02,-197.52"/>
<polygon fill="#63b8ff" stroke="#63b8ff" points="961.29,-232.5 971.89,-232.43 963.56,-225.88 961.29,-232.5"/>
</a>
</g>
</g>
<!-- Node24&#45;&gt;Node7 -->
<g id="edge29_Node000024_Node000007" class="edge">
<title>Node24&#45;&gt;Node7</title>
<g id="a_edge29_Node000024_Node000007"><a xlink:title=" ">
<path fill="none" stroke="#63b8ff" d="M1026.74,-221.76C1021.36,-191.21 1013.35,-145.67 1008.79,-119.7"/>
<polygon fill="#63b8ff" stroke="#63b8ff" points="1023.28,-222.32 1028.46,-231.57 1030.18,-221.11 1023.28,-222.32"/>
</a>
</g>
</g>
<!-- Node24&#45;&gt;Node22 -->
<g id="edge30_Node000024_Node000022" class="edge">
<title>Node24&#45;&gt;Node22</title>
<g id="a_edge30_Node000024_Node000022"><a xlink:title=" ">
<path fill="none" stroke="#63b8ff" d="M1043.19,-222.31C1051.37,-201.98 1063.94,-175.51 1080.25,-155.5 1091.35,-141.89 1106.36,-129.57 1119.8,-119.99"/>
<polygon fill="#63b8ff" stroke="#63b8ff" points="1039.98,-220.9 1039.64,-231.48 1046.51,-223.42 1039.98,-220.9"/>
</a>
</g>
</g>
</g>
</svg>

<g id="navigator" transform="translate(0 0)" fill="#404254">
  <rect fill="#f2f5e9" fill-opacity="0.5" stroke="#606060" stroke-width=".5" x="0" y="0" width="60" height="60"/>
  <use id="zoomplus" xlink:href="#zoomPlus" x="17" y="9" onmousedown="handleZoom(evt,'in')"/>
  <use id="zoomminus" xlink:href="#zoomMin" x="42" y="9" onmousedown="handleZoom(evt,'out')"/>
  <use id="reset" xlink:href="#resetDef" x="30" y="36" onmousedown="handleReset()"/>
   <use id="arrowup" xlink:href="#arrowUp" x="0" y="0" onmousedown="handlePan(0,-1)"/>
  <use id="arrowright" xlink:href="#arrowRight" x="0" y="0" onmousedown="handlePan(1,0)"/>
  <use id="arrowdown" xlink:href="#arrowDown" x="0" y="0" onmousedown="handlePan(0,1)"/>
  <use id="arrowleft" xlink:href="#arrowLeft" x="0" y="0" onmousedown="handlePan(-1,0)"/>
</g>
<svg viewBox="0 0 15 15" width="100%" height="30px" preserveAspectRatio="xMaxYMin meet">
 <g id="arrow_out" transform="scale(0.3 0.3)">
  <a xlink:href="Exceptions_8hpp__dep__incl_org.svg" target="_base">
   <rect id="button" ry="5" rx="5" y="6" x="6" height="38" width="38"
        fill="#f2f5e9" fill-opacity="0.5" stroke="#606060" stroke-width="1.0"/>
   <path id="arrow"
     d="M 11.500037,31.436501 C 11.940474,20.09759 22.043105,11.32322 32.158766,21.979434 L 37.068811,17.246167 C 37.068811,17.246167 37.088388,32 37.088388,32 L 22.160133,31.978069 C 22.160133,31.978069 26.997745,27.140456 26.997745,27.140456 C 18.528582,18.264221 13.291696,25.230495 11.500037,31.436501 z"
     style="fill:#404040;"/>
  </a>
 </g>
</svg>

<style type='text/css'>
<![CDATA[
[data-mouse-over-selected='false'] { opacity: 0.7; }
[data-mouse-over-selected='true']  { opacity: 1.0; }
]]>
</style>
<script type="application/ecmascript"><![CDATA[
document.addEventListener('DOMContentLoaded', (event) => {
  highlightEdges();
  highlightAdjacentNodes();
});
]]></script>
</svg>
