<?xml version="1.0" encoding="UTF-8" standalone="no"?>
<!DOCTYPE svg PUBLIC "-//W3C//DTD SVG 1.1//EN"
 "http://www.w3.org/Graphics/SVG/1.1/DTD/svg11.dtd">
<!-- Generated by graphviz version 2.49.0 (20210828.1703)
 -->
<!-- Title: C:/Users/folae/Documents/Code/Big&#45;Projects/ArkScript/Ark/include/Ark/VM/Plugin.hpp Pages: 1 -->
<svg width="326pt" height="106pt"
 viewBox="0.00 0.00 326.00 106.00" xmlns="http://www.w3.org/2000/svg" xmlns:xlink="http://www.w3.org/1999/xlink">
<g id="graph0" class="graph" transform="scale(1 1) rotate(0) translate(4 102)">
<title>C:/Users/folae/Documents/Code/Big&#45;Projects/ArkScript/Ark/include/Ark/VM/Plugin.hpp</title>
<polygon fill="white" stroke="transparent" points="-4,4 -4,-102 322,-102 322,4 -4,4"/>
<!-- Node1 -->
<g id="node1" class="node">
<title>Node1</title>
<g id="a_node1"><a xlink:title="Loads .dll/.so/.dynlib files.">
<polygon fill="#bfbfbf" stroke="black" points="89,-56.5 89,-97.5 242,-97.5 242,-56.5 89,-56.5"/>
<text text-anchor="start" x="97" y="-85.5" font-family="Helvetica,sans-Serif" font-size="10.00">C:/Users/folae/Documents</text>
<text text-anchor="start" x="97" y="-74.5" font-family="Helvetica,sans-Serif" font-size="10.00">/Code/Big&#45;Projects/ArkScript</text>
<text text-anchor="middle" x="165.5" y="-63.5" font-family="Helvetica,sans-Serif" font-size="10.00">/Ark/include/Ark/VM/Plugin.hpp</text>
</a>
</g>
</g>
<!-- Node2 -->
<g id="node2" class="node">
<title>Node2</title>
<g id="a_node2"><a xlink:href="../../d5/d40/Platform_8hpp.html" target="_top" xlink:title="ArkScript configuration macros.">
<polygon fill="white" stroke="black" points="0,-0.5 0,-19.5 89,-19.5 89,-0.5 0,-0.5"/>
<text text-anchor="middle" x="44.5" y="-7.5" font-family="Helvetica,sans-Serif" font-size="10.00">Ark/Platform.hpp</text>
</a>
</g>
</g>
<!-- Node1&#45;&gt;Node2 -->
<g id="edge1" class="edge">
<title>Node1&#45;&gt;Node2</title>
<path fill="none" stroke="midnightblue" d="M129.2,-56.5C109.93,-46.15 86.75,-33.69 69.51,-24.43"/>
<polygon fill="midnightblue" stroke="midnightblue" points="71.07,-21.3 60.61,-19.65 67.76,-27.47 71.07,-21.3"/>
</g>
<!-- Node3 -->
<g id="node3" class="node">
<title>Node3</title>
<g id="a_node3"><a xlink:title=" ">
<polygon fill="white" stroke="#bfbfbf" points="107,-0.5 107,-19.5 148,-19.5 148,-0.5 107,-0.5"/>
<text text-anchor="middle" x="127.5" y="-7.5" font-family="Helvetica,sans-Serif" font-size="10.00">string</text>
</a>
</g>
</g>
<!-- Node1&#45;&gt;Node3 -->
<g id="edge2" class="edge">
<title>Node1&#45;&gt;Node3</title>
<path fill="none" stroke="midnightblue" d="M154.1,-56.5C148.89,-47.59 142.77,-37.11 137.71,-28.46"/>
<polygon fill="midnightblue" stroke="midnightblue" points="140.63,-26.52 132.56,-19.65 134.58,-30.05 140.63,-26.52"/>
</g>
<!-- Node4 -->
<g id="node4" class="node">
<title>Node4</title>
<g id="a_node4"><a xlink:title=" ">
<polygon fill="white" stroke="#bfbfbf" points="166.5,-0.5 166.5,-19.5 240.5,-19.5 240.5,-0.5 166.5,-0.5"/>
<text text-anchor="middle" x="203.5" y="-7.5" font-family="Helvetica,sans-Serif" font-size="10.00">system_error</text>
</a>
</g>
</g>
<!-- Node1&#45;&gt;Node4 -->
<g id="edge3" class="edge">
<title>Node1&#45;&gt;Node4</title>
<path fill="none" stroke="midnightblue" d="M176.9,-56.5C182.11,-47.59 188.23,-37.11 193.29,-28.46"/>
<polygon fill="midnightblue" stroke="midnightblue" points="196.42,-30.05 198.44,-19.65 190.37,-26.52 196.42,-30.05"/>
</g>
<!-- Node5 -->
<g id="node5" class="node">
<title>Node5</title>
<g id="a_node5"><a xlink:title=" ">
<polygon fill="white" stroke="#bfbfbf" points="259,-0.5 259,-19.5 318,-19.5 318,-0.5 259,-0.5"/>
<text text-anchor="middle" x="288.5" y="-7.5" font-family="Helvetica,sans-Serif" font-size="10.00">exception</text>
</a>
</g>
</g>
<!-- Node1&#45;&gt;Node5 -->
<g id="edge4" class="edge">
<title>Node1&#45;&gt;Node5</title>
<path fill="none" stroke="midnightblue" d="M202.4,-56.5C221.99,-46.15 245.55,-33.69 263.08,-24.43"/>
<polygon fill="midnightblue" stroke="midnightblue" points="264.92,-27.42 272.13,-19.65 261.65,-21.23 264.92,-27.42"/>
</g>
</g>
</svg>
