<?xml version="1.0" encoding="UTF-8" standalone="no"?>
<!DOCTYPE svg PUBLIC "-//W3C//DTD SVG 1.1//EN"
 "http://www.w3.org/Graphics/SVG/1.1/DTD/svg11.dtd">
<!-- Generated by graphviz version 10.0.1 (20240210.2158)
 -->
<!-- Title: /Users/fola/Documents/ArkScript/Ark/include/CLI/REPL/Repl.hpp Pages: 1 -->
<svg width="1793pt" height="448pt"
 viewBox="0.00 0.00 1792.81 447.75" xmlns="http://www.w3.org/2000/svg" xmlns:xlink="http://www.w3.org/1999/xlink">
<g id="graph0" class="graph" transform="scale(1 1) rotate(0) translate(4 443.75)">
<title>/Users/fola/Documents/ArkScript/Ark/include/CLI/REPL/Repl.hpp</title>
<!-- Node1 -->
<g id="node1" class="node">
<title>Node1</title>
<g id="a_node1"><a xlink:title="ArkScript REPL &#45; Read Eval Print Loop.">
<polygon fill="#999999" stroke="#666666" points="1313.94,-439.75 1196.69,-439.75 1196.69,-398 1313.94,-398 1313.94,-439.75"/>
<text text-anchor="start" x="1204.69" y="-426.25" font-family="Helvetica,sans-Serif" font-size="10.00">/Users/fola/Documents</text>
<text text-anchor="start" x="1204.69" y="-415" font-family="Helvetica,sans-Serif" font-size="10.00">/ArkScript/Ark/include</text>
<text text-anchor="middle" x="1255.31" y="-403.75" font-family="Helvetica,sans-Serif" font-size="10.00">/CLI/REPL/Repl.hpp</text>
</a>
</g>
</g>
<!-- Node2 -->
<g id="node2" class="node">
<title>Node2</title>
<g id="a_node2"><a xlink:title=" ">
<polygon fill="#e0e0e0" stroke="#999999" points="1384.31,-19.25 1344.31,-19.25 1344.31,0 1384.31,0 1384.31,-19.25"/>
<text text-anchor="middle" x="1364.31" y="-5.75" font-family="Helvetica,sans-Serif" font-size="10.00">string</text>
</a>
</g>
</g>
<!-- Node1&#45;&gt;Node2 -->
<g id="edge1" class="edge">
<title>Node1&#45;&gt;Node2</title>
<path fill="none" stroke="#63b8ff" d="M1314.2,-414.19C1434.09,-405.06 1695.31,-376.2 1695.31,-298.12 1695.31,-298.12 1695.31,-298.12 1695.31,-124.75 1695.31,-85.36 1674.29,-75.19 1640.31,-55.25 1599.32,-31.18 1459.48,-17.82 1396.05,-12.87"/>
<polygon fill="#63b8ff" stroke="#63b8ff" points="1396.53,-9.4 1386.3,-12.13 1396,-16.38 1396.53,-9.4"/>
</g>
<!-- Node3 -->
<g id="node3" class="node">
<title>Node3</title>
<g id="a_node3"><a xlink:title=" ">
<polygon fill="#e0e0e0" stroke="#999999" points="591.19,-135.38 541.44,-135.38 541.44,-116.12 591.19,-116.12 591.19,-135.38"/>
<text text-anchor="middle" x="566.31" y="-121.88" font-family="Helvetica,sans-Serif" font-size="10.00">optional</text>
</a>
</g>
</g>
<!-- Node1&#45;&gt;Node3 -->
<g id="edge2" class="edge">
<title>Node1&#45;&gt;Node3</title>
<path fill="none" stroke="#63b8ff" d="M1196.23,-414.89C1007.29,-404.74 426.99,-368.74 372.31,-306.75 366.66,-300.33 368.16,-294.98 372.31,-287.5 409.7,-220.3 463.89,-249.55 519.31,-196.25 534.86,-181.3 548.15,-160.4 556.59,-145.42"/>
<polygon fill="#63b8ff" stroke="#63b8ff" points="559.42,-147.53 561.12,-137.07 553.27,-144.19 559.42,-147.53"/>
</g>
<!-- Node4 -->
<g id="node4" class="node">
<title>Node4</title>
<g id="a_node4"><a xlink:href="../../d1/d91/VM_8hpp.html" target="_top" xlink:title="The ArkScript virtual machine.">
<polygon fill="white" stroke="#666666" points="909.19,-362 823.44,-362 823.44,-342.75 909.19,-342.75 909.19,-362"/>
<text text-anchor="middle" x="866.31" y="-348.5" font-family="Helvetica,sans-Serif" font-size="10.00">Ark/VM/VM.hpp</text>
</a>
</g>
</g>
<!-- Node1&#45;&gt;Node4 -->
<g id="edge3" class="edge">
<title>Node1&#45;&gt;Node4</title>
<path fill="none" stroke="#63b8ff" d="M1196.23,-408.08C1121.39,-395.67 993.42,-374.45 920.82,-362.41"/>
<polygon fill="#63b8ff" stroke="#63b8ff" points="921.59,-358.99 911.15,-360.81 920.44,-365.9 921.59,-358.99"/>
</g>
<!-- Node18 -->
<g id="node18" class="node">
<title>Node18</title>
<g id="a_node18"><a xlink:href="../../d0/db5/State_8hpp.html" target="_top" xlink:title="State used by the virtual machine: it loads the bytecode, can compile it if needed,...">
<polygon fill="white" stroke="#666666" points="1302.31,-251.5 1208.31,-251.5 1208.31,-232.25 1302.31,-232.25 1302.31,-251.5"/>
<text text-anchor="middle" x="1255.31" y="-238" font-family="Helvetica,sans-Serif" font-size="10.00">Ark/VM/State.hpp</text>
</a>
</g>
</g>
<!-- Node1&#45;&gt;Node18 -->
<g id="edge82" class="edge">
<title>Node1&#45;&gt;Node18</title>
<path fill="none" stroke="#63b8ff" d="M1255.31,-397.8C1255.31,-364.19 1255.31,-296.92 1255.31,-263.17"/>
<polygon fill="#63b8ff" stroke="#63b8ff" points="1258.82,-263.17 1255.31,-253.17 1251.82,-263.17 1258.82,-263.17"/>
</g>
<!-- Node38 -->
<g id="node38" class="node">
<title>Node38</title>
<g id="a_node38"><a xlink:title=" ">
<polygon fill="#e0e0e0" stroke="#999999" points="1784.81,-362 1723.81,-362 1723.81,-342.75 1784.81,-342.75 1784.81,-362"/>
<text text-anchor="middle" x="1754.31" y="-348.5" font-family="Helvetica,sans-Serif" font-size="10.00">replxx.hxx</text>
</a>
</g>
</g>
<!-- Node1&#45;&gt;Node38 -->
<g id="edge83" class="edge">
<title>Node1&#45;&gt;Node38</title>
<path fill="none" stroke="#63b8ff" d="M1314.26,-411.89C1401.02,-402.8 1568.1,-384.2 1709.31,-362 1710.31,-361.84 1711.32,-361.68 1712.34,-361.51"/>
<polygon fill="#63b8ff" stroke="#63b8ff" points="1712.64,-365.01 1721.89,-359.85 1711.43,-358.12 1712.64,-365.01"/>
</g>
<!-- Node4&#45;&gt;Node2 -->
<g id="edge6" class="edge">
<title>Node4&#45;&gt;Node2</title>
<path fill="none" stroke="#63b8ff" d="M909.69,-350.04C1075.13,-344.36 1657.31,-318.98 1657.31,-242.88 1657.31,-242.88 1657.31,-242.88 1657.31,-124.75 1657.31,-88.66 1645.07,-75.68 1615.31,-55.25 1580.07,-31.05 1455.08,-17.96 1395.86,-13"/>
<polygon fill="#63b8ff" stroke="#63b8ff" points="1396.37,-9.53 1386.12,-12.21 1395.81,-16.5 1396.37,-9.53"/>
</g>
<!-- Node5 -->
<g id="node5" class="node">
<title>Node5</title>
<g id="a_node5"><a xlink:title=" ">
<polygon fill="#e0e0e0" stroke="#999999" points="853.19,-74.5 815.44,-74.5 815.44,-55.25 853.19,-55.25 853.19,-74.5"/>
<text text-anchor="middle" x="834.31" y="-61" font-family="Helvetica,sans-Serif" font-size="10.00">array</text>
</a>
</g>
</g>
<!-- Node4&#45;&gt;Node5 -->
<g id="edge4" class="edge">
<title>Node4&#45;&gt;Node5</title>
<path fill="none" stroke="#63b8ff" d="M861.69,-342.47C847.23,-314.07 802.97,-222.67 788.31,-141 785.92,-127.66 783.03,-122.98 788.31,-110.5 793.08,-99.24 802.22,-89.43 811.11,-81.9"/>
<polygon fill="#63b8ff" stroke="#63b8ff" points="813.16,-84.74 818.89,-75.83 808.85,-79.22 813.16,-84.74"/>
</g>
<!-- Node6 -->
<g id="node6" class="node">
<title>Node6</title>
<g id="a_node6"><a xlink:title=" ">
<polygon fill="#e0e0e0" stroke="#999999" points="1056.81,-19.25 1013.81,-19.25 1013.81,0 1056.81,0 1056.81,-19.25"/>
<text text-anchor="middle" x="1035.31" y="-5.75" font-family="Helvetica,sans-Serif" font-size="10.00">vector</text>
</a>
</g>
</g>
<!-- Node4&#45;&gt;Node6 -->
<g id="edge5" class="edge">
<title>Node4&#45;&gt;Node6</title>
<path fill="none" stroke="#63b8ff" d="M909.43,-349.41C1064.01,-341.8 1581.31,-311.22 1581.31,-242.88 1581.31,-242.88 1581.31,-242.88 1581.31,-124.75 1581.31,-81.84 1552.98,-73.85 1514.31,-55.25 1435.36,-17.27 1164.1,-11.57 1068.77,-10.75"/>
<polygon fill="#63b8ff" stroke="#63b8ff" points="1068.81,-7.25 1058.79,-10.68 1068.76,-14.25 1068.81,-7.25"/>
</g>
<!-- Node7 -->
<g id="node7" class="node">
<title>Node7</title>
<g id="a_node7"><a xlink:title=" ">
<polygon fill="#e0e0e0" stroke="#999999" points="151.19,-74.5 95.44,-74.5 95.44,-55.25 151.19,-55.25 151.19,-74.5"/>
<text text-anchor="middle" x="123.31" y="-61" font-family="Helvetica,sans-Serif" font-size="10.00">cinttypes</text>
</a>
</g>
</g>
<!-- Node4&#45;&gt;Node7 -->
<g id="edge7" class="edge">
<title>Node4&#45;&gt;Node7</title>
<path fill="none" stroke="#63b8ff" d="M822.97,-350.26C715.77,-347.09 440.66,-336.23 354.31,-306.75 225.33,-262.72 161.64,-260.61 96.31,-141 86.18,-122.44 97.72,-99.32 108.69,-83.66"/>
<polygon fill="#63b8ff" stroke="#63b8ff" points="111.42,-85.87 114.68,-75.78 105.84,-81.63 111.42,-85.87"/>
</g>
<!-- Node8 -->
<g id="node8" class="node">
<title>Node8</title>
<g id="a_node8"><a xlink:title=" ">
<polygon fill="#e0e0e0" stroke="#999999" points="1121.69,-196.25 1038.94,-196.25 1038.94,-177 1121.69,-177 1121.69,-196.25"/>
<text text-anchor="middle" x="1080.31" y="-182.75" font-family="Helvetica,sans-Serif" font-size="10.00">unordered_map</text>
</a>
</g>
</g>
<!-- Node4&#45;&gt;Node8 -->
<g id="edge8" class="edge">
<title>Node4&#45;&gt;Node8</title>
<path fill="none" stroke="#63b8ff" d="M902.4,-342.31C946.28,-329.45 1019.63,-301.67 1061.31,-251.5 1071.62,-239.1 1076.33,-221.27 1078.49,-207.6"/>
<polygon fill="#63b8ff" stroke="#63b8ff" points="1081.93,-208.34 1079.66,-197.99 1074.98,-207.5 1081.93,-208.34"/>
</g>
<!-- Node9 -->
<g id="node9" class="node">
<title>Node9</title>
<g id="a_node9"><a xlink:title=" ">
<polygon fill="#e0e0e0" stroke="#999999" points="441.44,-306.75 381.19,-306.75 381.19,-287.5 441.44,-287.5 441.44,-306.75"/>
<text text-anchor="middle" x="411.31" y="-293.25" font-family="Helvetica,sans-Serif" font-size="10.00">fmt/core.h</text>
</a>
</g>
</g>
<!-- Node4&#45;&gt;Node9 -->
<g id="edge9" class="edge">
<title>Node4&#45;&gt;Node9</title>
<path fill="none" stroke="#63b8ff" d="M822.98,-348.32C749.04,-342.75 593.59,-329.56 452.88,-307.01"/>
<polygon fill="#63b8ff" stroke="#63b8ff" points="453.84,-303.62 443.4,-305.47 452.71,-310.53 453.84,-303.62"/>
</g>
<!-- Node10 -->
<g id="node10" class="node">
<title>Node10</title>
<g id="a_node10"><a xlink:href="../../d8/daa/Instructions_8hpp.html" target="_top" xlink:title="The different instructions used by the compiler and virtual machine.">
<polygon fill="white" stroke="#666666" points="605.19,-306.75 459.44,-306.75 459.44,-287.5 605.19,-287.5 605.19,-306.75"/>
<text text-anchor="middle" x="532.31" y="-293.25" font-family="Helvetica,sans-Serif" font-size="10.00">Ark/Compiler/Instructions.hpp</text>
</a>
</g>
</g>
<!-- Node4&#45;&gt;Node10 -->
<g id="edge10" class="edge">
<title>Node4&#45;&gt;Node10</title>
<path fill="none" stroke="#63b8ff" d="M822.99,-344.47C766.6,-335.48 667.39,-319.66 600.76,-309.04"/>
<polygon fill="#63b8ff" stroke="#63b8ff" points="601.46,-305.6 591.03,-307.49 600.36,-312.52 601.46,-305.6"/>
</g>
<!-- Node11 -->
<g id="node11" class="node">
<title>Node11</title>
<g id="a_node11"><a xlink:href="../../de/dfd/Value_8hpp.html" target="_top" xlink:title=" ">
<polygon fill="white" stroke="#666666" points="703.69,-135.38 608.94,-135.38 608.94,-116.12 703.69,-116.12 703.69,-135.38"/>
<text text-anchor="middle" x="656.31" y="-121.88" font-family="Helvetica,sans-Serif" font-size="10.00">Ark/VM/Value.hpp</text>
</a>
</g>
</g>
<!-- Node4&#45;&gt;Node11 -->
<g id="edge11" class="edge">
<title>Node4&#45;&gt;Node11</title>
<path fill="none" stroke="#63b8ff" d="M822.95,-349.81C788.37,-346.26 740.96,-335.91 711.31,-306.75 666.73,-262.88 658.07,-183.97 656.54,-146.95"/>
<polygon fill="#63b8ff" stroke="#63b8ff" points="660.04,-147.15 656.28,-137.25 653.05,-147.34 660.04,-147.15"/>
</g>
<!-- Node16 -->
<g id="node16" class="node">
<title>Node16</title>
<g id="a_node16"><a xlink:href="../../d5/d40/Platform_8hpp.html" target="_top" xlink:title="ArkScript configuration macros.">
<polygon fill="white" stroke="#666666" points="440.06,-19.25 350.56,-19.25 350.56,0 440.06,0 440.06,-19.25"/>
<text text-anchor="middle" x="395.31" y="-5.75" font-family="Helvetica,sans-Serif" font-size="10.00">Ark/Platform.hpp</text>
</a>
</g>
</g>
<!-- Node4&#45;&gt;Node16 -->
<g id="edge71" class="edge">
<title>Node4&#45;&gt;Node16</title>
<path fill="none" stroke="#63b8ff" d="M823.12,-350.55C648.15,-346.67 1.31,-326.64 1.31,-242.88 1.31,-242.88 1.31,-242.88 1.31,-124.75 1.31,-92.73 -3.94,-76.15 20.31,-55.25 43.97,-34.87 239.99,-20.12 338.81,-13.9"/>
<polygon fill="#63b8ff" stroke="#63b8ff" points="338.8,-17.4 348.57,-13.29 338.37,-10.42 338.8,-17.4"/>
</g>
<!-- Node4&#45;&gt;Node18 -->
<g id="edge27" class="edge">
<title>Node4&#45;&gt;Node18</title>
<path fill="none" stroke="#63b8ff" d="M909.48,-345.92C955.89,-339.36 1031.45,-326.69 1094.31,-306.75 1114.27,-300.42 1117.96,-295.48 1137.31,-287.5 1164.76,-276.18 1196.22,-264.34 1219.75,-255.7"/>
<polygon fill="#63b8ff" stroke="#63b8ff" points="1220.67,-259.09 1228.86,-252.37 1218.27,-252.51 1220.67,-259.09"/>
</g>
<!-- Node27 -->
<g id="node27" class="node">
<title>Node27</title>
<g id="a_node27"><a xlink:href="../../de/df9/ErrorKind_8hpp.html" target="_top" xlink:title=" ">
<polygon fill="white" stroke="#666666" points="408.94,-135.38 297.69,-135.38 297.69,-116.12 408.94,-116.12 408.94,-135.38"/>
<text text-anchor="middle" x="353.31" y="-121.88" font-family="Helvetica,sans-Serif" font-size="10.00">Ark/VM/ErrorKind.hpp</text>
</a>
</g>
</g>
<!-- Node4&#45;&gt;Node27 -->
<g id="edge49" class="edge">
<title>Node4&#45;&gt;Node27</title>
<path fill="none" stroke="#63b8ff" d="M823.27,-350.55C708.92,-347.95 404.14,-338.1 372.31,-306.75 329.07,-264.15 340.27,-183.36 348.37,-146.26"/>
<polygon fill="#63b8ff" stroke="#63b8ff" points="351.68,-147.48 350.57,-136.95 344.87,-145.88 351.68,-147.48"/>
</g>
<!-- Node28 -->
<g id="node28" class="node">
<title>Node28</title>
<g id="a_node28"><a xlink:href="../../db/df6/ExecutionContext_8hpp.html" target="_top" xlink:title="Keeping track of the internal data needed by the VM.">
<polygon fill="white" stroke="#666666" points="643.69,-251.5 494.94,-251.5 494.94,-232.25 643.69,-232.25 643.69,-251.5"/>
<text text-anchor="middle" x="569.31" y="-238" font-family="Helvetica,sans-Serif" font-size="10.00">Ark/VM/ExecutionContext.hpp</text>
</a>
</g>
</g>
<!-- Node4&#45;&gt;Node28 -->
<g id="edge52" class="edge">
<title>Node4&#45;&gt;Node28</title>
<path fill="none" stroke="#63b8ff" d="M823.06,-347.45C779.63,-342.3 711.54,-330.91 657.31,-306.75 630.54,-294.82 603.88,-273.87 587.04,-259.23"/>
<polygon fill="#63b8ff" stroke="#63b8ff" points="589.67,-256.89 579.88,-252.84 585.01,-262.11 589.67,-256.89"/>
</g>
<!-- Node32 -->
<g id="node32" class="node">
<title>Node32</title>
<g id="a_node32"><a xlink:href="../../da/d84/Builtins_8hpp.html" target="_top" xlink:title="Host the declaration of all the ArkScript builtins.">
<polygon fill="white" stroke="#666666" points="1052.44,-251.5 932.19,-251.5 932.19,-232.25 1052.44,-232.25 1052.44,-251.5"/>
<text text-anchor="middle" x="992.31" y="-238" font-family="Helvetica,sans-Serif" font-size="10.00">Ark/Builtins/Builtins.hpp</text>
</a>
</g>
</g>
<!-- Node4&#45;&gt;Node32 -->
<g id="edge67" class="edge">
<title>Node4&#45;&gt;Node32</title>
<path fill="none" stroke="#63b8ff" d="M876.68,-342.49C887.18,-333.49 903.89,-319.17 918.31,-306.75 937.06,-290.61 958.45,-272.15 973.39,-259.23"/>
<polygon fill="#63b8ff" stroke="#63b8ff" points="975.36,-262.16 980.64,-252.97 970.78,-256.86 975.36,-262.16"/>
</g>
<!-- Node33 -->
<g id="node33" class="node">
<title>Node33</title>
<g id="a_node33"><a xlink:href="../../db/d0e/Plugin_8hpp.html" target="_top" xlink:title="Loads .dll/.so/.dynlib files.">
<polygon fill="white" stroke="#666666" points="969.19,-74.5 871.44,-74.5 871.44,-55.25 969.19,-55.25 969.19,-74.5"/>
<text text-anchor="middle" x="920.31" y="-61" font-family="Helvetica,sans-Serif" font-size="10.00">Ark/VM/Plugin.hpp</text>
</a>
</g>
</g>
<!-- Node4&#45;&gt;Node33 -->
<g id="edge72" class="edge">
<title>Node4&#45;&gt;Node33</title>
<path fill="none" stroke="#63b8ff" d="M870.7,-342.44C884.42,-313.95 926.43,-222.29 940.31,-141 942.6,-127.64 943.15,-123.76 940.31,-110.5 938.43,-101.69 934.67,-92.51 930.91,-84.79"/>
<polygon fill="#63b8ff" stroke="#63b8ff" points="934.08,-83.29 926.33,-76.06 927.88,-86.54 934.08,-83.29"/>
</g>
<!-- Node35 -->
<g id="node35" class="node">
<title>Node35</title>
<g id="a_node35"><a xlink:href="../../d0/dda/Future_8hpp.html" target="_top" xlink:title=" ">
<polygon fill="white" stroke="#666666" points="818.56,-306.75 720.06,-306.75 720.06,-287.5 818.56,-287.5 818.56,-306.75"/>
<text text-anchor="middle" x="769.31" y="-293.25" font-family="Helvetica,sans-Serif" font-size="10.00">Ark/VM/Future.hpp</text>
</a>
</g>
</g>
<!-- Node4&#45;&gt;Node35 -->
<g id="edge76" class="edge">
<title>Node4&#45;&gt;Node35</title>
<path fill="none" stroke="#63b8ff" d="M849.86,-342.34C835.09,-334.23 813.14,-322.18 795.88,-312.71"/>
<polygon fill="#63b8ff" stroke="#63b8ff" points="797.63,-309.68 787.18,-307.93 794.26,-315.81 797.63,-309.68"/>
</g>
<!-- Node37 -->
<g id="node37" class="node">
<title>Node37</title>
<g id="a_node37"><a xlink:title=" ">
<polygon fill="#e0e0e0" stroke="#999999" points="1215.94,-306.75 1146.69,-306.75 1146.69,-287.5 1215.94,-287.5 1215.94,-306.75"/>
<text text-anchor="middle" x="1181.31" y="-293.25" font-family="Helvetica,sans-Serif" font-size="10.00">inline/VM.inl</text>
</a>
</g>
</g>
<!-- Node4&#45;&gt;Node37 -->
<g id="edge81" class="edge">
<title>Node4&#45;&gt;Node37</title>
<path fill="none" stroke="#63b8ff" d="M909.64,-344.22C962.3,-335.49 1053.86,-320.24 1132.31,-306.75 1133.3,-306.58 1134.3,-306.41 1135.31,-306.23"/>
<polygon fill="#63b8ff" stroke="#63b8ff" points="1135.51,-309.75 1144.77,-304.59 1134.31,-302.85 1135.51,-309.75"/>
</g>
<!-- Node11&#45;&gt;Node2 -->
<g id="edge14" class="edge">
<title>Node11&#45;&gt;Node2</title>
<path fill="none" stroke="#63b8ff" d="M704.07,-117.44C766.96,-107.78 880.98,-90.15 978.31,-74.5 1109.95,-53.34 1266.65,-27.08 1332.59,-15.98"/>
<polygon fill="#63b8ff" stroke="#63b8ff" points="1333.05,-19.45 1342.33,-14.34 1331.89,-12.55 1333.05,-19.45"/>
</g>
<!-- Node11&#45;&gt;Node5 -->
<g id="edge16" class="edge">
<title>Node11&#45;&gt;Node5</title>
<path fill="none" stroke="#63b8ff" d="M683.74,-115.68C716.42,-104.87 770.83,-86.87 804.52,-75.73"/>
<polygon fill="#63b8ff" stroke="#63b8ff" points="805.26,-79.17 813.65,-72.71 803.06,-72.53 805.26,-79.17"/>
</g>
<!-- Node11&#45;&gt;Node6 -->
<g id="edge12" class="edge">
<title>Node11&#45;&gt;Node6</title>
<path fill="none" stroke="#63b8ff" d="M677.09,-115.78C699.68,-105.94 736.77,-89.56 768.31,-74.5 785.4,-66.35 788.41,-61.4 806.31,-55.25 842.18,-42.94 948.11,-24.76 1002.41,-15.89"/>
<polygon fill="#63b8ff" stroke="#63b8ff" points="1002.67,-19.39 1011.98,-14.33 1001.55,-12.48 1002.67,-19.39"/>
</g>
<!-- Node11&#45;&gt;Node7 -->
<g id="edge15" class="edge">
<title>Node11&#45;&gt;Node7</title>
<path fill="none" stroke="#63b8ff" d="M624.23,-115.65C616.45,-113.7 608.13,-111.83 600.31,-110.5 423.5,-80.29 376.77,-92.75 198.31,-74.5 186.68,-73.31 174.04,-71.9 162.51,-70.57"/>
<polygon fill="#63b8ff" stroke="#63b8ff" points="163.27,-67.14 152.94,-69.45 162.46,-74.09 163.27,-67.14"/>
</g>
<!-- Node12 -->
<g id="node12" class="node">
<title>Node12</title>
<g id="a_node12"><a xlink:title=" ">
<polygon fill="#e0e0e0" stroke="#999999" points="758.94,-74.5 713.69,-74.5 713.69,-55.25 758.94,-55.25 758.94,-74.5"/>
<text text-anchor="middle" x="736.31" y="-61" font-family="Helvetica,sans-Serif" font-size="10.00">variant</text>
</a>
</g>
</g>
<!-- Node11&#45;&gt;Node12 -->
<g id="edge13" class="edge">
<title>Node11&#45;&gt;Node12</title>
<path fill="none" stroke="#63b8ff" d="M668.47,-115.81C680.8,-106.73 700.15,-92.49 715.03,-81.54"/>
<polygon fill="#63b8ff" stroke="#63b8ff" points="716.85,-84.54 722.83,-75.8 712.7,-78.91 716.85,-84.54"/>
</g>
<!-- Node13 -->
<g id="node13" class="node">
<title>Node13</title>
<g id="a_node13"><a xlink:href="../../dc/dd5/Closure_8hpp.html" target="_top" xlink:title="Subtype of the value type, handling closures.">
<polygon fill="white" stroke="#666666" points="461.06,-74.5 329.56,-74.5 329.56,-55.25 461.06,-55.25 461.06,-74.5"/>
<text text-anchor="middle" x="395.31" y="-61" font-family="Helvetica,sans-Serif" font-size="10.00">Ark/VM/Value/Closure.hpp</text>
</a>
</g>
</g>
<!-- Node11&#45;&gt;Node13 -->
<g id="edge17" class="edge">
<title>Node11&#45;&gt;Node13</title>
<path fill="none" stroke="#63b8ff" d="M621.41,-115.67C614.43,-113.91 607.15,-112.11 600.31,-110.5 549.6,-98.53 491.56,-86.01 450.2,-77.28"/>
<polygon fill="#63b8ff" stroke="#63b8ff" points="450.99,-73.87 440.49,-75.24 449.55,-80.72 450.99,-73.87"/>
</g>
<!-- Node11&#45;&gt;Node16 -->
<g id="edge26" class="edge">
<title>Node11&#45;&gt;Node16</title>
<path fill="none" stroke="#63b8ff" d="M623.3,-115.64C615.78,-113.77 607.8,-111.93 600.31,-110.5 538.69,-98.74 361.75,-121.6 320.31,-74.5 303.21,-55.06 332.57,-36.27 359.42,-24.16"/>
<polygon fill="#63b8ff" stroke="#63b8ff" points="360.65,-27.45 368.47,-20.3 357.9,-21.01 360.65,-27.45"/>
</g>
<!-- Node17 -->
<g id="node17" class="node">
<title>Node17</title>
<g id="a_node17"><a xlink:href="../../dc/d3d/UserType_8hpp.html" target="_top" xlink:title="Subtype of the value, capable of handling any C++ type.">
<polygon fill="white" stroke="#666666" points="657.19,-74.5 517.44,-74.5 517.44,-55.25 657.19,-55.25 657.19,-74.5"/>
<text text-anchor="middle" x="587.31" y="-61" font-family="Helvetica,sans-Serif" font-size="10.00">Ark/VM/Value/UserType.hpp</text>
</a>
</g>
</g>
<!-- Node11&#45;&gt;Node17 -->
<g id="edge22" class="edge">
<title>Node11&#45;&gt;Node17</title>
<path fill="none" stroke="#63b8ff" d="M645.84,-115.81C635.4,-106.9 619.14,-93.03 606.41,-82.17"/>
<polygon fill="#63b8ff" stroke="#63b8ff" points="608.92,-79.71 599.04,-75.88 604.38,-85.04 608.92,-79.71"/>
</g>
<!-- Node13&#45;&gt;Node2 -->
<g id="edge20" class="edge">
<title>Node13&#45;&gt;Node2</title>
<path fill="none" stroke="#63b8ff" d="M461.32,-58.57C476.74,-57.4 493.1,-56.23 508.31,-55.25 830.02,-34.59 1220.22,-16.94 1332.63,-12"/>
<polygon fill="#63b8ff" stroke="#63b8ff" points="1332.73,-15.5 1342.57,-11.57 1332.43,-8.51 1332.73,-15.5"/>
</g>
<!-- Node14 -->
<g id="node14" class="node">
<title>Node14</title>
<g id="a_node14"><a xlink:title=" ">
<polygon fill="#e0e0e0" stroke="#999999" points="160.94,-19.25 109.69,-19.25 109.69,0 160.94,0 160.94,-19.25"/>
<text text-anchor="middle" x="135.31" y="-5.75" font-family="Helvetica,sans-Serif" font-size="10.00">memory</text>
</a>
</g>
</g>
<!-- Node13&#45;&gt;Node14 -->
<g id="edge18" class="edge">
<title>Node13&#45;&gt;Node14</title>
<path fill="none" stroke="#63b8ff" d="M350.91,-54.78C300.64,-44.49 219.62,-27.89 172.53,-18.25"/>
<polygon fill="#63b8ff" stroke="#63b8ff" points="173.31,-14.83 162.81,-16.26 171.9,-21.69 173.31,-14.83"/>
</g>
<!-- Node15 -->
<g id="node15" class="node">
<title>Node15</title>
<g id="a_node15"><a xlink:title=" ">
<polygon fill="#e0e0e0" stroke="#999999" points="614.06,-19.25 560.56,-19.25 560.56,0 614.06,0 614.06,-19.25"/>
<text text-anchor="middle" x="587.31" y="-5.75" font-family="Helvetica,sans-Serif" font-size="10.00">iostream</text>
</a>
</g>
</g>
<!-- Node13&#45;&gt;Node15 -->
<g id="edge19" class="edge">
<title>Node13&#45;&gt;Node15</title>
<path fill="none" stroke="#63b8ff" d="M427.89,-54.84C461.48,-45.52 513.84,-31 549.3,-21.17"/>
<polygon fill="#63b8ff" stroke="#63b8ff" points="550.02,-24.6 558.72,-18.55 548.15,-17.85 550.02,-24.6"/>
</g>
<!-- Node13&#45;&gt;Node16 -->
<g id="edge21" class="edge">
<title>Node13&#45;&gt;Node16</title>
<path fill="none" stroke="#63b8ff" d="M395.31,-55.08C395.31,-48.57 395.31,-39.42 395.31,-31.12"/>
<polygon fill="#63b8ff" stroke="#63b8ff" points="398.82,-31.12 395.31,-21.12 391.82,-31.12 398.82,-31.12"/>
</g>
<!-- Node17&#45;&gt;Node6 -->
<g id="edge24" class="edge">
<title>Node17&#45;&gt;Node6</title>
<path fill="none" stroke="#63b8ff" d="M657.53,-55.76C733.63,-46.93 858.62,-32.32 966.31,-19.25 978.06,-17.82 990.92,-16.23 1002.32,-14.8"/>
<polygon fill="#63b8ff" stroke="#63b8ff" points="1002.58,-18.29 1012.06,-13.57 1001.71,-11.35 1002.58,-18.29"/>
</g>
<!-- Node17&#45;&gt;Node15 -->
<g id="edge23" class="edge">
<title>Node17&#45;&gt;Node15</title>
<path fill="none" stroke="#63b8ff" d="M587.31,-55.08C587.31,-48.57 587.31,-39.42 587.31,-31.12"/>
<polygon fill="#63b8ff" stroke="#63b8ff" points="590.82,-31.12 587.31,-21.12 583.82,-31.12 590.82,-31.12"/>
</g>
<!-- Node17&#45;&gt;Node16 -->
<g id="edge25" class="edge">
<title>Node17&#45;&gt;Node16</title>
<path fill="none" stroke="#63b8ff" d="M554.74,-54.84C522.89,-46.01 474.16,-32.49 438.96,-22.73"/>
<polygon fill="#63b8ff" stroke="#63b8ff" points="440.08,-19.41 429.5,-20.11 438.2,-26.15 440.08,-19.41"/>
</g>
<!-- Node18&#45;&gt;Node2 -->
<g id="edge28" class="edge">
<title>Node18&#45;&gt;Node2</title>
<path fill="none" stroke="#63b8ff" d="M1302.6,-240.16C1378.97,-238.02 1524.73,-229.56 1562.31,-196.25 1610.48,-153.56 1636.28,-104.89 1595.31,-55.25 1570.37,-25.03 1453.08,-15.04 1395.86,-11.93"/>
<polygon fill="#63b8ff" stroke="#63b8ff" points="1396.29,-8.45 1386.13,-11.45 1395.94,-15.44 1396.29,-8.45"/>
</g>
<!-- Node18&#45;&gt;Node6 -->
<g id="edge29" class="edge">
<title>Node18&#45;&gt;Node6</title>
<path fill="none" stroke="#63b8ff" d="M1302.69,-237.95C1362.11,-231.38 1461.19,-210.05 1502.31,-141 1510.03,-128.05 1506.01,-63.13 1498.31,-55.25 1468.36,-24.57 1169.48,-14.08 1068.47,-11.4"/>
<polygon fill="#63b8ff" stroke="#63b8ff" points="1068.76,-7.91 1058.68,-11.15 1068.58,-14.9 1068.76,-7.91"/>
</g>
<!-- Node18&#45;&gt;Node8 -->
<g id="edge30" class="edge">
<title>Node18&#45;&gt;Node8</title>
<path fill="none" stroke="#63b8ff" d="M1225.63,-231.84C1196.84,-223.08 1152.95,-209.73 1120.93,-199.98"/>
<polygon fill="#63b8ff" stroke="#63b8ff" points="1122.18,-196.71 1111.59,-197.14 1120.14,-203.4 1122.18,-196.71"/>
</g>
<!-- Node18&#45;&gt;Node11 -->
<g id="edge32" class="edge">
<title>Node18&#45;&gt;Node11</title>
<path fill="none" stroke="#63b8ff" d="M1235.71,-231.9C1216.94,-223.18 1187.91,-209.36 1163.31,-196.25 1148.33,-188.26 1146.45,-182.28 1130.31,-177 985.07,-129.43 940.29,-157.2 788.31,-141 764.39,-138.45 738.04,-135.61 715.21,-133.14"/>
<polygon fill="#63b8ff" stroke="#63b8ff" points="715.79,-129.68 705.47,-132.09 715.04,-136.64 715.79,-129.68"/>
</g>
<!-- Node19 -->
<g id="node19" class="node">
<title>Node19</title>
<g id="a_node19"><a xlink:title=" ">
<polygon fill="#e0e0e0" stroke="#999999" points="1552.81,-196.25 1491.81,-196.25 1491.81,-177 1552.81,-177 1552.81,-196.25"/>
<text text-anchor="middle" x="1522.31" y="-182.75" font-family="Helvetica,sans-Serif" font-size="10.00">filesystem</text>
</a>
</g>
</g>
<!-- Node18&#45;&gt;Node19 -->
<g id="edge31" class="edge">
<title>Node18&#45;&gt;Node19</title>
<path fill="none" stroke="#63b8ff" d="M1300.91,-231.78C1351.24,-221.74 1431.57,-205.72 1480.39,-195.99"/>
<polygon fill="#63b8ff" stroke="#63b8ff" points="1480.88,-199.46 1490,-194.07 1479.51,-192.59 1480.88,-199.46"/>
</g>
<!-- Node20 -->
<g id="node20" class="node">
<title>Node20</title>
<g id="a_node20"><a xlink:href="../../d8/ddd/Common_8hpp.html" target="_top" xlink:title="Common code for the compiler.">
<polygon fill="white" stroke="#666666" points="931.56,-135.38 797.06,-135.38 797.06,-116.12 931.56,-116.12 931.56,-135.38"/>
<text text-anchor="middle" x="864.31" y="-121.88" font-family="Helvetica,sans-Serif" font-size="10.00">Ark/Compiler/Common.hpp</text>
</a>
</g>
</g>
<!-- Node18&#45;&gt;Node20 -->
<g id="edge33" class="edge">
<title>Node18&#45;&gt;Node20</title>
<path fill="none" stroke="#63b8ff" d="M1245.44,-231.76C1229.48,-217.59 1196.45,-190.49 1163.31,-177 1124.42,-161.16 1017.86,-145.55 943.09,-136.03"/>
<polygon fill="#63b8ff" stroke="#63b8ff" points="943.7,-132.58 933.34,-134.8 942.82,-139.52 943.7,-132.58"/>
</g>
<!-- Node22 -->
<g id="node22" class="node">
<title>Node22</title>
<g id="a_node22"><a xlink:href="../../d2/de9/Exceptions_8hpp.html" target="_top" xlink:title="ArkScript homemade exceptions.">
<polygon fill="white" stroke="#666666" points="1317.06,-196.25 1215.56,-196.25 1215.56,-177 1317.06,-177 1317.06,-196.25"/>
<text text-anchor="middle" x="1266.31" y="-182.75" font-family="Helvetica,sans-Serif" font-size="10.00">Ark/Exceptions.hpp</text>
</a>
</g>
</g>
<!-- Node18&#45;&gt;Node22 -->
<g id="edge37" class="edge">
<title>Node18&#45;&gt;Node22</title>
<path fill="none" stroke="#63b8ff" d="M1257.13,-232.08C1258.49,-225.49 1260.41,-216.21 1262.14,-207.82"/>
<polygon fill="#63b8ff" stroke="#63b8ff" points="1265.56,-208.59 1264.15,-198.09 1258.7,-207.18 1265.56,-208.59"/>
</g>
<!-- Node20&#45;&gt;Node5 -->
<g id="edge34" class="edge">
<title>Node20&#45;&gt;Node5</title>
<path fill="none" stroke="#63b8ff" d="M859.76,-115.81C855.62,-107.68 849.37,-95.42 844.1,-85.08"/>
<polygon fill="#63b8ff" stroke="#63b8ff" points="847.26,-83.57 839.6,-76.25 841.02,-86.75 847.26,-83.57"/>
</g>
<!-- Node20&#45;&gt;Node6 -->
<g id="edge36" class="edge">
<title>Node20&#45;&gt;Node6</title>
<path fill="none" stroke="#63b8ff" d="M893.75,-115.69C917.91,-107.37 952.25,-93.45 978.31,-74.5 995.92,-61.7 1012.04,-42.64 1022.61,-28.67"/>
<polygon fill="#63b8ff" stroke="#63b8ff" points="1025.3,-30.92 1028.37,-20.79 1019.64,-26.79 1025.3,-30.92"/>
</g>
<!-- Node21 -->
<g id="node21" class="node">
<title>Node21</title>
<g id="a_node21"><a xlink:title=" ">
<polygon fill="#e0e0e0" stroke="#999999" points="273.06,-74.5 207.56,-74.5 207.56,-55.25 273.06,-55.25 273.06,-74.5"/>
<text text-anchor="middle" x="240.31" y="-61" font-family="Helvetica,sans-Serif" font-size="10.00">string_view</text>
</a>
</g>
</g>
<!-- Node20&#45;&gt;Node21 -->
<g id="edge35" class="edge">
<title>Node20&#45;&gt;Node21</title>
<path fill="none" stroke="#63b8ff" d="M796.6,-118.37C770.28,-115.9 739.89,-113.06 712.31,-110.5 538.11,-94.33 494.41,-91.88 320.31,-74.5 308.74,-73.34 296.24,-72.03 284.63,-70.78"/>
<polygon fill="#63b8ff" stroke="#63b8ff" points="285.21,-67.32 274.89,-69.72 284.46,-74.28 285.21,-67.32"/>
</g>
<!-- Node22&#45;&gt;Node2 -->
<g id="edge38" class="edge">
<title>Node22&#45;&gt;Node2</title>
<path fill="none" stroke="#63b8ff" d="M1278.85,-176.61C1289.53,-168.38 1304.64,-155.33 1314.31,-141 1338.21,-105.62 1352.89,-57.22 1359.73,-30.45"/>
<polygon fill="#63b8ff" stroke="#63b8ff" points="1363.07,-31.52 1362.03,-20.98 1356.27,-29.86 1363.07,-31.52"/>
</g>
<!-- Node22&#45;&gt;Node3 -->
<g id="edge41" class="edge">
<title>Node22&#45;&gt;Node3</title>
<path fill="none" stroke="#63b8ff" d="M1215.26,-182.32C1060.69,-172.28 607.8,-142.77 600.31,-141 598.68,-140.61 597.02,-140.16 595.36,-139.65"/>
<polygon fill="#63b8ff" stroke="#63b8ff" points="596.66,-136.4 586.07,-136.25 594.26,-142.97 596.66,-136.4"/>
</g>
<!-- Node22&#45;&gt;Node6 -->
<g id="edge39" class="edge">
<title>Node22&#45;&gt;Node6</title>
<path fill="none" stroke="#63b8ff" d="M1232.59,-176.56C1211.98,-169.62 1186.22,-158.25 1168.31,-141 1137.61,-111.42 1155.53,-85.33 1125.31,-55.25 1109.27,-39.28 1086.36,-28.03 1067.67,-20.82"/>
<polygon fill="#63b8ff" stroke="#63b8ff" points="1068.98,-17.57 1058.38,-17.46 1066.59,-24.16 1068.98,-17.57"/>
</g>
<!-- Node22&#45;&gt;Node15 -->
<g id="edge43" class="edge">
<title>Node22&#45;&gt;Node15</title>
<path fill="none" stroke="#63b8ff" d="M1239.03,-176.62C1214.26,-168.2 1176.88,-154.87 1145.31,-141 1068.92,-107.45 1058.17,-79.43 978.31,-55.25 853.45,-17.44 697.31,-11.21 626.03,-10.48"/>
<polygon fill="#63b8ff" stroke="#63b8ff" points="626.07,-6.98 616.05,-10.42 626.03,-13.98 626.07,-6.98"/>
</g>
<!-- Node22&#45;&gt;Node16 -->
<g id="edge48" class="edge">
<title>Node22&#45;&gt;Node16</title>
<path fill="none" stroke="#63b8ff" d="M1229.98,-176.56C1157.36,-158.55 996.48,-119.27 940.31,-110.5 749.95,-80.79 692.44,-131.22 508.31,-74.5 498.98,-71.62 450.45,-43.34 420.1,-25.39"/>
<polygon fill="#63b8ff" stroke="#63b8ff" points="422.28,-22.61 411.89,-20.52 418.71,-28.63 422.28,-22.61"/>
</g>
<!-- Node23 -->
<g id="node23" class="node">
<title>Node23</title>
<g id="a_node23"><a xlink:title=" ">
<polygon fill="#e0e0e0" stroke="#999999" points="1235.69,-135.38 1176.94,-135.38 1176.94,-116.12 1235.69,-116.12 1235.69,-135.38"/>
<text text-anchor="middle" x="1206.31" y="-121.88" font-family="Helvetica,sans-Serif" font-size="10.00">stdexcept</text>
</a>
</g>
</g>
<!-- Node22&#45;&gt;Node23 -->
<g id="edge40" class="edge">
<title>Node22&#45;&gt;Node23</title>
<path fill="none" stroke="#63b8ff" d="M1257.2,-176.68C1248.3,-167.95 1234.54,-154.44 1223.57,-143.68"/>
<polygon fill="#63b8ff" stroke="#63b8ff" points="1226.18,-141.34 1216.59,-136.84 1221.28,-146.34 1226.18,-141.34"/>
</g>
<!-- Node24 -->
<g id="node24" class="node">
<title>Node24</title>
<g id="a_node24"><a xlink:title=" ">
<polygon fill="#e0e0e0" stroke="#999999" points="1304.94,-135.38 1253.69,-135.38 1253.69,-116.12 1304.94,-116.12 1304.94,-135.38"/>
<text text-anchor="middle" x="1279.31" y="-121.88" font-family="Helvetica,sans-Serif" font-size="10.00">ostream</text>
</a>
</g>
</g>
<!-- Node22&#45;&gt;Node24 -->
<g id="edge42" class="edge">
<title>Node22&#45;&gt;Node24</title>
<path fill="none" stroke="#63b8ff" d="M1268.29,-176.68C1270.03,-168.82 1272.62,-157.07 1274.85,-146.95"/>
<polygon fill="#63b8ff" stroke="#63b8ff" points="1278.26,-147.77 1277,-137.25 1271.42,-146.26 1278.26,-147.77"/>
</g>
<!-- Node25 -->
<g id="node25" class="node">
<title>Node25</title>
<g id="a_node25"><a xlink:href="../../db/d4e/utf8__char_8hpp.html" target="_top" xlink:title=" ">
<polygon fill="white" stroke="#666666" points="1476.81,-141 1361.81,-141 1361.81,-110.5 1476.81,-110.5 1476.81,-141"/>
<text text-anchor="start" x="1369.81" y="-127.5" font-family="Helvetica,sans-Serif" font-size="10.00">Ark/Compiler/AST/utf8</text>
<text text-anchor="middle" x="1419.31" y="-116.25" font-family="Helvetica,sans-Serif" font-size="10.00">_char.hpp</text>
</a>
</g>
</g>
<!-- Node22&#45;&gt;Node25 -->
<g id="edge44" class="edge">
<title>Node22&#45;&gt;Node25</title>
<path fill="none" stroke="#63b8ff" d="M1289.89,-176.55C1311.35,-168.3 1343.71,-155.84 1370.7,-145.46"/>
<polygon fill="#63b8ff" stroke="#63b8ff" points="1371.64,-148.85 1379.71,-141.99 1369.12,-142.31 1371.64,-148.85"/>
</g>
<!-- Node25&#45;&gt;Node2 -->
<g id="edge46" class="edge">
<title>Node25&#45;&gt;Node2</title>
<path fill="none" stroke="#63b8ff" d="M1412.35,-110.3C1402.51,-89.87 1384.51,-52.54 1373.56,-29.81"/>
<polygon fill="#63b8ff" stroke="#63b8ff" points="1376.84,-28.55 1369.34,-21.06 1370.53,-31.59 1376.84,-28.55"/>
</g>
<!-- Node25&#45;&gt;Node5 -->
<g id="edge45" class="edge">
<title>Node25&#45;&gt;Node5</title>
<path fill="none" stroke="#63b8ff" d="M1361.34,-116.3C1346.07,-114.23 1329.59,-112.14 1314.31,-110.5 1117.57,-89.33 1062.23,-111.56 864.51,-74.48"/>
<polygon fill="#63b8ff" stroke="#63b8ff" points="865.42,-71.09 854.94,-72.66 864.11,-77.97 865.42,-71.09"/>
</g>
<!-- Node26 -->
<g id="node26" class="node">
<title>Node26</title>
<g id="a_node26"><a xlink:title=" ">
<polygon fill="#e0e0e0" stroke="#999999" points="1488.94,-74.5 1449.69,-74.5 1449.69,-55.25 1488.94,-55.25 1488.94,-74.5"/>
<text text-anchor="middle" x="1469.31" y="-61" font-family="Helvetica,sans-Serif" font-size="10.00">limits</text>
</a>
</g>
</g>
<!-- Node25&#45;&gt;Node26 -->
<g id="edge47" class="edge">
<title>Node25&#45;&gt;Node26</title>
<path fill="none" stroke="#63b8ff" d="M1431.67,-110.2C1438.48,-102.18 1446.99,-92.17 1454.19,-83.69"/>
<polygon fill="#63b8ff" stroke="#63b8ff" points="1456.82,-85.99 1460.63,-76.1 1451.49,-81.46 1456.82,-85.99"/>
</g>
<!-- Node27&#45;&gt;Node5 -->
<g id="edge50" class="edge">
<title>Node27&#45;&gt;Node5</title>
<path fill="none" stroke="#63b8ff" d="M409.38,-118.13C489.15,-108.68 639.96,-90.66 768.31,-74.5 779.85,-73.05 792.51,-71.41 803.63,-69.95"/>
<polygon fill="#63b8ff" stroke="#63b8ff" points="804.01,-73.43 813.47,-68.65 803.1,-66.49 804.01,-73.43"/>
</g>
<!-- Node27&#45;&gt;Node21 -->
<g id="edge51" class="edge">
<title>Node27&#45;&gt;Node21</title>
<path fill="none" stroke="#63b8ff" d="M336.15,-115.81C317.98,-106.34 289.04,-91.26 267.71,-80.15"/>
<polygon fill="#63b8ff" stroke="#63b8ff" points="269.47,-77.12 258.98,-75.6 266.23,-83.33 269.47,-77.12"/>
</g>
<!-- Node28&#45;&gt;Node3 -->
<g id="edge56" class="edge">
<title>Node28&#45;&gt;Node3</title>
<path fill="none" stroke="#63b8ff" d="M569.08,-231.92C568.6,-213.75 567.51,-172.17 566.85,-147.07"/>
<polygon fill="#63b8ff" stroke="#63b8ff" points="570.35,-147.08 566.59,-137.18 563.35,-147.27 570.35,-147.08"/>
</g>
<!-- Node28&#45;&gt;Node5 -->
<g id="edge53" class="edge">
<title>Node28&#45;&gt;Node5</title>
<path fill="none" stroke="#63b8ff" d="M582.35,-231.82C607.51,-214.32 664.52,-174.64 712.31,-141 731.48,-127.51 735.53,-123.06 755.31,-110.5 772.17,-99.8 791.7,-88.76 807.13,-80.33"/>
<polygon fill="#63b8ff" stroke="#63b8ff" points="808.61,-83.51 815.74,-75.68 805.27,-77.36 808.61,-83.51"/>
</g>
<!-- Node28&#45;&gt;Node11 -->
<g id="edge61" class="edge">
<title>Node28&#45;&gt;Node11</title>
<path fill="none" stroke="#63b8ff" d="M576.14,-231.92C590.44,-213.17 623.75,-169.47 642.63,-144.71"/>
<polygon fill="#63b8ff" stroke="#63b8ff" points="645.32,-146.94 648.6,-136.87 639.76,-142.7 645.32,-146.94"/>
</g>
<!-- Node28&#45;&gt;Node14 -->
<g id="edge55" class="edge">
<title>Node28&#45;&gt;Node14</title>
<path fill="none" stroke="#63b8ff" d="M494.79,-237.25C398.03,-229.92 226.19,-207.77 96.31,-141 51.02,-117.72 -8.45,-97.27 20.31,-55.25 37.7,-29.85 71.82,-18.91 98.39,-14.19"/>
<polygon fill="#63b8ff" stroke="#63b8ff" points="98.76,-17.67 108.12,-12.71 97.71,-10.75 98.76,-17.67"/>
</g>
<!-- Node28&#45;&gt;Node26 -->
<g id="edge54" class="edge">
<title>Node28&#45;&gt;Node26</title>
<path fill="none" stroke="#63b8ff" d="M643.87,-237.03C828.27,-227.45 1293.24,-202.81 1326.31,-196.25 1400.11,-181.62 1442.65,-202.27 1486.31,-141 1498.17,-124.37 1489.82,-100.84 1481.17,-84.56"/>
<polygon fill="#63b8ff" stroke="#63b8ff" points="1484.19,-82.8 1476.13,-75.93 1478.15,-86.33 1484.19,-82.8"/>
</g>
<!-- Node29 -->
<g id="node29" class="node">
<title>Node29</title>
<g id="a_node29"><a xlink:href="../../d6/de9/Constants_8hpp.html" target="_top" xlink:title="Constants used by ArkScript.">
<polygon fill="white" stroke="#666666" points="203.19,-135.38 105.44,-135.38 105.44,-116.12 203.19,-116.12 203.19,-135.38"/>
<text text-anchor="middle" x="154.31" y="-121.88" font-family="Helvetica,sans-Serif" font-size="10.00">Ark/Constants.hpp</text>
</a>
</g>
</g>
<!-- Node28&#45;&gt;Node29 -->
<g id="edge57" class="edge">
<title>Node28&#45;&gt;Node29</title>
<path fill="none" stroke="#63b8ff" d="M535.27,-231.83C501.7,-222.88 448.93,-208.75 403.31,-196.25 331.03,-176.45 247.1,-152.91 197.47,-138.93"/>
<polygon fill="#63b8ff" stroke="#63b8ff" points="198.55,-135.6 187.98,-136.26 196.65,-142.34 198.55,-135.6"/>
</g>
<!-- Node31 -->
<g id="node31" class="node">
<title>Node31</title>
<g id="a_node31"><a xlink:href="../../d8/dcd/Scope_8hpp.html" target="_top" xlink:title="The virtual machine scope system.">
<polygon fill="white" stroke="#666666" points="510.56,-196.25 412.06,-196.25 412.06,-177 510.56,-177 510.56,-196.25"/>
<text text-anchor="middle" x="461.31" y="-182.75" font-family="Helvetica,sans-Serif" font-size="10.00">Ark/VM/Scope.hpp</text>
</a>
</g>
</g>
<!-- Node28&#45;&gt;Node31 -->
<g id="edge62" class="edge">
<title>Node28&#45;&gt;Node31</title>
<path fill="none" stroke="#63b8ff" d="M550.99,-231.84C534.24,-223.58 509.18,-211.23 489.81,-201.68"/>
<polygon fill="#63b8ff" stroke="#63b8ff" points="491.6,-198.65 481.08,-197.37 488.5,-204.93 491.6,-198.65"/>
</g>
<!-- Node29&#45;&gt;Node7 -->
<g id="edge59" class="edge">
<title>Node29&#45;&gt;Node7</title>
<path fill="none" stroke="#63b8ff" d="M149.61,-115.81C145.33,-107.68 138.87,-95.42 133.43,-85.08"/>
<polygon fill="#63b8ff" stroke="#63b8ff" points="136.53,-83.46 128.77,-76.24 130.33,-86.72 136.53,-83.46"/>
</g>
<!-- Node29&#45;&gt;Node21 -->
<g id="edge58" class="edge">
<title>Node29&#45;&gt;Node21</title>
<path fill="none" stroke="#63b8ff" d="M167.38,-115.81C180.76,-106.64 201.83,-92.22 217.89,-81.23"/>
<polygon fill="#63b8ff" stroke="#63b8ff" points="219.61,-84.29 225.88,-75.76 215.65,-78.52 219.61,-84.29"/>
</g>
<!-- Node30 -->
<g id="node30" class="node">
<title>Node30</title>
<g id="a_node30"><a xlink:title=" ">
<polygon fill="#e0e0e0" stroke="#999999" points="77.44,-74.5 29.19,-74.5 29.19,-55.25 77.44,-55.25 77.44,-74.5"/>
<text text-anchor="middle" x="53.31" y="-61" font-family="Helvetica,sans-Serif" font-size="10.00">cstddef</text>
</a>
</g>
</g>
<!-- Node29&#45;&gt;Node30 -->
<g id="edge60" class="edge">
<title>Node29&#45;&gt;Node30</title>
<path fill="none" stroke="#63b8ff" d="M138.98,-115.81C122.96,-106.47 97.57,-91.67 78.59,-80.61"/>
<polygon fill="#63b8ff" stroke="#63b8ff" points="80.51,-77.68 70.11,-75.66 76.98,-83.72 80.51,-77.68"/>
</g>
<!-- Node31&#45;&gt;Node6 -->
<g id="edge63" class="edge">
<title>Node31&#45;&gt;Node6</title>
<path fill="none" stroke="#63b8ff" d="M467.2,-176.7C478.11,-160.89 503.04,-127.97 532.31,-110.5 585.27,-78.9 608.72,-96.55 666.31,-74.5 684,-67.73 686.24,-60.87 704.31,-55.25 718.48,-50.84 921.65,-24.95 1002.49,-14.75"/>
<polygon fill="#63b8ff" stroke="#63b8ff" points="1002.72,-18.25 1012.21,-13.53 1001.85,-11.3 1002.72,-18.25"/>
</g>
<!-- Node31&#45;&gt;Node7 -->
<g id="edge64" class="edge">
<title>Node31&#45;&gt;Node7</title>
<path fill="none" stroke="#63b8ff" d="M411.73,-177.25C360.06,-168.1 282.86,-153.14 255.31,-141 233.87,-131.55 232.4,-122.56 212.31,-110.5 193.42,-99.15 171.26,-88.03 153.78,-79.74"/>
<polygon fill="#63b8ff" stroke="#63b8ff" points="155.49,-76.67 144.95,-75.6 152.52,-83.01 155.49,-76.67"/>
</g>
<!-- Node31&#45;&gt;Node11 -->
<g id="edge66" class="edge">
<title>Node31&#45;&gt;Node11</title>
<path fill="none" stroke="#63b8ff" d="M491.36,-176.55C524.57,-166.53 578.25,-150.32 615.31,-139.13"/>
<polygon fill="#63b8ff" stroke="#63b8ff" points="616.23,-142.51 624.79,-136.27 614.21,-135.81 616.23,-142.51"/>
</g>
<!-- Node31&#45;&gt;Node16 -->
<g id="edge65" class="edge">
<title>Node31&#45;&gt;Node16</title>
<path fill="none" stroke="#63b8ff" d="M411.77,-178.26C376.14,-171.7 327.66,-160.1 288.31,-141 268.2,-131.24 266.28,-123.81 248.31,-110.5 226.31,-94.2 210.8,-98.87 198.31,-74.5 194.41,-66.89 192.98,-61.93 198.31,-55.25 215.66,-33.53 287.05,-21.6 338.91,-15.66"/>
<polygon fill="#63b8ff" stroke="#63b8ff" points="339.25,-19.15 348.81,-14.58 338.49,-12.19 339.25,-19.15"/>
</g>
<!-- Node32&#45;&gt;Node6 -->
<g id="edge68" class="edge">
<title>Node32&#45;&gt;Node6</title>
<path fill="none" stroke="#63b8ff" d="M997.63,-231.85C1011.54,-208.21 1047.99,-145.99 1049.31,-141 1059.09,-104.16 1055.09,-92.92 1049.31,-55.25 1048.04,-46.93 1045.5,-38.03 1042.93,-30.38"/>
<polygon fill="#63b8ff" stroke="#63b8ff" points="1046.26,-29.29 1039.56,-21.08 1039.68,-31.68 1046.26,-29.29"/>
</g>
<!-- Node32&#45;&gt;Node11 -->
<g id="edge69" class="edge">
<title>Node32&#45;&gt;Node11</title>
<path fill="none" stroke="#63b8ff" d="M965.67,-231.82C906.12,-211.6 762.12,-162.69 693.67,-139.44"/>
<polygon fill="#63b8ff" stroke="#63b8ff" points="694.99,-136.19 684.4,-136.29 692.74,-142.82 694.99,-136.19"/>
</g>
<!-- Node32&#45;&gt;Node22 -->
<g id="edge70" class="edge">
<title>Node32&#45;&gt;Node22</title>
<path fill="none" stroke="#63b8ff" d="M1039.11,-231.78C1086,-222.67 1158.27,-208.62 1208.68,-198.83"/>
<polygon fill="#63b8ff" stroke="#63b8ff" points="1209.08,-202.31 1218.23,-196.97 1207.75,-195.44 1209.08,-202.31"/>
</g>
<!-- Node33&#45;&gt;Node2 -->
<g id="edge74" class="edge">
<title>Node33&#45;&gt;Node2</title>
<path fill="none" stroke="#63b8ff" d="M969.53,-57.97C1061.47,-46.95 1256.89,-23.51 1333.03,-14.38"/>
<polygon fill="#63b8ff" stroke="#63b8ff" points="1333.18,-17.88 1342.69,-13.22 1332.34,-10.93 1333.18,-17.88"/>
</g>
<!-- Node33&#45;&gt;Node16 -->
<g id="edge73" class="edge">
<title>Node33&#45;&gt;Node16</title>
<path fill="none" stroke="#63b8ff" d="M870.98,-56.36C868.05,-55.97 865.14,-55.6 862.31,-55.25 714.53,-37.21 539.7,-22.18 451.79,-15.06"/>
<polygon fill="#63b8ff" stroke="#63b8ff" points="452.24,-11.59 441.99,-14.27 451.68,-18.56 452.24,-11.59"/>
</g>
<!-- Node34 -->
<g id="node34" class="node">
<title>Node34</title>
<g id="a_node34"><a xlink:title=" ">
<polygon fill="#e0e0e0" stroke="#999999" points="956.81,-19.25 883.81,-19.25 883.81,0 956.81,0 956.81,-19.25"/>
<text text-anchor="middle" x="920.31" y="-5.75" font-family="Helvetica,sans-Serif" font-size="10.00">system_error</text>
</a>
</g>
</g>
<!-- Node33&#45;&gt;Node34 -->
<g id="edge75" class="edge">
<title>Node33&#45;&gt;Node34</title>
<path fill="none" stroke="#63b8ff" d="M920.31,-55.08C920.31,-48.57 920.31,-39.42 920.31,-31.12"/>
<polygon fill="#63b8ff" stroke="#63b8ff" points="923.82,-31.12 920.31,-21.12 916.82,-31.12 923.82,-31.12"/>
</g>
<!-- Node35&#45;&gt;Node6 -->
<g id="edge78" class="edge">
<title>Node35&#45;&gt;Node6</title>
<path fill="none" stroke="#63b8ff" d="M781.82,-287.11C819.64,-259.33 934.32,-171.03 1002.31,-74.5 1012.21,-60.45 1021.01,-43.04 1027.02,-29.94"/>
<polygon fill="#63b8ff" stroke="#63b8ff" points="1030.08,-31.69 1030.94,-21.13 1023.68,-28.84 1030.08,-31.69"/>
</g>
<!-- Node35&#45;&gt;Node11 -->
<g id="edge79" class="edge">
<title>Node35&#45;&gt;Node11</title>
<path fill="none" stroke="#63b8ff" d="M763.24,-287.02C745.3,-260.13 692.31,-180.7 668.34,-144.77"/>
<polygon fill="#63b8ff" stroke="#63b8ff" points="671.45,-143.13 662.99,-136.75 665.63,-147.01 671.45,-143.13"/>
</g>
<!-- Node35&#45;&gt;Node28 -->
<g id="edge80" class="edge">
<title>Node35&#45;&gt;Node28</title>
<path fill="none" stroke="#63b8ff" d="M735.39,-287.09C702.06,-278.22 651,-264.62 614.3,-254.85"/>
<polygon fill="#63b8ff" stroke="#63b8ff" points="615.44,-251.53 604.87,-252.34 613.63,-258.3 615.44,-251.53"/>
</g>
<!-- Node36 -->
<g id="node36" class="node">
<title>Node36</title>
<g id="a_node36"><a xlink:title=" ">
<polygon fill="#e0e0e0" stroke="#999999" points="789.69,-251.5 748.94,-251.5 748.94,-232.25 789.69,-232.25 789.69,-251.5"/>
<text text-anchor="middle" x="769.31" y="-238" font-family="Helvetica,sans-Serif" font-size="10.00">future</text>
</a>
</g>
</g>
<!-- Node35&#45;&gt;Node36 -->
<g id="edge77" class="edge">
<title>Node35&#45;&gt;Node36</title>
<path fill="none" stroke="#63b8ff" d="M769.31,-287.33C769.31,-280.82 769.31,-271.67 769.31,-263.37"/>
<polygon fill="#63b8ff" stroke="#63b8ff" points="772.82,-263.37 769.31,-253.37 765.82,-263.37 772.82,-263.37"/>
</g>
</g>
</svg>
