<?xml version="1.0" encoding="UTF-8" standalone="no"?>
<!DOCTYPE svg PUBLIC "-//W3C//DTD SVG 1.1//EN"
 "http://www.w3.org/Graphics/SVG/1.1/DTD/svg11.dtd">
<!-- Generated by graphviz version 2.49.0 (20210828.1703)
 -->
<!-- Title: C:/Users/folae/Documents/Code/Big&#45;Projects/ArkScript/Ark/include/Ark/Compiler/ValTableElem.hpp Pages: 1 -->
<svg width="488pt" height="218pt"
 viewBox="0.00 0.00 487.50 218.00" xmlns="http://www.w3.org/2000/svg" xmlns:xlink="http://www.w3.org/1999/xlink">
<g id="graph0" class="graph" transform="scale(1 1) rotate(0) translate(4 214)">
<title>C:/Users/folae/Documents/Code/Big&#45;Projects/ArkScript/Ark/include/Ark/Compiler/ValTableElem.hpp</title>
<polygon fill="white" stroke="transparent" points="-4,4 -4,-214 483.5,-214 483.5,4 -4,4"/>
<!-- Node1 -->
<g id="node1" class="node">
<title>Node1</title>
<g id="a_node1"><a xlink:title="The basic value type handled by the compiler.">
<polygon fill="#bfbfbf" stroke="black" points="0,-168.5 0,-209.5 209,-209.5 209,-168.5 0,-168.5"/>
<text text-anchor="start" x="8" y="-197.5" font-family="Helvetica,sans-Serif" font-size="10.00">C:/Users/folae/Documents</text>
<text text-anchor="start" x="8" y="-186.5" font-family="Helvetica,sans-Serif" font-size="10.00">/Code/Big&#45;Projects/ArkScript</text>
<text text-anchor="middle" x="104.5" y="-175.5" font-family="Helvetica,sans-Serif" font-size="10.00">/Ark/include/Ark/Compiler/ValTableElem.hpp</text>
</a>
</g>
</g>
<!-- Node2 -->
<g id="node2" class="node">
<title>Node2</title>
<g id="a_node2"><a xlink:title=" ">
<polygon fill="white" stroke="#bfbfbf" points="44.5,-56.5 44.5,-75.5 88.5,-75.5 88.5,-56.5 44.5,-56.5"/>
<text text-anchor="middle" x="66.5" y="-63.5" font-family="Helvetica,sans-Serif" font-size="10.00">variant</text>
</a>
</g>
</g>
<!-- Node1&#45;&gt;Node2 -->
<g id="edge1" class="edge">
<title>Node1&#45;&gt;Node2</title>
<path fill="none" stroke="midnightblue" d="M98.31,-168.29C91.08,-145.27 79.22,-107.5 72.21,-85.17"/>
<polygon fill="midnightblue" stroke="midnightblue" points="75.53,-84.07 69.19,-75.57 68.85,-86.16 75.53,-84.07"/>
</g>
<!-- Node3 -->
<g id="node3" class="node">
<title>Node3</title>
<g id="a_node3"><a xlink:title=" ">
<polygon fill="white" stroke="#bfbfbf" points="107,-56.5 107,-75.5 148,-75.5 148,-56.5 107,-56.5"/>
<text text-anchor="middle" x="127.5" y="-63.5" font-family="Helvetica,sans-Serif" font-size="10.00">string</text>
</a>
</g>
</g>
<!-- Node1&#45;&gt;Node3 -->
<g id="edge2" class="edge">
<title>Node1&#45;&gt;Node3</title>
<path fill="none" stroke="midnightblue" d="M108.25,-168.29C112.6,-145.37 119.74,-107.85 123.99,-85.47"/>
<polygon fill="midnightblue" stroke="midnightblue" points="127.44,-86.05 125.87,-75.57 120.56,-84.75 127.44,-86.05"/>
</g>
<!-- Node4 -->
<g id="node4" class="node">
<title>Node4</title>
<g id="a_node4"><a xlink:href="../../d7/dc6/Node_8hpp.html" target="_top" xlink:title="AST node used by the parser, optimizer and compiler.">
<polygon fill="white" stroke="black" points="133,-112.5 133,-131.5 272,-131.5 272,-112.5 133,-112.5"/>
<text text-anchor="middle" x="202.5" y="-119.5" font-family="Helvetica,sans-Serif" font-size="10.00">Ark/Compiler/AST/Node.hpp</text>
</a>
</g>
</g>
<!-- Node1&#45;&gt;Node4 -->
<g id="edge3" class="edge">
<title>Node1&#45;&gt;Node4</title>
<path fill="none" stroke="midnightblue" d="M133.9,-168.5C149.07,-158.44 167.24,-146.38 181.07,-137.21"/>
<polygon fill="midnightblue" stroke="midnightblue" points="183.06,-140.1 189.45,-131.65 179.19,-134.26 183.06,-140.1"/>
</g>
<!-- Node4&#45;&gt;Node2 -->
<g id="edge4" class="edge">
<title>Node4&#45;&gt;Node2</title>
<path fill="none" stroke="midnightblue" d="M180.95,-112.44C158.47,-103.52 123.01,-89.44 97.52,-79.32"/>
<polygon fill="midnightblue" stroke="midnightblue" points="98.53,-75.95 87.95,-75.52 95.95,-82.46 98.53,-75.95"/>
</g>
<!-- Node4&#45;&gt;Node3 -->
<g id="edge6" class="edge">
<title>Node4&#45;&gt;Node3</title>
<path fill="none" stroke="midnightblue" d="M190.45,-112.32C179.04,-104.11 161.67,-91.6 148.07,-81.81"/>
<polygon fill="midnightblue" stroke="midnightblue" points="149.93,-78.84 139.77,-75.83 145.84,-84.52 149.93,-78.84"/>
</g>
<!-- Node5 -->
<g id="node5" class="node">
<title>Node5</title>
<g id="a_node5"><a xlink:title=" ">
<polygon fill="white" stroke="#bfbfbf" points="166.5,-56.5 166.5,-75.5 218.5,-75.5 218.5,-56.5 166.5,-56.5"/>
<text text-anchor="middle" x="192.5" y="-63.5" font-family="Helvetica,sans-Serif" font-size="10.00">ostream</text>
</a>
</g>
</g>
<!-- Node4&#45;&gt;Node5 -->
<g id="edge5" class="edge">
<title>Node4&#45;&gt;Node5</title>
<path fill="none" stroke="midnightblue" d="M200.85,-112.08C199.52,-104.93 197.62,-94.64 195.96,-85.69"/>
<polygon fill="midnightblue" stroke="midnightblue" points="199.38,-84.95 194.12,-75.75 192.5,-86.22 199.38,-84.95"/>
</g>
<!-- Node6 -->
<g id="node6" class="node">
<title>Node6</title>
<g id="a_node6"><a xlink:title=" ">
<polygon fill="white" stroke="#bfbfbf" points="225.5,-0.5 225.5,-19.5 267.5,-19.5 267.5,-0.5 225.5,-0.5"/>
<text text-anchor="middle" x="246.5" y="-7.5" font-family="Helvetica,sans-Serif" font-size="10.00">vector</text>
</a>
</g>
</g>
<!-- Node4&#45;&gt;Node6 -->
<g id="edge7" class="edge">
<title>Node4&#45;&gt;Node6</title>
<path fill="none" stroke="midnightblue" d="M208.08,-112.33C213.6,-103.47 221.99,-89.19 227.5,-76 233.87,-60.74 238.98,-42.64 242.28,-29.41"/>
<polygon fill="midnightblue" stroke="midnightblue" points="245.7,-30.16 244.63,-19.62 238.9,-28.53 245.7,-30.16"/>
</g>
<!-- Node7 -->
<g id="node7" class="node">
<title>Node7</title>
<g id="a_node7"><a xlink:href="../../d8/ddd/Common_8hpp.html" target="_top" xlink:title="Common code for the compiler.">
<polygon fill="white" stroke="black" points="274.5,-56.5 274.5,-75.5 408.5,-75.5 408.5,-56.5 274.5,-56.5"/>
<text text-anchor="middle" x="341.5" y="-63.5" font-family="Helvetica,sans-Serif" font-size="10.00">Ark/Compiler/Common.hpp</text>
</a>
</g>
</g>
<!-- Node4&#45;&gt;Node7 -->
<g id="edge8" class="edge">
<title>Node4&#45;&gt;Node7</title>
<path fill="none" stroke="midnightblue" d="M224.52,-112.44C247.6,-103.48 284.06,-89.31 310.14,-79.18"/>
<polygon fill="midnightblue" stroke="midnightblue" points="311.52,-82.4 319.58,-75.52 308.99,-75.88 311.52,-82.4"/>
</g>
<!-- Node7&#45;&gt;Node6 -->
<g id="edge11" class="edge">
<title>Node7&#45;&gt;Node6</title>
<path fill="none" stroke="midnightblue" d="M326.24,-56.32C311.28,-47.82 288.25,-34.73 270.77,-24.8"/>
<polygon fill="midnightblue" stroke="midnightblue" points="272.15,-21.55 261.73,-19.65 268.69,-27.64 272.15,-21.55"/>
</g>
<!-- Node8 -->
<g id="node8" class="node">
<title>Node8</title>
<g id="a_node8"><a xlink:title=" ">
<polygon fill="white" stroke="#bfbfbf" points="359.5,-0.5 359.5,-19.5 397.5,-19.5 397.5,-0.5 359.5,-0.5"/>
<text text-anchor="middle" x="378.5" y="-7.5" font-family="Helvetica,sans-Serif" font-size="10.00">array</text>
</a>
</g>
</g>
<!-- Node7&#45;&gt;Node8 -->
<g id="edge9" class="edge">
<title>Node7&#45;&gt;Node8</title>
<path fill="none" stroke="midnightblue" d="M347.61,-56.08C352.78,-48.53 360.35,-37.49 366.69,-28.23"/>
<polygon fill="midnightblue" stroke="midnightblue" points="369.74,-29.98 372.5,-19.75 363.96,-26.02 369.74,-29.98"/>
</g>
<!-- Node9 -->
<g id="node9" class="node">
<title>Node9</title>
<g id="a_node9"><a xlink:title=" ">
<polygon fill="white" stroke="#bfbfbf" points="415.5,-0.5 415.5,-19.5 479.5,-19.5 479.5,-0.5 415.5,-0.5"/>
<text text-anchor="middle" x="447.5" y="-7.5" font-family="Helvetica,sans-Serif" font-size="10.00">string_view</text>
</a>
</g>
</g>
<!-- Node7&#45;&gt;Node9 -->
<g id="edge10" class="edge">
<title>Node7&#45;&gt;Node9</title>
<path fill="none" stroke="midnightblue" d="M358.53,-56.32C375.53,-47.66 401.88,-34.24 421.49,-24.25"/>
<polygon fill="midnightblue" stroke="midnightblue" points="423.19,-27.31 430.51,-19.65 420.01,-21.08 423.19,-27.31"/>
</g>
<!-- Node10 -->
<g id="node10" class="node">
<title>Node10</title>
<g id="a_node10"><a xlink:title=" ">
<polygon fill="white" stroke="#bfbfbf" points="285.5,-0.5 285.5,-19.5 341.5,-19.5 341.5,-0.5 285.5,-0.5"/>
<text text-anchor="middle" x="313.5" y="-7.5" font-family="Helvetica,sans-Serif" font-size="10.00">cinttypes</text>
</a>
</g>
</g>
<!-- Node7&#45;&gt;Node10 -->
<g id="edge12" class="edge">
<title>Node7&#45;&gt;Node10</title>
<path fill="none" stroke="midnightblue" d="M336.88,-56.08C333.04,-48.69 327.48,-37.95 322.74,-28.81"/>
<polygon fill="midnightblue" stroke="midnightblue" points="325.75,-27.02 318.04,-19.75 319.53,-30.24 325.75,-27.02"/>
</g>
</g>
</svg>
