<?xml version="1.0" encoding="UTF-8" standalone="no"?>
<!DOCTYPE svg PUBLIC "-//W3C//DTD SVG 1.1//EN"
 "http://www.w3.org/Graphics/SVG/1.1/DTD/svg11.dtd">
<!-- Generated by graphviz version 12.2.0 (20241103.1931)
 -->
<!-- Title: /Users/fola/Documents/ArkScript/Ark/include/Ark/Compiler/Macros/Executor.hpp Pages: 1 -->
<svg width="646pt" height="216pt"
 viewBox="0.00 0.00 646.38 215.50" xmlns="http://www.w3.org/2000/svg" xmlns:xlink="http://www.w3.org/1999/xlink">
<g id="graph0" class="graph" transform="scale(1 1) rotate(0) translate(4 211.5)">
<title>/Users/fola/Documents/ArkScript/Ark/include/Ark/Compiler/Macros/Executor.hpp</title>
<!-- Node1 -->
<g id="Node000001" class="node">
<title>Node1</title>
<g id="a_Node000001"><a xlink:title="The base class for all MacroExecutors.">
<polygon fill="#999999" stroke="#666666" points="211.25,-207.5 40,-207.5 40,-165.75 211.25,-165.75 211.25,-207.5"/>
<text text-anchor="start" x="48" y="-194" font-family="Helvetica,sans-Serif" font-size="10.00">/Users/fola/Documents</text>
<text text-anchor="start" x="48" y="-182.75" font-family="Helvetica,sans-Serif" font-size="10.00">/ArkScript/Ark/include</text>
<text text-anchor="middle" x="125.62" y="-171.5" font-family="Helvetica,sans-Serif" font-size="10.00">/Ark/Compiler/Macros/Executor.hpp</text>
</a>
</g>
</g>
<!-- Node2 -->
<g id="Node000002" class="node">
<title>Node2</title>
<g id="a_Node000002"><a xlink:title=" ">
<polygon fill="#e0e0e0" stroke="#999999" points="66.5,-129.75 16.75,-129.75 16.75,-110.5 66.5,-110.5 66.5,-129.75"/>
<text text-anchor="middle" x="41.62" y="-116.25" font-family="Helvetica,sans-Serif" font-size="10.00">optional</text>
</a>
</g>
</g>
<!-- Node1&#45;&gt;Node2 -->
<g id="edge1_Node000001_Node000002" class="edge">
<title>Node1&#45;&gt;Node2</title>
<g id="a_edge1_Node000001_Node000002"><a xlink:title=" ">
<path fill="none" stroke="#63b8ff" d="M99.51,-165.57C87.59,-156.42 73.67,-145.73 62.46,-137.13"/>
<polygon fill="#63b8ff" stroke="#63b8ff" points="64.7,-134.43 54.64,-131.12 60.44,-139.98 64.7,-134.43"/>
</a>
</g>
</g>
<!-- Node3 -->
<g id="Node000003" class="node">
<title>Node3</title>
<g id="a_Node000003"><a xlink:title=" ">
<polygon fill="#e0e0e0" stroke="#999999" points="167,-129.75 84.25,-129.75 84.25,-110.5 167,-110.5 167,-129.75"/>
<text text-anchor="middle" x="125.62" y="-116.25" font-family="Helvetica,sans-Serif" font-size="10.00">unordered_map</text>
</a>
</g>
</g>
<!-- Node1&#45;&gt;Node3 -->
<g id="edge2_Node000001_Node000003" class="edge">
<title>Node1&#45;&gt;Node3</title>
<g id="a_edge2_Node000001_Node000003"><a xlink:title=" ">
<path fill="none" stroke="#63b8ff" d="M125.62,-165.57C125.62,-157.9 125.62,-149.14 125.62,-141.45"/>
<polygon fill="#63b8ff" stroke="#63b8ff" points="129.13,-141.71 125.63,-131.71 122.13,-141.71 129.13,-141.71"/>
</a>
</g>
</g>
<!-- Node4 -->
<g id="Node000004" class="node">
<title>Node4</title>
<g id="a_Node000004"><a xlink:href="../../d7/dc6/Node_8hpp.html" target="_top" xlink:title="AST node used by the parser, optimizer and compiler.">
<polygon fill="white" stroke="#666666" points="325.88,-129.75 185.38,-129.75 185.38,-110.5 325.88,-110.5 325.88,-129.75"/>
<text text-anchor="middle" x="255.62" y="-116.25" font-family="Helvetica,sans-Serif" font-size="10.00">Ark/Compiler/AST/Node.hpp</text>
</a>
</g>
</g>
<!-- Node1&#45;&gt;Node4 -->
<g id="edge3_Node000001_Node000004" class="edge">
<title>Node1&#45;&gt;Node4</title>
<g id="a_edge3_Node000001_Node000004"><a xlink:title=" ">
<path fill="none" stroke="#63b8ff" d="M166.4,-165.39C186.13,-155.6 209.34,-144.09 227.14,-135.26"/>
<polygon fill="#63b8ff" stroke="#63b8ff" points="228.69,-138.4 236.09,-130.82 225.58,-132.13 228.69,-138.4"/>
</a>
</g>
</g>
<!-- Node5 -->
<g id="Node000005" class="node">
<title>Node5</title>
<g id="a_Node000005"><a xlink:title=" ">
<polygon fill="#e0e0e0" stroke="#999999" points="45.25,-74.5 0,-74.5 0,-55.25 45.25,-55.25 45.25,-74.5"/>
<text text-anchor="middle" x="22.62" y="-61" font-family="Helvetica,sans-Serif" font-size="10.00">variant</text>
</a>
</g>
</g>
<!-- Node4&#45;&gt;Node5 -->
<g id="edge4_Node000004_Node000005" class="edge">
<title>Node4&#45;&gt;Node5</title>
<g id="a_edge4_Node000004_Node000005"><a xlink:title=" ">
<path fill="none" stroke="#63b8ff" d="M211.33,-110.06C172.7,-101.99 114.91,-89.54 56.52,-75.13"/>
<polygon fill="#63b8ff" stroke="#63b8ff" points="57.63,-71.8 47.08,-72.78 55.94,-78.59 57.63,-71.8"/>
</a>
</g>
</g>
<!-- Node6 -->
<g id="Node000006" class="node">
<title>Node6</title>
<g id="a_Node000006"><a xlink:title=" ">
<polygon fill="#e0e0e0" stroke="#999999" points="114.25,-74.5 63,-74.5 63,-55.25 114.25,-55.25 114.25,-74.5"/>
<text text-anchor="middle" x="88.62" y="-61" font-family="Helvetica,sans-Serif" font-size="10.00">ostream</text>
</a>
</g>
</g>
<!-- Node4&#45;&gt;Node6 -->
<g id="edge5_Node000004_Node000006" class="edge">
<title>Node4&#45;&gt;Node6</title>
<g id="a_edge5_Node000004_Node000006"><a xlink:title=" ">
<path fill="none" stroke="#63b8ff" d="M227.3,-110.09C199.2,-101.13 156.02,-87.36 125.31,-77.57"/>
<polygon fill="#63b8ff" stroke="#63b8ff" points="126.65,-74.33 116.06,-74.62 124.52,-81 126.65,-74.33"/>
</a>
</g>
</g>
<!-- Node7 -->
<g id="Node000007" class="node">
<title>Node7</title>
<g id="a_Node000007"><a xlink:title=" ">
<polygon fill="#e0e0e0" stroke="#999999" points="187.62,-19.25 147.62,-19.25 147.62,0 187.62,0 187.62,-19.25"/>
<text text-anchor="middle" x="167.62" y="-5.75" font-family="Helvetica,sans-Serif" font-size="10.00">string</text>
</a>
</g>
</g>
<!-- Node4&#45;&gt;Node7 -->
<g id="edge6_Node000004_Node000007" class="edge">
<title>Node4&#45;&gt;Node7</title>
<g id="a_edge6_Node000004_Node000007"><a xlink:title=" ">
<path fill="none" stroke="#63b8ff" d="M213.55,-110.07C194.23,-103.59 173.11,-92.67 161.62,-74.5 153.34,-61.39 155.84,-43.65 159.85,-30.19"/>
<polygon fill="#63b8ff" stroke="#63b8ff" points="163.02,-31.71 163.02,-21.12 156.41,-29.4 163.02,-31.71"/>
</a>
</g>
</g>
<!-- Node8 -->
<g id="Node000008" class="node">
<title>Node8</title>
<g id="a_Node000008"><a xlink:title=" ">
<polygon fill="#e0e0e0" stroke="#999999" points="373.12,-19.25 330.12,-19.25 330.12,0 373.12,0 373.12,-19.25"/>
<text text-anchor="middle" x="351.62" y="-5.75" font-family="Helvetica,sans-Serif" font-size="10.00">vector</text>
</a>
</g>
</g>
<!-- Node4&#45;&gt;Node8 -->
<g id="edge7_Node000004_Node000008" class="edge">
<title>Node4&#45;&gt;Node8</title>
<g id="a_edge7_Node000004_Node000008"><a xlink:title=" ">
<path fill="none" stroke="#63b8ff" d="M296.98,-110.08C316.36,-103.58 337.76,-92.64 349.62,-74.5 358.09,-61.56 357.93,-43.79 356.03,-30.27"/>
<polygon fill="#63b8ff" stroke="#63b8ff" points="359.54,-29.99 354.27,-20.8 352.66,-31.28 359.54,-29.99"/>
</a>
</g>
</g>
<!-- Node9 -->
<g id="Node000009" class="node">
<title>Node9</title>
<g id="a_Node000009"><a xlink:href="../../da/d33/Namespace_8hpp.html" target="_top" xlink:title=" ">
<polygon fill="white" stroke="#666666" points="340.5,-74.5 170.75,-74.5 170.75,-55.25 340.5,-55.25 340.5,-74.5"/>
<text text-anchor="middle" x="255.62" y="-61" font-family="Helvetica,sans-Serif" font-size="10.00">Ark/Compiler/AST/Namespace.hpp</text>
</a>
</g>
</g>
<!-- Node4&#45;&gt;Node9 -->
<g id="edge8_Node000004_Node000009" class="edge">
<title>Node4&#45;&gt;Node9</title>
<g id="a_edge8_Node000004_Node000009"><a xlink:title=" ">
<path fill="none" stroke="#63b8ff" d="M255.62,-110.33C255.62,-103.82 255.62,-94.67 255.62,-86.37"/>
<polygon fill="#63b8ff" stroke="#63b8ff" points="259.13,-86.37 255.63,-76.37 252.13,-86.37 259.13,-86.37"/>
</a>
</g>
</g>
<!-- Node11 -->
<g id="Node000011" class="node">
<title>Node11</title>
<g id="a_Node000011"><a xlink:href="../../d8/ddd/Common_8hpp.html" target="_top" xlink:title="Common code for the compiler.">
<polygon fill="white" stroke="#666666" points="530.88,-74.5 396.38,-74.5 396.38,-55.25 530.88,-55.25 530.88,-74.5"/>
<text text-anchor="middle" x="463.62" y="-61" font-family="Helvetica,sans-Serif" font-size="10.00">Ark/Compiler/Common.hpp</text>
</a>
</g>
</g>
<!-- Node4&#45;&gt;Node11 -->
<g id="edge12_Node000004_Node000011" class="edge">
<title>Node4&#45;&gt;Node11</title>
<g id="a_edge12_Node000004_Node000011"><a xlink:title=" ">
<path fill="none" stroke="#63b8ff" d="M290.91,-110.09C325.72,-101.18 379.13,-87.51 417.33,-77.73"/>
<polygon fill="#63b8ff" stroke="#63b8ff" points="417.88,-81.2 426.7,-75.33 416.15,-74.42 417.88,-81.2"/>
</a>
</g>
</g>
<!-- Node15 -->
<g id="Node000015" class="node">
<title>Node15</title>
<g id="a_Node000015"><a xlink:href="../../d5/d40/Platform_8hpp.html" target="_top" xlink:title="ArkScript configuration macros.">
<polygon fill="white" stroke="#666666" points="638.38,-74.5 548.88,-74.5 548.88,-55.25 638.38,-55.25 638.38,-74.5"/>
<text text-anchor="middle" x="593.62" y="-61" font-family="Helvetica,sans-Serif" font-size="10.00">Ark/Platform.hpp</text>
</a>
</g>
</g>
<!-- Node4&#45;&gt;Node15 -->
<g id="edge17_Node000004_Node000015" class="edge">
<title>Node4&#45;&gt;Node15</title>
<g id="a_edge17_Node000004_Node000015"><a xlink:title=" ">
<path fill="none" stroke="#63b8ff" d="M313.83,-110.02C368.78,-101.42 453.8,-88.09 537.31,-74.86"/>
<polygon fill="#63b8ff" stroke="#63b8ff" points="537.72,-78.34 547.05,-73.32 536.63,-71.43 537.72,-78.34"/>
</a>
</g>
</g>
<!-- Node9&#45;&gt;Node7 -->
<g id="edge9_Node000009_Node000007" class="edge">
<title>Node9&#45;&gt;Node7</title>
<g id="a_edge9_Node000009_Node000007"><a xlink:title=" ">
<path fill="none" stroke="#63b8ff" d="M240.7,-54.84C227.42,-46.81 207.76,-34.91 192.17,-25.48"/>
<polygon fill="#63b8ff" stroke="#63b8ff" points="194.29,-22.67 183.92,-20.49 190.66,-28.66 194.29,-22.67"/>
</a>
</g>
</g>
<!-- Node9&#45;&gt;Node8 -->
<g id="edge10_Node000009_Node000008" class="edge">
<title>Node9&#45;&gt;Node8</title>
<g id="a_edge10_Node000009_Node000008"><a xlink:title=" ">
<path fill="none" stroke="#63b8ff" d="M271.91,-54.84C286.53,-46.73 308.25,-34.68 325.33,-25.21"/>
<polygon fill="#63b8ff" stroke="#63b8ff" points="326.89,-28.35 333.94,-20.44 323.49,-22.23 326.89,-28.35"/>
</a>
</g>
</g>
<!-- Node10 -->
<g id="Node000010" class="node">
<title>Node10</title>
<g id="a_Node000010"><a xlink:title=" ">
<polygon fill="#e0e0e0" stroke="#999999" points="281.25,-19.25 230,-19.25 230,0 281.25,0 281.25,-19.25"/>
<text text-anchor="middle" x="255.62" y="-5.75" font-family="Helvetica,sans-Serif" font-size="10.00">memory</text>
</a>
</g>
</g>
<!-- Node9&#45;&gt;Node10 -->
<g id="edge11_Node000009_Node000010" class="edge">
<title>Node9&#45;&gt;Node10</title>
<g id="a_edge11_Node000009_Node000010"><a xlink:title=" ">
<path fill="none" stroke="#63b8ff" d="M255.62,-55.08C255.62,-48.57 255.62,-39.42 255.62,-31.12"/>
<polygon fill="#63b8ff" stroke="#63b8ff" points="259.13,-31.12 255.63,-21.12 252.13,-31.12 259.13,-31.12"/>
</a>
</g>
</g>
<!-- Node11&#45;&gt;Node8 -->
<g id="edge15_Node000011_Node000008" class="edge">
<title>Node11&#45;&gt;Node8</title>
<g id="a_edge15_Node000011_Node000008"><a xlink:title=" ">
<path fill="none" stroke="#63b8ff" d="M444.63,-54.84C427.17,-46.54 401.03,-34.11 380.9,-24.54"/>
<polygon fill="#63b8ff" stroke="#63b8ff" points="382.62,-21.49 372.08,-20.35 379.61,-27.81 382.62,-21.49"/>
</a>
</g>
</g>
<!-- Node12 -->
<g id="Node000012" class="node">
<title>Node12</title>
<g id="a_Node000012"><a xlink:title=" ">
<polygon fill="#e0e0e0" stroke="#999999" points="428.5,-19.25 390.75,-19.25 390.75,0 428.5,0 428.5,-19.25"/>
<text text-anchor="middle" x="409.62" y="-5.75" font-family="Helvetica,sans-Serif" font-size="10.00">array</text>
</a>
</g>
</g>
<!-- Node11&#45;&gt;Node12 -->
<g id="edge13_Node000011_Node000012" class="edge">
<title>Node11&#45;&gt;Node12</title>
<g id="a_edge13_Node000011_Node000012"><a xlink:title=" ">
<path fill="none" stroke="#63b8ff" d="M454.71,-55.08C447.17,-47.65 436.16,-36.79 426.9,-27.66"/>
<polygon fill="#63b8ff" stroke="#63b8ff" points="429.39,-25.2 419.81,-20.67 424.48,-30.19 429.39,-25.2"/>
</a>
</g>
</g>
<!-- Node13 -->
<g id="Node000013" class="node">
<title>Node13</title>
<g id="a_Node000013"><a xlink:title=" ">
<polygon fill="#e0e0e0" stroke="#999999" points="512.38,-19.25 446.88,-19.25 446.88,0 512.38,0 512.38,-19.25"/>
<text text-anchor="middle" x="479.62" y="-5.75" font-family="Helvetica,sans-Serif" font-size="10.00">string_view</text>
</a>
</g>
</g>
<!-- Node11&#45;&gt;Node13 -->
<g id="edge14_Node000011_Node000013" class="edge">
<title>Node11&#45;&gt;Node13</title>
<g id="a_edge14_Node000011_Node000013"><a xlink:title=" ">
<path fill="none" stroke="#63b8ff" d="M466.27,-55.08C468.27,-48.42 471.1,-38.99 473.64,-30.53"/>
<polygon fill="#63b8ff" stroke="#63b8ff" points="476.96,-31.64 476.49,-21.06 470.26,-29.63 476.96,-31.64"/>
</a>
</g>
</g>
<!-- Node14 -->
<g id="Node000014" class="node">
<title>Node14</title>
<g id="a_Node000014"><a xlink:title=" ">
<polygon fill="#e0e0e0" stroke="#999999" points="586.5,-19.25 530.75,-19.25 530.75,0 586.5,0 586.5,-19.25"/>
<text text-anchor="middle" x="558.62" y="-5.75" font-family="Helvetica,sans-Serif" font-size="10.00">cinttypes</text>
</a>
</g>
</g>
<!-- Node11&#45;&gt;Node14 -->
<g id="edge16_Node000011_Node000014" class="edge">
<title>Node11&#45;&gt;Node14</title>
<g id="a_edge16_Node000011_Node000014"><a xlink:title=" ">
<path fill="none" stroke="#63b8ff" d="M479.74,-54.84C494.21,-46.73 515.7,-34.68 532.61,-25.21"/>
<polygon fill="#63b8ff" stroke="#63b8ff" points="534.1,-28.39 541.11,-20.44 530.68,-22.28 534.1,-28.39"/>
</a>
</g>
</g>
</g>
</svg>
