<?xml version="1.0" encoding="UTF-8" standalone="no"?>
<!DOCTYPE svg PUBLIC "-//W3C//DTD SVG 1.1//EN"
 "http://www.w3.org/Graphics/SVG/1.1/DTD/svg11.dtd">
<!-- Generated by graphviz version 2.43.0 (0)
 -->
<!-- Title: /home/fola/code/Ark/include/Ark/Compiler/Macros/Executor.hpp Pages: 1 -->
<svg width="998pt" height="284pt"
 viewBox="0.00 0.00 998.00 284.00" xmlns="http://www.w3.org/2000/svg" xmlns:xlink="http://www.w3.org/1999/xlink">
<g id="graph0" class="graph" transform="scale(1 1) rotate(0) translate(4 280)">
<title>/home/fola/code/Ark/include/Ark/Compiler/Macros/Executor.hpp</title>
<polygon fill="white" stroke="transparent" points="-4,4 -4,-280 994,-280 994,4 -4,4"/>
<!-- Node1 -->
<g id="node1" class="node">
<title>Node1</title>
<g id="a_node1"><a xlink:title="The base class for all MacroExecutors.">
<polygon fill="#bfbfbf" stroke="black" points="538,-234.5 538,-275.5 660,-275.5 660,-234.5 538,-234.5"/>
<text text-anchor="start" x="546" y="-263.5" font-family="Helvetica,sans-Serif" font-size="10.00">/home/fola/code/Ark</text>
<text text-anchor="start" x="546" y="-252.5" font-family="Helvetica,sans-Serif" font-size="10.00">/include/Ark/Compiler</text>
<text text-anchor="middle" x="599" y="-241.5" font-family="Helvetica,sans-Serif" font-size="10.00">/Macros/Executor.hpp</text>
</a>
</g>
</g>
<!-- Node2 -->
<g id="node2" class="node">
<title>Node2</title>
<g id="a_node2"><a xlink:href="../../da/dc2/Conditional_8hpp.html" target="_top" xlink:title="Executor for Conditional Macros.">
<polygon fill="white" stroke="black" points="93.5,-156.5 93.5,-197.5 278.5,-197.5 278.5,-156.5 93.5,-156.5"/>
<text text-anchor="start" x="101.5" y="-185.5" font-family="Helvetica,sans-Serif" font-size="10.00">/home/fola/code/Ark</text>
<text text-anchor="start" x="101.5" y="-174.5" font-family="Helvetica,sans-Serif" font-size="10.00">/include/Ark/Compiler</text>
<text text-anchor="middle" x="186" y="-163.5" font-family="Helvetica,sans-Serif" font-size="10.00">/Macros/Executors/Conditional.hpp</text>
</a>
</g>
</g>
<!-- Node1&#45;&gt;Node2 -->
<g id="edge1" class="edge">
<title>Node1&#45;&gt;Node2</title>
<path fill="none" stroke="midnightblue" d="M527.64,-241.47C464.56,-230.32 370.1,-213.44 288,-198 284.9,-197.42 281.74,-196.82 278.55,-196.21"/>
<polygon fill="midnightblue" stroke="midnightblue" points="527.42,-244.99 537.87,-243.28 528.63,-238.1 527.42,-244.99"/>
</g>
<!-- Node5 -->
<g id="node5" class="node">
<title>Node5</title>
<g id="a_node5"><a xlink:href="../../d2/d37/List_8hpp.html" target="_top" xlink:title="Executor for List Macros.">
<polygon fill="white" stroke="black" points="297,-156.5 297,-197.5 443,-197.5 443,-156.5 297,-156.5"/>
<text text-anchor="start" x="305" y="-185.5" font-family="Helvetica,sans-Serif" font-size="10.00">/home/fola/code/Ark</text>
<text text-anchor="start" x="305" y="-174.5" font-family="Helvetica,sans-Serif" font-size="10.00">/include/Ark/Compiler</text>
<text text-anchor="middle" x="370" y="-163.5" font-family="Helvetica,sans-Serif" font-size="10.00">/Macros/Executors/List.hpp</text>
</a>
</g>
</g>
<!-- Node1&#45;&gt;Node5 -->
<g id="edge4" class="edge">
<title>Node1&#45;&gt;Node5</title>
<path fill="none" stroke="midnightblue" d="M530.2,-231.17C497.87,-220.44 459.73,-207.78 428.77,-197.51"/>
<polygon fill="midnightblue" stroke="midnightblue" points="529.43,-234.6 540.03,-234.43 531.64,-227.96 529.43,-234.6"/>
</g>
<!-- Node7 -->
<g id="node7" class="node">
<title>Node7</title>
<g id="a_node7"><a xlink:href="../../dc/dce/Symbol_8hpp.html" target="_top" xlink:title="Executor for Symbol Macros.">
<polygon fill="white" stroke="black" points="461,-156.5 461,-197.5 627,-197.5 627,-156.5 461,-156.5"/>
<text text-anchor="start" x="469" y="-185.5" font-family="Helvetica,sans-Serif" font-size="10.00">/home/fola/code/Ark</text>
<text text-anchor="start" x="469" y="-174.5" font-family="Helvetica,sans-Serif" font-size="10.00">/include/Ark/Compiler</text>
<text text-anchor="middle" x="544" y="-163.5" font-family="Helvetica,sans-Serif" font-size="10.00">/Macros/Executors/Symbol.hpp</text>
</a>
</g>
</g>
<!-- Node1&#45;&gt;Node7 -->
<g id="edge7" class="edge">
<title>Node1&#45;&gt;Node7</title>
<path fill="none" stroke="midnightblue" d="M578.77,-226.05C571.91,-216.57 564.4,-206.18 558.12,-197.51"/>
<polygon fill="midnightblue" stroke="midnightblue" points="576.14,-228.38 584.84,-234.43 581.81,-224.27 576.14,-228.38"/>
</g>
<!-- Node9 -->
<g id="node9" class="node">
<title>Node9</title>
<g id="a_node9"><a xlink:href="../../d4/daa/Pipeline_8hpp.html" target="_top" xlink:title="The Chain of Responsibility class for running nodes through MacroExecutors.">
<polygon fill="white" stroke="black" points="683,-156.5 683,-197.5 805,-197.5 805,-156.5 683,-156.5"/>
<text text-anchor="start" x="691" y="-185.5" font-family="Helvetica,sans-Serif" font-size="10.00">/home/fola/code/Ark</text>
<text text-anchor="start" x="691" y="-174.5" font-family="Helvetica,sans-Serif" font-size="10.00">/include/Ark/Compiler</text>
<text text-anchor="middle" x="744" y="-163.5" font-family="Helvetica,sans-Serif" font-size="10.00">/Macros/Pipeline.hpp</text>
</a>
</g>
</g>
<!-- Node1&#45;&gt;Node9 -->
<g id="edge10" class="edge">
<title>Node1&#45;&gt;Node9</title>
<path fill="none" stroke="midnightblue" d="M645.23,-229.77C665.11,-219.35 688.03,-207.34 706.79,-197.51"/>
<polygon fill="midnightblue" stroke="midnightblue" points="643.57,-226.69 636.34,-234.43 646.82,-232.89 643.57,-226.69"/>
</g>
<!-- Node10 -->
<g id="node10" class="node">
<title>Node10</title>
<g id="a_node10"><a xlink:href="../../de/db1/Processor_8hpp.html" target="_top" xlink:title="Handles the macros and their expansion in ArkScript source code.">
<polygon fill="white" stroke="black" points="663.5,-78.5 663.5,-119.5 788.5,-119.5 788.5,-78.5 663.5,-78.5"/>
<text text-anchor="start" x="671.5" y="-107.5" font-family="Helvetica,sans-Serif" font-size="10.00">/home/fola/code/Ark</text>
<text text-anchor="start" x="671.5" y="-96.5" font-family="Helvetica,sans-Serif" font-size="10.00">/include/Ark/Compiler</text>
<text text-anchor="middle" x="726" y="-85.5" font-family="Helvetica,sans-Serif" font-size="10.00">/Macros/Processor.hpp</text>
</a>
</g>
</g>
<!-- Node1&#45;&gt;Node10 -->
<g id="edge16" class="edge">
<title>Node1&#45;&gt;Node10</title>
<path fill="none" stroke="midnightblue" d="M619.25,-226.1C633.97,-206.18 654.62,-178.97 674,-156 684.52,-143.53 696.94,-130.11 707,-119.54"/>
<polygon fill="midnightblue" stroke="midnightblue" points="616.23,-224.29 613.13,-234.42 621.87,-228.44 616.23,-224.29"/>
</g>
<!-- Node12 -->
<g id="node12" class="node">
<title>Node12</title>
<g id="a_node12"><a xlink:href="../../d1/da9/Executor_8cpp.html" target="_top" xlink:title=" ">
<polygon fill="white" stroke="black" points="856,-0.5 856,-41.5 990,-41.5 990,-0.5 856,-0.5"/>
<text text-anchor="start" x="864" y="-29.5" font-family="Helvetica,sans-Serif" font-size="10.00">/home/fola/code/Ark</text>
<text text-anchor="start" x="864" y="-18.5" font-family="Helvetica,sans-Serif" font-size="10.00">/src/arkreactor/Compiler</text>
<text text-anchor="middle" x="923" y="-7.5" font-family="Helvetica,sans-Serif" font-size="10.00">/Macros/Executor.cpp</text>
</a>
</g>
</g>
<!-- Node1&#45;&gt;Node12 -->
<g id="edge17" class="edge">
<title>Node1&#45;&gt;Node12</title>
<path fill="none" stroke="midnightblue" d="M670.47,-251.45C755.8,-243.97 894,-216.68 950,-120 964.42,-95.11 949.53,-62.18 936.81,-41.55"/>
<polygon fill="midnightblue" stroke="midnightblue" points="670.02,-247.97 660.34,-252.27 670.59,-254.95 670.02,-247.97"/>
</g>
<!-- Node3 -->
<g id="node3" class="node">
<title>Node3</title>
<g id="a_node3"><a xlink:href="../../de/d04/Conditional_8cpp.html" target="_top" xlink:title=" ">
<polygon fill="white" stroke="black" points="0,-78.5 0,-119.5 184,-119.5 184,-78.5 0,-78.5"/>
<text text-anchor="start" x="8" y="-107.5" font-family="Helvetica,sans-Serif" font-size="10.00">/home/fola/code/Ark</text>
<text text-anchor="start" x="8" y="-96.5" font-family="Helvetica,sans-Serif" font-size="10.00">/src/arkreactor/Compiler</text>
<text text-anchor="middle" x="92" y="-85.5" font-family="Helvetica,sans-Serif" font-size="10.00">/Macros/Executors/Conditional.cpp</text>
</a>
</g>
</g>
<!-- Node2&#45;&gt;Node3 -->
<g id="edge2" class="edge">
<title>Node2&#45;&gt;Node3</title>
<path fill="none" stroke="midnightblue" d="M153.92,-150.06C141.54,-140.06 127.63,-128.8 116.13,-119.51"/>
<polygon fill="midnightblue" stroke="midnightblue" points="151.82,-152.86 161.79,-156.43 156.22,-147.42 151.82,-152.86"/>
</g>
<!-- Node4 -->
<g id="node4" class="node">
<title>Node4</title>
<g id="a_node4"><a xlink:href="../../d6/d69/Processor_8cpp.html" target="_top" xlink:title=" ">
<polygon fill="white" stroke="black" points="284,-0.5 284,-41.5 418,-41.5 418,-0.5 284,-0.5"/>
<text text-anchor="start" x="292" y="-29.5" font-family="Helvetica,sans-Serif" font-size="10.00">/home/fola/code/Ark</text>
<text text-anchor="start" x="292" y="-18.5" font-family="Helvetica,sans-Serif" font-size="10.00">/src/arkreactor/Compiler</text>
<text text-anchor="middle" x="351" y="-7.5" font-family="Helvetica,sans-Serif" font-size="10.00">/Macros/Processor.cpp</text>
</a>
</g>
</g>
<!-- Node2&#45;&gt;Node4 -->
<g id="edge3" class="edge">
<title>Node2&#45;&gt;Node4</title>
<path fill="none" stroke="midnightblue" d="M202.86,-147.73C216.28,-126.81 236.49,-98.5 259,-78 274.62,-63.77 294.38,-51.2 311.57,-41.58"/>
<polygon fill="midnightblue" stroke="midnightblue" points="199.9,-145.87 197.54,-156.2 205.82,-149.6 199.9,-145.87"/>
</g>
<!-- Node5&#45;&gt;Node4 -->
<g id="edge6" class="edge">
<title>Node5&#45;&gt;Node4</title>
<path fill="none" stroke="midnightblue" d="M302.25,-151.57C289,-143.59 276.8,-133.25 269,-120 259.53,-103.92 260.28,-94.51 269,-78 277.21,-62.45 291.9,-50.4 306.59,-41.53"/>
<polygon fill="midnightblue" stroke="midnightblue" points="300.64,-154.68 311.08,-156.48 304.04,-148.56 300.64,-154.68"/>
</g>
<!-- Node6 -->
<g id="node6" class="node">
<title>Node6</title>
<g id="a_node6"><a xlink:href="../../d6/df2/List_8cpp.html" target="_top" xlink:title=" ">
<polygon fill="white" stroke="black" points="278,-78.5 278,-119.5 424,-119.5 424,-78.5 278,-78.5"/>
<text text-anchor="start" x="286" y="-107.5" font-family="Helvetica,sans-Serif" font-size="10.00">/home/fola/code/Ark</text>
<text text-anchor="start" x="286" y="-96.5" font-family="Helvetica,sans-Serif" font-size="10.00">/src/arkreactor/Compiler</text>
<text text-anchor="middle" x="351" y="-85.5" font-family="Helvetica,sans-Serif" font-size="10.00">/Macros/Executors/List.cpp</text>
</a>
</g>
</g>
<!-- Node5&#45;&gt;Node6 -->
<g id="edge5" class="edge">
<title>Node5&#45;&gt;Node6</title>
<path fill="none" stroke="midnightblue" d="M362.65,-146.59C360.38,-137.51 357.94,-127.74 355.88,-119.51"/>
<polygon fill="midnightblue" stroke="midnightblue" points="359.29,-147.58 365.11,-156.43 366.08,-145.88 359.29,-147.58"/>
</g>
<!-- Node7&#45;&gt;Node4 -->
<g id="edge9" class="edge">
<title>Node7&#45;&gt;Node4</title>
<path fill="none" stroke="midnightblue" d="M507.87,-150.32C495.77,-141.2 482.45,-130.56 471,-120 452.49,-102.94 451.97,-94.55 433,-78 417.67,-64.63 399.05,-51.69 383.43,-41.62"/>
<polygon fill="midnightblue" stroke="midnightblue" points="505.9,-153.22 516.01,-156.38 510.08,-147.6 505.9,-153.22"/>
</g>
<!-- Node8 -->
<g id="node8" class="node">
<title>Node8</title>
<g id="a_node8"><a xlink:href="../../d8/d0b/Symbol_8cpp.html" target="_top" xlink:title=" ">
<polygon fill="white" stroke="black" points="480.5,-78.5 480.5,-119.5 645.5,-119.5 645.5,-78.5 480.5,-78.5"/>
<text text-anchor="start" x="488.5" y="-107.5" font-family="Helvetica,sans-Serif" font-size="10.00">/home/fola/code/Ark</text>
<text text-anchor="start" x="488.5" y="-96.5" font-family="Helvetica,sans-Serif" font-size="10.00">/src/arkreactor/Compiler</text>
<text text-anchor="middle" x="563" y="-85.5" font-family="Helvetica,sans-Serif" font-size="10.00">/Macros/Executors/Symbol.cpp</text>
</a>
</g>
</g>
<!-- Node7&#45;&gt;Node8 -->
<g id="edge8" class="edge">
<title>Node7&#45;&gt;Node8</title>
<path fill="none" stroke="midnightblue" d="M551.35,-146.59C553.62,-137.51 556.06,-127.74 558.12,-119.51"/>
<polygon fill="midnightblue" stroke="midnightblue" points="547.92,-145.88 548.89,-156.43 554.71,-147.58 547.92,-145.88"/>
</g>
<!-- Node9&#45;&gt;Node10 -->
<g id="edge11" class="edge">
<title>Node9&#45;&gt;Node10</title>
<path fill="none" stroke="midnightblue" d="M737.03,-146.59C734.88,-137.51 732.57,-127.74 730.62,-119.51"/>
<polygon fill="midnightblue" stroke="midnightblue" points="733.65,-147.5 739.36,-156.43 740.47,-145.89 733.65,-147.5"/>
</g>
<!-- Node13 -->
<g id="node13" class="node">
<title>Node13</title>
<g id="a_node13"><a xlink:href="../../dd/d19/Pipeline_8cpp.html" target="_top" xlink:title=" ">
<polygon fill="white" stroke="black" points="807,-78.5 807,-119.5 941,-119.5 941,-78.5 807,-78.5"/>
<text text-anchor="start" x="815" y="-107.5" font-family="Helvetica,sans-Serif" font-size="10.00">/home/fola/code/Ark</text>
<text text-anchor="start" x="815" y="-96.5" font-family="Helvetica,sans-Serif" font-size="10.00">/src/arkreactor/Compiler</text>
<text text-anchor="middle" x="874" y="-85.5" font-family="Helvetica,sans-Serif" font-size="10.00">/Macros/Pipeline.cpp</text>
</a>
</g>
</g>
<!-- Node9&#45;&gt;Node13 -->
<g id="edge15" class="edge">
<title>Node9&#45;&gt;Node13</title>
<path fill="none" stroke="midnightblue" d="M786.42,-151.2C804.01,-140.92 824.12,-129.16 840.64,-119.51"/>
<polygon fill="midnightblue" stroke="midnightblue" points="784.34,-148.36 777.48,-156.43 787.88,-154.4 784.34,-148.36"/>
</g>
<!-- Node10&#45;&gt;Node4 -->
<g id="edge14" class="edge">
<title>Node10&#45;&gt;Node4</title>
<path fill="none" stroke="midnightblue" d="M653.51,-77.98C566.74,-58.22 477.55,-42.49 418.15,-32.66"/>
<polygon fill="midnightblue" stroke="midnightblue" points="652.72,-81.39 663.25,-80.22 654.29,-74.57 652.72,-81.39"/>
</g>
<!-- Node11 -->
<g id="node11" class="node">
<title>Node11</title>
<g id="a_node11"><a xlink:href="../../de/dfa/Compiler_8cpp.html" target="_top" xlink:title=" ">
<polygon fill="white" stroke="black" points="659,-0.5 659,-41.5 793,-41.5 793,-0.5 659,-0.5"/>
<text text-anchor="start" x="667" y="-29.5" font-family="Helvetica,sans-Serif" font-size="10.00">/home/fola/code/Ark</text>
<text text-anchor="start" x="667" y="-18.5" font-family="Helvetica,sans-Serif" font-size="10.00">/src/arkreactor/Compiler</text>
<text text-anchor="middle" x="726" y="-7.5" font-family="Helvetica,sans-Serif" font-size="10.00">/Compiler.cpp</text>
</a>
</g>
</g>
<!-- Node10&#45;&gt;Node11 -->
<g id="edge12" class="edge">
<title>Node10&#45;&gt;Node11</title>
<path fill="none" stroke="midnightblue" d="M726,-68.3C726,-59.3 726,-49.65 726,-41.51"/>
<polygon fill="midnightblue" stroke="midnightblue" points="722.5,-68.43 726,-78.43 729.5,-68.43 722.5,-68.43"/>
</g>
<!-- Node10&#45;&gt;Node12 -->
<g id="edge13" class="edge">
<title>Node10&#45;&gt;Node12</title>
<path fill="none" stroke="midnightblue" d="M786.27,-74.75C813.85,-64.11 846.16,-51.65 872.44,-41.51"/>
<polygon fill="midnightblue" stroke="midnightblue" points="784.8,-71.56 776.73,-78.43 787.32,-78.09 784.8,-71.56"/>
</g>
</g>
</svg>
