<?xml version="1.0" encoding="UTF-8" standalone="no"?>
<!DOCTYPE svg PUBLIC "-//W3C//DTD SVG 1.1//EN"
 "http://www.w3.org/Graphics/SVG/1.1/DTD/svg11.dtd">
<!-- Generated by graphviz version 12.1.1 (20240910.0053)
 -->
<!-- Title: /Users/fola/Documents/ArkScript/Ark/include/Ark/VM/ExecutionContext.hpp Pages: 1 -->
<svg width="730pt" height="271pt"
 viewBox="0.00 0.00 729.90 270.75" xmlns="http://www.w3.org/2000/svg" xmlns:xlink="http://www.w3.org/1999/xlink">
<g id="graph0" class="graph" transform="scale(1 1) rotate(0) translate(4 266.75)">
<title>/Users/fola/Documents/ArkScript/Ark/include/Ark/VM/ExecutionContext.hpp</title>
<!-- Node1 -->
<g id="Node000001" class="node">
<title>Node1</title>
<g id="a_Node000001"><a xlink:title="Keeping track of the internal data needed by the VM.">
<polygon fill="#999999" stroke="#666666" points="237.2,-262.75 85.45,-262.75 85.45,-221 237.2,-221 237.2,-262.75"/>
<text text-anchor="start" x="93.45" y="-249.25" font-family="Helvetica,sans-Serif" font-size="10.00">/Users/fola/Documents</text>
<text text-anchor="start" x="93.45" y="-238" font-family="Helvetica,sans-Serif" font-size="10.00">/ArkScript/Ark/include</text>
<text text-anchor="middle" x="161.32" y="-226.75" font-family="Helvetica,sans-Serif" font-size="10.00">/Ark/VM/ExecutionContext.hpp</text>
</a>
</g>
</g>
<!-- Node2 -->
<g id="Node000002" class="node">
<title>Node2</title>
<g id="a_Node000002"><a xlink:title=" ">
<polygon fill="#e0e0e0" stroke="#999999" points="80.2,-74.5 42.45,-74.5 42.45,-55.25 80.2,-55.25 80.2,-74.5"/>
<text text-anchor="middle" x="61.32" y="-61" font-family="Helvetica,sans-Serif" font-size="10.00">array</text>
</a>
</g>
</g>
<!-- Node1&#45;&gt;Node2 -->
<g id="edge1_Node000001_Node000002" class="edge">
<title>Node1&#45;&gt;Node2</title>
<g id="a_edge1_Node000001_Node000002"><a xlink:title=" ">
<path fill="none" stroke="#63b8ff" d="M148.69,-220.56C142.2,-210.01 134.22,-196.88 127.32,-185 107.01,-150.04 84.38,-108.63 71.6,-84.98"/>
<polygon fill="#63b8ff" stroke="#63b8ff" points="74.71,-83.38 66.88,-76.24 68.55,-86.71 74.71,-83.38"/>
</a>
</g>
</g>
<!-- Node3 -->
<g id="Node000003" class="node">
<title>Node3</title>
<g id="a_Node000003"><a xlink:title=" ">
<polygon fill="#e0e0e0" stroke="#999999" points="79.95,-185 40.7,-185 40.7,-165.75 79.95,-165.75 79.95,-185"/>
<text text-anchor="middle" x="60.32" y="-171.5" font-family="Helvetica,sans-Serif" font-size="10.00">limits</text>
</a>
</g>
</g>
<!-- Node1&#45;&gt;Node3 -->
<g id="edge2_Node000001_Node000003" class="edge">
<title>Node1&#45;&gt;Node3</title>
<g id="a_edge2_Node000001_Node000003"><a xlink:title=" ">
<path fill="none" stroke="#63b8ff" d="M129.64,-220.64C114.89,-211.22 97.64,-200.21 84.03,-191.52"/>
<polygon fill="#63b8ff" stroke="#63b8ff" points="86.03,-188.64 75.72,-186.21 82.27,-194.54 86.03,-188.64"/>
</a>
</g>
</g>
<!-- Node4 -->
<g id="Node000004" class="node">
<title>Node4</title>
<g id="a_Node000004"><a xlink:title=" ">
<polygon fill="#e0e0e0" stroke="#999999" points="99.95,-19.25 48.7,-19.25 48.7,0 99.95,0 99.95,-19.25"/>
<text text-anchor="middle" x="74.32" y="-5.75" font-family="Helvetica,sans-Serif" font-size="10.00">memory</text>
</a>
</g>
</g>
<!-- Node1&#45;&gt;Node4 -->
<g id="edge3_Node000001_Node000004" class="edge">
<title>Node1&#45;&gt;Node4</title>
<g id="a_edge3_Node000001_Node000004"><a xlink:title=" ">
<path fill="none" stroke="#63b8ff" d="M85.27,-224.84C64.26,-216.54 43.82,-203.98 31.32,-185 19.16,-166.54 -33.68,-222.71 33.32,-55.25 37.58,-44.6 45.64,-34.94 53.5,-27.34"/>
<polygon fill="#63b8ff" stroke="#63b8ff" points="55.8,-29.98 60.94,-20.71 51.15,-24.75 55.8,-29.98"/>
</a>
</g>
</g>
<!-- Node5 -->
<g id="Node000005" class="node">
<title>Node5</title>
<g id="a_Node000005"><a xlink:title=" ">
<polygon fill="#e0e0e0" stroke="#999999" points="186.2,-185 136.45,-185 136.45,-165.75 186.2,-165.75 186.2,-185"/>
<text text-anchor="middle" x="161.32" y="-171.5" font-family="Helvetica,sans-Serif" font-size="10.00">optional</text>
</a>
</g>
</g>
<!-- Node1&#45;&gt;Node5 -->
<g id="edge4_Node000001_Node000005" class="edge">
<title>Node1&#45;&gt;Node5</title>
<g id="a_edge4_Node000001_Node000005"><a xlink:title=" ">
<path fill="none" stroke="#63b8ff" d="M161.32,-220.82C161.32,-213.15 161.32,-204.39 161.32,-196.7"/>
<polygon fill="#63b8ff" stroke="#63b8ff" points="164.82,-196.96 161.32,-186.96 157.82,-196.96 164.82,-196.96"/>
</a>
</g>
</g>
<!-- Node6 -->
<g id="Node000006" class="node">
<title>Node6</title>
<g id="a_Node000006"><a xlink:href="../../d6/de9/Constants_8hpp.html" target="_top" xlink:title="Constants used by ArkScript.">
<polygon fill="white" stroke="#666666" points="302.2,-185 204.45,-185 204.45,-165.75 302.2,-165.75 302.2,-185"/>
<text text-anchor="middle" x="253.32" y="-171.5" font-family="Helvetica,sans-Serif" font-size="10.00">Ark/Constants.hpp</text>
</a>
</g>
</g>
<!-- Node1&#45;&gt;Node6 -->
<g id="edge5_Node000001_Node000006" class="edge">
<title>Node1&#45;&gt;Node6</title>
<g id="a_edge5_Node000001_Node000006"><a xlink:title=" ">
<path fill="none" stroke="#63b8ff" d="M190.18,-220.64C203.48,-211.32 219.02,-200.42 231.36,-191.77"/>
<polygon fill="#63b8ff" stroke="#63b8ff" points="233.04,-194.87 239.22,-186.26 229.02,-189.14 233.04,-194.87"/>
</a>
</g>
</g>
<!-- Node10 -->
<g id="Node000010" class="node">
<title>Node10</title>
<g id="a_Node000010"><a xlink:href="../../de/dfd/Value_8hpp.html" target="_top" xlink:title=" ">
<polygon fill="white" stroke="#666666" points="432.7,-129.75 337.95,-129.75 337.95,-110.5 432.7,-110.5 432.7,-129.75"/>
<text text-anchor="middle" x="385.32" y="-116.25" font-family="Helvetica,sans-Serif" font-size="10.00">Ark/VM/Value.hpp</text>
</a>
</g>
</g>
<!-- Node1&#45;&gt;Node10 -->
<g id="edge9_Node000001_Node000010" class="edge">
<title>Node1&#45;&gt;Node10</title>
<g id="a_edge9_Node000001_Node000010"><a xlink:title=" ">
<path fill="none" stroke="#63b8ff" d="M231.24,-220.61C257.31,-211.58 286.57,-199.65 311.32,-185 333.34,-171.97 355.08,-152.15 369.24,-138.04"/>
<polygon fill="#63b8ff" stroke="#63b8ff" points="371.45,-140.78 375.95,-131.19 366.45,-135.88 371.45,-140.78"/>
</a>
</g>
</g>
<!-- Node18 -->
<g id="Node000018" class="node">
<title>Node18</title>
<g id="a_Node000018"><a xlink:href="../../d8/dcd/Scope_8hpp.html" target="_top" xlink:title="The virtual machine scope system.">
<polygon fill="white" stroke="#666666" points="693.57,-185 595.07,-185 595.07,-165.75 693.57,-165.75 693.57,-185"/>
<text text-anchor="middle" x="644.32" y="-171.5" font-family="Helvetica,sans-Serif" font-size="10.00">Ark/VM/Scope.hpp</text>
</a>
</g>
</g>
<!-- Node1&#45;&gt;Node18 -->
<g id="edge25_Node000001_Node000018" class="edge">
<title>Node1&#45;&gt;Node18</title>
<g id="a_edge25_Node000001_Node000018"><a xlink:title=" ">
<path fill="none" stroke="#63b8ff" d="M237.59,-230.69C333.25,-217.92 495.35,-196.27 583.25,-184.53"/>
<polygon fill="#63b8ff" stroke="#63b8ff" points="583.68,-188 593.13,-183.21 582.76,-181.07 583.68,-188"/>
</a>
</g>
</g>
<!-- Node7 -->
<g id="Node000007" class="node">
<title>Node7</title>
<g id="a_Node000007"><a xlink:title=" ">
<polygon fill="#e0e0e0" stroke="#999999" points="268.07,-129.75 202.57,-129.75 202.57,-110.5 268.07,-110.5 268.07,-129.75"/>
<text text-anchor="middle" x="235.32" y="-116.25" font-family="Helvetica,sans-Serif" font-size="10.00">string_view</text>
</a>
</g>
</g>
<!-- Node6&#45;&gt;Node7 -->
<g id="edge6_Node000006_Node000007" class="edge">
<title>Node6&#45;&gt;Node7</title>
<g id="a_edge6_Node000006_Node000007"><a xlink:title=" ">
<path fill="none" stroke="#63b8ff" d="M250.35,-165.58C248.07,-158.84 244.84,-149.27 241.95,-140.74"/>
<polygon fill="#63b8ff" stroke="#63b8ff" points="245.36,-139.9 238.84,-131.54 238.73,-142.14 245.36,-139.9"/>
</a>
</g>
</g>
<!-- Node8 -->
<g id="Node000008" class="node">
<title>Node8</title>
<g id="a_Node000008"><a xlink:title=" ">
<polygon fill="#e0e0e0" stroke="#999999" points="429.2,-19.25 373.45,-19.25 373.45,0 429.2,0 429.2,-19.25"/>
<text text-anchor="middle" x="401.32" y="-5.75" font-family="Helvetica,sans-Serif" font-size="10.00">cinttypes</text>
</a>
</g>
</g>
<!-- Node6&#45;&gt;Node8 -->
<g id="edge7_Node000006_Node000008" class="edge">
<title>Node6&#45;&gt;Node8</title>
<g id="a_edge7_Node000006_Node000008"><a xlink:title=" ">
<path fill="none" stroke="#63b8ff" d="M258.16,-165.52C263.05,-156.53 270.79,-142.22 277.32,-129.75 294.57,-96.82 289.13,-81.62 315.32,-55.25 328.84,-41.64 347.37,-31.3 363.78,-24.02"/>
<polygon fill="#63b8ff" stroke="#63b8ff" points="364.9,-27.34 372.78,-20.26 362.2,-20.88 364.9,-27.34"/>
</a>
</g>
</g>
<!-- Node9 -->
<g id="Node000009" class="node">
<title>Node9</title>
<g id="a_Node000009"><a xlink:title=" ">
<polygon fill="#e0e0e0" stroke="#999999" points="184.45,-129.75 136.2,-129.75 136.2,-110.5 184.45,-110.5 184.45,-129.75"/>
<text text-anchor="middle" x="160.32" y="-116.25" font-family="Helvetica,sans-Serif" font-size="10.00">cstddef</text>
</a>
</g>
</g>
<!-- Node6&#45;&gt;Node9 -->
<g id="edge8_Node000006_Node000009" class="edge">
<title>Node6&#45;&gt;Node9</title>
<g id="a_edge8_Node000006_Node000009"><a xlink:title=" ">
<path fill="none" stroke="#63b8ff" d="M237.55,-165.34C223.38,-157.23 202.34,-145.18 185.79,-135.71"/>
<polygon fill="#63b8ff" stroke="#63b8ff" points="187.91,-132.89 177.49,-130.95 184.43,-138.96 187.91,-132.89"/>
</a>
</g>
</g>
<!-- Node10&#45;&gt;Node2 -->
<g id="edge14_Node000010_Node000002" class="edge">
<title>Node10&#45;&gt;Node2</title>
<g id="a_edge14_Node000010_Node000002"><a xlink:title=" ">
<path fill="none" stroke="#63b8ff" d="M337.67,-113.36C279.82,-106 179.41,-92.09 94.32,-74.5 93.33,-74.3 92.33,-74.08 91.32,-73.86"/>
<polygon fill="#63b8ff" stroke="#63b8ff" points="92.45,-70.53 81.91,-71.58 90.81,-77.33 92.45,-70.53"/>
</a>
</g>
</g>
<!-- Node10&#45;&gt;Node8 -->
<g id="edge13_Node000010_Node000008" class="edge">
<title>Node10&#45;&gt;Node8</title>
<g id="a_edge13_Node000010_Node000008"><a xlink:title=" ">
<path fill="none" stroke="#63b8ff" d="M386.63,-110.25C389.17,-93 394.84,-54.58 398.34,-30.81"/>
<polygon fill="#63b8ff" stroke="#63b8ff" points="401.78,-31.53 399.77,-21.12 394.85,-30.51 401.78,-31.53"/>
</a>
</g>
</g>
<!-- Node11 -->
<g id="Node000011" class="node">
<title>Node11</title>
<g id="a_Node000011"><a xlink:title=" ">
<polygon fill="#e0e0e0" stroke="#999999" points="665.82,-74.5 622.82,-74.5 622.82,-55.25 665.82,-55.25 665.82,-74.5"/>
<text text-anchor="middle" x="644.32" y="-61" font-family="Helvetica,sans-Serif" font-size="10.00">vector</text>
</a>
</g>
</g>
<!-- Node10&#45;&gt;Node11 -->
<g id="edge10_Node000010_Node000011" class="edge">
<title>Node10&#45;&gt;Node11</title>
<g id="a_edge10_Node000010_Node000011"><a xlink:title=" ">
<path fill="none" stroke="#63b8ff" d="M432.85,-110.15C478.07,-101.49 547.97,-87.76 608.32,-74.5 609.48,-74.24 610.66,-73.98 611.86,-73.71"/>
<polygon fill="#63b8ff" stroke="#63b8ff" points="612.23,-77.22 621.18,-71.55 610.64,-70.4 612.23,-77.22"/>
</a>
</g>
</g>
<!-- Node12 -->
<g id="Node000012" class="node">
<title>Node12</title>
<g id="a_Node000012"><a xlink:title=" ">
<polygon fill="#e0e0e0" stroke="#999999" points="369.95,-74.5 324.7,-74.5 324.7,-55.25 369.95,-55.25 369.95,-74.5"/>
<text text-anchor="middle" x="347.32" y="-61" font-family="Helvetica,sans-Serif" font-size="10.00">variant</text>
</a>
</g>
</g>
<!-- Node10&#45;&gt;Node12 -->
<g id="edge11_Node000010_Node000012" class="edge">
<title>Node10&#45;&gt;Node12</title>
<g id="a_edge11_Node000010_Node000012"><a xlink:title=" ">
<path fill="none" stroke="#63b8ff" d="M379.05,-110.33C373.96,-103.21 366.63,-92.93 360.29,-84.05"/>
<polygon fill="#63b8ff" stroke="#63b8ff" points="363.27,-82.2 354.61,-76.09 357.57,-86.26 363.27,-82.2"/>
</a>
</g>
</g>
<!-- Node13 -->
<g id="Node000013" class="node">
<title>Node13</title>
<g id="a_Node000013"><a xlink:title=" ">
<polygon fill="#e0e0e0" stroke="#999999" points="174.32,-19.25 134.32,-19.25 134.32,0 174.32,0 174.32,-19.25"/>
<text text-anchor="middle" x="154.32" y="-5.75" font-family="Helvetica,sans-Serif" font-size="10.00">string</text>
</a>
</g>
</g>
<!-- Node10&#45;&gt;Node13 -->
<g id="edge12_Node000010_Node000013" class="edge">
<title>Node10&#45;&gt;Node13</title>
<g id="a_edge12_Node000010_Node000013"><a xlink:title=" ">
<path fill="none" stroke="#63b8ff" d="M337.62,-114.19C266.8,-106.38 140.72,-90.41 127.32,-74.5 115.86,-60.88 126.65,-41.68 137.8,-27.89"/>
<polygon fill="#63b8ff" stroke="#63b8ff" points="140.35,-30.31 144.32,-20.49 135.09,-25.68 140.35,-30.31"/>
</a>
</g>
</g>
<!-- Node14 -->
<g id="Node000014" class="node">
<title>Node14</title>
<g id="a_Node000014"><a xlink:href="../../dc/dd5/Closure_8hpp.html" target="_top" xlink:title="Subtype of the value type, handling closures.">
<polygon fill="white" stroke="#666666" points="268.07,-74.5 136.57,-74.5 136.57,-55.25 268.07,-55.25 268.07,-74.5"/>
<text text-anchor="middle" x="202.32" y="-61" font-family="Helvetica,sans-Serif" font-size="10.00">Ark/VM/Value/Closure.hpp</text>
</a>
</g>
</g>
<!-- Node10&#45;&gt;Node14 -->
<g id="edge15_Node000010_Node000014" class="edge">
<title>Node10&#45;&gt;Node14</title>
<g id="a_edge15_Node000010_Node000014"><a xlink:title=" ">
<path fill="none" stroke="#63b8ff" d="M354.28,-110.09C324.04,-101.29 277.87,-87.86 244.36,-78.11"/>
<polygon fill="#63b8ff" stroke="#63b8ff" points="245.55,-74.81 234.97,-75.38 243.59,-81.53 245.55,-74.81"/>
</a>
</g>
</g>
<!-- Node16 -->
<g id="Node000016" class="node">
<title>Node16</title>
<g id="a_Node000016"><a xlink:href="../../d5/d40/Platform_8hpp.html" target="_top" xlink:title="ArkScript configuration macros.">
<polygon fill="white" stroke="#666666" points="590.07,-19.25 500.57,-19.25 500.57,0 590.07,0 590.07,-19.25"/>
<text text-anchor="middle" x="545.32" y="-5.75" font-family="Helvetica,sans-Serif" font-size="10.00">Ark/Platform.hpp</text>
</a>
</g>
</g>
<!-- Node10&#45;&gt;Node16 -->
<g id="edge24_Node000010_Node000016" class="edge">
<title>Node10&#45;&gt;Node16</title>
<g id="a_edge24_Node000010_Node000016"><a xlink:title=" ">
<path fill="none" stroke="#63b8ff" d="M432.78,-114.63C483.15,-108.76 557.86,-96.54 575.32,-74.5 586.56,-60.32 574.85,-41.25 562.93,-27.64"/>
<polygon fill="#63b8ff" stroke="#63b8ff" points="565.77,-25.55 556.35,-20.7 560.69,-30.36 565.77,-25.55"/>
</a>
</g>
</g>
<!-- Node17 -->
<g id="Node000017" class="node">
<title>Node17</title>
<g id="a_Node000017"><a xlink:href="../../dc/d3d/UserType_8hpp.html" target="_top" xlink:title="Subtype of the value, capable of handling any C++ type.">
<polygon fill="white" stroke="#666666" points="566.2,-74.5 426.45,-74.5 426.45,-55.25 566.2,-55.25 566.2,-74.5"/>
<text text-anchor="middle" x="496.32" y="-61" font-family="Helvetica,sans-Serif" font-size="10.00">Ark/VM/Value/UserType.hpp</text>
</a>
</g>
</g>
<!-- Node10&#45;&gt;Node17 -->
<g id="edge20_Node000010_Node000017" class="edge">
<title>Node10&#45;&gt;Node17</title>
<g id="a_edge20_Node000010_Node000017"><a xlink:title=" ">
<path fill="none" stroke="#63b8ff" d="M404.15,-110.09C421.37,-101.83 447.12,-89.48 467.03,-79.93"/>
<polygon fill="#63b8ff" stroke="#63b8ff" points="468.53,-83.09 476.04,-75.61 465.51,-76.78 468.53,-83.09"/>
</a>
</g>
</g>
<!-- Node14&#45;&gt;Node4 -->
<g id="edge16_Node000014_Node000004" class="edge">
<title>Node14&#45;&gt;Node4</title>
<g id="a_edge16_Node000014_Node000004"><a xlink:title=" ">
<path fill="none" stroke="#63b8ff" d="M180.61,-54.84C160.29,-46.39 129.68,-33.65 106.51,-24.02"/>
<polygon fill="#63b8ff" stroke="#63b8ff" points="108.12,-20.89 97.54,-20.28 105.43,-27.36 108.12,-20.89"/>
</a>
</g>
</g>
<!-- Node14&#45;&gt;Node13 -->
<g id="edge18_Node000014_Node000013" class="edge">
<title>Node14&#45;&gt;Node13</title>
<g id="a_edge18_Node000014_Node000013"><a xlink:title=" ">
<path fill="none" stroke="#63b8ff" d="M194.4,-55.08C187.77,-47.73 178.11,-37.01 169.93,-27.94"/>
<polygon fill="#63b8ff" stroke="#63b8ff" points="172.73,-25.82 163.43,-20.73 167.53,-30.5 172.73,-25.82"/>
</a>
</g>
</g>
<!-- Node15 -->
<g id="Node000015" class="node">
<title>Node15</title>
<g id="a_Node000015"><a xlink:title=" ">
<polygon fill="#e0e0e0" stroke="#999999" points="292.07,-19.25 238.57,-19.25 238.57,0 292.07,0 292.07,-19.25"/>
<text text-anchor="middle" x="265.32" y="-5.75" font-family="Helvetica,sans-Serif" font-size="10.00">iostream</text>
</a>
</g>
</g>
<!-- Node14&#45;&gt;Node15 -->
<g id="edge17_Node000014_Node000015" class="edge">
<title>Node14&#45;&gt;Node15</title>
<g id="a_edge17_Node000014_Node000015"><a xlink:title=" ">
<path fill="none" stroke="#63b8ff" d="M213.01,-54.84C222.02,-47.22 235.15,-36.12 246,-26.95"/>
<polygon fill="#63b8ff" stroke="#63b8ff" points="248.26,-29.63 253.64,-20.5 243.74,-24.28 248.26,-29.63"/>
</a>
</g>
</g>
<!-- Node14&#45;&gt;Node16 -->
<g id="edge19_Node000014_Node000016" class="edge">
<title>Node14&#45;&gt;Node16</title>
<g id="a_edge19_Node000014_Node000016"><a xlink:title=" ">
<path fill="none" stroke="#63b8ff" d="M260.9,-54.78C324.66,-44.88 425.92,-29.16 488.85,-19.39"/>
<polygon fill="#63b8ff" stroke="#63b8ff" points="489.29,-22.87 498.64,-17.87 488.22,-15.95 489.29,-22.87"/>
</a>
</g>
</g>
<!-- Node17&#45;&gt;Node8 -->
<g id="edge22_Node000017_Node000008" class="edge">
<title>Node17&#45;&gt;Node8</title>
<g id="a_edge22_Node000017_Node000008"><a xlink:title=" ">
<path fill="none" stroke="#63b8ff" d="M480.21,-54.84C465.74,-46.73 444.24,-34.68 427.34,-25.21"/>
<polygon fill="#63b8ff" stroke="#63b8ff" points="429.27,-22.28 418.84,-20.44 425.85,-28.39 429.27,-22.28"/>
</a>
</g>
</g>
<!-- Node17&#45;&gt;Node15 -->
<g id="edge21_Node000017_Node000015" class="edge">
<title>Node17&#45;&gt;Node15</title>
<g id="a_edge21_Node000017_Node000015"><a xlink:title=" ">
<path fill="none" stroke="#63b8ff" d="M456.87,-54.78C413.91,-44.88 345.67,-29.15 303.29,-19.38"/>
<polygon fill="#63b8ff" stroke="#63b8ff" points="304.33,-16.03 293.8,-17.19 302.76,-22.85 304.33,-16.03"/>
</a>
</g>
</g>
<!-- Node17&#45;&gt;Node16 -->
<g id="edge23_Node000017_Node000016" class="edge">
<title>Node17&#45;&gt;Node16</title>
<g id="a_edge23_Node000017_Node000016"><a xlink:title=" ">
<path fill="none" stroke="#63b8ff" d="M504.41,-55.08C511.18,-47.73 521.04,-37.01 529.39,-27.94"/>
<polygon fill="#63b8ff" stroke="#63b8ff" points="531.83,-30.45 536.03,-20.72 526.68,-25.71 531.83,-30.45"/>
</a>
</g>
</g>
<!-- Node18&#45;&gt;Node8 -->
<g id="edge27_Node000018_Node000008" class="edge">
<title>Node18&#45;&gt;Node8</title>
<g id="a_edge27_Node000018_Node000008"><a xlink:title=" ">
<path fill="none" stroke="#63b8ff" d="M651.37,-165.42C667.47,-143.84 703.42,-88.3 675.32,-55.25 660.31,-37.6 513.25,-21.29 440.99,-14.26"/>
<polygon fill="#63b8ff" stroke="#63b8ff" points="441.45,-10.79 431.16,-13.32 440.78,-17.76 441.45,-10.79"/>
</a>
</g>
</g>
<!-- Node18&#45;&gt;Node10 -->
<g id="edge29_Node000018_Node000010" class="edge">
<title>Node18&#45;&gt;Node10</title>
<g id="a_edge29_Node000018_Node000010"><a xlink:title=" ">
<path fill="none" stroke="#63b8ff" d="M600.09,-165.28C555.95,-156.21 488.02,-142.24 440.41,-132.45"/>
<polygon fill="#63b8ff" stroke="#63b8ff" points="441.35,-129.07 430.85,-130.49 439.94,-135.93 441.35,-129.07"/>
</a>
</g>
</g>
<!-- Node18&#45;&gt;Node11 -->
<g id="edge26_Node000018_Node000011" class="edge">
<title>Node18&#45;&gt;Node11</title>
<g id="a_edge26_Node000018_Node000011"><a xlink:title=" ">
<path fill="none" stroke="#63b8ff" d="M644.32,-165.5C644.32,-148.25 644.32,-109.83 644.32,-86.06"/>
<polygon fill="#63b8ff" stroke="#63b8ff" points="647.82,-86.39 644.32,-76.39 640.82,-86.39 647.82,-86.39"/>
</a>
</g>
</g>
<!-- Node18&#45;&gt;Node16 -->
<g id="edge28_Node000018_Node000016" class="edge">
<title>Node18&#45;&gt;Node16</title>
<g id="a_edge28_Node000018_Node000016"><a xlink:title=" ">
<path fill="none" stroke="#63b8ff" d="M666.75,-165.39C681.49,-158.16 699.61,-146.44 708.32,-129.75 723.64,-100.4 728.41,-81.57 708.32,-55.25 695.24,-38.1 643.42,-25.93 601.68,-18.68"/>
<polygon fill="#63b8ff" stroke="#63b8ff" points="602.42,-15.25 591.98,-17.06 601.26,-22.16 602.42,-15.25"/>
</a>
</g>
</g>
</g>
</svg>
