<?xml version="1.0" encoding="UTF-8" standalone="no"?>
<!DOCTYPE svg PUBLIC "-//W3C//DTD SVG 1.1//EN"
 "http://www.w3.org/Graphics/SVG/1.1/DTD/svg11.dtd">
<!-- Generated by graphviz version 10.0.1 (20240210.2158)
 -->
<!-- Title: Ark::VM Pages: 1 -->
<svg width="2998pt" height="796pt"
 viewBox="0.00 0.00 2998.30 795.50" xmlns="http://www.w3.org/2000/svg" xmlns:xlink="http://www.w3.org/1999/xlink">
<g id="graph0" class="graph" transform="scale(1 1) rotate(0) translate(4 791.5)">
<title>Ark::VM</title>
<!-- Node1 -->
<g id="node1" class="node">
<title>Node1</title>
<g id="a_node1"><a xlink:title="The ArkScript virtual machine, executing ArkScript bytecode.">
<polygon fill="#999999" stroke="#666666" points="2412.05,-505.62 2360.05,-505.62 2360.05,-486.38 2412.05,-486.38 2412.05,-505.62"/>
<text text-anchor="middle" x="2386.05" y="-492.12" font-family="Helvetica,sans-Serif" font-size="10.00">Ark::VM</text>
</a>
</g>
</g>
<!-- Node34 -->
<g id="node34" class="node">
<title>Node34</title>
<g id="a_node34"><a xlink:href="../../d4/d6d/classArk_1_1internal_1_1Future.html" target="_top" xlink:title=" ">
<polygon fill="white" stroke="#666666" points="2580.3,-529.62 2478.05,-529.62 2478.05,-510.38 2580.3,-510.38 2580.3,-529.62"/>
<text text-anchor="middle" x="2529.18" y="-516.12" font-family="Helvetica,sans-Serif" font-size="10.00">Ark::internal::Future</text>
</a>
</g>
</g>
<!-- Node1&#45;&gt;Node34 -->
<g id="edge56" class="edge">
<title>Node1&#45;&gt;Node34</title>
<path fill="none" stroke="#9a32cd" stroke-dasharray="5,2" d="M2423.16,-502.14C2439.75,-504.96 2459.7,-508.35 2477.73,-511.42"/>
<polygon fill="#9a32cd" stroke="#9a32cd" points="2424.22,-498.77 2413.77,-500.54 2423.04,-505.67 2424.22,-498.77"/>
<text text-anchor="middle" x="2445.05" y="-509.75" font-family="Helvetica,sans-Serif" font-size="10.00"> m_vm</text>
</g>
<!-- Node2 -->
<g id="node2" class="node">
<title>Node2</title>
<g id="a_node2"><a xlink:href="../../d1/d37/classArk_1_1State.html" target="_top" xlink:title="Ark state to handle the dirty job of loading and compiling ArkScript code.">
<polygon fill="white" stroke="#666666" points="1031.18,-224.62 970.93,-224.62 970.93,-205.38 1031.18,-205.38 1031.18,-224.62"/>
<text text-anchor="middle" x="1001.05" y="-211.12" font-family="Helvetica,sans-Serif" font-size="10.00">Ark::State</text>
</a>
</g>
</g>
<!-- Node2&#45;&gt;Node1 -->
<g id="edge1" class="edge">
<title>Node2&#45;&gt;Node1</title>
<path fill="none" stroke="#9a32cd" stroke-dasharray="5,2" d="M1031.5,-230.2C1089.82,-258.85 1224.85,-318 1345.68,-318 1345.68,-318 1345.68,-318 2147.18,-318 2241.49,-318 2274.63,-336.05 2342.05,-402 2366.81,-426.22 2378.68,-467.35 2383.02,-486.12"/>
<polygon fill="#9a32cd" stroke="#9a32cd" points="1033.06,-227.07 1022.55,-225.74 1029.94,-233.33 1033.06,-227.07"/>
<text text-anchor="middle" x="1774.93" y="-319.75" font-family="Helvetica,sans-Serif" font-size="10.00"> m_state</text>
</g>
<!-- Node3 -->
<g id="node3" class="node">
<title>Node3</title>
<g id="a_node3"><a xlink:title=" ">
<polygon fill="white" stroke="#666666" points="440.55,-252.62 330.8,-252.62 330.8,-233.38 440.55,-233.38 440.55,-252.62"/>
<text text-anchor="middle" x="385.68" y="-239.12" font-family="Helvetica,sans-Serif" font-size="10.00">std::vector&lt; uint8_t &gt;</text>
</a>
</g>
</g>
<!-- Node3&#45;&gt;Node2 -->
<g id="edge2" class="edge">
<title>Node3&#45;&gt;Node2</title>
<path fill="none" stroke="#9a32cd" stroke-dasharray="5,2" d="M452.21,-241.81C552.71,-239.71 750.89,-234.41 918.8,-223 936.05,-221.83 955.31,-219.96 970.75,-218.32"/>
<polygon fill="#9a32cd" stroke="#9a32cd" points="452.18,-238.31 442.25,-242.02 452.32,-245.31 452.18,-238.31"/>
<text text-anchor="middle" x="692.68" y="-238.75" font-family="Helvetica,sans-Serif" font-size="10.00"> m_bytecode</text>
</g>
<!-- Node12 -->
<g id="node12" class="node">
<title>Node12</title>
<g id="a_node12"><a xlink:title=" ">
<polygon fill="white" stroke="#666666" points="756.93,-287.62 628.43,-287.62 628.43,-268.38 756.93,-268.38 756.93,-287.62"/>
<text text-anchor="middle" x="692.68" y="-274.12" font-family="Helvetica,sans-Serif" font-size="10.00">std::vector&lt; bytecode_t &gt;</text>
</a>
</g>
</g>
<!-- Node3&#45;&gt;Node12 -->
<g id="edge16" class="edge">
<title>Node3&#45;&gt;Node12</title>
<path fill="none" stroke="#9a32cd" stroke-dasharray="5,2" d="M452.11,-245.76C495.67,-248.15 554.11,-252.41 605.3,-259.75 619.71,-261.82 635.32,-264.86 649.26,-267.88"/>
<polygon fill="#9a32cd" stroke="#9a32cd" points="452.48,-242.27 442.31,-245.24 452.11,-249.26 452.48,-242.27"/>
<text text-anchor="middle" x="537.3" y="-261.75" font-family="Helvetica,sans-Serif" font-size="10.00"> elements</text>
</g>
<!-- Node4 -->
<g id="node4" class="node">
<title>Node4</title>
<g id="a_node4"><a xlink:title=" ">
<polygon fill="white" stroke="#666666" points="197.8,-437.62 111.3,-437.62 111.3,-418.38 197.8,-418.38 197.8,-437.62"/>
<text text-anchor="middle" x="154.55" y="-424.12" font-family="Helvetica,sans-Serif" font-size="10.00">std::vector&lt; T &gt;</text>
</a>
</g>
</g>
<!-- Node4&#45;&gt;Node3 -->
<g id="edge3" class="edge">
<title>Node4&#45;&gt;Node3</title>
<path fill="none" stroke="orange" stroke-dasharray="5,2" d="M157.1,-406.83C160.94,-371.06 174.19,-299.11 219.55,-263.75 250.65,-239.5 295.54,-235.21 330.66,-236.49"/>
<polygon fill="orange" stroke="orange" points="153.62,-406.46 156.2,-416.73 160.59,-407.09 153.62,-406.46"/>
<text text-anchor="middle" x="260.8" y="-265.75" font-family="Helvetica,sans-Serif" font-size="10.00"> &lt; uint8_t &gt;</text>
</g>
<!-- Node6 -->
<g id="node6" class="node">
<title>Node6</title>
<g id="a_node6"><a xlink:title=" ">
<polygon fill="white" stroke="#666666" points="605.3,-211.25 469.3,-211.25 469.3,-180.75 605.3,-180.75 605.3,-211.25"/>
<text text-anchor="start" x="477.3" y="-197.75" font-family="Helvetica,sans-Serif" font-size="10.00">std::vector&lt; std::filesystem</text>
<text text-anchor="middle" x="537.3" y="-186.5" font-family="Helvetica,sans-Serif" font-size="10.00">::path &gt;</text>
</a>
</g>
</g>
<!-- Node4&#45;&gt;Node6 -->
<g id="edge6" class="edge">
<title>Node4&#45;&gt;Node6</title>
<path fill="none" stroke="orange" stroke-dasharray="5,2" d="M158.69,-406.71C166.49,-357.07 188.37,-236.01 219.55,-211.5 256.88,-182.16 387.72,-185.32 469.1,-190.51"/>
<polygon fill="orange" stroke="orange" points="155.26,-406.03 157.21,-416.44 162.18,-407.09 155.26,-406.03"/>
<text text-anchor="start" x="219.55" y="-225" font-family="Helvetica,sans-Serif" font-size="10.00"> &lt; std::filesystem::</text>
<text text-anchor="middle" x="260.8" y="-213.75" font-family="Helvetica,sans-Serif" font-size="10.00">path &gt;</text>
</g>
<!-- Node9 -->
<g id="node9" class="node">
<title>Node9</title>
<g id="a_node9"><a xlink:title=" ">
<polygon fill="white" stroke="#666666" points="754.68,-155.62 630.68,-155.62 630.68,-136.38 754.68,-136.38 754.68,-155.62"/>
<text text-anchor="middle" x="692.68" y="-142.12" font-family="Helvetica,sans-Serif" font-size="10.00">std::vector&lt; std::string &gt;</text>
</a>
</g>
</g>
<!-- Node4&#45;&gt;Node9 -->
<g id="edge11" class="edge">
<title>Node4&#45;&gt;Node9</title>
<path fill="none" stroke="orange" stroke-dasharray="5,2" d="M158.12,-406.93C165.08,-353.61 186.02,-215.5 219.55,-186 253.37,-156.24 275.23,-177.31 320.05,-172.75 335.19,-171.21 529.02,-157.47 630.55,-150.3"/>
<polygon fill="orange" stroke="orange" points="154.69,-406.15 156.91,-416.51 161.64,-407.03 154.69,-406.15"/>
<text text-anchor="middle" x="385.68" y="-174.75" font-family="Helvetica,sans-Serif" font-size="10.00"> &lt; std::string &gt;</text>
</g>
<!-- Node10 -->
<g id="node10" class="node">
<title>Node10</title>
<g id="a_node10"><a xlink:title=" ">
<polygon fill="white" stroke="#666666" points="755.05,-343.62 630.3,-343.62 630.3,-324.38 755.05,-324.38 755.05,-343.62"/>
<text text-anchor="middle" x="692.68" y="-330.12" font-family="Helvetica,sans-Serif" font-size="10.00">std::vector&lt; Ark::Value &gt;</text>
</a>
</g>
</g>
<!-- Node4&#45;&gt;Node10 -->
<g id="edge14" class="edge">
<title>Node4&#45;&gt;Node10</title>
<path fill="none" stroke="orange" stroke-dasharray="5,2" d="M182.98,-412.57C214.83,-395.52 269.47,-368.86 320.05,-356.75 426.76,-331.21 555.35,-329.54 629.89,-331.31"/>
<polygon fill="orange" stroke="orange" points="181.53,-409.38 174.42,-417.23 184.88,-415.53 181.53,-409.38"/>
<text text-anchor="middle" x="385.68" y="-358.75" font-family="Helvetica,sans-Serif" font-size="10.00"> &lt; Ark::Value &gt;</text>
</g>
<!-- Node4&#45;&gt;Node12 -->
<g id="edge17" class="edge">
<title>Node4&#45;&gt;Node12</title>
<path fill="none" stroke="orange" stroke-dasharray="5,2" d="M168.98,-408.76C180.73,-393.18 199.1,-371.64 219.55,-358 259.05,-331.65 274.03,-333.44 320.05,-321.75 425.99,-294.84 553.2,-284.41 627.96,-280.41"/>
<polygon fill="orange" stroke="orange" points="166.2,-406.63 163.14,-416.78 171.86,-410.75 166.2,-406.63"/>
<text text-anchor="middle" x="385.68" y="-323.75" font-family="Helvetica,sans-Serif" font-size="10.00"> &lt; bytecode_t &gt;</text>
</g>
<!-- Node16 -->
<g id="node16" class="node">
<title>Node16</title>
<g id="a_node16"><a xlink:title=" ">
<polygon fill="white" stroke="#666666" points="2217.55,-424.88 2074.8,-424.88 2074.8,-383.12 2217.55,-383.12 2217.55,-424.88"/>
<text text-anchor="start" x="2082.8" y="-411.38" font-family="Helvetica,sans-Serif" font-size="10.00">std::vector&lt; std::unique</text>
<text text-anchor="start" x="2082.8" y="-400.12" font-family="Helvetica,sans-Serif" font-size="10.00">_ptr&lt; Ark::internal::Execution</text>
<text text-anchor="middle" x="2146.18" y="-388.88" font-family="Helvetica,sans-Serif" font-size="10.00">Context &gt; &gt;</text>
</a>
</g>
</g>
<!-- Node4&#45;&gt;Node16 -->
<g id="edge44" class="edge">
<title>Node4&#45;&gt;Node16</title>
<path fill="none" stroke="orange" stroke-dasharray="5,2" d="M209.42,-426.24C349.74,-421.71 724.22,-410 848.43,-410 848.43,-410 848.43,-410 1347.68,-410 1616.11,-410 1935.36,-406.56 2074.5,-404.89"/>
<polygon fill="orange" stroke="orange" points="209.55,-422.73 199.67,-426.55 209.77,-429.73 209.55,-422.73"/>
<text text-anchor="start" x="1083.3" y="-423" font-family="Helvetica,sans-Serif" font-size="10.00"> &lt; std::unique_ptr&lt;</text>
<text text-anchor="middle" x="1161.68" y="-411.75" font-family="Helvetica,sans-Serif" font-size="10.00"> Ark::internal::ExecutionContext &gt; &gt;</text>
</g>
<!-- Node21 -->
<g id="node21" class="node">
<title>Node21</title>
<g id="a_node21"><a xlink:title=" ">
<polygon fill="white" stroke="#666666" points="1419.18,-517.25 1274.18,-517.25 1274.18,-486.75 1419.18,-486.75 1419.18,-517.25"/>
<text text-anchor="start" x="1282.18" y="-503.75" font-family="Helvetica,sans-Serif" font-size="10.00">std::vector&lt; std::shared</text>
<text text-anchor="middle" x="1346.68" y="-492.5" font-family="Helvetica,sans-Serif" font-size="10.00">_ptr&lt; Ark::internal::Scope &gt; &gt;</text>
</a>
</g>
</g>
<!-- Node4&#45;&gt;Node21 -->
<g id="edge38" class="edge">
<title>Node4&#45;&gt;Node21</title>
<path fill="none" stroke="orange" stroke-dasharray="5,2" d="M209.22,-440.27C212.71,-440.9 216.17,-441.49 219.55,-442 397.62,-469.08 443.51,-466.1 623.3,-477 861.29,-491.42 1143.93,-498.21 1273.84,-500.75"/>
<polygon fill="orange" stroke="orange" points="210.07,-436.87 199.58,-438.4 208.73,-443.74 210.07,-436.87"/>
<text text-anchor="start" x="639.43" y="-497" font-family="Helvetica,sans-Serif" font-size="10.00"> &lt; std::shared_ptr&lt;</text>
<text text-anchor="middle" x="692.68" y="-485.75" font-family="Helvetica,sans-Serif" font-size="10.00"> Ark::internal::Scope &gt; &gt;</text>
</g>
<!-- Node24 -->
<g id="node24" class="node">
<title>Node24</title>
<g id="a_node24"><a xlink:title=" ">
<polygon fill="white" stroke="#666666" points="449.55,-554.25 321.8,-554.25 321.8,-523.75 449.55,-523.75 449.55,-554.25"/>
<text text-anchor="start" x="329.8" y="-540.75" font-family="Helvetica,sans-Serif" font-size="10.00">std::vector&lt; std::pair</text>
<text text-anchor="middle" x="385.68" y="-529.5" font-family="Helvetica,sans-Serif" font-size="10.00">&lt; uint16_t, Ark::Value &gt; &gt;</text>
</a>
</g>
</g>
<!-- Node4&#45;&gt;Node24 -->
<g id="edge35" class="edge">
<title>Node4&#45;&gt;Node24</title>
<path fill="none" stroke="orange" stroke-dasharray="5,2" d="M165.59,-448.09C176.25,-467.22 194.96,-495.23 219.55,-510 249.99,-528.29 288.92,-535.73 321.33,-538.51"/>
<polygon fill="orange" stroke="orange" points="168.73,-446.56 160.96,-439.36 162.55,-449.83 168.73,-446.56"/>
<text text-anchor="start" x="219.55" y="-549" font-family="Helvetica,sans-Serif" font-size="10.00"> &lt; std::pair&lt; uint16</text>
<text text-anchor="middle" x="260.8" y="-537.75" font-family="Helvetica,sans-Serif" font-size="10.00">_t, Ark::Value &gt; &gt;</text>
</g>
<!-- Node26 -->
<g id="node26" class="node">
<title>Node26</title>
<g id="a_node26"><a xlink:title=" ">
<polygon fill="white" stroke="#666666" points="1062.68,-601.25 939.43,-601.25 939.43,-570.75 1062.68,-570.75 1062.68,-601.25"/>
<text text-anchor="start" x="947.43" y="-587.75" font-family="Helvetica,sans-Serif" font-size="10.00">std::vector&lt; Ark::internal</text>
<text text-anchor="middle" x="1001.05" y="-576.5" font-family="Helvetica,sans-Serif" font-size="10.00">::Scope &gt;</text>
</a>
</g>
</g>
<!-- Node4&#45;&gt;Node26 -->
<g id="edge41" class="edge">
<title>Node4&#45;&gt;Node26</title>
<path fill="none" stroke="orange" stroke-dasharray="5,2" d="M159.29,-449.06C165.83,-479.35 182.38,-534.67 219.55,-563 309.19,-631.32 357.72,-591.08 469.3,-607 606.84,-626.62 641.32,-633.43 780.05,-641 841.63,-644.36 859.84,-659.08 918.8,-641 919.22,-640.87 953.26,-617.78 977.14,-601.57"/>
<polygon fill="orange" stroke="orange" points="162.79,-448.72 157.42,-439.59 155.92,-450.07 162.79,-448.72"/>
<text text-anchor="middle" x="537.3" y="-627.75" font-family="Helvetica,sans-Serif" font-size="10.00"> &lt; Ark::internal::Scope &gt;</text>
</g>
<!-- Node29 -->
<g id="node29" class="node">
<title>Node29</title>
<g id="a_node29"><a xlink:title=" ">
<polygon fill="white" stroke="#666666" points="1435.3,-668.25 1258.05,-668.25 1258.05,-637.75 1435.3,-637.75 1435.3,-668.25"/>
<text text-anchor="start" x="1266.05" y="-654.75" font-family="Helvetica,sans-Serif" font-size="10.00">std::vector&lt; std::shared</text>
<text text-anchor="middle" x="1346.68" y="-643.5" font-family="Helvetica,sans-Serif" font-size="10.00">_ptr&lt; Ark::internal::SharedLibrary &gt; &gt;</text>
</a>
</g>
</g>
<!-- Node4&#45;&gt;Node29 -->
<g id="edge51" class="edge">
<title>Node4&#45;&gt;Node29</title>
<path fill="none" stroke="orange" stroke-dasharray="5,2" d="M163.05,-448.44C179.3,-492.67 216.58,-593.47 219.55,-596 299.63,-664.21 348.76,-620.57 451.3,-644 528.12,-661.55 545.09,-677.37 623.3,-687 850.87,-715.02 1121.38,-685.76 1257.75,-666.68"/>
<polygon fill="orange" stroke="orange" points="166.4,-447.43 159.67,-439.24 159.83,-449.84 166.4,-447.43"/>
<text text-anchor="start" x="623.3" y="-710" font-family="Helvetica,sans-Serif" font-size="10.00"> &lt; std::shared_ptr&lt;</text>
<text text-anchor="middle" x="692.68" y="-698.75" font-family="Helvetica,sans-Serif" font-size="10.00"> Ark::internal::SharedLibrary &gt; &gt;</text>
</g>
<!-- Node32 -->
<g id="node32" class="node">
<title>Node32</title>
<g id="a_node32"><a xlink:title=" ">
<polygon fill="white" stroke="#666666" points="2990.3,-587.25 2845.3,-587.25 2845.3,-556.75 2990.3,-556.75 2990.3,-587.25"/>
<text text-anchor="start" x="2853.3" y="-573.75" font-family="Helvetica,sans-Serif" font-size="10.00">std::vector&lt; std::unique</text>
<text text-anchor="middle" x="2917.8" y="-562.5" font-family="Helvetica,sans-Serif" font-size="10.00">_ptr&lt; Ark::internal::Future &gt; &gt;</text>
</a>
</g>
</g>
<!-- Node4&#45;&gt;Node32 -->
<g id="edge58" class="edge">
<title>Node4&#45;&gt;Node32</title>
<path fill="none" stroke="orange" stroke-dasharray="5,2" d="M163.95,-448.23C173.84,-472.56 190.34,-514.78 201.55,-552 211.68,-585.65 194.13,-604.73 219.55,-629 295.32,-701.34 351.25,-640.96 451.3,-672 459.66,-674.59 461.21,-676.66 469.3,-680 567.1,-720.39 585.87,-765 691.68,-765 691.68,-765 691.68,-765 2715.68,-765 2818.03,-765 2888.54,-633.27 2909.96,-587.47"/>
<polygon fill="orange" stroke="orange" points="167.29,-447.14 160.25,-439.22 160.81,-449.8 167.29,-447.14"/>
<text text-anchor="start" x="1721.68" y="-778" font-family="Helvetica,sans-Serif" font-size="10.00"> &lt; std::unique_ptr&lt;</text>
<text text-anchor="middle" x="1774.93" y="-766.75" font-family="Helvetica,sans-Serif" font-size="10.00"> Ark::internal::Future &gt; &gt;</text>
</g>
<!-- Node5 -->
<g id="node5" class="node">
<title>Node5</title>
<g id="a_node5"><a xlink:title=" ">
<polygon fill="white" stroke="#666666" points="28.8,-437.62 0,-437.62 0,-418.38 28.8,-418.38 28.8,-437.62"/>
<text text-anchor="middle" x="14.4" y="-424.12" font-family="Helvetica,sans-Serif" font-size="10.00">T</text>
</a>
</g>
</g>
<!-- Node5&#45;&gt;Node4 -->
<g id="edge4" class="edge">
<title>Node5&#45;&gt;Node4</title>
<path fill="none" stroke="#9a32cd" stroke-dasharray="5,2" d="M40.48,-428C60.1,-428 87.84,-428 110.93,-428"/>
<polygon fill="#9a32cd" stroke="#9a32cd" points="40.66,-424.5 30.66,-428 40.66,-431.5 40.66,-424.5"/>
<text text-anchor="middle" x="68.18" y="-429.75" font-family="Helvetica,sans-Serif" font-size="10.00"> elements</text>
</g>
<!-- Node14 -->
<g id="node14" class="node">
<title>Node14</title>
<g id="a_node14"><a xlink:title=" ">
<polygon fill="white" stroke="#666666" points="436.8,-58.25 334.55,-58.25 334.55,-27.75 436.8,-27.75 436.8,-58.25"/>
<text text-anchor="start" x="342.55" y="-44.75" font-family="Helvetica,sans-Serif" font-size="10.00">std::unordered_map</text>
<text text-anchor="middle" x="385.68" y="-33.5" font-family="Helvetica,sans-Serif" font-size="10.00">&lt; K, T &gt;</text>
</a>
</g>
</g>
<!-- Node5&#45;&gt;Node14 -->
<g id="edge23" class="edge">
<title>Node5&#45;&gt;Node14</title>
<path fill="none" stroke="#9a32cd" stroke-dasharray="5,2" d="M18.34,-406.99C27.99,-341.04 60.79,-139.93 107.55,-96.75 109.64,-94.82 254.99,-67.32 334.32,-52.43"/>
<polygon fill="#9a32cd" stroke="#9a32cd" points="14.93,-406.09 16.98,-416.48 21.86,-407.08 14.93,-406.09"/>
<text text-anchor="middle" x="154.55" y="-98.75" font-family="Helvetica,sans-Serif" font-size="10.00"> elements</text>
</g>
<!-- Node20 -->
<g id="node20" class="node">
<title>Node20</title>
<g id="a_node20"><a xlink:title=" ">
<polygon fill="white" stroke="#666666" points="301.43,-703.62 220.18,-703.62 220.18,-684.38 301.43,-684.38 301.43,-703.62"/>
<text text-anchor="middle" x="260.8" y="-690.12" font-family="Helvetica,sans-Serif" font-size="10.00">std::array&lt; T &gt;</text>
</a>
</g>
</g>
<!-- Node5&#45;&gt;Node20 -->
<g id="edge30" class="edge">
<title>Node5&#45;&gt;Node20</title>
<path fill="none" stroke="#9a32cd" stroke-dasharray="5,2" d="M27.97,-447.55C57.23,-491.9 133.95,-601.76 219.55,-672 225.09,-676.55 231.71,-680.62 237.97,-683.98"/>
<polygon fill="#9a32cd" stroke="#9a32cd" points="30.94,-445.7 22.55,-439.24 25.08,-449.53 30.94,-445.7"/>
<text text-anchor="middle" x="68.18" y="-530.75" font-family="Helvetica,sans-Serif" font-size="10.00"> elements</text>
</g>
<!-- Node25 -->
<g id="node25" class="node">
<title>Node25</title>
<g id="a_node25"><a xlink:title=" ">
<polygon fill="white" stroke="#666666" points="745.3,-677.62 640.05,-677.62 640.05,-658.38 745.3,-658.38 745.3,-677.62"/>
<text text-anchor="middle" x="692.68" y="-664.12" font-family="Helvetica,sans-Serif" font-size="10.00">std::shared_ptr&lt; T &gt;</text>
</a>
</g>
</g>
<!-- Node5&#45;&gt;Node25 -->
<g id="edge37" class="edge">
<title>Node5&#45;&gt;Node25</title>
<path fill="none" stroke="#9a32cd" stroke-dasharray="5,2" d="M18.5,-449.42C22.57,-473.44 31.12,-513.09 46.8,-544 95.38,-639.79 118.53,-676.52 219.55,-713 296.32,-740.72 537.33,-698.52 642.16,-678.07"/>
<polygon fill="#9a32cd" stroke="#9a32cd" points="21.96,-448.95 16.95,-439.61 15.05,-450.04 21.96,-448.95"/>
<text text-anchor="middle" x="260.8" y="-723.75" font-family="Helvetica,sans-Serif" font-size="10.00"> ptr</text>
</g>
<!-- Node27 -->
<g id="node27" class="node">
<title>Node27</title>
<g id="a_node27"><a xlink:title=" ">
<polygon fill="white" stroke="#666666" points="1693.55,-289.62 1589.05,-289.62 1589.05,-270.38 1693.55,-270.38 1693.55,-289.62"/>
<text text-anchor="middle" x="1641.3" y="-276.12" font-family="Helvetica,sans-Serif" font-size="10.00">std::unique_ptr&lt; T &gt;</text>
</a>
</g>
</g>
<!-- Node5&#45;&gt;Node27 -->
<g id="edge43" class="edge">
<title>Node5&#45;&gt;Node27</title>
<path fill="none" stroke="#9a32cd" stroke-dasharray="5,2" d="M16.36,-406.73C19.29,-346.39 28.98,-175.06 46.8,-122 69.74,-53.7 81.5,0 153.55,0 153.55,0 153.55,0 1347.68,0 1507.29,0 1613.92,-220.16 1636.03,-270.03"/>
<polygon fill="#9a32cd" stroke="#9a32cd" points="12.87,-406.47 15.9,-416.62 19.86,-406.79 12.87,-406.47"/>
<text text-anchor="middle" x="692.68" y="-1.75" font-family="Helvetica,sans-Serif" font-size="10.00"> ptr</text>
</g>
<!-- Node6&#45;&gt;Node2 -->
<g id="edge5" class="edge">
<title>Node6&#45;&gt;Node2</title>
<path fill="none" stroke="#9a32cd" stroke-dasharray="5,2" d="M616.84,-199.23C721.07,-203.52 900.12,-210.89 970.45,-213.78"/>
<polygon fill="#9a32cd" stroke="#9a32cd" points="617.09,-195.74 606.95,-198.83 616.8,-202.73 617.09,-195.74"/>
<text text-anchor="middle" x="692.68" y="-207.75" font-family="Helvetica,sans-Serif" font-size="10.00"> m_libenv</text>
</g>
<!-- Node7 -->
<g id="node7" class="node">
<title>Node7</title>
<g id="a_node7"><a xlink:title=" ">
<polygon fill="white" stroke="#666666" points="415.43,-129.62 355.93,-129.62 355.93,-110.38 415.43,-110.38 415.43,-129.62"/>
<text text-anchor="middle" x="385.68" y="-116.12" font-family="Helvetica,sans-Serif" font-size="10.00">std::string</text>
</a>
</g>
</g>
<!-- Node7&#45;&gt;Node2 -->
<g id="edge7" class="edge">
<title>Node7&#45;&gt;Node2</title>
<path fill="none" stroke="#9a32cd" stroke-dasharray="5,2" d="M427.09,-117.6C535.85,-111.79 832.29,-100.32 918.8,-142 950.58,-157.31 979.07,-188.91 992.28,-205.04"/>
<polygon fill="#9a32cd" stroke="#9a32cd" points="426.98,-114.11 417.19,-118.15 427.36,-121.09 426.98,-114.11"/>
<text text-anchor="middle" x="692.68" y="-116.75" font-family="Helvetica,sans-Serif" font-size="10.00"> m_filename</text>
</g>
<!-- Node7&#45;&gt;Node9 -->
<g id="edge10" class="edge">
<title>Node7&#45;&gt;Node9</title>
<path fill="none" stroke="#9a32cd" stroke-dasharray="5,2" d="M427.34,-123.47C479.33,-127.9 569.86,-135.62 630.27,-140.77"/>
<polygon fill="#9a32cd" stroke="#9a32cd" points="427.69,-119.98 417.43,-122.62 427.09,-126.96 427.69,-119.98"/>
<text text-anchor="middle" x="537.3" y="-140.75" font-family="Helvetica,sans-Serif" font-size="10.00"> elements</text>
</g>
<!-- Node13 -->
<g id="node13" class="node">
<title>Node13</title>
<g id="a_node13"><a xlink:title=" ">
<polygon fill="white" stroke="#666666" points="743.8,-70.88 641.55,-70.88 641.55,-29.12 743.8,-29.12 743.8,-70.88"/>
<text text-anchor="start" x="649.55" y="-57.38" font-family="Helvetica,sans-Serif" font-size="10.00">std::unordered_map</text>
<text text-anchor="start" x="649.55" y="-46.12" font-family="Helvetica,sans-Serif" font-size="10.00">&lt; std::string, Ark::</text>
<text text-anchor="middle" x="692.68" y="-34.88" font-family="Helvetica,sans-Serif" font-size="10.00">Value &gt;</text>
</a>
</g>
</g>
<!-- Node7&#45;&gt;Node13 -->
<g id="edge19" class="edge">
<title>Node7&#45;&gt;Node13</title>
<path fill="none" stroke="#9a32cd" stroke-dasharray="5,2" d="M414.51,-104.63C430.17,-96.63 450.33,-87.36 469.3,-81.75 500.53,-72.51 585.64,-61.81 641.05,-55.49"/>
<polygon fill="#9a32cd" stroke="#9a32cd" points="413.02,-101.46 405.8,-109.21 416.28,-107.66 413.02,-101.46"/>
<text text-anchor="middle" x="537.3" y="-83.75" font-family="Helvetica,sans-Serif" font-size="10.00"> keys</text>
</g>
<!-- Node31 -->
<g id="node31" class="node">
<title>Node31</title>
<g id="a_node31"><a xlink:href="../../d0/d8a/classArk_1_1internal_1_1SharedLibrary.html" target="_top" xlink:title="Handling a shared library as an ArkScript plugin.">
<polygon fill="white" stroke="#666666" points="759.93,-601.62 625.43,-601.62 625.43,-582.38 759.93,-582.38 759.93,-601.62"/>
<text text-anchor="middle" x="692.68" y="-588.12" font-family="Helvetica,sans-Serif" font-size="10.00">Ark::internal::SharedLibrary</text>
</a>
</g>
</g>
<!-- Node7&#45;&gt;Node31 -->
<g id="edge49" class="edge">
<title>Node7&#45;&gt;Node31</title>
<path fill="none" stroke="#9a32cd" stroke-dasharray="5,2" d="M426.64,-126.81C436.18,-130.36 445.31,-135.77 451.3,-144 478.78,-181.77 437.66,-529.64 469.3,-564 489.76,-586.22 567.19,-591.79 624.96,-592.73"/>
<polygon fill="#9a32cd" stroke="#9a32cd" points="427.89,-123.53 417.3,-123.97 425.85,-130.23 427.89,-123.53"/>
<text text-anchor="middle" x="537.3" y="-593.75" font-family="Helvetica,sans-Serif" font-size="10.00"> m_path</text>
</g>
<!-- Node8 -->
<g id="node8" class="node">
<title>Node8</title>
<g id="a_node8"><a xlink:title=" ">
<polygon fill="white" stroke="#666666" points="201.55,-147.25 107.55,-147.25 107.55,-116.75 201.55,-116.75 201.55,-147.25"/>
<text text-anchor="start" x="115.55" y="-133.75" font-family="Helvetica,sans-Serif" font-size="10.00">std::basic_string&lt;</text>
<text text-anchor="middle" x="154.55" y="-122.5" font-family="Helvetica,sans-Serif" font-size="10.00"> Char &gt;</text>
</a>
</g>
</g>
<!-- Node8&#45;&gt;Node7 -->
<g id="edge8" class="edge">
<title>Node8&#45;&gt;Node7</title>
<path fill="none" stroke="#63b8ff" d="M213.36,-128.97C258.65,-126.6 319.78,-123.4 355.44,-121.53"/>
<polygon fill="#63b8ff" stroke="#63b8ff" points="213.23,-125.47 203.43,-129.49 213.6,-132.46 213.23,-125.47"/>
</g>
<!-- Node9&#45;&gt;Node2 -->
<g id="edge9" class="edge">
<title>Node9&#45;&gt;Node2</title>
<path fill="none" stroke="#9a32cd" stroke-dasharray="5,2" d="M766.27,-144.63C811.2,-145.74 869.52,-150.75 918.8,-166.75 945.17,-175.31 972.13,-193.6 987.41,-205.04"/>
<polygon fill="#9a32cd" stroke="#9a32cd" points="766.43,-141.13 756.37,-144.45 766.3,-148.13 766.43,-141.13"/>
<text text-anchor="middle" x="849.43" y="-168.75" font-family="Helvetica,sans-Serif" font-size="10.00"> m_symbols</text>
</g>
<!-- Node10&#45;&gt;Node2 -->
<g id="edge12" class="edge">
<title>Node10&#45;&gt;Node2</title>
<path fill="none" stroke="#9a32cd" stroke-dasharray="5,2" d="M766.71,-329.9C812.45,-324.93 871.48,-313.99 918.8,-290 950.82,-273.77 979.41,-241.23 992.5,-224.87"/>
<polygon fill="#9a32cd" stroke="#9a32cd" points="766.49,-326.4 756.89,-330.89 767.19,-333.37 766.49,-326.4"/>
<text text-anchor="middle" x="849.43" y="-329.75" font-family="Helvetica,sans-Serif" font-size="10.00"> m_constants</text>
</g>
<!-- Node11 -->
<g id="node11" class="node">
<title>Node11</title>
<g id="a_node11"><a xlink:href="../../d3/d90/classArk_1_1Value.html" target="_top" xlink:title=" ">
<polygon fill="white" stroke="#666666" points="416.18,-396.62 355.18,-396.62 355.18,-377.38 416.18,-377.38 416.18,-396.62"/>
<text text-anchor="middle" x="385.68" y="-383.12" font-family="Helvetica,sans-Serif" font-size="10.00">Ark::Value</text>
</a>
</g>
</g>
<!-- Node11&#45;&gt;Node1 -->
<g id="edge59" class="edge">
<title>Node11&#45;&gt;Node1</title>
<path fill="none" stroke="#9a32cd" stroke-dasharray="5,2" d="M427.71,-388.19C440.98,-388.52 455.76,-388.84 469.3,-389 529.74,-389.73 544.89,-391.11 605.3,-389 713.55,-385.22 740.11,-372 848.43,-372 848.43,-372 848.43,-372 1347.68,-372 1515.91,-372 1551.6,-426.29 1718.3,-449 1938.64,-479.02 1995.71,-466.65 2217.55,-482 2272.9,-485.83 2286.82,-485.79 2342.05,-491 2347.74,-491.54 2353.84,-492.19 2359.6,-492.86"/>
<polygon fill="#9a32cd" stroke="#9a32cd" points="428.1,-384.7 418.02,-387.94 427.92,-391.7 428.1,-384.7"/>
<text text-anchor="middle" x="1508.8" y="-426" font-family="Helvetica,sans-Serif" font-size="10.00"> m_no_value</text>
<text text-anchor="middle" x="1508.8" y="-414.75" font-family="Helvetica,sans-Serif" font-size="10.00">m_undefined_value</text>
</g>
<!-- Node11&#45;&gt;Node10 -->
<g id="edge13" class="edge">
<title>Node11&#45;&gt;Node10</title>
<path fill="none" stroke="#9a32cd" stroke-dasharray="5,2" d="M427.93,-382.13C472.03,-376.64 543.9,-366.93 605.3,-355 621.21,-351.91 638.6,-347.82 653.57,-344.07"/>
<polygon fill="#9a32cd" stroke="#9a32cd" points="427.53,-378.65 418.03,-383.34 428.38,-385.6 427.53,-378.65"/>
<text text-anchor="middle" x="537.3" y="-378.75" font-family="Helvetica,sans-Serif" font-size="10.00"> elements</text>
</g>
<!-- Node11&#45;&gt;Node13 -->
<g id="edge20" class="edge">
<title>Node11&#45;&gt;Node13</title>
<path fill="none" stroke="#9a32cd" stroke-dasharray="5,2" d="M427.07,-372.54C435.42,-368.73 443.92,-364.2 451.3,-359 460.87,-352.25 459.85,-346.67 469.3,-339.75 523.33,-300.22 566.92,-329.85 605.3,-275 653.92,-205.5 575.68,-155.19 623.3,-85 627.94,-78.16 634.35,-72.58 641.39,-68.05"/>
<polygon fill="#9a32cd" stroke="#9a32cd" points="425.87,-369.25 418.04,-376.39 428.61,-375.69 425.87,-369.25"/>
<text text-anchor="middle" x="537.3" y="-341.75" font-family="Helvetica,sans-Serif" font-size="10.00"> elements</text>
</g>
<!-- Node19 -->
<g id="node19" class="node">
<title>Node19</title>
<g id="a_node19"><a xlink:title=" ">
<polygon fill="white" stroke="#666666" points="749.43,-468.25 635.93,-468.25 635.93,-437.75 749.43,-437.75 749.43,-468.25"/>
<text text-anchor="start" x="643.93" y="-454.75" font-family="Helvetica,sans-Serif" font-size="10.00">std::array&lt; Ark::Value,</text>
<text text-anchor="middle" x="692.68" y="-443.5" font-family="Helvetica,sans-Serif" font-size="10.00"> VMStackSize &gt;</text>
</a>
</g>
</g>
<!-- Node11&#45;&gt;Node19 -->
<g id="edge28" class="edge">
<title>Node11&#45;&gt;Node19</title>
<path fill="none" stroke="#9a32cd" stroke-dasharray="5,2" d="M421.12,-401.15C435.78,-406.73 453.18,-412.81 469.3,-417 525.13,-431.52 590.45,-441.26 635.79,-446.9"/>
<polygon fill="#9a32cd" stroke="#9a32cd" points="422.52,-397.94 411.93,-397.56 419.97,-404.46 422.52,-397.94"/>
<text text-anchor="middle" x="537.3" y="-443.75" font-family="Helvetica,sans-Serif" font-size="10.00"> elements</text>
</g>
<!-- Node12&#45;&gt;Node2 -->
<g id="edge15" class="edge">
<title>Node12&#45;&gt;Node2</title>
<path fill="none" stroke="#9a32cd" stroke-dasharray="5,2" d="M768.61,-275.8C812.96,-272.99 869.87,-266.75 918.8,-253 942.04,-246.47 966.92,-233.92 982.94,-225.03"/>
<polygon fill="#9a32cd" stroke="#9a32cd" points="768.61,-272.29 758.83,-276.37 769.02,-279.28 768.61,-272.29"/>
<text text-anchor="middle" x="849.43" y="-276.75" font-family="Helvetica,sans-Serif" font-size="10.00"> m_pages</text>
</g>
<!-- Node13&#45;&gt;Node2 -->
<g id="edge18" class="edge">
<title>Node13&#45;&gt;Node2</title>
<path fill="none" stroke="#9a32cd" stroke-dasharray="5,2" d="M755.25,-45.02C803.53,-44.16 870.41,-49.93 918.8,-81.75 965.21,-112.27 989.39,-179.36 997.19,-204.88"/>
<polygon fill="#9a32cd" stroke="#9a32cd" points="755.43,-41.52 745.53,-45.31 755.63,-48.51 755.43,-41.52"/>
<text text-anchor="middle" x="849.43" y="-83.75" font-family="Helvetica,sans-Serif" font-size="10.00"> m_binded</text>
</g>
<!-- Node14&#45;&gt;Node13 -->
<g id="edge21" class="edge">
<title>Node14&#45;&gt;Node13</title>
<path fill="none" stroke="orange" stroke-dasharray="5,2" d="M448.3,-37.62C455.38,-37.16 462.49,-36.77 469.3,-36.5 529.7,-34.13 545.04,-31.82 605.3,-36.5 616.95,-37.41 629.41,-38.99 641.13,-40.76"/>
<polygon fill="orange" stroke="orange" points="448.13,-34.12 438.4,-38.31 448.62,-41.1 448.13,-34.12"/>
<text text-anchor="start" x="499.43" y="-50" font-family="Helvetica,sans-Serif" font-size="10.00"> &lt; std::string, Ark</text>
<text text-anchor="middle" x="537.3" y="-38.75" font-family="Helvetica,sans-Serif" font-size="10.00">::Value &gt;</text>
</g>
<!-- Node15 -->
<g id="node15" class="node">
<title>Node15</title>
<g id="a_node15"><a xlink:title=" ">
<polygon fill="white" stroke="#666666" points="168.95,-50.62 140.15,-50.62 140.15,-31.38 168.95,-31.38 168.95,-50.62"/>
<text text-anchor="middle" x="154.55" y="-37.12" font-family="Helvetica,sans-Serif" font-size="10.00">K</text>
</a>
</g>
</g>
<!-- Node15&#45;&gt;Node14 -->
<g id="edge22" class="edge">
<title>Node15&#45;&gt;Node14</title>
<path fill="none" stroke="#9a32cd" stroke-dasharray="5,2" d="M180.31,-41.22C217.02,-41.54 286.7,-42.14 334.4,-42.56"/>
<polygon fill="#9a32cd" stroke="#9a32cd" points="180.74,-37.72 170.71,-41.13 180.68,-44.72 180.74,-37.72"/>
<text text-anchor="middle" x="260.8" y="-44.75" font-family="Helvetica,sans-Serif" font-size="10.00"> keys</text>
</g>
<!-- Node16&#45;&gt;Node1 -->
<g id="edge24" class="edge">
<title>Node16&#45;&gt;Node1</title>
<path fill="none" stroke="#9a32cd" stroke-dasharray="5,2" d="M2229.18,-404.59C2265.98,-408.14 2308.56,-417.07 2342.05,-437.75 2360.87,-449.37 2374.14,-472.55 2380.59,-485.9"/>
<polygon fill="#9a32cd" stroke="#9a32cd" points="2229.72,-401.12 2219.46,-403.78 2229.14,-408.1 2229.72,-401.12"/>
<text text-anchor="middle" x="2288.8" y="-438.75" font-family="Helvetica,sans-Serif" font-size="10.00"> m_execution_contexts</text>
</g>
<!-- Node17 -->
<g id="node17" class="node">
<title>Node17</title>
<g id="a_node17"><a xlink:title=" ">
<polygon fill="white" stroke="#666666" points="1996.05,-376.25 1849.55,-376.25 1849.55,-345.75 1996.05,-345.75 1996.05,-376.25"/>
<text text-anchor="start" x="1857.55" y="-362.75" font-family="Helvetica,sans-Serif" font-size="10.00">std::unique_ptr&lt; Ark</text>
<text text-anchor="middle" x="1922.8" y="-351.5" font-family="Helvetica,sans-Serif" font-size="10.00">::internal::ExecutionContext &gt;</text>
</a>
</g>
</g>
<!-- Node17&#45;&gt;Node16 -->
<g id="edge25" class="edge">
<title>Node17&#45;&gt;Node16</title>
<path fill="none" stroke="#9a32cd" stroke-dasharray="5,2" d="M2007.5,-370.28C2023.92,-372.63 2040.96,-375.45 2056.8,-378.75 2062.58,-379.95 2068.53,-381.34 2074.49,-382.82"/>
<polygon fill="#9a32cd" stroke="#9a32cd" points="2008.14,-366.83 1997.76,-368.93 2007.18,-373.77 2008.14,-366.83"/>
<text text-anchor="middle" x="2035.43" y="-380.75" font-family="Helvetica,sans-Serif" font-size="10.00"> elements</text>
</g>
<!-- Node18 -->
<g id="node18" class="node">
<title>Node18</title>
<g id="a_node18"><a xlink:href="../../d0/daf/structArk_1_1internal_1_1ExecutionContext.html" target="_top" xlink:title=" ">
<polygon fill="white" stroke="#666666" points="1700.3,-517.25 1582.3,-517.25 1582.3,-486.75 1700.3,-486.75 1700.3,-517.25"/>
<text text-anchor="start" x="1590.3" y="-503.75" font-family="Helvetica,sans-Serif" font-size="10.00">Ark::internal::Execution</text>
<text text-anchor="middle" x="1641.3" y="-492.5" font-family="Helvetica,sans-Serif" font-size="10.00">Context</text>
</a>
</g>
</g>
<!-- Node18&#45;&gt;Node17 -->
<g id="edge26" class="edge">
<title>Node18&#45;&gt;Node17</title>
<path fill="none" stroke="#9a32cd" stroke-dasharray="5,2" d="M1683.28,-481.33C1739.69,-452.87 1840.01,-402.26 1890.68,-376.7"/>
<polygon fill="#9a32cd" stroke="#9a32cd" points="1681.98,-478.06 1674.63,-485.69 1685.14,-484.31 1681.98,-478.06"/>
<text text-anchor="middle" x="1774.93" y="-461.75" font-family="Helvetica,sans-Serif" font-size="10.00"> ptr</text>
</g>
<!-- Node18&#45;&gt;Node34 -->
<g id="edge55" class="edge">
<title>Node18&#45;&gt;Node34</title>
<path fill="none" stroke="#9a32cd" stroke-dasharray="5,2" d="M1712.07,-505.62C1797.54,-509.88 1946.77,-516.8 2074.8,-520 2232.65,-523.95 2272.16,-522.33 2430.05,-523 2443.38,-523.06 2446.72,-523.29 2460.05,-523 2465.73,-522.87 2471.68,-522.69 2477.59,-522.48"/>
<polygon fill="#9a32cd" stroke="#9a32cd" points="1712.37,-502.13 1702.2,-505.12 1712.02,-509.12 1712.37,-502.13"/>
<text text-anchor="middle" x="2146.18" y="-523.75" font-family="Helvetica,sans-Serif" font-size="10.00"> m_context</text>
</g>
<!-- Node19&#45;&gt;Node18 -->
<g id="edge27" class="edge">
<title>Node19&#45;&gt;Node18</title>
<path fill="none" stroke="#9a32cd" stroke-dasharray="5,2" d="M760.95,-453.1C891.29,-453.77 1187.28,-457.63 1435.3,-478 1484.94,-482.08 1541.11,-488.8 1582.09,-494.1"/>
<polygon fill="#9a32cd" stroke="#9a32cd" points="761.13,-449.6 751.12,-453.05 761.1,-456.6 761.13,-449.6"/>
<text text-anchor="middle" x="1161.68" y="-466.75" font-family="Helvetica,sans-Serif" font-size="10.00"> stack</text>
</g>
<!-- Node20&#45;&gt;Node19 -->
<g id="edge29" class="edge">
<title>Node20&#45;&gt;Node19</title>
<path fill="none" stroke="orange" stroke-dasharray="5,2" d="M285.06,-677.66C322.24,-652.31 398.14,-603.64 469.3,-577 527.09,-555.36 560.39,-591.32 605.3,-549 627.74,-527.85 603.06,-505.26 623.3,-482 627.96,-476.65 633.77,-472.26 640.02,-468.66"/>
<polygon fill="orange" stroke="orange" points="283.13,-674.74 276.88,-683.3 287.1,-680.5 283.13,-674.74"/>
<text text-anchor="middle" x="385.68" y="-654.75" font-family="Helvetica,sans-Serif" font-size="10.00"> &lt; Ark::Value, VMStackSize &gt;</text>
</g>
<!-- Node21&#45;&gt;Node18 -->
<g id="edge31" class="edge">
<title>Node21&#45;&gt;Node18</title>
<path fill="none" stroke="#9a32cd" stroke-dasharray="5,2" d="M1430.99,-502C1479.2,-502 1538.67,-502 1581.89,-502"/>
<polygon fill="#9a32cd" stroke="#9a32cd" points="1431.15,-498.5 1421.15,-502 1431.15,-505.5 1431.15,-498.5"/>
<text text-anchor="middle" x="1508.8" y="-503.75" font-family="Helvetica,sans-Serif" font-size="10.00"> stacked_closure_scopes</text>
</g>
<!-- Node22 -->
<g id="node22" class="node">
<title>Node22</title>
<g id="a_node22"><a xlink:title=" ">
<polygon fill="white" stroke="#666666" points="1053.3,-552.25 948.8,-552.25 948.8,-521.75 1053.3,-521.75 1053.3,-552.25"/>
<text text-anchor="start" x="956.8" y="-538.75" font-family="Helvetica,sans-Serif" font-size="10.00">std::shared_ptr&lt; Ark</text>
<text text-anchor="middle" x="1001.05" y="-527.5" font-family="Helvetica,sans-Serif" font-size="10.00">::internal::Scope &gt;</text>
</a>
</g>
</g>
<!-- Node22&#45;&gt;Node21 -->
<g id="edge32" class="edge">
<title>Node22&#45;&gt;Node21</title>
<path fill="none" stroke="#9a32cd" stroke-dasharray="5,2" d="M1064.89,-530.6C1123.88,-524.59 1212.05,-515.61 1273.81,-509.32"/>
<polygon fill="#9a32cd" stroke="#9a32cd" points="1064.59,-527.11 1055,-531.61 1065.3,-534.08 1064.59,-527.11"/>
<text text-anchor="middle" x="1161.68" y="-529.75" font-family="Helvetica,sans-Serif" font-size="10.00"> elements</text>
</g>
<!-- Node23 -->
<g id="node23" class="node">
<title>Node23</title>
<g id="a_node23"><a xlink:href="../../d5/d74/classArk_1_1internal_1_1Scope.html" target="_top" xlink:title="A class to handle the VM scope more efficiently.">
<polygon fill="white" stroke="#666666" points="743.8,-563.62 641.55,-563.62 641.55,-544.38 743.8,-544.38 743.8,-563.62"/>
<text text-anchor="middle" x="692.68" y="-550.12" font-family="Helvetica,sans-Serif" font-size="10.00">Ark::internal::Scope</text>
</a>
</g>
</g>
<!-- Node23&#45;&gt;Node22 -->
<g id="edge33" class="edge">
<title>Node23&#45;&gt;Node22</title>
<path fill="none" stroke="#9a32cd" stroke-dasharray="5,2" d="M730.19,-540.29C745.38,-535.28 763.33,-530.23 780.05,-527.75 837.34,-519.24 903.87,-524.04 948.64,-529.38"/>
<polygon fill="#9a32cd" stroke="#9a32cd" points="729.43,-536.85 721.11,-543.41 731.7,-543.48 729.43,-536.85"/>
<text text-anchor="middle" x="849.43" y="-528.75" font-family="Helvetica,sans-Serif" font-size="10.00"> ptr</text>
</g>
<!-- Node23&#45;&gt;Node26 -->
<g id="edge40" class="edge">
<title>Node23&#45;&gt;Node26</title>
<path fill="none" stroke="#9a32cd" stroke-dasharray="5,2" d="M755.56,-551.9C801.02,-551.38 864.12,-552.8 918.8,-561.75 930.71,-563.7 943.33,-566.89 954.98,-570.32"/>
<polygon fill="#9a32cd" stroke="#9a32cd" points="755.57,-548.4 745.62,-552.05 755.67,-555.4 755.57,-548.4"/>
<text text-anchor="middle" x="849.43" y="-562.75" font-family="Helvetica,sans-Serif" font-size="10.00"> elements</text>
</g>
<!-- Node24&#45;&gt;Node23 -->
<g id="edge34" class="edge">
<title>Node24&#45;&gt;Node23</title>
<path fill="none" stroke="#9a32cd" stroke-dasharray="5,2" d="M461.14,-542.66C517.04,-545.41 592.1,-549.1 641.16,-551.52"/>
<polygon fill="#9a32cd" stroke="#9a32cd" points="461.54,-539.18 451.38,-542.18 461.2,-546.17 461.54,-539.18"/>
<text text-anchor="middle" x="537.3" y="-550.75" font-family="Helvetica,sans-Serif" font-size="10.00"> m_data</text>
</g>
<!-- Node25&#45;&gt;Node22 -->
<g id="edge36" class="edge">
<title>Node25&#45;&gt;Node22</title>
<path fill="none" stroke="orange" stroke-dasharray="5,2" d="M750.25,-655.44C812.68,-641.15 906.07,-618.34 918.8,-607 934.89,-592.68 921.54,-577.2 936.8,-562 940.4,-558.42 944.57,-555.33 949.03,-552.68"/>
<polygon fill="orange" stroke="orange" points="749.82,-651.95 740.84,-657.58 751.37,-658.77 749.82,-651.95"/>
<text text-anchor="middle" x="849.43" y="-648.75" font-family="Helvetica,sans-Serif" font-size="10.00"> &lt; Ark::internal::Scope &gt;</text>
</g>
<!-- Node30 -->
<g id="node30" class="node">
<title>Node30</title>
<g id="a_node30"><a xlink:title=" ">
<polygon fill="white" stroke="#666666" points="1065.3,-668.25 936.8,-668.25 936.8,-637.75 1065.3,-637.75 1065.3,-668.25"/>
<text text-anchor="start" x="944.8" y="-654.75" font-family="Helvetica,sans-Serif" font-size="10.00">std::shared_ptr&lt; Ark</text>
<text text-anchor="middle" x="1001.05" y="-643.5" font-family="Helvetica,sans-Serif" font-size="10.00">::internal::SharedLibrary &gt;</text>
</a>
</g>
</g>
<!-- Node25&#45;&gt;Node30 -->
<g id="edge50" class="edge">
<title>Node25&#45;&gt;Node30</title>
<path fill="none" stroke="orange" stroke-dasharray="5,2" d="M757.03,-669.96C802.21,-670.75 864.34,-670.57 918.8,-666 924.64,-665.51 930.69,-664.84 936.73,-664.07"/>
<polygon fill="orange" stroke="orange" points="757.22,-666.47 747.15,-669.77 757.08,-673.47 757.22,-666.47"/>
<text text-anchor="middle" x="849.43" y="-671.75" font-family="Helvetica,sans-Serif" font-size="10.00"> &lt; Ark::internal::SharedLibrary &gt;</text>
</g>
<!-- Node26&#45;&gt;Node18 -->
<g id="edge39" class="edge">
<title>Node26&#45;&gt;Node18</title>
<path fill="none" stroke="#9a32cd" stroke-dasharray="5,2" d="M1074.31,-578.83C1181.56,-567.81 1389.08,-545 1564.3,-517 1570.01,-516.09 1575.95,-515.06 1581.87,-513.98"/>
<polygon fill="#9a32cd" stroke="#9a32cd" points="1074.09,-575.34 1064.5,-579.84 1074.8,-582.3 1074.09,-575.34"/>
<text text-anchor="middle" x="1346.68" y="-559.75" font-family="Helvetica,sans-Serif" font-size="10.00"> locals</text>
</g>
<!-- Node27&#45;&gt;Node17 -->
<g id="edge42" class="edge">
<title>Node27&#45;&gt;Node17</title>
<path fill="none" stroke="orange" stroke-dasharray="5,2" d="M1661.71,-297.45C1676.24,-309.48 1697.16,-324.73 1718.3,-333 1759.82,-349.24 1809.31,-356.29 1849.09,-359.26"/>
<polygon fill="orange" stroke="orange" points="1664.18,-294.95 1654.3,-291.1 1659.62,-300.27 1664.18,-294.95"/>
<text text-anchor="start" x="1718.3" y="-371" font-family="Helvetica,sans-Serif" font-size="10.00"> &lt; Ark::internal::Execution</text>
<text text-anchor="middle" x="1774.93" y="-359.75" font-family="Helvetica,sans-Serif" font-size="10.00">Context &gt;</text>
</g>
<!-- Node33 -->
<g id="node33" class="node">
<title>Node33</title>
<g id="a_node33"><a xlink:title=" ">
<polygon fill="white" stroke="#666666" points="2766.55,-535.25 2662.8,-535.25 2662.8,-504.75 2766.55,-504.75 2766.55,-535.25"/>
<text text-anchor="start" x="2670.8" y="-521.75" font-family="Helvetica,sans-Serif" font-size="10.00">std::unique_ptr&lt; Ark</text>
<text text-anchor="middle" x="2714.68" y="-510.5" font-family="Helvetica,sans-Serif" font-size="10.00">::internal::Future &gt;</text>
</a>
</g>
</g>
<!-- Node27&#45;&gt;Node33 -->
<g id="edge57" class="edge">
<title>Node27&#45;&gt;Node33</title>
<path fill="none" stroke="orange" stroke-dasharray="5,2" d="M1705.1,-280C1761.74,-280 1847.35,-280 1921.8,-280 1921.8,-280 1921.8,-280 2530.18,-280 2643.47,-280 2696.22,-450.86 2709.93,-504.25"/>
<polygon fill="orange" stroke="orange" points="1705.33,-276.5 1695.33,-280 1705.33,-283.5 1705.33,-276.5"/>
<text text-anchor="middle" x="2288.8" y="-281.75" font-family="Helvetica,sans-Serif" font-size="10.00"> &lt; Ark::internal::Future &gt;</text>
</g>
<!-- Node28 -->
<g id="node28" class="node">
<title>Node28</title>
<g id="a_node28"><a xlink:title=" ">
<polygon fill="white" stroke="#666666" points="2177.43,-510.62 2114.93,-510.62 2114.93,-491.38 2177.43,-491.38 2177.43,-510.62"/>
<text text-anchor="middle" x="2146.18" y="-497.12" font-family="Helvetica,sans-Serif" font-size="10.00">std::mutex</text>
</a>
</g>
</g>
<!-- Node28&#45;&gt;Node1 -->
<g id="edge45" class="edge">
<title>Node28&#45;&gt;Node1</title>
<path fill="none" stroke="#9a32cd" stroke-dasharray="5,2" d="M2189.13,-498.61C2203.81,-497.88 2220.4,-497.15 2235.55,-496.75 2279.14,-495.59 2329.9,-495.63 2359.65,-495.79"/>
<polygon fill="#9a32cd" stroke="#9a32cd" points="2189.15,-495.11 2179.35,-499.12 2189.52,-502.1 2189.15,-495.11"/>
<text text-anchor="middle" x="2288.8" y="-497.75" font-family="Helvetica,sans-Serif" font-size="10.00"> m_mutex</text>
</g>
<!-- Node29&#45;&gt;Node1 -->
<g id="edge46" class="edge">
<title>Node29&#45;&gt;Node1</title>
<path fill="none" stroke="#9a32cd" stroke-dasharray="5,2" d="M1447.16,-642.89C1609.27,-625.7 1940.19,-587.67 2217.55,-537 2268.5,-527.69 2327.08,-512.24 2359.71,-503.2"/>
<polygon fill="#9a32cd" stroke="#9a32cd" points="1446.86,-639.4 1437.28,-643.93 1447.6,-646.36 1446.86,-639.4"/>
<text text-anchor="middle" x="1922.8" y="-594.75" font-family="Helvetica,sans-Serif" font-size="10.00"> m_shared_lib_objects</text>
</g>
<!-- Node30&#45;&gt;Node29 -->
<g id="edge47" class="edge">
<title>Node30&#45;&gt;Node29</title>
<path fill="none" stroke="#9a32cd" stroke-dasharray="5,2" d="M1076.88,-653C1130.09,-653 1201.75,-653 1257.7,-653"/>
<polygon fill="#9a32cd" stroke="#9a32cd" points="1076.99,-649.5 1066.99,-653 1076.99,-656.5 1076.99,-649.5"/>
<text text-anchor="middle" x="1161.68" y="-654.75" font-family="Helvetica,sans-Serif" font-size="10.00"> elements</text>
</g>
<!-- Node31&#45;&gt;Node30 -->
<g id="edge48" class="edge">
<title>Node31&#45;&gt;Node30</title>
<path fill="none" stroke="#9a32cd" stroke-dasharray="5,2" d="M771.52,-581.2C815.92,-577.99 871.9,-578.99 918.8,-595.75 928.41,-599.18 928.58,-603.96 936.8,-610 949.54,-619.35 964.1,-629.3 976.04,-637.27"/>
<polygon fill="#9a32cd" stroke="#9a32cd" points="771.39,-577.7 761.71,-582.01 771.96,-584.68 771.39,-577.7"/>
<text text-anchor="middle" x="849.43" y="-596.75" font-family="Helvetica,sans-Serif" font-size="10.00"> ptr</text>
</g>
<!-- Node32&#45;&gt;Node1 -->
<g id="edge52" class="edge">
<title>Node32&#45;&gt;Node1</title>
<path fill="none" stroke="#9a32cd" stroke-dasharray="5,2" d="M2833.65,-571.82C2744.79,-570.22 2600.19,-563.56 2478.05,-539 2456,-534.57 2450.38,-532.6 2430.05,-523 2419.85,-518.18 2409.1,-511.43 2400.9,-505.89"/>
<polygon fill="#9a32cd" stroke="#9a32cd" points="2833.44,-575.32 2843.5,-571.98 2833.56,-568.32 2833.44,-575.32"/>
<text text-anchor="middle" x="2621.55" y="-562.75" font-family="Helvetica,sans-Serif" font-size="10.00"> m_futures</text>
</g>
<!-- Node33&#45;&gt;Node32 -->
<g id="edge53" class="edge">
<title>Node33&#45;&gt;Node32</title>
<path fill="none" stroke="#9a32cd" stroke-dasharray="5,2" d="M2777.85,-534.44C2793.99,-538.31 2811.32,-542.58 2827.3,-546.75 2838.7,-549.72 2850.88,-553.05 2862.47,-556.3"/>
<polygon fill="#9a32cd" stroke="#9a32cd" points="2778.92,-531.09 2768.38,-532.18 2777.29,-537.9 2778.92,-531.09"/>
<text text-anchor="middle" x="2805.93" y="-547.75" font-family="Helvetica,sans-Serif" font-size="10.00"> elements</text>
</g>
<!-- Node34&#45;&gt;Node33 -->
<g id="edge54" class="edge">
<title>Node34&#45;&gt;Node33</title>
<path fill="none" stroke="#9a32cd" stroke-dasharray="5,2" d="M2591.67,-520C2614.61,-520 2640.38,-520 2662.32,-520"/>
<polygon fill="#9a32cd" stroke="#9a32cd" points="2591.83,-516.5 2581.83,-520 2591.83,-523.5 2591.83,-516.5"/>
<text text-anchor="middle" x="2621.55" y="-521.75" font-family="Helvetica,sans-Serif" font-size="10.00"> ptr</text>
</g>
</g>
</svg>
