<?xml version="1.0" encoding="UTF-8" standalone="no"?>
<!DOCTYPE svg PUBLIC "-//W3C//DTD SVG 1.1//EN"
 "http://www.w3.org/Graphics/SVG/1.1/DTD/svg11.dtd">
<!-- Generated by graphviz version 2.49.0 (20210828.1703)
 -->
<!-- Title: C:/Users/folae/Documents/Code/Big&#45;Projects/ArkScript/Ark/include/Ark/Compiler/CValue.hpp Pages: 1 -->
<svg width="716pt" height="218pt"
 viewBox="0.00 0.00 715.94 218.00" xmlns="http://www.w3.org/2000/svg" xmlns:xlink="http://www.w3.org/1999/xlink">
<g id="graph0" class="graph" transform="scale(1 1) rotate(0) translate(4 214)">
<title>C:/Users/folae/Documents/Code/Big&#45;Projects/ArkScript/Ark/include/Ark/Compiler/CValue.hpp</title>
<polygon fill="white" stroke="transparent" points="-4,4 -4,-214 711.94,-214 711.94,4 -4,4"/>
<!-- Node1 -->
<g id="node1" class="node">
<title>Node1</title>
<g id="a_node1"><a xlink:title="The basic value type handled by the compiler.">
<polygon fill="#bfbfbf" stroke="black" points="249.5,-168.5 249.5,-209.5 430.5,-209.5 430.5,-168.5 249.5,-168.5"/>
<text text-anchor="start" x="257.5" y="-197.5" font-family="Helvetica,sans-Serif" font-size="10.00">C:/Users/folae/Documents</text>
<text text-anchor="start" x="257.5" y="-186.5" font-family="Helvetica,sans-Serif" font-size="10.00">/Code/Big&#45;Projects/ArkScript</text>
<text text-anchor="middle" x="340" y="-175.5" font-family="Helvetica,sans-Serif" font-size="10.00">/Ark/include/Ark/Compiler/CValue.hpp</text>
</a>
</g>
</g>
<!-- Node2 -->
<g id="node2" class="node">
<title>Node2</title>
<g id="a_node2"><a xlink:title=" ">
<polygon fill="white" stroke="#bfbfbf" points="0,-56.5 0,-75.5 44,-75.5 44,-56.5 0,-56.5"/>
<text text-anchor="middle" x="22" y="-63.5" font-family="Helvetica,sans-Serif" font-size="10.00">variant</text>
</a>
</g>
</g>
<!-- Node1&#45;&gt;Node2 -->
<g id="edge1" class="edge">
<title>Node1&#45;&gt;Node2</title>
<path fill="none" stroke="midnightblue" d="M288.55,-168.42C222.2,-143.18 108.78,-100.02 53.78,-79.09"/>
<polygon fill="midnightblue" stroke="midnightblue" points="54.8,-75.74 44.21,-75.45 52.32,-82.28 54.8,-75.74"/>
</g>
<!-- Node3 -->
<g id="node3" class="node">
<title>Node3</title>
<g id="a_node3"><a xlink:title=" ">
<polygon fill="white" stroke="#bfbfbf" points="591.5,-0.5 591.5,-19.5 632.5,-19.5 632.5,-0.5 591.5,-0.5"/>
<text text-anchor="middle" x="612" y="-7.5" font-family="Helvetica,sans-Serif" font-size="10.00">string</text>
</a>
</g>
</g>
<!-- Node1&#45;&gt;Node3 -->
<g id="edge2" class="edge">
<title>Node1&#45;&gt;Node3</title>
<path fill="none" stroke="midnightblue" d="M430.56,-172.62C527.08,-154.16 670.45,-120.11 703,-76 722.59,-49.46 676.08,-29.51 642.59,-19.1"/>
<polygon fill="midnightblue" stroke="midnightblue" points="643.28,-15.66 632.7,-16.18 641.3,-22.37 643.28,-15.66"/>
</g>
<!-- Node4 -->
<g id="node4" class="node">
<title>Node4</title>
<g id="a_node4"><a xlink:href="../../d7/dc6/Node_8hpp.html" target="_top" xlink:title="AST node used by the parser, optimizer and compiler.">
<polygon fill="white" stroke="black" points="281.5,-112.5 281.5,-131.5 398.5,-131.5 398.5,-112.5 281.5,-112.5"/>
<text text-anchor="middle" x="340" y="-119.5" font-family="Helvetica,sans-Serif" font-size="10.00">Ark/Compiler/Node.hpp</text>
</a>
</g>
</g>
<!-- Node1&#45;&gt;Node4 -->
<g id="edge3" class="edge">
<title>Node1&#45;&gt;Node4</title>
<path fill="none" stroke="midnightblue" d="M340,-168.5C340,-160.07 340,-150.24 340,-141.87"/>
<polygon fill="midnightblue" stroke="midnightblue" points="343.5,-141.65 340,-131.65 336.5,-141.65 343.5,-141.65"/>
</g>
<!-- Node4&#45;&gt;Node2 -->
<g id="edge4" class="edge">
<title>Node4&#45;&gt;Node2</title>
<path fill="none" stroke="midnightblue" d="M281.33,-114.02C225.25,-106.85 138.22,-94.42 54.22,-76.04"/>
<polygon fill="midnightblue" stroke="midnightblue" points="54.78,-72.58 44.26,-73.83 53.27,-79.41 54.78,-72.58"/>
</g>
<!-- Node4&#45;&gt;Node3 -->
<g id="edge7" class="edge">
<title>Node4&#45;&gt;Node3</title>
<path fill="none" stroke="midnightblue" d="M398.66,-117.62C464.27,-112.65 565.02,-101.1 593,-76 605.97,-64.36 610.29,-44.41 611.63,-29.68"/>
<polygon fill="midnightblue" stroke="midnightblue" points="615.13,-29.82 612.17,-19.65 608.14,-29.45 615.13,-29.82"/>
</g>
<!-- Node5 -->
<g id="node5" class="node">
<title>Node5</title>
<g id="a_node5"><a xlink:title=" ">
<polygon fill="white" stroke="#bfbfbf" points="640,-56.5 640,-75.5 694,-75.5 694,-56.5 640,-56.5"/>
<text text-anchor="middle" x="667" y="-63.5" font-family="Helvetica,sans-Serif" font-size="10.00">iostream</text>
</a>
</g>
</g>
<!-- Node4&#45;&gt;Node5 -->
<g id="edge5" class="edge">
<title>Node4&#45;&gt;Node5</title>
<path fill="none" stroke="midnightblue" d="M398.51,-112.84C456.44,-104.52 547.58,-90.76 626,-76 627.25,-75.76 628.52,-75.52 629.8,-75.27"/>
<polygon fill="midnightblue" stroke="midnightblue" points="630.61,-78.67 639.7,-73.23 629.2,-71.82 630.61,-78.67"/>
</g>
<!-- Node6 -->
<g id="node6" class="node">
<title>Node6</title>
<g id="a_node6"><a xlink:title=" ">
<polygon fill="white" stroke="#bfbfbf" points="182,-56.5 182,-75.5 220,-75.5 220,-56.5 182,-56.5"/>
<text text-anchor="middle" x="201" y="-63.5" font-family="Helvetica,sans-Serif" font-size="10.00">array</text>
</a>
</g>
</g>
<!-- Node4&#45;&gt;Node6 -->
<g id="edge6" class="edge">
<title>Node4&#45;&gt;Node6</title>
<path fill="none" stroke="midnightblue" d="M317.98,-112.44C294.08,-103.16 255.85,-88.31 229.64,-78.13"/>
<polygon fill="midnightblue" stroke="midnightblue" points="230.82,-74.83 220.24,-74.47 228.29,-81.36 230.82,-74.83"/>
</g>
<!-- Node7 -->
<g id="node7" class="node">
<title>Node7</title>
<g id="a_node7"><a xlink:title=" ">
<polygon fill="white" stroke="#bfbfbf" points="238,-56.5 238,-75.5 280,-75.5 280,-56.5 238,-56.5"/>
<text text-anchor="middle" x="259" y="-63.5" font-family="Helvetica,sans-Serif" font-size="10.00">vector</text>
</a>
</g>
</g>
<!-- Node4&#45;&gt;Node7 -->
<g id="edge8" class="edge">
<title>Node4&#45;&gt;Node7</title>
<path fill="none" stroke="midnightblue" d="M326.99,-112.32C314.47,-103.98 295.32,-91.21 280.53,-81.35"/>
<polygon fill="midnightblue" stroke="midnightblue" points="282.24,-78.29 271.98,-75.65 278.36,-84.11 282.24,-78.29"/>
</g>
<!-- Node8 -->
<g id="node8" class="node">
<title>Node8</title>
<g id="a_node8"><a xlink:title=" ">
<polygon fill="white" stroke="#bfbfbf" points="298.5,-56.5 298.5,-75.5 381.5,-75.5 381.5,-56.5 298.5,-56.5"/>
<text text-anchor="middle" x="340" y="-63.5" font-family="Helvetica,sans-Serif" font-size="10.00">unordered_map</text>
</a>
</g>
</g>
<!-- Node4&#45;&gt;Node8 -->
<g id="edge9" class="edge">
<title>Node4&#45;&gt;Node8</title>
<path fill="none" stroke="midnightblue" d="M340,-112.08C340,-105.01 340,-94.86 340,-85.99"/>
<polygon fill="midnightblue" stroke="midnightblue" points="343.5,-85.75 340,-75.75 336.5,-85.75 343.5,-85.75"/>
</g>
<!-- Node9 -->
<g id="node9" class="node">
<title>Node9</title>
<g id="a_node9"><a xlink:href="../../d5/d40/Platform_8hpp.html" target="_top" xlink:title="ArkScript configuration macros.">
<polygon fill="white" stroke="black" points="399.5,-56.5 399.5,-75.5 488.5,-75.5 488.5,-56.5 399.5,-56.5"/>
<text text-anchor="middle" x="444" y="-63.5" font-family="Helvetica,sans-Serif" font-size="10.00">Ark/Platform.hpp</text>
</a>
</g>
</g>
<!-- Node4&#45;&gt;Node9 -->
<g id="edge10" class="edge">
<title>Node4&#45;&gt;Node9</title>
<path fill="none" stroke="midnightblue" d="M356.71,-112.32C373.31,-103.7 399,-90.36 418.22,-80.39"/>
<polygon fill="midnightblue" stroke="midnightblue" points="420.07,-83.37 427.33,-75.65 416.84,-77.16 420.07,-83.37"/>
</g>
<!-- Node10 -->
<g id="node10" class="node">
<title>Node10</title>
<g id="a_node10"><a xlink:href="../../d2/de9/Exceptions_8hpp.html" target="_top" xlink:title="ArkScript homemade exceptions.">
<polygon fill="white" stroke="black" points="62,-56.5 62,-75.5 164,-75.5 164,-56.5 62,-56.5"/>
<text text-anchor="middle" x="113" y="-63.5" font-family="Helvetica,sans-Serif" font-size="10.00">Ark/Exceptions.hpp</text>
</a>
</g>
</g>
<!-- Node4&#45;&gt;Node10 -->
<g id="edge11" class="edge">
<title>Node4&#45;&gt;Node10</title>
<path fill="none" stroke="midnightblue" d="M304.03,-112.44C264.68,-103.08 201.51,-88.06 158.69,-77.87"/>
<polygon fill="midnightblue" stroke="midnightblue" points="159.34,-74.43 148.8,-75.52 157.72,-81.24 159.34,-74.43"/>
</g>
<!-- Node12 -->
<g id="node12" class="node">
<title>Node12</title>
<g id="a_node12"><a xlink:title=" ">
<polygon fill="white" stroke="#bfbfbf" points="506.5,-56.5 506.5,-75.5 583.5,-75.5 583.5,-56.5 506.5,-56.5"/>
<text text-anchor="middle" x="545" y="-63.5" font-family="Helvetica,sans-Serif" font-size="10.00">inline/Node.inl</text>
</a>
</g>
</g>
<!-- Node4&#45;&gt;Node12 -->
<g id="edge14" class="edge">
<title>Node4&#45;&gt;Node12</title>
<path fill="none" stroke="midnightblue" d="M372.48,-112.44C407.72,-103.16 464.1,-88.31 502.76,-78.13"/>
<polygon fill="midnightblue" stroke="midnightblue" points="503.89,-81.45 512.67,-75.52 502.11,-74.68 503.89,-81.45"/>
</g>
<!-- Node10&#45;&gt;Node3 -->
<g id="edge13" class="edge">
<title>Node10&#45;&gt;Node3</title>
<path fill="none" stroke="midnightblue" d="M164.04,-57.18C167.07,-56.77 170.07,-56.37 173,-56 325.92,-36.7 509.6,-19.95 581.26,-13.65"/>
<polygon fill="midnightblue" stroke="midnightblue" points="581.73,-17.12 591.39,-12.77 581.12,-10.15 581.73,-17.12"/>
</g>
<!-- Node11 -->
<g id="node11" class="node">
<title>Node11</title>
<g id="a_node11"><a xlink:title=" ">
<polygon fill="white" stroke="#bfbfbf" points="83.5,-0.5 83.5,-19.5 142.5,-19.5 142.5,-0.5 83.5,-0.5"/>
<text text-anchor="middle" x="113" y="-7.5" font-family="Helvetica,sans-Serif" font-size="10.00">exception</text>
</a>
</g>
</g>
<!-- Node10&#45;&gt;Node11 -->
<g id="edge12" class="edge">
<title>Node10&#45;&gt;Node11</title>
<path fill="none" stroke="midnightblue" d="M113,-56.08C113,-49.01 113,-38.86 113,-29.99"/>
<polygon fill="midnightblue" stroke="midnightblue" points="116.5,-29.75 113,-19.75 109.5,-29.75 116.5,-29.75"/>
</g>
</g>
</svg>
