<?xml version="1.0" encoding="UTF-8" standalone="no"?>
<!DOCTYPE svg PUBLIC "-//W3C//DTD SVG 1.1//EN"
 "http://www.w3.org/Graphics/SVG/1.1/DTD/svg11.dtd">
<!-- Generated by graphviz version 7.1.0 (20230121.1956)
 -->
<!-- Title: Ark::internal::MacroScope Pages: 1 -->
<svg width="450pt" height="336pt"
 viewBox="0.00 0.00 450.00 336.00" xmlns="http://www.w3.org/2000/svg" xmlns:xlink="http://www.w3.org/1999/xlink">
<g id="graph0" class="graph" transform="scale(1 1) rotate(0) translate(4 332)">
<title>Ark::internal::MacroScope</title>
<!-- Node1 -->
<g id="node1" class="node">
<title>Node1</title>
<g id="a_node1"><a xlink:title=" ">
<polygon fill="#999999" stroke="#666666" points="259,-19 129,-19 129,0 259,0 259,-19"/>
<text text-anchor="middle" x="194" y="-7" font-family="Helvetica,sans-Serif" font-size="10.00">Ark::internal::MacroScope</text>
</a>
</g>
</g>
<!-- Node2 -->
<g id="node2" class="node">
<title>Node2</title>
<g id="a_node2"><a xlink:title=" ">
<polygon fill="white" stroke="#666666" points="245.5,-107 142.5,-107 142.5,-66 245.5,-66 245.5,-107"/>
<text text-anchor="start" x="150.5" y="-95" font-family="Helvetica,sans-Serif" font-size="10.00">std::unordered_map</text>
<text text-anchor="start" x="150.5" y="-84" font-family="Helvetica,sans-Serif" font-size="10.00">&lt; std::string, Ark::</text>
<text text-anchor="middle" x="194" y="-73" font-family="Helvetica,sans-Serif" font-size="10.00">internal::Node &gt;</text>
</a>
</g>
</g>
<!-- Node2&#45;&gt;Node1 -->
<g id="edge1" class="edge">
<title>Node2&#45;&gt;Node1</title>
<path fill="none" stroke="#9a32cd" stroke-dasharray="5,2" d="M194,-54.53C194,-41.74 194,-27.92 194,-19.24"/>
<polygon fill="#9a32cd" stroke="#9a32cd" points="190.5,-54.28 194,-64.28 197.5,-54.28 190.5,-54.28"/>
<text text-anchor="middle" x="218.5" y="-40" font-family="Helvetica,sans-Serif" font-size="10.00"> m_macros</text>
</g>
<!-- Node3 -->
<g id="node3" class="node">
<title>Node3</title>
<g id="a_node3"><a xlink:title=" ">
<polygon fill="white" stroke="#666666" points="177,-261 117,-261 117,-242 177,-242 177,-261"/>
<text text-anchor="middle" x="147" y="-249" font-family="Helvetica,sans-Serif" font-size="10.00">std::string</text>
</a>
</g>
</g>
<!-- Node3&#45;&gt;Node2 -->
<g id="edge2" class="edge">
<title>Node3&#45;&gt;Node2</title>
<path fill="none" stroke="#9a32cd" stroke-dasharray="5,2" d="M168.67,-234.04C171.53,-230.99 174.11,-227.62 176,-224 195.68,-186.28 196.69,-135.02 195.49,-107.29"/>
<polygon fill="#9a32cd" stroke="#9a32cd" points="166.42,-231.35 161.37,-240.67 171.12,-236.53 166.42,-231.35"/>
<text text-anchor="middle" x="205.5" y="-177.5" font-family="Helvetica,sans-Serif" font-size="10.00"> keys</text>
</g>
<!-- Node5 -->
<g id="node5" class="node">
<title>Node5</title>
<g id="a_node5"><a xlink:href="../../dc/d9e/classArk_1_1internal_1_1Node.html" target="_top" xlink:title="A node of an Abstract Syntax Tree for ArkScript.">
<polygon fill="white" stroke="#666666" points="135,-189.5 37,-189.5 37,-170.5 135,-170.5 135,-189.5"/>
<text text-anchor="middle" x="86" y="-177.5" font-family="Helvetica,sans-Serif" font-size="10.00">Ark::internal::Node</text>
</a>
</g>
</g>
<!-- Node3&#45;&gt;Node5 -->
<g id="edge9" class="edge">
<title>Node3&#45;&gt;Node5</title>
<path fill="none" stroke="#9a32cd" stroke-dasharray="5,2" d="M130.71,-233.53C127.78,-230.39 124.77,-227.12 122,-224 111.65,-212.36 100.18,-198.47 93.02,-189.69"/>
<polygon fill="#9a32cd" stroke="#9a32cd" points="128.07,-235.84 137.49,-240.69 133.16,-231.02 128.07,-235.84"/>
<text text-anchor="middle" x="149" y="-216" font-family="Helvetica,sans-Serif" font-size="10.00"> m_filename</text>
</g>
<!-- Node4 -->
<g id="node4" class="node">
<title>Node4</title>
<g id="a_node4"><a xlink:title=" ">
<polygon fill="white" stroke="#666666" points="194.5,-328 99.5,-328 99.5,-298 194.5,-298 194.5,-328"/>
<text text-anchor="start" x="107.5" y="-316" font-family="Helvetica,sans-Serif" font-size="10.00">std::basic_string&lt;</text>
<text text-anchor="middle" x="147" y="-305" font-family="Helvetica,sans-Serif" font-size="10.00"> Char &gt;</text>
</a>
</g>
</g>
<!-- Node4&#45;&gt;Node3 -->
<g id="edge3" class="edge">
<title>Node4&#45;&gt;Node3</title>
<path fill="none" stroke="#63b8ff" d="M147,-286.13C147,-277.29 147,-267.99 147,-261.42"/>
<polygon fill="#63b8ff" stroke="#63b8ff" points="143.5,-286.08 147,-296.08 150.5,-286.08 143.5,-286.08"/>
</g>
<!-- Node5&#45;&gt;Node2 -->
<g id="edge4" class="edge">
<title>Node5&#45;&gt;Node2</title>
<path fill="none" stroke="#9a32cd" stroke-dasharray="5,2" d="M99.08,-161.38C107.91,-150.18 120.24,-135.81 133,-125 140.49,-118.65 149.17,-112.65 157.59,-107.39"/>
<polygon fill="#9a32cd" stroke="#9a32cd" points="96.52,-158.96 93.22,-169.03 102.08,-163.22 96.52,-158.96"/>
<text text-anchor="middle" x="154.5" y="-133.5" font-family="Helvetica,sans-Serif" font-size="10.00"> elements</text>
</g>
<!-- Node6 -->
<g id="node6" class="node">
<title>Node6</title>
<g id="a_node6"><a xlink:title=" ">
<polygon fill="white" stroke="#666666" points="124,-101.5 0,-101.5 0,-71.5 124,-71.5 124,-101.5"/>
<text text-anchor="start" x="8" y="-89.5" font-family="Helvetica,sans-Serif" font-size="10.00">std::vector&lt; Ark::internal</text>
<text text-anchor="middle" x="62" y="-78.5" font-family="Helvetica,sans-Serif" font-size="10.00">::Node &gt;</text>
</a>
</g>
</g>
<!-- Node5&#45;&gt;Node6 -->
<g id="edge6" class="edge">
<title>Node5&#45;&gt;Node6</title>
<path fill="none" stroke="#9a32cd" stroke-dasharray="5,2" d="M73.09,-160.44C70.68,-156.19 68.47,-151.58 67,-147 62.2,-131.99 61.33,-113.83 61.43,-101.55"/>
<polygon fill="#9a32cd" stroke="#9a32cd" points="70.04,-162.16 78.35,-168.74 75.95,-158.42 70.04,-162.16"/>
<text text-anchor="middle" x="88.5" y="-133.5" font-family="Helvetica,sans-Serif" font-size="10.00"> elements</text>
</g>
<!-- Node6&#45;&gt;Node5 -->
<g id="edge5" class="edge">
<title>Node6&#45;&gt;Node5</title>
<path fill="none" stroke="#9a32cd" stroke-dasharray="5,2" d="M26.37,-109C21.37,-113.63 16.94,-118.97 14,-125 9.71,-133.79 8.67,-138.8 14,-147 21.16,-158.01 33.07,-165.26 45.17,-170.03"/>
<polygon fill="#9a32cd" stroke="#9a32cd" points="28.41,-111.86 33.98,-102.85 24.01,-106.41 28.41,-111.86"/>
<text text-anchor="middle" x="29" y="-133.5" font-family="Helvetica,sans-Serif" font-size="10.00"> m_list</text>
</g>
<!-- Node7 -->
<g id="node7" class="node">
<title>Node7</title>
<g id="a_node7"><a xlink:title=" ">
<polygon fill="white" stroke="#666666" points="320.5,-189.5 233.5,-189.5 233.5,-170.5 320.5,-170.5 320.5,-189.5"/>
<text text-anchor="middle" x="277" y="-177.5" font-family="Helvetica,sans-Serif" font-size="10.00">std::vector&lt; T &gt;</text>
</a>
</g>
</g>
<!-- Node7&#45;&gt;Node6 -->
<g id="edge7" class="edge">
<title>Node7&#45;&gt;Node6</title>
<path fill="none" stroke="orange" stroke-dasharray="5,2" d="M253.29,-164.03C234.06,-152.33 205.98,-136.22 180,-125 159.38,-116.09 135.93,-108.21 115.4,-101.99"/>
<polygon fill="orange" stroke="orange" points="251.36,-166.95 261.71,-169.23 255.03,-161 251.36,-166.95"/>
<text text-anchor="middle" x="275.5" y="-133.5" font-family="Helvetica,sans-Serif" font-size="10.00"> &lt; Ark::internal::Node &gt;</text>
</g>
<!-- Node8 -->
<g id="node8" class="node">
<title>Node8</title>
<g id="a_node8"><a xlink:title=" ">
<polygon fill="white" stroke="#666666" points="324.5,-261 295.5,-261 295.5,-242 324.5,-242 324.5,-261"/>
<text text-anchor="middle" x="310" y="-249" font-family="Helvetica,sans-Serif" font-size="10.00">T</text>
</a>
</g>
</g>
<!-- Node8&#45;&gt;Node7 -->
<g id="edge8" class="edge">
<title>Node8&#45;&gt;Node7</title>
<path fill="none" stroke="#9a32cd" stroke-dasharray="5,2" d="M286.31,-235.07C282.97,-231.82 280,-228.12 278,-224 272.73,-213.11 273.73,-198.79 275.17,-189.73"/>
<polygon fill="#9a32cd" stroke="#9a32cd" points="283.89,-237.61 293.86,-241.19 288.3,-232.17 283.89,-237.61"/>
<text text-anchor="middle" x="299.5" y="-216" font-family="Helvetica,sans-Serif" font-size="10.00"> elements</text>
</g>
<!-- Node9 -->
<g id="node9" class="node">
<title>Node9</title>
<g id="a_node9"><a xlink:title=" ">
<polygon fill="white" stroke="#666666" points="441.5,-195 338.5,-195 338.5,-165 441.5,-165 441.5,-195"/>
<text text-anchor="start" x="346.5" y="-183" font-family="Helvetica,sans-Serif" font-size="10.00">std::unordered_map</text>
<text text-anchor="middle" x="390" y="-172" font-family="Helvetica,sans-Serif" font-size="10.00">&lt; K, T &gt;</text>
</a>
</g>
</g>
<!-- Node8&#45;&gt;Node9 -->
<g id="edge12" class="edge">
<title>Node8&#45;&gt;Node9</title>
<path fill="none" stroke="#9a32cd" stroke-dasharray="5,2" d="M327.6,-234.02C334.78,-227.4 343.21,-219.75 351,-213 357.75,-207.15 365.31,-200.88 371.97,-195.46"/>
<polygon fill="#9a32cd" stroke="#9a32cd" points="325.37,-231.32 320.42,-240.69 330.13,-236.44 325.37,-231.32"/>
<text text-anchor="middle" x="372.5" y="-216" font-family="Helvetica,sans-Serif" font-size="10.00"> elements</text>
</g>
<!-- Node9&#45;&gt;Node2 -->
<g id="edge10" class="edge">
<title>Node9&#45;&gt;Node2</title>
<path fill="none" stroke="orange" stroke-dasharray="5,2" d="M374.03,-155.86C365.42,-145.01 353.92,-132.78 341,-125 312.12,-107.61 275.37,-98.24 245.84,-93.21"/>
<polygon fill="orange" stroke="orange" points="371.11,-157.79 379.91,-163.69 376.71,-153.59 371.11,-157.79"/>
<text text-anchor="start" x="366" y="-139" font-family="Helvetica,sans-Serif" font-size="10.00"> &lt; std::string, Ark</text>
<text text-anchor="middle" x="404" y="-128" font-family="Helvetica,sans-Serif" font-size="10.00">::internal::Node &gt;</text>
</g>
<!-- Node10 -->
<g id="node10" class="node">
<title>Node10</title>
<g id="a_node10"><a xlink:title=" ">
<polygon fill="white" stroke="#666666" points="423.5,-261 394.5,-261 394.5,-242 423.5,-242 423.5,-261"/>
<text text-anchor="middle" x="409" y="-249" font-family="Helvetica,sans-Serif" font-size="10.00">K</text>
</a>
</g>
</g>
<!-- Node10&#45;&gt;Node9 -->
<g id="edge11" class="edge">
<title>Node10&#45;&gt;Node9</title>
<path fill="none" stroke="#9a32cd" stroke-dasharray="5,2" d="M403.6,-230.76C400.51,-219.45 396.7,-205.52 393.9,-195.27"/>
<polygon fill="#9a32cd" stroke="#9a32cd" points="400.18,-231.51 406.19,-240.24 406.93,-229.67 400.18,-231.51"/>
<text text-anchor="middle" x="413.5" y="-216" font-family="Helvetica,sans-Serif" font-size="10.00"> keys</text>
</g>
</g>
</svg>
