<?xml version="1.0" encoding="UTF-8" standalone="no"?>
<!DOCTYPE svg PUBLIC "-//W3C//DTD SVG 1.1//EN"
 "http://www.w3.org/Graphics/SVG/1.1/DTD/svg11.dtd">
<!-- Generated by graphviz version 12.1.1 (20240910.0053)
 -->
<!-- Title: Ark::internal::FunctionExecutor Pages: 1 -->
<!--zoomable 361 -->

<svg id="main" version="1.1" xmlns="http://www.w3.org/2000/svg" xmlns:xlink="http://www.w3.org/1999/xlink" xml:space="preserve" onload="init(evt)">

<style type="text/css"><![CDATA[
.node, .edge {opacity: 0.7;}
.node.selected, .edge.selected {opacity: 1;}
.edge:hover path { stroke: red; }
.edge:hover polygon { stroke: red; fill: red; }
]]></style>

<defs>
  <circle id="rim" cx="0" cy="0" r="7"/>
  <circle id="rim2" cx="0" cy="0" r="3.5"/>
  <g id="zoomPlus">
    <use xlink:href="#rim" fill="#404040"><set attributeName="fill" to="#808080" begin="zoomplus.mouseover" end="zoomplus.mouseout"/></use>
    <path d="M-4,0h8M0,-4v8" fill="none" stroke="white" stroke-width="1.5" pointer-events="none"/>
  </g>
  <g id="zoomMin">
    <use xlink:href="#rim" fill="#404040"><set attributeName="fill" to="#808080" begin="zoomminus.mouseover" end="zoomminus.mouseout"/></use>
    <path d="M-4,0h8" fill="none" stroke="white" stroke-width="1.5" pointer-events="none"/>
  </g>
  <g id="arrowUp" transform="translate(30 24)">
    <use xlink:href="#rim"/>
    <path pointer-events="none" fill="none" stroke="white" stroke-width="1.5" d="M0,-3.0v7 M-2.5,-0.5L0,-3.0L2.5,-0.5"/>
  </g>
  <g id="arrowRight" transform="rotate(90) translate(36 -43)">
    <use xlink:href="#rim"/>
    <path pointer-events="none" fill="none" stroke="white" stroke-width="1.5" d="M0,-3.0v7 M-2.5,-0.5L0,-3.0L2.5,-0.5"/>
  </g>
  <g id="arrowDown" transform="rotate(180) translate(-30 -48)">
    <use xlink:href="#rim"/>
    <path pointer-events="none" fill="none" stroke="white" stroke-width="1.5" d="M0,-3.0v7 M-2.5,-0.5L0,-3.0L2.5,-0.5"/>
  </g>
  <g id="arrowLeft" transform="rotate(270) translate(-36 17)">
    <use xlink:href="#rim"/>
    <path pointer-events="none" fill="none" stroke="white" stroke-width="1.5" d="M0,-3.0v7 M-2.5,-0.5L0,-3.0L2.5,-0.5"/>
  </g>
  <g id="resetDef">
    <use xlink:href="#rim2" fill="#404040"><set attributeName="fill" to="#808080" begin="reset.mouseover" end="reset.mouseout"/></use>
  </g>
</defs>
<script type="application/ecmascript">
var viewWidth = 1595;
var viewHeight = 361;
var sectionId = 'dynsection-1';
</script>
<script type="application/ecmascript" xlink:href="../../svg.min.js"/>
<svg id="graph" class="graph">
<g id="viewport">
<title>Ark::internal::FunctionExecutor</title>
<!-- Node1 -->
<g id="Node000001" class="node">
<title>Node1</title>
<g id="a_Node000001"><a xlink:title="Handles function macros.">
<polygon fill="#999999" stroke="#666666" points="982,-303.92 831,-303.92 831,-284.67 982,-284.67 982,-303.92"/>
<text text-anchor="middle" x="906.5" y="-290.42" font-family="Helvetica,sans-Serif" font-size="10.00">Ark::internal::FunctionExecutor</text>
</a>
</g>
</g>
<!-- Node2 -->
<g id="Node000002" class="node">
<title>Node2</title>
<g id="a_Node000002"><a xlink:href="../../d5/d8f/classArk_1_1internal_1_1MacroExecutor.html" target="_top" xlink:title="A class that applies macros in a Node.">
<polygon fill="white" stroke="#666666" points="695.88,-296.92 555.38,-296.92 555.38,-277.67 695.88,-277.67 695.88,-296.92"/>
<text text-anchor="middle" x="625.62" y="-283.42" font-family="Helvetica,sans-Serif" font-size="10.00">Ark::internal::MacroExecutor</text>
</a>
</g>
</g>
<!-- Node2&#45;&gt;Node1 -->
<g id="edge1_Node000001_Node000002" class="edge">
<title>Node2&#45;&gt;Node1</title>
<g id="a_edge1_Node000001_Node000002"><a xlink:title=" ">
<path fill="none" stroke="#63b8ff" d="M707.57,-289.33C746.48,-290.31 792.82,-291.47 830.88,-292.42"/>
<polygon fill="#63b8ff" stroke="#63b8ff" points="707.88,-285.84 697.79,-289.08 707.7,-292.83 707.88,-285.84"/>
</a>
</g>
</g>
<!-- Node17 -->
<g id="Node000017" class="node">
<title>Node17</title>
<g id="a_Node000017"><a xlink:title=" ">
<polygon fill="white" stroke="#666666" points="973.75,-352.55 839.25,-352.55 839.25,-322.05 973.75,-322.05 973.75,-352.55"/>
<text text-anchor="start" x="847.25" y="-339.05" font-family="Helvetica,sans-Serif" font-size="10.00">std::shared_ptr&lt; Ark</text>
<text text-anchor="middle" x="906.5" y="-327.8" font-family="Helvetica,sans-Serif" font-size="10.00">::internal::MacroExecutor &gt;</text>
</a>
</g>
</g>
<!-- Node2&#45;&gt;Node17 -->
<g id="edge21_Node000017_Node000002" class="edge">
<title>Node2&#45;&gt;Node17</title>
<g id="a_edge21_Node000017_Node000002"><a xlink:title=" ">
<path fill="none" stroke="#9a32cd" stroke-dasharray="5,2" d="M694.21,-299.41C738.12,-307.29 795.12,-317.51 838.84,-325.35"/>
<polygon fill="#9a32cd" stroke="#9a32cd" points="695.01,-296 684.55,-297.68 693.77,-302.89 695.01,-296"/>
</a>
</g>
<text text-anchor="middle" x="764.5" y="-321.45" font-family="Helvetica,sans-Serif" font-size="10.00" fill="grey"> ptr</text>
</g>
<!-- Node3 -->
<g id="Node000003" class="node">
<title>Node3</title>
<g id="a_Node000003"><a xlink:href="../../d5/db5/classArk_1_1internal_1_1MacroProcessor.html" target="_top" xlink:title="The class handling the macros definitions and calls, given an AST.">
<polygon fill="white" stroke="#666666" points="1587,-138.92 1441.25,-138.92 1441.25,-119.67 1587,-119.67 1587,-138.92"/>
<text text-anchor="middle" x="1514.12" y="-125.42" font-family="Helvetica,sans-Serif" font-size="10.00">Ark::internal::MacroProcessor</text>
</a>
</g>
</g>
<!-- Node3&#45;&gt;Node2 -->
<g id="edge2_Node000002_Node000003" class="edge">
<title>Node3&#45;&gt;Node2</title>
<g id="a_edge2_Node000002_Node000003"><a xlink:title=" ">
<path fill="none" stroke="#9a32cd" stroke-dasharray="5,2" d="M1470.61,-142.85C1455.67,-147.53 1438.74,-152.74 1423.25,-157.3 1300.04,-193.51 1270.96,-210.57 1144.75,-234.3 985.9,-264.16 796.28,-278.16 696.3,-283.89"/>
<polygon fill="#9a32cd" stroke="#9a32cd" points="1471.66,-146.19 1480.15,-139.85 1469.56,-139.51 1471.66,-146.19"/>
</a>
</g>
<text text-anchor="middle" x="1072.38" y="-257.98" font-family="Helvetica,sans-Serif" font-size="10.00" fill="grey"> m_processor</text>
</g>
<!-- Node4 -->
<g id="Node000004" class="node">
<title>Node4</title>
<g id="a_Node000004"><a xlink:href="../../da/d7b/classArk_1_1internal_1_1Pass.html" target="_top" xlink:title="An interface to describe compiler passes.">
<polygon fill="white" stroke="#666666" points="813,-36.92 716,-36.92 716,-17.67 813,-17.67 813,-36.92"/>
<text text-anchor="middle" x="764.5" y="-23.42" font-family="Helvetica,sans-Serif" font-size="10.00">Ark::internal::Pass</text>
</a>
</g>
</g>
<!-- Node4&#45;&gt;Node3 -->
<g id="edge3_Node000003_Node000004" class="edge">
<title>Node4&#45;&gt;Node3</title>
<g id="a_edge3_Node000003_Node000004"><a xlink:title=" ">
<path fill="none" stroke="#63b8ff" d="M824.72,-17.67C943.08,-1.01 1215.36,24.31 1423.25,-55.3 1458.74,-68.88 1490.57,-102.42 1504.98,-119.28"/>
<polygon fill="#63b8ff" stroke="#63b8ff" points="824.31,-14.2 814.91,-19.09 825.31,-21.12 824.31,-14.2"/>
</a>
</g>
</g>
<!-- Node5 -->
<g id="Node000005" class="node">
<title>Node5</title>
<g id="a_Node000005"><a xlink:href="../../d6/d2f/classArk_1_1internal_1_1Logger.html" target="_top" xlink:title=" ">
<polygon fill="white" stroke="#666666" points="412,-42.92 308.25,-42.92 308.25,-23.67 412,-23.67 412,-42.92"/>
<text text-anchor="middle" x="360.12" y="-29.42" font-family="Helvetica,sans-Serif" font-size="10.00">Ark::internal::Logger</text>
</a>
</g>
</g>
<!-- Node5&#45;&gt;Node4 -->
<g id="edge4_Node000004_Node000005" class="edge">
<title>Node5&#45;&gt;Node4</title>
<g id="a_edge4_Node000004_Node000005"><a xlink:title=" ">
<path fill="none" stroke="#9a32cd" stroke-dasharray="5,2" d="M423.97,-32.36C504.64,-31.16 642.86,-29.1 715.57,-28.01"/>
<polygon fill="#9a32cd" stroke="#9a32cd" points="423.95,-28.86 414.01,-32.51 424.06,-35.86 423.95,-28.86"/>
</a>
</g>
<text text-anchor="middle" x="482.62" y="-33.96" font-family="Helvetica,sans-Serif" font-size="10.00" fill="grey"> m_logger</text>
</g>
<!-- Node6 -->
<g id="Node000006" class="node">
<title>Node6</title>
<g id="a_Node000006"><a xlink:title=" ">
<polygon fill="white" stroke="#666666" points="190.5,-85.92 131,-85.92 131,-66.67 190.5,-66.67 190.5,-85.92"/>
<text text-anchor="middle" x="160.75" y="-72.42" font-family="Helvetica,sans-Serif" font-size="10.00">std::string</text>
</a>
</g>
</g>
<!-- Node6&#45;&gt;Node5 -->
<g id="edge5_Node000005_Node000006" class="edge">
<title>Node6&#45;&gt;Node5</title>
<g id="a_edge5_Node000005_Node000006"><a xlink:title=" ">
<path fill="none" stroke="#9a32cd" stroke-dasharray="5,2" d="M201.6,-62.91C203.92,-62.25 206.24,-61.62 208.5,-61.05 241.23,-52.73 278.56,-45.84 307.86,-41"/>
<polygon fill="#9a32cd" stroke="#9a32cd" points="200.77,-59.5 192.2,-65.74 202.79,-66.2 200.77,-59.5"/>
</a>
</g>
<text text-anchor="middle" x="249.38" y="-62.8" font-family="Helvetica,sans-Serif" font-size="10.00" fill="grey"> m_name</text>
</g>
<!-- Node8 -->
<g id="Node000008" class="node">
<title>Node8</title>
<g id="a_Node000008"><a xlink:href="../../dc/d9e/classArk_1_1internal_1_1Node.html" target="_top" xlink:title="A node of an Abstract Syntax Tree for ArkScript.">
<polygon fill="white" stroke="#666666" points="409,-85.92 311.25,-85.92 311.25,-66.67 409,-66.67 409,-85.92"/>
<text text-anchor="middle" x="360.12" y="-72.42" font-family="Helvetica,sans-Serif" font-size="10.00">Ark::internal::Node</text>
</a>
</g>
</g>
<!-- Node6&#45;&gt;Node8 -->
<g id="edge8_Node000008_Node000006" class="edge">
<title>Node6&#45;&gt;Node8</title>
<g id="a_edge8_Node000008_Node000006"><a xlink:title=" ">
<path fill="none" stroke="#9a32cd" stroke-dasharray="5,2" d="M202.32,-76.3C233.9,-76.3 277.8,-76.3 311.12,-76.3"/>
<polygon fill="#9a32cd" stroke="#9a32cd" points="202.39,-72.8 192.39,-76.3 202.39,-79.8 202.39,-72.8"/>
</a>
</g>
<text text-anchor="middle" x="249.38" y="-100.55" font-family="Helvetica,sans-Serif" font-size="10.00" fill="grey"> m_after_comment</text>
<text text-anchor="middle" x="249.38" y="-89.3" font-family="Helvetica,sans-Serif" font-size="10.00" fill="grey">m_comment</text>
<text text-anchor="middle" x="249.38" y="-78.05" font-family="Helvetica,sans-Serif" font-size="10.00" fill="grey">m_filename</text>
</g>
<!-- Node11 -->
<g id="Node000011" class="node">
<title>Node11</title>
<g id="a_Node000011"><a xlink:title=" ">
<polygon fill="white" stroke="#666666" points="676.75,-149.17 574.5,-149.17 574.5,-107.42 676.75,-107.42 676.75,-149.17"/>
<text text-anchor="start" x="582.5" y="-135.67" font-family="Helvetica,sans-Serif" font-size="10.00">std::unordered_map</text>
<text text-anchor="start" x="582.5" y="-124.42" font-family="Helvetica,sans-Serif" font-size="10.00">&lt; std::string, Ark::</text>
<text text-anchor="middle" x="625.62" y="-113.17" font-family="Helvetica,sans-Serif" font-size="10.00">internal::Node &gt;</text>
</a>
</g>
</g>
<!-- Node6&#45;&gt;Node11 -->
<g id="edge12_Node000011_Node000006" class="edge">
<title>Node6&#45;&gt;Node11</title>
<g id="a_edge12_Node000011_Node000006"><a xlink:title=" ">
<path fill="none" stroke="#9a32cd" stroke-dasharray="5,2" d="M178.2,-94.14C186.47,-101.84 197.13,-110.04 208.5,-114.3 274,-138.81 478.22,-134.26 574.04,-130.58"/>
<polygon fill="#9a32cd" stroke="#9a32cd" points="180.87,-91.86 171.32,-87.26 175.92,-96.81 180.87,-91.86"/>
</a>
</g>
<text text-anchor="middle" x="360.12" y="-135.19" font-family="Helvetica,sans-Serif" font-size="10.00" fill="grey"> keys</text>
</g>
<!-- Node7 -->
<g id="Node000007" class="node">
<title>Node7</title>
<g id="a_Node000007"><a xlink:title=" ">
<polygon fill="white" stroke="#666666" points="94,-91.55 0,-91.55 0,-61.05 94,-61.05 94,-91.55"/>
<text text-anchor="start" x="8" y="-78.05" font-family="Helvetica,sans-Serif" font-size="10.00">std::basic_string&lt;</text>
<text text-anchor="middle" x="47" y="-66.8" font-family="Helvetica,sans-Serif" font-size="10.00"> Char &gt;</text>
</a>
</g>
</g>
<!-- Node7&#45;&gt;Node6 -->
<g id="edge6_Node000006_Node000007" class="edge">
<title>Node7&#45;&gt;Node6</title>
<g id="a_edge6_Node000006_Node000007"><a xlink:title=" ">
<path fill="none" stroke="#63b8ff" d="M105.71,-76.3C114.32,-76.3 122.87,-76.3 130.55,-76.3"/>
<polygon fill="#63b8ff" stroke="#63b8ff" points="105.93,-72.8 95.93,-76.3 105.93,-79.8 105.93,-72.8"/>
</a>
</g>
</g>
<!-- Node8&#45;&gt;Node3 -->
<g id="edge7_Node000003_Node000008" class="edge">
<title>Node8&#45;&gt;Node3</title>
<g id="a_edge7_Node000003_Node000008"><a xlink:title=" ">
<path fill="none" stroke="#9a32cd" stroke-dasharray="5,2" d="M420.5,-73.82C473.89,-71.81 554.49,-69.3 624.62,-69.3 624.62,-69.3 624.62,-69.3 1255.38,-69.3 1342.44,-69.3 1441.84,-102.17 1487.61,-119.25"/>
<polygon fill="#9a32cd" stroke="#9a32cd" points="420.57,-70.31 410.71,-74.2 420.84,-77.31 420.57,-70.31"/>
</a>
</g>
<text text-anchor="middle" x="906.5" y="-71.05" font-family="Helvetica,sans-Serif" font-size="10.00" fill="grey"> m_ast</text>
</g>
<!-- Node8&#45;&gt;Node11 -->
<g id="edge13_Node000011_Node000008" class="edge">
<title>Node8&#45;&gt;Node11</title>
<g id="a_edge13_Node000011_Node000008"><a xlink:title=" ">
<path fill="none" stroke="#9a32cd" stroke-dasharray="5,2" d="M420.55,-83.58C454.36,-88.19 497.39,-94.82 535.25,-103.05 548.01,-105.82 561.65,-109.36 574.32,-112.92"/>
<polygon fill="#9a32cd" stroke="#9a32cd" points="421.33,-80.16 410.96,-82.3 420.41,-87.09 421.33,-80.16"/>
</a>
</g>
<text text-anchor="middle" x="482.62" y="-104.8" font-family="Helvetica,sans-Serif" font-size="10.00" fill="grey"> elements</text>
</g>
<!-- Node9 -->
<g id="Node000009" class="node">
<title>Node9</title>
<g id="a_Node000009"><a xlink:title=" ">
<polygon fill="white" stroke="#666666" points="1316,-166.55 1192.75,-166.55 1192.75,-136.05 1316,-136.05 1316,-166.55"/>
<text text-anchor="start" x="1200.75" y="-153.05" font-family="Helvetica,sans-Serif" font-size="10.00">std::vector&lt; Ark::internal</text>
<text text-anchor="middle" x="1254.38" y="-141.8" font-family="Helvetica,sans-Serif" font-size="10.00">::MacroScope &gt;</text>
</a>
</g>
</g>
<!-- Node9&#45;&gt;Node3 -->
<g id="edge9_Node000003_Node000009" class="edge">
<title>Node9&#45;&gt;Node3</title>
<g id="a_edge9_Node000003_Node000009"><a xlink:title=" ">
<path fill="none" stroke="#9a32cd" stroke-dasharray="5,2" d="M1327.69,-145.12C1363.11,-142.1 1405.65,-138.47 1441.04,-135.45"/>
<polygon fill="#9a32cd" stroke="#9a32cd" points="1327.63,-141.62 1317.97,-145.95 1328.23,-148.59 1327.63,-141.62"/>
</a>
</g>
<text text-anchor="middle" x="1393.62" y="-143.36" font-family="Helvetica,sans-Serif" font-size="10.00" fill="grey"> m_macros</text>
</g>
<!-- Node10 -->
<g id="Node000010" class="node">
<title>Node10</title>
<g id="a_Node000010"><a xlink:href="../../d6/d42/classArk_1_1internal_1_1MacroScope.html" target="_top" xlink:title=" ">
<polygon fill="white" stroke="#666666" points="971.12,-155.92 841.88,-155.92 841.88,-136.67 971.12,-136.67 971.12,-155.92"/>
<text text-anchor="middle" x="906.5" y="-142.42" font-family="Helvetica,sans-Serif" font-size="10.00">Ark::internal::MacroScope</text>
</a>
</g>
</g>
<!-- Node10&#45;&gt;Node9 -->
<g id="edge10_Node000009_Node000010" class="edge">
<title>Node10&#45;&gt;Node9</title>
<g id="a_edge10_Node000009_Node000010"><a xlink:title=" ">
<path fill="none" stroke="#9a32cd" stroke-dasharray="5,2" d="M982.54,-143.44C988.45,-143.28 994.32,-143.15 1000,-143.05 1064.32,-141.92 1080.46,-140.61 1144.75,-143.05 1160.25,-143.63 1176.96,-144.69 1192.52,-145.86"/>
<polygon fill="#9a32cd" stroke="#9a32cd" points="982.59,-139.93 972.7,-143.72 982.79,-146.93 982.59,-139.93"/>
</a>
</g>
<text text-anchor="middle" x="1072.38" y="-144.8" font-family="Helvetica,sans-Serif" font-size="10.00" fill="grey"> elements</text>
</g>
<!-- Node11&#45;&gt;Node3 -->
<g id="edge25_Node000003_Node000011" class="edge">
<title>Node11&#45;&gt;Node3</title>
<g id="a_edge25_Node000003_Node000011"><a xlink:title=" ">
<path fill="none" stroke="#9a32cd" stroke-dasharray="5,2" d="M688.36,-127.73C785.47,-126.91 979.87,-125.53 1144.75,-126.05 1234.2,-126.32 1256.56,-126.48 1346,-127.3 1377.19,-127.58 1411.66,-127.98 1441.15,-128.34"/>
<polygon fill="#9a32cd" stroke="#9a32cd" points="688.49,-124.23 678.52,-127.82 688.55,-131.23 688.49,-124.23"/>
</a>
</g>
<text text-anchor="middle" x="1072.38" y="-127.8" font-family="Helvetica,sans-Serif" font-size="10.00" fill="grey"> m_defined_functions</text>
</g>
<!-- Node11&#45;&gt;Node10 -->
<g id="edge11_Node000010_Node000011" class="edge">
<title>Node11&#45;&gt;Node10</title>
<g id="a_edge11_Node000010_Node000011"><a xlink:title=" ">
<path fill="none" stroke="#9a32cd" stroke-dasharray="5,2" d="M688.6,-132.3C734.02,-135.23 795.49,-139.2 841.39,-142.16"/>
<polygon fill="#9a32cd" stroke="#9a32cd" points="688.84,-128.81 678.64,-131.65 688.39,-135.79 688.84,-128.81"/>
</a>
</g>
<text text-anchor="middle" x="764.5" y="-141.71" font-family="Helvetica,sans-Serif" font-size="10.00" fill="grey"> m_macros</text>
</g>
<!-- Node12 -->
<g id="Node000012" class="node">
<title>Node12</title>
<g id="a_Node000012"><a xlink:title=" ">
<polygon fill="white" stroke="#666666" points="411.25,-188.55 309,-188.55 309,-158.05 411.25,-158.05 411.25,-188.55"/>
<text text-anchor="start" x="317" y="-175.05" font-family="Helvetica,sans-Serif" font-size="10.00">std::unordered_map</text>
<text text-anchor="middle" x="360.12" y="-163.8" font-family="Helvetica,sans-Serif" font-size="10.00">&lt; K, T &gt;</text>
</a>
</g>
</g>
<!-- Node12&#45;&gt;Node11 -->
<g id="edge14_Node000011_Node000012" class="edge">
<title>Node12&#45;&gt;Node11</title>
<g id="a_edge14_Node000011_Node000012"><a xlink:title=" ">
<path fill="none" stroke="orange" stroke-dasharray="5,2" d="M422.68,-162.79C468.8,-154.91 531.14,-144.26 574.3,-136.89"/>
<polygon fill="orange" stroke="orange" points="422.38,-159.29 413.11,-164.42 423.56,-166.19 422.38,-159.29"/>
</a>
</g>
<text text-anchor="start" x="444.75" y="-174.23" font-family="Helvetica,sans-Serif" font-size="10.00" fill="grey"> &lt; std::string, Ark</text>
<text text-anchor="middle" x="482.62" y="-162.98" font-family="Helvetica,sans-Serif" font-size="10.00" fill="grey">::internal::Node &gt;</text>
</g>
<!-- Node13 -->
<g id="Node000013" class="node">
<title>Node13</title>
<g id="a_Node000013"><a xlink:title=" ">
<polygon fill="white" stroke="#666666" points="175.15,-175.92 146.35,-175.92 146.35,-156.67 175.15,-156.67 175.15,-175.92"/>
<text text-anchor="middle" x="160.75" y="-162.42" font-family="Helvetica,sans-Serif" font-size="10.00">K</text>
</a>
</g>
</g>
<!-- Node13&#45;&gt;Node12 -->
<g id="edge15_Node000012_Node000013" class="edge">
<title>Node13&#45;&gt;Node12</title>
<g id="a_edge15_Node000012_Node000013"><a xlink:title=" ">
<path fill="none" stroke="#9a32cd" stroke-dasharray="5,2" d="M187.03,-165.81C212.95,-165.47 254.44,-165.32 290.25,-167.05 296.25,-167.34 302.53,-167.75 308.75,-168.23"/>
<polygon fill="#9a32cd" stroke="#9a32cd" points="187.1,-162.31 177.15,-165.97 187.21,-169.31 187.1,-162.31"/>
</a>
</g>
<text text-anchor="middle" x="249.38" y="-168.8" font-family="Helvetica,sans-Serif" font-size="10.00" fill="grey"> keys</text>
</g>
<!-- Node14 -->
<g id="Node000014" class="node">
<title>Node14</title>
<g id="a_Node000014"><a xlink:title=" ">
<polygon fill="white" stroke="#666666" points="175.15,-235.92 146.35,-235.92 146.35,-216.67 175.15,-216.67 175.15,-235.92"/>
<text text-anchor="middle" x="160.75" y="-222.42" font-family="Helvetica,sans-Serif" font-size="10.00">T</text>
</a>
</g>
</g>
<!-- Node14&#45;&gt;Node12 -->
<g id="edge16_Node000012_Node000014" class="edge">
<title>Node14&#45;&gt;Node12</title>
<g id="a_edge16_Node000012_Node000014"><a xlink:title=" ">
<path fill="none" stroke="#9a32cd" stroke-dasharray="5,2" d="M185.34,-211.7C192.56,-207.75 200.67,-203.81 208.5,-201.05 240.85,-189.65 278.85,-182.69 308.58,-178.59"/>
<polygon fill="#9a32cd" stroke="#9a32cd" points="183.76,-208.57 176.85,-216.6 187.26,-214.63 183.76,-208.57"/>
</a>
</g>
<text text-anchor="middle" x="249.38" y="-202.8" font-family="Helvetica,sans-Serif" font-size="10.00" fill="grey"> elements</text>
</g>
<!-- Node15 -->
<g id="Node000015" class="node">
<title>Node15</title>
<g id="a_Node000015"><a xlink:title=" ">
<polygon fill="white" stroke="#666666" points="949.75,-219.92 863.25,-219.92 863.25,-200.67 949.75,-200.67 949.75,-219.92"/>
<text text-anchor="middle" x="906.5" y="-206.42" font-family="Helvetica,sans-Serif" font-size="10.00">std::vector&lt; T &gt;</text>
</a>
</g>
</g>
<!-- Node14&#45;&gt;Node15 -->
<g id="edge18_Node000015_Node000014" class="edge">
<title>Node14&#45;&gt;Node15</title>
<g id="a_edge18_Node000015_Node000014"><a xlink:title=" ">
<path fill="none" stroke="#9a32cd" stroke-dasharray="5,2" d="M186.99,-225.75C295.8,-223.41 725.39,-214.17 862.91,-211.21"/>
<polygon fill="#9a32cd" stroke="#9a32cd" points="187.05,-222.25 177.13,-225.97 187.2,-229.25 187.05,-222.25"/>
</a>
</g>
<text text-anchor="middle" x="482.62" y="-222.24" font-family="Helvetica,sans-Serif" font-size="10.00" fill="grey"> elements</text>
</g>
<!-- Node18 -->
<g id="Node000018" class="node">
<title>Node18</title>
<g id="a_Node000018"><a xlink:title=" ">
<polygon fill="white" stroke="#666666" points="535.25,-335.92 430,-335.92 430,-316.67 535.25,-316.67 535.25,-335.92"/>
<text text-anchor="middle" x="482.62" y="-322.42" font-family="Helvetica,sans-Serif" font-size="10.00">std::shared_ptr&lt; T &gt;</text>
</a>
</g>
</g>
<!-- Node14&#45;&gt;Node18 -->
<g id="edge23_Node000018_Node000014" class="edge">
<title>Node14&#45;&gt;Node18</title>
<g id="a_edge23_Node000018_Node000014"><a xlink:title=" ">
<path fill="none" stroke="#9a32cd" stroke-dasharray="5,2" d="M186.35,-233.99C243.55,-251.87 385.43,-296.22 449.42,-316.23"/>
<polygon fill="#9a32cd" stroke="#9a32cd" points="187.53,-230.69 176.94,-231.05 185.44,-237.37 187.53,-230.69"/>
</a>
</g>
<text text-anchor="middle" x="249.38" y="-267.41" font-family="Helvetica,sans-Serif" font-size="10.00" fill="grey"> ptr</text>
</g>
<!-- Node15&#45;&gt;Node9 -->
<g id="edge17_Node000009_Node000015" class="edge">
<title>Node15&#45;&gt;Node9</title>
<g id="a_edge17_Node000009_Node000015"><a xlink:title=" ">
<path fill="none" stroke="orange" stroke-dasharray="5,2" d="M941.27,-195.91C958.54,-189.14 980.07,-181.57 1000,-177.05 1064.68,-162.37 1140.55,-156.05 1192.29,-153.34"/>
<polygon fill="orange" stroke="orange" points="939.97,-192.66 932,-199.64 942.59,-199.16 939.97,-192.66"/>
</a>
</g>
<text text-anchor="middle" x="1072.38" y="-178.8" font-family="Helvetica,sans-Serif" font-size="10.00" fill="grey"> &lt; Ark::internal::MacroScope &gt;</text>
</g>
<!-- Node16 -->
<g id="Node000016" class="node">
<title>Node16</title>
<g id="a_Node000016"><a xlink:title=" ">
<polygon fill="white" stroke="#666666" points="1346,-314.55 1162.75,-314.55 1162.75,-284.05 1346,-284.05 1346,-314.55"/>
<text text-anchor="start" x="1170.75" y="-301.05" font-family="Helvetica,sans-Serif" font-size="10.00">std::vector&lt; std::shared</text>
<text text-anchor="middle" x="1254.38" y="-289.8" font-family="Helvetica,sans-Serif" font-size="10.00">_ptr&lt; Ark::internal::MacroExecutor &gt; &gt;</text>
</a>
</g>
</g>
<!-- Node15&#45;&gt;Node16 -->
<g id="edge24_Node000016_Node000015" class="edge">
<title>Node15&#45;&gt;Node16</title>
<g id="a_edge24_Node000016_Node000015"><a xlink:title=" ">
<path fill="none" stroke="orange" stroke-dasharray="5,2" d="M961.44,-200.76C1010.7,-194.32 1084.76,-190.43 1144.75,-211.8 1185.13,-226.18 1221.6,-262.5 1240.26,-283.55"/>
<polygon fill="orange" stroke="orange" points="961.01,-197.29 951.59,-202.14 961.98,-204.22 961.01,-197.29"/>
</a>
</g>
<text text-anchor="start" x="1000" y="-224.8" font-family="Helvetica,sans-Serif" font-size="10.00" fill="grey"> &lt; std::shared_ptr&lt;</text>
<text text-anchor="middle" x="1072.38" y="-213.55" font-family="Helvetica,sans-Serif" font-size="10.00" fill="grey"> Ark::internal::MacroExecutor &gt; &gt;</text>
</g>
<!-- Node16&#45;&gt;Node3 -->
<g id="edge19_Node000003_Node000016" class="edge">
<title>Node16&#45;&gt;Node3</title>
<g id="a_edge19_Node000003_Node000016"><a xlink:title=" ">
<path fill="none" stroke="#9a32cd" stroke-dasharray="5,2" d="M1357.58,-295.38C1380.58,-290.89 1403.89,-283.18 1423.25,-270.3 1473.28,-237.01 1501.16,-165.36 1510.01,-139.16"/>
<polygon fill="#9a32cd" stroke="#9a32cd" points="1357.08,-291.91 1347.83,-297.08 1358.28,-298.81 1357.08,-291.91"/>
</a>
</g>
<text text-anchor="middle" x="1393.62" y="-294.83" font-family="Helvetica,sans-Serif" font-size="10.00" fill="grey"> m_executors</text>
</g>
<!-- Node17&#45;&gt;Node16 -->
<g id="edge20_Node000016_Node000017" class="edge">
<title>Node17&#45;&gt;Node16</title>
<g id="a_edge20_Node000016_Node000017"><a xlink:title=" ">
<path fill="none" stroke="#9a32cd" stroke-dasharray="5,2" d="M985.46,-328.73C1037.94,-322.97 1107.35,-315.34 1162.37,-309.29"/>
<polygon fill="#9a32cd" stroke="#9a32cd" points="985.25,-325.23 975.69,-329.8 986.02,-332.19 985.25,-325.23"/>
</a>
</g>
<text text-anchor="middle" x="1072.38" y="-328.86" font-family="Helvetica,sans-Serif" font-size="10.00" fill="grey"> elements</text>
</g>
<!-- Node18&#45;&gt;Node17 -->
<g id="edge22_Node000017_Node000018" class="edge">
<title>Node18&#45;&gt;Node17</title>
<g id="a_edge22_Node000017_Node000018"><a xlink:title=" ">
<path fill="none" stroke="orange" stroke-dasharray="5,2" d="M546.53,-327.94C625.11,-329.99 758.94,-333.48 839.1,-335.57"/>
<polygon fill="orange" stroke="orange" points="546.96,-324.45 536.87,-327.69 546.77,-331.44 546.96,-324.45"/>
</a>
</g>
<text text-anchor="middle" x="625.62" y="-333.55" font-family="Helvetica,sans-Serif" font-size="10.00" fill="grey"> &lt; Ark::internal::MacroExecutor &gt;</text>
</g>
</g>
</svg>

<g id="navigator" transform="translate(0 0)" fill="#404254">
  <rect fill="#f2f5e9" fill-opacity="0.5" stroke="#606060" stroke-width=".5" x="0" y="0" width="60" height="60"/>
  <use id="zoomplus" xlink:href="#zoomPlus" x="17" y="9" onmousedown="handleZoom(evt,'in')"/>
  <use id="zoomminus" xlink:href="#zoomMin" x="42" y="9" onmousedown="handleZoom(evt,'out')"/>
  <use id="reset" xlink:href="#resetDef" x="30" y="36" onmousedown="handleReset()"/>
   <use id="arrowup" xlink:href="#arrowUp" x="0" y="0" onmousedown="handlePan(0,-1)"/>
  <use id="arrowright" xlink:href="#arrowRight" x="0" y="0" onmousedown="handlePan(1,0)"/>
  <use id="arrowdown" xlink:href="#arrowDown" x="0" y="0" onmousedown="handlePan(0,1)"/>
  <use id="arrowleft" xlink:href="#arrowLeft" x="0" y="0" onmousedown="handlePan(-1,0)"/>
</g>
<svg viewBox="0 0 15 15" width="100%" height="30px" preserveAspectRatio="xMaxYMin meet">
 <g id="arrow_out" transform="scale(0.3 0.3)">
  <a xlink:href="classArk_1_1internal_1_1FunctionExecutor__coll__graph_org.svg" target="_base">
   <rect id="button" ry="5" rx="5" y="6" x="6" height="38" width="38"
        fill="#f2f5e9" fill-opacity="0.5" stroke="#606060" stroke-width="1.0"/>
   <path id="arrow"
     d="M 11.500037,31.436501 C 11.940474,20.09759 22.043105,11.32322 32.158766,21.979434 L 37.068811,17.246167 C 37.068811,17.246167 37.088388,32 37.088388,32 L 22.160133,31.978069 C 22.160133,31.978069 26.997745,27.140456 26.997745,27.140456 C 18.528582,18.264221 13.291696,25.230495 11.500037,31.436501 z"
     style="fill:#404040;"/>
  </a>
 </g>
</svg>

<style type='text/css'>
<![CDATA[
[data-mouse-over-selected='false'] { opacity: 0.7; }
[data-mouse-over-selected='true']  { opacity: 1.0; }
]]>
</style>
<script type="application/ecmascript"><![CDATA[
document.addEventListener('DOMContentLoaded', (event) => {
  highlightEdges();
  highlightAdjacentNodes();
});
]]></script>
</svg>
