<?xml version="1.0" encoding="UTF-8" standalone="no"?>
<!DOCTYPE svg PUBLIC "-//W3C//DTD SVG 1.1//EN"
 "http://www.w3.org/Graphics/SVG/1.1/DTD/svg11.dtd">
<!-- Generated by graphviz version 12.2.0 (20241103.1931)
 -->
<!-- Title: /Users/fola/Documents/ArkScript/Ark/src/arkreactor/Compiler/Macros/Executor.cpp Pages: 1 -->
<!--zoomable 404 -->

<svg id="main" version="1.1" xmlns="http://www.w3.org/2000/svg" xmlns:xlink="http://www.w3.org/1999/xlink" xml:space="preserve" onload="init(evt)">

<style type="text/css"><![CDATA[
.node, .edge {opacity: 0.7;}
.node.selected, .edge.selected {opacity: 1;}
.edge:hover path { stroke: red; }
.edge:hover polygon { stroke: red; fill: red; }
]]></style>

<defs>
  <circle id="rim" cx="0" cy="0" r="7"/>
  <circle id="rim2" cx="0" cy="0" r="3.5"/>
  <g id="zoomPlus">
    <use xlink:href="#rim" fill="#404040"><set attributeName="fill" to="#808080" begin="zoomplus.mouseover" end="zoomplus.mouseout"/></use>
    <path d="M-4,0h8M0,-4v8" fill="none" stroke="white" stroke-width="1.5" pointer-events="none"/>
  </g>
  <g id="zoomMin">
    <use xlink:href="#rim" fill="#404040"><set attributeName="fill" to="#808080" begin="zoomminus.mouseover" end="zoomminus.mouseout"/></use>
    <path d="M-4,0h8" fill="none" stroke="white" stroke-width="1.5" pointer-events="none"/>
  </g>
  <g id="arrowUp" transform="translate(30 24)">
    <use xlink:href="#rim"/>
    <path pointer-events="none" fill="none" stroke="white" stroke-width="1.5" d="M0,-3.0v7 M-2.5,-0.5L0,-3.0L2.5,-0.5"/>
  </g>
  <g id="arrowRight" transform="rotate(90) translate(36 -43)">
    <use xlink:href="#rim"/>
    <path pointer-events="none" fill="none" stroke="white" stroke-width="1.5" d="M0,-3.0v7 M-2.5,-0.5L0,-3.0L2.5,-0.5"/>
  </g>
  <g id="arrowDown" transform="rotate(180) translate(-30 -48)">
    <use xlink:href="#rim"/>
    <path pointer-events="none" fill="none" stroke="white" stroke-width="1.5" d="M0,-3.0v7 M-2.5,-0.5L0,-3.0L2.5,-0.5"/>
  </g>
  <g id="arrowLeft" transform="rotate(270) translate(-36 17)">
    <use xlink:href="#rim"/>
    <path pointer-events="none" fill="none" stroke="white" stroke-width="1.5" d="M0,-3.0v7 M-2.5,-0.5L0,-3.0L2.5,-0.5"/>
  </g>
  <g id="resetDef">
    <use xlink:href="#rim2" fill="#404040"><set attributeName="fill" to="#808080" begin="reset.mouseover" end="reset.mouseout"/></use>
  </g>
</defs>
<script type="application/ecmascript">
var viewWidth = 1258;
var viewHeight = 404;
var sectionId = 'dynsection-0';
</script>
<script type="application/ecmascript" xlink:href="../../svg.min.js"/>
<svg id="graph" class="graph">
<g id="viewport">
<title>/Users/fola/Documents/ArkScript/Ark/src/arkreactor/Compiler/Macros/Executor.cpp</title>
<!-- Node1 -->
<g id="Node000001" class="node">
<title>Node1</title>
<g id="a_Node000001"><a xlink:title=" ">
<polygon fill="#999999" stroke="#666666" points="200.99,-395.75 47.74,-395.75 47.74,-354 200.99,-354 200.99,-395.75"/>
<text text-anchor="start" x="55.74" y="-382.25" font-family="Helvetica,sans-Serif" font-size="10.00">/Users/fola/Documents</text>
<text text-anchor="start" x="55.74" y="-371" font-family="Helvetica,sans-Serif" font-size="10.00">/ArkScript/Ark/src/arkreactor</text>
<text text-anchor="middle" x="124.37" y="-359.75" font-family="Helvetica,sans-Serif" font-size="10.00">/Compiler/Macros/Executor.cpp</text>
</a>
</g>
</g>
<!-- Node2 -->
<g id="Node000002" class="node">
<title>Node2</title>
<g id="a_Node000002"><a xlink:href="../../d4/d1a/Executor_8hpp.html" target="_top" xlink:title="The base class for all MacroExecutors.">
<polygon fill="white" stroke="#666666" points="115.49,-318 7.24,-318 7.24,-287.5 115.49,-287.5 115.49,-318"/>
<text text-anchor="start" x="15.24" y="-304.5" font-family="Helvetica,sans-Serif" font-size="10.00">Ark/Compiler/Macros</text>
<text text-anchor="middle" x="61.37" y="-293.25" font-family="Helvetica,sans-Serif" font-size="10.00">/Executor.hpp</text>
</a>
</g>
</g>
<!-- Node1&#45;&gt;Node2 -->
<g id="edge1_Node000001_Node000002" class="edge">
<title>Node1&#45;&gt;Node2</title>
<g id="a_edge1_Node000001_Node000002"><a xlink:title=" ">
<path fill="none" stroke="#63b8ff" d="M106.15,-353.59C98.59,-345.19 89.8,-335.39 82.01,-326.72"/>
<polygon fill="#63b8ff" stroke="#63b8ff" points="84.65,-324.43 75.36,-319.33 79.44,-329.1 84.65,-324.43"/>
</a>
</g>
</g>
<!-- Node19 -->
<g id="Node000019" class="node">
<title>Node19</title>
<g id="a_Node000019"><a xlink:href="../../de/db1/Processor_8hpp.html" target="_top" xlink:title="Handles the macros and their expansion in ArkScript source code.">
<polygon fill="white" stroke="#666666" points="253.49,-318 145.24,-318 145.24,-287.5 253.49,-287.5 253.49,-318"/>
<text text-anchor="start" x="153.24" y="-304.5" font-family="Helvetica,sans-Serif" font-size="10.00">Ark/Compiler/Macros</text>
<text text-anchor="middle" x="199.37" y="-293.25" font-family="Helvetica,sans-Serif" font-size="10.00">/Processor.hpp</text>
</a>
</g>
</g>
<!-- Node1&#45;&gt;Node19 -->
<g id="edge23_Node000001_Node000019" class="edge">
<title>Node1&#45;&gt;Node19</title>
<g id="a_edge23_Node000001_Node000019"><a xlink:title=" ">
<path fill="none" stroke="#63b8ff" d="M146.06,-353.59C155.34,-344.92 166.19,-334.77 175.67,-325.9"/>
<polygon fill="#63b8ff" stroke="#63b8ff" points="177.89,-328.62 182.81,-319.23 173.11,-323.51 177.89,-328.62"/>
</a>
</g>
</g>
<!-- Node3 -->
<g id="Node000003" class="node">
<title>Node3</title>
<g id="a_Node000003"><a xlink:title=" ">
<polygon fill="#e0e0e0" stroke="#999999" points="63.24,-245.88 13.49,-245.88 13.49,-226.62 63.24,-226.62 63.24,-245.88"/>
<text text-anchor="middle" x="38.37" y="-232.38" font-family="Helvetica,sans-Serif" font-size="10.00">optional</text>
</a>
</g>
</g>
<!-- Node2&#45;&gt;Node3 -->
<g id="edge2_Node000002_Node000003" class="edge">
<title>Node2&#45;&gt;Node3</title>
<g id="a_edge2_Node000002_Node000003"><a xlink:title=" ">
<path fill="none" stroke="#63b8ff" d="M56.15,-287.11C52.94,-278.13 48.8,-266.51 45.32,-256.76"/>
<polygon fill="#63b8ff" stroke="#63b8ff" points="48.68,-255.74 42.02,-247.5 42.08,-258.09 48.68,-255.74"/>
</a>
</g>
</g>
<!-- Node4 -->
<g id="Node000004" class="node">
<title>Node4</title>
<g id="a_Node000004"><a xlink:title=" ">
<polygon fill="#e0e0e0" stroke="#999999" points="173.74,-129.75 90.99,-129.75 90.99,-110.5 173.74,-110.5 173.74,-129.75"/>
<text text-anchor="middle" x="132.37" y="-116.25" font-family="Helvetica,sans-Serif" font-size="10.00">unordered_map</text>
</a>
</g>
</g>
<!-- Node2&#45;&gt;Node4 -->
<g id="edge3_Node000002_Node000004" class="edge">
<title>Node2&#45;&gt;Node4</title>
<g id="a_edge3_Node000002_Node000004"><a xlink:title=" ">
<path fill="none" stroke="#63b8ff" d="M36.61,-287.13C24.46,-278.47 11.05,-266.29 4.37,-251.5 -1.21,-239.15 -1.58,-233.18 4.37,-221 24.39,-179.99 70.28,-150.9 101.32,-135.06"/>
<polygon fill="#63b8ff" stroke="#63b8ff" points="102.81,-138.23 110.25,-130.68 99.73,-131.94 102.81,-138.23"/>
</a>
</g>
</g>
<!-- Node5 -->
<g id="Node000005" class="node">
<title>Node5</title>
<g id="a_Node000005"><a xlink:href="../../d7/dc6/Node_8hpp.html" target="_top" xlink:title="AST node used by the parser, optimizer and compiler.">
<polygon fill="white" stroke="#666666" points="499.62,-185 359.12,-185 359.12,-165.75 499.62,-165.75 499.62,-185"/>
<text text-anchor="middle" x="429.37" y="-171.5" font-family="Helvetica,sans-Serif" font-size="10.00">Ark/Compiler/AST/Node.hpp</text>
</a>
</g>
</g>
<!-- Node2&#45;&gt;Node5 -->
<g id="edge4_Node000002_Node000005" class="edge">
<title>Node2&#45;&gt;Node5</title>
<g id="a_edge4_Node000002_Node000005"><a xlink:title=" ">
<path fill="none" stroke="#63b8ff" d="M115.69,-290.36C168.73,-278.98 245.55,-261.74 274.37,-251.5 321.75,-234.66 373.77,-207.52 403.89,-190.89"/>
<polygon fill="#63b8ff" stroke="#63b8ff" points="405.23,-194.14 412.26,-186.21 401.82,-188.03 405.23,-194.14"/>
</a>
</g>
</g>
<!-- Node6 -->
<g id="Node000006" class="node">
<title>Node6</title>
<g id="a_Node000006"><a xlink:title=" ">
<polygon fill="#e0e0e0" stroke="#999999" points="493.99,-129.75 448.74,-129.75 448.74,-110.5 493.99,-110.5 493.99,-129.75"/>
<text text-anchor="middle" x="471.37" y="-116.25" font-family="Helvetica,sans-Serif" font-size="10.00">variant</text>
</a>
</g>
</g>
<!-- Node5&#45;&gt;Node6 -->
<g id="edge5_Node000005_Node000006" class="edge">
<title>Node5&#45;&gt;Node6</title>
<g id="a_edge5_Node000005_Node000006"><a xlink:title=" ">
<path fill="none" stroke="#63b8ff" d="M436.3,-165.58C441.98,-158.38 450.21,-147.96 457.26,-139.01"/>
<polygon fill="#63b8ff" stroke="#63b8ff" points="459.9,-141.32 463.34,-131.3 454.4,-136.98 459.9,-141.32"/>
</a>
</g>
</g>
<!-- Node7 -->
<g id="Node000007" class="node">
<title>Node7</title>
<g id="a_Node000007"><a xlink:title=" ">
<polygon fill="#e0e0e0" stroke="#999999" points="430.99,-129.75 379.74,-129.75 379.74,-110.5 430.99,-110.5 430.99,-129.75"/>
<text text-anchor="middle" x="405.37" y="-116.25" font-family="Helvetica,sans-Serif" font-size="10.00">ostream</text>
</a>
</g>
</g>
<!-- Node5&#45;&gt;Node7 -->
<g id="edge6_Node000005_Node000007" class="edge">
<title>Node5&#45;&gt;Node7</title>
<g id="a_edge6_Node000005_Node000007"><a xlink:title=" ">
<path fill="none" stroke="#63b8ff" d="M425.4,-165.58C422.33,-158.76 417.96,-149.06 414.08,-140.45"/>
<polygon fill="#63b8ff" stroke="#63b8ff" points="417.34,-139.17 410.04,-131.49 410.96,-142.04 417.34,-139.17"/>
</a>
</g>
</g>
<!-- Node8 -->
<g id="Node000008" class="node">
<title>Node8</title>
<g id="a_Node000008"><a xlink:title=" ">
<polygon fill="#e0e0e0" stroke="#999999" points="371.37,-74.5 331.37,-74.5 331.37,-55.25 371.37,-55.25 371.37,-74.5"/>
<text text-anchor="middle" x="351.37" y="-61" font-family="Helvetica,sans-Serif" font-size="10.00">string</text>
</a>
</g>
</g>
<!-- Node5&#45;&gt;Node8 -->
<g id="edge7_Node000005_Node000008" class="edge">
<title>Node5&#45;&gt;Node8</title>
<g id="a_edge7_Node000005_Node000008"><a xlink:title=" ">
<path fill="none" stroke="#63b8ff" d="M411.97,-165.27C398.74,-157.51 381.05,-145.16 370.37,-129.75 361.38,-116.78 356.57,-99.5 354.05,-86.18"/>
<polygon fill="#63b8ff" stroke="#63b8ff" points="357.52,-85.72 352.5,-76.39 350.6,-86.82 357.52,-85.72"/>
</a>
</g>
</g>
<!-- Node9 -->
<g id="Node000009" class="node">
<title>Node9</title>
<g id="a_Node000009"><a xlink:title=" ">
<polygon fill="#e0e0e0" stroke="#999999" points="776.87,-74.5 733.87,-74.5 733.87,-55.25 776.87,-55.25 776.87,-74.5"/>
<text text-anchor="middle" x="755.37" y="-61" font-family="Helvetica,sans-Serif" font-size="10.00">vector</text>
</a>
</g>
</g>
<!-- Node5&#45;&gt;Node9 -->
<g id="edge8_Node000005_Node000009" class="edge">
<title>Node5&#45;&gt;Node9</title>
<g id="a_edge8_Node000005_Node000009"><a xlink:title=" ">
<path fill="none" stroke="#63b8ff" d="M500.05,-171.81C577.31,-167.66 694.74,-156.95 729.37,-129.75 742.77,-119.22 749.3,-100.66 752.47,-86.25"/>
<polygon fill="#63b8ff" stroke="#63b8ff" points="755.9,-86.91 754.2,-76.45 749.01,-85.69 755.9,-86.91"/>
</a>
</g>
</g>
<!-- Node10 -->
<g id="Node000010" class="node">
<title>Node10</title>
<g id="a_Node000010"><a xlink:href="../../da/d33/Namespace_8hpp.html" target="_top" xlink:title=" ">
<polygon fill="white" stroke="#666666" points="720.24,-129.75 550.49,-129.75 550.49,-110.5 720.24,-110.5 720.24,-129.75"/>
<text text-anchor="middle" x="635.37" y="-116.25" font-family="Helvetica,sans-Serif" font-size="10.00">Ark/Compiler/AST/Namespace.hpp</text>
</a>
</g>
</g>
<!-- Node5&#45;&gt;Node10 -->
<g id="edge9_Node000005_Node000010" class="edge">
<title>Node5&#45;&gt;Node10</title>
<g id="a_edge9_Node000005_Node000010"><a xlink:title=" ">
<path fill="none" stroke="#63b8ff" d="M464.31,-165.34C498.79,-156.43 551.68,-142.76 589.52,-132.98"/>
<polygon fill="#63b8ff" stroke="#63b8ff" points="589.98,-136.47 598.79,-130.58 588.23,-129.7 589.98,-136.47"/>
</a>
</g>
</g>
<!-- Node12 -->
<g id="Node000012" class="node">
<title>Node12</title>
<g id="a_Node000012"><a xlink:href="../../d8/ddd/Common_8hpp.html" target="_top" xlink:title="Common code for the compiler.">
<polygon fill="white" stroke="#666666" points="948.62,-129.75 814.12,-129.75 814.12,-110.5 948.62,-110.5 948.62,-129.75"/>
<text text-anchor="middle" x="881.37" y="-116.25" font-family="Helvetica,sans-Serif" font-size="10.00">Ark/Compiler/Common.hpp</text>
</a>
</g>
</g>
<!-- Node5&#45;&gt;Node12 -->
<g id="edge13_Node000005_Node000012" class="edge">
<title>Node5&#45;&gt;Node12</title>
<g id="a_edge13_Node000005_Node000012"><a xlink:title=" ">
<path fill="none" stroke="#63b8ff" d="M499.99,-166.05C582.09,-156.38 717.21,-140.46 802.63,-130.4"/>
<polygon fill="#63b8ff" stroke="#63b8ff" points="802.8,-133.91 812.32,-129.26 801.98,-126.95 802.8,-133.91"/>
</a>
</g>
</g>
<!-- Node18 -->
<g id="Node000018" class="node">
<title>Node18</title>
<g id="a_Node000018"><a xlink:href="../../d5/d40/Platform_8hpp.html" target="_top" xlink:title="ArkScript configuration macros.">
<polygon fill="white" stroke="#666666" points="323.12,-129.75 233.62,-129.75 233.62,-110.5 323.12,-110.5 323.12,-129.75"/>
<text text-anchor="middle" x="278.37" y="-116.25" font-family="Helvetica,sans-Serif" font-size="10.00">Ark/Platform.hpp</text>
</a>
</g>
</g>
<!-- Node5&#45;&gt;Node18 -->
<g id="edge22_Node000005_Node000018" class="edge">
<title>Node5&#45;&gt;Node18</title>
<g id="a_edge22_Node000005_Node000018"><a xlink:title=" ">
<path fill="none" stroke="#63b8ff" d="M403.75,-165.34C379.35,-156.74 342.36,-143.69 314.87,-134"/>
<polygon fill="#63b8ff" stroke="#63b8ff" points="316.13,-130.73 305.54,-130.71 313.8,-137.33 316.13,-130.73"/>
</a>
</g>
</g>
<!-- Node10&#45;&gt;Node8 -->
<g id="edge10_Node000010_Node000008" class="edge">
<title>Node10&#45;&gt;Node8</title>
<g id="a_edge10_Node000010_Node000008"><a xlink:title=" ">
<path fill="none" stroke="#63b8ff" d="M586.87,-110.03C528.62,-99.11 432.58,-81.1 383.07,-71.82"/>
<polygon fill="#63b8ff" stroke="#63b8ff" points="383.78,-68.39 373.3,-69.99 382.49,-75.27 383.78,-68.39"/>
</a>
</g>
</g>
<!-- Node10&#45;&gt;Node9 -->
<g id="edge11_Node000010_Node000009" class="edge">
<title>Node10&#45;&gt;Node9</title>
<g id="a_edge11_Node000010_Node000009"><a xlink:title=" ">
<path fill="none" stroke="#63b8ff" d="M655.72,-110.09C674.6,-101.72 702.95,-89.13 724.6,-79.53"/>
<polygon fill="#63b8ff" stroke="#63b8ff" points="725.81,-82.82 733.53,-75.57 722.97,-76.42 725.81,-82.82"/>
</a>
</g>
</g>
<!-- Node11 -->
<g id="Node000011" class="node">
<title>Node11</title>
<g id="a_Node000011"><a xlink:title=" ">
<polygon fill="#e0e0e0" stroke="#999999" points="660.99,-74.5 609.74,-74.5 609.74,-55.25 660.99,-55.25 660.99,-74.5"/>
<text text-anchor="middle" x="635.37" y="-61" font-family="Helvetica,sans-Serif" font-size="10.00">memory</text>
</a>
</g>
</g>
<!-- Node10&#45;&gt;Node11 -->
<g id="edge12_Node000010_Node000011" class="edge">
<title>Node10&#45;&gt;Node11</title>
<g id="a_edge12_Node000010_Node000011"><a xlink:title=" ">
<path fill="none" stroke="#63b8ff" d="M635.37,-110.33C635.37,-103.82 635.37,-94.67 635.37,-86.37"/>
<polygon fill="#63b8ff" stroke="#63b8ff" points="638.87,-86.37 635.37,-76.37 631.87,-86.37 638.87,-86.37"/>
</a>
</g>
</g>
<!-- Node12&#45;&gt;Node9 -->
<g id="edge16_Node000012_Node000009" class="edge">
<title>Node12&#45;&gt;Node9</title>
<g id="a_edge16_Node000012_Node000009"><a xlink:title=" ">
<path fill="none" stroke="#63b8ff" d="M859.99,-110.09C840.08,-101.68 810.13,-89.02 787.37,-79.4"/>
<polygon fill="#63b8ff" stroke="#63b8ff" points="788.81,-76.21 778.24,-75.54 786.09,-82.66 788.81,-76.21"/>
</a>
</g>
</g>
<!-- Node13 -->
<g id="Node000013" class="node">
<title>Node13</title>
<g id="a_Node000013"><a xlink:title=" ">
<polygon fill="#e0e0e0" stroke="#999999" points="846.24,-74.5 808.49,-74.5 808.49,-55.25 846.24,-55.25 846.24,-74.5"/>
<text text-anchor="middle" x="827.37" y="-61" font-family="Helvetica,sans-Serif" font-size="10.00">array</text>
</a>
</g>
</g>
<!-- Node12&#45;&gt;Node13 -->
<g id="edge14_Node000012_Node000013" class="edge">
<title>Node12&#45;&gt;Node13</title>
<g id="a_edge14_Node000012_Node000013"><a xlink:title=" ">
<path fill="none" stroke="#63b8ff" d="M872.45,-110.33C864.91,-102.9 853.9,-92.04 844.64,-82.91"/>
<polygon fill="#63b8ff" stroke="#63b8ff" points="847.13,-80.45 837.56,-75.92 842.22,-85.44 847.13,-80.45"/>
</a>
</g>
</g>
<!-- Node14 -->
<g id="Node000014" class="node">
<title>Node14</title>
<g id="a_Node000014"><a xlink:title=" ">
<polygon fill="#e0e0e0" stroke="#999999" points="908.12,-19.25 842.62,-19.25 842.62,0 908.12,0 908.12,-19.25"/>
<text text-anchor="middle" x="875.37" y="-5.75" font-family="Helvetica,sans-Serif" font-size="10.00">string_view</text>
</a>
</g>
</g>
<!-- Node12&#45;&gt;Node14 -->
<g id="edge15_Node000012_Node000014" class="edge">
<title>Node12&#45;&gt;Node14</title>
<g id="a_edge15_Node000012_Node000014"><a xlink:title=" ">
<path fill="none" stroke="#63b8ff" d="M880.88,-110.25C879.92,-93 877.8,-54.58 876.48,-30.81"/>
<polygon fill="#63b8ff" stroke="#63b8ff" points="880,-30.93 875.95,-21.14 873.01,-31.32 880,-30.93"/>
</a>
</g>
</g>
<!-- Node15 -->
<g id="Node000015" class="node">
<title>Node15</title>
<g id="a_Node000015"><a xlink:title=" ">
<polygon fill="#e0e0e0" stroke="#999999" points="1052.24,-19.25 996.49,-19.25 996.49,0 1052.24,0 1052.24,-19.25"/>
<text text-anchor="middle" x="1024.37" y="-5.75" font-family="Helvetica,sans-Serif" font-size="10.00">cinttypes</text>
</a>
</g>
</g>
<!-- Node12&#45;&gt;Node15 -->
<g id="edge17_Node000012_Node000015" class="edge">
<title>Node12&#45;&gt;Node15</title>
<g id="a_edge17_Node000012_Node000015"><a xlink:title=" ">
<path fill="none" stroke="#63b8ff" d="M945.17,-110.03C968.33,-103.67 992.83,-92.86 1009.37,-74.5 1019.99,-62.7 1023.49,-44.82 1024.48,-30.98"/>
<polygon fill="#63b8ff" stroke="#63b8ff" points="1027.97,-31.3 1024.77,-21.2 1020.97,-31.09 1027.97,-31.3"/>
</a>
</g>
</g>
<!-- Node16 -->
<g id="Node000016" class="node">
<title>Node16</title>
<g id="a_Node000016"><a xlink:href="../../d6/de9/Constants_8hpp.html" target="_top" xlink:title="Constants used by ArkScript.">
<polygon fill="white" stroke="#666666" points="1000.24,-74.5 902.49,-74.5 902.49,-55.25 1000.24,-55.25 1000.24,-74.5"/>
<text text-anchor="middle" x="951.37" y="-61" font-family="Helvetica,sans-Serif" font-size="10.00">Ark/Constants.hpp</text>
</a>
</g>
</g>
<!-- Node12&#45;&gt;Node16 -->
<g id="edge18_Node000012_Node000016" class="edge">
<title>Node12&#45;&gt;Node16</title>
<g id="a_edge18_Node000012_Node000016"><a xlink:title=" ">
<path fill="none" stroke="#63b8ff" d="M893.24,-110.09C903.46,-102.32 918.44,-90.92 930.63,-81.65"/>
<polygon fill="#63b8ff" stroke="#63b8ff" points="932.62,-84.53 938.46,-75.69 928.39,-78.96 932.62,-84.53"/>
</a>
</g>
</g>
<!-- Node16&#45;&gt;Node14 -->
<g id="edge19_Node000016_Node000014" class="edge">
<title>Node16&#45;&gt;Node14</title>
<g id="a_edge19_Node000016_Node000014"><a xlink:title=" ">
<path fill="none" stroke="#63b8ff" d="M938.48,-54.84C927.34,-47.04 910.99,-35.59 897.73,-26.29"/>
<polygon fill="#63b8ff" stroke="#63b8ff" points="899.76,-23.44 889.56,-20.57 895.74,-29.18 899.76,-23.44"/>
</a>
</g>
</g>
<!-- Node16&#45;&gt;Node15 -->
<g id="edge20_Node000016_Node000015" class="edge">
<title>Node16&#45;&gt;Node15</title>
<g id="a_edge20_Node000016_Node000015"><a xlink:title=" ">
<path fill="none" stroke="#63b8ff" d="M963.75,-54.84C974.51,-46.99 990.34,-35.45 1003.12,-26.12"/>
<polygon fill="#63b8ff" stroke="#63b8ff" points="1004.93,-29.14 1010.94,-20.42 1000.8,-23.48 1004.93,-29.14"/>
</a>
</g>
</g>
<!-- Node17 -->
<g id="Node000017" class="node">
<title>Node17</title>
<g id="a_Node000017"><a xlink:title=" ">
<polygon fill="#e0e0e0" stroke="#999999" points="975.49,-19.25 927.24,-19.25 927.24,0 975.49,0 975.49,-19.25"/>
<text text-anchor="middle" x="951.37" y="-5.75" font-family="Helvetica,sans-Serif" font-size="10.00">cstddef</text>
</a>
</g>
</g>
<!-- Node16&#45;&gt;Node17 -->
<g id="edge21_Node000016_Node000017" class="edge">
<title>Node16&#45;&gt;Node17</title>
<g id="a_edge21_Node000016_Node000017"><a xlink:title=" ">
<path fill="none" stroke="#63b8ff" d="M951.37,-55.08C951.37,-48.57 951.37,-39.42 951.37,-31.12"/>
<polygon fill="#63b8ff" stroke="#63b8ff" points="954.87,-31.12 951.37,-21.12 947.87,-31.12 954.87,-31.12"/>
</a>
</g>
</g>
<!-- Node19&#45;&gt;Node3 -->
<g id="edge42_Node000019_Node000003" class="edge">
<title>Node19&#45;&gt;Node3</title>
<g id="a_edge42_Node000019_Node000003"><a xlink:title=" ">
<path fill="none" stroke="#63b8ff" d="M162.83,-287.11C135.4,-276.12 98.13,-261.19 71.54,-250.54"/>
<polygon fill="#63b8ff" stroke="#63b8ff" points="72.85,-247.29 62.26,-246.82 70.24,-253.79 72.85,-247.29"/>
</a>
</g>
</g>
<!-- Node19&#45;&gt;Node4 -->
<g id="edge41_Node000019_Node000004" class="edge">
<title>Node19&#45;&gt;Node4</title>
<g id="a_edge41_Node000019_Node000004"><a xlink:title=" ">
<path fill="none" stroke="#63b8ff" d="M178.88,-287.12C167.95,-278.14 155.34,-265.66 148.37,-251.5 130.8,-215.81 129.74,-168.22 130.86,-141.52"/>
<polygon fill="#63b8ff" stroke="#63b8ff" points="134.34,-141.93 131.42,-131.75 127.35,-141.53 134.34,-141.93"/>
</a>
</g>
</g>
<!-- Node19&#45;&gt;Node5 -->
<g id="edge25_Node000019_Node000005" class="edge">
<title>Node19&#45;&gt;Node5</title>
<g id="a_edge25_Node000019_Node000005"><a xlink:title=" ">
<path fill="none" stroke="#63b8ff" d="M253.74,-300.25C328.53,-296.92 457.25,-286.16 486.37,-251.5 495.09,-241.12 492.3,-233.19 486.37,-221 480.38,-208.72 469.2,-198.82 458.32,-191.49"/>
<polygon fill="#63b8ff" stroke="#63b8ff" points="460.2,-188.54 449.85,-186.29 456.54,-194.51 460.2,-188.54"/>
</a>
</g>
</g>
<!-- Node19&#45;&gt;Node8 -->
<g id="edge43_Node000019_Node000008" class="edge">
<title>Node19&#45;&gt;Node8</title>
<g id="a_edge43_Node000019_Node000008"><a xlink:title=" ">
<path fill="none" stroke="#63b8ff" d="M178.14,-287.07C132.25,-253.63 31.9,-170.03 82.37,-110.5 112.49,-74.97 255.29,-67.69 319.71,-66.23"/>
<polygon fill="#63b8ff" stroke="#63b8ff" points="319.7,-69.73 329.63,-66.04 319.56,-62.73 319.7,-69.73"/>
</a>
</g>
</g>
<!-- Node19&#45;&gt;Node18 -->
<g id="edge24_Node000019_Node000018" class="edge">
<title>Node19&#45;&gt;Node18</title>
<g id="a_edge24_Node000019_Node000018"><a xlink:title=" ">
<path fill="none" stroke="#63b8ff" d="M234.62,-287.16C249.62,-279.01 265.64,-267.27 274.37,-251.5 293.68,-216.61 288.32,-168.02 283.09,-141.1"/>
<polygon fill="#63b8ff" stroke="#63b8ff" points="286.56,-140.59 281.03,-131.55 279.71,-142.07 286.56,-140.59"/>
</a>
</g>
</g>
<!-- Node20 -->
<g id="Node000020" class="node">
<title>Node20</title>
<g id="a_Node000020"><a xlink:href="../../d7/dfb/MacroScope_8hpp.html" target="_top" xlink:title="Defines tools to handle macro definitions.">
<polygon fill="white" stroke="#666666" points="265.49,-251.5 157.24,-251.5 157.24,-221 265.49,-221 265.49,-251.5"/>
<text text-anchor="start" x="165.24" y="-238" font-family="Helvetica,sans-Serif" font-size="10.00">Ark/Compiler/Macros</text>
<text text-anchor="middle" x="211.37" y="-226.75" font-family="Helvetica,sans-Serif" font-size="10.00">/MacroScope.hpp</text>
</a>
</g>
</g>
<!-- Node19&#45;&gt;Node20 -->
<g id="edge26_Node000019_Node000020" class="edge">
<title>Node19&#45;&gt;Node20</title>
<g id="a_edge26_Node000019_Node000020"><a xlink:title=" ">
<path fill="none" stroke="#63b8ff" d="M202.09,-287.11C203.41,-280.02 205.03,-271.29 206.55,-263.13"/>
<polygon fill="#63b8ff" stroke="#63b8ff" points="209.99,-263.79 208.38,-253.32 203.11,-262.51 209.99,-263.79"/>
</a>
</g>
</g>
<!-- Node21 -->
<g id="Node000021" class="node">
<title>Node21</title>
<g id="a_Node000021"><a xlink:href="../../df/d5f/Pass_8hpp.html" target="_top" xlink:title="Interface for a compiler pass (take in an AST, output an AST)">
<polygon fill="white" stroke="#666666" points="476.99,-245.88 359.74,-245.88 359.74,-226.62 476.99,-226.62 476.99,-245.88"/>
<text text-anchor="middle" x="418.37" y="-232.38" font-family="Helvetica,sans-Serif" font-size="10.00">Ark/Compiler/Pass.hpp</text>
</a>
</g>
</g>
<!-- Node19&#45;&gt;Node21 -->
<g id="edge30_Node000019_Node000021" class="edge">
<title>Node19&#45;&gt;Node21</title>
<g id="a_edge30_Node000019_Node000021"><a xlink:title=" ">
<path fill="none" stroke="#63b8ff" d="M249.34,-287.03C287.89,-275.68 340.59,-260.16 376.85,-249.48"/>
<polygon fill="#63b8ff" stroke="#63b8ff" points="377.48,-252.94 386.08,-246.76 375.5,-246.23 377.48,-252.94"/>
</a>
</g>
</g>
<!-- Node20&#45;&gt;Node4 -->
<g id="edge28_Node000020_Node000004" class="edge">
<title>Node20&#45;&gt;Node4</title>
<g id="a_edge28_Node000020_Node000004"><a xlink:title=" ">
<path fill="none" stroke="#63b8ff" d="M201.36,-220.8C187.03,-200.09 160.67,-162.01 145.01,-139.39"/>
<polygon fill="#63b8ff" stroke="#63b8ff" points="148.08,-137.67 139.51,-131.44 142.32,-141.66 148.08,-137.67"/>
</a>
</g>
</g>
<!-- Node20&#45;&gt;Node5 -->
<g id="edge27_Node000020_Node000005" class="edge">
<title>Node20&#45;&gt;Node5</title>
<g id="a_edge27_Node000020_Node000005"><a xlink:title=" ">
<path fill="none" stroke="#63b8ff" d="M265.82,-220.55C302.57,-210.62 350.48,-197.68 384.93,-188.38"/>
<polygon fill="#63b8ff" stroke="#63b8ff" points="385.41,-191.87 394.15,-185.89 383.59,-185.11 385.41,-191.87"/>
</a>
</g>
</g>
<!-- Node20&#45;&gt;Node8 -->
<g id="edge29_Node000020_Node000008" class="edge">
<title>Node20&#45;&gt;Node8</title>
<g id="a_edge29_Node000020_Node000008"><a xlink:title=" ">
<path fill="none" stroke="#63b8ff" d="M208.33,-220.73C203.93,-195.4 198.86,-142.8 224.37,-110.5 247.28,-81.48 290.37,-71.29 319.96,-67.73"/>
<polygon fill="#63b8ff" stroke="#63b8ff" points="320.21,-71.22 329.82,-66.76 319.53,-64.26 320.21,-71.22"/>
</a>
</g>
</g>
<!-- Node21&#45;&gt;Node5 -->
<g id="edge32_Node000021_Node000005" class="edge">
<title>Node21&#45;&gt;Node5</title>
<g id="a_edge32_Node000021_Node000005"><a xlink:title=" ">
<path fill="none" stroke="#63b8ff" d="M420.04,-226.31C421.51,-218.44 423.7,-206.7 425.59,-196.57"/>
<polygon fill="#63b8ff" stroke="#63b8ff" points="429.01,-197.36 427.4,-186.89 422.13,-196.08 429.01,-197.36"/>
</a>
</g>
</g>
<!-- Node21&#45;&gt;Node18 -->
<g id="edge31_Node000021_Node000018" class="edge">
<title>Node21&#45;&gt;Node18</title>
<g id="a_edge31_Node000021_Node000018"><a xlink:title=" ">
<path fill="none" stroke="#63b8ff" d="M405.33,-226.14C391.44,-216.32 368.96,-200.06 350.37,-185 331.41,-169.64 310.66,-151.02 296.32,-137.86"/>
<polygon fill="#63b8ff" stroke="#63b8ff" points="298.74,-135.33 289.02,-131.11 293.99,-140.47 298.74,-135.33"/>
</a>
</g>
</g>
<!-- Node22 -->
<g id="Node000022" class="node">
<title>Node22</title>
<g id="a_Node000022"><a xlink:href="../../d9/d11/Logger_8hpp.html" target="_top" xlink:title="Internal logger.">
<polygon fill="white" stroke="#666666" points="931.99,-185 850.74,-185 850.74,-165.75 931.99,-165.75 931.99,-185"/>
<text text-anchor="middle" x="891.37" y="-171.5" font-family="Helvetica,sans-Serif" font-size="10.00">Ark/Logger.hpp</text>
</a>
</g>
</g>
<!-- Node21&#45;&gt;Node22 -->
<g id="edge33_Node000021_Node000022" class="edge">
<title>Node21&#45;&gt;Node22</title>
<g id="a_edge33_Node000021_Node000022"><a xlink:title=" ">
<path fill="none" stroke="#63b8ff" d="M477.32,-227.91C570.46,-216.32 750.19,-193.95 839.04,-182.89"/>
<polygon fill="#63b8ff" stroke="#63b8ff" points="839.44,-186.37 848.93,-181.66 838.58,-179.42 839.44,-186.37"/>
</a>
</g>
</g>
<!-- Node22&#45;&gt;Node4 -->
<g id="edge39_Node000022_Node000004" class="edge">
<title>Node22&#45;&gt;Node4</title>
<g id="a_edge39_Node000022_Node000004"><a xlink:title=" ">
<path fill="none" stroke="#63b8ff" d="M850.35,-172.01C745.88,-165.91 461.23,-148.77 224.37,-129.75 211.76,-128.74 198.19,-127.53 185.44,-126.34"/>
<polygon fill="#63b8ff" stroke="#63b8ff" points="185.81,-122.86 175.53,-125.41 185.16,-129.83 185.81,-122.86"/>
</a>
</g>
</g>
<!-- Node22&#45;&gt;Node8 -->
<g id="edge36_Node000022_Node000008" class="edge">
<title>Node22&#45;&gt;Node8</title>
<g id="a_edge36_Node000022_Node000008"><a xlink:title=" ">
<path fill="none" stroke="#63b8ff" d="M850.27,-173.65C783.88,-171.48 649.55,-162.96 541.37,-129.75 523.27,-124.19 520.97,-117.47 503.37,-110.5 462.56,-94.33 413.55,-80.98 382.43,-73.21"/>
<polygon fill="#63b8ff" stroke="#63b8ff" points="383.45,-69.86 372.9,-70.88 381.78,-76.66 383.45,-69.86"/>
</a>
</g>
</g>
<!-- Node22&#45;&gt;Node9 -->
<g id="edge38_Node000022_Node000009" class="edge">
<title>Node22&#45;&gt;Node9</title>
<g id="a_edge38_Node000022_Node000009"><a xlink:title=" ">
<path fill="none" stroke="#63b8ff" d="M867.47,-165.27C849.23,-157.57 824.14,-145.33 805.37,-129.75 789.65,-116.71 775.69,-97.94 766.55,-84.12"/>
<polygon fill="#63b8ff" stroke="#63b8ff" points="769.68,-82.53 761.35,-75.97 763.78,-86.29 769.68,-82.53"/>
</a>
</g>
</g>
<!-- Node23 -->
<g id="Node000023" class="node">
<title>Node23</title>
<g id="a_Node000023"><a xlink:title=" ">
<polygon fill="#e0e0e0" stroke="#999999" points="1100.12,-129.75 1046.62,-129.75 1046.62,-110.5 1100.12,-110.5 1100.12,-129.75"/>
<text text-anchor="middle" x="1073.37" y="-116.25" font-family="Helvetica,sans-Serif" font-size="10.00">iostream</text>
</a>
</g>
</g>
<!-- Node22&#45;&gt;Node23 -->
<g id="edge34_Node000022_Node000023" class="edge">
<title>Node22&#45;&gt;Node23</title>
<g id="a_edge34_Node000022_Node000023"><a xlink:title=" ">
<path fill="none" stroke="#63b8ff" d="M922.24,-165.34C953.49,-156.2 1001.87,-142.04 1035.44,-132.22"/>
<polygon fill="#63b8ff" stroke="#63b8ff" points="1036.14,-135.66 1044.76,-129.5 1034.18,-128.94 1036.14,-135.66"/>
</a>
</g>
</g>
<!-- Node24 -->
<g id="Node000024" class="node">
<title>Node24</title>
<g id="a_Node000024"><a xlink:title=" ">
<polygon fill="#e0e0e0" stroke="#999999" points="1186.99,-129.75 1117.74,-129.75 1117.74,-110.5 1186.99,-110.5 1186.99,-129.75"/>
<text text-anchor="middle" x="1152.37" y="-116.25" font-family="Helvetica,sans-Serif" font-size="10.00">fmt/format.h</text>
</a>
</g>
</g>
<!-- Node22&#45;&gt;Node24 -->
<g id="edge35_Node000022_Node000024" class="edge">
<title>Node22&#45;&gt;Node24</title>
<g id="a_edge35_Node000022_Node000024"><a xlink:title=" ">
<path fill="none" stroke="#63b8ff" d="M932.44,-166C979.62,-156.37 1056.85,-140.61 1106.11,-130.56"/>
<polygon fill="#63b8ff" stroke="#63b8ff" points="1106.81,-133.99 1115.9,-128.56 1105.41,-127.13 1106.81,-133.99"/>
</a>
</g>
</g>
<!-- Node25 -->
<g id="Node000025" class="node">
<title>Node25</title>
<g id="a_Node000025"><a xlink:title=" ">
<polygon fill="#e0e0e0" stroke="#999999" points="1249.99,-129.75 1204.74,-129.75 1204.74,-110.5 1249.99,-110.5 1249.99,-129.75"/>
<text text-anchor="middle" x="1227.37" y="-116.25" font-family="Helvetica,sans-Serif" font-size="10.00">chrono</text>
</a>
</g>
</g>
<!-- Node22&#45;&gt;Node25 -->
<g id="edge37_Node000022_Node000025" class="edge">
<title>Node22&#45;&gt;Node25</title>
<g id="a_edge37_Node000022_Node000025"><a xlink:title=" ">
<path fill="none" stroke="#63b8ff" d="M932.11,-170.07C988.75,-163.72 1094.64,-150.56 1193.36,-130.18"/>
<polygon fill="#63b8ff" stroke="#63b8ff" points="1193.87,-133.65 1202.94,-128.17 1192.44,-126.79 1193.87,-133.65"/>
</a>
</g>
</g>
<!-- Node26 -->
<g id="Node000026" class="node">
<title>Node26</title>
<g id="a_Node000026"><a xlink:title=" ">
<polygon fill="#e0e0e0" stroke="#999999" points="1028.24,-129.75 966.49,-129.75 966.49,-110.5 1028.24,-110.5 1028.24,-129.75"/>
<text text-anchor="middle" x="997.37" y="-116.25" font-family="Helvetica,sans-Serif" font-size="10.00">fmt/color.h</text>
</a>
</g>
</g>
<!-- Node22&#45;&gt;Node26 -->
<g id="edge40_Node000022_Node000026" class="edge">
<title>Node22&#45;&gt;Node26</title>
<g id="a_edge40_Node000022_Node000026"><a xlink:title=" ">
<path fill="none" stroke="#63b8ff" d="M909.35,-165.34C925.72,-157.12 950.16,-144.84 969.13,-135.31"/>
<polygon fill="#63b8ff" stroke="#63b8ff" points="970.58,-138.5 977.95,-130.88 967.44,-132.24 970.58,-138.5"/>
</a>
</g>
</g>
</g>
</svg>

<g id="navigator" transform="translate(0 0)" fill="#404254">
  <rect fill="#f2f5e9" fill-opacity="0.5" stroke="#606060" stroke-width=".5" x="0" y="0" width="60" height="60"/>
  <use id="zoomplus" xlink:href="#zoomPlus" x="17" y="9" onmousedown="handleZoom(evt,'in')"/>
  <use id="zoomminus" xlink:href="#zoomMin" x="42" y="9" onmousedown="handleZoom(evt,'out')"/>
  <use id="reset" xlink:href="#resetDef" x="30" y="36" onmousedown="handleReset()"/>
   <use id="arrowup" xlink:href="#arrowUp" x="0" y="0" onmousedown="handlePan(0,-1)"/>
  <use id="arrowright" xlink:href="#arrowRight" x="0" y="0" onmousedown="handlePan(1,0)"/>
  <use id="arrowdown" xlink:href="#arrowDown" x="0" y="0" onmousedown="handlePan(0,1)"/>
  <use id="arrowleft" xlink:href="#arrowLeft" x="0" y="0" onmousedown="handlePan(-1,0)"/>
</g>
<svg viewBox="0 0 15 15" width="100%" height="30px" preserveAspectRatio="xMaxYMin meet">
 <g id="arrow_out" transform="scale(0.3 0.3)">
  <a xlink:href="Executor_8cpp__incl_org.svg" target="_base">
   <rect id="button" ry="5" rx="5" y="6" x="6" height="38" width="38"
        fill="#f2f5e9" fill-opacity="0.5" stroke="#606060" stroke-width="1.0"/>
   <path id="arrow"
     d="M 11.500037,31.436501 C 11.940474,20.09759 22.043105,11.32322 32.158766,21.979434 L 37.068811,17.246167 C 37.068811,17.246167 37.088388,32 37.088388,32 L 22.160133,31.978069 C 22.160133,31.978069 26.997745,27.140456 26.997745,27.140456 C 18.528582,18.264221 13.291696,25.230495 11.500037,31.436501 z"
     style="fill:#404040;"/>
  </a>
 </g>
</svg>

<style type='text/css'>
<![CDATA[
[data-mouse-over-selected='false'] { opacity: 0.7; }
[data-mouse-over-selected='true']  { opacity: 1.0; }
]]>
</style>
<script type="application/ecmascript"><![CDATA[
document.addEventListener('DOMContentLoaded', (event) => {
  highlightEdges();
  highlightAdjacentNodes();
});
]]></script>
</svg>
