<?xml version="1.0" encoding="UTF-8" standalone="no"?>
<!DOCTYPE svg PUBLIC "-//W3C//DTD SVG 1.1//EN"
 "http://www.w3.org/Graphics/SVG/1.1/DTD/svg11.dtd">
<!-- Generated by graphviz version 2.49.0 (20210828.1703)
 -->
<!-- Title: C:/Users/folae/Documents/Code/Big&#45;Projects/ArkScript/Ark/include/Ark/Compiler/Macros/Executors/Symbol.hpp Pages: 1 -->
<svg width="322pt" height="150pt"
 viewBox="0.00 0.00 322.00 150.00" xmlns="http://www.w3.org/2000/svg" xmlns:xlink="http://www.w3.org/1999/xlink">
<g id="graph0" class="graph" transform="scale(1 1) rotate(0) translate(4 146)">
<title>C:/Users/folae/Documents/Code/Big&#45;Projects/ArkScript/Ark/include/Ark/Compiler/Macros/Executors/Symbol.hpp</title>
<polygon fill="white" stroke="transparent" points="-4,4 -4,-146 318,-146 318,4 -4,4"/>
<!-- Node1 -->
<g id="node1" class="node">
<title>Node1</title>
<g id="a_node1"><a xlink:title="Executor for Symbol Macros.">
<polygon fill="#bfbfbf" stroke="black" points="78.5,-89.5 78.5,-141.5 241.5,-141.5 241.5,-89.5 78.5,-89.5"/>
<text text-anchor="start" x="86.5" y="-129.5" font-family="Helvetica,sans-Serif" font-size="10.00">C:/Users/folae/Documents</text>
<text text-anchor="start" x="86.5" y="-118.5" font-family="Helvetica,sans-Serif" font-size="10.00">/Code/Big&#45;Projects/ArkScript</text>
<text text-anchor="start" x="86.5" y="-107.5" font-family="Helvetica,sans-Serif" font-size="10.00">/Ark/include/Ark/Compiler/Macros</text>
<text text-anchor="middle" x="160" y="-96.5" font-family="Helvetica,sans-Serif" font-size="10.00">/Executors/Symbol.hpp</text>
</a>
</g>
</g>
<!-- Node2 -->
<g id="node2" class="node">
<title>Node2</title>
<g id="a_node2"><a xlink:href="../../d8/d0b/Symbol_8cpp.html" target="_top" xlink:title=" ">
<polygon fill="white" stroke="black" points="0,-0.5 0,-52.5 154,-52.5 154,-0.5 0,-0.5"/>
<text text-anchor="start" x="8" y="-40.5" font-family="Helvetica,sans-Serif" font-size="10.00">C:/Users/folae/Documents</text>
<text text-anchor="start" x="8" y="-29.5" font-family="Helvetica,sans-Serif" font-size="10.00">/Code/Big&#45;Projects/ArkScript</text>
<text text-anchor="start" x="8" y="-18.5" font-family="Helvetica,sans-Serif" font-size="10.00">/Ark/src/arkreactor/Compiler</text>
<text text-anchor="middle" x="77" y="-7.5" font-family="Helvetica,sans-Serif" font-size="10.00">/Macros/Executors/Symbol.cpp</text>
</a>
</g>
</g>
<!-- Node1&#45;&gt;Node2 -->
<g id="edge1" class="edge">
<title>Node1&#45;&gt;Node2</title>
<path fill="none" stroke="midnightblue" d="M129.07,-82.08C119.77,-72.34 109.72,-61.8 100.95,-52.61"/>
<polygon fill="midnightblue" stroke="midnightblue" points="126.56,-84.52 135.99,-89.34 131.62,-79.68 126.56,-84.52"/>
</g>
<!-- Node3 -->
<g id="node3" class="node">
<title>Node3</title>
<g id="a_node3"><a xlink:href="../../d6/d69/Processor_8cpp.html" target="_top" xlink:title=" ">
<polygon fill="white" stroke="black" points="172,-0.5 172,-52.5 314,-52.5 314,-0.5 172,-0.5"/>
<text text-anchor="start" x="180" y="-40.5" font-family="Helvetica,sans-Serif" font-size="10.00">C:/Users/folae/Documents</text>
<text text-anchor="start" x="180" y="-29.5" font-family="Helvetica,sans-Serif" font-size="10.00">/Code/Big&#45;Projects/ArkScript</text>
<text text-anchor="start" x="180" y="-18.5" font-family="Helvetica,sans-Serif" font-size="10.00">/Ark/src/arkreactor/Compiler</text>
<text text-anchor="middle" x="243" y="-7.5" font-family="Helvetica,sans-Serif" font-size="10.00">/Macros/Processor.cpp</text>
</a>
</g>
</g>
<!-- Node1&#45;&gt;Node3 -->
<g id="edge2" class="edge">
<title>Node1&#45;&gt;Node3</title>
<path fill="none" stroke="midnightblue" d="M190.93,-82.08C200.23,-72.34 210.28,-61.8 219.05,-52.61"/>
<polygon fill="midnightblue" stroke="midnightblue" points="188.38,-79.68 184.01,-89.34 193.44,-84.52 188.38,-79.68"/>
</g>
</g>
</svg>
