<?xml version="1.0" encoding="UTF-8" standalone="no"?>
<!DOCTYPE svg PUBLIC "-//W3C//DTD SVG 1.1//EN"
 "http://www.w3.org/Graphics/SVG/1.1/DTD/svg11.dtd">
<!-- Generated by graphviz version 2.49.0 (20210828.1703)
 -->
<!-- Title: C:/Users/folae/Documents/Code/Big&#45;Projects/ArkScript/Ark/include/Ark/VM/ExecutionContext.hpp Pages: 1 -->
<!--zoomable 274 -->
<svg id="main" version="1.1" xmlns="http://www.w3.org/2000/svg" xmlns:xlink="http://www.w3.org/1999/xlink" xml:space="preserve" onload="init(evt)">
<style type="text/css"><![CDATA[
.edge:hover path { stroke: red; }
.edge:hover polygon { stroke: red; fill: red; }
]]></style>
<script type="text/javascript"><![CDATA[
var edges = document.getElementsByTagName('g');
if (edges && edges.length) {
  for (var i=0;i<edges.length;i++) {
    if (edges[i].id.substr(0,4)=='edge') {
      edges[i].setAttribute('class','edge');
    }
  }
}
]]></script>
        <defs>
                <circle id="rim" cx="0" cy="0" r="7"/>
                <circle id="rim2" cx="0" cy="0" r="3.5"/>
                <g id="zoomPlus">
                        <use xlink:href="#rim" fill="#404040">
                                <set attributeName="fill" to="#808080" begin="zoomplus.mouseover" end="zoomplus.mouseout"/>
                        </use>
                        <path d="M-4,0h8M0,-4v8" fill="none" stroke="white" stroke-width="1.5" pointer-events="none"/>
                </g>
                <g id="zoomMin">
                        <use xlink:href="#rim" fill="#404040">
                                <set attributeName="fill" to="#808080" begin="zoomminus.mouseover" end="zoomminus.mouseout"/>
                        </use>
                        <path d="M-4,0h8" fill="none" stroke="white" stroke-width="1.5" pointer-events="none"/>
                </g>
                <g id="dirArrow">
                        <path fill="none" stroke="white" stroke-width="1.5" d="M0,-3.0v7 M-2.5,-0.5L0,-3.0L2.5,-0.5"/>
                </g>
               <g id="resetDef">
                       <use xlink:href="#rim2" fill="#404040">
                               <set attributeName="fill" to="#808080" begin="reset.mouseover" end="reset.mouseout"/>
                       </use>
               </g>
        </defs>

<script type="text/javascript">
var viewWidth = 1406;
var viewHeight = 274;
var sectionId = 'dynsection-0';
</script>
<script xlink:href="../../svgpan.js"/>
<svg id="graph" class="graph">
<g id="viewport">
<title>C:/Users/folae/Documents/Code/Big&#45;Projects/ArkScript/Ark/include/Ark/VM/ExecutionContext.hpp</title>
<polygon fill="white" stroke="transparent" points="-4,4 -4,-270 1402,-270 1402,4 -4,4"/>
<!-- Node1 -->
<g id="node1" class="node">
<title>Node1</title>
<g id="a_node1"><a xlink:title="Keeping track of the internal data needed by the VM.">
<polygon fill="#bfbfbf" stroke="black" points="1083.5,-224.5 1083.5,-265.5 1286.5,-265.5 1286.5,-224.5 1083.5,-224.5"/>
<text text-anchor="start" x="1091.5" y="-253.5" font-family="Helvetica,sans-Serif" font-size="10.00">C:/Users/folae/Documents</text>
<text text-anchor="start" x="1091.5" y="-242.5" font-family="Helvetica,sans-Serif" font-size="10.00">/Code/Big&#45;Projects/ArkScript</text>
<text text-anchor="middle" x="1185" y="-231.5" font-family="Helvetica,sans-Serif" font-size="10.00">/Ark/include/Ark/VM/ExecutionContext.hpp</text>
</a>
</g>
</g>
<!-- Node2 -->
<g id="node2" class="node">
<title>Node2</title>
<g id="a_node2"><a xlink:title=" ">
<polygon fill="white" stroke="#bfbfbf" points="0,-56.5 0,-75.5 38,-75.5 38,-56.5 0,-56.5"/>
<text text-anchor="middle" x="19" y="-63.5" font-family="Helvetica,sans-Serif" font-size="10.00">array</text>
</a>
</g>
</g>
<!-- Node1&#45;&gt;Node2 -->
<g id="edge1" class="edge">
<title>Node1&#45;&gt;Node2</title>
<path fill="none" stroke="midnightblue" d="M1083.28,-241.44C900.62,-234.91 506.04,-211.95 184,-132 133.36,-119.43 77.46,-95.02 45.45,-79.95"/>
<polygon fill="midnightblue" stroke="midnightblue" points="46.85,-76.74 36.32,-75.6 43.84,-83.06 46.85,-76.74"/>
</g>
<!-- Node3 -->
<g id="node3" class="node">
<title>Node3</title>
<g id="a_node3"><a xlink:title=" ">
<polygon fill="white" stroke="#bfbfbf" points="1290,-168.5 1290,-187.5 1330,-187.5 1330,-168.5 1290,-168.5"/>
<text text-anchor="middle" x="1310" y="-175.5" font-family="Helvetica,sans-Serif" font-size="10.00">limits</text>
</a>
</g>
</g>
<!-- Node1&#45;&gt;Node3 -->
<g id="edge2" class="edge">
<title>Node1&#45;&gt;Node3</title>
<path fill="none" stroke="midnightblue" d="M1222.5,-224.5C1242.41,-214.15 1266.36,-201.69 1284.16,-192.43"/>
<polygon fill="midnightblue" stroke="midnightblue" points="1286.1,-195.37 1293.36,-187.65 1282.87,-189.16 1286.1,-195.37"/>
</g>
<!-- Node4 -->
<g id="node4" class="node">
<title>Node4</title>
<g id="a_node4"><a xlink:title=" ">
<polygon fill="white" stroke="#bfbfbf" points="1348,-168.5 1348,-187.5 1398,-187.5 1398,-168.5 1348,-168.5"/>
<text text-anchor="middle" x="1373" y="-175.5" font-family="Helvetica,sans-Serif" font-size="10.00">optional</text>
</a>
</g>
</g>
<!-- Node1&#45;&gt;Node4 -->
<g id="edge3" class="edge">
<title>Node1&#45;&gt;Node4</title>
<path fill="none" stroke="midnightblue" d="M1241.41,-224.5C1273,-213.57 1311.38,-200.3 1338.52,-190.92"/>
<polygon fill="midnightblue" stroke="midnightblue" points="1339.67,-194.23 1347.97,-187.65 1337.38,-187.61 1339.67,-194.23"/>
</g>
<!-- Node5 -->
<g id="node5" class="node">
<title>Node5</title>
<g id="a_node5"><a xlink:title=" ">
<polygon fill="white" stroke="#bfbfbf" points="1130,-56.5 1130,-75.5 1186,-75.5 1186,-56.5 1130,-56.5"/>
<text text-anchor="middle" x="1158" y="-63.5" font-family="Helvetica,sans-Serif" font-size="10.00">cinttypes</text>
</a>
</g>
</g>
<!-- Node1&#45;&gt;Node5 -->
<g id="edge4" class="edge">
<title>Node1&#45;&gt;Node5</title>
<path fill="none" stroke="midnightblue" d="M1213.59,-224.47C1225.01,-214.95 1236.87,-202.43 1243,-188 1256.2,-156.91 1260.42,-140.94 1243,-112 1232.68,-94.86 1213.4,-83.91 1195.81,-77.1"/>
<polygon fill="midnightblue" stroke="midnightblue" points="1196.87,-73.77 1186.28,-73.74 1194.54,-80.37 1196.87,-73.77"/>
</g>
<!-- Node6 -->
<g id="node6" class="node">
<title>Node6</title>
<g id="a_node6"><a xlink:href="../../d6/de9/Constants_8hpp.html" target="_top" xlink:title="Constants used by ArkScript.">
<polygon fill="white" stroke="black" points="1136,-168.5 1136,-187.5 1234,-187.5 1234,-168.5 1136,-168.5"/>
<text text-anchor="middle" x="1185" y="-175.5" font-family="Helvetica,sans-Serif" font-size="10.00">Ark/Constants.hpp</text>
</a>
</g>
</g>
<!-- Node1&#45;&gt;Node6 -->
<g id="edge5" class="edge">
<title>Node1&#45;&gt;Node6</title>
<path fill="none" stroke="midnightblue" d="M1185,-224.5C1185,-216.07 1185,-206.24 1185,-197.87"/>
<polygon fill="midnightblue" stroke="midnightblue" points="1188.5,-197.65 1185,-187.65 1181.5,-197.65 1188.5,-197.65"/>
</g>
<!-- Node8 -->
<g id="node8" class="node">
<title>Node8</title>
<g id="a_node8"><a xlink:href="../../de/dfd/Value_8hpp.html" target="_top" xlink:title=" ">
<polygon fill="white" stroke="black" points="686,-112.5 686,-131.5 782,-131.5 782,-112.5 686,-112.5"/>
<text text-anchor="middle" x="734" y="-119.5" font-family="Helvetica,sans-Serif" font-size="10.00">Ark/VM/Value.hpp</text>
</a>
</g>
</g>
<!-- Node1&#45;&gt;Node8 -->
<g id="edge8" class="edge">
<title>Node1&#45;&gt;Node8</title>
<path fill="none" stroke="midnightblue" d="M1112.29,-224.49C1016.79,-198.87 852.27,-154.73 775.59,-134.16"/>
<polygon fill="midnightblue" stroke="midnightblue" points="776.38,-130.75 765.81,-131.53 774.56,-137.51 776.38,-130.75"/>
</g>
<!-- Node22 -->
<g id="node22" class="node">
<title>Node22</title>
<g id="a_node22"><a xlink:href="../../d8/dcd/Scope_8hpp.html" target="_top" xlink:title="The virtual machine scope system.">
<polygon fill="white" stroke="black" points="1018.5,-168.5 1018.5,-187.5 1117.5,-187.5 1117.5,-168.5 1018.5,-168.5"/>
<text text-anchor="middle" x="1068" y="-175.5" font-family="Helvetica,sans-Serif" font-size="10.00">Ark/VM/Scope.hpp</text>
</a>
</g>
</g>
<!-- Node1&#45;&gt;Node22 -->
<g id="edge33" class="edge">
<title>Node1&#45;&gt;Node22</title>
<path fill="none" stroke="midnightblue" d="M1149.9,-224.5C1131.44,-214.24 1109.27,-201.93 1092.65,-192.69"/>
<polygon fill="midnightblue" stroke="midnightblue" points="1094.02,-189.45 1083.57,-187.65 1090.62,-195.57 1094.02,-189.45"/>
</g>
<!-- Node6&#45;&gt;Node5 -->
<g id="edge6" class="edge">
<title>Node6&#45;&gt;Node5</title>
<path fill="none" stroke="midnightblue" d="M1182.88,-168.37C1178.52,-150.62 1168.47,-109.67 1162.56,-85.6"/>
<polygon fill="midnightblue" stroke="midnightblue" points="1165.89,-84.47 1160.11,-75.59 1159.09,-86.14 1165.89,-84.47"/>
</g>
<!-- Node7 -->
<g id="node7" class="node">
<title>Node7</title>
<g id="a_node7"><a xlink:title=" ">
<polygon fill="white" stroke="#bfbfbf" points="1186,-112.5 1186,-131.5 1234,-131.5 1234,-112.5 1186,-112.5"/>
<text text-anchor="middle" x="1210" y="-119.5" font-family="Helvetica,sans-Serif" font-size="10.00">cstddef</text>
</a>
</g>
</g>
<!-- Node6&#45;&gt;Node7 -->
<g id="edge7" class="edge">
<title>Node6&#45;&gt;Node7</title>
<path fill="none" stroke="midnightblue" d="M1189.13,-168.08C1192.51,-160.77 1197.42,-150.18 1201.62,-141.1"/>
<polygon fill="midnightblue" stroke="midnightblue" points="1204.92,-142.3 1205.95,-131.75 1198.57,-139.36 1204.92,-142.3"/>
</g>
<!-- Node8&#45;&gt;Node2 -->
<g id="edge18" class="edge">
<title>Node8&#45;&gt;Node2</title>
<path fill="none" stroke="midnightblue" d="M685.87,-118.76C578.08,-113.49 309.14,-99.03 85,-76 72.85,-74.75 59.48,-73 47.98,-71.37"/>
<polygon fill="midnightblue" stroke="midnightblue" points="48.42,-67.9 38.02,-69.93 47.42,-74.83 48.42,-67.9"/>
</g>
<!-- Node8&#45;&gt;Node5 -->
<g id="edge12" class="edge">
<title>Node8&#45;&gt;Node5</title>
<path fill="none" stroke="midnightblue" d="M782.23,-114.86C867.22,-104.03 1042.01,-81.77 1119.52,-71.9"/>
<polygon fill="midnightblue" stroke="midnightblue" points="1120.32,-75.33 1129.8,-70.59 1119.43,-68.38 1120.32,-75.33"/>
</g>
<!-- Node9 -->
<g id="node9" class="node">
<title>Node9</title>
<g id="a_node9"><a xlink:title=" ">
<polygon fill="white" stroke="#bfbfbf" points="911,-0.5 911,-19.5 953,-19.5 953,-0.5 911,-0.5"/>
<text text-anchor="middle" x="932" y="-7.5" font-family="Helvetica,sans-Serif" font-size="10.00">vector</text>
</a>
</g>
</g>
<!-- Node8&#45;&gt;Node9 -->
<g id="edge9" class="edge">
<title>Node8&#45;&gt;Node9</title>
<path fill="none" stroke="midnightblue" d="M782.01,-121.36C860.65,-120.82 1011.57,-114.62 1045,-76 1071.69,-45.18 1004.86,-25.55 962.91,-16.62"/>
<polygon fill="midnightblue" stroke="midnightblue" points="963.61,-13.19 953.11,-14.63 962.21,-20.05 963.61,-13.19"/>
</g>
<!-- Node10 -->
<g id="node10" class="node">
<title>Node10</title>
<g id="a_node10"><a xlink:title=" ">
<polygon fill="white" stroke="#bfbfbf" points="856,-56.5 856,-75.5 900,-75.5 900,-56.5 856,-56.5"/>
<text text-anchor="middle" x="878" y="-63.5" font-family="Helvetica,sans-Serif" font-size="10.00">variant</text>
</a>
</g>
</g>
<!-- Node8&#45;&gt;Node10 -->
<g id="edge10" class="edge">
<title>Node8&#45;&gt;Node10</title>
<path fill="none" stroke="midnightblue" d="M756.82,-112.44C780.97,-103.39 819.28,-89.02 846.35,-78.87"/>
<polygon fill="midnightblue" stroke="midnightblue" points="847.63,-82.13 855.76,-75.34 845.17,-75.57 847.63,-82.13"/>
</g>
<!-- Node11 -->
<g id="node11" class="node">
<title>Node11</title>
<g id="a_node11"><a xlink:title=" ">
<polygon fill="white" stroke="#bfbfbf" points="918.5,-56.5 918.5,-75.5 959.5,-75.5 959.5,-56.5 918.5,-56.5"/>
<text text-anchor="middle" x="939" y="-63.5" font-family="Helvetica,sans-Serif" font-size="10.00">string</text>
</a>
</g>
</g>
<!-- Node8&#45;&gt;Node11 -->
<g id="edge11" class="edge">
<title>Node8&#45;&gt;Node11</title>
<path fill="none" stroke="midnightblue" d="M768.97,-112.44C802.37,-104.17 854.34,-91.06 908.58,-76.03"/>
<polygon fill="midnightblue" stroke="midnightblue" points="909.68,-79.36 918.37,-73.31 907.8,-72.62 909.68,-79.36"/>
</g>
<!-- Node12 -->
<g id="node12" class="node">
<title>Node12</title>
<g id="a_node12"><a xlink:title=" ">
<polygon fill="white" stroke="#bfbfbf" points="707,-0.5 707,-19.5 761,-19.5 761,-0.5 707,-0.5"/>
<text text-anchor="middle" x="734" y="-7.5" font-family="Helvetica,sans-Serif" font-size="10.00">iostream</text>
</a>
</g>
</g>
<!-- Node8&#45;&gt;Node12 -->
<g id="edge13" class="edge">
<title>Node8&#45;&gt;Node12</title>
<path fill="none" stroke="midnightblue" d="M761.28,-112.45C778.29,-105.55 798.83,-93.97 809,-76 821.72,-53.53 793.85,-35.09 768.55,-23.67"/>
<polygon fill="midnightblue" stroke="midnightblue" points="769.64,-20.33 759.07,-19.64 766.9,-26.77 769.64,-20.33"/>
</g>
<!-- Node13 -->
<g id="node13" class="node">
<title>Node13</title>
<g id="a_node13"><a xlink:title=" ">
<polygon fill="white" stroke="#bfbfbf" points="614,-0.5 614,-19.5 666,-19.5 666,-0.5 614,-0.5"/>
<text text-anchor="middle" x="640" y="-7.5" font-family="Helvetica,sans-Serif" font-size="10.00">memory</text>
</a>
</g>
</g>
<!-- Node8&#45;&gt;Node13 -->
<g id="edge14" class="edge">
<title>Node8&#45;&gt;Node13</title>
<path fill="none" stroke="midnightblue" d="M710.82,-112.48C694.12,-105.22 672.27,-93.19 659,-76 648.68,-62.63 643.96,-43.81 641.81,-29.86"/>
<polygon fill="midnightblue" stroke="midnightblue" points="645.28,-29.4 640.57,-19.91 638.33,-30.26 645.28,-29.4"/>
</g>
<!-- Node14 -->
<g id="node14" class="node">
<title>Node14</title>
<g id="a_node14"><a xlink:title=" ">
<polygon fill="white" stroke="#bfbfbf" points="978,-56.5 978,-75.5 1036,-75.5 1036,-56.5 978,-56.5"/>
<text text-anchor="middle" x="1007" y="-63.5" font-family="Helvetica,sans-Serif" font-size="10.00">functional</text>
</a>
</g>
</g>
<!-- Node8&#45;&gt;Node14 -->
<g id="edge15" class="edge">
<title>Node8&#45;&gt;Node14</title>
<path fill="none" stroke="midnightblue" d="M781.83,-112.47C827.27,-104.22 897.73,-91.07 968.06,-76.13"/>
<polygon fill="midnightblue" stroke="midnightblue" points="968.94,-79.52 977.98,-74.01 967.47,-72.68 968.94,-79.52"/>
</g>
<!-- Node15 -->
<g id="node15" class="node">
<title>Node15</title>
<g id="a_node15"><a xlink:title=" ">
<polygon fill="white" stroke="#bfbfbf" points="386,-0.5 386,-19.5 426,-19.5 426,-0.5 386,-0.5"/>
<text text-anchor="middle" x="406" y="-7.5" font-family="Helvetica,sans-Serif" font-size="10.00">utility</text>
</a>
</g>
</g>
<!-- Node8&#45;&gt;Node15 -->
<g id="edge16" class="edge">
<title>Node8&#45;&gt;Node15</title>
<path fill="none" stroke="midnightblue" d="M685.78,-117.64C616.27,-112.08 492.06,-99.18 454,-76 435.89,-64.97 422.44,-44.31 414.45,-29.24"/>
<polygon fill="midnightblue" stroke="midnightblue" points="417.39,-27.28 409.81,-19.88 411.12,-30.39 417.39,-27.28"/>
</g>
<!-- Node16 -->
<g id="node16" class="node">
<title>Node16</title>
<g id="a_node16"><a xlink:title=" ">
<polygon fill="white" stroke="#bfbfbf" points="94.5,-56.5 94.5,-75.5 173.5,-75.5 173.5,-56.5 94.5,-56.5"/>
<text text-anchor="middle" x="134" y="-63.5" font-family="Helvetica,sans-Serif" font-size="10.00">Ark/String.hpp</text>
</a>
</g>
</g>
<!-- Node8&#45;&gt;Node16 -->
<g id="edge17" class="edge">
<title>Node8&#45;&gt;Node16</title>
<path fill="none" stroke="midnightblue" d="M685.92,-118.7C591.62,-113.83 375.61,-100.94 183.52,-75.93"/>
<polygon fill="midnightblue" stroke="midnightblue" points="183.9,-72.45 173.53,-74.61 182.98,-79.39 183.9,-72.45"/>
</g>
<!-- Node17 -->
<g id="node17" class="node">
<title>Node17</title>
<g id="a_node17"><a xlink:href="../../dc/dd5/Closure_8hpp.html" target="_top" xlink:title="Subtype of the value type, handling closures.">
<polygon fill="white" stroke="black" points="668,-56.5 668,-75.5 800,-75.5 800,-56.5 668,-56.5"/>
<text text-anchor="middle" x="734" y="-63.5" font-family="Helvetica,sans-Serif" font-size="10.00">Ark/VM/Value/Closure.hpp</text>
</a>
</g>
</g>
<!-- Node8&#45;&gt;Node17 -->
<g id="edge19" class="edge">
<title>Node8&#45;&gt;Node17</title>
<path fill="none" stroke="midnightblue" d="M734,-112.08C734,-105.01 734,-94.86 734,-85.99"/>
<polygon fill="midnightblue" stroke="midnightblue" points="737.5,-85.75 734,-75.75 730.5,-85.75 737.5,-85.75"/>
</g>
<!-- Node18 -->
<g id="node18" class="node">
<title>Node18</title>
<g id="a_node18"><a xlink:href="../../d5/d40/Platform_8hpp.html" target="_top" xlink:title="ArkScript configuration macros.">
<polygon fill="white" stroke="black" points="497.5,-0.5 497.5,-19.5 586.5,-19.5 586.5,-0.5 497.5,-0.5"/>
<text text-anchor="middle" x="542" y="-7.5" font-family="Helvetica,sans-Serif" font-size="10.00">Ark/Platform.hpp</text>
</a>
</g>
</g>
<!-- Node8&#45;&gt;Node18 -->
<g id="edge30" class="edge">
<title>Node8&#45;&gt;Node18</title>
<path fill="none" stroke="midnightblue" d="M685.9,-120.18C615.85,-117.86 491.02,-109.06 463,-76 445.1,-54.88 478.29,-35.38 506.99,-23.36"/>
<polygon fill="midnightblue" stroke="midnightblue" points="508.48,-26.53 516.47,-19.58 505.88,-20.03 508.48,-26.53"/>
</g>
<!-- Node19 -->
<g id="node19" class="node">
<title>Node19</title>
<g id="a_node19"><a xlink:href="../../dc/d3d/UserType_8hpp.html" target="_top" xlink:title="Subtype of the value, capable of handling any C++ type.">
<polygon fill="white" stroke="black" points="472,-56.5 472,-75.5 612,-75.5 612,-56.5 472,-56.5"/>
<text text-anchor="middle" x="542" y="-63.5" font-family="Helvetica,sans-Serif" font-size="10.00">Ark/VM/Value/UserType.hpp</text>
</a>
</g>
</g>
<!-- Node8&#45;&gt;Node19 -->
<g id="edge24" class="edge">
<title>Node8&#45;&gt;Node19</title>
<path fill="none" stroke="midnightblue" d="M703.58,-112.44C670.72,-103.2 618.22,-88.44 582.03,-78.26"/>
<polygon fill="midnightblue" stroke="midnightblue" points="582.85,-74.85 572.28,-75.52 580.96,-81.59 582.85,-74.85"/>
</g>
<!-- Node20 -->
<g id="node20" class="node">
<title>Node20</title>
<g id="a_node20"><a xlink:href="../../d0/dd2/Profiling_8hpp.html" target="_top" xlink:title=" ">
<polygon fill="white" stroke="black" points="192,-56.5 192,-75.5 280,-75.5 280,-56.5 192,-56.5"/>
<text text-anchor="middle" x="236" y="-63.5" font-family="Helvetica,sans-Serif" font-size="10.00">Ark/Profiling.hpp</text>
</a>
</g>
</g>
<!-- Node8&#45;&gt;Node20 -->
<g id="edge31" class="edge">
<title>Node8&#45;&gt;Node20</title>
<path fill="none" stroke="midnightblue" d="M685.8,-117.2C605.85,-110.66 440.54,-96.14 290.53,-76.13"/>
<polygon fill="midnightblue" stroke="midnightblue" points="290.59,-72.6 280.21,-74.74 289.66,-79.54 290.59,-72.6"/>
</g>
<!-- Node21 -->
<g id="node21" class="node">
<title>Node21</title>
<g id="a_node21"><a xlink:title=" ">
<polygon fill="white" stroke="#bfbfbf" points="298,-56.5 298,-75.5 378,-75.5 378,-56.5 298,-56.5"/>
<text text-anchor="middle" x="338" y="-63.5" font-family="Helvetica,sans-Serif" font-size="10.00">inline/Value.inl</text>
</a>
</g>
</g>
<!-- Node8&#45;&gt;Node21 -->
<g id="edge32" class="edge">
<title>Node8&#45;&gt;Node21</title>
<path fill="none" stroke="midnightblue" d="M685.79,-115.19C619.5,-107.07 496.54,-91.59 392,-76 390.73,-75.81 389.45,-75.62 388.15,-75.42"/>
<polygon fill="midnightblue" stroke="midnightblue" points="388.5,-71.93 378.08,-73.84 387.42,-78.85 388.5,-71.93"/>
</g>
<!-- Node17&#45;&gt;Node9 -->
<g id="edge21" class="edge">
<title>Node17&#45;&gt;Node9</title>
<path fill="none" stroke="midnightblue" d="M765.37,-56.44C802.55,-46.3 864.1,-29.52 901.08,-19.43"/>
<polygon fill="midnightblue" stroke="midnightblue" points="902.09,-22.78 910.82,-16.78 900.25,-16.03 902.09,-22.78"/>
</g>
<!-- Node17&#45;&gt;Node12 -->
<g id="edge22" class="edge">
<title>Node17&#45;&gt;Node12</title>
<path fill="none" stroke="midnightblue" d="M734,-56.08C734,-49.01 734,-38.86 734,-29.99"/>
<polygon fill="midnightblue" stroke="midnightblue" points="737.5,-29.75 734,-19.75 730.5,-29.75 737.5,-29.75"/>
</g>
<!-- Node17&#45;&gt;Node13 -->
<g id="edge20" class="edge">
<title>Node17&#45;&gt;Node13</title>
<path fill="none" stroke="midnightblue" d="M718.9,-56.32C704.1,-47.82 681.31,-34.73 664.02,-24.8"/>
<polygon fill="midnightblue" stroke="midnightblue" points="665.48,-21.6 655.07,-19.65 661.99,-27.67 665.48,-21.6"/>
</g>
<!-- Node17&#45;&gt;Node18 -->
<g id="edge23" class="edge">
<title>Node17&#45;&gt;Node18</title>
<path fill="none" stroke="midnightblue" d="M703.58,-56.44C670.72,-47.2 618.22,-32.44 582.03,-22.26"/>
<polygon fill="midnightblue" stroke="midnightblue" points="582.85,-18.85 572.28,-19.52 580.96,-25.59 582.85,-18.85"/>
</g>
<!-- Node19&#45;&gt;Node9 -->
<g id="edge26" class="edge">
<title>Node19&#45;&gt;Node9</title>
<path fill="none" stroke="midnightblue" d="M603.8,-56.44C688.23,-44.75 836.49,-24.22 900.79,-15.32"/>
<polygon fill="midnightblue" stroke="midnightblue" points="901.3,-18.78 910.72,-13.95 900.34,-11.85 901.3,-18.78"/>
</g>
<!-- Node19&#45;&gt;Node12 -->
<g id="edge25" class="edge">
<title>Node19&#45;&gt;Node12</title>
<path fill="none" stroke="midnightblue" d="M572.42,-56.44C606.25,-46.93 660.89,-31.56 697.12,-21.37"/>
<polygon fill="midnightblue" stroke="midnightblue" points="698.14,-24.72 706.82,-18.64 696.25,-17.98 698.14,-24.72"/>
</g>
<!-- Node19&#45;&gt;Node13 -->
<g id="edge28" class="edge">
<title>Node19&#45;&gt;Node13</title>
<path fill="none" stroke="midnightblue" d="M557.75,-56.32C573.32,-47.74 597.38,-34.49 615.46,-24.52"/>
<polygon fill="midnightblue" stroke="midnightblue" points="617.22,-27.55 624.29,-19.65 613.85,-21.42 617.22,-27.55"/>
</g>
<!-- Node19&#45;&gt;Node15 -->
<g id="edge27" class="edge">
<title>Node19&#45;&gt;Node15</title>
<path fill="none" stroke="midnightblue" d="M520.45,-56.44C497.57,-47.36 461.26,-32.94 435.68,-22.78"/>
<polygon fill="midnightblue" stroke="midnightblue" points="436.7,-19.43 426.12,-18.99 434.12,-25.93 436.7,-19.43"/>
</g>
<!-- Node19&#45;&gt;Node18 -->
<g id="edge29" class="edge">
<title>Node19&#45;&gt;Node18</title>
<path fill="none" stroke="midnightblue" d="M542,-56.08C542,-49.01 542,-38.86 542,-29.99"/>
<polygon fill="midnightblue" stroke="midnightblue" points="545.5,-29.75 542,-19.75 538.5,-29.75 545.5,-29.75"/>
</g>
<!-- Node22&#45;&gt;Node5 -->
<g id="edge36" class="edge">
<title>Node22&#45;&gt;Node5</title>
<path fill="none" stroke="midnightblue" d="M1075.06,-168.37C1090.05,-150.05 1125.23,-107.05 1144.61,-83.36"/>
<polygon fill="midnightblue" stroke="midnightblue" points="1147.35,-85.55 1150.97,-75.59 1141.93,-81.11 1147.35,-85.55"/>
</g>
<!-- Node22&#45;&gt;Node8 -->
<g id="edge37" class="edge">
<title>Node22&#45;&gt;Node8</title>
<path fill="none" stroke="midnightblue" d="M1018.36,-168.97C957.9,-159.2 855.94,-142.72 791.95,-132.37"/>
<polygon fill="midnightblue" stroke="midnightblue" points="792.45,-128.9 782.02,-130.76 791.33,-135.81 792.45,-128.9"/>
</g>
<!-- Node22&#45;&gt;Node9 -->
<g id="edge34" class="edge">
<title>Node22&#45;&gt;Node9</title>
<path fill="none" stroke="midnightblue" d="M1070.54,-168.3C1076.27,-146.78 1087.75,-90.32 1062,-56 1039.05,-25.41 993.95,-15.48 963.39,-12.33"/>
<polygon fill="midnightblue" stroke="midnightblue" points="963.5,-8.83 953.25,-11.48 962.92,-15.81 963.5,-8.83"/>
</g>
<!-- Node22&#45;&gt;Node15 -->
<g id="edge35" class="edge">
<title>Node22&#45;&gt;Node15</title>
<path fill="none" stroke="midnightblue" d="M1018.25,-175.71C827.2,-170.24 148.15,-145.97 85,-76 79.04,-69.4 79.17,-62.71 85,-56 122.49,-12.88 302.5,-9.86 375.32,-10.45"/>
<polygon fill="midnightblue" stroke="midnightblue" points="375.62,-13.95 385.66,-10.56 375.69,-6.95 375.62,-13.95"/>
</g>
</g>
</svg>
        <g id="navigator" transform="translate(0 0)" fill="#404254">
                <rect fill="#f2f5e9" fill-opacity="0.5" stroke="#606060" stroke-width=".5" x="0" y="0" width="60" height="60"/>
                <use id="zoomplus" xlink:href="#zoomPlus" x="17" y="9" onmousedown="handleZoom(evt,'in')"/>
                <use id="zoomminus" xlink:href="#zoomMin" x="42" y="9" onmousedown="handleZoom(evt,'out')"/>
                <use id="reset" xlink:href="#resetDef" x="30" y="36" onmousedown="handleReset()"/>
                <g id="arrowUp" xlink:href="#dirArrow" transform="translate(30 24)" onmousedown="handlePan(0,-1)">
                  <use xlink:href="#rim" fill="#404040">
                        <set attributeName="fill" to="#808080" begin="arrowUp.mouseover" end="arrowUp.mouseout"/>
                  </use>
                  <path fill="none" stroke="white" stroke-width="1.5" d="M0,-3.0v7 M-2.5,-0.5L0,-3.0L2.5,-0.5"/>
                </g>
                <g id="arrowRight" xlink:href="#dirArrow" transform="rotate(90) translate(36 -43)" onmousedown="handlePan(1,0)">
                  <use xlink:href="#rim" fill="#404040">
                        <set attributeName="fill" to="#808080" begin="arrowRight.mouseover" end="arrowRight.mouseout"/>
                  </use>
                  <path fill="none" stroke="white" stroke-width="1.5" d="M0,-3.0v7 M-2.5,-0.5L0,-3.0L2.5,-0.5"/>
                </g>
                <g id="arrowDown" xlink:href="#dirArrow" transform="rotate(180) translate(-30 -48)" onmousedown="handlePan(0,1)">
                  <use xlink:href="#rim" fill="#404040">
                        <set attributeName="fill" to="#808080" begin="arrowDown.mouseover" end="arrowDown.mouseout"/>
                  </use>
                  <path fill="none" stroke="white" stroke-width="1.5" d="M0,-3.0v7 M-2.5,-0.5L0,-3.0L2.5,-0.5"/>
                </g>
                <g id="arrowLeft" xlink:href="#dirArrow" transform="rotate(270) translate(-36 17)" onmousedown="handlePan(-1,0)">
                  <use xlink:href="#rim" fill="#404040">
                        <set attributeName="fill" to="#808080" begin="arrowLeft.mouseover" end="arrowLeft.mouseout"/>
                  </use>
                  <path fill="none" stroke="white" stroke-width="1.5" d="M0,-3.0v7 M-2.5,-0.5L0,-3.0L2.5,-0.5"/>
                </g>
        </g>
        <svg viewBox="0 0 15 15" width="100%" height="30px" preserveAspectRatio="xMaxYMin meet">
         <g id="arrow_out" transform="scale(0.3 0.3)">
          <a xlink:href="ExecutionContext_8hpp__incl_org.svg" target="_base">
           <rect id="button" ry="5" rx="5" y="6" x="6" height="38" width="38"
                fill="#f2f5e9" fill-opacity="0.5" stroke="#606060" stroke-width="1.0"/>
           <path id="arrow"
             d="M 11.500037,31.436501 C 11.940474,20.09759 22.043105,11.32322 32.158766,21.979434 L 37.068811,17.246167 C 37.068811,17.246167 37.088388,32 37.088388,32 L 22.160133,31.978069 C 22.160133,31.978069 26.997745,27.140456 26.997745,27.140456 C 18.528582,18.264221 13.291696,25.230495 11.500037,31.436501 z"
             style="fill:#404040;"/>
          </a>
         </g>
        </svg>
</svg>
