<?xml version="1.0" encoding="UTF-8" standalone="no"?>
<!DOCTYPE svg PUBLIC "-//W3C//DTD SVG 1.1//EN"
 "http://www.w3.org/Graphics/SVG/1.1/DTD/svg11.dtd">
<!-- Generated by graphviz version 2.43.0 (0)
 -->
<!-- Title: /home/fola/code/Ark/include/Ark/Compiler/AST/Parser.hpp Pages: 1 -->
<!--zoomable 218 -->
<svg id="main" version="1.1" xmlns="http://www.w3.org/2000/svg" xmlns:xlink="http://www.w3.org/1999/xlink" xml:space="preserve" onload="init(evt)">
<style type="text/css"><![CDATA[
.edge:hover path { stroke: red; }
.edge:hover polygon { stroke: red; fill: red; }
]]></style>
<script type="text/javascript"><![CDATA[
var edges = document.getElementsByTagName('g');
if (edges && edges.length) {
  for (var i=0;i<edges.length;i++) {
    if (edges[i].id.substr(0,4)=='edge') {
      edges[i].setAttribute('class','edge');
    }
  }
}
]]></script>
        <defs>
                <circle id="rim" cx="0" cy="0" r="7"/>
                <circle id="rim2" cx="0" cy="0" r="3.5"/>
                <g id="zoomPlus">
                        <use xlink:href="#rim" fill="#404040">
                                <set attributeName="fill" to="#808080" begin="zoomplus.mouseover" end="zoomplus.mouseout"/>
                        </use>
                        <path d="M-4,0h8M0,-4v8" fill="none" stroke="white" stroke-width="1.5" pointer-events="none"/>
                </g>
                <g id="zoomMin">
                        <use xlink:href="#rim" fill="#404040">
                                <set attributeName="fill" to="#808080" begin="zoomminus.mouseover" end="zoomminus.mouseout"/>
                        </use>
                        <path d="M-4,0h8" fill="none" stroke="white" stroke-width="1.5" pointer-events="none"/>
                </g>
                <g id="dirArrow">
                        <path fill="none" stroke="white" stroke-width="1.5" d="M0,-3.0v7 M-2.5,-0.5L0,-3.0L2.5,-0.5"/>
                </g>
               <g id="resetDef">
                       <use xlink:href="#rim2" fill="#404040">
                               <set attributeName="fill" to="#808080" begin="reset.mouseover" end="reset.mouseout"/>
                       </use>
               </g>
        </defs>

<script type="text/javascript">
var viewWidth = 794;
var viewHeight = 218;
var sectionId = 'dynsection-0';
</script>
<script xlink:href="../../svgpan.js"/>
<svg id="graph" class="graph">
<g id="viewport">
<title>/home/fola/code/Ark/include/Ark/Compiler/AST/Parser.hpp</title>
<polygon fill="white" stroke="transparent" points="-4,4 -4,-214 790.01,-214 790.01,4 -4,4"/>
<!-- Node1 -->
<g id="node1" class="node">
<title>Node1</title>
<g id="a_node1"><a xlink:title="Parses a token stream into an AST by using the Ark::Node.">
<polygon fill="#bfbfbf" stroke="black" points="159.51,-168.5 159.51,-209.5 281.51,-209.5 281.51,-168.5 159.51,-168.5"/>
<text text-anchor="start" x="167.51" y="-197.5" font-family="Helvetica,sans-Serif" font-size="10.00">/home/fola/code/Ark</text>
<text text-anchor="start" x="167.51" y="-186.5" font-family="Helvetica,sans-Serif" font-size="10.00">/include/Ark/Compiler</text>
<text text-anchor="middle" x="220.51" y="-175.5" font-family="Helvetica,sans-Serif" font-size="10.00">/AST/Parser.hpp</text>
</a>
</g>
</g>
<!-- Node2 -->
<g id="node2" class="node">
<title>Node2</title>
<g id="a_node2"><a xlink:title=" ">
<polygon fill="white" stroke="#bfbfbf" points="274.51,-0.5 274.51,-19.5 318.51,-19.5 318.51,-0.5 274.51,-0.5"/>
<text text-anchor="middle" x="296.51" y="-7.5" font-family="Helvetica,sans-Serif" font-size="10.00">string</text>
</a>
</g>
</g>
<!-- Node1&#45;&gt;Node2 -->
<g id="edge1" class="edge">
<title>Node1&#45;&gt;Node2</title>
<path fill="none" stroke="midnightblue" d="M210.4,-168.41C197.84,-141.04 180.57,-90.83 202.51,-56 216,-34.59 242.8,-23.14 264.35,-17.16"/>
<polygon fill="midnightblue" stroke="midnightblue" points="265.27,-20.54 274.11,-14.71 263.56,-13.75 265.27,-20.54"/>
</g>
<!-- Node3 -->
<g id="node3" class="node">
<title>Node3</title>
<g id="a_node3"><a xlink:title=" ">
<polygon fill="white" stroke="#bfbfbf" points="17.51,-112.5 17.51,-131.5 49.51,-131.5 49.51,-112.5 17.51,-112.5"/>
<text text-anchor="middle" x="33.51" y="-119.5" font-family="Helvetica,sans-Serif" font-size="10.00">list</text>
</a>
</g>
</g>
<!-- Node1&#45;&gt;Node3 -->
<g id="edge2" class="edge">
<title>Node1&#45;&gt;Node3</title>
<path fill="none" stroke="midnightblue" d="M163.47,-168.48C134.71,-158.59 99.07,-146.27 59.28,-132.25"/>
<polygon fill="midnightblue" stroke="midnightblue" points="60.23,-128.87 49.64,-128.84 57.9,-135.47 60.23,-128.87"/>
</g>
<!-- Node4 -->
<g id="node4" class="node">
<title>Node4</title>
<g id="a_node4"><a xlink:title=" ">
<polygon fill="white" stroke="#bfbfbf" points="211.01,-56.5 211.01,-75.5 268.01,-75.5 268.01,-56.5 211.01,-56.5"/>
<text text-anchor="middle" x="239.51" y="-63.5" font-family="Helvetica,sans-Serif" font-size="10.00">ostream</text>
</a>
</g>
</g>
<!-- Node1&#45;&gt;Node4 -->
<g id="edge3" class="edge">
<title>Node1&#45;&gt;Node4</title>
<path fill="none" stroke="midnightblue" d="M223.6,-168.29C227.2,-145.37 233.1,-107.85 236.61,-85.47"/>
<polygon fill="midnightblue" stroke="midnightblue" points="240.07,-86 238.16,-75.57 233.15,-84.91 240.07,-86"/>
</g>
<!-- Node5 -->
<g id="node5" class="node">
<title>Node5</title>
<g id="a_node5"><a xlink:title=" ">
<polygon fill="white" stroke="#bfbfbf" points="739.01,-0.5 739.01,-19.5 786.01,-19.5 786.01,-0.5 739.01,-0.5"/>
<text text-anchor="middle" x="762.51" y="-7.5" font-family="Helvetica,sans-Serif" font-size="10.00">vector</text>
</a>
</g>
</g>
<!-- Node1&#45;&gt;Node5 -->
<g id="edge4" class="edge">
<title>Node1&#45;&gt;Node5</title>
<path fill="none" stroke="midnightblue" d="M281.79,-187.02C369.09,-184.13 533.42,-173.13 666.51,-132 718.54,-115.92 747.13,-122.49 775.51,-76 784.29,-61.61 778.77,-42.42 772.44,-28.62"/>
<polygon fill="midnightblue" stroke="midnightblue" points="775.54,-26.99 767.88,-19.67 769.3,-30.17 775.54,-26.99"/>
</g>
<!-- Node6 -->
<g id="node6" class="node">
<title>Node6</title>
<g id="a_node6"><a xlink:title=" ">
<polygon fill="white" stroke="#bfbfbf" points="37.51,-0.5 37.51,-19.5 99.51,-19.5 99.51,-0.5 37.51,-0.5"/>
<text text-anchor="middle" x="68.51" y="-7.5" font-family="Helvetica,sans-Serif" font-size="10.00">cinttypes</text>
</a>
</g>
</g>
<!-- Node1&#45;&gt;Node6 -->
<g id="edge5" class="edge">
<title>Node1&#45;&gt;Node6</title>
<path fill="none" stroke="midnightblue" d="M159.43,-180.18C103.56,-171.62 26.89,-155.86 8.51,-132 -17.7,-97.97 24.32,-50.69 50.34,-26.54"/>
<polygon fill="midnightblue" stroke="midnightblue" points="53.02,-28.85 58.12,-19.56 48.34,-23.63 53.02,-28.85"/>
</g>
<!-- Node7 -->
<g id="node7" class="node">
<title>Node7</title>
<g id="a_node7"><a xlink:href="../../d6/de9/Constants_8hpp.html" target="_top" xlink:title="Constants used by ArkScript.">
<polygon fill="white" stroke="black" points="67.51,-112.5 67.51,-131.5 173.51,-131.5 173.51,-112.5 67.51,-112.5"/>
<text text-anchor="middle" x="120.51" y="-119.5" font-family="Helvetica,sans-Serif" font-size="10.00">Ark/Constants.hpp</text>
</a>
</g>
</g>
<!-- Node1&#45;&gt;Node7 -->
<g id="edge6" class="edge">
<title>Node1&#45;&gt;Node7</title>
<path fill="none" stroke="midnightblue" d="M190.51,-168.5C175.03,-158.44 156.49,-146.38 142.38,-137.21"/>
<polygon fill="midnightblue" stroke="midnightblue" points="144.11,-134.17 133.82,-131.65 140.3,-140.04 144.11,-134.17"/>
</g>
<!-- Node9 -->
<g id="node9" class="node">
<title>Node9</title>
<g id="a_node9"><a xlink:href="../../da/d79/Lexer_8hpp.html" target="_top" xlink:title="Tokenize ArkScript code.">
<polygon fill="white" stroke="black" points="505.51,-112.5 505.51,-131.5 657.51,-131.5 657.51,-112.5 505.51,-112.5"/>
<text text-anchor="middle" x="581.51" y="-119.5" font-family="Helvetica,sans-Serif" font-size="10.00">Ark/Compiler/AST/Lexer.hpp</text>
</a>
</g>
</g>
<!-- Node1&#45;&gt;Node9 -->
<g id="edge9" class="edge">
<title>Node1&#45;&gt;Node9</title>
<path fill="none" stroke="midnightblue" d="M281.75,-176.97C349.58,-164.76 458.08,-145.22 524.26,-133.31"/>
<polygon fill="midnightblue" stroke="midnightblue" points="524.89,-136.75 534.11,-131.53 523.65,-129.86 524.89,-136.75"/>
</g>
<!-- Node14 -->
<g id="node14" class="node">
<title>Node14</title>
<g id="a_node14"><a xlink:href="../../d7/dc6/Node_8hpp.html" target="_top" xlink:title="AST node used by the parser, optimizer and compiler.">
<polygon fill="white" stroke="black" points="271.51,-112.5 271.51,-131.5 423.51,-131.5 423.51,-112.5 271.51,-112.5"/>
<text text-anchor="middle" x="347.51" y="-119.5" font-family="Helvetica,sans-Serif" font-size="10.00">Ark/Compiler/AST/Node.hpp</text>
</a>
</g>
</g>
<!-- Node1&#45;&gt;Node14 -->
<g id="edge20" class="edge">
<title>Node1&#45;&gt;Node14</title>
<path fill="none" stroke="midnightblue" d="M258.61,-168.5C278.83,-158.15 303.17,-145.69 321.26,-136.43"/>
<polygon fill="midnightblue" stroke="midnightblue" points="323.3,-139.32 330.6,-131.65 320.11,-133.09 323.3,-139.32"/>
</g>
<!-- Node7&#45;&gt;Node6 -->
<g id="edge7" class="edge">
<title>Node7&#45;&gt;Node6</title>
<path fill="none" stroke="midnightblue" d="M112.98,-112.24C105.83,-103.54 95.21,-89.58 88.51,-76 81.16,-61.11 75.85,-42.97 72.56,-29.63"/>
<polygon fill="midnightblue" stroke="midnightblue" points="75.93,-28.7 70.26,-19.75 69.11,-30.28 75.93,-28.7"/>
</g>
<!-- Node8 -->
<g id="node8" class="node">
<title>Node8</title>
<g id="a_node8"><a xlink:title=" ">
<polygon fill="white" stroke="#bfbfbf" points="97.01,-56.5 97.01,-75.5 150.01,-75.5 150.01,-56.5 97.01,-56.5"/>
<text text-anchor="middle" x="123.51" y="-63.5" font-family="Helvetica,sans-Serif" font-size="10.00">cstddef</text>
</a>
</g>
</g>
<!-- Node7&#45;&gt;Node8 -->
<g id="edge8" class="edge">
<title>Node7&#45;&gt;Node8</title>
<path fill="none" stroke="midnightblue" d="M121,-112.08C121.4,-105.01 121.96,-94.86 122.45,-85.99"/>
<polygon fill="midnightblue" stroke="midnightblue" points="125.96,-85.93 123.02,-75.75 118.97,-85.54 125.96,-85.93"/>
</g>
<!-- Node9&#45;&gt;Node5 -->
<g id="edge10" class="edge">
<title>Node9&#45;&gt;Node5</title>
<path fill="none" stroke="midnightblue" d="M646.1,-112.45C690.16,-105.2 743.06,-93.21 757.51,-76 768.08,-63.42 768.27,-44.2 766.45,-29.92"/>
<polygon fill="midnightblue" stroke="midnightblue" points="769.85,-29.02 764.72,-19.75 762.95,-30.19 769.85,-29.02"/>
</g>
<!-- Node10 -->
<g id="node10" class="node">
<title>Node10</title>
<g id="a_node10"><a xlink:href="../../d3/d6e/Token_8hpp.html" target="_top" xlink:title="Token definition for ArkScript.">
<polygon fill="white" stroke="black" points="394.51,-56.5 394.51,-75.5 548.51,-75.5 548.51,-56.5 394.51,-56.5"/>
<text text-anchor="middle" x="471.51" y="-63.5" font-family="Helvetica,sans-Serif" font-size="10.00">Ark/Compiler/AST/Token.hpp</text>
</a>
</g>
</g>
<!-- Node9&#45;&gt;Node10 -->
<g id="edge11" class="edge">
<title>Node9&#45;&gt;Node10</title>
<path fill="none" stroke="midnightblue" d="M563.84,-112.32C546.12,-103.62 518.61,-90.12 498.22,-80.11"/>
<polygon fill="midnightblue" stroke="midnightblue" points="499.66,-76.92 489.14,-75.65 496.57,-83.2 499.66,-76.92"/>
</g>
<!-- Node13 -->
<g id="node13" class="node">
<title>Node13</title>
<g id="a_node13"><a xlink:href="../../d8/ddd/Common_8hpp.html" target="_top" xlink:title="Common code for the compiler.">
<polygon fill="white" stroke="black" points="567.01,-56.5 567.01,-75.5 716.01,-75.5 716.01,-56.5 567.01,-56.5"/>
<text text-anchor="middle" x="641.51" y="-63.5" font-family="Helvetica,sans-Serif" font-size="10.00">Ark/Compiler/Common.hpp</text>
</a>
</g>
</g>
<!-- Node9&#45;&gt;Node13 -->
<g id="edge15" class="edge">
<title>Node9&#45;&gt;Node13</title>
<path fill="none" stroke="midnightblue" d="M591.15,-112.32C600.02,-104.34 613.38,-92.31 624.12,-82.65"/>
<polygon fill="midnightblue" stroke="midnightblue" points="626.6,-85.13 631.69,-75.83 621.92,-79.92 626.6,-85.13"/>
</g>
<!-- Node10&#45;&gt;Node2 -->
<g id="edge13" class="edge">
<title>Node10&#45;&gt;Node2</title>
<path fill="none" stroke="midnightblue" d="M443.78,-56.44C412.34,-46.74 361.17,-30.95 328.18,-20.77"/>
<polygon fill="midnightblue" stroke="midnightblue" points="329.16,-17.41 318.57,-17.81 327.09,-24.1 329.16,-17.41"/>
</g>
<!-- Node11 -->
<g id="node11" class="node">
<title>Node11</title>
<g id="a_node11"><a xlink:title=" ">
<polygon fill="white" stroke="#bfbfbf" points="597.51,-0.5 597.51,-19.5 639.51,-19.5 639.51,-0.5 597.51,-0.5"/>
<text text-anchor="middle" x="618.51" y="-7.5" font-family="Helvetica,sans-Serif" font-size="10.00">array</text>
</a>
</g>
</g>
<!-- Node10&#45;&gt;Node11 -->
<g id="edge12" class="edge">
<title>Node10&#45;&gt;Node11</title>
<path fill="none" stroke="midnightblue" d="M494.8,-56.44C519.89,-47.23 559.94,-32.52 587.64,-22.34"/>
<polygon fill="midnightblue" stroke="midnightblue" points="589.06,-25.55 597.24,-18.82 586.64,-18.98 589.06,-25.55"/>
</g>
<!-- Node12 -->
<g id="node12" class="node">
<title>Node12</title>
<g id="a_node12"><a xlink:title=" ">
<polygon fill="white" stroke="#bfbfbf" points="482.01,-0.5 482.01,-19.5 555.01,-19.5 555.01,-0.5 482.01,-0.5"/>
<text text-anchor="middle" x="518.51" y="-7.5" font-family="Helvetica,sans-Serif" font-size="10.00">string_view</text>
</a>
</g>
</g>
<!-- Node10&#45;&gt;Node12 -->
<g id="edge14" class="edge">
<title>Node10&#45;&gt;Node12</title>
<path fill="none" stroke="midnightblue" d="M479.27,-56.08C486.05,-48.3 496.05,-36.8 504.26,-27.37"/>
<polygon fill="midnightblue" stroke="midnightblue" points="506.97,-29.59 510.89,-19.75 501.69,-25 506.97,-29.59"/>
</g>
<!-- Node13&#45;&gt;Node5 -->
<g id="edge18" class="edge">
<title>Node13&#45;&gt;Node5</title>
<path fill="none" stroke="midnightblue" d="M660.68,-56.44C680.42,-47.64 711.39,-33.81 734,-23.72"/>
<polygon fill="midnightblue" stroke="midnightblue" points="735.72,-26.79 743.43,-19.52 732.87,-20.4 735.72,-26.79"/>
</g>
<!-- Node13&#45;&gt;Node6 -->
<g id="edge19" class="edge">
<title>Node13&#45;&gt;Node6</title>
<path fill="none" stroke="midnightblue" d="M566.86,-56.94C563.7,-56.62 560.57,-56.31 557.51,-56 391.75,-39.49 194.15,-21.97 109.88,-14.6"/>
<polygon fill="midnightblue" stroke="midnightblue" points="109.97,-11.09 99.7,-13.71 109.36,-18.06 109.97,-11.09"/>
</g>
<!-- Node13&#45;&gt;Node11 -->
<g id="edge16" class="edge">
<title>Node13&#45;&gt;Node11</title>
<path fill="none" stroke="midnightblue" d="M637.71,-56.08C634.6,-48.77 630.09,-38.18 626.22,-29.1"/>
<polygon fill="midnightblue" stroke="midnightblue" points="629.38,-27.58 622.24,-19.75 622.94,-30.32 629.38,-27.58"/>
</g>
<!-- Node13&#45;&gt;Node12 -->
<g id="edge17" class="edge">
<title>Node13&#45;&gt;Node12</title>
<path fill="none" stroke="midnightblue" d="M622.02,-56.44C601.87,-47.6 570.19,-33.69 547.18,-23.59"/>
<polygon fill="midnightblue" stroke="midnightblue" points="548.47,-20.33 537.91,-19.52 545.66,-26.74 548.47,-20.33"/>
</g>
<!-- Node14&#45;&gt;Node2 -->
<g id="edge23" class="edge">
<title>Node14&#45;&gt;Node2</title>
<path fill="none" stroke="midnightblue" d="M340.23,-112.2C333.32,-103.47 323.04,-89.49 316.51,-76 309.27,-61.06 303.95,-42.92 300.63,-29.6"/>
<polygon fill="midnightblue" stroke="midnightblue" points="304,-28.66 298.3,-19.73 297.19,-30.26 304,-28.66"/>
</g>
<!-- Node14&#45;&gt;Node4 -->
<g id="edge22" class="edge">
<title>Node14&#45;&gt;Node4</title>
<path fill="none" stroke="midnightblue" d="M330.16,-112.32C312.84,-103.66 285.99,-90.24 266.01,-80.25"/>
<polygon fill="midnightblue" stroke="midnightblue" points="267.33,-77 256.82,-75.65 264.2,-83.26 267.33,-77"/>
</g>
<!-- Node14&#45;&gt;Node5 -->
<g id="edge24" class="edge">
<title>Node14&#45;&gt;Node5</title>
<path fill="none" stroke="midnightblue" d="M423.71,-115.61C526.86,-107.75 700.94,-92.31 725.51,-76 741.7,-65.25 751.61,-44.85 757.04,-29.76"/>
<polygon fill="midnightblue" stroke="midnightblue" points="760.48,-30.52 760.24,-19.93 753.82,-28.36 760.48,-30.52"/>
</g>
<!-- Node14&#45;&gt;Node13 -->
<g id="edge25" class="edge">
<title>Node14&#45;&gt;Node13</title>
<path fill="none" stroke="midnightblue" d="M394.09,-112.44C445.92,-102.92 529.64,-87.55 585.12,-77.36"/>
<polygon fill="midnightblue" stroke="midnightblue" points="585.94,-80.77 595.14,-75.52 584.67,-73.88 585.94,-80.77"/>
</g>
<!-- Node15 -->
<g id="node15" class="node">
<title>Node15</title>
<g id="a_node15"><a xlink:title=" ">
<polygon fill="white" stroke="#bfbfbf" points="325.01,-56.5 325.01,-75.5 376.01,-75.5 376.01,-56.5 325.01,-56.5"/>
<text text-anchor="middle" x="350.51" y="-63.5" font-family="Helvetica,sans-Serif" font-size="10.00">variant</text>
</a>
</g>
</g>
<!-- Node14&#45;&gt;Node15 -->
<g id="edge21" class="edge">
<title>Node14&#45;&gt;Node15</title>
<path fill="none" stroke="midnightblue" d="M348,-112.08C348.4,-105.01 348.96,-94.86 349.45,-85.99"/>
<polygon fill="midnightblue" stroke="midnightblue" points="352.96,-85.93 350.02,-75.75 345.97,-85.54 352.96,-85.93"/>
</g>
</g>
</svg>
        <g id="navigator" transform="translate(0 0)" fill="#404254">
                <rect fill="#f2f5e9" fill-opacity="0.5" stroke="#606060" stroke-width=".5" x="0" y="0" width="60" height="60"/>
                <use id="zoomplus" xlink:href="#zoomPlus" x="17" y="9" onmousedown="handleZoom(evt,'in')"/>
                <use id="zoomminus" xlink:href="#zoomMin" x="42" y="9" onmousedown="handleZoom(evt,'out')"/>
                <use id="reset" xlink:href="#resetDef" x="30" y="36" onmousedown="handleReset()"/>
                <g id="arrowUp" xlink:href="#dirArrow" transform="translate(30 24)" onmousedown="handlePan(0,-1)">
                  <use xlink:href="#rim" fill="#404040">
                        <set attributeName="fill" to="#808080" begin="arrowUp.mouseover" end="arrowUp.mouseout"/>
                  </use>
                  <path fill="none" stroke="white" stroke-width="1.5" d="M0,-3.0v7 M-2.5,-0.5L0,-3.0L2.5,-0.5"/>
                </g>
                <g id="arrowRight" xlink:href="#dirArrow" transform="rotate(90) translate(36 -43)" onmousedown="handlePan(1,0)">
                  <use xlink:href="#rim" fill="#404040">
                        <set attributeName="fill" to="#808080" begin="arrowRight.mouseover" end="arrowRight.mouseout"/>
                  </use>
                  <path fill="none" stroke="white" stroke-width="1.5" d="M0,-3.0v7 M-2.5,-0.5L0,-3.0L2.5,-0.5"/>
                </g>
                <g id="arrowDown" xlink:href="#dirArrow" transform="rotate(180) translate(-30 -48)" onmousedown="handlePan(0,1)">
                  <use xlink:href="#rim" fill="#404040">
                        <set attributeName="fill" to="#808080" begin="arrowDown.mouseover" end="arrowDown.mouseout"/>
                  </use>
                  <path fill="none" stroke="white" stroke-width="1.5" d="M0,-3.0v7 M-2.5,-0.5L0,-3.0L2.5,-0.5"/>
                </g>
                <g id="arrowLeft" xlink:href="#dirArrow" transform="rotate(270) translate(-36 17)" onmousedown="handlePan(-1,0)">
                  <use xlink:href="#rim" fill="#404040">
                        <set attributeName="fill" to="#808080" begin="arrowLeft.mouseover" end="arrowLeft.mouseout"/>
                  </use>
                  <path fill="none" stroke="white" stroke-width="1.5" d="M0,-3.0v7 M-2.5,-0.5L0,-3.0L2.5,-0.5"/>
                </g>
        </g>
        <svg viewBox="0 0 15 15" width="100%" height="30px" preserveAspectRatio="xMaxYMin meet">
         <g id="arrow_out" transform="scale(0.3 0.3)">
          <a xlink:href="Parser_8hpp__incl_org.svg" target="_base">
           <rect id="button" ry="5" rx="5" y="6" x="6" height="38" width="38"
                fill="#f2f5e9" fill-opacity="0.5" stroke="#606060" stroke-width="1.0"/>
           <path id="arrow"
             d="M 11.500037,31.436501 C 11.940474,20.09759 22.043105,11.32322 32.158766,21.979434 L 37.068811,17.246167 C 37.068811,17.246167 37.088388,32 37.088388,32 L 22.160133,31.978069 C 22.160133,31.978069 26.997745,27.140456 26.997745,27.140456 C 18.528582,18.264221 13.291696,25.230495 11.500037,31.436501 z"
             style="fill:#404040;"/>
          </a>
         </g>
        </svg>
</svg>
