<?xml version="1.0" encoding="UTF-8" standalone="no"?>
<!DOCTYPE svg PUBLIC "-//W3C//DTD SVG 1.1//EN"
 "http://www.w3.org/Graphics/SVG/1.1/DTD/svg11.dtd">
<!-- Generated by graphviz version 7.1.0 (20230121.1956)
 -->
<!-- Title: /Users/fola/Documents/ArkScript/Ark/include/Ark/Compiler/AST/Parser.hpp Pages: 1 -->
<svg width="750pt" height="214pt"
 viewBox="0.00 0.00 750.27 214.00" xmlns="http://www.w3.org/2000/svg" xmlns:xlink="http://www.w3.org/1999/xlink">
<g id="graph0" class="graph" transform="scale(1 1) rotate(0) translate(4 210)">
<title>/Users/fola/Documents/ArkScript/Ark/include/Ark/Compiler/AST/Parser.hpp</title>
<!-- Node1 -->
<g id="node1" class="node">
<title>Node1</title>
<g id="a_node1"><a xlink:title="Parses a token stream into an AST by using the Ark::Node.">
<polygon fill="#999999" stroke="#666666" points="284.77,-206 135.77,-206 135.77,-165 284.77,-165 284.77,-206"/>
<text text-anchor="start" x="143.77" y="-194" font-family="Helvetica,sans-Serif" font-size="10.00">/Users/fola/Documents</text>
<text text-anchor="start" x="143.77" y="-183" font-family="Helvetica,sans-Serif" font-size="10.00">/ArkScript/Ark/include</text>
<text text-anchor="middle" x="210.27" y="-172" font-family="Helvetica,sans-Serif" font-size="10.00">/Ark/Compiler/AST/Parser.hpp</text>
</a>
</g>
</g>
<!-- Node2 -->
<g id="node2" class="node">
<title>Node2</title>
<g id="a_node2"><a xlink:title=" ">
<polygon fill="#e0e0e0" stroke="#999999" points="303.77,-19 262.77,-19 262.77,0 303.77,0 303.77,-19"/>
<text text-anchor="middle" x="283.27" y="-7" font-family="Helvetica,sans-Serif" font-size="10.00">string</text>
</a>
</g>
</g>
<!-- Node1&#45;&gt;Node2 -->
<g id="edge1" class="edge">
<title>Node1&#45;&gt;Node2</title>
<path fill="none" stroke="#63b8ff" d="M200.62,-164.86C188.91,-137.96 173.19,-89.11 194.27,-55 206.71,-34.88 231.29,-23.56 251.48,-17.37"/>
<polygon fill="#63b8ff" stroke="#63b8ff" points="252.25,-20.79 260.97,-14.77 250.4,-14.04 252.25,-20.79"/>
</g>
<!-- Node3 -->
<g id="node3" class="node">
<title>Node3</title>
<g id="a_node3"><a xlink:title=" ">
<polygon fill="#e0e0e0" stroke="#999999" points="46.77,-129 17.77,-129 17.77,-110 46.77,-110 46.77,-129"/>
<text text-anchor="middle" x="32.27" y="-117" font-family="Helvetica,sans-Serif" font-size="10.00">list</text>
</a>
</g>
</g>
<!-- Node1&#45;&gt;Node3 -->
<g id="edge2" class="edge">
<title>Node1&#45;&gt;Node3</title>
<path fill="none" stroke="#63b8ff" d="M154.93,-164.6C122.36,-152.89 82.74,-138.65 57.51,-129.57"/>
<polygon fill="#63b8ff" stroke="#63b8ff" points="59.03,-126.4 48.43,-126.31 56.66,-132.99 59.03,-126.4"/>
</g>
<!-- Node4 -->
<g id="node4" class="node">
<title>Node4</title>
<g id="a_node4"><a xlink:title=" ">
<polygon fill="#e0e0e0" stroke="#999999" points="255.27,-74 203.27,-74 203.27,-55 255.27,-55 255.27,-74"/>
<text text-anchor="middle" x="229.27" y="-62" font-family="Helvetica,sans-Serif" font-size="10.00">ostream</text>
</a>
</g>
</g>
<!-- Node1&#45;&gt;Node4 -->
<g id="edge3" class="edge">
<title>Node1&#45;&gt;Node4</title>
<path fill="none" stroke="#63b8ff" d="M213.45,-164.58C216.95,-142.68 222.54,-107.68 226.05,-85.68"/>
<polygon fill="#63b8ff" stroke="#63b8ff" points="229.49,-86.34 227.61,-75.91 222.58,-85.24 229.49,-86.34"/>
</g>
<!-- Node5 -->
<g id="node5" class="node">
<title>Node5</title>
<g id="a_node5"><a xlink:title=" ">
<polygon fill="#e0e0e0" stroke="#999999" points="742.27,-19 698.27,-19 698.27,0 742.27,0 742.27,-19"/>
<text text-anchor="middle" x="720.27" y="-7" font-family="Helvetica,sans-Serif" font-size="10.00">vector</text>
</a>
</g>
</g>
<!-- Node1&#45;&gt;Node5 -->
<g id="edge4" class="edge">
<title>Node1&#45;&gt;Node5</title>
<path fill="none" stroke="#63b8ff" d="M285.04,-182.54C370.23,-178.5 512.71,-166.22 629.27,-129 679.08,-113.1 706.29,-118.79 733.27,-74 741.44,-60.44 736.71,-42.62 730.79,-29.31"/>
<polygon fill="#63b8ff" stroke="#63b8ff" points="734.1,-28.09 726.47,-20.73 727.84,-31.24 734.1,-28.09"/>
</g>
<!-- Node6 -->
<g id="node6" class="node">
<title>Node6</title>
<g id="a_node6"><a xlink:title=" ">
<polygon fill="#e0e0e0" stroke="#999999" points="93.27,-19 37.27,-19 37.27,0 93.27,0 93.27,-19"/>
<text text-anchor="middle" x="65.27" y="-7" font-family="Helvetica,sans-Serif" font-size="10.00">cinttypes</text>
</a>
</g>
</g>
<!-- Node1&#45;&gt;Node6 -->
<g id="edge5" class="edge">
<title>Node1&#45;&gt;Node6</title>
<path fill="none" stroke="#63b8ff" d="M135.36,-173.55C84.58,-164.42 23.95,-149.57 8.27,-129 -16.74,-96.19 21.96,-50.66 46.89,-26.71"/>
<polygon fill="#63b8ff" stroke="#63b8ff" points="48.93,-29.59 53.89,-20.23 44.18,-24.45 48.93,-29.59"/>
</g>
<!-- Node7 -->
<g id="node7" class="node">
<title>Node7</title>
<g id="a_node7"><a xlink:href="../../d6/de9/Constants_8hpp.html" target="_top" xlink:title="Constants used by ArkScript.">
<polygon fill="white" stroke="#666666" points="163.27,-129 65.27,-129 65.27,-110 163.27,-110 163.27,-129"/>
<text text-anchor="middle" x="114.27" y="-117" font-family="Helvetica,sans-Serif" font-size="10.00">Ark/Constants.hpp</text>
</a>
</g>
</g>
<!-- Node1&#45;&gt;Node7 -->
<g id="edge6" class="edge">
<title>Node1&#45;&gt;Node7</title>
<path fill="none" stroke="#63b8ff" d="M180.42,-164.6C166.35,-155.22 149.84,-144.21 136.83,-135.54"/>
<polygon fill="#63b8ff" stroke="#63b8ff" points="138.79,-132.64 128.53,-130 134.9,-138.46 138.79,-132.64"/>
</g>
<!-- Node9 -->
<g id="node9" class="node">
<title>Node9</title>
<g id="a_node9"><a xlink:href="../../da/d79/Lexer_8hpp.html" target="_top" xlink:title="Tokenize ArkScript code.">
<polygon fill="white" stroke="#666666" points="619.77,-129 478.77,-129 478.77,-110 619.77,-110 619.77,-129"/>
<text text-anchor="middle" x="549.27" y="-117" font-family="Helvetica,sans-Serif" font-size="10.00">Ark/Compiler/AST/Lexer.hpp</text>
</a>
</g>
</g>
<!-- Node1&#45;&gt;Node9 -->
<g id="edge9" class="edge">
<title>Node1&#45;&gt;Node9</title>
<path fill="none" stroke="#63b8ff" d="M285.09,-170.38C347.06,-158.68 433.88,-142.28 490.83,-131.53"/>
<polygon fill="#63b8ff" stroke="#63b8ff" points="491.14,-135.04 500.32,-129.74 489.85,-128.16 491.14,-135.04"/>
</g>
<!-- Node14 -->
<g id="node14" class="node">
<title>Node14</title>
<g id="a_node14"><a xlink:href="../../d7/dc6/Node_8hpp.html" target="_top" xlink:title="AST node used by the parser, optimizer and compiler.">
<polygon fill="white" stroke="#666666" points="401.77,-129 260.77,-129 260.77,-110 401.77,-110 401.77,-129"/>
<text text-anchor="middle" x="331.27" y="-117" font-family="Helvetica,sans-Serif" font-size="10.00">Ark/Compiler/AST/Node.hpp</text>
</a>
</g>
</g>
<!-- Node1&#45;&gt;Node14 -->
<g id="edge20" class="edge">
<title>Node1&#45;&gt;Node14</title>
<path fill="none" stroke="#63b8ff" d="M247.89,-164.6C266.22,-154.91 287.83,-143.48 304.45,-134.68"/>
<polygon fill="#63b8ff" stroke="#63b8ff" points="306.04,-137.81 313.24,-130.04 302.76,-131.62 306.04,-137.81"/>
</g>
<!-- Node7&#45;&gt;Node6 -->
<g id="edge7" class="edge">
<title>Node7&#45;&gt;Node6</title>
<path fill="none" stroke="#63b8ff" d="M107.51,-109.72C101.08,-101.04 91.5,-87.17 85.27,-74 78.61,-59.9 73.42,-43.03 69.99,-30.22"/>
<polygon fill="#63b8ff" stroke="#63b8ff" points="73.48,-29.72 67.63,-20.88 66.69,-31.43 73.48,-29.72"/>
</g>
<!-- Node8 -->
<g id="node8" class="node">
<title>Node8</title>
<g id="a_node8"><a xlink:title=" ">
<polygon fill="#e0e0e0" stroke="#999999" points="142.77,-74 93.77,-74 93.77,-55 142.77,-55 142.77,-74"/>
<text text-anchor="middle" x="118.27" y="-62" font-family="Helvetica,sans-Serif" font-size="10.00">cstddef</text>
</a>
</g>
</g>
<!-- Node7&#45;&gt;Node8 -->
<g id="edge8" class="edge">
<title>Node7&#45;&gt;Node8</title>
<path fill="none" stroke="#63b8ff" d="M114.93,-109.75C115.42,-103.27 116.11,-94.16 116.73,-85.9"/>
<polygon fill="#63b8ff" stroke="#63b8ff" points="120.22,-86.19 117.48,-75.95 113.24,-85.66 120.22,-86.19"/>
</g>
<!-- Node9&#45;&gt;Node5 -->
<g id="edge10" class="edge">
<title>Node9&#45;&gt;Node5</title>
<path fill="none" stroke="#63b8ff" d="M610.65,-109.58C652.13,-102.2 701.73,-90.29 715.27,-74 725.13,-62.15 725.73,-44.39 724.24,-30.66"/>
<polygon fill="#63b8ff" stroke="#63b8ff" points="727.73,-30.3 722.72,-20.97 720.81,-31.39 727.73,-30.3"/>
</g>
<!-- Node10 -->
<g id="node10" class="node">
<title>Node10</title>
<g id="a_node10"><a xlink:href="../../d3/d6e/Token_8hpp.html" target="_top" xlink:title="Token definition for ArkScript.">
<polygon fill="white" stroke="#666666" points="519.27,-74 375.27,-74 375.27,-55 519.27,-55 519.27,-74"/>
<text text-anchor="middle" x="447.27" y="-62" font-family="Helvetica,sans-Serif" font-size="10.00">Ark/Compiler/AST/Token.hpp</text>
</a>
</g>
</g>
<!-- Node9&#45;&gt;Node10 -->
<g id="edge11" class="edge">
<title>Node9&#45;&gt;Node10</title>
<path fill="none" stroke="#63b8ff" d="M531.97,-109.51C516.2,-101.31 492.64,-89.07 474.37,-79.58"/>
<polygon fill="#63b8ff" stroke="#63b8ff" points="476.15,-76.56 465.66,-75.06 472.92,-82.77 476.15,-76.56"/>
</g>
<!-- Node13 -->
<g id="node13" class="node">
<title>Node13</title>
<g id="a_node13"><a xlink:href="../../d8/ddd/Common_8hpp.html" target="_top" xlink:title="Common code for the compiler.">
<polygon fill="white" stroke="#666666" points="672.77,-74 537.77,-74 537.77,-55 672.77,-55 672.77,-74"/>
<text text-anchor="middle" x="605.27" y="-62" font-family="Helvetica,sans-Serif" font-size="10.00">Ark/Compiler/Common.hpp</text>
</a>
</g>
</g>
<!-- Node9&#45;&gt;Node13 -->
<g id="edge15" class="edge">
<title>Node9&#45;&gt;Node13</title>
<path fill="none" stroke="#63b8ff" d="M558.77,-109.51C566.7,-102 578.22,-91.1 587.81,-82.03"/>
<polygon fill="#63b8ff" stroke="#63b8ff" points="589.96,-84.81 594.81,-75.4 585.15,-79.73 589.96,-84.81"/>
</g>
<!-- Node10&#45;&gt;Node2 -->
<g id="edge13" class="edge">
<title>Node10&#45;&gt;Node2</title>
<path fill="none" stroke="#63b8ff" d="M419.45,-54.51C390.44,-45.13 345.06,-30.47 314.75,-20.67"/>
<polygon fill="#63b8ff" stroke="#63b8ff" points="315.97,-17.39 305.38,-17.65 313.82,-24.05 315.97,-17.39"/>
</g>
<!-- Node11 -->
<g id="node11" class="node">
<title>Node11</title>
<g id="a_node11"><a xlink:title=" ">
<polygon fill="#e0e0e0" stroke="#999999" points="602.27,-19 564.27,-19 564.27,0 602.27,0 602.27,-19"/>
<text text-anchor="middle" x="583.27" y="-7" font-family="Helvetica,sans-Serif" font-size="10.00">array</text>
</a>
</g>
</g>
<!-- Node10&#45;&gt;Node11 -->
<g id="edge12" class="edge">
<title>Node10&#45;&gt;Node11</title>
<path fill="none" stroke="#63b8ff" d="M470.34,-54.51C493.21,-45.6 528.36,-31.9 553.36,-22.16"/>
<polygon fill="#63b8ff" stroke="#63b8ff" points="554.6,-25.43 562.64,-18.54 552.05,-18.91 554.6,-25.43"/>
</g>
<!-- Node12 -->
<g id="node12" class="node">
<title>Node12</title>
<g id="a_node12"><a xlink:title=" ">
<polygon fill="#e0e0e0" stroke="#999999" points="524.27,-19 458.27,-19 458.27,0 524.27,0 524.27,-19"/>
<text text-anchor="middle" x="491.27" y="-7" font-family="Helvetica,sans-Serif" font-size="10.00">string_view</text>
</a>
</g>
</g>
<!-- Node10&#45;&gt;Node12 -->
<g id="edge14" class="edge">
<title>Node10&#45;&gt;Node12</title>
<path fill="none" stroke="#63b8ff" d="M454.54,-54.75C460.55,-47.5 469.29,-36.98 476.73,-28.02"/>
<polygon fill="#63b8ff" stroke="#63b8ff" points="479.19,-30.54 482.88,-20.61 473.8,-26.07 479.19,-30.54"/>
</g>
<!-- Node13&#45;&gt;Node5 -->
<g id="edge18" class="edge">
<title>Node13&#45;&gt;Node5</title>
<path fill="none" stroke="#63b8ff" d="M624.78,-54.51C642.9,-46.16 670.12,-33.61 690.87,-24.05"/>
<polygon fill="#63b8ff" stroke="#63b8ff" points="692.06,-27.36 699.68,-19.99 689.13,-21 692.06,-27.36"/>
</g>
<!-- Node13&#45;&gt;Node6 -->
<g id="edge19" class="edge">
<title>Node13&#45;&gt;Node6</title>
<path fill="none" stroke="#63b8ff" d="M537.67,-55.98C534.5,-55.65 531.35,-55.32 528.27,-55 371.52,-38.82 184.7,-21.45 104.74,-14.1"/>
<polygon fill="#63b8ff" stroke="#63b8ff" points="105.52,-10.66 95.24,-13.23 104.88,-17.63 105.52,-10.66"/>
</g>
<!-- Node13&#45;&gt;Node11 -->
<g id="edge16" class="edge">
<title>Node13&#45;&gt;Node11</title>
<path fill="none" stroke="#63b8ff" d="M601.64,-54.75C598.85,-48.04 594.9,-38.52 591.38,-30.02"/>
<polygon fill="#63b8ff" stroke="#63b8ff" points="594.63,-28.73 587.56,-20.84 588.17,-31.42 594.63,-28.73"/>
</g>
<!-- Node13&#45;&gt;Node12 -->
<g id="edge17" class="edge">
<title>Node13&#45;&gt;Node12</title>
<path fill="none" stroke="#63b8ff" d="M585.93,-54.51C568.06,-46.2 541.23,-33.73 520.7,-24.18"/>
<polygon fill="#63b8ff" stroke="#63b8ff" points="522.24,-21.04 511.7,-20 519.29,-27.39 522.24,-21.04"/>
</g>
<!-- Node14&#45;&gt;Node2 -->
<g id="edge23" class="edge">
<title>Node14&#45;&gt;Node2</title>
<path fill="none" stroke="#63b8ff" d="M324.47,-109.74C318.01,-101.07 308.4,-87.22 302.27,-74 295.74,-59.92 290.82,-43.05 287.62,-30.23"/>
<polygon fill="#63b8ff" stroke="#63b8ff" points="291.12,-29.83 285.43,-20.89 284.31,-31.43 291.12,-29.83"/>
</g>
<!-- Node14&#45;&gt;Node4 -->
<g id="edge22" class="edge">
<title>Node14&#45;&gt;Node4</title>
<path fill="none" stroke="#63b8ff" d="M313.97,-109.51C298.2,-101.31 274.64,-89.07 256.37,-79.58"/>
<polygon fill="#63b8ff" stroke="#63b8ff" points="258.15,-76.56 247.66,-75.06 254.92,-82.77 258.15,-76.56"/>
</g>
<!-- Node14&#45;&gt;Node5 -->
<g id="edge24" class="edge">
<title>Node14&#45;&gt;Node5</title>
<path fill="none" stroke="#63b8ff" d="M401.99,-112.86C497.73,-104.71 659.33,-88.99 682.27,-74 698.06,-63.69 708.23,-44.33 714.04,-29.68"/>
<polygon fill="#63b8ff" stroke="#63b8ff" points="717.21,-31.23 717.28,-20.64 710.61,-28.88 717.21,-31.23"/>
</g>
<!-- Node14&#45;&gt;Node13 -->
<g id="edge25" class="edge">
<title>Node14&#45;&gt;Node13</title>
<path fill="none" stroke="#63b8ff" d="M377.75,-109.51C424.74,-100.42 497.43,-86.36 547.96,-76.59"/>
<polygon fill="#63b8ff" stroke="#63b8ff" points="548.38,-80.07 557.54,-74.73 547.05,-73.2 548.38,-80.07"/>
</g>
<!-- Node15 -->
<g id="node15" class="node">
<title>Node15</title>
<g id="a_node15"><a xlink:title=" ">
<polygon fill="#e0e0e0" stroke="#999999" points="357.27,-74 311.27,-74 311.27,-55 357.27,-55 357.27,-74"/>
<text text-anchor="middle" x="334.27" y="-62" font-family="Helvetica,sans-Serif" font-size="10.00">variant</text>
</a>
</g>
</g>
<!-- Node14&#45;&gt;Node15 -->
<g id="edge21" class="edge">
<title>Node14&#45;&gt;Node15</title>
<path fill="none" stroke="#63b8ff" d="M331.77,-109.75C332.14,-103.27 332.65,-94.16 333.12,-85.9"/>
<polygon fill="#63b8ff" stroke="#63b8ff" points="336.61,-86.13 333.68,-75.95 329.62,-85.74 336.61,-86.13"/>
</g>
</g>
</svg>
