<?xml version="1.0" encoding="UTF-8" standalone="no"?>
<!DOCTYPE svg PUBLIC "-//W3C//DTD SVG 1.1//EN"
 "http://www.w3.org/Graphics/SVG/1.1/DTD/svg11.dtd">
<!-- Generated by graphviz version 7.1.0 (20230121.1956)
 -->
<!-- Title: Ark::internal::SharedLibrary Pages: 1 -->
<svg width="143pt" height="160pt"
 viewBox="0.00 0.00 143.00 160.00" xmlns="http://www.w3.org/2000/svg" xmlns:xlink="http://www.w3.org/1999/xlink">
<g id="graph0" class="graph" transform="scale(1 1) rotate(0) translate(4 156)">
<title>Ark::internal::SharedLibrary</title>
<!-- Node1 -->
<g id="node1" class="node">
<title>Node1</title>
<g id="a_node1"><a xlink:title="Handling a shared library as an ArkScript plugin.">
<polygon fill="#999999" stroke="#666666" points="135,-19 0,-19 0,0 135,0 135,-19"/>
<text text-anchor="middle" x="67.5" y="-7" font-family="Helvetica,sans-Serif" font-size="10.00">Ark::internal::SharedLibrary</text>
</a>
</g>
</g>
<!-- Node2 -->
<g id="node2" class="node">
<title>Node2</title>
<g id="a_node2"><a xlink:title=" ">
<polygon fill="white" stroke="#666666" points="97.5,-85 37.5,-85 37.5,-66 97.5,-66 97.5,-85"/>
<text text-anchor="middle" x="67.5" y="-73" font-family="Helvetica,sans-Serif" font-size="10.00">std::string</text>
</a>
</g>
</g>
<!-- Node2&#45;&gt;Node1 -->
<g id="edge1" class="edge">
<title>Node2&#45;&gt;Node1</title>
<path fill="none" stroke="#9a32cd" stroke-dasharray="5,2" d="M67.5,-54.18C67.5,-42.44 67.5,-28.27 67.5,-19.32"/>
<polygon fill="#9a32cd" stroke="#9a32cd" points="64,-54.09 67.5,-64.09 71,-54.09 64,-54.09"/>
<text text-anchor="middle" x="85.5" y="-40" font-family="Helvetica,sans-Serif" font-size="10.00"> m_path</text>
</g>
<!-- Node3 -->
<g id="node3" class="node">
<title>Node3</title>
<g id="a_node3"><a xlink:title=" ">
<polygon fill="white" stroke="#666666" points="115,-152 20,-152 20,-122 115,-122 115,-152"/>
<text text-anchor="start" x="28" y="-140" font-family="Helvetica,sans-Serif" font-size="10.00">std::basic_string&lt;</text>
<text text-anchor="middle" x="67.5" y="-129" font-family="Helvetica,sans-Serif" font-size="10.00"> Char &gt;</text>
</a>
</g>
</g>
<!-- Node3&#45;&gt;Node2 -->
<g id="edge2" class="edge">
<title>Node3&#45;&gt;Node2</title>
<path fill="none" stroke="#63b8ff" d="M67.5,-110.13C67.5,-101.29 67.5,-91.99 67.5,-85.42"/>
<polygon fill="#63b8ff" stroke="#63b8ff" points="64,-110.08 67.5,-120.08 71,-110.08 64,-110.08"/>
</g>
</g>
</svg>
