<?xml version="1.0" encoding="UTF-8" standalone="no"?>
<!DOCTYPE svg PUBLIC "-//W3C//DTD SVG 1.1//EN"
 "http://www.w3.org/Graphics/SVG/1.1/DTD/svg11.dtd">
<!-- Generated by graphviz version 12.2.0 (20241103.1931)
 -->
<!-- Title: /Users/fola/Documents/ArkScript/Ark/include/Ark/VM/Value/Closure.hpp Pages: 1 -->
<!--zoomable 605 -->

<svg id="main" version="1.1" xmlns="http://www.w3.org/2000/svg" xmlns:xlink="http://www.w3.org/1999/xlink" xml:space="preserve" onload="init(evt)">

<style type="text/css"><![CDATA[
.node, .edge {opacity: 0.7;}
.node.selected, .edge.selected {opacity: 1;}
.edge:hover path { stroke: red; }
.edge:hover polygon { stroke: red; fill: red; }
]]></style>

<defs>
  <circle id="rim" cx="0" cy="0" r="7"/>
  <circle id="rim2" cx="0" cy="0" r="3.5"/>
  <g id="zoomPlus">
    <use xlink:href="#rim" fill="#404040"><set attributeName="fill" to="#808080" begin="zoomplus.mouseover" end="zoomplus.mouseout"/></use>
    <path d="M-4,0h8M0,-4v8" fill="none" stroke="white" stroke-width="1.5" pointer-events="none"/>
  </g>
  <g id="zoomMin">
    <use xlink:href="#rim" fill="#404040"><set attributeName="fill" to="#808080" begin="zoomminus.mouseover" end="zoomminus.mouseout"/></use>
    <path d="M-4,0h8" fill="none" stroke="white" stroke-width="1.5" pointer-events="none"/>
  </g>
  <g id="arrowUp" transform="translate(30 24)">
    <use xlink:href="#rim"/>
    <path pointer-events="none" fill="none" stroke="white" stroke-width="1.5" d="M0,-3.0v7 M-2.5,-0.5L0,-3.0L2.5,-0.5"/>
  </g>
  <g id="arrowRight" transform="rotate(90) translate(36 -43)">
    <use xlink:href="#rim"/>
    <path pointer-events="none" fill="none" stroke="white" stroke-width="1.5" d="M0,-3.0v7 M-2.5,-0.5L0,-3.0L2.5,-0.5"/>
  </g>
  <g id="arrowDown" transform="rotate(180) translate(-30 -48)">
    <use xlink:href="#rim"/>
    <path pointer-events="none" fill="none" stroke="white" stroke-width="1.5" d="M0,-3.0v7 M-2.5,-0.5L0,-3.0L2.5,-0.5"/>
  </g>
  <g id="arrowLeft" transform="rotate(270) translate(-36 17)">
    <use xlink:href="#rim"/>
    <path pointer-events="none" fill="none" stroke="white" stroke-width="1.5" d="M0,-3.0v7 M-2.5,-0.5L0,-3.0L2.5,-0.5"/>
  </g>
  <g id="resetDef">
    <use xlink:href="#rim2" fill="#404040"><set attributeName="fill" to="#808080" begin="reset.mouseover" end="reset.mouseout"/></use>
  </g>
</defs>
<script type="application/ecmascript">
var viewWidth = 2015;
var viewHeight = 605;
var sectionId = 'dynsection-1';
</script>
<script type="application/ecmascript" xlink:href="../../svg.min.js"/>
<svg id="graph" class="graph">
<g id="viewport">
<title>/Users/fola/Documents/ArkScript/Ark/include/Ark/VM/Value/Closure.hpp</title>
<!-- Node1 -->
<g id="Node000001" class="node">
<title>Node1</title>
<g id="a_Node000001"><a xlink:title="Subtype of the value type, handling closures.">
<polygon fill="#999999" stroke="#666666" points="290.5,-597.25 156,-597.25 156,-555.5 290.5,-555.5 290.5,-597.25"/>
<text text-anchor="start" x="164" y="-583.75" font-family="Helvetica,sans-Serif" font-size="10.00">/Users/fola/Documents</text>
<text text-anchor="start" x="164" y="-572.5" font-family="Helvetica,sans-Serif" font-size="10.00">/ArkScript/Ark/include</text>
<text text-anchor="middle" x="223.25" y="-561.25" font-family="Helvetica,sans-Serif" font-size="10.00">/Ark/VM/Value/Closure.hpp</text>
</a>
</g>
</g>
<!-- Node2 -->
<g id="Node000002" class="node">
<title>Node2</title>
<g id="a_Node000002"><a xlink:href="../../de/dfd/Value_8hpp.html" target="_top" xlink:title=" ">
<polygon fill="white" stroke="#666666" points="472.88,-519.5 355.62,-519.5 355.62,-477.75 472.88,-477.75 472.88,-519.5"/>
<text text-anchor="start" x="363.62" y="-506" font-family="Helvetica,sans-Serif" font-size="10.00">/Users/fola/Documents</text>
<text text-anchor="start" x="363.62" y="-494.75" font-family="Helvetica,sans-Serif" font-size="10.00">/ArkScript/Ark/include</text>
<text text-anchor="middle" x="414.25" y="-483.5" font-family="Helvetica,sans-Serif" font-size="10.00">/Ark/VM/Value.hpp</text>
</a>
</g>
</g>
<!-- Node1&#45;&gt;Node2 -->
<g id="edge1_Node000001_Node000002" class="edge">
<title>Node1&#45;&gt;Node2</title>
<g id="a_edge1_Node000001_Node000002"><a xlink:title=" ">
<path fill="none" stroke="#63b8ff" d="M284.98,-550.89C310.16,-540.91 338.93,-529.5 362.92,-519.98"/>
<polygon fill="#63b8ff" stroke="#63b8ff" points="283.85,-547.58 275.84,-554.52 286.43,-554.08 283.85,-547.58"/>
</a>
</g>
</g>
<!-- Node13 -->
<g id="Node000013" class="node">
<title>Node13</title>
<g id="a_Node000013"><a xlink:href="../../d1/db2/Closure_8cpp.html" target="_top" xlink:title=" ">
<polygon fill="white" stroke="#666666" points="140.5,-119.5 0,-119.5 0,-77.75 140.5,-77.75 140.5,-119.5"/>
<text text-anchor="start" x="8" y="-106" font-family="Helvetica,sans-Serif" font-size="10.00">/Users/fola/Documents</text>
<text text-anchor="start" x="8" y="-94.75" font-family="Helvetica,sans-Serif" font-size="10.00">/ArkScript/Ark/src/arkreactor</text>
<text text-anchor="middle" x="70.25" y="-83.5" font-family="Helvetica,sans-Serif" font-size="10.00">/VM/Value/Closure.cpp</text>
</a>
</g>
</g>
<!-- Node1&#45;&gt;Node13 -->
<g id="edge45_Node000001_Node000013" class="edge">
<title>Node1&#45;&gt;Node13</title>
<g id="a_edge45_Node000001_Node000013"><a xlink:title=" ">
<path fill="none" stroke="#63b8ff" d="M151.45,-550.74C97.28,-527.07 32.25,-485.42 32.25,-421.88 32.25,-421.88 32.25,-421.88 32.25,-264.38 32.25,-211.1 51.35,-150.55 62.47,-119.83"/>
<polygon fill="#63b8ff" stroke="#63b8ff" points="149.8,-553.84 160.37,-554.51 152.52,-547.39 149.8,-553.84"/>
</a>
</g>
</g>
<!-- Node3 -->
<g id="Node000003" class="node">
<title>Node3</title>
<g id="a_Node000003"><a xlink:href="../../da/d84/Builtins_8hpp.html" target="_top" xlink:title="Host the declaration of all the ArkScript builtins.">
<polygon fill="white" stroke="#666666" points="943.88,-286.25 820.62,-286.25 820.62,-244.5 943.88,-244.5 943.88,-286.25"/>
<text text-anchor="start" x="828.62" y="-272.75" font-family="Helvetica,sans-Serif" font-size="10.00">/Users/fola/Documents</text>
<text text-anchor="start" x="828.62" y="-261.5" font-family="Helvetica,sans-Serif" font-size="10.00">/ArkScript/Ark/include</text>
<text text-anchor="middle" x="882.25" y="-250.25" font-family="Helvetica,sans-Serif" font-size="10.00">/Ark/Builtins/Builtins.hpp</text>
</a>
</g>
</g>
<!-- Node2&#45;&gt;Node3 -->
<g id="edge2_Node000002_Node000003" class="edge">
<title>Node2&#45;&gt;Node3</title>
<g id="a_edge2_Node000002_Node000003"><a xlink:title=" ">
<path fill="none" stroke="#63b8ff" d="M480,-473.13C503.65,-463.86 530.38,-452.85 554.25,-441.75 663.74,-390.82 788.29,-320.72 847.47,-286.63"/>
<polygon fill="#63b8ff" stroke="#63b8ff" points="478.83,-469.82 470.78,-476.71 481.37,-476.35 478.83,-469.82"/>
</a>
</g>
</g>
<!-- Node4 -->
<g id="Node000004" class="node">
<title>Node4</title>
<g id="a_Node000004"><a xlink:href="../../d1/d91/VM_8hpp.html" target="_top" xlink:title="The ArkScript virtual machine.">
<polygon fill="white" stroke="#666666" points="434.88,-202.88 317.62,-202.88 317.62,-161.12 434.88,-161.12 434.88,-202.88"/>
<text text-anchor="start" x="325.62" y="-189.38" font-family="Helvetica,sans-Serif" font-size="10.00">/Users/fola/Documents</text>
<text text-anchor="start" x="325.62" y="-178.12" font-family="Helvetica,sans-Serif" font-size="10.00">/ArkScript/Ark/include</text>
<text text-anchor="middle" x="376.25" y="-166.88" font-family="Helvetica,sans-Serif" font-size="10.00">/Ark/VM/VM.hpp</text>
</a>
</g>
</g>
<!-- Node2&#45;&gt;Node4 -->
<g id="edge42_Node000002_Node000004" class="edge">
<title>Node2&#45;&gt;Node4</title>
<g id="a_edge42_Node000002_Node000004"><a xlink:title=" ">
<path fill="none" stroke="#63b8ff" d="M467.25,-470.83C477.7,-462.96 487.28,-453.29 493.25,-441.75 517.66,-394.58 511.43,-372.15 493.25,-322.25 475.04,-272.26 430.11,-227.75 401.53,-203.16"/>
<polygon fill="#63b8ff" stroke="#63b8ff" points="465.38,-467.86 459.15,-476.43 469.36,-473.62 465.38,-467.86"/>
</a>
</g>
</g>
<!-- Node2&#45;&gt;Node13 -->
<g id="edge44_Node000002_Node000013" class="edge">
<title>Node2&#45;&gt;Node13</title>
<g id="a_edge44_Node000002_Node000013"><a xlink:title=" ">
<path fill="none" stroke="#63b8ff" d="M344.21,-496.37C243.63,-490.44 70.25,-462.98 70.25,-344.12 70.25,-344.12 70.25,-344.12 70.25,-264.38 70.25,-212.32 70.25,-151.01 70.25,-119.92"/>
<polygon fill="#63b8ff" stroke="#63b8ff" points="343.82,-499.86 353.99,-496.89 344.19,-492.87 343.82,-499.86"/>
</a>
</g>
</g>
<!-- Node19 -->
<g id="Node000019" class="node">
<title>Node19</title>
<g id="a_Node000019"><a xlink:href="../../d1/d84/BytecodeReader_8hpp.html" target="_top" xlink:title="A bytecode disassembler for ArkScript.">
<polygon fill="white" stroke="#666666" points="1416.12,-286.25 1246.38,-286.25 1246.38,-244.5 1416.12,-244.5 1416.12,-286.25"/>
<text text-anchor="start" x="1254.38" y="-272.75" font-family="Helvetica,sans-Serif" font-size="10.00">/Users/fola/Documents</text>
<text text-anchor="start" x="1254.38" y="-261.5" font-family="Helvetica,sans-Serif" font-size="10.00">/ArkScript/Ark/include</text>
<text text-anchor="middle" x="1331.25" y="-250.25" font-family="Helvetica,sans-Serif" font-size="10.00">/Ark/Compiler/BytecodeReader.hpp</text>
</a>
</g>
</g>
<!-- Node2&#45;&gt;Node19 -->
<g id="edge19_Node000002_Node000019" class="edge">
<title>Node2&#45;&gt;Node19</title>
<g id="a_edge19_Node000002_Node000019"><a xlink:title=" ">
<path fill="none" stroke="#63b8ff" d="M484.48,-479.91C651.78,-437.72 1073.08,-331.48 1250.5,-286.74"/>
<polygon fill="#63b8ff" stroke="#63b8ff" points="483.67,-476.51 474.83,-482.35 485.38,-483.3 483.67,-476.51"/>
</a>
</g>
</g>
<!-- Node21 -->
<g id="Node000021" class="node">
<title>Node21</title>
<g id="a_Node000021"><a xlink:href="../../db/d5e/TypeChecker_8hpp.html" target="_top" xlink:title=" ">
<polygon fill="white" stroke="#666666" points="1774.88,-202.88 1657.62,-202.88 1657.62,-161.12 1774.88,-161.12 1774.88,-202.88"/>
<text text-anchor="start" x="1665.62" y="-189.38" font-family="Helvetica,sans-Serif" font-size="10.00">/Users/fola/Documents</text>
<text text-anchor="start" x="1665.62" y="-178.12" font-family="Helvetica,sans-Serif" font-size="10.00">/ArkScript/Ark/include</text>
<text text-anchor="middle" x="1716.25" y="-166.88" font-family="Helvetica,sans-Serif" font-size="10.00">/Ark/TypeChecker.hpp</text>
</a>
</g>
</g>
<!-- Node2&#45;&gt;Node21 -->
<g id="edge23_Node000002_Node000021" class="edge">
<title>Node2&#45;&gt;Node21</title>
<g id="a_edge23_Node000002_Node000021"><a xlink:title=" ">
<path fill="none" stroke="#63b8ff" d="M484.11,-486.74C649.56,-460.15 1077.49,-386.68 1425.25,-286.25 1510.49,-261.63 1607.14,-225.69 1664.82,-203.36"/>
<polygon fill="#63b8ff" stroke="#63b8ff" points="483.94,-483.22 474.62,-488.26 485.05,-490.13 483.94,-483.22"/>
</a>
</g>
</g>
<!-- Node23 -->
<g id="Node000023" class="node">
<title>Node23</title>
<g id="a_Node000023"><a xlink:href="../../db/df6/ExecutionContext_8hpp.html" target="_top" xlink:title="Keeping track of the internal data needed by the VM.">
<polygon fill="white" stroke="#666666" points="484.12,-364 332.38,-364 332.38,-322.25 484.12,-322.25 484.12,-364"/>
<text text-anchor="start" x="340.38" y="-350.5" font-family="Helvetica,sans-Serif" font-size="10.00">/Users/fola/Documents</text>
<text text-anchor="start" x="340.38" y="-339.25" font-family="Helvetica,sans-Serif" font-size="10.00">/ArkScript/Ark/include</text>
<text text-anchor="middle" x="408.25" y="-328" font-family="Helvetica,sans-Serif" font-size="10.00">/Ark/VM/ExecutionContext.hpp</text>
</a>
</g>
</g>
<!-- Node2&#45;&gt;Node23 -->
<g id="edge28_Node000002_Node000023" class="edge">
<title>Node2&#45;&gt;Node23</title>
<g id="a_edge28_Node000002_Node000023"><a xlink:title=" ">
<path fill="none" stroke="#63b8ff" d="M361.25,-470.83C350.8,-462.96 341.22,-453.29 335.25,-441.75 326.72,-425.27 327.03,-416.64 335.25,-400 342.53,-385.26 355.77,-373.34 368.99,-364.35"/>
<polygon fill="#63b8ff" stroke="#63b8ff" points="359.14,-473.62 369.35,-476.43 363.12,-467.86 359.14,-473.62"/>
</a>
</g>
</g>
<!-- Node24 -->
<g id="Node000024" class="node">
<title>Node24</title>
<g id="a_Node000024"><a xlink:href="../../d0/dda/Future_8hpp.html" target="_top" xlink:title=" ">
<polygon fill="white" stroke="#666666" points="319.88,-286.25 202.62,-286.25 202.62,-244.5 319.88,-244.5 319.88,-286.25"/>
<text text-anchor="start" x="210.62" y="-272.75" font-family="Helvetica,sans-Serif" font-size="10.00">/Users/fola/Documents</text>
<text text-anchor="start" x="210.62" y="-261.5" font-family="Helvetica,sans-Serif" font-size="10.00">/ArkScript/Ark/include</text>
<text text-anchor="middle" x="261.25" y="-250.25" font-family="Helvetica,sans-Serif" font-size="10.00">/Ark/VM/Future.hpp</text>
</a>
</g>
</g>
<!-- Node2&#45;&gt;Node24 -->
<g id="edge33_Node000002_Node000024" class="edge">
<title>Node2&#45;&gt;Node24</title>
<g id="a_edge33_Node000002_Node000024"><a xlink:title=" ">
<path fill="none" stroke="#63b8ff" d="M343.99,-491.81C277.25,-484.66 183.82,-469.85 161.25,-441.75 150.76,-428.69 151.97,-344.02 165.25,-322.25 174.64,-306.86 189.97,-295.25 205.66,-286.73"/>
<polygon fill="#63b8ff" stroke="#63b8ff" points="343.48,-495.28 353.79,-492.82 344.2,-488.31 343.48,-495.28"/>
</a>
</g>
</g>
<!-- Node25 -->
<g id="Node000025" class="node">
<title>Node25</title>
<g id="a_Node000025"><a xlink:href="../../d8/dcd/Scope_8hpp.html" target="_top" xlink:title="The virtual machine scope system.">
<polygon fill="white" stroke="#666666" points="287.88,-441.75 170.62,-441.75 170.62,-400 287.88,-400 287.88,-441.75"/>
<text text-anchor="start" x="178.62" y="-428.25" font-family="Helvetica,sans-Serif" font-size="10.00">/Users/fola/Documents</text>
<text text-anchor="start" x="178.62" y="-417" font-family="Helvetica,sans-Serif" font-size="10.00">/ArkScript/Ark/include</text>
<text text-anchor="middle" x="229.25" y="-405.75" font-family="Helvetica,sans-Serif" font-size="10.00">/Ark/VM/Scope.hpp</text>
</a>
</g>
</g>
<!-- Node2&#45;&gt;Node25 -->
<g id="edge34_Node000002_Node000025" class="edge">
<title>Node2&#45;&gt;Node25</title>
<g id="a_edge34_Node000002_Node000025"><a xlink:title=" ">
<path fill="none" stroke="#63b8ff" d="M354.13,-473.01C329.83,-463.06 302.1,-451.71 278.96,-442.23"/>
<polygon fill="#63b8ff" stroke="#63b8ff" points="352.69,-476.2 363.27,-476.75 355.34,-469.72 352.69,-476.2"/>
</a>
</g>
</g>
<!-- Node27 -->
<g id="Node000027" class="node">
<title>Node27</title>
<g id="a_Node000027"><a xlink:href="../../d0/db5/State_8hpp.html" target="_top" xlink:title="State used by the virtual machine: it loads the bytecode, can compile it if needed,...">
<polygon fill="white" stroke="#666666" points="657.88,-286.25 540.62,-286.25 540.62,-244.5 657.88,-244.5 657.88,-286.25"/>
<text text-anchor="start" x="548.62" y="-272.75" font-family="Helvetica,sans-Serif" font-size="10.00">/Users/fola/Documents</text>
<text text-anchor="start" x="548.62" y="-261.5" font-family="Helvetica,sans-Serif" font-size="10.00">/ArkScript/Ark/include</text>
<text text-anchor="middle" x="599.25" y="-250.25" font-family="Helvetica,sans-Serif" font-size="10.00">/Ark/VM/State.hpp</text>
</a>
</g>
</g>
<!-- Node2&#45;&gt;Node27 -->
<g id="edge38_Node000002_Node000027" class="edge">
<title>Node2&#45;&gt;Node27</title>
<g id="a_edge38_Node000002_Node000027"><a xlink:title=" ">
<path fill="none" stroke="#63b8ff" d="M483.46,-472.72C499.01,-464.67 514.39,-454.45 526.25,-441.75 568.91,-396.08 588.41,-321.92 595.67,-286.48"/>
<polygon fill="#63b8ff" stroke="#63b8ff" points="482.07,-469.5 474.62,-477.03 485.14,-475.79 482.07,-469.5"/>
</a>
</g>
</g>
<!-- Node28 -->
<g id="Node000028" class="node">
<title>Node28</title>
<g id="a_Node000028"><a xlink:href="../../d1/d74/Value_8cpp.html" target="_top" xlink:title=" ">
<polygon fill="white" stroke="#666666" points="484.5,-441.75 344,-441.75 344,-400 484.5,-400 484.5,-441.75"/>
<text text-anchor="start" x="352" y="-428.25" font-family="Helvetica,sans-Serif" font-size="10.00">/Users/fola/Documents</text>
<text text-anchor="start" x="352" y="-417" font-family="Helvetica,sans-Serif" font-size="10.00">/ArkScript/Ark/src/arkreactor</text>
<text text-anchor="middle" x="414.25" y="-405.75" font-family="Helvetica,sans-Serif" font-size="10.00">/VM/Value.cpp</text>
</a>
</g>
</g>
<!-- Node2&#45;&gt;Node28 -->
<g id="edge43_Node000002_Node000028" class="edge">
<title>Node2&#45;&gt;Node28</title>
<g id="a_edge43_Node000002_Node000028"><a xlink:title=" ">
<path fill="none" stroke="#63b8ff" d="M414.25,-466C414.25,-457.96 414.25,-449.54 414.25,-442.23"/>
<polygon fill="#63b8ff" stroke="#63b8ff" points="410.75,-465.81 414.25,-475.81 417.75,-465.81 410.75,-465.81"/>
</a>
</g>
</g>
<!-- Node3&#45;&gt;Node4 -->
<g id="edge3_Node000003_Node000004" class="edge">
<title>Node3&#45;&gt;Node4</title>
<g id="a_edge3_Node000003_Node000004"><a xlink:title=" ">
<path fill="none" stroke="#63b8ff" d="M809.05,-255.92C729.53,-246.29 598.89,-229.18 487.25,-208.5 470.24,-205.35 451.89,-201.37 435.1,-197.5"/>
<polygon fill="#63b8ff" stroke="#63b8ff" points="808.56,-259.38 818.91,-257.1 809.4,-252.43 808.56,-259.38"/>
</a>
</g>
</g>
<!-- Node9 -->
<g id="Node000009" class="node">
<title>Node9</title>
<g id="a_Node000009"><a xlink:href="../../d7/d46/Repl_8cpp.html" target="_top" xlink:title=" ">
<polygon fill="white" stroke="#666666" points="554.5,-41.75 420,-41.75 420,0 554.5,0 554.5,-41.75"/>
<text text-anchor="start" x="428" y="-28.25" font-family="Helvetica,sans-Serif" font-size="10.00">/Users/fola/Documents</text>
<text text-anchor="start" x="428" y="-17" font-family="Helvetica,sans-Serif" font-size="10.00">/ArkScript/Ark/src/arkscript</text>
<text text-anchor="middle" x="487.25" y="-5.75" font-family="Helvetica,sans-Serif" font-size="10.00">/REPL/Repl.cpp</text>
</a>
</g>
</g>
<!-- Node3&#45;&gt;Node9 -->
<g id="edge18_Node000003_Node000009" class="edge">
<title>Node3&#45;&gt;Node9</title>
<g id="a_edge18_Node000003_Node000009"><a xlink:title=" ">
<path fill="none" stroke="#63b8ff" d="M808.89,-258.13C708.56,-248.83 538.78,-230.11 520.25,-208.5 504.92,-190.62 508.72,-176.04 520.25,-155.5 535.29,-128.71 564.21,-146.29 579.25,-119.5 588.33,-103.32 588.35,-93.92 579.25,-77.75 570.54,-62.28 555.63,-50.59 540.32,-42.02"/>
<polygon fill="#63b8ff" stroke="#63b8ff" points="808.39,-261.6 818.66,-259.02 809.02,-254.63 808.39,-261.6"/>
</a>
</g>
</g>
<!-- Node14 -->
<g id="Node000014" class="node">
<title>Node14</title>
<g id="a_Node000014"><a xlink:href="../../d5/d36/BytecodeReader_8cpp.html" target="_top" xlink:title=" ">
<polygon fill="white" stroke="#666666" points="1601.12,-202.88 1449.38,-202.88 1449.38,-161.12 1601.12,-161.12 1601.12,-202.88"/>
<text text-anchor="start" x="1457.38" y="-189.38" font-family="Helvetica,sans-Serif" font-size="10.00">/Users/fola/Documents</text>
<text text-anchor="start" x="1457.38" y="-178.12" font-family="Helvetica,sans-Serif" font-size="10.00">/ArkScript/Ark/src/arkreactor</text>
<text text-anchor="middle" x="1525.25" y="-166.88" font-family="Helvetica,sans-Serif" font-size="10.00">/Compiler/BytecodeReader.cpp</text>
</a>
</g>
</g>
<!-- Node3&#45;&gt;Node14 -->
<g id="edge13_Node000003_Node000014" class="edge">
<title>Node3&#45;&gt;Node14</title>
<g id="a_edge13_Node000003_Node000014"><a xlink:title=" ">
<path fill="none" stroke="#63b8ff" d="M955.67,-261.51C1063,-256.3 1268.63,-242.51 1440.25,-208.5 1447.5,-207.06 1455.03,-205.27 1462.46,-203.3"/>
<polygon fill="#63b8ff" stroke="#63b8ff" points="955.67,-258 945.85,-261.97 956,-264.99 955.67,-258"/>
</a>
</g>
</g>
<!-- Node15 -->
<g id="Node000015" class="node">
<title>Node15</title>
<g id="a_Node000015"><a xlink:href="../../de/dfa/Compiler_8cpp.html" target="_top" xlink:title=" ">
<polygon fill="white" stroke="#666666" points="1055.5,-202.88 915,-202.88 915,-161.12 1055.5,-161.12 1055.5,-202.88"/>
<text text-anchor="start" x="923" y="-189.38" font-family="Helvetica,sans-Serif" font-size="10.00">/Users/fola/Documents</text>
<text text-anchor="start" x="923" y="-178.12" font-family="Helvetica,sans-Serif" font-size="10.00">/ArkScript/Ark/src/arkreactor</text>
<text text-anchor="middle" x="985.25" y="-166.88" font-family="Helvetica,sans-Serif" font-size="10.00">/Compiler/Compiler.cpp</text>
</a>
</g>
</g>
<!-- Node3&#45;&gt;Node15 -->
<g id="edge14_Node000003_Node000015" class="edge">
<title>Node3&#45;&gt;Node15</title>
<g id="a_edge14_Node000003_Node000015"><a xlink:title=" ">
<path fill="none" stroke="#63b8ff" d="M916.82,-237.06C930.77,-226.04 946.59,-213.55 959.5,-203.35"/>
<polygon fill="#63b8ff" stroke="#63b8ff" points="914.84,-234.17 909.16,-243.11 919.18,-239.66 914.84,-234.17"/>
</a>
</g>
</g>
<!-- Node16 -->
<g id="Node000016" class="node">
<title>Node16</title>
<g id="a_Node000016"><a xlink:href="../../d0/da9/IROptimizer_8cpp.html" target="_top" xlink:title=" ">
<polygon fill="white" stroke="#666666" points="1254.75,-208.5 1073.75,-208.5 1073.75,-155.5 1254.75,-155.5 1254.75,-208.5"/>
<text text-anchor="start" x="1081.75" y="-195" font-family="Helvetica,sans-Serif" font-size="10.00">/Users/fola/Documents</text>
<text text-anchor="start" x="1081.75" y="-183.75" font-family="Helvetica,sans-Serif" font-size="10.00">/ArkScript/Ark/src/arkreactor</text>
<text text-anchor="start" x="1081.75" y="-172.5" font-family="Helvetica,sans-Serif" font-size="10.00">/Compiler/IntermediateRepresentation</text>
<text text-anchor="middle" x="1164.25" y="-161.25" font-family="Helvetica,sans-Serif" font-size="10.00">/IROptimizer.cpp</text>
</a>
</g>
</g>
<!-- Node3&#45;&gt;Node16 -->
<g id="edge15_Node000003_Node000016" class="edge">
<title>Node3&#45;&gt;Node16</title>
<g id="a_edge15_Node000003_Node000016"><a xlink:title=" ">
<path fill="none" stroke="#63b8ff" d="M955.16,-243.34C991.56,-232.83 1035.92,-220.03 1074.41,-208.93"/>
<polygon fill="#63b8ff" stroke="#63b8ff" points="954.23,-239.96 945.59,-246.1 956.17,-246.69 954.23,-239.96"/>
</a>
</g>
</g>
<!-- Node17 -->
<g id="Node000017" class="node">
<title>Node17</title>
<g id="a_Node000017"><a xlink:href="../../d6/d69/Processor_8cpp.html" target="_top" xlink:title=" ">
<polygon fill="white" stroke="#666666" points="1431.5,-202.88 1273,-202.88 1273,-161.12 1431.5,-161.12 1431.5,-202.88"/>
<text text-anchor="start" x="1281" y="-189.38" font-family="Helvetica,sans-Serif" font-size="10.00">/Users/fola/Documents</text>
<text text-anchor="start" x="1281" y="-178.12" font-family="Helvetica,sans-Serif" font-size="10.00">/ArkScript/Ark/src/arkreactor</text>
<text text-anchor="middle" x="1352.25" y="-166.88" font-family="Helvetica,sans-Serif" font-size="10.00">/Compiler/Macros/Processor.cpp</text>
</a>
</g>
</g>
<!-- Node3&#45;&gt;Node17 -->
<g id="edge16_Node000003_Node000017" class="edge">
<title>Node3&#45;&gt;Node17</title>
<g id="a_edge16_Node000003_Node000017"><a xlink:title=" ">
<path fill="none" stroke="#63b8ff" d="M955.29,-256.7C1032.57,-247.88 1157.81,-231.59 1264.25,-208.5 1271.25,-206.98 1278.5,-205.21 1285.71,-203.32"/>
<polygon fill="#63b8ff" stroke="#63b8ff" points="955.29,-253.18 945.75,-257.78 956.08,-260.13 955.29,-253.18"/>
</a>
</g>
</g>
<!-- Node18 -->
<g id="Node000018" class="node">
<title>Node18</title>
<g id="a_Node000018"><a xlink:href="../../de/dd7/NameResolutionPass_8cpp.html" target="_top" xlink:title=" ">
<polygon fill="white" stroke="#666666" points="897,-208.5 687.5,-208.5 687.5,-155.5 897,-155.5 897,-208.5"/>
<text text-anchor="start" x="695.5" y="-195" font-family="Helvetica,sans-Serif" font-size="10.00">/Users/fola/Documents</text>
<text text-anchor="start" x="695.5" y="-183.75" font-family="Helvetica,sans-Serif" font-size="10.00">/ArkScript/Ark/src/arkreactor</text>
<text text-anchor="start" x="695.5" y="-172.5" font-family="Helvetica,sans-Serif" font-size="10.00">/Compiler/NameResolution/NameResolution</text>
<text text-anchor="middle" x="792.25" y="-161.25" font-family="Helvetica,sans-Serif" font-size="10.00">Pass.cpp</text>
</a>
</g>
</g>
<!-- Node3&#45;&gt;Node18 -->
<g id="edge17_Node000003_Node000018" class="edge">
<title>Node3&#45;&gt;Node18</title>
<g id="a_edge17_Node000003_Node000018"><a xlink:title=" ">
<path fill="none" stroke="#63b8ff" d="M851.55,-236.62C841.56,-227.59 830.52,-217.61 820.71,-208.73"/>
<polygon fill="#63b8ff" stroke="#63b8ff" points="849.12,-239.13 858.88,-243.24 853.81,-233.94 849.12,-239.13"/>
</a>
</g>
</g>
<!-- Node5 -->
<g id="Node000005" class="node">
<title>Node5</title>
<g id="a_Node000005"><a xlink:href="../../d3/d7e/Ark_8hpp.html" target="_top" xlink:title="Includes the needed files to start using ArkScript.">
<polygon fill="white" stroke="#666666" points="1847.88,-119.5 1730.62,-119.5 1730.62,-77.75 1847.88,-77.75 1847.88,-119.5"/>
<text text-anchor="start" x="1738.62" y="-106" font-family="Helvetica,sans-Serif" font-size="10.00">/Users/fola/Documents</text>
<text text-anchor="start" x="1738.62" y="-94.75" font-family="Helvetica,sans-Serif" font-size="10.00">/ArkScript/Ark/include</text>
<text text-anchor="middle" x="1789.25" y="-83.5" font-family="Helvetica,sans-Serif" font-size="10.00">/Ark/Ark.hpp</text>
</a>
</g>
</g>
<!-- Node4&#45;&gt;Node5 -->
<g id="edge4_Node000004_Node000005" class="edge">
<title>Node4&#45;&gt;Node5</title>
<g id="a_edge4_Node000004_Node000005"><a xlink:title=" ">
<path fill="none" stroke="#63b8ff" d="M446.41,-166.47C469.79,-162.19 496.05,-157.99 520.25,-155.5 1051.46,-100.8 1193.81,-203.08 1721.25,-119.5 1724.29,-119.02 1727.38,-118.44 1730.49,-117.79"/>
<polygon fill="#63b8ff" stroke="#63b8ff" points="445.85,-163.01 436.67,-168.29 447.14,-169.89 445.85,-163.01"/>
</a>
</g>
</g>
<!-- Node7 -->
<g id="Node000007" class="node">
<title>Node7</title>
<g id="a_Node000007"><a xlink:href="../../d5/d44/Module_8hpp.html" target="_top" xlink:title=" ">
<polygon fill="white" stroke="#666666" points="569.88,-119.5 452.62,-119.5 452.62,-77.75 569.88,-77.75 569.88,-119.5"/>
<text text-anchor="start" x="460.62" y="-106" font-family="Helvetica,sans-Serif" font-size="10.00">/Users/fola/Documents</text>
<text text-anchor="start" x="460.62" y="-94.75" font-family="Helvetica,sans-Serif" font-size="10.00">/ArkScript/Ark/include</text>
<text text-anchor="middle" x="511.25" y="-83.5" font-family="Helvetica,sans-Serif" font-size="10.00">/Ark/Module.hpp</text>
</a>
</g>
</g>
<!-- Node4&#45;&gt;Node7 -->
<g id="edge6_Node000004_Node000007" class="edge">
<title>Node4&#45;&gt;Node7</title>
<g id="a_edge6_Node000004_Node000007"><a xlink:title=" ">
<path fill="none" stroke="#63b8ff" d="M419.75,-154.78C438.46,-143.5 460.01,-130.51 477.49,-119.97"/>
<polygon fill="#63b8ff" stroke="#63b8ff" points="418.02,-151.73 411.26,-159.89 421.64,-157.73 418.02,-151.73"/>
</a>
</g>
</g>
<!-- Node8 -->
<g id="Node000008" class="node">
<title>Node8</title>
<g id="a_Node000008"><a xlink:href="../../d5/da5/Repl_8hpp.html" target="_top" xlink:title="ArkScript REPL &#45; Read Eval Print Loop.">
<polygon fill="white" stroke="#666666" points="434.88,-119.5 317.62,-119.5 317.62,-77.75 434.88,-77.75 434.88,-119.5"/>
<text text-anchor="start" x="325.62" y="-106" font-family="Helvetica,sans-Serif" font-size="10.00">/Users/fola/Documents</text>
<text text-anchor="start" x="325.62" y="-94.75" font-family="Helvetica,sans-Serif" font-size="10.00">/ArkScript/Ark/include</text>
<text text-anchor="middle" x="376.25" y="-83.5" font-family="Helvetica,sans-Serif" font-size="10.00">/CLI/REPL/Repl.hpp</text>
</a>
</g>
</g>
<!-- Node4&#45;&gt;Node8 -->
<g id="edge7_Node000004_Node000008" class="edge">
<title>Node4&#45;&gt;Node8</title>
<g id="a_edge7_Node000004_Node000008"><a xlink:title=" ">
<path fill="none" stroke="#63b8ff" d="M376.25,-149.64C376.25,-139.62 376.25,-128.8 376.25,-119.79"/>
<polygon fill="#63b8ff" stroke="#63b8ff" points="372.75,-149.37 376.25,-159.37 379.75,-149.37 372.75,-149.37"/>
</a>
</g>
</g>
<!-- Node11 -->
<g id="Node000011" class="node">
<title>Node11</title>
<g id="a_Node000011"><a xlink:href="../../d4/dc9/Future_8cpp.html" target="_top" xlink:title=" ">
<polygon fill="white" stroke="#666666" points="299.5,-119.5 159,-119.5 159,-77.75 299.5,-77.75 299.5,-119.5"/>
<text text-anchor="start" x="167" y="-106" font-family="Helvetica,sans-Serif" font-size="10.00">/Users/fola/Documents</text>
<text text-anchor="start" x="167" y="-94.75" font-family="Helvetica,sans-Serif" font-size="10.00">/ArkScript/Ark/src/arkreactor</text>
<text text-anchor="middle" x="229.25" y="-83.5" font-family="Helvetica,sans-Serif" font-size="10.00">/VM/Future.cpp</text>
</a>
</g>
</g>
<!-- Node4&#45;&gt;Node11 -->
<g id="edge10_Node000004_Node000011" class="edge">
<title>Node4&#45;&gt;Node11</title>
<g id="a_edge10_Node000004_Node000011"><a xlink:title=" ">
<path fill="none" stroke="#63b8ff" d="M329.73,-155.25C309.16,-143.86 285.31,-130.66 266.01,-119.97"/>
<polygon fill="#63b8ff" stroke="#63b8ff" points="327.77,-158.16 338.21,-159.94 331.16,-152.04 327.77,-158.16"/>
</a>
</g>
</g>
<!-- Node12 -->
<g id="Node000012" class="node">
<title>Node12</title>
<g id="a_Node000012"><a xlink:href="../../d2/d27/VM_8cpp.html" target="_top" xlink:title=" ">
<polygon fill="white" stroke="#666666" points="1712.5,-119.5 1572,-119.5 1572,-77.75 1712.5,-77.75 1712.5,-119.5"/>
<text text-anchor="start" x="1580" y="-106" font-family="Helvetica,sans-Serif" font-size="10.00">/Users/fola/Documents</text>
<text text-anchor="start" x="1580" y="-94.75" font-family="Helvetica,sans-Serif" font-size="10.00">/ArkScript/Ark/src/arkreactor</text>
<text text-anchor="middle" x="1642.25" y="-83.5" font-family="Helvetica,sans-Serif" font-size="10.00">/VM/VM.cpp</text>
</a>
</g>
</g>
<!-- Node4&#45;&gt;Node12 -->
<g id="edge11_Node000004_Node000012" class="edge">
<title>Node4&#45;&gt;Node12</title>
<g id="a_edge11_Node000004_Node000012"><a xlink:title=" ">
<path fill="none" stroke="#63b8ff" d="M446.44,-166.75C469.82,-162.49 496.08,-158.23 520.25,-155.5 916.09,-110.77 1394.51,-101.85 1571.76,-100.07"/>
<polygon fill="#63b8ff" stroke="#63b8ff" points="445.89,-163.29 436.7,-168.56 447.17,-170.18 445.89,-163.29"/>
</a>
</g>
</g>
<!-- Node4&#45;&gt;Node13 -->
<g id="edge12_Node000004_Node000013" class="edge">
<title>Node4&#45;&gt;Node13</title>
<g id="a_edge12_Node000004_Node000013"><a xlink:title=" ">
<path fill="none" stroke="#63b8ff" d="M306.31,-162.4C256.78,-149.23 190.57,-131.62 140.88,-118.41"/>
<polygon fill="#63b8ff" stroke="#63b8ff" points="305.22,-165.73 315.79,-164.92 307.02,-158.97 305.22,-165.73"/>
</a>
</g>
</g>
<!-- Node6 -->
<g id="Node000006" class="node">
<title>Node6</title>
<g id="a_Node000006"><a xlink:href="../../dc/d32/Ark_8cpp.html" target="_top" xlink:title=" ">
<polygon fill="white" stroke="#666666" points="1859.5,-41.75 1719,-41.75 1719,0 1859.5,0 1859.5,-41.75"/>
<text text-anchor="start" x="1727" y="-28.25" font-family="Helvetica,sans-Serif" font-size="10.00">/Users/fola/Documents</text>
<text text-anchor="start" x="1727" y="-17" font-family="Helvetica,sans-Serif" font-size="10.00">/ArkScript/Ark/src/arkreactor</text>
<text text-anchor="middle" x="1789.25" y="-5.75" font-family="Helvetica,sans-Serif" font-size="10.00">/Ark.cpp</text>
</a>
</g>
</g>
<!-- Node5&#45;&gt;Node6 -->
<g id="edge5_Node000005_Node000006" class="edge">
<title>Node5&#45;&gt;Node6</title>
<g id="a_edge5_Node000005_Node000006"><a xlink:title=" ">
<path fill="none" stroke="#63b8ff" d="M1789.25,-66C1789.25,-57.96 1789.25,-49.54 1789.25,-42.23"/>
<polygon fill="#63b8ff" stroke="#63b8ff" points="1785.75,-65.81 1789.25,-75.81 1792.75,-65.81 1785.75,-65.81"/>
</a>
</g>
</g>
<!-- Node8&#45;&gt;Node9 -->
<g id="edge8_Node000008_Node000009" class="edge">
<title>Node8&#45;&gt;Node9</title>
<g id="a_edge8_Node000008_Node000009"><a xlink:title=" ">
<path fill="none" stroke="#63b8ff" d="M415.29,-70.98C429.13,-61.54 444.47,-51.07 457.42,-42.23"/>
<polygon fill="#63b8ff" stroke="#63b8ff" points="413.53,-67.94 407.25,-76.47 417.48,-73.73 413.53,-67.94"/>
</a>
</g>
</g>
<!-- Node10 -->
<g id="Node000010" class="node">
<title>Node10</title>
<g id="a_Node000010"><a xlink:href="../../df/d0a/main_8cpp.html" target="_top" xlink:title=" ">
<polygon fill="white" stroke="#666666" points="1196.5,-41.75 1062,-41.75 1062,0 1196.5,0 1196.5,-41.75"/>
<text text-anchor="start" x="1070" y="-28.25" font-family="Helvetica,sans-Serif" font-size="10.00">/Users/fola/Documents</text>
<text text-anchor="start" x="1070" y="-17" font-family="Helvetica,sans-Serif" font-size="10.00">/ArkScript/Ark/src/arkscript</text>
<text text-anchor="middle" x="1129.25" y="-5.75" font-family="Helvetica,sans-Serif" font-size="10.00">/main.cpp</text>
</a>
</g>
</g>
<!-- Node8&#45;&gt;Node10 -->
<g id="edge9_Node000008_Node000010" class="edge">
<title>Node8&#45;&gt;Node10</title>
<g id="a_edge9_Node000008_Node000010"><a xlink:title=" ">
<path fill="none" stroke="#63b8ff" d="M446.52,-77.32C675.99,-35.53 940.32,-25.33 1061.94,-22.75"/>
<polygon fill="#63b8ff" stroke="#63b8ff" points="445.96,-73.86 436.76,-79.12 447.23,-80.74 445.96,-73.86"/>
</a>
</g>
</g>
<!-- Node19&#45;&gt;Node10 -->
<g id="edge22_Node000019_Node000010" class="edge">
<title>Node19&#45;&gt;Node10</title>
<g id="a_edge22_Node000019_Node000010"><a xlink:title=" ">
<path fill="none" stroke="#63b8ff" d="M1427.91,-259.12C1527.96,-249.92 1662.81,-224.66 1610.25,-155.5 1560.16,-89.6 1317.06,-47.65 1196.84,-30.6"/>
<polygon fill="#63b8ff" stroke="#63b8ff" points="1427.67,-255.63 1418.02,-259.99 1428.28,-262.6 1427.67,-255.63"/>
</a>
</g>
</g>
<!-- Node19&#45;&gt;Node14 -->
<g id="edge20_Node000019_Node000014" class="edge">
<title>Node19&#45;&gt;Node14</title>
<g id="a_edge20_Node000019_Node000014"><a xlink:title=" ">
<path fill="none" stroke="#63b8ff" d="M1390.06,-239.71C1417.79,-228.08 1450.46,-214.37 1476.74,-203.35"/>
<polygon fill="#63b8ff" stroke="#63b8ff" points="1388.97,-236.37 1381.1,-243.47 1391.68,-242.82 1388.97,-236.37"/>
</a>
</g>
</g>
<!-- Node20 -->
<g id="Node000020" class="node">
<title>Node20</title>
<g id="a_Node000020"><a xlink:href="../../d0/da0/State_8cpp.html" target="_top" xlink:title=" ">
<polygon fill="white" stroke="#666666" points="669.5,-202.88 529,-202.88 529,-161.12 669.5,-161.12 669.5,-202.88"/>
<text text-anchor="start" x="537" y="-189.38" font-family="Helvetica,sans-Serif" font-size="10.00">/Users/fola/Documents</text>
<text text-anchor="start" x="537" y="-178.12" font-family="Helvetica,sans-Serif" font-size="10.00">/ArkScript/Ark/src/arkreactor</text>
<text text-anchor="middle" x="599.25" y="-166.88" font-family="Helvetica,sans-Serif" font-size="10.00">/VM/State.cpp</text>
</a>
</g>
</g>
<!-- Node19&#45;&gt;Node20 -->
<g id="edge21_Node000019_Node000020" class="edge">
<title>Node19&#45;&gt;Node20</title>
<g id="a_edge21_Node000019_Node000020"><a xlink:title=" ">
<path fill="none" stroke="#63b8ff" d="M1234.68,-258.81C1079.6,-249.42 781.97,-229.39 678.25,-208.5 671.33,-207.11 664.16,-205.31 657.1,-203.32"/>
<polygon fill="#63b8ff" stroke="#63b8ff" points="1234.34,-262.3 1244.53,-259.4 1234.76,-255.31 1234.34,-262.3"/>
</a>
</g>
</g>
<!-- Node21&#45;&gt;Node5 -->
<g id="edge24_Node000021_Node000005" class="edge">
<title>Node21&#45;&gt;Node5</title>
<g id="a_edge24_Node000021_Node000005"><a xlink:title=" ">
<path fill="none" stroke="#63b8ff" d="M1741.76,-152.56C1751.46,-141.75 1762.29,-129.68 1771.16,-119.79"/>
<polygon fill="#63b8ff" stroke="#63b8ff" points="1739.38,-149.98 1735.31,-159.76 1744.59,-154.65 1739.38,-149.98"/>
</a>
</g>
</g>
<!-- Node21&#45;&gt;Node7 -->
<g id="edge25_Node000021_Node000007" class="edge">
<title>Node21&#45;&gt;Node7</title>
<g id="a_edge25_Node000021_Node000007"><a xlink:title=" ">
<path fill="none" stroke="#63b8ff" d="M1645.98,-162.17C1634.13,-159.55 1621.89,-157.18 1610.25,-155.5 1406.63,-126.09 767.75,-106.62 570.11,-101.18"/>
<polygon fill="#63b8ff" stroke="#63b8ff" points="1645.19,-165.58 1655.72,-164.41 1646.76,-158.76 1645.19,-165.58"/>
</a>
</g>
</g>
<!-- Node21&#45;&gt;Node12 -->
<g id="edge27_Node000021_Node000012" class="edge">
<title>Node21&#45;&gt;Node12</title>
<g id="a_edge27_Node000021_Node000012"><a xlink:title=" ">
<path fill="none" stroke="#63b8ff" d="M1690.39,-152.56C1680.56,-141.75 1669.58,-129.68 1660.59,-119.79"/>
<polygon fill="#63b8ff" stroke="#63b8ff" points="1687.62,-154.72 1696.94,-159.77 1692.8,-150.01 1687.62,-154.72"/>
</a>
</g>
</g>
<!-- Node22 -->
<g id="Node000022" class="node">
<title>Node22</title>
<g id="a_Node000022"><a xlink:href="../../d6/d9a/TypeChecker_8cpp.html" target="_top" xlink:title=" ">
<polygon fill="white" stroke="#666666" points="2006.5,-119.5 1866,-119.5 1866,-77.75 2006.5,-77.75 2006.5,-119.5"/>
<text text-anchor="start" x="1874" y="-106" font-family="Helvetica,sans-Serif" font-size="10.00">/Users/fola/Documents</text>
<text text-anchor="start" x="1874" y="-94.75" font-family="Helvetica,sans-Serif" font-size="10.00">/ArkScript/Ark/src/arkreactor</text>
<text text-anchor="middle" x="1936.25" y="-83.5" font-family="Helvetica,sans-Serif" font-size="10.00">/TypeChecker.cpp</text>
</a>
</g>
</g>
<!-- Node21&#45;&gt;Node22 -->
<g id="edge26_Node000021_Node000022" class="edge">
<title>Node21&#45;&gt;Node22</title>
<g id="a_edge26_Node000021_Node000022"><a xlink:title=" ">
<path fill="none" stroke="#63b8ff" d="M1781.7,-156.79C1813.4,-145.06 1851.04,-131.14 1881.24,-119.97"/>
<polygon fill="#63b8ff" stroke="#63b8ff" points="1780.78,-153.4 1772.62,-160.15 1783.21,-159.96 1780.78,-153.4"/>
</a>
</g>
</g>
<!-- Node23&#45;&gt;Node4 -->
<g id="edge32_Node000023_Node000004" class="edge">
<title>Node23&#45;&gt;Node4</title>
<g id="a_edge32_Node000023_Node000004"><a xlink:title=" ">
<path fill="none" stroke="#63b8ff" d="M402,-311.05C395.59,-279.16 385.8,-230.47 380.32,-203.24"/>
<polygon fill="#63b8ff" stroke="#63b8ff" points="398.5,-311.37 403.9,-320.49 405.36,-309.99 398.5,-311.37"/>
</a>
</g>
</g>
<!-- Node23&#45;&gt;Node24 -->
<g id="edge29_Node000023_Node000024" class="edge">
<title>Node23&#45;&gt;Node24</title>
<g id="a_edge29_Node000023_Node000024"><a xlink:title=" ">
<path fill="none" stroke="#63b8ff" d="M358.65,-316.57C339.79,-306.85 318.56,-295.91 300.75,-286.73"/>
<polygon fill="#63b8ff" stroke="#63b8ff" points="357.02,-319.66 367.51,-321.13 360.23,-313.44 357.02,-319.66"/>
</a>
</g>
</g>
<!-- Node24&#45;&gt;Node4 -->
<g id="edge30_Node000024_Node000004" class="edge">
<title>Node24&#45;&gt;Node4</title>
<g id="a_edge30_Node000024_Node000004"><a xlink:title=" ">
<path fill="none" stroke="#63b8ff" d="M298.96,-237.69C314.75,-226.52 332.81,-213.74 347.49,-203.35"/>
<polygon fill="#63b8ff" stroke="#63b8ff" points="297.35,-234.54 291.21,-243.18 301.39,-240.26 297.35,-234.54"/>
</a>
</g>
</g>
<!-- Node24&#45;&gt;Node11 -->
<g id="edge31_Node000024_Node000011" class="edge">
<title>Node24&#45;&gt;Node11</title>
<g id="a_edge31_Node000024_Node000011"><a xlink:title=" ">
<path fill="none" stroke="#63b8ff" d="M255.21,-233.26C248.75,-200.04 238.72,-148.37 233.21,-119.99"/>
<polygon fill="#63b8ff" stroke="#63b8ff" points="251.7,-233.54 257.04,-242.69 258.57,-232.2 251.7,-233.54"/>
</a>
</g>
</g>
<!-- Node25&#45;&gt;Node13 -->
<g id="edge37_Node000025_Node000013" class="edge">
<title>Node25&#45;&gt;Node13</title>
<g id="a_edge37_Node000025_Node000013"><a xlink:title=" ">
<path fill="none" stroke="#63b8ff" d="M191.44,-392.47C181.92,-384.16 172.38,-374.45 165.25,-364 136.72,-322.21 92.03,-174.47 76.12,-120"/>
<polygon fill="#63b8ff" stroke="#63b8ff" points="189.03,-395.01 198.96,-398.71 193.5,-389.63 189.03,-395.01"/>
</a>
</g>
</g>
<!-- Node25&#45;&gt;Node23 -->
<g id="edge35_Node000025_Node000023" class="edge">
<title>Node25&#45;&gt;Node23</title>
<g id="a_edge35_Node000025_Node000023"><a xlink:title=" ">
<path fill="none" stroke="#63b8ff" d="M287.73,-395.13C311.18,-385.2 337.86,-373.91 360.15,-364.48"/>
<polygon fill="#63b8ff" stroke="#63b8ff" points="286.46,-391.86 278.61,-398.99 289.19,-398.31 286.46,-391.86"/>
</a>
</g>
</g>
<!-- Node26 -->
<g id="Node000026" class="node">
<title>Node26</title>
<g id="a_Node000026"><a xlink:href="../../d5/d04/Scope_8cpp.html" target="_top" xlink:title=" ">
<polygon fill="white" stroke="#666666" points="314.5,-364 174,-364 174,-322.25 314.5,-322.25 314.5,-364"/>
<text text-anchor="start" x="182" y="-350.5" font-family="Helvetica,sans-Serif" font-size="10.00">/Users/fola/Documents</text>
<text text-anchor="start" x="182" y="-339.25" font-family="Helvetica,sans-Serif" font-size="10.00">/ArkScript/Ark/src/arkreactor</text>
<text text-anchor="middle" x="244.25" y="-328" font-family="Helvetica,sans-Serif" font-size="10.00">/VM/Scope.cpp</text>
</a>
</g>
</g>
<!-- Node25&#45;&gt;Node26 -->
<g id="edge36_Node000025_Node000026" class="edge">
<title>Node25&#45;&gt;Node26</title>
<g id="a_edge36_Node000025_Node000026"><a xlink:title=" ">
<path fill="none" stroke="#63b8ff" d="M235.46,-388.53C237.07,-380.41 238.76,-371.87 240.22,-364.48"/>
<polygon fill="#63b8ff" stroke="#63b8ff" points="232.07,-387.6 233.56,-398.09 238.94,-388.96 232.07,-387.6"/>
</a>
</g>
</g>
<!-- Node27&#45;&gt;Node4 -->
<g id="edge39_Node000027_Node000004" class="edge">
<title>Node27&#45;&gt;Node4</title>
<g id="a_edge39_Node000027_Node000004"><a xlink:title=" ">
<path fill="none" stroke="#63b8ff" d="M532.91,-240.17C500.77,-228.44 462.62,-214.52 432.01,-203.35"/>
<polygon fill="#63b8ff" stroke="#63b8ff" points="531.54,-243.39 542.13,-243.53 533.94,-236.82 531.54,-243.39"/>
</a>
</g>
</g>
<!-- Node27&#45;&gt;Node8 -->
<g id="edge40_Node000027_Node000008" class="edge">
<title>Node27&#45;&gt;Node8</title>
<g id="a_edge40_Node000027_Node000008"><a xlink:title=" ">
<path fill="none" stroke="#63b8ff" d="M537.24,-239.28C520.14,-230.85 502.2,-220.49 487.25,-208.5 463.59,-189.52 465.63,-177.02 444.25,-155.5 431.65,-142.82 416.36,-130.06 403.48,-119.94"/>
<polygon fill="#63b8ff" stroke="#63b8ff" points="535.28,-242.22 545.81,-243.37 538.29,-235.91 535.28,-242.22"/>
</a>
</g>
</g>
<!-- Node27&#45;&gt;Node20 -->
<g id="edge41_Node000027_Node000020" class="edge">
<title>Node27&#45;&gt;Node20</title>
<g id="a_edge41_Node000027_Node000020"><a xlink:title=" ">
<path fill="none" stroke="#63b8ff" d="M599.25,-233.02C599.25,-222.99 599.25,-212.17 599.25,-203.17"/>
<polygon fill="#63b8ff" stroke="#63b8ff" points="595.75,-232.75 599.25,-242.75 602.75,-232.75 595.75,-232.75"/>
</a>
</g>
</g>
</g>
</svg>

<g id="navigator" transform="translate(0 0)" fill="#404254">
  <rect fill="#f2f5e9" fill-opacity="0.5" stroke="#606060" stroke-width=".5" x="0" y="0" width="60" height="60"/>
  <use id="zoomplus" xlink:href="#zoomPlus" x="17" y="9" onmousedown="handleZoom(evt,'in')"/>
  <use id="zoomminus" xlink:href="#zoomMin" x="42" y="9" onmousedown="handleZoom(evt,'out')"/>
  <use id="reset" xlink:href="#resetDef" x="30" y="36" onmousedown="handleReset()"/>
   <use id="arrowup" xlink:href="#arrowUp" x="0" y="0" onmousedown="handlePan(0,-1)"/>
  <use id="arrowright" xlink:href="#arrowRight" x="0" y="0" onmousedown="handlePan(1,0)"/>
  <use id="arrowdown" xlink:href="#arrowDown" x="0" y="0" onmousedown="handlePan(0,1)"/>
  <use id="arrowleft" xlink:href="#arrowLeft" x="0" y="0" onmousedown="handlePan(-1,0)"/>
</g>
<svg viewBox="0 0 15 15" width="100%" height="30px" preserveAspectRatio="xMaxYMin meet">
 <g id="arrow_out" transform="scale(0.3 0.3)">
  <a xlink:href="Closure_8hpp__dep__incl_org.svg" target="_base">
   <rect id="button" ry="5" rx="5" y="6" x="6" height="38" width="38"
        fill="#f2f5e9" fill-opacity="0.5" stroke="#606060" stroke-width="1.0"/>
   <path id="arrow"
     d="M 11.500037,31.436501 C 11.940474,20.09759 22.043105,11.32322 32.158766,21.979434 L 37.068811,17.246167 C 37.068811,17.246167 37.088388,32 37.088388,32 L 22.160133,31.978069 C 22.160133,31.978069 26.997745,27.140456 26.997745,27.140456 C 18.528582,18.264221 13.291696,25.230495 11.500037,31.436501 z"
     style="fill:#404040;"/>
  </a>
 </g>
</svg>

<style type='text/css'>
<![CDATA[
[data-mouse-over-selected='false'] { opacity: 0.7; }
[data-mouse-over-selected='true']  { opacity: 1.0; }
]]>
</style>
<script type="application/ecmascript"><![CDATA[
document.addEventListener('DOMContentLoaded', (event) => {
  highlightEdges();
  highlightAdjacentNodes();
});
]]></script>
</svg>
