<?xml version="1.0" encoding="UTF-8" standalone="no"?>
<!DOCTYPE svg PUBLIC "-//W3C//DTD SVG 1.1//EN"
 "http://www.w3.org/Graphics/SVG/1.1/DTD/svg11.dtd">
<!-- Generated by graphviz version 2.49.0 (20210828.1703)
 -->
<!-- Title: Ark::UserType::ControlFuncs Pages: 1 -->
<svg width="151pt" height="277pt"
 viewBox="0.00 0.00 151.00 277.00" xmlns="http://www.w3.org/2000/svg" xmlns:xlink="http://www.w3.org/1999/xlink">
<g id="graph0" class="graph" transform="scale(1 1) rotate(0) translate(4 273)">
<title>Ark::UserType::ControlFuncs</title>
<polygon fill="white" stroke="transparent" points="-4,4 -4,-273 147,-273 147,4 -4,4"/>
<!-- Node1 -->
<g id="node1" class="node">
<title>Node1</title>
<g id="a_node1"><a xlink:title="A structure holding a bunch of pointers to different useful functions related to this usertype.">
<polygon fill="#bfbfbf" stroke="black" points="0,-0.5 0,-19.5 143,-19.5 143,-0.5 0,-0.5"/>
<text text-anchor="middle" x="71.5" y="-7.5" font-family="Helvetica,sans-Serif" font-size="10.00">Ark::UserType::ControlFuncs</text>
</a>
</g>
</g>
<!-- Node2 -->
<g id="node2" class="node">
<title>Node2</title>
<g id="a_node2"><a xlink:title=" ">
<polygon fill="white" stroke="#bfbfbf" points="36,-67.5 36,-86.5 107,-86.5 107,-67.5 36,-67.5"/>
<text text-anchor="middle" x="71.5" y="-74.5" font-family="Helvetica,sans-Serif" font-size="10.00">std::ostream</text>
</a>
</g>
</g>
<!-- Node2&#45;&gt;Node1 -->
<g id="edge1" class="edge">
<title>Node2&#45;&gt;Node1</title>
<path fill="none" stroke="#9a32cd" stroke-dasharray="5,2" d="M71.5,-57.04C71.5,-44.67 71.5,-29.12 71.5,-19.63"/>
<polygon fill="#9a32cd" stroke="#9a32cd" points="68,-57.23 71.5,-67.23 75,-57.23 68,-57.23"/>
<text text-anchor="middle" x="102.5" y="-41" font-family="Helvetica,sans-Serif" font-size="10.00"> ostream_func</text>
</g>
<!-- Node3 -->
<g id="node3" class="node">
<title>Node3</title>
<g id="a_node3"><a xlink:title=" ">
<polygon fill="white" stroke="#bfbfbf" points="21.5,-124.5 21.5,-154.5 121.5,-154.5 121.5,-124.5 21.5,-124.5"/>
<text text-anchor="start" x="29.5" y="-142.5" font-family="Helvetica,sans-Serif" font-size="10.00">std::basic_ostream</text>
<text text-anchor="middle" x="71.5" y="-131.5" font-family="Helvetica,sans-Serif" font-size="10.00">&lt; Char &gt;</text>
</a>
</g>
</g>
<!-- Node3&#45;&gt;Node2 -->
<g id="edge2" class="edge">
<title>Node3&#45;&gt;Node2</title>
<path fill="none" stroke="midnightblue" d="M71.5,-114.35C71.5,-104.51 71.5,-93.78 71.5,-86.54"/>
<polygon fill="midnightblue" stroke="midnightblue" points="68,-114.47 71.5,-124.47 75,-114.47 68,-114.47"/>
</g>
<!-- Node4 -->
<g id="node4" class="node">
<title>Node4</title>
<g id="a_node4"><a xlink:title=" ">
<polygon fill="white" stroke="#bfbfbf" points="13.5,-192.5 13.5,-211.5 129.5,-211.5 129.5,-192.5 13.5,-192.5"/>
<text text-anchor="middle" x="71.5" y="-199.5" font-family="Helvetica,sans-Serif" font-size="10.00">std::basic_ios&lt; Char &gt;</text>
</a>
</g>
</g>
<!-- Node4&#45;&gt;Node3 -->
<g id="edge3" class="edge">
<title>Node4&#45;&gt;Node3</title>
<path fill="none" stroke="midnightblue" d="M71.5,-182.22C71.5,-173.36 71.5,-162.96 71.5,-154.76"/>
<polygon fill="midnightblue" stroke="midnightblue" points="68,-182.33 71.5,-192.33 75,-182.33 68,-182.33"/>
</g>
<!-- Node5 -->
<g id="node5" class="node">
<title>Node5</title>
<g id="a_node5"><a xlink:title=" ">
<polygon fill="white" stroke="#bfbfbf" points="34,-249.5 34,-268.5 109,-268.5 109,-249.5 34,-249.5"/>
<text text-anchor="middle" x="71.5" y="-256.5" font-family="Helvetica,sans-Serif" font-size="10.00">std::ios_base</text>
</a>
</g>
</g>
<!-- Node5&#45;&gt;Node4 -->
<g id="edge4" class="edge">
<title>Node5&#45;&gt;Node4</title>
<path fill="none" stroke="midnightblue" d="M71.5,-239.12C71.5,-229.82 71.5,-219.06 71.5,-211.71"/>
<polygon fill="midnightblue" stroke="midnightblue" points="68,-239.41 71.5,-249.41 75,-239.41 68,-239.41"/>
</g>
</g>
</svg>
