<?xml version="1.0" encoding="UTF-8" standalone="no"?>
<!DOCTYPE svg PUBLIC "-//W3C//DTD SVG 1.1//EN"
 "http://www.w3.org/Graphics/SVG/1.1/DTD/svg11.dtd">
<!-- Generated by graphviz version 12.2.0 (20241103.1931)
 -->
<!-- Title: /Users/fola/Documents/ArkScript/Ark/src/arkreactor/Compiler/NameResolution/StaticScope.cpp Pages: 1 -->
<svg width="411pt" height="172pt"
 viewBox="0.00 0.00 410.62 171.50" xmlns="http://www.w3.org/2000/svg" xmlns:xlink="http://www.w3.org/1999/xlink">
<g id="graph0" class="graph" transform="scale(1 1) rotate(0) translate(4 167.5)">
<title>/Users/fola/Documents/ArkScript/Ark/src/arkreactor/Compiler/NameResolution/StaticScope.cpp</title>
<!-- Node1 -->
<g id="Node000001" class="node">
<title>Node1</title>
<g id="a_Node000001"><a xlink:title=" ">
<polygon fill="#999999" stroke="#666666" points="400.38,-163.5 191.62,-163.5 191.62,-121.75 400.38,-121.75 400.38,-163.5"/>
<text text-anchor="start" x="199.62" y="-150" font-family="Helvetica,sans-Serif" font-size="10.00">/Users/fola/Documents</text>
<text text-anchor="start" x="199.62" y="-138.75" font-family="Helvetica,sans-Serif" font-size="10.00">/ArkScript/Ark/src/arkreactor</text>
<text text-anchor="middle" x="296" y="-127.5" font-family="Helvetica,sans-Serif" font-size="10.00">/Compiler/NameResolution/StaticScope.cpp</text>
</a>
</g>
</g>
<!-- Node2 -->
<g id="Node000002" class="node">
<title>Node2</title>
<g id="a_Node000002"><a xlink:href="../../df/db8/StaticScope_8hpp.html" target="_top" xlink:title=" ">
<polygon fill="white" stroke="#666666" points="258.38,-85.75 109.62,-85.75 109.62,-55.25 258.38,-55.25 258.38,-85.75"/>
<text text-anchor="start" x="117.62" y="-72.25" font-family="Helvetica,sans-Serif" font-size="10.00">Ark/Compiler/NameResolution</text>
<text text-anchor="middle" x="184" y="-61" font-family="Helvetica,sans-Serif" font-size="10.00">/StaticScope.hpp</text>
</a>
</g>
</g>
<!-- Node1&#45;&gt;Node2 -->
<g id="edge1_Node000001_Node000002" class="edge">
<title>Node1&#45;&gt;Node2</title>
<g id="a_edge1_Node000001_Node000002"><a xlink:title=" ">
<path fill="none" stroke="#63b8ff" d="M263.6,-121.34C249.01,-112.21 231.8,-101.43 217.12,-92.24"/>
<polygon fill="#63b8ff" stroke="#63b8ff" points="219.05,-89.31 208.71,-86.97 215.33,-95.25 219.05,-89.31"/>
</a>
</g>
</g>
<!-- Node9 -->
<g id="Node000009" class="node">
<title>Node9</title>
<g id="a_Node000009"><a xlink:title=" ">
<polygon fill="#e0e0e0" stroke="#999999" points="315.62,-80.12 276.38,-80.12 276.38,-60.88 315.62,-60.88 315.62,-80.12"/>
<text text-anchor="middle" x="296" y="-66.62" font-family="Helvetica,sans-Serif" font-size="10.00">utility</text>
</a>
</g>
</g>
<!-- Node1&#45;&gt;Node9 -->
<g id="edge8_Node000001_Node000009" class="edge">
<title>Node1&#45;&gt;Node9</title>
<g id="a_edge8_Node000001_Node000009"><a xlink:title=" ">
<path fill="none" stroke="#63b8ff" d="M296,-121.34C296,-112 296,-100.94 296,-91.62"/>
<polygon fill="#63b8ff" stroke="#63b8ff" points="299.5,-91.82 296,-81.82 292.5,-91.82 299.5,-91.82"/>
</a>
</g>
</g>
<!-- Node10 -->
<g id="Node000010" class="node">
<title>Node10</title>
<g id="a_Node000010"><a xlink:title=" ">
<polygon fill="#e0e0e0" stroke="#999999" points="402.62,-80.12 333.38,-80.12 333.38,-60.88 402.62,-60.88 402.62,-80.12"/>
<text text-anchor="middle" x="368" y="-66.62" font-family="Helvetica,sans-Serif" font-size="10.00">fmt/format.h</text>
</a>
</g>
</g>
<!-- Node1&#45;&gt;Node10 -->
<g id="edge9_Node000001_Node000010" class="edge">
<title>Node1&#45;&gt;Node10</title>
<g id="a_edge9_Node000001_Node000010"><a xlink:title=" ">
<path fill="none" stroke="#63b8ff" d="M316.83,-121.34C327.62,-110.83 340.64,-98.15 350.85,-88.21"/>
<polygon fill="#63b8ff" stroke="#63b8ff" points="353.16,-90.84 357.88,-81.36 348.27,-85.83 353.16,-90.84"/>
</a>
</g>
</g>
<!-- Node3 -->
<g id="Node000003" class="node">
<title>Node3</title>
<g id="a_Node000003"><a xlink:title=" ">
<polygon fill="#e0e0e0" stroke="#999999" points="40,-19.25 0,-19.25 0,0 40,0 40,-19.25"/>
<text text-anchor="middle" x="20" y="-5.75" font-family="Helvetica,sans-Serif" font-size="10.00">string</text>
</a>
</g>
</g>
<!-- Node2&#45;&gt;Node3 -->
<g id="edge2_Node000002_Node000003" class="edge">
<title>Node2&#45;&gt;Node3</title>
<g id="a_edge2_Node000002_Node000003"><a xlink:title=" ">
<path fill="none" stroke="#63b8ff" d="M143.04,-54.8C114.44,-44.53 76.88,-31.04 50.81,-21.69"/>
<polygon fill="#63b8ff" stroke="#63b8ff" points="52.08,-18.42 41.49,-18.34 49.72,-25.01 52.08,-18.42"/>
</a>
</g>
</g>
<!-- Node4 -->
<g id="Node000004" class="node">
<title>Node4</title>
<g id="a_Node000004"><a xlink:title=" ">
<polygon fill="#e0e0e0" stroke="#999999" points="107.88,-19.25 58.12,-19.25 58.12,0 107.88,0 107.88,-19.25"/>
<text text-anchor="middle" x="83" y="-5.75" font-family="Helvetica,sans-Serif" font-size="10.00">optional</text>
</a>
</g>
</g>
<!-- Node2&#45;&gt;Node4 -->
<g id="edge3_Node000002_Node000004" class="edge">
<title>Node2&#45;&gt;Node4</title>
<g id="a_edge3_Node000002_Node000004"><a xlink:title=" ">
<path fill="none" stroke="#63b8ff" d="M158.77,-54.8C143.39,-45.83 123.8,-34.41 108.39,-25.42"/>
<polygon fill="#63b8ff" stroke="#63b8ff" points="110.2,-22.43 99.8,-20.42 106.67,-28.48 110.2,-22.43"/>
</a>
</g>
</g>
<!-- Node5 -->
<g id="Node000005" class="node">
<title>Node5</title>
<g id="a_Node000005"><a xlink:title=" ">
<polygon fill="#e0e0e0" stroke="#999999" points="177.62,-19.25 126.38,-19.25 126.38,0 177.62,0 177.62,-19.25"/>
<text text-anchor="middle" x="152" y="-5.75" font-family="Helvetica,sans-Serif" font-size="10.00">memory</text>
</a>
</g>
</g>
<!-- Node2&#45;&gt;Node5 -->
<g id="edge4_Node000002_Node000005" class="edge">
<title>Node2&#45;&gt;Node5</title>
<g id="a_edge4_Node000002_Node000005"><a xlink:title=" ">
<path fill="none" stroke="#63b8ff" d="M176.09,-54.95C171.97,-47.36 166.87,-37.99 162.43,-29.82"/>
<polygon fill="#63b8ff" stroke="#63b8ff" points="165.51,-28.15 157.66,-21.03 159.36,-31.49 165.51,-28.15"/>
</a>
</g>
</g>
<!-- Node6 -->
<g id="Node000006" class="node">
<title>Node6</title>
<g id="a_Node000006"><a xlink:title=" ">
<polygon fill="#e0e0e0" stroke="#999999" points="238.5,-19.25 195.5,-19.25 195.5,0 238.5,0 238.5,-19.25"/>
<text text-anchor="middle" x="217" y="-5.75" font-family="Helvetica,sans-Serif" font-size="10.00">vector</text>
</a>
</g>
</g>
<!-- Node2&#45;&gt;Node6 -->
<g id="edge5_Node000002_Node000006" class="edge">
<title>Node2&#45;&gt;Node6</title>
<g id="a_edge5_Node000002_Node000006"><a xlink:title=" ">
<path fill="none" stroke="#63b8ff" d="M192.16,-54.95C196.46,-47.28 201.78,-37.77 206.4,-29.54"/>
<polygon fill="#63b8ff" stroke="#63b8ff" points="209.34,-31.46 211.17,-21.02 203.23,-28.03 209.34,-31.46"/>
</a>
</g>
</g>
<!-- Node7 -->
<g id="Node000007" class="node">
<title>Node7</title>
<g id="a_Node000007"><a xlink:title=" ">
<polygon fill="#e0e0e0" stroke="#999999" points="301.62,-19.25 256.38,-19.25 256.38,0 301.62,0 301.62,-19.25"/>
<text text-anchor="middle" x="279" y="-5.75" font-family="Helvetica,sans-Serif" font-size="10.00">ranges</text>
</a>
</g>
</g>
<!-- Node2&#45;&gt;Node7 -->
<g id="edge6_Node000002_Node000007" class="edge">
<title>Node2&#45;&gt;Node7</title>
<g id="a_edge6_Node000002_Node000007"><a xlink:title=" ">
<path fill="none" stroke="#63b8ff" d="M207.48,-54.95C221.81,-46.07 240.09,-34.74 254.58,-25.76"/>
<polygon fill="#63b8ff" stroke="#63b8ff" points="256.41,-28.74 263.07,-20.5 252.72,-22.79 256.41,-28.74"/>
</a>
</g>
</g>
<!-- Node8 -->
<g id="Node000008" class="node">
<title>Node8</title>
<g id="a_Node000008"><a xlink:title=" ">
<polygon fill="#e0e0e0" stroke="#999999" points="396.75,-19.25 319.25,-19.25 319.25,0 396.75,0 396.75,-19.25"/>
<text text-anchor="middle" x="358" y="-5.75" font-family="Helvetica,sans-Serif" font-size="10.00">unordered_set</text>
</a>
</g>
</g>
<!-- Node2&#45;&gt;Node8 -->
<g id="edge7_Node000002_Node000008" class="edge">
<title>Node2&#45;&gt;Node8</title>
<g id="a_edge7_Node000002_Node000008"><a xlink:title=" ">
<path fill="none" stroke="#63b8ff" d="M227.46,-54.8C256.03,-45.13 293.05,-32.6 320.37,-23.36"/>
<polygon fill="#63b8ff" stroke="#63b8ff" points="321.27,-26.75 329.63,-20.23 319.03,-20.12 321.27,-26.75"/>
</a>
</g>
</g>
</g>
</svg>
