<?xml version="1.0" encoding="UTF-8" standalone="no"?>
<!DOCTYPE svg PUBLIC "-//W3C//DTD SVG 1.1//EN"
 "http://www.w3.org/Graphics/SVG/1.1/DTD/svg11.dtd">
<!-- Generated by graphviz version 2.49.0 (20210828.1703)
 -->
<!-- Title: C:/Users/folae/Documents/Code/Big&#45;Projects/ArkScript/Ark/src/arkreactor/Compiler/Macros/Executors/Conditional.cpp Pages: 1 -->
<svg width="461pt" height="363pt"
 viewBox="0.00 0.00 460.50 363.00" xmlns="http://www.w3.org/2000/svg" xmlns:xlink="http://www.w3.org/1999/xlink">
<g id="graph0" class="graph" transform="scale(1 1) rotate(0) translate(4 359)">
<title>C:/Users/folae/Documents/Code/Big&#45;Projects/ArkScript/Ark/src/arkreactor/Compiler/Macros/Executors/Conditional.cpp</title>
<polygon fill="white" stroke="transparent" points="-4,4 -4,-359 456.5,-359 456.5,4 -4,4"/>
<!-- Node1 -->
<g id="node1" class="node">
<title>Node1</title>
<g id="a_node1"><a xlink:title=" ">
<polygon fill="#bfbfbf" stroke="black" points="45,-302.5 45,-354.5 214,-354.5 214,-302.5 45,-302.5"/>
<text text-anchor="start" x="53" y="-342.5" font-family="Helvetica,sans-Serif" font-size="10.00">C:/Users/folae/Documents</text>
<text text-anchor="start" x="53" y="-331.5" font-family="Helvetica,sans-Serif" font-size="10.00">/Code/Big&#45;Projects/ArkScript</text>
<text text-anchor="start" x="53" y="-320.5" font-family="Helvetica,sans-Serif" font-size="10.00">/Ark/src/arkreactor/Compiler</text>
<text text-anchor="middle" x="129.5" y="-309.5" font-family="Helvetica,sans-Serif" font-size="10.00">/Macros/Executors/Conditional.cpp</text>
</a>
</g>
</g>
<!-- Node2 -->
<g id="node2" class="node">
<title>Node2</title>
<g id="a_node2"><a xlink:href="../../da/dc2/Conditional_8hpp.html" target="_top" xlink:title="Executor for Conditional Macros.">
<polygon fill="white" stroke="black" points="62.5,-235.5 62.5,-265.5 196.5,-265.5 196.5,-235.5 62.5,-235.5"/>
<text text-anchor="start" x="70.5" y="-253.5" font-family="Helvetica,sans-Serif" font-size="10.00">Ark/Compiler/Macros</text>
<text text-anchor="middle" x="129.5" y="-242.5" font-family="Helvetica,sans-Serif" font-size="10.00">/Executors/Conditional.hpp</text>
</a>
</g>
</g>
<!-- Node1&#45;&gt;Node2 -->
<g id="edge1" class="edge">
<title>Node1&#45;&gt;Node2</title>
<path fill="none" stroke="midnightblue" d="M129.5,-302.19C129.5,-293.79 129.5,-284.44 129.5,-276.09"/>
<polygon fill="midnightblue" stroke="midnightblue" points="133,-275.85 129.5,-265.85 126,-275.85 133,-275.85"/>
</g>
<!-- Node3 -->
<g id="node3" class="node">
<title>Node3</title>
<g id="a_node3"><a xlink:href="../../d4/d1a/Executor_8hpp.html" target="_top" xlink:title="The base class for all MacroExecutors.">
<polygon fill="white" stroke="black" points="34.5,-168.5 34.5,-198.5 142.5,-198.5 142.5,-168.5 34.5,-168.5"/>
<text text-anchor="start" x="42.5" y="-186.5" font-family="Helvetica,sans-Serif" font-size="10.00">Ark/Compiler/Macros</text>
<text text-anchor="middle" x="88.5" y="-175.5" font-family="Helvetica,sans-Serif" font-size="10.00">/Executor.hpp</text>
</a>
</g>
</g>
<!-- Node2&#45;&gt;Node3 -->
<g id="edge2" class="edge">
<title>Node2&#45;&gt;Node3</title>
<path fill="none" stroke="midnightblue" d="M120.6,-235.4C115.39,-227.13 108.69,-216.51 102.76,-207.1"/>
<polygon fill="midnightblue" stroke="midnightblue" points="105.67,-205.17 97.38,-198.58 99.75,-208.9 105.67,-205.17"/>
</g>
<!-- Node5 -->
<g id="node5" class="node">
<title>Node5</title>
<g id="a_node5"><a xlink:href="../../d7/dc6/Node_8hpp.html" target="_top" xlink:title="AST node used by the parser, optimizer and compiler.">
<polygon fill="white" stroke="black" points="101,-112.5 101,-131.5 240,-131.5 240,-112.5 101,-112.5"/>
<text text-anchor="middle" x="170.5" y="-119.5" font-family="Helvetica,sans-Serif" font-size="10.00">Ark/Compiler/AST/Node.hpp</text>
</a>
</g>
</g>
<!-- Node2&#45;&gt;Node5 -->
<g id="edge14" class="edge">
<title>Node2&#45;&gt;Node5</title>
<path fill="none" stroke="midnightblue" d="M136.5,-235.17C141.19,-225.19 147.25,-211.49 151.5,-199 158.06,-179.73 163.44,-157.01 166.78,-141.47"/>
<polygon fill="midnightblue" stroke="midnightblue" points="170.23,-142.07 168.84,-131.57 163.38,-140.64 170.23,-142.07"/>
</g>
<!-- Node4 -->
<g id="node4" class="node">
<title>Node4</title>
<g id="a_node4"><a xlink:title=" ">
<polygon fill="white" stroke="#bfbfbf" points="0,-112.5 0,-131.5 83,-131.5 83,-112.5 0,-112.5"/>
<text text-anchor="middle" x="41.5" y="-119.5" font-family="Helvetica,sans-Serif" font-size="10.00">unordered_map</text>
</a>
</g>
</g>
<!-- Node3&#45;&gt;Node4 -->
<g id="edge3" class="edge">
<title>Node3&#45;&gt;Node4</title>
<path fill="none" stroke="midnightblue" d="M77.36,-168.4C70.53,-159.75 61.76,-148.64 54.59,-139.58"/>
<polygon fill="midnightblue" stroke="midnightblue" points="57.28,-137.34 48.34,-131.66 51.79,-141.67 57.28,-137.34"/>
</g>
<!-- Node3&#45;&gt;Node5 -->
<g id="edge4" class="edge">
<title>Node3&#45;&gt;Node5</title>
<path fill="none" stroke="midnightblue" d="M107.93,-168.4C120.71,-159.13 137.39,-147.03 150.31,-137.65"/>
<polygon fill="midnightblue" stroke="midnightblue" points="152.53,-140.36 158.57,-131.66 148.42,-134.7 152.53,-140.36"/>
</g>
<!-- Node6 -->
<g id="node6" class="node">
<title>Node6</title>
<g id="a_node6"><a xlink:title=" ">
<polygon fill="white" stroke="#bfbfbf" points="17.5,-56.5 17.5,-75.5 61.5,-75.5 61.5,-56.5 17.5,-56.5"/>
<text text-anchor="middle" x="39.5" y="-63.5" font-family="Helvetica,sans-Serif" font-size="10.00">variant</text>
</a>
</g>
</g>
<!-- Node5&#45;&gt;Node6 -->
<g id="edge5" class="edge">
<title>Node5&#45;&gt;Node6</title>
<path fill="none" stroke="midnightblue" d="M149.74,-112.44C128.18,-103.56 94.24,-89.56 69.71,-79.45"/>
<polygon fill="midnightblue" stroke="midnightblue" points="70.74,-76.09 60.16,-75.52 68.07,-82.56 70.74,-76.09"/>
</g>
<!-- Node7 -->
<g id="node7" class="node">
<title>Node7</title>
<g id="a_node7"><a xlink:title=" ">
<polygon fill="white" stroke="#bfbfbf" points="79.5,-56.5 79.5,-75.5 131.5,-75.5 131.5,-56.5 79.5,-56.5"/>
<text text-anchor="middle" x="105.5" y="-63.5" font-family="Helvetica,sans-Serif" font-size="10.00">ostream</text>
</a>
</g>
</g>
<!-- Node5&#45;&gt;Node7 -->
<g id="edge6" class="edge">
<title>Node5&#45;&gt;Node7</title>
<path fill="none" stroke="midnightblue" d="M160.06,-112.32C150.35,-104.26 135.68,-92.08 124,-82.37"/>
<polygon fill="midnightblue" stroke="midnightblue" points="126.06,-79.53 116.13,-75.83 121.59,-84.92 126.06,-79.53"/>
</g>
<!-- Node8 -->
<g id="node8" class="node">
<title>Node8</title>
<g id="a_node8"><a xlink:title=" ">
<polygon fill="white" stroke="#bfbfbf" points="150,-56.5 150,-75.5 191,-75.5 191,-56.5 150,-56.5"/>
<text text-anchor="middle" x="170.5" y="-63.5" font-family="Helvetica,sans-Serif" font-size="10.00">string</text>
</a>
</g>
</g>
<!-- Node5&#45;&gt;Node8 -->
<g id="edge7" class="edge">
<title>Node5&#45;&gt;Node8</title>
<path fill="none" stroke="midnightblue" d="M170.5,-112.08C170.5,-105.01 170.5,-94.86 170.5,-85.99"/>
<polygon fill="midnightblue" stroke="midnightblue" points="174,-85.75 170.5,-75.75 167,-85.75 174,-85.75"/>
</g>
<!-- Node9 -->
<g id="node9" class="node">
<title>Node9</title>
<g id="a_node9"><a xlink:title=" ">
<polygon fill="white" stroke="#bfbfbf" points="198.5,-0.5 198.5,-19.5 240.5,-19.5 240.5,-0.5 198.5,-0.5"/>
<text text-anchor="middle" x="219.5" y="-7.5" font-family="Helvetica,sans-Serif" font-size="10.00">vector</text>
</a>
</g>
</g>
<!-- Node5&#45;&gt;Node9 -->
<g id="edge8" class="edge">
<title>Node5&#45;&gt;Node9</title>
<path fill="none" stroke="midnightblue" d="M177.03,-112.45C183.47,-103.69 193.23,-89.48 199.5,-76 206.5,-60.95 211.85,-42.82 215.24,-29.53"/>
<polygon fill="midnightblue" stroke="midnightblue" points="218.67,-30.23 217.63,-19.69 211.87,-28.58 218.67,-30.23"/>
</g>
<!-- Node10 -->
<g id="node10" class="node">
<title>Node10</title>
<g id="a_node10"><a xlink:href="../../d8/ddd/Common_8hpp.html" target="_top" xlink:title="Common code for the compiler.">
<polygon fill="white" stroke="black" points="247.5,-56.5 247.5,-75.5 381.5,-75.5 381.5,-56.5 247.5,-56.5"/>
<text text-anchor="middle" x="314.5" y="-63.5" font-family="Helvetica,sans-Serif" font-size="10.00">Ark/Compiler/Common.hpp</text>
</a>
</g>
</g>
<!-- Node5&#45;&gt;Node10 -->
<g id="edge9" class="edge">
<title>Node5&#45;&gt;Node10</title>
<path fill="none" stroke="midnightblue" d="M193.32,-112.44C217.33,-103.44 255.33,-89.19 282.37,-79.05"/>
<polygon fill="midnightblue" stroke="midnightblue" points="283.66,-82.3 291.79,-75.52 281.2,-75.75 283.66,-82.3"/>
</g>
<!-- Node10&#45;&gt;Node9 -->
<g id="edge12" class="edge">
<title>Node10&#45;&gt;Node9</title>
<path fill="none" stroke="midnightblue" d="M299.24,-56.32C284.28,-47.82 261.25,-34.73 243.77,-24.8"/>
<polygon fill="midnightblue" stroke="midnightblue" points="245.15,-21.55 234.73,-19.65 241.69,-27.64 245.15,-21.55"/>
</g>
<!-- Node11 -->
<g id="node11" class="node">
<title>Node11</title>
<g id="a_node11"><a xlink:title=" ">
<polygon fill="white" stroke="#bfbfbf" points="258.5,-0.5 258.5,-19.5 296.5,-19.5 296.5,-0.5 258.5,-0.5"/>
<text text-anchor="middle" x="277.5" y="-7.5" font-family="Helvetica,sans-Serif" font-size="10.00">array</text>
</a>
</g>
</g>
<!-- Node10&#45;&gt;Node11 -->
<g id="edge10" class="edge">
<title>Node10&#45;&gt;Node11</title>
<path fill="none" stroke="midnightblue" d="M308.39,-56.08C303.22,-48.53 295.65,-37.49 289.31,-28.23"/>
<polygon fill="midnightblue" stroke="midnightblue" points="292.04,-26.02 283.5,-19.75 286.26,-29.98 292.04,-26.02"/>
</g>
<!-- Node12 -->
<g id="node12" class="node">
<title>Node12</title>
<g id="a_node12"><a xlink:title=" ">
<polygon fill="white" stroke="#bfbfbf" points="314.5,-0.5 314.5,-19.5 378.5,-19.5 378.5,-0.5 314.5,-0.5"/>
<text text-anchor="middle" x="346.5" y="-7.5" font-family="Helvetica,sans-Serif" font-size="10.00">string_view</text>
</a>
</g>
</g>
<!-- Node10&#45;&gt;Node12 -->
<g id="edge11" class="edge">
<title>Node10&#45;&gt;Node12</title>
<path fill="none" stroke="midnightblue" d="M319.78,-56.08C324.21,-48.61 330.66,-37.72 336.12,-28.52"/>
<polygon fill="midnightblue" stroke="midnightblue" points="339.23,-30.14 341.31,-19.75 333.21,-26.57 339.23,-30.14"/>
</g>
<!-- Node13 -->
<g id="node13" class="node">
<title>Node13</title>
<g id="a_node13"><a xlink:title=" ">
<polygon fill="white" stroke="#bfbfbf" points="396.5,-0.5 396.5,-19.5 452.5,-19.5 452.5,-0.5 396.5,-0.5"/>
<text text-anchor="middle" x="424.5" y="-7.5" font-family="Helvetica,sans-Serif" font-size="10.00">cinttypes</text>
</a>
</g>
</g>
<!-- Node10&#45;&gt;Node13 -->
<g id="edge13" class="edge">
<title>Node10&#45;&gt;Node13</title>
<path fill="none" stroke="midnightblue" d="M332.17,-56.32C349.89,-47.62 377.4,-34.12 397.79,-24.11"/>
<polygon fill="midnightblue" stroke="midnightblue" points="399.44,-27.2 406.87,-19.65 396.35,-20.92 399.44,-27.2"/>
</g>
</g>
</svg>
