<?xml version="1.0" encoding="UTF-8" standalone="no"?>
<!DOCTYPE svg PUBLIC "-//W3C//DTD SVG 1.1//EN"
 "http://www.w3.org/Graphics/SVG/1.1/DTD/svg11.dtd">
<!-- Generated by graphviz version 10.0.1 (20240210.2158)
 -->
<!-- Title: /Users/fola/Documents/ArkScript/Ark/include/Ark/Compiler/Macros/Pipeline.hpp Pages: 1 -->
<!--zoomable 282 -->
<svg id="main" version="1.1" xmlns="http://www.w3.org/2000/svg" xmlns:xlink="http://www.w3.org/1999/xlink" xml:space="preserve" onload="init(evt)">
<style type="text/css"><![CDATA[
.edge:hover path { stroke: red; }
.edge:hover polygon { stroke: red; fill: red; }
]]></style>
<script type="text/javascript"><![CDATA[
var edges = document.getElementsByTagName('g');
if (edges && edges.length) {
  for (var i=0;i<edges.length;i++) {
    if (edges[i].id.substr(0,4)=='edge') {
      edges[i].setAttribute('class','edge');
    }
  }
}
]]></script>
        <defs>
                <circle id="rim" cx="0" cy="0" r="7"/>
                <circle id="rim2" cx="0" cy="0" r="3.5"/>
                <g id="zoomPlus">
                        <use xlink:href="#rim" fill="#404040">
                                <set attributeName="fill" to="#808080" begin="zoomplus.mouseover" end="zoomplus.mouseout"/>
                        </use>
                        <path d="M-4,0h8M0,-4v8" fill="none" stroke="white" stroke-width="1.5" pointer-events="none"/>
                </g>
                <g id="zoomMin">
                        <use xlink:href="#rim" fill="#404040">
                                <set attributeName="fill" to="#808080" begin="zoomminus.mouseover" end="zoomminus.mouseout"/>
                        </use>
                        <path d="M-4,0h8" fill="none" stroke="white" stroke-width="1.5" pointer-events="none"/>
                </g>
                <g id="dirArrow">
                        <path fill="none" stroke="white" stroke-width="1.5" d="M0,-3.0v7 M-2.5,-0.5L0,-3.0L2.5,-0.5"/>
                </g>
               <g id="resetDef">
                       <use xlink:href="#rim2" fill="#404040">
                               <set attributeName="fill" to="#808080" begin="reset.mouseover" end="reset.mouseout"/>
                       </use>
               </g>
        </defs>

<script type="text/javascript">
var viewWidth = 550;
var viewHeight = 282;
var sectionId = 'dynsection-0';
</script>
<script xlink:href="../../svgpan.js"/>
<svg id="graph" class="graph">
<g id="viewport">
<title>/Users/fola/Documents/ArkScript/Ark/include/Ark/Compiler/Macros/Pipeline.hpp</title>
<!-- Node1 -->
<g id="node1" class="node">
<title>Node1</title>
<g id="a_node1"><a xlink:title="The Chain of Responsibility class for running nodes through MacroExecutors.">
<polygon fill="#999999" stroke="#666666" points="167.5,-274 0,-274 0,-232.25 167.5,-232.25 167.5,-274"/>
<text text-anchor="start" x="8" y="-260.5" font-family="Helvetica,sans-Serif" font-size="10.00">/Users/fola/Documents</text>
<text text-anchor="start" x="8" y="-249.25" font-family="Helvetica,sans-Serif" font-size="10.00">/ArkScript/Ark/include</text>
<text text-anchor="middle" x="83.75" y="-238" font-family="Helvetica,sans-Serif" font-size="10.00">/Ark/Compiler/Macros/Pipeline.hpp</text>
</a>
</g>
</g>
<!-- Node2 -->
<g id="node2" class="node">
<title>Node2</title>
<g id="a_node2"><a xlink:title=" ">
<polygon fill="#e0e0e0" stroke="#999999" points="102.25,-19.25 59.25,-19.25 59.25,0 102.25,0 102.25,-19.25"/>
<text text-anchor="middle" x="80.75" y="-5.75" font-family="Helvetica,sans-Serif" font-size="10.00">vector</text>
</a>
</g>
</g>
<!-- Node1&#45;&gt;Node2 -->
<g id="edge1" class="edge">
<title>Node1&#45;&gt;Node2</title>
<path fill="none" stroke="#63b8ff" d="M73.7,-231.98C69.06,-221.59 64.08,-208.54 61.75,-196.25 50.4,-136.44 65.95,-64.41 75.03,-30.34"/>
<polygon fill="#63b8ff" stroke="#63b8ff" points="78.3,-31.62 77.61,-21.05 71.56,-29.75 78.3,-31.62"/>
</g>
<!-- Node3 -->
<g id="node3" class="node">
<title>Node3</title>
<g id="a_node3"><a xlink:href="../../d4/d1a/Executor_8hpp.html" target="_top" xlink:title="The base class for all MacroExecutors.">
<polygon fill="white" stroke="#666666" points="178.88,-196.25 70.62,-196.25 70.62,-165.75 178.88,-165.75 178.88,-196.25"/>
<text text-anchor="start" x="78.62" y="-182.75" font-family="Helvetica,sans-Serif" font-size="10.00">Ark/Compiler/Macros</text>
<text text-anchor="middle" x="124.75" y="-171.5" font-family="Helvetica,sans-Serif" font-size="10.00">/Executor.hpp</text>
</a>
</g>
</g>
<!-- Node1&#45;&gt;Node3 -->
<g id="edge2" class="edge">
<title>Node1&#45;&gt;Node3</title>
<path fill="none" stroke="#63b8ff" d="M95.61,-231.84C100.27,-223.88 105.65,-214.67 110.51,-206.35"/>
<polygon fill="#63b8ff" stroke="#63b8ff" points="113.51,-208.16 115.54,-197.76 107.47,-204.62 113.51,-208.16"/>
</g>
<!-- Node4 -->
<g id="node4" class="node">
<title>Node4</title>
<g id="a_node4"><a xlink:title=" ">
<polygon fill="#e0e0e0" stroke="#999999" points="159.12,-129.75 76.38,-129.75 76.38,-110.5 159.12,-110.5 159.12,-129.75"/>
<text text-anchor="middle" x="117.75" y="-116.25" font-family="Helvetica,sans-Serif" font-size="10.00">unordered_map</text>
</a>
</g>
</g>
<!-- Node3&#45;&gt;Node4 -->
<g id="edge3" class="edge">
<title>Node3&#45;&gt;Node4</title>
<path fill="none" stroke="#63b8ff" d="M123.02,-165.45C122.16,-158.21 121.1,-149.34 120.17,-141.44"/>
<polygon fill="#63b8ff" stroke="#63b8ff" points="123.66,-141.22 119.01,-131.7 116.71,-142.05 123.66,-141.22"/>
</g>
<!-- Node5 -->
<g id="node5" class="node">
<title>Node5</title>
<g id="a_node5"><a xlink:href="../../d7/dc6/Node_8hpp.html" target="_top" xlink:title="AST node used by the parser, optimizer and compiler.">
<polygon fill="white" stroke="#666666" points="318,-129.75 177.5,-129.75 177.5,-110.5 318,-110.5 318,-129.75"/>
<text text-anchor="middle" x="247.75" y="-116.25" font-family="Helvetica,sans-Serif" font-size="10.00">Ark/Compiler/AST/Node.hpp</text>
</a>
</g>
</g>
<!-- Node3&#45;&gt;Node5 -->
<g id="edge4" class="edge">
<title>Node3&#45;&gt;Node5</title>
<path fill="none" stroke="#63b8ff" d="M155.47,-165.3C174.83,-156.03 199.68,-144.13 218.71,-135.02"/>
<polygon fill="#63b8ff" stroke="#63b8ff" points="220.01,-138.28 227.52,-130.81 216.99,-131.97 220.01,-138.28"/>
</g>
<!-- Node5&#45;&gt;Node2 -->
<g id="edge8" class="edge">
<title>Node5&#45;&gt;Node2</title>
<path fill="none" stroke="#63b8ff" d="M177.06,-112.21C149.74,-106.18 120.21,-95.03 99.75,-74.5 88.25,-62.95 83.65,-44.77 81.84,-30.75"/>
<polygon fill="#63b8ff" stroke="#63b8ff" points="85.34,-30.53 80.98,-20.87 78.36,-31.14 85.34,-30.53"/>
</g>
<!-- Node6 -->
<g id="node6" class="node">
<title>Node6</title>
<g id="a_node6"><a xlink:title=" ">
<polygon fill="#e0e0e0" stroke="#999999" points="154.38,-74.5 109.12,-74.5 109.12,-55.25 154.38,-55.25 154.38,-74.5"/>
<text text-anchor="middle" x="131.75" y="-61" font-family="Helvetica,sans-Serif" font-size="10.00">variant</text>
</a>
</g>
</g>
<!-- Node5&#45;&gt;Node6 -->
<g id="edge5" class="edge">
<title>Node5&#45;&gt;Node6</title>
<path fill="none" stroke="#63b8ff" d="M228.07,-110.09C209.91,-101.75 182.67,-89.25 161.78,-79.66"/>
<polygon fill="#63b8ff" stroke="#63b8ff" points="163.45,-76.58 152.9,-75.58 160.53,-82.94 163.45,-76.58"/>
</g>
<!-- Node7 -->
<g id="node7" class="node">
<title>Node7</title>
<g id="a_node7"><a xlink:title=" ">
<polygon fill="#e0e0e0" stroke="#999999" points="223.38,-74.5 172.12,-74.5 172.12,-55.25 223.38,-55.25 223.38,-74.5"/>
<text text-anchor="middle" x="197.75" y="-61" font-family="Helvetica,sans-Serif" font-size="10.00">ostream</text>
</a>
</g>
</g>
<!-- Node5&#45;&gt;Node7 -->
<g id="edge6" class="edge">
<title>Node5&#45;&gt;Node7</title>
<path fill="none" stroke="#63b8ff" d="M239.49,-110.33C232.59,-102.98 222.53,-92.26 214.01,-83.19"/>
<polygon fill="#63b8ff" stroke="#63b8ff" points="216.62,-80.86 207.22,-75.96 211.52,-85.65 216.62,-80.86"/>
</g>
<!-- Node8 -->
<g id="node8" class="node">
<title>Node8</title>
<g id="a_node8"><a xlink:title=" ">
<polygon fill="#e0e0e0" stroke="#999999" points="281.75,-74.5 241.75,-74.5 241.75,-55.25 281.75,-55.25 281.75,-74.5"/>
<text text-anchor="middle" x="261.75" y="-61" font-family="Helvetica,sans-Serif" font-size="10.00">string</text>
</a>
</g>
</g>
<!-- Node5&#45;&gt;Node8 -->
<g id="edge7" class="edge">
<title>Node5&#45;&gt;Node8</title>
<path fill="none" stroke="#63b8ff" d="M250.06,-110.33C251.81,-103.67 254.29,-94.24 256.52,-85.78"/>
<polygon fill="#63b8ff" stroke="#63b8ff" points="259.85,-86.88 259,-76.32 253.08,-85.1 259.85,-86.88"/>
</g>
<!-- Node9 -->
<g id="node9" class="node">
<title>Node9</title>
<g id="a_node9"><a xlink:href="../../d8/ddd/Common_8hpp.html" target="_top" xlink:title="Common code for the compiler.">
<polygon fill="white" stroke="#666666" points="434,-74.5 299.5,-74.5 299.5,-55.25 434,-55.25 434,-74.5"/>
<text text-anchor="middle" x="366.75" y="-61" font-family="Helvetica,sans-Serif" font-size="10.00">Ark/Compiler/Common.hpp</text>
</a>
</g>
</g>
<!-- Node5&#45;&gt;Node9 -->
<g id="edge9" class="edge">
<title>Node5&#45;&gt;Node9</title>
<path fill="none" stroke="#63b8ff" d="M267.94,-110.09C286.66,-101.72 314.77,-89.13 336.23,-79.53"/>
<polygon fill="#63b8ff" stroke="#63b8ff" points="337.38,-82.85 345.08,-75.57 334.53,-76.46 337.38,-82.85"/>
</g>
<!-- Node12 -->
<g id="node12" class="node">
<title>Node12</title>
<g id="a_node12"><a xlink:href="../../d5/d40/Platform_8hpp.html" target="_top" xlink:title="ArkScript configuration macros.">
<polygon fill="white" stroke="#666666" points="541.5,-74.5 452,-74.5 452,-55.25 541.5,-55.25 541.5,-74.5"/>
<text text-anchor="middle" x="496.75" y="-61" font-family="Helvetica,sans-Serif" font-size="10.00">Ark/Platform.hpp</text>
</a>
</g>
</g>
<!-- Node5&#45;&gt;Node12 -->
<g id="edge13" class="edge">
<title>Node5&#45;&gt;Node12</title>
<path fill="none" stroke="#63b8ff" d="M290.27,-110.03C332.53,-100.99 397.47,-87.11 443.21,-77.32"/>
<polygon fill="#63b8ff" stroke="#63b8ff" points="443.88,-80.76 452.92,-75.25 442.41,-73.92 443.88,-80.76"/>
</g>
<!-- Node9&#45;&gt;Node2 -->
<g id="edge12" class="edge">
<title>Node9&#45;&gt;Node2</title>
<path fill="none" stroke="#63b8ff" d="M317.91,-54.78C259.72,-43.95 164.07,-26.14 113.87,-16.79"/>
<polygon fill="#63b8ff" stroke="#63b8ff" points="114.68,-13.38 104.21,-14.99 113.4,-20.26 114.68,-13.38"/>
</g>
<!-- Node10 -->
<g id="node10" class="node">
<title>Node10</title>
<g id="a_node10"><a xlink:title=" ">
<polygon fill="#e0e0e0" stroke="#999999" points="350.62,-19.25 312.88,-19.25 312.88,0 350.62,0 350.62,-19.25"/>
<text text-anchor="middle" x="331.75" y="-5.75" font-family="Helvetica,sans-Serif" font-size="10.00">array</text>
</a>
</g>
</g>
<!-- Node9&#45;&gt;Node10 -->
<g id="edge10" class="edge">
<title>Node9&#45;&gt;Node10</title>
<path fill="none" stroke="#63b8ff" d="M360.97,-55.08C356.34,-48.03 349.68,-37.9 343.88,-29.08"/>
<polygon fill="#63b8ff" stroke="#63b8ff" points="346.9,-27.31 338.49,-20.87 341.05,-31.15 346.9,-27.31"/>
</g>
<!-- Node11 -->
<g id="node11" class="node">
<title>Node11</title>
<g id="a_node11"><a xlink:title=" ">
<polygon fill="#e0e0e0" stroke="#999999" points="434.5,-19.25 369,-19.25 369,0 434.5,0 434.5,-19.25"/>
<text text-anchor="middle" x="401.75" y="-5.75" font-family="Helvetica,sans-Serif" font-size="10.00">string_view</text>
</a>
</g>
</g>
<!-- Node9&#45;&gt;Node11 -->
<g id="edge11" class="edge">
<title>Node9&#45;&gt;Node11</title>
<path fill="none" stroke="#63b8ff" d="M372.53,-55.08C377.16,-48.03 383.82,-37.9 389.62,-29.08"/>
<polygon fill="#63b8ff" stroke="#63b8ff" points="392.45,-31.15 395.01,-20.87 386.6,-27.31 392.45,-31.15"/>
</g>
</g>
</svg>
        <g id="navigator" transform="translate(0 0)" fill="#404254">
                <rect fill="#f2f5e9" fill-opacity="0.5" stroke="#606060" stroke-width=".5" x="0" y="0" width="60" height="60"/>
                <use id="zoomplus" xlink:href="#zoomPlus" x="17" y="9" onmousedown="handleZoom(evt,'in')"/>
                <use id="zoomminus" xlink:href="#zoomMin" x="42" y="9" onmousedown="handleZoom(evt,'out')"/>
                <use id="reset" xlink:href="#resetDef" x="30" y="36" onmousedown="handleReset()"/>
                <g id="arrowUp" xlink:href="#dirArrow" transform="translate(30 24)" onmousedown="handlePan(0,-1)">
                  <use xlink:href="#rim" fill="#404040">
                        <set attributeName="fill" to="#808080" begin="arrowUp.mouseover" end="arrowUp.mouseout"/>
                  </use>
                  <path fill="none" stroke="white" stroke-width="1.5" d="M0,-3.0v7 M-2.5,-0.5L0,-3.0L2.5,-0.5"/>
                </g>
                <g id="arrowRight" xlink:href="#dirArrow" transform="rotate(90) translate(36 -43)" onmousedown="handlePan(1,0)">
                  <use xlink:href="#rim" fill="#404040">
                        <set attributeName="fill" to="#808080" begin="arrowRight.mouseover" end="arrowRight.mouseout"/>
                  </use>
                  <path fill="none" stroke="white" stroke-width="1.5" d="M0,-3.0v7 M-2.5,-0.5L0,-3.0L2.5,-0.5"/>
                </g>
                <g id="arrowDown" xlink:href="#dirArrow" transform="rotate(180) translate(-30 -48)" onmousedown="handlePan(0,1)">
                  <use xlink:href="#rim" fill="#404040">
                        <set attributeName="fill" to="#808080" begin="arrowDown.mouseover" end="arrowDown.mouseout"/>
                  </use>
                  <path fill="none" stroke="white" stroke-width="1.5" d="M0,-3.0v7 M-2.5,-0.5L0,-3.0L2.5,-0.5"/>
                </g>
                <g id="arrowLeft" xlink:href="#dirArrow" transform="rotate(270) translate(-36 17)" onmousedown="handlePan(-1,0)">
                  <use xlink:href="#rim" fill="#404040">
                        <set attributeName="fill" to="#808080" begin="arrowLeft.mouseover" end="arrowLeft.mouseout"/>
                  </use>
                  <path fill="none" stroke="white" stroke-width="1.5" d="M0,-3.0v7 M-2.5,-0.5L0,-3.0L2.5,-0.5"/>
                </g>
        </g>
        <svg viewBox="0 0 15 15" width="100%" height="30px" preserveAspectRatio="xMaxYMin meet">
         <g id="arrow_out" transform="scale(0.3 0.3)">
          <a xlink:href="Pipeline_8hpp__incl_org.svg" target="_base">
           <rect id="button" ry="5" rx="5" y="6" x="6" height="38" width="38"
                fill="#f2f5e9" fill-opacity="0.5" stroke="#606060" stroke-width="1.0"/>
           <path id="arrow"
             d="M 11.500037,31.436501 C 11.940474,20.09759 22.043105,11.32322 32.158766,21.979434 L 37.068811,17.246167 C 37.068811,17.246167 37.088388,32 37.088388,32 L 22.160133,31.978069 C 22.160133,31.978069 26.997745,27.140456 26.997745,27.140456 C 18.528582,18.264221 13.291696,25.230495 11.500037,31.436501 z"
             style="fill:#404040;"/>
          </a>
         </g>
        </svg>
</svg>
