<?xml version="1.0" encoding="UTF-8" standalone="no"?>
<!DOCTYPE svg PUBLIC "-//W3C//DTD SVG 1.1//EN"
 "http://www.w3.org/Graphics/SVG/1.1/DTD/svg11.dtd">
<!-- Generated by graphviz version 2.49.0 (20210828.1703)
 -->
<!-- Title: Ark::Parser Pages: 1 -->
<svg width="466pt" height="254pt"
 viewBox="0.00 0.00 465.65 254.00" xmlns="http://www.w3.org/2000/svg" xmlns:xlink="http://www.w3.org/1999/xlink">
<g id="graph0" class="graph" transform="scale(1 1) rotate(0) translate(4 250)">
<title>Ark::Parser</title>
<polygon fill="white" stroke="transparent" points="-4,4 -4,-250 461.65,-250 461.65,4 -4,4"/>
<!-- Node1 -->
<g id="node1" class="node">
<title>Node1</title>
<g id="a_node1"><a xlink:title="The parser is responsible of constructing the Abstract Syntax Tree from a token list.">
<polygon fill="#bfbfbf" stroke="black" points="161.15,-0.5 161.15,-19.5 227.15,-19.5 227.15,-0.5 161.15,-0.5"/>
<text text-anchor="middle" x="194.15" y="-7.5" font-family="Helvetica,sans-Serif" font-size="10.00">Ark::Parser</text>
</a>
</g>
</g>
<!-- Node2 -->
<g id="node2" class="node">
<title>Node2</title>
<g id="a_node2"><a xlink:title=" ">
<polygon fill="white" stroke="#bfbfbf" points="74.15,-158.5 74.15,-177.5 134.15,-177.5 134.15,-158.5 74.15,-158.5"/>
<text text-anchor="middle" x="104.15" y="-165.5" font-family="Helvetica,sans-Serif" font-size="10.00">std::string</text>
</a>
</g>
</g>
<!-- Node2&#45;&gt;Node1 -->
<g id="edge1" class="edge">
<title>Node2&#45;&gt;Node1</title>
<path fill="none" stroke="#9a32cd" stroke-dasharray="5,2" d="M64.41,-154.66C43.72,-145.99 20.26,-132.09 8.15,-111 -1.59,-94.04 -3.52,-82.7 8.15,-67 26.45,-42.37 112.74,-24.46 161.1,-16.16"/>
<polygon fill="#9a32cd" stroke="#9a32cd" points="63.39,-158.02 73.98,-158.4 65.94,-151.5 63.39,-158.02"/>
<text text-anchor="middle" x="27.15" y="-97.5" font-family="Helvetica,sans-Serif" font-size="10.00"> m_code</text>
<text text-anchor="middle" x="27.15" y="-86.5" font-family="Helvetica,sans-Serif" font-size="10.00">m_file</text>
<text text-anchor="middle" x="27.15" y="-75.5" font-family="Helvetica,sans-Serif" font-size="10.00">m_libdir</text>
</g>
<!-- Node5 -->
<g id="node5" class="node">
<title>Node5</title>
<g id="a_node5"><a xlink:href="../../dc/d9e/classArk_1_1internal_1_1Node.html" target="_top" xlink:title="A node of an Abstract Syntax Tree for ArkScript.">
<polygon fill="white" stroke="black" points="55.15,-79.5 55.15,-98.5 153.15,-98.5 153.15,-79.5 55.15,-79.5"/>
<text text-anchor="middle" x="104.15" y="-86.5" font-family="Helvetica,sans-Serif" font-size="10.00">Ark::internal::Node</text>
</a>
</g>
</g>
<!-- Node2&#45;&gt;Node5 -->
<g id="edge6" class="edge">
<title>Node2&#45;&gt;Node5</title>
<path fill="none" stroke="#9a32cd" stroke-dasharray="5,2" d="M104.15,-148.31C104.15,-132.59 104.15,-110.81 104.15,-98.81"/>
<polygon fill="#9a32cd" stroke="#9a32cd" points="100.65,-148.47 104.15,-158.47 107.65,-148.47 100.65,-148.47"/>
<text text-anchor="middle" x="130.65" y="-132" font-family="Helvetica,sans-Serif" font-size="10.00"> m_filename</text>
</g>
<!-- Node6 -->
<g id="node6" class="node">
<title>Node6</title>
<g id="a_node6"><a xlink:href="../../d0/d98/structArk_1_1internal_1_1Token.html" target="_top" xlink:title=" ">
<polygon fill="white" stroke="black" points="239.65,-79.5 239.65,-98.5 340.65,-98.5 340.65,-79.5 239.65,-79.5"/>
<text text-anchor="middle" x="290.15" y="-86.5" font-family="Helvetica,sans-Serif" font-size="10.00">Ark::internal::Token</text>
</a>
</g>
</g>
<!-- Node2&#45;&gt;Node6 -->
<g id="edge8" class="edge">
<title>Node2&#45;&gt;Node6</title>
<path fill="none" stroke="#9a32cd" stroke-dasharray="5,2" d="M134.27,-154.53C172.26,-138.8 236.56,-112.18 269.44,-98.57"/>
<polygon fill="#9a32cd" stroke="#9a32cd" points="132.66,-151.41 124.76,-158.47 135.34,-157.87 132.66,-151.41"/>
<text text-anchor="middle" x="206.15" y="-132" font-family="Helvetica,sans-Serif" font-size="10.00"> token</text>
</g>
<!-- Node3 -->
<g id="node3" class="node">
<title>Node3</title>
<g id="a_node3"><a xlink:title=" ">
<polygon fill="white" stroke="#bfbfbf" points="56.65,-215.5 56.65,-245.5 151.65,-245.5 151.65,-215.5 56.65,-215.5"/>
<text text-anchor="start" x="64.65" y="-233.5" font-family="Helvetica,sans-Serif" font-size="10.00">std::basic_string&lt;</text>
<text text-anchor="middle" x="104.15" y="-222.5" font-family="Helvetica,sans-Serif" font-size="10.00"> Char &gt;</text>
</a>
</g>
</g>
<!-- Node3&#45;&gt;Node2 -->
<g id="edge2" class="edge">
<title>Node3&#45;&gt;Node2</title>
<path fill="none" stroke="midnightblue" d="M104.15,-205.35C104.15,-195.51 104.15,-184.78 104.15,-177.54"/>
<polygon fill="midnightblue" stroke="midnightblue" points="100.65,-205.47 104.15,-215.47 107.65,-205.47 100.65,-205.47"/>
</g>
<!-- Node4 -->
<g id="node4" class="node">
<title>Node4</title>
<g id="a_node4"><a xlink:href="../../dd/dc4/classArk_1_1internal_1_1Lexer.html" target="_top" xlink:title="The lexer, in charge of creating a list of tokens.">
<polygon fill="white" stroke="black" points="358.65,-79.5 358.65,-98.5 457.65,-98.5 457.65,-79.5 358.65,-79.5"/>
<text text-anchor="middle" x="408.15" y="-86.5" font-family="Helvetica,sans-Serif" font-size="10.00">Ark::internal::Lexer</text>
</a>
</g>
</g>
<!-- Node4&#45;&gt;Node1 -->
<g id="edge3" class="edge">
<title>Node4&#45;&gt;Node1</title>
<path fill="none" stroke="#9a32cd" stroke-dasharray="5,2" d="M384.31,-74.62C363.83,-63.57 333.24,-48.11 305.15,-38 279.58,-28.8 249.59,-21.72 227.23,-17.12"/>
<polygon fill="#9a32cd" stroke="#9a32cd" points="382.78,-77.77 393.23,-79.5 386.14,-71.63 382.78,-77.77"/>
<text text-anchor="middle" x="350.15" y="-41" font-family="Helvetica,sans-Serif" font-size="10.00"> m_lexer</text>
</g>
<!-- Node5&#45;&gt;Node1 -->
<g id="edge4" class="edge">
<title>Node5&#45;&gt;Node1</title>
<path fill="none" stroke="#9a32cd" stroke-dasharray="5,2" d="M121.89,-72.82C140.5,-56.9 169.1,-32.43 184.13,-19.57"/>
<polygon fill="#9a32cd" stroke="#9a32cd" points="119.45,-70.3 114.12,-79.47 124,-75.62 119.45,-70.3"/>
<text text-anchor="middle" x="178.65" y="-41" font-family="Helvetica,sans-Serif" font-size="10.00"> m_ast</text>
</g>
<!-- Node5&#45;&gt;Node5 -->
<g id="edge5" class="edge">
<title>Node5&#45;&gt;Node5</title>
<path fill="none" stroke="#9a32cd" stroke-dasharray="5,2" d="M163.11,-95.39C168.06,-94.02 171.15,-91.89 171.15,-89 171.15,-84.49 163.63,-81.83 153.23,-81.02"/>
<polygon fill="#9a32cd" stroke="#9a32cd" points="162.54,-91.94 153.23,-96.98 163.66,-98.85 162.54,-91.94"/>
<text text-anchor="middle" x="196.15" y="-103" font-family="Helvetica,sans-Serif" font-size="10.00"> FalseNode</text>
<text text-anchor="middle" x="196.15" y="-92" font-family="Helvetica,sans-Serif" font-size="10.00">ListNode</text>
<text text-anchor="middle" x="196.15" y="-81" font-family="Helvetica,sans-Serif" font-size="10.00">NilNode</text>
<text text-anchor="middle" x="196.15" y="-70" font-family="Helvetica,sans-Serif" font-size="10.00">TrueNode</text>
</g>
<!-- Node6&#45;&gt;Node1 -->
<g id="edge7" class="edge">
<title>Node6&#45;&gt;Node1</title>
<path fill="none" stroke="#9a32cd" stroke-dasharray="5,2" d="M271.49,-73.04C251.65,-57.12 220.94,-32.49 204.84,-19.57"/>
<polygon fill="#9a32cd" stroke="#9a32cd" points="269.52,-75.94 279.51,-79.47 273.9,-70.48 269.52,-75.94"/>
<text text-anchor="middle" x="270.15" y="-41" font-family="Helvetica,sans-Serif" font-size="10.00"> m_last_token</text>
</g>
</g>
</svg>
