<?xml version="1.0" encoding="UTF-8" standalone="no"?>
<!DOCTYPE svg PUBLIC "-//W3C//DTD SVG 1.1//EN"
 "http://www.w3.org/Graphics/SVG/1.1/DTD/svg11.dtd">
<!-- Generated by graphviz version 2.49.0 (20210828.1703)
 -->
<!-- Title: C:/Users/folae/Documents/Code/Big&#45;Projects/ArkScript/Ark/src/arkreactor/Compiler/BytecodeReader.cpp Pages: 1 -->
<svg width="1945pt" height="341pt"
 viewBox="0.00 0.00 1945.14 341.00" xmlns="http://www.w3.org/2000/svg" xmlns:xlink="http://www.w3.org/1999/xlink">
<g id="graph0" class="graph" transform="scale(1 1) rotate(0) translate(4 337)">
<title>C:/Users/folae/Documents/Code/Big&#45;Projects/ArkScript/Ark/src/arkreactor/Compiler/BytecodeReader.cpp</title>
<polygon fill="white" stroke="transparent" points="-4,4 -4,-337 1941.14,-337 1941.14,4 -4,4"/>
<!-- Node1 -->
<g id="node1" class="node">
<title>Node1</title>
<g id="a_node1"><a xlink:title=" ">
<polygon fill="#bfbfbf" stroke="black" points="1496.14,-280.5 1496.14,-332.5 1638.14,-332.5 1638.14,-280.5 1496.14,-280.5"/>
<text text-anchor="start" x="1504.14" y="-320.5" font-family="Helvetica,sans-Serif" font-size="10.00">C:/Users/folae/Documents</text>
<text text-anchor="start" x="1504.14" y="-309.5" font-family="Helvetica,sans-Serif" font-size="10.00">/Code/Big&#45;Projects/ArkScript</text>
<text text-anchor="start" x="1504.14" y="-298.5" font-family="Helvetica,sans-Serif" font-size="10.00">/Ark/src/arkreactor/Compiler</text>
<text text-anchor="middle" x="1567.14" y="-287.5" font-family="Helvetica,sans-Serif" font-size="10.00">/BytecodeReader.cpp</text>
</a>
</g>
</g>
<!-- Node2 -->
<g id="node2" class="node">
<title>Node2</title>
<g id="a_node2"><a xlink:href="../../d1/d84/BytecodeReader_8hpp.html" target="_top" xlink:title="A bytecode disassembler for ArkScript.">
<polygon fill="white" stroke="black" points="1136.64,-112.5 1136.64,-131.5 1303.64,-131.5 1303.64,-112.5 1136.64,-112.5"/>
<text text-anchor="middle" x="1220.14" y="-119.5" font-family="Helvetica,sans-Serif" font-size="10.00">Ark/Compiler/BytecodeReader.hpp</text>
</a>
</g>
</g>
<!-- Node1&#45;&gt;Node2 -->
<g id="edge1" class="edge">
<title>Node1&#45;&gt;Node2</title>
<path fill="none" stroke="midnightblue" d="M1519.26,-280.32C1444.74,-241.12 1303.58,-166.89 1245.79,-136.49"/>
<polygon fill="midnightblue" stroke="midnightblue" points="1247.11,-133.23 1236.63,-131.67 1243.85,-139.42 1247.11,-133.23"/>
</g>
<!-- Node13 -->
<g id="node13" class="node">
<title>Node13</title>
<g id="a_node13"><a xlink:href="../../d8/daa/Instructions_8hpp.html" target="_top" xlink:title="The different instructions used by the compiler and virtual machine.">
<polygon fill="white" stroke="black" points="1419.64,-168.5 1419.64,-187.5 1564.64,-187.5 1564.64,-168.5 1419.64,-168.5"/>
<text text-anchor="middle" x="1492.14" y="-175.5" font-family="Helvetica,sans-Serif" font-size="10.00">Ark/Compiler/Instructions.hpp</text>
</a>
</g>
</g>
<!-- Node1&#45;&gt;Node13 -->
<g id="edge14" class="edge">
<title>Node1&#45;&gt;Node13</title>
<path fill="none" stroke="midnightblue" d="M1552.14,-280.2C1537.39,-255.32 1515.26,-218 1502.4,-196.31"/>
<polygon fill="midnightblue" stroke="midnightblue" points="1505.32,-194.37 1497.21,-187.55 1499.3,-197.94 1505.32,-194.37"/>
</g>
<!-- Node14 -->
<g id="node14" class="node">
<title>Node14</title>
<g id="a_node14"><a xlink:href="../../da/d84/Builtins_8hpp.html" target="_top" xlink:title="Host the declaration of all the ArkScript builtins.">
<polygon fill="white" stroke="black" points="860.64,-224.5 860.64,-243.5 981.64,-243.5 981.64,-224.5 860.64,-224.5"/>
<text text-anchor="middle" x="921.14" y="-231.5" font-family="Helvetica,sans-Serif" font-size="10.00">Ark/Builtins/Builtins.hpp</text>
</a>
</g>
</g>
<!-- Node1&#45;&gt;Node14 -->
<g id="edge16" class="edge">
<title>Node1&#45;&gt;Node14</title>
<path fill="none" stroke="midnightblue" d="M1495.85,-297.72C1371.38,-284.14 1115.88,-256.25 991.83,-242.71"/>
<polygon fill="midnightblue" stroke="midnightblue" points="992.01,-239.21 981.68,-241.61 991.25,-246.17 992.01,-239.21"/>
</g>
<!-- Node28 -->
<g id="node28" class="node">
<title>Node28</title>
<g id="a_node28"><a xlink:href="../../d7/d09/Utils_8hpp.html" target="_top" xlink:title="Lots of utilities about string, filesystem and more.">
<polygon fill="white" stroke="black" points="1616.64,-112.5 1616.64,-131.5 1689.64,-131.5 1689.64,-112.5 1616.64,-112.5"/>
<text text-anchor="middle" x="1653.14" y="-119.5" font-family="Helvetica,sans-Serif" font-size="10.00">Ark/Utils.hpp</text>
</a>
</g>
</g>
<!-- Node1&#45;&gt;Node28 -->
<g id="edge49" class="edge">
<title>Node1&#45;&gt;Node28</title>
<path fill="none" stroke="midnightblue" d="M1579.1,-280.12C1596.76,-242.65 1629.37,-173.45 1644.73,-140.86"/>
<polygon fill="midnightblue" stroke="midnightblue" points="1647.97,-142.19 1649.07,-131.65 1641.64,-139.2 1647.97,-142.19"/>
</g>
<!-- Node34 -->
<g id="node34" class="node">
<title>Node34</title>
<g id="a_node34"><a xlink:title=" ">
<polygon fill="white" stroke="#bfbfbf" points="1621.64,-224.5 1621.64,-243.5 1740.64,-243.5 1740.64,-224.5 1621.64,-224.5"/>
<text text-anchor="middle" x="1681.14" y="-231.5" font-family="Helvetica,sans-Serif" font-size="10.00">termcolor/termcolor.hpp</text>
</a>
</g>
</g>
<!-- Node1&#45;&gt;Node34 -->
<g id="edge60" class="edge">
<title>Node1&#45;&gt;Node34</title>
<path fill="none" stroke="midnightblue" d="M1607.65,-280.45C1624.77,-269.86 1644.05,-257.94 1658.57,-248.96"/>
<polygon fill="midnightblue" stroke="midnightblue" points="1660.69,-251.76 1667.35,-243.53 1657.01,-245.81 1660.69,-251.76"/>
</g>
<!-- Node35 -->
<g id="node35" class="node">
<title>Node35</title>
<g id="a_node35"><a xlink:title=" ">
<polygon fill="white" stroke="#bfbfbf" points="1759.14,-224.5 1759.14,-243.5 1823.14,-243.5 1823.14,-224.5 1759.14,-224.5"/>
<text text-anchor="middle" x="1791.14" y="-231.5" font-family="Helvetica,sans-Serif" font-size="10.00">picosha2.h</text>
</a>
</g>
</g>
<!-- Node1&#45;&gt;Node35 -->
<g id="edge61" class="edge">
<title>Node1&#45;&gt;Node35</title>
<path fill="none" stroke="midnightblue" d="M1638.32,-283.1C1676.93,-270.94 1723.04,-256.43 1754.44,-246.55"/>
<polygon fill="midnightblue" stroke="midnightblue" points="1755.6,-249.86 1764.09,-243.51 1753.5,-243.18 1755.6,-249.86"/>
</g>
<!-- Node3 -->
<g id="node3" class="node">
<title>Node3</title>
<g id="a_node3"><a xlink:title=" ">
<polygon fill="white" stroke="#bfbfbf" points="881.14,-0.5 881.14,-19.5 923.14,-19.5 923.14,-0.5 881.14,-0.5"/>
<text text-anchor="middle" x="902.14" y="-7.5" font-family="Helvetica,sans-Serif" font-size="10.00">vector</text>
</a>
</g>
</g>
<!-- Node2&#45;&gt;Node3 -->
<g id="edge2" class="edge">
<title>Node2&#45;&gt;Node3</title>
<path fill="none" stroke="midnightblue" d="M1220.35,-112.3C1220.18,-98.18 1217.61,-70.38 1201.14,-56 1181.16,-38.55 1006.34,-20.6 933.64,-13.82"/>
<polygon fill="midnightblue" stroke="midnightblue" points="933.57,-10.3 923.29,-12.87 932.92,-17.27 933.57,-10.3"/>
</g>
<!-- Node4 -->
<g id="node4" class="node">
<title>Node4</title>
<g id="a_node4"><a xlink:title=" ">
<polygon fill="white" stroke="#bfbfbf" points="1438.64,-56.5 1438.64,-75.5 1487.64,-75.5 1487.64,-56.5 1438.64,-56.5"/>
<text text-anchor="middle" x="1463.14" y="-63.5" font-family="Helvetica,sans-Serif" font-size="10.00">fstream</text>
</a>
</g>
</g>
<!-- Node2&#45;&gt;Node4 -->
<g id="edge3" class="edge">
<title>Node2&#45;&gt;Node4</title>
<path fill="none" stroke="midnightblue" d="M1259.27,-112.49C1300.36,-103.52 1366.83,-88.93 1424.14,-76 1425.58,-75.67 1427.05,-75.34 1428.54,-75"/>
<polygon fill="midnightblue" stroke="midnightblue" points="1429.42,-78.39 1438.39,-72.75 1427.86,-71.57 1429.42,-78.39"/>
</g>
<!-- Node5 -->
<g id="node5" class="node">
<title>Node5</title>
<g id="a_node5"><a xlink:title=" ">
<polygon fill="white" stroke="#bfbfbf" points="761.14,-0.5 761.14,-19.5 815.14,-19.5 815.14,-0.5 761.14,-0.5"/>
<text text-anchor="middle" x="788.14" y="-7.5" font-family="Helvetica,sans-Serif" font-size="10.00">iostream</text>
</a>
</g>
</g>
<!-- Node2&#45;&gt;Node5 -->
<g id="edge4" class="edge">
<title>Node2&#45;&gt;Node5</title>
<path fill="none" stroke="midnightblue" d="M1203.76,-112.45C1171.51,-95.66 1101.9,-59.71 1090.14,-56 1041.46,-40.63 895.07,-22.92 825.56,-15.08"/>
<polygon fill="midnightblue" stroke="midnightblue" points="825.82,-11.59 815.49,-13.96 825.04,-18.55 825.82,-11.59"/>
</g>
<!-- Node6 -->
<g id="node6" class="node">
<title>Node6</title>
<g id="a_node6"><a xlink:title=" ">
<polygon fill="white" stroke="#bfbfbf" points="1006.64,-56.5 1006.64,-75.5 1047.64,-75.5 1047.64,-56.5 1006.64,-56.5"/>
<text text-anchor="middle" x="1027.14" y="-63.5" font-family="Helvetica,sans-Serif" font-size="10.00">string</text>
</a>
</g>
</g>
<!-- Node2&#45;&gt;Node6 -->
<g id="edge5" class="edge">
<title>Node2&#45;&gt;Node6</title>
<path fill="none" stroke="midnightblue" d="M1189.56,-112.44C1153.47,-102.35 1093.84,-85.66 1057.74,-75.56"/>
<polygon fill="midnightblue" stroke="midnightblue" points="1058.36,-72.1 1047.79,-72.78 1056.47,-78.84 1058.36,-72.1"/>
</g>
<!-- Node7 -->
<g id="node7" class="node">
<title>Node7</title>
<g id="a_node7"><a xlink:title=" ">
<polygon fill="white" stroke="#bfbfbf" points="1382.14,-0.5 1382.14,-19.5 1438.14,-19.5 1438.14,-0.5 1382.14,-0.5"/>
<text text-anchor="middle" x="1410.14" y="-7.5" font-family="Helvetica,sans-Serif" font-size="10.00">cinttypes</text>
</a>
</g>
</g>
<!-- Node2&#45;&gt;Node7 -->
<g id="edge6" class="edge">
<title>Node2&#45;&gt;Node7</title>
<path fill="none" stroke="midnightblue" d="M1303.89,-116.05C1334.81,-110.2 1367.93,-98.59 1391.14,-76 1403.51,-63.96 1407.94,-44.37 1409.47,-29.83"/>
<polygon fill="midnightblue" stroke="midnightblue" points="1412.98,-29.72 1410.17,-19.5 1406,-29.24 1412.98,-29.72"/>
</g>
<!-- Node8 -->
<g id="node8" class="node">
<title>Node8</title>
<g id="a_node8"><a xlink:title=" ">
<polygon fill="white" stroke="#bfbfbf" points="1142.14,-56.5 1142.14,-75.5 1192.14,-75.5 1192.14,-56.5 1142.14,-56.5"/>
<text text-anchor="middle" x="1167.14" y="-63.5" font-family="Helvetica,sans-Serif" font-size="10.00">optional</text>
</a>
</g>
</g>
<!-- Node2&#45;&gt;Node8 -->
<g id="edge7" class="edge">
<title>Node2&#45;&gt;Node8</title>
<path fill="none" stroke="midnightblue" d="M1211.39,-112.08C1203.67,-104.22 1192.24,-92.57 1182.92,-83.08"/>
<polygon fill="midnightblue" stroke="midnightblue" points="1185.23,-80.44 1175.73,-75.75 1180.24,-85.34 1185.23,-80.44"/>
</g>
<!-- Node9 -->
<g id="node9" class="node">
<title>Node9</title>
<g id="a_node9"><a xlink:href="../../d5/d40/Platform_8hpp.html" target="_top" xlink:title="ArkScript configuration macros.">
<polygon fill="white" stroke="black" points="364.64,-0.5 364.64,-19.5 453.64,-19.5 453.64,-0.5 364.64,-0.5"/>
<text text-anchor="middle" x="409.14" y="-7.5" font-family="Helvetica,sans-Serif" font-size="10.00">Ark/Platform.hpp</text>
</a>
</g>
</g>
<!-- Node2&#45;&gt;Node9 -->
<g id="edge8" class="edge">
<title>Node2&#45;&gt;Node9</title>
<path fill="none" stroke="midnightblue" d="M1189.74,-112.47C1162.93,-104.49 1123.11,-91.48 1090.14,-76 1074.62,-68.71 1073.49,-61.18 1057.14,-56 947.27,-21.16 599.67,-13.27 464.07,-11.5"/>
<polygon fill="midnightblue" stroke="midnightblue" points="463.95,-8 453.91,-11.37 463.87,-15 463.95,-8"/>
</g>
<!-- Node10 -->
<g id="node10" class="node">
<title>Node10</title>
<g id="a_node10"><a xlink:href="../../d8/ddd/Common_8hpp.html" target="_top" xlink:title="Common code for the compiler.">
<polygon fill="white" stroke="black" points="1248.14,-56.5 1248.14,-75.5 1382.14,-75.5 1382.14,-56.5 1248.14,-56.5"/>
<text text-anchor="middle" x="1315.14" y="-63.5" font-family="Helvetica,sans-Serif" font-size="10.00">Ark/Compiler/Common.hpp</text>
</a>
</g>
</g>
<!-- Node2&#45;&gt;Node10 -->
<g id="edge9" class="edge">
<title>Node2&#45;&gt;Node10</title>
<path fill="none" stroke="midnightblue" d="M1235.4,-112.32C1250.36,-103.82 1273.4,-90.73 1290.87,-80.8"/>
<polygon fill="midnightblue" stroke="midnightblue" points="1292.95,-83.64 1299.92,-75.65 1289.49,-77.55 1292.95,-83.64"/>
</g>
<!-- Node10&#45;&gt;Node3 -->
<g id="edge12" class="edge">
<title>Node10&#45;&gt;Node3</title>
<path fill="none" stroke="midnightblue" d="M1249.7,-56.44C1159.45,-44.64 1000.35,-23.84 933.31,-15.08"/>
<polygon fill="midnightblue" stroke="midnightblue" points="933.74,-11.6 923.37,-13.78 932.83,-18.54 933.74,-11.6"/>
</g>
<!-- Node10&#45;&gt;Node7 -->
<g id="edge13" class="edge">
<title>Node10&#45;&gt;Node7</title>
<path fill="none" stroke="midnightblue" d="M1330.4,-56.32C1345.36,-47.82 1368.4,-34.73 1385.87,-24.8"/>
<polygon fill="midnightblue" stroke="midnightblue" points="1387.95,-27.64 1394.92,-19.65 1384.49,-21.55 1387.95,-27.64"/>
</g>
<!-- Node11 -->
<g id="node11" class="node">
<title>Node11</title>
<g id="a_node11"><a xlink:title=" ">
<polygon fill="white" stroke="#bfbfbf" points="1065.14,-0.5 1065.14,-19.5 1103.14,-19.5 1103.14,-0.5 1065.14,-0.5"/>
<text text-anchor="middle" x="1084.14" y="-7.5" font-family="Helvetica,sans-Serif" font-size="10.00">array</text>
</a>
</g>
</g>
<!-- Node10&#45;&gt;Node11 -->
<g id="edge10" class="edge">
<title>Node10&#45;&gt;Node11</title>
<path fill="none" stroke="midnightblue" d="M1278.54,-56.44C1232.68,-45.72 1155.04,-27.57 1113.1,-17.77"/>
<polygon fill="midnightblue" stroke="midnightblue" points="1113.78,-14.33 1103.25,-15.47 1112.19,-21.15 1113.78,-14.33"/>
</g>
<!-- Node12 -->
<g id="node12" class="node">
<title>Node12</title>
<g id="a_node12"><a xlink:title=" ">
<polygon fill="white" stroke="#bfbfbf" points="1283.14,-0.5 1283.14,-19.5 1347.14,-19.5 1347.14,-0.5 1283.14,-0.5"/>
<text text-anchor="middle" x="1315.14" y="-7.5" font-family="Helvetica,sans-Serif" font-size="10.00">string_view</text>
</a>
</g>
</g>
<!-- Node10&#45;&gt;Node12 -->
<g id="edge11" class="edge">
<title>Node10&#45;&gt;Node12</title>
<path fill="none" stroke="midnightblue" d="M1315.14,-56.08C1315.14,-49.01 1315.14,-38.86 1315.14,-29.99"/>
<polygon fill="midnightblue" stroke="midnightblue" points="1318.64,-29.75 1315.14,-19.75 1311.64,-29.75 1318.64,-29.75"/>
</g>
<!-- Node13&#45;&gt;Node7 -->
<g id="edge15" class="edge">
<title>Node13&#45;&gt;Node7</title>
<path fill="none" stroke="midnightblue" d="M1495.55,-168.28C1503.18,-147.18 1519.33,-92.46 1497.14,-56 1486.35,-38.27 1466.07,-27.22 1447.8,-20.5"/>
<polygon fill="midnightblue" stroke="midnightblue" points="1448.81,-17.15 1438.22,-17.29 1446.59,-23.79 1448.81,-17.15"/>
</g>
<!-- Node14&#45;&gt;Node3 -->
<g id="edge17" class="edge">
<title>Node14&#45;&gt;Node3</title>
<path fill="none" stroke="midnightblue" d="M934.02,-224.23C960.37,-205.13 1016.43,-157.78 998.14,-112 983.18,-74.55 947,-43.04 923.57,-25.62"/>
<polygon fill="midnightblue" stroke="midnightblue" points="925.45,-22.66 915.29,-19.65 921.36,-28.34 925.45,-22.66"/>
</g>
<!-- Node15 -->
<g id="node15" class="node">
<title>Node15</title>
<g id="a_node15"><a xlink:href="../../de/dfd/Value_8hpp.html" target="_top" xlink:title=" ">
<polygon fill="white" stroke="black" points="570.14,-112.5 570.14,-131.5 666.14,-131.5 666.14,-112.5 570.14,-112.5"/>
<text text-anchor="middle" x="618.14" y="-119.5" font-family="Helvetica,sans-Serif" font-size="10.00">Ark/VM/Value.hpp</text>
</a>
</g>
</g>
<!-- Node14&#45;&gt;Node15 -->
<g id="edge18" class="edge">
<title>Node14&#45;&gt;Node15</title>
<path fill="none" stroke="midnightblue" d="M896.08,-224.33C870.24,-215.37 828.81,-200.89 793.14,-188 743.21,-169.95 685.51,-148.38 650.44,-135.19"/>
<polygon fill="midnightblue" stroke="midnightblue" points="651.34,-131.79 640.75,-131.54 648.87,-138.34 651.34,-131.79"/>
</g>
<!-- Node25 -->
<g id="node25" class="node">
<title>Node25</title>
<g id="a_node25"><a xlink:href="../../d2/de9/Exceptions_8hpp.html" target="_top" xlink:title="ArkScript homemade exceptions.">
<polygon fill="white" stroke="black" points="802.14,-168.5 802.14,-187.5 904.14,-187.5 904.14,-168.5 802.14,-168.5"/>
<text text-anchor="middle" x="853.14" y="-175.5" font-family="Helvetica,sans-Serif" font-size="10.00">Ark/Exceptions.hpp</text>
</a>
</g>
</g>
<!-- Node14&#45;&gt;Node25 -->
<g id="edge43" class="edge">
<title>Node14&#45;&gt;Node25</title>
<path fill="none" stroke="midnightblue" d="M910.22,-224.32C899.97,-216.18 884.42,-203.84 872.14,-194.09"/>
<polygon fill="midnightblue" stroke="midnightblue" points="874.27,-191.31 864.26,-187.83 869.92,-196.79 874.27,-191.31"/>
</g>
<!-- Node15&#45;&gt;Node3 -->
<g id="edge19" class="edge">
<title>Node15&#45;&gt;Node3</title>
<path fill="none" stroke="midnightblue" d="M662.84,-112.49C697.73,-105.06 747.03,-92.83 788.14,-76 822.27,-62.03 858.82,-39.74 881.08,-25.23"/>
<polygon fill="midnightblue" stroke="midnightblue" points="883.28,-27.97 889.7,-19.54 879.43,-22.13 883.28,-27.97"/>
</g>
<!-- Node15&#45;&gt;Node5 -->
<g id="edge23" class="edge">
<title>Node15&#45;&gt;Node5</title>
<path fill="none" stroke="midnightblue" d="M666.42,-118.38C699.5,-114.06 742.13,-103.15 769.14,-76 781.18,-63.9 785.67,-44.62 787.31,-30.19"/>
<polygon fill="midnightblue" stroke="midnightblue" points="790.82,-30.13 788.1,-19.89 783.84,-29.6 790.82,-30.13"/>
</g>
<!-- Node15&#45;&gt;Node6 -->
<g id="edge21" class="edge">
<title>Node15&#45;&gt;Node6</title>
<path fill="none" stroke="midnightblue" d="M666.27,-117.25C737.78,-111.23 876.13,-97.8 992.14,-76 993.61,-75.72 995.1,-75.42 996.6,-75.1"/>
<polygon fill="midnightblue" stroke="midnightblue" points="997.57,-78.47 1006.51,-72.79 995.98,-71.65 997.57,-78.47"/>
</g>
<!-- Node15&#45;&gt;Node7 -->
<g id="edge22" class="edge">
<title>Node15&#45;&gt;Node7</title>
<path fill="none" stroke="midnightblue" d="M666.35,-112.56C761.21,-95.99 965.73,-60.4 998.14,-56 1156.6,-34.51 1197.63,-41.16 1356.14,-20 1361.25,-19.32 1366.62,-18.52 1371.91,-17.69"/>
<polygon fill="midnightblue" stroke="midnightblue" points="1372.58,-21.13 1381.89,-16.06 1371.45,-14.22 1372.58,-21.13"/>
</g>
<!-- Node15&#45;&gt;Node9 -->
<g id="edge40" class="edge">
<title>Node15&#45;&gt;Node9</title>
<path fill="none" stroke="midnightblue" d="M569.87,-121.04C434.41,-120.64 58.16,-115.91 21.14,-76 15.1,-69.48 15.23,-62.64 21.14,-56 32.09,-43.7 249.89,-24.15 354.27,-15.44"/>
<polygon fill="midnightblue" stroke="midnightblue" points="354.63,-18.92 364.31,-14.61 354.05,-11.95 354.63,-18.92"/>
</g>
<!-- Node15&#45;&gt;Node11 -->
<g id="edge28" class="edge">
<title>Node15&#45;&gt;Node11</title>
<path fill="none" stroke="midnightblue" d="M657.88,-112.49C698.85,-103.64 764.56,-89.26 821.14,-76 906.47,-56 1006.91,-30.68 1055.26,-18.38"/>
<polygon fill="midnightblue" stroke="midnightblue" points="1056.21,-21.75 1065.04,-15.89 1054.48,-14.97 1056.21,-21.75"/>
</g>
<!-- Node16 -->
<g id="node16" class="node">
<title>Node16</title>
<g id="a_node16"><a xlink:title=" ">
<polygon fill="white" stroke="#bfbfbf" points="30.14,-56.5 30.14,-75.5 74.14,-75.5 74.14,-56.5 30.14,-56.5"/>
<text text-anchor="middle" x="52.14" y="-63.5" font-family="Helvetica,sans-Serif" font-size="10.00">variant</text>
</a>
</g>
</g>
<!-- Node15&#45;&gt;Node16 -->
<g id="edge20" class="edge">
<title>Node15&#45;&gt;Node16</title>
<path fill="none" stroke="midnightblue" d="M570.12,-120.15C477.6,-117.82 268.24,-109.22 84.22,-75.84"/>
<polygon fill="midnightblue" stroke="midnightblue" points="84.83,-72.4 74.36,-74.03 83.56,-79.28 84.83,-72.4"/>
</g>
<!-- Node17 -->
<g id="node17" class="node">
<title>Node17</title>
<g id="a_node17"><a xlink:title=" ">
<polygon fill="white" stroke="#bfbfbf" points="212.14,-0.5 212.14,-19.5 264.14,-19.5 264.14,-0.5 212.14,-0.5"/>
<text text-anchor="middle" x="238.14" y="-7.5" font-family="Helvetica,sans-Serif" font-size="10.00">memory</text>
</a>
</g>
</g>
<!-- Node15&#45;&gt;Node17 -->
<g id="edge24" class="edge">
<title>Node15&#45;&gt;Node17</title>
<path fill="none" stroke="midnightblue" d="M569.71,-121.09C432.86,-120.83 50.72,-116.48 13.14,-76 7.09,-69.49 7.51,-62.87 13.14,-56 36.56,-27.43 144.13,-16.64 201.64,-12.86"/>
<polygon fill="midnightblue" stroke="midnightblue" points="202,-16.34 211.76,-12.23 201.56,-9.36 202,-16.34"/>
</g>
<!-- Node18 -->
<g id="node18" class="node">
<title>Node18</title>
<g id="a_node18"><a xlink:title=" ">
<polygon fill="white" stroke="#bfbfbf" points="92.14,-56.5 92.14,-75.5 150.14,-75.5 150.14,-56.5 92.14,-56.5"/>
<text text-anchor="middle" x="121.14" y="-63.5" font-family="Helvetica,sans-Serif" font-size="10.00">functional</text>
</a>
</g>
</g>
<!-- Node15&#45;&gt;Node18 -->
<g id="edge25" class="edge">
<title>Node15&#45;&gt;Node18</title>
<path fill="none" stroke="midnightblue" d="M569.95,-118.42C487.84,-113.56 315.44,-101.32 160.69,-76.05"/>
<polygon fill="midnightblue" stroke="midnightblue" points="160.96,-72.55 150.52,-74.37 159.81,-79.46 160.96,-72.55"/>
</g>
<!-- Node19 -->
<g id="node19" class="node">
<title>Node19</title>
<g id="a_node19"><a xlink:title=" ">
<polygon fill="white" stroke="#bfbfbf" points="30.14,-0.5 30.14,-19.5 70.14,-19.5 70.14,-0.5 30.14,-0.5"/>
<text text-anchor="middle" x="50.14" y="-7.5" font-family="Helvetica,sans-Serif" font-size="10.00">utility</text>
</a>
</g>
</g>
<!-- Node15&#45;&gt;Node19 -->
<g id="edge26" class="edge">
<title>Node15&#45;&gt;Node19</title>
<path fill="none" stroke="midnightblue" d="M570.06,-121.14C432.27,-121.04 43.32,-117.09 5.14,-76 -9.47,-60.27 10.57,-39.5 28.37,-25.72"/>
<polygon fill="midnightblue" stroke="midnightblue" points="30.77,-28.3 36.77,-19.57 26.64,-22.65 30.77,-28.3"/>
</g>
<!-- Node20 -->
<g id="node20" class="node">
<title>Node20</title>
<g id="a_node20"><a xlink:title=" ">
<polygon fill="white" stroke="#bfbfbf" points="326.64,-56.5 326.64,-75.5 405.64,-75.5 405.64,-56.5 326.64,-56.5"/>
<text text-anchor="middle" x="366.14" y="-63.5" font-family="Helvetica,sans-Serif" font-size="10.00">Ark/String.hpp</text>
</a>
</g>
</g>
<!-- Node15&#45;&gt;Node20 -->
<g id="edge27" class="edge">
<title>Node15&#45;&gt;Node20</title>
<path fill="none" stroke="midnightblue" d="M578.21,-112.44C534.25,-103.02 463.51,-87.87 415.96,-77.68"/>
<polygon fill="midnightblue" stroke="midnightblue" points="416.4,-74.19 405.88,-75.52 414.93,-81.03 416.4,-74.19"/>
</g>
<!-- Node21 -->
<g id="node21" class="node">
<title>Node21</title>
<g id="a_node21"><a xlink:href="../../dc/dd5/Closure_8hpp.html" target="_top" xlink:title="Subtype of the value type, handling closures.">
<polygon fill="white" stroke="black" points="424.14,-56.5 424.14,-75.5 556.14,-75.5 556.14,-56.5 424.14,-56.5"/>
<text text-anchor="middle" x="490.14" y="-63.5" font-family="Helvetica,sans-Serif" font-size="10.00">Ark/VM/Value/Closure.hpp</text>
</a>
</g>
</g>
<!-- Node15&#45;&gt;Node21 -->
<g id="edge29" class="edge">
<title>Node15&#45;&gt;Node21</title>
<path fill="none" stroke="midnightblue" d="M597.86,-112.44C576.79,-103.56 543.62,-89.56 519.66,-79.45"/>
<polygon fill="midnightblue" stroke="midnightblue" points="520.9,-76.18 510.33,-75.52 518.18,-82.63 520.9,-76.18"/>
</g>
<!-- Node22 -->
<g id="node22" class="node">
<title>Node22</title>
<g id="a_node22"><a xlink:href="../../dc/d3d/UserType_8hpp.html" target="_top" xlink:title="Subtype of the value, capable of handling any C++ type.">
<polygon fill="white" stroke="black" points="168.14,-56.5 168.14,-75.5 308.14,-75.5 308.14,-56.5 168.14,-56.5"/>
<text text-anchor="middle" x="238.14" y="-63.5" font-family="Helvetica,sans-Serif" font-size="10.00">Ark/VM/Value/UserType.hpp</text>
</a>
</g>
</g>
<!-- Node15&#45;&gt;Node22 -->
<g id="edge34" class="edge">
<title>Node15&#45;&gt;Node22</title>
<path fill="none" stroke="midnightblue" d="M570.01,-114.16C503.79,-104.75 384.13,-87.75 308.04,-76.93"/>
<polygon fill="midnightblue" stroke="midnightblue" points="308.45,-73.46 298.06,-75.51 307.47,-80.39 308.45,-73.46"/>
</g>
<!-- Node23 -->
<g id="node23" class="node">
<title>Node23</title>
<g id="a_node23"><a xlink:href="../../d0/dd2/Profiling_8hpp.html" target="_top" xlink:title=" ">
<polygon fill="white" stroke="black" points="574.14,-56.5 574.14,-75.5 662.14,-75.5 662.14,-56.5 574.14,-56.5"/>
<text text-anchor="middle" x="618.14" y="-63.5" font-family="Helvetica,sans-Serif" font-size="10.00">Ark/Profiling.hpp</text>
</a>
</g>
</g>
<!-- Node15&#45;&gt;Node23 -->
<g id="edge41" class="edge">
<title>Node15&#45;&gt;Node23</title>
<path fill="none" stroke="midnightblue" d="M618.14,-112.08C618.14,-105.01 618.14,-94.86 618.14,-85.99"/>
<polygon fill="midnightblue" stroke="midnightblue" points="621.64,-85.75 618.14,-75.75 614.64,-85.75 621.64,-85.75"/>
</g>
<!-- Node24 -->
<g id="node24" class="node">
<title>Node24</title>
<g id="a_node24"><a xlink:title=" ">
<polygon fill="white" stroke="#bfbfbf" points="680.14,-56.5 680.14,-75.5 760.14,-75.5 760.14,-56.5 680.14,-56.5"/>
<text text-anchor="middle" x="720.14" y="-63.5" font-family="Helvetica,sans-Serif" font-size="10.00">inline/Value.inl</text>
</a>
</g>
</g>
<!-- Node15&#45;&gt;Node24 -->
<g id="edge42" class="edge">
<title>Node15&#45;&gt;Node24</title>
<path fill="none" stroke="midnightblue" d="M634.53,-112.32C650.81,-103.7 676.01,-90.36 694.86,-80.39"/>
<polygon fill="midnightblue" stroke="midnightblue" points="696.59,-83.43 703.79,-75.65 693.32,-77.24 696.59,-83.43"/>
</g>
<!-- Node21&#45;&gt;Node3 -->
<g id="edge31" class="edge">
<title>Node21&#45;&gt;Node3</title>
<path fill="none" stroke="midnightblue" d="M555.42,-56.44C645.45,-44.64 804.16,-23.84 871.04,-15.08"/>
<polygon fill="midnightblue" stroke="midnightblue" points="871.5,-18.55 880.96,-13.78 870.59,-11.61 871.5,-18.55"/>
</g>
<!-- Node21&#45;&gt;Node5 -->
<g id="edge32" class="edge">
<title>Node21&#45;&gt;Node5</title>
<path fill="none" stroke="midnightblue" d="M537.36,-56.44C596.56,-45.72 696.84,-27.54 750.92,-17.75"/>
<polygon fill="midnightblue" stroke="midnightblue" points="751.56,-21.19 760.77,-15.96 750.31,-14.3 751.56,-21.19"/>
</g>
<!-- Node21&#45;&gt;Node9 -->
<g id="edge33" class="edge">
<title>Node21&#45;&gt;Node9</title>
<path fill="none" stroke="midnightblue" d="M477.13,-56.32C464.61,-47.98 445.46,-35.21 430.67,-25.35"/>
<polygon fill="midnightblue" stroke="midnightblue" points="432.38,-22.29 422.12,-19.65 428.5,-28.11 432.38,-22.29"/>
</g>
<!-- Node21&#45;&gt;Node17 -->
<g id="edge30" class="edge">
<title>Node21&#45;&gt;Node17</title>
<path fill="none" stroke="midnightblue" d="M450.21,-56.44C401.83,-46.08 321.01,-28.76 274.36,-18.76"/>
<polygon fill="midnightblue" stroke="midnightblue" points="274.9,-15.3 264.39,-16.62 273.43,-22.14 274.9,-15.3"/>
</g>
<!-- Node22&#45;&gt;Node3 -->
<g id="edge36" class="edge">
<title>Node22&#45;&gt;Node3</title>
<path fill="none" stroke="midnightblue" d="M308.34,-56.85C311.31,-56.55 314.25,-56.27 317.14,-56 542.08,-35.21 599.21,-40.95 824.14,-20 839.5,-18.57 856.52,-16.65 870.73,-14.94"/>
<polygon fill="midnightblue" stroke="midnightblue" points="871.48,-18.38 880.98,-13.7 870.63,-11.43 871.48,-18.38"/>
</g>
<!-- Node22&#45;&gt;Node5 -->
<g id="edge35" class="edge">
<title>Node22&#45;&gt;Node5</title>
<path fill="none" stroke="midnightblue" d="M308.34,-56.94C311.32,-56.61 314.26,-56.3 317.14,-56 478.59,-39.09 671.46,-21.47 751.03,-14.31"/>
<polygon fill="midnightblue" stroke="midnightblue" points="751.4,-17.8 761.04,-13.42 750.77,-10.82 751.4,-17.8"/>
</g>
<!-- Node22&#45;&gt;Node9 -->
<g id="edge39" class="edge">
<title>Node22&#45;&gt;Node9</title>
<path fill="none" stroke="midnightblue" d="M265.24,-56.44C294.13,-47.32 340.07,-32.81 372.25,-22.65"/>
<polygon fill="midnightblue" stroke="midnightblue" points="373.69,-25.87 382.17,-19.52 371.58,-19.19 373.69,-25.87"/>
</g>
<!-- Node22&#45;&gt;Node17 -->
<g id="edge38" class="edge">
<title>Node22&#45;&gt;Node17</title>
<path fill="none" stroke="midnightblue" d="M238.14,-56.08C238.14,-49.01 238.14,-38.86 238.14,-29.99"/>
<polygon fill="midnightblue" stroke="midnightblue" points="241.64,-29.75 238.14,-19.75 234.64,-29.75 241.64,-29.75"/>
</g>
<!-- Node22&#45;&gt;Node19 -->
<g id="edge37" class="edge">
<title>Node22&#45;&gt;Node19</title>
<path fill="none" stroke="midnightblue" d="M208.35,-56.44C173.2,-46.35 115.11,-29.66 79.95,-19.56"/>
<polygon fill="midnightblue" stroke="midnightblue" points="80.83,-16.17 70.25,-16.78 78.9,-22.9 80.83,-16.17"/>
</g>
<!-- Node25&#45;&gt;Node3 -->
<g id="edge46" class="edge">
<title>Node25&#45;&gt;Node3</title>
<path fill="none" stroke="midnightblue" d="M846.97,-168.17C839.03,-155.66 826.94,-132.08 833.14,-112 843.57,-78.24 869.59,-45.7 886.53,-27.06"/>
<polygon fill="midnightblue" stroke="midnightblue" points="889.1,-29.43 893.37,-19.73 883.99,-24.65 889.1,-29.43"/>
</g>
<!-- Node25&#45;&gt;Node6 -->
<g id="edge45" class="edge">
<title>Node25&#45;&gt;Node6</title>
<path fill="none" stroke="midnightblue" d="M848.33,-168.38C841.5,-154.85 831.19,-128.48 844.14,-112 885.97,-58.77 926.47,-92.43 992.14,-76 993.59,-75.64 995.06,-75.27 996.56,-74.89"/>
<polygon fill="midnightblue" stroke="midnightblue" points="997.6,-78.24 1006.42,-72.37 995.87,-71.45 997.6,-78.24"/>
</g>
<!-- Node25&#45;&gt;Node15 -->
<g id="edge48" class="edge">
<title>Node25&#45;&gt;Node15</title>
<path fill="none" stroke="midnightblue" d="M815.9,-168.44C775.08,-159.06 709.5,-143.99 665.16,-133.8"/>
<polygon fill="midnightblue" stroke="midnightblue" points="665.73,-130.34 655.2,-131.52 664.17,-137.17 665.73,-130.34"/>
</g>
<!-- Node26 -->
<g id="node26" class="node">
<title>Node26</title>
<g id="a_node26"><a xlink:title=" ">
<polygon fill="white" stroke="#bfbfbf" points="852.64,-112.5 852.64,-131.5 911.64,-131.5 911.64,-112.5 852.64,-112.5"/>
<text text-anchor="middle" x="882.14" y="-119.5" font-family="Helvetica,sans-Serif" font-size="10.00">exception</text>
</a>
</g>
</g>
<!-- Node25&#45;&gt;Node26 -->
<g id="edge44" class="edge">
<title>Node25&#45;&gt;Node26</title>
<path fill="none" stroke="midnightblue" d="M857.93,-168.08C861.9,-160.69 867.67,-149.95 872.58,-140.81"/>
<polygon fill="midnightblue" stroke="midnightblue" points="875.79,-142.22 877.44,-131.75 869.63,-138.91 875.79,-142.22"/>
</g>
<!-- Node27 -->
<g id="node27" class="node">
<title>Node27</title>
<g id="a_node27"><a xlink:title=" ">
<polygon fill="white" stroke="#bfbfbf" points="929.64,-112.5 929.64,-131.5 988.64,-131.5 988.64,-112.5 929.64,-112.5"/>
<text text-anchor="middle" x="959.14" y="-119.5" font-family="Helvetica,sans-Serif" font-size="10.00">stdexcept</text>
</a>
</g>
</g>
<!-- Node25&#45;&gt;Node27 -->
<g id="edge47" class="edge">
<title>Node25&#45;&gt;Node27</title>
<path fill="none" stroke="midnightblue" d="M870.17,-168.32C887.17,-159.66 913.52,-146.24 933.13,-136.25"/>
<polygon fill="midnightblue" stroke="midnightblue" points="934.83,-139.31 942.15,-131.65 931.65,-133.08 934.83,-139.31"/>
</g>
<!-- Node28&#45;&gt;Node3 -->
<g id="edge55" class="edge">
<title>Node28&#45;&gt;Node3</title>
<path fill="none" stroke="midnightblue" d="M1640.96,-112.32C1619.67,-97.69 1573.79,-68.5 1530.14,-56 1501.2,-47.71 1056.81,-20.35 933.6,-12.89"/>
<polygon fill="midnightblue" stroke="midnightblue" points="933.54,-9.38 923.34,-12.27 933.11,-16.37 933.54,-9.38"/>
</g>
<!-- Node28&#45;&gt;Node4 -->
<g id="edge53" class="edge">
<title>Node28&#45;&gt;Node4</title>
<path fill="none" stroke="midnightblue" d="M1623.03,-112.44C1588.94,-102.75 1533.48,-86.99 1497.66,-76.81"/>
<polygon fill="midnightblue" stroke="midnightblue" points="1498.24,-73.34 1487.67,-73.97 1496.33,-80.07 1498.24,-73.34"/>
</g>
<!-- Node28&#45;&gt;Node5 -->
<g id="edge51" class="edge">
<title>Node28&#45;&gt;Node5</title>
<path fill="none" stroke="midnightblue" d="M1625.15,-112.48C1599.8,-104.37 1561.71,-91.16 1530.14,-76 1514.68,-68.57 1513.52,-61.09 1497.14,-56 1364.28,-14.73 1010.79,-31.41 872.14,-20 856.85,-18.74 840.03,-17.01 825.48,-15.4"/>
<polygon fill="midnightblue" stroke="midnightblue" points="825.68,-11.9 815.35,-14.26 824.89,-18.85 825.68,-11.9"/>
</g>
<!-- Node28&#45;&gt;Node6 -->
<g id="edge50" class="edge">
<title>Node28&#45;&gt;Node6</title>
<path fill="none" stroke="midnightblue" d="M1616.32,-117.82C1503.3,-108.07 1162.7,-78.69 1058.06,-69.67"/>
<polygon fill="midnightblue" stroke="midnightblue" points="1058.12,-66.16 1047.86,-68.79 1057.52,-73.13 1058.12,-66.16"/>
</g>
<!-- Node29 -->
<g id="node29" class="node">
<title>Node29</title>
<g id="a_node29"><a xlink:title=" ">
<polygon fill="white" stroke="#bfbfbf" points="1620.64,-56.5 1620.64,-75.5 1679.64,-75.5 1679.64,-56.5 1620.64,-56.5"/>
<text text-anchor="middle" x="1650.14" y="-63.5" font-family="Helvetica,sans-Serif" font-size="10.00">streambuf</text>
</a>
</g>
</g>
<!-- Node28&#45;&gt;Node29 -->
<g id="edge52" class="edge">
<title>Node28&#45;&gt;Node29</title>
<path fill="none" stroke="midnightblue" d="M1652.65,-112.08C1652.25,-105.01 1651.69,-94.86 1651.2,-85.99"/>
<polygon fill="midnightblue" stroke="midnightblue" points="1654.68,-85.54 1650.63,-75.75 1647.69,-85.93 1654.68,-85.54"/>
</g>
<!-- Node30 -->
<g id="node30" class="node">
<title>Node30</title>
<g id="a_node30"><a xlink:title=" ">
<polygon fill="white" stroke="#bfbfbf" points="1697.64,-56.5 1697.64,-75.5 1758.64,-75.5 1758.64,-56.5 1697.64,-56.5"/>
<text text-anchor="middle" x="1728.14" y="-63.5" font-family="Helvetica,sans-Serif" font-size="10.00">filesystem</text>
</a>
</g>
</g>
<!-- Node28&#45;&gt;Node30 -->
<g id="edge54" class="edge">
<title>Node28&#45;&gt;Node30</title>
<path fill="none" stroke="midnightblue" d="M1665.19,-112.32C1676.6,-104.11 1693.97,-91.6 1707.58,-81.81"/>
<polygon fill="midnightblue" stroke="midnightblue" points="1709.8,-84.52 1715.87,-75.83 1705.71,-78.84 1709.8,-84.52"/>
</g>
<!-- Node31 -->
<g id="node31" class="node">
<title>Node31</title>
<g id="a_node31"><a xlink:title=" ">
<polygon fill="white" stroke="#bfbfbf" points="1777.14,-56.5 1777.14,-75.5 1821.14,-75.5 1821.14,-56.5 1777.14,-56.5"/>
<text text-anchor="middle" x="1799.14" y="-63.5" font-family="Helvetica,sans-Serif" font-size="10.00">cmath</text>
</a>
</g>
</g>
<!-- Node28&#45;&gt;Node31 -->
<g id="edge56" class="edge">
<title>Node28&#45;&gt;Node31</title>
<path fill="none" stroke="midnightblue" d="M1676.27,-112.44C1700.91,-103.33 1740.06,-88.85 1767.53,-78.69"/>
<polygon fill="midnightblue" stroke="midnightblue" points="1768.91,-81.91 1777.07,-75.16 1766.48,-75.35 1768.91,-81.91"/>
</g>
<!-- Node32 -->
<g id="node32" class="node">
<title>Node32</title>
<g id="a_node32"><a xlink:href="../../d6/de9/Constants_8hpp.html" target="_top" xlink:title="Constants used by ArkScript.">
<polygon fill="white" stroke="black" points="1839.14,-56.5 1839.14,-75.5 1937.14,-75.5 1937.14,-56.5 1839.14,-56.5"/>
<text text-anchor="middle" x="1888.14" y="-63.5" font-family="Helvetica,sans-Serif" font-size="10.00">Ark/Constants.hpp</text>
</a>
</g>
</g>
<!-- Node28&#45;&gt;Node32 -->
<g id="edge57" class="edge">
<title>Node28&#45;&gt;Node32</title>
<path fill="none" stroke="midnightblue" d="M1689.86,-112.56C1730.58,-103.21 1796.38,-88.08 1840.91,-77.85"/>
<polygon fill="midnightblue" stroke="midnightblue" points="1841.94,-81.21 1850.9,-75.56 1840.37,-74.38 1841.94,-81.21"/>
</g>
<!-- Node32&#45;&gt;Node7 -->
<g id="edge58" class="edge">
<title>Node32&#45;&gt;Node7</title>
<path fill="none" stroke="midnightblue" d="M1839.12,-57.23C1836.08,-56.8 1833.07,-56.38 1830.14,-56 1689.8,-37.6 1522.34,-21.37 1448.42,-14.49"/>
<polygon fill="midnightblue" stroke="midnightblue" points="1448.49,-10.98 1438.21,-13.55 1447.85,-17.95 1448.49,-10.98"/>
</g>
<!-- Node33 -->
<g id="node33" class="node">
<title>Node33</title>
<g id="a_node33"><a xlink:title=" ">
<polygon fill="white" stroke="#bfbfbf" points="1864.14,-0.5 1864.14,-19.5 1912.14,-19.5 1912.14,-0.5 1864.14,-0.5"/>
<text text-anchor="middle" x="1888.14" y="-7.5" font-family="Helvetica,sans-Serif" font-size="10.00">cstddef</text>
</a>
</g>
</g>
<!-- Node32&#45;&gt;Node33 -->
<g id="edge59" class="edge">
<title>Node32&#45;&gt;Node33</title>
<path fill="none" stroke="midnightblue" d="M1888.14,-56.08C1888.14,-49.01 1888.14,-38.86 1888.14,-29.99"/>
<polygon fill="midnightblue" stroke="midnightblue" points="1891.64,-29.75 1888.14,-19.75 1884.64,-29.75 1891.64,-29.75"/>
</g>
</g>
</svg>
