<?xml version="1.0" encoding="UTF-8" standalone="no"?>
<!DOCTYPE svg PUBLIC "-//W3C//DTD SVG 1.1//EN"
 "http://www.w3.org/Graphics/SVG/1.1/DTD/svg11.dtd">
<!-- Generated by graphviz version 2.49.0 (20210828.1703)
 -->
<!-- Title: C:/Users/folae/Documents/Code/Big&#45;Projects/ArkScript/Ark/src/arkreactor/Compiler/BytecodeReader.cpp Pages: 1 -->
<!--zoomable 285 -->
<svg id="main" version="1.1" xmlns="http://www.w3.org/2000/svg" xmlns:xlink="http://www.w3.org/1999/xlink" xml:space="preserve" onload="init(evt)">
<style type="text/css"><![CDATA[
.edge:hover path { stroke: red; }
.edge:hover polygon { stroke: red; fill: red; }
]]></style>
<script type="text/javascript"><![CDATA[
var edges = document.getElementsByTagName('g');
if (edges && edges.length) {
  for (var i=0;i<edges.length;i++) {
    if (edges[i].id.substr(0,4)=='edge') {
      edges[i].setAttribute('class','edge');
    }
  }
}
]]></script>
        <defs>
                <circle id="rim" cx="0" cy="0" r="7"/>
                <circle id="rim2" cx="0" cy="0" r="3.5"/>
                <g id="zoomPlus">
                        <use xlink:href="#rim" fill="#404040">
                                <set attributeName="fill" to="#808080" begin="zoomplus.mouseover" end="zoomplus.mouseout"/>
                        </use>
                        <path d="M-4,0h8M0,-4v8" fill="none" stroke="white" stroke-width="1.5" pointer-events="none"/>
                </g>
                <g id="zoomMin">
                        <use xlink:href="#rim" fill="#404040">
                                <set attributeName="fill" to="#808080" begin="zoomminus.mouseover" end="zoomminus.mouseout"/>
                        </use>
                        <path d="M-4,0h8" fill="none" stroke="white" stroke-width="1.5" pointer-events="none"/>
                </g>
                <g id="dirArrow">
                        <path fill="none" stroke="white" stroke-width="1.5" d="M0,-3.0v7 M-2.5,-0.5L0,-3.0L2.5,-0.5"/>
                </g>
               <g id="resetDef">
                       <use xlink:href="#rim2" fill="#404040">
                               <set attributeName="fill" to="#808080" begin="reset.mouseover" end="reset.mouseout"/>
                       </use>
               </g>
        </defs>

<script type="text/javascript">
var viewWidth = 1858;
var viewHeight = 285;
var sectionId = 'dynsection-0';
</script>
<script xlink:href="../../svgpan.js"/>
<svg id="graph" class="graph">
<g id="viewport">
<title>C:/Users/folae/Documents/Code/Big&#45;Projects/ArkScript/Ark/src/arkreactor/Compiler/BytecodeReader.cpp</title>
<polygon fill="white" stroke="transparent" points="-4,4 -4,-281 1854.01,-281 1854.01,4 -4,4"/>
<!-- Node1 -->
<g id="node1" class="node">
<title>Node1</title>
<g id="a_node1"><a xlink:title=" ">
<polygon fill="#bfbfbf" stroke="black" points="1416,-224.5 1416,-276.5 1558,-276.5 1558,-224.5 1416,-224.5"/>
<text text-anchor="start" x="1424" y="-264.5" font-family="Helvetica,sans-Serif" font-size="10.00">C:/Users/folae/Documents</text>
<text text-anchor="start" x="1424" y="-253.5" font-family="Helvetica,sans-Serif" font-size="10.00">/Code/Big&#45;Projects/ArkScript</text>
<text text-anchor="start" x="1424" y="-242.5" font-family="Helvetica,sans-Serif" font-size="10.00">/Ark/src/arkreactor/Compiler</text>
<text text-anchor="middle" x="1487" y="-231.5" font-family="Helvetica,sans-Serif" font-size="10.00">/BytecodeReader.cpp</text>
</a>
</g>
</g>
<!-- Node2 -->
<g id="node2" class="node">
<title>Node2</title>
<g id="a_node2"><a xlink:href="../../d1/d84/BytecodeReader_8hpp.html" target="_top" xlink:title="A bytecode disassembler for ArkScript.">
<polygon fill="white" stroke="black" points="1219.5,-56.5 1219.5,-75.5 1386.5,-75.5 1386.5,-56.5 1219.5,-56.5"/>
<text text-anchor="middle" x="1303" y="-63.5" font-family="Helvetica,sans-Serif" font-size="10.00">Ark/Compiler/BytecodeReader.hpp</text>
</a>
</g>
</g>
<!-- Node1&#45;&gt;Node2 -->
<g id="edge1" class="edge">
<title>Node1&#45;&gt;Node2</title>
<path fill="none" stroke="midnightblue" d="M1461.42,-224.12C1422.82,-185.84 1350.83,-114.44 1318.92,-82.79"/>
<polygon fill="midnightblue" stroke="midnightblue" points="1321.28,-80.21 1311.72,-75.65 1316.36,-85.18 1321.28,-80.21"/>
</g>
<!-- Node10 -->
<g id="node10" class="node">
<title>Node10</title>
<g id="a_node10"><a xlink:href="../../d8/daa/Instructions_8hpp.html" target="_top" xlink:title="The different instructions used by the compiler and virtual machine.">
<polygon fill="white" stroke="black" points="1678.5,-112.5 1678.5,-131.5 1823.5,-131.5 1823.5,-112.5 1678.5,-112.5"/>
<text text-anchor="middle" x="1751" y="-119.5" font-family="Helvetica,sans-Serif" font-size="10.00">Ark/Compiler/Instructions.hpp</text>
</a>
</g>
</g>
<!-- Node1&#45;&gt;Node10 -->
<g id="edge9" class="edge">
<title>Node1&#45;&gt;Node10</title>
<path fill="none" stroke="midnightblue" d="M1492.3,-224.32C1497.5,-205.93 1507.32,-181.88 1525,-168 1547.14,-150.62 1613.25,-138.75 1668.28,-131.58"/>
<polygon fill="midnightblue" stroke="midnightblue" points="1668.94,-135.03 1678.42,-130.3 1668.06,-128.08 1668.94,-135.03"/>
</g>
<!-- Node11 -->
<g id="node11" class="node">
<title>Node11</title>
<g id="a_node11"><a xlink:href="../../da/d84/Builtins_8hpp.html" target="_top" xlink:title="Host the declaration of all the ArkScript builtins.">
<polygon fill="white" stroke="black" points="916.5,-168.5 916.5,-187.5 1037.5,-187.5 1037.5,-168.5 916.5,-168.5"/>
<text text-anchor="middle" x="977" y="-175.5" font-family="Helvetica,sans-Serif" font-size="10.00">Ark/Builtins/Builtins.hpp</text>
</a>
</g>
</g>
<!-- Node1&#45;&gt;Node11 -->
<g id="edge11" class="edge">
<title>Node1&#45;&gt;Node11</title>
<path fill="none" stroke="midnightblue" d="M1415.82,-239.66C1318.46,-226.2 1144.81,-202.2 1047.7,-188.77"/>
<polygon fill="midnightblue" stroke="midnightblue" points="1048.07,-185.29 1037.69,-187.39 1047.11,-192.23 1048.07,-185.29"/>
</g>
<!-- Node26 -->
<g id="node26" class="node">
<title>Node26</title>
<g id="a_node26"><a xlink:href="../../d7/d09/Utils_8hpp.html" target="_top" xlink:title="Lots of utilities about string, filesystem and more.">
<polygon fill="white" stroke="black" points="1474.5,-112.5 1474.5,-131.5 1547.5,-131.5 1547.5,-112.5 1474.5,-112.5"/>
<text text-anchor="middle" x="1511" y="-119.5" font-family="Helvetica,sans-Serif" font-size="10.00">Ark/Utils.hpp</text>
</a>
</g>
</g>
<!-- Node1&#45;&gt;Node26 -->
<g id="edge42" class="edge">
<title>Node1&#45;&gt;Node26</title>
<path fill="none" stroke="midnightblue" d="M1486.37,-224.21C1486.5,-207.96 1487.66,-186.49 1492,-168 1494.18,-158.71 1498.11,-148.9 1501.84,-140.81"/>
<polygon fill="midnightblue" stroke="midnightblue" points="1505.06,-142.19 1506.3,-131.67 1498.77,-139.12 1505.06,-142.19"/>
</g>
<!-- Node31 -->
<g id="node31" class="node">
<title>Node31</title>
<g id="a_node31"><a xlink:title=" ">
<polygon fill="white" stroke="#bfbfbf" points="1534.5,-168.5 1534.5,-187.5 1653.5,-187.5 1653.5,-168.5 1534.5,-168.5"/>
<text text-anchor="middle" x="1594" y="-175.5" font-family="Helvetica,sans-Serif" font-size="10.00">termcolor/termcolor.hpp</text>
</a>
</g>
</g>
<!-- Node1&#45;&gt;Node31 -->
<g id="edge52" class="edge">
<title>Node1&#45;&gt;Node31</title>
<path fill="none" stroke="midnightblue" d="M1525.03,-224.45C1540.94,-213.96 1558.84,-202.16 1572.43,-193.22"/>
<polygon fill="midnightblue" stroke="midnightblue" points="1574.63,-195.95 1581.06,-187.53 1570.78,-190.11 1574.63,-195.95"/>
</g>
<!-- Node32 -->
<g id="node32" class="node">
<title>Node32</title>
<g id="a_node32"><a xlink:title=" ">
<polygon fill="white" stroke="#bfbfbf" points="1672,-168.5 1672,-187.5 1736,-187.5 1736,-168.5 1672,-168.5"/>
<text text-anchor="middle" x="1704" y="-175.5" font-family="Helvetica,sans-Serif" font-size="10.00">picosha2.h</text>
</a>
</g>
</g>
<!-- Node1&#45;&gt;Node32 -->
<g id="edge53" class="edge">
<title>Node1&#45;&gt;Node32</title>
<path fill="none" stroke="midnightblue" d="M1558.05,-226.42C1594.92,-214.44 1638.37,-200.32 1668.21,-190.63"/>
<polygon fill="midnightblue" stroke="midnightblue" points="1669.36,-193.94 1677.78,-187.52 1667.19,-187.28 1669.36,-193.94"/>
</g>
<!-- Node3 -->
<g id="node3" class="node">
<title>Node3</title>
<g id="a_node3"><a xlink:title=" ">
<polygon fill="white" stroke="#bfbfbf" points="917,-0.5 917,-19.5 959,-19.5 959,-0.5 917,-0.5"/>
<text text-anchor="middle" x="938" y="-7.5" font-family="Helvetica,sans-Serif" font-size="10.00">vector</text>
</a>
</g>
</g>
<!-- Node2&#45;&gt;Node3 -->
<g id="edge2" class="edge">
<title>Node2&#45;&gt;Node3</title>
<path fill="none" stroke="midnightblue" d="M1244.32,-56.47C1182.72,-47.48 1083.03,-32.89 997,-20 987.94,-18.64 978.1,-17.15 969.1,-15.78"/>
<polygon fill="midnightblue" stroke="midnightblue" points="969.44,-12.29 959.02,-14.23 968.38,-19.21 969.44,-12.29"/>
</g>
<!-- Node4 -->
<g id="node4" class="node">
<title>Node4</title>
<g id="a_node4"><a xlink:title=" ">
<polygon fill="white" stroke="#bfbfbf" points="1515.5,-0.5 1515.5,-19.5 1564.5,-19.5 1564.5,-0.5 1515.5,-0.5"/>
<text text-anchor="middle" x="1540" y="-7.5" font-family="Helvetica,sans-Serif" font-size="10.00">fstream</text>
</a>
</g>
</g>
<!-- Node2&#45;&gt;Node4 -->
<g id="edge3" class="edge">
<title>Node2&#45;&gt;Node4</title>
<path fill="none" stroke="midnightblue" d="M1340.55,-56.44C1385.87,-46.12 1461.43,-28.9 1505.38,-18.89"/>
<polygon fill="midnightblue" stroke="midnightblue" points="1506.34,-22.26 1515.32,-16.62 1504.79,-15.43 1506.34,-22.26"/>
</g>
<!-- Node5 -->
<g id="node5" class="node">
<title>Node5</title>
<g id="a_node5"><a xlink:title=" ">
<polygon fill="white" stroke="#bfbfbf" points="362,-0.5 362,-19.5 416,-19.5 416,-0.5 362,-0.5"/>
<text text-anchor="middle" x="389" y="-7.5" font-family="Helvetica,sans-Serif" font-size="10.00">iostream</text>
</a>
</g>
</g>
<!-- Node2&#45;&gt;Node5 -->
<g id="edge4" class="edge">
<title>Node2&#45;&gt;Node5</title>
<path fill="none" stroke="midnightblue" d="M1219.47,-60.06C1027.67,-48.73 561.89,-21.21 426.49,-13.22"/>
<polygon fill="midnightblue" stroke="midnightblue" points="426.42,-9.7 416.23,-12.61 426.01,-16.69 426.42,-9.7"/>
</g>
<!-- Node6 -->
<g id="node6" class="node">
<title>Node6</title>
<g id="a_node6"><a xlink:title=" ">
<polygon fill="white" stroke="#bfbfbf" points="1194.5,-0.5 1194.5,-19.5 1235.5,-19.5 1235.5,-0.5 1194.5,-0.5"/>
<text text-anchor="middle" x="1215" y="-7.5" font-family="Helvetica,sans-Serif" font-size="10.00">string</text>
</a>
</g>
</g>
<!-- Node2&#45;&gt;Node6 -->
<g id="edge5" class="edge">
<title>Node2&#45;&gt;Node6</title>
<path fill="none" stroke="midnightblue" d="M1288.86,-56.32C1275.13,-47.9 1254.06,-34.97 1237.94,-25.07"/>
<polygon fill="midnightblue" stroke="midnightblue" points="1239.46,-21.9 1229.1,-19.65 1235.8,-27.87 1239.46,-21.9"/>
</g>
<!-- Node7 -->
<g id="node7" class="node">
<title>Node7</title>
<g id="a_node7"><a xlink:title=" ">
<polygon fill="white" stroke="#bfbfbf" points="1671,-0.5 1671,-19.5 1727,-19.5 1727,-0.5 1671,-0.5"/>
<text text-anchor="middle" x="1699" y="-7.5" font-family="Helvetica,sans-Serif" font-size="10.00">cinttypes</text>
</a>
</g>
</g>
<!-- Node2&#45;&gt;Node7 -->
<g id="edge6" class="edge">
<title>Node2&#45;&gt;Node7</title>
<path fill="none" stroke="midnightblue" d="M1365.75,-56.44C1448.72,-45.13 1592.4,-25.54 1660.75,-16.22"/>
<polygon fill="midnightblue" stroke="midnightblue" points="1661.22,-19.68 1670.66,-14.86 1660.28,-12.75 1661.22,-19.68"/>
</g>
<!-- Node8 -->
<g id="node8" class="node">
<title>Node8</title>
<g id="a_node8"><a xlink:title=" ">
<polygon fill="white" stroke="#bfbfbf" points="1278,-0.5 1278,-19.5 1328,-19.5 1328,-0.5 1278,-0.5"/>
<text text-anchor="middle" x="1303" y="-7.5" font-family="Helvetica,sans-Serif" font-size="10.00">optional</text>
</a>
</g>
</g>
<!-- Node2&#45;&gt;Node8 -->
<g id="edge7" class="edge">
<title>Node2&#45;&gt;Node8</title>
<path fill="none" stroke="midnightblue" d="M1303,-56.08C1303,-49.01 1303,-38.86 1303,-29.99"/>
<polygon fill="midnightblue" stroke="midnightblue" points="1306.5,-29.75 1303,-19.75 1299.5,-29.75 1306.5,-29.75"/>
</g>
<!-- Node9 -->
<g id="node9" class="node">
<title>Node9</title>
<g id="a_node9"><a xlink:href="../../d5/d40/Platform_8hpp.html" target="_top" xlink:title="ArkScript configuration macros.">
<polygon fill="white" stroke="black" points="134.5,-0.5 134.5,-19.5 223.5,-19.5 223.5,-0.5 134.5,-0.5"/>
<text text-anchor="middle" x="179" y="-7.5" font-family="Helvetica,sans-Serif" font-size="10.00">Ark/Platform.hpp</text>
</a>
</g>
</g>
<!-- Node2&#45;&gt;Node9 -->
<g id="edge8" class="edge">
<title>Node2&#45;&gt;Node9</title>
<path fill="none" stroke="midnightblue" d="M1219.4,-61.34C1181.7,-59.69 1136.61,-57.74 1096,-56 715.12,-39.72 618.49,-56.33 239,-20 237.31,-19.84 235.59,-19.66 233.85,-19.47"/>
<polygon fill="midnightblue" stroke="midnightblue" points="234.17,-15.98 223.82,-18.26 233.33,-22.93 234.17,-15.98"/>
</g>
<!-- Node10&#45;&gt;Node7 -->
<g id="edge10" class="edge">
<title>Node10&#45;&gt;Node7</title>
<path fill="none" stroke="midnightblue" d="M1784.63,-112.47C1818.96,-102.08 1864.62,-82.58 1845,-56 1820.45,-22.74 1771.66,-13.3 1737.26,-11"/>
<polygon fill="midnightblue" stroke="midnightblue" points="1737.25,-7.5 1727.09,-10.5 1736.91,-14.49 1737.25,-7.5"/>
</g>
<!-- Node11&#45;&gt;Node3 -->
<g id="edge12" class="edge">
<title>Node11&#45;&gt;Node3</title>
<path fill="none" stroke="midnightblue" d="M974.9,-168.08C968.76,-141.95 950.74,-65.21 942.36,-29.58"/>
<polygon fill="midnightblue" stroke="midnightblue" points="945.71,-28.5 940.01,-19.57 938.89,-30.1 945.71,-28.5"/>
</g>
<!-- Node12 -->
<g id="node12" class="node">
<title>Node12</title>
<g id="a_node12"><a xlink:href="../../de/dfd/Value_8hpp.html" target="_top" xlink:title=" ">
<polygon fill="white" stroke="black" points="591,-112.5 591,-131.5 687,-131.5 687,-112.5 591,-112.5"/>
<text text-anchor="middle" x="639" y="-119.5" font-family="Helvetica,sans-Serif" font-size="10.00">Ark/VM/Value.hpp</text>
</a>
</g>
</g>
<!-- Node11&#45;&gt;Node12 -->
<g id="edge13" class="edge">
<title>Node11&#45;&gt;Node12</title>
<path fill="none" stroke="midnightblue" d="M923.44,-168.44C861.82,-158.6 760.96,-142.48 697.37,-132.33"/>
<polygon fill="midnightblue" stroke="midnightblue" points="697.54,-128.81 687.11,-130.69 696.43,-135.72 697.54,-128.81"/>
</g>
<!-- Node20 -->
<g id="node20" class="node">
<title>Node20</title>
<g id="a_node20"><a xlink:href="../../d2/de9/Exceptions_8hpp.html" target="_top" xlink:title="ArkScript homemade exceptions.">
<polygon fill="white" stroke="black" points="985,-56.5 985,-75.5 1087,-75.5 1087,-56.5 985,-56.5"/>
<text text-anchor="middle" x="1036" y="-63.5" font-family="Helvetica,sans-Serif" font-size="10.00">Ark/Exceptions.hpp</text>
</a>
</g>
</g>
<!-- Node11&#45;&gt;Node20 -->
<g id="edge41" class="edge">
<title>Node11&#45;&gt;Node20</title>
<path fill="none" stroke="midnightblue" d="M981.63,-168.37C991.28,-150.38 1013.71,-108.55 1026.55,-84.63"/>
<polygon fill="midnightblue" stroke="midnightblue" points="1029.75,-86.06 1031.39,-75.59 1023.58,-82.75 1029.75,-86.06"/>
</g>
<!-- Node12&#45;&gt;Node3 -->
<g id="edge14" class="edge">
<title>Node12&#45;&gt;Node3</title>
<path fill="none" stroke="midnightblue" d="M687.01,-117.55C752.69,-112.04 866.28,-99.38 900,-76 916.08,-64.85 926.35,-44.52 932.1,-29.56"/>
<polygon fill="midnightblue" stroke="midnightblue" points="935.51,-30.41 935.51,-19.81 928.9,-28.1 935.51,-30.41"/>
</g>
<!-- Node12&#45;&gt;Node5 -->
<g id="edge18" class="edge">
<title>Node12&#45;&gt;Node5</title>
<path fill="none" stroke="midnightblue" d="M590.91,-117.89C530.1,-112.95 430.14,-101.18 404,-76 391.76,-64.21 388.62,-44.57 388.18,-29.96"/>
<polygon fill="midnightblue" stroke="midnightblue" points="391.68,-29.6 388.27,-19.57 384.68,-29.54 391.68,-29.6"/>
</g>
<!-- Node12&#45;&gt;Node6 -->
<g id="edge16" class="edge">
<title>Node12&#45;&gt;Node6</title>
<path fill="none" stroke="midnightblue" d="M687.13,-118.7C788.44,-113.46 1020.58,-99.25 1096,-76 1133.17,-64.54 1171.93,-40.79 1194.75,-25.4"/>
<polygon fill="midnightblue" stroke="midnightblue" points="1196.97,-28.12 1203.22,-19.56 1193,-22.35 1196.97,-28.12"/>
</g>
<!-- Node12&#45;&gt;Node7 -->
<g id="edge17" class="edge">
<title>Node12&#45;&gt;Node7</title>
<path fill="none" stroke="midnightblue" d="M687.11,-121.37C807.3,-121.59 1130.07,-117.88 1395,-76 1429.92,-70.48 1437.53,-63.89 1472,-56 1538.13,-40.87 1615.78,-26.12 1660.98,-17.83"/>
<polygon fill="midnightblue" stroke="midnightblue" points="1661.72,-21.26 1670.93,-16.02 1660.47,-14.37 1661.72,-21.26"/>
</g>
<!-- Node12&#45;&gt;Node9 -->
<g id="edge38" class="edge">
<title>Node12&#45;&gt;Node9</title>
<path fill="none" stroke="midnightblue" d="M590.66,-120.51C466.52,-118.76 144.02,-110.88 112,-76 94.7,-57.16 124.2,-36.84 149.37,-24.03"/>
<polygon fill="midnightblue" stroke="midnightblue" points="151.23,-27.02 158.7,-19.51 148.17,-20.72 151.23,-27.02"/>
</g>
<!-- Node13 -->
<g id="node13" class="node">
<title>Node13</title>
<g id="a_node13"><a xlink:title=" ">
<polygon fill="white" stroke="#bfbfbf" points="617,-56.5 617,-75.5 661,-75.5 661,-56.5 617,-56.5"/>
<text text-anchor="middle" x="639" y="-63.5" font-family="Helvetica,sans-Serif" font-size="10.00">variant</text>
</a>
</g>
</g>
<!-- Node12&#45;&gt;Node13 -->
<g id="edge15" class="edge">
<title>Node12&#45;&gt;Node13</title>
<path fill="none" stroke="midnightblue" d="M639,-112.08C639,-105.01 639,-94.86 639,-85.99"/>
<polygon fill="midnightblue" stroke="midnightblue" points="642.5,-85.75 639,-75.75 635.5,-85.75 642.5,-85.75"/>
</g>
<!-- Node14 -->
<g id="node14" class="node">
<title>Node14</title>
<g id="a_node14"><a xlink:title=" ">
<polygon fill="white" stroke="#bfbfbf" points="0,-0.5 0,-19.5 52,-19.5 52,-0.5 0,-0.5"/>
<text text-anchor="middle" x="26" y="-7.5" font-family="Helvetica,sans-Serif" font-size="10.00">memory</text>
</a>
</g>
</g>
<!-- Node12&#45;&gt;Node14 -->
<g id="edge19" class="edge">
<title>Node12&#45;&gt;Node14</title>
<path fill="none" stroke="midnightblue" d="M590.65,-121.35C473.42,-121.52 177.25,-117.69 89,-76 66.88,-65.55 48.36,-43.77 37.25,-28.31"/>
<polygon fill="midnightblue" stroke="midnightblue" points="39.86,-25.92 31.32,-19.65 34.08,-29.88 39.86,-25.92"/>
</g>
<!-- Node15 -->
<g id="node15" class="node">
<title>Node15</title>
<g id="a_node15"><a xlink:title=" ">
<polygon fill="white" stroke="#bfbfbf" points="679,-56.5 679,-75.5 737,-75.5 737,-56.5 679,-56.5"/>
<text text-anchor="middle" x="708" y="-63.5" font-family="Helvetica,sans-Serif" font-size="10.00">functional</text>
</a>
</g>
</g>
<!-- Node12&#45;&gt;Node15 -->
<g id="edge20" class="edge">
<title>Node12&#45;&gt;Node15</title>
<path fill="none" stroke="midnightblue" d="M650.09,-112.32C660.49,-104.18 676.26,-91.84 688.72,-82.09"/>
<polygon fill="midnightblue" stroke="midnightblue" points="690.99,-84.75 696.71,-75.83 686.68,-79.24 690.99,-84.75"/>
</g>
<!-- Node16 -->
<g id="node16" class="node">
<title>Node16</title>
<g id="a_node16"><a xlink:title=" ">
<polygon fill="white" stroke="#bfbfbf" points="74,-0.5 74,-19.5 114,-19.5 114,-0.5 74,-0.5"/>
<text text-anchor="middle" x="94" y="-7.5" font-family="Helvetica,sans-Serif" font-size="10.00">utility</text>
</a>
</g>
</g>
<!-- Node12&#45;&gt;Node16 -->
<g id="edge21" class="edge">
<title>Node12&#45;&gt;Node16</title>
<path fill="none" stroke="midnightblue" d="M590.56,-120.32C465.29,-118.1 137.99,-109.16 103,-76 90.74,-64.39 89.66,-44.43 90.92,-29.69"/>
<polygon fill="midnightblue" stroke="midnightblue" points="94.41,-30.01 92.2,-19.65 87.47,-29.13 94.41,-30.01"/>
</g>
<!-- Node17 -->
<g id="node17" class="node">
<title>Node17</title>
<g id="a_node17"><a xlink:title=" ">
<polygon fill="white" stroke="#bfbfbf" points="755.5,-56.5 755.5,-75.5 834.5,-75.5 834.5,-56.5 755.5,-56.5"/>
<text text-anchor="middle" x="795" y="-63.5" font-family="Helvetica,sans-Serif" font-size="10.00">Ark/String.hpp</text>
</a>
</g>
</g>
<!-- Node12&#45;&gt;Node17 -->
<g id="edge22" class="edge">
<title>Node12&#45;&gt;Node17</title>
<path fill="none" stroke="midnightblue" d="M663.72,-112.44C689.85,-103.4 731.26,-89.06 760.58,-78.92"/>
<polygon fill="midnightblue" stroke="midnightblue" points="762.09,-82.1 770.4,-75.52 759.8,-75.48 762.09,-82.1"/>
</g>
<!-- Node18 -->
<g id="node18" class="node">
<title>Node18</title>
<g id="a_node18"><a xlink:title=" ">
<polygon fill="white" stroke="#bfbfbf" points="853,-56.5 853,-75.5 891,-75.5 891,-56.5 853,-56.5"/>
<text text-anchor="middle" x="872" y="-63.5" font-family="Helvetica,sans-Serif" font-size="10.00">array</text>
</a>
</g>
</g>
<!-- Node12&#45;&gt;Node18 -->
<g id="edge23" class="edge">
<title>Node12&#45;&gt;Node18</title>
<path fill="none" stroke="midnightblue" d="M682.63,-112.48C724.11,-104.12 788.13,-90.54 843,-76 843.1,-75.97 843.2,-75.95 843.3,-75.92"/>
<polygon fill="midnightblue" stroke="midnightblue" points="844.07,-79.34 852.72,-73.23 842.15,-72.61 844.07,-79.34"/>
</g>
<!-- Node19 -->
<g id="node19" class="node">
<title>Node19</title>
<g id="a_node19"><a xlink:href="../../dc/dd5/Closure_8hpp.html" target="_top" xlink:title="Subtype of the value type, handling closures.">
<polygon fill="white" stroke="black" points="121,-56.5 121,-75.5 225,-75.5 225,-56.5 121,-56.5"/>
<text text-anchor="middle" x="173" y="-63.5" font-family="Helvetica,sans-Serif" font-size="10.00">Ark/VM/Closure.hpp</text>
</a>
</g>
</g>
<!-- Node12&#45;&gt;Node19 -->
<g id="edge24" class="edge">
<title>Node12&#45;&gt;Node19</title>
<path fill="none" stroke="midnightblue" d="M590.93,-116.22C516.86,-108.74 370.14,-93.42 235.32,-76.13"/>
<polygon fill="midnightblue" stroke="midnightblue" points="235.59,-72.64 225.23,-74.83 234.7,-79.58 235.59,-72.64"/>
</g>
<!-- Node12&#45;&gt;Node20 -->
<g id="edge29" class="edge">
<title>Node12&#45;&gt;Node20</title>
<path fill="none" stroke="midnightblue" d="M687.28,-114.43C759.47,-104.61 895.47,-86.11 974.62,-75.35"/>
<polygon fill="midnightblue" stroke="midnightblue" points="975.49,-78.76 984.92,-73.95 974.54,-71.83 975.49,-78.76"/>
</g>
<!-- Node22 -->
<g id="node22" class="node">
<title>Node22</title>
<g id="a_node22"><a xlink:href="../../dc/d3d/UserType_8hpp.html" target="_top" xlink:title="Subtype of the value, capable of handling any C++ type.">
<polygon fill="white" stroke="black" points="243.5,-56.5 243.5,-75.5 356.5,-75.5 356.5,-56.5 243.5,-56.5"/>
<text text-anchor="middle" x="300" y="-63.5" font-family="Helvetica,sans-Serif" font-size="10.00">Ark/VM/UserType.hpp</text>
</a>
</g>
</g>
<!-- Node12&#45;&gt;Node22 -->
<g id="edge32" class="edge">
<title>Node12&#45;&gt;Node22</title>
<path fill="none" stroke="midnightblue" d="M590.79,-113.32C531.27,-103.84 429.86,-87.69 363.91,-77.18"/>
<polygon fill="midnightblue" stroke="midnightblue" points="364.06,-73.66 353.64,-75.54 362.96,-80.57 364.06,-73.66"/>
</g>
<!-- Node24 -->
<g id="node24" class="node">
<title>Node24</title>
<g id="a_node24"><a xlink:href="../../d0/dd2/Profiling_8hpp.html" target="_top" xlink:title=" ">
<polygon fill="white" stroke="black" points="413,-56.5 413,-75.5 501,-75.5 501,-56.5 413,-56.5"/>
<text text-anchor="middle" x="457" y="-63.5" font-family="Helvetica,sans-Serif" font-size="10.00">Ark/Profiling.hpp</text>
</a>
</g>
</g>
<!-- Node12&#45;&gt;Node24 -->
<g id="edge39" class="edge">
<title>Node12&#45;&gt;Node24</title>
<path fill="none" stroke="midnightblue" d="M610.16,-112.44C579.14,-103.24 529.67,-88.56 495.38,-78.39"/>
<polygon fill="midnightblue" stroke="midnightblue" points="496.29,-75.01 485.7,-75.52 494.29,-81.72 496.29,-75.01"/>
</g>
<!-- Node25 -->
<g id="node25" class="node">
<title>Node25</title>
<g id="a_node25"><a xlink:title=" ">
<polygon fill="white" stroke="#bfbfbf" points="519,-56.5 519,-75.5 599,-75.5 599,-56.5 519,-56.5"/>
<text text-anchor="middle" x="559" y="-63.5" font-family="Helvetica,sans-Serif" font-size="10.00">inline/Value.inl</text>
</a>
</g>
</g>
<!-- Node12&#45;&gt;Node25 -->
<g id="edge40" class="edge">
<title>Node12&#45;&gt;Node25</title>
<path fill="none" stroke="midnightblue" d="M626.15,-112.32C613.78,-103.98 594.87,-91.21 580.26,-81.35"/>
<polygon fill="midnightblue" stroke="midnightblue" points="582.07,-78.35 571.82,-75.65 578.15,-84.15 582.07,-78.35"/>
</g>
<!-- Node19&#45;&gt;Node3 -->
<g id="edge26" class="edge">
<title>Node19&#45;&gt;Node3</title>
<path fill="none" stroke="midnightblue" d="M225.21,-57.01C228.18,-56.64 231.13,-56.3 234,-56 493.15,-28.65 807.84,-15.68 906.73,-12.08"/>
<polygon fill="midnightblue" stroke="midnightblue" points="907.06,-15.57 916.93,-11.71 906.81,-8.57 907.06,-15.57"/>
</g>
<!-- Node19&#45;&gt;Node5 -->
<g id="edge27" class="edge">
<title>Node19&#45;&gt;Node5</title>
<path fill="none" stroke="midnightblue" d="M207.23,-56.44C246.7,-46.57 311.38,-30.41 352,-20.25"/>
<polygon fill="midnightblue" stroke="midnightblue" points="352.92,-23.63 361.77,-17.81 351.22,-16.84 352.92,-23.63"/>
</g>
<!-- Node19&#45;&gt;Node9 -->
<g id="edge28" class="edge">
<title>Node19&#45;&gt;Node9</title>
<path fill="none" stroke="midnightblue" d="M173.99,-56.08C174.79,-48.93 175.93,-38.64 176.92,-29.69"/>
<polygon fill="midnightblue" stroke="midnightblue" points="180.4,-30.08 178.03,-19.75 173.44,-29.3 180.4,-30.08"/>
</g>
<!-- Node19&#45;&gt;Node14 -->
<g id="edge25" class="edge">
<title>Node19&#45;&gt;Node14</title>
<path fill="none" stroke="midnightblue" d="M149.71,-56.44C125.19,-47.44 86.4,-33.19 58.8,-23.05"/>
<polygon fill="midnightblue" stroke="midnightblue" points="59.78,-19.68 49.18,-19.52 57.36,-26.25 59.78,-19.68"/>
</g>
<!-- Node20&#45;&gt;Node6 -->
<g id="edge31" class="edge">
<title>Node20&#45;&gt;Node6</title>
<path fill="none" stroke="midnightblue" d="M1064.36,-56.44C1097.15,-46.55 1150.91,-30.34 1184.55,-20.19"/>
<polygon fill="midnightblue" stroke="midnightblue" points="1185.74,-23.48 1194.3,-17.24 1183.72,-16.78 1185.74,-23.48"/>
</g>
<!-- Node21 -->
<g id="node21" class="node">
<title>Node21</title>
<g id="a_node21"><a xlink:title=" ">
<polygon fill="white" stroke="#bfbfbf" points="1006.5,-0.5 1006.5,-19.5 1065.5,-19.5 1065.5,-0.5 1006.5,-0.5"/>
<text text-anchor="middle" x="1036" y="-7.5" font-family="Helvetica,sans-Serif" font-size="10.00">exception</text>
</a>
</g>
</g>
<!-- Node20&#45;&gt;Node21 -->
<g id="edge30" class="edge">
<title>Node20&#45;&gt;Node21</title>
<path fill="none" stroke="midnightblue" d="M1036,-56.08C1036,-49.01 1036,-38.86 1036,-29.99"/>
<polygon fill="midnightblue" stroke="midnightblue" points="1039.5,-29.75 1036,-19.75 1032.5,-29.75 1039.5,-29.75"/>
</g>
<!-- Node22&#45;&gt;Node3 -->
<g id="edge34" class="edge">
<title>Node22&#45;&gt;Node3</title>
<path fill="none" stroke="midnightblue" d="M356.67,-60.07C372.03,-58.74 388.65,-57.31 404,-56 594.96,-39.69 824.37,-20.49 906.7,-13.61"/>
<polygon fill="midnightblue" stroke="midnightblue" points="907.21,-17.08 916.88,-12.76 906.63,-10.11 907.21,-17.08"/>
</g>
<!-- Node22&#45;&gt;Node5 -->
<g id="edge33" class="edge">
<title>Node22&#45;&gt;Node5</title>
<path fill="none" stroke="midnightblue" d="M314.3,-56.32C328.18,-47.9 349.49,-34.97 365.8,-25.07"/>
<polygon fill="midnightblue" stroke="midnightblue" points="368,-27.83 374.74,-19.65 364.37,-21.85 368,-27.83"/>
</g>
<!-- Node22&#45;&gt;Node9 -->
<g id="edge36" class="edge">
<title>Node22&#45;&gt;Node9</title>
<path fill="none" stroke="midnightblue" d="M280.83,-56.44C261.09,-47.64 230.11,-33.81 207.51,-23.72"/>
<polygon fill="midnightblue" stroke="midnightblue" points="208.64,-20.4 198.08,-19.52 205.79,-26.79 208.64,-20.4"/>
</g>
<!-- Node22&#45;&gt;Node16 -->
<g id="edge35" class="edge">
<title>Node22&#45;&gt;Node16</title>
<path fill="none" stroke="midnightblue" d="M265.38,-56.43C230.02,-47.6 173.56,-33.29 125,-20 124.68,-19.91 124.35,-19.82 124.02,-19.73"/>
<polygon fill="midnightblue" stroke="midnightblue" points="124.89,-16.34 114.32,-17 122.99,-23.08 124.89,-16.34"/>
</g>
<!-- Node23 -->
<g id="node23" class="node">
<title>Node23</title>
<g id="a_node23"><a xlink:title=" ">
<polygon fill="white" stroke="#bfbfbf" points="248,-0.5 248,-19.5 344,-19.5 344,-0.5 248,-0.5"/>
<text text-anchor="middle" x="296" y="-7.5" font-family="Helvetica,sans-Serif" font-size="10.00">inline/UserType.inl</text>
</a>
</g>
</g>
<!-- Node22&#45;&gt;Node23 -->
<g id="edge37" class="edge">
<title>Node22&#45;&gt;Node23</title>
<path fill="none" stroke="midnightblue" d="M299.34,-56.08C298.82,-49.01 298.06,-38.86 297.41,-29.99"/>
<polygon fill="midnightblue" stroke="midnightblue" points="300.88,-29.47 296.65,-19.75 293.9,-29.98 300.88,-29.47"/>
</g>
<!-- Node26&#45;&gt;Node3 -->
<g id="edge48" class="edge">
<title>Node26&#45;&gt;Node3</title>
<path fill="none" stroke="midnightblue" d="M1474.2,-116.63C1417.29,-109.61 1304.6,-94.71 1210,-76 1173.62,-68.81 1165.05,-64.7 1129,-56 1072.7,-42.42 1006.93,-27.03 969.11,-18.22"/>
<polygon fill="midnightblue" stroke="midnightblue" points="969.75,-14.78 959.22,-15.92 968.16,-21.6 969.75,-14.78"/>
</g>
<!-- Node26&#45;&gt;Node4 -->
<g id="edge46" class="edge">
<title>Node26&#45;&gt;Node4</title>
<path fill="none" stroke="midnightblue" d="M1547.64,-117.11C1595.02,-111.23 1673.56,-98.34 1691,-76 1723.69,-34.14 1629.06,-18.79 1574.94,-13.53"/>
<polygon fill="midnightblue" stroke="midnightblue" points="1574.98,-10.02 1564.71,-12.61 1574.35,-16.99 1574.98,-10.02"/>
</g>
<!-- Node26&#45;&gt;Node5 -->
<g id="edge44" class="edge">
<title>Node26&#45;&gt;Node5</title>
<path fill="none" stroke="midnightblue" d="M1474.32,-121.78C1404.9,-122.16 1250.41,-117.73 1129,-76 1112.78,-70.43 1112.36,-61.14 1096,-56 969.31,-16.22 553.34,-11.53 426.23,-11.04"/>
<polygon fill="midnightblue" stroke="midnightblue" points="426.22,-7.54 416.21,-11.01 426.2,-14.54 426.22,-7.54"/>
</g>
<!-- Node26&#45;&gt;Node6 -->
<g id="edge43" class="edge">
<title>Node26&#45;&gt;Node6</title>
<path fill="none" stroke="midnightblue" d="M1498.34,-112.41C1477.6,-98.68 1434.69,-71.76 1395,-56 1344.32,-35.88 1281.95,-22.69 1245.52,-16.07"/>
<polygon fill="midnightblue" stroke="midnightblue" points="1245.98,-12.59 1235.52,-14.3 1244.76,-19.49 1245.98,-12.59"/>
</g>
<!-- Node27 -->
<g id="node27" class="node">
<title>Node27</title>
<g id="a_node27"><a xlink:title=" ">
<polygon fill="white" stroke="#bfbfbf" points="1481.5,-56.5 1481.5,-75.5 1540.5,-75.5 1540.5,-56.5 1481.5,-56.5"/>
<text text-anchor="middle" x="1511" y="-63.5" font-family="Helvetica,sans-Serif" font-size="10.00">streambuf</text>
</a>
</g>
</g>
<!-- Node26&#45;&gt;Node27 -->
<g id="edge45" class="edge">
<title>Node26&#45;&gt;Node27</title>
<path fill="none" stroke="midnightblue" d="M1511,-112.08C1511,-105.01 1511,-94.86 1511,-85.99"/>
<polygon fill="midnightblue" stroke="midnightblue" points="1514.5,-85.75 1511,-75.75 1507.5,-85.75 1514.5,-85.75"/>
</g>
<!-- Node28 -->
<g id="node28" class="node">
<title>Node28</title>
<g id="a_node28"><a xlink:title=" ">
<polygon fill="white" stroke="#bfbfbf" points="1558.5,-56.5 1558.5,-75.5 1619.5,-75.5 1619.5,-56.5 1558.5,-56.5"/>
<text text-anchor="middle" x="1589" y="-63.5" font-family="Helvetica,sans-Serif" font-size="10.00">filesystem</text>
</a>
</g>
</g>
<!-- Node26&#45;&gt;Node28 -->
<g id="edge47" class="edge">
<title>Node26&#45;&gt;Node28</title>
<path fill="none" stroke="midnightblue" d="M1523.53,-112.32C1535.59,-103.98 1554.03,-91.21 1568.27,-81.35"/>
<polygon fill="midnightblue" stroke="midnightblue" points="1570.27,-84.22 1576.5,-75.65 1566.28,-78.47 1570.27,-84.22"/>
</g>
<!-- Node29 -->
<g id="node29" class="node">
<title>Node29</title>
<g id="a_node29"><a xlink:title=" ">
<polygon fill="white" stroke="#bfbfbf" points="1638,-56.5 1638,-75.5 1682,-75.5 1682,-56.5 1638,-56.5"/>
<text text-anchor="middle" x="1660" y="-63.5" font-family="Helvetica,sans-Serif" font-size="10.00">cmath</text>
</a>
</g>
</g>
<!-- Node26&#45;&gt;Node29 -->
<g id="edge49" class="edge">
<title>Node26&#45;&gt;Node29</title>
<path fill="none" stroke="midnightblue" d="M1534.61,-112.44C1559.9,-103.28 1600.17,-88.68 1628.22,-78.52"/>
<polygon fill="midnightblue" stroke="midnightblue" points="1629.75,-81.69 1637.96,-74.99 1627.36,-75.11 1629.75,-81.69"/>
</g>
<!-- Node30 -->
<g id="node30" class="node">
<title>Node30</title>
<g id="a_node30"><a xlink:href="../../d6/de9/Constants_8hpp.html" target="_top" xlink:title="Constants used by ArkScript.">
<polygon fill="white" stroke="black" points="1738,-56.5 1738,-75.5 1836,-75.5 1836,-56.5 1738,-56.5"/>
<text text-anchor="middle" x="1787" y="-63.5" font-family="Helvetica,sans-Serif" font-size="10.00">Ark/Constants.hpp</text>
</a>
</g>
</g>
<!-- Node26&#45;&gt;Node30 -->
<g id="edge50" class="edge">
<title>Node26&#45;&gt;Node30</title>
<path fill="none" stroke="midnightblue" d="M1547.65,-113.83C1595.28,-104.51 1678.79,-88.17 1733.5,-77.47"/>
<polygon fill="midnightblue" stroke="midnightblue" points="1734.22,-80.89 1743.37,-75.54 1732.88,-74.02 1734.22,-80.89"/>
</g>
<!-- Node30&#45;&gt;Node7 -->
<g id="edge51" class="edge">
<title>Node30&#45;&gt;Node7</title>
<path fill="none" stroke="midnightblue" d="M1772.86,-56.32C1759.13,-47.9 1738.06,-34.97 1721.94,-25.07"/>
<polygon fill="midnightblue" stroke="midnightblue" points="1723.46,-21.9 1713.1,-19.65 1719.8,-27.87 1723.46,-21.9"/>
</g>
</g>
</svg>
        <g id="navigator" transform="translate(0 0)" fill="#404254">
                <rect fill="#f2f5e9" fill-opacity="0.5" stroke="#606060" stroke-width=".5" x="0" y="0" width="60" height="60"/>
                <use id="zoomplus" xlink:href="#zoomPlus" x="17" y="9" onmousedown="handleZoom(evt,'in')"/>
                <use id="zoomminus" xlink:href="#zoomMin" x="42" y="9" onmousedown="handleZoom(evt,'out')"/>
                <use id="reset" xlink:href="#resetDef" x="30" y="36" onmousedown="handleReset()"/>
                <g id="arrowUp" xlink:href="#dirArrow" transform="translate(30 24)" onmousedown="handlePan(0,-1)">
                  <use xlink:href="#rim" fill="#404040">
                        <set attributeName="fill" to="#808080" begin="arrowUp.mouseover" end="arrowUp.mouseout"/>
                  </use>
                  <path fill="none" stroke="white" stroke-width="1.5" d="M0,-3.0v7 M-2.5,-0.5L0,-3.0L2.5,-0.5"/>
                </g>
                <g id="arrowRight" xlink:href="#dirArrow" transform="rotate(90) translate(36 -43)" onmousedown="handlePan(1,0)">
                  <use xlink:href="#rim" fill="#404040">
                        <set attributeName="fill" to="#808080" begin="arrowRight.mouseover" end="arrowRight.mouseout"/>
                  </use>
                  <path fill="none" stroke="white" stroke-width="1.5" d="M0,-3.0v7 M-2.5,-0.5L0,-3.0L2.5,-0.5"/>
                </g>
                <g id="arrowDown" xlink:href="#dirArrow" transform="rotate(180) translate(-30 -48)" onmousedown="handlePan(0,1)">
                  <use xlink:href="#rim" fill="#404040">
                        <set attributeName="fill" to="#808080" begin="arrowDown.mouseover" end="arrowDown.mouseout"/>
                  </use>
                  <path fill="none" stroke="white" stroke-width="1.5" d="M0,-3.0v7 M-2.5,-0.5L0,-3.0L2.5,-0.5"/>
                </g>
                <g id="arrowLeft" xlink:href="#dirArrow" transform="rotate(270) translate(-36 17)" onmousedown="handlePan(-1,0)">
                  <use xlink:href="#rim" fill="#404040">
                        <set attributeName="fill" to="#808080" begin="arrowLeft.mouseover" end="arrowLeft.mouseout"/>
                  </use>
                  <path fill="none" stroke="white" stroke-width="1.5" d="M0,-3.0v7 M-2.5,-0.5L0,-3.0L2.5,-0.5"/>
                </g>
        </g>
        <svg viewBox="0 0 15 15" width="100%" height="30px" preserveAspectRatio="xMaxYMin meet">
         <g id="arrow_out" transform="scale(0.3 0.3)">
          <a xlink:href="BytecodeReader_8cpp__incl_org.svg" target="_base">
           <rect id="button" ry="5" rx="5" y="6" x="6" height="38" width="38"
                fill="#f2f5e9" fill-opacity="0.5" stroke="#606060" stroke-width="1.0"/>
           <path id="arrow"
             d="M 11.500037,31.436501 C 11.940474,20.09759 22.043105,11.32322 32.158766,21.979434 L 37.068811,17.246167 C 37.068811,17.246167 37.088388,32 37.088388,32 L 22.160133,31.978069 C 22.160133,31.978069 26.997745,27.140456 26.997745,27.140456 C 18.528582,18.264221 13.291696,25.230495 11.500037,31.436501 z"
             style="fill:#404040;"/>
          </a>
         </g>
        </svg>
</svg>
