<?xml version="1.0" encoding="UTF-8" standalone="no"?>
<!DOCTYPE svg PUBLIC "-//W3C//DTD SVG 1.1//EN"
 "http://www.w3.org/Graphics/SVG/1.1/DTD/svg11.dtd">
<!-- Generated by graphviz version 2.49.0 (20210828.1703)
 -->
<!-- Title: C:/Users/folae/Documents/Code/Big&#45;Projects/ArkScript/Ark/src/arkreactor/Compiler/BytecodeReader.cpp Pages: 1 -->
<svg width="1810pt" height="341pt"
 viewBox="0.00 0.00 1809.60 341.00" xmlns="http://www.w3.org/2000/svg" xmlns:xlink="http://www.w3.org/1999/xlink">
<g id="graph0" class="graph" transform="scale(1 1) rotate(0) translate(4 337)">
<title>C:/Users/folae/Documents/Code/Big&#45;Projects/ArkScript/Ark/src/arkreactor/Compiler/BytecodeReader.cpp</title>
<polygon fill="white" stroke="transparent" points="-4,4 -4,-337 1805.6,-337 1805.6,4 -4,4"/>
<!-- Node1 -->
<g id="node1" class="node">
<title>Node1</title>
<g id="a_node1"><a xlink:title=" ">
<polygon fill="#bfbfbf" stroke="black" points="1431.1,-280.5 1431.1,-332.5 1573.1,-332.5 1573.1,-280.5 1431.1,-280.5"/>
<text text-anchor="start" x="1439.1" y="-320.5" font-family="Helvetica,sans-Serif" font-size="10.00">C:/Users/folae/Documents</text>
<text text-anchor="start" x="1439.1" y="-309.5" font-family="Helvetica,sans-Serif" font-size="10.00">/Code/Big&#45;Projects/ArkScript</text>
<text text-anchor="start" x="1439.1" y="-298.5" font-family="Helvetica,sans-Serif" font-size="10.00">/Ark/src/arkreactor/Compiler</text>
<text text-anchor="middle" x="1502.1" y="-287.5" font-family="Helvetica,sans-Serif" font-size="10.00">/BytecodeReader.cpp</text>
</a>
</g>
</g>
<!-- Node2 -->
<g id="node2" class="node">
<title>Node2</title>
<g id="a_node2"><a xlink:href="../../d1/d84/BytecodeReader_8hpp.html" target="_top" xlink:title="A bytecode disassembler for ArkScript.">
<polygon fill="white" stroke="black" points="1157.6,-112.5 1157.6,-131.5 1324.6,-131.5 1324.6,-112.5 1157.6,-112.5"/>
<text text-anchor="middle" x="1241.1" y="-119.5" font-family="Helvetica,sans-Serif" font-size="10.00">Ark/Compiler/BytecodeReader.hpp</text>
</a>
</g>
</g>
<!-- Node1&#45;&gt;Node2 -->
<g id="edge1" class="edge">
<title>Node1&#45;&gt;Node2</title>
<path fill="none" stroke="midnightblue" d="M1466.08,-280.32C1410.61,-241.53 1306.05,-168.42 1261.76,-137.45"/>
<polygon fill="midnightblue" stroke="midnightblue" points="1263.7,-134.53 1253.5,-131.67 1259.69,-140.27 1263.7,-134.53"/>
</g>
<!-- Node13 -->
<g id="node13" class="node">
<title>Node13</title>
<g id="a_node13"><a xlink:href="../../d8/daa/Instructions_8hpp.html" target="_top" xlink:title="The different instructions used by the compiler and virtual machine.">
<polygon fill="white" stroke="black" points="1656.6,-168.5 1656.6,-187.5 1801.6,-187.5 1801.6,-168.5 1656.6,-168.5"/>
<text text-anchor="middle" x="1729.1" y="-175.5" font-family="Helvetica,sans-Serif" font-size="10.00">Ark/Compiler/Instructions.hpp</text>
</a>
</g>
</g>
<!-- Node1&#45;&gt;Node13 -->
<g id="edge14" class="edge">
<title>Node1&#45;&gt;Node13</title>
<path fill="none" stroke="midnightblue" d="M1507.99,-280.12C1513.53,-261.88 1523.66,-238.1 1541.1,-224 1570.69,-200.09 1610.93,-188.53 1646.59,-183.07"/>
<polygon fill="midnightblue" stroke="midnightblue" points="1647.09,-186.54 1656.51,-181.69 1646.13,-179.6 1647.09,-186.54"/>
</g>
<!-- Node14 -->
<g id="node14" class="node">
<title>Node14</title>
<g id="a_node14"><a xlink:href="../../da/d84/Builtins_8hpp.html" target="_top" xlink:title="Host the declaration of all the ArkScript builtins.">
<polygon fill="white" stroke="black" points="829.6,-224.5 829.6,-243.5 950.6,-243.5 950.6,-224.5 829.6,-224.5"/>
<text text-anchor="middle" x="890.1" y="-231.5" font-family="Helvetica,sans-Serif" font-size="10.00">Ark/Builtins/Builtins.hpp</text>
</a>
</g>
</g>
<!-- Node1&#45;&gt;Node14 -->
<g id="edge16" class="edge">
<title>Node1&#45;&gt;Node14</title>
<path fill="none" stroke="midnightblue" d="M1431,-297.31C1313.01,-283.72 1078.15,-256.66 960.58,-243.12"/>
<polygon fill="midnightblue" stroke="midnightblue" points="960.94,-239.64 950.6,-241.97 960.14,-246.59 960.94,-239.64"/>
</g>
<!-- Node28 -->
<g id="node28" class="node">
<title>Node28</title>
<g id="a_node28"><a xlink:href="../../d7/d09/Utils_8hpp.html" target="_top" xlink:title="Lots of utilities about string, filesystem and more.">
<polygon fill="white" stroke="black" points="1515.6,-112.5 1515.6,-131.5 1588.6,-131.5 1588.6,-112.5 1515.6,-112.5"/>
<text text-anchor="middle" x="1552.1" y="-119.5" font-family="Helvetica,sans-Serif" font-size="10.00">Ark/Utils.hpp</text>
</a>
</g>
</g>
<!-- Node1&#45;&gt;Node28 -->
<g id="edge49" class="edge">
<title>Node1&#45;&gt;Node28</title>
<path fill="none" stroke="midnightblue" d="M1507.04,-280.39C1510.37,-264.2 1515.07,-242.75 1520.1,-224 1527.94,-194.77 1538.92,-161.39 1545.77,-141.27"/>
<polygon fill="midnightblue" stroke="midnightblue" points="1549.16,-142.16 1549.1,-131.57 1542.54,-139.89 1549.16,-142.16"/>
</g>
<!-- Node32 -->
<g id="node32" class="node">
<title>Node32</title>
<g id="a_node32"><a xlink:title=" ">
<polygon fill="white" stroke="#bfbfbf" points="1549.6,-224.5 1549.6,-243.5 1668.6,-243.5 1668.6,-224.5 1549.6,-224.5"/>
<text text-anchor="middle" x="1609.1" y="-231.5" font-family="Helvetica,sans-Serif" font-size="10.00">termcolor/termcolor.hpp</text>
</a>
</g>
</g>
<!-- Node1&#45;&gt;Node32 -->
<g id="edge58" class="edge">
<title>Node1&#45;&gt;Node32</title>
<path fill="none" stroke="midnightblue" d="M1540.13,-280.45C1556.04,-269.96 1573.95,-258.16 1587.53,-249.22"/>
<polygon fill="midnightblue" stroke="midnightblue" points="1589.74,-251.95 1596.16,-243.53 1585.88,-246.11 1589.74,-251.95"/>
</g>
<!-- Node33 -->
<g id="node33" class="node">
<title>Node33</title>
<g id="a_node33"><a xlink:title=" ">
<polygon fill="white" stroke="#bfbfbf" points="1687.1,-224.5 1687.1,-243.5 1751.1,-243.5 1751.1,-224.5 1687.1,-224.5"/>
<text text-anchor="middle" x="1719.1" y="-231.5" font-family="Helvetica,sans-Serif" font-size="10.00">picosha2.h</text>
</a>
</g>
</g>
<!-- Node1&#45;&gt;Node33 -->
<g id="edge59" class="edge">
<title>Node1&#45;&gt;Node33</title>
<path fill="none" stroke="midnightblue" d="M1573.16,-282.42C1610.03,-270.44 1653.47,-256.32 1683.32,-246.63"/>
<polygon fill="midnightblue" stroke="midnightblue" points="1684.46,-249.94 1692.89,-243.52 1682.29,-243.28 1684.46,-249.94"/>
</g>
<!-- Node3 -->
<g id="node3" class="node">
<title>Node3</title>
<g id="a_node3"><a xlink:title=" ">
<polygon fill="white" stroke="#bfbfbf" points="898.1,-0.5 898.1,-19.5 940.1,-19.5 940.1,-0.5 898.1,-0.5"/>
<text text-anchor="middle" x="919.1" y="-7.5" font-family="Helvetica,sans-Serif" font-size="10.00">vector</text>
</a>
</g>
</g>
<!-- Node2&#45;&gt;Node3 -->
<g id="edge2" class="edge">
<title>Node2&#45;&gt;Node3</title>
<path fill="none" stroke="midnightblue" d="M1233.58,-112.2C1220.84,-97.91 1193.52,-69.9 1164.1,-56 1092.67,-22.25 998.42,-13.75 950.3,-11.65"/>
<polygon fill="midnightblue" stroke="midnightblue" points="950.33,-8.15 940.2,-11.28 950.07,-15.15 950.33,-8.15"/>
</g>
<!-- Node4 -->
<g id="node4" class="node">
<title>Node4</title>
<g id="a_node4"><a xlink:title=" ">
<polygon fill="white" stroke="#bfbfbf" points="1474.6,-56.5 1474.6,-75.5 1523.6,-75.5 1523.6,-56.5 1474.6,-56.5"/>
<text text-anchor="middle" x="1499.1" y="-63.5" font-family="Helvetica,sans-Serif" font-size="10.00">fstream</text>
</a>
</g>
</g>
<!-- Node2&#45;&gt;Node4 -->
<g id="edge3" class="edge">
<title>Node2&#45;&gt;Node4</title>
<path fill="none" stroke="midnightblue" d="M1284.38,-112.43C1328.61,-103.59 1399.23,-89.27 1460.1,-76 1461.54,-75.69 1463.02,-75.36 1464.5,-75.03"/>
<polygon fill="midnightblue" stroke="midnightblue" points="1465.38,-78.42 1474.36,-72.8 1463.84,-71.59 1465.38,-78.42"/>
</g>
<!-- Node5 -->
<g id="node5" class="node">
<title>Node5</title>
<g id="a_node5"><a xlink:title=" ">
<polygon fill="white" stroke="#bfbfbf" points="797.1,-0.5 797.1,-19.5 851.1,-19.5 851.1,-0.5 797.1,-0.5"/>
<text text-anchor="middle" x="824.1" y="-7.5" font-family="Helvetica,sans-Serif" font-size="10.00">iostream</text>
</a>
</g>
</g>
<!-- Node2&#45;&gt;Node5 -->
<g id="edge4" class="edge">
<title>Node2&#45;&gt;Node5</title>
<path fill="none" stroke="midnightblue" d="M1226.43,-112.31C1197.87,-95.45 1136.67,-59.64 1126.1,-56 1113.68,-51.73 939.51,-27.1 861.46,-16.2"/>
<polygon fill="midnightblue" stroke="midnightblue" points="861.5,-12.67 851.11,-14.75 860.53,-19.6 861.5,-12.67"/>
</g>
<!-- Node6 -->
<g id="node6" class="node">
<title>Node6</title>
<g id="a_node6"><a xlink:title=" ">
<polygon fill="white" stroke="#bfbfbf" points="1042.6,-56.5 1042.6,-75.5 1083.6,-75.5 1083.6,-56.5 1042.6,-56.5"/>
<text text-anchor="middle" x="1063.1" y="-63.5" font-family="Helvetica,sans-Serif" font-size="10.00">string</text>
</a>
</g>
</g>
<!-- Node2&#45;&gt;Node6 -->
<g id="edge5" class="edge">
<title>Node2&#45;&gt;Node6</title>
<path fill="none" stroke="midnightblue" d="M1212.9,-112.44C1180.29,-102.55 1126.84,-86.34 1093.38,-76.19"/>
<polygon fill="midnightblue" stroke="midnightblue" points="1094.27,-72.8 1083.68,-73.24 1092.24,-79.5 1094.27,-72.8"/>
</g>
<!-- Node7 -->
<g id="node7" class="node">
<title>Node7</title>
<g id="a_node7"><a xlink:title=" ">
<polygon fill="white" stroke="#bfbfbf" points="1418.1,-0.5 1418.1,-19.5 1474.1,-19.5 1474.1,-0.5 1418.1,-0.5"/>
<text text-anchor="middle" x="1446.1" y="-7.5" font-family="Helvetica,sans-Serif" font-size="10.00">cinttypes</text>
</a>
</g>
</g>
<!-- Node2&#45;&gt;Node7 -->
<g id="edge6" class="edge">
<title>Node2&#45;&gt;Node7</title>
<path fill="none" stroke="midnightblue" d="M1304.89,-112.49C1351.52,-105.02 1409.55,-92.74 1427.1,-76 1439.59,-64.09 1444,-44.47 1445.5,-29.9"/>
<polygon fill="midnightblue" stroke="midnightblue" points="1449.01,-29.74 1446.17,-19.54 1442.03,-29.29 1449.01,-29.74"/>
</g>
<!-- Node8 -->
<g id="node8" class="node">
<title>Node8</title>
<g id="a_node8"><a xlink:title=" ">
<polygon fill="white" stroke="#bfbfbf" points="1216.1,-56.5 1216.1,-75.5 1266.1,-75.5 1266.1,-56.5 1216.1,-56.5"/>
<text text-anchor="middle" x="1241.1" y="-63.5" font-family="Helvetica,sans-Serif" font-size="10.00">optional</text>
</a>
</g>
</g>
<!-- Node2&#45;&gt;Node8 -->
<g id="edge7" class="edge">
<title>Node2&#45;&gt;Node8</title>
<path fill="none" stroke="midnightblue" d="M1241.1,-112.08C1241.1,-105.01 1241.1,-94.86 1241.1,-85.99"/>
<polygon fill="midnightblue" stroke="midnightblue" points="1244.6,-85.75 1241.1,-75.75 1237.6,-85.75 1244.6,-85.75"/>
</g>
<!-- Node9 -->
<g id="node9" class="node">
<title>Node9</title>
<g id="a_node9"><a xlink:href="../../d5/d40/Platform_8hpp.html" target="_top" xlink:title="ArkScript configuration macros.">
<polygon fill="white" stroke="black" points="653.6,-0.5 653.6,-19.5 742.6,-19.5 742.6,-0.5 653.6,-0.5"/>
<text text-anchor="middle" x="698.1" y="-7.5" font-family="Helvetica,sans-Serif" font-size="10.00">Ark/Platform.hpp</text>
</a>
</g>
</g>
<!-- Node2&#45;&gt;Node9 -->
<g id="edge8" class="edge">
<title>Node2&#45;&gt;Node9</title>
<path fill="none" stroke="midnightblue" d="M1215.44,-112.39C1191.77,-104.11 1155.89,-90.72 1126.1,-76 1110.73,-68.4 1109.33,-61.54 1093.1,-56 1077.22,-50.58 857.41,-27.41 752.75,-16.6"/>
<polygon fill="midnightblue" stroke="midnightblue" points="753,-13.11 742.69,-15.56 752.28,-20.07 753,-13.11"/>
</g>
<!-- Node10 -->
<g id="node10" class="node">
<title>Node10</title>
<g id="a_node10"><a xlink:href="../../d8/ddd/Common_8hpp.html" target="_top" xlink:title="Common code for the compiler.">
<polygon fill="white" stroke="black" points="1284.1,-56.5 1284.1,-75.5 1418.1,-75.5 1418.1,-56.5 1284.1,-56.5"/>
<text text-anchor="middle" x="1351.1" y="-63.5" font-family="Helvetica,sans-Serif" font-size="10.00">Ark/Compiler/Common.hpp</text>
</a>
</g>
</g>
<!-- Node2&#45;&gt;Node10 -->
<g id="edge9" class="edge">
<title>Node2&#45;&gt;Node10</title>
<path fill="none" stroke="midnightblue" d="M1258.78,-112.32C1276.5,-103.62 1304,-90.12 1324.39,-80.11"/>
<polygon fill="midnightblue" stroke="midnightblue" points="1326.04,-83.2 1333.47,-75.65 1322.95,-76.92 1326.04,-83.2"/>
</g>
<!-- Node10&#45;&gt;Node3 -->
<g id="edge12" class="edge">
<title>Node10&#45;&gt;Node3</title>
<path fill="none" stroke="midnightblue" d="M1284.08,-56.62C1189.37,-44.78 1020.16,-23.63 950.44,-14.92"/>
<polygon fill="midnightblue" stroke="midnightblue" points="950.49,-11.4 940.14,-13.63 949.62,-18.34 950.49,-11.4"/>
</g>
<!-- Node10&#45;&gt;Node7 -->
<g id="edge13" class="edge">
<title>Node10&#45;&gt;Node7</title>
<path fill="none" stroke="midnightblue" d="M1366.37,-56.32C1381.32,-47.82 1404.36,-34.73 1421.83,-24.8"/>
<polygon fill="midnightblue" stroke="midnightblue" points="1423.91,-27.64 1430.88,-19.65 1420.45,-21.55 1423.91,-27.64"/>
</g>
<!-- Node11 -->
<g id="node11" class="node">
<title>Node11</title>
<g id="a_node11"><a xlink:title=" ">
<polygon fill="white" stroke="#bfbfbf" points="1110.1,-0.5 1110.1,-19.5 1148.1,-19.5 1148.1,-0.5 1110.1,-0.5"/>
<text text-anchor="middle" x="1129.1" y="-7.5" font-family="Helvetica,sans-Serif" font-size="10.00">array</text>
</a>
</g>
</g>
<!-- Node10&#45;&gt;Node11 -->
<g id="edge10" class="edge">
<title>Node10&#45;&gt;Node11</title>
<path fill="none" stroke="midnightblue" d="M1315.93,-56.44C1272.29,-45.83 1198.7,-27.93 1158.12,-18.06"/>
<polygon fill="midnightblue" stroke="midnightblue" points="1158.86,-14.64 1148.32,-15.67 1157.21,-21.44 1158.86,-14.64"/>
</g>
<!-- Node12 -->
<g id="node12" class="node">
<title>Node12</title>
<g id="a_node12"><a xlink:title=" ">
<polygon fill="white" stroke="#bfbfbf" points="1319.1,-0.5 1319.1,-19.5 1383.1,-19.5 1383.1,-0.5 1319.1,-0.5"/>
<text text-anchor="middle" x="1351.1" y="-7.5" font-family="Helvetica,sans-Serif" font-size="10.00">string_view</text>
</a>
</g>
</g>
<!-- Node10&#45;&gt;Node12 -->
<g id="edge11" class="edge">
<title>Node10&#45;&gt;Node12</title>
<path fill="none" stroke="midnightblue" d="M1351.1,-56.08C1351.1,-49.01 1351.1,-38.86 1351.1,-29.99"/>
<polygon fill="midnightblue" stroke="midnightblue" points="1354.6,-29.75 1351.1,-19.75 1347.6,-29.75 1354.6,-29.75"/>
</g>
<!-- Node13&#45;&gt;Node7 -->
<g id="edge15" class="edge">
<title>Node13&#45;&gt;Node7</title>
<path fill="none" stroke="midnightblue" d="M1739.19,-168.47C1763,-147.35 1818.43,-91.73 1787.1,-56 1767.36,-33.48 1569.11,-18.62 1484.28,-13.24"/>
<polygon fill="midnightblue" stroke="midnightblue" points="1484.48,-9.75 1474.28,-12.62 1484.05,-16.74 1484.48,-9.75"/>
</g>
<!-- Node14&#45;&gt;Node3 -->
<g id="edge17" class="edge">
<title>Node14&#45;&gt;Node3</title>
<path fill="none" stroke="midnightblue" d="M895.09,-224.37C899.91,-215.56 906.92,-201.3 910.1,-188 923.54,-131.76 922.1,-62.71 920.38,-29.96"/>
<polygon fill="midnightblue" stroke="midnightblue" points="923.85,-29.4 919.76,-19.63 916.87,-29.82 923.85,-29.4"/>
</g>
<!-- Node15 -->
<g id="node15" class="node">
<title>Node15</title>
<g id="a_node15"><a xlink:href="../../de/dfd/Value_8hpp.html" target="_top" xlink:title=" ">
<polygon fill="white" stroke="black" points="528.1,-112.5 528.1,-131.5 624.1,-131.5 624.1,-112.5 528.1,-112.5"/>
<text text-anchor="middle" x="576.1" y="-119.5" font-family="Helvetica,sans-Serif" font-size="10.00">Ark/VM/Value.hpp</text>
</a>
</g>
</g>
<!-- Node14&#45;&gt;Node15 -->
<g id="edge18" class="edge">
<title>Node14&#45;&gt;Node15</title>
<path fill="none" stroke="midnightblue" d="M865.72,-224.46C810.19,-205.01 674.17,-157.36 610.29,-134.98"/>
<polygon fill="midnightblue" stroke="midnightblue" points="611.28,-131.61 600.68,-131.61 608.96,-138.22 611.28,-131.61"/>
</g>
<!-- Node25 -->
<g id="node25" class="node">
<title>Node25</title>
<g id="a_node25"><a xlink:href="../../d2/de9/Exceptions_8hpp.html" target="_top" xlink:title="ArkScript homemade exceptions.">
<polygon fill="white" stroke="black" points="799.1,-168.5 799.1,-187.5 901.1,-187.5 901.1,-168.5 799.1,-168.5"/>
<text text-anchor="middle" x="850.1" y="-175.5" font-family="Helvetica,sans-Serif" font-size="10.00">Ark/Exceptions.hpp</text>
</a>
</g>
</g>
<!-- Node14&#45;&gt;Node25 -->
<g id="edge43" class="edge">
<title>Node14&#45;&gt;Node25</title>
<path fill="none" stroke="midnightblue" d="M883.5,-224.08C877.85,-216.46 869.56,-205.26 862.65,-195.94"/>
<polygon fill="midnightblue" stroke="midnightblue" points="865.35,-193.7 856.58,-187.75 859.72,-197.87 865.35,-193.7"/>
</g>
<!-- Node15&#45;&gt;Node3 -->
<g id="edge19" class="edge">
<title>Node15&#45;&gt;Node3</title>
<path fill="none" stroke="midnightblue" d="M624.14,-118.36C675.56,-114.18 758.72,-103.43 825.1,-76 854.57,-63.82 884.08,-41.32 901.97,-26.25"/>
<polygon fill="midnightblue" stroke="midnightblue" points="904.48,-28.71 909.77,-19.53 899.91,-23.41 904.48,-28.71"/>
</g>
<!-- Node15&#45;&gt;Node5 -->
<g id="edge23" class="edge">
<title>Node15&#45;&gt;Node5</title>
<path fill="none" stroke="midnightblue" d="M624.29,-117.35C683.47,-111.91 779.19,-99.67 805.1,-76 817.97,-64.25 822.3,-44.31 823.68,-29.61"/>
<polygon fill="midnightblue" stroke="midnightblue" points="827.17,-29.79 824.24,-19.61 820.18,-29.4 827.17,-29.79"/>
</g>
<!-- Node15&#45;&gt;Node6 -->
<g id="edge21" class="edge">
<title>Node15&#45;&gt;Node6</title>
<path fill="none" stroke="midnightblue" d="M624.11,-117.15C724.03,-109 951.42,-89.59 1028.1,-76 1029.57,-75.74 1031.07,-75.45 1032.57,-75.14"/>
<polygon fill="midnightblue" stroke="midnightblue" points="1033.53,-78.51 1042.49,-72.86 1031.96,-71.69 1033.53,-78.51"/>
</g>
<!-- Node15&#45;&gt;Node7 -->
<g id="edge22" class="edge">
<title>Node15&#45;&gt;Node7</title>
<path fill="none" stroke="midnightblue" d="M624.17,-115.15C689.94,-107.02 811.62,-91.56 915.1,-76 968.14,-68.03 980.95,-63.13 1034.1,-56 1192.6,-34.74 1233.59,-41.16 1392.1,-20 1397.21,-19.32 1402.58,-18.52 1407.87,-17.69"/>
<polygon fill="midnightblue" stroke="midnightblue" points="1408.54,-21.13 1417.85,-16.06 1407.42,-14.22 1408.54,-21.13"/>
</g>
<!-- Node15&#45;&gt;Node9 -->
<g id="edge40" class="edge">
<title>Node15&#45;&gt;Node9</title>
<path fill="none" stroke="midnightblue" d="M527.84,-120.75C398.8,-119.6 53.27,-113.04 19.1,-76 13.07,-69.47 13.01,-62.47 19.1,-56 64.26,-8.01 545.42,-25.39 611.1,-20 621.54,-19.14 632.67,-18.09 643.35,-17.02"/>
<polygon fill="midnightblue" stroke="midnightblue" points="643.84,-20.49 653.43,-15.99 643.12,-13.53 643.84,-20.49"/>
</g>
<!-- Node15&#45;&gt;Node11 -->
<g id="edge28" class="edge">
<title>Node15&#45;&gt;Node11</title>
<path fill="none" stroke="midnightblue" d="M624.11,-114.39C680.03,-106.44 775.1,-92.13 856.1,-76 945.77,-58.15 1050.67,-31.54 1100.29,-18.61"/>
<polygon fill="midnightblue" stroke="midnightblue" points="1101.22,-21.98 1110.01,-16.06 1099.45,-15.21 1101.22,-21.98"/>
</g>
<!-- Node16 -->
<g id="node16" class="node">
<title>Node16</title>
<g id="a_node16"><a xlink:title=" ">
<polygon fill="white" stroke="#bfbfbf" points="28.1,-56.5 28.1,-75.5 72.1,-75.5 72.1,-56.5 28.1,-56.5"/>
<text text-anchor="middle" x="50.1" y="-63.5" font-family="Helvetica,sans-Serif" font-size="10.00">variant</text>
</a>
</g>
</g>
<!-- Node15&#45;&gt;Node16 -->
<g id="edge20" class="edge">
<title>Node15&#45;&gt;Node16</title>
<path fill="none" stroke="midnightblue" d="M527.89,-119.68C440.63,-116.64 250.67,-106.97 82.36,-75.89"/>
<polygon fill="midnightblue" stroke="midnightblue" points="82.8,-72.41 72.33,-74.01 81.51,-79.29 82.8,-72.41"/>
</g>
<!-- Node17 -->
<g id="node17" class="node">
<title>Node17</title>
<g id="a_node17"><a xlink:title=" ">
<polygon fill="white" stroke="#bfbfbf" points="550.1,-0.5 550.1,-19.5 602.1,-19.5 602.1,-0.5 550.1,-0.5"/>
<text text-anchor="middle" x="576.1" y="-7.5" font-family="Helvetica,sans-Serif" font-size="10.00">memory</text>
</a>
</g>
</g>
<!-- Node15&#45;&gt;Node17 -->
<g id="edge24" class="edge">
<title>Node15&#45;&gt;Node17</title>
<path fill="none" stroke="midnightblue" d="M527.93,-119.45C464,-115.61 363.13,-102.26 399.1,-56 416.2,-34.01 493.21,-21.01 539.84,-15.01"/>
<polygon fill="midnightblue" stroke="midnightblue" points="540.36,-18.48 549.86,-13.77 539.5,-11.53 540.36,-18.48"/>
</g>
<!-- Node18 -->
<g id="node18" class="node">
<title>Node18</title>
<g id="a_node18"><a xlink:title=" ">
<polygon fill="white" stroke="#bfbfbf" points="90.1,-56.5 90.1,-75.5 148.1,-75.5 148.1,-56.5 90.1,-56.5"/>
<text text-anchor="middle" x="119.1" y="-63.5" font-family="Helvetica,sans-Serif" font-size="10.00">functional</text>
</a>
</g>
</g>
<!-- Node15&#45;&gt;Node18 -->
<g id="edge25" class="edge">
<title>Node15&#45;&gt;Node18</title>
<path fill="none" stroke="midnightblue" d="M528.07,-117.81C451.75,-112.32 297.93,-99.49 158.5,-76.05"/>
<polygon fill="midnightblue" stroke="midnightblue" points="158.93,-72.57 148.49,-74.34 157.76,-79.47 158.93,-72.57"/>
</g>
<!-- Node19 -->
<g id="node19" class="node">
<title>Node19</title>
<g id="a_node19"><a xlink:title=" ">
<polygon fill="white" stroke="#bfbfbf" points="217.1,-0.5 217.1,-19.5 257.1,-19.5 257.1,-0.5 217.1,-0.5"/>
<text text-anchor="middle" x="237.1" y="-7.5" font-family="Helvetica,sans-Serif" font-size="10.00">utility</text>
</a>
</g>
</g>
<!-- Node15&#45;&gt;Node19 -->
<g id="edge26" class="edge">
<title>Node15&#45;&gt;Node19</title>
<path fill="none" stroke="midnightblue" d="M528.09,-120.82C397.95,-119.82 45.86,-113.64 11.1,-76 -45.66,-14.54 133.26,-9.82 206.92,-10.39"/>
<polygon fill="midnightblue" stroke="midnightblue" points="206.95,-13.89 216.99,-10.51 207.03,-6.89 206.95,-13.89"/>
</g>
<!-- Node20 -->
<g id="node20" class="node">
<title>Node20</title>
<g id="a_node20"><a xlink:title=" ">
<polygon fill="white" stroke="#bfbfbf" points="166.6,-56.5 166.6,-75.5 245.6,-75.5 245.6,-56.5 166.6,-56.5"/>
<text text-anchor="middle" x="206.1" y="-63.5" font-family="Helvetica,sans-Serif" font-size="10.00">Ark/String.hpp</text>
</a>
</g>
</g>
<!-- Node15&#45;&gt;Node20 -->
<g id="edge27" class="edge">
<title>Node15&#45;&gt;Node20</title>
<path fill="none" stroke="midnightblue" d="M527.88,-114.89C466.96,-107.02 358.66,-92.56 255.61,-76.02"/>
<polygon fill="midnightblue" stroke="midnightblue" points="256.09,-72.55 245.66,-74.41 254.97,-79.46 256.09,-72.55"/>
</g>
<!-- Node21 -->
<g id="node21" class="node">
<title>Node21</title>
<g id="a_node21"><a xlink:href="../../dc/dd5/Closure_8hpp.html" target="_top" xlink:title="Subtype of the value type, handling closures.">
<polygon fill="white" stroke="black" points="664.1,-56.5 664.1,-75.5 796.1,-75.5 796.1,-56.5 664.1,-56.5"/>
<text text-anchor="middle" x="730.1" y="-63.5" font-family="Helvetica,sans-Serif" font-size="10.00">Ark/VM/Value/Closure.hpp</text>
</a>
</g>
</g>
<!-- Node15&#45;&gt;Node21 -->
<g id="edge29" class="edge">
<title>Node15&#45;&gt;Node21</title>
<path fill="none" stroke="midnightblue" d="M600.5,-112.44C626.3,-103.4 667.18,-89.06 696.12,-78.92"/>
<polygon fill="midnightblue" stroke="midnightblue" points="697.54,-82.13 705.81,-75.52 695.22,-75.52 697.54,-82.13"/>
</g>
<!-- Node22 -->
<g id="node22" class="node">
<title>Node22</title>
<g id="a_node22"><a xlink:href="../../dc/d3d/UserType_8hpp.html" target="_top" xlink:title="Subtype of the value, capable of handling any C++ type.">
<polygon fill="white" stroke="black" points="506.1,-56.5 506.1,-75.5 646.1,-75.5 646.1,-56.5 506.1,-56.5"/>
<text text-anchor="middle" x="576.1" y="-63.5" font-family="Helvetica,sans-Serif" font-size="10.00">Ark/VM/Value/UserType.hpp</text>
</a>
</g>
</g>
<!-- Node15&#45;&gt;Node22 -->
<g id="edge34" class="edge">
<title>Node15&#45;&gt;Node22</title>
<path fill="none" stroke="midnightblue" d="M576.1,-112.08C576.1,-105.01 576.1,-94.86 576.1,-85.99"/>
<polygon fill="midnightblue" stroke="midnightblue" points="579.6,-85.75 576.1,-75.75 572.6,-85.75 579.6,-85.75"/>
</g>
<!-- Node23 -->
<g id="node23" class="node">
<title>Node23</title>
<g id="a_node23"><a xlink:href="../../d0/dd2/Profiling_8hpp.html" target="_top" xlink:title=" ">
<polygon fill="white" stroke="black" points="264.1,-56.5 264.1,-75.5 352.1,-75.5 352.1,-56.5 264.1,-56.5"/>
<text text-anchor="middle" x="308.1" y="-63.5" font-family="Helvetica,sans-Serif" font-size="10.00">Ark/Profiling.hpp</text>
</a>
</g>
</g>
<!-- Node15&#45;&gt;Node23 -->
<g id="edge41" class="edge">
<title>Node15&#45;&gt;Node23</title>
<path fill="none" stroke="midnightblue" d="M533.64,-112.44C486.69,-102.98 411.03,-87.74 360.45,-77.55"/>
<polygon fill="midnightblue" stroke="midnightblue" points="360.86,-74.06 350.37,-75.52 359.48,-80.92 360.86,-74.06"/>
</g>
<!-- Node24 -->
<g id="node24" class="node">
<title>Node24</title>
<g id="a_node24"><a xlink:title=" ">
<polygon fill="white" stroke="#bfbfbf" points="408.1,-56.5 408.1,-75.5 488.1,-75.5 488.1,-56.5 408.1,-56.5"/>
<text text-anchor="middle" x="448.1" y="-63.5" font-family="Helvetica,sans-Serif" font-size="10.00">inline/Value.inl</text>
</a>
</g>
</g>
<!-- Node15&#45;&gt;Node24 -->
<g id="edge42" class="edge">
<title>Node15&#45;&gt;Node24</title>
<path fill="none" stroke="midnightblue" d="M555.82,-112.44C534.75,-103.56 501.58,-89.56 477.62,-79.45"/>
<polygon fill="midnightblue" stroke="midnightblue" points="478.86,-76.18 468.29,-75.52 476.14,-82.63 478.86,-76.18"/>
</g>
<!-- Node21&#45;&gt;Node3 -->
<g id="edge31" class="edge">
<title>Node21&#45;&gt;Node3</title>
<path fill="none" stroke="midnightblue" d="M760.05,-56.44C795.1,-46.43 852.85,-29.93 888.28,-19.81"/>
<polygon fill="midnightblue" stroke="midnightblue" points="889.42,-23.12 898.07,-17.01 887.5,-16.39 889.42,-23.12"/>
</g>
<!-- Node21&#45;&gt;Node5 -->
<g id="edge32" class="edge">
<title>Node21&#45;&gt;Node5</title>
<path fill="none" stroke="midnightblue" d="M745.2,-56.32C760.01,-47.82 782.8,-34.73 800.08,-24.8"/>
<polygon fill="midnightblue" stroke="midnightblue" points="802.11,-27.67 809.04,-19.65 798.62,-21.6 802.11,-27.67"/>
</g>
<!-- Node21&#45;&gt;Node9 -->
<g id="edge33" class="edge">
<title>Node21&#45;&gt;Node9</title>
<path fill="none" stroke="midnightblue" d="M724.82,-56.08C720.39,-48.61 713.94,-37.72 708.48,-28.52"/>
<polygon fill="midnightblue" stroke="midnightblue" points="711.4,-26.57 703.29,-19.75 705.37,-30.14 711.4,-26.57"/>
</g>
<!-- Node21&#45;&gt;Node17 -->
<g id="edge30" class="edge">
<title>Node21&#45;&gt;Node17</title>
<path fill="none" stroke="midnightblue" d="M705.7,-56.44C679.91,-47.4 639.03,-33.06 610.08,-22.92"/>
<polygon fill="midnightblue" stroke="midnightblue" points="610.98,-19.52 600.39,-19.52 608.67,-26.13 610.98,-19.52"/>
</g>
<!-- Node22&#45;&gt;Node3 -->
<g id="edge36" class="edge">
<title>Node22&#45;&gt;Node3</title>
<path fill="none" stroke="midnightblue" d="M630.45,-56.44C703.01,-45.02 829.15,-25.16 887.64,-15.95"/>
<polygon fill="midnightblue" stroke="midnightblue" points="888.42,-19.37 897.75,-14.36 887.33,-12.46 888.42,-19.37"/>
</g>
<!-- Node22&#45;&gt;Node5 -->
<g id="edge35" class="edge">
<title>Node22&#45;&gt;Node5</title>
<path fill="none" stroke="midnightblue" d="M615.4,-56.44C662.51,-46.19 740.86,-29.13 786.98,-19.08"/>
<polygon fill="midnightblue" stroke="midnightblue" points="787.84,-22.48 796.86,-16.93 786.35,-15.64 787.84,-22.48"/>
</g>
<!-- Node22&#45;&gt;Node9 -->
<g id="edge39" class="edge">
<title>Node22&#45;&gt;Node9</title>
<path fill="none" stroke="midnightblue" d="M595.43,-56.44C615.42,-47.6 646.84,-33.69 669.67,-23.59"/>
<polygon fill="midnightblue" stroke="midnightblue" points="671.13,-26.76 678.86,-19.52 668.3,-20.36 671.13,-26.76"/>
</g>
<!-- Node22&#45;&gt;Node17 -->
<g id="edge38" class="edge">
<title>Node22&#45;&gt;Node17</title>
<path fill="none" stroke="midnightblue" d="M576.1,-56.08C576.1,-49.01 576.1,-38.86 576.1,-29.99"/>
<polygon fill="midnightblue" stroke="midnightblue" points="579.6,-29.75 576.1,-19.75 572.6,-29.75 579.6,-29.75"/>
</g>
<!-- Node22&#45;&gt;Node19 -->
<g id="edge37" class="edge">
<title>Node22&#45;&gt;Node19</title>
<path fill="none" stroke="midnightblue" d="M522.39,-56.44C450.33,-44.96 324.78,-24.97 267.35,-15.82"/>
<polygon fill="midnightblue" stroke="midnightblue" points="267.87,-12.36 257.44,-14.24 266.77,-19.27 267.87,-12.36"/>
</g>
<!-- Node25&#45;&gt;Node3 -->
<g id="edge46" class="edge">
<title>Node25&#45;&gt;Node3</title>
<path fill="none" stroke="midnightblue" d="M853.81,-168.08C864.72,-141.83 896.84,-64.55 911.57,-29.12"/>
<polygon fill="midnightblue" stroke="midnightblue" points="914.93,-30.15 915.54,-19.57 908.47,-27.46 914.93,-30.15"/>
</g>
<!-- Node25&#45;&gt;Node6 -->
<g id="edge45" class="edge">
<title>Node25&#45;&gt;Node6</title>
<path fill="none" stroke="midnightblue" d="M866.82,-168.37C903.91,-149.21 993.32,-103.04 1037.51,-80.22"/>
<polygon fill="midnightblue" stroke="midnightblue" points="1039.19,-83.29 1046.47,-75.59 1035.97,-77.07 1039.19,-83.29"/>
</g>
<!-- Node25&#45;&gt;Node15 -->
<g id="edge48" class="edge">
<title>Node25&#45;&gt;Node15</title>
<path fill="none" stroke="midnightblue" d="M806.69,-168.44C758.59,-158.96 681.01,-143.67 629.3,-133.48"/>
<polygon fill="midnightblue" stroke="midnightblue" points="629.8,-130.02 619.31,-131.52 628.45,-136.88 629.8,-130.02"/>
</g>
<!-- Node26 -->
<g id="node26" class="node">
<title>Node26</title>
<g id="a_node26"><a xlink:title=" ">
<polygon fill="white" stroke="#bfbfbf" points="716.6,-112.5 716.6,-131.5 775.6,-131.5 775.6,-112.5 716.6,-112.5"/>
<text text-anchor="middle" x="746.1" y="-119.5" font-family="Helvetica,sans-Serif" font-size="10.00">exception</text>
</a>
</g>
</g>
<!-- Node25&#45;&gt;Node26 -->
<g id="edge44" class="edge">
<title>Node25&#45;&gt;Node26</title>
<path fill="none" stroke="midnightblue" d="M833.39,-168.32C816.79,-159.7 791.1,-146.36 771.88,-136.39"/>
<polygon fill="midnightblue" stroke="midnightblue" points="773.26,-133.16 762.77,-131.65 770.03,-139.37 773.26,-133.16"/>
</g>
<!-- Node27 -->
<g id="node27" class="node">
<title>Node27</title>
<g id="a_node27"><a xlink:title=" ">
<polygon fill="white" stroke="#bfbfbf" points="793.6,-112.5 793.6,-131.5 852.6,-131.5 852.6,-112.5 793.6,-112.5"/>
<text text-anchor="middle" x="823.1" y="-119.5" font-family="Helvetica,sans-Serif" font-size="10.00">stdexcept</text>
</a>
</g>
</g>
<!-- Node25&#45;&gt;Node27 -->
<g id="edge47" class="edge">
<title>Node25&#45;&gt;Node27</title>
<path fill="none" stroke="midnightblue" d="M845.64,-168.08C841.95,-160.69 836.58,-149.95 832.01,-140.81"/>
<polygon fill="midnightblue" stroke="midnightblue" points="835.08,-139.13 827.48,-131.75 828.82,-142.26 835.08,-139.13"/>
</g>
<!-- Node28&#45;&gt;Node3 -->
<g id="edge53" class="edge">
<title>Node28&#45;&gt;Node3</title>
<path fill="none" stroke="midnightblue" d="M1558.24,-112.15C1567.02,-98.32 1580.59,-71.53 1566.1,-56 1555.47,-44.6 1078.69,-19.23 950.53,-12.61"/>
<polygon fill="midnightblue" stroke="midnightblue" points="950.4,-9.1 940.24,-12.08 950.04,-16.09 950.4,-9.1"/>
</g>
<!-- Node28&#45;&gt;Node4 -->
<g id="edge52" class="edge">
<title>Node28&#45;&gt;Node4</title>
<path fill="none" stroke="midnightblue" d="M1543.35,-112.08C1535.63,-104.22 1524.2,-92.57 1514.89,-83.08"/>
<polygon fill="midnightblue" stroke="midnightblue" points="1517.19,-80.44 1507.69,-75.75 1512.2,-85.34 1517.19,-80.44"/>
</g>
<!-- Node28&#45;&gt;Node5 -->
<g id="edge51" class="edge">
<title>Node28&#45;&gt;Node5</title>
<path fill="none" stroke="midnightblue" d="M1552.46,-112.13C1552.5,-97.75 1550.23,-69.6 1533.1,-56 1476.98,-11.43 960.43,-26.92 889.1,-20 880.04,-19.12 870.3,-17.91 861.19,-16.67"/>
<polygon fill="midnightblue" stroke="midnightblue" points="861.63,-13.2 851.24,-15.26 860.65,-20.13 861.63,-13.2"/>
</g>
<!-- Node28&#45;&gt;Node6 -->
<g id="edge50" class="edge">
<title>Node28&#45;&gt;Node6</title>
<path fill="none" stroke="midnightblue" d="M1515.35,-116.94C1422.48,-106.69 1179.69,-79.87 1093.77,-70.39"/>
<polygon fill="midnightblue" stroke="midnightblue" points="1093.96,-66.89 1083.64,-69.27 1093.19,-73.84 1093.96,-66.89"/>
</g>
<!-- Node29 -->
<g id="node29" class="node">
<title>Node29</title>
<g id="a_node29"><a xlink:title=" ">
<polygon fill="white" stroke="#bfbfbf" points="1618.1,-56.5 1618.1,-75.5 1662.1,-75.5 1662.1,-56.5 1618.1,-56.5"/>
<text text-anchor="middle" x="1640.1" y="-63.5" font-family="Helvetica,sans-Serif" font-size="10.00">cmath</text>
</a>
</g>
</g>
<!-- Node28&#45;&gt;Node29 -->
<g id="edge54" class="edge">
<title>Node28&#45;&gt;Node29</title>
<path fill="none" stroke="midnightblue" d="M1566.24,-112.32C1579.97,-103.9 1601.04,-90.97 1617.17,-81.07"/>
<polygon fill="midnightblue" stroke="midnightblue" points="1619.31,-83.87 1626,-75.65 1615.64,-77.9 1619.31,-83.87"/>
</g>
<!-- Node30 -->
<g id="node30" class="node">
<title>Node30</title>
<g id="a_node30"><a xlink:href="../../d6/de9/Constants_8hpp.html" target="_top" xlink:title="Constants used by ArkScript.">
<polygon fill="white" stroke="black" points="1680.1,-56.5 1680.1,-75.5 1778.1,-75.5 1778.1,-56.5 1680.1,-56.5"/>
<text text-anchor="middle" x="1729.1" y="-63.5" font-family="Helvetica,sans-Serif" font-size="10.00">Ark/Constants.hpp</text>
</a>
</g>
</g>
<!-- Node28&#45;&gt;Node30 -->
<g id="edge55" class="edge">
<title>Node28&#45;&gt;Node30</title>
<path fill="none" stroke="midnightblue" d="M1580.15,-112.44C1610.18,-103.28 1658.01,-88.69 1691.34,-78.52"/>
<polygon fill="midnightblue" stroke="midnightblue" points="1692.64,-81.78 1701.19,-75.52 1690.6,-75.09 1692.64,-81.78"/>
</g>
<!-- Node30&#45;&gt;Node7 -->
<g id="edge56" class="edge">
<title>Node30&#45;&gt;Node7</title>
<path fill="none" stroke="midnightblue" d="M1684.26,-56.44C1629.14,-45.93 1536.55,-28.26 1484.54,-18.33"/>
<polygon fill="midnightblue" stroke="midnightblue" points="1484.87,-14.84 1474.4,-16.4 1483.56,-21.71 1484.87,-14.84"/>
</g>
<!-- Node31 -->
<g id="node31" class="node">
<title>Node31</title>
<g id="a_node31"><a xlink:title=" ">
<polygon fill="white" stroke="#bfbfbf" points="1705.1,-0.5 1705.1,-19.5 1753.1,-19.5 1753.1,-0.5 1705.1,-0.5"/>
<text text-anchor="middle" x="1729.1" y="-7.5" font-family="Helvetica,sans-Serif" font-size="10.00">cstddef</text>
</a>
</g>
</g>
<!-- Node30&#45;&gt;Node31 -->
<g id="edge57" class="edge">
<title>Node30&#45;&gt;Node31</title>
<path fill="none" stroke="midnightblue" d="M1729.1,-56.08C1729.1,-49.01 1729.1,-38.86 1729.1,-29.99"/>
<polygon fill="midnightblue" stroke="midnightblue" points="1732.6,-29.75 1729.1,-19.75 1725.6,-29.75 1732.6,-29.75"/>
</g>
</g>
</svg>
