<?xml version="1.0" encoding="UTF-8" standalone="no"?>
<!DOCTYPE svg PUBLIC "-//W3C//DTD SVG 1.1//EN"
 "http://www.w3.org/Graphics/SVG/1.1/DTD/svg11.dtd">
<!-- Generated by graphviz version 12.2.0 (20241103.1931)
 -->
<!-- Title: Ark::internal::Parser Pages: 1 -->
<svg width="1261pt" height="541pt"
 viewBox="0.00 0.00 1261.25 540.57" xmlns="http://www.w3.org/2000/svg" xmlns:xlink="http://www.w3.org/1999/xlink">
<g id="graph0" class="graph" transform="scale(1 1) rotate(0) translate(4 536.57)">
<title>Ark::internal::Parser</title>
<!-- Node1 -->
<g id="Node000001" class="node">
<title>Node1</title>
<g id="a_Node000001"><a xlink:title=" ">
<polygon fill="#999999" stroke="#666666" points="1253.25,-208.58 1150.25,-208.58 1150.25,-189.33 1253.25,-189.33 1253.25,-208.58"/>
<text text-anchor="middle" x="1201.75" y="-195.08" font-family="Helvetica,sans-Serif" font-size="10.00">Ark::internal::Parser</text>
</a>
</g>
</g>
<!-- Node2 -->
<g id="Node000002" class="node">
<title>Node2</title>
<g id="a_Node000002"><a xlink:href="../../d8/d00/classArk_1_1internal_1_1BaseParser.html" target="_top" xlink:title=" ">
<polygon fill="white" stroke="#666666" points="1065.5,-396.58 940,-396.58 940,-377.33 1065.5,-377.33 1065.5,-396.58"/>
<text text-anchor="middle" x="1002.75" y="-383.08" font-family="Helvetica,sans-Serif" font-size="10.00">Ark::internal::BaseParser</text>
</a>
</g>
</g>
<!-- Node2&#45;&gt;Node1 -->
<g id="edge1_Node000001_Node000002" class="edge">
<title>Node2&#45;&gt;Node1</title>
<g id="a_edge1_Node000001_Node000002"><a xlink:title=" ">
<path fill="none" stroke="#63b8ff" d="M1022.63,-368.93C1063.54,-329.89 1159.2,-238.6 1190.58,-208.66"/>
<polygon fill="#63b8ff" stroke="#63b8ff" points="1020.25,-366.36 1015.44,-375.8 1025.09,-371.43 1020.25,-366.36"/>
</a>
</g>
</g>
<!-- Node3 -->
<g id="Node000003" class="node">
<title>Node3</title>
<g id="a_Node000003"><a xlink:title=" ">
<polygon fill="white" stroke="#666666" points="269.38,-180.58 209.88,-180.58 209.88,-161.33 269.38,-161.33 269.38,-180.58"/>
<text text-anchor="middle" x="239.62" y="-167.08" font-family="Helvetica,sans-Serif" font-size="10.00">std::string</text>
</a>
</g>
</g>
<!-- Node3&#45;&gt;Node2 -->
<g id="edge2_Node000002_Node000003" class="edge">
<title>Node3&#45;&gt;Node2</title>
<g id="a_edge2_Node000002_Node000003"><a xlink:title=" ">
<path fill="none" stroke="#9a32cd" stroke-dasharray="5,2" d="M248,-191.64C257.76,-215.48 277.47,-253.51 308.75,-269.95 464.34,-351.75 531.62,-235.34 704.25,-268.45 815.63,-289.82 938.42,-352.38 983.7,-376.92"/>
<polygon fill="#9a32cd" stroke="#9a32cd" points="251.29,-190.43 244.44,-182.35 244.75,-192.94 251.29,-190.43"/>
</a>
</g>
<text text-anchor="middle" x="651" y="-281.45" font-family="Helvetica,sans-Serif" font-size="10.00" fill="grey"> m_filename</text>
<text text-anchor="middle" x="651" y="-270.2" font-family="Helvetica,sans-Serif" font-size="10.00" fill="grey">m_str</text>
</g>
<!-- Node17 -->
<g id="Node000017" class="node">
<title>Node17</title>
<g id="a_Node000017"><a xlink:href="../../d6/d2f/classArk_1_1internal_1_1Logger.html" target="_top" xlink:title=" ">
<polygon fill="white" stroke="#666666" points="836.88,-118.58 733.12,-118.58 733.12,-99.33 836.88,-99.33 836.88,-118.58"/>
<text text-anchor="middle" x="785" y="-105.08" font-family="Helvetica,sans-Serif" font-size="10.00">Ark::internal::Logger</text>
</a>
</g>
</g>
<!-- Node3&#45;&gt;Node17 -->
<g id="edge19_Node000017_Node000003" class="edge">
<title>Node3&#45;&gt;Node17</title>
<g id="a_edge19_Node000017_Node000003"><a xlink:title=" ">
<path fill="none" stroke="#9a32cd" stroke-dasharray="5,2" d="M257.51,-153.26C270.32,-141.07 289.04,-125.72 308.75,-117.95 384.56,-88.06 626.26,-98.94 732.77,-105.47"/>
<polygon fill="#9a32cd" stroke="#9a32cd" points="255.36,-150.47 250.72,-160 260.29,-155.44 255.36,-150.47"/>
</a>
</g>
<text text-anchor="middle" x="517.75" y="-100.51" font-family="Helvetica,sans-Serif" font-size="10.00" fill="grey"> m_name</text>
</g>
<!-- Node18 -->
<g id="Node000018" class="node">
<title>Node18</title>
<g id="a_Node000018"><a xlink:title=" ">
<polygon fill="white" stroke="#666666" points="579,-67.08 456.5,-67.08 456.5,-2.83 579,-2.83 579,-67.08"/>
<text text-anchor="start" x="464.5" y="-53.58" font-family="Helvetica,sans-Serif" font-size="10.00">std::unordered_map</text>
<text text-anchor="start" x="464.5" y="-42.33" font-family="Helvetica,sans-Serif" font-size="10.00">&lt; std::string, std::</text>
<text text-anchor="start" x="464.5" y="-31.08" font-family="Helvetica,sans-Serif" font-size="10.00">chrono::time_point&lt; std</text>
<text text-anchor="start" x="464.5" y="-19.83" font-family="Helvetica,sans-Serif" font-size="10.00">::chrono::high_resolution</text>
<text text-anchor="middle" x="517.75" y="-8.58" font-family="Helvetica,sans-Serif" font-size="10.00">_clock &gt; &gt;</text>
</a>
</g>
</g>
<!-- Node3&#45;&gt;Node18 -->
<g id="edge21_Node000018_Node000003" class="edge">
<title>Node3&#45;&gt;Node18</title>
<g id="a_edge21_Node000018_Node000003"><a xlink:title=" ">
<path fill="none" stroke="#9a32cd" stroke-dasharray="5,2" d="M249.63,-150.73C260.42,-129 280.62,-95.23 308.75,-77.7 358.16,-46.92 380.83,-67.16 437.75,-54.95 443.7,-53.68 449.88,-52.27 456.04,-50.8"/>
<polygon fill="#9a32cd" stroke="#9a32cd" points="246.48,-149.21 245.38,-159.74 252.81,-152.19 246.48,-149.21"/>
</a>
</g>
<text text-anchor="middle" x="373.25" y="-79.45" font-family="Helvetica,sans-Serif" font-size="10.00" fill="grey"> keys</text>
</g>
<!-- Node21 -->
<g id="Node000021" class="node">
<title>Node21</title>
<g id="a_Node000021"><a xlink:title=" ">
<polygon fill="white" stroke="#666666" points="579.75,-196.58 455.75,-196.58 455.75,-177.33 579.75,-177.33 579.75,-196.58"/>
<text text-anchor="middle" x="517.75" y="-183.08" font-family="Helvetica,sans-Serif" font-size="10.00">std::vector&lt; std::string &gt;</text>
</a>
</g>
</g>
<!-- Node3&#45;&gt;Node21 -->
<g id="edge26_Node000021_Node000003" class="edge">
<title>Node3&#45;&gt;Node21</title>
<g id="a_edge26_Node000021_Node000003"><a xlink:title=" ">
<path fill="none" stroke="#9a32cd" stroke-dasharray="5,2" d="M280.97,-174.77C290.1,-175.56 299.75,-176.34 308.75,-176.95 357.98,-180.3 413.85,-182.92 455.28,-184.64"/>
<polygon fill="#9a32cd" stroke="#9a32cd" points="281.56,-171.31 271.29,-173.91 280.94,-178.28 281.56,-171.31"/>
</a>
</g>
<text text-anchor="middle" x="373.25" y="-185.63" font-family="Helvetica,sans-Serif" font-size="10.00" fill="grey"> elements</text>
</g>
<!-- Node22 -->
<g id="Node000022" class="node">
<title>Node22</title>
<g id="a_Node000022"><a xlink:href="../../dc/d9e/classArk_1_1internal_1_1Node.html" target="_top" xlink:title="A node of an Abstract Syntax Tree for ArkScript.">
<polygon fill="white" stroke="#666666" points="699.88,-137.58 602.12,-137.58 602.12,-118.33 699.88,-118.33 699.88,-137.58"/>
<text text-anchor="middle" x="651" y="-124.08" font-family="Helvetica,sans-Serif" font-size="10.00">Ark::internal::Node</text>
</a>
</g>
</g>
<!-- Node3&#45;&gt;Node22 -->
<g id="edge29_Node000022_Node000003" class="edge">
<title>Node3&#45;&gt;Node22</title>
<g id="a_edge29_Node000022_Node000003"><a xlink:title=" ">
<path fill="none" stroke="#9a32cd" stroke-dasharray="5,2" d="M267.25,-155.49C279.48,-149.21 294.42,-142.63 308.75,-139.2 410.8,-114.82 534.86,-118.78 601.72,-123.54"/>
<polygon fill="#9a32cd" stroke="#9a32cd" points="265.77,-152.32 258.62,-160.14 269.08,-158.48 265.77,-152.32"/>
</a>
</g>
<text text-anchor="middle" x="373.25" y="-163.45" font-family="Helvetica,sans-Serif" font-size="10.00" fill="grey"> m_after_comment</text>
<text text-anchor="middle" x="373.25" y="-152.2" font-family="Helvetica,sans-Serif" font-size="10.00" fill="grey">m_comment</text>
<text text-anchor="middle" x="373.25" y="-140.95" font-family="Helvetica,sans-Serif" font-size="10.00" fill="grey">m_filename</text>
</g>
<!-- Node24 -->
<g id="Node000024" class="node">
<title>Node24</title>
<g id="a_Node000024"><a xlink:href="../../da/d03/structArk_1_1internal_1_1Import.html" target="_top" xlink:title=" ">
<polygon fill="white" stroke="#666666" points="836.12,-240.58 733.88,-240.58 733.88,-221.33 836.12,-221.33 836.12,-240.58"/>
<text text-anchor="middle" x="785" y="-227.08" font-family="Helvetica,sans-Serif" font-size="10.00">Ark::internal::Import</text>
</a>
</g>
</g>
<!-- Node3&#45;&gt;Node24 -->
<g id="edge32_Node000024_Node000003" class="edge">
<title>Node3&#45;&gt;Node24</title>
<g id="a_edge32_Node000024_Node000003"><a xlink:title=" ">
<path fill="none" stroke="#9a32cd" stroke-dasharray="5,2" d="M270.78,-185.78C282.38,-190.83 295.92,-195.95 308.75,-198.95 460.34,-234.37 645.97,-235 733.61,-232.86"/>
<polygon fill="#9a32cd" stroke="#9a32cd" points="272.26,-182.61 261.71,-181.66 269.37,-188.99 272.26,-182.61"/>
</a>
</g>
<text text-anchor="middle" x="517.75" y="-233.37" font-family="Helvetica,sans-Serif" font-size="10.00" fill="grey"> prefix</text>
</g>
<!-- Node4 -->
<g id="Node000004" class="node">
<title>Node4</title>
<g id="a_Node000004"><a xlink:title=" ">
<polygon fill="white" stroke="#666666" points="94,-186.2 0,-186.2 0,-155.7 94,-155.7 94,-186.2"/>
<text text-anchor="start" x="8" y="-172.7" font-family="Helvetica,sans-Serif" font-size="10.00">std::basic_string&lt;</text>
<text text-anchor="middle" x="47" y="-161.45" font-family="Helvetica,sans-Serif" font-size="10.00"> Char &gt;</text>
</a>
</g>
</g>
<!-- Node4&#45;&gt;Node3 -->
<g id="edge3_Node000003_Node000004" class="edge">
<title>Node4&#45;&gt;Node3</title>
<g id="a_edge3_Node000003_Node000004"><a xlink:title=" ">
<path fill="none" stroke="#63b8ff" d="M105.45,-170.95C139.78,-170.95 181.93,-170.95 209.5,-170.95"/>
<polygon fill="#63b8ff" stroke="#63b8ff" points="105.66,-167.45 95.66,-170.95 105.66,-174.45 105.66,-167.45"/>
</a>
</g>
</g>
<!-- Node5 -->
<g id="Node000005" class="node">
<title>Node5</title>
<g id="a_Node000005"><a xlink:title=" ">
<polygon fill="white" stroke="#666666" points="838.38,-437.83 731.62,-437.83 731.62,-396.08 838.38,-396.08 838.38,-437.83"/>
<text text-anchor="start" x="739.62" y="-424.33" font-family="Helvetica,sans-Serif" font-size="10.00">std::vector&lt; std::pair</text>
<text text-anchor="start" x="739.62" y="-413.08" font-family="Helvetica,sans-Serif" font-size="10.00">&lt; std::string::iterator,</text>
<text text-anchor="middle" x="785" y="-401.83" font-family="Helvetica,sans-Serif" font-size="10.00"> std::size_t &gt; &gt;</text>
</a>
</g>
</g>
<!-- Node5&#45;&gt;Node2 -->
<g id="edge4_Node000002_Node000005" class="edge">
<title>Node5&#45;&gt;Node2</title>
<g id="a_edge4_Node000002_Node000005"><a xlink:title=" ">
<path fill="none" stroke="#9a32cd" stroke-dasharray="5,2" d="M850.16,-408.03C878.43,-404.1 911.52,-399.5 939.56,-395.6"/>
<polygon fill="#9a32cd" stroke="#9a32cd" points="849.7,-404.56 840.28,-409.41 850.66,-411.49 849.7,-404.56"/>
</a>
</g>
<text text-anchor="middle" x="893.88" y="-407.27" font-family="Helvetica,sans-Serif" font-size="10.00" fill="grey"> m_it_to_row</text>
</g>
<!-- Node6 -->
<g id="Node000006" class="node">
<title>Node6</title>
<g id="a_Node000006"><a xlink:title=" ">
<polygon fill="white" stroke="#666666" points="573.75,-479.2 461.75,-479.2 461.75,-448.7 573.75,-448.7 573.75,-479.2"/>
<text text-anchor="start" x="469.75" y="-465.7" font-family="Helvetica,sans-Serif" font-size="10.00">std::pair&lt; std::string</text>
<text text-anchor="middle" x="517.75" y="-454.45" font-family="Helvetica,sans-Serif" font-size="10.00">::iterator, std::size_t &gt;</text>
</a>
</g>
</g>
<!-- Node6&#45;&gt;Node5 -->
<g id="edge5_Node000005_Node000006" class="edge">
<title>Node6&#45;&gt;Node5</title>
<g id="a_edge5_Node000005_Node000006"><a xlink:title=" ">
<path fill="none" stroke="#9a32cd" stroke-dasharray="5,2" d="M585.22,-452.17C630.47,-444.16 689.54,-433.69 731.5,-426.26"/>
<polygon fill="#9a32cd" stroke="#9a32cd" points="584.76,-448.7 575.52,-453.89 585.98,-455.59 584.76,-448.7"/>
</a>
</g>
<text text-anchor="middle" x="651" y="-450.5" font-family="Helvetica,sans-Serif" font-size="10.00" fill="grey"> elements</text>
</g>
<!-- Node7 -->
<g id="Node000007" class="node">
<title>Node7</title>
<g id="a_Node000007"><a xlink:title=" ">
<polygon fill="white" stroke="#666666" points="287.38,-503.58 191.88,-503.58 191.88,-484.33 287.38,-484.33 287.38,-503.58"/>
<text text-anchor="middle" x="239.62" y="-490.08" font-family="Helvetica,sans-Serif" font-size="10.00">std::string::iterator</text>
</a>
</g>
</g>
<!-- Node7&#45;&gt;Node2 -->
<g id="edge12_Node000002_Node000007" class="edge">
<title>Node7&#45;&gt;Node2</title>
<g id="a_edge12_Node000002_Node000007"><a xlink:title=" ">
<path fill="none" stroke="#9a32cd" stroke-dasharray="5,2" d="M299.08,-500.01C408.19,-509.79 649.72,-524.26 847.75,-484.95 882.5,-478.06 891.66,-474.25 922,-455.95 950.53,-438.74 978.8,-411.13 992.76,-396.6"/>
<polygon fill="#9a32cd" stroke="#9a32cd" points="299.48,-496.53 289.2,-499.1 298.83,-503.5 299.48,-496.53"/>
</a>
</g>
<text text-anchor="middle" x="651" y="-523.07" font-family="Helvetica,sans-Serif" font-size="10.00" fill="grey"> m_it</text>
<text text-anchor="middle" x="651" y="-511.82" font-family="Helvetica,sans-Serif" font-size="10.00" fill="grey">m_next_it</text>
</g>
<!-- Node7&#45;&gt;Node6 -->
<g id="edge6_Node000006_Node000007" class="edge">
<title>Node7&#45;&gt;Node6</title>
<g id="a_edge6_Node000006_Node000007"><a xlink:title=" ">
<path fill="none" stroke="#9a32cd" stroke-dasharray="5,2" d="M299.02,-483.09C302.31,-482.59 305.57,-482.12 308.75,-481.7 360.31,-474.88 419.42,-470.13 461.42,-467.27"/>
<polygon fill="#9a32cd" stroke="#9a32cd" points="298.63,-479.61 289.31,-484.64 299.73,-486.52 298.63,-479.61"/>
</a>
</g>
<text text-anchor="middle" x="373.25" y="-483.45" font-family="Helvetica,sans-Serif" font-size="10.00" fill="grey"> first_type</text>
</g>
<!-- Node8 -->
<g id="Node000008" class="node">
<title>Node8</title>
<g id="a_Node000008"><a xlink:title=" ">
<polygon fill="white" stroke="#666666" points="288.5,-444.58 190.75,-444.58 190.75,-425.33 288.5,-425.33 288.5,-444.58"/>
<text text-anchor="middle" x="239.62" y="-431.08" font-family="Helvetica,sans-Serif" font-size="10.00">std::pair&lt; T1, T2 &gt;</text>
</a>
</g>
</g>
<!-- Node8&#45;&gt;Node6 -->
<g id="edge7_Node000006_Node000008" class="edge">
<title>Node8&#45;&gt;Node6</title>
<g id="a_edge7_Node000006_Node000008"><a xlink:title=" ">
<path fill="none" stroke="orange" stroke-dasharray="5,2" d="M300.06,-430.39C339.42,-428.59 392.02,-428.54 437.75,-436.45 451.77,-438.88 466.64,-443.48 479.64,-448.23"/>
<polygon fill="orange" stroke="orange" points="300.13,-426.88 290.33,-430.89 300.49,-433.87 300.13,-426.88"/>
</a>
</g>
<text text-anchor="start" x="326.38" y="-449.45" font-family="Helvetica,sans-Serif" font-size="10.00" fill="grey"> &lt; std::string::iterator,</text>
<text text-anchor="middle" x="373.25" y="-438.2" font-family="Helvetica,sans-Serif" font-size="10.00" fill="grey"> std::size_t &gt;</text>
</g>
<!-- Node9 -->
<g id="Node000009" class="node">
<title>Node9</title>
<g id="a_Node000009"><a xlink:title=" ">
<polygon fill="white" stroke="#666666" points="61.4,-425.58 32.6,-425.58 32.6,-406.33 61.4,-406.33 61.4,-425.58"/>
<text text-anchor="middle" x="47" y="-412.08" font-family="Helvetica,sans-Serif" font-size="10.00">T1</text>
</a>
</g>
</g>
<!-- Node9&#45;&gt;Node8 -->
<g id="edge8_Node000008_Node000009" class="edge">
<title>Node9&#45;&gt;Node8</title>
<g id="a_edge8_Node000008_Node000009"><a xlink:title=" ">
<path fill="none" stroke="#9a32cd" stroke-dasharray="5,2" d="M72.84,-417.89C97.6,-419.88 136.71,-423.18 170.5,-426.7 176.9,-427.37 183.63,-428.12 190.27,-428.9"/>
<polygon fill="#9a32cd" stroke="#9a32cd" points="73.36,-414.42 63.12,-417.12 72.81,-421.4 73.36,-414.42"/>
</a>
</g>
<text text-anchor="middle" x="141.25" y="-428.45" font-family="Helvetica,sans-Serif" font-size="10.00" fill="grey"> first_type</text>
</g>
<!-- Node10 -->
<g id="Node000010" class="node">
<title>Node10</title>
<g id="a_Node000010"><a xlink:title=" ">
<polygon fill="white" stroke="#666666" points="61.4,-462.58 32.6,-462.58 32.6,-443.33 61.4,-443.33 61.4,-462.58"/>
<text text-anchor="middle" x="47" y="-449.08" font-family="Helvetica,sans-Serif" font-size="10.00">T2</text>
</a>
</g>
</g>
<!-- Node10&#45;&gt;Node8 -->
<g id="edge9_Node000008_Node000010" class="edge">
<title>Node10&#45;&gt;Node8</title>
<g id="a_edge9_Node000008_Node000010"><a xlink:title=" ">
<path fill="none" stroke="#9a32cd" stroke-dasharray="5,2" d="M73.12,-450.58C102.89,-447.77 153.16,-443.02 190.51,-439.5"/>
<polygon fill="#9a32cd" stroke="#9a32cd" points="72.84,-447.09 63.22,-451.52 73.5,-454.06 72.84,-447.09"/>
</a>
</g>
<text text-anchor="middle" x="141.25" y="-448.37" font-family="Helvetica,sans-Serif" font-size="10.00" fill="grey"> second_type</text>
</g>
<!-- Node11 -->
<g id="Node000011" class="node">
<title>Node11</title>
<g id="a_Node000011"><a xlink:title=" ">
<polygon fill="white" stroke="#666666" points="282.88,-322.58 196.38,-322.58 196.38,-303.33 282.88,-303.33 282.88,-322.58"/>
<text text-anchor="middle" x="239.62" y="-309.08" font-family="Helvetica,sans-Serif" font-size="10.00">std::vector&lt; T &gt;</text>
</a>
</g>
</g>
<!-- Node11&#45;&gt;Node5 -->
<g id="edge10_Node000005_Node000011" class="edge">
<title>Node11&#45;&gt;Node5</title>
<g id="a_edge10_Node000005_Node000011"><a xlink:title=" ">
<path fill="none" stroke="orange" stroke-dasharray="5,2" d="M294.33,-324.4C299.2,-325.32 304.06,-326.18 308.75,-326.95 483.52,-355.69 537.03,-317.57 704.25,-375.95 713.1,-379.04 714.02,-382.45 722.25,-386.95 727.58,-389.87 733.24,-392.81 738.89,-395.66"/>
<polygon fill="orange" stroke="orange" points="295.02,-320.97 284.53,-322.5 293.68,-327.84 295.02,-320.97"/>
</a>
</g>
<text text-anchor="start" x="465.25" y="-358.05" font-family="Helvetica,sans-Serif" font-size="10.00" fill="grey"> &lt; std::pair&lt; std::string</text>
<text text-anchor="middle" x="517.75" y="-346.8" font-family="Helvetica,sans-Serif" font-size="10.00" fill="grey">::iterator, std::size_t &gt; &gt;</text>
</g>
<!-- Node11&#45;&gt;Node21 -->
<g id="edge27_Node000021_Node000011" class="edge">
<title>Node11&#45;&gt;Node21</title>
<g id="a_edge27_Node000021_Node000011"><a xlink:title=" ">
<path fill="none" stroke="orange" stroke-dasharray="5,2" d="M270.79,-297.85C312.13,-277.34 388.9,-239.91 455.75,-210.95 466.82,-206.16 479.18,-201.22 489.87,-197.08"/>
<polygon fill="orange" stroke="orange" points="269.33,-294.67 261.94,-302.26 272.45,-300.94 269.33,-294.67"/>
</a>
</g>
<text text-anchor="middle" x="373.25" y="-279.48" font-family="Helvetica,sans-Serif" font-size="10.00" fill="grey"> &lt; std::string &gt;</text>
</g>
<!-- Node23 -->
<g id="Node000023" class="node">
<title>Node23</title>
<g id="a_Node000023"><a xlink:title=" ">
<polygon fill="white" stroke="#666666" points="1064.38,-246.2 941.12,-246.2 941.12,-215.7 1064.38,-215.7 1064.38,-246.2"/>
<text text-anchor="start" x="949.12" y="-232.7" font-family="Helvetica,sans-Serif" font-size="10.00">std::vector&lt; Ark::internal</text>
<text text-anchor="middle" x="1002.75" y="-221.45" font-family="Helvetica,sans-Serif" font-size="10.00">::Import &gt;</text>
</a>
</g>
</g>
<!-- Node11&#45;&gt;Node23 -->
<g id="edge34_Node000023_Node000011" class="edge">
<title>Node11&#45;&gt;Node23</title>
<g id="a_edge34_Node000023_Node000011"><a xlink:title=" ">
<path fill="none" stroke="orange" stroke-dasharray="5,2" d="M294.73,-313.88C381.49,-314.68 556.98,-313.51 704.25,-294.95 788.25,-284.37 883.66,-261.96 943.28,-246.67"/>
<polygon fill="orange" stroke="orange" points="294.88,-310.38 284.85,-313.77 294.81,-317.38 294.88,-310.38"/>
</a>
</g>
<text text-anchor="middle" x="651" y="-306.74" font-family="Helvetica,sans-Serif" font-size="10.00" fill="grey"> &lt; Ark::internal::Import &gt;</text>
</g>
<!-- Node12 -->
<g id="Node000012" class="node">
<title>Node12</title>
<g id="a_Node000012"><a xlink:title=" ">
<polygon fill="white" stroke="#666666" points="61.4,-322.58 32.6,-322.58 32.6,-303.33 61.4,-303.33 61.4,-322.58"/>
<text text-anchor="middle" x="47" y="-309.08" font-family="Helvetica,sans-Serif" font-size="10.00">T</text>
</a>
</g>
</g>
<!-- Node12&#45;&gt;Node11 -->
<g id="edge11_Node000011_Node000012" class="edge">
<title>Node12&#45;&gt;Node11</title>
<g id="a_edge11_Node000011_Node000012"><a xlink:title=" ">
<path fill="none" stroke="#9a32cd" stroke-dasharray="5,2" d="M72.86,-312.95C104.12,-312.95 158.29,-312.95 196.17,-312.95"/>
<polygon fill="#9a32cd" stroke="#9a32cd" points="73.22,-309.45 63.22,-312.95 73.22,-316.45 73.22,-309.45"/>
</a>
</g>
<text text-anchor="middle" x="141.25" y="-314.7" font-family="Helvetica,sans-Serif" font-size="10.00" fill="grey"> elements</text>
</g>
<!-- Node15 -->
<g id="Node000015" class="node">
<title>Node15</title>
<g id="a_Node000015"><a xlink:title=" ">
<polygon fill="white" stroke="#666666" points="280.25,-395.58 199,-395.58 199,-376.33 280.25,-376.33 280.25,-395.58"/>
<text text-anchor="middle" x="239.62" y="-382.08" font-family="Helvetica,sans-Serif" font-size="10.00">std::array&lt; T &gt;</text>
</a>
</g>
</g>
<!-- Node12&#45;&gt;Node15 -->
<g id="edge16_Node000015_Node000012" class="edge">
<title>Node12&#45;&gt;Node15</title>
<g id="a_edge16_Node000015_Node000012"><a xlink:title=" ">
<path fill="none" stroke="#9a32cd" stroke-dasharray="5,2" d="M72.19,-322.22C108.09,-335.96 175.21,-361.67 212.3,-375.87"/>
<polygon fill="#9a32cd" stroke="#9a32cd" points="73.71,-319.05 63.12,-318.74 71.21,-325.59 73.71,-319.05"/>
</a>
</g>
<text text-anchor="middle" x="141.25" y="-359.89" font-family="Helvetica,sans-Serif" font-size="10.00" fill="grey"> elements</text>
</g>
<!-- Node19 -->
<g id="Node000019" class="node">
<title>Node19</title>
<g id="a_Node000019"><a xlink:title=" ">
<polygon fill="white" stroke="#666666" points="290.75,-70.2 188.5,-70.2 188.5,-39.7 290.75,-39.7 290.75,-70.2"/>
<text text-anchor="start" x="196.5" y="-56.7" font-family="Helvetica,sans-Serif" font-size="10.00">std::unordered_map</text>
<text text-anchor="middle" x="239.62" y="-45.45" font-family="Helvetica,sans-Serif" font-size="10.00">&lt; K, T &gt;</text>
</a>
</g>
</g>
<!-- Node12&#45;&gt;Node19 -->
<g id="edge24_Node000019_Node000012" class="edge">
<title>Node12&#45;&gt;Node19</title>
<g id="a_edge24_Node000019_Node000012"><a xlink:title=" ">
<path fill="none" stroke="#9a32cd" stroke-dasharray="5,2" d="M62.28,-293.62C98.61,-244.46 193.97,-115.39 227.09,-70.56"/>
<polygon fill="#9a32cd" stroke="#9a32cd" points="59.5,-291.5 56.37,-301.62 65.13,-295.66 59.5,-291.5"/>
</a>
</g>
<text text-anchor="middle" x="141.25" y="-223.89" font-family="Helvetica,sans-Serif" font-size="10.00" fill="grey"> elements</text>
</g>
<!-- Node13 -->
<g id="Node000013" class="node">
<title>Node13</title>
<g id="a_Node000013"><a xlink:href="../../df/d83/classArk_1_1internal_1_1utf8__char__t.html" target="_top" xlink:title=" ">
<polygon fill="white" stroke="#666666" points="830.5,-378.2 739.5,-378.2 739.5,-347.7 830.5,-347.7 830.5,-378.2"/>
<text text-anchor="start" x="747.5" y="-364.7" font-family="Helvetica,sans-Serif" font-size="10.00">Ark::internal::utf8</text>
<text text-anchor="middle" x="785" y="-353.45" font-family="Helvetica,sans-Serif" font-size="10.00">_char_t</text>
</a>
</g>
</g>
<!-- Node13&#45;&gt;Node2 -->
<g id="edge13_Node000002_Node000013" class="edge">
<title>Node13&#45;&gt;Node2</title>
<g id="a_edge13_Node000002_Node000013"><a xlink:title=" ">
<path fill="none" stroke="#9a32cd" stroke-dasharray="5,2" d="M842.11,-366.3C866.68,-368.05 895.82,-370.5 922,-373.7 929.38,-374.61 937.13,-375.7 944.77,-376.88"/>
<polygon fill="#9a32cd" stroke="#9a32cd" points="842.54,-362.82 832.32,-365.63 842.06,-369.81 842.54,-362.82"/>
</a>
</g>
<text text-anchor="middle" x="893.88" y="-375.45" font-family="Helvetica,sans-Serif" font-size="10.00" fill="grey"> m_sym</text>
</g>
<!-- Node14 -->
<g id="Node000014" class="node">
<title>Node14</title>
<g id="a_Node000014"><a xlink:title=" ">
<polygon fill="white" stroke="#666666" points="570.38,-430.2 465.12,-430.2 465.12,-399.7 570.38,-399.7 570.38,-430.2"/>
<text text-anchor="start" x="473.12" y="-416.7" font-family="Helvetica,sans-Serif" font-size="10.00">std::array&lt; unsigned</text>
<text text-anchor="middle" x="517.75" y="-405.45" font-family="Helvetica,sans-Serif" font-size="10.00"> char, 5 &gt;</text>
</a>
</g>
</g>
<!-- Node14&#45;&gt;Node13 -->
<g id="edge14_Node000013_Node000014" class="edge">
<title>Node14&#45;&gt;Node13</title>
<g id="a_edge14_Node000013_Node000014"><a xlink:title=" ">
<path fill="none" stroke="#9a32cd" stroke-dasharray="5,2" d="M582.13,-402.53C630.52,-393.04 696,-380.2 739.09,-371.76"/>
<polygon fill="#9a32cd" stroke="#9a32cd" points="581.46,-399.09 572.32,-404.45 582.81,-405.96 581.46,-399.09"/>
</a>
</g>
<text text-anchor="middle" x="651" y="-399.88" font-family="Helvetica,sans-Serif" font-size="10.00" fill="grey"> m_repr</text>
</g>
<!-- Node15&#45;&gt;Node14 -->
<g id="edge15_Node000014_Node000015" class="edge">
<title>Node15&#45;&gt;Node14</title>
<g id="a_edge15_Node000014_Node000015"><a xlink:title=" ">
<path fill="none" stroke="orange" stroke-dasharray="5,2" d="M291.82,-391.33C341.05,-396.5 415.11,-404.28 464.65,-409.48"/>
<polygon fill="orange" stroke="orange" points="292.3,-387.86 281.99,-390.3 291.57,-394.82 292.3,-387.86"/>
</a>
</g>
<text text-anchor="middle" x="373.25" y="-408.13" font-family="Helvetica,sans-Serif" font-size="10.00" fill="grey"> &lt; unsigned char, 5 &gt;</text>
</g>
<!-- Node16 -->
<g id="Node000016" class="node">
<title>Node16</title>
<g id="a_Node000016"><a xlink:href="../../dd/d0e/structArk_1_1internal_1_1FilePosition.html" target="_top" xlink:title="Describe a position in a given file ; handled by the BaseParser.">
<polygon fill="white" stroke="#666666" points="847.75,-475.58 722.25,-475.58 722.25,-456.33 847.75,-456.33 847.75,-475.58"/>
<text text-anchor="middle" x="785" y="-462.08" font-family="Helvetica,sans-Serif" font-size="10.00">Ark::internal::FilePosition</text>
</a>
</g>
</g>
<!-- Node16&#45;&gt;Node2 -->
<g id="edge17_Node000002_Node000016" class="edge">
<title>Node16&#45;&gt;Node2</title>
<g id="a_edge17_Node000002_Node000016"><a xlink:title=" ">
<path fill="none" stroke="#9a32cd" stroke-dasharray="5,2" d="M830.65,-452.44C836.42,-450.63 842.23,-448.77 847.75,-446.95 880.97,-436.03 889.4,-433.59 922,-420.95 941.51,-413.39 963.34,-404.02 979.23,-397.03"/>
<polygon fill="#9a32cd" stroke="#9a32cd" points="829.68,-449.07 821.17,-455.38 831.76,-455.76 829.68,-449.07"/>
</a>
</g>
<text text-anchor="middle" x="893.88" y="-442.53" font-family="Helvetica,sans-Serif" font-size="10.00" fill="grey"> m_filepos</text>
</g>
<!-- Node17&#45;&gt;Node1 -->
<g id="edge18_Node000001_Node000017" class="edge">
<title>Node17&#45;&gt;Node1</title>
<g id="a_edge18_Node000001_Node000017"><a xlink:title=" ">
<path fill="none" stroke="#9a32cd" stroke-dasharray="5,2" d="M848.63,-115.2C918.79,-123.26 1035.4,-139.82 1132.25,-168.95 1149.28,-174.08 1167.7,-182.31 1181.15,-188.85"/>
<polygon fill="#9a32cd" stroke="#9a32cd" points="849.18,-111.74 838.85,-114.1 848.4,-118.7 849.18,-111.74"/>
</a>
</g>
<text text-anchor="middle" x="1002.75" y="-153.04" font-family="Helvetica,sans-Serif" font-size="10.00" fill="grey"> m_logger</text>
</g>
<!-- Node18&#45;&gt;Node17 -->
<g id="edge20_Node000017_Node000018" class="edge">
<title>Node18&#45;&gt;Node17</title>
<g id="a_edge20_Node000017_Node000018"><a xlink:title=" ">
<path fill="none" stroke="#9a32cd" stroke-dasharray="5,2" d="M590.48,-48.91C625.17,-56.31 667.21,-66.25 704.25,-77.7 723.71,-83.72 745.18,-92.25 760.94,-98.88"/>
<polygon fill="#9a32cd" stroke="#9a32cd" points="591.48,-45.55 580.98,-46.91 590.04,-52.4 591.48,-45.55"/>
</a>
</g>
<text text-anchor="middle" x="651" y="-79.45" font-family="Helvetica,sans-Serif" font-size="10.00" fill="grey"> m_trace_starts</text>
</g>
<!-- Node19&#45;&gt;Node18 -->
<g id="edge22_Node000018_Node000019" class="edge">
<title>Node19&#45;&gt;Node18</title>
<g id="a_edge22_Node000018_Node000019"><a xlink:title=" ">
<path fill="none" stroke="orange" stroke-dasharray="5,2" d="M266.85,-32.42C278.8,-23.58 293.65,-14.49 308.75,-9.95 363.66,6.55 381.09,-1.2 437.75,-9.95 443.86,-10.9 450.15,-12.23 456.38,-13.79"/>
<polygon fill="orange" stroke="orange" points="264.87,-29.52 259.12,-38.42 269.17,-35.05 264.87,-29.52"/>
</a>
</g>
<text text-anchor="start" x="308.75" y="-45.45" font-family="Helvetica,sans-Serif" font-size="10.00" fill="grey"> &lt; std::string, std</text>
<text text-anchor="start" x="308.75" y="-34.2" font-family="Helvetica,sans-Serif" font-size="10.00" fill="grey">::chrono::time_point</text>
<text text-anchor="start" x="308.75" y="-22.95" font-family="Helvetica,sans-Serif" font-size="10.00" fill="grey">&lt; std::chrono::high_resolution</text>
<text text-anchor="middle" x="373.25" y="-11.7" font-family="Helvetica,sans-Serif" font-size="10.00" fill="grey">_clock &gt; &gt;</text>
</g>
<!-- Node20 -->
<g id="Node000020" class="node">
<title>Node20</title>
<g id="a_Node000020"><a xlink:title=" ">
<polygon fill="white" stroke="#666666" points="61.4,-64.58 32.6,-64.58 32.6,-45.33 61.4,-45.33 61.4,-64.58"/>
<text text-anchor="middle" x="47" y="-51.08" font-family="Helvetica,sans-Serif" font-size="10.00">K</text>
</a>
</g>
</g>
<!-- Node20&#45;&gt;Node19 -->
<g id="edge23_Node000019_Node000020" class="edge">
<title>Node20&#45;&gt;Node19</title>
<g id="a_edge23_Node000019_Node000020"><a xlink:title=" ">
<path fill="none" stroke="#9a32cd" stroke-dasharray="5,2" d="M72.87,-54.95C101.96,-54.95 150.85,-54.95 188.02,-54.95"/>
<polygon fill="#9a32cd" stroke="#9a32cd" points="73.22,-51.45 63.22,-54.95 73.22,-58.45 73.22,-51.45"/>
</a>
</g>
<text text-anchor="middle" x="141.25" y="-56.7" font-family="Helvetica,sans-Serif" font-size="10.00" fill="grey"> keys</text>
</g>
<!-- Node21&#45;&gt;Node17 -->
<g id="edge25_Node000017_Node000021" class="edge">
<title>Node21&#45;&gt;Node17</title>
<g id="a_edge25_Node000017_Node000021"><a xlink:title=" ">
<path fill="none" stroke="#9a32cd" stroke-dasharray="5,2" d="M574.06,-174.27C611.17,-165.37 660.99,-152.64 704.25,-138.95 723.01,-133.02 743.8,-125.15 759.45,-118.96"/>
<polygon fill="#9a32cd" stroke="#9a32cd" points="573.37,-170.84 564.45,-176.56 574.99,-177.65 573.37,-170.84"/>
</a>
</g>
<text text-anchor="middle" x="651" y="-169.88" font-family="Helvetica,sans-Serif" font-size="10.00" fill="grey"> m_active_traces</text>
</g>
<!-- Node21&#45;&gt;Node24 -->
<g id="edge33_Node000024_Node000021" class="edge">
<title>Node21&#45;&gt;Node24</title>
<g id="a_edge33_Node000024_Node000021"><a xlink:title=" ">
<path fill="none" stroke="#9a32cd" stroke-dasharray="5,2" d="M591.51,-184.72C626.08,-185.17 667.72,-187.91 704.25,-196.45 726.43,-201.64 750.19,-212.71 765.95,-220.92"/>
<polygon fill="#9a32cd" stroke="#9a32cd" points="591.62,-181.22 581.6,-184.66 591.58,-188.22 591.62,-181.22"/>
</a>
</g>
<text text-anchor="middle" x="651" y="-209.45" font-family="Helvetica,sans-Serif" font-size="10.00" fill="grey"> package</text>
<text text-anchor="middle" x="651" y="-198.2" font-family="Helvetica,sans-Serif" font-size="10.00" fill="grey">symbols</text>
</g>
<!-- Node22&#45;&gt;Node1 -->
<g id="edge28_Node000001_Node000022" class="edge">
<title>Node22&#45;&gt;Node1</title>
<g id="a_edge28_Node000001_Node000022"><a xlink:title=" ">
<path fill="none" stroke="#9a32cd" stroke-dasharray="5,2" d="M711.32,-136.21C769.53,-144.25 860.83,-156.73 940,-166.95 1012.83,-176.35 1097.18,-186.59 1149.76,-192.89"/>
<polygon fill="#9a32cd" stroke="#9a32cd" points="712.02,-132.77 701.63,-134.86 711.06,-139.7 712.02,-132.77"/>
</a>
</g>
<text text-anchor="middle" x="893.88" y="-165.95" font-family="Helvetica,sans-Serif" font-size="10.00" fill="grey"> m_ast</text>
</g>
<!-- Node23&#45;&gt;Node1 -->
<g id="edge30_Node000001_Node000023" class="edge">
<title>Node23&#45;&gt;Node1</title>
<g id="a_edge30_Node000001_Node000023"><a xlink:title=" ">
<path fill="none" stroke="#9a32cd" stroke-dasharray="5,2" d="M1075.84,-219.24C1100.44,-215.25 1127.42,-210.86 1149.98,-207.2"/>
<polygon fill="#9a32cd" stroke="#9a32cd" points="1075.54,-215.75 1066.23,-220.8 1076.66,-222.66 1075.54,-215.75"/>
</a>
</g>
<text text-anchor="middle" x="1107.88" y="-219.57" font-family="Helvetica,sans-Serif" font-size="10.00" fill="grey"> m_imports</text>
</g>
<!-- Node24&#45;&gt;Node23 -->
<g id="edge31_Node000023_Node000024" class="edge">
<title>Node24&#45;&gt;Node23</title>
<g id="a_edge31_Node000023_Node000024"><a xlink:title=" ">
<path fill="none" stroke="#9a32cd" stroke-dasharray="5,2" d="M847.87,-230.95C877.02,-230.95 911.68,-230.95 940.72,-230.95"/>
<polygon fill="#9a32cd" stroke="#9a32cd" points="848.1,-227.45 838.1,-230.95 848.1,-234.45 848.1,-227.45"/>
</a>
</g>
<text text-anchor="middle" x="893.88" y="-232.7" font-family="Helvetica,sans-Serif" font-size="10.00" fill="grey"> elements</text>
</g>
</g>
</svg>
