<?xml version="1.0" encoding="UTF-8" standalone="no"?>
<!DOCTYPE svg PUBLIC "-//W3C//DTD SVG 1.1//EN"
 "http://www.w3.org/Graphics/SVG/1.1/DTD/svg11.dtd">
<!-- Generated by graphviz version 10.0.1 (20240210.2158)
 -->
<!-- Title: /Users/fola/Documents/ArkScript/Ark/src/arkreactor/VM/Value/Closure.cpp Pages: 1 -->
<!--zoomable 448 -->
<svg id="main" version="1.1" xmlns="http://www.w3.org/2000/svg" xmlns:xlink="http://www.w3.org/1999/xlink" xml:space="preserve" onload="init(evt)">
<style type="text/css"><![CDATA[
.edge:hover path { stroke: red; }
.edge:hover polygon { stroke: red; fill: red; }
]]></style>
<script type="text/javascript"><![CDATA[
var edges = document.getElementsByTagName('g');
if (edges && edges.length) {
  for (var i=0;i<edges.length;i++) {
    if (edges[i].id.substr(0,4)=='edge') {
      edges[i].setAttribute('class','edge');
    }
  }
}
]]></script>
        <defs>
                <circle id="rim" cx="0" cy="0" r="7"/>
                <circle id="rim2" cx="0" cy="0" r="3.5"/>
                <g id="zoomPlus">
                        <use xlink:href="#rim" fill="#404040">
                                <set attributeName="fill" to="#808080" begin="zoomplus.mouseover" end="zoomplus.mouseout"/>
                        </use>
                        <path d="M-4,0h8M0,-4v8" fill="none" stroke="white" stroke-width="1.5" pointer-events="none"/>
                </g>
                <g id="zoomMin">
                        <use xlink:href="#rim" fill="#404040">
                                <set attributeName="fill" to="#808080" begin="zoomminus.mouseover" end="zoomminus.mouseout"/>
                        </use>
                        <path d="M-4,0h8" fill="none" stroke="white" stroke-width="1.5" pointer-events="none"/>
                </g>
                <g id="dirArrow">
                        <path fill="none" stroke="white" stroke-width="1.5" d="M0,-3.0v7 M-2.5,-0.5L0,-3.0L2.5,-0.5"/>
                </g>
               <g id="resetDef">
                       <use xlink:href="#rim2" fill="#404040">
                               <set attributeName="fill" to="#808080" begin="reset.mouseover" end="reset.mouseout"/>
                       </use>
               </g>
        </defs>

<script type="text/javascript">
var viewWidth = 2094;
var viewHeight = 448;
var sectionId = 'dynsection-0';
</script>
<script xlink:href="../../svgpan.js"/>
<svg id="graph" class="graph">
<g id="viewport">
<title>/Users/fola/Documents/ArkScript/Ark/src/arkreactor/VM/Value/Closure.cpp</title>
<!-- Node1 -->
<g id="node1" class="node">
<title>Node1</title>
<g id="a_node1"><a xlink:title=" ">
<polygon fill="#999999" stroke="#666666" points="484.29,-439.75 343.79,-439.75 343.79,-398 484.29,-398 484.29,-439.75"/>
<text text-anchor="start" x="351.79" y="-426.25" font-family="Helvetica,sans-Serif" font-size="10.00">/Users/fola/Documents</text>
<text text-anchor="start" x="351.79" y="-415" font-family="Helvetica,sans-Serif" font-size="10.00">/ArkScript/Ark/src/arkreactor</text>
<text text-anchor="middle" x="414.04" y="-403.75" font-family="Helvetica,sans-Serif" font-size="10.00">/VM/Value/Closure.cpp</text>
</a>
</g>
</g>
<!-- Node2 -->
<g id="node2" class="node">
<title>Node2</title>
<g id="a_node2"><a xlink:href="../../dc/dd5/Closure_8hpp.html" target="_top" xlink:title="Subtype of the value type, handling closures.">
<polygon fill="white" stroke="#666666" points="338.79,-80.12 207.29,-80.12 207.29,-60.88 338.79,-60.88 338.79,-80.12"/>
<text text-anchor="middle" x="273.04" y="-66.62" font-family="Helvetica,sans-Serif" font-size="10.00">Ark/VM/Value/Closure.hpp</text>
</a>
</g>
</g>
<!-- Node1&#45;&gt;Node2 -->
<g id="edge1" class="edge">
<title>Node1&#45;&gt;Node2</title>
<path fill="none" stroke="#63b8ff" d="M343.47,-405.33C251.71,-386.97 103.04,-349.33 103.04,-298.12 103.04,-298.12 103.04,-298.12 103.04,-185.62 103.04,-128.78 169.37,-98.42 219.16,-83.64"/>
<polygon fill="#63b8ff" stroke="#63b8ff" points="220.01,-87.04 228.68,-80.96 218.11,-80.3 220.01,-87.04"/>
</g>
<!-- Node7 -->
<g id="node7" class="node">
<title>Node7</title>
<g id="a_node7"><a xlink:href="../../d8/dcd/Scope_8hpp.html" target="_top" xlink:title="The virtual machine scope system.">
<polygon fill="white" stroke="#666666" points="749.29,-196.25 650.79,-196.25 650.79,-177 749.29,-177 749.29,-196.25"/>
<text text-anchor="middle" x="700.04" y="-182.75" font-family="Helvetica,sans-Serif" font-size="10.00">Ark/VM/Scope.hpp</text>
</a>
</g>
</g>
<!-- Node1&#45;&gt;Node7 -->
<g id="edge6" class="edge">
<title>Node1&#45;&gt;Node7</title>
<path fill="none" stroke="#63b8ff" d="M439.17,-397.64C495.13,-352.59 629.07,-244.76 679.96,-203.79"/>
<polygon fill="#63b8ff" stroke="#63b8ff" points="681.95,-206.68 687.54,-197.69 677.56,-201.23 681.95,-206.68"/>
</g>
<!-- Node10 -->
<g id="node10" class="node">
<title>Node10</title>
<g id="a_node10"><a xlink:href="../../de/dfd/Value_8hpp.html" target="_top" xlink:title=" ">
<polygon fill="white" stroke="#666666" points="636.41,-141 541.66,-141 541.66,-121.75 636.41,-121.75 636.41,-141"/>
<text text-anchor="middle" x="589.04" y="-127.5" font-family="Helvetica,sans-Serif" font-size="10.00">Ark/VM/Value.hpp</text>
</a>
</g>
</g>
<!-- Node1&#45;&gt;Node10 -->
<g id="edge22" class="edge">
<title>Node1&#45;&gt;Node10</title>
<path fill="none" stroke="#63b8ff" d="M408.85,-397.69C403.22,-374.01 395.04,-333.49 395.04,-298.12 395.04,-298.12 395.04,-298.12 395.04,-240.88 395.04,-178.11 473.36,-151.3 530.47,-140.1"/>
<polygon fill="#63b8ff" stroke="#63b8ff" points="530.89,-143.58 540.09,-138.33 529.63,-136.69 530.89,-143.58"/>
</g>
<!-- Node14 -->
<g id="node14" class="node">
<title>Node14</title>
<g id="a_node14"><a xlink:href="../../d1/d91/VM_8hpp.html" target="_top" xlink:title="The ArkScript virtual machine.">
<polygon fill="white" stroke="#666666" points="953.91,-362 868.16,-362 868.16,-342.75 953.91,-342.75 953.91,-362"/>
<text text-anchor="middle" x="911.04" y="-348.5" font-family="Helvetica,sans-Serif" font-size="10.00">Ark/VM/VM.hpp</text>
</a>
</g>
</g>
<!-- Node1&#45;&gt;Node14 -->
<g id="edge23" class="edge">
<title>Node1&#45;&gt;Node14</title>
<path fill="none" stroke="#63b8ff" d="M484.72,-408.7C584.85,-395.71 765.86,-372.22 856.39,-360.47"/>
<polygon fill="#63b8ff" stroke="#63b8ff" points="856.79,-363.94 866.26,-359.19 855.89,-357 856.79,-363.94"/>
</g>
<!-- Node3 -->
<g id="node3" class="node">
<title>Node3</title>
<g id="a_node3"><a xlink:title=" ">
<polygon fill="#e0e0e0" stroke="#999999" points="340.66,-19.25 289.41,-19.25 289.41,0 340.66,0 340.66,-19.25"/>
<text text-anchor="middle" x="315.04" y="-5.75" font-family="Helvetica,sans-Serif" font-size="10.00">memory</text>
</a>
</g>
</g>
<!-- Node2&#45;&gt;Node3 -->
<g id="edge2" class="edge">
<title>Node2&#45;&gt;Node3</title>
<path fill="none" stroke="#63b8ff" d="M279.42,-60.56C285.4,-52.17 294.53,-39.38 302.04,-28.84"/>
<polygon fill="#63b8ff" stroke="#63b8ff" points="304.76,-31.06 307.72,-20.88 299.07,-26.99 304.76,-31.06"/>
</g>
<!-- Node4 -->
<g id="node4" class="node">
<title>Node4</title>
<g id="a_node4"><a xlink:title=" ">
<polygon fill="#e0e0e0" stroke="#999999" points="453.79,-19.25 400.29,-19.25 400.29,0 453.79,0 453.79,-19.25"/>
<text text-anchor="middle" x="427.04" y="-5.75" font-family="Helvetica,sans-Serif" font-size="10.00">iostream</text>
</a>
</g>
</g>
<!-- Node2&#45;&gt;Node4 -->
<g id="edge3" class="edge">
<title>Node2&#45;&gt;Node4</title>
<path fill="none" stroke="#63b8ff" d="M296.76,-60.43C322.43,-50.62 363.57,-34.89 392.75,-23.73"/>
<polygon fill="#63b8ff" stroke="#63b8ff" points="393.78,-27.09 401.87,-20.25 391.28,-20.55 393.78,-27.09"/>
</g>
<!-- Node5 -->
<g id="node5" class="node">
<title>Node5</title>
<g id="a_node5"><a xlink:title=" ">
<polygon fill="#e0e0e0" stroke="#999999" points="873.04,-19.25 833.04,-19.25 833.04,0 873.04,0 873.04,-19.25"/>
<text text-anchor="middle" x="853.04" y="-5.75" font-family="Helvetica,sans-Serif" font-size="10.00">string</text>
</a>
</g>
</g>
<!-- Node2&#45;&gt;Node5 -->
<g id="edge4" class="edge">
<title>Node2&#45;&gt;Node5</title>
<path fill="none" stroke="#63b8ff" d="M316.94,-60.4C327.12,-58.5 337.93,-56.65 348.04,-55.25 526.32,-30.5 742.03,-16.81 821.6,-12.31"/>
<polygon fill="#63b8ff" stroke="#63b8ff" points="821.45,-15.82 831.24,-11.77 821.06,-8.84 821.45,-15.82"/>
</g>
<!-- Node6 -->
<g id="node6" class="node">
<title>Node6</title>
<g id="a_node6"><a xlink:href="../../d5/d40/Platform_8hpp.html" target="_top" xlink:title="ArkScript configuration macros.">
<polygon fill="white" stroke="#666666" points="223.79,-19.25 134.29,-19.25 134.29,0 223.79,0 223.79,-19.25"/>
<text text-anchor="middle" x="179.04" y="-5.75" font-family="Helvetica,sans-Serif" font-size="10.00">Ark/Platform.hpp</text>
</a>
</g>
</g>
<!-- Node2&#45;&gt;Node6 -->
<g id="edge5" class="edge">
<title>Node2&#45;&gt;Node6</title>
<path fill="none" stroke="#63b8ff" d="M258.76,-60.56C243.99,-51.31 220.67,-36.7 203.05,-25.67"/>
<polygon fill="#63b8ff" stroke="#63b8ff" points="205.07,-22.8 194.73,-20.45 201.35,-28.73 205.07,-22.8"/>
</g>
<!-- Node7&#45;&gt;Node6 -->
<g id="edge9" class="edge">
<title>Node7&#45;&gt;Node6</title>
<path fill="none" stroke="#63b8ff" d="M650.29,-183.86C531.71,-178.49 237.79,-158.02 178.04,-85.75 165.47,-70.54 168.1,-47.07 172.36,-30.42"/>
<polygon fill="#63b8ff" stroke="#63b8ff" points="175.62,-31.74 175.13,-21.16 168.91,-29.74 175.62,-31.74"/>
</g>
<!-- Node8 -->
<g id="node8" class="node">
<title>Node8</title>
<g id="a_node8"><a xlink:title=" ">
<polygon fill="#e0e0e0" stroke="#999999" points="950.54,-19.25 907.54,-19.25 907.54,0 950.54,0 950.54,-19.25"/>
<text text-anchor="middle" x="929.04" y="-5.75" font-family="Helvetica,sans-Serif" font-size="10.00">vector</text>
</a>
</g>
</g>
<!-- Node7&#45;&gt;Node8 -->
<g id="edge7" class="edge">
<title>Node7&#45;&gt;Node8</title>
<path fill="none" stroke="#63b8ff" d="M698.49,-176.56C695.03,-153.02 689.37,-89.43 722.04,-55.25 728.07,-48.94 839.16,-27.42 896.05,-16.74"/>
<polygon fill="#63b8ff" stroke="#63b8ff" points="896.63,-20.19 905.82,-14.91 895.35,-13.31 896.63,-20.19"/>
</g>
<!-- Node9 -->
<g id="node9" class="node">
<title>Node9</title>
<g id="a_node9"><a xlink:title=" ">
<polygon fill="#e0e0e0" stroke="#999999" points="786.91,-80.12 731.16,-80.12 731.16,-60.88 786.91,-60.88 786.91,-80.12"/>
<text text-anchor="middle" x="759.04" y="-66.62" font-family="Helvetica,sans-Serif" font-size="10.00">cinttypes</text>
</a>
</g>
</g>
<!-- Node7&#45;&gt;Node9 -->
<g id="edge8" class="edge">
<title>Node7&#45;&gt;Node9</title>
<path fill="none" stroke="#63b8ff" d="M704.67,-176.67C714.23,-158.17 736.35,-115.38 749.24,-90.46"/>
<polygon fill="#63b8ff" stroke="#63b8ff" points="752.25,-92.25 753.74,-81.76 746.04,-89.03 752.25,-92.25"/>
</g>
<!-- Node7&#45;&gt;Node10 -->
<g id="edge10" class="edge">
<title>Node7&#45;&gt;Node10</title>
<path fill="none" stroke="#63b8ff" d="M681.21,-176.59C663.99,-168.33 638.24,-155.98 618.33,-146.43"/>
<polygon fill="#63b8ff" stroke="#63b8ff" points="619.86,-143.28 609.33,-142.11 616.83,-149.59 619.86,-143.28"/>
</g>
<!-- Node10&#45;&gt;Node2 -->
<g id="edge16" class="edge">
<title>Node10&#45;&gt;Node2</title>
<path fill="none" stroke="#63b8ff" d="M541.47,-121.63C492.85,-112.69 415.16,-98.34 348.04,-85.75 342.78,-84.76 337.31,-83.73 331.84,-82.7"/>
<polygon fill="#63b8ff" stroke="#63b8ff" points="332.61,-79.28 322.13,-80.86 331.31,-86.16 332.61,-79.28"/>
</g>
<!-- Node10&#45;&gt;Node5 -->
<g id="edge13" class="edge">
<title>Node10&#45;&gt;Node5</title>
<path fill="none" stroke="#63b8ff" d="M589.11,-121.4C589.76,-105.5 593.53,-72.46 613.04,-55.25 643.61,-28.29 763.7,-16.65 821.55,-12.53"/>
<polygon fill="#63b8ff" stroke="#63b8ff" points="821.65,-16.03 831.39,-11.87 821.17,-9.05 821.65,-16.03"/>
</g>
<!-- Node10&#45;&gt;Node6 -->
<g id="edge21" class="edge">
<title>Node10&#45;&gt;Node6</title>
<path fill="none" stroke="#63b8ff" d="M541.47,-127.95C442.92,-122.49 223.47,-107.98 198.04,-85.75 182.63,-72.28 178.83,-48.28 178.28,-31.03"/>
<polygon fill="#63b8ff" stroke="#63b8ff" points="181.77,-31.21 178.33,-21.19 174.77,-31.17 181.77,-31.21"/>
</g>
<!-- Node10&#45;&gt;Node8 -->
<g id="edge11" class="edge">
<title>Node10&#45;&gt;Node8</title>
<path fill="none" stroke="#63b8ff" d="M593.57,-121.4C602.27,-105.19 622.97,-71.23 651.04,-55.25 741.33,-3.83 779.6,-36.63 882.04,-19.25 886.51,-18.49 891.22,-17.66 895.86,-16.83"/>
<polygon fill="#63b8ff" stroke="#63b8ff" points="896.37,-20.29 905.57,-15.06 895.11,-13.41 896.37,-20.29"/>
</g>
<!-- Node10&#45;&gt;Node9 -->
<g id="edge14" class="edge">
<title>Node10&#45;&gt;Node9</title>
<path fill="none" stroke="#63b8ff" d="M615.23,-121.3C643.81,-111.41 689.78,-95.49 722.03,-84.32"/>
<polygon fill="#63b8ff" stroke="#63b8ff" points="723.09,-87.66 731.39,-81.08 720.8,-81.04 723.09,-87.66"/>
</g>
<!-- Node11 -->
<g id="node11" class="node">
<title>Node11</title>
<g id="a_node11"><a xlink:title=" ">
<polygon fill="#e0e0e0" stroke="#999999" points="560.66,-80.12 515.41,-80.12 515.41,-60.88 560.66,-60.88 560.66,-80.12"/>
<text text-anchor="middle" x="538.04" y="-66.62" font-family="Helvetica,sans-Serif" font-size="10.00">variant</text>
</a>
</g>
</g>
<!-- Node10&#45;&gt;Node11 -->
<g id="edge12" class="edge">
<title>Node10&#45;&gt;Node11</title>
<path fill="none" stroke="#63b8ff" d="M581.29,-121.43C573.88,-112.87 562.49,-99.73 553.26,-89.07"/>
<polygon fill="#63b8ff" stroke="#63b8ff" points="556.04,-86.94 546.85,-81.67 550.75,-91.52 556.04,-86.94"/>
</g>
<!-- Node12 -->
<g id="node12" class="node">
<title>Node12</title>
<g id="a_node12"><a xlink:title=" ">
<polygon fill="#e0e0e0" stroke="#999999" points="1759.91,-19.25 1722.16,-19.25 1722.16,0 1759.91,0 1759.91,-19.25"/>
<text text-anchor="middle" x="1741.04" y="-5.75" font-family="Helvetica,sans-Serif" font-size="10.00">array</text>
</a>
</g>
</g>
<!-- Node10&#45;&gt;Node12 -->
<g id="edge15" class="edge">
<title>Node10&#45;&gt;Node12</title>
<path fill="none" stroke="#63b8ff" d="M600.64,-121.27C622.75,-104.52 673.09,-69.27 722.04,-55.25 770.72,-41.31 1546.18,-16.65 1710.57,-11.56"/>
<polygon fill="#63b8ff" stroke="#63b8ff" points="1710.34,-15.07 1720.23,-11.26 1710.12,-8.07 1710.34,-15.07"/>
</g>
<!-- Node13 -->
<g id="node13" class="node">
<title>Node13</title>
<g id="a_node13"><a xlink:href="../../dc/d3d/UserType_8hpp.html" target="_top" xlink:title="Subtype of the value, capable of handling any C++ type.">
<polygon fill="white" stroke="#666666" points="496.91,-80.12 357.16,-80.12 357.16,-60.88 496.91,-60.88 496.91,-80.12"/>
<text text-anchor="middle" x="427.04" y="-66.62" font-family="Helvetica,sans-Serif" font-size="10.00">Ark/VM/Value/UserType.hpp</text>
</a>
</g>
</g>
<!-- Node10&#45;&gt;Node13 -->
<g id="edge17" class="edge">
<title>Node10&#45;&gt;Node13</title>
<path fill="none" stroke="#63b8ff" d="M564.08,-121.3C536.97,-111.45 493.42,-95.63 462.71,-84.46"/>
<polygon fill="#63b8ff" stroke="#63b8ff" points="464.04,-81.22 453.45,-81.1 461.65,-87.8 464.04,-81.22"/>
</g>
<!-- Node13&#45;&gt;Node4 -->
<g id="edge18" class="edge">
<title>Node13&#45;&gt;Node4</title>
<path fill="none" stroke="#63b8ff" d="M427.04,-60.56C427.04,-52.78 427.04,-41.2 427.04,-31.16"/>
<polygon fill="#63b8ff" stroke="#63b8ff" points="430.54,-31.16 427.04,-21.16 423.54,-31.16 430.54,-31.16"/>
</g>
<!-- Node13&#45;&gt;Node6 -->
<g id="edge20" class="edge">
<title>Node13&#45;&gt;Node6</title>
<path fill="none" stroke="#63b8ff" d="M388.83,-60.43C345.78,-50.21 275.66,-33.56 228.47,-22.36"/>
<polygon fill="#63b8ff" stroke="#63b8ff" points="229.3,-18.96 218.76,-20.06 227.68,-25.77 229.3,-18.96"/>
</g>
<!-- Node13&#45;&gt;Node8 -->
<g id="edge19" class="edge">
<title>Node13&#45;&gt;Node8</title>
<path fill="none" stroke="#63b8ff" d="M473.72,-60.42C484.32,-58.54 495.55,-56.7 506.04,-55.25 672.34,-32.33 715.77,-42.42 882.04,-19.25 886.53,-18.62 891.25,-17.87 895.89,-17.08"/>
<polygon fill="#63b8ff" stroke="#63b8ff" points="896.4,-20.54 905.62,-15.32 895.15,-13.65 896.4,-20.54"/>
</g>
<!-- Node14&#45;&gt;Node5 -->
<g id="edge26" class="edge">
<title>Node14&#45;&gt;Node5</title>
<path fill="none" stroke="#63b8ff" d="M896.98,-342.28C886.09,-334.35 871.76,-321.78 865.04,-306.75 822.33,-211.25 839.9,-80.64 848.93,-30.94"/>
<polygon fill="#63b8ff" stroke="#63b8ff" points="852.37,-31.61 850.81,-21.13 845.49,-30.29 852.37,-31.61"/>
</g>
<!-- Node14&#45;&gt;Node6 -->
<g id="edge72" class="edge">
<title>Node14&#45;&gt;Node6</title>
<path fill="none" stroke="#63b8ff" d="M867.78,-349.06C800.94,-344.78 668.91,-333.48 560.04,-306.75 408.28,-269.49 32.02,-124.45 6.04,-85.75 -1.52,-74.49 -2.26,-65.97 6.04,-55.25 20.37,-36.75 77.89,-24.56 122.72,-17.66"/>
<polygon fill="#63b8ff" stroke="#63b8ff" points="123.23,-21.13 132.61,-16.2 122.2,-14.2 123.23,-21.13"/>
</g>
<!-- Node14&#45;&gt;Node8 -->
<g id="edge25" class="edge">
<title>Node14&#45;&gt;Node8</title>
<path fill="none" stroke="#63b8ff" d="M954.05,-352.16C1085.18,-353.39 1471.04,-348.09 1471.04,-242.88 1471.04,-242.88 1471.04,-242.88 1471.04,-185.62 1471.04,-117.64 1597.36,-105.01 1551.04,-55.25 1510.71,-11.92 1085.27,-10.06 962.21,-10.43"/>
<polygon fill="#63b8ff" stroke="#63b8ff" points="962.45,-6.93 952.46,-10.47 962.47,-13.93 962.45,-6.93"/>
</g>
<!-- Node14&#45;&gt;Node9 -->
<g id="edge27" class="edge">
<title>Node14&#45;&gt;Node9</title>
<path fill="none" stroke="#63b8ff" d="M867.69,-342.62C845.24,-336.1 818.87,-325.05 801.04,-306.75 779.88,-285.03 777.04,-273.2 777.04,-242.88 777.04,-242.88 777.04,-242.88 777.04,-185.62 777.04,-152.44 769.52,-114.48 764.2,-91.78"/>
<polygon fill="#63b8ff" stroke="#63b8ff" points="767.6,-90.95 761.83,-82.07 760.8,-92.61 767.6,-90.95"/>
</g>
<!-- Node14&#45;&gt;Node10 -->
<g id="edge31" class="edge">
<title>Node14&#45;&gt;Node10</title>
<path fill="none" stroke="#63b8ff" d="M867.69,-349.38C800.58,-345.46 675.72,-334.55 642.04,-306.75 595.32,-268.2 588.84,-189.8 588.54,-152.7"/>
<polygon fill="#63b8ff" stroke="#63b8ff" points="592.04,-152.98 588.62,-142.95 585.04,-152.92 592.04,-152.98"/>
</g>
<!-- Node14&#45;&gt;Node12 -->
<g id="edge24" class="edge">
<title>Node14&#45;&gt;Node12</title>
<path fill="none" stroke="#63b8ff" d="M954.25,-349.7C1166.24,-341.18 2086.04,-300.88 2086.04,-242.88 2086.04,-242.88 2086.04,-242.88 2086.04,-130.38 2086.04,-64.05 1855.63,-26.16 1771.4,-14.52"/>
<polygon fill="#63b8ff" stroke="#63b8ff" points="1771.96,-11.06 1761.58,-13.19 1771.02,-18 1771.96,-11.06"/>
</g>
<!-- Node15 -->
<g id="node15" class="node">
<title>Node15</title>
<g id="a_node15"><a xlink:title=" ">
<polygon fill="#e0e0e0" stroke="#999999" points="1928.41,-141 1845.66,-141 1845.66,-121.75 1928.41,-121.75 1928.41,-141"/>
<text text-anchor="middle" x="1887.04" y="-127.5" font-family="Helvetica,sans-Serif" font-size="10.00">unordered_map</text>
</a>
</g>
</g>
<!-- Node14&#45;&gt;Node15 -->
<g id="edge28" class="edge">
<title>Node14&#45;&gt;Node15</title>
<path fill="none" stroke="#63b8ff" d="M954.18,-350.2C1073.68,-346.61 1407.2,-334.36 1513.04,-306.75 1653.35,-270.15 1805.58,-182.42 1863.17,-147.29"/>
<polygon fill="#63b8ff" stroke="#63b8ff" points="1864.83,-150.38 1871.51,-142.16 1861.16,-144.42 1864.83,-150.38"/>
</g>
<!-- Node16 -->
<g id="node16" class="node">
<title>Node16</title>
<g id="a_node16"><a xlink:title=" ">
<polygon fill="#e0e0e0" stroke="#999999" points="941.16,-306.75 880.91,-306.75 880.91,-287.5 941.16,-287.5 941.16,-306.75"/>
<text text-anchor="middle" x="911.04" y="-293.25" font-family="Helvetica,sans-Serif" font-size="10.00">fmt/core.h</text>
</a>
</g>
</g>
<!-- Node14&#45;&gt;Node16 -->
<g id="edge29" class="edge">
<title>Node14&#45;&gt;Node16</title>
<path fill="none" stroke="#63b8ff" d="M911.04,-342.58C911.04,-336.07 911.04,-326.92 911.04,-318.62"/>
<polygon fill="#63b8ff" stroke="#63b8ff" points="914.54,-318.62 911.04,-308.62 907.54,-318.62 914.54,-318.62"/>
</g>
<!-- Node17 -->
<g id="node17" class="node">
<title>Node17</title>
<g id="a_node17"><a xlink:href="../../d8/daa/Instructions_8hpp.html" target="_top" xlink:title="The different instructions used by the compiler and virtual machine.">
<polygon fill="white" stroke="#666666" points="1104.91,-306.75 959.16,-306.75 959.16,-287.5 1104.91,-287.5 1104.91,-306.75"/>
<text text-anchor="middle" x="1032.04" y="-293.25" font-family="Helvetica,sans-Serif" font-size="10.00">Ark/Compiler/Instructions.hpp</text>
</a>
</g>
</g>
<!-- Node14&#45;&gt;Node17 -->
<g id="edge30" class="edge">
<title>Node14&#45;&gt;Node17</title>
<path fill="none" stroke="#63b8ff" d="M931.57,-342.34C950.6,-333.97 979.19,-321.38 1001.01,-311.78"/>
<polygon fill="#63b8ff" stroke="#63b8ff" points="1002.28,-315.04 1010.03,-307.81 999.47,-308.64 1002.28,-315.04"/>
</g>
<!-- Node18 -->
<g id="node18" class="node">
<title>Node18</title>
<g id="a_node18"><a xlink:href="../../d0/db5/State_8hpp.html" target="_top" xlink:title="State used by the virtual machine: it loads the bytecode, can compile it if needed,...">
<polygon fill="white" stroke="#666666" points="1642.04,-196.25 1548.04,-196.25 1548.04,-177 1642.04,-177 1642.04,-196.25"/>
<text text-anchor="middle" x="1595.04" y="-182.75" font-family="Helvetica,sans-Serif" font-size="10.00">Ark/VM/State.hpp</text>
</a>
</g>
</g>
<!-- Node14&#45;&gt;Node18 -->
<g id="edge32" class="edge">
<title>Node14&#45;&gt;Node18</title>
<path fill="none" stroke="#63b8ff" d="M954.15,-352.04C1071.03,-353.21 1391.5,-352.1 1485.04,-306.75 1531.11,-284.42 1567.23,-233.7 1584.3,-206.19"/>
<polygon fill="#63b8ff" stroke="#63b8ff" points="1587.14,-208.26 1589.28,-197.89 1581.14,-204.66 1587.14,-208.26"/>
</g>
<!-- Node28 -->
<g id="node28" class="node">
<title>Node28</title>
<g id="a_node28"><a xlink:href="../../de/df9/ErrorKind_8hpp.html" target="_top" xlink:title=" ">
<polygon fill="white" stroke="#666666" points="2057.66,-141 1946.41,-141 1946.41,-121.75 2057.66,-121.75 2057.66,-141"/>
<text text-anchor="middle" x="2002.04" y="-127.5" font-family="Helvetica,sans-Serif" font-size="10.00">Ark/VM/ErrorKind.hpp</text>
</a>
</g>
</g>
<!-- Node14&#45;&gt;Node28 -->
<g id="edge54" class="edge">
<title>Node14&#45;&gt;Node28</title>
<path fill="none" stroke="#63b8ff" d="M953.99,-350.08C1078.95,-346.04 1440.72,-332.4 1556.04,-306.75 1622.55,-291.96 1635.56,-276.24 1699.04,-251.5 1797.09,-213.29 1912.78,-167.65 1968.59,-145.6"/>
<polygon fill="#63b8ff" stroke="#63b8ff" points="1969.83,-148.87 1977.84,-141.94 1967.26,-142.36 1969.83,-148.87"/>
</g>
<!-- Node29 -->
<g id="node29" class="node">
<title>Node29</title>
<g id="a_node29"><a xlink:href="../../db/df6/ExecutionContext_8hpp.html" target="_top" xlink:title="Keeping track of the internal data needed by the VM.">
<polygon fill="white" stroke="#666666" points="1141.41,-251.5 992.66,-251.5 992.66,-232.25 1141.41,-232.25 1141.41,-251.5"/>
<text text-anchor="middle" x="1067.04" y="-238" font-family="Helvetica,sans-Serif" font-size="10.00">Ark/VM/ExecutionContext.hpp</text>
</a>
</g>
</g>
<!-- Node14&#45;&gt;Node29 -->
<g id="edge57" class="edge">
<title>Node14&#45;&gt;Node29</title>
<path fill="none" stroke="#63b8ff" d="M954.23,-351.33C1027.34,-350.24 1170.62,-343.35 1202.04,-306.75 1224.91,-280.11 1185.82,-263.78 1143.92,-254.31"/>
<polygon fill="#63b8ff" stroke="#63b8ff" points="1144.65,-250.89 1134.14,-252.24 1143.2,-257.74 1144.65,-250.89"/>
</g>
<!-- Node32 -->
<g id="node32" class="node">
<title>Node32</title>
<g id="a_node32"><a xlink:href="../../da/d84/Builtins_8hpp.html" target="_top" xlink:title="Host the declaration of all the ArkScript builtins.">
<polygon fill="white" stroke="#666666" points="1039.16,-196.25 918.91,-196.25 918.91,-177 1039.16,-177 1039.16,-196.25"/>
<text text-anchor="middle" x="979.04" y="-182.75" font-family="Helvetica,sans-Serif" font-size="10.00">Ark/Builtins/Builtins.hpp</text>
</a>
</g>
</g>
<!-- Node14&#45;&gt;Node32 -->
<g id="edge68" class="edge">
<title>Node14&#45;&gt;Node32</title>
<path fill="none" stroke="#63b8ff" d="M898.83,-342.29C884.28,-330.29 863.03,-308.23 872.04,-287.5 888.49,-249.64 927.14,-219.62 953.2,-202.73"/>
<polygon fill="#63b8ff" stroke="#63b8ff" points="954.92,-205.78 961.55,-197.51 951.21,-199.84 954.92,-205.78"/>
</g>
<!-- Node33 -->
<g id="node33" class="node">
<title>Node33</title>
<g id="a_node33"><a xlink:href="../../db/d0e/Plugin_8hpp.html" target="_top" xlink:title="Loads .dll/.so/.dynlib files.">
<polygon fill="white" stroke="#666666" points="112.91,-80.12 15.16,-80.12 15.16,-60.88 112.91,-60.88 112.91,-80.12"/>
<text text-anchor="middle" x="64.04" y="-66.62" font-family="Helvetica,sans-Serif" font-size="10.00">Ark/VM/Plugin.hpp</text>
</a>
</g>
</g>
<!-- Node14&#45;&gt;Node33 -->
<g id="edge73" class="edge">
<title>Node14&#45;&gt;Node33</title>
<path fill="none" stroke="#63b8ff" d="M868.07,-348.1C810.83,-342.98 706.81,-331.06 621.04,-306.75 408.83,-246.61 169.74,-126.71 90.85,-85.67"/>
<polygon fill="#63b8ff" stroke="#63b8ff" points="92.63,-82.65 82.15,-81.11 89.39,-88.85 92.63,-82.65"/>
</g>
<!-- Node35 -->
<g id="node35" class="node">
<title>Node35</title>
<g id="a_node35"><a xlink:href="../../d0/dda/Future_8hpp.html" target="_top" xlink:title=" ">
<polygon fill="white" stroke="#666666" points="749.29,-306.75 650.79,-306.75 650.79,-287.5 749.29,-287.5 749.29,-306.75"/>
<text text-anchor="middle" x="700.04" y="-293.25" font-family="Helvetica,sans-Serif" font-size="10.00">Ark/VM/Future.hpp</text>
</a>
</g>
</g>
<!-- Node14&#45;&gt;Node35 -->
<g id="edge77" class="edge">
<title>Node14&#45;&gt;Node35</title>
<path fill="none" stroke="#63b8ff" d="M875.25,-342.34C839.93,-333.43 785.76,-319.76 747,-309.98"/>
<polygon fill="#63b8ff" stroke="#63b8ff" points="748.03,-306.63 737.48,-307.57 746.32,-313.41 748.03,-306.63"/>
</g>
<!-- Node37 -->
<g id="node37" class="node">
<title>Node37</title>
<g id="a_node37"><a xlink:title=" ">
<polygon fill="#e0e0e0" stroke="#999999" points="1192.66,-306.75 1123.41,-306.75 1123.41,-287.5 1192.66,-287.5 1192.66,-306.75"/>
<text text-anchor="middle" x="1158.04" y="-293.25" font-family="Helvetica,sans-Serif" font-size="10.00">inline/VM.inl</text>
</a>
</g>
</g>
<!-- Node14&#45;&gt;Node37 -->
<g id="edge82" class="edge">
<title>Node14&#45;&gt;Node37</title>
<path fill="none" stroke="#63b8ff" d="M953.22,-342.28C997.42,-332.75 1066.65,-317.83 1112.18,-308.01"/>
<polygon fill="#63b8ff" stroke="#63b8ff" points="1112.7,-311.48 1121.74,-305.95 1111.22,-304.64 1112.7,-311.48"/>
</g>
<!-- Node18&#45;&gt;Node5 -->
<g id="edge33" class="edge">
<title>Node18&#45;&gt;Node5</title>
<path fill="none" stroke="#63b8ff" d="M1587.94,-176.6C1581.49,-167.95 1572.23,-154.29 1567.04,-141 1552.93,-104.89 1580.17,-80.84 1551.04,-55.25 1496.53,-7.37 971.07,-27.95 899.04,-19.25 894.23,-18.67 889.17,-17.89 884.23,-17.04"/>
<polygon fill="#63b8ff" stroke="#63b8ff" points="885.06,-13.63 874.59,-15.25 883.79,-20.52 885.06,-13.63"/>
</g>
<!-- Node18&#45;&gt;Node8 -->
<g id="edge34" class="edge">
<title>Node18&#45;&gt;Node8</title>
<path fill="none" stroke="#63b8ff" d="M1611.26,-176.65C1623.35,-168.96 1638.94,-156.64 1646.04,-141 1658.86,-112.74 1634.23,-64.41 1622.04,-55.25 1568.88,-15.31 1092.69,-11.07 962.06,-10.66"/>
<polygon fill="#63b8ff" stroke="#63b8ff" points="962.38,-7.16 952.37,-10.63 962.36,-14.16 962.38,-7.16"/>
</g>
<!-- Node18&#45;&gt;Node10 -->
<g id="edge37" class="edge">
<title>Node18&#45;&gt;Node10</title>
<path fill="none" stroke="#63b8ff" d="M1547.87,-183.13C1382.71,-174.39 830.67,-145.17 648.17,-135.51"/>
<polygon fill="#63b8ff" stroke="#63b8ff" points="648.38,-132.01 638.21,-134.98 648.01,-139 648.38,-132.01"/>
</g>
<!-- Node18&#45;&gt;Node15 -->
<g id="edge35" class="edge">
<title>Node18&#45;&gt;Node15</title>
<path fill="none" stroke="#63b8ff" d="M1642.28,-177.01C1694.87,-167.42 1779.65,-151.96 1834.35,-141.98"/>
<polygon fill="#63b8ff" stroke="#63b8ff" points="1834.84,-145.45 1844.05,-140.21 1833.59,-138.57 1834.84,-145.45"/>
</g>
<!-- Node19 -->
<g id="node19" class="node">
<title>Node19</title>
<g id="a_node19"><a xlink:title=" ">
<polygon fill="#e0e0e0" stroke="#999999" points="1636.54,-141 1575.54,-141 1575.54,-121.75 1636.54,-121.75 1636.54,-141"/>
<text text-anchor="middle" x="1606.04" y="-127.5" font-family="Helvetica,sans-Serif" font-size="10.00">filesystem</text>
</a>
</g>
</g>
<!-- Node18&#45;&gt;Node19 -->
<g id="edge36" class="edge">
<title>Node18&#45;&gt;Node19</title>
<path fill="none" stroke="#63b8ff" d="M1596.86,-176.83C1598.22,-170.24 1600.14,-160.96 1601.87,-152.57"/>
<polygon fill="#63b8ff" stroke="#63b8ff" points="1605.28,-153.34 1603.88,-142.84 1598.43,-151.93 1605.28,-153.34"/>
</g>
<!-- Node20 -->
<g id="node20" class="node">
<title>Node20</title>
<g id="a_node20"><a xlink:href="../../d8/ddd/Common_8hpp.html" target="_top" xlink:title="Common code for the compiler.">
<polygon fill="white" stroke="#666666" points="1827.29,-141 1692.79,-141 1692.79,-121.75 1827.29,-121.75 1827.29,-141"/>
<text text-anchor="middle" x="1760.04" y="-127.5" font-family="Helvetica,sans-Serif" font-size="10.00">Ark/Compiler/Common.hpp</text>
</a>
</g>
</g>
<!-- Node18&#45;&gt;Node20 -->
<g id="edge38" class="edge">
<title>Node18&#45;&gt;Node20</title>
<path fill="none" stroke="#63b8ff" d="M1623.03,-176.59C1650.05,-167.87 1691.2,-154.59 1721.35,-144.86"/>
<polygon fill="#63b8ff" stroke="#63b8ff" points="1722.03,-148.32 1730.47,-141.92 1719.88,-141.66 1722.03,-148.32"/>
</g>
<!-- Node22 -->
<g id="node22" class="node">
<title>Node22</title>
<g id="a_node22"><a xlink:href="../../d2/de9/Exceptions_8hpp.html" target="_top" xlink:title="ArkScript homemade exceptions.">
<polygon fill="white" stroke="#666666" points="1198.79,-141 1097.29,-141 1097.29,-121.75 1198.79,-121.75 1198.79,-141"/>
<text text-anchor="middle" x="1148.04" y="-127.5" font-family="Helvetica,sans-Serif" font-size="10.00">Ark/Exceptions.hpp</text>
</a>
</g>
</g>
<!-- Node18&#45;&gt;Node22 -->
<g id="edge42" class="edge">
<title>Node18&#45;&gt;Node22</title>
<path fill="none" stroke="#63b8ff" d="M1547.63,-179.98C1466.39,-170.3 1300.64,-150.55 1210.24,-139.78"/>
<polygon fill="#63b8ff" stroke="#63b8ff" points="1210.91,-136.34 1200.57,-138.63 1210.08,-143.29 1210.91,-136.34"/>
</g>
<!-- Node20&#45;&gt;Node8 -->
<g id="edge41" class="edge">
<title>Node20&#45;&gt;Node8</title>
<path fill="none" stroke="#63b8ff" d="M1751.75,-121.34C1735.85,-104.71 1699.17,-69.65 1660.04,-55.25 1594.09,-30.98 1096.79,-15.35 962.42,-11.53"/>
<polygon fill="#63b8ff" stroke="#63b8ff" points="962.53,-8.04 952.43,-11.25 962.33,-15.03 962.53,-8.04"/>
</g>
<!-- Node20&#45;&gt;Node12 -->
<g id="edge39" class="edge">
<title>Node20&#45;&gt;Node12</title>
<path fill="none" stroke="#63b8ff" d="M1758.61,-121.37C1755.59,-102.3 1748.46,-57.41 1744.27,-31.01"/>
<polygon fill="#63b8ff" stroke="#63b8ff" points="1747.75,-30.55 1742.72,-21.23 1740.83,-31.65 1747.75,-30.55"/>
</g>
<!-- Node21 -->
<g id="node21" class="node">
<title>Node21</title>
<g id="a_node21"><a xlink:title=" ">
<polygon fill="#e0e0e0" stroke="#999999" points="1853.79,-80.12 1788.29,-80.12 1788.29,-60.88 1853.79,-60.88 1853.79,-80.12"/>
<text text-anchor="middle" x="1821.04" y="-66.62" font-family="Helvetica,sans-Serif" font-size="10.00">string_view</text>
</a>
</g>
</g>
<!-- Node20&#45;&gt;Node21 -->
<g id="edge40" class="edge">
<title>Node20&#45;&gt;Node21</title>
<path fill="none" stroke="#63b8ff" d="M1769.3,-121.43C1778.35,-112.7 1792.35,-99.19 1803.5,-88.43"/>
<polygon fill="#63b8ff" stroke="#63b8ff" points="1805.83,-91.04 1810.6,-81.58 1800.97,-86 1805.83,-91.04"/>
</g>
<!-- Node22&#45;&gt;Node4 -->
<g id="edge48" class="edge">
<title>Node22&#45;&gt;Node4</title>
<path fill="none" stroke="#63b8ff" d="M1135.3,-121.31C1122.87,-112.4 1103.49,-98.36 1087.04,-85.75 1069.85,-72.58 1069.2,-63.16 1049.04,-55.25 941.98,-13.24 584.23,-10.22 465.62,-10.41"/>
<polygon fill="#63b8ff" stroke="#63b8ff" points="465.77,-6.91 455.78,-10.44 465.78,-13.91 465.77,-6.91"/>
</g>
<!-- Node22&#45;&gt;Node5 -->
<g id="edge43" class="edge">
<title>Node22&#45;&gt;Node5</title>
<path fill="none" stroke="#63b8ff" d="M1143.57,-121.49C1134.98,-105.43 1114.59,-71.71 1087.04,-55.25 1085.95,-54.6 947.65,-28.46 884.21,-16.5"/>
<polygon fill="#63b8ff" stroke="#63b8ff" points="885.24,-13.13 874.77,-14.72 883.95,-20.01 885.24,-13.13"/>
</g>
<!-- Node22&#45;&gt;Node6 -->
<g id="edge53" class="edge">
<title>Node22&#45;&gt;Node6</title>
<path fill="none" stroke="#63b8ff" d="M1122.05,-121.31C1101.36,-113.49 1072.15,-101.05 1049.04,-85.75 1032.39,-74.73 1034.45,-62.98 1016.04,-55.25 940.55,-23.56 361.73,-24.73 280.04,-19.25 265.63,-18.28 250.08,-17.05 235.6,-15.82"/>
<polygon fill="#63b8ff" stroke="#63b8ff" points="236.04,-12.34 225.77,-14.97 235.43,-19.32 236.04,-12.34"/>
</g>
<!-- Node22&#45;&gt;Node8 -->
<g id="edge44" class="edge">
<title>Node22&#45;&gt;Node8</title>
<path fill="none" stroke="#63b8ff" d="M1148.03,-121.49C1147.5,-105.73 1144.02,-72.89 1125.04,-55.25 1101.66,-33.52 1011.62,-20.06 962.12,-14.15"/>
<polygon fill="#63b8ff" stroke="#63b8ff" points="962.6,-10.68 952.27,-13.01 961.8,-17.63 962.6,-10.68"/>
</g>
<!-- Node23 -->
<g id="node23" class="node">
<title>Node23</title>
<g id="a_node23"><a xlink:title=" ">
<polygon fill="#e0e0e0" stroke="#999999" points="1235.41,-80.12 1176.66,-80.12 1176.66,-60.88 1235.41,-60.88 1235.41,-80.12"/>
<text text-anchor="middle" x="1206.04" y="-66.62" font-family="Helvetica,sans-Serif" font-size="10.00">stdexcept</text>
</a>
</g>
</g>
<!-- Node22&#45;&gt;Node23 -->
<g id="edge45" class="edge">
<title>Node22&#45;&gt;Node23</title>
<path fill="none" stroke="#63b8ff" d="M1156.85,-121.43C1165.45,-112.7 1178.76,-99.19 1189.36,-88.43"/>
<polygon fill="#63b8ff" stroke="#63b8ff" points="1191.56,-91.18 1196.09,-81.6 1186.57,-86.27 1191.56,-91.18"/>
</g>
<!-- Node24 -->
<g id="node24" class="node">
<title>Node24</title>
<g id="a_node24"><a xlink:title=" ">
<polygon fill="#e0e0e0" stroke="#999999" points="1006.91,-80.12 957.16,-80.12 957.16,-60.88 1006.91,-60.88 1006.91,-80.12"/>
<text text-anchor="middle" x="982.04" y="-66.62" font-family="Helvetica,sans-Serif" font-size="10.00">optional</text>
</a>
</g>
</g>
<!-- Node22&#45;&gt;Node24 -->
<g id="edge46" class="edge">
<title>Node22&#45;&gt;Node24</title>
<path fill="none" stroke="#63b8ff" d="M1122.22,-121.41C1096.54,-112.46 1056.02,-98.29 1021.04,-85.75 1019.89,-85.34 1018.71,-84.92 1017.53,-84.49"/>
<polygon fill="#63b8ff" stroke="#63b8ff" points="1018.8,-81.23 1008.2,-81.11 1016.41,-87.81 1018.8,-81.23"/>
</g>
<!-- Node25 -->
<g id="node25" class="node">
<title>Node25</title>
<g id="a_node25"><a xlink:title=" ">
<polygon fill="#e0e0e0" stroke="#999999" points="1304.66,-80.12 1253.41,-80.12 1253.41,-60.88 1304.66,-60.88 1304.66,-80.12"/>
<text text-anchor="middle" x="1279.04" y="-66.62" font-family="Helvetica,sans-Serif" font-size="10.00">ostream</text>
</a>
</g>
</g>
<!-- Node22&#45;&gt;Node25 -->
<g id="edge47" class="edge">
<title>Node22&#45;&gt;Node25</title>
<path fill="none" stroke="#63b8ff" d="M1168.22,-121.3C1189.73,-111.64 1224.02,-96.23 1248.76,-85.11"/>
<polygon fill="#63b8ff" stroke="#63b8ff" points="1249.98,-88.4 1257.67,-81.1 1247.11,-82.01 1249.98,-88.4"/>
</g>
<!-- Node26 -->
<g id="node26" class="node">
<title>Node26</title>
<g id="a_node26"><a xlink:href="../../db/d4e/utf8__char_8hpp.html" target="_top" xlink:title=" ">
<polygon fill="white" stroke="#666666" points="1437.54,-85.75 1322.54,-85.75 1322.54,-55.25 1437.54,-55.25 1437.54,-85.75"/>
<text text-anchor="start" x="1330.54" y="-72.25" font-family="Helvetica,sans-Serif" font-size="10.00">Ark/Compiler/AST/utf8</text>
<text text-anchor="middle" x="1380.04" y="-61" font-family="Helvetica,sans-Serif" font-size="10.00">_char.hpp</text>
</a>
</g>
</g>
<!-- Node22&#45;&gt;Node26 -->
<g id="edge49" class="edge">
<title>Node22&#45;&gt;Node26</title>
<path fill="none" stroke="#63b8ff" d="M1183.78,-121.3C1217.62,-112.72 1269.33,-99.6 1311.17,-88.98"/>
<polygon fill="#63b8ff" stroke="#63b8ff" points="1311.84,-92.42 1320.67,-86.57 1310.11,-85.63 1311.84,-92.42"/>
</g>
<!-- Node26&#45;&gt;Node5 -->
<g id="edge51" class="edge">
<title>Node26&#45;&gt;Node5</title>
<path fill="none" stroke="#63b8ff" d="M1322.17,-56.57C1319.43,-56.1 1316.71,-55.65 1314.04,-55.25 1130.97,-27.66 1082.47,-44.34 899.04,-19.25 894.24,-18.59 889.18,-17.77 884.24,-16.91"/>
<polygon fill="#63b8ff" stroke="#63b8ff" points="885.08,-13.5 874.61,-15.11 883.8,-20.38 885.08,-13.5"/>
</g>
<!-- Node26&#45;&gt;Node12 -->
<g id="edge50" class="edge">
<title>Node26&#45;&gt;Node12</title>
<path fill="none" stroke="#63b8ff" d="M1437.64,-60.11C1515.11,-47.47 1650.11,-25.45 1710.42,-15.62"/>
<polygon fill="#63b8ff" stroke="#63b8ff" points="1710.97,-19.07 1720.28,-14.01 1709.85,-12.17 1710.97,-19.07"/>
</g>
<!-- Node27 -->
<g id="node27" class="node">
<title>Node27</title>
<g id="a_node27"><a xlink:title=" ">
<polygon fill="#e0e0e0" stroke="#999999" points="1442.66,-19.25 1403.41,-19.25 1403.41,0 1442.66,0 1442.66,-19.25"/>
<text text-anchor="middle" x="1423.04" y="-5.75" font-family="Helvetica,sans-Serif" font-size="10.00">limits</text>
</a>
</g>
</g>
<!-- Node26&#45;&gt;Node27 -->
<g id="edge52" class="edge">
<title>Node26&#45;&gt;Node27</title>
<path fill="none" stroke="#63b8ff" d="M1390.67,-54.95C1396.4,-47.1 1403.52,-37.35 1409.63,-28.99"/>
<polygon fill="#63b8ff" stroke="#63b8ff" points="1412.45,-31.06 1415.52,-20.92 1406.79,-26.93 1412.45,-31.06"/>
</g>
<!-- Node28&#45;&gt;Node12 -->
<g id="edge55" class="edge">
<title>Node28&#45;&gt;Node12</title>
<path fill="none" stroke="#63b8ff" d="M1986.98,-121.29C1961.86,-106.36 1909.56,-76.2 1863.04,-55.25 1832.37,-41.44 1796.02,-28.57 1771.03,-20.24"/>
<polygon fill="#63b8ff" stroke="#63b8ff" points="1772.43,-17.02 1761.84,-17.21 1770.24,-23.67 1772.43,-17.02"/>
</g>
<!-- Node28&#45;&gt;Node21 -->
<g id="edge56" class="edge">
<title>Node28&#45;&gt;Node21</title>
<path fill="none" stroke="#63b8ff" d="M1974.16,-121.3C1943.46,-111.32 1893.93,-95.21 1859.54,-84.02"/>
<polygon fill="#63b8ff" stroke="#63b8ff" points="1860.99,-80.81 1850.4,-81.05 1858.82,-87.47 1860.99,-80.81"/>
</g>
<!-- Node29&#45;&gt;Node3 -->
<g id="edge60" class="edge">
<title>Node29&#45;&gt;Node3</title>
<path fill="none" stroke="#63b8ff" d="M1002.52,-231.78C972.57,-225.33 937.58,-214.45 910.04,-196.25 842.81,-151.82 867.15,-93.16 796.04,-55.25 716.31,-12.74 480.94,-28.35 391.04,-19.25 378.42,-17.97 364.65,-16.45 352.33,-15.04"/>
<polygon fill="#63b8ff" stroke="#63b8ff" points="352.89,-11.58 342.56,-13.91 352.09,-18.54 352.89,-11.58"/>
</g>
<!-- Node29&#45;&gt;Node7 -->
<g id="edge67" class="edge">
<title>Node29&#45;&gt;Node7</title>
<path fill="none" stroke="#63b8ff" d="M1004.37,-231.78C936.24,-221.9 828.13,-206.21 760.78,-196.44"/>
<polygon fill="#63b8ff" stroke="#63b8ff" points="761.41,-192.99 751.01,-195.02 760.4,-199.92 761.41,-192.99"/>
</g>
<!-- Node29&#45;&gt;Node10 -->
<g id="edge66" class="edge">
<title>Node29&#45;&gt;Node10</title>
<path fill="none" stroke="#63b8ff" d="M992.47,-239.74C887.11,-237.02 700.91,-227.76 642.04,-196.25 623.02,-186.07 608.13,-165.96 599.03,-151.01"/>
<polygon fill="#63b8ff" stroke="#63b8ff" points="602.21,-149.52 594.21,-142.57 596.13,-152.99 602.21,-149.52"/>
</g>
<!-- Node29&#45;&gt;Node12 -->
<g id="edge58" class="edge">
<title>Node29&#45;&gt;Node12</title>
<path fill="none" stroke="#63b8ff" d="M1141.71,-235.53C1201.11,-229.82 1285.78,-218.41 1357.04,-196.25 1500.45,-151.66 1657.66,-61.21 1716.78,-25.55"/>
<polygon fill="#63b8ff" stroke="#63b8ff" points="1718.32,-28.71 1725.05,-20.53 1714.69,-22.73 1718.32,-28.71"/>
</g>
<!-- Node29&#45;&gt;Node24 -->
<g id="edge61" class="edge">
<title>Node29&#45;&gt;Node24</title>
<path fill="none" stroke="#63b8ff" d="M1065.18,-231.93C1062.39,-219.32 1056.51,-195.77 1048.04,-177 1033.36,-144.49 1010.16,-110.03 995.54,-89.66"/>
<polygon fill="#63b8ff" stroke="#63b8ff" points="998.56,-87.86 989.84,-81.84 992.9,-91.98 998.56,-87.86"/>
</g>
<!-- Node29&#45;&gt;Node27 -->
<g id="edge59" class="edge">
<title>Node29&#45;&gt;Node27</title>
<path fill="none" stroke="#63b8ff" d="M1085.68,-231.82C1129.01,-210.94 1240.15,-158.42 1336.04,-121.75 1384.48,-103.23 1416.54,-127.7 1447.04,-85.75 1459.57,-68.51 1447.99,-44.45 1436.98,-28.25"/>
<polygon fill="#63b8ff" stroke="#63b8ff" points="1440.05,-26.52 1431.32,-20.52 1434.41,-30.66 1440.05,-26.52"/>
</g>
<!-- Node30 -->
<g id="node30" class="node">
<title>Node30</title>
<g id="a_node30"><a xlink:href="../../d6/de9/Constants_8hpp.html" target="_top" xlink:title="Constants used by ArkScript.">
<polygon fill="white" stroke="#666666" points="1442.91,-141 1345.16,-141 1345.16,-121.75 1442.91,-121.75 1442.91,-141"/>
<text text-anchor="middle" x="1394.04" y="-127.5" font-family="Helvetica,sans-Serif" font-size="10.00">Ark/Constants.hpp</text>
</a>
</g>
</g>
<!-- Node29&#45;&gt;Node30 -->
<g id="edge62" class="edge">
<title>Node29&#45;&gt;Node30</title>
<path fill="none" stroke="#63b8ff" d="M1141.77,-240.39C1196.87,-237.23 1272.18,-226.88 1331.04,-196.25 1351.92,-185.38 1370.1,-165.09 1381.5,-150.28"/>
<polygon fill="#63b8ff" stroke="#63b8ff" points="1384.25,-152.44 1387.35,-142.31 1378.61,-148.3 1384.25,-152.44"/>
</g>
<!-- Node30&#45;&gt;Node9 -->
<g id="edge64" class="edge">
<title>Node30&#45;&gt;Node9</title>
<path fill="none" stroke="#63b8ff" d="M1344.74,-125.8C1222.86,-114.5 909.25,-85.43 798.49,-75.16"/>
<polygon fill="#63b8ff" stroke="#63b8ff" points="799,-71.69 788.72,-74.25 798.36,-78.66 799,-71.69"/>
</g>
<!-- Node30&#45;&gt;Node21 -->
<g id="edge63" class="edge">
<title>Node30&#45;&gt;Node21</title>
<path fill="none" stroke="#63b8ff" d="M1443.02,-123.62C1526.75,-112.08 1696.12,-88.72 1776.62,-77.62"/>
<polygon fill="#63b8ff" stroke="#63b8ff" points="1776.9,-81.12 1786.33,-76.29 1775.94,-74.18 1776.9,-81.12"/>
</g>
<!-- Node31 -->
<g id="node31" class="node">
<title>Node31</title>
<g id="a_node31"><a xlink:title=" ">
<polygon fill="#e0e0e0" stroke="#999999" points="1542.16,-80.12 1493.91,-80.12 1493.91,-60.88 1542.16,-60.88 1542.16,-80.12"/>
<text text-anchor="middle" x="1518.04" y="-66.62" font-family="Helvetica,sans-Serif" font-size="10.00">cstddef</text>
</a>
</g>
</g>
<!-- Node30&#45;&gt;Node31 -->
<g id="edge65" class="edge">
<title>Node30&#45;&gt;Node31</title>
<path fill="none" stroke="#63b8ff" d="M1413.14,-121.3C1433.32,-111.73 1465.38,-96.5 1488.75,-85.41"/>
<polygon fill="#63b8ff" stroke="#63b8ff" points="1490.22,-88.58 1497.75,-81.13 1487.22,-82.26 1490.22,-88.58"/>
</g>
<!-- Node32&#45;&gt;Node8 -->
<g id="edge69" class="edge">
<title>Node32&#45;&gt;Node8</title>
<path fill="none" stroke="#63b8ff" d="M976.06,-176.58C970.33,-159.12 957.53,-119.48 948.04,-85.75 942.8,-67.13 937.45,-45.74 933.77,-30.55"/>
<polygon fill="#63b8ff" stroke="#63b8ff" points="937.2,-29.83 931.46,-20.93 930.39,-31.47 937.2,-29.83"/>
</g>
<!-- Node32&#45;&gt;Node10 -->
<g id="edge70" class="edge">
<title>Node32&#45;&gt;Node10</title>
<path fill="none" stroke="#63b8ff" d="M918.53,-177.36C844.81,-167.3 721.09,-150.4 648.05,-140.43"/>
<polygon fill="#63b8ff" stroke="#63b8ff" points="648.66,-136.98 638.28,-139.1 647.71,-143.92 648.66,-136.98"/>
</g>
<!-- Node32&#45;&gt;Node22 -->
<g id="edge71" class="edge">
<title>Node32&#45;&gt;Node22</title>
<path fill="none" stroke="#63b8ff" d="M1007.71,-176.59C1035.39,-167.87 1077.53,-154.59 1108.41,-144.86"/>
<polygon fill="#63b8ff" stroke="#63b8ff" points="1109.3,-148.25 1117.79,-141.91 1107.2,-141.57 1109.3,-148.25"/>
</g>
<!-- Node33&#45;&gt;Node5 -->
<g id="edge75" class="edge">
<title>Node33&#45;&gt;Node5</title>
<path fill="none" stroke="#63b8ff" d="M113.32,-63.81C138.62,-61 169.96,-57.7 198.04,-55.25 437.36,-34.38 726.58,-17.63 821.33,-12.36"/>
<polygon fill="#63b8ff" stroke="#63b8ff" points="821.34,-15.86 831.13,-11.82 820.95,-8.87 821.34,-15.86"/>
</g>
<!-- Node33&#45;&gt;Node6 -->
<g id="edge74" class="edge">
<title>Node33&#45;&gt;Node6</title>
<path fill="none" stroke="#63b8ff" d="M81.51,-60.56C100.08,-51.05 129.72,-35.87 151.46,-24.75"/>
<polygon fill="#63b8ff" stroke="#63b8ff" points="152.76,-28.01 160.06,-20.34 149.57,-21.78 152.76,-28.01"/>
</g>
<!-- Node34 -->
<g id="node34" class="node">
<title>Node34</title>
<g id="a_node34"><a xlink:title=" ">
<polygon fill="#e0e0e0" stroke="#999999" points="100.54,-19.25 27.54,-19.25 27.54,0 100.54,0 100.54,-19.25"/>
<text text-anchor="middle" x="64.04" y="-5.75" font-family="Helvetica,sans-Serif" font-size="10.00">system_error</text>
</a>
</g>
</g>
<!-- Node33&#45;&gt;Node34 -->
<g id="edge76" class="edge">
<title>Node33&#45;&gt;Node34</title>
<path fill="none" stroke="#63b8ff" d="M64.04,-60.56C64.04,-52.78 64.04,-41.2 64.04,-31.16"/>
<polygon fill="#63b8ff" stroke="#63b8ff" points="67.54,-31.16 64.04,-21.16 60.54,-31.16 67.54,-31.16"/>
</g>
<!-- Node35&#45;&gt;Node8 -->
<g id="edge79" class="edge">
<title>Node35&#45;&gt;Node8</title>
<path fill="none" stroke="#63b8ff" d="M707.14,-287.27C739.2,-247.31 870.68,-83.39 914.64,-28.57"/>
<polygon fill="#63b8ff" stroke="#63b8ff" points="917.32,-30.83 920.84,-20.84 911.86,-26.45 917.32,-30.83"/>
</g>
<!-- Node35&#45;&gt;Node10 -->
<g id="edge80" class="edge">
<title>Node35&#45;&gt;Node10</title>
<path fill="none" stroke="#63b8ff" d="M690.48,-287.01C673.44,-270.33 637.49,-233.23 615.04,-196.25 606.57,-182.3 599.75,-165.1 595.22,-152.07"/>
<polygon fill="#63b8ff" stroke="#63b8ff" points="598.66,-151.31 592.2,-142.91 592.01,-153.51 598.66,-151.31"/>
</g>
<!-- Node35&#45;&gt;Node29 -->
<g id="edge81" class="edge">
<title>Node35&#45;&gt;Node29</title>
<path fill="none" stroke="#63b8ff" d="M749.54,-288.94C812.12,-279.86 920.44,-264.15 992.92,-253.63"/>
<polygon fill="#63b8ff" stroke="#63b8ff" points="993.34,-257.11 1002.73,-252.21 992.33,-250.18 993.34,-257.11"/>
</g>
<!-- Node36 -->
<g id="node36" class="node">
<title>Node36</title>
<g id="a_node36"><a xlink:title=" ">
<polygon fill="#e0e0e0" stroke="#999999" points="711.41,-251.5 670.66,-251.5 670.66,-232.25 711.41,-232.25 711.41,-251.5"/>
<text text-anchor="middle" x="691.04" y="-238" font-family="Helvetica,sans-Serif" font-size="10.00">future</text>
</a>
</g>
</g>
<!-- Node35&#45;&gt;Node36 -->
<g id="edge78" class="edge">
<title>Node35&#45;&gt;Node36</title>
<path fill="none" stroke="#63b8ff" d="M698.55,-287.33C697.44,-280.74 695.87,-271.46 694.45,-263.07"/>
<polygon fill="#63b8ff" stroke="#63b8ff" points="697.93,-262.63 692.81,-253.35 691.03,-263.8 697.93,-262.63"/>
</g>
</g>
</svg>
        <g id="navigator" transform="translate(0 0)" fill="#404254">
                <rect fill="#f2f5e9" fill-opacity="0.5" stroke="#606060" stroke-width=".5" x="0" y="0" width="60" height="60"/>
                <use id="zoomplus" xlink:href="#zoomPlus" x="17" y="9" onmousedown="handleZoom(evt,'in')"/>
                <use id="zoomminus" xlink:href="#zoomMin" x="42" y="9" onmousedown="handleZoom(evt,'out')"/>
                <use id="reset" xlink:href="#resetDef" x="30" y="36" onmousedown="handleReset()"/>
                <g id="arrowUp" xlink:href="#dirArrow" transform="translate(30 24)" onmousedown="handlePan(0,-1)">
                  <use xlink:href="#rim" fill="#404040">
                        <set attributeName="fill" to="#808080" begin="arrowUp.mouseover" end="arrowUp.mouseout"/>
                  </use>
                  <path fill="none" stroke="white" stroke-width="1.5" d="M0,-3.0v7 M-2.5,-0.5L0,-3.0L2.5,-0.5"/>
                </g>
                <g id="arrowRight" xlink:href="#dirArrow" transform="rotate(90) translate(36 -43)" onmousedown="handlePan(1,0)">
                  <use xlink:href="#rim" fill="#404040">
                        <set attributeName="fill" to="#808080" begin="arrowRight.mouseover" end="arrowRight.mouseout"/>
                  </use>
                  <path fill="none" stroke="white" stroke-width="1.5" d="M0,-3.0v7 M-2.5,-0.5L0,-3.0L2.5,-0.5"/>
                </g>
                <g id="arrowDown" xlink:href="#dirArrow" transform="rotate(180) translate(-30 -48)" onmousedown="handlePan(0,1)">
                  <use xlink:href="#rim" fill="#404040">
                        <set attributeName="fill" to="#808080" begin="arrowDown.mouseover" end="arrowDown.mouseout"/>
                  </use>
                  <path fill="none" stroke="white" stroke-width="1.5" d="M0,-3.0v7 M-2.5,-0.5L0,-3.0L2.5,-0.5"/>
                </g>
                <g id="arrowLeft" xlink:href="#dirArrow" transform="rotate(270) translate(-36 17)" onmousedown="handlePan(-1,0)">
                  <use xlink:href="#rim" fill="#404040">
                        <set attributeName="fill" to="#808080" begin="arrowLeft.mouseover" end="arrowLeft.mouseout"/>
                  </use>
                  <path fill="none" stroke="white" stroke-width="1.5" d="M0,-3.0v7 M-2.5,-0.5L0,-3.0L2.5,-0.5"/>
                </g>
        </g>
        <svg viewBox="0 0 15 15" width="100%" height="30px" preserveAspectRatio="xMaxYMin meet">
         <g id="arrow_out" transform="scale(0.3 0.3)">
          <a xlink:href="Closure_8cpp__incl_org.svg" target="_base">
           <rect id="button" ry="5" rx="5" y="6" x="6" height="38" width="38"
                fill="#f2f5e9" fill-opacity="0.5" stroke="#606060" stroke-width="1.0"/>
           <path id="arrow"
             d="M 11.500037,31.436501 C 11.940474,20.09759 22.043105,11.32322 32.158766,21.979434 L 37.068811,17.246167 C 37.068811,17.246167 37.088388,32 37.088388,32 L 22.160133,31.978069 C 22.160133,31.978069 26.997745,27.140456 26.997745,27.140456 C 18.528582,18.264221 13.291696,25.230495 11.500037,31.436501 z"
             style="fill:#404040;"/>
          </a>
         </g>
        </svg>
</svg>
