<?xml version="1.0" encoding="UTF-8" standalone="no"?>
<!DOCTYPE svg PUBLIC "-//W3C//DTD SVG 1.1//EN"
 "http://www.w3.org/Graphics/SVG/1.1/DTD/svg11.dtd">
<!-- Generated by graphviz version 12.2.0 (20241103.1931)
 -->
<!-- Title: /Users/fola/Documents/ArkScript/Ark/include/Ark/VM/ScopeView.hpp Pages: 1 -->
<svg width="611pt" height="216pt"
 viewBox="0.00 0.00 610.75 215.50" xmlns="http://www.w3.org/2000/svg" xmlns:xlink="http://www.w3.org/1999/xlink">
<g id="graph0" class="graph" transform="scale(1 1) rotate(0) translate(4 211.5)">
<title>/Users/fola/Documents/ArkScript/Ark/include/Ark/VM/ScopeView.hpp</title>
<!-- Node1 -->
<g id="Node000001" class="node">
<title>Node1</title>
<g id="a_Node000001"><a xlink:title=" ">
<polygon fill="#999999" stroke="#666666" points="518.75,-207.5 397,-207.5 397,-165.75 518.75,-165.75 518.75,-207.5"/>
<text text-anchor="start" x="405" y="-194" font-family="Helvetica,sans-Serif" font-size="10.00">/Users/fola/Documents</text>
<text text-anchor="start" x="405" y="-182.75" font-family="Helvetica,sans-Serif" font-size="10.00">/ArkScript/Ark/include</text>
<text text-anchor="middle" x="457.88" y="-171.5" font-family="Helvetica,sans-Serif" font-size="10.00">/Ark/VM/ScopeView.hpp</text>
</a>
</g>
</g>
<!-- Node2 -->
<g id="Node000002" class="node">
<title>Node2</title>
<g id="a_Node000002"><a xlink:title=" ">
<polygon fill="#e0e0e0" stroke="#999999" points="37.75,-74.5 0,-74.5 0,-55.25 37.75,-55.25 37.75,-74.5"/>
<text text-anchor="middle" x="18.88" y="-61" font-family="Helvetica,sans-Serif" font-size="10.00">array</text>
</a>
</g>
</g>
<!-- Node1&#45;&gt;Node2 -->
<g id="edge1_Node000001_Node000002" class="edge">
<title>Node1&#45;&gt;Node2</title>
<g id="a_edge1_Node000001_Node000002"><a xlink:title=" ">
<path fill="none" stroke="#63b8ff" d="M396.71,-169.56C354.79,-158.49 297.92,-143.39 247.88,-129.75 176.56,-110.32 92.96,-86.82 49.16,-74.45"/>
<polygon fill="#63b8ff" stroke="#63b8ff" points="50.19,-71.1 39.61,-71.75 48.28,-77.84 50.19,-71.1"/>
</a>
</g>
</g>
<!-- Node3 -->
<g id="Node000003" class="node">
<title>Node3</title>
<g id="a_Node000003"><a xlink:title=" ">
<polygon fill="#e0e0e0" stroke="#999999" points="602.75,-19.25 547,-19.25 547,0 602.75,0 602.75,-19.25"/>
<text text-anchor="middle" x="574.88" y="-5.75" font-family="Helvetica,sans-Serif" font-size="10.00">cinttypes</text>
</a>
</g>
</g>
<!-- Node1&#45;&gt;Node3 -->
<g id="edge2_Node000001_Node000003" class="edge">
<title>Node1&#45;&gt;Node3</title>
<g id="a_edge2_Node000001_Node000003"><a xlink:title=" ">
<path fill="none" stroke="#63b8ff" d="M511.53,-165.35C528.43,-156.65 545.81,-144.93 557.88,-129.75 580.45,-101.35 580.22,-56.66 577.74,-30.85"/>
<polygon fill="#63b8ff" stroke="#63b8ff" points="581.23,-30.58 576.56,-21.06 574.28,-31.41 581.23,-30.58"/>
</a>
</g>
</g>
<!-- Node4 -->
<g id="Node000004" class="node">
<title>Node4</title>
<g id="a_Node000004"><a xlink:href="../../d5/d40/Platform_8hpp.html" target="_top" xlink:title="ArkScript configuration macros.">
<polygon fill="white" stroke="#666666" points="482.62,-19.25 393.12,-19.25 393.12,0 482.62,0 482.62,-19.25"/>
<text text-anchor="middle" x="437.88" y="-5.75" font-family="Helvetica,sans-Serif" font-size="10.00">Ark/Platform.hpp</text>
</a>
</g>
</g>
<!-- Node1&#45;&gt;Node4 -->
<g id="edge3_Node000001_Node000004" class="edge">
<title>Node1&#45;&gt;Node4</title>
<g id="a_edge3_Node000001_Node000004"><a xlink:title=" ">
<path fill="none" stroke="#63b8ff" d="M491.88,-165.45C530.12,-140.14 583.48,-95.2 555.88,-55.25 541.81,-34.89 517.16,-23.81 494.02,-17.78"/>
<polygon fill="#63b8ff" stroke="#63b8ff" points="494.84,-14.38 484.31,-15.55 493.28,-21.2 494.84,-14.38"/>
</a>
</g>
</g>
<!-- Node5 -->
<g id="Node000005" class="node">
<title>Node5</title>
<g id="a_Node000005"><a xlink:href="../../de/dfd/Value_8hpp.html" target="_top" xlink:title="Default value type handled by the virtual machine.">
<polygon fill="white" stroke="#666666" points="351.25,-129.75 256.5,-129.75 256.5,-110.5 351.25,-110.5 351.25,-129.75"/>
<text text-anchor="middle" x="303.88" y="-116.25" font-family="Helvetica,sans-Serif" font-size="10.00">Ark/VM/Value.hpp</text>
</a>
</g>
</g>
<!-- Node1&#45;&gt;Node5 -->
<g id="edge4_Node000001_Node000005" class="edge">
<title>Node1&#45;&gt;Node5</title>
<g id="a_edge4_Node000001_Node000005"><a xlink:title=" ">
<path fill="none" stroke="#63b8ff" d="M409.57,-165.39C385.53,-155.33 357.14,-143.44 335.84,-134.51"/>
<polygon fill="#63b8ff" stroke="#63b8ff" points="337.38,-131.36 326.81,-130.73 334.68,-137.82 337.38,-131.36"/>
</a>
</g>
</g>
<!-- Node5&#45;&gt;Node2 -->
<g id="edge9_Node000005_Node000002" class="edge">
<title>Node5&#45;&gt;Node2</title>
<g id="a_edge9_Node000005_Node000002"><a xlink:title=" ">
<path fill="none" stroke="#63b8ff" d="M256.28,-111.87C205.44,-103.84 122.62,-89.98 51.88,-74.5 50.89,-74.28 49.89,-74.06 48.88,-73.83"/>
<polygon fill="#63b8ff" stroke="#63b8ff" points="50.02,-70.5 39.48,-71.51 48.35,-77.3 50.02,-70.5"/>
</a>
</g>
</g>
<!-- Node5&#45;&gt;Node3 -->
<g id="edge8_Node000005_Node000003" class="edge">
<title>Node5&#45;&gt;Node3</title>
<g id="a_edge8_Node000005_Node000003"><a xlink:title=" ">
<path fill="none" stroke="#63b8ff" d="M351.58,-116.55C416.06,-112.12 526.37,-100.83 555.88,-74.5 568.16,-63.54 572.66,-45.02 574.23,-30.74"/>
<polygon fill="#63b8ff" stroke="#63b8ff" points="577.7,-31.3 574.88,-21.09 570.72,-30.83 577.7,-31.3"/>
</a>
</g>
</g>
<!-- Node5&#45;&gt;Node4 -->
<g id="edge19_Node000005_Node000004" class="edge">
<title>Node5&#45;&gt;Node4</title>
<g id="a_edge19_Node000005_Node000004"><a xlink:title=" ">
<path fill="none" stroke="#63b8ff" d="M293.97,-110.21C280.76,-97.23 260.48,-72.77 273.88,-55.25 287.09,-37.96 339.5,-25.78 381.57,-18.56"/>
<polygon fill="#63b8ff" stroke="#63b8ff" points="382.05,-22.03 391.35,-16.95 380.91,-15.13 382.05,-22.03"/>
</a>
</g>
</g>
<!-- Node6 -->
<g id="Node000006" class="node">
<title>Node6</title>
<g id="a_Node000006"><a xlink:title=" ">
<polygon fill="#e0e0e0" stroke="#999999" points="325.38,-74.5 282.38,-74.5 282.38,-55.25 325.38,-55.25 325.38,-74.5"/>
<text text-anchor="middle" x="303.88" y="-61" font-family="Helvetica,sans-Serif" font-size="10.00">vector</text>
</a>
</g>
</g>
<!-- Node5&#45;&gt;Node6 -->
<g id="edge5_Node000005_Node000006" class="edge">
<title>Node5&#45;&gt;Node6</title>
<g id="a_edge5_Node000005_Node000006"><a xlink:title=" ">
<path fill="none" stroke="#63b8ff" d="M303.88,-110.33C303.88,-103.82 303.88,-94.67 303.88,-86.37"/>
<polygon fill="#63b8ff" stroke="#63b8ff" points="307.38,-86.37 303.88,-76.37 300.38,-86.37 307.38,-86.37"/>
</a>
</g>
</g>
<!-- Node7 -->
<g id="Node000007" class="node">
<title>Node7</title>
<g id="a_Node000007"><a xlink:title=" ">
<polygon fill="#e0e0e0" stroke="#999999" points="388.5,-74.5 343.25,-74.5 343.25,-55.25 388.5,-55.25 388.5,-74.5"/>
<text text-anchor="middle" x="365.88" y="-61" font-family="Helvetica,sans-Serif" font-size="10.00">variant</text>
</a>
</g>
</g>
<!-- Node5&#45;&gt;Node7 -->
<g id="edge6_Node000005_Node000007" class="edge">
<title>Node5&#45;&gt;Node7</title>
<g id="a_edge6_Node000005_Node000007"><a xlink:title=" ">
<path fill="none" stroke="#63b8ff" d="M314.39,-110.09C323.26,-102.47 336.19,-91.37 346.86,-82.2"/>
<polygon fill="#63b8ff" stroke="#63b8ff" points="349.06,-84.93 354.36,-75.76 344.5,-79.62 349.06,-84.93"/>
</a>
</g>
</g>
<!-- Node8 -->
<g id="Node000008" class="node">
<title>Node8</title>
<g id="a_Node000008"><a xlink:title=" ">
<polygon fill="#e0e0e0" stroke="#999999" points="100.88,-19.25 60.88,-19.25 60.88,0 100.88,0 100.88,-19.25"/>
<text text-anchor="middle" x="80.88" y="-5.75" font-family="Helvetica,sans-Serif" font-size="10.00">string</text>
</a>
</g>
</g>
<!-- Node5&#45;&gt;Node8 -->
<g id="edge7_Node000005_Node000008" class="edge">
<title>Node5&#45;&gt;Node8</title>
<g id="a_edge7_Node000005_Node000008"><a xlink:title=" ">
<path fill="none" stroke="#63b8ff" d="M256.19,-116.04C198.64,-111.23 106.85,-99.75 84.88,-74.5 74.61,-62.7 74.42,-44.57 76.34,-30.63"/>
<polygon fill="#63b8ff" stroke="#63b8ff" points="79.7,-31.69 78.08,-21.22 72.82,-30.41 79.7,-31.69"/>
</a>
</g>
</g>
<!-- Node9 -->
<g id="Node000009" class="node">
<title>Node9</title>
<g id="a_Node000009"><a xlink:href="../../dc/dd5/Closure_8hpp.html" target="_top" xlink:title="Subtype of the value type, handling closures.">
<polygon fill="white" stroke="#666666" points="225.62,-74.5 94.12,-74.5 94.12,-55.25 225.62,-55.25 225.62,-74.5"/>
<text text-anchor="middle" x="159.88" y="-61" font-family="Helvetica,sans-Serif" font-size="10.00">Ark/VM/Value/Closure.hpp</text>
</a>
</g>
</g>
<!-- Node5&#45;&gt;Node9 -->
<g id="edge10_Node000005_Node000009" class="edge">
<title>Node5&#45;&gt;Node9</title>
<g id="a_edge10_Node000005_Node000009"><a xlink:title=" ">
<path fill="none" stroke="#63b8ff" d="M279.45,-110.09C256.28,-101.52 221.21,-88.56 195.04,-78.88"/>
<polygon fill="#63b8ff" stroke="#63b8ff" points="196.44,-75.66 185.84,-75.48 194.01,-82.23 196.44,-75.66"/>
</a>
</g>
</g>
<!-- Node12 -->
<g id="Node000012" class="node">
<title>Node12</title>
<g id="a_Node000012"><a xlink:href="../../dc/d3d/UserType_8hpp.html" target="_top" xlink:title="Subtype of the value, capable of handling any C++ type.">
<polygon fill="white" stroke="#666666" points="546.75,-74.5 407,-74.5 407,-55.25 546.75,-55.25 546.75,-74.5"/>
<text text-anchor="middle" x="476.88" y="-61" font-family="Helvetica,sans-Serif" font-size="10.00">Ark/VM/Value/UserType.hpp</text>
</a>
</g>
</g>
<!-- Node5&#45;&gt;Node12 -->
<g id="edge15_Node000005_Node000012" class="edge">
<title>Node5&#45;&gt;Node12</title>
<g id="a_edge15_Node000005_Node000012"><a xlink:title=" ">
<path fill="none" stroke="#63b8ff" d="M333.22,-110.09C361.68,-101.33 405.07,-87.98 436.72,-78.23"/>
<polygon fill="#63b8ff" stroke="#63b8ff" points="437.41,-81.68 445.94,-75.4 435.35,-74.99 437.41,-81.68"/>
</a>
</g>
</g>
<!-- Node9&#45;&gt;Node4 -->
<g id="edge14_Node000009_Node000004" class="edge">
<title>Node9&#45;&gt;Node4</title>
<g id="a_edge14_Node000009_Node000004"><a xlink:title=" ">
<path fill="none" stroke="#63b8ff" d="M207.35,-54.78C255.65,-45.53 330.49,-31.2 381.7,-21.38"/>
<polygon fill="#63b8ff" stroke="#63b8ff" points="382.25,-24.84 391.41,-19.52 380.93,-17.97 382.25,-24.84"/>
</a>
</g>
</g>
<!-- Node9&#45;&gt;Node8 -->
<g id="edge13_Node000009_Node000008" class="edge">
<title>Node9&#45;&gt;Node8</title>
<g id="a_edge13_Node000009_Node000008"><a xlink:title=" ">
<path fill="none" stroke="#63b8ff" d="M146.47,-54.84C134.78,-46.96 117.57,-35.36 103.71,-26.02"/>
<polygon fill="#63b8ff" stroke="#63b8ff" points="105.85,-23.24 95.6,-20.55 101.93,-29.04 105.85,-23.24"/>
</a>
</g>
</g>
<!-- Node10 -->
<g id="Node000010" class="node">
<title>Node10</title>
<g id="a_Node000010"><a xlink:title=" ">
<polygon fill="#e0e0e0" stroke="#999999" points="185.5,-19.25 134.25,-19.25 134.25,0 185.5,0 185.5,-19.25"/>
<text text-anchor="middle" x="159.88" y="-5.75" font-family="Helvetica,sans-Serif" font-size="10.00">memory</text>
</a>
</g>
</g>
<!-- Node9&#45;&gt;Node10 -->
<g id="edge11_Node000009_Node000010" class="edge">
<title>Node9&#45;&gt;Node10</title>
<g id="a_edge11_Node000009_Node000010"><a xlink:title=" ">
<path fill="none" stroke="#63b8ff" d="M159.88,-55.08C159.88,-48.57 159.88,-39.42 159.88,-31.12"/>
<polygon fill="#63b8ff" stroke="#63b8ff" points="163.38,-31.12 159.88,-21.12 156.38,-31.12 163.38,-31.12"/>
</a>
</g>
</g>
<!-- Node11 -->
<g id="Node000011" class="node">
<title>Node11</title>
<g id="a_Node000011"><a xlink:title=" ">
<polygon fill="#e0e0e0" stroke="#999999" points="296.62,-19.25 243.12,-19.25 243.12,0 296.62,0 296.62,-19.25"/>
<text text-anchor="middle" x="269.88" y="-5.75" font-family="Helvetica,sans-Serif" font-size="10.00">iostream</text>
</a>
</g>
</g>
<!-- Node9&#45;&gt;Node11 -->
<g id="edge12_Node000009_Node000011" class="edge">
<title>Node9&#45;&gt;Node11</title>
<g id="a_edge12_Node000009_Node000011"><a xlink:title=" ">
<path fill="none" stroke="#63b8ff" d="M178.54,-54.84C195.6,-46.58 221.12,-34.23 240.85,-24.68"/>
<polygon fill="#63b8ff" stroke="#63b8ff" points="242.29,-27.87 249.76,-20.36 239.24,-21.57 242.29,-27.87"/>
</a>
</g>
</g>
<!-- Node12&#45;&gt;Node3 -->
<g id="edge17_Node000012_Node000003" class="edge">
<title>Node12&#45;&gt;Node3</title>
<g id="a_edge17_Node000012_Node000003"><a xlink:title=" ">
<path fill="none" stroke="#63b8ff" d="M493.5,-54.84C508.56,-46.66 531.02,-34.46 548.53,-24.94"/>
<polygon fill="#63b8ff" stroke="#63b8ff" points="549.72,-28.27 556.84,-20.43 546.38,-22.12 549.72,-28.27"/>
</a>
</g>
</g>
<!-- Node12&#45;&gt;Node4 -->
<g id="edge18_Node000012_Node000004" class="edge">
<title>Node12&#45;&gt;Node4</title>
<g id="a_edge18_Node000012_Node000004"><a xlink:title=" ">
<path fill="none" stroke="#63b8ff" d="M470.43,-55.08C465.22,-47.96 457.69,-37.68 451.18,-28.8"/>
<polygon fill="#63b8ff" stroke="#63b8ff" points="454.08,-26.83 445.35,-20.83 448.43,-30.97 454.08,-26.83"/>
</a>
</g>
</g>
<!-- Node12&#45;&gt;Node11 -->
<g id="edge16_Node000012_Node000011" class="edge">
<title>Node12&#45;&gt;Node11</title>
<g id="a_edge16_Node000012_Node000011"><a xlink:title=" ">
<path fill="none" stroke="#63b8ff" d="M441.76,-54.84C404.49,-45.25 345.81,-30.16 307.58,-20.32"/>
<polygon fill="#63b8ff" stroke="#63b8ff" points="308.92,-17.06 298.36,-17.95 307.18,-23.83 308.92,-17.06"/>
</a>
</g>
</g>
</g>
</svg>
