<?xml version="1.0" encoding="UTF-8" standalone="no"?>
<!DOCTYPE svg PUBLIC "-//W3C//DTD SVG 1.1//EN"
 "http://www.w3.org/Graphics/SVG/1.1/DTD/svg11.dtd">
<!-- Generated by graphviz version 2.49.0 (20210828.1703)
 -->
<!-- Title: C:/Users/folae/Documents/Code/Big&#45;Projects/ArkScript/Ark/src/arkreactor/VM/Value.cpp Pages: 1 -->
<svg width="1276pt" height="274pt"
 viewBox="0.00 0.00 1275.99 274.00" xmlns="http://www.w3.org/2000/svg" xmlns:xlink="http://www.w3.org/1999/xlink">
<g id="graph0" class="graph" transform="scale(1 1) rotate(0) translate(4 270)">
<title>C:/Users/folae/Documents/Code/Big&#45;Projects/ArkScript/Ark/src/arkreactor/VM/Value.cpp</title>
<polygon fill="white" stroke="transparent" points="-4,4 -4,-270 1271.99,-270 1271.99,4 -4,4"/>
<!-- Node1 -->
<g id="node1" class="node">
<title>Node1</title>
<g id="a_node1"><a xlink:title=" ">
<polygon fill="#bfbfbf" stroke="black" points="437.49,-224.5 437.49,-265.5 599.49,-265.5 599.49,-224.5 437.49,-224.5"/>
<text text-anchor="start" x="445.49" y="-253.5" font-family="Helvetica,sans-Serif" font-size="10.00">C:/Users/folae/Documents</text>
<text text-anchor="start" x="445.49" y="-242.5" font-family="Helvetica,sans-Serif" font-size="10.00">/Code/Big&#45;Projects/ArkScript</text>
<text text-anchor="middle" x="518.49" y="-231.5" font-family="Helvetica,sans-Serif" font-size="10.00">/Ark/src/arkreactor/VM/Value.cpp</text>
</a>
</g>
</g>
<!-- Node2 -->
<g id="node2" class="node">
<title>Node2</title>
<g id="a_node2"><a xlink:href="../../de/dfd/Value_8hpp.html" target="_top" xlink:title=" ">
<polygon fill="white" stroke="black" points="432.49,-168.5 432.49,-187.5 528.49,-187.5 528.49,-168.5 432.49,-168.5"/>
<text text-anchor="middle" x="480.49" y="-175.5" font-family="Helvetica,sans-Serif" font-size="10.00">Ark/VM/Value.hpp</text>
</a>
</g>
</g>
<!-- Node1&#45;&gt;Node2 -->
<g id="edge1" class="edge">
<title>Node1&#45;&gt;Node2</title>
<path fill="none" stroke="midnightblue" d="M507.09,-224.5C501.88,-215.59 495.75,-205.11 490.7,-196.46"/>
<polygon fill="midnightblue" stroke="midnightblue" points="493.61,-194.52 485.55,-187.65 487.57,-198.05 493.61,-194.52"/>
</g>
<!-- Node21 -->
<g id="node21" class="node">
<title>Node21</title>
<g id="a_node21"><a xlink:href="../../d7/d09/Utils_8hpp.html" target="_top" xlink:title="Lots of utilities about string, filesystem and more.">
<polygon fill="white" stroke="black" points="1055.99,-112.5 1055.99,-131.5 1128.99,-131.5 1128.99,-112.5 1055.99,-112.5"/>
<text text-anchor="middle" x="1092.49" y="-119.5" font-family="Helvetica,sans-Serif" font-size="10.00">Ark/Utils.hpp</text>
</a>
</g>
</g>
<!-- Node1&#45;&gt;Node21 -->
<g id="edge29" class="edge">
<title>Node1&#45;&gt;Node21</title>
<path fill="none" stroke="midnightblue" d="M599.51,-226.92C721.43,-201.22 948.18,-153.42 1045.8,-132.84"/>
<polygon fill="midnightblue" stroke="midnightblue" points="1046.61,-136.25 1055.67,-130.76 1045.17,-129.4 1046.61,-136.25"/>
</g>
<!-- Node3 -->
<g id="node3" class="node">
<title>Node3</title>
<g id="a_node3"><a xlink:title=" ">
<polygon fill="white" stroke="#bfbfbf" points="582.49,-56.5 582.49,-75.5 624.49,-75.5 624.49,-56.5 582.49,-56.5"/>
<text text-anchor="middle" x="603.49" y="-63.5" font-family="Helvetica,sans-Serif" font-size="10.00">vector</text>
</a>
</g>
</g>
<!-- Node2&#45;&gt;Node3 -->
<g id="edge2" class="edge">
<title>Node2&#45;&gt;Node3</title>
<path fill="none" stroke="midnightblue" d="M502.97,-168.37C520.65,-160.77 545.1,-148.36 562.49,-132 576.87,-118.46 588.33,-98.84 595.44,-84.7"/>
<polygon fill="midnightblue" stroke="midnightblue" points="598.66,-86.07 599.82,-75.54 592.35,-83.05 598.66,-86.07"/>
</g>
<!-- Node4 -->
<g id="node4" class="node">
<title>Node4</title>
<g id="a_node4"><a xlink:title=" ">
<polygon fill="white" stroke="#bfbfbf" points="993.49,-112.5 993.49,-131.5 1037.49,-131.5 1037.49,-112.5 993.49,-112.5"/>
<text text-anchor="middle" x="1015.49" y="-119.5" font-family="Helvetica,sans-Serif" font-size="10.00">variant</text>
</a>
</g>
</g>
<!-- Node2&#45;&gt;Node4 -->
<g id="edge3" class="edge">
<title>Node2&#45;&gt;Node4</title>
<path fill="none" stroke="midnightblue" d="M528.63,-175.14C618.01,-171.14 815.46,-159.73 979.49,-132 980.74,-131.79 982.01,-131.56 983.29,-131.31"/>
<polygon fill="midnightblue" stroke="midnightblue" points="984.11,-134.71 993.13,-129.16 982.62,-127.87 984.11,-134.71"/>
</g>
<!-- Node5 -->
<g id="node5" class="node">
<title>Node5</title>
<g id="a_node5"><a xlink:title=" ">
<polygon fill="white" stroke="#bfbfbf" points="824.99,-56.5 824.99,-75.5 865.99,-75.5 865.99,-56.5 824.99,-56.5"/>
<text text-anchor="middle" x="845.49" y="-63.5" font-family="Helvetica,sans-Serif" font-size="10.00">string</text>
</a>
</g>
</g>
<!-- Node2&#45;&gt;Node5 -->
<g id="edge4" class="edge">
<title>Node2&#45;&gt;Node5</title>
<path fill="none" stroke="midnightblue" d="M528.57,-175.94C641.98,-172.94 918.76,-162.54 946.49,-132 952.46,-125.42 951.33,-119.46 946.49,-112 938.33,-99.44 902.58,-85.47 875.92,-76.48"/>
<polygon fill="midnightblue" stroke="midnightblue" points="876.81,-73.08 866.22,-73.29 874.62,-79.73 876.81,-73.08"/>
</g>
<!-- Node6 -->
<g id="node6" class="node">
<title>Node6</title>
<g id="a_node6"><a xlink:title=" ">
<polygon fill="white" stroke="#bfbfbf" points="434.49,-0.5 434.49,-19.5 490.49,-19.5 490.49,-0.5 434.49,-0.5"/>
<text text-anchor="middle" x="462.49" y="-7.5" font-family="Helvetica,sans-Serif" font-size="10.00">cinttypes</text>
</a>
</g>
</g>
<!-- Node2&#45;&gt;Node6 -->
<g id="edge5" class="edge">
<title>Node2&#45;&gt;Node6</title>
<path fill="none" stroke="midnightblue" d="M432.44,-175.19C322.59,-170.63 60.15,-157.19 29.49,-132 2.74,-110.03 -10.74,-81.66 12.49,-56 39.93,-25.68 320.76,-14.91 424.36,-11.95"/>
<polygon fill="midnightblue" stroke="midnightblue" points="424.49,-15.44 434.39,-11.67 424.3,-8.45 424.49,-15.44"/>
</g>
<!-- Node7 -->
<g id="node7" class="node">
<title>Node7</title>
<g id="a_node7"><a xlink:title=" ">
<polygon fill="white" stroke="#bfbfbf" points="510.49,-56.5 510.49,-75.5 564.49,-75.5 564.49,-56.5 510.49,-56.5"/>
<text text-anchor="middle" x="537.49" y="-63.5" font-family="Helvetica,sans-Serif" font-size="10.00">iostream</text>
</a>
</g>
</g>
<!-- Node2&#45;&gt;Node7 -->
<g id="edge6" class="edge">
<title>Node2&#45;&gt;Node7</title>
<path fill="none" stroke="midnightblue" d="M502.95,-168.38C518.26,-161.18 537.35,-149.29 546.49,-132 554.13,-117.54 550.37,-98.84 545.59,-85.22"/>
<polygon fill="midnightblue" stroke="midnightblue" points="548.69,-83.55 541.74,-75.56 542.19,-86.14 548.69,-83.55"/>
</g>
<!-- Node8 -->
<g id="node8" class="node">
<title>Node8</title>
<g id="a_node8"><a xlink:title=" ">
<polygon fill="white" stroke="#bfbfbf" points="21.49,-56.5 21.49,-75.5 73.49,-75.5 73.49,-56.5 21.49,-56.5"/>
<text text-anchor="middle" x="47.49" y="-63.5" font-family="Helvetica,sans-Serif" font-size="10.00">memory</text>
</a>
</g>
</g>
<!-- Node2&#45;&gt;Node8 -->
<g id="edge7" class="edge">
<title>Node2&#45;&gt;Node8</title>
<path fill="none" stroke="midnightblue" d="M432.38,-175.63C323.84,-172.05 67.32,-160.61 41.49,-132 30.24,-119.54 34.01,-99.75 39.19,-85.28"/>
<polygon fill="midnightblue" stroke="midnightblue" points="42.5,-86.44 43.01,-75.86 36.01,-83.81 42.5,-86.44"/>
</g>
<!-- Node9 -->
<g id="node9" class="node">
<title>Node9</title>
<g id="a_node9"><a xlink:title=" ">
<polygon fill="white" stroke="#bfbfbf" points="71.49,-112.5 71.49,-131.5 129.49,-131.5 129.49,-112.5 71.49,-112.5"/>
<text text-anchor="middle" x="100.49" y="-119.5" font-family="Helvetica,sans-Serif" font-size="10.00">functional</text>
</a>
</g>
</g>
<!-- Node2&#45;&gt;Node9 -->
<g id="edge8" class="edge">
<title>Node2&#45;&gt;Node9</title>
<path fill="none" stroke="midnightblue" d="M432.39,-172.23C367.92,-165.5 249.77,-151.95 139.82,-132.09"/>
<polygon fill="midnightblue" stroke="midnightblue" points="140.35,-128.63 129.88,-130.27 139.09,-135.52 140.35,-128.63"/>
</g>
<!-- Node10 -->
<g id="node10" class="node">
<title>Node10</title>
<g id="a_node10"><a xlink:title=" ">
<polygon fill="white" stroke="#bfbfbf" points="300.49,-56.5 300.49,-75.5 340.49,-75.5 340.49,-56.5 300.49,-56.5"/>
<text text-anchor="middle" x="320.49" y="-63.5" font-family="Helvetica,sans-Serif" font-size="10.00">utility</text>
</a>
</g>
</g>
<!-- Node2&#45;&gt;Node10 -->
<g id="edge9" class="edge">
<title>Node2&#45;&gt;Node10</title>
<path fill="none" stroke="midnightblue" d="M432.34,-175.36C327.68,-171.31 86.84,-159.12 62.49,-132 56.55,-125.39 56.77,-118.8 62.49,-112 69.81,-103.29 223.6,-80.66 290.19,-71.23"/>
<polygon fill="midnightblue" stroke="midnightblue" points="290.68,-74.69 300.09,-69.83 289.7,-67.76 290.68,-74.69"/>
</g>
<!-- Node11 -->
<g id="node11" class="node">
<title>Node11</title>
<g id="a_node11"><a xlink:title=" ">
<polygon fill="white" stroke="#bfbfbf" points="269.99,-112.5 269.99,-131.5 348.99,-131.5 348.99,-112.5 269.99,-112.5"/>
<text text-anchor="middle" x="309.49" y="-119.5" font-family="Helvetica,sans-Serif" font-size="10.00">Ark/String.hpp</text>
</a>
</g>
</g>
<!-- Node2&#45;&gt;Node11 -->
<g id="edge10" class="edge">
<title>Node2&#45;&gt;Node11</title>
<path fill="none" stroke="midnightblue" d="M453.39,-168.44C424.5,-159.32 378.56,-144.81 346.38,-134.65"/>
<polygon fill="midnightblue" stroke="midnightblue" points="347.05,-131.19 336.46,-131.52 344.94,-137.87 347.05,-131.19"/>
</g>
<!-- Node12 -->
<g id="node12" class="node">
<title>Node12</title>
<g id="a_node12"><a xlink:title=" ">
<polygon fill="white" stroke="#bfbfbf" points="367.49,-112.5 367.49,-131.5 405.49,-131.5 405.49,-112.5 367.49,-112.5"/>
<text text-anchor="middle" x="386.49" y="-119.5" font-family="Helvetica,sans-Serif" font-size="10.00">array</text>
</a>
</g>
</g>
<!-- Node2&#45;&gt;Node12 -->
<g id="edge11" class="edge">
<title>Node2&#45;&gt;Node12</title>
<path fill="none" stroke="midnightblue" d="M465.38,-168.32C450.58,-159.82 427.79,-146.73 410.5,-136.8"/>
<polygon fill="midnightblue" stroke="midnightblue" points="411.97,-133.6 401.55,-131.65 408.48,-139.67 411.97,-133.6"/>
</g>
<!-- Node13 -->
<g id="node13" class="node">
<title>Node13</title>
<g id="a_node13"><a xlink:href="../../dc/dd5/Closure_8hpp.html" target="_top" xlink:title="Subtype of the value type, handling closures.">
<polygon fill="white" stroke="black" points="147.49,-112.5 147.49,-131.5 251.49,-131.5 251.49,-112.5 147.49,-112.5"/>
<text text-anchor="middle" x="199.49" y="-119.5" font-family="Helvetica,sans-Serif" font-size="10.00">Ark/VM/Closure.hpp</text>
</a>
</g>
</g>
<!-- Node2&#45;&gt;Node13 -->
<g id="edge12" class="edge">
<title>Node2&#45;&gt;Node13</title>
<path fill="none" stroke="midnightblue" d="M435.96,-168.44C386.53,-158.94 306.74,-143.61 253.71,-133.42"/>
<polygon fill="midnightblue" stroke="midnightblue" points="254.28,-129.97 243.8,-131.52 252.96,-136.84 254.28,-129.97"/>
</g>
<!-- Node14 -->
<g id="node14" class="node">
<title>Node14</title>
<g id="a_node14"><a xlink:href="../../d5/d40/Platform_8hpp.html" target="_top" xlink:title="ArkScript configuration macros.">
<polygon fill="white" stroke="black" points="154.99,-56.5 154.99,-75.5 243.99,-75.5 243.99,-56.5 154.99,-56.5"/>
<text text-anchor="middle" x="199.49" y="-63.5" font-family="Helvetica,sans-Serif" font-size="10.00">Ark/Platform.hpp</text>
</a>
</g>
</g>
<!-- Node2&#45;&gt;Node14 -->
<g id="edge26" class="edge">
<title>Node2&#45;&gt;Node14</title>
<path fill="none" stroke="midnightblue" d="M432.11,-175.47C325.63,-171.61 78.45,-159.74 53.49,-132 23.06,-98.19 91.47,-81.03 144.61,-73.06"/>
<polygon fill="midnightblue" stroke="midnightblue" points="145.26,-76.5 154.67,-71.63 144.27,-69.57 145.26,-76.5"/>
</g>
<!-- Node15 -->
<g id="node15" class="node">
<title>Node15</title>
<g id="a_node15"><a xlink:href="../../d2/de9/Exceptions_8hpp.html" target="_top" xlink:title="ArkScript homemade exceptions.">
<polygon fill="white" stroke="black" points="631.49,-112.5 631.49,-131.5 733.49,-131.5 733.49,-112.5 631.49,-112.5"/>
<text text-anchor="middle" x="682.49" y="-119.5" font-family="Helvetica,sans-Serif" font-size="10.00">Ark/Exceptions.hpp</text>
</a>
</g>
</g>
<!-- Node2&#45;&gt;Node15 -->
<g id="edge17" class="edge">
<title>Node2&#45;&gt;Node15</title>
<path fill="none" stroke="midnightblue" d="M512.49,-168.44C547.22,-159.16 602.77,-144.31 640.86,-134.13"/>
<polygon fill="midnightblue" stroke="midnightblue" points="641.87,-137.48 650.63,-131.52 640.06,-130.72 641.87,-137.48"/>
</g>
<!-- Node17 -->
<g id="node17" class="node">
<title>Node17</title>
<g id="a_node17"><a xlink:href="../../dc/d3d/UserType_8hpp.html" target="_top" xlink:title="Subtype of the value, capable of handling any C++ type.">
<polygon fill="white" stroke="black" points="423.99,-112.5 423.99,-131.5 536.99,-131.5 536.99,-112.5 423.99,-112.5"/>
<text text-anchor="middle" x="480.49" y="-119.5" font-family="Helvetica,sans-Serif" font-size="10.00">Ark/VM/UserType.hpp</text>
</a>
</g>
</g>
<!-- Node2&#45;&gt;Node17 -->
<g id="edge20" class="edge">
<title>Node2&#45;&gt;Node17</title>
<path fill="none" stroke="midnightblue" d="M480.49,-168.08C480.49,-161.01 480.49,-150.86 480.49,-141.99"/>
<polygon fill="midnightblue" stroke="midnightblue" points="483.99,-141.75 480.49,-131.75 476.99,-141.75 483.99,-141.75"/>
</g>
<!-- Node19 -->
<g id="node19" class="node">
<title>Node19</title>
<g id="a_node19"><a xlink:href="../../d0/dd2/Profiling_8hpp.html" target="_top" xlink:title=" ">
<polygon fill="white" stroke="black" points="751.49,-112.5 751.49,-131.5 839.49,-131.5 839.49,-112.5 751.49,-112.5"/>
<text text-anchor="middle" x="795.49" y="-119.5" font-family="Helvetica,sans-Serif" font-size="10.00">Ark/Profiling.hpp</text>
</a>
</g>
</g>
<!-- Node2&#45;&gt;Node19 -->
<g id="edge27" class="edge">
<title>Node2&#45;&gt;Node19</title>
<path fill="none" stroke="midnightblue" d="M528.67,-168.74C586.02,-158.91 681.52,-142.54 741.36,-132.28"/>
<polygon fill="midnightblue" stroke="midnightblue" points="742.11,-135.7 751.38,-130.56 740.93,-128.8 742.11,-135.7"/>
</g>
<!-- Node20 -->
<g id="node20" class="node">
<title>Node20</title>
<g id="a_node20"><a xlink:title=" ">
<polygon fill="white" stroke="#bfbfbf" points="857.49,-112.5 857.49,-131.5 937.49,-131.5 937.49,-112.5 857.49,-112.5"/>
<text text-anchor="middle" x="897.49" y="-119.5" font-family="Helvetica,sans-Serif" font-size="10.00">inline/Value.inl</text>
</a>
</g>
</g>
<!-- Node2&#45;&gt;Node20 -->
<g id="edge28" class="edge">
<title>Node2&#45;&gt;Node20</title>
<path fill="none" stroke="midnightblue" d="M528.54,-172.05C597,-164.8 726.77,-150.3 847.27,-132.11"/>
<polygon fill="midnightblue" stroke="midnightblue" points="848.05,-135.53 857.41,-130.56 847,-128.61 848.05,-135.53"/>
</g>
<!-- Node13&#45;&gt;Node3 -->
<g id="edge14" class="edge">
<title>Node13&#45;&gt;Node3</title>
<path fill="none" stroke="midnightblue" d="M251.57,-113.33C254.92,-112.87 258.25,-112.42 261.49,-112 396.66,-94.39 434.99,-103.7 572.24,-75.93"/>
<polygon fill="midnightblue" stroke="midnightblue" points="573.21,-79.3 582.3,-73.86 571.8,-72.44 573.21,-79.3"/>
</g>
<!-- Node13&#45;&gt;Node7 -->
<g id="edge15" class="edge">
<title>Node13&#45;&gt;Node7</title>
<path fill="none" stroke="midnightblue" d="M251.5,-113.38C326.34,-102.41 459.25,-82.85 500.36,-75.88"/>
<polygon fill="midnightblue" stroke="midnightblue" points="501.21,-79.29 510.42,-74.06 499.96,-72.4 501.21,-79.29"/>
</g>
<!-- Node13&#45;&gt;Node8 -->
<g id="edge13" class="edge">
<title>Node13&#45;&gt;Node8</title>
<path fill="none" stroke="midnightblue" d="M175.4,-112.44C149.94,-103.4 109.59,-89.06 81.03,-78.92"/>
<polygon fill="midnightblue" stroke="midnightblue" points="82.05,-75.57 71.46,-75.52 79.71,-82.16 82.05,-75.57"/>
</g>
<!-- Node13&#45;&gt;Node14 -->
<g id="edge16" class="edge">
<title>Node13&#45;&gt;Node14</title>
<path fill="none" stroke="midnightblue" d="M199.49,-112.08C199.49,-105.01 199.49,-94.86 199.49,-85.99"/>
<polygon fill="midnightblue" stroke="midnightblue" points="202.99,-85.75 199.49,-75.75 195.99,-85.75 202.99,-85.75"/>
</g>
<!-- Node15&#45;&gt;Node5 -->
<g id="edge19" class="edge">
<title>Node15&#45;&gt;Node5</title>
<path fill="none" stroke="midnightblue" d="M708.31,-112.44C737.35,-102.82 784.44,-87.22 815.19,-77.04"/>
<polygon fill="midnightblue" stroke="midnightblue" points="816.55,-80.27 824.94,-73.81 814.35,-73.63 816.55,-80.27"/>
</g>
<!-- Node16 -->
<g id="node16" class="node">
<title>Node16</title>
<g id="a_node16"><a xlink:title=" ">
<polygon fill="white" stroke="#bfbfbf" points="652.99,-56.5 652.99,-75.5 711.99,-75.5 711.99,-56.5 652.99,-56.5"/>
<text text-anchor="middle" x="682.49" y="-63.5" font-family="Helvetica,sans-Serif" font-size="10.00">exception</text>
</a>
</g>
</g>
<!-- Node15&#45;&gt;Node16 -->
<g id="edge18" class="edge">
<title>Node15&#45;&gt;Node16</title>
<path fill="none" stroke="midnightblue" d="M682.49,-112.08C682.49,-105.01 682.49,-94.86 682.49,-85.99"/>
<polygon fill="midnightblue" stroke="midnightblue" points="685.99,-85.75 682.49,-75.75 678.99,-85.75 685.99,-85.75"/>
</g>
<!-- Node17&#45;&gt;Node3 -->
<g id="edge22" class="edge">
<title>Node17&#45;&gt;Node3</title>
<path fill="none" stroke="midnightblue" d="M499.98,-112.44C520.13,-103.6 551.81,-89.69 574.82,-79.59"/>
<polygon fill="midnightblue" stroke="midnightblue" points="576.34,-82.74 584.09,-75.52 573.53,-76.33 576.34,-82.74"/>
</g>
<!-- Node17&#45;&gt;Node7 -->
<g id="edge21" class="edge">
<title>Node17&#45;&gt;Node7</title>
<path fill="none" stroke="midnightblue" d="M489.65,-112.32C497.99,-104.42 510.52,-92.55 520.66,-82.94"/>
<polygon fill="midnightblue" stroke="midnightblue" points="523.31,-85.25 528.16,-75.83 518.5,-80.17 523.31,-85.25"/>
</g>
<!-- Node17&#45;&gt;Node10 -->
<g id="edge23" class="edge">
<title>Node17&#45;&gt;Node10</title>
<path fill="none" stroke="midnightblue" d="M455.13,-112.44C426.63,-102.82 380.41,-87.22 350.23,-77.04"/>
<polygon fill="midnightblue" stroke="midnightblue" points="351.25,-73.69 340.65,-73.81 349.01,-80.32 351.25,-73.69"/>
</g>
<!-- Node17&#45;&gt;Node14 -->
<g id="edge24" class="edge">
<title>Node17&#45;&gt;Node14</title>
<path fill="none" stroke="midnightblue" d="M435.96,-112.44C386.53,-102.94 306.74,-87.61 253.71,-77.42"/>
<polygon fill="midnightblue" stroke="midnightblue" points="254.28,-73.97 243.8,-75.52 252.96,-80.84 254.28,-73.97"/>
</g>
<!-- Node18 -->
<g id="node18" class="node">
<title>Node18</title>
<g id="a_node18"><a xlink:title=" ">
<polygon fill="white" stroke="#bfbfbf" points="396.49,-56.5 396.49,-75.5 492.49,-75.5 492.49,-56.5 396.49,-56.5"/>
<text text-anchor="middle" x="444.49" y="-63.5" font-family="Helvetica,sans-Serif" font-size="10.00">inline/UserType.inl</text>
</a>
</g>
</g>
<!-- Node17&#45;&gt;Node18 -->
<g id="edge25" class="edge">
<title>Node17&#45;&gt;Node18</title>
<path fill="none" stroke="midnightblue" d="M474.54,-112.08C469.51,-104.53 462.15,-93.49 455.97,-84.23"/>
<polygon fill="midnightblue" stroke="midnightblue" points="458.78,-82.13 450.32,-75.75 452.96,-86.01 458.78,-82.13"/>
</g>
<!-- Node21&#45;&gt;Node3 -->
<g id="edge35" class="edge">
<title>Node21&#45;&gt;Node3</title>
<path fill="none" stroke="midnightblue" d="M1055.89,-113.48C1052.71,-112.94 1049.55,-112.44 1046.49,-112 868.89,-86.74 821.78,-103.29 644.49,-76 641.25,-75.5 637.88,-74.9 634.53,-74.25"/>
<polygon fill="midnightblue" stroke="midnightblue" points="635.18,-70.81 624.67,-72.19 633.74,-77.66 635.18,-70.81"/>
</g>
<!-- Node21&#45;&gt;Node5 -->
<g id="edge30" class="edge">
<title>Node21&#45;&gt;Node5</title>
<path fill="none" stroke="midnightblue" d="M1055.78,-113.79C1006.92,-104.13 922.17,-87.13 875.89,-75.88"/>
<polygon fill="midnightblue" stroke="midnightblue" points="876.63,-72.46 866.08,-73.43 874.93,-79.25 876.63,-72.46"/>
</g>
<!-- Node21&#45;&gt;Node7 -->
<g id="edge31" class="edge">
<title>Node21&#45;&gt;Node7</title>
<path fill="none" stroke="midnightblue" d="M1055.89,-113.44C1052.72,-112.9 1049.55,-112.41 1046.49,-112 840.83,-84.15 783.39,-108.89 574.57,-75.89"/>
<polygon fill="midnightblue" stroke="midnightblue" points="574.94,-72.41 564.51,-74.28 573.83,-79.32 574.94,-72.41"/>
</g>
<!-- Node22 -->
<g id="node22" class="node">
<title>Node22</title>
<g id="a_node22"><a xlink:title=" ">
<polygon fill="white" stroke="#bfbfbf" points="1062.99,-56.5 1062.99,-75.5 1121.99,-75.5 1121.99,-56.5 1062.99,-56.5"/>
<text text-anchor="middle" x="1092.49" y="-63.5" font-family="Helvetica,sans-Serif" font-size="10.00">streambuf</text>
</a>
</g>
</g>
<!-- Node21&#45;&gt;Node22 -->
<g id="edge32" class="edge">
<title>Node21&#45;&gt;Node22</title>
<path fill="none" stroke="midnightblue" d="M1092.49,-112.08C1092.49,-105.01 1092.49,-94.86 1092.49,-85.99"/>
<polygon fill="midnightblue" stroke="midnightblue" points="1095.99,-85.75 1092.49,-75.75 1088.99,-85.75 1095.99,-85.75"/>
</g>
<!-- Node23 -->
<g id="node23" class="node">
<title>Node23</title>
<g id="a_node23"><a xlink:title=" ">
<polygon fill="white" stroke="#bfbfbf" points="1139.99,-56.5 1139.99,-75.5 1188.99,-75.5 1188.99,-56.5 1139.99,-56.5"/>
<text text-anchor="middle" x="1164.49" y="-63.5" font-family="Helvetica,sans-Serif" font-size="10.00">fstream</text>
</a>
</g>
</g>
<!-- Node21&#45;&gt;Node23 -->
<g id="edge33" class="edge">
<title>Node21&#45;&gt;Node23</title>
<path fill="none" stroke="midnightblue" d="M1104.06,-112.32C1114.91,-104.18 1131.37,-91.84 1144.37,-82.09"/>
<polygon fill="midnightblue" stroke="midnightblue" points="1146.81,-84.63 1152.71,-75.83 1142.61,-79.03 1146.81,-84.63"/>
</g>
<!-- Node24 -->
<g id="node24" class="node">
<title>Node24</title>
<g id="a_node24"><a xlink:title=" ">
<polygon fill="white" stroke="#bfbfbf" points="1206.99,-56.5 1206.99,-75.5 1267.99,-75.5 1267.99,-56.5 1206.99,-56.5"/>
<text text-anchor="middle" x="1237.49" y="-63.5" font-family="Helvetica,sans-Serif" font-size="10.00">filesystem</text>
</a>
</g>
</g>
<!-- Node21&#45;&gt;Node24 -->
<g id="edge34" class="edge">
<title>Node21&#45;&gt;Node24</title>
<path fill="none" stroke="midnightblue" d="M1115.46,-112.44C1139.64,-103.44 1177.91,-89.19 1205.13,-79.05"/>
<polygon fill="midnightblue" stroke="midnightblue" points="1206.47,-82.29 1214.62,-75.52 1204.03,-75.73 1206.47,-82.29"/>
</g>
<!-- Node25 -->
<g id="node25" class="node">
<title>Node25</title>
<g id="a_node25"><a xlink:title=" ">
<polygon fill="white" stroke="#bfbfbf" points="884.49,-56.5 884.49,-75.5 928.49,-75.5 928.49,-56.5 884.49,-56.5"/>
<text text-anchor="middle" x="906.49" y="-63.5" font-family="Helvetica,sans-Serif" font-size="10.00">cmath</text>
</a>
</g>
</g>
<!-- Node21&#45;&gt;Node25 -->
<g id="edge36" class="edge">
<title>Node21&#45;&gt;Node25</title>
<path fill="none" stroke="midnightblue" d="M1063.01,-112.44C1028.99,-102.56 973.22,-86.37 938.25,-76.22"/>
<polygon fill="midnightblue" stroke="midnightblue" points="939.12,-72.83 928.54,-73.4 937.17,-79.55 939.12,-72.83"/>
</g>
<!-- Node26 -->
<g id="node26" class="node">
<title>Node26</title>
<g id="a_node26"><a xlink:href="../../d6/de9/Constants_8hpp.html" target="_top" xlink:title="Constants used by ArkScript.">
<polygon fill="white" stroke="black" points="946.49,-56.5 946.49,-75.5 1044.49,-75.5 1044.49,-56.5 946.49,-56.5"/>
<text text-anchor="middle" x="995.49" y="-63.5" font-family="Helvetica,sans-Serif" font-size="10.00">Ark/Constants.hpp</text>
</a>
</g>
</g>
<!-- Node21&#45;&gt;Node26 -->
<g id="edge37" class="edge">
<title>Node21&#45;&gt;Node26</title>
<path fill="none" stroke="midnightblue" d="M1076.9,-112.32C1061.49,-103.74 1037.67,-90.49 1019.78,-80.52"/>
<polygon fill="midnightblue" stroke="midnightblue" points="1021.47,-77.46 1011.03,-75.65 1018.07,-83.58 1021.47,-77.46"/>
</g>
<!-- Node26&#45;&gt;Node6 -->
<g id="edge38" class="edge">
<title>Node26&#45;&gt;Node6</title>
<path fill="none" stroke="midnightblue" d="M946.47,-57.18C943.43,-56.76 940.42,-56.37 937.49,-56 775.63,-35.79 581.74,-20.05 500.86,-13.86"/>
<polygon fill="midnightblue" stroke="midnightblue" points="500.9,-10.35 490.66,-13.08 500.36,-17.33 500.9,-10.35"/>
</g>
</g>
</svg>
