<?xml version="1.0" encoding="UTF-8" standalone="no"?>
<!DOCTYPE svg PUBLIC "-//W3C//DTD SVG 1.1//EN"
 "http://www.w3.org/Graphics/SVG/1.1/DTD/svg11.dtd">
<!-- Generated by graphviz version 2.49.0 (20210828.1703)
 -->
<!-- Title: C:/Users/folae/Documents/Code/Big&#45;Projects/ArkScript/Ark/src/arkreactor/VM/Value.cpp Pages: 1 -->
<svg width="1382pt" height="218pt"
 viewBox="0.00 0.00 1381.55 218.00" xmlns="http://www.w3.org/2000/svg" xmlns:xlink="http://www.w3.org/1999/xlink">
<g id="graph0" class="graph" transform="scale(1 1) rotate(0) translate(4 214)">
<title>C:/Users/folae/Documents/Code/Big&#45;Projects/ArkScript/Ark/src/arkreactor/VM/Value.cpp</title>
<polygon fill="white" stroke="transparent" points="-4,4 -4,-214 1377.55,-214 1377.55,4 -4,4"/>
<!-- Node1 -->
<g id="node1" class="node">
<title>Node1</title>
<g id="a_node1"><a xlink:title=" ">
<polygon fill="#bfbfbf" stroke="black" points="752.55,-168.5 752.55,-209.5 914.55,-209.5 914.55,-168.5 752.55,-168.5"/>
<text text-anchor="start" x="760.55" y="-197.5" font-family="Helvetica,sans-Serif" font-size="10.00">C:/Users/folae/Documents</text>
<text text-anchor="start" x="760.55" y="-186.5" font-family="Helvetica,sans-Serif" font-size="10.00">/Code/Big&#45;Projects/ArkScript</text>
<text text-anchor="middle" x="833.55" y="-175.5" font-family="Helvetica,sans-Serif" font-size="10.00">/Ark/src/arkreactor/VM/Value.cpp</text>
</a>
</g>
</g>
<!-- Node2 -->
<g id="node2" class="node">
<title>Node2</title>
<g id="a_node2"><a xlink:href="../../de/dfd/Value_8hpp.html" target="_top" xlink:title=" ">
<polygon fill="white" stroke="black" points="563.55,-112.5 563.55,-131.5 659.55,-131.5 659.55,-112.5 563.55,-112.5"/>
<text text-anchor="middle" x="611.55" y="-119.5" font-family="Helvetica,sans-Serif" font-size="10.00">Ark/VM/Value.hpp</text>
</a>
</g>
</g>
<!-- Node1&#45;&gt;Node2 -->
<g id="edge1" class="edge">
<title>Node1&#45;&gt;Node2</title>
<path fill="none" stroke="midnightblue" d="M766.94,-168.5C729.02,-157.4 682.83,-143.87 650.71,-134.47"/>
<polygon fill="midnightblue" stroke="midnightblue" points="651.39,-131.02 640.81,-131.57 649.42,-137.74 651.39,-131.02"/>
</g>
<!-- Node18 -->
<g id="node18" class="node">
<title>Node18</title>
<g id="a_node18"><a xlink:href="../../d7/d09/Utils_8hpp.html" target="_top" xlink:title="Lots of utilities about string, filesystem and more.">
<polygon fill="white" stroke="black" points="1081.05,-112.5 1081.05,-131.5 1154.05,-131.5 1154.05,-112.5 1081.05,-112.5"/>
<text text-anchor="middle" x="1117.55" y="-119.5" font-family="Helvetica,sans-Serif" font-size="10.00">Ark/Utils.hpp</text>
</a>
</g>
</g>
<!-- Node1&#45;&gt;Node18 -->
<g id="edge26" class="edge">
<title>Node1&#45;&gt;Node18</title>
<path fill="none" stroke="midnightblue" d="M914.55,-169.46C965.25,-157.86 1028.75,-143.32 1071.1,-133.63"/>
<polygon fill="midnightblue" stroke="midnightblue" points="1071.89,-137.04 1080.86,-131.4 1070.33,-130.22 1071.89,-137.04"/>
</g>
<!-- Node3 -->
<g id="node3" class="node">
<title>Node3</title>
<g id="a_node3"><a xlink:title=" ">
<polygon fill="white" stroke="#bfbfbf" points="724.55,-0.5 724.55,-19.5 766.55,-19.5 766.55,-0.5 724.55,-0.5"/>
<text text-anchor="middle" x="745.55" y="-7.5" font-family="Helvetica,sans-Serif" font-size="10.00">vector</text>
</a>
</g>
</g>
<!-- Node2&#45;&gt;Node3 -->
<g id="edge2" class="edge">
<title>Node2&#45;&gt;Node3</title>
<path fill="none" stroke="midnightblue" d="M659.81,-116.89C712.55,-111.29 792.03,-99.17 810.55,-76 826.03,-56.63 798.77,-36.83 774.96,-24.25"/>
<polygon fill="midnightblue" stroke="midnightblue" points="776.27,-21 765.76,-19.65 773.13,-27.26 776.27,-21"/>
</g>
<!-- Node4 -->
<g id="node4" class="node">
<title>Node4</title>
<g id="a_node4"><a xlink:title=" ">
<polygon fill="white" stroke="#bfbfbf" points="757.55,-56.5 757.55,-75.5 801.55,-75.5 801.55,-56.5 757.55,-56.5"/>
<text text-anchor="middle" x="779.55" y="-63.5" font-family="Helvetica,sans-Serif" font-size="10.00">variant</text>
</a>
</g>
</g>
<!-- Node2&#45;&gt;Node4 -->
<g id="edge3" class="edge">
<title>Node2&#45;&gt;Node4</title>
<path fill="none" stroke="midnightblue" d="M638.17,-112.44C667.89,-102.89 715.97,-87.44 747.67,-77.25"/>
<polygon fill="midnightblue" stroke="midnightblue" points="748.89,-80.53 757.34,-74.14 746.75,-73.86 748.89,-80.53"/>
</g>
<!-- Node5 -->
<g id="node5" class="node">
<title>Node5</title>
<g id="a_node5"><a xlink:title=" ">
<polygon fill="white" stroke="#bfbfbf" points="1010.05,-56.5 1010.05,-75.5 1051.05,-75.5 1051.05,-56.5 1010.05,-56.5"/>
<text text-anchor="middle" x="1030.55" y="-63.5" font-family="Helvetica,sans-Serif" font-size="10.00">string</text>
</a>
</g>
</g>
<!-- Node2&#45;&gt;Node5 -->
<g id="edge4" class="edge">
<title>Node2&#45;&gt;Node5</title>
<path fill="none" stroke="midnightblue" d="M659.75,-117.45C732.82,-111.61 875.78,-98.31 995.55,-76 997.01,-75.73 998.51,-75.43 1000.01,-75.11"/>
<polygon fill="midnightblue" stroke="midnightblue" points="1000.98,-78.48 1009.92,-72.8 999.39,-71.66 1000.98,-78.48"/>
</g>
<!-- Node6 -->
<g id="node6" class="node">
<title>Node6</title>
<g id="a_node6"><a xlink:title=" ">
<polygon fill="white" stroke="#bfbfbf" points="1012.55,-0.5 1012.55,-19.5 1068.55,-19.5 1068.55,-0.5 1012.55,-0.5"/>
<text text-anchor="middle" x="1040.55" y="-7.5" font-family="Helvetica,sans-Serif" font-size="10.00">cinttypes</text>
</a>
</g>
</g>
<!-- Node2&#45;&gt;Node6 -->
<g id="edge5" class="edge">
<title>Node2&#45;&gt;Node6</title>
<path fill="none" stroke="midnightblue" d="M659.6,-121.03C725.32,-119.62 845.97,-111.78 941.55,-76 972.77,-64.31 1004.16,-41.35 1022.98,-26.08"/>
<polygon fill="midnightblue" stroke="midnightblue" points="1025.24,-28.76 1030.7,-19.68 1020.77,-23.38 1025.24,-28.76"/>
</g>
<!-- Node7 -->
<g id="node7" class="node">
<title>Node7</title>
<g id="a_node7"><a xlink:title=" ">
<polygon fill="white" stroke="#bfbfbf" points="856.55,-0.5 856.55,-19.5 910.55,-19.5 910.55,-0.5 856.55,-0.5"/>
<text text-anchor="middle" x="883.55" y="-7.5" font-family="Helvetica,sans-Serif" font-size="10.00">iostream</text>
</a>
</g>
</g>
<!-- Node2&#45;&gt;Node7 -->
<g id="edge6" class="edge">
<title>Node2&#45;&gt;Node7</title>
<path fill="none" stroke="midnightblue" d="M659.86,-121.41C739.01,-120.94 890.89,-114.84 924.55,-76 938.09,-60.37 920.21,-39.84 903.99,-26.08"/>
<polygon fill="midnightblue" stroke="midnightblue" points="905.83,-23.07 895.83,-19.55 901.45,-28.53 905.83,-23.07"/>
</g>
<!-- Node8 -->
<g id="node8" class="node">
<title>Node8</title>
<g id="a_node8"><a xlink:title=" ">
<polygon fill="white" stroke="#bfbfbf" points="333.55,-0.5 333.55,-19.5 385.55,-19.5 385.55,-0.5 333.55,-0.5"/>
<text text-anchor="middle" x="359.55" y="-7.5" font-family="Helvetica,sans-Serif" font-size="10.00">memory</text>
</a>
</g>
</g>
<!-- Node2&#45;&gt;Node8 -->
<g id="edge7" class="edge">
<title>Node2&#45;&gt;Node8</title>
<path fill="none" stroke="midnightblue" d="M563.29,-118.72C466.89,-113.68 257.9,-100.07 236.55,-76 230.65,-69.35 231.46,-63.29 236.55,-56 241.79,-48.49 289.15,-32.61 323.53,-21.87"/>
<polygon fill="midnightblue" stroke="midnightblue" points="324.77,-25.16 333.28,-18.86 322.7,-18.47 324.77,-25.16"/>
</g>
<!-- Node9 -->
<g id="node9" class="node">
<title>Node9</title>
<g id="a_node9"><a xlink:title=" ">
<polygon fill="white" stroke="#bfbfbf" points="857.55,-56.5 857.55,-75.5 915.55,-75.5 915.55,-56.5 857.55,-56.5"/>
<text text-anchor="middle" x="886.55" y="-63.5" font-family="Helvetica,sans-Serif" font-size="10.00">functional</text>
</a>
</g>
</g>
<!-- Node2&#45;&gt;Node9 -->
<g id="edge8" class="edge">
<title>Node2&#45;&gt;Node9</title>
<path fill="none" stroke="midnightblue" d="M656.5,-112.48C703.26,-103.58 778.59,-89.1 843.55,-76 844.81,-75.75 846.09,-75.49 847.39,-75.22"/>
<polygon fill="midnightblue" stroke="midnightblue" points="848.33,-78.6 857.42,-73.16 846.91,-71.75 848.33,-78.6"/>
</g>
<!-- Node10 -->
<g id="node10" class="node">
<title>Node10</title>
<g id="a_node10"><a xlink:title=" ">
<polygon fill="white" stroke="#bfbfbf" points="89.55,-0.5 89.55,-19.5 129.55,-19.5 129.55,-0.5 89.55,-0.5"/>
<text text-anchor="middle" x="109.55" y="-7.5" font-family="Helvetica,sans-Serif" font-size="10.00">utility</text>
</a>
</g>
</g>
<!-- Node2&#45;&gt;Node10 -->
<g id="edge9" class="edge">
<title>Node2&#45;&gt;Node10</title>
<path fill="none" stroke="midnightblue" d="M563.12,-121.09C426.27,-120.83 44.12,-116.48 6.55,-76 -19.07,-48.4 40.8,-27.75 79.61,-17.73"/>
<polygon fill="midnightblue" stroke="midnightblue" points="80.57,-21.1 89.44,-15.3 78.89,-14.3 80.57,-21.1"/>
</g>
<!-- Node11 -->
<g id="node11" class="node">
<title>Node11</title>
<g id="a_node11"><a xlink:title=" ">
<polygon fill="white" stroke="#bfbfbf" points="16.05,-56.5 16.05,-75.5 95.05,-75.5 95.05,-56.5 16.05,-56.5"/>
<text text-anchor="middle" x="55.55" y="-63.5" font-family="Helvetica,sans-Serif" font-size="10.00">Ark/String.hpp</text>
</a>
</g>
</g>
<!-- Node2&#45;&gt;Node11 -->
<g id="edge10" class="edge">
<title>Node2&#45;&gt;Node11</title>
<path fill="none" stroke="midnightblue" d="M563.5,-118.23C474.99,-112.81 280.06,-99.35 105.23,-75.96"/>
<polygon fill="midnightblue" stroke="midnightblue" points="105.46,-72.46 95.08,-74.59 104.52,-79.4 105.46,-72.46"/>
</g>
<!-- Node12 -->
<g id="node12" class="node">
<title>Node12</title>
<g id="a_node12"><a xlink:title=" ">
<polygon fill="white" stroke="#bfbfbf" points="113.55,-56.5 113.55,-75.5 151.55,-75.5 151.55,-56.5 113.55,-56.5"/>
<text text-anchor="middle" x="132.55" y="-63.5" font-family="Helvetica,sans-Serif" font-size="10.00">array</text>
</a>
</g>
</g>
<!-- Node2&#45;&gt;Node12 -->
<g id="edge11" class="edge">
<title>Node2&#45;&gt;Node12</title>
<path fill="none" stroke="midnightblue" d="M563.33,-118.76C481.12,-114.35 308.83,-102.58 165.55,-76 164.27,-75.76 162.96,-75.5 161.65,-75.22"/>
<polygon fill="midnightblue" stroke="midnightblue" points="162.16,-71.74 151.62,-72.78 160.51,-78.54 162.16,-71.74"/>
</g>
<!-- Node13 -->
<g id="node13" class="node">
<title>Node13</title>
<g id="a_node13"><a xlink:href="../../dc/dd5/Closure_8hpp.html" target="_top" xlink:title="Subtype of the value type, handling closures.">
<polygon fill="white" stroke="black" points="607.55,-56.5 607.55,-75.5 739.55,-75.5 739.55,-56.5 607.55,-56.5"/>
<text text-anchor="middle" x="673.55" y="-63.5" font-family="Helvetica,sans-Serif" font-size="10.00">Ark/VM/Value/Closure.hpp</text>
</a>
</g>
</g>
<!-- Node2&#45;&gt;Node13 -->
<g id="edge12" class="edge">
<title>Node2&#45;&gt;Node13</title>
<path fill="none" stroke="midnightblue" d="M621.51,-112.32C630.67,-104.34 644.48,-92.31 655.58,-82.65"/>
<polygon fill="midnightblue" stroke="midnightblue" points="658.16,-85.04 663.4,-75.83 653.57,-79.76 658.16,-85.04"/>
</g>
<!-- Node14 -->
<g id="node14" class="node">
<title>Node14</title>
<g id="a_node14"><a xlink:href="../../d5/d40/Platform_8hpp.html" target="_top" xlink:title="ArkScript configuration macros.">
<polygon fill="white" stroke="black" points="226.05,-0.5 226.05,-19.5 315.05,-19.5 315.05,-0.5 226.05,-0.5"/>
<text text-anchor="middle" x="270.55" y="-7.5" font-family="Helvetica,sans-Serif" font-size="10.00">Ark/Platform.hpp</text>
</a>
</g>
</g>
<!-- Node2&#45;&gt;Node14 -->
<g id="edge23" class="edge">
<title>Node2&#45;&gt;Node14</title>
<path fill="none" stroke="midnightblue" d="M563.39,-118.86C465.45,-114 250.46,-100.64 228.55,-76 214.58,-60.3 233.36,-39.52 250.08,-25.73"/>
<polygon fill="midnightblue" stroke="midnightblue" points="252.24,-28.48 257.97,-19.57 247.94,-22.96 252.24,-28.48"/>
</g>
<!-- Node15 -->
<g id="node15" class="node">
<title>Node15</title>
<g id="a_node15"><a xlink:href="../../dc/d3d/UserType_8hpp.html" target="_top" xlink:title="Subtype of the value, capable of handling any C++ type.">
<polygon fill="white" stroke="black" points="245.55,-56.5 245.55,-75.5 385.55,-75.5 385.55,-56.5 245.55,-56.5"/>
<text text-anchor="middle" x="315.55" y="-63.5" font-family="Helvetica,sans-Serif" font-size="10.00">Ark/VM/Value/UserType.hpp</text>
</a>
</g>
</g>
<!-- Node2&#45;&gt;Node15 -->
<g id="edge17" class="edge">
<title>Node2&#45;&gt;Node15</title>
<path fill="none" stroke="midnightblue" d="M564.65,-112.44C512.47,-102.92 428.18,-87.55 372.32,-77.36"/>
<polygon fill="midnightblue" stroke="midnightblue" points="372.7,-73.87 362.23,-75.52 371.44,-80.75 372.7,-73.87"/>
</g>
<!-- Node16 -->
<g id="node16" class="node">
<title>Node16</title>
<g id="a_node16"><a xlink:href="../../d0/dd2/Profiling_8hpp.html" target="_top" xlink:title=" ">
<polygon fill="white" stroke="black" points="403.55,-56.5 403.55,-75.5 491.55,-75.5 491.55,-56.5 403.55,-56.5"/>
<text text-anchor="middle" x="447.55" y="-63.5" font-family="Helvetica,sans-Serif" font-size="10.00">Ark/Profiling.hpp</text>
</a>
</g>
</g>
<!-- Node2&#45;&gt;Node16 -->
<g id="edge24" class="edge">
<title>Node2&#45;&gt;Node16</title>
<path fill="none" stroke="midnightblue" d="M585.56,-112.44C557.85,-103.32 513.8,-88.81 482.93,-78.65"/>
<polygon fill="midnightblue" stroke="midnightblue" points="484.01,-75.32 473.41,-75.52 481.82,-81.97 484.01,-75.32"/>
</g>
<!-- Node17 -->
<g id="node17" class="node">
<title>Node17</title>
<g id="a_node17"><a xlink:title=" ">
<polygon fill="white" stroke="#bfbfbf" points="509.55,-56.5 509.55,-75.5 589.55,-75.5 589.55,-56.5 509.55,-56.5"/>
<text text-anchor="middle" x="549.55" y="-63.5" font-family="Helvetica,sans-Serif" font-size="10.00">inline/Value.inl</text>
</a>
</g>
</g>
<!-- Node2&#45;&gt;Node17 -->
<g id="edge25" class="edge">
<title>Node2&#45;&gt;Node17</title>
<path fill="none" stroke="midnightblue" d="M601.59,-112.32C592.42,-104.34 578.61,-92.31 567.52,-82.65"/>
<polygon fill="midnightblue" stroke="midnightblue" points="569.53,-79.76 559.69,-75.83 564.93,-85.04 569.53,-79.76"/>
</g>
<!-- Node13&#45;&gt;Node3 -->
<g id="edge14" class="edge">
<title>Node13&#45;&gt;Node3</title>
<path fill="none" stroke="midnightblue" d="M685.12,-56.32C695.97,-48.18 712.43,-35.84 725.43,-26.09"/>
<polygon fill="midnightblue" stroke="midnightblue" points="727.87,-28.63 733.77,-19.83 723.67,-23.03 727.87,-28.63"/>
</g>
<!-- Node13&#45;&gt;Node7 -->
<g id="edge15" class="edge">
<title>Node13&#45;&gt;Node7</title>
<path fill="none" stroke="midnightblue" d="M706.82,-56.44C744.91,-46.65 807.12,-30.65 846.66,-20.49"/>
<polygon fill="midnightblue" stroke="midnightblue" points="847.62,-23.85 856.44,-17.97 845.88,-17.07 847.62,-23.85"/>
</g>
<!-- Node13&#45;&gt;Node8 -->
<g id="edge13" class="edge">
<title>Node13&#45;&gt;Node8</title>
<path fill="none" stroke="midnightblue" d="M623.79,-56.44C560.3,-45.52 451.99,-26.9 395.79,-17.23"/>
<polygon fill="midnightblue" stroke="midnightblue" points="396.37,-13.78 385.92,-15.54 395.18,-20.68 396.37,-13.78"/>
</g>
<!-- Node13&#45;&gt;Node14 -->
<g id="edge16" class="edge">
<title>Node13&#45;&gt;Node14</title>
<path fill="none" stroke="midnightblue" d="M607.45,-56.77C526.26,-46.62 392.09,-29.67 325.42,-20.07"/>
<polygon fill="midnightblue" stroke="midnightblue" points="325.72,-16.57 315.32,-18.59 324.71,-23.5 325.72,-16.57"/>
</g>
<!-- Node15&#45;&gt;Node3 -->
<g id="edge19" class="edge">
<title>Node15&#45;&gt;Node3</title>
<path fill="none" stroke="midnightblue" d="M383.68,-56.44C478.09,-44.59 644.88,-23.64 714.09,-14.95"/>
<polygon fill="midnightblue" stroke="midnightblue" points="714.84,-18.38 724.33,-13.66 713.97,-11.44 714.84,-18.38"/>
</g>
<!-- Node15&#45;&gt;Node7 -->
<g id="edge18" class="edge">
<title>Node15&#45;&gt;Node7</title>
<path fill="none" stroke="midnightblue" d="M385.75,-56.92C388.72,-56.61 391.66,-56.3 394.55,-56 562.96,-38.66 764.34,-21.14 846.2,-14.16"/>
<polygon fill="midnightblue" stroke="midnightblue" points="846.82,-17.62 856.49,-13.28 846.23,-10.64 846.82,-17.62"/>
</g>
<!-- Node15&#45;&gt;Node8 -->
<g id="edge21" class="edge">
<title>Node15&#45;&gt;Node8</title>
<path fill="none" stroke="midnightblue" d="M322.81,-56.08C329.09,-48.38 338.34,-37.03 345.98,-27.65"/>
<polygon fill="midnightblue" stroke="midnightblue" points="348.81,-29.71 352.42,-19.75 343.39,-25.29 348.81,-29.71"/>
</g>
<!-- Node15&#45;&gt;Node10 -->
<g id="edge20" class="edge">
<title>Node15&#45;&gt;Node10</title>
<path fill="none" stroke="midnightblue" d="M282.91,-56.44C243.5,-46.11 177.77,-28.88 139.58,-18.87"/>
<polygon fill="midnightblue" stroke="midnightblue" points="140.14,-15.4 129.58,-16.25 138.36,-22.17 140.14,-15.4"/>
</g>
<!-- Node15&#45;&gt;Node14 -->
<g id="edge22" class="edge">
<title>Node15&#45;&gt;Node14</title>
<path fill="none" stroke="midnightblue" d="M308.12,-56.08C301.69,-48.38 292.24,-37.03 284.43,-27.65"/>
<polygon fill="midnightblue" stroke="midnightblue" points="286.93,-25.19 277.84,-19.75 281.55,-29.67 286.93,-25.19"/>
</g>
<!-- Node18&#45;&gt;Node3 -->
<g id="edge30" class="edge">
<title>Node18&#45;&gt;Node3</title>
<path fill="none" stroke="midnightblue" d="M1112.6,-112.06C1104.06,-97.58 1085.1,-69.3 1060.55,-56 1035.84,-42.62 851.38,-22.08 776.75,-14.21"/>
<polygon fill="midnightblue" stroke="midnightblue" points="776.88,-10.71 766.57,-13.15 776.15,-17.67 776.88,-10.71"/>
</g>
<!-- Node18&#45;&gt;Node5 -->
<g id="edge27" class="edge">
<title>Node18&#45;&gt;Node5</title>
<path fill="none" stroke="midnightblue" d="M1103.57,-112.32C1090,-103.9 1069.17,-90.97 1053.22,-81.07"/>
<polygon fill="midnightblue" stroke="midnightblue" points="1054.83,-77.95 1044.49,-75.65 1051.14,-83.9 1054.83,-77.95"/>
</g>
<!-- Node18&#45;&gt;Node7 -->
<g id="edge28" class="edge">
<title>Node18&#45;&gt;Node7</title>
<path fill="none" stroke="midnightblue" d="M1116.94,-112.36C1115.46,-98.33 1110.46,-70.65 1093.55,-56 1068.12,-33.96 974.18,-20.63 920.96,-14.69"/>
<polygon fill="midnightblue" stroke="midnightblue" points="921.21,-11.19 910.89,-13.59 920.46,-18.15 921.21,-11.19"/>
</g>
<!-- Node19 -->
<g id="node19" class="node">
<title>Node19</title>
<g id="a_node19"><a xlink:title=" ">
<polygon fill="white" stroke="#bfbfbf" points="1146.05,-56.5 1146.05,-75.5 1195.05,-75.5 1195.05,-56.5 1146.05,-56.5"/>
<text text-anchor="middle" x="1170.55" y="-63.5" font-family="Helvetica,sans-Serif" font-size="10.00">fstream</text>
</a>
</g>
</g>
<!-- Node18&#45;&gt;Node19 -->
<g id="edge29" class="edge">
<title>Node18&#45;&gt;Node19</title>
<path fill="none" stroke="midnightblue" d="M1126.3,-112.08C1134.02,-104.22 1145.45,-92.57 1154.76,-83.08"/>
<polygon fill="midnightblue" stroke="midnightblue" points="1157.45,-85.34 1161.96,-75.75 1152.46,-80.44 1157.45,-85.34"/>
</g>
<!-- Node20 -->
<g id="node20" class="node">
<title>Node20</title>
<g id="a_node20"><a xlink:title=" ">
<polygon fill="white" stroke="#bfbfbf" points="1213.55,-56.5 1213.55,-75.5 1257.55,-75.5 1257.55,-56.5 1213.55,-56.5"/>
<text text-anchor="middle" x="1235.55" y="-63.5" font-family="Helvetica,sans-Serif" font-size="10.00">cmath</text>
</a>
</g>
</g>
<!-- Node18&#45;&gt;Node20 -->
<g id="edge31" class="edge">
<title>Node18&#45;&gt;Node20</title>
<path fill="none" stroke="midnightblue" d="M1136.24,-112.44C1155.49,-103.64 1185.7,-89.81 1207.75,-79.72"/>
<polygon fill="midnightblue" stroke="midnightblue" points="1209.3,-82.86 1216.94,-75.52 1206.39,-76.5 1209.3,-82.86"/>
</g>
<!-- Node21 -->
<g id="node21" class="node">
<title>Node21</title>
<g id="a_node21"><a xlink:href="../../d6/de9/Constants_8hpp.html" target="_top" xlink:title="Constants used by ArkScript.">
<polygon fill="white" stroke="black" points="1275.55,-56.5 1275.55,-75.5 1373.55,-75.5 1373.55,-56.5 1275.55,-56.5"/>
<text text-anchor="middle" x="1324.55" y="-63.5" font-family="Helvetica,sans-Serif" font-size="10.00">Ark/Constants.hpp</text>
</a>
</g>
</g>
<!-- Node18&#45;&gt;Node21 -->
<g id="edge32" class="edge">
<title>Node18&#45;&gt;Node21</title>
<path fill="none" stroke="midnightblue" d="M1150.35,-112.44C1185.93,-103.16 1242.86,-88.31 1281.89,-78.13"/>
<polygon fill="midnightblue" stroke="midnightblue" points="1283.11,-81.43 1291.9,-75.52 1281.34,-74.65 1283.11,-81.43"/>
</g>
<!-- Node21&#45;&gt;Node6 -->
<g id="edge33" class="edge">
<title>Node21&#45;&gt;Node6</title>
<path fill="none" stroke="midnightblue" d="M1279.55,-56.44C1223.97,-45.88 1130.43,-28.09 1078.38,-18.19"/>
<polygon fill="midnightblue" stroke="midnightblue" points="1079.03,-14.75 1068.55,-16.32 1077.72,-21.63 1079.03,-14.75"/>
</g>
<!-- Node22 -->
<g id="node22" class="node">
<title>Node22</title>
<g id="a_node22"><a xlink:title=" ">
<polygon fill="white" stroke="#bfbfbf" points="1300.55,-0.5 1300.55,-19.5 1348.55,-19.5 1348.55,-0.5 1300.55,-0.5"/>
<text text-anchor="middle" x="1324.55" y="-7.5" font-family="Helvetica,sans-Serif" font-size="10.00">cstddef</text>
</a>
</g>
</g>
<!-- Node21&#45;&gt;Node22 -->
<g id="edge34" class="edge">
<title>Node21&#45;&gt;Node22</title>
<path fill="none" stroke="midnightblue" d="M1324.55,-56.08C1324.55,-49.01 1324.55,-38.86 1324.55,-29.99"/>
<polygon fill="midnightblue" stroke="midnightblue" points="1328.05,-29.75 1324.55,-19.75 1321.05,-29.75 1328.05,-29.75"/>
</g>
</g>
</svg>
