<?xml version="1.0" encoding="UTF-8" standalone="no"?>
<!DOCTYPE svg PUBLIC "-//W3C//DTD SVG 1.1//EN"
 "http://www.w3.org/Graphics/SVG/1.1/DTD/svg11.dtd">
<!-- Generated by graphviz version 2.49.0 (20210828.1703)
 -->
<!-- Title: Ark::State Pages: 1 -->
<svg width="215pt" height="251pt"
 viewBox="0.00 0.00 215.00 251.00" xmlns="http://www.w3.org/2000/svg" xmlns:xlink="http://www.w3.org/1999/xlink">
<g id="graph0" class="graph" transform="scale(1 1) rotate(0) translate(4 247)">
<title>Ark::State</title>
<polygon fill="white" stroke="transparent" points="-4,4 -4,-247 211,-247 211,4 -4,4"/>
<!-- Node1 -->
<g id="node1" class="node">
<title>Node1</title>
<g id="a_node1"><a xlink:title="Ark state to handle the dirty job of loading and compiling ArkScript code.">
<polygon fill="#bfbfbf" stroke="black" points="75,-0.5 75,-19.5 136,-19.5 136,-0.5 75,-0.5"/>
<text text-anchor="middle" x="105.5" y="-7.5" font-family="Helvetica,sans-Serif" font-size="10.00">Ark::State</text>
</a>
</g>
</g>
<!-- Node2 -->
<g id="node2" class="node">
<title>Node2</title>
<g id="a_node2"><a xlink:title=" ">
<polygon fill="white" stroke="#bfbfbf" points="0,-78.5 0,-97.5 109,-97.5 109,-78.5 0,-78.5"/>
<text text-anchor="middle" x="54.5" y="-85.5" font-family="Helvetica,sans-Serif" font-size="10.00">std::vector&lt; uint8_t &gt;</text>
</a>
</g>
</g>
<!-- Node2&#45;&gt;Node1 -->
<g id="edge1" class="edge">
<title>Node2&#45;&gt;Node1</title>
<path fill="none" stroke="#9a32cd" stroke-dasharray="5,2" d="M58.76,-68.54C61.59,-58.85 66.01,-47.12 72.5,-38 77.65,-30.76 85.22,-24.38 91.82,-19.64"/>
<polygon fill="#9a32cd" stroke="#9a32cd" points="55.33,-67.82 56.2,-78.38 62.1,-69.58 55.33,-67.82"/>
<text text-anchor="middle" x="101" y="-46.5" font-family="Helvetica,sans-Serif" font-size="10.00"> m_bytecode</text>
</g>
<!-- Node3 -->
<g id="node3" class="node">
<title>Node3</title>
<g id="a_node3"><a xlink:title=" ">
<polygon fill="white" stroke="#bfbfbf" points="9,-151 9,-170 94,-170 94,-151 9,-151"/>
<text text-anchor="middle" x="51.5" y="-158" font-family="Helvetica,sans-Serif" font-size="10.00">std::vector&lt; T &gt;</text>
</a>
</g>
</g>
<!-- Node3&#45;&gt;Node2 -->
<g id="edge2" class="edge">
<title>Node3&#45;&gt;Node2</title>
<path fill="none" stroke="orange" stroke-dasharray="5,2" d="M52.29,-140.86C52.89,-126.9 53.67,-108.43 54.13,-97.72"/>
<polygon fill="orange" stroke="orange" points="48.8,-140.72 51.87,-150.86 55.79,-141.01 48.8,-140.72"/>
<text text-anchor="middle" x="79" y="-119" font-family="Helvetica,sans-Serif" font-size="10.00"> &lt; uint8_t &gt;</text>
</g>
<!-- Node4 -->
<g id="node4" class="node">
<title>Node4</title>
<g id="a_node4"><a xlink:title=" ">
<polygon fill="white" stroke="#bfbfbf" points="37,-223.5 37,-242.5 66,-242.5 66,-223.5 37,-223.5"/>
<text text-anchor="middle" x="51.5" y="-230.5" font-family="Helvetica,sans-Serif" font-size="10.00">T</text>
</a>
</g>
</g>
<!-- Node4&#45;&gt;Node3 -->
<g id="edge3" class="edge">
<title>Node4&#45;&gt;Node3</title>
<path fill="none" stroke="#9a32cd" stroke-dasharray="5,2" d="M51.5,-212.94C51.5,-199.03 51.5,-180.82 51.5,-170.22"/>
<polygon fill="#9a32cd" stroke="#9a32cd" points="48,-213.36 51.5,-223.36 55,-213.36 48,-213.36"/>
<text text-anchor="middle" x="73" y="-197" font-family="Helvetica,sans-Serif" font-size="10.00"> elements</text>
</g>
<!-- Node5 -->
<g id="node5" class="node">
<title>Node5</title>
<g id="a_node5"><a xlink:title=" ">
<polygon fill="white" stroke="#bfbfbf" points="128.5,-78.5 128.5,-97.5 188.5,-97.5 188.5,-78.5 128.5,-78.5"/>
<text text-anchor="middle" x="158.5" y="-85.5" font-family="Helvetica,sans-Serif" font-size="10.00">std::string</text>
</a>
</g>
</g>
<!-- Node5&#45;&gt;Node1 -->
<g id="edge4" class="edge">
<title>Node5&#45;&gt;Node1</title>
<path fill="none" stroke="#9a32cd" stroke-dasharray="5,2" d="M149.17,-69.41C143.83,-59.84 136.77,-47.96 129.5,-38 124.77,-31.52 118.77,-24.77 113.95,-19.64"/>
<polygon fill="#9a32cd" stroke="#9a32cd" points="146.19,-71.25 154.05,-78.37 152.34,-67.91 146.19,-71.25"/>
<text text-anchor="middle" x="170" y="-52" font-family="Helvetica,sans-Serif" font-size="10.00"> m_filename</text>
<text text-anchor="middle" x="170" y="-41" font-family="Helvetica,sans-Serif" font-size="10.00">m_libdir</text>
</g>
<!-- Node6 -->
<g id="node6" class="node">
<title>Node6</title>
<g id="a_node6"><a xlink:title=" ">
<polygon fill="white" stroke="#bfbfbf" points="112,-145.5 112,-175.5 207,-175.5 207,-145.5 112,-145.5"/>
<text text-anchor="start" x="120" y="-163.5" font-family="Helvetica,sans-Serif" font-size="10.00">std::basic_string&lt;</text>
<text text-anchor="middle" x="159.5" y="-152.5" font-family="Helvetica,sans-Serif" font-size="10.00"> Char &gt;</text>
</a>
</g>
</g>
<!-- Node6&#45;&gt;Node5 -->
<g id="edge5" class="edge">
<title>Node6&#45;&gt;Node5</title>
<path fill="none" stroke="midnightblue" d="M159.15,-135.09C158.97,-122.21 158.76,-107.2 158.63,-97.89"/>
<polygon fill="midnightblue" stroke="midnightblue" points="155.66,-135.28 159.3,-145.23 162.66,-135.18 155.66,-135.28"/>
</g>
</g>
</svg>
