<?xml version="1.0" encoding="UTF-8" standalone="no"?>
<!DOCTYPE svg PUBLIC "-//W3C//DTD SVG 1.1//EN"
 "http://www.w3.org/Graphics/SVG/1.1/DTD/svg11.dtd">
<!-- Generated by graphviz version 2.43.0 (0)
 -->
<!-- Title: Ark::State Pages: 1 -->
<!--zoomable 321 -->
<svg id="main" version="1.1" xmlns="http://www.w3.org/2000/svg" xmlns:xlink="http://www.w3.org/1999/xlink" xml:space="preserve" onload="init(evt)">
<style type="text/css"><![CDATA[
.edge:hover path { stroke: red; }
.edge:hover polygon { stroke: red; fill: red; }
]]></style>
<script type="text/javascript"><![CDATA[
var edges = document.getElementsByTagName('g');
if (edges && edges.length) {
  for (var i=0;i<edges.length;i++) {
    if (edges[i].id.substr(0,4)=='edge') {
      edges[i].setAttribute('class','edge');
    }
  }
}
]]></script>
        <defs>
                <circle id="rim" cx="0" cy="0" r="7"/>
                <circle id="rim2" cx="0" cy="0" r="3.5"/>
                <g id="zoomPlus">
                        <use xlink:href="#rim" fill="#404040">
                                <set attributeName="fill" to="#808080" begin="zoomplus.mouseover" end="zoomplus.mouseout"/>
                        </use>
                        <path d="M-4,0h8M0,-4v8" fill="none" stroke="white" stroke-width="1.5" pointer-events="none"/>
                </g>
                <g id="zoomMin">
                        <use xlink:href="#rim" fill="#404040">
                                <set attributeName="fill" to="#808080" begin="zoomminus.mouseover" end="zoomminus.mouseout"/>
                        </use>
                        <path d="M-4,0h8" fill="none" stroke="white" stroke-width="1.5" pointer-events="none"/>
                </g>
                <g id="dirArrow">
                        <path fill="none" stroke="white" stroke-width="1.5" d="M0,-3.0v7 M-2.5,-0.5L0,-3.0L2.5,-0.5"/>
                </g>
               <g id="resetDef">
                       <use xlink:href="#rim2" fill="#404040">
                               <set attributeName="fill" to="#808080" begin="reset.mouseover" end="reset.mouseout"/>
                       </use>
               </g>
        </defs>

<script type="text/javascript">
var viewWidth = 881;
var viewHeight = 321;
var sectionId = 'dynsection-0';
</script>
<script xlink:href="../../svgpan.js"/>
<svg id="graph" class="graph">
<g id="viewport">
<title>Ark::State</title>
<polygon fill="white" stroke="transparent" points="-4,4 -4,-316.5 877,-316.5 877,4 -4,4"/>
<!-- Node1 -->
<g id="node1" class="node">
<title>Node1</title>
<g id="a_node1"><a xlink:title="Ark state to handle the dirty job of loading and compiling ArkScript code.">
<polygon fill="#bfbfbf" stroke="black" points="808,-186 808,-205 873,-205 873,-186 808,-186"/>
<text text-anchor="middle" x="840.5" y="-193" font-family="Helvetica,sans-Serif" font-size="10.00">Ark::State</text>
</a>
</g>
</g>
<!-- Node2 -->
<g id="node2" class="node">
<title>Node2</title>
<g id="a_node2"><a xlink:title=" ">
<polygon fill="white" stroke="#bfbfbf" points="561,-265 561,-284 706,-284 706,-265 561,-265"/>
<text text-anchor="middle" x="633.5" y="-272" font-family="Helvetica,sans-Serif" font-size="10.00">std::vector&lt; bytecode_t &gt;</text>
</a>
</g>
</g>
<!-- Node2&#45;&gt;Node1 -->
<g id="edge1" class="edge">
<title>Node2&#45;&gt;Node1</title>
<path fill="none" stroke="#9a32cd" stroke-dasharray="5,2" d="M678.63,-262.02C710.19,-252.55 753.38,-238.46 790,-222.5 801.49,-217.49 813.86,-210.74 823.36,-205.25"/>
<polygon fill="#9a32cd" stroke="#9a32cd" points="677.41,-258.73 668.82,-264.93 679.4,-265.44 677.41,-258.73"/>
<text text-anchor="middle" x="757" y="-249.5" font-family="Helvetica,sans-Serif" font-size="10.00"> m_pages</text>
</g>
<!-- Node3 -->
<g id="node3" class="node">
<title>Node3</title>
<g id="a_node3"><a xlink:title=" ">
<polygon fill="white" stroke="#bfbfbf" points="314,-265 314,-284 439,-284 439,-265 314,-265"/>
<text text-anchor="middle" x="376.5" y="-272" font-family="Helvetica,sans-Serif" font-size="10.00">std::vector&lt; uint8_t &gt;</text>
</a>
</g>
</g>
<!-- Node3&#45;&gt;Node1 -->
<g id="edge16" class="edge">
<title>Node3&#45;&gt;Node1</title>
<path fill="none" stroke="#9a32cd" stroke-dasharray="5,2" d="M433.79,-285.85C499.62,-297.26 611.61,-310.87 706,-293.5 745.29,-286.27 758.09,-285.54 790,-261.5 810.59,-245.99 826.7,-219.66 834.45,-205.4"/>
<polygon fill="#9a32cd" stroke="#9a32cd" points="434.09,-282.35 423.63,-284.04 432.86,-289.24 434.09,-282.35"/>
<text text-anchor="middle" x="633.5" y="-304.5" font-family="Helvetica,sans-Serif" font-size="10.00"> m_bytecode</text>
</g>
<!-- Node3&#45;&gt;Node2 -->
<g id="edge2" class="edge">
<title>Node3&#45;&gt;Node2</title>
<path fill="none" stroke="#9a32cd" stroke-dasharray="5,2" d="M449.35,-274.5C484.26,-274.5 526.09,-274.5 560.95,-274.5"/>
<polygon fill="#9a32cd" stroke="#9a32cd" points="449.23,-271 439.23,-274.5 449.23,-278 449.23,-271"/>
<text text-anchor="middle" x="500" y="-277.5" font-family="Helvetica,sans-Serif" font-size="10.00"> elements</text>
</g>
<!-- Node4 -->
<g id="node4" class="node">
<title>Node4</title>
<g id="a_node4"><a xlink:title=" ">
<polygon fill="white" stroke="#bfbfbf" points="117.5,-226 117.5,-245 214.5,-245 214.5,-226 117.5,-226"/>
<text text-anchor="middle" x="166" y="-233" font-family="Helvetica,sans-Serif" font-size="10.00">std::vector&lt; T &gt;</text>
</a>
</g>
</g>
<!-- Node4&#45;&gt;Node2 -->
<g id="edge5" class="edge">
<title>Node4&#45;&gt;Node2</title>
<path fill="none" stroke="orange" stroke-dasharray="5,2" d="M189.98,-250.61C203.04,-258.65 219.94,-268.15 236,-274.5 269.18,-287.62 278.57,-289.25 314,-293.5 415.07,-305.63 441.74,-299.89 543,-289.5 555.85,-288.18 569.65,-286.17 582.48,-284.04"/>
<polygon fill="orange" stroke="orange" points="191.55,-247.46 181.22,-245.09 187.81,-253.38 191.55,-247.46"/>
<text text-anchor="middle" x="376.5" y="-302.5" font-family="Helvetica,sans-Serif" font-size="10.00"> &lt; bytecode_t &gt;</text>
</g>
<!-- Node4&#45;&gt;Node3 -->
<g id="edge3" class="edge">
<title>Node4&#45;&gt;Node3</title>
<path fill="none" stroke="orange" stroke-dasharray="5,2" d="M223.35,-247.04C227.63,-247.89 231.88,-248.71 236,-249.5 263.91,-254.83 295.04,-260.44 320.79,-264.99"/>
<polygon fill="orange" stroke="orange" points="223.86,-243.58 213.37,-245.06 222.49,-250.44 223.86,-243.58"/>
<text text-anchor="middle" x="266" y="-262.5" font-family="Helvetica,sans-Serif" font-size="10.00"> &lt; uint8_t &gt;</text>
</g>
<!-- Node12 -->
<g id="node12" class="node">
<title>Node12</title>
<g id="a_node12"><a xlink:title=" ">
<polygon fill="white" stroke="#bfbfbf" points="563.5,-209 563.5,-228 703.5,-228 703.5,-209 563.5,-209"/>
<text text-anchor="middle" x="633.5" y="-216" font-family="Helvetica,sans-Serif" font-size="10.00">std::vector&lt; Ark::Value &gt;</text>
</a>
</g>
</g>
<!-- Node4&#45;&gt;Node12 -->
<g id="edge15" class="edge">
<title>Node4&#45;&gt;Node12</title>
<path fill="none" stroke="orange" stroke-dasharray="5,2" d="M224.7,-233.39C310.42,-230.26 471.14,-224.39 563.14,-221.03"/>
<polygon fill="orange" stroke="orange" points="224.49,-229.9 214.63,-233.76 224.75,-236.89 224.49,-229.9"/>
<text text-anchor="middle" x="376.5" y="-232.5" font-family="Helvetica,sans-Serif" font-size="10.00"> &lt; Ark::Value &gt;</text>
</g>
<!-- Node13 -->
<g id="node13" class="node">
<title>Node13</title>
<g id="a_node13"><a xlink:title=" ">
<polygon fill="white" stroke="#bfbfbf" points="563.5,-164 563.5,-183 703.5,-183 703.5,-164 563.5,-164"/>
<text text-anchor="middle" x="633.5" y="-171" font-family="Helvetica,sans-Serif" font-size="10.00">std::vector&lt; std::string &gt;</text>
</a>
</g>
</g>
<!-- Node4&#45;&gt;Node13 -->
<g id="edge20" class="edge">
<title>Node4&#45;&gt;Node13</title>
<path fill="none" stroke="orange" stroke-dasharray="5,2" d="M224.65,-225.01C251.72,-220.26 284.47,-214.76 314,-210.5 399.67,-198.13 498.78,-187.14 563.39,-180.41"/>
<polygon fill="orange" stroke="orange" points="223.81,-221.6 214.57,-226.79 225.03,-228.5 223.81,-221.6"/>
<text text-anchor="middle" x="376.5" y="-213.5" font-family="Helvetica,sans-Serif" font-size="10.00"> &lt; std::string &gt;</text>
</g>
<!-- Node5 -->
<g id="node5" class="node">
<title>Node5</title>
<g id="a_node5"><a xlink:title=" ">
<polygon fill="white" stroke="#bfbfbf" points="0,-21 0,-40 29,-40 29,-21 0,-21"/>
<text text-anchor="middle" x="14.5" y="-28" font-family="Helvetica,sans-Serif" font-size="10.00">T</text>
</a>
</g>
</g>
<!-- Node5&#45;&gt;Node4 -->
<g id="edge4" class="edge">
<title>Node5&#45;&gt;Node4</title>
<path fill="none" stroke="#9a32cd" stroke-dasharray="5,2" d="M28.45,-48.26C58.9,-90.01 134.26,-193.34 157.83,-225.67"/>
<polygon fill="#9a32cd" stroke="#9a32cd" points="31.23,-46.13 22.51,-40.11 25.57,-50.25 31.23,-46.13"/>
<text text-anchor="middle" x="71.5" y="-141.5" font-family="Helvetica,sans-Serif" font-size="10.00"> elements</text>
</g>
<!-- Node10 -->
<g id="node10" class="node">
<title>Node10</title>
<g id="a_node10"><a xlink:title=" ">
<polygon fill="white" stroke="#bfbfbf" points="319.5,-0.5 319.5,-30.5 433.5,-30.5 433.5,-0.5 319.5,-0.5"/>
<text text-anchor="start" x="327.5" y="-18.5" font-family="Helvetica,sans-Serif" font-size="10.00">std::unordered_map</text>
<text text-anchor="middle" x="376.5" y="-7.5" font-family="Helvetica,sans-Serif" font-size="10.00">&lt; K, T &gt;</text>
</a>
</g>
</g>
<!-- Node5&#45;&gt;Node10 -->
<g id="edge12" class="edge">
<title>Node5&#45;&gt;Node10</title>
<path fill="none" stroke="#9a32cd" stroke-dasharray="5,2" d="M39.23,-28.54C59.17,-26.96 88.43,-24.8 114,-23.5 184.76,-19.9 266.39,-17.72 319.36,-16.56"/>
<polygon fill="#9a32cd" stroke="#9a32cd" points="38.88,-25.06 29.19,-29.35 39.44,-32.04 38.88,-25.06"/>
<text text-anchor="middle" x="166" y="-26.5" font-family="Helvetica,sans-Serif" font-size="10.00"> elements</text>
</g>
<!-- Node6 -->
<g id="node6" class="node">
<title>Node6</title>
<g id="a_node6"><a xlink:title=" ">
<polygon fill="white" stroke="#bfbfbf" points="576.5,-42 576.5,-83 690.5,-83 690.5,-42 576.5,-42"/>
<text text-anchor="start" x="584.5" y="-71" font-family="Helvetica,sans-Serif" font-size="10.00">std::unordered_map</text>
<text text-anchor="start" x="584.5" y="-60" font-family="Helvetica,sans-Serif" font-size="10.00">&lt; std::string, Ark::</text>
<text text-anchor="middle" x="633.5" y="-49" font-family="Helvetica,sans-Serif" font-size="10.00">Value &gt;</text>
</a>
</g>
</g>
<!-- Node6&#45;&gt;Node1 -->
<g id="edge6" class="edge">
<title>Node6&#45;&gt;Node1</title>
<path fill="none" stroke="#9a32cd" stroke-dasharray="5,2" d="M700.54,-63.71C730.47,-67.27 764.73,-75.89 790,-95.5 820.14,-118.9 833.21,-165.5 837.63,-185.74"/>
<polygon fill="#9a32cd" stroke="#9a32cd" points="700.88,-60.23 690.58,-62.69 700.17,-67.19 700.88,-60.23"/>
<text text-anchor="middle" x="757" y="-98.5" font-family="Helvetica,sans-Serif" font-size="10.00"> m_binded</text>
</g>
<!-- Node7 -->
<g id="node7" class="node">
<title>Node7</title>
<g id="a_node7"><a xlink:href="../../d3/d90/classArk_1_1Value.html" target="_top" xlink:title=" ">
<polygon fill="white" stroke="black" points="343.5,-124 343.5,-143 409.5,-143 409.5,-124 343.5,-124"/>
<text text-anchor="middle" x="376.5" y="-131" font-family="Helvetica,sans-Serif" font-size="10.00">Ark::Value</text>
</a>
</g>
</g>
<!-- Node7&#45;&gt;Node6 -->
<g id="edge7" class="edge">
<title>Node7&#45;&gt;Node6</title>
<path fill="none" stroke="#9a32cd" stroke-dasharray="5,2" d="M419.34,-121.85C462.08,-109.95 528.74,-91.39 576.12,-78.2"/>
<polygon fill="#9a32cd" stroke="#9a32cd" points="418.23,-118.53 409.54,-124.58 420.11,-125.27 418.23,-118.53"/>
<text text-anchor="middle" x="500" y="-113.5" font-family="Helvetica,sans-Serif" font-size="10.00"> elements</text>
</g>
<!-- Node7&#45;&gt;Node12 -->
<g id="edge14" class="edge">
<title>Node7&#45;&gt;Node12</title>
<path fill="none" stroke="#9a32cd" stroke-dasharray="5,2" d="M414.32,-146.65C422.56,-149.93 431.18,-153.62 439,-157.5 447.4,-161.66 448.41,-164.74 457,-168.5 499.22,-187 550.14,-200.63 586.23,-208.94"/>
<polygon fill="#9a32cd" stroke="#9a32cd" points="415.48,-143.34 404.89,-143 412.96,-149.87 415.48,-143.34"/>
<text text-anchor="middle" x="500" y="-200.5" font-family="Helvetica,sans-Serif" font-size="10.00"> elements</text>
</g>
<!-- Node8 -->
<g id="node8" class="node">
<title>Node8</title>
<g id="a_node8"><a xlink:title=" ">
<polygon fill="white" stroke="#bfbfbf" points="344,-86 344,-105 409,-105 409,-86 344,-86"/>
<text text-anchor="middle" x="376.5" y="-93" font-family="Helvetica,sans-Serif" font-size="10.00">std::string</text>
</a>
</g>
</g>
<!-- Node8&#45;&gt;Node1 -->
<g id="edge17" class="edge">
<title>Node8&#45;&gt;Node1</title>
<path fill="none" stroke="#9a32cd" stroke-dasharray="5,2" d="M419.07,-101.36C501.1,-112.97 678.32,-138.19 706,-143.5 743.69,-150.73 754.71,-148.42 790,-163.5 803.55,-169.29 817.52,-178.69 827.15,-185.81"/>
<polygon fill="#9a32cd" stroke="#9a32cd" points="419.47,-97.89 409.08,-99.95 418.49,-104.82 419.47,-97.89"/>
<text text-anchor="middle" x="633.5" y="-146.5" font-family="Helvetica,sans-Serif" font-size="10.00"> m_filename</text>
</g>
<!-- Node8&#45;&gt;Node6 -->
<g id="edge8" class="edge">
<title>Node8&#45;&gt;Node6</title>
<path fill="none" stroke="#9a32cd" stroke-dasharray="5,2" d="M403.44,-81.24C418.57,-73.74 438.3,-65.33 457,-61.5 496.25,-53.46 541.49,-53.94 576.2,-56.31"/>
<polygon fill="#9a32cd" stroke="#9a32cd" points="401.51,-78.3 394.22,-85.98 404.71,-84.52 401.51,-78.3"/>
<text text-anchor="middle" x="500" y="-64.5" font-family="Helvetica,sans-Serif" font-size="10.00"> keys</text>
</g>
<!-- Node8&#45;&gt;Node13 -->
<g id="edge19" class="edge">
<title>Node8&#45;&gt;Node13</title>
<path fill="none" stroke="#9a32cd" stroke-dasharray="5,2" d="M419.24,-105.55C426.07,-107.98 432.9,-110.94 439,-114.5 448.5,-120.05 447.32,-126.26 457,-131.5 468.47,-137.7 539.26,-153.6 587.35,-163.96"/>
<polygon fill="#9a32cd" stroke="#9a32cd" points="419.91,-102.08 409.31,-102.34 417.75,-108.74 419.91,-102.08"/>
<text text-anchor="middle" x="500" y="-156.5" font-family="Helvetica,sans-Serif" font-size="10.00"> elements</text>
</g>
<!-- Node9 -->
<g id="node9" class="node">
<title>Node9</title>
<g id="a_node9"><a xlink:title=" ">
<polygon fill="white" stroke="#bfbfbf" points="114,-82.5 114,-112.5 218,-112.5 218,-82.5 114,-82.5"/>
<text text-anchor="start" x="122" y="-100.5" font-family="Helvetica,sans-Serif" font-size="10.00">std::basic_string&lt;</text>
<text text-anchor="middle" x="166" y="-89.5" font-family="Helvetica,sans-Serif" font-size="10.00"> Char &gt;</text>
</a>
</g>
</g>
<!-- Node9&#45;&gt;Node8 -->
<g id="edge9" class="edge">
<title>Node9&#45;&gt;Node8</title>
<path fill="none" stroke="midnightblue" d="M228.42,-96.91C266.29,-96.55 313.28,-96.1 343.81,-95.8"/>
<polygon fill="midnightblue" stroke="midnightblue" points="227.97,-93.41 218,-97.01 228.04,-100.41 227.97,-93.41"/>
</g>
<!-- Node10&#45;&gt;Node6 -->
<g id="edge10" class="edge">
<title>Node10&#45;&gt;Node6</title>
<path fill="none" stroke="orange" stroke-dasharray="5,2" d="M443.74,-16.4C474.26,-17.91 510.79,-21.27 543,-28.5 557.27,-31.7 572.31,-36.72 585.9,-41.93"/>
<polygon fill="orange" stroke="orange" points="443.78,-12.9 433.63,-15.96 443.47,-19.89 443.78,-12.9"/>
<text text-anchor="start" x="457" y="-42.5" font-family="Helvetica,sans-Serif" font-size="10.00"> &lt; std::string, Ark</text>
<text text-anchor="middle" x="500" y="-31.5" font-family="Helvetica,sans-Serif" font-size="10.00">::Value &gt;</text>
</g>
<!-- Node11 -->
<g id="node11" class="node">
<title>Node11</title>
<g id="a_node11"><a xlink:title=" ">
<polygon fill="white" stroke="#bfbfbf" points="151.5,-44 151.5,-63 180.5,-63 180.5,-44 151.5,-44"/>
<text text-anchor="middle" x="166" y="-51" font-family="Helvetica,sans-Serif" font-size="10.00">K</text>
</a>
</g>
</g>
<!-- Node11&#45;&gt;Node10 -->
<g id="edge11" class="edge">
<title>Node11&#45;&gt;Node10</title>
<path fill="none" stroke="#9a32cd" stroke-dasharray="5,2" d="M190.57,-49.2C221.59,-43.55 277.13,-33.43 319.27,-25.75"/>
<polygon fill="#9a32cd" stroke="#9a32cd" points="189.89,-45.77 180.68,-51.01 191.15,-52.66 189.89,-45.77"/>
<text text-anchor="middle" x="266" y="-42.5" font-family="Helvetica,sans-Serif" font-size="10.00"> keys</text>
</g>
<!-- Node12&#45;&gt;Node1 -->
<g id="edge13" class="edge">
<title>Node12&#45;&gt;Node1</title>
<path fill="none" stroke="#9a32cd" stroke-dasharray="5,2" d="M713.7,-209.61C746.57,-205.93 782.83,-201.86 807.94,-199.04"/>
<polygon fill="#9a32cd" stroke="#9a32cd" points="713.17,-206.15 703.62,-210.75 713.95,-213.11 713.17,-206.15"/>
<text text-anchor="middle" x="757" y="-210.5" font-family="Helvetica,sans-Serif" font-size="10.00"> m_constants</text>
</g>
<!-- Node13&#45;&gt;Node1 -->
<g id="edge18" class="edge">
<title>Node13&#45;&gt;Node1</title>
<path fill="none" stroke="#9a32cd" stroke-dasharray="5,2" d="M713.66,-168.02C738.33,-167.91 765.49,-169.43 790,-174.5 800.97,-176.77 812.53,-181.52 821.72,-185.94"/>
<polygon fill="#9a32cd" stroke="#9a32cd" points="713.57,-164.52 703.62,-168.15 713.67,-171.52 713.57,-164.52"/>
<text text-anchor="middle" x="757" y="-188.5" font-family="Helvetica,sans-Serif" font-size="10.00"> m_libenv</text>
<text text-anchor="middle" x="757" y="-177.5" font-family="Helvetica,sans-Serif" font-size="10.00">m_symbols</text>
</g>
</g>
</svg>
        <g id="navigator" transform="translate(0 0)" fill="#404254">
                <rect fill="#f2f5e9" fill-opacity="0.5" stroke="#606060" stroke-width=".5" x="0" y="0" width="60" height="60"/>
                <use id="zoomplus" xlink:href="#zoomPlus" x="17" y="9" onmousedown="handleZoom(evt,'in')"/>
                <use id="zoomminus" xlink:href="#zoomMin" x="42" y="9" onmousedown="handleZoom(evt,'out')"/>
                <use id="reset" xlink:href="#resetDef" x="30" y="36" onmousedown="handleReset()"/>
                <g id="arrowUp" xlink:href="#dirArrow" transform="translate(30 24)" onmousedown="handlePan(0,-1)">
                  <use xlink:href="#rim" fill="#404040">
                        <set attributeName="fill" to="#808080" begin="arrowUp.mouseover" end="arrowUp.mouseout"/>
                  </use>
                  <path fill="none" stroke="white" stroke-width="1.5" d="M0,-3.0v7 M-2.5,-0.5L0,-3.0L2.5,-0.5"/>
                </g>
                <g id="arrowRight" xlink:href="#dirArrow" transform="rotate(90) translate(36 -43)" onmousedown="handlePan(1,0)">
                  <use xlink:href="#rim" fill="#404040">
                        <set attributeName="fill" to="#808080" begin="arrowRight.mouseover" end="arrowRight.mouseout"/>
                  </use>
                  <path fill="none" stroke="white" stroke-width="1.5" d="M0,-3.0v7 M-2.5,-0.5L0,-3.0L2.5,-0.5"/>
                </g>
                <g id="arrowDown" xlink:href="#dirArrow" transform="rotate(180) translate(-30 -48)" onmousedown="handlePan(0,1)">
                  <use xlink:href="#rim" fill="#404040">
                        <set attributeName="fill" to="#808080" begin="arrowDown.mouseover" end="arrowDown.mouseout"/>
                  </use>
                  <path fill="none" stroke="white" stroke-width="1.5" d="M0,-3.0v7 M-2.5,-0.5L0,-3.0L2.5,-0.5"/>
                </g>
                <g id="arrowLeft" xlink:href="#dirArrow" transform="rotate(270) translate(-36 17)" onmousedown="handlePan(-1,0)">
                  <use xlink:href="#rim" fill="#404040">
                        <set attributeName="fill" to="#808080" begin="arrowLeft.mouseover" end="arrowLeft.mouseout"/>
                  </use>
                  <path fill="none" stroke="white" stroke-width="1.5" d="M0,-3.0v7 M-2.5,-0.5L0,-3.0L2.5,-0.5"/>
                </g>
        </g>
        <svg viewBox="0 0 15 15" width="100%" height="30px" preserveAspectRatio="xMaxYMin meet">
         <g id="arrow_out" transform="scale(0.3 0.3)">
          <a xlink:href="classArk_1_1State__coll__graph_org.svg" target="_base">
           <rect id="button" ry="5" rx="5" y="6" x="6" height="38" width="38"
                fill="#f2f5e9" fill-opacity="0.5" stroke="#606060" stroke-width="1.0"/>
           <path id="arrow"
             d="M 11.500037,31.436501 C 11.940474,20.09759 22.043105,11.32322 32.158766,21.979434 L 37.068811,17.246167 C 37.068811,17.246167 37.088388,32 37.088388,32 L 22.160133,31.978069 C 22.160133,31.978069 26.997745,27.140456 26.997745,27.140456 C 18.528582,18.264221 13.291696,25.230495 11.500037,31.436501 z"
             style="fill:#404040;"/>
          </a>
         </g>
        </svg>
</svg>
