<?xml version="1.0" encoding="UTF-8" standalone="no"?>
<!DOCTYPE svg PUBLIC "-//W3C//DTD SVG 1.1//EN"
 "http://www.w3.org/Graphics/SVG/1.1/DTD/svg11.dtd">
<!-- Generated by graphviz version 7.1.0 (20230121.1956)
 -->
<!-- Title: Ark::internal::Lexer Pages: 1 -->
<svg width="255pt" height="303pt"
 viewBox="0.00 0.00 254.50 303.00" xmlns="http://www.w3.org/2000/svg" xmlns:xlink="http://www.w3.org/1999/xlink">
<g id="graph0" class="graph" transform="scale(1 1) rotate(0) translate(4 299)">
<title>Ark::internal::Lexer</title>
<!-- Node1 -->
<g id="node1" class="node">
<title>Node1</title>
<g id="a_node1"><a xlink:title="The lexer, in charge of creating a list of tokens.">
<polygon fill="#999999" stroke="#666666" points="156,-19 57,-19 57,0 156,0 156,-19"/>
<text text-anchor="middle" x="106.5" y="-7" font-family="Helvetica,sans-Serif" font-size="10.00">Ark::internal::Lexer</text>
</a>
</g>
</g>
<!-- Node2 -->
<g id="node2" class="node">
<title>Node2</title>
<g id="a_node2"><a xlink:title=" ">
<polygon fill="white" stroke="#666666" points="168.5,-96 44.5,-96 44.5,-66 168.5,-66 168.5,-96"/>
<text text-anchor="start" x="52.5" y="-84" font-family="Helvetica,sans-Serif" font-size="10.00">std::vector&lt; Ark::internal</text>
<text text-anchor="middle" x="106.5" y="-73" font-family="Helvetica,sans-Serif" font-size="10.00">::Token &gt;</text>
</a>
</g>
</g>
<!-- Node2&#45;&gt;Node1 -->
<g id="edge1" class="edge">
<title>Node2&#45;&gt;Node1</title>
<path fill="none" stroke="#9a32cd" stroke-dasharray="5,2" d="M106.5,-54.46C106.5,-42.07 106.5,-27.99 106.5,-19.18"/>
<polygon fill="#9a32cd" stroke="#9a32cd" points="103,-54.09 106.5,-64.09 110,-54.09 103,-54.09"/>
<text text-anchor="middle" x="129.5" y="-40" font-family="Helvetica,sans-Serif" font-size="10.00"> m_tokens</text>
</g>
<!-- Node3 -->
<g id="node3" class="node">
<title>Node3</title>
<g id="a_node3"><a xlink:href="../../d0/d98/structArk_1_1internal_1_1Token.html" target="_top" xlink:title=" ">
<polygon fill="white" stroke="#666666" points="101,-162 0,-162 0,-143 101,-143 101,-162"/>
<text text-anchor="middle" x="50.5" y="-150" font-family="Helvetica,sans-Serif" font-size="10.00">Ark::internal::Token</text>
</a>
</g>
</g>
<!-- Node3&#45;&gt;Node2 -->
<g id="edge2" class="edge">
<title>Node3&#45;&gt;Node2</title>
<path fill="none" stroke="#9a32cd" stroke-dasharray="5,2" d="M64.69,-133.89C74.07,-122.24 86.22,-107.17 95,-96.27"/>
<polygon fill="#9a32cd" stroke="#9a32cd" points="62.09,-131.54 58.54,-141.52 67.54,-135.93 62.09,-131.54"/>
<text text-anchor="middle" x="102" y="-117" font-family="Helvetica,sans-Serif" font-size="10.00"> elements</text>
</g>
<!-- Node4 -->
<g id="node4" class="node">
<title>Node4</title>
<g id="a_node4"><a xlink:title=" ">
<polygon fill="white" stroke="#666666" points="80.5,-228 20.5,-228 20.5,-209 80.5,-209 80.5,-228"/>
<text text-anchor="middle" x="50.5" y="-216" font-family="Helvetica,sans-Serif" font-size="10.00">std::string</text>
</a>
</g>
</g>
<!-- Node4&#45;&gt;Node3 -->
<g id="edge3" class="edge">
<title>Node4&#45;&gt;Node3</title>
<path fill="none" stroke="#9a32cd" stroke-dasharray="5,2" d="M50.5,-197.18C50.5,-185.44 50.5,-171.27 50.5,-162.32"/>
<polygon fill="#9a32cd" stroke="#9a32cd" points="47,-197.09 50.5,-207.09 54,-197.09 47,-197.09"/>
<text text-anchor="middle" x="64.5" y="-183" font-family="Helvetica,sans-Serif" font-size="10.00"> token</text>
</g>
<!-- Node5 -->
<g id="node5" class="node">
<title>Node5</title>
<g id="a_node5"><a xlink:title=" ">
<polygon fill="white" stroke="#666666" points="98,-295 3,-295 3,-265 98,-265 98,-295"/>
<text text-anchor="start" x="11" y="-283" font-family="Helvetica,sans-Serif" font-size="10.00">std::basic_string&lt;</text>
<text text-anchor="middle" x="50.5" y="-272" font-family="Helvetica,sans-Serif" font-size="10.00"> Char &gt;</text>
</a>
</g>
</g>
<!-- Node5&#45;&gt;Node4 -->
<g id="edge4" class="edge">
<title>Node5&#45;&gt;Node4</title>
<path fill="none" stroke="#63b8ff" d="M50.5,-253.13C50.5,-244.29 50.5,-234.99 50.5,-228.42"/>
<polygon fill="#63b8ff" stroke="#63b8ff" points="47,-253.08 50.5,-263.08 54,-253.08 47,-253.08"/>
</g>
<!-- Node6 -->
<g id="node6" class="node">
<title>Node6</title>
<g id="a_node6"><a xlink:title=" ">
<polygon fill="white" stroke="#666666" points="206,-162 119,-162 119,-143 206,-143 206,-162"/>
<text text-anchor="middle" x="162.5" y="-150" font-family="Helvetica,sans-Serif" font-size="10.00">std::vector&lt; T &gt;</text>
</a>
</g>
</g>
<!-- Node6&#45;&gt;Node2 -->
<g id="edge5" class="edge">
<title>Node6&#45;&gt;Node2</title>
<path fill="none" stroke="orange" stroke-dasharray="5,2" d="M148.31,-133.89C138.93,-122.24 126.78,-107.17 118,-96.27"/>
<polygon fill="orange" stroke="orange" points="145.46,-135.93 154.46,-141.52 150.91,-131.54 145.46,-135.93"/>
<text text-anchor="middle" x="193.5" y="-117" font-family="Helvetica,sans-Serif" font-size="10.00"> &lt; Ark::internal::Token &gt;</text>
</g>
<!-- Node7 -->
<g id="node7" class="node">
<title>Node7</title>
<g id="a_node7"><a xlink:title=" ">
<polygon fill="white" stroke="#666666" points="177,-228 148,-228 148,-209 177,-209 177,-228"/>
<text text-anchor="middle" x="162.5" y="-216" font-family="Helvetica,sans-Serif" font-size="10.00">T</text>
</a>
</g>
</g>
<!-- Node7&#45;&gt;Node6 -->
<g id="edge6" class="edge">
<title>Node7&#45;&gt;Node6</title>
<path fill="none" stroke="#9a32cd" stroke-dasharray="5,2" d="M162.5,-197.18C162.5,-185.44 162.5,-171.27 162.5,-162.32"/>
<polygon fill="#9a32cd" stroke="#9a32cd" points="159,-197.09 162.5,-207.09 166,-197.09 159,-197.09"/>
<text text-anchor="middle" x="184" y="-183" font-family="Helvetica,sans-Serif" font-size="10.00"> elements</text>
</g>
</g>
</svg>
