<?xml version="1.0" encoding="UTF-8" standalone="no"?>
<!DOCTYPE svg PUBLIC "-//W3C//DTD SVG 1.1//EN"
 "http://www.w3.org/Graphics/SVG/1.1/DTD/svg11.dtd">
<!-- Generated by graphviz version 10.0.1 (20240210.2158)
 -->
<!-- Title: Ark::CodeError Pages: 1 -->
<svg width="101pt" height="193pt"
 viewBox="0.00 0.00 100.50 193.00" xmlns="http://www.w3.org/2000/svg" xmlns:xlink="http://www.w3.org/1999/xlink">
<g id="graph0" class="graph" transform="scale(1 1) rotate(0) translate(4 189)">
<title>Ark::CodeError</title>
<!-- Node1 -->
<g id="node1" class="node">
<title>Node1</title>
<g id="a_node1"><a xlink:title="CodeError thrown by the compiler (parser, macro processor, optimizer, and compiler itself)">
<polygon fill="#999999" stroke="#666666" points="86.88,-19.25 5.62,-19.25 5.62,0 86.88,0 86.88,-19.25"/>
<text text-anchor="middle" x="46.25" y="-5.75" font-family="Helvetica,sans-Serif" font-size="10.00">Ark::CodeError</text>
</a>
</g>
</g>
<!-- Node2 -->
<g id="node2" class="node">
<title>Node2</title>
<g id="a_node2"><a xlink:href="../../d6/d43/classArk_1_1Error.html" target="_top" xlink:title=" ">
<polygon fill="white" stroke="#666666" points="75.25,-74.5 17.25,-74.5 17.25,-55.25 75.25,-55.25 75.25,-74.5"/>
<text text-anchor="middle" x="46.25" y="-61" font-family="Helvetica,sans-Serif" font-size="10.00">Ark::Error</text>
</a>
</g>
</g>
<!-- Node2&#45;&gt;Node1 -->
<g id="edge1" class="edge">
<title>Node2&#45;&gt;Node1</title>
<path fill="none" stroke="#63b8ff" d="M46.25,-43.63C46.25,-35.34 46.25,-26.17 46.25,-19.61"/>
<polygon fill="#63b8ff" stroke="#63b8ff" points="42.75,-43.57 46.25,-53.57 49.75,-43.57 42.75,-43.57"/>
</g>
<!-- Node3 -->
<g id="node3" class="node">
<title>Node3</title>
<g id="a_node3"><a xlink:title=" ">
<polygon fill="white" stroke="#666666" points="92.5,-129.75 0,-129.75 0,-110.5 92.5,-110.5 92.5,-129.75"/>
<text text-anchor="middle" x="46.25" y="-116.25" font-family="Helvetica,sans-Serif" font-size="10.00">std::runtime_error</text>
</a>
</g>
</g>
<!-- Node3&#45;&gt;Node2 -->
<g id="edge2" class="edge">
<title>Node3&#45;&gt;Node2</title>
<path fill="none" stroke="#63b8ff" d="M46.25,-98.88C46.25,-90.59 46.25,-81.42 46.25,-74.86"/>
<polygon fill="#63b8ff" stroke="#63b8ff" points="42.75,-98.82 46.25,-108.82 49.75,-98.82 42.75,-98.82"/>
</g>
<!-- Node4 -->
<g id="node4" class="node">
<title>Node4</title>
<g id="a_node4"><a xlink:title=" ">
<polygon fill="white" stroke="#666666" points="85,-185 7.5,-185 7.5,-165.75 85,-165.75 85,-185"/>
<text text-anchor="middle" x="46.25" y="-171.5" font-family="Helvetica,sans-Serif" font-size="10.00">std::exception</text>
</a>
</g>
</g>
<!-- Node4&#45;&gt;Node3 -->
<g id="edge3" class="edge">
<title>Node4&#45;&gt;Node3</title>
<path fill="none" stroke="#63b8ff" d="M46.25,-154.13C46.25,-145.84 46.25,-136.67 46.25,-130.11"/>
<polygon fill="#63b8ff" stroke="#63b8ff" points="42.75,-154.07 46.25,-164.07 49.75,-154.07 42.75,-154.07"/>
</g>
</g>
</svg>
