<?xml version="1.0" encoding="UTF-8" standalone="no"?>
<!DOCTYPE svg PUBLIC "-//W3C//DTD SVG 1.1//EN"
 "http://www.w3.org/Graphics/SVG/1.1/DTD/svg11.dtd">
<!-- Generated by graphviz version 2.49.0 (20210828.1703)
 -->
<!-- Title: C:/Users/folae/Documents/Code/Big&#45;Projects/ArkScript/Ark/include/Ark/VM/Value/Closure.hpp Pages: 1 -->
<svg width="1853pt" height="707pt"
 viewBox="0.00 0.00 1853.16 707.00" xmlns="http://www.w3.org/2000/svg" xmlns:xlink="http://www.w3.org/1999/xlink">
<g id="graph0" class="graph" transform="scale(1 1) rotate(0) translate(4 703)">
<title>C:/Users/folae/Documents/Code/Big&#45;Projects/ArkScript/Ark/include/Ark/VM/Value/Closure.hpp</title>
<polygon fill="white" stroke="transparent" points="-4,4 -4,-703 1849.16,-703 1849.16,4 -4,4"/>
<!-- Node1 -->
<g id="node1" class="node">
<title>Node1</title>
<g id="a_node1"><a xlink:title="Subtype of the value type, handling closures.">
<polygon fill="#bfbfbf" stroke="black" points="1388.16,-657.5 1388.16,-698.5 1575.16,-698.5 1575.16,-657.5 1388.16,-657.5"/>
<text text-anchor="start" x="1396.16" y="-686.5" font-family="Helvetica,sans-Serif" font-size="10.00">C:/Users/folae/Documents</text>
<text text-anchor="start" x="1396.16" y="-675.5" font-family="Helvetica,sans-Serif" font-size="10.00">/Code/Big&#45;Projects/ArkScript</text>
<text text-anchor="middle" x="1481.66" y="-664.5" font-family="Helvetica,sans-Serif" font-size="10.00">/Ark/include/Ark/VM/Value/Closure.hpp</text>
</a>
</g>
</g>
<!-- Node2 -->
<g id="node2" class="node">
<title>Node2</title>
<g id="a_node2"><a xlink:href="../../de/dfd/Value_8hpp.html" target="_top" xlink:title=" ">
<polygon fill="white" stroke="black" points="1226.16,-579.5 1226.16,-620.5 1377.16,-620.5 1377.16,-579.5 1226.16,-579.5"/>
<text text-anchor="start" x="1234.16" y="-608.5" font-family="Helvetica,sans-Serif" font-size="10.00">C:/Users/folae/Documents</text>
<text text-anchor="start" x="1234.16" y="-597.5" font-family="Helvetica,sans-Serif" font-size="10.00">/Code/Big&#45;Projects/ArkScript</text>
<text text-anchor="middle" x="1301.66" y="-586.5" font-family="Helvetica,sans-Serif" font-size="10.00">/Ark/include/Ark/VM/Value.hpp</text>
</a>
</g>
</g>
<!-- Node1&#45;&gt;Node2 -->
<g id="edge1" class="edge">
<title>Node1&#45;&gt;Node2</title>
<path fill="none" stroke="midnightblue" d="M1425.93,-653.47C1400.88,-642.89 1371.67,-630.56 1347.86,-620.51"/>
<polygon fill="midnightblue" stroke="midnightblue" points="1424.73,-656.76 1435.31,-657.43 1427.46,-650.31 1424.73,-656.76"/>
</g>
<!-- Node28 -->
<g id="node28" class="node">
<title>Node28</title>
<g id="a_node28"><a xlink:href="../../d1/db2/Closure_8cpp.html" target="_top" xlink:title=" ">
<polygon fill="white" stroke="black" points="1702.16,-412.5 1702.16,-464.5 1845.16,-464.5 1845.16,-412.5 1702.16,-412.5"/>
<text text-anchor="start" x="1710.16" y="-452.5" font-family="Helvetica,sans-Serif" font-size="10.00">C:/Users/folae/Documents</text>
<text text-anchor="start" x="1710.16" y="-441.5" font-family="Helvetica,sans-Serif" font-size="10.00">/Code/Big&#45;Projects/ArkScript</text>
<text text-anchor="start" x="1710.16" y="-430.5" font-family="Helvetica,sans-Serif" font-size="10.00">/Ark/src/arkreactor/VM/Value</text>
<text text-anchor="middle" x="1773.66" y="-419.5" font-family="Helvetica,sans-Serif" font-size="10.00">/Closure.cpp</text>
</a>
</g>
</g>
<!-- Node1&#45;&gt;Node28 -->
<g id="edge46" class="edge">
<title>Node1&#45;&gt;Node28</title>
<path fill="none" stroke="midnightblue" d="M1513.96,-650.73C1570.56,-604.7 1686.94,-510.04 1742.63,-464.74"/>
<polygon fill="midnightblue" stroke="midnightblue" points="1511.61,-648.13 1506.06,-657.16 1516.02,-653.56 1511.61,-648.13"/>
</g>
<!-- Node3 -->
<g id="node3" class="node">
<title>Node3</title>
<g id="a_node3"><a xlink:href="../../da/d84/Builtins_8hpp.html" target="_top" xlink:title="Host the declaration of all the ArkScript builtins.">
<polygon fill="white" stroke="black" points="950.66,-418 950.66,-459 1126.66,-459 1126.66,-418 950.66,-418"/>
<text text-anchor="start" x="958.66" y="-447" font-family="Helvetica,sans-Serif" font-size="10.00">C:/Users/folae/Documents</text>
<text text-anchor="start" x="958.66" y="-436" font-family="Helvetica,sans-Serif" font-size="10.00">/Code/Big&#45;Projects/ArkScript</text>
<text text-anchor="middle" x="1038.66" y="-425" font-family="Helvetica,sans-Serif" font-size="10.00">/Ark/include/Ark/Builtins/Builtins.hpp</text>
</a>
</g>
</g>
<!-- Node2&#45;&gt;Node3 -->
<g id="edge2" class="edge">
<title>Node2&#45;&gt;Node3</title>
<path fill="none" stroke="midnightblue" d="M1243.2,-575.38C1222.35,-566.18 1199,-554.97 1178.66,-543 1135.16,-517.4 1088.84,-481.15 1061.89,-459.05"/>
<polygon fill="midnightblue" stroke="midnightblue" points="1242.02,-578.68 1252.59,-579.46 1244.81,-572.26 1242.02,-578.68"/>
</g>
<!-- Node4 -->
<g id="node4" class="node">
<title>Node4</title>
<g id="a_node4"><a xlink:href="../../d1/d91/VM_8hpp.html" target="_top" xlink:title="The ArkScript virtual machine.">
<polygon fill="white" stroke="black" points="1263.66,-156.5 1263.66,-197.5 1405.66,-197.5 1405.66,-156.5 1263.66,-156.5"/>
<text text-anchor="start" x="1271.66" y="-185.5" font-family="Helvetica,sans-Serif" font-size="10.00">C:/Users/folae/Documents</text>
<text text-anchor="start" x="1271.66" y="-174.5" font-family="Helvetica,sans-Serif" font-size="10.00">/Code/Big&#45;Projects/ArkScript</text>
<text text-anchor="middle" x="1334.66" y="-163.5" font-family="Helvetica,sans-Serif" font-size="10.00">/Ark/include/Ark/VM/VM.hpp</text>
</a>
</g>
</g>
<!-- Node2&#45;&gt;Node4 -->
<g id="edge44" class="edge">
<title>Node2&#45;&gt;Node4</title>
<path fill="none" stroke="midnightblue" d="M1366.15,-574.83C1381.9,-566.59 1397.66,-556.07 1409.66,-543 1443.36,-506.32 1452.66,-489.31 1452.66,-439.5 1452.66,-439.5 1452.66,-439.5 1452.66,-348.5 1452.66,-284.06 1394.97,-226.38 1360.27,-197.51"/>
<polygon fill="midnightblue" stroke="midnightblue" points="1364.3,-571.84 1356.9,-579.42 1367.41,-578.11 1364.3,-571.84"/>
</g>
<!-- Node14 -->
<g id="node14" class="node">
<title>Node14</title>
<g id="a_node14"><a xlink:href="../../d2/de9/Exceptions_8hpp.html" target="_top" xlink:title="ArkScript homemade exceptions.">
<polygon fill="white" stroke="black" points="509.16,-501.5 509.16,-542.5 666.16,-542.5 666.16,-501.5 509.16,-501.5"/>
<text text-anchor="start" x="517.16" y="-530.5" font-family="Helvetica,sans-Serif" font-size="10.00">C:/Users/folae/Documents</text>
<text text-anchor="start" x="517.16" y="-519.5" font-family="Helvetica,sans-Serif" font-size="10.00">/Code/Big&#45;Projects/ArkScript</text>
<text text-anchor="middle" x="587.66" y="-508.5" font-family="Helvetica,sans-Serif" font-size="10.00">/Ark/include/Ark/Exceptions.hpp</text>
</a>
</g>
</g>
<!-- Node2&#45;&gt;Node14 -->
<g id="edge14" class="edge">
<title>Node2&#45;&gt;Node14</title>
<path fill="none" stroke="midnightblue" d="M1215.69,-589.85C1075.9,-574.97 801.4,-545.75 666.41,-531.38"/>
<polygon fill="midnightblue" stroke="midnightblue" points="1215.61,-593.36 1225.93,-590.94 1216.35,-586.4 1215.61,-593.36"/>
</g>
<!-- Node17 -->
<g id="node17" class="node">
<title>Node17</title>
<g id="a_node17"><a xlink:href="../../d0/db5/State_8hpp.html" target="_top" xlink:title="State used by the virtual machine: it loads the bytecode, can compile it if needed,...">
<polygon fill="white" stroke="black" points="1083.16,-240 1083.16,-281 1232.16,-281 1232.16,-240 1083.16,-240"/>
<text text-anchor="start" x="1091.16" y="-269" font-family="Helvetica,sans-Serif" font-size="10.00">C:/Users/folae/Documents</text>
<text text-anchor="start" x="1091.16" y="-258" font-family="Helvetica,sans-Serif" font-size="10.00">/Code/Big&#45;Projects/ArkScript</text>
<text text-anchor="middle" x="1157.66" y="-247" font-family="Helvetica,sans-Serif" font-size="10.00">/Ark/include/Ark/VM/State.hpp</text>
</a>
</g>
</g>
<!-- Node2&#45;&gt;Node17 -->
<g id="edge43" class="edge">
<title>Node2&#45;&gt;Node17</title>
<path fill="none" stroke="midnightblue" d="M1243.21,-574.18C1230.73,-566.09 1219.09,-555.81 1211.66,-543 1162.6,-458.35 1236.22,-415.27 1203.66,-323 1198.16,-307.41 1187.2,-292.49 1177.35,-281.26"/>
<polygon fill="midnightblue" stroke="midnightblue" points="1241.57,-577.28 1251.94,-579.43 1245.17,-571.28 1241.57,-577.28"/>
</g>
<!-- Node24 -->
<g id="node24" class="node">
<title>Node24</title>
<g id="a_node24"><a xlink:href="../../db/d5e/TypeChecker_8hpp.html" target="_top" xlink:title=" ">
<polygon fill="white" stroke="black" points="871.16,-501.5 871.16,-542.5 1036.16,-542.5 1036.16,-501.5 871.16,-501.5"/>
<text text-anchor="start" x="879.16" y="-530.5" font-family="Helvetica,sans-Serif" font-size="10.00">C:/Users/folae/Documents</text>
<text text-anchor="start" x="879.16" y="-519.5" font-family="Helvetica,sans-Serif" font-size="10.00">/Code/Big&#45;Projects/ArkScript</text>
<text text-anchor="middle" x="953.66" y="-508.5" font-family="Helvetica,sans-Serif" font-size="10.00">/Ark/include/Ark/TypeChecker.hpp</text>
</a>
</g>
</g>
<!-- Node2&#45;&gt;Node24 -->
<g id="edge32" class="edge">
<title>Node2&#45;&gt;Node24</title>
<path fill="none" stroke="midnightblue" d="M1216.11,-580.32C1161.31,-568.35 1090.56,-552.9 1036.33,-541.05"/>
<polygon fill="midnightblue" stroke="midnightblue" points="1215.64,-583.79 1226.15,-582.51 1217.13,-576.96 1215.64,-583.79"/>
</g>
<!-- Node25 -->
<g id="node25" class="node">
<title>Node25</title>
<g id="a_node25"><a xlink:href="../../db/df6/ExecutionContext_8hpp.html" target="_top" xlink:title="Keeping track of the internal data needed by the VM.">
<polygon fill="white" stroke="black" points="1221.16,-418 1221.16,-459 1424.16,-459 1424.16,-418 1221.16,-418"/>
<text text-anchor="start" x="1229.16" y="-447" font-family="Helvetica,sans-Serif" font-size="10.00">C:/Users/folae/Documents</text>
<text text-anchor="start" x="1229.16" y="-436" font-family="Helvetica,sans-Serif" font-size="10.00">/Code/Big&#45;Projects/ArkScript</text>
<text text-anchor="middle" x="1322.66" y="-425" font-family="Helvetica,sans-Serif" font-size="10.00">/Ark/include/Ark/VM/ExecutionContext.hpp</text>
</a>
</g>
</g>
<!-- Node2&#45;&gt;Node25 -->
<g id="edge36" class="edge">
<title>Node2&#45;&gt;Node25</title>
<path fill="none" stroke="midnightblue" d="M1360.82,-574.12C1373.15,-566.07 1384.55,-555.81 1391.66,-543 1400.73,-526.68 1399.3,-518.03 1391.66,-501 1383.98,-483.87 1368.91,-469.55 1354.81,-459.05"/>
<polygon fill="midnightblue" stroke="midnightblue" points="1358.93,-571.18 1352.18,-579.35 1362.55,-577.17 1358.93,-571.18"/>
</g>
<!-- Node26 -->
<g id="node26" class="node">
<title>Node26</title>
<g id="a_node26"><a xlink:href="../../d8/dcd/Scope_8hpp.html" target="_top" xlink:title="The virtual machine scope system.">
<polygon fill="white" stroke="black" points="1480.66,-501.5 1480.66,-542.5 1634.66,-542.5 1634.66,-501.5 1480.66,-501.5"/>
<text text-anchor="start" x="1488.66" y="-530.5" font-family="Helvetica,sans-Serif" font-size="10.00">C:/Users/folae/Documents</text>
<text text-anchor="start" x="1488.66" y="-519.5" font-family="Helvetica,sans-Serif" font-size="10.00">/Code/Big&#45;Projects/ArkScript</text>
<text text-anchor="middle" x="1557.66" y="-508.5" font-family="Helvetica,sans-Serif" font-size="10.00">/Ark/include/Ark/VM/Scope.hpp</text>
</a>
</g>
</g>
<!-- Node2&#45;&gt;Node26 -->
<g id="edge38" class="edge">
<title>Node2&#45;&gt;Node26</title>
<path fill="none" stroke="midnightblue" d="M1377.18,-576.58C1413.61,-565.76 1456.91,-552.91 1491.96,-542.51"/>
<polygon fill="midnightblue" stroke="midnightblue" points="1376.18,-573.23 1367.59,-579.43 1378.17,-579.94 1376.18,-573.23"/>
</g>
<!-- Node29 -->
<g id="node29" class="node">
<title>Node29</title>
<g id="a_node29"><a xlink:href="../../d1/d74/Value_8cpp.html" target="_top" xlink:title=" ">
<polygon fill="white" stroke="black" points="1220.66,-501.5 1220.66,-542.5 1382.66,-542.5 1382.66,-501.5 1220.66,-501.5"/>
<text text-anchor="start" x="1228.66" y="-530.5" font-family="Helvetica,sans-Serif" font-size="10.00">C:/Users/folae/Documents</text>
<text text-anchor="start" x="1228.66" y="-519.5" font-family="Helvetica,sans-Serif" font-size="10.00">/Code/Big&#45;Projects/ArkScript</text>
<text text-anchor="middle" x="1301.66" y="-508.5" font-family="Helvetica,sans-Serif" font-size="10.00">/Ark/src/arkreactor/VM/Value.cpp</text>
</a>
</g>
</g>
<!-- Node2&#45;&gt;Node29 -->
<g id="edge45" class="edge">
<title>Node2&#45;&gt;Node29</title>
<path fill="none" stroke="midnightblue" d="M1301.66,-569.3C1301.66,-560.3 1301.66,-550.65 1301.66,-542.51"/>
<polygon fill="midnightblue" stroke="midnightblue" points="1298.16,-569.43 1301.66,-579.43 1305.16,-569.43 1298.16,-569.43"/>
</g>
<!-- Node3&#45;&gt;Node4 -->
<g id="edge3" class="edge">
<title>Node3&#45;&gt;Node4</title>
<path fill="none" stroke="midnightblue" d="M1131.17,-414.5C1156.39,-405.3 1182.55,-392.78 1203.66,-376 1266.75,-325.86 1309.88,-236.83 1326.74,-197.55"/>
<polygon fill="midnightblue" stroke="midnightblue" points="1129.84,-411.26 1121.56,-417.87 1132.16,-417.86 1129.84,-411.26"/>
</g>
<!-- Node11 -->
<g id="node11" class="node">
<title>Node11</title>
<g id="a_node11"><a xlink:href="../../d5/d36/BytecodeReader_8cpp.html" target="_top" xlink:title=" ">
<polygon fill="white" stroke="black" points="1052.66,-323.5 1052.66,-375.5 1194.66,-375.5 1194.66,-323.5 1052.66,-323.5"/>
<text text-anchor="start" x="1060.66" y="-363.5" font-family="Helvetica,sans-Serif" font-size="10.00">C:/Users/folae/Documents</text>
<text text-anchor="start" x="1060.66" y="-352.5" font-family="Helvetica,sans-Serif" font-size="10.00">/Code/Big&#45;Projects/ArkScript</text>
<text text-anchor="start" x="1060.66" y="-341.5" font-family="Helvetica,sans-Serif" font-size="10.00">/Ark/src/arkreactor/Compiler</text>
<text text-anchor="middle" x="1123.66" y="-330.5" font-family="Helvetica,sans-Serif" font-size="10.00">/BytecodeReader.cpp</text>
</a>
</g>
</g>
<!-- Node3&#45;&gt;Node11 -->
<g id="edge11" class="edge">
<title>Node3&#45;&gt;Node11</title>
<path fill="none" stroke="midnightblue" d="M1065.13,-410.41C1075.93,-399.36 1088.34,-386.65 1098.96,-375.79"/>
<polygon fill="midnightblue" stroke="midnightblue" points="1062.44,-408.16 1057.95,-417.76 1067.44,-413.05 1062.44,-408.16"/>
</g>
<!-- Node12 -->
<g id="node12" class="node">
<title>Node12</title>
<g id="a_node12"><a xlink:href="../../de/dfa/Compiler_8cpp.html" target="_top" xlink:title=" ">
<polygon fill="white" stroke="black" points="894.66,-234.5 894.66,-286.5 1036.66,-286.5 1036.66,-234.5 894.66,-234.5"/>
<text text-anchor="start" x="902.66" y="-274.5" font-family="Helvetica,sans-Serif" font-size="10.00">C:/Users/folae/Documents</text>
<text text-anchor="start" x="902.66" y="-263.5" font-family="Helvetica,sans-Serif" font-size="10.00">/Code/Big&#45;Projects/ArkScript</text>
<text text-anchor="start" x="902.66" y="-252.5" font-family="Helvetica,sans-Serif" font-size="10.00">/Ark/src/arkreactor/Compiler</text>
<text text-anchor="middle" x="965.66" y="-241.5" font-family="Helvetica,sans-Serif" font-size="10.00">/Compiler.cpp</text>
</a>
</g>
</g>
<!-- Node3&#45;&gt;Node12 -->
<g id="edge12" class="edge">
<title>Node3&#45;&gt;Node12</title>
<path fill="none" stroke="midnightblue" d="M1032.71,-408.05C1027.33,-384.41 1018.32,-350.7 1005.66,-323 999.89,-310.37 991.78,-297.35 984.38,-286.56"/>
<polygon fill="midnightblue" stroke="midnightblue" points="1029.29,-408.82 1034.85,-417.83 1036.13,-407.32 1029.29,-408.82"/>
</g>
<!-- Node13 -->
<g id="node13" class="node">
<title>Node13</title>
<g id="a_node13"><a xlink:href="../../d6/d69/Processor_8cpp.html" target="_top" xlink:title=" ">
<polygon fill="white" stroke="black" points="854.66,-323.5 854.66,-375.5 996.66,-375.5 996.66,-323.5 854.66,-323.5"/>
<text text-anchor="start" x="862.66" y="-363.5" font-family="Helvetica,sans-Serif" font-size="10.00">C:/Users/folae/Documents</text>
<text text-anchor="start" x="862.66" y="-352.5" font-family="Helvetica,sans-Serif" font-size="10.00">/Code/Big&#45;Projects/ArkScript</text>
<text text-anchor="start" x="862.66" y="-341.5" font-family="Helvetica,sans-Serif" font-size="10.00">/Ark/src/arkreactor/Compiler</text>
<text text-anchor="middle" x="925.66" y="-330.5" font-family="Helvetica,sans-Serif" font-size="10.00">/Macros/Processor.cpp</text>
</a>
</g>
</g>
<!-- Node3&#45;&gt;Node13 -->
<g id="edge13" class="edge">
<title>Node3&#45;&gt;Node13</title>
<path fill="none" stroke="midnightblue" d="M1005.34,-411.85C990.48,-400.4 973.02,-386.96 958.24,-375.58"/>
<polygon fill="midnightblue" stroke="midnightblue" points="1003.24,-414.65 1013.3,-417.98 1007.51,-409.1 1003.24,-414.65"/>
</g>
<!-- Node5 -->
<g id="node5" class="node">
<title>Node5</title>
<g id="a_node5"><a xlink:href="../../d3/d7e/Ark_8hpp.html" target="_top" xlink:title="Includes the needed files to start using ArkScript.">
<polygon fill="white" stroke="black" points="662.66,-78.5 662.66,-119.5 804.66,-119.5 804.66,-78.5 662.66,-78.5"/>
<text text-anchor="start" x="670.66" y="-107.5" font-family="Helvetica,sans-Serif" font-size="10.00">C:/Users/folae/Documents</text>
<text text-anchor="start" x="670.66" y="-96.5" font-family="Helvetica,sans-Serif" font-size="10.00">/Code/Big&#45;Projects/ArkScript</text>
<text text-anchor="middle" x="733.66" y="-85.5" font-family="Helvetica,sans-Serif" font-size="10.00">/Ark/include/Ark/Ark.hpp</text>
</a>
</g>
</g>
<!-- Node4&#45;&gt;Node5 -->
<g id="edge4" class="edge">
<title>Node4&#45;&gt;Node5</title>
<path fill="none" stroke="midnightblue" d="M1253.47,-156.67C1252.19,-156.44 1250.92,-156.22 1249.66,-156 1165.95,-141.67 925.75,-118.08 804.91,-106.64"/>
<polygon fill="midnightblue" stroke="midnightblue" points="1252.89,-160.12 1263.37,-158.55 1254.2,-153.25 1252.89,-160.12"/>
</g>
<!-- Node8 -->
<g id="node8" class="node">
<title>Node8</title>
<g id="a_node8"><a xlink:href="../../d5/da5/Repl_8hpp.html" target="_top" xlink:title="ArkScript REPL &#45; Read Eval Print Loop.">
<polygon fill="white" stroke="black" points="973.66,-78.5 973.66,-119.5 1129.66,-119.5 1129.66,-78.5 973.66,-78.5"/>
<text text-anchor="start" x="981.66" y="-107.5" font-family="Helvetica,sans-Serif" font-size="10.00">C:/Users/folae/Documents</text>
<text text-anchor="start" x="981.66" y="-96.5" font-family="Helvetica,sans-Serif" font-size="10.00">/Code/Big&#45;Projects/ArkScript</text>
<text text-anchor="middle" x="1051.66" y="-85.5" font-family="Helvetica,sans-Serif" font-size="10.00">/Ark/include/Ark/REPL/Repl.hpp</text>
</a>
</g>
</g>
<!-- Node4&#45;&gt;Node8 -->
<g id="edge7" class="edge">
<title>Node4&#45;&gt;Node8</title>
<path fill="none" stroke="midnightblue" d="M1253.74,-154.27C1213.09,-143.35 1164.21,-130.23 1124.71,-119.62"/>
<polygon fill="midnightblue" stroke="midnightblue" points="1253.05,-157.71 1263.62,-156.92 1254.86,-150.95 1253.05,-157.71"/>
</g>
<!-- Node10 -->
<g id="node10" class="node">
<title>Node10</title>
<g id="a_node10"><a xlink:href="../../d2/d27/VM_8cpp.html" target="_top" xlink:title=" ">
<polygon fill="white" stroke="black" points="1348.66,-78.5 1348.66,-119.5 1500.66,-119.5 1500.66,-78.5 1348.66,-78.5"/>
<text text-anchor="start" x="1356.66" y="-107.5" font-family="Helvetica,sans-Serif" font-size="10.00">C:/Users/folae/Documents</text>
<text text-anchor="start" x="1356.66" y="-96.5" font-family="Helvetica,sans-Serif" font-size="10.00">/Code/Big&#45;Projects/ArkScript</text>
<text text-anchor="middle" x="1424.66" y="-85.5" font-family="Helvetica,sans-Serif" font-size="10.00">/Ark/src/arkreactor/VM/VM.cpp</text>
</a>
</g>
</g>
<!-- Node4&#45;&gt;Node10 -->
<g id="edge10" class="edge">
<title>Node4&#45;&gt;Node10</title>
<path fill="none" stroke="midnightblue" d="M1365.71,-149.78C1377.48,-139.84 1390.66,-128.72 1401.56,-119.51"/>
<polygon fill="midnightblue" stroke="midnightblue" points="1363.22,-147.3 1357.84,-156.43 1367.74,-152.65 1363.22,-147.3"/>
</g>
<!-- Node6 -->
<g id="node6" class="node">
<title>Node6</title>
<g id="a_node6"><a xlink:href="../../dc/d32/Ark_8cpp.html" target="_top" xlink:title=" ">
<polygon fill="white" stroke="black" points="655.66,-0.5 655.66,-41.5 797.66,-41.5 797.66,-0.5 655.66,-0.5"/>
<text text-anchor="start" x="663.66" y="-29.5" font-family="Helvetica,sans-Serif" font-size="10.00">C:/Users/folae/Documents</text>
<text text-anchor="start" x="663.66" y="-18.5" font-family="Helvetica,sans-Serif" font-size="10.00">/Code/Big&#45;Projects/ArkScript</text>
<text text-anchor="middle" x="726.66" y="-7.5" font-family="Helvetica,sans-Serif" font-size="10.00">/Ark/src/arkreactor/Ark.cpp</text>
</a>
</g>
</g>
<!-- Node5&#45;&gt;Node6 -->
<g id="edge5" class="edge">
<title>Node5&#45;&gt;Node6</title>
<path fill="none" stroke="midnightblue" d="M730.93,-68.3C730.1,-59.3 729.21,-49.65 728.46,-41.51"/>
<polygon fill="midnightblue" stroke="midnightblue" points="727.46,-68.79 731.86,-78.43 734.43,-68.15 727.46,-68.79"/>
</g>
<!-- Node7 -->
<g id="node7" class="node">
<title>Node7</title>
<g id="a_node7"><a xlink:href="../../df/d0a/main_8cpp.html" target="_top" xlink:title=" ">
<polygon fill="white" stroke="black" points="815.66,-0.5 815.66,-41.5 957.66,-41.5 957.66,-0.5 815.66,-0.5"/>
<text text-anchor="start" x="823.66" y="-29.5" font-family="Helvetica,sans-Serif" font-size="10.00">C:/Users/folae/Documents</text>
<text text-anchor="start" x="823.66" y="-18.5" font-family="Helvetica,sans-Serif" font-size="10.00">/Code/Big&#45;Projects/ArkScript</text>
<text text-anchor="middle" x="886.66" y="-7.5" font-family="Helvetica,sans-Serif" font-size="10.00">/Ark/src/arkscript/main.cpp</text>
</a>
</g>
</g>
<!-- Node5&#45;&gt;Node7 -->
<g id="edge6" class="edge">
<title>Node5&#45;&gt;Node7</title>
<path fill="none" stroke="midnightblue" d="M782.16,-73.91C803.2,-63.46 827.52,-51.38 847.39,-41.51"/>
<polygon fill="midnightblue" stroke="midnightblue" points="780.46,-70.84 773.06,-78.43 783.58,-77.11 780.46,-70.84"/>
</g>
<!-- Node8&#45;&gt;Node7 -->
<g id="edge9" class="edge">
<title>Node8&#45;&gt;Node7</title>
<path fill="none" stroke="midnightblue" d="M999.97,-74.19C977.14,-63.67 950.64,-51.47 929.01,-41.51"/>
<polygon fill="midnightblue" stroke="midnightblue" points="998.62,-77.42 1009.17,-78.43 1001.55,-71.07 998.62,-77.42"/>
</g>
<!-- Node9 -->
<g id="node9" class="node">
<title>Node9</title>
<g id="a_node9"><a xlink:href="../../d7/d46/Repl_8cpp.html" target="_top" xlink:title=" ">
<polygon fill="white" stroke="black" points="976.16,-0.5 976.16,-41.5 1137.16,-41.5 1137.16,-0.5 976.16,-0.5"/>
<text text-anchor="start" x="984.16" y="-29.5" font-family="Helvetica,sans-Serif" font-size="10.00">C:/Users/folae/Documents</text>
<text text-anchor="start" x="984.16" y="-18.5" font-family="Helvetica,sans-Serif" font-size="10.00">/Code/Big&#45;Projects/ArkScript</text>
<text text-anchor="middle" x="1056.66" y="-7.5" font-family="Helvetica,sans-Serif" font-size="10.00">/Ark/src/arkscript/REPL/Repl.cpp</text>
</a>
</g>
</g>
<!-- Node8&#45;&gt;Node9 -->
<g id="edge8" class="edge">
<title>Node8&#45;&gt;Node9</title>
<path fill="none" stroke="midnightblue" d="M1053.62,-68.3C1054.21,-59.3 1054.84,-49.65 1055.38,-41.51"/>
<polygon fill="midnightblue" stroke="midnightblue" points="1050.11,-68.22 1052.95,-78.43 1057.1,-68.68 1050.11,-68.22"/>
</g>
<!-- Node14&#45;&gt;Node3 -->
<g id="edge16" class="edge">
<title>Node14&#45;&gt;Node3</title>
<path fill="none" stroke="midnightblue" d="M676.23,-505.58C739.61,-494.48 826.93,-479.05 903.66,-465 918.8,-462.23 934.87,-459.24 950.46,-456.31"/>
<polygon fill="midnightblue" stroke="midnightblue" points="675.52,-502.15 666.27,-507.32 676.73,-509.05 675.52,-502.15"/>
</g>
<!-- Node14&#45;&gt;Node5 -->
<g id="edge15" class="edge">
<title>Node14&#45;&gt;Node5</title>
<path fill="none" stroke="midnightblue" d="M499.04,-518.03C348.94,-512.16 57.6,-496.79 23.66,-465 -13.99,-429.74 4.66,-402.08 4.66,-350.5 4.66,-350.5 4.66,-350.5 4.66,-259.5 4.66,-125.73 479,-103.99 662.44,-100.58"/>
<polygon fill="midnightblue" stroke="midnightblue" points="499.03,-521.54 509.15,-518.42 499.3,-514.54 499.03,-521.54"/>
</g>
<!-- Node14&#45;&gt;Node13 -->
<g id="edge30" class="edge">
<title>Node14&#45;&gt;Node13</title>
<path fill="none" stroke="midnightblue" d="M631,-495.79C644.45,-486.95 658.83,-476.36 670.66,-465 691.76,-444.75 685.49,-428.46 709.66,-412 761.35,-376.82 785.64,-393.5 845.66,-376 848.6,-375.14 851.6,-374.26 854.62,-373.35"/>
<polygon fill="midnightblue" stroke="midnightblue" points="628.87,-493.01 622.34,-501.35 632.65,-498.9 628.87,-493.01"/>
</g>
<!-- Node15 -->
<g id="node15" class="node">
<title>Node15</title>
<g id="a_node15"><a xlink:href="../../db/d93/Optimizer_8hpp.html" target="_top" xlink:title="Optimizes a given ArkScript AST.">
<polygon fill="white" stroke="black" points="513.16,-412.5 513.16,-464.5 662.16,-464.5 662.16,-412.5 513.16,-412.5"/>
<text text-anchor="start" x="521.16" y="-452.5" font-family="Helvetica,sans-Serif" font-size="10.00">C:/Users/folae/Documents</text>
<text text-anchor="start" x="521.16" y="-441.5" font-family="Helvetica,sans-Serif" font-size="10.00">/Code/Big&#45;Projects/ArkScript</text>
<text text-anchor="start" x="521.16" y="-430.5" font-family="Helvetica,sans-Serif" font-size="10.00">/Ark/include/Ark/Compiler/AST</text>
<text text-anchor="middle" x="587.66" y="-419.5" font-family="Helvetica,sans-Serif" font-size="10.00">/Optimizer.hpp</text>
</a>
</g>
</g>
<!-- Node14&#45;&gt;Node15 -->
<g id="edge17" class="edge">
<title>Node14&#45;&gt;Node15</title>
<path fill="none" stroke="midnightblue" d="M587.66,-491.12C587.66,-482.41 587.66,-472.99 587.66,-464.61"/>
<polygon fill="midnightblue" stroke="midnightblue" points="584.16,-491.27 587.66,-501.27 591.16,-491.27 584.16,-491.27"/>
</g>
<!-- Node20 -->
<g id="node20" class="node">
<title>Node20</title>
<g id="a_node20"><a xlink:href="../../d2/d15/Lexer_8cpp.html" target="_top" xlink:title=" ">
<polygon fill="white" stroke="black" points="192.66,-412.5 192.66,-464.5 334.66,-464.5 334.66,-412.5 192.66,-412.5"/>
<text text-anchor="start" x="200.66" y="-452.5" font-family="Helvetica,sans-Serif" font-size="10.00">C:/Users/folae/Documents</text>
<text text-anchor="start" x="200.66" y="-441.5" font-family="Helvetica,sans-Serif" font-size="10.00">/Code/Big&#45;Projects/ArkScript</text>
<text text-anchor="start" x="200.66" y="-430.5" font-family="Helvetica,sans-Serif" font-size="10.00">/Ark/src/arkreactor/Compiler</text>
<text text-anchor="middle" x="263.66" y="-419.5" font-family="Helvetica,sans-Serif" font-size="10.00">/AST/Lexer.cpp</text>
</a>
</g>
</g>
<!-- Node14&#45;&gt;Node20 -->
<g id="edge27" class="edge">
<title>Node14&#45;&gt;Node20</title>
<path fill="none" stroke="midnightblue" d="M498.91,-502.49C452.44,-492.33 394.73,-478.97 343.66,-465 340.71,-464.19 337.7,-463.35 334.67,-462.47"/>
<polygon fill="midnightblue" stroke="midnightblue" points="498.44,-505.97 508.96,-504.67 499.93,-499.13 498.44,-505.97"/>
</g>
<!-- Node21 -->
<g id="node21" class="node">
<title>Node21</title>
<g id="a_node21"><a xlink:href="../../dc/d73/Node_8cpp.html" target="_top" xlink:title=" ">
<polygon fill="white" stroke="black" points="352.66,-412.5 352.66,-464.5 494.66,-464.5 494.66,-412.5 352.66,-412.5"/>
<text text-anchor="start" x="360.66" y="-452.5" font-family="Helvetica,sans-Serif" font-size="10.00">C:/Users/folae/Documents</text>
<text text-anchor="start" x="360.66" y="-441.5" font-family="Helvetica,sans-Serif" font-size="10.00">/Code/Big&#45;Projects/ArkScript</text>
<text text-anchor="start" x="360.66" y="-430.5" font-family="Helvetica,sans-Serif" font-size="10.00">/Ark/src/arkreactor/Compiler</text>
<text text-anchor="middle" x="423.66" y="-419.5" font-family="Helvetica,sans-Serif" font-size="10.00">/AST/Node.cpp</text>
</a>
</g>
</g>
<!-- Node14&#45;&gt;Node21 -->
<g id="edge28" class="edge">
<title>Node14&#45;&gt;Node21</title>
<path fill="none" stroke="midnightblue" d="M539.22,-496.93C518.72,-486.74 494.84,-474.87 474.12,-464.58"/>
<polygon fill="midnightblue" stroke="midnightblue" points="537.87,-500.16 548.38,-501.48 540.98,-493.89 537.87,-500.16"/>
</g>
<!-- Node22 -->
<g id="node22" class="node">
<title>Node22</title>
<g id="a_node22"><a xlink:href="../../dc/df5/Parser_8cpp.html" target="_top" xlink:title=" ">
<polygon fill="white" stroke="black" points="32.66,-412.5 32.66,-464.5 174.66,-464.5 174.66,-412.5 32.66,-412.5"/>
<text text-anchor="start" x="40.66" y="-452.5" font-family="Helvetica,sans-Serif" font-size="10.00">C:/Users/folae/Documents</text>
<text text-anchor="start" x="40.66" y="-441.5" font-family="Helvetica,sans-Serif" font-size="10.00">/Code/Big&#45;Projects/ArkScript</text>
<text text-anchor="start" x="40.66" y="-430.5" font-family="Helvetica,sans-Serif" font-size="10.00">/Ark/src/arkreactor/Compiler</text>
<text text-anchor="middle" x="103.66" y="-419.5" font-family="Helvetica,sans-Serif" font-size="10.00">/AST/Parser.cpp</text>
</a>
</g>
</g>
<!-- Node14&#45;&gt;Node22 -->
<g id="edge29" class="edge">
<title>Node14&#45;&gt;Node22</title>
<path fill="none" stroke="midnightblue" d="M499.05,-513.11C416.67,-504.75 290.88,-489.33 183.66,-465 180.82,-464.35 177.93,-463.65 175.03,-462.91"/>
<polygon fill="midnightblue" stroke="midnightblue" points="498.82,-516.61 509.12,-514.12 499.52,-509.64 498.82,-516.61"/>
</g>
<!-- Node23 -->
<g id="node23" class="node">
<title>Node23</title>
<g id="a_node23"><a xlink:href="../../d6/d9a/TypeChecker_8cpp.html" target="_top" xlink:title=" ">
<polygon fill="white" stroke="black" points="718.66,-418 718.66,-459 894.66,-459 894.66,-418 718.66,-418"/>
<text text-anchor="start" x="726.66" y="-447" font-family="Helvetica,sans-Serif" font-size="10.00">C:/Users/folae/Documents</text>
<text text-anchor="start" x="726.66" y="-436" font-family="Helvetica,sans-Serif" font-size="10.00">/Code/Big&#45;Projects/ArkScript</text>
<text text-anchor="middle" x="806.66" y="-425" font-family="Helvetica,sans-Serif" font-size="10.00">/Ark/src/arkreactor/TypeChecker.cpp</text>
</a>
</g>
</g>
<!-- Node14&#45;&gt;Node23 -->
<g id="edge31" class="edge">
<title>Node14&#45;&gt;Node23</title>
<path fill="none" stroke="midnightblue" d="M649.67,-497.92C682.68,-485.64 722.82,-470.7 754.26,-459"/>
<polygon fill="midnightblue" stroke="midnightblue" points="648.27,-494.71 640.12,-501.48 650.71,-501.27 648.27,-494.71"/>
</g>
<!-- Node16 -->
<g id="node16" class="node">
<title>Node16</title>
<g id="a_node16"><a xlink:href="../../d8/d0f/Compiler_8hpp.html" target="_top" xlink:title="ArkScript compiler is in charge of transforming the AST into bytecode.">
<polygon fill="white" stroke="black" points="648.66,-329 648.66,-370 836.66,-370 836.66,-329 648.66,-329"/>
<text text-anchor="start" x="656.66" y="-358" font-family="Helvetica,sans-Serif" font-size="10.00">C:/Users/folae/Documents</text>
<text text-anchor="start" x="656.66" y="-347" font-family="Helvetica,sans-Serif" font-size="10.00">/Code/Big&#45;Projects/ArkScript</text>
<text text-anchor="middle" x="742.66" y="-336" font-family="Helvetica,sans-Serif" font-size="10.00">/Ark/include/Ark/Compiler/Compiler.hpp</text>
</a>
</g>
</g>
<!-- Node15&#45;&gt;Node16 -->
<g id="edge18" class="edge">
<title>Node15&#45;&gt;Node16</title>
<path fill="none" stroke="midnightblue" d="M641.4,-407.34C663.4,-394.99 688.21,-381.06 707.77,-370.08"/>
<polygon fill="midnightblue" stroke="midnightblue" points="639.5,-404.39 632.49,-412.34 642.93,-410.49 639.5,-404.39"/>
</g>
<!-- Node19 -->
<g id="node19" class="node">
<title>Node19</title>
<g id="a_node19"><a xlink:href="../../d2/dc5/Optimizer_8cpp.html" target="_top" xlink:title=" ">
<polygon fill="white" stroke="black" points="450.66,-323.5 450.66,-375.5 592.66,-375.5 592.66,-323.5 450.66,-323.5"/>
<text text-anchor="start" x="458.66" y="-363.5" font-family="Helvetica,sans-Serif" font-size="10.00">C:/Users/folae/Documents</text>
<text text-anchor="start" x="458.66" y="-352.5" font-family="Helvetica,sans-Serif" font-size="10.00">/Code/Big&#45;Projects/ArkScript</text>
<text text-anchor="start" x="458.66" y="-341.5" font-family="Helvetica,sans-Serif" font-size="10.00">/Ark/src/arkreactor/Compiler</text>
<text text-anchor="middle" x="521.66" y="-330.5" font-family="Helvetica,sans-Serif" font-size="10.00">/AST/Optimizer.cpp</text>
</a>
</g>
</g>
<!-- Node15&#45;&gt;Node19 -->
<g id="edge26" class="edge">
<title>Node15&#45;&gt;Node19</title>
<path fill="none" stroke="midnightblue" d="M562.41,-404.22C555.21,-394.72 547.48,-384.53 540.71,-375.61"/>
<polygon fill="midnightblue" stroke="midnightblue" points="559.74,-406.48 568.57,-412.34 565.32,-402.25 559.74,-406.48"/>
</g>
<!-- Node16&#45;&gt;Node5 -->
<g id="edge19" class="edge">
<title>Node16&#45;&gt;Node5</title>
<path fill="none" stroke="midnightblue" d="M741.57,-318.42C739.71,-266.86 735.94,-162.98 734.37,-119.67"/>
<polygon fill="midnightblue" stroke="midnightblue" points="738.08,-318.72 741.94,-328.58 745.08,-318.46 738.08,-318.72"/>
</g>
<!-- Node16&#45;&gt;Node8 -->
<g id="edge20" class="edge">
<title>Node16&#45;&gt;Node8</title>
<path fill="none" stroke="midnightblue" d="M775.09,-322.43C837.23,-272.45 971.83,-164.21 1027.16,-119.71"/>
<polygon fill="midnightblue" stroke="midnightblue" points="772.77,-319.8 767.17,-328.79 777.15,-325.25 772.77,-319.8"/>
</g>
<!-- Node16&#45;&gt;Node12 -->
<g id="edge25" class="edge">
<title>Node16&#45;&gt;Node12</title>
<path fill="none" stroke="midnightblue" d="M802.38,-325.2C832.94,-313.28 870.18,-298.75 901.37,-286.58"/>
<polygon fill="midnightblue" stroke="midnightblue" points="800.75,-322.08 792.71,-328.98 803.3,-328.6 800.75,-322.08"/>
</g>
<!-- Node16&#45;&gt;Node17 -->
<g id="edge21" class="edge">
<title>Node16&#45;&gt;Node17</title>
<path fill="none" stroke="midnightblue" d="M829.29,-326.63C834.82,-325.36 840.31,-324.14 845.66,-323 933.99,-304.14 957.16,-305.03 1045.66,-287 1057.78,-284.53 1070.59,-281.76 1083.06,-278.99"/>
<polygon fill="midnightblue" stroke="midnightblue" points="828.26,-323.27 819.31,-328.94 829.84,-330.09 828.26,-323.27"/>
</g>
<!-- Node17&#45;&gt;Node4 -->
<g id="edge23" class="edge">
<title>Node17&#45;&gt;Node4</title>
<path fill="none" stroke="midnightblue" d="M1209.16,-235.79C1235.57,-223.63 1267.34,-209 1292.31,-197.5"/>
<polygon fill="midnightblue" stroke="midnightblue" points="1207.68,-232.62 1200.06,-239.98 1210.61,-238.98 1207.68,-232.62"/>
</g>
<!-- Node17&#45;&gt;Node8 -->
<g id="edge22" class="edge">
<title>Node17&#45;&gt;Node8</title>
<path fill="none" stroke="midnightblue" d="M1108.38,-234.2C1094.2,-224.67 1080.05,-212.54 1070.66,-198 1055.24,-174.12 1051.78,-140.62 1051.29,-119.62"/>
<polygon fill="midnightblue" stroke="midnightblue" points="1106.85,-237.38 1117.17,-239.8 1110.62,-231.48 1106.85,-237.38"/>
</g>
<!-- Node18 -->
<g id="node18" class="node">
<title>Node18</title>
<g id="a_node18"><a xlink:href="../../d0/da0/State_8cpp.html" target="_top" xlink:title=" ">
<polygon fill="white" stroke="black" points="1080.16,-156.5 1080.16,-197.5 1241.16,-197.5 1241.16,-156.5 1080.16,-156.5"/>
<text text-anchor="start" x="1088.16" y="-185.5" font-family="Helvetica,sans-Serif" font-size="10.00">C:/Users/folae/Documents</text>
<text text-anchor="start" x="1088.16" y="-174.5" font-family="Helvetica,sans-Serif" font-size="10.00">/Code/Big&#45;Projects/ArkScript</text>
<text text-anchor="middle" x="1160.66" y="-163.5" font-family="Helvetica,sans-Serif" font-size="10.00">/Ark/src/arkreactor/VM/State.cpp</text>
</a>
</g>
</g>
<!-- Node17&#45;&gt;Node18 -->
<g id="edge24" class="edge">
<title>Node17&#45;&gt;Node18</title>
<path fill="none" stroke="midnightblue" d="M1158.76,-229.56C1159.16,-218.88 1159.59,-207.13 1159.94,-197.55"/>
<polygon fill="midnightblue" stroke="midnightblue" points="1155.26,-229.65 1158.39,-239.77 1162.25,-229.91 1155.26,-229.65"/>
</g>
<!-- Node24&#45;&gt;Node5 -->
<g id="edge33" class="edge">
<title>Node24&#45;&gt;Node5</title>
<path fill="none" stroke="midnightblue" d="M948.31,-491.44C942.1,-466.17 929.24,-430.97 903.66,-412 808.55,-341.46 717.54,-465.21 639.66,-376 571.59,-298.01 672.26,-168.5 715.52,-119.55"/>
<polygon fill="midnightblue" stroke="midnightblue" points="944.91,-492.27 950.52,-501.26 951.74,-490.73 944.91,-492.27"/>
</g>
<!-- Node24&#45;&gt;Node10 -->
<g id="edge35" class="edge">
<title>Node24&#45;&gt;Node10</title>
<path fill="none" stroke="midnightblue" d="M1046.5,-500.09C1076.01,-491.46 1108.11,-479.92 1135.66,-465 1190.06,-435.55 1197.33,-418.08 1242.66,-376 1323.29,-301.16 1368.31,-297.77 1414.66,-198 1426.34,-172.87 1427.24,-140.3 1426.33,-119.77"/>
<polygon fill="midnightblue" stroke="midnightblue" points="1045.27,-496.81 1036.61,-502.91 1047.18,-503.54 1045.27,-496.81"/>
</g>
<!-- Node24&#45;&gt;Node23 -->
<g id="edge34" class="edge">
<title>Node24&#45;&gt;Node23</title>
<path fill="none" stroke="midnightblue" d="M909.45,-496.49C887.81,-484.49 862.12,-470.25 841.84,-459"/>
<polygon fill="midnightblue" stroke="midnightblue" points="908.01,-499.69 918.45,-501.48 911.4,-493.57 908.01,-499.69"/>
</g>
<!-- Node25&#45;&gt;Node4 -->
<g id="edge37" class="edge">
<title>Node25&#45;&gt;Node4</title>
<path fill="none" stroke="midnightblue" d="M1324.04,-407.79C1326.51,-354.25 1331.66,-242.94 1333.75,-197.73"/>
<polygon fill="midnightblue" stroke="midnightblue" points="1320.53,-407.84 1323.56,-418 1327.52,-408.17 1320.53,-407.84"/>
</g>
<!-- Node26&#45;&gt;Node4 -->
<g id="edge40" class="edge">
<title>Node26&#45;&gt;Node4</title>
<path fill="none" stroke="midnightblue" d="M1529.46,-493.89C1521.98,-485.31 1514.61,-475.35 1509.66,-465 1464.58,-370.8 1532.07,-315.41 1466.66,-234 1451.38,-214.98 1428.46,-202.32 1405.98,-193.93"/>
<polygon fill="midnightblue" stroke="midnightblue" points="1526.96,-496.34 1536.3,-501.35 1532.12,-491.61 1526.96,-496.34"/>
</g>
<!-- Node26&#45;&gt;Node25 -->
<g id="edge39" class="edge">
<title>Node26&#45;&gt;Node25</title>
<path fill="none" stroke="midnightblue" d="M1491.58,-498.08C1456.08,-485.77 1412.77,-470.75 1378.9,-459"/>
<polygon fill="midnightblue" stroke="midnightblue" points="1490.78,-501.51 1501.37,-501.48 1493.07,-494.9 1490.78,-501.51"/>
</g>
<!-- Node27 -->
<g id="node27" class="node">
<title>Node27</title>
<g id="a_node27"><a xlink:href="../../d5/d04/Scope_8cpp.html" target="_top" xlink:title=" ">
<polygon fill="white" stroke="black" points="1519.16,-418 1519.16,-459 1684.16,-459 1684.16,-418 1519.16,-418"/>
<text text-anchor="start" x="1527.16" y="-447" font-family="Helvetica,sans-Serif" font-size="10.00">C:/Users/folae/Documents</text>
<text text-anchor="start" x="1527.16" y="-436" font-family="Helvetica,sans-Serif" font-size="10.00">/Code/Big&#45;Projects/ArkScript</text>
<text text-anchor="middle" x="1601.66" y="-425" font-family="Helvetica,sans-Serif" font-size="10.00">/Ark/src/arkreactor/VM/Scope.cpp</text>
</a>
</g>
</g>
<!-- Node26&#45;&gt;Node27 -->
<g id="edge41" class="edge">
<title>Node26&#45;&gt;Node27</title>
<path fill="none" stroke="midnightblue" d="M1573.11,-492.39C1579.06,-481.37 1585.72,-469.03 1591.11,-459.05"/>
<polygon fill="midnightblue" stroke="midnightblue" points="1569.98,-490.81 1568.31,-501.27 1576.14,-494.13 1569.98,-490.81"/>
</g>
<!-- Node26&#45;&gt;Node28 -->
<g id="edge42" class="edge">
<title>Node26&#45;&gt;Node28</title>
<path fill="none" stroke="midnightblue" d="M1618.92,-497.89C1646.48,-487.49 1679.06,-475.2 1707.2,-464.58"/>
<polygon fill="midnightblue" stroke="midnightblue" points="1617.52,-494.67 1609.4,-501.48 1619.99,-501.22 1617.52,-494.67"/>
</g>
</g>
</svg>
