<?xml version="1.0" encoding="UTF-8" standalone="no"?>
<!DOCTYPE svg PUBLIC "-//W3C//DTD SVG 1.1//EN"
 "http://www.w3.org/Graphics/SVG/1.1/DTD/svg11.dtd">
<!-- Generated by graphviz version 2.43.0 (0)
 -->
<!-- Title: /home/fola/code/Ark/include/Ark/VM/Value/Closure.hpp Pages: 1 -->
<svg width="1709pt" height="641pt"
 viewBox="0.00 0.00 1709.46 641.00" xmlns="http://www.w3.org/2000/svg" xmlns:xlink="http://www.w3.org/1999/xlink">
<g id="graph0" class="graph" transform="scale(1 1) rotate(0) translate(4 637)">
<title>/home/fola/code/Ark/include/Ark/VM/Value/Closure.hpp</title>
<polygon fill="white" stroke="transparent" points="-4,4 -4,-637 1705.46,-637 1705.46,4 -4,4"/>
<!-- Node1 -->
<g id="node1" class="node">
<title>Node1</title>
<g id="a_node1"><a xlink:title="Subtype of the value type, handling closures.">
<polygon fill="#bfbfbf" stroke="black" points="179.5,-591.5 179.5,-632.5 302.5,-632.5 302.5,-591.5 179.5,-591.5"/>
<text text-anchor="start" x="187.5" y="-620.5" font-family="Helvetica,sans-Serif" font-size="10.00">/home/fola/code/Ark</text>
<text text-anchor="start" x="187.5" y="-609.5" font-family="Helvetica,sans-Serif" font-size="10.00">/include/Ark/VM/Value</text>
<text text-anchor="middle" x="241" y="-598.5" font-family="Helvetica,sans-Serif" font-size="10.00">/Closure.hpp</text>
</a>
</g>
</g>
<!-- Node2 -->
<g id="node2" class="node">
<title>Node2</title>
<g id="a_node2"><a xlink:href="../../de/dfd/Value_8hpp.html" target="_top" xlink:title=" ">
<polygon fill="white" stroke="black" points="410,-524.5 410,-554.5 554,-554.5 554,-524.5 410,-524.5"/>
<text text-anchor="start" x="418" y="-542.5" font-family="Helvetica,sans-Serif" font-size="10.00">/home/fola/code/Ark</text>
<text text-anchor="middle" x="482" y="-531.5" font-family="Helvetica,sans-Serif" font-size="10.00">/include/Ark/VM/Value.hpp</text>
</a>
</g>
</g>
<!-- Node1&#45;&gt;Node2 -->
<g id="edge1" class="edge">
<title>Node1&#45;&gt;Node2</title>
<path fill="none" stroke="midnightblue" d="M312.53,-590.07C351.77,-578.6 399.35,-564.68 434.1,-554.51"/>
<polygon fill="midnightblue" stroke="midnightblue" points="311.37,-586.77 302.75,-592.94 313.33,-593.49 311.37,-586.77"/>
</g>
<!-- Node11 -->
<g id="node11" class="node">
<title>Node11</title>
<g id="a_node11"><a xlink:href="../../d1/db2/Closure_8cpp.html" target="_top" xlink:title=" ">
<polygon fill="white" stroke="black" points="8,-78.5 8,-119.5 144,-119.5 144,-78.5 8,-78.5"/>
<text text-anchor="start" x="16" y="-107.5" font-family="Helvetica,sans-Serif" font-size="10.00">/home/fola/code/Ark</text>
<text text-anchor="start" x="16" y="-96.5" font-family="Helvetica,sans-Serif" font-size="10.00">/src/arkreactor/VM/Value</text>
<text text-anchor="middle" x="76" y="-85.5" font-family="Helvetica,sans-Serif" font-size="10.00">/Closure.cpp</text>
</a>
</g>
</g>
<!-- Node1&#45;&gt;Node11 -->
<g id="edge53" class="edge">
<title>Node1&#45;&gt;Node11</title>
<path fill="none" stroke="midnightblue" d="M169.42,-600.98C98.37,-586.53 0,-552.29 0,-473.5 0,-473.5 0,-473.5 0,-243 0,-194.08 35.11,-145.6 57.6,-119.56"/>
<polygon fill="midnightblue" stroke="midnightblue" points="168.77,-604.42 179.25,-602.89 170.1,-597.55 168.77,-604.42"/>
</g>
<!-- Node3 -->
<g id="node3" class="node">
<title>Node3</title>
<g id="a_node3"><a xlink:href="../../da/d84/Builtins_8hpp.html" target="_top" xlink:title="Host the declaration of all the ArkScript builtins.">
<polygon fill="white" stroke="black" points="920.5,-379.5 920.5,-420.5 1035.5,-420.5 1035.5,-379.5 920.5,-379.5"/>
<text text-anchor="start" x="928.5" y="-408.5" font-family="Helvetica,sans-Serif" font-size="10.00">/home/fola/code/Ark</text>
<text text-anchor="start" x="928.5" y="-397.5" font-family="Helvetica,sans-Serif" font-size="10.00">/include/Ark/Builtins</text>
<text text-anchor="middle" x="978" y="-386.5" font-family="Helvetica,sans-Serif" font-size="10.00">/Builtins.hpp</text>
</a>
</g>
</g>
<!-- Node2&#45;&gt;Node3 -->
<g id="edge2" class="edge">
<title>Node2&#45;&gt;Node3</title>
<path fill="none" stroke="midnightblue" d="M564.31,-535.9C670.63,-531.32 848.85,-519.15 906,-488 934.23,-472.61 955.84,-441.24 967.73,-420.67"/>
<polygon fill="midnightblue" stroke="midnightblue" points="564.1,-532.41 554.25,-536.32 564.39,-539.4 564.1,-532.41"/>
</g>
<!-- Node4 -->
<g id="node4" class="node">
<title>Node4</title>
<g id="a_node4"><a xlink:href="../../d1/d91/VM_8hpp.html" target="_top" xlink:title="The ArkScript virtual machine.">
<polygon fill="white" stroke="black" points="464.5,-156.5 464.5,-186.5 597.5,-186.5 597.5,-156.5 464.5,-156.5"/>
<text text-anchor="start" x="472.5" y="-174.5" font-family="Helvetica,sans-Serif" font-size="10.00">/home/fola/code/Ark</text>
<text text-anchor="middle" x="531" y="-163.5" font-family="Helvetica,sans-Serif" font-size="10.00">/include/Ark/VM/VM.hpp</text>
</a>
</g>
</g>
<!-- Node2&#45;&gt;Node4 -->
<g id="edge50" class="edge">
<title>Node2&#45;&gt;Node4</title>
<path fill="none" stroke="midnightblue" d="M529.87,-519.87C544.4,-512.05 559.12,-501.56 569,-488 592.32,-456.02 588,-440.58 588,-401 588,-401 588,-401 588,-321 588,-268.53 556.6,-212.15 540.41,-186.56"/>
<polygon fill="midnightblue" stroke="midnightblue" points="528.24,-516.77 520.89,-524.4 531.4,-523.02 528.24,-516.77"/>
</g>
<!-- Node2&#45;&gt;Node11 -->
<g id="edge51" class="edge">
<title>Node2&#45;&gt;Node11</title>
<path fill="none" stroke="midnightblue" d="M399.48,-529.98C271.07,-514.41 38,-475.84 38,-401 38,-401 38,-401 38,-243 38,-197.79 55.96,-147.15 67.19,-119.92"/>
<polygon fill="midnightblue" stroke="midnightblue" points="399.33,-533.49 409.68,-531.2 400.16,-526.54 399.33,-533.49"/>
</g>
<!-- Node16 -->
<g id="node16" class="node">
<title>Node16</title>
<g id="a_node16"><a xlink:href="../../d2/de9/Exceptions_8hpp.html" target="_top" xlink:title="ArkScript homemade exceptions.">
<polygon fill="white" stroke="black" points="1077,-457.5 1077,-487.5 1229,-487.5 1229,-457.5 1077,-457.5"/>
<text text-anchor="start" x="1085" y="-475.5" font-family="Helvetica,sans-Serif" font-size="10.00">/home/fola/code/Ark</text>
<text text-anchor="middle" x="1153" y="-464.5" font-family="Helvetica,sans-Serif" font-size="10.00">/include/Ark/Exceptions.hpp</text>
</a>
</g>
</g>
<!-- Node2&#45;&gt;Node16 -->
<g id="edge16" class="edge">
<title>Node2&#45;&gt;Node16</title>
<path fill="none" stroke="midnightblue" d="M564.11,-530.55C695.17,-517.85 949.78,-493.19 1076.92,-480.87"/>
<polygon fill="midnightblue" stroke="midnightblue" points="563.74,-527.07 554.13,-531.51 564.42,-534.03 563.74,-527.07"/>
</g>
<!-- Node19 -->
<g id="node19" class="node">
<title>Node19</title>
<g id="a_node19"><a xlink:href="../../d0/db5/State_8hpp.html" target="_top" xlink:title="State used by the virtual machine: it loads the bytecode, can compile it if needed,...">
<polygon fill="white" stroke="black" points="807.5,-229 807.5,-259 950.5,-259 950.5,-229 807.5,-229"/>
<text text-anchor="start" x="815.5" y="-247" font-family="Helvetica,sans-Serif" font-size="10.00">/home/fola/code/Ark</text>
<text text-anchor="middle" x="879" y="-236" font-family="Helvetica,sans-Serif" font-size="10.00">/include/Ark/VM/State.hpp</text>
</a>
</g>
</g>
<!-- Node2&#45;&gt;Node19 -->
<g id="edge49" class="edge">
<title>Node2&#45;&gt;Node19</title>
<path fill="none" stroke="midnightblue" d="M564.46,-535.3C626.92,-530.4 713.67,-518.19 784,-488 841.47,-463.33 906.31,-431.93 873,-379 853.31,-347.71 817.69,-374.29 798,-343 788.06,-327.2 789.33,-317.53 798,-301 807.92,-282.07 827.47,-268.28 844.87,-259.12"/>
<polygon fill="midnightblue" stroke="midnightblue" points="563.98,-531.82 554.27,-536.05 564.5,-538.8 563.98,-531.82"/>
</g>
<!-- Node26 -->
<g id="node26" class="node">
<title>Node26</title>
<g id="a_node26"><a xlink:href="../../db/d5e/TypeChecker_8hpp.html" target="_top" xlink:title=" ">
<polygon fill="white" stroke="black" points="615.5,-457.5 615.5,-487.5 774.5,-487.5 774.5,-457.5 615.5,-457.5"/>
<text text-anchor="start" x="623.5" y="-475.5" font-family="Helvetica,sans-Serif" font-size="10.00">/home/fola/code/Ark</text>
<text text-anchor="middle" x="695" y="-464.5" font-family="Helvetica,sans-Serif" font-size="10.00">/include/Ark/TypeChecker.hpp</text>
</a>
</g>
</g>
<!-- Node2&#45;&gt;Node26 -->
<g id="edge34" class="edge">
<title>Node2&#45;&gt;Node26</title>
<path fill="none" stroke="midnightblue" d="M537.89,-521.44C572.42,-510.91 616.19,-497.55 648.76,-487.61"/>
<polygon fill="midnightblue" stroke="midnightblue" points="536.5,-518.21 527.96,-524.48 538.54,-524.9 536.5,-518.21"/>
</g>
<!-- Node27 -->
<g id="node27" class="node">
<title>Node27</title>
<g id="a_node27"><a xlink:href="../../db/df6/ExecutionContext_8hpp.html" target="_top" xlink:title="Keeping track of the internal data needed by the VM.">
<polygon fill="white" stroke="black" points="356.5,-307 356.5,-337 559.5,-337 559.5,-307 356.5,-307"/>
<text text-anchor="start" x="364.5" y="-325" font-family="Helvetica,sans-Serif" font-size="10.00">/home/fola/code/Ark</text>
<text text-anchor="middle" x="458" y="-314" font-family="Helvetica,sans-Serif" font-size="10.00">/include/Ark/VM/ExecutionContext.hpp</text>
</a>
</g>
</g>
<!-- Node2&#45;&gt;Node27 -->
<g id="edge38" class="edge">
<title>Node2&#45;&gt;Node27</title>
<path fill="none" stroke="midnightblue" d="M430.07,-519.78C416.23,-512.15 402.93,-501.78 395,-488 365.01,-435.92 417.87,-366.87 444.3,-337.36"/>
<polygon fill="midnightblue" stroke="midnightblue" points="428.69,-523.01 439.19,-524.42 431.86,-516.77 428.69,-523.01"/>
</g>
<!-- Node28 -->
<g id="node28" class="node">
<title>Node28</title>
<g id="a_node28"><a xlink:href="../../d0/dda/Future_8hpp.html" target="_top" xlink:title=" ">
<polygon fill="white" stroke="black" points="152,-229 152,-259 300,-259 300,-229 152,-229"/>
<text text-anchor="start" x="160" y="-247" font-family="Helvetica,sans-Serif" font-size="10.00">/home/fola/code/Ark</text>
<text text-anchor="middle" x="226" y="-236" font-family="Helvetica,sans-Serif" font-size="10.00">/include/Ark/VM/Future.hpp</text>
</a>
</g>
</g>
<!-- Node2&#45;&gt;Node28 -->
<g id="edge43" class="edge">
<title>Node2&#45;&gt;Node28</title>
<path fill="none" stroke="midnightblue" d="M407.58,-521.89C344.9,-504.92 255.68,-473.48 193,-421 147.28,-382.72 103.66,-352.91 133,-301 144.03,-281.47 164.91,-268 184.08,-259.17"/>
<polygon fill="midnightblue" stroke="midnightblue" points="406.84,-525.31 417.41,-524.49 408.64,-518.55 406.84,-525.31"/>
</g>
<!-- Node29 -->
<g id="node29" class="node">
<title>Node29</title>
<g id="a_node29"><a xlink:href="../../d8/dcd/Scope_8hpp.html" target="_top" xlink:title="The virtual machine scope system.">
<polygon fill="white" stroke="black" points="202,-385 202,-415 348,-415 348,-385 202,-385"/>
<text text-anchor="start" x="210" y="-403" font-family="Helvetica,sans-Serif" font-size="10.00">/home/fola/code/Ark</text>
<text text-anchor="middle" x="275" y="-392" font-family="Helvetica,sans-Serif" font-size="10.00">/include/Ark/VM/Scope.hpp</text>
</a>
</g>
</g>
<!-- Node2&#45;&gt;Node29 -->
<g id="edge44" class="edge">
<title>Node2&#45;&gt;Node29</title>
<path fill="none" stroke="midnightblue" d="M427.82,-520.83C406.37,-512.55 382.09,-501.51 362,-488 330.8,-467.03 301.38,-433.77 286.04,-415.03"/>
<polygon fill="midnightblue" stroke="midnightblue" points="426.86,-524.2 437.46,-524.44 429.32,-517.65 426.86,-524.2"/>
</g>
<!-- Node31 -->
<g id="node31" class="node">
<title>Node31</title>
<g id="a_node31"><a xlink:href="../../d1/d74/Value_8cpp.html" target="_top" xlink:title=" ">
<polygon fill="white" stroke="black" points="404,-457.5 404,-487.5 560,-487.5 560,-457.5 404,-457.5"/>
<text text-anchor="start" x="412" y="-475.5" font-family="Helvetica,sans-Serif" font-size="10.00">/home/fola/code/Ark</text>
<text text-anchor="middle" x="482" y="-464.5" font-family="Helvetica,sans-Serif" font-size="10.00">/src/arkreactor/VM/Value.cpp</text>
</a>
</g>
</g>
<!-- Node2&#45;&gt;Node31 -->
<g id="edge52" class="edge">
<title>Node2&#45;&gt;Node31</title>
<path fill="none" stroke="midnightblue" d="M482,-514.11C482,-505.15 482,-495.32 482,-487.58"/>
<polygon fill="midnightblue" stroke="midnightblue" points="478.5,-514.4 482,-524.4 485.5,-514.4 478.5,-514.4"/>
</g>
<!-- Node3&#45;&gt;Node4 -->
<g id="edge3" class="edge">
<title>Node3&#45;&gt;Node4</title>
<path fill="none" stroke="midnightblue" d="M910.24,-382.53C875.81,-373.02 833.79,-359.63 798,-343 746.63,-319.13 605.04,-223.27 551.7,-186.74"/>
<polygon fill="midnightblue" stroke="midnightblue" points="909.63,-385.99 920.2,-385.23 911.47,-379.24 909.63,-385.99"/>
</g>
<!-- Node13 -->
<g id="node13" class="node">
<title>Node13</title>
<g id="a_node13"><a xlink:href="../../d5/d36/BytecodeReader_8cpp.html" target="_top" xlink:title=" ">
<polygon fill="white" stroke="black" points="807,-301.5 807,-342.5 941,-342.5 941,-301.5 807,-301.5"/>
<text text-anchor="start" x="815" y="-330.5" font-family="Helvetica,sans-Serif" font-size="10.00">/home/fola/code/Ark</text>
<text text-anchor="start" x="815" y="-319.5" font-family="Helvetica,sans-Serif" font-size="10.00">/src/arkreactor/Compiler</text>
<text text-anchor="middle" x="874" y="-308.5" font-family="Helvetica,sans-Serif" font-size="10.00">/BytecodeReader.cpp</text>
</a>
</g>
</g>
<!-- Node3&#45;&gt;Node13 -->
<g id="edge13" class="edge">
<title>Node3&#45;&gt;Node13</title>
<path fill="none" stroke="midnightblue" d="M942.9,-373.35C929.11,-363.27 913.54,-351.89 900.69,-342.51"/>
<polygon fill="midnightblue" stroke="midnightblue" points="941.08,-376.35 951.22,-379.43 945.21,-370.7 941.08,-376.35"/>
</g>
<!-- Node14 -->
<g id="node14" class="node">
<title>Node14</title>
<g id="a_node14"><a xlink:href="../../de/dfa/Compiler_8cpp.html" target="_top" xlink:title=" ">
<polygon fill="white" stroke="black" points="969,-223.5 969,-264.5 1103,-264.5 1103,-223.5 969,-223.5"/>
<text text-anchor="start" x="977" y="-252.5" font-family="Helvetica,sans-Serif" font-size="10.00">/home/fola/code/Ark</text>
<text text-anchor="start" x="977" y="-241.5" font-family="Helvetica,sans-Serif" font-size="10.00">/src/arkreactor/Compiler</text>
<text text-anchor="middle" x="1036" y="-230.5" font-family="Helvetica,sans-Serif" font-size="10.00">/Compiler.cpp</text>
</a>
</g>
</g>
<!-- Node3&#45;&gt;Node14 -->
<g id="edge14" class="edge">
<title>Node3&#45;&gt;Node14</title>
<path fill="none" stroke="midnightblue" d="M976.49,-369.26C976.54,-349.21 978.74,-322.58 988,-301 993.85,-287.35 1004.26,-274.57 1013.89,-264.68"/>
<polygon fill="midnightblue" stroke="midnightblue" points="972.99,-369.42 976.64,-379.36 979.99,-369.31 972.99,-369.42"/>
</g>
<!-- Node15 -->
<g id="node15" class="node">
<title>Node15</title>
<g id="a_node15"><a xlink:href="../../d6/d69/Processor_8cpp.html" target="_top" xlink:title=" ">
<polygon fill="white" stroke="black" points="997,-301.5 997,-342.5 1131,-342.5 1131,-301.5 997,-301.5"/>
<text text-anchor="start" x="1005" y="-330.5" font-family="Helvetica,sans-Serif" font-size="10.00">/home/fola/code/Ark</text>
<text text-anchor="start" x="1005" y="-319.5" font-family="Helvetica,sans-Serif" font-size="10.00">/src/arkreactor/Compiler</text>
<text text-anchor="middle" x="1064" y="-308.5" font-family="Helvetica,sans-Serif" font-size="10.00">/Macros/Processor.cpp</text>
</a>
</g>
</g>
<!-- Node3&#45;&gt;Node15 -->
<g id="edge15" class="edge">
<title>Node3&#45;&gt;Node15</title>
<path fill="none" stroke="midnightblue" d="M1007.67,-372.78C1018.91,-362.84 1031.51,-351.72 1041.93,-342.51"/>
<polygon fill="midnightblue" stroke="midnightblue" points="1005.32,-370.18 1000.15,-379.43 1009.96,-375.43 1005.32,-370.18"/>
</g>
<!-- Node5 -->
<g id="node5" class="node">
<title>Node5</title>
<g id="a_node5"><a xlink:href="../../d3/d7e/Ark_8hpp.html" target="_top" xlink:title="Includes the needed files to start using ArkScript.">
<polygon fill="white" stroke="black" points="894.5,-84 894.5,-114 1009.5,-114 1009.5,-84 894.5,-84"/>
<text text-anchor="start" x="902.5" y="-102" font-family="Helvetica,sans-Serif" font-size="10.00">/home/fola/code/Ark</text>
<text text-anchor="middle" x="952" y="-91" font-family="Helvetica,sans-Serif" font-size="10.00">/include/Ark/Ark.hpp</text>
</a>
</g>
</g>
<!-- Node4&#45;&gt;Node5 -->
<g id="edge4" class="edge">
<title>Node4&#45;&gt;Node5</title>
<path fill="none" stroke="midnightblue" d="M607.8,-157.64C690.46,-143.8 820.05,-122.1 894.4,-109.65"/>
<polygon fill="midnightblue" stroke="midnightblue" points="606.99,-154.23 597.71,-159.33 608.15,-161.13 606.99,-154.23"/>
</g>
<!-- Node8 -->
<g id="node8" class="node">
<title>Node8</title>
<g id="a_node8"><a xlink:href="../../d5/da5/Repl_8hpp.html" target="_top" xlink:title="ArkScript REPL &#45; Read Eval Print Loop.">
<polygon fill="white" stroke="black" points="1095.5,-84 1095.5,-114 1242.5,-114 1242.5,-84 1095.5,-84"/>
<text text-anchor="start" x="1103.5" y="-102" font-family="Helvetica,sans-Serif" font-size="10.00">/home/fola/code/Ark</text>
<text text-anchor="middle" x="1169" y="-91" font-family="Helvetica,sans-Serif" font-size="10.00">/include/Ark/REPL/Repl.hpp</text>
</a>
</g>
</g>
<!-- Node4&#45;&gt;Node8 -->
<g id="edge7" class="edge">
<title>Node4&#45;&gt;Node8</title>
<path fill="none" stroke="midnightblue" d="M607.99,-163.24C704.22,-154 873.94,-137.17 1019,-120 1043.92,-117.05 1071.12,-113.52 1095.43,-110.25"/>
<polygon fill="midnightblue" stroke="midnightblue" points="607.39,-159.78 597.77,-164.22 608.06,-166.75 607.39,-159.78"/>
</g>
<!-- Node10 -->
<g id="node10" class="node">
<title>Node10</title>
<g id="a_node10"><a xlink:href="../../d4/dc9/Future_8cpp.html" target="_top" xlink:title=" ">
<polygon fill="white" stroke="black" points="264,-84 264,-114 424,-114 424,-84 264,-84"/>
<text text-anchor="start" x="272" y="-102" font-family="Helvetica,sans-Serif" font-size="10.00">/home/fola/code/Ark</text>
<text text-anchor="middle" x="344" y="-91" font-family="Helvetica,sans-Serif" font-size="10.00">/src/arkreactor/VM/Future.cpp</text>
</a>
</g>
</g>
<!-- Node4&#45;&gt;Node10 -->
<g id="edge10" class="edge">
<title>Node4&#45;&gt;Node10</title>
<path fill="none" stroke="midnightblue" d="M484.08,-152.81C452.29,-140.83 410.87,-125.21 381.33,-114.07"/>
<polygon fill="midnightblue" stroke="midnightblue" points="483.02,-156.15 493.61,-156.4 485.48,-149.6 483.02,-156.15"/>
</g>
<!-- Node4&#45;&gt;Node11 -->
<g id="edge11" class="edge">
<title>Node4&#45;&gt;Node11</title>
<path fill="none" stroke="midnightblue" d="M454.3,-158.62C367.52,-145.17 227.47,-123.47 144.32,-110.59"/>
<polygon fill="midnightblue" stroke="midnightblue" points="453.93,-162.1 464.35,-160.17 455.01,-155.18 453.93,-162.1"/>
</g>
<!-- Node12 -->
<g id="node12" class="node">
<title>Node12</title>
<g id="a_node12"><a xlink:href="../../d2/d27/VM_8cpp.html" target="_top" xlink:title=" ">
<polygon fill="white" stroke="black" points="506.5,-84 506.5,-114 651.5,-114 651.5,-84 506.5,-84"/>
<text text-anchor="start" x="514.5" y="-102" font-family="Helvetica,sans-Serif" font-size="10.00">/home/fola/code/Ark</text>
<text text-anchor="middle" x="579" y="-91" font-family="Helvetica,sans-Serif" font-size="10.00">/src/arkreactor/VM/VM.cpp</text>
</a>
</g>
</g>
<!-- Node4&#45;&gt;Node12 -->
<g id="edge12" class="edge">
<title>Node4&#45;&gt;Node12</title>
<path fill="none" stroke="midnightblue" d="M546.4,-147.89C553.92,-136.84 562.73,-123.89 569.3,-114.25"/>
<polygon fill="midnightblue" stroke="midnightblue" points="543.45,-146 540.71,-156.23 549.23,-149.94 543.45,-146"/>
</g>
<!-- Node6 -->
<g id="node6" class="node">
<title>Node6</title>
<g id="a_node6"><a xlink:href="../../dc/d32/Ark_8cpp.html" target="_top" xlink:title=" ">
<polygon fill="white" stroke="black" points="853.5,-6 853.5,-36 980.5,-36 980.5,-6 853.5,-6"/>
<text text-anchor="start" x="861.5" y="-24" font-family="Helvetica,sans-Serif" font-size="10.00">/home/fola/code/Ark</text>
<text text-anchor="middle" x="917" y="-13" font-family="Helvetica,sans-Serif" font-size="10.00">/src/arkreactor/Ark.cpp</text>
</a>
</g>
</g>
<!-- Node5&#45;&gt;Node6 -->
<g id="edge5" class="edge">
<title>Node5&#45;&gt;Node6</title>
<path fill="none" stroke="midnightblue" d="M941.1,-74.33C935.35,-61.85 928.48,-46.94 923.55,-36.23"/>
<polygon fill="midnightblue" stroke="midnightblue" points="938.05,-76.09 945.42,-83.7 944.41,-73.16 938.05,-76.09"/>
</g>
<!-- Node7 -->
<g id="node7" class="node">
<title>Node7</title>
<g id="a_node7"><a xlink:href="../../df/d0a/main_8cpp.html" target="_top" xlink:title=" ">
<polygon fill="white" stroke="black" points="999,-6 999,-36 1127,-36 1127,-6 999,-6"/>
<text text-anchor="start" x="1007" y="-24" font-family="Helvetica,sans-Serif" font-size="10.00">/home/fola/code/Ark</text>
<text text-anchor="middle" x="1063" y="-13" font-family="Helvetica,sans-Serif" font-size="10.00">/src/arkscript/main.cpp</text>
</a>
</g>
</g>
<!-- Node5&#45;&gt;Node7 -->
<g id="edge6" class="edge">
<title>Node5&#45;&gt;Node7</title>
<path fill="none" stroke="midnightblue" d="M981.05,-78.11C1000.36,-64.89 1025.24,-47.86 1042.49,-36.04"/>
<polygon fill="midnightblue" stroke="midnightblue" points="978.89,-75.35 972.62,-83.88 982.85,-81.12 978.89,-75.35"/>
</g>
<!-- Node8&#45;&gt;Node7 -->
<g id="edge8" class="edge">
<title>Node8&#45;&gt;Node7</title>
<path fill="none" stroke="midnightblue" d="M1140.56,-77.61C1122.33,-64.54 1099.11,-47.89 1082.85,-36.23"/>
<polygon fill="midnightblue" stroke="midnightblue" points="1138.9,-80.72 1149.06,-83.7 1142.97,-75.03 1138.9,-80.72"/>
</g>
<!-- Node9 -->
<g id="node9" class="node">
<title>Node9</title>
<g id="a_node9"><a xlink:href="../../d7/d46/Repl_8cpp.html" target="_top" xlink:title=" ">
<polygon fill="white" stroke="black" points="1145.5,-0.5 1145.5,-41.5 1260.5,-41.5 1260.5,-0.5 1145.5,-0.5"/>
<text text-anchor="start" x="1153.5" y="-29.5" font-family="Helvetica,sans-Serif" font-size="10.00">/home/fola/code/Ark</text>
<text text-anchor="start" x="1153.5" y="-18.5" font-family="Helvetica,sans-Serif" font-size="10.00">/src/arkscript/REPL</text>
<text text-anchor="middle" x="1203" y="-7.5" font-family="Helvetica,sans-Serif" font-size="10.00">/Repl.cpp</text>
</a>
</g>
</g>
<!-- Node8&#45;&gt;Node9 -->
<g id="edge9" class="edge">
<title>Node8&#45;&gt;Node9</title>
<path fill="none" stroke="midnightblue" d="M1179.6,-74.31C1184.29,-63.83 1189.74,-51.65 1194.2,-41.68"/>
<polygon fill="midnightblue" stroke="midnightblue" points="1176.28,-73.15 1175.4,-83.7 1182.67,-76.01 1176.28,-73.15"/>
</g>
<!-- Node16&#45;&gt;Node3 -->
<g id="edge18" class="edge">
<title>Node16&#45;&gt;Node3</title>
<path fill="none" stroke="midnightblue" d="M1108.4,-453.53C1083.38,-443.45 1052.15,-430.87 1026.52,-420.55"/>
<polygon fill="midnightblue" stroke="midnightblue" points="1107.42,-456.91 1118.01,-457.4 1110.04,-450.42 1107.42,-456.91"/>
</g>
<!-- Node16&#45;&gt;Node5 -->
<g id="edge17" class="edge">
<title>Node16&#45;&gt;Node5</title>
<path fill="none" stroke="midnightblue" d="M1239.41,-468.78C1380.33,-463.54 1647.2,-449.89 1679,-421 1711.84,-391.17 1698,-367.37 1698,-323 1698,-323 1698,-323 1698,-243 1698,-225.5 1184.59,-138.62 1009.61,-109.52"/>
<polygon fill="midnightblue" stroke="midnightblue" points="1238.94,-465.3 1229.08,-469.16 1239.2,-472.29 1238.94,-465.3"/>
</g>
<!-- Node16&#45;&gt;Node15 -->
<g id="edge32" class="edge">
<title>Node16&#45;&gt;Node15</title>
<path fill="none" stroke="midnightblue" d="M1115.31,-451.91C1103.26,-443.88 1090.99,-433.5 1083,-421 1067.69,-397.05 1064.2,-363.57 1063.67,-342.59"/>
<polygon fill="midnightblue" stroke="midnightblue" points="1113.65,-455.01 1123.99,-457.35 1117.37,-449.07 1113.65,-455.01"/>
</g>
<!-- Node17 -->
<g id="node17" class="node">
<title>Node17</title>
<g id="a_node17"><a xlink:href="../../db/d93/Optimizer_8hpp.html" target="_top" xlink:title="Optimizes a given ArkScript AST.">
<polygon fill="white" stroke="black" points="1092,-379.5 1092,-420.5 1214,-420.5 1214,-379.5 1092,-379.5"/>
<text text-anchor="start" x="1100" y="-408.5" font-family="Helvetica,sans-Serif" font-size="10.00">/home/fola/code/Ark</text>
<text text-anchor="start" x="1100" y="-397.5" font-family="Helvetica,sans-Serif" font-size="10.00">/include/Ark/Compiler</text>
<text text-anchor="middle" x="1153" y="-386.5" font-family="Helvetica,sans-Serif" font-size="10.00">/AST/Optimizer.hpp</text>
</a>
</g>
</g>
<!-- Node16&#45;&gt;Node17 -->
<g id="edge19" class="edge">
<title>Node16&#45;&gt;Node17</title>
<path fill="none" stroke="midnightblue" d="M1153,-446.98C1153,-438.35 1153,-428.76 1153,-420.59"/>
<polygon fill="midnightblue" stroke="midnightblue" points="1149.5,-447.23 1153,-457.23 1156.5,-447.23 1149.5,-447.23"/>
</g>
<!-- Node22 -->
<g id="node22" class="node">
<title>Node22</title>
<g id="a_node22"><a xlink:href="../../d2/d15/Lexer_8cpp.html" target="_top" xlink:title=" ">
<polygon fill="white" stroke="black" points="1232,-379.5 1232,-420.5 1366,-420.5 1366,-379.5 1232,-379.5"/>
<text text-anchor="start" x="1240" y="-408.5" font-family="Helvetica,sans-Serif" font-size="10.00">/home/fola/code/Ark</text>
<text text-anchor="start" x="1240" y="-397.5" font-family="Helvetica,sans-Serif" font-size="10.00">/src/arkreactor/Compiler</text>
<text text-anchor="middle" x="1299" y="-386.5" font-family="Helvetica,sans-Serif" font-size="10.00">/AST/Lexer.cpp</text>
</a>
</g>
</g>
<!-- Node16&#45;&gt;Node22 -->
<g id="edge29" class="edge">
<title>Node16&#45;&gt;Node22</title>
<path fill="none" stroke="midnightblue" d="M1191.32,-453C1212,-443.01 1237.52,-430.69 1258.52,-420.55"/>
<polygon fill="midnightblue" stroke="midnightblue" points="1189.68,-449.9 1182.19,-457.4 1192.72,-456.21 1189.68,-449.9"/>
</g>
<!-- Node23 -->
<g id="node23" class="node">
<title>Node23</title>
<g id="a_node23"><a xlink:href="../../dc/d73/Node_8cpp.html" target="_top" xlink:title=" ">
<polygon fill="white" stroke="black" points="1384,-379.5 1384,-420.5 1518,-420.5 1518,-379.5 1384,-379.5"/>
<text text-anchor="start" x="1392" y="-408.5" font-family="Helvetica,sans-Serif" font-size="10.00">/home/fola/code/Ark</text>
<text text-anchor="start" x="1392" y="-397.5" font-family="Helvetica,sans-Serif" font-size="10.00">/src/arkreactor/Compiler</text>
<text text-anchor="middle" x="1451" y="-386.5" font-family="Helvetica,sans-Serif" font-size="10.00">/AST/Node.cpp</text>
</a>
</g>
</g>
<!-- Node16&#45;&gt;Node23 -->
<g id="edge30" class="edge">
<title>Node16&#45;&gt;Node23</title>
<path fill="none" stroke="midnightblue" d="M1227.12,-455.29C1270.34,-445.68 1325.85,-433.05 1375,-421 1377.92,-420.29 1380.89,-419.55 1383.89,-418.79"/>
<polygon fill="midnightblue" stroke="midnightblue" points="1226.26,-451.9 1217.25,-457.48 1227.77,-458.73 1226.26,-451.9"/>
</g>
<!-- Node24 -->
<g id="node24" class="node">
<title>Node24</title>
<g id="a_node24"><a xlink:href="../../dc/df5/Parser_8cpp.html" target="_top" xlink:title=" ">
<polygon fill="white" stroke="black" points="1536,-379.5 1536,-420.5 1670,-420.5 1670,-379.5 1536,-379.5"/>
<text text-anchor="start" x="1544" y="-408.5" font-family="Helvetica,sans-Serif" font-size="10.00">/home/fola/code/Ark</text>
<text text-anchor="start" x="1544" y="-397.5" font-family="Helvetica,sans-Serif" font-size="10.00">/src/arkreactor/Compiler</text>
<text text-anchor="middle" x="1603" y="-386.5" font-family="Helvetica,sans-Serif" font-size="10.00">/AST/Parser.cpp</text>
</a>
</g>
</g>
<!-- Node16&#45;&gt;Node24 -->
<g id="edge31" class="edge">
<title>Node16&#45;&gt;Node24</title>
<path fill="none" stroke="midnightblue" d="M1239.04,-462.93C1315.17,-454.62 1429.05,-440.42 1527,-421 1529.94,-420.42 1532.94,-419.78 1535.97,-419.12"/>
<polygon fill="midnightblue" stroke="midnightblue" points="1238.59,-459.46 1229.02,-464.01 1239.34,-466.41 1238.59,-459.46"/>
</g>
<!-- Node25 -->
<g id="node25" class="node">
<title>Node25</title>
<g id="a_node25"><a xlink:href="../../d6/d9a/TypeChecker_8cpp.html" target="_top" xlink:title=" ">
<polygon fill="white" stroke="black" points="692.5,-385 692.5,-415 863.5,-415 863.5,-385 692.5,-385"/>
<text text-anchor="start" x="700.5" y="-403" font-family="Helvetica,sans-Serif" font-size="10.00">/home/fola/code/Ark</text>
<text text-anchor="middle" x="778" y="-392" font-family="Helvetica,sans-Serif" font-size="10.00">/src/arkreactor/TypeChecker.cpp</text>
</a>
</g>
</g>
<!-- Node16&#45;&gt;Node25 -->
<g id="edge33" class="edge">
<title>Node16&#45;&gt;Node25</title>
<path fill="none" stroke="midnightblue" d="M1068.27,-455.57C1003.45,-443.38 914.91,-426.74 852.72,-415.05"/>
<polygon fill="midnightblue" stroke="midnightblue" points="1067.99,-459.08 1078.46,-457.49 1069.28,-452.2 1067.99,-459.08"/>
</g>
<!-- Node18 -->
<g id="node18" class="node">
<title>Node18</title>
<g id="a_node18"><a xlink:href="../../d8/d0f/Compiler_8hpp.html" target="_top" xlink:title="ArkScript compiler is in charge of transforming the AST into bytecode.">
<polygon fill="white" stroke="black" points="1149,-301.5 1149,-342.5 1271,-342.5 1271,-301.5 1149,-301.5"/>
<text text-anchor="start" x="1157" y="-330.5" font-family="Helvetica,sans-Serif" font-size="10.00">/home/fola/code/Ark</text>
<text text-anchor="start" x="1157" y="-319.5" font-family="Helvetica,sans-Serif" font-size="10.00">/include/Ark/Compiler</text>
<text text-anchor="middle" x="1210" y="-308.5" font-family="Helvetica,sans-Serif" font-size="10.00">/Compiler.hpp</text>
</a>
</g>
</g>
<!-- Node17&#45;&gt;Node18 -->
<g id="edge20" class="edge">
<title>Node17&#45;&gt;Node18</title>
<path fill="none" stroke="midnightblue" d="M1173.75,-371.34C1180.92,-361.78 1188.8,-351.27 1195.37,-342.51"/>
<polygon fill="midnightblue" stroke="midnightblue" points="1170.88,-369.33 1167.68,-379.43 1176.48,-373.53 1170.88,-369.33"/>
</g>
<!-- Node21 -->
<g id="node21" class="node">
<title>Node21</title>
<g id="a_node21"><a xlink:href="../../d2/dc5/Optimizer_8cpp.html" target="_top" xlink:title=" ">
<polygon fill="white" stroke="black" points="1289,-301.5 1289,-342.5 1423,-342.5 1423,-301.5 1289,-301.5"/>
<text text-anchor="start" x="1297" y="-330.5" font-family="Helvetica,sans-Serif" font-size="10.00">/home/fola/code/Ark</text>
<text text-anchor="start" x="1297" y="-319.5" font-family="Helvetica,sans-Serif" font-size="10.00">/src/arkreactor/Compiler</text>
<text text-anchor="middle" x="1356" y="-308.5" font-family="Helvetica,sans-Serif" font-size="10.00">/AST/Optimizer.cpp</text>
</a>
</g>
</g>
<!-- Node17&#45;&gt;Node21 -->
<g id="edge28" class="edge">
<title>Node17&#45;&gt;Node21</title>
<path fill="none" stroke="midnightblue" d="M1214.74,-375.89C1243.23,-365.22 1276.7,-352.69 1303.9,-342.51"/>
<polygon fill="midnightblue" stroke="midnightblue" points="1213.42,-372.64 1205.28,-379.43 1215.87,-379.2 1213.42,-372.64"/>
</g>
<!-- Node18&#45;&gt;Node5 -->
<g id="edge21" class="edge">
<title>Node18&#45;&gt;Node5</title>
<path fill="none" stroke="midnightblue" d="M1184.95,-294.12C1165.66,-273.87 1137.98,-245.8 1112,-223 1063.94,-180.82 1003.09,-136.27 972.11,-114.16"/>
<polygon fill="midnightblue" stroke="midnightblue" points="1182.49,-296.61 1191.91,-301.47 1187.58,-291.8 1182.49,-296.61"/>
</g>
<!-- Node18&#45;&gt;Node8 -->
<g id="edge22" class="edge">
<title>Node18&#45;&gt;Node8</title>
<path fill="none" stroke="midnightblue" d="M1204.49,-291.28C1195.55,-243.1 1178.23,-149.78 1171.64,-114.23"/>
<polygon fill="midnightblue" stroke="midnightblue" points="1201.1,-292.19 1206.36,-301.39 1207.98,-290.92 1201.1,-292.19"/>
</g>
<!-- Node18&#45;&gt;Node14 -->
<g id="edge27" class="edge">
<title>Node18&#45;&gt;Node14</title>
<path fill="none" stroke="midnightblue" d="M1155.81,-297.33C1131.66,-286.78 1103.57,-274.51 1080.66,-264.51"/>
<polygon fill="midnightblue" stroke="midnightblue" points="1154.63,-300.63 1165.19,-301.43 1157.43,-294.22 1154.63,-300.63"/>
</g>
<!-- Node18&#45;&gt;Node19 -->
<g id="edge23" class="edge">
<title>Node18&#45;&gt;Node19</title>
<path fill="none" stroke="midnightblue" d="M1138.95,-300.84C1058.98,-281.83 1036.51,-282.09 960,-265 951.8,-263.17 943.16,-261.14 934.7,-259.1"/>
<polygon fill="midnightblue" stroke="midnightblue" points="1138.45,-304.32 1148.99,-303.26 1140.09,-297.51 1138.45,-304.32"/>
</g>
<!-- Node19&#45;&gt;Node4 -->
<g id="edge25" class="edge">
<title>Node19&#45;&gt;Node4</title>
<path fill="none" stroke="midnightblue" d="M809.7,-226.64C804.06,-225.38 798.44,-224.16 793,-223 726.73,-208.91 650.67,-194.44 597.63,-184.62"/>
<polygon fill="midnightblue" stroke="midnightblue" points="809.32,-230.15 819.85,-228.93 810.86,-223.32 809.32,-230.15"/>
</g>
<!-- Node19&#45;&gt;Node8 -->
<g id="edge24" class="edge">
<title>Node19&#45;&gt;Node8</title>
<path fill="none" stroke="midnightblue" d="M916.9,-224.31C975.68,-195.33 1087.5,-140.19 1140.19,-114.21"/>
<polygon fill="midnightblue" stroke="midnightblue" points="915.02,-221.34 907.6,-228.9 918.12,-227.61 915.02,-221.34"/>
</g>
<!-- Node20 -->
<g id="node20" class="node">
<title>Node20</title>
<g id="a_node20"><a xlink:href="../../d0/da0/State_8cpp.html" target="_top" xlink:title=" ">
<polygon fill="white" stroke="black" points="801.5,-156.5 801.5,-186.5 956.5,-186.5 956.5,-156.5 801.5,-156.5"/>
<text text-anchor="start" x="809.5" y="-174.5" font-family="Helvetica,sans-Serif" font-size="10.00">/home/fola/code/Ark</text>
<text text-anchor="middle" x="879" y="-163.5" font-family="Helvetica,sans-Serif" font-size="10.00">/src/arkreactor/VM/State.cpp</text>
</a>
</g>
</g>
<!-- Node19&#45;&gt;Node20 -->
<g id="edge26" class="edge">
<title>Node19&#45;&gt;Node20</title>
<path fill="none" stroke="midnightblue" d="M879,-218.73C879,-208.07 879,-195.91 879,-186.75"/>
<polygon fill="midnightblue" stroke="midnightblue" points="875.5,-218.73 879,-228.73 882.5,-218.73 875.5,-218.73"/>
</g>
<!-- Node26&#45;&gt;Node5 -->
<g id="edge35" class="edge">
<title>Node26&#45;&gt;Node5</title>
<path fill="none" stroke="midnightblue" d="M686.87,-447.7C677.69,-418.63 664,-367.8 664,-323 664,-323 664,-323 664,-243 664,-141.12 810.37,-111.82 894.41,-103.4"/>
<polygon fill="midnightblue" stroke="midnightblue" points="683.6,-448.94 690.02,-457.37 690.25,-446.78 683.6,-448.94"/>
</g>
<!-- Node26&#45;&gt;Node12 -->
<g id="edge37" class="edge">
<title>Node26&#45;&gt;Node12</title>
<path fill="none" stroke="midnightblue" d="M671.57,-449.94C663.7,-441.59 655.52,-431.5 650,-421 629.13,-381.31 626,-367.84 626,-323 626,-323 626,-323 626,-243 626,-203.42 620.17,-193.32 607,-156 601.79,-141.24 593.58,-125.37 587.4,-114.3"/>
<polygon fill="midnightblue" stroke="midnightblue" points="669.11,-452.43 678.63,-457.09 674.1,-447.52 669.11,-452.43"/>
</g>
<!-- Node26&#45;&gt;Node25 -->
<g id="edge36" class="edge">
<title>Node26&#45;&gt;Node25</title>
<path fill="none" stroke="midnightblue" d="M719.77,-450.46C733.26,-439 749.58,-425.14 761.51,-415"/>
<polygon fill="midnightblue" stroke="midnightblue" points="717.15,-448.09 711.8,-457.23 721.68,-453.43 717.15,-448.09"/>
</g>
<!-- Node27&#45;&gt;Node4 -->
<g id="edge42" class="edge">
<title>Node27&#45;&gt;Node4</title>
<path fill="none" stroke="midnightblue" d="M469.53,-297.54C484.81,-266.46 511.29,-212.59 523.91,-186.91"/>
<polygon fill="midnightblue" stroke="midnightblue" points="466.27,-296.24 465,-306.76 472.55,-299.33 466.27,-296.24"/>
</g>
<!-- Node27&#45;&gt;Node28 -->
<g id="edge39" class="edge">
<title>Node27&#45;&gt;Node28</title>
<path fill="none" stroke="midnightblue" d="M405.57,-303.83C364.32,-290.31 307.56,-271.72 268.97,-259.07"/>
<polygon fill="midnightblue" stroke="midnightblue" points="404.58,-307.18 415.18,-306.97 406.76,-300.53 404.58,-307.18"/>
</g>
<!-- Node28&#45;&gt;Node4 -->
<g id="edge40" class="edge">
<title>Node28&#45;&gt;Node4</title>
<path fill="none" stroke="midnightblue" d="M296.55,-226.69C349.12,-214.54 420.17,-198.12 470.23,-186.55"/>
<polygon fill="midnightblue" stroke="midnightblue" points="295.58,-223.32 286.62,-228.99 297.15,-230.15 295.58,-223.32"/>
</g>
<!-- Node28&#45;&gt;Node10 -->
<g id="edge41" class="edge">
<title>Node28&#45;&gt;Node10</title>
<path fill="none" stroke="midnightblue" d="M244.14,-221.02C268.65,-191.31 311.66,-139.19 332.3,-114.18"/>
<polygon fill="midnightblue" stroke="midnightblue" points="241.41,-218.83 237.75,-228.77 246.81,-223.28 241.41,-218.83"/>
</g>
<!-- Node29&#45;&gt;Node4 -->
<g id="edge46" class="edge">
<title>Node29&#45;&gt;Node4</title>
<path fill="none" stroke="midnightblue" d="M288.61,-376.32C301.87,-355.34 323.44,-324 347,-301 397.32,-251.87 468.16,-208.14 505.56,-186.62"/>
<polygon fill="midnightblue" stroke="midnightblue" points="285.58,-374.56 283.28,-384.9 291.53,-378.25 285.58,-374.56"/>
</g>
<!-- Node29&#45;&gt;Node11 -->
<g id="edge48" class="edge">
<title>Node29&#45;&gt;Node11</title>
<path fill="none" stroke="midnightblue" d="M192.75,-381.57C170.62,-373.24 148.54,-360.98 133,-343 76.04,-277.11 73.39,-164.88 74.88,-119.7"/>
<polygon fill="midnightblue" stroke="midnightblue" points="191.63,-384.89 202.22,-384.91 193.96,-378.28 191.63,-384.89"/>
</g>
<!-- Node29&#45;&gt;Node27 -->
<g id="edge45" class="edge">
<title>Node29&#45;&gt;Node27</title>
<path fill="none" stroke="midnightblue" d="M318.23,-381.05C350.62,-367.59 394.33,-349.44 424.19,-337.04"/>
<polygon fill="midnightblue" stroke="midnightblue" points="316.88,-377.82 308.99,-384.88 319.57,-384.28 316.88,-377.82"/>
</g>
<!-- Node30 -->
<g id="node30" class="node">
<title>Node30</title>
<g id="a_node30"><a xlink:href="../../d5/d04/Scope_8cpp.html" target="_top" xlink:title=" ">
<polygon fill="white" stroke="black" points="142,-307 142,-337 300,-337 300,-307 142,-307"/>
<text text-anchor="start" x="150" y="-325" font-family="Helvetica,sans-Serif" font-size="10.00">/home/fola/code/Ark</text>
<text text-anchor="middle" x="221" y="-314" font-family="Helvetica,sans-Serif" font-size="10.00">/src/arkreactor/VM/Scope.cpp</text>
</a>
</g>
</g>
<!-- Node29&#45;&gt;Node30 -->
<g id="edge47" class="edge">
<title>Node29&#45;&gt;Node30</title>
<path fill="none" stroke="midnightblue" d="M258.97,-376.44C249.94,-363.73 238.94,-348.25 231.11,-337.23"/>
<polygon fill="midnightblue" stroke="midnightblue" points="256.2,-378.58 264.84,-384.7 261.9,-374.53 256.2,-378.58"/>
</g>
</g>
</svg>
