<?xml version="1.0" encoding="UTF-8" standalone="no"?>
<!DOCTYPE svg PUBLIC "-//W3C//DTD SVG 1.1//EN"
 "http://www.w3.org/Graphics/SVG/1.1/DTD/svg11.dtd">
<!-- Generated by graphviz version 2.49.0 (20210828.1703)
 -->
<!-- Title: Ark::internal::MacroProcessor Pages: 1 -->
<svg width="198pt" height="254pt"
 viewBox="0.00 0.00 198.00 254.00" xmlns="http://www.w3.org/2000/svg" xmlns:xlink="http://www.w3.org/1999/xlink">
<g id="graph0" class="graph" transform="scale(1 1) rotate(0) translate(4 250)">
<title>Ark::internal::MacroProcessor</title>
<polygon fill="white" stroke="transparent" points="-4,4 -4,-250 194,-250 194,4 -4,4"/>
<!-- Node1 -->
<g id="node1" class="node">
<title>Node1</title>
<g id="a_node1"><a xlink:title="The class handling the macros definitions and calls, given an AST.">
<polygon fill="#bfbfbf" stroke="black" points="0,-0.5 0,-19.5 146,-19.5 146,-0.5 0,-0.5"/>
<text text-anchor="middle" x="73" y="-7.5" font-family="Helvetica,sans-Serif" font-size="10.00">Ark::internal::MacroProcessor</text>
</a>
</g>
</g>
<!-- Node2 -->
<g id="node2" class="node">
<title>Node2</title>
<g id="a_node2"><a xlink:href="../../dc/d9e/classArk_1_1internal_1_1Node.html" target="_top" xlink:title="A node of an Abstract Syntax Tree for ArkScript.">
<polygon fill="white" stroke="black" points="24,-79.5 24,-98.5 122,-98.5 122,-79.5 24,-79.5"/>
<text text-anchor="middle" x="73" y="-86.5" font-family="Helvetica,sans-Serif" font-size="10.00">Ark::internal::Node</text>
</a>
</g>
</g>
<!-- Node2&#45;&gt;Node1 -->
<g id="edge1" class="edge">
<title>Node2&#45;&gt;Node1</title>
<path fill="none" stroke="#9a32cd" stroke-dasharray="5,2" d="M73,-69.31C73,-53.59 73,-31.81 73,-19.81"/>
<polygon fill="#9a32cd" stroke="#9a32cd" points="69.5,-69.47 73,-79.47 76.5,-69.47 69.5,-69.47"/>
<text text-anchor="middle" x="88.5" y="-41" font-family="Helvetica,sans-Serif" font-size="10.00"> m_ast</text>
</g>
<!-- Node2&#45;&gt;Node2 -->
<g id="edge2" class="edge">
<title>Node2&#45;&gt;Node2</title>
<path fill="none" stroke="#9a32cd" stroke-dasharray="5,2" d="M131.96,-95.39C136.92,-94.02 140,-91.89 140,-89 140,-84.49 132.49,-81.83 122.08,-81.02"/>
<polygon fill="#9a32cd" stroke="#9a32cd" points="131.4,-91.94 122.08,-96.98 132.51,-98.85 131.4,-91.94"/>
<text text-anchor="middle" x="165" y="-103" font-family="Helvetica,sans-Serif" font-size="10.00"> FalseNode</text>
<text text-anchor="middle" x="165" y="-92" font-family="Helvetica,sans-Serif" font-size="10.00">ListNode</text>
<text text-anchor="middle" x="165" y="-81" font-family="Helvetica,sans-Serif" font-size="10.00">NilNode</text>
<text text-anchor="middle" x="165" y="-70" font-family="Helvetica,sans-Serif" font-size="10.00">TrueNode</text>
</g>
<!-- Node3 -->
<g id="node3" class="node">
<title>Node3</title>
<g id="a_node3"><a xlink:title=" ">
<polygon fill="white" stroke="#bfbfbf" points="43,-158.5 43,-177.5 103,-177.5 103,-158.5 43,-158.5"/>
<text text-anchor="middle" x="73" y="-165.5" font-family="Helvetica,sans-Serif" font-size="10.00">std::string</text>
</a>
</g>
</g>
<!-- Node3&#45;&gt;Node2 -->
<g id="edge3" class="edge">
<title>Node3&#45;&gt;Node2</title>
<path fill="none" stroke="#9a32cd" stroke-dasharray="5,2" d="M73,-148.31C73,-132.59 73,-110.81 73,-98.81"/>
<polygon fill="#9a32cd" stroke="#9a32cd" points="69.5,-148.47 73,-158.47 76.5,-148.47 69.5,-148.47"/>
<text text-anchor="middle" x="99.5" y="-132" font-family="Helvetica,sans-Serif" font-size="10.00"> m_filename</text>
</g>
<!-- Node4 -->
<g id="node4" class="node">
<title>Node4</title>
<g id="a_node4"><a xlink:title=" ">
<polygon fill="white" stroke="#bfbfbf" points="25.5,-215.5 25.5,-245.5 120.5,-245.5 120.5,-215.5 25.5,-215.5"/>
<text text-anchor="start" x="33.5" y="-233.5" font-family="Helvetica,sans-Serif" font-size="10.00">std::basic_string&lt;</text>
<text text-anchor="middle" x="73" y="-222.5" font-family="Helvetica,sans-Serif" font-size="10.00"> Char &gt;</text>
</a>
</g>
</g>
<!-- Node4&#45;&gt;Node3 -->
<g id="edge4" class="edge">
<title>Node4&#45;&gt;Node3</title>
<path fill="none" stroke="midnightblue" d="M73,-205.35C73,-195.51 73,-184.78 73,-177.54"/>
<polygon fill="midnightblue" stroke="midnightblue" points="69.5,-205.47 73,-215.47 76.5,-205.47 69.5,-205.47"/>
</g>
</g>
</svg>
