<?xml version="1.0" encoding="UTF-8" standalone="no"?>
<!DOCTYPE svg PUBLIC "-//W3C//DTD SVG 1.1//EN"
 "http://www.w3.org/Graphics/SVG/1.1/DTD/svg11.dtd">
<!-- Generated by graphviz version 12.1.1 (20240910.0053)
 -->
<!-- Title: /Users/fola/Documents/ArkScript/Ark/include/Ark/Compiler/ValTableElem.hpp Pages: 1 -->
<svg width="455pt" height="216pt"
 viewBox="0.00 0.00 454.51 215.50" xmlns="http://www.w3.org/2000/svg" xmlns:xlink="http://www.w3.org/1999/xlink">
<g id="graph0" class="graph" transform="scale(1 1) rotate(0) translate(4 211.5)">
<title>/Users/fola/Documents/ArkScript/Ark/include/Ark/Compiler/ValTableElem.hpp</title>
<!-- Node1 -->
<g id="Node000001" class="node">
<title>Node1</title>
<g id="a_Node000001"><a xlink:title="The basic value type handled by the compiler.">
<polygon fill="#999999" stroke="#666666" points="162.12,-207.5 5.12,-207.5 5.12,-165.75 162.12,-165.75 162.12,-207.5"/>
<text text-anchor="start" x="13.12" y="-194" font-family="Helvetica,sans-Serif" font-size="10.00">/Users/fola/Documents</text>
<text text-anchor="start" x="13.12" y="-182.75" font-family="Helvetica,sans-Serif" font-size="10.00">/ArkScript/Ark/include</text>
<text text-anchor="middle" x="83.62" y="-171.5" font-family="Helvetica,sans-Serif" font-size="10.00">/Ark/Compiler/ValTableElem.hpp</text>
</a>
</g>
</g>
<!-- Node2 -->
<g id="Node000002" class="node">
<title>Node2</title>
<g id="a_Node000002"><a xlink:title=" ">
<polygon fill="#e0e0e0" stroke="#999999" points="45.25,-74.5 0,-74.5 0,-55.25 45.25,-55.25 45.25,-74.5"/>
<text text-anchor="middle" x="22.62" y="-61" font-family="Helvetica,sans-Serif" font-size="10.00">variant</text>
</a>
</g>
</g>
<!-- Node1&#45;&gt;Node2 -->
<g id="edge1_Node000001_Node000002" class="edge">
<title>Node1&#45;&gt;Node2</title>
<g id="a_edge1_Node000001_Node000002"><a xlink:title=" ">
<path fill="none" stroke="#63b8ff" d="M73.28,-165.31C61.81,-142.81 43.48,-106.81 32.3,-84.86"/>
<polygon fill="#63b8ff" stroke="#63b8ff" points="35.52,-83.48 27.86,-76.15 29.28,-86.65 35.52,-83.48"/>
</a>
</g>
</g>
<!-- Node3 -->
<g id="Node000003" class="node">
<title>Node3</title>
<g id="a_Node000003"><a xlink:title=" ">
<polygon fill="#e0e0e0" stroke="#999999" points="103.62,-74.5 63.62,-74.5 63.62,-55.25 103.62,-55.25 103.62,-74.5"/>
<text text-anchor="middle" x="83.62" y="-61" font-family="Helvetica,sans-Serif" font-size="10.00">string</text>
</a>
</g>
</g>
<!-- Node1&#45;&gt;Node3 -->
<g id="edge2_Node000001_Node000003" class="edge">
<title>Node1&#45;&gt;Node3</title>
<g id="a_edge2_Node000001_Node000003"><a xlink:title=" ">
<path fill="none" stroke="#63b8ff" d="M83.62,-165.31C83.62,-143.22 83.62,-108.13 83.62,-86.08"/>
<polygon fill="#63b8ff" stroke="#63b8ff" points="87.13,-86.32 83.63,-76.32 80.13,-86.32 87.13,-86.32"/>
</a>
</g>
</g>
<!-- Node4 -->
<g id="Node000004" class="node">
<title>Node4</title>
<g id="a_Node000004"><a xlink:href="../../d7/dc6/Node_8hpp.html" target="_top" xlink:title="AST node used by the parser, optimizer and compiler.">
<polygon fill="white" stroke="#666666" points="258.88,-129.75 118.38,-129.75 118.38,-110.5 258.88,-110.5 258.88,-129.75"/>
<text text-anchor="middle" x="188.62" y="-116.25" font-family="Helvetica,sans-Serif" font-size="10.00">Ark/Compiler/AST/Node.hpp</text>
</a>
</g>
</g>
<!-- Node1&#45;&gt;Node4 -->
<g id="edge3_Node000001_Node000004" class="edge">
<title>Node1&#45;&gt;Node4</title>
<g id="a_edge3_Node000001_Node000004"><a xlink:title=" ">
<path fill="none" stroke="#63b8ff" d="M116.56,-165.39C132.05,-155.88 150.18,-144.74 164.39,-136.01"/>
<polygon fill="#63b8ff" stroke="#63b8ff" points="165.96,-139.15 172.65,-130.94 162.3,-133.19 165.96,-139.15"/>
</a>
</g>
</g>
<!-- Node4&#45;&gt;Node2 -->
<g id="edge4_Node000004_Node000002" class="edge">
<title>Node4&#45;&gt;Node2</title>
<g id="a_edge4_Node000004_Node000002"><a xlink:title=" ">
<path fill="none" stroke="#63b8ff" d="M160.47,-110.09C131.63,-100.84 86.81,-86.47 56.16,-76.63"/>
<polygon fill="#63b8ff" stroke="#63b8ff" points="57.6,-73.42 47.01,-73.7 55.46,-80.08 57.6,-73.42"/>
</a>
</g>
</g>
<!-- Node4&#45;&gt;Node3 -->
<g id="edge6_Node000004_Node000003" class="edge">
<title>Node4&#45;&gt;Node3</title>
<g id="a_edge6_Node000004_Node000003"><a xlink:title=" ">
<path fill="none" stroke="#63b8ff" d="M170.81,-110.09C154.6,-101.87 130.39,-89.59 111.59,-80.06"/>
<polygon fill="#63b8ff" stroke="#63b8ff" points="113.38,-77.04 102.87,-75.64 110.21,-83.28 113.38,-77.04"/>
</a>
</g>
</g>
<!-- Node5 -->
<g id="Node000005" class="node">
<title>Node5</title>
<g id="a_Node000005"><a xlink:title=" ">
<polygon fill="#e0e0e0" stroke="#999999" points="432.25,-74.5 381,-74.5 381,-55.25 432.25,-55.25 432.25,-74.5"/>
<text text-anchor="middle" x="406.62" y="-61" font-family="Helvetica,sans-Serif" font-size="10.00">ostream</text>
</a>
</g>
</g>
<!-- Node4&#45;&gt;Node5 -->
<g id="edge5_Node000004_Node000005" class="edge">
<title>Node4&#45;&gt;Node5</title>
<g id="a_edge5_Node000004_Node000005"><a xlink:title=" ">
<path fill="none" stroke="#63b8ff" d="M226.71,-110.01C261.62,-101.63 315.02,-88.74 369.7,-75.21"/>
<polygon fill="#63b8ff" stroke="#63b8ff" points="370.31,-78.66 379.17,-72.86 368.63,-71.87 370.31,-78.66"/>
</a>
</g>
</g>
<!-- Node6 -->
<g id="Node000006" class="node">
<title>Node6</title>
<g id="a_Node000006"><a xlink:title=" ">
<polygon fill="#e0e0e0" stroke="#999999" points="407.12,-19.25 364.12,-19.25 364.12,0 407.12,0 407.12,-19.25"/>
<text text-anchor="middle" x="385.62" y="-5.75" font-family="Helvetica,sans-Serif" font-size="10.00">vector</text>
</a>
</g>
</g>
<!-- Node4&#45;&gt;Node6 -->
<g id="edge7_Node000004_Node000006" class="edge">
<title>Node4&#45;&gt;Node6</title>
<g id="a_edge7_Node000004_Node000006"><a xlink:title=" ">
<path fill="none" stroke="#63b8ff" d="M259.31,-116.52C325.89,-112.4 418.73,-101.79 441.62,-74.5 455.96,-57.41 433.81,-38.22 413.28,-25.37"/>
<polygon fill="#63b8ff" stroke="#63b8ff" points="415.2,-22.44 404.81,-20.38 411.65,-28.47 415.2,-22.44"/>
</a>
</g>
</g>
<!-- Node7 -->
<g id="Node000007" class="node">
<title>Node7</title>
<g id="a_Node000007"><a xlink:href="../../d8/ddd/Common_8hpp.html" target="_top" xlink:title="Common code for the compiler.">
<polygon fill="white" stroke="#666666" points="255.88,-74.5 121.38,-74.5 121.38,-55.25 255.88,-55.25 255.88,-74.5"/>
<text text-anchor="middle" x="188.62" y="-61" font-family="Helvetica,sans-Serif" font-size="10.00">Ark/Compiler/Common.hpp</text>
</a>
</g>
</g>
<!-- Node4&#45;&gt;Node7 -->
<g id="edge8_Node000004_Node000007" class="edge">
<title>Node4&#45;&gt;Node7</title>
<g id="a_edge8_Node000004_Node000007"><a xlink:title=" ">
<path fill="none" stroke="#63b8ff" d="M188.62,-110.33C188.62,-103.82 188.62,-94.67 188.62,-86.37"/>
<polygon fill="#63b8ff" stroke="#63b8ff" points="192.13,-86.37 188.63,-76.37 185.13,-86.37 192.13,-86.37"/>
</a>
</g>
</g>
<!-- Node11 -->
<g id="Node000011" class="node">
<title>Node11</title>
<g id="a_Node000011"><a xlink:href="../../d5/d40/Platform_8hpp.html" target="_top" xlink:title="ArkScript configuration macros.">
<polygon fill="white" stroke="#666666" points="363.38,-74.5 273.88,-74.5 273.88,-55.25 363.38,-55.25 363.38,-74.5"/>
<text text-anchor="middle" x="318.62" y="-61" font-family="Helvetica,sans-Serif" font-size="10.00">Ark/Platform.hpp</text>
</a>
</g>
</g>
<!-- Node4&#45;&gt;Node11 -->
<g id="edge13_Node000004_Node000011" class="edge">
<title>Node4&#45;&gt;Node11</title>
<g id="a_edge13_Node000004_Node000011"><a xlink:title=" ">
<path fill="none" stroke="#63b8ff" d="M210.68,-110.09C231.31,-101.64 262.41,-88.9 285.93,-79.27"/>
<polygon fill="#63b8ff" stroke="#63b8ff" points="287.14,-82.56 295.06,-75.53 284.48,-76.08 287.14,-82.56"/>
</a>
</g>
</g>
<!-- Node7&#45;&gt;Node6 -->
<g id="edge11_Node000007_Node000006" class="edge">
<title>Node7&#45;&gt;Node6</title>
<g id="a_edge11_Node000007_Node000006"><a xlink:title=" ">
<path fill="none" stroke="#63b8ff" d="M222.04,-54.84C258.5,-44.99 316.47,-29.32 352.72,-19.52"/>
<polygon fill="#63b8ff" stroke="#63b8ff" points="353.47,-22.94 362.21,-16.95 351.64,-16.18 353.47,-22.94"/>
</a>
</g>
</g>
<!-- Node8 -->
<g id="Node000008" class="node">
<title>Node8</title>
<g id="a_Node000008"><a xlink:title=" ">
<polygon fill="#e0e0e0" stroke="#999999" points="272.5,-19.25 234.75,-19.25 234.75,0 272.5,0 272.5,-19.25"/>
<text text-anchor="middle" x="253.62" y="-5.75" font-family="Helvetica,sans-Serif" font-size="10.00">array</text>
</a>
</g>
</g>
<!-- Node7&#45;&gt;Node8 -->
<g id="edge9_Node000007_Node000008" class="edge">
<title>Node7&#45;&gt;Node8</title>
<g id="a_edge9_Node000007_Node000008"><a xlink:title=" ">
<path fill="none" stroke="#63b8ff" d="M199.65,-54.84C209.05,-47.15 222.77,-35.9 234.03,-26.68"/>
<polygon fill="#63b8ff" stroke="#63b8ff" points="236.07,-29.53 241.59,-20.48 231.64,-24.11 236.07,-29.53"/>
</a>
</g>
</g>
<!-- Node9 -->
<g id="Node000009" class="node">
<title>Node9</title>
<g id="a_Node000009"><a xlink:title=" ">
<polygon fill="#e0e0e0" stroke="#999999" points="142.38,-19.25 76.88,-19.25 76.88,0 142.38,0 142.38,-19.25"/>
<text text-anchor="middle" x="109.62" y="-5.75" font-family="Helvetica,sans-Serif" font-size="10.00">string_view</text>
</a>
</g>
</g>
<!-- Node7&#45;&gt;Node9 -->
<g id="edge10_Node000007_Node000009" class="edge">
<title>Node7&#45;&gt;Node9</title>
<g id="a_edge10_Node000007_Node000009"><a xlink:title=" ">
<path fill="none" stroke="#63b8ff" d="M175.22,-54.84C163.53,-46.96 146.32,-35.36 132.46,-26.02"/>
<polygon fill="#63b8ff" stroke="#63b8ff" points="134.6,-23.24 124.35,-20.55 130.68,-29.04 134.6,-23.24"/>
</a>
</g>
</g>
<!-- Node10 -->
<g id="Node000010" class="node">
<title>Node10</title>
<g id="a_Node000010"><a xlink:title=" ">
<polygon fill="#e0e0e0" stroke="#999999" points="216.5,-19.25 160.75,-19.25 160.75,0 216.5,0 216.5,-19.25"/>
<text text-anchor="middle" x="188.62" y="-5.75" font-family="Helvetica,sans-Serif" font-size="10.00">cinttypes</text>
</a>
</g>
</g>
<!-- Node7&#45;&gt;Node10 -->
<g id="edge12_Node000007_Node000010" class="edge">
<title>Node7&#45;&gt;Node10</title>
<g id="a_edge12_Node000007_Node000010"><a xlink:title=" ">
<path fill="none" stroke="#63b8ff" d="M188.62,-55.08C188.62,-48.57 188.62,-39.42 188.62,-31.12"/>
<polygon fill="#63b8ff" stroke="#63b8ff" points="192.13,-31.12 188.63,-21.12 185.13,-31.12 192.13,-31.12"/>
</a>
</g>
</g>
</g>
</svg>
