<?xml version="1.0" encoding="UTF-8" standalone="no"?>
<!DOCTYPE svg PUBLIC "-//W3C//DTD SVG 1.1//EN"
 "http://www.w3.org/Graphics/SVG/1.1/DTD/svg11.dtd">
<!-- Generated by graphviz version 7.1.0 (20230121.1956)
 -->
<!-- Title: /Users/fola/Documents/ArkScript/Ark/include/Ark/Compiler/ValTableElem.hpp Pages: 1 -->
<svg width="466pt" height="214pt"
 viewBox="0.00 0.00 466.00 214.00" xmlns="http://www.w3.org/2000/svg" xmlns:xlink="http://www.w3.org/1999/xlink">
<g id="graph0" class="graph" transform="scale(1 1) rotate(0) translate(4 210)">
<title>/Users/fola/Documents/ArkScript/Ark/include/Ark/Compiler/ValTableElem.hpp</title>
<!-- Node1 -->
<g id="node1" class="node">
<title>Node1</title>
<g id="a_node1"><a xlink:title="The basic value type handled by the compiler.">
<polygon fill="#999999" stroke="#666666" points="158,-206 0,-206 0,-165 158,-165 158,-206"/>
<text text-anchor="start" x="8" y="-194" font-family="Helvetica,sans-Serif" font-size="10.00">/Users/fola/Documents</text>
<text text-anchor="start" x="8" y="-183" font-family="Helvetica,sans-Serif" font-size="10.00">/ArkScript/Ark/include</text>
<text text-anchor="middle" x="79" y="-172" font-family="Helvetica,sans-Serif" font-size="10.00">/Ark/Compiler/ValTableElem.hpp</text>
</a>
</g>
</g>
<!-- Node2 -->
<g id="node2" class="node">
<title>Node2</title>
<g id="a_node2"><a xlink:title=" ">
<polygon fill="#e0e0e0" stroke="#999999" points="64,-74 18,-74 18,-55 64,-55 64,-74"/>
<text text-anchor="middle" x="41" y="-62" font-family="Helvetica,sans-Serif" font-size="10.00">variant</text>
</a>
</g>
</g>
<!-- Node1&#45;&gt;Node2 -->
<g id="edge1" class="edge">
<title>Node1&#45;&gt;Node2</title>
<path fill="none" stroke="#63b8ff" d="M72.64,-164.58C65.61,-142.58 54.36,-107.35 47.34,-85.37"/>
<polygon fill="#63b8ff" stroke="#63b8ff" points="50.68,-84.32 44.31,-75.86 44.02,-86.45 50.68,-84.32"/>
</g>
<!-- Node3 -->
<g id="node3" class="node">
<title>Node3</title>
<g id="a_node3"><a xlink:title=" ">
<polygon fill="#e0e0e0" stroke="#999999" points="123.5,-74 82.5,-74 82.5,-55 123.5,-55 123.5,-74"/>
<text text-anchor="middle" x="103" y="-62" font-family="Helvetica,sans-Serif" font-size="10.00">string</text>
</a>
</g>
</g>
<!-- Node1&#45;&gt;Node3 -->
<g id="edge2" class="edge">
<title>Node1&#45;&gt;Node3</title>
<path fill="none" stroke="#63b8ff" d="M83.02,-164.58C87.43,-142.68 94.49,-107.68 98.93,-85.68"/>
<polygon fill="#63b8ff" stroke="#63b8ff" points="102.36,-86.4 100.9,-75.9 95.49,-85.01 102.36,-86.4"/>
</g>
<!-- Node4 -->
<g id="node4" class="node">
<title>Node4</title>
<g id="a_node4"><a xlink:href="../../d7/dc6/Node_8hpp.html" target="_top" xlink:title="AST node used by the parser, optimizer and compiler.">
<polygon fill="white" stroke="#666666" points="248.5,-129 107.5,-129 107.5,-110 248.5,-110 248.5,-129"/>
<text text-anchor="middle" x="178" y="-117" font-family="Helvetica,sans-Serif" font-size="10.00">Ark/Compiler/AST/Node.hpp</text>
</a>
</g>
</g>
<!-- Node1&#45;&gt;Node4 -->
<g id="edge3" class="edge">
<title>Node1&#45;&gt;Node4</title>
<path fill="none" stroke="#63b8ff" d="M109.78,-164.6C124.35,-155.19 141.45,-144.13 154.88,-135.44"/>
<polygon fill="#63b8ff" stroke="#63b8ff" points="156.57,-138.52 163.07,-130.15 152.77,-132.64 156.57,-138.52"/>
</g>
<!-- Node4&#45;&gt;Node2 -->
<g id="edge4" class="edge">
<title>Node4&#45;&gt;Node2</title>
<path fill="none" stroke="#63b8ff" d="M154.76,-109.51C132.68,-100.97 99.25,-88.03 74.33,-78.4"/>
<polygon fill="#63b8ff" stroke="#63b8ff" points="75.9,-75.25 65.31,-74.9 73.37,-81.78 75.9,-75.25"/>
</g>
<!-- Node4&#45;&gt;Node3 -->
<g id="edge6" class="edge">
<title>Node4&#45;&gt;Node3</title>
<path fill="none" stroke="#63b8ff" d="M165.28,-109.51C154.22,-101.7 137.96,-90.21 124.83,-80.93"/>
<polygon fill="#63b8ff" stroke="#63b8ff" points="126.96,-78.14 116.77,-75.23 122.92,-83.86 126.96,-78.14"/>
</g>
<!-- Node5 -->
<g id="node5" class="node">
<title>Node5</title>
<g id="a_node5"><a xlink:title=" ">
<polygon fill="#e0e0e0" stroke="#999999" points="194,-74 142,-74 142,-55 194,-55 194,-74"/>
<text text-anchor="middle" x="168" y="-62" font-family="Helvetica,sans-Serif" font-size="10.00">ostream</text>
</a>
</g>
</g>
<!-- Node4&#45;&gt;Node5 -->
<g id="edge5" class="edge">
<title>Node4&#45;&gt;Node5</title>
<path fill="none" stroke="#63b8ff" d="M176.35,-109.75C175.11,-103.19 173.37,-93.95 171.79,-85.6"/>
<polygon fill="#63b8ff" stroke="#63b8ff" points="175.26,-85.11 169.97,-75.93 168.38,-86.4 175.26,-85.11"/>
</g>
<!-- Node6 -->
<g id="node6" class="node">
<title>Node6</title>
<g id="a_node6"><a xlink:title=" ">
<polygon fill="#e0e0e0" stroke="#999999" points="244,-19 200,-19 200,0 244,0 244,-19"/>
<text text-anchor="middle" x="222" y="-7" font-family="Helvetica,sans-Serif" font-size="10.00">vector</text>
</a>
</g>
</g>
<!-- Node4&#45;&gt;Node6 -->
<g id="edge7" class="edge">
<title>Node4&#45;&gt;Node6</title>
<path fill="none" stroke="#63b8ff" d="M183.78,-109.6C189.29,-100.82 197.53,-86.89 203,-74 209,-59.86 213.91,-43.2 217.23,-30.49"/>
<polygon fill="#63b8ff" stroke="#63b8ff" points="220.62,-31.36 219.65,-20.81 213.83,-29.67 220.62,-31.36"/>
</g>
<!-- Node7 -->
<g id="node7" class="node">
<title>Node7</title>
<g id="a_node7"><a xlink:href="../../d8/ddd/Common_8hpp.html" target="_top" xlink:title="Common code for the compiler.">
<polygon fill="white" stroke="#666666" points="385.5,-74 250.5,-74 250.5,-55 385.5,-55 385.5,-74"/>
<text text-anchor="middle" x="318" y="-62" font-family="Helvetica,sans-Serif" font-size="10.00">Ark/Compiler/Common.hpp</text>
</a>
</g>
</g>
<!-- Node4&#45;&gt;Node7 -->
<g id="edge8" class="edge">
<title>Node4&#45;&gt;Node7</title>
<path fill="none" stroke="#63b8ff" d="M201.75,-109.51C224.31,-100.97 258.47,-88.03 283.94,-78.4"/>
<polygon fill="#63b8ff" stroke="#63b8ff" points="285.07,-81.71 293.19,-74.89 282.59,-75.16 285.07,-81.71"/>
</g>
<!-- Node7&#45;&gt;Node6 -->
<g id="edge11" class="edge">
<title>Node7&#45;&gt;Node6</title>
<path fill="none" stroke="#63b8ff" d="M301.71,-54.51C287.01,-46.39 265.11,-34.3 247.98,-24.85"/>
<polygon fill="#63b8ff" stroke="#63b8ff" points="249.82,-21.86 239.37,-20.09 246.43,-27.99 249.82,-21.86"/>
</g>
<!-- Node8 -->
<g id="node8" class="node">
<title>Node8</title>
<g id="a_node8"><a xlink:title=" ">
<polygon fill="#e0e0e0" stroke="#999999" points="374,-19 336,-19 336,0 374,0 374,-19"/>
<text text-anchor="middle" x="355" y="-7" font-family="Helvetica,sans-Serif" font-size="10.00">array</text>
</a>
</g>
</g>
<!-- Node7&#45;&gt;Node8 -->
<g id="edge9" class="edge">
<title>Node7&#45;&gt;Node8</title>
<path fill="none" stroke="#63b8ff" d="M324.11,-54.75C329.01,-47.73 336.05,-37.64 342.17,-28.87"/>
<polygon fill="#63b8ff" stroke="#63b8ff" points="345.04,-30.89 347.89,-20.68 339.3,-26.88 345.04,-30.89"/>
</g>
<!-- Node9 -->
<g id="node9" class="node">
<title>Node9</title>
<g id="a_node9"><a xlink:title=" ">
<polygon fill="#e0e0e0" stroke="#999999" points="458,-19 392,-19 392,0 458,0 458,-19"/>
<text text-anchor="middle" x="425" y="-7" font-family="Helvetica,sans-Serif" font-size="10.00">string_view</text>
</a>
</g>
</g>
<!-- Node7&#45;&gt;Node9 -->
<g id="edge10" class="edge">
<title>Node7&#45;&gt;Node9</title>
<path fill="none" stroke="#63b8ff" d="M336.15,-54.51C352.78,-46.27 377.64,-33.96 396.85,-24.45"/>
<polygon fill="#63b8ff" stroke="#63b8ff" points="398.35,-27.6 405.76,-20.03 395.25,-21.33 398.35,-27.6"/>
</g>
<!-- Node10 -->
<g id="node10" class="node">
<title>Node10</title>
<g id="a_node10"><a xlink:title=" ">
<polygon fill="#e0e0e0" stroke="#999999" points="318,-19 262,-19 262,0 318,0 318,-19"/>
<text text-anchor="middle" x="290" y="-7" font-family="Helvetica,sans-Serif" font-size="10.00">cinttypes</text>
</a>
</g>
</g>
<!-- Node7&#45;&gt;Node10 -->
<g id="edge12" class="edge">
<title>Node7&#45;&gt;Node10</title>
<path fill="none" stroke="#63b8ff" d="M313.38,-54.75C309.75,-47.88 304.57,-38.08 300.01,-29.45"/>
<polygon fill="#63b8ff" stroke="#63b8ff" points="303.2,-27.99 295.43,-20.78 297.01,-31.26 303.2,-27.99"/>
</g>
</g>
</svg>
