<?xml version="1.0" encoding="UTF-8" standalone="no"?>
<!DOCTYPE svg PUBLIC "-//W3C//DTD SVG 1.1//EN"
 "http://www.w3.org/Graphics/SVG/1.1/DTD/svg11.dtd">
<!-- Generated by graphviz version 10.0.1 (20240210.2158)
 -->
<!-- Title: /Users/fola/Documents/ArkScript/Ark/include/Ark/VM/Value/UserType.hpp Pages: 1 -->
<svg width="230pt" height="105pt"
 viewBox="0.00 0.00 229.50 105.00" xmlns="http://www.w3.org/2000/svg" xmlns:xlink="http://www.w3.org/1999/xlink">
<g id="graph0" class="graph" transform="scale(1 1) rotate(0) translate(4 101)">
<title>/Users/fola/Documents/ArkScript/Ark/include/Ark/VM/Value/UserType.hpp</title>
<!-- Node1 -->
<g id="node1" class="node">
<title>Node1</title>
<g id="a_node1"><a xlink:title="Subtype of the value, capable of handling any C++ type.">
<polygon fill="#999999" stroke="#666666" points="164.12,-97 21.38,-97 21.38,-55.25 164.12,-55.25 164.12,-97"/>
<text text-anchor="start" x="29.38" y="-83.5" font-family="Helvetica,sans-Serif" font-size="10.00">/Users/fola/Documents</text>
<text text-anchor="start" x="29.38" y="-72.25" font-family="Helvetica,sans-Serif" font-size="10.00">/ArkScript/Ark/include</text>
<text text-anchor="middle" x="92.75" y="-61" font-family="Helvetica,sans-Serif" font-size="10.00">/Ark/VM/Value/UserType.hpp</text>
</a>
</g>
</g>
<!-- Node2 -->
<g id="node2" class="node">
<title>Node2</title>
<g id="a_node2"><a xlink:title=" ">
<polygon fill="#e0e0e0" stroke="#999999" points="53.5,-19.25 0,-19.25 0,0 53.5,0 53.5,-19.25"/>
<text text-anchor="middle" x="26.75" y="-5.75" font-family="Helvetica,sans-Serif" font-size="10.00">iostream</text>
</a>
</g>
</g>
<!-- Node1&#45;&gt;Node2 -->
<g id="edge1" class="edge">
<title>Node1&#45;&gt;Node2</title>
<path fill="none" stroke="#63b8ff" d="M72.23,-55.07C63.24,-46.29 52.81,-36.09 44.2,-27.68"/>
<polygon fill="#63b8ff" stroke="#63b8ff" points="46.71,-25.24 37.11,-20.75 41.82,-30.25 46.71,-25.24"/>
</g>
<!-- Node3 -->
<g id="node3" class="node">
<title>Node3</title>
<g id="a_node3"><a xlink:title=" ">
<polygon fill="#e0e0e0" stroke="#999999" points="114.25,-19.25 71.25,-19.25 71.25,0 114.25,0 114.25,-19.25"/>
<text text-anchor="middle" x="92.75" y="-5.75" font-family="Helvetica,sans-Serif" font-size="10.00">vector</text>
</a>
</g>
</g>
<!-- Node1&#45;&gt;Node3 -->
<g id="edge2" class="edge">
<title>Node1&#45;&gt;Node3</title>
<path fill="none" stroke="#63b8ff" d="M92.75,-55.07C92.75,-47.4 92.75,-38.64 92.75,-30.95"/>
<polygon fill="#63b8ff" stroke="#63b8ff" points="96.25,-31.21 92.75,-21.21 89.25,-31.21 96.25,-31.21"/>
</g>
<!-- Node4 -->
<g id="node4" class="node">
<title>Node4</title>
<g id="a_node4"><a xlink:href="../../d5/d40/Platform_8hpp.html" target="_top" xlink:title="ArkScript configuration macros.">
<polygon fill="white" stroke="#666666" points="221.5,-19.25 132,-19.25 132,0 221.5,0 221.5,-19.25"/>
<text text-anchor="middle" x="176.75" y="-5.75" font-family="Helvetica,sans-Serif" font-size="10.00">Ark/Platform.hpp</text>
</a>
</g>
</g>
<!-- Node1&#45;&gt;Node4 -->
<g id="edge3" class="edge">
<title>Node1&#45;&gt;Node4</title>
<path fill="none" stroke="#63b8ff" d="M118.87,-55.07C130.79,-45.92 144.71,-35.23 155.91,-26.63"/>
<polygon fill="#63b8ff" stroke="#63b8ff" points="157.94,-29.48 163.74,-20.62 153.67,-23.93 157.94,-29.48"/>
</g>
</g>
</svg>
